M48
; DRILL file {KiCad 9.0.7} date 2026-03-30T23:57:59+0200
; FORMAT={-:-/ absolute / inch / decimal}
; #@! TF.CreationDate,2026-03-30T23:57:59+02:00
; #@! TF.GenerationSoftware,Kicad,Pcbnew,9.0.7
; #@! TF.FileFunction,Plated,1,6,PTH
FMAT,2
INCH
; #@! TA.AperFunction,Plated,PTH,ViaDrill
T1C0.0118
; #@! TA.AperFunction,Plated,PTH,ViaDrill
T2C0.0197
; #@! TA.AperFunction,Plated,PTH,ComponentDrill
T3C0.0394
%
G90
G05
T1
X1.2832Y-6.4646
X1.2913Y-6.9646
X1.2992Y-3.2835
X1.2992Y-3.4291
X1.2992Y-3.5709
X1.2992Y-3.7126
X1.2992Y-3.8543
X1.2992Y-3.9961
X1.2992Y-4.1378
X1.2992Y-4.2795
X1.3147Y-6.5748
X1.3189Y-6.8189
X1.3305Y-6.6791
X1.3463Y-6.5374
X1.3464Y-6.7598
X1.362Y-6.3957
X1.3622Y-6.8622
X1.378Y-6.252
X1.378Y-6.9606
X1.3937Y-6.1102
X1.3937Y-7.0354
X1.4094Y-5.9685
X1.7126Y-4.2323
X1.7795Y-4.315
X1.815Y-5.2205
X1.8543Y-1.8071
X1.8563Y-2.0059
X1.872Y-1.9469
X1.878Y-4.315
X1.9055Y-5.8031
X1.9277Y-5.4754
X1.9331Y-6.6929
X1.9449Y-5.5866
X1.9488Y-1.7559
X1.9498Y-4.6693
X1.9498Y-4.8543
X1.9498Y-5.0197
X1.9498Y-5.2087
X1.9685Y-6.5866
X2.0079Y-4.8307
X2.0118Y-5.0
X2.0236Y-4.6457
X2.0315Y-5.1732
X2.0433Y-6.4213
X2.0591Y-6.1929
X2.0669Y-6.563
X2.0787Y-5.7274
X2.0866Y-2.1969
X2.1181Y-6.6142
X2.1417Y-4.6299
X2.1417Y-4.8031
X2.1496Y-4.9803
X2.1496Y-5.1614
X2.1496Y-5.3425
X2.1732Y-5.4449
X2.2126Y-6.3937
X2.2244Y-6.5276
X2.311Y-2.3465
X2.3268Y-5.4488
X2.3583Y-2.0315
X2.3701Y-2.3622
X2.371Y-4.5276
X2.371Y-4.6899
X2.371Y-4.8671
X2.371Y-5.0443
X2.371Y-5.2156
X2.3731Y-2.1934
X2.4803Y-5.9961
X2.4843Y-5.4449
X2.4843Y-5.874
X2.4921Y-2.3465
X2.5197Y-7.9646
X2.5236Y-7.2756
X2.5236Y-7.6181
X2.5236Y-7.7953
X2.5236Y-8.1378
X2.5236Y-8.311
X2.5276Y-7.1063
X2.5276Y-7.4488
X2.5433Y-2.0315
X2.5433Y-4.8858
X2.5433Y-5.3031
X2.5472Y-2.3583
X2.5472Y-4.7047
X2.5472Y-5.0748
X2.5512Y-4.5315
X2.5532Y-1.8705
X2.5532Y-2.1934
X2.5669Y-4.4655
X2.5669Y-5.9803
X2.593Y-6.2864
X2.5989Y-6.2254
X2.6024Y-6.0906
X2.6063Y-4.467
X2.6063Y-5.8189
X2.6181Y-6.6299
X2.6417Y-5.4488
X2.6457Y-8.5906
X2.6654Y-8.563
X2.6693Y-2.3465
X2.685Y-8.5354
X2.7047Y-8.5079
X2.7062Y-6.4345
X2.7205Y-2.0315
X2.7244Y-2.3622
X2.7244Y-8.4803
X2.7253Y-4.5236
X2.7253Y-4.6693
X2.7253Y-4.8504
X2.7253Y-5.0315
X2.7253Y-5.2087
X2.7304Y-1.8705
X2.7304Y-2.1934
X2.7441Y-8.4528
X2.7638Y-2.689
X2.7638Y-8.4252
X2.782Y-6.2077
X2.7835Y-8.3976
X2.7953Y-5.4449
X2.7953Y-7.1181
X2.7953Y-8.3386
X2.8189Y-7.248
X2.8189Y-8.563
X2.8425Y-2.3465
X2.8465Y-5.6496
X2.8465Y-7.3819
X2.8465Y-8.2835
X2.8671Y-4.6417
X2.8701Y-7.5157
X2.8701Y-8.2559
X2.8704Y-5.5909
X2.8725Y-6.373
X2.8765Y-5.9409
X2.8789Y-4.5984
X2.8789Y-5.0079
X2.8819Y-5.6732
X2.8828Y-5.1693
X2.8863Y-4.8307
X2.8937Y-7.6535
X2.8937Y-8.2283
X2.8976Y-2.0315
X2.8976Y-2.3622
X2.9001Y-5.7943
X2.9055Y-6.8976
X2.9076Y-1.8705
X2.9076Y-2.1934
X2.9139Y-4.7677
X2.9139Y-4.9331
X2.9139Y-5.1772
X2.9173Y-7.7835
X2.9173Y-8.2008
X2.9409Y-8.1732
X2.9412Y-7.9058
X2.9528Y-5.4488
X2.9532Y-6.1112
X2.9724Y-8.1142
X2.9803Y-5.3386
X3.0197Y-2.3425
X3.0354Y-5.9606
X3.0379Y-5.6683
X3.0591Y-0.8661
X3.0748Y-2.0315
X3.0787Y-2.3661
X3.0847Y-1.8705
X3.0857Y-2.1934
X3.0906Y-4.7362
X3.1142Y-5.4449
X3.1269Y-4.8882
X3.1269Y-5.085
X3.1269Y-5.2796
X3.1324Y-6.2077
X3.1496Y-6.9409
X3.1496Y-8.5906
X3.1614Y-0.8898
X3.179Y-3.2774
X3.1811Y-6.378
X3.189Y-3.748
X3.1969Y-2.3465
X3.2087Y-6.5748
X3.2165Y-4.5945
X3.2431Y-4.7795
X3.252Y-2.0315
X3.2559Y-2.3622
X3.2598Y-0.9134
X3.2619Y-2.1934
X3.2677Y-1.8705
X3.2677Y-5.3504
X3.2694Y-3.7266
X3.2717Y-5.4528
X3.2953Y-6.8701
X3.2992Y-7.0
X3.2992Y-8.3386
X3.3228Y-6.2795
X3.3228Y-7.1339
X3.3228Y-8.311
X3.3268Y-3.622
X3.3399Y-4.7756
X3.3399Y-4.9803
X3.3399Y-5.1654
X3.3465Y-7.2559
X3.3465Y-8.5354
X3.3504Y-5.9557
X3.3622Y-0.937
X3.374Y-2.3425
X3.4252Y-2.0315
X3.4291Y-5.4409
X3.437Y-2.3661
X3.4391Y-1.8705
X3.4391Y-2.1934
X3.4606Y-0.9606
X3.4724Y-3.4213
X3.4882Y-6.8701
X3.5039Y-3.748
X3.5079Y-6.0039
X3.5394Y-6.937
X3.5394Y-8.5906
X3.5512Y-2.3386
X3.5551Y-5.8189
X3.5591Y-0.9843
X3.5866Y-3.7283
X3.6009Y-5.9557
X3.6063Y-2.0354
X3.6142Y-2.3661
X3.6162Y-1.8705
X3.6162Y-2.1934
X3.6378Y-5.6142
X3.6457Y-3.626
X3.6614Y-1.0079
X3.689Y-6.8661
X3.7087Y-6.9882
X3.7087Y-8.3386
X3.7323Y-7.0984
X3.7323Y-8.563
X3.748Y-4.3228
X3.7598Y-1.0315
X3.7795Y-2.0315
X3.7874Y-4.3386
X3.7934Y-1.8705
X3.7934Y-2.1934
X3.7934Y-2.3661
X3.7934Y-2.4016
X3.8152Y-3.3113
X3.8189Y-3.748
X3.878Y-6.8661
X3.8974Y-3.7247
X3.9291Y-4.6339
X3.9291Y-6.9409
X3.9291Y-8.5906
X3.9606Y-3.626
X3.9646Y-2.4055
X3.9685Y-2.0315
X3.9685Y-2.3661
X3.9706Y-1.8705
X3.9706Y-2.1934
X4.0551Y-7.0315
X4.0551Y-8.3386
X4.0669Y-6.8622
X4.0787Y-7.1654
X4.0787Y-8.311
X4.1024Y-7.2992
X4.1024Y-8.2835
X4.1173Y-3.2866
X4.126Y-7.4134
X4.126Y-8.5079
X4.1339Y-3.748
X4.1378Y-2.0315
X4.1477Y-1.8705
X4.1477Y-2.1934
X4.1477Y-2.3661
X4.1477Y-2.4055
X4.2124Y-3.7247
X4.2756Y-3.626
X4.2795Y-6.8661
X4.315Y-2.0315
X4.3249Y-1.8705
X4.3249Y-2.1934
X4.3249Y-2.3622
X4.3249Y-2.4055
X4.3268Y-6.9409
X4.3268Y-8.5906
X4.4224Y-3.2964
X4.4488Y-3.748
X4.4764Y-6.874
X4.4961Y-2.0276
X4.502Y-2.1934
X4.5039Y-6.9764
X4.5039Y-8.3386
X4.5069Y-2.3701
X4.5069Y-2.4094
X4.5078Y-1.8705
X4.5236Y-8.563
X4.5273Y-3.7247
X4.5276Y-7.0984
X4.5925Y-3.6299
X4.6626Y-4.6091
X4.6732Y-2.0276
X4.6772Y-6.8701
X4.6792Y-2.1934
X4.6841Y-2.3661
X4.6841Y-2.4055
X4.685Y-1.8705
X4.7205Y-6.9409
X4.7205Y-8.5906
X4.7452Y-3.2885
X4.7638Y-3.748
X4.8204Y-4.5157
X4.8425Y-3.7283
X4.8465Y-2.0315
X4.8564Y-1.8705
X4.8564Y-2.1934
X4.8583Y-2.3701
X4.8613Y-2.4055
X4.8661Y-7.0079
X4.8661Y-8.3386
X4.874Y-6.8622
X4.8898Y-7.1457
X4.8898Y-8.311
X4.9055Y-3.622
X4.9094Y-4.689
X4.9094Y-8.5354
X4.9134Y-7.2598
X5.0Y-3.3071
X5.0276Y-2.0315
X5.0335Y-1.8705
X5.0335Y-2.1934
X5.0384Y-2.3622
X5.0384Y-2.4055
X5.0669Y-7.3189
X5.0669Y-8.2835
X5.0748Y-6.8701
X5.0787Y-3.748
X5.0842Y-4.5906
X5.0906Y-7.4528
X5.0906Y-8.2559
X5.1142Y-7.5669
X5.1142Y-8.4803
X5.1417Y-1.9606
X5.1496Y-5.8858
X5.1592Y-3.7266
X5.1772Y-4.7559
X5.2008Y-4.3908
X5.2165Y-6.8898
X5.2224Y-3.622
X5.2375Y-6.6299
X5.2815Y-6.1811
X5.315Y-3.3071
X5.3189Y-5.6024
X5.3189Y-5.811
X5.3189Y-7.2559
X5.3189Y-8.5354
X5.3307Y-4.6929
X5.3661Y-4.1181
X5.3937Y-3.748
X5.4016Y-5.622
X5.4134Y-6.8937
X5.437Y-2.0315
X5.437Y-2.3701
X5.439Y-6.1772
X5.4439Y-2.1973
X5.4439Y-2.2717
X5.4458Y-1.8705
X5.4722Y-3.7247
X5.4764Y-7.3071
X5.4764Y-8.2835
X5.5Y-7.4134
X5.5Y-8.5079
X5.5354Y-3.622
X5.5965Y-6.1772
X5.6102Y-2.0315
X5.6102Y-2.3661
X5.6102Y-6.8898
X5.6211Y-2.1973
X5.6211Y-2.2717
X5.623Y-1.8705
X5.626Y-1.0787
X5.6511Y-4.5472
X5.6732Y-3.4094
X5.6747Y-4.5906
X5.6969Y-8.5354
X5.7008Y-7.2559
X5.7087Y-3.748
X5.7204Y-6.1772
X5.7402Y-1.1339
X5.7598Y-4.0866
X5.7628Y-4.2028
X5.7872Y-3.7247
X5.7874Y-2.374
X5.7938Y-2.03
X5.7983Y-2.1973
X5.7983Y-2.2717
X5.7993Y-1.8705
X5.8071Y-6.8819
X5.8268Y-7.3465
X5.8268Y-8.2835
X5.8504Y-6.2008
X5.8504Y-3.6181
X5.8504Y-7.4764
X5.8504Y-8.2559
X5.874Y-4.7087
X5.874Y-4.7677
X5.874Y-7.6142
X5.874Y-8.2283
X5.8976Y-7.7283
X5.8976Y-8.4528
X5.9528Y-4.1142
X5.9646Y-4.8307
X5.9724Y-2.0276
X5.9754Y-2.1973
X5.9754Y-2.2717
X5.9754Y-2.3819
X5.9764Y-1.8705
X5.9843Y-3.4134
X6.0039Y-6.8937
X6.0078Y-6.2052
X6.0236Y-3.748
X6.0487Y-4.5906
X6.0945Y-7.2559
X6.0945Y-8.5354
X6.1021Y-3.7247
X6.1093Y-4.3209
X6.126Y-0.8661
X6.1496Y-2.0276
X6.1496Y-2.3858
X6.1526Y-2.1973
X6.1526Y-2.2717
X6.1545Y-1.8705
X6.1614Y-3.622
X6.1653Y-6.2008
X6.2008Y-6.8937
X6.2259Y-4.4724
X6.2283Y-0.8898
X6.2717Y-7.2953
X6.2717Y-8.2835
X6.2904Y-4.2028
X6.2953Y-7.4094
X6.2953Y-8.5079
X6.3031Y-3.4094
X6.3189Y-2.0276
X6.3228Y-6.2008
X6.3268Y-0.9134
X6.3268Y-2.3858
X6.3298Y-2.1973
X6.3298Y-2.2717
X6.3317Y-1.8705
X6.3386Y-3.748
X6.3898Y-4.2953
X6.3937Y-4.6791
X6.3976Y-6.8819
X6.4016Y-4.7717
X6.4171Y-3.7247
X6.4252Y-0.937
X6.4331Y-4.7166
X6.4764Y-3.622
X6.4882Y-7.5709
X6.4882Y-8.4803
X6.5Y-2.0276
X6.5039Y-2.3819
X6.5069Y-2.1973
X6.5069Y-2.2717
X6.5079Y-1.8705
X6.5236Y-0.9606
X6.5648Y-5.9861
X6.5945Y-6.8898
X6.5999Y-4.5906
X6.6181Y-3.4213
X6.626Y-0.9843
X6.6378Y-7.6457
X6.6378Y-8.2283
X6.6535Y-3.748
X6.6604Y-4.2028
X6.6614Y-7.7795
X6.6614Y-8.2008
X6.6654Y-6.3031
X6.6732Y-2.0276
X6.6732Y-4.0984
X6.6772Y-2.378
X6.6811Y-8.4252
X6.6841Y-2.1973
X6.6841Y-2.2717
X6.685Y-7.8858
X6.6851Y-1.8705
X6.7047Y-6.0039
X6.7146Y-4.876
X6.7283Y-1.0079
X6.732Y-3.7247
X6.7913Y-3.626
X6.7913Y-6.8898
X6.8307Y-1.0315
X6.8425Y-2.0315
X6.8613Y-2.1973
X6.8613Y-2.2717
X6.8631Y-1.8705
X6.878Y-2.5472
X6.8898Y-7.5709
X6.8898Y-8.4803
X6.9134Y-5.7756
X6.937Y-3.4134
X6.9685Y-3.748
X6.9882Y-6.8898
X7.003Y-4.3209
X7.0039Y-6.1432
X7.0079Y-5.9464
X7.0187Y-4.2028
X7.0354Y-2.0236
X7.0384Y-2.1973
X7.0384Y-2.2717
X7.0403Y-1.8705
X7.047Y-3.7247
X7.0551Y-5.7495
X7.0591Y-7.6181
X7.0591Y-8.2283
X7.063Y-2.5433
X7.0827Y-7.7283
X7.0827Y-8.4528
X7.1063Y-3.626
X7.1708Y-4.5906
X7.1786Y-4.4724
X7.185Y-6.8898
X7.2008Y-4.1024
X7.2087Y-2.0276
X7.2156Y-2.1973
X7.2156Y-2.2717
X7.2166Y-1.8705
X7.2362Y-2.5433
X7.252Y-3.4173
X7.2756Y-7.5669
X7.2756Y-8.4803
X7.281Y-3.7495
X7.362Y-3.7247
X7.3819Y-2.0315
X7.3819Y-6.8898
X7.3858Y-7.6772
X7.3858Y-8.2283
X7.3928Y-2.1973
X7.3928Y-2.2717
X7.3937Y-1.8705
X7.4094Y-7.811
X7.4094Y-8.2008
X7.4134Y-5.3031
X7.4173Y-2.5354
X7.4252Y-3.622
X7.4331Y-7.9488
X7.4331Y-8.1732
X7.4724Y-4.2402
X7.4764Y-8.0433
X7.4882Y-5.2638
X7.5Y-8.3976
X7.5276Y-4.0748
X7.563Y-2.0276
X7.5669Y-3.4134
X7.5699Y-2.1973
X7.5699Y-2.2717
X7.5718Y-1.8705
X7.5787Y-6.8898
X7.5866Y-2.5315
X7.596Y-3.7495
X7.6102Y-4.3031
X7.6378Y-5.4055
X7.6769Y-3.7247
X7.6772Y-5.2047
X7.6811Y-5.1102
X7.7158Y-3.6385
X7.7283Y-5.3543
X7.7441Y-2.0236
X7.7471Y-2.1973
X7.7471Y-2.2717
X7.749Y-1.8705
X7.7598Y-2.5197
X7.878Y-5.2283
X7.8819Y-3.4134
X7.8937Y-5.3661
X7.9109Y-3.7495
X7.9134Y-2.0315
X7.9213Y-5.0433
X7.9213Y-5.2402
X7.9243Y-2.1973
X7.9243Y-2.2717
X7.9252Y-1.8705
X7.9291Y-5.4488
X7.9449Y-4.8583
X7.9488Y-2.5394
X7.9916Y-2.2249
X7.9961Y-6.5945
X7.9961Y-7.4134
X8.0Y-6.1654
X8.0Y-7.6142
X8.0Y-7.815
X8.0Y-8.0079
X8.0039Y-5.7598
X8.0039Y-6.3583
X8.0039Y-6.9882
X8.0039Y-7.189
X8.0079Y-5.9646
X8.0118Y-6.7913
X8.0197Y-5.0945
X8.0236Y-4.937
X8.0512Y-3.626
X8.063Y-8.0591
X8.063Y-8.3386
X8.0866Y-2.0315
X8.0984Y-7.4488
X8.1024Y-1.8705
X8.1024Y-2.1973
X8.122Y-2.5512
X8.1339Y-7.8543
X8.1378Y-4.6614
X8.1378Y-5.2047
X8.1417Y-6.1969
X8.1437Y-7.6673
X8.1457Y-7.0276
X8.1496Y-6.6417
X8.1496Y-7.2441
X8.1535Y-6.8386
X8.1575Y-6.4331
X8.1614Y-6.0276
X8.189Y-4.8819
X8.2008Y-5.0512
X8.2205Y-8.0591
X8.2205Y-8.311
X8.252Y-7.6457
X8.2559Y-6.815
X8.2638Y-1.4961
X8.2638Y-1.6732
X8.2638Y-1.8504
X8.2638Y-2.0276
X8.2638Y-2.2047
X8.2638Y-2.3819
X8.2638Y-2.5591
X8.2756Y-7.2205
X8.3346Y-5.1969
X8.3465Y-8.0433
X8.3543Y-6.3976
X8.3543Y-7.2283
X8.3956Y-4.6378
X8.3996Y-1.4513
X8.3996Y-1.6245
X8.3996Y-1.8056
X8.4016Y-4.6772
X8.4035Y-1.9867
X8.4035Y-2.156
X8.4035Y-2.3332
X8.4035Y-2.5143
X8.4193Y-1.3292
X8.4606Y-5.2362
X8.4961Y-5.3543
X8.5591Y-6.0276
X8.5591Y-6.4331
X8.5827Y-7.2677
X8.5984Y-1.5182
X8.5984Y-1.6954
X8.5984Y-1.8725
X8.5984Y-2.0497
X8.5984Y-2.2269
X8.5984Y-2.404
X8.5984Y-2.5812
X8.6063Y-6.8386
X8.6063Y-7.2913
X8.6063Y-7.6693
X8.6535Y-6.1969
X8.6772Y-6.811
X8.6772Y-7.6457
X8.7008Y-6.6417
X8.7008Y-7.0276
X8.7008Y-7.4488
X8.7008Y-7.8543
X8.7835Y-1.1535
X8.7951Y-4.6614
X8.7951Y-4.7638
X8.7953Y-1.122
X8.8109Y-4.4724
X8.811Y-1.0906
X8.8268Y-3.937
X8.8307Y-1.063
X8.8502Y-1.0356
X8.8683Y-1.0097
X8.8739Y-4.7165
X8.8781Y-0.9797
X8.8897Y-4.5984
X8.8976Y-0.9528
X8.9055Y-3.8819
X8.9311Y-1.5025
X8.9311Y-1.8607
X8.9311Y-2.3844
X8.9311Y-2.5655
X8.935Y-1.3292
X8.935Y-1.6757
X8.935Y-1.967
X8.935Y-2.03
X8.935Y-2.2072
X8.935Y-2.4985
X8.939Y-2.1442
X8.9429Y-2.3253
X8.9469Y-2.6757
X8.9508Y-1.7859
X8.9528Y-3.8819
X8.9528Y-4.4685
X8.9528Y-4.5984
X8.9528Y-4.6575
X8.9528Y-4.7165
X8.9528Y-4.7638
X8.9567Y-3.937
X8.9567Y-5.3071
X8.9705Y-1.6088
X8.9724Y-2.9882
X8.9763Y-5.1969
X8.9921Y-5.0906
X9.0079Y-5.0185
X9.0276Y-4.9882
X9.0512Y-4.9449
X9.0571Y-1.4277
X9.1142Y-1.4921
X9.1142Y-2.0276
X9.1142Y-2.2047
X9.1142Y-2.3819
X9.1181Y-1.6732
X9.1181Y-1.8504
X9.1181Y-2.5591
X9.1673Y-2.6954
X9.1713Y-1.4631
X9.1713Y-1.5891
X9.1713Y-1.7938
X9.1713Y-1.9631
X9.1713Y-2.1324
X9.1713Y-2.3214
X9.1713Y-2.5025
X9.248Y-1.4961
X9.248Y-1.6732
X9.248Y-1.8504
X9.248Y-2.0276
X9.248Y-2.2047
X9.248Y-2.3819
X9.248Y-2.5591
X9.4134Y-2.6654
X9.4961Y-4.5512
X9.4972Y-4.5012
X9.5157Y-2.719
X9.5295Y-4.565
X9.5394Y-2.6955
X9.5529Y-3.2913
X9.5551Y-3.8415
X9.563Y-2.6732
X9.5687Y-3.1469
X9.5807Y-4.565
X9.5845Y-2.9897
X9.5873Y-5.0106
X9.6003Y-2.8401
X9.6063Y-3.9833
X9.6161Y-2.6905
X9.6208Y-5.0165
X9.6269Y-5.0474
X9.628Y-4.565
X9.6319Y-2.5448
X9.6476Y-2.3952
X9.6496Y-7.7953
X9.6641Y-5.048
X9.666Y-5.0815
X9.6673Y-2.2377
X9.6693Y-4.2392
X9.6781Y-4.564
X9.7053Y-5.0776
X9.7185Y-3.8164
X9.7196Y-5.1057
X9.7264Y-4.565
X9.7323Y-7.9409
X9.7362Y-7.6417
X9.7402Y-7.3425
X9.748Y-7.4921
X9.7507Y-5.111
X9.7559Y-3.9833
X9.7776Y-4.565
X9.7835Y-1.3858
X9.8086Y-4.829
X9.8189Y-4.2392
X9.8282Y-5.1713
X9.8322Y-5.4547
X9.8322Y-5.6004
X9.8322Y-5.8917
X9.8322Y-6.0413
X9.8322Y-6.187
X9.8361Y-5.3051
X9.8361Y-5.7421
X9.8563Y-3.7968
X9.8602Y-2.6156
X9.864Y-2.155
X9.8642Y-2.2968
X9.8642Y-3.0408
X9.8642Y-3.3322
X9.8681Y-2.4542
X9.8681Y-2.7534
X9.8681Y-2.8952
X9.8681Y-3.1905
X9.8716Y-4.8012
X9.9055Y-3.9833
X9.9109Y-4.687
X9.9267Y-4.7854
X9.9646Y-3.3858
X9.9685Y-4.2392
X9.9808Y-4.7687
X10.0039Y-3.7731
X10.029Y-4.7539
X10.055Y-5.3996
X10.0551Y-3.9833
X10.0802Y-4.7382
X10.1181Y-4.2392
X10.1393Y-4.7185
X10.1516Y-3.7456
X10.2087Y-3.9793
X10.2677Y-4.2392
X10.2889Y-5.0335
X10.2889Y-5.4665
X10.2889Y-5.8996
X10.2889Y-6.3327
X10.2889Y-6.7657
X10.2889Y-7.1988
X10.2889Y-7.6319
X10.2889Y-8.065
X10.3051Y-3.722
X10.3516Y-5.1513
X10.3516Y-5.5844
X10.3516Y-6.0175
X10.3516Y-6.4505
X10.3516Y-6.8836
X10.3516Y-7.3167
X10.3516Y-7.7498
X10.3516Y-8.1828
X10.3542Y-4.9453
X10.3542Y-5.3783
X10.3542Y-5.8114
X10.3542Y-6.2445
X10.3542Y-6.6776
X10.3542Y-7.1106
X10.3542Y-7.5437
X10.3542Y-7.9768
X10.3583Y-3.9793
X10.3952Y-7.2106
X10.3952Y-7.6437
X10.4031Y-5.0453
X10.4031Y-8.0768
X10.407Y-6.3445
X10.4109Y-5.4783
X10.4109Y-5.9114
X10.4109Y-6.7776
X10.4173Y-4.2392
X10.4188Y-5.2343
X10.4227Y-5.6673
X10.4227Y-6.1004
X10.4227Y-6.5335
X10.4227Y-6.9665
X10.4227Y-7.3957
X10.4227Y-7.8327
X10.4369Y-8.4547
X10.4567Y-3.6984
X10.4665Y-2.1156
X10.5079Y-3.9793
X10.5472Y-3.2087
X10.561Y-2.8007
X10.561Y-2.9464
X10.561Y-3.096
X10.565Y-2.1983
X10.565Y-2.3479
X10.565Y-2.4936
X10.565Y-2.6471
X10.565Y-3.2495
X10.5669Y-4.2392
X10.596Y-5.0453
X10.596Y-5.0925
X10.596Y-5.4783
X10.596Y-5.5256
X10.596Y-5.9114
X10.596Y-5.9587
X10.596Y-6.3445
X10.596Y-6.3917
X10.596Y-6.7776
X10.596Y-6.8248
X10.596Y-7.2106
X10.596Y-7.2579
X10.596Y-7.6437
X10.596Y-7.6909
X10.596Y-8.0768
X10.596Y-8.124
X10.6079Y-3.5963
X10.6291Y-3.62
X10.6446Y-3.648
X10.6476Y-1.3952
X10.6575Y-3.9793
X10.6665Y-3.6707
X10.6668Y-5.1831
X10.6668Y-5.6161
X10.6668Y-6.0492
X10.6668Y-6.4823
X10.6668Y-6.9154
X10.6668Y-7.3484
X10.6668Y-7.7815
X10.6668Y-8.2146
X10.6834Y-3.6983
X10.6989Y-6.3097
X10.6989Y-6.7427
X10.6996Y-7.1751
X10.7009Y-5.0085
X10.7009Y-5.4416
X10.7009Y-7.6069
X10.7009Y-8.04
X10.7029Y-5.8727
X10.7042Y-3.7219
X10.7165Y-4.2392
X10.725Y-3.7455
X10.7461Y-3.7692
X10.7549Y-5.3155
X10.7549Y-5.7486
X10.7549Y-6.1817
X10.7549Y-6.6147
X10.7549Y-7.0478
X10.7549Y-7.4809
X10.7549Y-7.9139
X10.7549Y-8.347
X10.7657Y-2.2456
X10.7657Y-2.3991
X10.7657Y-2.5487
X10.7657Y-2.6983
X10.7657Y-2.8479
X10.7657Y-2.9975
X10.7657Y-3.1471
X10.7657Y-3.2968
X10.7928Y-5.1713
X10.7928Y-5.6043
X10.7928Y-6.0374
X10.7928Y-6.4705
X10.7928Y-6.9035
X10.7928Y-7.3366
X10.7928Y-7.7697
X10.7928Y-8.2028
X10.9193Y-2.2456
X10.9193Y-2.3952
X10.9232Y-2.6944
X10.9232Y-2.8479
X10.9232Y-3.1471
X10.9272Y-2.5527
X10.9272Y-2.9975
X10.9272Y-3.3007
X10.9306Y-5.4114
X10.9306Y-6.2706
X10.9306Y-6.7037
X10.9306Y-7.1368
X10.9306Y-7.5698
X10.9306Y-8.0029
X10.9345Y-5.8406
X10.9385Y-4.9823
X10.9385Y-5.1634
X10.9385Y-5.5965
X10.9385Y-6.0295
X10.9385Y-6.4626
X10.9385Y-6.8957
X10.9385Y-7.3287
X10.9385Y-7.7618
X10.9385Y-8.1949
X10.9547Y-3.8007
X10.9582Y-5.061
X10.9582Y-5.4941
X10.9582Y-5.9272
X10.9582Y-6.3602
X10.9582Y-6.7933
X10.9582Y-7.2264
X10.9582Y-7.6594
X10.9582Y-8.0925
X10.9605Y-5.313
X10.9818Y-5.0059
X10.9818Y-5.439
X10.9818Y-5.6437
X10.9818Y-5.872
X10.9818Y-6.0768
X10.9818Y-6.3051
X10.9818Y-6.5098
X10.9818Y-6.7382
X10.9818Y-6.9429
X10.9818Y-7.1713
X10.9818Y-7.376
X10.9818Y-7.6043
X10.9818Y-7.8091
X10.9818Y-8.0374
X10.9818Y-8.2421
X10.9921Y-4.3031
X11.0098Y-4.0305
X11.0369Y-5.2657
X11.0369Y-5.6988
X11.0369Y-6.1319
X11.0369Y-6.565
X11.0369Y-6.998
X11.0369Y-7.4311
X11.0369Y-7.8642
X11.0369Y-8.2972
X11.065Y-4.2864
X11.1043Y-3.8257
X11.124Y-2.7416
X11.124Y-3.0369
X11.126Y-3.4252
X11.128Y-2.2928
X11.128Y-2.4384
X11.128Y-2.8873
X11.128Y-3.1865
X11.128Y-3.3401
X11.1314Y-5.6083
X11.1314Y-7.7776
X11.1319Y-2.5881
X11.1353Y-5.1752
X11.1353Y-6.0413
X11.1353Y-6.4744
X11.1353Y-6.9075
X11.1353Y-7.3406
X11.1353Y-8.2067
X11.1417Y-4.2953
X11.1594Y-4.0305
X11.1713Y-2.1786
X11.1909Y-1.5094
X11.2146Y-4.2864
X11.2219Y-5.1673
X11.2219Y-5.6004
X11.2219Y-6.0335
X11.2219Y-6.4665
X11.2219Y-6.8996
X11.2219Y-7.3327
X11.2219Y-7.7657
X11.2219Y-8.1988
X11.2539Y-3.8558
X11.2913Y-4.2992
X11.3091Y-4.0305
X11.3637Y-6.0571
X11.3637Y-6.9272
X11.3642Y-4.2864
X11.366Y-8.4941
X11.3676Y-5.1949
X11.3676Y-5.628
X11.3676Y-6.4941
X11.3676Y-7.3602
X11.3676Y-7.7933
X11.3676Y-8.2264
X11.3952Y-5.061
X11.3952Y-5.4941
X11.3952Y-5.9272
X11.3952Y-6.3602
X11.3952Y-6.7933
X11.3952Y-7.2264
X11.3952Y-7.6594
X11.3952Y-8.0925
X11.3991Y-5.2146
X11.3991Y-5.6476
X11.3991Y-6.0807
X11.3991Y-6.5177
X11.3991Y-6.9508
X11.3991Y-7.3839
X11.3991Y-7.8169
X11.3991Y-8.2579
X11.4035Y-3.8834
X11.407Y-4.939
X11.4149Y-5.3799
X11.4149Y-5.8169
X11.4149Y-6.25
X11.4149Y-6.6831
X11.4149Y-7.1161
X11.4149Y-7.5453
X11.4149Y-7.9823
X11.4188Y-5.1673
X11.4188Y-5.6004
X11.4188Y-6.0335
X11.4188Y-6.4665
X11.4188Y-6.8996
X11.4188Y-7.3327
X11.4188Y-7.7657
X11.4188Y-8.1988
X11.4409Y-4.2953
X11.4587Y-4.0305
X11.4739Y-5.2657
X11.4739Y-5.6988
X11.4739Y-6.1319
X11.4739Y-6.565
X11.4739Y-6.998
X11.4739Y-7.4311
X11.4739Y-7.8642
X11.4739Y-8.2972
X11.5138Y-4.2864
X11.5531Y-3.9109
X11.5802Y-5.0886
X11.5842Y-8.1161
X11.5881Y-5.5177
X11.5881Y-5.9508
X11.5881Y-6.3839
X11.5881Y-6.813
X11.5881Y-7.25
X11.5906Y-4.2953
X11.596Y-7.6791
X11.6083Y-4.0305
X11.6511Y-7.2933
X11.655Y-5.6083
X11.655Y-5.9941
X11.655Y-6.8602
X11.659Y-6.4744
X11.659Y-7.75
X11.6634Y-4.2864
X11.6786Y-7.9508
X11.7028Y-3.9385
X11.7101Y-5.6083
X11.7229Y-2.1117
X11.7259Y-5.9941
X11.7402Y-4.2953
X11.7456Y-6.4783
X11.7575Y-6.7776
X11.7579Y-4.0305
X11.7733Y-7.1083
X11.7891Y-7.1516
X11.8031Y-3.2087
X11.813Y-4.2864
X11.8209Y-2.8007
X11.8209Y-2.9503
X11.8248Y-2.5015
X11.8248Y-2.6511
X11.8248Y-3.096
X11.8248Y-3.2456
X11.8287Y-2.1983
X11.8287Y-2.3519
X11.8287Y-3.5959
X11.8411Y-7.1702
X11.8489Y-3.6201
X11.8524Y-3.9674
X11.8582Y-7.0531
X11.8582Y-7.5256
X11.8681Y-3.647
X11.87Y-6.5807
X11.8739Y-6.1083
X11.8882Y-3.6712
X11.8898Y-4.2953
X11.8952Y-4.9272
X11.8952Y-5.2539
X11.8952Y-6.2067
X11.8952Y-6.6752
X11.9055Y-1.3971
X11.9075Y-3.6982
X11.9075Y-4.0305
X11.9109Y-8.3366
X11.9282Y-3.7219
X11.9508Y-3.7455
X11.9626Y-4.2864
X11.9739Y-8.2185
X11.9744Y-3.7692
X11.9818Y-7.7343
X11.9857Y-5.5335
X11.9857Y-6.002
X11.9857Y-6.4783
X11.9857Y-6.9547
X11.9857Y-7.4272
X11.9857Y-7.6673
X11.9897Y-5.065
X11.9936Y-7.935
X12.002Y-3.9936
X12.0196Y-5.5689
X12.0256Y-2.2456
X12.0256Y-2.3991
X12.0256Y-2.5487
X12.0256Y-2.6983
X12.0256Y-2.8479
X12.0256Y-2.9975
X12.0256Y-3.1471
X12.0256Y-3.2968
X12.0394Y-4.2953
X12.0571Y-4.0305
X12.0605Y-4.9272
X12.0605Y-5.2697
X12.0605Y-6.2224
X12.0605Y-6.687
X12.065Y-3.9674
X12.0925Y-3.9385
X12.1122Y-4.2864
X12.1161Y-3.9109
X12.1235Y-8.2146
X12.1398Y-3.8834
X12.1437Y-1.4528
X12.1471Y-7.7303
X12.1511Y-6.0098
X12.1511Y-6.4823
X12.1511Y-6.9547
X12.1511Y-7.4272
X12.1511Y-7.6673
X12.1511Y-7.935
X12.155Y-5.0689
X12.155Y-5.5335
X12.1634Y-3.8558
X12.1791Y-2.2495
X12.1831Y-2.6983
X12.1831Y-3.8257
X12.187Y-2.3991
X12.187Y-2.5487
X12.187Y-2.8519
X12.187Y-2.9975
X12.1909Y-3.1471
X12.1909Y-3.2968
X12.2028Y-3.8007
X12.2219Y-6.2382
X12.2259Y-4.9272
X12.2259Y-5.2854
X12.2259Y-6.7028
X12.2771Y-8.2146
X12.3007Y-7.7343
X12.3164Y-5.061
X12.3164Y-5.5335
X12.3164Y-6.0098
X12.3164Y-6.4823
X12.3164Y-6.9547
X12.3164Y-7.4272
X12.3164Y-7.6673
X12.3204Y-7.935
X12.3819Y-4.1339
X12.3839Y-2.5881
X12.3873Y-6.2539
X12.3873Y-6.7185
X12.3878Y-2.2928
X12.3878Y-2.4385
X12.3878Y-3.0408
X12.3878Y-3.1865
X12.3878Y-3.3361
X12.3912Y-4.9272
X12.3912Y-5.3012
X12.3917Y-2.7416
X12.3917Y-2.8912
X12.4267Y-8.2185
X12.4311Y-2.1708
X12.4582Y-7.7343
X12.4818Y-5.5335
X12.4818Y-6.0138
X12.4818Y-6.4862
X12.4818Y-6.9547
X12.4818Y-7.4272
X12.4818Y-7.6673
X12.4857Y-5.061
X12.4857Y-7.935
X12.4921Y-3.4055
X12.498Y-4.2023
X12.5527Y-6.2697
X12.5566Y-4.9272
X12.5566Y-5.3169
X12.5605Y-6.7382
X12.5723Y-8.2146
X12.6275Y-7.7343
X12.6471Y-5.5335
X12.6471Y-6.0098
X12.6471Y-6.4823
X12.6471Y-6.9547
X12.6471Y-7.4232
X12.6471Y-7.6673
X12.6471Y-7.939
X12.6511Y-5.065
X12.718Y-6.2854
X12.7219Y-4.9272
X12.7219Y-5.3327
X12.7219Y-6.7539
X12.7219Y-8.2146
X12.7362Y-4.0315
X12.7928Y-7.7343
X12.8125Y-5.5374
X12.8125Y-6.0098
X12.8125Y-6.4783
X12.8125Y-6.9547
X12.8125Y-7.4193
X12.8125Y-7.6673
X12.8125Y-7.935
X12.8164Y-5.0689
X12.866Y-5.9626
X12.8716Y-8.2146
X12.8834Y-6.3012
X12.8873Y-4.9272
X12.8873Y-5.3484
X12.8873Y-6.7657
X12.97Y-7.7303
X12.9779Y-5.5374
X12.9779Y-6.0059
X12.9779Y-6.4783
X12.9779Y-6.9508
X12.9779Y-7.4272
X12.9779Y-7.6673
X12.9818Y-5.061
X12.9818Y-7.935
X12.9823Y-2.1156
X13.0212Y-8.1634
X13.0212Y-8.2146
X13.0487Y-6.3169
X13.0487Y-6.7933
X13.0512Y-3.3976
X13.0527Y-4.9272
X13.0527Y-5.3642
X13.0807Y-2.9464
X13.0846Y-2.1944
X13.0846Y-2.6471
X13.0846Y-2.8007
X13.0846Y-3.2495
X13.0886Y-2.4975
X13.0886Y-3.096
X13.0925Y-2.3479
X13.1353Y-7.7343
X13.1432Y-5.061
X13.1432Y-5.5413
X13.1432Y-6.4783
X13.1432Y-6.9508
X13.1432Y-7.4272
X13.1432Y-7.6673
X13.1511Y-7.939
X13.1791Y-1.3834
X13.1968Y-7.6083
X13.2519Y-7.1555
X13.2854Y-2.2456
X13.2854Y-2.3991
X13.2854Y-2.5487
X13.2854Y-2.6983
X13.2854Y-2.8479
X13.2854Y-2.9975
X13.2854Y-3.1471
X13.2854Y-3.2968
X13.2894Y-3.9936
X13.3248Y-3.9674
X13.3524Y-3.9385
X13.376Y-3.9109
X13.3996Y-3.8834
X13.4232Y-3.8558
X13.4429Y-3.8257
X13.4626Y-3.8007
X13.492Y-5.1358
X13.496Y-7.9705
X13.5314Y-7.6004
X13.5353Y-7.3642
X13.5615Y-7.7657
X13.5629Y-8.1791
X13.5921Y-7.3652
X13.5965Y-1.3698
X13.6078Y-6.8366
X13.6117Y-7.6004
X13.6141Y-7.128
X13.6275Y-8.1437
X13.6275Y-8.4783
X13.6298Y-6.1831
X13.6437Y-3.3401
X13.6476Y-2.2968
X13.6476Y-2.4464
X13.6476Y-2.8912
X13.6496Y-7.7657
X13.6516Y-2.592
X13.6516Y-2.7456
X13.6516Y-3.0448
X13.6516Y-3.1865
X13.6949Y-2.1826
X13.6968Y-7.8445
X13.7164Y-6.6476
X13.7259Y-7.4469
X13.729Y-6.3437
X13.7322Y-8.1909
X13.7338Y-6.2972
X13.7338Y-7.0138
X13.7338Y-7.0571
X13.7377Y-6.498
X13.7401Y-6.8484
X13.7441Y-4.0276
X13.7534Y-7.6358
X13.7534Y-7.9193
X13.7691Y-7.9926
X13.7794Y-7.8445
X13.7794Y-8.4508
X13.8007Y-7.4783
X13.8227Y-8.4469
X13.8597Y-7.3484
X13.87Y-8.502
X13.8936Y-6.75
X13.8952Y-6.498
X13.9227Y-6.7854
X13.9621Y-6.5925
X13.9621Y-6.6831
X13.9857Y-5.9985
X13.9857Y-7.9587
X14.0094Y-5.8725
X14.0094Y-7.9823
X14.033Y-5.7466
X14.033Y-8.0079
X14.0566Y-5.622
X14.0566Y-8.0341
X14.0802Y-5.4946
X14.0802Y-8.0559
X14.1038Y-5.3686
X14.1038Y-8.0809
X14.1275Y-5.2441
X14.1275Y-8.103
X14.1511Y-5.1166
X14.1511Y-8.1262
X14.2618Y-2.1511
X14.3346Y-3.5945
X14.3406Y-2.7968
X14.3406Y-3.2416
X14.3445Y-2.2023
X14.3445Y-2.4975
X14.3445Y-2.6471
X14.3445Y-2.9424
X14.3445Y-3.0881
X14.355Y-2.3564
X14.4193Y-1.4031
X14.5059Y-2.4385
X14.5059Y-2.5881
X14.5059Y-2.7377
X14.5059Y-2.8873
X14.5059Y-3.1865
X14.5059Y-3.3361
X14.5098Y-2.2928
X14.5098Y-3.0369
T2
X0.9606Y-6.0039
X0.9606Y-6.4291
X0.9606Y-6.8543
X1.0Y-2.3661
X1.0Y-2.7913
X1.0Y-3.2165
X1.0Y-3.6417
X1.0Y-4.0669
X1.1181Y-5.8622
X1.1181Y-6.0039
X1.1181Y-6.1457
X1.1181Y-6.2874
X1.1181Y-6.4291
X1.1181Y-6.5709
X1.1181Y-6.7126
X1.1181Y-6.8543
X1.1575Y-2.0827
X1.1575Y-2.2244
X1.1575Y-2.3661
X1.1575Y-2.5079
X1.1575Y-2.6496
X1.1575Y-2.7913
X1.1575Y-2.9331
X1.1575Y-3.0748
X1.1575Y-3.2165
X1.1575Y-3.3583
X1.1575Y-3.5
X1.1575Y-3.6417
X1.1575Y-3.7835
X1.1575Y-3.9252
X1.1575Y-4.0669
X1.1575Y-4.2087
X1.7913Y-3.3228
X1.811Y-3.7835
X1.9431Y-6.377
X1.9449Y-3.4173
X1.9488Y-3.626
X1.9961Y-7.0433
X1.9961Y-7.1496
X1.9961Y-7.2165
X1.9961Y-7.3228
X1.9961Y-7.3898
X1.9961Y-7.4961
X1.9961Y-7.563
X1.9961Y-7.6693
X1.9961Y-7.7362
X1.9961Y-7.8425
X1.9961Y-7.9094
X1.9961Y-8.0157
X1.9961Y-8.0827
X1.9961Y-8.189
X1.9961Y-8.2559
X1.9961Y-8.3622
X2.0039Y-2.5984
X2.0536Y-5.7904
X2.0763Y-2.3976
X2.0891Y-5.936
X2.0906Y-3.1417
X2.1024Y-3.8189
X2.1339Y-2.185
X2.2038Y-2.1934
X2.2229Y-6.2077
X2.2471Y-1.8705
X2.248Y-3.2795
X2.2899Y-6.2077
X2.3169Y-3.4055
X2.3268Y-3.2047
X2.3583Y-3.7795
X2.3701Y-7.0433
X2.3701Y-7.1496
X2.3701Y-7.2165
X2.3701Y-7.3228
X2.3701Y-7.3898
X2.3701Y-7.4961
X2.3701Y-7.563
X2.3701Y-7.6693
X2.3701Y-7.7362
X2.3701Y-7.8425
X2.3701Y-7.9094
X2.3701Y-8.0157
X2.3701Y-8.0827
X2.3701Y-8.189
X2.3701Y-8.2559
X2.3701Y-8.3622
X2.4085Y-2.5984
X2.4213Y-3.7756
X2.4228Y-1.6914
X2.7032Y-6.5541
X2.7677Y-3.4173
X2.7677Y-3.6299
X2.845Y-6.0463
X2.8607Y-6.2746
X2.9134Y-3.315
X2.9134Y-3.7756
X2.937Y-2.5984
X2.9592Y-6.2116
X2.9779Y-1.6914
X3.0452Y-3.2717
X3.1024Y-3.685
X3.1339Y-6.6969
X3.189Y-3.8622
X3.1929Y-3.4528
X3.2347Y-5.7864
X3.3602Y-3.2717
X3.4173Y-3.685
X3.4788Y-5.7589
X3.4946Y-6.2628
X3.5039Y-3.8622
X3.5064Y-6.0463
X3.5079Y-3.4528
X3.5472Y-6.6969
X3.5655Y-6.2707
X3.6496Y-2.5984
X3.6752Y-3.2717
X3.6866Y-1.6914
X3.7323Y-3.685
X3.8189Y-3.8622
X3.8228Y-3.4528
X3.9901Y-3.2717
X4.0472Y-3.685
X4.1339Y-3.8622
X4.1378Y-3.4528
X4.1423Y-6.6975
X4.1654Y-6.2244
X4.1654Y-6.3228
X4.3051Y-3.2717
X4.3613Y-2.5984
X4.3622Y-3.685
X4.3913Y-1.6914
X4.4488Y-3.8622
X4.4528Y-3.4528
X4.5157Y-6.6969
X4.62Y-3.2717
X4.6772Y-3.685
X4.7638Y-3.8622
X4.7677Y-3.4528
X4.8928Y-2.5871
X4.9213Y-6.6969
X4.9267Y-1.6914
X4.935Y-3.2717
X4.9921Y-3.685
X5.0787Y-3.8622
X5.0827Y-3.4528
X5.1387Y-6.6978
X5.1575Y-5.7992
X5.1772Y-2.1496
X5.2116Y-4.2539
X5.25Y-3.2717
X5.2707Y-2.1973
X5.3071Y-3.685
X5.3101Y-1.8705
X5.3701Y-4.1929
X5.3937Y-3.8622
X5.3976Y-3.4528
X5.4715Y-2.5871
X5.4872Y-1.6934
X5.5649Y-3.2717
X5.622Y-3.685
X5.7087Y-3.8622
X5.7126Y-3.4528
X5.7165Y-6.6969
X5.752Y-6.0669
X5.8799Y-3.2717
X5.937Y-3.685
X6.003Y-2.5871
X6.0236Y-3.8622
X6.0276Y-3.4528
X6.0424Y-1.6934
X6.1024Y-6.6969
X6.1948Y-3.2717
X6.252Y-3.685
X6.3386Y-3.8622
X6.3425Y-3.4528
X6.4921Y-6.6969
X6.5098Y-3.2717
X6.5669Y-3.685
X6.6535Y-3.8622
X6.6575Y-3.4528
X6.7156Y-2.5871
X6.751Y-1.6934
X6.8248Y-3.2717
X6.8819Y-3.685
X6.8898Y-6.6969
X6.937Y-5.2362
X6.9409Y-5.3307
X6.9685Y-3.8622
X6.9724Y-3.4528
X7.0827Y-6.6969
X7.1397Y-3.2717
X7.1969Y-3.685
X7.2047Y-5.8189
X7.2087Y-6.0157
X7.2087Y-6.2087
X7.2087Y-6.4055
X7.2835Y-3.8622
X7.2874Y-3.4528
X7.4243Y-2.5871
X7.4547Y-3.2717
X7.4557Y-1.6934
X7.4665Y-8.1043
X7.5118Y-3.685
X7.5984Y-3.8622
X7.6024Y-3.4528
X7.6969Y-5.7791
X7.6969Y-6.1964
X7.6969Y-6.6334
X7.6969Y-7.0232
X7.6969Y-7.8543
X7.7008Y-7.4606
X7.7441Y-4.7283
X7.7696Y-3.2717
X7.8268Y-3.685
X7.8917Y-4.252
X7.8957Y-4.3386
X7.8976Y-5.1732
X7.8976Y-5.7598
X7.8976Y-5.9567
X7.8976Y-6.1535
X7.8976Y-6.3504
X7.8976Y-6.5866
X7.8976Y-6.7835
X7.8976Y-6.9803
X7.8976Y-7.1772
X7.8976Y-7.4134
X7.8976Y-7.6102
X7.8976Y-7.8071
X7.8976Y-8.0039
X7.9134Y-3.8622
X7.9173Y-3.4528
X7.9557Y-2.5871
X7.9803Y-5.0472
X7.9912Y-1.6934
X8.0748Y-5.5138
X8.185Y-1.5827
X8.185Y-1.9449
X8.185Y-2.3031
X8.2717Y-1.7992
X8.2717Y-2.1575
X8.4016Y-5.185
X8.4567Y-4.811
X8.4961Y-6.3307
X8.4961Y-7.1575
X8.4961Y-7.9843
X8.7559Y-1.3858
X8.7559Y-1.563
X8.7559Y-1.7402
X8.7559Y-1.9173
X8.7559Y-2.0945
X8.7559Y-2.2717
X8.7559Y-2.4488
X8.7559Y-2.626
X9.2697Y-2.2662
X9.2776Y-1.3765
X9.2854Y-2.4631
X9.3046Y-5.2579
X9.3046Y-5.4035
X9.3046Y-5.5492
X9.3046Y-5.6949
X9.3046Y-5.8406
X9.3046Y-5.9862
X9.3046Y-6.1319
X9.3046Y-6.2776
X9.3307Y-1.5827
X9.3307Y-1.9449
X9.3307Y-2.3071
X9.3369Y-5.172
X9.3369Y-5.3177
X9.3369Y-5.4634
X9.3369Y-5.6091
X9.3369Y-5.7547
X9.3369Y-5.9004
X9.3369Y-6.0461
X9.3369Y-6.1917
X9.7279Y-1.3927
X9.7496Y-6.939
X9.7535Y-7.0295
X9.844Y-5.2579
X9.844Y-5.4035
X9.844Y-5.5492
X9.844Y-5.6949
X9.844Y-5.8406
X9.844Y-5.9862
X9.844Y-6.1319
X9.844Y-6.2776
X9.8763Y-5.172
X9.8763Y-5.3177
X9.8763Y-5.4634
X9.8763Y-5.6091
X9.8763Y-5.7547
X9.8763Y-5.9004
X9.8763Y-6.0461
X9.8763Y-6.1917
X9.8775Y-1.1919
X9.8794Y-7.4272
X9.8794Y-7.5768
X9.8794Y-7.7264
X9.8794Y-8.0256
X9.8834Y-7.8799
X9.9125Y-7.3343
X9.9125Y-7.4839
X9.9125Y-7.6335
X9.9125Y-7.9327
X9.9164Y-7.787
X10.0315Y-3.2082
X10.4016Y-3.283
X10.5571Y-1.1944
X10.7028Y-1.1905
X10.9877Y-1.3927
X11.1373Y-1.1919
X11.2913Y-3.2082
X11.6614Y-3.283
X11.8169Y-1.1944
X11.9626Y-1.1905
X12.2475Y-1.3888
X12.3971Y-1.188
X12.5511Y-8.4035
X12.5512Y-3.2082
X12.5566Y-5.2579
X12.5566Y-5.7303
X12.5566Y-6.2028
X12.5566Y-6.6752
X12.5566Y-7.1476
X12.5566Y-7.6201
X12.5566Y-8.1319
X12.9213Y-3.283
X13.0807Y-1.1944
X13.2082Y-5.0827
X13.2082Y-5.5551
X13.2082Y-6.0276
X13.2082Y-6.5
X13.2082Y-6.9724
X13.2082Y-7.4449
X13.2264Y-1.1905
X13.2303Y-4.3401
X13.3597Y-5.0965
X13.3597Y-5.5689
X13.3597Y-6.0413
X13.3597Y-6.5138
X13.3597Y-6.9862
X13.3597Y-7.4587
X13.5074Y-1.3927
X13.657Y-1.1919
X13.7524Y-0.9794
X13.7524Y-1.0582
X13.7822Y-4.8654
X13.7822Y-5.015
X13.7822Y-5.1646
X13.7822Y-5.3142
X13.7822Y-5.4638
X13.7822Y-5.6134
X13.7822Y-5.763
X13.7822Y-5.9126
X13.811Y-3.2082
X13.8204Y-4.7736
X13.8204Y-4.9232
X13.8204Y-5.0728
X13.8204Y-5.2224
X13.8204Y-5.372
X13.8204Y-5.5217
X13.8204Y-5.6713
X13.8204Y-5.8209
X14.1811Y-3.283
X14.3406Y-1.1944
X14.4862Y-1.1905
T3
X1.0551Y-4.7559
X1.0551Y-4.8559
X1.0551Y-4.9559
X1.0551Y-5.0559
X1.0551Y-5.1559
X1.0551Y-5.2559
X1.0551Y-5.3559
X1.0551Y-5.4559
X1.0575Y-1.0087
X1.0575Y-1.1087
X1.0575Y-1.2087
X1.0575Y-1.3087
X1.0575Y-1.4087
X1.0575Y-1.5087
X1.0575Y-1.6087
X1.0575Y-1.7087
X1.1551Y-4.7559
X1.1551Y-4.8559
X1.1551Y-4.9559
X1.1551Y-5.0559
X1.1551Y-5.1559
X1.1551Y-5.2559
X1.1551Y-5.3559
X1.1551Y-5.4559
X1.1575Y-1.0087
X1.1575Y-1.1087
X1.1575Y-1.2087
X1.1575Y-1.3087
X1.1575Y-1.4087
X1.1575Y-1.5087
X1.1575Y-1.6087
X1.1575Y-1.7087
X1.5354Y-5.6614
X1.5354Y-5.7614
X1.5354Y-5.8614
X1.5354Y-5.9614
X1.5354Y-6.0614
X1.5354Y-6.1614
X1.5354Y-6.2614
X1.5354Y-6.3614
X1.5354Y-6.4614
X1.5354Y-6.5614
X1.5354Y-6.6614
X1.5354Y-6.7614
X1.5354Y-6.8614
X1.5354Y-6.9614
X1.5354Y-7.0614
X1.5354Y-7.1614
X1.5354Y-7.2614
X1.5354Y-7.3614
X1.5354Y-7.4614
X1.5354Y-7.5614
X1.5354Y-7.6614
X2.3583Y-3.6811
X2.3583Y-3.874
X2.4828Y-6.3022
X2.5622Y-4.2087
X2.563Y-1.3937
X2.563Y-2.874
X2.6622Y-4.2087
X2.663Y-1.3937
X2.663Y-2.874
X2.7622Y-4.2087
X2.763Y-1.3937
X2.763Y-2.874
X2.8622Y-4.2087
X2.863Y-1.3937
X2.863Y-2.874
X2.9622Y-4.2087
X2.963Y-1.3937
X2.963Y-2.874
X3.0622Y-4.2087
X3.063Y-1.3937
X3.063Y-2.874
X3.1622Y-4.2087
X3.163Y-1.3937
X3.163Y-2.874
X3.2622Y-4.2087
X3.263Y-1.3937
X3.263Y-2.874
X3.3622Y-4.2087
X3.363Y-1.3937
X3.363Y-2.874
X3.4622Y-4.2087
X3.463Y-1.3937
X3.463Y-2.874
X3.5622Y-4.2087
X3.563Y-1.3937
X3.563Y-2.874
X3.6622Y-4.2087
X3.663Y-1.3937
X3.663Y-2.874
X3.7622Y-4.2087
X3.763Y-1.3937
X3.763Y-2.874
X3.8622Y-4.2087
X3.863Y-1.3937
X3.863Y-2.874
X3.9622Y-4.2087
X3.963Y-1.3937
X3.963Y-2.874
X4.0622Y-4.2087
X4.063Y-1.3937
X4.063Y-2.874
X4.1622Y-4.2087
X4.163Y-1.3937
X4.163Y-2.874
X4.2622Y-4.2087
X4.263Y-1.3937
X4.263Y-2.874
X4.3622Y-4.2087
X4.363Y-1.3937
X4.363Y-2.874
X4.4622Y-4.2087
X4.463Y-1.3937
X4.463Y-2.874
X4.5622Y-4.2087
X4.563Y-1.3937
X4.563Y-2.874
X5.626Y-1.3937
X5.626Y-2.874
X5.726Y-1.3937
X5.726Y-2.874
X5.826Y-1.3937
X5.826Y-2.874
X5.926Y-1.3937
X5.926Y-2.874
X6.026Y-1.3937
X6.026Y-2.874
X6.126Y-1.3937
X6.126Y-2.874
X6.226Y-1.3937
X6.226Y-2.874
X6.326Y-1.3937
X6.326Y-2.874
X6.426Y-1.3937
X6.426Y-2.874
X6.526Y-1.3937
X6.526Y-2.874
X6.626Y-1.3937
X6.626Y-2.874
X6.726Y-1.3937
X6.726Y-2.874
X6.826Y-1.3937
X6.826Y-2.874
X6.926Y-1.3937
X6.926Y-2.874
X7.026Y-1.3937
X7.026Y-2.874
X7.126Y-1.3937
X7.126Y-2.874
X7.226Y-1.3937
X7.226Y-2.874
X7.326Y-1.3937
X7.326Y-2.874
X7.426Y-1.3937
X7.426Y-2.874
X7.526Y-1.3937
X7.526Y-2.874
X7.626Y-1.3937
X7.626Y-2.874
X9.1339Y-4.1417
X9.211Y-8.2677
X9.2339Y-4.1417
X9.311Y-8.2677
X9.8313Y-6.6687
X9.8313Y-6.7687
X10.2185Y-1.3834
X10.2185Y-1.4834
X10.2185Y-1.5834
X10.2185Y-1.6834
X10.2185Y-1.7834
X10.2185Y-1.8834
X10.2185Y-1.9834
X10.2185Y-2.0834
X10.2185Y-2.1834
X10.2185Y-2.2834
X10.2185Y-2.3834
X10.2185Y-2.4834
X10.2185Y-2.5834
X10.2185Y-2.6834
X10.2185Y-2.7834
X10.2185Y-2.8834
X10.2185Y-2.9834
X10.2185Y-3.0834
X10.2185Y-3.1834
X10.2185Y-3.2834
X10.2185Y-3.3834
X11.4764Y-1.3819
X11.4764Y-1.4819
X11.4764Y-1.5819
X11.4764Y-1.6819
X11.4764Y-1.7819
X11.4764Y-1.8819
X11.4764Y-1.9819
X11.4764Y-2.0819
X11.4764Y-2.1819
X11.4764Y-2.2819
X11.4764Y-2.3819
X11.4764Y-2.4819
X11.4764Y-2.5819
X11.4764Y-2.6819
X11.4764Y-2.7819
X11.4764Y-2.8819
X11.4764Y-2.9819
X11.4764Y-3.0819
X11.4764Y-3.1819
X11.4764Y-3.2819
X11.4764Y-3.3819
X11.9104Y-1.0157
X12.0104Y-1.0157
X12.7362Y-1.3819
X12.7362Y-1.4819
X12.7362Y-1.5819
X12.7362Y-1.6819
X12.7362Y-1.7819
X12.7362Y-1.8819
X12.7362Y-1.9819
X12.7362Y-2.0819
X12.7362Y-2.1819
X12.7362Y-2.2819
X12.7362Y-2.3819
X12.7362Y-2.4819
X12.7362Y-2.5819
X12.7362Y-2.6819
X12.7362Y-2.7819
X12.7362Y-2.8819
X12.7362Y-2.9819
X12.7362Y-3.0819
X12.7362Y-3.1819
X12.7362Y-3.2819
X12.7362Y-3.3819
X13.811Y-4.4
X13.811Y-4.5
X13.9961Y-1.3819
X13.9961Y-1.4819
X13.9961Y-1.5819
X13.9961Y-1.6819
X13.9961Y-1.7819
X13.9961Y-1.8819
X13.9961Y-1.9819
X13.9961Y-2.0819
X13.9961Y-2.1819
X13.9961Y-2.2819
X13.9961Y-2.3819
X13.9961Y-2.4819
X13.9961Y-2.5819
X13.9961Y-2.6819
X13.9961Y-2.7819
X13.9961Y-2.8819
X13.9961Y-2.9819
X13.9961Y-3.0819
X13.9961Y-3.1819
X13.9961Y-3.2819
X13.9961Y-3.3819
M30
