%TF.GenerationSoftware,KiCad,Pcbnew,9.0.7*%
%TF.CreationDate,2026-03-31T13:30:01+02:00*%
%TF.ProjectId,Whole_CPU_V1.0,57686f6c-655f-4435-9055-5f56312e302e,rev?*%
%TF.SameCoordinates,Original*%
%TF.FileFunction,Copper,L5,Inr*%
%TF.FilePolarity,Positive*%
%FSLAX46Y46*%
G04 Gerber Fmt 4.6, Leading zero omitted, Abs format (unit mm)*
G04 Created by KiCad (PCBNEW 9.0.7) date 2026-03-31 13:30:01*
%MOMM*%
%LPD*%
G01*
G04 APERTURE LIST*
%TA.AperFunction,ComponentPad*%
%ADD10R,1.700000X1.700000*%
%TD*%
%TA.AperFunction,ComponentPad*%
%ADD11C,1.700000*%
%TD*%
%TA.AperFunction,ViaPad*%
%ADD12C,0.600000*%
%TD*%
%TA.AperFunction,ViaPad*%
%ADD13C,1.000000*%
%TD*%
%TA.AperFunction,Conductor*%
%ADD14C,0.200000*%
%TD*%
G04 APERTURE END LIST*
D10*
%TO.N,Faling Edge*%
%TO.C,J7*%
X59900000Y-98400000D03*
%TD*%
%TO.N,VCC*%
%TO.C,J6*%
X65080000Y-106900000D03*
D11*
%TO.N,GND*%
X67620000Y-106900000D03*
%TO.N,rst*%
X70160000Y-106900000D03*
%TO.N,VCC*%
X72700000Y-106900000D03*
%TO.N,Rising Edge*%
X75240000Y-106900000D03*
%TO.N,TIME STEP IN 0*%
X77780000Y-106900000D03*
%TO.N,TIME STEP IN 1*%
X80320000Y-106900000D03*
%TO.N,TIME STEP IN 2*%
X82860000Y-106900000D03*
%TO.N,FLAG STORE N*%
X85400000Y-106900000D03*
%TO.N,FLAG STORE Z*%
X87940000Y-106900000D03*
%TO.N,FLAG STORE U*%
X90480000Y-106900000D03*
%TO.N,FLAG STORE O*%
X93020000Y-106900000D03*
%TO.N,FLAG STORE C*%
X95560000Y-106900000D03*
%TO.N,TIME STEP 0*%
X98100000Y-106900000D03*
%TO.N,TIME STEP 1*%
X100640000Y-106900000D03*
%TO.N,TIME STEP 2*%
X103180000Y-106900000D03*
%TO.N,FLAG N*%
X105720000Y-106900000D03*
%TO.N,FLAG Z*%
X108260000Y-106900000D03*
%TO.N,FLAG U*%
X110800000Y-106900000D03*
%TO.N,FLAG O*%
X113340000Y-106900000D03*
%TO.N,FLAG C*%
X115880000Y-106900000D03*
%TD*%
D10*
%TO.N,VCC*%
%TO.C,J24*%
X355500000Y-35100000D03*
D11*
%TO.N,GND*%
X355500000Y-37640000D03*
%TO.N,rst*%
X355500000Y-40180000D03*
%TO.N,READ D*%
X355500000Y-42720000D03*
%TO.N,Rising Edge*%
X355500000Y-45260000D03*
%TO.N,Main bus 0*%
X355500000Y-47800000D03*
%TO.N,Main bus 1*%
X355500000Y-50340000D03*
%TO.N,Main bus 2*%
X355500000Y-52880000D03*
%TO.N,Main bus 3*%
X355500000Y-55420000D03*
%TO.N,Main bus 4*%
X355500000Y-57960000D03*
%TO.N,Main bus 5*%
X355500000Y-60500000D03*
%TO.N,Main bus 6*%
X355500000Y-63040000D03*
%TO.N,ALU FLAG N*%
X355500000Y-65580000D03*
%TO.N,Net-(J24-Pin_14)*%
X355500000Y-68120000D03*
%TO.N,Net-(J24-Pin_15)*%
X355500000Y-70660000D03*
%TO.N,Net-(J24-Pin_16)*%
X355500000Y-73200000D03*
%TO.N,Net-(J24-Pin_17)*%
X355500000Y-75740000D03*
%TO.N,Net-(J24-Pin_18)*%
X355500000Y-78280000D03*
%TO.N,Net-(J24-Pin_19)*%
X355500000Y-80820000D03*
%TO.N,Net-(J24-Pin_20)*%
X355500000Y-83360000D03*
%TO.N,Net-(J24-Pin_21)*%
X355500000Y-85900000D03*
%TD*%
D10*
%TO.N,VCC*%
%TO.C,J5*%
X142900000Y-35400000D03*
D11*
%TO.N,GND*%
X145440000Y-35400000D03*
%TO.N,rst*%
X147980000Y-35400000D03*
%TO.N,TIME STEP 0*%
X150520000Y-35400000D03*
%TO.N,Faling Edge*%
X153060000Y-35400000D03*
%TO.N,Buss0*%
X155600000Y-35400000D03*
%TO.N,Buss1*%
X158140000Y-35400000D03*
%TO.N,Buss2*%
X160680000Y-35400000D03*
%TO.N,Buss3*%
X163220000Y-35400000D03*
%TO.N,Buss4*%
X165760000Y-35400000D03*
%TO.N,Buss5*%
X168300000Y-35400000D03*
%TO.N,Buss6*%
X170840000Y-35400000D03*
%TO.N,Buss7*%
X173380000Y-35400000D03*
%TO.N,TEMP ADR 8*%
X175920000Y-35400000D03*
%TO.N,TEMP ADR 9*%
X178460000Y-35400000D03*
%TO.N,TEMP ADR 10*%
X181000000Y-35400000D03*
%TO.N,TEMP ADR 11*%
X183540000Y-35400000D03*
%TO.N,TEMP ADR 12*%
X186080000Y-35400000D03*
%TO.N,TEMP ADR 13*%
X188620000Y-35400000D03*
%TO.N,TEMP ADR 14*%
X191160000Y-35400000D03*
%TO.N,TEMP ADR 15*%
X193700000Y-35400000D03*
%TD*%
D10*
%TO.N,ADR 7*%
%TO.C,J11*%
X29400000Y-25620000D03*
D11*
%TO.N,ADR 15*%
X26860000Y-25620000D03*
%TO.N,ADR 6*%
X29400000Y-28160000D03*
%TO.N,ADR 14*%
X26860000Y-28160000D03*
%TO.N,ADR 5*%
X29400000Y-30700000D03*
%TO.N,ADR 13*%
X26860000Y-30700000D03*
%TO.N,ADR 4*%
X29400000Y-33240000D03*
%TO.N,ADR 12*%
X26860000Y-33240000D03*
%TO.N,ADR 3*%
X29400000Y-35780000D03*
%TO.N,ADR 11*%
X26860000Y-35780000D03*
%TO.N,ADR 2*%
X29400000Y-38320000D03*
%TO.N,ADR 10*%
X26860000Y-38320000D03*
%TO.N,ADR 1*%
X29400000Y-40860000D03*
%TO.N,ADR 9*%
X26860000Y-40860000D03*
%TO.N,ADR 0*%
X29400000Y-43400000D03*
%TO.N,ADR 8*%
X26860000Y-43400000D03*
%TD*%
D10*
%TO.N,VCC*%
%TO.C,J27*%
X233960000Y-210000000D03*
D11*
%TO.N,GND*%
X236500000Y-210000000D03*
%TD*%
D10*
%TO.N,VCC*%
%TO.C,J4*%
X65100000Y-35400000D03*
D11*
%TO.N,GND*%
X67640000Y-35400000D03*
%TO.N,rst*%
X70180000Y-35400000D03*
%TO.N,TIME STEP 1*%
X72720000Y-35400000D03*
%TO.N,Faling Edge*%
X75260000Y-35400000D03*
%TO.N,Buss0*%
X77800000Y-35400000D03*
%TO.N,Buss1*%
X80340000Y-35400000D03*
%TO.N,Buss2*%
X82880000Y-35400000D03*
%TO.N,Buss3*%
X85420000Y-35400000D03*
%TO.N,Buss4*%
X87960000Y-35400000D03*
%TO.N,Buss5*%
X90500000Y-35400000D03*
%TO.N,Buss6*%
X93040000Y-35400000D03*
%TO.N,Buss7*%
X95580000Y-35400000D03*
%TO.N,TEMP ADR 0*%
X98120000Y-35400000D03*
%TO.N,TEMP ADR 1*%
X100660000Y-35400000D03*
%TO.N,TEMP ADR 2*%
X103200000Y-35400000D03*
%TO.N,TEMP ADR 3*%
X105740000Y-35400000D03*
%TO.N,TEMP ADR 4*%
X108280000Y-35400000D03*
%TO.N,TEMP ADR 5*%
X110820000Y-35400000D03*
%TO.N,TEMP ADR 6*%
X113360000Y-35400000D03*
%TO.N,TEMP ADR 7*%
X115900000Y-35400000D03*
%TD*%
D10*
%TO.N,VCC*%
%TO.C,J19*%
X232000000Y-105200000D03*
D11*
%TO.N,GND*%
X234540000Y-105200000D03*
%TD*%
D10*
%TO.N,VCC*%
%TO.C,J28*%
X249715000Y-171925000D03*
D11*
%TO.N,GND*%
X249715000Y-169385000D03*
%TD*%
D10*
%TO.N,Buss0*%
%TO.C,J10*%
X29340000Y-120800000D03*
D11*
%TO.N,VCC*%
X26800000Y-120800000D03*
%TO.N,Buss1*%
X29340000Y-123340000D03*
%TO.N,GND*%
X26800000Y-123340000D03*
%TO.N,Buss2*%
X29340000Y-125880000D03*
%TO.N,CLOCK*%
X26800000Y-125880000D03*
%TO.N,Buss3*%
X29340000Y-128420000D03*
%TO.N,rst*%
X26800000Y-128420000D03*
%TO.N,Buss4*%
X29340000Y-130960000D03*
%TO.N,GND*%
X26800000Y-130960000D03*
%TO.N,Buss5*%
X29340000Y-133500000D03*
%TO.N,R{slash}W out*%
X26800000Y-133500000D03*
%TO.N,Buss6*%
X29340000Y-136040000D03*
%TO.N,GND*%
X26800000Y-136040000D03*
%TO.N,Buss7*%
X29340000Y-138580000D03*
%TO.N,VCC*%
X26800000Y-138580000D03*
%TD*%
D10*
%TO.N,VCC*%
%TO.C,J1*%
X39000000Y-194600000D03*
D11*
%TO.N,GND*%
X39000000Y-192060000D03*
%TO.N,rst*%
X39000000Y-189520000D03*
%TO.N,Read New Instruction*%
X39000000Y-186980000D03*
%TO.N,Faling Edge*%
X39000000Y-184440000D03*
%TO.N,Buss0*%
X39000000Y-181900000D03*
%TO.N,Buss1*%
X39000000Y-179360000D03*
%TO.N,Buss2*%
X39000000Y-176820000D03*
%TO.N,Buss3*%
X39000000Y-174280000D03*
%TO.N,Buss4*%
X39000000Y-171740000D03*
%TO.N,Buss5*%
X39000000Y-169200000D03*
%TO.N,Buss6*%
X39000000Y-166660000D03*
%TO.N,Buss7*%
X39000000Y-164120000D03*
%TO.N,Net-(J1-Pin_14)*%
X39000000Y-161580000D03*
%TO.N,Net-(J1-Pin_15)*%
X39000000Y-159040000D03*
%TO.N,Net-(J1-Pin_16)*%
X39000000Y-156500000D03*
%TO.N,Net-(J1-Pin_17)*%
X39000000Y-153960000D03*
%TO.N,Net-(J1-Pin_18)*%
X39000000Y-151420000D03*
%TO.N,Net-(J1-Pin_19)*%
X39000000Y-148880000D03*
%TO.N,Net-(J1-Pin_20)*%
X39000000Y-146340000D03*
%TO.N,Net-(J1-Pin_21)*%
X39000000Y-143800000D03*
%TD*%
D10*
%TO.N,VCC*%
%TO.C,J18*%
X302525000Y-25800000D03*
D11*
%TO.N,GND*%
X305065000Y-25800000D03*
%TD*%
D10*
%TO.N,VCC*%
%TO.C,J17*%
X350800000Y-114300000D03*
D11*
%TO.N,GND*%
X350800000Y-111760000D03*
%TD*%
D10*
%TO.N,VCC*%
%TO.C,J3*%
X142900000Y-73000000D03*
D11*
%TO.N,GND*%
X145440000Y-73000000D03*
%TO.N,rst*%
X147980000Y-73000000D03*
%TO.N,VCC*%
X150520000Y-73000000D03*
%TO.N,Rising Edge*%
X153060000Y-73000000D03*
%TO.N,NEXT ADR 8*%
X155600000Y-73000000D03*
%TO.N,NEXT ADR 9*%
X158140000Y-73000000D03*
%TO.N,NEXT ADR 10*%
X160680000Y-73000000D03*
%TO.N,NEXT ADR 11*%
X163220000Y-73000000D03*
%TO.N,NEXT ADR 12*%
X165760000Y-73000000D03*
%TO.N,NEXT ADR 13*%
X168300000Y-73000000D03*
%TO.N,NEXT ADR 14*%
X170840000Y-73000000D03*
%TO.N,NEXT ADR 15*%
X173380000Y-73000000D03*
%TO.N,STORED ADR 8*%
X175920000Y-73000000D03*
%TO.N,STORED ADR 9*%
X178460000Y-73000000D03*
%TO.N,STORED ADR 10*%
X181000000Y-73000000D03*
%TO.N,STORED ADR 11*%
X183540000Y-73000000D03*
%TO.N,STORED ADR 12*%
X186080000Y-73000000D03*
%TO.N,STORED ADR 13*%
X188620000Y-73000000D03*
%TO.N,STORED ADR 14*%
X191160000Y-73000000D03*
%TO.N,STORED ADR 15*%
X193700000Y-73000000D03*
%TD*%
D10*
%TO.N,VCC*%
%TO.C,J2*%
X65100000Y-73000000D03*
D11*
%TO.N,GND*%
X67640000Y-73000000D03*
%TO.N,rst*%
X70180000Y-73000000D03*
%TO.N,VCC*%
X72720000Y-73000000D03*
%TO.N,Rising Edge*%
X75260000Y-73000000D03*
%TO.N,NEXT ADR 0*%
X77800000Y-73000000D03*
%TO.N,NEXT ADR 1*%
X80340000Y-73000000D03*
%TO.N,NEXT ADR 2*%
X82880000Y-73000000D03*
%TO.N,NEXT ADR 3*%
X85420000Y-73000000D03*
%TO.N,NEXT ADR 4*%
X87960000Y-73000000D03*
%TO.N,NEXT ADR 5*%
X90500000Y-73000000D03*
%TO.N,NEXT ADR 6*%
X93040000Y-73000000D03*
%TO.N,NEXT ADR 7*%
X95580000Y-73000000D03*
%TO.N,STORED ADR 0*%
X98120000Y-73000000D03*
%TO.N,STORED ADR 1*%
X100660000Y-73000000D03*
%TO.N,STORED ADR 2*%
X103200000Y-73000000D03*
%TO.N,STORED ADR 3*%
X105740000Y-73000000D03*
%TO.N,STORED ADR 4*%
X108280000Y-73000000D03*
%TO.N,STORED ADR 5*%
X110820000Y-73000000D03*
%TO.N,STORED ADR 6*%
X113360000Y-73000000D03*
%TO.N,STORED ADR 7*%
X115900000Y-73000000D03*
%TD*%
D10*
%TO.N,VCC*%
%TO.C,J22*%
X291500000Y-35100000D03*
D11*
%TO.N,GND*%
X291500000Y-37640000D03*
%TO.N,rst*%
X291500000Y-40180000D03*
%TO.N,READ B*%
X291500000Y-42720000D03*
%TO.N,Rising Edge*%
X291500000Y-45260000D03*
%TO.N,Main bus 0*%
X291500000Y-47800000D03*
%TO.N,Main bus 1*%
X291500000Y-50340000D03*
%TO.N,Main bus 2*%
X291500000Y-52880000D03*
%TO.N,Main bus 3*%
X291500000Y-55420000D03*
%TO.N,Main bus 4*%
X291500000Y-57960000D03*
%TO.N,Main bus 5*%
X291500000Y-60500000D03*
%TO.N,Main bus 6*%
X291500000Y-63040000D03*
%TO.N,ALU FLAG N*%
X291500000Y-65580000D03*
%TO.N,Net-(J22-Pin_14)*%
X291500000Y-68120000D03*
%TO.N,Net-(J22-Pin_15)*%
X291500000Y-70660000D03*
%TO.N,Net-(J22-Pin_16)*%
X291500000Y-73200000D03*
%TO.N,Net-(J22-Pin_17)*%
X291500000Y-75740000D03*
%TO.N,Net-(J22-Pin_18)*%
X291500000Y-78280000D03*
%TO.N,Net-(J22-Pin_19)*%
X291500000Y-80820000D03*
%TO.N,Net-(J22-Pin_20)*%
X291500000Y-83360000D03*
%TO.N,Net-(J22-Pin_21)*%
X291500000Y-85900000D03*
%TD*%
D10*
%TO.N,VCC*%
%TO.C,J21*%
X259550000Y-35137500D03*
D11*
%TO.N,GND*%
X259550000Y-37677500D03*
%TO.N,rst*%
X259550000Y-40217500D03*
%TO.N,READ A*%
X259550000Y-42757500D03*
%TO.N,Rising Edge*%
X259550000Y-45297500D03*
%TO.N,Main bus 0*%
X259550000Y-47837500D03*
%TO.N,Main bus 1*%
X259550000Y-50377500D03*
%TO.N,Main bus 2*%
X259550000Y-52917500D03*
%TO.N,Main bus 3*%
X259550000Y-55457500D03*
%TO.N,Main bus 4*%
X259550000Y-57997500D03*
%TO.N,Main bus 5*%
X259550000Y-60537500D03*
%TO.N,Main bus 6*%
X259550000Y-63077500D03*
%TO.N,ALU FLAG N*%
X259550000Y-65617500D03*
%TO.N,Net-(J21-Pin_14)*%
X259550000Y-68157500D03*
%TO.N,Net-(J21-Pin_15)*%
X259550000Y-70697500D03*
%TO.N,Net-(J21-Pin_16)*%
X259550000Y-73237500D03*
%TO.N,Net-(J21-Pin_17)*%
X259550000Y-75777500D03*
%TO.N,Net-(J21-Pin_18)*%
X259550000Y-78317500D03*
%TO.N,Net-(J21-Pin_19)*%
X259550000Y-80857500D03*
%TO.N,Net-(J21-Pin_20)*%
X259550000Y-83397500D03*
%TO.N,Net-(J21-Pin_21)*%
X259550000Y-85937500D03*
%TD*%
D10*
%TO.N,Rising Edge*%
%TO.C,J8*%
X59900000Y-93500000D03*
%TD*%
%TO.N,VCC*%
%TO.C,J23*%
X323500000Y-35100000D03*
D11*
%TO.N,GND*%
X323500000Y-37640000D03*
%TO.N,rst*%
X323500000Y-40180000D03*
%TO.N,READ C*%
X323500000Y-42720000D03*
%TO.N,Rising Edge*%
X323500000Y-45260000D03*
%TO.N,Main bus 0*%
X323500000Y-47800000D03*
%TO.N,Main bus 1*%
X323500000Y-50340000D03*
%TO.N,Main bus 2*%
X323500000Y-52880000D03*
%TO.N,Main bus 3*%
X323500000Y-55420000D03*
%TO.N,Main bus 4*%
X323500000Y-57960000D03*
%TO.N,Main bus 5*%
X323500000Y-60500000D03*
%TO.N,Main bus 6*%
X323500000Y-63040000D03*
%TO.N,ALU FLAG N*%
X323500000Y-65580000D03*
%TO.N,Net-(J23-Pin_14)*%
X323500000Y-68120000D03*
%TO.N,Net-(J23-Pin_15)*%
X323500000Y-70660000D03*
%TO.N,Net-(J23-Pin_16)*%
X323500000Y-73200000D03*
%TO.N,Net-(J23-Pin_17)*%
X323500000Y-75740000D03*
%TO.N,Net-(J23-Pin_18)*%
X323500000Y-78280000D03*
%TO.N,Net-(J23-Pin_19)*%
X323500000Y-80820000D03*
%TO.N,Net-(J23-Pin_20)*%
X323500000Y-83360000D03*
%TO.N,Net-(J23-Pin_21)*%
X323500000Y-85900000D03*
%TD*%
D10*
%TO.N,Read New Instruction*%
%TO.C,J9*%
X63062500Y-160075000D03*
%TD*%
D12*
%TO.N,!JMP*%
X49400000Y-141900000D03*
X73800000Y-175200000D03*
X136300000Y-104600000D03*
%TO.N,!BOP*%
X83700000Y-174500000D03*
X124700000Y-119100000D03*
X55200000Y-138300000D03*
%TO.N,!BON*%
X135400000Y-119200000D03*
X59100000Y-138400000D03*
X88600000Y-174500000D03*
%TO.N,!BOZ*%
X149200000Y-119600000D03*
X93700000Y-174400000D03*
X63100000Y-138300000D03*
%TO.N,!BNZ*%
X67100000Y-138400000D03*
X98500000Y-174400000D03*
X162600000Y-121200000D03*
X149200000Y-121100000D03*
X163400000Y-119801000D03*
%TO.N,!BOO*%
X103300000Y-174300000D03*
X71000000Y-138300000D03*
X151500000Y-122700000D03*
%TO.N,!BNO*%
X75000000Y-138400000D03*
X193300000Y-109300000D03*
X108700000Y-174400000D03*
%TO.N,!BOU*%
X113700000Y-174600000D03*
X182900000Y-104200000D03*
X79100000Y-138300000D03*
%TO.N,!BNU*%
X83100000Y-138500000D03*
X118800000Y-174500000D03*
X169500000Y-104100000D03*
%TO.N,!BOC*%
X123800000Y-174300000D03*
X162300000Y-109100000D03*
X87100000Y-138200000D03*
%TO.N,!BNC*%
X146300000Y-103800000D03*
X128900000Y-174500000D03*
X92400000Y-142600000D03*
%TO.N,!Clear*%
X208300000Y-128300000D03*
X132500000Y-175000000D03*
X135100000Y-142300000D03*
%TO.N,!Load*%
X48400000Y-147400000D03*
X66500000Y-168400000D03*
X50000000Y-167300000D03*
X66100000Y-154700000D03*
X133031786Y-168400000D03*
X137500000Y-175100000D03*
X137200000Y-142800000D03*
%TO.N,!Store*%
X142500000Y-175000000D03*
X130800000Y-149500000D03*
X135100000Y-147600000D03*
X200100000Y-132800000D03*
%TO.N,!INC*%
X134150000Y-157000000D03*
X215800000Y-136000000D03*
X147500000Y-174800000D03*
X213248942Y-117799000D03*
%TO.N,!DEC*%
X152500000Y-175100000D03*
X138150000Y-156900000D03*
%TO.N,!RS*%
X157500000Y-175100000D03*
X142150000Y-156900000D03*
%TO.N,!NOT*%
X145299000Y-156900000D03*
X162500000Y-174800000D03*
%TO.N,!AND*%
X195100000Y-129800000D03*
X148599000Y-157500000D03*
X203700000Y-129400000D03*
X167500000Y-175000000D03*
%TO.N,!OR*%
X206700000Y-132200000D03*
X195000000Y-132200000D03*
X172500000Y-175000000D03*
X152599000Y-157611500D03*
%TO.N,!XOR*%
X177500000Y-175000000D03*
X190200000Y-133700000D03*
X203800000Y-125400000D03*
X156599000Y-157500000D03*
%TO.N,!ADD*%
X182500000Y-175000000D03*
X206700000Y-118400000D03*
X188300000Y-134700000D03*
X160599000Y-157500000D03*
%TO.N,!ADC*%
X213400000Y-118800000D03*
X187500000Y-175000000D03*
X200500000Y-136300000D03*
X194000000Y-137300000D03*
X166745984Y-152045984D03*
%TO.N,!MOV*%
X170300000Y-152500000D03*
X201200000Y-133100000D03*
X192500000Y-175000000D03*
X175600000Y-146700000D03*
X196300000Y-136000000D03*
%TO.N,Net-(Q17-G)*%
X207000000Y-168700000D03*
X221000000Y-199500000D03*
X119900000Y-218200000D03*
X221000000Y-178500000D03*
X109900000Y-176300000D03*
X119900000Y-176300000D03*
X206600000Y-199500000D03*
X89900000Y-218200000D03*
X80000000Y-176300000D03*
X99800000Y-176300000D03*
X221000000Y-189200000D03*
X109900000Y-218200000D03*
X205700000Y-189200000D03*
X67200000Y-218200000D03*
X99800000Y-218200000D03*
X64100000Y-211100000D03*
X221000000Y-168700000D03*
X89900000Y-176200000D03*
X80000000Y-218200000D03*
X206900000Y-178500000D03*
%TO.N,Net-(Q15-G)*%
X220400000Y-194200000D03*
X220400000Y-172999000D03*
X115000000Y-180300000D03*
X94800000Y-180300000D03*
X114900000Y-217500000D03*
X71600000Y-184100000D03*
X209600000Y-194200000D03*
X64100000Y-206700000D03*
X209700000Y-173100000D03*
X67700000Y-217500000D03*
X71600000Y-217500000D03*
X94800000Y-217500000D03*
%TO.N,Net-(Q21-G)*%
X206800000Y-157400000D03*
X85000000Y-216800000D03*
X64000000Y-202300000D03*
X154800000Y-216800000D03*
X154800000Y-184300000D03*
X219800000Y-157400000D03*
X144800000Y-184300000D03*
X85000000Y-184300000D03*
X68200000Y-216800000D03*
X135100000Y-216800000D03*
X124700000Y-216800000D03*
X124800000Y-184400000D03*
X144700000Y-216800000D03*
X135100000Y-184300000D03*
%TO.N,Net-(Q25-G)*%
X159900000Y-188200000D03*
X64100000Y-198000000D03*
X104800000Y-188300000D03*
X104800000Y-216100000D03*
X159900000Y-216100000D03*
X139700000Y-188300000D03*
X68700000Y-216100000D03*
X139700000Y-216100000D03*
%TO.N,Net-(Q40-G)*%
X129900000Y-215400000D03*
X129900000Y-192200000D03*
X69200000Y-215400000D03*
X164800000Y-215400000D03*
X184800000Y-192200000D03*
X175000000Y-215400000D03*
X184800000Y-215400000D03*
X175000000Y-192300000D03*
X64100000Y-193500000D03*
X164800000Y-192300000D03*
%TO.N,Net-(Q53-G)*%
X64200000Y-189200000D03*
X179900000Y-196300000D03*
X149800000Y-214700000D03*
X149800000Y-196300000D03*
X179900000Y-214700000D03*
X69700000Y-214700000D03*
%TO.N,Net-(Q57-G)*%
X70200000Y-214000000D03*
X169700000Y-214000000D03*
X169800000Y-200300000D03*
X64100000Y-184800000D03*
%TO.N,Net-(Q603-D)*%
X189900000Y-204300000D03*
X64200000Y-180500000D03*
X70700000Y-213300000D03*
X190500000Y-213300000D03*
%TO.N,Net-(Q10-G)*%
X74706250Y-200806250D03*
X188800000Y-201900000D03*
X188800000Y-207600000D03*
X74700000Y-207600000D03*
%TO.N,Net-(Q11-G)*%
X169200000Y-208300000D03*
X188200000Y-198400000D03*
X169200000Y-197600000D03*
X188200000Y-208300000D03*
X74099000Y-197701000D03*
X74100000Y-208300000D03*
%TO.N,Net-(Q12-G)*%
X73500000Y-209000000D03*
X179300000Y-209000000D03*
X149200000Y-209000000D03*
X73500000Y-194400000D03*
X187600000Y-209000000D03*
X149200000Y-193400000D03*
X187600000Y-195000000D03*
X168600000Y-194200000D03*
X168600000Y-209000000D03*
X179300000Y-193500000D03*
%TO.N,Net-(Q13-G)*%
X129300000Y-189300000D03*
X72900000Y-190900000D03*
X129300000Y-209700000D03*
X72900000Y-209700000D03*
X148600000Y-209700000D03*
X148600000Y-189900000D03*
%TO.N,Net-(Q14-G)*%
X217400000Y-163400000D03*
X159300000Y-210400000D03*
X148000000Y-210400000D03*
X72300000Y-210400000D03*
X148000000Y-186600000D03*
X217400000Y-153100000D03*
X104200000Y-185400000D03*
X139100000Y-210400000D03*
X207300000Y-153100000D03*
X128700000Y-185900000D03*
X159300000Y-185300000D03*
X128700000Y-210400000D03*
X139100000Y-185600000D03*
X72300000Y-187500000D03*
X207200000Y-163400000D03*
X104200000Y-210400000D03*
%TO.N,Net-(Q18-G)*%
X84400000Y-211100000D03*
X84400000Y-181200000D03*
X208800000Y-211100000D03*
X210200000Y-183400000D03*
X103600000Y-182000000D03*
X103600000Y-211100000D03*
X218000000Y-184600000D03*
X124200000Y-181500000D03*
X208800000Y-204700000D03*
X124200000Y-211100000D03*
%TO.N,Net-(Q1-D)*%
X218600000Y-173700000D03*
X206850000Y-194750000D03*
X83800000Y-211800000D03*
X94200000Y-177500000D03*
X114400000Y-177200000D03*
X218600000Y-194800000D03*
X71000000Y-180800000D03*
X123600000Y-211800000D03*
X218600000Y-185200000D03*
X204800000Y-211800000D03*
X94200000Y-211800000D03*
X103000000Y-211800000D03*
X114400000Y-211800000D03*
X71000000Y-211800000D03*
X207000000Y-184000000D03*
X103000000Y-178600000D03*
X83800000Y-177800000D03*
X123600000Y-178000000D03*
X204800000Y-204700000D03*
X207100000Y-173700000D03*
D13*
%TO.N,Faling Edge*%
X50900000Y-66000000D03*
D12*
X45200000Y-109600000D03*
X47702000Y-109600000D03*
%TO.N,Read New Instruction*%
X52500000Y-166700000D03*
X49100000Y-170000000D03*
%TO.N,Buss3*%
X85400000Y-23800000D03*
X224795552Y-26303218D03*
X34599000Y-174300000D03*
X34596000Y-162450000D03*
X163200000Y-23800000D03*
X226950000Y-49962500D03*
%TO.N,GND*%
X269137500Y-172150000D03*
D13*
X129100000Y-87700000D03*
D12*
X51000000Y-122700000D03*
D13*
X29400000Y-96100000D03*
X60200000Y-183300000D03*
D12*
X289437500Y-194550000D03*
D13*
X82162500Y-146975000D03*
D12*
X257000000Y-107675000D03*
X261337500Y-171850000D03*
D13*
X250937500Y-188650000D03*
X183100000Y-152800000D03*
X318800000Y-81487500D03*
X28400000Y-152500000D03*
D12*
X349337500Y-201150000D03*
D13*
X202976000Y-43011500D03*
X52738500Y-60900000D03*
X264200000Y-83387500D03*
D12*
X284850000Y-108875000D03*
D13*
X189349000Y-83100000D03*
X28400000Y-148900000D03*
X250937500Y-203850000D03*
D12*
X273173265Y-146014235D03*
D13*
X200600000Y-188300000D03*
D12*
X273173265Y-179014235D03*
X261337500Y-138850000D03*
D13*
X286800000Y-81487500D03*
X200600000Y-151300000D03*
D12*
X289437500Y-161550000D03*
X346197500Y-157050000D03*
D13*
X125349000Y-83100000D03*
X161100000Y-87700000D03*
D12*
X300050000Y-108875000D03*
D13*
X318937500Y-206550000D03*
X165349000Y-83100000D03*
X29400000Y-74500000D03*
X183000000Y-147800000D03*
X125138500Y-42961500D03*
D12*
X262931250Y-163843750D03*
X289437500Y-183550000D03*
X77162500Y-143975000D03*
D13*
X222400000Y-48700000D03*
X101349000Y-83100000D03*
X250037500Y-159450000D03*
X236337500Y-133550000D03*
X296200000Y-83387500D03*
X271850000Y-30237500D03*
X53400000Y-97000000D03*
X77349000Y-83100000D03*
X60200000Y-196500000D03*
X177100000Y-87700000D03*
X141349000Y-83100000D03*
D12*
X53000000Y-55800000D03*
D13*
X88762500Y-159075000D03*
X200450000Y-108000000D03*
D12*
X262931250Y-152843750D03*
D13*
X339337500Y-129450000D03*
X93349000Y-83100000D03*
X200600000Y-203300000D03*
X222400000Y-39700000D03*
D12*
X261337500Y-160850000D03*
D13*
X360200000Y-83387500D03*
X343087500Y-35375000D03*
X235850000Y-62562500D03*
D12*
X51100000Y-127000000D03*
D13*
X29400000Y-88900000D03*
X146100000Y-154100000D03*
X52162500Y-147075000D03*
X70300000Y-92200000D03*
X251037500Y-200150000D03*
X351037500Y-144050000D03*
X351037500Y-121250000D03*
X153476000Y-43011500D03*
D12*
X153637500Y-116600000D03*
D13*
X351037500Y-128850000D03*
D12*
X269137500Y-205150000D03*
X273173265Y-135014235D03*
X269137500Y-150150000D03*
X51400000Y-118000000D03*
X146375000Y-106750000D03*
X97000000Y-95200000D03*
D13*
X200600000Y-146300000D03*
X29400000Y-70900000D03*
X236337500Y-152050000D03*
X50700000Y-178900000D03*
D12*
X289437500Y-172550000D03*
D13*
X318937500Y-133550000D03*
D12*
X348937500Y-165050000D03*
D13*
X49400000Y-86800000D03*
X339337500Y-153450000D03*
D12*
X262931250Y-174843750D03*
D13*
X50700000Y-183300000D03*
X318937500Y-169550000D03*
X58162500Y-157675000D03*
X351037500Y-132650000D03*
D12*
X105000000Y-95200000D03*
D13*
X336050000Y-110237500D03*
X236337500Y-148350000D03*
X183100000Y-157700000D03*
D12*
X182137500Y-116600000D03*
X291437500Y-177750000D03*
D13*
X189650000Y-205850000D03*
X222400000Y-57700000D03*
D12*
X178275000Y-106750000D03*
D13*
X250037500Y-155750000D03*
D12*
X289437500Y-150550000D03*
D13*
X75638500Y-42961500D03*
D12*
X278337500Y-172550000D03*
X144137500Y-116600000D03*
D13*
X50700000Y-205300000D03*
D12*
X269137500Y-161150000D03*
D13*
X28400000Y-156100000D03*
X250037500Y-152050000D03*
X157349000Y-83100000D03*
D12*
X161000000Y-95200000D03*
D13*
X28400000Y-163300000D03*
D12*
X278337500Y-161550000D03*
X184937500Y-95237500D03*
D13*
X28400000Y-170500000D03*
X50700000Y-192100000D03*
D12*
X291437500Y-210750000D03*
X79423718Y-134101000D03*
D13*
X318937500Y-193550000D03*
D12*
X269137500Y-183150000D03*
X65200000Y-151900000D03*
D13*
X111538500Y-42961500D03*
D12*
X269137500Y-128150000D03*
D13*
X173349000Y-83100000D03*
X222400000Y-66700000D03*
D12*
X262931250Y-141843750D03*
X291437500Y-155750000D03*
D13*
X75162500Y-157775000D03*
X339337500Y-189450000D03*
X93638500Y-42961500D03*
D12*
X261337500Y-193850000D03*
D13*
X318937500Y-157550000D03*
D12*
X273173265Y-212014235D03*
X261337500Y-127850000D03*
X288650000Y-108875000D03*
X169000000Y-95200000D03*
D13*
X200600000Y-167300000D03*
D12*
X81000000Y-95200000D03*
X113000000Y-95200000D03*
D13*
X50700000Y-187700000D03*
X61500000Y-95900000D03*
X176200000Y-133000000D03*
X200600000Y-193300000D03*
X250037500Y-140950000D03*
D12*
X264600000Y-107675000D03*
D13*
X200600000Y-198300000D03*
D12*
X79423718Y-129159032D03*
X278337500Y-194550000D03*
X289437500Y-139550000D03*
X280337500Y-166750000D03*
X130600000Y-49800000D03*
D13*
X222400000Y-44200000D03*
D12*
X273173265Y-201014235D03*
X177000000Y-95200000D03*
X70662500Y-157675000D03*
D13*
X250937500Y-192450000D03*
X28400000Y-166900000D03*
X181349000Y-83100000D03*
X351037500Y-147850000D03*
X185100000Y-87700000D03*
X339337500Y-177450000D03*
X57100000Y-83300000D03*
X169100000Y-87700000D03*
X236337500Y-137250000D03*
X339337500Y-141450000D03*
X29400000Y-99700000D03*
D12*
X278337500Y-183550000D03*
X253200000Y-107675000D03*
D13*
X29400000Y-103300000D03*
X137100000Y-87700000D03*
X109349000Y-83100000D03*
X105100000Y-87700000D03*
X60200000Y-178900000D03*
X29400000Y-56500000D03*
X171476000Y-43011500D03*
D12*
X129137500Y-116600000D03*
X262931250Y-207843750D03*
D13*
X236337500Y-155750000D03*
X351037500Y-136450000D03*
X28400000Y-174100000D03*
X200600000Y-182300000D03*
D12*
X345637500Y-173650000D03*
X262931250Y-130843750D03*
D13*
X250037500Y-137250000D03*
X60200000Y-192100000D03*
X235450000Y-57562500D03*
D12*
X153000000Y-95200000D03*
X51600000Y-131400000D03*
D13*
X70300000Y-86800000D03*
D12*
X278337500Y-150550000D03*
D13*
X350800000Y-81487500D03*
X196700000Y-120100000D03*
D12*
X348837500Y-178150000D03*
D13*
X133349000Y-83100000D03*
D12*
X280337500Y-155750000D03*
D13*
X250037500Y-148350000D03*
D12*
X189800000Y-107700000D03*
D13*
X318937500Y-181550000D03*
X29400000Y-67300000D03*
D12*
X261337500Y-149850000D03*
D13*
X117349000Y-83100000D03*
X139376000Y-43011500D03*
D12*
X291437500Y-166750000D03*
X289437500Y-128550000D03*
D13*
X60200000Y-205300000D03*
D12*
X200937500Y-95237500D03*
X260800000Y-107675000D03*
D13*
X50700000Y-209700000D03*
X200600000Y-177300000D03*
X50700000Y-200900000D03*
D12*
X192937500Y-95237500D03*
D13*
X81100000Y-87700000D03*
X222400000Y-53200000D03*
D12*
X280337500Y-133750000D03*
X296250000Y-108875000D03*
D13*
X28400000Y-159700000D03*
D12*
X159775000Y-106750000D03*
X79423718Y-124159032D03*
D13*
X49500000Y-92100000D03*
X145100000Y-87700000D03*
X254800000Y-81487500D03*
D12*
X262931250Y-185843750D03*
X291437500Y-199750000D03*
D13*
X29400000Y-52900000D03*
X351037500Y-125050000D03*
D12*
X73662500Y-147175000D03*
D13*
X193100000Y-87700000D03*
D12*
X261337500Y-204850000D03*
D13*
X349310000Y-24877500D03*
D12*
X137000000Y-95200000D03*
X249400000Y-107675000D03*
X269137500Y-194150000D03*
D13*
X183100000Y-162700000D03*
D12*
X167637500Y-116600000D03*
D13*
X200600000Y-131400000D03*
X210100000Y-54800000D03*
X121100000Y-87700000D03*
X279087500Y-35375000D03*
X235650000Y-34962500D03*
D12*
X280337500Y-144750000D03*
D13*
X59900000Y-96000000D03*
X236337500Y-144650000D03*
D12*
X245600000Y-107675000D03*
D13*
X250937500Y-196250000D03*
X153100000Y-87700000D03*
X236337500Y-159450000D03*
X113100000Y-87700000D03*
X85349000Y-83100000D03*
X200600000Y-172300000D03*
X61538500Y-42961500D03*
X339337500Y-165450000D03*
D12*
X75500000Y-206100000D03*
D13*
X60200000Y-200900000D03*
D12*
X278337500Y-205550000D03*
X268400000Y-107675000D03*
D13*
X222400000Y-62200000D03*
D12*
X262931250Y-196843750D03*
D13*
X189376000Y-43011500D03*
X60200000Y-187700000D03*
X205100000Y-140051000D03*
D12*
X66200000Y-113462500D03*
X278337500Y-128550000D03*
D13*
X351037500Y-140250000D03*
X68662500Y-166475000D03*
X97100000Y-87700000D03*
D12*
X348637500Y-189150000D03*
D13*
X29400000Y-92500000D03*
X132375000Y-108050000D03*
X250037500Y-144650000D03*
D12*
X280337500Y-188750000D03*
X280337500Y-210750000D03*
D13*
X29400000Y-63700000D03*
X367950000Y-30237500D03*
X29400000Y-78100000D03*
D12*
X48962500Y-139075000D03*
X89000000Y-95200000D03*
X346137500Y-215350000D03*
D13*
X201100000Y-87700000D03*
X210100000Y-45700000D03*
D12*
X291437500Y-133750000D03*
D13*
X250037500Y-133550000D03*
D12*
X303850000Y-108875000D03*
D13*
X105800000Y-158100000D03*
D12*
X145000000Y-95200000D03*
X292450000Y-108875000D03*
D13*
X50700000Y-196500000D03*
X149349000Y-83100000D03*
X200600000Y-156300000D03*
D12*
X66012500Y-158125000D03*
X281050000Y-108875000D03*
D13*
X29400000Y-81700000D03*
D12*
X278337500Y-139550000D03*
X273173265Y-190014235D03*
D13*
X197349000Y-83100000D03*
D12*
X272200000Y-107675000D03*
D13*
X60200000Y-209700000D03*
X335950000Y-30237500D03*
X247087500Y-35375000D03*
D12*
X129000000Y-95200000D03*
X261337500Y-182850000D03*
D13*
X236337500Y-140950000D03*
D12*
X273173265Y-157014235D03*
D13*
X215800000Y-181800000D03*
D12*
X291437500Y-144750000D03*
X169175000Y-106750000D03*
D13*
X29400000Y-60100000D03*
X222400000Y-35200000D03*
X131000000Y-147300000D03*
D12*
X291437500Y-188750000D03*
D13*
X215800000Y-160800000D03*
D12*
X280337500Y-199750000D03*
X273173265Y-168014235D03*
X269137500Y-139150000D03*
D13*
X303850000Y-30237500D03*
X328200000Y-83387500D03*
D12*
X307650000Y-108875000D03*
D13*
X89100000Y-87700000D03*
X318797500Y-213450000D03*
X247640000Y-176250000D03*
X58850000Y-86500000D03*
D12*
X79562500Y-157675000D03*
D13*
X49354112Y-161975000D03*
X318937500Y-145550000D03*
X29400000Y-85300000D03*
X29400000Y-106900000D03*
X215800000Y-202800000D03*
D12*
X280337500Y-177750000D03*
D13*
X311087500Y-35275000D03*
D12*
X121000000Y-95200000D03*
X348837500Y-159950000D03*
X289437500Y-205550000D03*
X81700000Y-116700000D03*
D13*
X200600000Y-161300000D03*
D12*
%TO.N,R{slash}W out*%
X68737500Y-163437500D03*
X46100000Y-132600000D03*
%TO.N,Buss2*%
X35000000Y-176800000D03*
X227350000Y-45362500D03*
X82800000Y-23200000D03*
X160700000Y-23200000D03*
X35000000Y-158800000D03*
X225254702Y-25645298D03*
%TO.N,rst*%
X70200000Y-68300000D03*
X142900000Y-27400000D03*
%TO.N,Buss0*%
X155600000Y-22000000D03*
X35799000Y-151600000D03*
X77700000Y-22000000D03*
X226000000Y-24200000D03*
X230050000Y-36262500D03*
%TO.N,Buss6*%
X226950000Y-63462500D03*
X33393000Y-167000000D03*
X170900000Y-25600000D03*
X33500000Y-173200000D03*
X223400000Y-28500000D03*
X93000000Y-25600000D03*
%TO.N,Buss7*%
X227250000Y-67962500D03*
X173500000Y-26200000D03*
X223100000Y-29300000D03*
X32594000Y-164200000D03*
X95500000Y-26200000D03*
X32800000Y-176900000D03*
%TO.N,Buss4*%
X34195000Y-166050000D03*
X87900000Y-24400000D03*
X34198000Y-171700000D03*
X165700000Y-24400000D03*
X224300000Y-27000000D03*
X227050000Y-54462500D03*
%TO.N,VCC*%
X74012718Y-121100000D03*
X91462500Y-151275000D03*
D13*
X50700000Y-186000000D03*
X202076000Y-65711500D03*
D12*
X294537500Y-195050000D03*
D13*
X350067500Y-138780000D03*
X25400000Y-103300000D03*
X207900000Y-58500000D03*
D12*
X269137500Y-140350000D03*
D13*
X250887500Y-30275000D03*
D12*
X285037500Y-142250000D03*
X312437500Y-196450000D03*
D13*
X102800000Y-93600000D03*
D12*
X74012718Y-125300000D03*
X290037500Y-186250000D03*
D13*
X130524207Y-170124207D03*
D12*
X352037500Y-186650000D03*
D13*
X237157500Y-135070000D03*
X195500000Y-199500000D03*
X137000000Y-98100000D03*
D12*
X306250000Y-102375000D03*
X294337500Y-151150000D03*
D13*
X268150000Y-30337500D03*
D12*
X274137500Y-175350000D03*
D13*
X195500000Y-157389000D03*
D12*
X262997500Y-125610000D03*
D13*
X251877500Y-197790000D03*
X74600000Y-66000000D03*
D12*
X294337500Y-173050000D03*
D13*
X153000000Y-98100000D03*
X150800000Y-93600000D03*
D12*
X49523718Y-123300000D03*
D13*
X177000000Y-98100000D03*
X335487500Y-141100000D03*
D12*
X262997500Y-136610000D03*
X247800000Y-101175000D03*
X244000000Y-101175000D03*
D13*
X24400000Y-152500000D03*
X50700000Y-203600000D03*
X237000000Y-40200000D03*
X138976000Y-65711500D03*
X131500000Y-54600000D03*
D12*
X294850000Y-102375000D03*
D13*
X105215686Y-170115686D03*
D12*
X290037500Y-197250000D03*
D13*
X237157500Y-138770000D03*
X54200000Y-55500000D03*
D12*
X84834718Y-131200000D03*
D13*
X118800000Y-93600000D03*
X198800000Y-93600000D03*
X92700000Y-66000000D03*
X332250000Y-30337500D03*
D12*
X277837500Y-175150000D03*
D13*
X121000000Y-98100000D03*
X72262500Y-153575000D03*
D12*
X263100000Y-101075000D03*
D13*
X185000000Y-98100000D03*
X142800000Y-93600000D03*
D12*
X262997500Y-169610000D03*
D13*
X59100000Y-81400000D03*
X110800000Y-93600000D03*
X50700000Y-212400000D03*
X50700000Y-199200000D03*
X237157500Y-142470000D03*
D12*
X269137500Y-195350000D03*
X262997500Y-180610000D03*
X277837500Y-164150000D03*
D13*
X126800000Y-93600000D03*
X61176000Y-66000000D03*
D12*
X274137500Y-208350000D03*
D13*
X250857500Y-142470000D03*
D12*
X350537500Y-189950000D03*
X143537500Y-115500000D03*
D13*
X195500000Y-168489000D03*
X25400000Y-60100000D03*
X105800000Y-160600000D03*
X50700000Y-181600000D03*
X237157500Y-157270000D03*
X113000000Y-98100000D03*
X170576000Y-65711500D03*
D12*
X277837500Y-131150000D03*
D13*
X50700000Y-194800000D03*
X364250000Y-30337500D03*
X176300000Y-135400000D03*
D12*
X277837500Y-142150000D03*
D13*
X250857500Y-146170000D03*
D12*
X279650000Y-102375000D03*
D13*
X60200000Y-203600000D03*
X175000000Y-170100000D03*
X90100000Y-170100000D03*
X195600000Y-189500000D03*
D12*
X353637500Y-172350000D03*
D13*
X202700000Y-128200000D03*
X105000000Y-98100000D03*
X46000000Y-96100000D03*
X60200000Y-181600000D03*
X335487500Y-129100000D03*
X213400000Y-131700000D03*
X251777500Y-190090000D03*
X250857500Y-135070000D03*
D12*
X298650000Y-102375000D03*
D13*
X250857500Y-131370000D03*
D12*
X270700000Y-101075000D03*
X262997500Y-191610000D03*
X182337500Y-113600000D03*
D13*
X250857500Y-157270000D03*
D12*
X287250000Y-102375000D03*
D13*
X158800000Y-93600000D03*
X282887500Y-30275000D03*
D12*
X74012718Y-131500000D03*
D13*
X201000000Y-98100000D03*
X74000000Y-84200000D03*
D12*
X262997500Y-147610000D03*
D13*
X335487500Y-177100000D03*
X346887500Y-30275000D03*
X237000000Y-49400000D03*
D12*
X73062500Y-150900000D03*
X333637500Y-196450000D03*
D13*
X125000000Y-170100000D03*
D12*
X262997500Y-202610000D03*
X294137500Y-129250000D03*
D13*
X251777500Y-201490000D03*
D12*
X274137500Y-131350000D03*
X290037500Y-175250000D03*
X269137500Y-173350000D03*
D13*
X89000000Y-98100000D03*
X251777500Y-193890000D03*
D12*
X269137500Y-129350000D03*
X269137500Y-162350000D03*
X324937500Y-196450000D03*
X277837500Y-186150000D03*
X348837500Y-179250000D03*
X285037500Y-208250000D03*
X308537500Y-196350000D03*
D13*
X97000000Y-98100000D03*
D12*
X274137500Y-197350000D03*
D13*
X182800000Y-93600000D03*
D12*
X285037500Y-197250000D03*
D13*
X237000000Y-58600000D03*
X335487500Y-153100000D03*
X350067500Y-123580000D03*
D12*
X285037500Y-153250000D03*
X266900000Y-101075000D03*
X49523718Y-127500000D03*
D13*
X25400000Y-70900000D03*
X251777500Y-186290000D03*
X88362500Y-146275000D03*
D12*
X320737500Y-196450000D03*
D13*
X24400000Y-174100000D03*
D12*
X262997500Y-158610000D03*
X84834718Y-121300000D03*
X291050000Y-102375000D03*
X294337500Y-140150000D03*
X277837500Y-197150000D03*
X269137500Y-151350000D03*
X259300000Y-101075000D03*
X352937500Y-165050000D03*
D13*
X237157500Y-153570000D03*
D12*
X294337500Y-184150000D03*
D13*
X335487500Y-165100000D03*
D12*
X285037500Y-175250000D03*
D13*
X56462500Y-157675000D03*
X110776000Y-66000000D03*
X314887500Y-30175000D03*
D12*
X316437500Y-196450000D03*
X283450000Y-102375000D03*
D13*
X60200000Y-186000000D03*
X350067500Y-150180000D03*
X237157500Y-149870000D03*
D12*
X274137500Y-186350000D03*
X304337500Y-196450000D03*
X290037500Y-153250000D03*
X84834718Y-126500000D03*
D13*
X60200000Y-199200000D03*
X250857500Y-153570000D03*
D12*
X255400000Y-101175000D03*
D13*
X60200000Y-212400000D03*
D12*
X269137500Y-184350000D03*
D13*
X136400000Y-106500000D03*
D12*
X290037500Y-131250000D03*
X294237500Y-206150000D03*
D13*
X350067500Y-146380000D03*
X24400000Y-163300000D03*
X94800000Y-93600000D03*
X129000000Y-98100000D03*
D12*
X290037500Y-208250000D03*
D13*
X60200000Y-208000000D03*
X207900000Y-40200000D03*
X247740000Y-178550000D03*
X152476000Y-65711500D03*
D12*
X290037500Y-142250000D03*
D13*
X145200000Y-170100000D03*
X134800000Y-93600000D03*
D12*
X302450000Y-102375000D03*
D13*
X161000000Y-98100000D03*
X79600000Y-170100000D03*
D12*
X274137500Y-142350000D03*
D13*
X74000000Y-95900000D03*
X90562500Y-159275000D03*
X25400000Y-92500000D03*
D12*
X274137500Y-164350000D03*
D13*
X50700000Y-208000000D03*
X166800000Y-93600000D03*
X214800000Y-122200000D03*
X60200000Y-194800000D03*
X350067500Y-142580000D03*
D12*
X277837500Y-208150000D03*
X290037500Y-164250000D03*
X49523718Y-132300000D03*
D13*
X250857500Y-138770000D03*
X174800000Y-93600000D03*
D12*
X122437500Y-114700000D03*
D13*
X350067500Y-131180000D03*
D12*
X251600000Y-101175000D03*
X285037500Y-131250000D03*
D13*
X190800000Y-93600000D03*
X237157500Y-131370000D03*
X25400000Y-81700000D03*
D12*
X65862500Y-159675000D03*
D13*
X155000000Y-170100000D03*
X350067500Y-134980000D03*
X300150000Y-30337500D03*
X72662500Y-159375000D03*
D12*
X274137500Y-153350000D03*
D13*
X335487500Y-189100000D03*
X86800000Y-93600000D03*
D12*
X158137500Y-113600000D03*
X351097500Y-214550000D03*
D13*
X114700000Y-170100000D03*
X200550000Y-110200000D03*
X89062500Y-153575000D03*
D12*
X177875000Y-109750000D03*
D13*
X124276000Y-65711500D03*
X207900000Y-49400000D03*
X169000000Y-98100000D03*
X195500000Y-146789000D03*
X195500000Y-178389000D03*
D12*
X294337500Y-162150000D03*
D13*
X350067500Y-127380000D03*
X60200000Y-190400000D03*
D12*
X72962500Y-161875000D03*
X302537500Y-211750000D03*
X155175000Y-109750000D03*
X269137500Y-206350000D03*
D13*
X193000000Y-98100000D03*
X188576000Y-65711500D03*
X81000000Y-98100000D03*
X50700000Y-190400000D03*
X45500000Y-84400000D03*
D12*
X285037500Y-186250000D03*
D13*
X250857500Y-149870000D03*
X164900000Y-170100000D03*
X78800000Y-93600000D03*
X237157500Y-146170000D03*
X349310000Y-26877500D03*
X53062500Y-150775000D03*
D12*
X277837500Y-153150000D03*
X49523718Y-118600000D03*
X285037500Y-164250000D03*
X329437500Y-196350000D03*
D13*
X145000000Y-98100000D03*
X179900000Y-170100000D03*
%TO.N,CLOCK*%
X53100000Y-79800000D03*
D12*
%TO.N,Buss5*%
X90400000Y-25000000D03*
X227150000Y-59062500D03*
X33794000Y-169650000D03*
X168300000Y-25000000D03*
X223800000Y-27700000D03*
%TO.N,Buss1*%
X227850000Y-40862500D03*
X225504807Y-24885396D03*
X35400000Y-178700000D03*
X80300000Y-22600000D03*
X35400000Y-155200000D03*
X158200000Y-22600000D03*
%TO.N,ADR 13*%
X33000000Y-101500000D03*
X118976000Y-61100000D03*
%TO.N,ADR 10*%
X105352000Y-61100000D03*
X33000000Y-90700000D03*
%TO.N,ADR 6*%
X85700000Y-59500000D03*
%TO.N,ADR 15*%
X33000000Y-108700000D03*
X127976000Y-61100000D03*
%TO.N,ADR 7*%
X90200000Y-59400000D03*
%TO.N,ADR 0*%
X58700000Y-59600000D03*
%TO.N,ADR 2*%
X67800000Y-59600000D03*
%TO.N,ADR 5*%
X81200000Y-59600000D03*
%TO.N,ADR 9*%
X33000000Y-87100000D03*
X100700000Y-61100000D03*
%TO.N,ADR 3*%
X72200000Y-59600000D03*
%TO.N,ADR 4*%
X76700000Y-59500000D03*
%TO.N,ADR 1*%
X63300000Y-59600000D03*
%TO.N,ADR 8*%
X33000000Y-83400000D03*
X96352000Y-61000000D03*
%TO.N,ADR 14*%
X33000000Y-105100000D03*
X123476000Y-61100000D03*
%TO.N,ADR 11*%
X109852000Y-61100000D03*
X33000000Y-94300000D03*
%TO.N,ADR 12*%
X114476000Y-61200000D03*
X33000000Y-97900000D03*
%TO.N,Main bus 0*%
X304137500Y-208750000D03*
X359437500Y-206404223D03*
X304637500Y-201550000D03*
X232950000Y-37162500D03*
X359437500Y-129962500D03*
%TO.N,Main bus 4*%
X319337500Y-208650000D03*
X321237500Y-201650000D03*
X232950000Y-54162500D03*
X357037500Y-204065607D03*
X357037500Y-142800000D03*
%TO.N,Main bus 1*%
X307937500Y-208650000D03*
X308637500Y-201550000D03*
X358837500Y-133200000D03*
X358837500Y-205815902D03*
X232950000Y-40362500D03*
%TO.N,Main bus 6*%
X232950000Y-63562500D03*
X355837500Y-149162500D03*
X329737500Y-201550000D03*
X355837500Y-202750000D03*
X326937500Y-208650000D03*
%TO.N,Main bus 3*%
X357637500Y-204619929D03*
X232950000Y-49862500D03*
X317137500Y-201550000D03*
X315637500Y-208750000D03*
X357637500Y-139562500D03*
%TO.N,Main bus 2*%
X311837500Y-208650000D03*
X358237500Y-205254655D03*
X358237500Y-136362500D03*
X312937500Y-201550000D03*
X232950000Y-45562500D03*
%TO.N,Main bus 5*%
X356437500Y-203399936D03*
X356437500Y-145962500D03*
X323137500Y-208650000D03*
X325437500Y-201550000D03*
X232950000Y-58962500D03*
%TO.N,AA0*%
X248350000Y-115950000D03*
X249637500Y-131350000D03*
X278937500Y-127150000D03*
X264637500Y-132950000D03*
X271803281Y-127215781D03*
%TO.N,XOR*%
X208000000Y-124000000D03*
X301197500Y-179150000D03*
X336597500Y-181750000D03*
X229300000Y-126700000D03*
X349997500Y-199250000D03*
%TO.N,ADD*%
X335197500Y-193250000D03*
X301197500Y-191150000D03*
X229900000Y-125600000D03*
X346137500Y-206850000D03*
X349337500Y-193950000D03*
%TO.N,OR*%
X346700000Y-197250000D03*
X214900000Y-133000000D03*
X344461500Y-197250000D03*
X344497500Y-207750000D03*
X211700000Y-132000000D03*
X227500000Y-134800000D03*
%TO.N,ALU FLAG O*%
X64700000Y-128900000D03*
X245100000Y-198000000D03*
%TO.N,ALU FLAG N*%
X355237500Y-152362500D03*
X352897500Y-171450000D03*
X334037500Y-201650000D03*
X64800000Y-115100000D03*
X330737500Y-207350000D03*
X355237500Y-202150000D03*
X330737500Y-208650000D03*
X354637500Y-167450000D03*
X348997500Y-173950000D03*
X232850000Y-68462500D03*
X247400000Y-186500000D03*
%TO.N,NOT*%
X301497500Y-167150000D03*
X349735515Y-203011985D03*
X342797500Y-202450000D03*
X228800000Y-127469222D03*
%TO.N,ALU FLAG U*%
X64600000Y-124100000D03*
X247300000Y-194100000D03*
%TO.N,Carry in*%
X255397500Y-137150000D03*
X278397500Y-134950000D03*
%TO.N,ALU FLAG C*%
X247200000Y-201700000D03*
X64600000Y-134700000D03*
X349997500Y-214650000D03*
X352297500Y-215950000D03*
%TO.N,AND*%
X347897500Y-199250000D03*
X227998000Y-132000000D03*
X305297500Y-141450000D03*
%TO.N,ALU FLAG Z*%
X247600000Y-190300000D03*
X64700000Y-119500000D03*
%TO.N,RS*%
X228399000Y-129300000D03*
X201200000Y-128100000D03*
X345238500Y-187076250D03*
X301597500Y-155150000D03*
X343797500Y-187050000D03*
%TO.N,A ->ALU B*%
X267900000Y-81500000D03*
X270450000Y-35437500D03*
X265850000Y-53737500D03*
X203300000Y-161500000D03*
%TO.N,ALU B = FF*%
X227400000Y-118300000D03*
X201800000Y-123400000D03*
X223395000Y-118400000D03*
X317450000Y-106737500D03*
%TO.N,READ A*%
X203200000Y-203400000D03*
X239100000Y-67700000D03*
%TO.N,C ->ALU A*%
X225799000Y-116800000D03*
X308449000Y-36900000D03*
X203500000Y-172500000D03*
X227400000Y-116800000D03*
X315750000Y-55137500D03*
X314500000Y-105000000D03*
X317300000Y-86500000D03*
%TO.N,D ->ALU A*%
X203100000Y-167500000D03*
X225398000Y-119800000D03*
X347850000Y-55437500D03*
X349100000Y-102300000D03*
X345350000Y-34791968D03*
X227400000Y-119800000D03*
%TO.N,B ->ALU B*%
X302400000Y-35487500D03*
X224200000Y-100000000D03*
X227500000Y-100000000D03*
X299800000Y-81500000D03*
X297762500Y-53637500D03*
X203200000Y-156600000D03*
%TO.N,B ->ALU A*%
X227400000Y-98600000D03*
X203300000Y-177500000D03*
X284250000Y-38337500D03*
X282600000Y-87000000D03*
X226200000Y-98600000D03*
X283750000Y-55337500D03*
%TO.N,A ->ALU A*%
X253100000Y-86000000D03*
X250545532Y-54737500D03*
X248500000Y-35200000D03*
X203300000Y-182600000D03*
%TO.N,READ D*%
X203100000Y-188300000D03*
X242900000Y-67900000D03*
%TO.N,READ C*%
X242300000Y-68465687D03*
X203200000Y-193400000D03*
%TO.N,C ->ALU B*%
X334750000Y-35137500D03*
X323500000Y-102400000D03*
X223796000Y-113600000D03*
X331500000Y-86300000D03*
X329750000Y-53737500D03*
X227400000Y-113500000D03*
X203400000Y-151500000D03*
%TO.N,READ B*%
X241700000Y-69062335D03*
X203200000Y-198500000D03*
%TO.N,D ->ALU B*%
X203300000Y-146300000D03*
X223395000Y-121000000D03*
X227400000Y-121000000D03*
X364100000Y-91300000D03*
X362250000Y-54637500D03*
X366250000Y-35637500D03*
%TO.N,REG Read*%
X212000000Y-204300000D03*
X179200000Y-146037500D03*
%TO.N,REG -> ALU B*%
X212200000Y-162500000D03*
X177900000Y-156037500D03*
%TO.N,REG -> ALU A*%
X212200000Y-183600000D03*
X178000000Y-151037500D03*
%TO.N,READ FALG*%
X96200000Y-110200000D03*
X60223718Y-119124000D03*
X60223718Y-128124000D03*
X65200000Y-113424000D03*
X60223718Y-123624000D03*
X60223718Y-115000000D03*
X169300000Y-160100000D03*
X60223718Y-132477000D03*
%TO.N,Store Address ++*%
X147301000Y-47511500D03*
X192324000Y-47511500D03*
X49500000Y-44600000D03*
X142824000Y-47511500D03*
X196824000Y-47511500D03*
X47550000Y-49450000D03*
X156324000Y-47511500D03*
X160824000Y-47511500D03*
X187801000Y-47511500D03*
X56500000Y-165800000D03*
X151801000Y-47511500D03*
X201301000Y-47511500D03*
X183301000Y-47511500D03*
X174324000Y-47511500D03*
X169801000Y-47511500D03*
X178824000Y-47511500D03*
D13*
X134876000Y-47511500D03*
D12*
X205801000Y-47511500D03*
X165301000Y-47511500D03*
X138324000Y-47511500D03*
%TO.N,ADR++ 0*%
X84500000Y-92000000D03*
X138100000Y-51600000D03*
%TO.N,ADR++ 1*%
X142500000Y-51600000D03*
X92600000Y-92100000D03*
%TO.N,ADR++ 2*%
X147163235Y-51563235D03*
X100600000Y-92100000D03*
%TO.N,ADR++ 3*%
X151700000Y-51500000D03*
X108600000Y-92100000D03*
%TO.N,ADR++ 4*%
X156200000Y-51500000D03*
X116649000Y-92200000D03*
%TO.N,ADR++ 5*%
X160500000Y-51500000D03*
X124600000Y-92000000D03*
%TO.N,ADR++ 6*%
X132649000Y-92000000D03*
X165100000Y-51500000D03*
%TO.N,ADR++ 7*%
X140600000Y-92000000D03*
X169500000Y-51500000D03*
%TO.N,ADR++ 8*%
X148600000Y-91900000D03*
X173800000Y-51600000D03*
%TO.N,ADR++ 9*%
X178700000Y-51400000D03*
X156500000Y-92000000D03*
%TO.N,ADR++ 10*%
X183100000Y-51500000D03*
X164500000Y-92000000D03*
%TO.N,ADR++ 11*%
X172500000Y-92100000D03*
X187500000Y-51600000D03*
%TO.N,ADR++ 12*%
X180500000Y-92100000D03*
X192100000Y-51500000D03*
%TO.N,ADR++ 13*%
X188600000Y-92000000D03*
X196700000Y-51400000D03*
%TO.N,ADR++ 14*%
X195981250Y-92418750D03*
X201000000Y-51600000D03*
%TO.N,ADR++ 15*%
X205400000Y-51600000D03*
X204500000Y-92100000D03*
%TO.N,TEMP ADR 0*%
X138276000Y-57700000D03*
X60200000Y-60000000D03*
%TO.N,Net-(Q170-G)*%
X156276000Y-55811500D03*
X142776000Y-55811500D03*
X192276000Y-55811500D03*
X151776000Y-55811500D03*
X178776000Y-55811500D03*
X147276000Y-55811500D03*
D13*
X133876000Y-55811500D03*
D12*
X165276000Y-55811500D03*
X138276000Y-55811500D03*
X183276000Y-55811500D03*
X201276000Y-55811500D03*
X187776000Y-55811500D03*
X169776000Y-55811500D03*
X205801000Y-55811500D03*
X160776000Y-55811500D03*
X174276000Y-55811500D03*
X196776000Y-55811500D03*
%TO.N,TEMP ADR 1*%
X142776000Y-57700000D03*
X64700000Y-59900000D03*
%TO.N,STORED ADR 15*%
X127700000Y-51600000D03*
%TO.N,STORED ADR 14*%
X123100000Y-51600000D03*
%TO.N,STORED ADR 13*%
X118700000Y-51500000D03*
%TO.N,STORED ADR 12*%
X114200000Y-51500000D03*
%TO.N,STORED ADR 11*%
X109600000Y-51600000D03*
%TO.N,STORED ADR 10*%
X105100000Y-51600000D03*
%TO.N,STORED ADR 9*%
X100800000Y-51600000D03*
%TO.N,STORED ADR 8*%
X96000000Y-51600000D03*
%TO.N,STORED ADR 7*%
X91600000Y-51700000D03*
%TO.N,STORED ADR 6*%
X87000000Y-51600000D03*
%TO.N,STORED ADR 5*%
X82600000Y-51600000D03*
%TO.N,STORED ADR 4*%
X78100000Y-51600000D03*
%TO.N,STORED ADR 3*%
X73600000Y-51600000D03*
%TO.N,STORED ADR 2*%
X69100000Y-51600000D03*
%TO.N,STORED ADR 1*%
X64600000Y-51600000D03*
%TO.N,STORED ADR 0*%
X59900000Y-51600000D03*
%TO.N,Net-(Q204-G)*%
X200200000Y-86700000D03*
X194993750Y-94606250D03*
%TO.N,Net-(Q205-G)*%
X192200000Y-86700000D03*
X186993750Y-94606250D03*
%TO.N,Net-(Q206-G)*%
X184200000Y-86800000D03*
X178993750Y-94606250D03*
%TO.N,Net-(Q207-G)*%
X176200000Y-86700000D03*
X170993750Y-94606250D03*
%TO.N,Net-(Q208-G)*%
X168100000Y-86900000D03*
X162993750Y-94606250D03*
%TO.N,Net-(Q209-G)*%
X154993750Y-94606250D03*
X160100000Y-86600000D03*
%TO.N,Net-(Q210-G)*%
X146993750Y-94606250D03*
X152000000Y-86700000D03*
%TO.N,Net-(Q211-G)*%
X144100000Y-86600000D03*
X138993750Y-94606250D03*
%TO.N,Net-(Q212-G)*%
X135000000Y-84000000D03*
X131043750Y-94656250D03*
%TO.N,Net-(Q213-G)*%
X127000000Y-84000000D03*
X123000000Y-94700000D03*
%TO.N,Net-(Q214-G)*%
X114993750Y-94606250D03*
X120529016Y-83529016D03*
%TO.N,Net-(Q215-G)*%
X106993750Y-94606250D03*
X112329016Y-83729016D03*
%TO.N,Net-(Q216-G)*%
X98993750Y-94606250D03*
X104579016Y-83479016D03*
%TO.N,Net-(Q217-G)*%
X96906250Y-84106250D03*
X91100000Y-94700000D03*
%TO.N,Net-(Q218-G)*%
X88200000Y-86900000D03*
X83043750Y-94656250D03*
%TO.N,Read From stored Address*%
X118999000Y-47511500D03*
X73852000Y-47511500D03*
X81500000Y-167000000D03*
X82999000Y-47511500D03*
X69352000Y-47511500D03*
X96352000Y-47511500D03*
X127852000Y-47511500D03*
X80745984Y-83245984D03*
D13*
X57076000Y-47511500D03*
D12*
X123352000Y-47511500D03*
X87352000Y-47511500D03*
X78352000Y-47511500D03*
X109852000Y-47511500D03*
X91852000Y-47511500D03*
X64852000Y-47511500D03*
X105352000Y-47511500D03*
X100852000Y-47511500D03*
X114499000Y-47511500D03*
%TO.N,TEMP ADR 2*%
X69200000Y-60000000D03*
X147276000Y-57700000D03*
%TO.N,TEMP ADR 3*%
X151776000Y-57700000D03*
X73600000Y-60000000D03*
%TO.N,TEMP ADR 4*%
X156276000Y-57700000D03*
X78200000Y-60100000D03*
%TO.N,TEMP ADR 5*%
X160776000Y-57700000D03*
X82700000Y-60000000D03*
%TO.N,TEMP ADR 6*%
X165276000Y-57700000D03*
X87300000Y-60100000D03*
%TO.N,TEMP ADR 7*%
X91800000Y-60100000D03*
X169776000Y-57700000D03*
%TO.N,TEMP ADR 8*%
X174276000Y-57700000D03*
X96352000Y-60100000D03*
%TO.N,TEMP ADR 9*%
X100800000Y-60100000D03*
X178776000Y-57700000D03*
%TO.N,TEMP ADR 10*%
X105352000Y-60100000D03*
X183276000Y-57700000D03*
%TO.N,TEMP ADR 11*%
X187776000Y-57700000D03*
X109852000Y-60000000D03*
%TO.N,TEMP ADR 12*%
X192276000Y-57700000D03*
X114476000Y-60200000D03*
%TO.N,TEMP ADR 13*%
X118976000Y-60100000D03*
X196776000Y-57700000D03*
%TO.N,TEMP ADR 14*%
X123400000Y-60200000D03*
X201276000Y-57700000D03*
%TO.N,TEMP ADR 15*%
X202987028Y-56511500D03*
X127976000Y-60000000D03*
%TO.N,NEXT ADR 0*%
X138100000Y-60200000D03*
%TO.N,NEXT ADR 1*%
X142500000Y-60100000D03*
%TO.N,NEXT ADR 2*%
X147000000Y-60300000D03*
%TO.N,NEXT ADR 3*%
X151776000Y-60500000D03*
%TO.N,NEXT ADR 4*%
X156200000Y-60600000D03*
%TO.N,NEXT ADR 5*%
X160700000Y-60600000D03*
%TO.N,NEXT ADR 6*%
X165200000Y-60500000D03*
%TO.N,NEXT ADR 7*%
X169600000Y-60400000D03*
%TO.N,NEXT ADR 8*%
X174700000Y-64700000D03*
%TO.N,NEXT ADR 9*%
X179400000Y-64600000D03*
%TO.N,NEXT ADR 10*%
X183800000Y-64600000D03*
%TO.N,NEXT ADR 11*%
X188400000Y-64400000D03*
%TO.N,NEXT ADR 12*%
X192700000Y-64300000D03*
%TO.N,NEXT ADR 13*%
X197100000Y-64000000D03*
%TO.N,NEXT ADR 14*%
X201900000Y-64500000D03*
%TO.N,NEXT ADR 15*%
X206300000Y-64800000D03*
%TO.N,Net-(Q332-G)*%
X114352000Y-55711500D03*
X127852000Y-55711500D03*
X64852000Y-55711500D03*
X73852000Y-55711500D03*
X91852000Y-55711500D03*
X78376000Y-55711500D03*
X100852000Y-55711500D03*
X105352000Y-55711500D03*
X69352000Y-55711500D03*
X82852000Y-55711500D03*
X87352000Y-55711500D03*
X118852000Y-55711500D03*
X96352000Y-55711500D03*
X60276000Y-55711500D03*
D13*
X55976000Y-55711500D03*
D12*
X123352000Y-55711500D03*
X109852000Y-55711500D03*
%TO.N,TIME STEP 0*%
X95200000Y-109800000D03*
X43500000Y-107500000D03*
X145800000Y-28800000D03*
%TO.N,!TIME STEP 0*%
X82375000Y-121400000D03*
X80800000Y-162000000D03*
%TO.N,TIME STEP IN 1*%
X83000000Y-135900000D03*
%TO.N,TIME STEP 1*%
X78500000Y-120300000D03*
X63100000Y-149200000D03*
X77100000Y-151399000D03*
%TO.N,TIME STEP IN 2*%
X75700000Y-135600000D03*
X56200000Y-162400000D03*
%TO.N,FLAG N*%
X73123718Y-116800000D03*
%TO.N,Net-(Q418-G)*%
X69223718Y-132300000D03*
X69223718Y-123200000D03*
X69223718Y-114900000D03*
X69223718Y-127800000D03*
X69223718Y-118600000D03*
%TO.N,FLAG STORE N*%
X54400000Y-117600000D03*
%TO.N,FLAG Z*%
X72823718Y-117900000D03*
X162400000Y-118850000D03*
X118430000Y-117070000D03*
%TO.N,FLAG STORE Z*%
X54400000Y-122000000D03*
%TO.N,FLAG U*%
X73312718Y-122700000D03*
%TO.N,FLAG STORE U*%
X54600000Y-126500000D03*
%TO.N,FLAG O*%
X191200000Y-103500000D03*
X73123718Y-127200000D03*
%TO.N,FLAG STORE O*%
X54600000Y-131100000D03*
%TO.N,FLAG C*%
X73223718Y-131300000D03*
X170550000Y-123850000D03*
X151200000Y-104500000D03*
X201400000Y-138400000D03*
%TO.N,FLAG STORE C*%
X54600000Y-135700000D03*
%TO.N,Read Write ins*%
X52300000Y-157300000D03*
X73200000Y-144100000D03*
X52800000Y-145475000D03*
X72908058Y-142008058D03*
X53800000Y-168000000D03*
%TO.N,Commit jump*%
X51900000Y-163100000D03*
X132100000Y-111526000D03*
%TO.N,TIME STEP IN 0*%
X72300000Y-143500000D03*
%TO.N,TIME STEP 2*%
X84400000Y-159500000D03*
X85100000Y-151276000D03*
X99800000Y-117700000D03*
%TO.N,TIME STEP 0or1or2*%
X90300000Y-147800000D03*
X89100000Y-152500000D03*
%TO.N,TIME STEP 0or1*%
X63000000Y-152300000D03*
X66200000Y-147800000D03*
%TO.N,Main bus -> bus out*%
X226950000Y-56062500D03*
X226850000Y-47262500D03*
X227900000Y-75900000D03*
X226950000Y-51562500D03*
X226950000Y-33762500D03*
X226850000Y-65162500D03*
X226850000Y-60562500D03*
X226850000Y-38162500D03*
X131500000Y-120800000D03*
X226950000Y-42562500D03*
%TO.N,Net-(Q520-D)*%
X234900000Y-38000000D03*
X231500000Y-37900000D03*
%TO.N,Net-(Q523-D)*%
X234900000Y-42500000D03*
X231600000Y-42500000D03*
%TO.N,Net-(Q526-D)*%
X231600000Y-47000000D03*
X234900000Y-47000000D03*
%TO.N,Net-(Q529-D)*%
X234900000Y-51500000D03*
X231500000Y-51500000D03*
%TO.N,Net-(Q532-D)*%
X234900000Y-56000000D03*
X231500000Y-56000000D03*
%TO.N,Net-(Q535-D)*%
X231500000Y-60500000D03*
X234900000Y-60500000D03*
%TO.N,Net-(Q538-D)*%
X234900000Y-65000000D03*
X231600000Y-65000000D03*
%TO.N,bus out -> Main bus*%
X213450000Y-63862500D03*
X213350000Y-36862500D03*
X75012500Y-155225000D03*
X213350000Y-45862500D03*
X213450000Y-59262500D03*
X47150000Y-50950000D03*
X213350000Y-41262500D03*
X213450000Y-54762500D03*
X213450000Y-50462500D03*
X47100000Y-45900000D03*
X213850000Y-33762500D03*
%TO.N,Net-(Q544-D)*%
X218400000Y-38562500D03*
X209900000Y-38000000D03*
%TO.N,Net-(Q547-D)*%
X209900000Y-42500000D03*
X218400000Y-43062500D03*
%TO.N,Net-(Q550-D)*%
X209900000Y-47000000D03*
X218400000Y-47562500D03*
%TO.N,Net-(Q553-D)*%
X218400000Y-52062500D03*
X209900000Y-51500000D03*
%TO.N,Net-(Q556-D)*%
X218400000Y-56562500D03*
X209900000Y-56000000D03*
%TO.N,Net-(Q559-D)*%
X218400000Y-61062500D03*
X209900000Y-60500000D03*
%TO.N,Net-(Q562-D)*%
X218400000Y-65562500D03*
X209900000Y-65000000D03*
%TO.N,AA1*%
X271803281Y-138215781D03*
X278937500Y-138150000D03*
X264737500Y-143950000D03*
X247050000Y-115950000D03*
X249837500Y-134750000D03*
%TO.N,AA2*%
X271853281Y-149165781D03*
X249737500Y-138550000D03*
X278937500Y-149150000D03*
X264737500Y-154950000D03*
X245825000Y-115925000D03*
%TO.N,AA3*%
X278937500Y-160150000D03*
X249737500Y-142250000D03*
X271753281Y-160265781D03*
X244550000Y-115950000D03*
X264737500Y-165950000D03*
%TO.N,AA4*%
X278937500Y-171150000D03*
X249837500Y-145850000D03*
X243350000Y-115950000D03*
X271753281Y-171265781D03*
X264737500Y-176950000D03*
%TO.N,AA5*%
X249737500Y-149650000D03*
X264737500Y-187850000D03*
X271770623Y-182248438D03*
X242050000Y-115950000D03*
X278937500Y-182150000D03*
%TO.N,AA6*%
X278937500Y-193150000D03*
X264737500Y-198950000D03*
X271803281Y-193215781D03*
X241200000Y-115600000D03*
X249737500Y-153450000D03*
%TO.N,AA7*%
X249737500Y-157150000D03*
X241229250Y-114329250D03*
X265097500Y-214750000D03*
X278937500Y-204150000D03*
X354637500Y-169750000D03*
X271803281Y-204215781D03*
X348397500Y-168850000D03*
%TO.N,AB0*%
X345797500Y-181050000D03*
X342697500Y-130450000D03*
X279200000Y-109300000D03*
X243517500Y-127270000D03*
X251737500Y-119050000D03*
%TO.N,AB1*%
X244367500Y-127420000D03*
X249137500Y-122656000D03*
X283000000Y-109100000D03*
%TO.N,AB2*%
X244524393Y-128204467D03*
X286800000Y-109200000D03*
X250737500Y-121950000D03*
%TO.N,AB3*%
X245467500Y-128220000D03*
X290600000Y-109100000D03*
X252137500Y-121550000D03*
%TO.N,AB4*%
X294400000Y-109100000D03*
X253513235Y-121125735D03*
X245517500Y-129070000D03*
%TO.N,AB5*%
X246515643Y-128971857D03*
X298200000Y-109100000D03*
X254737500Y-120750000D03*
%TO.N,AB6*%
X302000000Y-109100000D03*
X246879047Y-129684554D03*
X256037500Y-120350000D03*
%TO.N,AB7*%
X305800000Y-109100000D03*
X257537500Y-119850000D03*
X348716516Y-161129016D03*
X247667500Y-129820000D03*
X326797500Y-151450000D03*
%TO.N,Net-(Q1133-G)*%
X302137500Y-157650000D03*
X270937500Y-131650000D03*
%TO.N,Net-(Q1135-G)*%
X302137500Y-169550000D03*
X289737500Y-125450000D03*
%TO.N,Net-(Q913-D)*%
X282837500Y-131450000D03*
X289537500Y-132450000D03*
%TO.N,Net-(Q914-D)*%
X278937500Y-143350000D03*
X288737500Y-131950000D03*
%TO.N,Net-(Q1129-G)*%
X277837500Y-126550000D03*
X302137500Y-133450000D03*
%TO.N,Net-(Q1145-G)*%
X306337500Y-158050000D03*
X270937500Y-142650000D03*
%TO.N,Net-(Q1147-G)*%
X289937500Y-136650000D03*
X306337500Y-169850000D03*
%TO.N,Net-(Q940-D)*%
X289537500Y-143450000D03*
X282737500Y-142450000D03*
%TO.N,Net-(Q941-D)*%
X278937500Y-154350000D03*
X288737500Y-142950000D03*
%TO.N,Net-(Q1149-G)*%
X297437500Y-142450000D03*
X296037500Y-142450000D03*
%TO.N,Net-(Q1127-G)*%
X302137500Y-125150000D03*
X264237500Y-128150000D03*
%TO.N,Net-(Q1141-G)*%
X306337500Y-133850000D03*
X277637500Y-137450000D03*
%TO.N,Net-(Q1139-G)*%
X264437500Y-139150000D03*
X306337500Y-125150000D03*
%TO.N,Net-(Q1157-G)*%
X270937500Y-153650000D03*
X310437500Y-158450000D03*
%TO.N,Net-(Q1159-G)*%
X310537500Y-170250000D03*
X289937500Y-147750000D03*
%TO.N,Net-(Q965-D)*%
X282837500Y-153450000D03*
X289537500Y-154450000D03*
%TO.N,Net-(Q966-D)*%
X288637500Y-153850000D03*
X278937500Y-165350000D03*
%TO.N,Net-(Q1161-G)*%
X296037500Y-152250000D03*
X297838500Y-152250000D03*
%TO.N,Net-(Q1151-G)*%
X310537500Y-125150000D03*
X264437500Y-150150000D03*
%TO.N,Net-(Q1153-G)*%
X277737500Y-148350000D03*
X310537500Y-134250000D03*
%TO.N,Net-(Q1163-G)*%
X314737500Y-125150000D03*
X264337500Y-161150000D03*
%TO.N,Net-(Q1169-G)*%
X270937500Y-164650000D03*
X314637500Y-158850000D03*
%TO.N,Net-(Q1002-G)*%
X314637500Y-170650000D03*
X289937500Y-158750000D03*
%TO.N,Net-(Q989-D)*%
X282837500Y-164450000D03*
X289537500Y-165550000D03*
%TO.N,Net-(Q1017-G)*%
X288737500Y-164950000D03*
X278937500Y-176350000D03*
%TO.N,Net-(Q1173-G)*%
X298337500Y-164550000D03*
X296137500Y-164450000D03*
%TO.N,Net-(Q1000-D)*%
X277637500Y-159274000D03*
X314737500Y-134650000D03*
%TO.N,Net-(Q1008-D)*%
X318937500Y-125150000D03*
X264437500Y-172150000D03*
%TO.N,Net-(Q1014-S)*%
X318837500Y-159250000D03*
X270937500Y-175650000D03*
%TO.N,Net-(Q1016-D)*%
X319037500Y-171150000D03*
X289937500Y-169750000D03*
%TO.N,Net-(Q1018-D)*%
X289537500Y-176550000D03*
X282837500Y-175450000D03*
%TO.N,Net-(Q1019-D)*%
X278937500Y-187350000D03*
X288637500Y-175950000D03*
%TO.N,Net-(Q1021-D)*%
X296037500Y-174250000D03*
X298640500Y-172150000D03*
%TO.N,Net-(Q1025-D)*%
X323137500Y-125150000D03*
X264037500Y-183150000D03*
%TO.N,Net-(Q1028-D)*%
X318937500Y-135050000D03*
X277637500Y-170274000D03*
%TO.N,Net-(Q1035-D)*%
X264037500Y-194150000D03*
X327337500Y-125150000D03*
%TO.N,Net-(Q1036-S)*%
X323037500Y-159650000D03*
X270937500Y-186650000D03*
%TO.N,Net-(Q1038-D)*%
X289937500Y-180750000D03*
X323137500Y-171550000D03*
%TO.N,Net-(Q1040-D)*%
X289537500Y-187550000D03*
X282837500Y-186450000D03*
%TO.N,Net-(Q1041-D)*%
X288737500Y-186950000D03*
X278937500Y-198350000D03*
%TO.N,Net-(Q1043-D)*%
X299041500Y-180550000D03*
X295937500Y-185250000D03*
%TO.N,Net-(Q1045-G)*%
X304437500Y-140550000D03*
X304437500Y-152450000D03*
X304437500Y-176650000D03*
X304537500Y-128650000D03*
X304437500Y-194750000D03*
X304437500Y-164550000D03*
X304437500Y-188650000D03*
%TO.N,Net-(Q1046-G)*%
X345737500Y-193050000D03*
X343697500Y-193050000D03*
%TO.N,Net-(Q1050-D)*%
X277637500Y-181274000D03*
X323137500Y-135450000D03*
%TO.N,Net-(Q1055-G)*%
X308637500Y-164650000D03*
X308637500Y-152650000D03*
X308637500Y-194750000D03*
X308737500Y-128750000D03*
X308637500Y-188650000D03*
X308737500Y-140550000D03*
X308637500Y-176650000D03*
%TO.N,Net-(Q1057-D)*%
X331537500Y-125150000D03*
X264237500Y-205150000D03*
%TO.N,Net-(Q1058-G)*%
X312837500Y-194750000D03*
X312837500Y-164650000D03*
X312837500Y-128550000D03*
X312837500Y-176650000D03*
X312837500Y-188650000D03*
X312837500Y-140550000D03*
X312837500Y-152650000D03*
%TO.N,Net-(Q1060-G)*%
X317037500Y-176650000D03*
X317037500Y-188650000D03*
X317037500Y-164750000D03*
X317037500Y-194750000D03*
X317037500Y-152750000D03*
X317137500Y-128550000D03*
X317037500Y-140550000D03*
%TO.N,Net-(Q1063-S)*%
X270937500Y-197650000D03*
X327237500Y-160050000D03*
%TO.N,Net-(Q1065-D)*%
X327337500Y-171850000D03*
X289937500Y-191650000D03*
%TO.N,Net-(Q1067-D)*%
X289537500Y-198550000D03*
X282737500Y-197550000D03*
%TO.N,Net-(Q1068-D)*%
X288737500Y-197950000D03*
X278937500Y-209350000D03*
%TO.N,Net-(Q1070-D)*%
X299442500Y-181651470D03*
X296137500Y-196850000D03*
%TO.N,Net-(Q1071-G)*%
X321337500Y-128650000D03*
X321237500Y-194750000D03*
X321237500Y-164650000D03*
X321237500Y-140550000D03*
X321237500Y-176650000D03*
X321237500Y-188550000D03*
X321237500Y-152650000D03*
%TO.N,Net-(Q1074-G)*%
X325537500Y-128750000D03*
X325437500Y-164550000D03*
X325437500Y-176650000D03*
X325437500Y-194750000D03*
X325437500Y-152650000D03*
X325437500Y-188450000D03*
X325437500Y-140650000D03*
%TO.N,Net-(Q1078-D)*%
X277637500Y-192274000D03*
X327337500Y-135850000D03*
%TO.N,Net-(Q1084-G)*%
X329637500Y-176550000D03*
X329637500Y-194750000D03*
X329637500Y-164550000D03*
X329737500Y-128550000D03*
X329637500Y-140650000D03*
X329637500Y-152550000D03*
X329637500Y-188650000D03*
%TO.N,Net-(Q1087-G)*%
X333837500Y-140750000D03*
X333837500Y-164550000D03*
X333837500Y-188650000D03*
X333837500Y-194750000D03*
X333837500Y-176550000D03*
X333837500Y-128550000D03*
%TO.N,Net-(Q1091-S)*%
X331437500Y-160450000D03*
X270937500Y-208650000D03*
%TO.N,Net-(Q1093-D)*%
X289937500Y-202750000D03*
X331437500Y-172550000D03*
%TO.N,Net-(Q1095-D)*%
X289537500Y-209750000D03*
X282837500Y-208450000D03*
%TO.N,Net-(Q1096-D)*%
X288737500Y-208950000D03*
X348797500Y-208050000D03*
X288697500Y-215750000D03*
%TO.N,Net-(Q1098-D)*%
X300763530Y-182123970D03*
X296637500Y-201950000D03*
%TO.N,Net-(Q1102-D)*%
X331537500Y-136250000D03*
X277637500Y-203274000D03*
%TO.N,Net-(J21-Pin_17)*%
X268350000Y-67237500D03*
X250650000Y-69937500D03*
%TO.N,Net-(J21-Pin_21)*%
X268350000Y-82537500D03*
X250550000Y-84637500D03*
%TO.N,Net-(J21-Pin_14)*%
X268350000Y-55837500D03*
X250550000Y-58337500D03*
%TO.N,Net-(J21-Pin_19)*%
X268250000Y-74837500D03*
X250550000Y-77237500D03*
%TO.N,Net-(J21-Pin_15)*%
X250650000Y-62337500D03*
X268350000Y-59637500D03*
%TO.N,Net-(J21-Pin_20)*%
X250650000Y-81037500D03*
X268250000Y-78637500D03*
%TO.N,Net-(J21-Pin_16)*%
X250450000Y-66437500D03*
X268350000Y-63337500D03*
%TO.N,Net-(J21-Pin_18)*%
X250650000Y-73537500D03*
X268250000Y-71137500D03*
%TO.N,Net-(J22-Pin_20)*%
X300350000Y-78637500D03*
X282650000Y-80937500D03*
%TO.N,Net-(J22-Pin_16)*%
X300350000Y-63537500D03*
X282750000Y-65737500D03*
%TO.N,Net-(J22-Pin_14)*%
X300450000Y-55837500D03*
X282650000Y-58237500D03*
%TO.N,Net-(J22-Pin_19)*%
X300250000Y-74937500D03*
X282550000Y-77137500D03*
%TO.N,Net-(J22-Pin_15)*%
X300450000Y-59737500D03*
X282650000Y-61936500D03*
%TO.N,Net-(J22-Pin_17)*%
X282550000Y-69637500D03*
X300350000Y-67337500D03*
%TO.N,Net-(J22-Pin_18)*%
X300250000Y-71137500D03*
X282650000Y-73337500D03*
%TO.N,Net-(J22-Pin_21)*%
X282650000Y-84837500D03*
X300350000Y-82437500D03*
%TO.N,Net-(J23-Pin_17)*%
X314750000Y-69637500D03*
X332350000Y-67237500D03*
%TO.N,Net-(J23-Pin_15)*%
X314650000Y-61937500D03*
X332550000Y-59637500D03*
%TO.N,Net-(J23-Pin_21)*%
X314650000Y-84737500D03*
X332350000Y-82537500D03*
%TO.N,Net-(J23-Pin_18)*%
X314750000Y-73437500D03*
X332350000Y-71137500D03*
%TO.N,Net-(J23-Pin_14)*%
X332350000Y-55737500D03*
X314650000Y-58237500D03*
%TO.N,Net-(J23-Pin_19)*%
X332250000Y-74837500D03*
X314650000Y-77237500D03*
%TO.N,Net-(J23-Pin_16)*%
X314550000Y-65737500D03*
X332450000Y-63437500D03*
%TO.N,Net-(J23-Pin_20)*%
X314650000Y-80937500D03*
X332450000Y-78637500D03*
%TO.N,Net-(J24-Pin_16)*%
X364350000Y-63437500D03*
X346750000Y-65837500D03*
%TO.N,Net-(J24-Pin_18)*%
X364250000Y-71037500D03*
X346650000Y-73437500D03*
%TO.N,Net-(J24-Pin_20)*%
X364350000Y-78437500D03*
X346750000Y-80937500D03*
%TO.N,Net-(J24-Pin_21)*%
X364250000Y-82337500D03*
X346550000Y-84837500D03*
%TO.N,Net-(J24-Pin_15)*%
X364616443Y-59852087D03*
X346650000Y-62137500D03*
%TO.N,Net-(J24-Pin_17)*%
X346750000Y-69737500D03*
X364350000Y-67237500D03*
%TO.N,Net-(J24-Pin_19)*%
X364350000Y-74737500D03*
X346750000Y-77337500D03*
%TO.N,Net-(J24-Pin_14)*%
X364350000Y-55937500D03*
X346650000Y-58337500D03*
%TO.N,Net-(Q636-G)*%
X300450000Y-91335726D03*
X309350000Y-57137500D03*
X245550000Y-56837500D03*
X269440625Y-91346875D03*
X277350000Y-57037500D03*
%TO.N,Net-(Q637-G)*%
X300962149Y-91950305D03*
X277350000Y-60837500D03*
X309550000Y-60937500D03*
X269978502Y-91946875D03*
X265600000Y-93938500D03*
X245050000Y-60837500D03*
%TO.N,Net-(Q638-G)*%
X261750000Y-94538500D03*
X244649000Y-64637500D03*
X277550000Y-64837500D03*
X270372593Y-92660057D03*
X301450000Y-92633496D03*
X309550000Y-64737500D03*
%TO.N,Net-(Q639-G)*%
X309450000Y-68537500D03*
X270929177Y-93234703D03*
X257850000Y-95138500D03*
X301961542Y-93248581D03*
X277450000Y-68437500D03*
X244248000Y-68337500D03*
%TO.N,Net-(Q640-G)*%
X243847000Y-72137500D03*
X277450000Y-72337500D03*
X271357146Y-93935706D03*
X309550000Y-72437500D03*
X254100000Y-95837500D03*
X302450000Y-93934635D03*
%TO.N,Net-(Q641-G)*%
X309550000Y-76137500D03*
X277550000Y-76137500D03*
X302977054Y-94536477D03*
X250350000Y-96437500D03*
X271886277Y-94535726D03*
X243446000Y-75937500D03*
%TO.N,Net-(Q642-G)*%
X303550000Y-95136477D03*
X272414575Y-95136477D03*
X243045000Y-79931500D03*
X246850000Y-96937500D03*
X277450000Y-79937500D03*
X309650000Y-79937500D03*
%TO.N,Net-(Q643-G)*%
X304150000Y-95736477D03*
X242644000Y-83600000D03*
X242700000Y-97575000D03*
X272951023Y-95736477D03*
X309650000Y-83737500D03*
X277550000Y-83837500D03*
%TO.N,Net-(Q1453-D)*%
X337450000Y-57037500D03*
X368550000Y-58237500D03*
X305450000Y-57037500D03*
X341950000Y-96537500D03*
X309950000Y-96537500D03*
X278250000Y-96537500D03*
X273450000Y-57037500D03*
%TO.N,Net-(Q1452-D)*%
X368450000Y-61937500D03*
X337450000Y-60937500D03*
X273450000Y-60937500D03*
X309450000Y-97172818D03*
X305450000Y-60937500D03*
X282050000Y-97172818D03*
X341450000Y-97172818D03*
%TO.N,Net-(Q1451-D)*%
X273450000Y-64737500D03*
X308950000Y-97937500D03*
X285850000Y-97937500D03*
X368450000Y-65737500D03*
X305450000Y-64737500D03*
X337450000Y-64737500D03*
X340950000Y-97937500D03*
%TO.N,Net-(Q1450-D)*%
X368450000Y-69537500D03*
X289650000Y-98637500D03*
X305450000Y-68537500D03*
X308350000Y-98637500D03*
X337450000Y-68537500D03*
X340350000Y-98637500D03*
X273450000Y-68537500D03*
%TO.N,Net-(Q1449-D)*%
X307750000Y-99337500D03*
X293450000Y-99337500D03*
X337450000Y-72337500D03*
X339750000Y-99337500D03*
X368450000Y-73337500D03*
X305450000Y-72337500D03*
X273450000Y-72337500D03*
%TO.N,Net-(Q651-G)*%
X339150000Y-100037500D03*
X297250000Y-100037500D03*
X368550000Y-77137500D03*
X305450000Y-76137500D03*
X307150000Y-100037500D03*
X273450000Y-76137500D03*
X337450000Y-76137500D03*
%TO.N,Net-(Q652-G)*%
X273450000Y-79937500D03*
X368450000Y-80937500D03*
X301050000Y-100772818D03*
X338450000Y-100772818D03*
X305450000Y-79937500D03*
X306450000Y-100772818D03*
X337450000Y-79937500D03*
%TO.N,Net-(Q653-G)*%
X337450000Y-83737500D03*
X337550000Y-101437500D03*
X368450000Y-84737500D03*
X304850000Y-101437500D03*
X305450000Y-83737500D03*
X273450000Y-83737500D03*
%TD*%
D14*
%TO.N,Read New Instruction*%
X52500000Y-166700000D02*
X49200000Y-170000000D01*
X49200000Y-170000000D02*
X49100000Y-170000000D01*
%TO.N,Buss3*%
X163220000Y-23820000D02*
X163200000Y-23800000D01*
X85420000Y-23820000D02*
X85400000Y-23800000D01*
X163220000Y-35400000D02*
X163220000Y-23820000D01*
X85420000Y-35400000D02*
X85420000Y-23820000D01*
%TO.N,R{slash}W out*%
X28189000Y-132111000D02*
X26800000Y-133500000D01*
X46100000Y-132600000D02*
X45611000Y-132111000D01*
X45611000Y-132111000D02*
X28189000Y-132111000D01*
%TO.N,Buss2*%
X160680000Y-35400000D02*
X160680000Y-23220000D01*
X82880000Y-23280000D02*
X82800000Y-23200000D01*
X82880000Y-35400000D02*
X82880000Y-23280000D01*
X160680000Y-23220000D02*
X160700000Y-23200000D01*
%TO.N,Buss0*%
X155600000Y-35400000D02*
X155600000Y-22000000D01*
X77800000Y-22100000D02*
X77800000Y-35400000D01*
X77700000Y-22000000D02*
X77800000Y-22100000D01*
%TO.N,Buss6*%
X93040000Y-25640000D02*
X93000000Y-25600000D01*
X93040000Y-35400000D02*
X93040000Y-25640000D01*
X170840000Y-25660000D02*
X170900000Y-25600000D01*
X170840000Y-35400000D02*
X170840000Y-25660000D01*
%TO.N,Buss7*%
X173380000Y-35400000D02*
X173380000Y-26320000D01*
X95580000Y-35400000D02*
X95580000Y-26280000D01*
X173380000Y-26320000D02*
X173500000Y-26200000D01*
X95580000Y-26280000D02*
X95500000Y-26200000D01*
%TO.N,Buss4*%
X165760000Y-24460000D02*
X165700000Y-24400000D01*
X87960000Y-35400000D02*
X87960000Y-24460000D01*
X87960000Y-24460000D02*
X87900000Y-24400000D01*
X165760000Y-35400000D02*
X165760000Y-24460000D01*
%TO.N,Buss5*%
X168300000Y-35400000D02*
X168300000Y-25000000D01*
X90500000Y-35400000D02*
X90500000Y-25100000D01*
X90500000Y-25100000D02*
X90400000Y-25000000D01*
%TO.N,Buss1*%
X158140000Y-22660000D02*
X158200000Y-22600000D01*
X158140000Y-35400000D02*
X158140000Y-22660000D01*
X80340000Y-35400000D02*
X80340000Y-22640000D01*
X80340000Y-22640000D02*
X80300000Y-22600000D01*
%TO.N,Main bus 0*%
X307437500Y-212050000D02*
X310770400Y-212050000D01*
X355500200Y-212051000D02*
X358369350Y-209181850D01*
X358369350Y-209181850D02*
X359437500Y-208113700D01*
X304137500Y-208750000D02*
X307437500Y-212050000D01*
X310770400Y-212050000D02*
X310771400Y-212051000D01*
X310771400Y-212051000D02*
X354537500Y-212051000D01*
X359437500Y-208113700D02*
X359437500Y-206404223D01*
X354537500Y-212051000D02*
X355500200Y-212051000D01*
%TO.N,Main bus 4*%
X356535150Y-208747650D02*
X357037500Y-208245300D01*
X355070700Y-210212100D02*
X356535150Y-208747650D01*
X319337500Y-208650000D02*
X321134500Y-210447000D01*
X354835800Y-210447000D02*
X355070700Y-210212100D01*
X357037500Y-208245300D02*
X357037500Y-204065607D01*
X321134500Y-210447000D02*
X354835800Y-210447000D01*
%TO.N,Main bus 1*%
X307937500Y-208650000D02*
X310937500Y-211650000D01*
X354537500Y-211650000D02*
X355334100Y-211650000D01*
X310937500Y-211650000D02*
X354537500Y-211650000D01*
X358837500Y-208146600D02*
X358837500Y-205815902D01*
X355334100Y-211650000D02*
X355569000Y-211415100D01*
X355569000Y-211415100D02*
X358837500Y-208146600D01*
%TO.N,Main bus 6*%
X355837500Y-208311100D02*
X354503600Y-209645000D01*
X355837500Y-202750000D02*
X355837500Y-208311100D01*
X354503600Y-209645000D02*
X327932500Y-209645000D01*
X327932500Y-209645000D02*
X326937500Y-208650000D01*
%TO.N,Main bus 3*%
X356718700Y-209131200D02*
X357637500Y-208212400D01*
X357637500Y-208212400D02*
X357637500Y-204619929D01*
X354237500Y-210848000D02*
X355001900Y-210848000D01*
X315637500Y-208790000D02*
X315637500Y-208750000D01*
X355001900Y-210848000D02*
X356718700Y-209131200D01*
X317695500Y-210848000D02*
X315637500Y-208790000D01*
X354237500Y-210848000D02*
X317695500Y-210848000D01*
%TO.N,Main bus 2*%
X358237500Y-208179500D02*
X358237500Y-205254655D01*
X311837500Y-208650000D02*
X314436500Y-211249000D01*
X355168000Y-211249000D02*
X358237500Y-208179500D01*
X354537500Y-211249000D02*
X355168000Y-211249000D01*
X314436500Y-211249000D02*
X354537500Y-211249000D01*
%TO.N,Main bus 5*%
X356437500Y-208278200D02*
X356437500Y-203399936D01*
X354637500Y-210046000D02*
X354669700Y-210046000D01*
X324533500Y-210046000D02*
X323137500Y-208650000D01*
X354537500Y-210046000D02*
X354637500Y-210046000D01*
X354669700Y-210046000D02*
X356437500Y-208278200D01*
X354537500Y-210046000D02*
X324533500Y-210046000D01*
%TO.N,XOR*%
X208000000Y-124000000D02*
X226600000Y-124000000D01*
X226600000Y-124000000D02*
X229300000Y-126700000D01*
%TO.N,ALU FLAG O*%
X242400000Y-198000000D02*
X220899000Y-176499000D01*
X245100000Y-198000000D02*
X242400000Y-198000000D01*
X220899000Y-176499000D02*
X162431900Y-176499000D01*
X160166450Y-174233550D02*
X153933550Y-174233550D01*
X109460032Y-129760032D02*
X65560032Y-129760032D01*
X65560032Y-129760032D02*
X64700000Y-128900000D01*
X153933550Y-174233550D02*
X109460032Y-129760032D01*
X162431900Y-176499000D02*
X160166450Y-174233550D01*
%TO.N,ALU FLAG N*%
X331331500Y-209244000D02*
X330737500Y-208650000D01*
X164599000Y-174399000D02*
X105800000Y-115600000D01*
X65300000Y-115600000D02*
X64800000Y-115100000D01*
X354337500Y-209244000D02*
X331331500Y-209244000D01*
X105800000Y-115600000D02*
X65300000Y-115600000D01*
X355237500Y-208344000D02*
X354337500Y-209244000D01*
X247400000Y-186500000D02*
X233100000Y-186500000D01*
X220999000Y-174399000D02*
X164599000Y-174399000D01*
X355237500Y-202150000D02*
X355237500Y-208344000D01*
X233100000Y-186500000D02*
X220999000Y-174399000D01*
%TO.N,ALU FLAG U*%
X112400000Y-125900000D02*
X66400000Y-125900000D01*
X162502000Y-176002000D02*
X112400000Y-125900000D01*
X221202000Y-176002000D02*
X162502000Y-176002000D01*
X66400000Y-125900000D02*
X64600000Y-124100000D01*
X247300000Y-194100000D02*
X239300000Y-194100000D01*
X239300000Y-194100000D02*
X221202000Y-176002000D01*
%TO.N,ALU FLAG C*%
X247200000Y-201700000D02*
X245400000Y-201700000D01*
X158600000Y-179500000D02*
X113802000Y-134702000D01*
X113802000Y-134702000D02*
X64602000Y-134702000D01*
X158700000Y-179400000D02*
X158600000Y-179500000D01*
X64602000Y-134702000D02*
X64600000Y-134700000D01*
X245400000Y-201700000D02*
X223100000Y-179400000D01*
X223100000Y-179400000D02*
X158700000Y-179400000D01*
%TO.N,ALU FLAG Z*%
X217000000Y-175600000D02*
X216999000Y-175601000D01*
X221632900Y-175600000D02*
X217000000Y-175600000D01*
X247600000Y-190300000D02*
X236332900Y-190300000D01*
X109099000Y-119500000D02*
X64700000Y-119500000D01*
X216999000Y-175601000D02*
X165200000Y-175601000D01*
X165200000Y-175601000D02*
X109099000Y-119500000D01*
X236332900Y-190300000D02*
X221632900Y-175600000D01*
%TO.N,RS*%
X226498000Y-127399000D02*
X201901000Y-127399000D01*
X201901000Y-127399000D02*
X201200000Y-128100000D01*
X228399000Y-129300000D02*
X226498000Y-127399000D01*
%TO.N,C ->ALU A*%
X314500000Y-89300000D02*
X317300000Y-86500000D01*
X314500000Y-105000000D02*
X314500000Y-89300000D01*
%TO.N,C ->ALU B*%
X323500000Y-102400000D02*
X331500000Y-94400000D01*
X331500000Y-94400000D02*
X331500000Y-86300000D01*
%TO.N,READ FALG*%
X122750000Y-113550000D02*
X169300000Y-160100000D01*
X96200000Y-110200000D02*
X113600000Y-110200000D01*
X116950000Y-113550000D02*
X113600000Y-110200000D01*
X122750000Y-113550000D02*
X116950000Y-113550000D01*
%TO.N,ADR++ 0*%
X143550000Y-57450000D02*
X143550000Y-58250000D01*
X89862443Y-92000000D02*
X84500000Y-92000000D01*
X101167443Y-80695000D02*
X89862443Y-92000000D01*
X138100000Y-52000000D02*
X143550000Y-57450000D01*
X146700000Y-73800000D02*
X139805000Y-80695000D01*
X146700000Y-61400000D02*
X146700000Y-73800000D01*
X143550000Y-58250000D02*
X146700000Y-61400000D01*
X139805000Y-80695000D02*
X101167443Y-80695000D01*
X138100000Y-51600000D02*
X138100000Y-52000000D01*
%TO.N,ADR++ 1*%
X110248114Y-88501000D02*
X117653114Y-81096000D01*
X142004000Y-81096000D02*
X149200000Y-73900000D01*
X141400000Y-81096000D02*
X142004000Y-81096000D01*
X96199000Y-88501000D02*
X110248114Y-88501000D01*
X119600000Y-81096000D02*
X141400000Y-81096000D01*
X149200000Y-73900000D02*
X149200000Y-58600000D01*
X149200000Y-58600000D02*
X142500000Y-51900000D01*
X117653114Y-81096000D02*
X119600000Y-81096000D01*
X92600000Y-92100000D02*
X96199000Y-88501000D01*
X142500000Y-51900000D02*
X142500000Y-51600000D01*
%TO.N,ADR++ 2*%
X124700000Y-81497000D02*
X142900000Y-81497000D01*
X107216214Y-92100000D02*
X117819214Y-81497000D01*
X148377678Y-51563235D02*
X147163235Y-51563235D01*
X154300000Y-76200000D02*
X154300000Y-57485557D01*
X149003000Y-81497000D02*
X154300000Y-76200000D01*
X142900000Y-81497000D02*
X149003000Y-81497000D01*
X100600000Y-92100000D02*
X107216214Y-92100000D01*
X154300000Y-57485557D02*
X148377678Y-51563235D01*
X117819214Y-81497000D02*
X124700000Y-81497000D01*
%TO.N,ADR++ 3*%
X156957279Y-76340721D02*
X156957279Y-57342721D01*
X156957279Y-57342721D02*
X151700000Y-52085443D01*
X150300000Y-81898000D02*
X151400000Y-81898000D01*
X123009975Y-81898000D02*
X150300000Y-81898000D01*
X151400000Y-81898000D02*
X156957279Y-76340721D01*
X108600000Y-92100000D02*
X112807975Y-92100000D01*
X151700000Y-52085443D02*
X151700000Y-51500000D01*
X112807975Y-92100000D02*
X123009975Y-81898000D01*
%TO.N,ADR++ 4*%
X157600000Y-82299000D02*
X161900000Y-77999000D01*
X161900000Y-77999000D02*
X161900000Y-57800000D01*
X116649000Y-92200000D02*
X119649943Y-92200000D01*
X161900000Y-57800000D02*
X156200000Y-52100000D01*
X156200000Y-52100000D02*
X156200000Y-51500000D01*
X119649943Y-92200000D02*
X129550943Y-82299000D01*
X153600000Y-82299000D02*
X157600000Y-82299000D01*
X129550943Y-82299000D02*
X153600000Y-82299000D01*
%TO.N,ADR++ 5*%
X167000000Y-79396000D02*
X161500000Y-84896000D01*
X124600000Y-92000000D02*
X127849943Y-92000000D01*
X167000000Y-58385443D02*
X167000000Y-79396000D01*
X127849943Y-92000000D02*
X134953943Y-84896000D01*
X160500000Y-51885443D02*
X167000000Y-58385443D01*
X134953943Y-84896000D02*
X161500000Y-84896000D01*
X160500000Y-51500000D02*
X160500000Y-51885443D01*
%TO.N,ADR++ 6*%
X169500000Y-80081786D02*
X169500000Y-61500000D01*
X139667214Y-92000000D02*
X146370214Y-85297000D01*
X170377000Y-60623000D02*
X170377000Y-57262443D01*
X169500000Y-61500000D02*
X170377000Y-60623000D01*
X164284786Y-85297000D02*
X169500000Y-80081786D01*
X132649000Y-92000000D02*
X139667214Y-92000000D01*
X165100000Y-51985443D02*
X165100000Y-51500000D01*
X170377000Y-57262443D02*
X165100000Y-51985443D01*
X146370214Y-85297000D02*
X164284786Y-85297000D01*
%TO.N,ADR++ 7*%
X140600000Y-92000000D02*
X144099000Y-88501000D01*
X171991000Y-53991000D02*
X169500000Y-51500000D01*
X144099000Y-88501000D02*
X157349057Y-88501000D01*
X171991000Y-80307000D02*
X171991000Y-53991000D01*
X166600000Y-85698000D02*
X171991000Y-80307000D01*
X160152057Y-85698000D02*
X166600000Y-85698000D01*
X157349057Y-88501000D02*
X160152057Y-85698000D01*
%TO.N,ADR++ 8*%
X155649943Y-91900000D02*
X161450943Y-86099000D01*
X169217214Y-86099000D02*
X174769000Y-80547214D01*
X173675000Y-51725000D02*
X173800000Y-51600000D01*
X173675000Y-67106000D02*
X173675000Y-51725000D01*
X174769000Y-68200000D02*
X173675000Y-67106000D01*
X174769000Y-80547214D02*
X174769000Y-68200000D01*
X148600000Y-91900000D02*
X155649943Y-91900000D01*
X161450943Y-86099000D02*
X169217214Y-86099000D01*
%TO.N,ADR++ 9*%
X180001000Y-64848943D02*
X180001000Y-52801000D01*
X159905000Y-88595000D02*
X169600000Y-88595000D01*
X179377000Y-52177000D02*
X178700000Y-51500000D01*
X179611000Y-78584000D02*
X179611000Y-65238943D01*
X156500000Y-92000000D02*
X159905000Y-88595000D01*
X180001000Y-52801000D02*
X179377000Y-52177000D01*
X178700000Y-51500000D02*
X178700000Y-51400000D01*
X169600000Y-88595000D02*
X179611000Y-78584000D01*
X179611000Y-65238943D02*
X180001000Y-64848943D01*
%TO.N,ADR++ 10*%
X171500000Y-88996000D02*
X184691000Y-75805000D01*
X183100000Y-53873943D02*
X183100000Y-51500000D01*
X167504000Y-88996000D02*
X171500000Y-88996000D01*
X184691000Y-75805000D02*
X184691000Y-55464943D01*
X184691000Y-55464943D02*
X183100000Y-53873943D01*
X164500000Y-92000000D02*
X167504000Y-88996000D01*
%TO.N,ADR++ 11*%
X190009000Y-75923786D02*
X190009000Y-65091000D01*
X190009000Y-65091000D02*
X193300000Y-61800000D01*
X175100000Y-89500000D02*
X176432786Y-89500000D01*
X193300000Y-61800000D02*
X193300000Y-57800000D01*
X187500000Y-52000000D02*
X187500000Y-51600000D01*
X172500000Y-92100000D02*
X175100000Y-89500000D01*
X176432786Y-89500000D02*
X190009000Y-75923786D01*
X193300000Y-57800000D02*
X187500000Y-52000000D01*
%TO.N,ADR++ 12*%
X194000000Y-64000000D02*
X194000000Y-61700000D01*
X197800000Y-55985557D02*
X193314443Y-51500000D01*
X182600000Y-87500000D02*
X192311000Y-77789000D01*
X180500000Y-92100000D02*
X182600000Y-90000000D01*
X192311000Y-77789000D02*
X192311000Y-65689000D01*
X192311000Y-65689000D02*
X194000000Y-64000000D01*
X193314443Y-51500000D02*
X192100000Y-51500000D01*
X197800000Y-57900000D02*
X197800000Y-55985557D01*
X194000000Y-61700000D02*
X197800000Y-57900000D01*
X182600000Y-90000000D02*
X182600000Y-87500000D01*
%TO.N,ADR++ 13*%
X188600000Y-92000000D02*
X188600000Y-89450057D01*
X194999000Y-73900000D02*
X194999000Y-71099000D01*
X193900000Y-65925943D02*
X202050000Y-57775943D01*
X202050000Y-57775943D02*
X202050000Y-55650000D01*
X193000000Y-85050058D02*
X193000000Y-75899000D01*
X193900000Y-70000000D02*
X193900000Y-65925943D01*
X194999000Y-71099000D02*
X193900000Y-70000000D01*
X197800000Y-51400000D02*
X196700000Y-51400000D01*
X202050000Y-55650000D02*
X197800000Y-51400000D01*
X188600000Y-89450057D02*
X193000000Y-85050058D01*
X193000000Y-75899000D02*
X194999000Y-73900000D01*
%TO.N,ADR++ 14*%
X195400000Y-74100000D02*
X195400000Y-70900000D01*
X195981250Y-86381250D02*
X193401000Y-83801000D01*
X193401000Y-83801000D02*
X193401000Y-76099000D01*
X203900000Y-54949057D02*
X201000000Y-52049057D01*
X194300000Y-67649942D02*
X203900000Y-58049943D01*
X201000000Y-52049057D02*
X201000000Y-51600000D01*
X195981250Y-92418750D02*
X195981250Y-86381250D01*
X203900000Y-58049943D02*
X203900000Y-54949057D01*
X195400000Y-70900000D02*
X194300000Y-69800000D01*
X194300000Y-69800000D02*
X194300000Y-67649942D01*
X193401000Y-76099000D02*
X195400000Y-74100000D01*
%TO.N,ADR++ 15*%
X204500000Y-92100000D02*
X204500000Y-52500000D01*
X204500000Y-52500000D02*
X205400000Y-51600000D01*
%TO.N,TEMP ADR 0*%
X137190557Y-57700000D02*
X138276000Y-57700000D01*
X98120000Y-35400000D02*
X109630500Y-46910500D01*
X109630500Y-46910500D02*
X126401057Y-46910500D01*
X126401057Y-46910500D02*
X137190557Y-57700000D01*
%TO.N,TEMP ADR 1*%
X131576000Y-46500000D02*
X142776000Y-57700000D01*
X114700000Y-46500000D02*
X131576000Y-46500000D01*
X111760000Y-46500000D02*
X114700000Y-46500000D01*
X100660000Y-35400000D02*
X111760000Y-46500000D01*
%TO.N,Read From stored Address*%
X84100000Y-79891968D02*
X84100000Y-48612500D01*
X80745984Y-83245984D02*
X84100000Y-79891968D01*
X84100000Y-48612500D02*
X82999000Y-47511500D01*
%TO.N,TEMP ADR 2*%
X135675000Y-46099000D02*
X147276000Y-57700000D01*
X103200000Y-35755786D02*
X113543214Y-46099000D01*
X116100000Y-46099000D02*
X135675000Y-46099000D01*
X113543214Y-46099000D02*
X116100000Y-46099000D01*
X103200000Y-35400000D02*
X103200000Y-35755786D01*
%TO.N,TEMP ADR 3*%
X116038000Y-45698000D02*
X131100000Y-45698000D01*
X105740000Y-35400000D02*
X116038000Y-45698000D01*
X131100000Y-45698000D02*
X139774000Y-45698000D01*
X139774000Y-45698000D02*
X151776000Y-57700000D01*
%TO.N,TEMP ADR 4*%
X143873000Y-45297000D02*
X156276000Y-57700000D01*
X108280000Y-35400000D02*
X118177000Y-45297000D01*
X118177000Y-45297000D02*
X143873000Y-45297000D01*
%TO.N,TEMP ADR 5*%
X110820000Y-35400000D02*
X110820000Y-37020000D01*
X147972000Y-44896000D02*
X160776000Y-57700000D01*
X118696000Y-44896000D02*
X147972000Y-44896000D01*
X110820000Y-37020000D02*
X118696000Y-44896000D01*
%TO.N,TEMP ADR 6*%
X119095000Y-44495000D02*
X113360000Y-38760000D01*
X165176000Y-57700000D02*
X151971000Y-44495000D01*
X151971000Y-44495000D02*
X119095000Y-44495000D01*
X165276000Y-57700000D02*
X165176000Y-57700000D01*
X113360000Y-38760000D02*
X113360000Y-35400000D01*
%TO.N,TEMP ADR 7*%
X115900000Y-40732900D02*
X119261100Y-44094000D01*
X115900000Y-35400000D02*
X115900000Y-40732900D01*
X156170000Y-44094000D02*
X169776000Y-57700000D01*
X119261100Y-44094000D02*
X156170000Y-44094000D01*
%TO.N,TEMP ADR 8*%
X174900000Y-36400000D02*
X174925000Y-36425000D01*
X174925000Y-36425000D02*
X174925000Y-57051000D01*
X175900000Y-35400000D02*
X174900000Y-36400000D01*
X174925000Y-57051000D02*
X174276000Y-57700000D01*
X175920000Y-35400000D02*
X175900000Y-35400000D01*
%TO.N,TEMP ADR 9*%
X178000000Y-56924000D02*
X178776000Y-57700000D01*
X178460000Y-35400000D02*
X178000000Y-35860000D01*
X178000000Y-35860000D02*
X178000000Y-56924000D01*
%TO.N,TEMP ADR 10*%
X181000000Y-35400000D02*
X181000000Y-55424000D01*
X181000000Y-55424000D02*
X183276000Y-57700000D01*
%TO.N,TEMP ADR 11*%
X184900000Y-54824000D02*
X187776000Y-57700000D01*
X183540000Y-35400000D02*
X184900000Y-36760000D01*
X184900000Y-36760000D02*
X184900000Y-54824000D01*
%TO.N,TEMP ADR 12*%
X186080000Y-51504000D02*
X192276000Y-57700000D01*
X186080000Y-35400000D02*
X186080000Y-51504000D01*
%TO.N,TEMP ADR 13*%
X188402000Y-35618000D02*
X188402000Y-49326000D01*
X188620000Y-35400000D02*
X188402000Y-35618000D01*
X188402000Y-49326000D02*
X196776000Y-57700000D01*
%TO.N,TEMP ADR 14*%
X191160000Y-47584000D02*
X201276000Y-57700000D01*
X191160000Y-35400000D02*
X191160000Y-47584000D01*
%TO.N,TEMP ADR 15*%
X193700000Y-45599000D02*
X193700000Y-35400000D01*
X202987028Y-56511500D02*
X202987028Y-54886028D01*
X202987028Y-54886028D02*
X193700000Y-45599000D01*
%TO.N,TIME STEP 1*%
X74901000Y-149200000D02*
X77100000Y-151399000D01*
X63100000Y-149200000D02*
X74901000Y-149200000D01*
%TO.N,FLAG C*%
X170550000Y-123850000D02*
X151200000Y-104500000D01*
%TO.N,Main bus -> bus out*%
X227900000Y-78900000D02*
X227900000Y-75900000D01*
X185250000Y-121550000D02*
X227900000Y-78900000D01*
X182349000Y-124451000D02*
X185250000Y-121550000D01*
X135151000Y-124451000D02*
X182349000Y-124451000D01*
X131500000Y-120800000D02*
X135151000Y-124451000D01*
%TO.N,Net-(Q1133-G)*%
X300737500Y-136750000D02*
X300737500Y-138950000D01*
X272338500Y-133051000D02*
X297038500Y-133051000D01*
X297038500Y-133051000D02*
X297337500Y-133350000D01*
X297337500Y-133350000D02*
X300737500Y-136750000D01*
X300737500Y-138950000D02*
X300737500Y-156250000D01*
X270937500Y-131650000D02*
X272338500Y-133051000D01*
X300737500Y-156250000D02*
X302137500Y-157650000D01*
%TO.N,Net-(Q1145-G)*%
X300336500Y-156698943D02*
X300336500Y-148049000D01*
X300336500Y-148049000D02*
X297638500Y-145351000D01*
X297638500Y-145351000D02*
X273638500Y-145351000D01*
X273638500Y-145351000D02*
X270937500Y-142650000D01*
X301888557Y-158251000D02*
X300336500Y-156698943D01*
X306337500Y-158050000D02*
X306337500Y-158150000D01*
X306236500Y-158251000D02*
X301888557Y-158251000D01*
X306337500Y-158150000D02*
X306236500Y-158251000D01*
%TO.N,Net-(Q1157-G)*%
X273638500Y-156351000D02*
X299421457Y-156351000D01*
X299421457Y-156351000D02*
X300878979Y-157808522D01*
X300878979Y-157808522D02*
X301722457Y-158652000D01*
X303137500Y-158652000D02*
X310235500Y-158652000D01*
X310235500Y-158652000D02*
X310437500Y-158450000D01*
X270937500Y-153650000D02*
X273638500Y-156351000D01*
X301722457Y-158652000D02*
X303137500Y-158652000D01*
%TO.N,Net-(Q1169-G)*%
X314434500Y-159053000D02*
X298934500Y-159053000D01*
X298934500Y-159053000D02*
X297038500Y-160949000D01*
X314637500Y-158850000D02*
X314434500Y-159053000D01*
X297038500Y-160949000D02*
X274638500Y-160949000D01*
X274638500Y-160949000D02*
X270937500Y-164650000D01*
%TO.N,Net-(Q1014-S)*%
X297236500Y-171751000D02*
X299037500Y-169950000D01*
X301033500Y-159454000D02*
X301137500Y-159454000D01*
X299037500Y-169950000D02*
X299037500Y-161450000D01*
X301137500Y-159454000D02*
X318633500Y-159454000D01*
X299037500Y-161450000D02*
X301033500Y-159454000D01*
X274836500Y-171751000D02*
X297236500Y-171751000D01*
X318633500Y-159454000D02*
X318837500Y-159250000D01*
X270937500Y-175650000D02*
X274836500Y-171751000D01*
%TO.N,Net-(Q1036-S)*%
X294338500Y-182949000D02*
X299735500Y-177552000D01*
X270937500Y-186650000D02*
X274638500Y-182949000D01*
X274638500Y-182949000D02*
X294338500Y-182949000D01*
X299735500Y-161319100D02*
X301199600Y-159855000D01*
X299735500Y-177552000D02*
X299735500Y-161319100D01*
X301199600Y-159855000D02*
X322832500Y-159855000D01*
X322832500Y-159855000D02*
X323037500Y-159650000D01*
%TO.N,Net-(Q1063-S)*%
X300136500Y-185183900D02*
X301536500Y-183783900D01*
X297037500Y-196050000D02*
X300136500Y-192951000D01*
X301536500Y-181550000D02*
X300136500Y-180150000D01*
X270937500Y-197650000D02*
X272537500Y-196050000D01*
X301536500Y-183783900D02*
X301536500Y-181550000D01*
X300136500Y-161485200D02*
X301365700Y-160256000D01*
X272537500Y-196050000D02*
X297037500Y-196050000D01*
X300136500Y-192951000D02*
X300136500Y-185183900D01*
X327031500Y-160256000D02*
X327237500Y-160050000D01*
X301365700Y-160256000D02*
X327031500Y-160256000D01*
X300136500Y-180150000D02*
X300136500Y-161485200D01*
%TO.N,Net-(Q1091-S)*%
X272836500Y-206751000D02*
X297036500Y-206751000D01*
X301937500Y-183950000D02*
X301937500Y-181150000D01*
X331230500Y-160657000D02*
X331437500Y-160450000D01*
X297036500Y-206751000D02*
X300537500Y-203250000D01*
X300537500Y-179750000D02*
X300537500Y-161651300D01*
X301937500Y-181150000D02*
X300537500Y-179750000D01*
X270937500Y-208650000D02*
X272836500Y-206751000D01*
X300537500Y-185350000D02*
X301937500Y-183950000D01*
X300537500Y-203250000D02*
X300537500Y-185350000D01*
X301531800Y-160657000D02*
X331230500Y-160657000D01*
X300537500Y-161651300D02*
X301531800Y-160657000D01*
%TO.N,Net-(J21-Pin_17)*%
X253697500Y-69937500D02*
X250650000Y-69937500D01*
X259500000Y-75740000D02*
X253697500Y-69937500D01*
X259500000Y-75740000D02*
X268002500Y-67237500D01*
X268002500Y-67237500D02*
X268350000Y-67237500D01*
%TO.N,Net-(J21-Pin_21)*%
X262862500Y-82537500D02*
X268350000Y-82537500D01*
X258237500Y-84637500D02*
X250550000Y-84637500D01*
X259500000Y-85900000D02*
X262862500Y-82537500D01*
X259500000Y-85900000D02*
X258237500Y-84637500D01*
%TO.N,Net-(J21-Pin_14)*%
X250550000Y-59170000D02*
X250550000Y-58337500D01*
X264550000Y-63070000D02*
X264550000Y-59537500D01*
X264550000Y-59537500D02*
X268250000Y-55837500D01*
X259500000Y-68120000D02*
X264550000Y-63070000D01*
X268250000Y-55837500D02*
X268350000Y-55837500D01*
X259500000Y-68120000D02*
X250550000Y-59170000D01*
%TO.N,Net-(J21-Pin_19)*%
X265482500Y-74837500D02*
X268250000Y-74837500D01*
X255917500Y-77237500D02*
X250550000Y-77237500D01*
X259500000Y-80820000D02*
X255917500Y-77237500D01*
X259500000Y-80820000D02*
X265482500Y-74837500D01*
%TO.N,Net-(J21-Pin_15)*%
X259500000Y-70660000D02*
X251177500Y-62337500D01*
X251177500Y-62337500D02*
X250650000Y-62337500D01*
X268350000Y-61810000D02*
X268350000Y-59637500D01*
X259500000Y-70660000D02*
X268350000Y-61810000D01*
%TO.N,Net-(J21-Pin_20)*%
X259500000Y-83360000D02*
X264222500Y-78637500D01*
X251810000Y-81037500D02*
X252470000Y-80377500D01*
X250650000Y-81037500D02*
X251810000Y-81037500D01*
X252470000Y-80377500D02*
X256517500Y-80377500D01*
X256517500Y-80377500D02*
X259500000Y-83360000D01*
X264222500Y-78637500D02*
X268250000Y-78637500D01*
%TO.N,Net-(J21-Pin_16)*%
X268350000Y-64350000D02*
X268350000Y-63337500D01*
X259500000Y-73200000D02*
X252737500Y-66437500D01*
X252737500Y-66437500D02*
X250450000Y-66437500D01*
X259500000Y-73200000D02*
X268350000Y-64350000D01*
%TO.N,Net-(J21-Pin_18)*%
X259500000Y-78280000D02*
X266642500Y-71137500D01*
X259500000Y-78280000D02*
X254757500Y-73537500D01*
X254757500Y-73537500D02*
X250650000Y-73537500D01*
X266642500Y-71137500D02*
X268250000Y-71137500D01*
%TO.N,Net-(J22-Pin_20)*%
X291500000Y-83360000D02*
X288826500Y-80686500D01*
X288826500Y-80686500D02*
X282901000Y-80686500D01*
X291500000Y-83360000D02*
X296222500Y-78637500D01*
X296222500Y-78637500D02*
X300350000Y-78637500D01*
X282901000Y-80686500D02*
X282650000Y-80937500D01*
%TO.N,Net-(J22-Pin_16)*%
X291500000Y-73200000D02*
X300350000Y-64350000D01*
X300350000Y-64350000D02*
X300350000Y-63537500D01*
X284037500Y-65737500D02*
X282750000Y-65737500D01*
X291500000Y-73200000D02*
X284037500Y-65737500D01*
%TO.N,Net-(J22-Pin_14)*%
X291500000Y-67287500D02*
X300450000Y-58337500D01*
X291500000Y-68120000D02*
X291500000Y-67287500D01*
X282650000Y-59270000D02*
X282650000Y-58237500D01*
X291500000Y-68120000D02*
X282650000Y-59270000D01*
X300450000Y-58337500D02*
X300450000Y-55837500D01*
%TO.N,Net-(J22-Pin_19)*%
X291500000Y-80820000D02*
X297382500Y-74937500D01*
X297382500Y-74937500D02*
X300250000Y-74937500D01*
X287817500Y-77137500D02*
X282550000Y-77137500D01*
X291500000Y-80820000D02*
X287817500Y-77137500D01*
%TO.N,Net-(J22-Pin_15)*%
X300450000Y-61710000D02*
X300450000Y-59737500D01*
X291500000Y-70660000D02*
X300450000Y-61710000D01*
X291500000Y-70660000D02*
X282776500Y-61936500D01*
X282776500Y-61936500D02*
X282650000Y-61936500D01*
%TO.N,Net-(J22-Pin_17)*%
X291500000Y-75740000D02*
X285397500Y-69637500D01*
X299902500Y-67337500D02*
X300350000Y-67337500D01*
X291500000Y-75740000D02*
X299902500Y-67337500D01*
X285397500Y-69637500D02*
X282550000Y-69637500D01*
%TO.N,Net-(J22-Pin_18)*%
X286557500Y-73337500D02*
X282650000Y-73337500D01*
X291500000Y-78280000D02*
X298642500Y-71137500D01*
X291500000Y-78280000D02*
X286557500Y-73337500D01*
X298642500Y-71137500D02*
X300250000Y-71137500D01*
%TO.N,Net-(J22-Pin_21)*%
X291500000Y-85900000D02*
X294962500Y-82437500D01*
X294962500Y-82437500D02*
X300350000Y-82437500D01*
X291500000Y-85900000D02*
X290437500Y-84837500D01*
X290437500Y-84837500D02*
X282650000Y-84837500D01*
%TO.N,Net-(J23-Pin_17)*%
X317397500Y-69637500D02*
X314750000Y-69637500D01*
X323500000Y-75740000D02*
X332002500Y-67237500D01*
X323500000Y-75740000D02*
X317397500Y-69637500D01*
X332002500Y-67237500D02*
X332350000Y-67237500D01*
%TO.N,Net-(J23-Pin_15)*%
X323500000Y-70660000D02*
X332550000Y-61610000D01*
X323500000Y-70660000D02*
X314777500Y-61937500D01*
X332550000Y-61610000D02*
X332550000Y-59637500D01*
X314777500Y-61937500D02*
X314650000Y-61937500D01*
%TO.N,Net-(J23-Pin_21)*%
X323500000Y-85900000D02*
X326862500Y-82537500D01*
X322337500Y-84737500D02*
X314650000Y-84737500D01*
X326862500Y-82537500D02*
X332350000Y-82537500D01*
X323500000Y-85900000D02*
X322337500Y-84737500D01*
%TO.N,Net-(J23-Pin_18)*%
X318657500Y-73437500D02*
X314750000Y-73437500D01*
X330642500Y-71137500D02*
X332350000Y-71137500D01*
X323500000Y-78280000D02*
X318657500Y-73437500D01*
X323500000Y-78280000D02*
X330642500Y-71137500D01*
%TO.N,Net-(J23-Pin_14)*%
X314650000Y-59270000D02*
X314650000Y-58237500D01*
X323500000Y-68120000D02*
X328400000Y-63220000D01*
X328400000Y-59687500D02*
X332350000Y-55737500D01*
X328400000Y-63220000D02*
X328400000Y-59687500D01*
X323500000Y-68120000D02*
X314650000Y-59270000D01*
%TO.N,Net-(J23-Pin_19)*%
X323500000Y-80820000D02*
X319917500Y-77237500D01*
X329482500Y-74837500D02*
X332250000Y-74837500D01*
X319917500Y-77237500D02*
X314650000Y-77237500D01*
X323500000Y-80820000D02*
X329482500Y-74837500D01*
%TO.N,Net-(J23-Pin_16)*%
X332450000Y-64250000D02*
X332450000Y-63437500D01*
X316037500Y-65737500D02*
X314550000Y-65737500D01*
X323500000Y-73200000D02*
X316037500Y-65737500D01*
X323500000Y-73200000D02*
X332450000Y-64250000D01*
%TO.N,Net-(J23-Pin_20)*%
X328222500Y-78637500D02*
X332450000Y-78637500D01*
X323500000Y-83360000D02*
X328222500Y-78637500D01*
X323500000Y-83360000D02*
X317072500Y-83360000D01*
X317072500Y-83360000D02*
X314650000Y-80937500D01*
%TO.N,Net-(J24-Pin_16)*%
X364350000Y-64350000D02*
X364350000Y-63437500D01*
X348137500Y-65837500D02*
X346750000Y-65837500D01*
X355500000Y-73200000D02*
X348137500Y-65837500D01*
X355500000Y-73200000D02*
X364350000Y-64350000D01*
%TO.N,Net-(J24-Pin_18)*%
X355500000Y-78280000D02*
X362742500Y-71037500D01*
X362742500Y-71037500D02*
X364250000Y-71037500D01*
X350657500Y-73437500D02*
X346650000Y-73437500D01*
X355500000Y-78280000D02*
X350657500Y-73437500D01*
%TO.N,Net-(J24-Pin_20)*%
X360422500Y-78437500D02*
X364350000Y-78437500D01*
X355500000Y-83360000D02*
X360422500Y-78437500D01*
X349172500Y-83360000D02*
X346750000Y-80937500D01*
X355500000Y-83360000D02*
X349172500Y-83360000D01*
%TO.N,Net-(J24-Pin_21)*%
X355500000Y-85900000D02*
X359062500Y-82337500D01*
X355500000Y-85900000D02*
X354437500Y-84837500D01*
X354437500Y-84837500D02*
X346550000Y-84837500D01*
X359062500Y-82337500D02*
X364250000Y-82337500D01*
%TO.N,Net-(J24-Pin_15)*%
X364616443Y-61543557D02*
X364616443Y-59852087D01*
X346977500Y-62137500D02*
X346650000Y-62137500D01*
X355500000Y-70660000D02*
X364616443Y-61543557D01*
X355500000Y-70660000D02*
X346977500Y-62137500D01*
%TO.N,Net-(J24-Pin_17)*%
X364002500Y-67237500D02*
X364350000Y-67237500D01*
X355500000Y-75740000D02*
X349497500Y-69737500D01*
X355500000Y-75740000D02*
X364002500Y-67237500D01*
X349497500Y-69737500D02*
X346750000Y-69737500D01*
%TO.N,Net-(J24-Pin_19)*%
X352017500Y-77337500D02*
X346750000Y-77337500D01*
X355500000Y-80820000D02*
X352017500Y-77337500D01*
X355500000Y-80820000D02*
X361582500Y-74737500D01*
X361582500Y-74737500D02*
X364350000Y-74737500D01*
%TO.N,Net-(J24-Pin_14)*%
X355500000Y-68120000D02*
X346650000Y-59270000D01*
X346650000Y-59270000D02*
X346650000Y-58337500D01*
X355500000Y-68120000D02*
X364350000Y-59270000D01*
X364350000Y-59270000D02*
X364350000Y-55937500D01*
%TO.N,Net-(Q636-G)*%
X269440625Y-91346875D02*
X267450000Y-93337500D01*
X267450000Y-93337500D02*
X247250000Y-93337500D01*
X245650000Y-91737500D02*
X245650000Y-56937500D01*
X247250000Y-93337500D02*
X245650000Y-91737500D01*
X245650000Y-56937500D02*
X245550000Y-56837500D01*
%TO.N,Net-(Q637-G)*%
X245249000Y-91903600D02*
X245249000Y-61036500D01*
X265600000Y-93938500D02*
X262550000Y-93938500D01*
X245249000Y-61036500D02*
X245050000Y-60837500D01*
X262549000Y-93937500D02*
X247282900Y-93937500D01*
X262550000Y-93938500D02*
X262549000Y-93937500D01*
X247282900Y-93937500D02*
X245249000Y-91903600D01*
%TO.N,Net-(Q638-G)*%
X261750000Y-94538500D02*
X258850000Y-94538500D01*
X247314800Y-94536500D02*
X244848000Y-92069700D01*
X258848000Y-94536500D02*
X247314800Y-94536500D01*
X258850000Y-94538500D02*
X258848000Y-94536500D01*
X244848000Y-64836500D02*
X244649000Y-64637500D01*
X244848000Y-92069700D02*
X244848000Y-64836500D01*
%TO.N,Net-(Q639-G)*%
X247282900Y-95137500D02*
X244447000Y-92301600D01*
X244447000Y-92301600D02*
X244447000Y-68536500D01*
X257849000Y-95137500D02*
X247282900Y-95137500D01*
X257850000Y-95138500D02*
X257849000Y-95137500D01*
X244447000Y-68536500D02*
X244248000Y-68337500D01*
%TO.N,Net-(Q640-G)*%
X244046000Y-92467700D02*
X244046000Y-72336500D01*
X254100000Y-95837500D02*
X247415800Y-95837500D01*
X247415800Y-95837500D02*
X244046000Y-92467700D01*
X244046000Y-72336500D02*
X243847000Y-72137500D01*
%TO.N,Net-(Q641-G)*%
X243645000Y-92832500D02*
X243645000Y-76136500D01*
X250350000Y-96437500D02*
X250250000Y-96337500D01*
X243645000Y-76136500D02*
X243446000Y-75937500D01*
X247150000Y-96337500D02*
X243645000Y-92832500D01*
X250250000Y-96337500D02*
X247150000Y-96337500D01*
%TO.N,Net-(Q642-G)*%
X243244000Y-80130500D02*
X243244000Y-93331500D01*
X243045000Y-79931500D02*
X243244000Y-80130500D01*
X243244000Y-93331500D02*
X246850000Y-96937500D01*
%TO.N,Net-(Q643-G)*%
X242644000Y-83731500D02*
X242644000Y-83600000D01*
X242700000Y-97575000D02*
X242843000Y-97432000D01*
X242843000Y-97432000D02*
X242843000Y-83930500D01*
X242843000Y-83930500D02*
X242644000Y-83731500D01*
%TO.N,Net-(Q1453-D)*%
X278250000Y-96537500D02*
X278150000Y-96537500D01*
X308756000Y-95343500D02*
X308756000Y-63676400D01*
X276756000Y-63676400D02*
X276650000Y-63570400D01*
X276650000Y-60237500D02*
X273450000Y-57037500D01*
X340756000Y-63676400D02*
X340650000Y-63570400D01*
X308650000Y-60237500D02*
X305450000Y-57037500D01*
X276650000Y-63570400D02*
X276650000Y-60237500D01*
X276756000Y-95143500D02*
X276756000Y-63676400D01*
X308756000Y-63676400D02*
X308650000Y-63570400D01*
X340650000Y-63570400D02*
X340650000Y-60237500D01*
X308650000Y-63570400D02*
X308650000Y-60237500D01*
X309950000Y-96537500D02*
X308756000Y-95343500D01*
X340650000Y-60237500D02*
X337450000Y-57037500D01*
X340756000Y-95343500D02*
X340756000Y-63676400D01*
X341950000Y-96537500D02*
X340756000Y-95343500D01*
X278150000Y-96537500D02*
X276756000Y-95143500D01*
%TO.N,Net-(Q1452-D)*%
X276355000Y-96592443D02*
X276935375Y-97172818D01*
X309250000Y-97172818D02*
X308355000Y-96277818D01*
X341250000Y-97172818D02*
X340355000Y-96277818D01*
X340355000Y-96277818D02*
X340355000Y-63842500D01*
X276355000Y-63842500D02*
X276355000Y-96592443D01*
X308355000Y-96277818D02*
X308355000Y-63842500D01*
X308355000Y-63842500D02*
X305450000Y-60937500D01*
X309450000Y-97172818D02*
X309250000Y-97172818D01*
X276935375Y-97172818D02*
X282050000Y-97172818D01*
X273450000Y-60937500D02*
X276355000Y-63842500D01*
X340355000Y-63842500D02*
X337450000Y-60937500D01*
%TO.N,Net-(Q1451-D)*%
X307954000Y-96941500D02*
X307954000Y-67241500D01*
X273450000Y-64737500D02*
X275954000Y-67241500D01*
X340950000Y-97937500D02*
X339954000Y-96941500D01*
X307954000Y-67241500D02*
X305450000Y-64737500D01*
X275954000Y-67241500D02*
X275954000Y-96758543D01*
X277132957Y-97937500D02*
X285850000Y-97937500D01*
X339954000Y-96941500D02*
X339954000Y-67241500D01*
X339954000Y-67241500D02*
X337450000Y-64737500D01*
X308950000Y-97937500D02*
X307954000Y-96941500D01*
X275954000Y-96758543D02*
X277132957Y-97937500D01*
%TO.N,Net-(Q1450-D)*%
X273450000Y-68537500D02*
X275553000Y-70640500D01*
X339553000Y-70640500D02*
X337450000Y-68537500D01*
X339553000Y-97840500D02*
X339553000Y-70640500D01*
X308350000Y-98637500D02*
X307553000Y-97840500D01*
X275553000Y-96924643D02*
X277265857Y-98637500D01*
X277265857Y-98637500D02*
X289650000Y-98637500D01*
X307553000Y-70640500D02*
X305450000Y-68537500D01*
X340350000Y-98637500D02*
X339553000Y-97840500D01*
X275553000Y-70640500D02*
X275553000Y-96924643D01*
X307553000Y-97840500D02*
X307553000Y-70640500D01*
%TO.N,Net-(Q1449-D)*%
X307152000Y-74039500D02*
X305450000Y-72337500D01*
X275152000Y-97090743D02*
X277398757Y-99337500D01*
X339750000Y-99337500D02*
X339152000Y-98739500D01*
X307750000Y-99337500D02*
X307152000Y-98739500D01*
X275152000Y-74039500D02*
X275152000Y-97090743D01*
X307152000Y-98739500D02*
X307152000Y-74039500D01*
X339152000Y-98739500D02*
X339152000Y-74039500D01*
X339152000Y-74039500D02*
X337450000Y-72337500D01*
X273450000Y-72337500D02*
X275152000Y-74039500D01*
X277398757Y-99337500D02*
X293450000Y-99337500D01*
%TO.N,Net-(Q651-G)*%
X273450000Y-76137500D02*
X274751000Y-77438500D01*
X306751000Y-77438500D02*
X305450000Y-76137500D01*
X274751000Y-97256843D02*
X277531657Y-100037500D01*
X307150000Y-100037500D02*
X306751000Y-99638500D01*
X277531657Y-100037500D02*
X297250000Y-100037500D01*
X338751000Y-77438500D02*
X337450000Y-76137500D01*
X339150000Y-100037500D02*
X338751000Y-99638500D01*
X274751000Y-77438500D02*
X274751000Y-97256843D01*
X306751000Y-99638500D02*
X306751000Y-77438500D01*
X338751000Y-99638500D02*
X338751000Y-77438500D01*
%TO.N,Net-(Q652-G)*%
X277699875Y-100772818D02*
X274350000Y-97422943D01*
X337450000Y-79937500D02*
X338350000Y-80837500D01*
X306350000Y-100672818D02*
X306450000Y-100772818D01*
X306350000Y-100437500D02*
X306350000Y-100672818D01*
X301050000Y-100772818D02*
X277699875Y-100772818D01*
X306350000Y-80837500D02*
X306350000Y-100437500D01*
X305450000Y-79937500D02*
X306350000Y-80837500D01*
X274350000Y-80837500D02*
X273450000Y-79937500D01*
X306350000Y-100437500D02*
X306350000Y-100737500D01*
X274350000Y-97422943D02*
X274350000Y-80837500D01*
X338350000Y-100437500D02*
X338350000Y-100672818D01*
X338350000Y-80837500D02*
X338350000Y-100437500D01*
%TO.N,Net-(Q653-G)*%
X337850000Y-100437500D02*
X337850000Y-84137500D01*
X305850000Y-100437500D02*
X305850000Y-84137500D01*
X273850000Y-97490043D02*
X273850000Y-84137500D01*
X304850000Y-101437500D02*
X277797457Y-101437500D01*
X337550000Y-100737500D02*
X337850000Y-100437500D01*
X337850000Y-84137500D02*
X337450000Y-83737500D01*
X277797457Y-101437500D02*
X273850000Y-97490043D01*
X337550000Y-101437500D02*
X337550000Y-100737500D01*
X305850000Y-84137500D02*
X305450000Y-83737500D01*
X273850000Y-84137500D02*
X273450000Y-83737500D01*
X304850000Y-101437500D02*
X305850000Y-100437500D01*
%TD*%
M02*
