%TF.GenerationSoftware,KiCad,Pcbnew,9.0.7*%
%TF.CreationDate,2026-03-31T13:30:00+02:00*%
%TF.ProjectId,Whole_CPU_V1.0,57686f6c-655f-4435-9055-5f56312e302e,rev?*%
%TF.SameCoordinates,Original*%
%TF.FileFunction,Copper,L2,Inr*%
%TF.FilePolarity,Positive*%
%FSLAX46Y46*%
G04 Gerber Fmt 4.6, Leading zero omitted, Abs format (unit mm)*
G04 Created by KiCad (PCBNEW 9.0.7) date 2026-03-31 13:30:00*
%MOMM*%
%LPD*%
G01*
G04 APERTURE LIST*
%TA.AperFunction,ComponentPad*%
%ADD10R,1.700000X1.700000*%
%TD*%
%TA.AperFunction,ComponentPad*%
%ADD11C,1.700000*%
%TD*%
%TA.AperFunction,ViaPad*%
%ADD12C,0.600000*%
%TD*%
%TA.AperFunction,ViaPad*%
%ADD13C,1.000000*%
%TD*%
%TA.AperFunction,Conductor*%
%ADD14C,0.200000*%
%TD*%
%TA.AperFunction,Conductor*%
%ADD15C,0.400000*%
%TD*%
%TA.AperFunction,Conductor*%
%ADD16C,0.250000*%
%TD*%
G04 APERTURE END LIST*
D10*
%TO.N,Faling Edge*%
%TO.C,J7*%
X59900000Y-98400000D03*
%TD*%
%TO.N,VCC*%
%TO.C,J6*%
X65080000Y-106900000D03*
D11*
%TO.N,GND*%
X67620000Y-106900000D03*
%TO.N,rst*%
X70160000Y-106900000D03*
%TO.N,VCC*%
X72700000Y-106900000D03*
%TO.N,Rising Edge*%
X75240000Y-106900000D03*
%TO.N,TIME STEP IN 0*%
X77780000Y-106900000D03*
%TO.N,TIME STEP IN 1*%
X80320000Y-106900000D03*
%TO.N,TIME STEP IN 2*%
X82860000Y-106900000D03*
%TO.N,FLAG STORE N*%
X85400000Y-106900000D03*
%TO.N,FLAG STORE Z*%
X87940000Y-106900000D03*
%TO.N,FLAG STORE U*%
X90480000Y-106900000D03*
%TO.N,FLAG STORE O*%
X93020000Y-106900000D03*
%TO.N,FLAG STORE C*%
X95560000Y-106900000D03*
%TO.N,TIME STEP 0*%
X98100000Y-106900000D03*
%TO.N,TIME STEP 1*%
X100640000Y-106900000D03*
%TO.N,TIME STEP 2*%
X103180000Y-106900000D03*
%TO.N,FLAG N*%
X105720000Y-106900000D03*
%TO.N,FLAG Z*%
X108260000Y-106900000D03*
%TO.N,FLAG U*%
X110800000Y-106900000D03*
%TO.N,FLAG O*%
X113340000Y-106900000D03*
%TO.N,FLAG C*%
X115880000Y-106900000D03*
%TD*%
D10*
%TO.N,VCC*%
%TO.C,J24*%
X355500000Y-35100000D03*
D11*
%TO.N,GND*%
X355500000Y-37640000D03*
%TO.N,rst*%
X355500000Y-40180000D03*
%TO.N,READ D*%
X355500000Y-42720000D03*
%TO.N,Rising Edge*%
X355500000Y-45260000D03*
%TO.N,Main bus 0*%
X355500000Y-47800000D03*
%TO.N,Main bus 1*%
X355500000Y-50340000D03*
%TO.N,Main bus 2*%
X355500000Y-52880000D03*
%TO.N,Main bus 3*%
X355500000Y-55420000D03*
%TO.N,Main bus 4*%
X355500000Y-57960000D03*
%TO.N,Main bus 5*%
X355500000Y-60500000D03*
%TO.N,Main bus 6*%
X355500000Y-63040000D03*
%TO.N,ALU FLAG N*%
X355500000Y-65580000D03*
%TO.N,Net-(J24-Pin_14)*%
X355500000Y-68120000D03*
%TO.N,Net-(J24-Pin_15)*%
X355500000Y-70660000D03*
%TO.N,Net-(J24-Pin_16)*%
X355500000Y-73200000D03*
%TO.N,Net-(J24-Pin_17)*%
X355500000Y-75740000D03*
%TO.N,Net-(J24-Pin_18)*%
X355500000Y-78280000D03*
%TO.N,Net-(J24-Pin_19)*%
X355500000Y-80820000D03*
%TO.N,Net-(J24-Pin_20)*%
X355500000Y-83360000D03*
%TO.N,Net-(J24-Pin_21)*%
X355500000Y-85900000D03*
%TD*%
D10*
%TO.N,VCC*%
%TO.C,J5*%
X142900000Y-35400000D03*
D11*
%TO.N,GND*%
X145440000Y-35400000D03*
%TO.N,rst*%
X147980000Y-35400000D03*
%TO.N,TIME STEP 0*%
X150520000Y-35400000D03*
%TO.N,Faling Edge*%
X153060000Y-35400000D03*
%TO.N,Buss0*%
X155600000Y-35400000D03*
%TO.N,Buss1*%
X158140000Y-35400000D03*
%TO.N,Buss2*%
X160680000Y-35400000D03*
%TO.N,Buss3*%
X163220000Y-35400000D03*
%TO.N,Buss4*%
X165760000Y-35400000D03*
%TO.N,Buss5*%
X168300000Y-35400000D03*
%TO.N,Buss6*%
X170840000Y-35400000D03*
%TO.N,Buss7*%
X173380000Y-35400000D03*
%TO.N,TEMP ADR 8*%
X175920000Y-35400000D03*
%TO.N,TEMP ADR 9*%
X178460000Y-35400000D03*
%TO.N,TEMP ADR 10*%
X181000000Y-35400000D03*
%TO.N,TEMP ADR 11*%
X183540000Y-35400000D03*
%TO.N,TEMP ADR 12*%
X186080000Y-35400000D03*
%TO.N,TEMP ADR 13*%
X188620000Y-35400000D03*
%TO.N,TEMP ADR 14*%
X191160000Y-35400000D03*
%TO.N,TEMP ADR 15*%
X193700000Y-35400000D03*
%TD*%
D10*
%TO.N,ADR 7*%
%TO.C,J11*%
X29400000Y-25620000D03*
D11*
%TO.N,ADR 15*%
X26860000Y-25620000D03*
%TO.N,ADR 6*%
X29400000Y-28160000D03*
%TO.N,ADR 14*%
X26860000Y-28160000D03*
%TO.N,ADR 5*%
X29400000Y-30700000D03*
%TO.N,ADR 13*%
X26860000Y-30700000D03*
%TO.N,ADR 4*%
X29400000Y-33240000D03*
%TO.N,ADR 12*%
X26860000Y-33240000D03*
%TO.N,ADR 3*%
X29400000Y-35780000D03*
%TO.N,ADR 11*%
X26860000Y-35780000D03*
%TO.N,ADR 2*%
X29400000Y-38320000D03*
%TO.N,ADR 10*%
X26860000Y-38320000D03*
%TO.N,ADR 1*%
X29400000Y-40860000D03*
%TO.N,ADR 9*%
X26860000Y-40860000D03*
%TO.N,ADR 0*%
X29400000Y-43400000D03*
%TO.N,ADR 8*%
X26860000Y-43400000D03*
%TD*%
D10*
%TO.N,VCC*%
%TO.C,J27*%
X233960000Y-210000000D03*
D11*
%TO.N,GND*%
X236500000Y-210000000D03*
%TD*%
D10*
%TO.N,VCC*%
%TO.C,J4*%
X65100000Y-35400000D03*
D11*
%TO.N,GND*%
X67640000Y-35400000D03*
%TO.N,rst*%
X70180000Y-35400000D03*
%TO.N,TIME STEP 1*%
X72720000Y-35400000D03*
%TO.N,Faling Edge*%
X75260000Y-35400000D03*
%TO.N,Buss0*%
X77800000Y-35400000D03*
%TO.N,Buss1*%
X80340000Y-35400000D03*
%TO.N,Buss2*%
X82880000Y-35400000D03*
%TO.N,Buss3*%
X85420000Y-35400000D03*
%TO.N,Buss4*%
X87960000Y-35400000D03*
%TO.N,Buss5*%
X90500000Y-35400000D03*
%TO.N,Buss6*%
X93040000Y-35400000D03*
%TO.N,Buss7*%
X95580000Y-35400000D03*
%TO.N,TEMP ADR 0*%
X98120000Y-35400000D03*
%TO.N,TEMP ADR 1*%
X100660000Y-35400000D03*
%TO.N,TEMP ADR 2*%
X103200000Y-35400000D03*
%TO.N,TEMP ADR 3*%
X105740000Y-35400000D03*
%TO.N,TEMP ADR 4*%
X108280000Y-35400000D03*
%TO.N,TEMP ADR 5*%
X110820000Y-35400000D03*
%TO.N,TEMP ADR 6*%
X113360000Y-35400000D03*
%TO.N,TEMP ADR 7*%
X115900000Y-35400000D03*
%TD*%
D10*
%TO.N,VCC*%
%TO.C,J19*%
X232000000Y-105200000D03*
D11*
%TO.N,GND*%
X234540000Y-105200000D03*
%TD*%
D10*
%TO.N,VCC*%
%TO.C,J28*%
X249715000Y-171925000D03*
D11*
%TO.N,GND*%
X249715000Y-169385000D03*
%TD*%
D10*
%TO.N,Buss0*%
%TO.C,J10*%
X29340000Y-120800000D03*
D11*
%TO.N,VCC*%
X26800000Y-120800000D03*
%TO.N,Buss1*%
X29340000Y-123340000D03*
%TO.N,GND*%
X26800000Y-123340000D03*
%TO.N,Buss2*%
X29340000Y-125880000D03*
%TO.N,CLOCK*%
X26800000Y-125880000D03*
%TO.N,Buss3*%
X29340000Y-128420000D03*
%TO.N,rst*%
X26800000Y-128420000D03*
%TO.N,Buss4*%
X29340000Y-130960000D03*
%TO.N,GND*%
X26800000Y-130960000D03*
%TO.N,Buss5*%
X29340000Y-133500000D03*
%TO.N,R{slash}W out*%
X26800000Y-133500000D03*
%TO.N,Buss6*%
X29340000Y-136040000D03*
%TO.N,GND*%
X26800000Y-136040000D03*
%TO.N,Buss7*%
X29340000Y-138580000D03*
%TO.N,VCC*%
X26800000Y-138580000D03*
%TD*%
D10*
%TO.N,VCC*%
%TO.C,J1*%
X39000000Y-194600000D03*
D11*
%TO.N,GND*%
X39000000Y-192060000D03*
%TO.N,rst*%
X39000000Y-189520000D03*
%TO.N,Read New Instruction*%
X39000000Y-186980000D03*
%TO.N,Faling Edge*%
X39000000Y-184440000D03*
%TO.N,Buss0*%
X39000000Y-181900000D03*
%TO.N,Buss1*%
X39000000Y-179360000D03*
%TO.N,Buss2*%
X39000000Y-176820000D03*
%TO.N,Buss3*%
X39000000Y-174280000D03*
%TO.N,Buss4*%
X39000000Y-171740000D03*
%TO.N,Buss5*%
X39000000Y-169200000D03*
%TO.N,Buss6*%
X39000000Y-166660000D03*
%TO.N,Buss7*%
X39000000Y-164120000D03*
%TO.N,Net-(J1-Pin_14)*%
X39000000Y-161580000D03*
%TO.N,Net-(J1-Pin_15)*%
X39000000Y-159040000D03*
%TO.N,Net-(J1-Pin_16)*%
X39000000Y-156500000D03*
%TO.N,Net-(J1-Pin_17)*%
X39000000Y-153960000D03*
%TO.N,Net-(J1-Pin_18)*%
X39000000Y-151420000D03*
%TO.N,Net-(J1-Pin_19)*%
X39000000Y-148880000D03*
%TO.N,Net-(J1-Pin_20)*%
X39000000Y-146340000D03*
%TO.N,Net-(J1-Pin_21)*%
X39000000Y-143800000D03*
%TD*%
D10*
%TO.N,VCC*%
%TO.C,J18*%
X302525000Y-25800000D03*
D11*
%TO.N,GND*%
X305065000Y-25800000D03*
%TD*%
D10*
%TO.N,VCC*%
%TO.C,J17*%
X350800000Y-114300000D03*
D11*
%TO.N,GND*%
X350800000Y-111760000D03*
%TD*%
D10*
%TO.N,VCC*%
%TO.C,J3*%
X142900000Y-73000000D03*
D11*
%TO.N,GND*%
X145440000Y-73000000D03*
%TO.N,rst*%
X147980000Y-73000000D03*
%TO.N,VCC*%
X150520000Y-73000000D03*
%TO.N,Rising Edge*%
X153060000Y-73000000D03*
%TO.N,NEXT ADR 8*%
X155600000Y-73000000D03*
%TO.N,NEXT ADR 9*%
X158140000Y-73000000D03*
%TO.N,NEXT ADR 10*%
X160680000Y-73000000D03*
%TO.N,NEXT ADR 11*%
X163220000Y-73000000D03*
%TO.N,NEXT ADR 12*%
X165760000Y-73000000D03*
%TO.N,NEXT ADR 13*%
X168300000Y-73000000D03*
%TO.N,NEXT ADR 14*%
X170840000Y-73000000D03*
%TO.N,NEXT ADR 15*%
X173380000Y-73000000D03*
%TO.N,STORED ADR 8*%
X175920000Y-73000000D03*
%TO.N,STORED ADR 9*%
X178460000Y-73000000D03*
%TO.N,STORED ADR 10*%
X181000000Y-73000000D03*
%TO.N,STORED ADR 11*%
X183540000Y-73000000D03*
%TO.N,STORED ADR 12*%
X186080000Y-73000000D03*
%TO.N,STORED ADR 13*%
X188620000Y-73000000D03*
%TO.N,STORED ADR 14*%
X191160000Y-73000000D03*
%TO.N,STORED ADR 15*%
X193700000Y-73000000D03*
%TD*%
D10*
%TO.N,VCC*%
%TO.C,J2*%
X65100000Y-73000000D03*
D11*
%TO.N,GND*%
X67640000Y-73000000D03*
%TO.N,rst*%
X70180000Y-73000000D03*
%TO.N,VCC*%
X72720000Y-73000000D03*
%TO.N,Rising Edge*%
X75260000Y-73000000D03*
%TO.N,NEXT ADR 0*%
X77800000Y-73000000D03*
%TO.N,NEXT ADR 1*%
X80340000Y-73000000D03*
%TO.N,NEXT ADR 2*%
X82880000Y-73000000D03*
%TO.N,NEXT ADR 3*%
X85420000Y-73000000D03*
%TO.N,NEXT ADR 4*%
X87960000Y-73000000D03*
%TO.N,NEXT ADR 5*%
X90500000Y-73000000D03*
%TO.N,NEXT ADR 6*%
X93040000Y-73000000D03*
%TO.N,NEXT ADR 7*%
X95580000Y-73000000D03*
%TO.N,STORED ADR 0*%
X98120000Y-73000000D03*
%TO.N,STORED ADR 1*%
X100660000Y-73000000D03*
%TO.N,STORED ADR 2*%
X103200000Y-73000000D03*
%TO.N,STORED ADR 3*%
X105740000Y-73000000D03*
%TO.N,STORED ADR 4*%
X108280000Y-73000000D03*
%TO.N,STORED ADR 5*%
X110820000Y-73000000D03*
%TO.N,STORED ADR 6*%
X113360000Y-73000000D03*
%TO.N,STORED ADR 7*%
X115900000Y-73000000D03*
%TD*%
D10*
%TO.N,VCC*%
%TO.C,J22*%
X291500000Y-35100000D03*
D11*
%TO.N,GND*%
X291500000Y-37640000D03*
%TO.N,rst*%
X291500000Y-40180000D03*
%TO.N,READ B*%
X291500000Y-42720000D03*
%TO.N,Rising Edge*%
X291500000Y-45260000D03*
%TO.N,Main bus 0*%
X291500000Y-47800000D03*
%TO.N,Main bus 1*%
X291500000Y-50340000D03*
%TO.N,Main bus 2*%
X291500000Y-52880000D03*
%TO.N,Main bus 3*%
X291500000Y-55420000D03*
%TO.N,Main bus 4*%
X291500000Y-57960000D03*
%TO.N,Main bus 5*%
X291500000Y-60500000D03*
%TO.N,Main bus 6*%
X291500000Y-63040000D03*
%TO.N,ALU FLAG N*%
X291500000Y-65580000D03*
%TO.N,Net-(J22-Pin_14)*%
X291500000Y-68120000D03*
%TO.N,Net-(J22-Pin_15)*%
X291500000Y-70660000D03*
%TO.N,Net-(J22-Pin_16)*%
X291500000Y-73200000D03*
%TO.N,Net-(J22-Pin_17)*%
X291500000Y-75740000D03*
%TO.N,Net-(J22-Pin_18)*%
X291500000Y-78280000D03*
%TO.N,Net-(J22-Pin_19)*%
X291500000Y-80820000D03*
%TO.N,Net-(J22-Pin_20)*%
X291500000Y-83360000D03*
%TO.N,Net-(J22-Pin_21)*%
X291500000Y-85900000D03*
%TD*%
D10*
%TO.N,VCC*%
%TO.C,J21*%
X259550000Y-35137500D03*
D11*
%TO.N,GND*%
X259550000Y-37677500D03*
%TO.N,rst*%
X259550000Y-40217500D03*
%TO.N,READ A*%
X259550000Y-42757500D03*
%TO.N,Rising Edge*%
X259550000Y-45297500D03*
%TO.N,Main bus 0*%
X259550000Y-47837500D03*
%TO.N,Main bus 1*%
X259550000Y-50377500D03*
%TO.N,Main bus 2*%
X259550000Y-52917500D03*
%TO.N,Main bus 3*%
X259550000Y-55457500D03*
%TO.N,Main bus 4*%
X259550000Y-57997500D03*
%TO.N,Main bus 5*%
X259550000Y-60537500D03*
%TO.N,Main bus 6*%
X259550000Y-63077500D03*
%TO.N,ALU FLAG N*%
X259550000Y-65617500D03*
%TO.N,Net-(J21-Pin_14)*%
X259550000Y-68157500D03*
%TO.N,Net-(J21-Pin_15)*%
X259550000Y-70697500D03*
%TO.N,Net-(J21-Pin_16)*%
X259550000Y-73237500D03*
%TO.N,Net-(J21-Pin_17)*%
X259550000Y-75777500D03*
%TO.N,Net-(J21-Pin_18)*%
X259550000Y-78317500D03*
%TO.N,Net-(J21-Pin_19)*%
X259550000Y-80857500D03*
%TO.N,Net-(J21-Pin_20)*%
X259550000Y-83397500D03*
%TO.N,Net-(J21-Pin_21)*%
X259550000Y-85937500D03*
%TD*%
D10*
%TO.N,Rising Edge*%
%TO.C,J8*%
X59900000Y-93500000D03*
%TD*%
%TO.N,VCC*%
%TO.C,J23*%
X323500000Y-35100000D03*
D11*
%TO.N,GND*%
X323500000Y-37640000D03*
%TO.N,rst*%
X323500000Y-40180000D03*
%TO.N,READ C*%
X323500000Y-42720000D03*
%TO.N,Rising Edge*%
X323500000Y-45260000D03*
%TO.N,Main bus 0*%
X323500000Y-47800000D03*
%TO.N,Main bus 1*%
X323500000Y-50340000D03*
%TO.N,Main bus 2*%
X323500000Y-52880000D03*
%TO.N,Main bus 3*%
X323500000Y-55420000D03*
%TO.N,Main bus 4*%
X323500000Y-57960000D03*
%TO.N,Main bus 5*%
X323500000Y-60500000D03*
%TO.N,Main bus 6*%
X323500000Y-63040000D03*
%TO.N,ALU FLAG N*%
X323500000Y-65580000D03*
%TO.N,Net-(J23-Pin_14)*%
X323500000Y-68120000D03*
%TO.N,Net-(J23-Pin_15)*%
X323500000Y-70660000D03*
%TO.N,Net-(J23-Pin_16)*%
X323500000Y-73200000D03*
%TO.N,Net-(J23-Pin_17)*%
X323500000Y-75740000D03*
%TO.N,Net-(J23-Pin_18)*%
X323500000Y-78280000D03*
%TO.N,Net-(J23-Pin_19)*%
X323500000Y-80820000D03*
%TO.N,Net-(J23-Pin_20)*%
X323500000Y-83360000D03*
%TO.N,Net-(J23-Pin_21)*%
X323500000Y-85900000D03*
%TD*%
D10*
%TO.N,Read New Instruction*%
%TO.C,J9*%
X63062500Y-160075000D03*
%TD*%
D12*
%TO.N,!JMP*%
X49400000Y-141900000D03*
X73800000Y-175200000D03*
X136300000Y-104600000D03*
%TO.N,!BOP*%
X83700000Y-174500000D03*
X124700000Y-119100000D03*
X55200000Y-138300000D03*
%TO.N,!BON*%
X135400000Y-119200000D03*
X59100000Y-138400000D03*
X88600000Y-174500000D03*
%TO.N,!BOZ*%
X149200000Y-119600000D03*
X93700000Y-174400000D03*
X63100000Y-138300000D03*
%TO.N,!BNZ*%
X67100000Y-138400000D03*
X98500000Y-174400000D03*
X162600000Y-121200000D03*
X149200000Y-121100000D03*
X163400000Y-119801000D03*
%TO.N,!BOO*%
X103300000Y-174300000D03*
X71000000Y-138300000D03*
X151500000Y-122700000D03*
%TO.N,!BNO*%
X75000000Y-138400000D03*
X193300000Y-109300000D03*
X108700000Y-174400000D03*
%TO.N,!BOU*%
X113700000Y-174600000D03*
X182900000Y-104200000D03*
X79100000Y-138300000D03*
%TO.N,!BNU*%
X83100000Y-138500000D03*
X118800000Y-174500000D03*
X169500000Y-104100000D03*
%TO.N,!BOC*%
X123800000Y-174300000D03*
X162300000Y-109100000D03*
X87100000Y-138200000D03*
%TO.N,!BNC*%
X146300000Y-103800000D03*
X128900000Y-174500000D03*
X92400000Y-142600000D03*
%TO.N,!Clear*%
X208300000Y-128300000D03*
X132500000Y-175000000D03*
X135100000Y-142300000D03*
%TO.N,!Load*%
X48400000Y-147400000D03*
X66500000Y-168400000D03*
X50000000Y-167300000D03*
X66100000Y-154700000D03*
X133031786Y-168400000D03*
X137500000Y-175100000D03*
X137200000Y-142800000D03*
%TO.N,!Store*%
X142500000Y-175000000D03*
X130800000Y-149500000D03*
X135100000Y-147600000D03*
X200100000Y-132800000D03*
%TO.N,!INC*%
X134150000Y-157000000D03*
X215800000Y-136000000D03*
X147500000Y-174800000D03*
X213248942Y-117799000D03*
%TO.N,!DEC*%
X152500000Y-175100000D03*
X138150000Y-156900000D03*
%TO.N,!RS*%
X157500000Y-175100000D03*
X142150000Y-156900000D03*
%TO.N,!NOT*%
X145299000Y-156900000D03*
X162500000Y-174800000D03*
%TO.N,!AND*%
X195100000Y-129800000D03*
X148599000Y-157500000D03*
X203700000Y-129400000D03*
X167500000Y-175000000D03*
%TO.N,!OR*%
X206700000Y-132200000D03*
X195000000Y-132200000D03*
X172500000Y-175000000D03*
X152599000Y-157611500D03*
%TO.N,!XOR*%
X177500000Y-175000000D03*
X190200000Y-133700000D03*
X203800000Y-125400000D03*
X156599000Y-157500000D03*
%TO.N,!ADD*%
X182500000Y-175000000D03*
X206700000Y-118400000D03*
X188300000Y-134700000D03*
X160599000Y-157500000D03*
%TO.N,!ADC*%
X213400000Y-118800000D03*
X187500000Y-175000000D03*
X200500000Y-136300000D03*
X194000000Y-137300000D03*
X166745984Y-152045984D03*
%TO.N,!MOV*%
X170300000Y-152500000D03*
X201200000Y-133100000D03*
X192500000Y-175000000D03*
X175600000Y-146700000D03*
X196300000Y-136000000D03*
%TO.N,Net-(Q17-G)*%
X207000000Y-168700000D03*
X221000000Y-199500000D03*
X119900000Y-218200000D03*
X221000000Y-178500000D03*
X109900000Y-176300000D03*
X119900000Y-176300000D03*
X206600000Y-199500000D03*
X89900000Y-218200000D03*
X80000000Y-176300000D03*
X99800000Y-176300000D03*
X221000000Y-189200000D03*
X109900000Y-218200000D03*
X205700000Y-189200000D03*
X67200000Y-218200000D03*
X99800000Y-218200000D03*
X64100000Y-211100000D03*
X221000000Y-168700000D03*
X89900000Y-176200000D03*
X80000000Y-218200000D03*
X206900000Y-178500000D03*
%TO.N,Net-(Q15-G)*%
X220400000Y-194200000D03*
X220400000Y-172999000D03*
X115000000Y-180300000D03*
X94800000Y-180300000D03*
X114900000Y-217500000D03*
X71600000Y-184100000D03*
X209600000Y-194200000D03*
X64100000Y-206700000D03*
X209700000Y-173100000D03*
X67700000Y-217500000D03*
X71600000Y-217500000D03*
X94800000Y-217500000D03*
%TO.N,Net-(Q21-G)*%
X206800000Y-157400000D03*
X85000000Y-216800000D03*
X64000000Y-202300000D03*
X154800000Y-216800000D03*
X154800000Y-184300000D03*
X219800000Y-157400000D03*
X144800000Y-184300000D03*
X85000000Y-184300000D03*
X68200000Y-216800000D03*
X135100000Y-216800000D03*
X124700000Y-216800000D03*
X124800000Y-184400000D03*
X144700000Y-216800000D03*
X135100000Y-184300000D03*
%TO.N,Net-(Q25-G)*%
X159900000Y-188200000D03*
X64100000Y-198000000D03*
X104800000Y-188300000D03*
X104800000Y-216100000D03*
X159900000Y-216100000D03*
X139700000Y-188300000D03*
X68700000Y-216100000D03*
X139700000Y-216100000D03*
%TO.N,Net-(Q40-G)*%
X129900000Y-215400000D03*
X129900000Y-192200000D03*
X69200000Y-215400000D03*
X164800000Y-215400000D03*
X184800000Y-192200000D03*
X175000000Y-215400000D03*
X184800000Y-215400000D03*
X175000000Y-192300000D03*
X64100000Y-193500000D03*
X164800000Y-192300000D03*
%TO.N,Net-(Q53-G)*%
X64200000Y-189200000D03*
X179900000Y-196300000D03*
X149800000Y-214700000D03*
X149800000Y-196300000D03*
X179900000Y-214700000D03*
X69700000Y-214700000D03*
%TO.N,Net-(Q57-G)*%
X70200000Y-214000000D03*
X169700000Y-214000000D03*
X169800000Y-200300000D03*
X64100000Y-184800000D03*
%TO.N,Net-(Q603-D)*%
X189900000Y-204300000D03*
X64200000Y-180500000D03*
X70700000Y-213300000D03*
X190500000Y-213300000D03*
%TO.N,Net-(Q10-G)*%
X74706250Y-200806250D03*
X188800000Y-201900000D03*
X188800000Y-207600000D03*
X74700000Y-207600000D03*
%TO.N,Net-(Q11-G)*%
X169200000Y-208300000D03*
X188200000Y-198400000D03*
X169200000Y-197600000D03*
X188200000Y-208300000D03*
X74099000Y-197701000D03*
X74100000Y-208300000D03*
%TO.N,Net-(Q12-G)*%
X73500000Y-209000000D03*
X179300000Y-209000000D03*
X149200000Y-209000000D03*
X73500000Y-194400000D03*
X187600000Y-209000000D03*
X149200000Y-193400000D03*
X187600000Y-195000000D03*
X168600000Y-194200000D03*
X168600000Y-209000000D03*
X179300000Y-193500000D03*
%TO.N,Net-(Q13-G)*%
X129300000Y-189300000D03*
X72900000Y-190900000D03*
X129300000Y-209700000D03*
X72900000Y-209700000D03*
X148600000Y-209700000D03*
X148600000Y-189900000D03*
%TO.N,Net-(Q14-G)*%
X217400000Y-163400000D03*
X159300000Y-210400000D03*
X148000000Y-210400000D03*
X72300000Y-210400000D03*
X148000000Y-186600000D03*
X217400000Y-153100000D03*
X104200000Y-185400000D03*
X139100000Y-210400000D03*
X207300000Y-153100000D03*
X128700000Y-185900000D03*
X159300000Y-185300000D03*
X128700000Y-210400000D03*
X139100000Y-185600000D03*
X72300000Y-187500000D03*
X207200000Y-163400000D03*
X104200000Y-210400000D03*
%TO.N,Net-(Q18-G)*%
X84400000Y-211100000D03*
X84400000Y-181200000D03*
X208800000Y-211100000D03*
X210200000Y-183400000D03*
X103600000Y-182000000D03*
X103600000Y-211100000D03*
X218000000Y-184600000D03*
X124200000Y-181500000D03*
X208800000Y-204700000D03*
X124200000Y-211100000D03*
%TO.N,Net-(Q1-D)*%
X218600000Y-173700000D03*
X206850000Y-194750000D03*
X83800000Y-211800000D03*
X94200000Y-177500000D03*
X114400000Y-177200000D03*
X218600000Y-194800000D03*
X71000000Y-180800000D03*
X123600000Y-211800000D03*
X218600000Y-185200000D03*
X204800000Y-211800000D03*
X94200000Y-211800000D03*
X103000000Y-211800000D03*
X114400000Y-211800000D03*
X71000000Y-211800000D03*
X207000000Y-184000000D03*
X103000000Y-178600000D03*
X83800000Y-177800000D03*
X123600000Y-178000000D03*
X204800000Y-204700000D03*
X207100000Y-173700000D03*
D13*
%TO.N,Faling Edge*%
X50900000Y-66000000D03*
D12*
X45200000Y-109600000D03*
X47702000Y-109600000D03*
%TO.N,Read New Instruction*%
X52500000Y-166700000D03*
X49100000Y-170000000D03*
%TO.N,Buss3*%
X85400000Y-23800000D03*
X224795552Y-26303218D03*
X34599000Y-174300000D03*
X34596000Y-162450000D03*
X163200000Y-23800000D03*
X226950000Y-49962500D03*
%TO.N,GND*%
X269137500Y-172150000D03*
D13*
X129100000Y-87700000D03*
D12*
X51000000Y-122700000D03*
D13*
X29400000Y-96100000D03*
X60200000Y-183300000D03*
D12*
X289437500Y-194550000D03*
D13*
X82162500Y-146975000D03*
D12*
X257000000Y-107675000D03*
X261337500Y-171850000D03*
D13*
X250937500Y-188650000D03*
X183100000Y-152800000D03*
X318800000Y-81487500D03*
X28400000Y-152500000D03*
D12*
X349337500Y-201150000D03*
D13*
X202976000Y-43011500D03*
X52738500Y-60900000D03*
X264200000Y-83387500D03*
D12*
X284850000Y-108875000D03*
D13*
X189349000Y-83100000D03*
X28400000Y-148900000D03*
X250937500Y-203850000D03*
D12*
X273173265Y-146014235D03*
D13*
X200600000Y-188300000D03*
D12*
X273173265Y-179014235D03*
X261337500Y-138850000D03*
D13*
X286800000Y-81487500D03*
X200600000Y-151300000D03*
D12*
X289437500Y-161550000D03*
X346197500Y-157050000D03*
D13*
X125349000Y-83100000D03*
X161100000Y-87700000D03*
D12*
X300050000Y-108875000D03*
D13*
X318937500Y-206550000D03*
X165349000Y-83100000D03*
X29400000Y-74500000D03*
X183000000Y-147800000D03*
X125138500Y-42961500D03*
D12*
X262931250Y-163843750D03*
X289437500Y-183550000D03*
X77162500Y-143975000D03*
D13*
X222400000Y-48700000D03*
X101349000Y-83100000D03*
X250037500Y-159450000D03*
X236337500Y-133550000D03*
X296200000Y-83387500D03*
X271850000Y-30237500D03*
X53400000Y-97000000D03*
X77349000Y-83100000D03*
X60200000Y-196500000D03*
X177100000Y-87700000D03*
X141349000Y-83100000D03*
D12*
X53000000Y-55800000D03*
D13*
X88762500Y-159075000D03*
X200450000Y-108000000D03*
D12*
X262931250Y-152843750D03*
D13*
X339337500Y-129450000D03*
X93349000Y-83100000D03*
X200600000Y-203300000D03*
X222400000Y-39700000D03*
D12*
X261337500Y-160850000D03*
D13*
X360200000Y-83387500D03*
X343087500Y-35375000D03*
X235850000Y-62562500D03*
D12*
X51100000Y-127000000D03*
D13*
X29400000Y-88900000D03*
X146100000Y-154100000D03*
X52162500Y-147075000D03*
X70300000Y-92200000D03*
X251037500Y-200150000D03*
X351037500Y-144050000D03*
X351037500Y-121250000D03*
X153476000Y-43011500D03*
D12*
X153637500Y-116600000D03*
D13*
X351037500Y-128850000D03*
D12*
X269137500Y-205150000D03*
X273173265Y-135014235D03*
X269137500Y-150150000D03*
X51400000Y-118000000D03*
X146375000Y-106750000D03*
X97000000Y-95200000D03*
D13*
X200600000Y-146300000D03*
X29400000Y-70900000D03*
X236337500Y-152050000D03*
X50700000Y-178900000D03*
D12*
X289437500Y-172550000D03*
D13*
X318937500Y-133550000D03*
D12*
X348937500Y-165050000D03*
D13*
X49400000Y-86800000D03*
X339337500Y-153450000D03*
D12*
X262931250Y-174843750D03*
D13*
X50700000Y-183300000D03*
X318937500Y-169550000D03*
X58162500Y-157675000D03*
X351037500Y-132650000D03*
D12*
X105000000Y-95200000D03*
D13*
X336050000Y-110237500D03*
X236337500Y-148350000D03*
X183100000Y-157700000D03*
D12*
X182137500Y-116600000D03*
X291437500Y-177750000D03*
D13*
X189650000Y-205850000D03*
X222400000Y-57700000D03*
D12*
X178275000Y-106750000D03*
D13*
X250037500Y-155750000D03*
D12*
X289437500Y-150550000D03*
D13*
X75638500Y-42961500D03*
D12*
X278337500Y-172550000D03*
X144137500Y-116600000D03*
D13*
X50700000Y-205300000D03*
D12*
X269137500Y-161150000D03*
D13*
X28400000Y-156100000D03*
X250037500Y-152050000D03*
X157349000Y-83100000D03*
D12*
X161000000Y-95200000D03*
D13*
X28400000Y-163300000D03*
D12*
X278337500Y-161550000D03*
X184937500Y-95237500D03*
D13*
X28400000Y-170500000D03*
X50700000Y-192100000D03*
D12*
X291437500Y-210750000D03*
X79423718Y-134101000D03*
D13*
X318937500Y-193550000D03*
D12*
X269137500Y-183150000D03*
X65200000Y-151900000D03*
D13*
X111538500Y-42961500D03*
D12*
X269137500Y-128150000D03*
D13*
X173349000Y-83100000D03*
X222400000Y-66700000D03*
D12*
X262931250Y-141843750D03*
X291437500Y-155750000D03*
D13*
X75162500Y-157775000D03*
X339337500Y-189450000D03*
X93638500Y-42961500D03*
D12*
X261337500Y-193850000D03*
D13*
X318937500Y-157550000D03*
D12*
X273173265Y-212014235D03*
X261337500Y-127850000D03*
X288650000Y-108875000D03*
X169000000Y-95200000D03*
D13*
X200600000Y-167300000D03*
D12*
X81000000Y-95200000D03*
X113000000Y-95200000D03*
D13*
X50700000Y-187700000D03*
X61500000Y-95900000D03*
X176200000Y-133000000D03*
X200600000Y-193300000D03*
X250037500Y-140950000D03*
D12*
X264600000Y-107675000D03*
D13*
X200600000Y-198300000D03*
D12*
X79423718Y-129159032D03*
X278337500Y-194550000D03*
X289437500Y-139550000D03*
X280337500Y-166750000D03*
X130600000Y-49800000D03*
D13*
X222400000Y-44200000D03*
D12*
X273173265Y-201014235D03*
X177000000Y-95200000D03*
X70662500Y-157675000D03*
D13*
X250937500Y-192450000D03*
X28400000Y-166900000D03*
X181349000Y-83100000D03*
X351037500Y-147850000D03*
X185100000Y-87700000D03*
X339337500Y-177450000D03*
X57100000Y-83300000D03*
X169100000Y-87700000D03*
X236337500Y-137250000D03*
X339337500Y-141450000D03*
X29400000Y-99700000D03*
D12*
X278337500Y-183550000D03*
X253200000Y-107675000D03*
D13*
X29400000Y-103300000D03*
X137100000Y-87700000D03*
X109349000Y-83100000D03*
X105100000Y-87700000D03*
X60200000Y-178900000D03*
X29400000Y-56500000D03*
X171476000Y-43011500D03*
D12*
X129137500Y-116600000D03*
X262931250Y-207843750D03*
D13*
X236337500Y-155750000D03*
X351037500Y-136450000D03*
X28400000Y-174100000D03*
X200600000Y-182300000D03*
D12*
X345637500Y-173650000D03*
X262931250Y-130843750D03*
D13*
X250037500Y-137250000D03*
X60200000Y-192100000D03*
X235450000Y-57562500D03*
D12*
X153000000Y-95200000D03*
X51600000Y-131400000D03*
D13*
X70300000Y-86800000D03*
D12*
X278337500Y-150550000D03*
D13*
X350800000Y-81487500D03*
X196700000Y-120100000D03*
D12*
X348837500Y-178150000D03*
D13*
X133349000Y-83100000D03*
D12*
X280337500Y-155750000D03*
D13*
X250037500Y-148350000D03*
D12*
X189800000Y-107700000D03*
D13*
X318937500Y-181550000D03*
X29400000Y-67300000D03*
D12*
X261337500Y-149850000D03*
D13*
X117349000Y-83100000D03*
X139376000Y-43011500D03*
D12*
X291437500Y-166750000D03*
X289437500Y-128550000D03*
D13*
X60200000Y-205300000D03*
D12*
X200937500Y-95237500D03*
X260800000Y-107675000D03*
D13*
X50700000Y-209700000D03*
X200600000Y-177300000D03*
X50700000Y-200900000D03*
D12*
X192937500Y-95237500D03*
D13*
X81100000Y-87700000D03*
X222400000Y-53200000D03*
D12*
X280337500Y-133750000D03*
X296250000Y-108875000D03*
D13*
X28400000Y-159700000D03*
D12*
X159775000Y-106750000D03*
X79423718Y-124159032D03*
D13*
X49500000Y-92100000D03*
X145100000Y-87700000D03*
X254800000Y-81487500D03*
D12*
X262931250Y-185843750D03*
X291437500Y-199750000D03*
D13*
X29400000Y-52900000D03*
X351037500Y-125050000D03*
D12*
X73662500Y-147175000D03*
D13*
X193100000Y-87700000D03*
D12*
X261337500Y-204850000D03*
D13*
X349310000Y-24877500D03*
D12*
X137000000Y-95200000D03*
X249400000Y-107675000D03*
X269137500Y-194150000D03*
D13*
X183100000Y-162700000D03*
D12*
X167637500Y-116600000D03*
D13*
X200600000Y-131400000D03*
X210100000Y-54800000D03*
X121100000Y-87700000D03*
X279087500Y-35375000D03*
X235650000Y-34962500D03*
D12*
X280337500Y-144750000D03*
D13*
X59900000Y-96000000D03*
X236337500Y-144650000D03*
D12*
X245600000Y-107675000D03*
D13*
X250937500Y-196250000D03*
X153100000Y-87700000D03*
X236337500Y-159450000D03*
X113100000Y-87700000D03*
X85349000Y-83100000D03*
X200600000Y-172300000D03*
X61538500Y-42961500D03*
X339337500Y-165450000D03*
D12*
X75500000Y-206100000D03*
D13*
X60200000Y-200900000D03*
D12*
X278337500Y-205550000D03*
X268400000Y-107675000D03*
D13*
X222400000Y-62200000D03*
D12*
X262931250Y-196843750D03*
D13*
X189376000Y-43011500D03*
X60200000Y-187700000D03*
X205100000Y-140051000D03*
D12*
X66200000Y-113462500D03*
X278337500Y-128550000D03*
D13*
X351037500Y-140250000D03*
X68662500Y-166475000D03*
X97100000Y-87700000D03*
D12*
X348637500Y-189150000D03*
D13*
X29400000Y-92500000D03*
X132375000Y-108050000D03*
X250037500Y-144650000D03*
D12*
X280337500Y-188750000D03*
X280337500Y-210750000D03*
D13*
X29400000Y-63700000D03*
X367950000Y-30237500D03*
X29400000Y-78100000D03*
D12*
X48962500Y-139075000D03*
X89000000Y-95200000D03*
X346137500Y-215350000D03*
D13*
X201100000Y-87700000D03*
X210100000Y-45700000D03*
D12*
X291437500Y-133750000D03*
D13*
X250037500Y-133550000D03*
D12*
X303850000Y-108875000D03*
D13*
X105800000Y-158100000D03*
D12*
X145000000Y-95200000D03*
X292450000Y-108875000D03*
D13*
X50700000Y-196500000D03*
X149349000Y-83100000D03*
X200600000Y-156300000D03*
D12*
X66012500Y-158125000D03*
X281050000Y-108875000D03*
D13*
X29400000Y-81700000D03*
D12*
X278337500Y-139550000D03*
X273173265Y-190014235D03*
D13*
X197349000Y-83100000D03*
D12*
X272200000Y-107675000D03*
D13*
X60200000Y-209700000D03*
X335950000Y-30237500D03*
X247087500Y-35375000D03*
D12*
X129000000Y-95200000D03*
X261337500Y-182850000D03*
D13*
X236337500Y-140950000D03*
D12*
X273173265Y-157014235D03*
D13*
X215800000Y-181800000D03*
D12*
X291437500Y-144750000D03*
X169175000Y-106750000D03*
D13*
X29400000Y-60100000D03*
X222400000Y-35200000D03*
X131000000Y-147300000D03*
D12*
X291437500Y-188750000D03*
D13*
X215800000Y-160800000D03*
D12*
X280337500Y-199750000D03*
X273173265Y-168014235D03*
X269137500Y-139150000D03*
D13*
X303850000Y-30237500D03*
X328200000Y-83387500D03*
D12*
X307650000Y-108875000D03*
D13*
X89100000Y-87700000D03*
X318797500Y-213450000D03*
X247640000Y-176250000D03*
X58850000Y-86500000D03*
D12*
X79562500Y-157675000D03*
D13*
X49354112Y-161975000D03*
X318937500Y-145550000D03*
X29400000Y-85300000D03*
X29400000Y-106900000D03*
X215800000Y-202800000D03*
D12*
X280337500Y-177750000D03*
D13*
X311087500Y-35275000D03*
D12*
X121000000Y-95200000D03*
X348837500Y-159950000D03*
X289437500Y-205550000D03*
X81700000Y-116700000D03*
D13*
X200600000Y-161300000D03*
D12*
%TO.N,R{slash}W out*%
X68737500Y-163437500D03*
X46100000Y-132600000D03*
%TO.N,Buss2*%
X35000000Y-176800000D03*
X227350000Y-45362500D03*
X82800000Y-23200000D03*
X160700000Y-23200000D03*
X35000000Y-158800000D03*
X225254702Y-25645298D03*
%TO.N,rst*%
X70200000Y-68300000D03*
X142900000Y-27400000D03*
%TO.N,Buss0*%
X155600000Y-22000000D03*
X35799000Y-151600000D03*
X77700000Y-22000000D03*
X226000000Y-24200000D03*
X230050000Y-36262500D03*
%TO.N,Buss6*%
X226950000Y-63462500D03*
X33393000Y-167000000D03*
X170900000Y-25600000D03*
X33500000Y-173200000D03*
X223400000Y-28500000D03*
X93000000Y-25600000D03*
%TO.N,Buss7*%
X227250000Y-67962500D03*
X173500000Y-26200000D03*
X223100000Y-29300000D03*
X32594000Y-164200000D03*
X95500000Y-26200000D03*
X32800000Y-176900000D03*
%TO.N,Buss4*%
X34195000Y-166050000D03*
X87900000Y-24400000D03*
X34198000Y-171700000D03*
X165700000Y-24400000D03*
X224300000Y-27000000D03*
X227050000Y-54462500D03*
%TO.N,VCC*%
X74012718Y-121100000D03*
X91462500Y-151275000D03*
D13*
X50700000Y-186000000D03*
X202076000Y-65711500D03*
D12*
X294537500Y-195050000D03*
D13*
X350067500Y-138780000D03*
X25400000Y-103300000D03*
X207900000Y-58500000D03*
D12*
X269137500Y-140350000D03*
D13*
X250887500Y-30275000D03*
D12*
X285037500Y-142250000D03*
X312437500Y-196450000D03*
D13*
X102800000Y-93600000D03*
D12*
X74012718Y-125300000D03*
X290037500Y-186250000D03*
D13*
X130524207Y-170124207D03*
D12*
X352037500Y-186650000D03*
D13*
X237157500Y-135070000D03*
X195500000Y-199500000D03*
X137000000Y-98100000D03*
D12*
X306250000Y-102375000D03*
X294337500Y-151150000D03*
D13*
X268150000Y-30337500D03*
D12*
X274137500Y-175350000D03*
D13*
X195500000Y-157389000D03*
D12*
X262997500Y-125610000D03*
D13*
X251877500Y-197790000D03*
X74600000Y-66000000D03*
D12*
X294337500Y-173050000D03*
D13*
X153000000Y-98100000D03*
X150800000Y-93600000D03*
D12*
X49523718Y-123300000D03*
D13*
X177000000Y-98100000D03*
X335487500Y-141100000D03*
D12*
X262997500Y-136610000D03*
X247800000Y-101175000D03*
X244000000Y-101175000D03*
D13*
X24400000Y-152500000D03*
X50700000Y-203600000D03*
X237000000Y-40200000D03*
X138976000Y-65711500D03*
X131500000Y-54600000D03*
D12*
X294850000Y-102375000D03*
D13*
X105215686Y-170115686D03*
D12*
X290037500Y-197250000D03*
D13*
X237157500Y-138770000D03*
X54200000Y-55500000D03*
D12*
X84834718Y-131200000D03*
D13*
X118800000Y-93600000D03*
X198800000Y-93600000D03*
X92700000Y-66000000D03*
X332250000Y-30337500D03*
D12*
X277837500Y-175150000D03*
D13*
X121000000Y-98100000D03*
X72262500Y-153575000D03*
D12*
X263100000Y-101075000D03*
D13*
X185000000Y-98100000D03*
X142800000Y-93600000D03*
D12*
X262997500Y-169610000D03*
D13*
X59100000Y-81400000D03*
X110800000Y-93600000D03*
X50700000Y-212400000D03*
X50700000Y-199200000D03*
X237157500Y-142470000D03*
D12*
X269137500Y-195350000D03*
X262997500Y-180610000D03*
X277837500Y-164150000D03*
D13*
X126800000Y-93600000D03*
X61176000Y-66000000D03*
D12*
X274137500Y-208350000D03*
D13*
X250857500Y-142470000D03*
D12*
X350537500Y-189950000D03*
X143537500Y-115500000D03*
D13*
X195500000Y-168489000D03*
X25400000Y-60100000D03*
X105800000Y-160600000D03*
X50700000Y-181600000D03*
X237157500Y-157270000D03*
X113000000Y-98100000D03*
X170576000Y-65711500D03*
D12*
X277837500Y-131150000D03*
D13*
X50700000Y-194800000D03*
X364250000Y-30337500D03*
X176300000Y-135400000D03*
D12*
X277837500Y-142150000D03*
D13*
X250857500Y-146170000D03*
D12*
X279650000Y-102375000D03*
D13*
X60200000Y-203600000D03*
X175000000Y-170100000D03*
X90100000Y-170100000D03*
X195600000Y-189500000D03*
D12*
X353637500Y-172350000D03*
D13*
X202700000Y-128200000D03*
X105000000Y-98100000D03*
X46000000Y-96100000D03*
X60200000Y-181600000D03*
X335487500Y-129100000D03*
X213400000Y-131700000D03*
X251777500Y-190090000D03*
X250857500Y-135070000D03*
D12*
X298650000Y-102375000D03*
D13*
X250857500Y-131370000D03*
D12*
X270700000Y-101075000D03*
X262997500Y-191610000D03*
X182337500Y-113600000D03*
D13*
X250857500Y-157270000D03*
D12*
X287250000Y-102375000D03*
D13*
X158800000Y-93600000D03*
X282887500Y-30275000D03*
D12*
X74012718Y-131500000D03*
D13*
X201000000Y-98100000D03*
X74000000Y-84200000D03*
D12*
X262997500Y-147610000D03*
D13*
X335487500Y-177100000D03*
X346887500Y-30275000D03*
X237000000Y-49400000D03*
D12*
X73062500Y-150900000D03*
X333637500Y-196450000D03*
D13*
X125000000Y-170100000D03*
D12*
X262997500Y-202610000D03*
X294137500Y-129250000D03*
D13*
X251777500Y-201490000D03*
D12*
X274137500Y-131350000D03*
X290037500Y-175250000D03*
X269137500Y-173350000D03*
D13*
X89000000Y-98100000D03*
X251777500Y-193890000D03*
D12*
X269137500Y-129350000D03*
X269137500Y-162350000D03*
X324937500Y-196450000D03*
X277837500Y-186150000D03*
X348837500Y-179250000D03*
X285037500Y-208250000D03*
X308537500Y-196350000D03*
D13*
X97000000Y-98100000D03*
D12*
X274137500Y-197350000D03*
D13*
X182800000Y-93600000D03*
D12*
X285037500Y-197250000D03*
D13*
X237000000Y-58600000D03*
X335487500Y-153100000D03*
X350067500Y-123580000D03*
D12*
X285037500Y-153250000D03*
X266900000Y-101075000D03*
X49523718Y-127500000D03*
D13*
X25400000Y-70900000D03*
X251777500Y-186290000D03*
X88362500Y-146275000D03*
D12*
X320737500Y-196450000D03*
D13*
X24400000Y-174100000D03*
D12*
X262997500Y-158610000D03*
X84834718Y-121300000D03*
X291050000Y-102375000D03*
X294337500Y-140150000D03*
X277837500Y-197150000D03*
X269137500Y-151350000D03*
X259300000Y-101075000D03*
X352937500Y-165050000D03*
D13*
X237157500Y-153570000D03*
D12*
X294337500Y-184150000D03*
D13*
X335487500Y-165100000D03*
D12*
X285037500Y-175250000D03*
D13*
X56462500Y-157675000D03*
X110776000Y-66000000D03*
X314887500Y-30175000D03*
D12*
X316437500Y-196450000D03*
X283450000Y-102375000D03*
D13*
X60200000Y-186000000D03*
X350067500Y-150180000D03*
X237157500Y-149870000D03*
D12*
X274137500Y-186350000D03*
X304337500Y-196450000D03*
X290037500Y-153250000D03*
X84834718Y-126500000D03*
D13*
X60200000Y-199200000D03*
X250857500Y-153570000D03*
D12*
X255400000Y-101175000D03*
D13*
X60200000Y-212400000D03*
D12*
X269137500Y-184350000D03*
D13*
X136400000Y-106500000D03*
D12*
X290037500Y-131250000D03*
X294237500Y-206150000D03*
D13*
X350067500Y-146380000D03*
X24400000Y-163300000D03*
X94800000Y-93600000D03*
X129000000Y-98100000D03*
D12*
X290037500Y-208250000D03*
D13*
X60200000Y-208000000D03*
X207900000Y-40200000D03*
X247740000Y-178550000D03*
X152476000Y-65711500D03*
D12*
X290037500Y-142250000D03*
D13*
X145200000Y-170100000D03*
X134800000Y-93600000D03*
D12*
X302450000Y-102375000D03*
D13*
X161000000Y-98100000D03*
X79600000Y-170100000D03*
D12*
X274137500Y-142350000D03*
D13*
X74000000Y-95900000D03*
X90562500Y-159275000D03*
X25400000Y-92500000D03*
D12*
X274137500Y-164350000D03*
D13*
X50700000Y-208000000D03*
X166800000Y-93600000D03*
X214800000Y-122200000D03*
X60200000Y-194800000D03*
X350067500Y-142580000D03*
D12*
X277837500Y-208150000D03*
X290037500Y-164250000D03*
X49523718Y-132300000D03*
D13*
X250857500Y-138770000D03*
X174800000Y-93600000D03*
D12*
X122437500Y-114700000D03*
D13*
X350067500Y-131180000D03*
D12*
X251600000Y-101175000D03*
X285037500Y-131250000D03*
D13*
X190800000Y-93600000D03*
X237157500Y-131370000D03*
X25400000Y-81700000D03*
D12*
X65862500Y-159675000D03*
D13*
X155000000Y-170100000D03*
X350067500Y-134980000D03*
X300150000Y-30337500D03*
X72662500Y-159375000D03*
D12*
X274137500Y-153350000D03*
D13*
X335487500Y-189100000D03*
X86800000Y-93600000D03*
D12*
X158137500Y-113600000D03*
X351097500Y-214550000D03*
D13*
X114700000Y-170100000D03*
X200550000Y-110200000D03*
X89062500Y-153575000D03*
D12*
X177875000Y-109750000D03*
D13*
X124276000Y-65711500D03*
X207900000Y-49400000D03*
X169000000Y-98100000D03*
X195500000Y-146789000D03*
X195500000Y-178389000D03*
D12*
X294337500Y-162150000D03*
D13*
X350067500Y-127380000D03*
X60200000Y-190400000D03*
D12*
X72962500Y-161875000D03*
X302537500Y-211750000D03*
X155175000Y-109750000D03*
X269137500Y-206350000D03*
D13*
X193000000Y-98100000D03*
X188576000Y-65711500D03*
X81000000Y-98100000D03*
X50700000Y-190400000D03*
X45500000Y-84400000D03*
D12*
X285037500Y-186250000D03*
D13*
X250857500Y-149870000D03*
X164900000Y-170100000D03*
X78800000Y-93600000D03*
X237157500Y-146170000D03*
X349310000Y-26877500D03*
X53062500Y-150775000D03*
D12*
X277837500Y-153150000D03*
X49523718Y-118600000D03*
X285037500Y-164250000D03*
X329437500Y-196350000D03*
D13*
X145000000Y-98100000D03*
X179900000Y-170100000D03*
%TO.N,CLOCK*%
X53100000Y-79800000D03*
D12*
%TO.N,Buss5*%
X90400000Y-25000000D03*
X227150000Y-59062500D03*
X33794000Y-169650000D03*
X168300000Y-25000000D03*
X223800000Y-27700000D03*
%TO.N,Buss1*%
X227850000Y-40862500D03*
X225504807Y-24885396D03*
X35400000Y-178700000D03*
X80300000Y-22600000D03*
X35400000Y-155200000D03*
X158200000Y-22600000D03*
%TO.N,ADR 13*%
X33000000Y-101500000D03*
X118976000Y-61100000D03*
%TO.N,ADR 10*%
X105352000Y-61100000D03*
X33000000Y-90700000D03*
%TO.N,ADR 6*%
X85700000Y-59500000D03*
%TO.N,ADR 15*%
X33000000Y-108700000D03*
X127976000Y-61100000D03*
%TO.N,ADR 7*%
X90200000Y-59400000D03*
%TO.N,ADR 0*%
X58700000Y-59600000D03*
%TO.N,ADR 2*%
X67800000Y-59600000D03*
%TO.N,ADR 5*%
X81200000Y-59600000D03*
%TO.N,ADR 9*%
X33000000Y-87100000D03*
X100700000Y-61100000D03*
%TO.N,ADR 3*%
X72200000Y-59600000D03*
%TO.N,ADR 4*%
X76700000Y-59500000D03*
%TO.N,ADR 1*%
X63300000Y-59600000D03*
%TO.N,ADR 8*%
X33000000Y-83400000D03*
X96352000Y-61000000D03*
%TO.N,ADR 14*%
X33000000Y-105100000D03*
X123476000Y-61100000D03*
%TO.N,ADR 11*%
X109852000Y-61100000D03*
X33000000Y-94300000D03*
%TO.N,ADR 12*%
X114476000Y-61200000D03*
X33000000Y-97900000D03*
%TO.N,Main bus 0*%
X304137500Y-208750000D03*
X359437500Y-206404223D03*
X304637500Y-201550000D03*
X232950000Y-37162500D03*
X359437500Y-129962500D03*
%TO.N,Main bus 4*%
X319337500Y-208650000D03*
X321237500Y-201650000D03*
X232950000Y-54162500D03*
X357037500Y-204065607D03*
X357037500Y-142800000D03*
%TO.N,Main bus 1*%
X307937500Y-208650000D03*
X308637500Y-201550000D03*
X358837500Y-133200000D03*
X358837500Y-205815902D03*
X232950000Y-40362500D03*
%TO.N,Main bus 6*%
X232950000Y-63562500D03*
X355837500Y-149162500D03*
X329737500Y-201550000D03*
X355837500Y-202750000D03*
X326937500Y-208650000D03*
%TO.N,Main bus 3*%
X357637500Y-204619929D03*
X232950000Y-49862500D03*
X317137500Y-201550000D03*
X315637500Y-208750000D03*
X357637500Y-139562500D03*
%TO.N,Main bus 2*%
X311837500Y-208650000D03*
X358237500Y-205254655D03*
X358237500Y-136362500D03*
X312937500Y-201550000D03*
X232950000Y-45562500D03*
%TO.N,Main bus 5*%
X356437500Y-203399936D03*
X356437500Y-145962500D03*
X323137500Y-208650000D03*
X325437500Y-201550000D03*
X232950000Y-58962500D03*
%TO.N,AA0*%
X248350000Y-115950000D03*
X249637500Y-131350000D03*
X278937500Y-127150000D03*
X264637500Y-132950000D03*
X271803281Y-127215781D03*
%TO.N,XOR*%
X208000000Y-124000000D03*
X301197500Y-179150000D03*
X336597500Y-181750000D03*
X229300000Y-126700000D03*
X349997500Y-199250000D03*
%TO.N,ADD*%
X335197500Y-193250000D03*
X301197500Y-191150000D03*
X229900000Y-125600000D03*
X346137500Y-206850000D03*
X349337500Y-193950000D03*
%TO.N,OR*%
X346700000Y-197250000D03*
X214900000Y-133000000D03*
X344461500Y-197250000D03*
X344497500Y-207750000D03*
X211700000Y-132000000D03*
X227500000Y-134800000D03*
%TO.N,ALU FLAG O*%
X64700000Y-128900000D03*
X245100000Y-198000000D03*
%TO.N,ALU FLAG N*%
X355237500Y-152362500D03*
X352897500Y-171450000D03*
X334037500Y-201650000D03*
X64800000Y-115100000D03*
X330737500Y-207350000D03*
X355237500Y-202150000D03*
X330737500Y-208650000D03*
X354637500Y-167450000D03*
X348997500Y-173950000D03*
X232850000Y-68462500D03*
X247400000Y-186500000D03*
%TO.N,NOT*%
X301497500Y-167150000D03*
X349735515Y-203011985D03*
X342797500Y-202450000D03*
X228800000Y-127469222D03*
%TO.N,ALU FLAG U*%
X64600000Y-124100000D03*
X247300000Y-194100000D03*
%TO.N,Carry in*%
X255397500Y-137150000D03*
X278397500Y-134950000D03*
%TO.N,ALU FLAG C*%
X247200000Y-201700000D03*
X64600000Y-134700000D03*
X349997500Y-214650000D03*
X352297500Y-215950000D03*
%TO.N,AND*%
X347897500Y-199250000D03*
X227998000Y-132000000D03*
X305297500Y-141450000D03*
%TO.N,ALU FLAG Z*%
X247600000Y-190300000D03*
X64700000Y-119500000D03*
%TO.N,RS*%
X228399000Y-129300000D03*
X201200000Y-128100000D03*
X345238500Y-187076250D03*
X301597500Y-155150000D03*
X343797500Y-187050000D03*
%TO.N,A ->ALU B*%
X267900000Y-81500000D03*
X270450000Y-35437500D03*
X265850000Y-53737500D03*
X203300000Y-161500000D03*
%TO.N,ALU B = FF*%
X227400000Y-118300000D03*
X201800000Y-123400000D03*
X223395000Y-118400000D03*
X317450000Y-106737500D03*
%TO.N,READ A*%
X203200000Y-203400000D03*
X239100000Y-67700000D03*
%TO.N,C ->ALU A*%
X225799000Y-116800000D03*
X308449000Y-36900000D03*
X203500000Y-172500000D03*
X227400000Y-116800000D03*
X315750000Y-55137500D03*
X314500000Y-105000000D03*
X317300000Y-86500000D03*
%TO.N,D ->ALU A*%
X203100000Y-167500000D03*
X225398000Y-119800000D03*
X347850000Y-55437500D03*
X349100000Y-102300000D03*
X345350000Y-34791968D03*
X227400000Y-119800000D03*
%TO.N,B ->ALU B*%
X302400000Y-35487500D03*
X224200000Y-100000000D03*
X227500000Y-100000000D03*
X299800000Y-81500000D03*
X297762500Y-53637500D03*
X203200000Y-156600000D03*
%TO.N,B ->ALU A*%
X227400000Y-98600000D03*
X203300000Y-177500000D03*
X284250000Y-38337500D03*
X282600000Y-87000000D03*
X226200000Y-98600000D03*
X283750000Y-55337500D03*
%TO.N,A ->ALU A*%
X253100000Y-86000000D03*
X250545532Y-54737500D03*
X248500000Y-35200000D03*
X203300000Y-182600000D03*
%TO.N,READ D*%
X203100000Y-188300000D03*
X242900000Y-67900000D03*
%TO.N,READ C*%
X242300000Y-68465687D03*
X203200000Y-193400000D03*
%TO.N,C ->ALU B*%
X334750000Y-35137500D03*
X323500000Y-102400000D03*
X223796000Y-113600000D03*
X331500000Y-86300000D03*
X329750000Y-53737500D03*
X227400000Y-113500000D03*
X203400000Y-151500000D03*
%TO.N,READ B*%
X241700000Y-69062335D03*
X203200000Y-198500000D03*
%TO.N,D ->ALU B*%
X203300000Y-146300000D03*
X223395000Y-121000000D03*
X227400000Y-121000000D03*
X364100000Y-91300000D03*
X362250000Y-54637500D03*
X366250000Y-35637500D03*
%TO.N,REG Read*%
X212000000Y-204300000D03*
X179200000Y-146037500D03*
%TO.N,REG -> ALU B*%
X212200000Y-162500000D03*
X177900000Y-156037500D03*
%TO.N,REG -> ALU A*%
X212200000Y-183600000D03*
X178000000Y-151037500D03*
%TO.N,READ FALG*%
X96200000Y-110200000D03*
X60223718Y-119124000D03*
X60223718Y-128124000D03*
X65200000Y-113424000D03*
X60223718Y-123624000D03*
X60223718Y-115000000D03*
X169300000Y-160100000D03*
X60223718Y-132477000D03*
%TO.N,Store Address ++*%
X147301000Y-47511500D03*
X192324000Y-47511500D03*
X49500000Y-44600000D03*
X142824000Y-47511500D03*
X196824000Y-47511500D03*
X47550000Y-49450000D03*
X156324000Y-47511500D03*
X160824000Y-47511500D03*
X187801000Y-47511500D03*
X56500000Y-165800000D03*
X151801000Y-47511500D03*
X201301000Y-47511500D03*
X183301000Y-47511500D03*
X174324000Y-47511500D03*
X169801000Y-47511500D03*
X178824000Y-47511500D03*
D13*
X134876000Y-47511500D03*
D12*
X205801000Y-47511500D03*
X165301000Y-47511500D03*
X138324000Y-47511500D03*
%TO.N,ADR++ 0*%
X84500000Y-92000000D03*
X138100000Y-51600000D03*
%TO.N,ADR++ 1*%
X142500000Y-51600000D03*
X92600000Y-92100000D03*
%TO.N,ADR++ 2*%
X147163235Y-51563235D03*
X100600000Y-92100000D03*
%TO.N,ADR++ 3*%
X151700000Y-51500000D03*
X108600000Y-92100000D03*
%TO.N,ADR++ 4*%
X156200000Y-51500000D03*
X116649000Y-92200000D03*
%TO.N,ADR++ 5*%
X160500000Y-51500000D03*
X124600000Y-92000000D03*
%TO.N,ADR++ 6*%
X132649000Y-92000000D03*
X165100000Y-51500000D03*
%TO.N,ADR++ 7*%
X140600000Y-92000000D03*
X169500000Y-51500000D03*
%TO.N,ADR++ 8*%
X148600000Y-91900000D03*
X173800000Y-51600000D03*
%TO.N,ADR++ 9*%
X178700000Y-51400000D03*
X156500000Y-92000000D03*
%TO.N,ADR++ 10*%
X183100000Y-51500000D03*
X164500000Y-92000000D03*
%TO.N,ADR++ 11*%
X172500000Y-92100000D03*
X187500000Y-51600000D03*
%TO.N,ADR++ 12*%
X180500000Y-92100000D03*
X192100000Y-51500000D03*
%TO.N,ADR++ 13*%
X188600000Y-92000000D03*
X196700000Y-51400000D03*
%TO.N,ADR++ 14*%
X195981250Y-92418750D03*
X201000000Y-51600000D03*
%TO.N,ADR++ 15*%
X205400000Y-51600000D03*
X204500000Y-92100000D03*
%TO.N,TEMP ADR 0*%
X138276000Y-57700000D03*
X60200000Y-60000000D03*
%TO.N,Net-(Q170-G)*%
X156276000Y-55811500D03*
X142776000Y-55811500D03*
X192276000Y-55811500D03*
X151776000Y-55811500D03*
X178776000Y-55811500D03*
X147276000Y-55811500D03*
D13*
X133876000Y-55811500D03*
D12*
X165276000Y-55811500D03*
X138276000Y-55811500D03*
X183276000Y-55811500D03*
X201276000Y-55811500D03*
X187776000Y-55811500D03*
X169776000Y-55811500D03*
X205801000Y-55811500D03*
X160776000Y-55811500D03*
X174276000Y-55811500D03*
X196776000Y-55811500D03*
%TO.N,TEMP ADR 1*%
X142776000Y-57700000D03*
X64700000Y-59900000D03*
%TO.N,STORED ADR 15*%
X127700000Y-51600000D03*
%TO.N,STORED ADR 14*%
X123100000Y-51600000D03*
%TO.N,STORED ADR 13*%
X118700000Y-51500000D03*
%TO.N,STORED ADR 12*%
X114200000Y-51500000D03*
%TO.N,STORED ADR 11*%
X109600000Y-51600000D03*
%TO.N,STORED ADR 10*%
X105100000Y-51600000D03*
%TO.N,STORED ADR 9*%
X100800000Y-51600000D03*
%TO.N,STORED ADR 8*%
X96000000Y-51600000D03*
%TO.N,STORED ADR 7*%
X91600000Y-51700000D03*
%TO.N,STORED ADR 6*%
X87000000Y-51600000D03*
%TO.N,STORED ADR 5*%
X82600000Y-51600000D03*
%TO.N,STORED ADR 4*%
X78100000Y-51600000D03*
%TO.N,STORED ADR 3*%
X73600000Y-51600000D03*
%TO.N,STORED ADR 2*%
X69100000Y-51600000D03*
%TO.N,STORED ADR 1*%
X64600000Y-51600000D03*
%TO.N,STORED ADR 0*%
X59900000Y-51600000D03*
%TO.N,Net-(Q204-G)*%
X200200000Y-86700000D03*
X194993750Y-94606250D03*
%TO.N,Net-(Q205-G)*%
X192200000Y-86700000D03*
X186993750Y-94606250D03*
%TO.N,Net-(Q206-G)*%
X184200000Y-86800000D03*
X178993750Y-94606250D03*
%TO.N,Net-(Q207-G)*%
X176200000Y-86700000D03*
X170993750Y-94606250D03*
%TO.N,Net-(Q208-G)*%
X168100000Y-86900000D03*
X162993750Y-94606250D03*
%TO.N,Net-(Q209-G)*%
X154993750Y-94606250D03*
X160100000Y-86600000D03*
%TO.N,Net-(Q210-G)*%
X146993750Y-94606250D03*
X152000000Y-86700000D03*
%TO.N,Net-(Q211-G)*%
X144100000Y-86600000D03*
X138993750Y-94606250D03*
%TO.N,Net-(Q212-G)*%
X135000000Y-84000000D03*
X131043750Y-94656250D03*
%TO.N,Net-(Q213-G)*%
X127000000Y-84000000D03*
X123000000Y-94700000D03*
%TO.N,Net-(Q214-G)*%
X114993750Y-94606250D03*
X120529016Y-83529016D03*
%TO.N,Net-(Q215-G)*%
X106993750Y-94606250D03*
X112329016Y-83729016D03*
%TO.N,Net-(Q216-G)*%
X98993750Y-94606250D03*
X104579016Y-83479016D03*
%TO.N,Net-(Q217-G)*%
X96906250Y-84106250D03*
X91100000Y-94700000D03*
%TO.N,Net-(Q218-G)*%
X88200000Y-86900000D03*
X83043750Y-94656250D03*
%TO.N,Read From stored Address*%
X118999000Y-47511500D03*
X73852000Y-47511500D03*
X81500000Y-167000000D03*
X82999000Y-47511500D03*
X69352000Y-47511500D03*
X96352000Y-47511500D03*
X127852000Y-47511500D03*
X80745984Y-83245984D03*
D13*
X57076000Y-47511500D03*
D12*
X123352000Y-47511500D03*
X87352000Y-47511500D03*
X78352000Y-47511500D03*
X109852000Y-47511500D03*
X91852000Y-47511500D03*
X64852000Y-47511500D03*
X105352000Y-47511500D03*
X100852000Y-47511500D03*
X114499000Y-47511500D03*
%TO.N,TEMP ADR 2*%
X69200000Y-60000000D03*
X147276000Y-57700000D03*
%TO.N,TEMP ADR 3*%
X151776000Y-57700000D03*
X73600000Y-60000000D03*
%TO.N,TEMP ADR 4*%
X156276000Y-57700000D03*
X78200000Y-60100000D03*
%TO.N,TEMP ADR 5*%
X160776000Y-57700000D03*
X82700000Y-60000000D03*
%TO.N,TEMP ADR 6*%
X165276000Y-57700000D03*
X87300000Y-60100000D03*
%TO.N,TEMP ADR 7*%
X91800000Y-60100000D03*
X169776000Y-57700000D03*
%TO.N,TEMP ADR 8*%
X174276000Y-57700000D03*
X96352000Y-60100000D03*
%TO.N,TEMP ADR 9*%
X100800000Y-60100000D03*
X178776000Y-57700000D03*
%TO.N,TEMP ADR 10*%
X105352000Y-60100000D03*
X183276000Y-57700000D03*
%TO.N,TEMP ADR 11*%
X187776000Y-57700000D03*
X109852000Y-60000000D03*
%TO.N,TEMP ADR 12*%
X192276000Y-57700000D03*
X114476000Y-60200000D03*
%TO.N,TEMP ADR 13*%
X118976000Y-60100000D03*
X196776000Y-57700000D03*
%TO.N,TEMP ADR 14*%
X123400000Y-60200000D03*
X201276000Y-57700000D03*
%TO.N,TEMP ADR 15*%
X202987028Y-56511500D03*
X127976000Y-60000000D03*
%TO.N,NEXT ADR 0*%
X138100000Y-60200000D03*
%TO.N,NEXT ADR 1*%
X142500000Y-60100000D03*
%TO.N,NEXT ADR 2*%
X147000000Y-60300000D03*
%TO.N,NEXT ADR 3*%
X151776000Y-60500000D03*
%TO.N,NEXT ADR 4*%
X156200000Y-60600000D03*
%TO.N,NEXT ADR 5*%
X160700000Y-60600000D03*
%TO.N,NEXT ADR 6*%
X165200000Y-60500000D03*
%TO.N,NEXT ADR 7*%
X169600000Y-60400000D03*
%TO.N,NEXT ADR 8*%
X174700000Y-64700000D03*
%TO.N,NEXT ADR 9*%
X179400000Y-64600000D03*
%TO.N,NEXT ADR 10*%
X183800000Y-64600000D03*
%TO.N,NEXT ADR 11*%
X188400000Y-64400000D03*
%TO.N,NEXT ADR 12*%
X192700000Y-64300000D03*
%TO.N,NEXT ADR 13*%
X197100000Y-64000000D03*
%TO.N,NEXT ADR 14*%
X201900000Y-64500000D03*
%TO.N,NEXT ADR 15*%
X206300000Y-64800000D03*
%TO.N,Net-(Q332-G)*%
X114352000Y-55711500D03*
X127852000Y-55711500D03*
X64852000Y-55711500D03*
X73852000Y-55711500D03*
X91852000Y-55711500D03*
X78376000Y-55711500D03*
X100852000Y-55711500D03*
X105352000Y-55711500D03*
X69352000Y-55711500D03*
X82852000Y-55711500D03*
X87352000Y-55711500D03*
X118852000Y-55711500D03*
X96352000Y-55711500D03*
X60276000Y-55711500D03*
D13*
X55976000Y-55711500D03*
D12*
X123352000Y-55711500D03*
X109852000Y-55711500D03*
%TO.N,TIME STEP 0*%
X95200000Y-109800000D03*
X43500000Y-107500000D03*
X145800000Y-28800000D03*
%TO.N,!TIME STEP 0*%
X82375000Y-121400000D03*
X80800000Y-162000000D03*
%TO.N,TIME STEP IN 1*%
X83000000Y-135900000D03*
%TO.N,TIME STEP 1*%
X78500000Y-120300000D03*
X63100000Y-149200000D03*
X77100000Y-151399000D03*
%TO.N,TIME STEP IN 2*%
X75700000Y-135600000D03*
X56200000Y-162400000D03*
%TO.N,FLAG N*%
X73123718Y-116800000D03*
%TO.N,Net-(Q418-G)*%
X69223718Y-132300000D03*
X69223718Y-123200000D03*
X69223718Y-114900000D03*
X69223718Y-127800000D03*
X69223718Y-118600000D03*
%TO.N,FLAG STORE N*%
X54400000Y-117600000D03*
%TO.N,FLAG Z*%
X72823718Y-117900000D03*
X162400000Y-118850000D03*
X118430000Y-117070000D03*
%TO.N,FLAG STORE Z*%
X54400000Y-122000000D03*
%TO.N,FLAG U*%
X73312718Y-122700000D03*
%TO.N,FLAG STORE U*%
X54600000Y-126500000D03*
%TO.N,FLAG O*%
X191200000Y-103500000D03*
X73123718Y-127200000D03*
%TO.N,FLAG STORE O*%
X54600000Y-131100000D03*
%TO.N,FLAG C*%
X73223718Y-131300000D03*
X170550000Y-123850000D03*
X151200000Y-104500000D03*
X201400000Y-138400000D03*
%TO.N,FLAG STORE C*%
X54600000Y-135700000D03*
%TO.N,Read Write ins*%
X52300000Y-157300000D03*
X73200000Y-144100000D03*
X52800000Y-145475000D03*
X72908058Y-142008058D03*
X53800000Y-168000000D03*
%TO.N,Commit jump*%
X51900000Y-163100000D03*
X132100000Y-111526000D03*
%TO.N,TIME STEP IN 0*%
X72300000Y-143500000D03*
%TO.N,TIME STEP 2*%
X84400000Y-159500000D03*
X85100000Y-151276000D03*
X99800000Y-117700000D03*
%TO.N,TIME STEP 0or1or2*%
X90300000Y-147800000D03*
X89100000Y-152500000D03*
%TO.N,TIME STEP 0or1*%
X63000000Y-152300000D03*
X66200000Y-147800000D03*
%TO.N,Main bus -> bus out*%
X226950000Y-56062500D03*
X226850000Y-47262500D03*
X227900000Y-75900000D03*
X226950000Y-51562500D03*
X226950000Y-33762500D03*
X226850000Y-65162500D03*
X226850000Y-60562500D03*
X226850000Y-38162500D03*
X131500000Y-120800000D03*
X226950000Y-42562500D03*
%TO.N,Net-(Q520-D)*%
X234900000Y-38000000D03*
X231500000Y-37900000D03*
%TO.N,Net-(Q523-D)*%
X234900000Y-42500000D03*
X231600000Y-42500000D03*
%TO.N,Net-(Q526-D)*%
X231600000Y-47000000D03*
X234900000Y-47000000D03*
%TO.N,Net-(Q529-D)*%
X234900000Y-51500000D03*
X231500000Y-51500000D03*
%TO.N,Net-(Q532-D)*%
X234900000Y-56000000D03*
X231500000Y-56000000D03*
%TO.N,Net-(Q535-D)*%
X231500000Y-60500000D03*
X234900000Y-60500000D03*
%TO.N,Net-(Q538-D)*%
X234900000Y-65000000D03*
X231600000Y-65000000D03*
%TO.N,bus out -> Main bus*%
X213450000Y-63862500D03*
X213350000Y-36862500D03*
X75012500Y-155225000D03*
X213350000Y-45862500D03*
X213450000Y-59262500D03*
X47150000Y-50950000D03*
X213350000Y-41262500D03*
X213450000Y-54762500D03*
X213450000Y-50462500D03*
X47100000Y-45900000D03*
X213850000Y-33762500D03*
%TO.N,Net-(Q544-D)*%
X218400000Y-38562500D03*
X209900000Y-38000000D03*
%TO.N,Net-(Q547-D)*%
X209900000Y-42500000D03*
X218400000Y-43062500D03*
%TO.N,Net-(Q550-D)*%
X209900000Y-47000000D03*
X218400000Y-47562500D03*
%TO.N,Net-(Q553-D)*%
X218400000Y-52062500D03*
X209900000Y-51500000D03*
%TO.N,Net-(Q556-D)*%
X218400000Y-56562500D03*
X209900000Y-56000000D03*
%TO.N,Net-(Q559-D)*%
X218400000Y-61062500D03*
X209900000Y-60500000D03*
%TO.N,Net-(Q562-D)*%
X218400000Y-65562500D03*
X209900000Y-65000000D03*
%TO.N,AA1*%
X271803281Y-138215781D03*
X278937500Y-138150000D03*
X264737500Y-143950000D03*
X247050000Y-115950000D03*
X249837500Y-134750000D03*
%TO.N,AA2*%
X271853281Y-149165781D03*
X249737500Y-138550000D03*
X278937500Y-149150000D03*
X264737500Y-154950000D03*
X245825000Y-115925000D03*
%TO.N,AA3*%
X278937500Y-160150000D03*
X249737500Y-142250000D03*
X271753281Y-160265781D03*
X244550000Y-115950000D03*
X264737500Y-165950000D03*
%TO.N,AA4*%
X278937500Y-171150000D03*
X249837500Y-145850000D03*
X243350000Y-115950000D03*
X271753281Y-171265781D03*
X264737500Y-176950000D03*
%TO.N,AA5*%
X249737500Y-149650000D03*
X264737500Y-187850000D03*
X271770623Y-182248438D03*
X242050000Y-115950000D03*
X278937500Y-182150000D03*
%TO.N,AA6*%
X278937500Y-193150000D03*
X264737500Y-198950000D03*
X271803281Y-193215781D03*
X241200000Y-115600000D03*
X249737500Y-153450000D03*
%TO.N,AA7*%
X249737500Y-157150000D03*
X241229250Y-114329250D03*
X265097500Y-214750000D03*
X278937500Y-204150000D03*
X354637500Y-169750000D03*
X271803281Y-204215781D03*
X348397500Y-168850000D03*
%TO.N,AB0*%
X345797500Y-181050000D03*
X342697500Y-130450000D03*
X279200000Y-109300000D03*
X243517500Y-127270000D03*
X251737500Y-119050000D03*
%TO.N,AB1*%
X244367500Y-127420000D03*
X249137500Y-122656000D03*
X283000000Y-109100000D03*
%TO.N,AB2*%
X244524393Y-128204467D03*
X286800000Y-109200000D03*
X250737500Y-121950000D03*
%TO.N,AB3*%
X245467500Y-128220000D03*
X290600000Y-109100000D03*
X252137500Y-121550000D03*
%TO.N,AB4*%
X294400000Y-109100000D03*
X253513235Y-121125735D03*
X245517500Y-129070000D03*
%TO.N,AB5*%
X246515643Y-128971857D03*
X298200000Y-109100000D03*
X254737500Y-120750000D03*
%TO.N,AB6*%
X302000000Y-109100000D03*
X246879047Y-129684554D03*
X256037500Y-120350000D03*
%TO.N,AB7*%
X305800000Y-109100000D03*
X257537500Y-119850000D03*
X348716516Y-161129016D03*
X247667500Y-129820000D03*
X326797500Y-151450000D03*
%TO.N,Net-(Q1133-G)*%
X302137500Y-157650000D03*
X270937500Y-131650000D03*
%TO.N,Net-(Q1135-G)*%
X302137500Y-169550000D03*
X289737500Y-125450000D03*
%TO.N,Net-(Q913-D)*%
X282837500Y-131450000D03*
X289537500Y-132450000D03*
%TO.N,Net-(Q914-D)*%
X278937500Y-143350000D03*
X288737500Y-131950000D03*
%TO.N,Net-(Q1129-G)*%
X277837500Y-126550000D03*
X302137500Y-133450000D03*
%TO.N,Net-(Q1145-G)*%
X306337500Y-158050000D03*
X270937500Y-142650000D03*
%TO.N,Net-(Q1147-G)*%
X289937500Y-136650000D03*
X306337500Y-169850000D03*
%TO.N,Net-(Q940-D)*%
X289537500Y-143450000D03*
X282737500Y-142450000D03*
%TO.N,Net-(Q941-D)*%
X278937500Y-154350000D03*
X288737500Y-142950000D03*
%TO.N,Net-(Q1149-G)*%
X297437500Y-142450000D03*
X296037500Y-142450000D03*
%TO.N,Net-(Q1127-G)*%
X302137500Y-125150000D03*
X264237500Y-128150000D03*
%TO.N,Net-(Q1141-G)*%
X306337500Y-133850000D03*
X277637500Y-137450000D03*
%TO.N,Net-(Q1139-G)*%
X264437500Y-139150000D03*
X306337500Y-125150000D03*
%TO.N,Net-(Q1157-G)*%
X270937500Y-153650000D03*
X310437500Y-158450000D03*
%TO.N,Net-(Q1159-G)*%
X310537500Y-170250000D03*
X289937500Y-147750000D03*
%TO.N,Net-(Q965-D)*%
X282837500Y-153450000D03*
X289537500Y-154450000D03*
%TO.N,Net-(Q966-D)*%
X288637500Y-153850000D03*
X278937500Y-165350000D03*
%TO.N,Net-(Q1161-G)*%
X296037500Y-152250000D03*
X297838500Y-152250000D03*
%TO.N,Net-(Q1151-G)*%
X310537500Y-125150000D03*
X264437500Y-150150000D03*
%TO.N,Net-(Q1153-G)*%
X277737500Y-148350000D03*
X310537500Y-134250000D03*
%TO.N,Net-(Q1163-G)*%
X314737500Y-125150000D03*
X264337500Y-161150000D03*
%TO.N,Net-(Q1169-G)*%
X270937500Y-164650000D03*
X314637500Y-158850000D03*
%TO.N,Net-(Q1002-G)*%
X314637500Y-170650000D03*
X289937500Y-158750000D03*
%TO.N,Net-(Q989-D)*%
X282837500Y-164450000D03*
X289537500Y-165550000D03*
%TO.N,Net-(Q1017-G)*%
X288737500Y-164950000D03*
X278937500Y-176350000D03*
%TO.N,Net-(Q1173-G)*%
X298337500Y-164550000D03*
X296137500Y-164450000D03*
%TO.N,Net-(Q1000-D)*%
X277637500Y-159274000D03*
X314737500Y-134650000D03*
%TO.N,Net-(Q1008-D)*%
X318937500Y-125150000D03*
X264437500Y-172150000D03*
%TO.N,Net-(Q1014-S)*%
X318837500Y-159250000D03*
X270937500Y-175650000D03*
%TO.N,Net-(Q1016-D)*%
X319037500Y-171150000D03*
X289937500Y-169750000D03*
%TO.N,Net-(Q1018-D)*%
X289537500Y-176550000D03*
X282837500Y-175450000D03*
%TO.N,Net-(Q1019-D)*%
X278937500Y-187350000D03*
X288637500Y-175950000D03*
%TO.N,Net-(Q1021-D)*%
X296037500Y-174250000D03*
X298640500Y-172150000D03*
%TO.N,Net-(Q1025-D)*%
X323137500Y-125150000D03*
X264037500Y-183150000D03*
%TO.N,Net-(Q1028-D)*%
X318937500Y-135050000D03*
X277637500Y-170274000D03*
%TO.N,Net-(Q1035-D)*%
X264037500Y-194150000D03*
X327337500Y-125150000D03*
%TO.N,Net-(Q1036-S)*%
X323037500Y-159650000D03*
X270937500Y-186650000D03*
%TO.N,Net-(Q1038-D)*%
X289937500Y-180750000D03*
X323137500Y-171550000D03*
%TO.N,Net-(Q1040-D)*%
X289537500Y-187550000D03*
X282837500Y-186450000D03*
%TO.N,Net-(Q1041-D)*%
X288737500Y-186950000D03*
X278937500Y-198350000D03*
%TO.N,Net-(Q1043-D)*%
X299041500Y-180550000D03*
X295937500Y-185250000D03*
%TO.N,Net-(Q1045-G)*%
X304437500Y-140550000D03*
X304437500Y-152450000D03*
X304437500Y-176650000D03*
X304537500Y-128650000D03*
X304437500Y-194750000D03*
X304437500Y-164550000D03*
X304437500Y-188650000D03*
%TO.N,Net-(Q1046-G)*%
X345737500Y-193050000D03*
X343697500Y-193050000D03*
%TO.N,Net-(Q1050-D)*%
X277637500Y-181274000D03*
X323137500Y-135450000D03*
%TO.N,Net-(Q1055-G)*%
X308637500Y-164650000D03*
X308637500Y-152650000D03*
X308637500Y-194750000D03*
X308737500Y-128750000D03*
X308637500Y-188650000D03*
X308737500Y-140550000D03*
X308637500Y-176650000D03*
%TO.N,Net-(Q1057-D)*%
X331537500Y-125150000D03*
X264237500Y-205150000D03*
%TO.N,Net-(Q1058-G)*%
X312837500Y-194750000D03*
X312837500Y-164650000D03*
X312837500Y-128550000D03*
X312837500Y-176650000D03*
X312837500Y-188650000D03*
X312837500Y-140550000D03*
X312837500Y-152650000D03*
%TO.N,Net-(Q1060-G)*%
X317037500Y-176650000D03*
X317037500Y-188650000D03*
X317037500Y-164750000D03*
X317037500Y-194750000D03*
X317037500Y-152750000D03*
X317137500Y-128550000D03*
X317037500Y-140550000D03*
%TO.N,Net-(Q1063-S)*%
X270937500Y-197650000D03*
X327237500Y-160050000D03*
%TO.N,Net-(Q1065-D)*%
X327337500Y-171850000D03*
X289937500Y-191650000D03*
%TO.N,Net-(Q1067-D)*%
X289537500Y-198550000D03*
X282737500Y-197550000D03*
%TO.N,Net-(Q1068-D)*%
X288737500Y-197950000D03*
X278937500Y-209350000D03*
%TO.N,Net-(Q1070-D)*%
X299442500Y-181651470D03*
X296137500Y-196850000D03*
%TO.N,Net-(Q1071-G)*%
X321337500Y-128650000D03*
X321237500Y-194750000D03*
X321237500Y-164650000D03*
X321237500Y-140550000D03*
X321237500Y-176650000D03*
X321237500Y-188550000D03*
X321237500Y-152650000D03*
%TO.N,Net-(Q1074-G)*%
X325537500Y-128750000D03*
X325437500Y-164550000D03*
X325437500Y-176650000D03*
X325437500Y-194750000D03*
X325437500Y-152650000D03*
X325437500Y-188450000D03*
X325437500Y-140650000D03*
%TO.N,Net-(Q1078-D)*%
X277637500Y-192274000D03*
X327337500Y-135850000D03*
%TO.N,Net-(Q1084-G)*%
X329637500Y-176550000D03*
X329637500Y-194750000D03*
X329637500Y-164550000D03*
X329737500Y-128550000D03*
X329637500Y-140650000D03*
X329637500Y-152550000D03*
X329637500Y-188650000D03*
%TO.N,Net-(Q1087-G)*%
X333837500Y-140750000D03*
X333837500Y-164550000D03*
X333837500Y-188650000D03*
X333837500Y-194750000D03*
X333837500Y-176550000D03*
X333837500Y-128550000D03*
%TO.N,Net-(Q1091-S)*%
X331437500Y-160450000D03*
X270937500Y-208650000D03*
%TO.N,Net-(Q1093-D)*%
X289937500Y-202750000D03*
X331437500Y-172550000D03*
%TO.N,Net-(Q1095-D)*%
X289537500Y-209750000D03*
X282837500Y-208450000D03*
%TO.N,Net-(Q1096-D)*%
X288737500Y-208950000D03*
X348797500Y-208050000D03*
X288697500Y-215750000D03*
%TO.N,Net-(Q1098-D)*%
X300763530Y-182123970D03*
X296637500Y-201950000D03*
%TO.N,Net-(Q1102-D)*%
X331537500Y-136250000D03*
X277637500Y-203274000D03*
%TO.N,Net-(J21-Pin_17)*%
X268350000Y-67237500D03*
X250650000Y-69937500D03*
%TO.N,Net-(J21-Pin_21)*%
X268350000Y-82537500D03*
X250550000Y-84637500D03*
%TO.N,Net-(J21-Pin_14)*%
X268350000Y-55837500D03*
X250550000Y-58337500D03*
%TO.N,Net-(J21-Pin_19)*%
X268250000Y-74837500D03*
X250550000Y-77237500D03*
%TO.N,Net-(J21-Pin_15)*%
X250650000Y-62337500D03*
X268350000Y-59637500D03*
%TO.N,Net-(J21-Pin_20)*%
X250650000Y-81037500D03*
X268250000Y-78637500D03*
%TO.N,Net-(J21-Pin_16)*%
X250450000Y-66437500D03*
X268350000Y-63337500D03*
%TO.N,Net-(J21-Pin_18)*%
X250650000Y-73537500D03*
X268250000Y-71137500D03*
%TO.N,Net-(J22-Pin_20)*%
X300350000Y-78637500D03*
X282650000Y-80937500D03*
%TO.N,Net-(J22-Pin_16)*%
X300350000Y-63537500D03*
X282750000Y-65737500D03*
%TO.N,Net-(J22-Pin_14)*%
X300450000Y-55837500D03*
X282650000Y-58237500D03*
%TO.N,Net-(J22-Pin_19)*%
X300250000Y-74937500D03*
X282550000Y-77137500D03*
%TO.N,Net-(J22-Pin_15)*%
X300450000Y-59737500D03*
X282650000Y-61936500D03*
%TO.N,Net-(J22-Pin_17)*%
X282550000Y-69637500D03*
X300350000Y-67337500D03*
%TO.N,Net-(J22-Pin_18)*%
X300250000Y-71137500D03*
X282650000Y-73337500D03*
%TO.N,Net-(J22-Pin_21)*%
X282650000Y-84837500D03*
X300350000Y-82437500D03*
%TO.N,Net-(J23-Pin_17)*%
X314750000Y-69637500D03*
X332350000Y-67237500D03*
%TO.N,Net-(J23-Pin_15)*%
X314650000Y-61937500D03*
X332550000Y-59637500D03*
%TO.N,Net-(J23-Pin_21)*%
X314650000Y-84737500D03*
X332350000Y-82537500D03*
%TO.N,Net-(J23-Pin_18)*%
X314750000Y-73437500D03*
X332350000Y-71137500D03*
%TO.N,Net-(J23-Pin_14)*%
X332350000Y-55737500D03*
X314650000Y-58237500D03*
%TO.N,Net-(J23-Pin_19)*%
X332250000Y-74837500D03*
X314650000Y-77237500D03*
%TO.N,Net-(J23-Pin_16)*%
X314550000Y-65737500D03*
X332450000Y-63437500D03*
%TO.N,Net-(J23-Pin_20)*%
X314650000Y-80937500D03*
X332450000Y-78637500D03*
%TO.N,Net-(J24-Pin_16)*%
X364350000Y-63437500D03*
X346750000Y-65837500D03*
%TO.N,Net-(J24-Pin_18)*%
X364250000Y-71037500D03*
X346650000Y-73437500D03*
%TO.N,Net-(J24-Pin_20)*%
X364350000Y-78437500D03*
X346750000Y-80937500D03*
%TO.N,Net-(J24-Pin_21)*%
X364250000Y-82337500D03*
X346550000Y-84837500D03*
%TO.N,Net-(J24-Pin_15)*%
X364616443Y-59852087D03*
X346650000Y-62137500D03*
%TO.N,Net-(J24-Pin_17)*%
X346750000Y-69737500D03*
X364350000Y-67237500D03*
%TO.N,Net-(J24-Pin_19)*%
X364350000Y-74737500D03*
X346750000Y-77337500D03*
%TO.N,Net-(J24-Pin_14)*%
X364350000Y-55937500D03*
X346650000Y-58337500D03*
%TO.N,Net-(Q636-G)*%
X300450000Y-91335726D03*
X309350000Y-57137500D03*
X245550000Y-56837500D03*
X269440625Y-91346875D03*
X277350000Y-57037500D03*
%TO.N,Net-(Q637-G)*%
X300962149Y-91950305D03*
X277350000Y-60837500D03*
X309550000Y-60937500D03*
X269978502Y-91946875D03*
X265600000Y-93938500D03*
X245050000Y-60837500D03*
%TO.N,Net-(Q638-G)*%
X261750000Y-94538500D03*
X244649000Y-64637500D03*
X277550000Y-64837500D03*
X270372593Y-92660057D03*
X301450000Y-92633496D03*
X309550000Y-64737500D03*
%TO.N,Net-(Q639-G)*%
X309450000Y-68537500D03*
X270929177Y-93234703D03*
X257850000Y-95138500D03*
X301961542Y-93248581D03*
X277450000Y-68437500D03*
X244248000Y-68337500D03*
%TO.N,Net-(Q640-G)*%
X243847000Y-72137500D03*
X277450000Y-72337500D03*
X271357146Y-93935706D03*
X309550000Y-72437500D03*
X254100000Y-95837500D03*
X302450000Y-93934635D03*
%TO.N,Net-(Q641-G)*%
X309550000Y-76137500D03*
X277550000Y-76137500D03*
X302977054Y-94536477D03*
X250350000Y-96437500D03*
X271886277Y-94535726D03*
X243446000Y-75937500D03*
%TO.N,Net-(Q642-G)*%
X303550000Y-95136477D03*
X272414575Y-95136477D03*
X243045000Y-79931500D03*
X246850000Y-96937500D03*
X277450000Y-79937500D03*
X309650000Y-79937500D03*
%TO.N,Net-(Q643-G)*%
X304150000Y-95736477D03*
X242644000Y-83600000D03*
X242700000Y-97575000D03*
X272951023Y-95736477D03*
X309650000Y-83737500D03*
X277550000Y-83837500D03*
%TO.N,Net-(Q1453-D)*%
X337450000Y-57037500D03*
X368550000Y-58237500D03*
X305450000Y-57037500D03*
X341950000Y-96537500D03*
X309950000Y-96537500D03*
X278250000Y-96537500D03*
X273450000Y-57037500D03*
%TO.N,Net-(Q1452-D)*%
X368450000Y-61937500D03*
X337450000Y-60937500D03*
X273450000Y-60937500D03*
X309450000Y-97172818D03*
X305450000Y-60937500D03*
X282050000Y-97172818D03*
X341450000Y-97172818D03*
%TO.N,Net-(Q1451-D)*%
X273450000Y-64737500D03*
X308950000Y-97937500D03*
X285850000Y-97937500D03*
X368450000Y-65737500D03*
X305450000Y-64737500D03*
X337450000Y-64737500D03*
X340950000Y-97937500D03*
%TO.N,Net-(Q1450-D)*%
X368450000Y-69537500D03*
X289650000Y-98637500D03*
X305450000Y-68537500D03*
X308350000Y-98637500D03*
X337450000Y-68537500D03*
X340350000Y-98637500D03*
X273450000Y-68537500D03*
%TO.N,Net-(Q1449-D)*%
X307750000Y-99337500D03*
X293450000Y-99337500D03*
X337450000Y-72337500D03*
X339750000Y-99337500D03*
X368450000Y-73337500D03*
X305450000Y-72337500D03*
X273450000Y-72337500D03*
%TO.N,Net-(Q651-G)*%
X339150000Y-100037500D03*
X297250000Y-100037500D03*
X368550000Y-77137500D03*
X305450000Y-76137500D03*
X307150000Y-100037500D03*
X273450000Y-76137500D03*
X337450000Y-76137500D03*
%TO.N,Net-(Q652-G)*%
X273450000Y-79937500D03*
X368450000Y-80937500D03*
X301050000Y-100772818D03*
X338450000Y-100772818D03*
X305450000Y-79937500D03*
X306450000Y-100772818D03*
X337450000Y-79937500D03*
%TO.N,Net-(Q653-G)*%
X337450000Y-83737500D03*
X337550000Y-101437500D03*
X368450000Y-84737500D03*
X304850000Y-101437500D03*
X305450000Y-83737500D03*
X273450000Y-83737500D03*
%TD*%
D14*
%TO.N,!BON*%
X135400000Y-119200000D02*
X88600000Y-166000000D01*
X88600000Y-166000000D02*
X88600000Y-174500000D01*
%TO.N,!BOZ*%
X133200000Y-130500000D02*
X144100000Y-119600000D01*
X93700000Y-174400000D02*
X133200000Y-134900000D01*
X144100000Y-119600000D02*
X149200000Y-119600000D01*
X133200000Y-134900000D02*
X133200000Y-130500000D01*
%TO.N,!BNZ*%
X135000000Y-134900000D02*
X135000000Y-131100000D01*
X163400000Y-119801000D02*
X163400000Y-120400000D01*
X163400000Y-120400000D02*
X162600000Y-121200000D01*
X145000000Y-121100000D02*
X149200000Y-121100000D01*
X135000000Y-131100000D02*
X145000000Y-121100000D01*
X98500000Y-171400000D02*
X135000000Y-134900000D01*
X98500000Y-174400000D02*
X98500000Y-171400000D01*
%TO.N,!BOO*%
X150300000Y-123900000D02*
X151500000Y-122700000D01*
X103300000Y-170900000D02*
X139000000Y-135200000D01*
X103300000Y-174300000D02*
X103300000Y-170900000D01*
X150300000Y-129132900D02*
X150300000Y-123900000D01*
X144232900Y-135200000D02*
X150300000Y-129132900D01*
X139000000Y-135200000D02*
X144232900Y-135200000D01*
%TO.N,!BNO*%
X109902000Y-175602000D02*
X123915043Y-175602000D01*
X184250057Y-109300000D02*
X193300000Y-109300000D01*
X108700000Y-174400000D02*
X109902000Y-175602000D01*
X137000000Y-162517043D02*
X137000000Y-156550057D01*
X123915043Y-175602000D02*
X137000000Y-162517043D01*
X137000000Y-156550057D02*
X184250057Y-109300000D01*
%TO.N,!BOU*%
X122501114Y-173851057D02*
X123551057Y-174901000D01*
X136599000Y-151875943D02*
X182900000Y-105574943D01*
X114448943Y-173851057D02*
X122501114Y-173851057D01*
X123551057Y-174901000D02*
X124048943Y-174901000D01*
X124048943Y-174901000D02*
X136599000Y-162350943D01*
X113700000Y-174600000D02*
X114448943Y-173851057D01*
X136599000Y-162350943D02*
X136599000Y-151875943D01*
X182900000Y-105574943D02*
X182900000Y-104200000D01*
%TO.N,!BNU*%
X144150000Y-135850000D02*
X150700000Y-129300000D01*
X113099000Y-174848943D02*
X113099000Y-174351057D01*
X139950000Y-135850000D02*
X144150000Y-135850000D01*
X166450057Y-104100000D02*
X169500000Y-104100000D01*
X118800000Y-174500000D02*
X118099000Y-175201000D01*
X118800000Y-157000000D02*
X139950000Y-135850000D01*
X150700000Y-125100000D02*
X157536500Y-118263500D01*
X118800000Y-168650057D02*
X118800000Y-157000000D01*
X157536500Y-118263500D02*
X157536500Y-113013557D01*
X157536500Y-113013557D02*
X166450057Y-104100000D01*
X150700000Y-129300000D02*
X150700000Y-125100000D01*
X118099000Y-175201000D02*
X113451057Y-175201000D01*
X113451057Y-175201000D02*
X113099000Y-174848943D01*
X113099000Y-174351057D02*
X118800000Y-168650057D01*
%TO.N,!BOC*%
X123800000Y-152750057D02*
X123800000Y-174300000D01*
X162300000Y-109100000D02*
X162300000Y-114250057D01*
X151300000Y-130100000D02*
X151300000Y-125250057D01*
X144924972Y-136475028D02*
X151300000Y-130100000D01*
X140075028Y-136475028D02*
X123800000Y-152750057D01*
X140075028Y-136475028D02*
X144924972Y-136475028D01*
X151300000Y-125250057D02*
X162300000Y-114250057D01*
%TO.N,!BNC*%
X107500000Y-142600000D02*
X92400000Y-142600000D01*
X146300000Y-103800000D02*
X107500000Y-142600000D01*
%TO.N,!Store*%
X133200000Y-149500000D02*
X135100000Y-147600000D01*
X130800000Y-149500000D02*
X133200000Y-149500000D01*
%TO.N,!MOV*%
X170300000Y-152500000D02*
X170300000Y-152800000D01*
%TO.N,Faling Edge*%
X45200000Y-178240000D02*
X39000000Y-184440000D01*
X45200000Y-109600000D02*
X45200000Y-131232900D01*
X47702000Y-109600000D02*
X48700000Y-108602000D01*
X44799000Y-164534500D02*
X45200000Y-164935500D01*
X45200000Y-164935500D02*
X45200000Y-178240000D01*
X48700000Y-108602000D02*
X48700000Y-102200000D01*
X57500000Y-100800000D02*
X59900000Y-98400000D01*
X50100000Y-100800000D02*
X57500000Y-100800000D01*
X44799000Y-131633900D02*
X44799000Y-164534500D01*
X48700000Y-102200000D02*
X50100000Y-100800000D01*
X45200000Y-131232900D02*
X44799000Y-131633900D01*
D15*
%TO.N,Rising Edge*%
X291462500Y-45297500D02*
X291500000Y-45260000D01*
X320860000Y-47900000D02*
X323500000Y-45260000D01*
X294140000Y-47900000D02*
X320860000Y-47900000D01*
X291500000Y-45260000D02*
X294140000Y-47900000D01*
X323500000Y-45260000D02*
X355500000Y-45260000D01*
X259550000Y-45297500D02*
X291462500Y-45297500D01*
D14*
%TO.N,Buss3*%
X34596000Y-162450000D02*
X34596000Y-162396000D01*
X34397000Y-162197000D02*
X34397000Y-143495700D01*
X34798000Y-163700000D02*
X34798000Y-174101000D01*
X32400000Y-141498700D02*
X32400000Y-131480000D01*
X34798000Y-174101000D02*
X34599000Y-174300000D01*
X34798000Y-162598000D02*
X34798000Y-163700000D01*
X34596000Y-162396000D02*
X34397000Y-162197000D01*
X34650000Y-162450000D02*
X34798000Y-162598000D01*
X34397000Y-143495700D02*
X32400000Y-141498700D01*
X32400000Y-131480000D02*
X29340000Y-128420000D01*
X34596000Y-162450000D02*
X34650000Y-162450000D01*
%TO.N,R{slash}W out*%
X46400000Y-165001300D02*
X50098700Y-168700000D01*
X46400000Y-164467100D02*
X46400000Y-165001300D01*
X50098700Y-168700000D02*
X63475000Y-168700000D01*
X46300000Y-164367100D02*
X46400000Y-164467100D01*
X46300000Y-132800000D02*
X46300000Y-164367100D01*
X63475000Y-168700000D02*
X68737500Y-163437500D01*
X46100000Y-132600000D02*
X46300000Y-132800000D01*
%TO.N,Buss2*%
X34798000Y-143329600D02*
X34798000Y-158598000D01*
X35199000Y-161400000D02*
X35199000Y-176601000D01*
X34798000Y-158598000D02*
X35000000Y-158800000D01*
X35199000Y-176601000D02*
X35000000Y-176800000D01*
X35199000Y-158999000D02*
X35199000Y-161400000D01*
X29340000Y-125880000D02*
X32800000Y-129340000D01*
X32800000Y-141331600D02*
X34798000Y-143329600D01*
X35000000Y-158800000D02*
X35199000Y-158999000D01*
X32800000Y-129340000D02*
X32800000Y-141331600D01*
D15*
%TO.N,rst*%
X293380000Y-38300000D02*
X321620000Y-38300000D01*
X321620000Y-38300000D02*
X323500000Y-40180000D01*
X291500000Y-40180000D02*
X293380000Y-38300000D01*
X259550000Y-40217500D02*
X291462500Y-40217500D01*
X291462500Y-40217500D02*
X291500000Y-40180000D01*
X323500000Y-40180000D02*
X355500000Y-40180000D01*
D14*
%TO.N,Buss0*%
X35799000Y-151600000D02*
X35600000Y-151401000D01*
X35799000Y-151600000D02*
X36001000Y-151802000D01*
X36001000Y-167199000D02*
X36000000Y-167200000D01*
X35600000Y-151401000D02*
X35600000Y-142997400D01*
X36000000Y-167200000D02*
X36000000Y-178900000D01*
X33602000Y-125062000D02*
X29340000Y-120800000D01*
X36001000Y-151802000D02*
X36001000Y-167199000D01*
X35600000Y-142997400D02*
X33602000Y-140999400D01*
X33602000Y-140999400D02*
X33602000Y-125062000D01*
X36000000Y-178900000D02*
X39000000Y-181900000D01*
%TO.N,Buss6*%
X33194000Y-143994000D02*
X33194000Y-168200000D01*
X33194000Y-168200000D02*
X33194000Y-172894000D01*
X31100000Y-137800000D02*
X31100000Y-141900000D01*
X31100000Y-141900000D02*
X33194000Y-143994000D01*
X29340000Y-136040000D02*
X31100000Y-137800000D01*
X33194000Y-172894000D02*
X33500000Y-173200000D01*
X33194000Y-167199000D02*
X33393000Y-167000000D01*
X33194000Y-168200000D02*
X33194000Y-167199000D01*
%TO.N,Buss7*%
X32600000Y-165000000D02*
X32600000Y-164206000D01*
X32600000Y-165000000D02*
X32600000Y-171007000D01*
X32600000Y-144000000D02*
X32600000Y-165000000D01*
X29340000Y-138580000D02*
X29340000Y-140740000D01*
X32600000Y-171007000D02*
X32793000Y-171200000D01*
X32600000Y-164206000D02*
X32594000Y-164200000D01*
X32793000Y-176893000D02*
X32800000Y-176900000D01*
X32793000Y-171200000D02*
X32793000Y-176893000D01*
X29340000Y-140740000D02*
X32600000Y-144000000D01*
%TO.N,Buss4*%
X34195000Y-165995000D02*
X33996000Y-165796000D01*
X34195000Y-166050000D02*
X34395000Y-166250000D01*
X34395000Y-171503000D02*
X34198000Y-171700000D01*
X34395000Y-166250000D02*
X34395000Y-171503000D01*
X31900000Y-141565800D02*
X31900000Y-133520000D01*
X33996000Y-165796000D02*
X33996000Y-143661800D01*
X34195000Y-166050000D02*
X34195000Y-165995000D01*
X33996000Y-143661800D02*
X31900000Y-141565800D01*
X31900000Y-133520000D02*
X29340000Y-130960000D01*
%TO.N,Buss5*%
X33794000Y-169594000D02*
X33994000Y-169394000D01*
X31500000Y-135660000D02*
X29340000Y-133500000D01*
X33994000Y-166698944D02*
X33595000Y-166299943D01*
X33595000Y-143827900D02*
X31500000Y-141732900D01*
X33994000Y-169394000D02*
X33994000Y-166698944D01*
X33794000Y-169650000D02*
X33794000Y-169594000D01*
X31500000Y-141732900D02*
X31500000Y-135660000D01*
X33595000Y-166299943D02*
X33595000Y-143827900D01*
%TO.N,Buss1*%
X33201000Y-141165500D02*
X35199000Y-143163500D01*
X29340000Y-123340000D02*
X33201000Y-127201000D01*
X35199000Y-143163500D02*
X35199000Y-151350057D01*
X35600000Y-178500000D02*
X35400000Y-178700000D01*
X35600000Y-162000000D02*
X35600000Y-178500000D01*
X35198000Y-151848943D02*
X35199000Y-151849943D01*
X33201000Y-127201000D02*
X33201000Y-141165500D01*
X35199000Y-154999000D02*
X35400000Y-155200000D01*
X35198000Y-151351057D02*
X35198000Y-151848943D01*
X35600000Y-155400000D02*
X35600000Y-162000000D01*
X35400000Y-155200000D02*
X35600000Y-155400000D01*
X35199000Y-151350057D02*
X35198000Y-151351057D01*
X35199000Y-151849943D02*
X35199000Y-154999000D01*
%TO.N,ADR 13*%
X36998000Y-97502000D02*
X33000000Y-101500000D01*
X28189000Y-32029000D02*
X28189000Y-33789000D01*
X30507760Y-34500000D02*
X36998000Y-40990240D01*
X28900000Y-34500000D02*
X30507760Y-34500000D01*
X36998000Y-40990240D02*
X36998000Y-97502000D01*
X26860000Y-30700000D02*
X28189000Y-32029000D01*
X28189000Y-33789000D02*
X28900000Y-34500000D01*
%TO.N,ADR 10*%
X28900000Y-42200000D02*
X28100000Y-41400000D01*
X35795000Y-47407240D02*
X30587760Y-42200000D01*
X28100000Y-41400000D02*
X28100000Y-39600000D01*
X26860000Y-38360000D02*
X26860000Y-38320000D01*
X30587760Y-42200000D02*
X28900000Y-42200000D01*
X28100000Y-39600000D02*
X26860000Y-38360000D01*
X33000000Y-90700000D02*
X35795000Y-87905000D01*
X35795000Y-87905000D02*
X35795000Y-47407240D01*
%TO.N,ADR 15*%
X26860000Y-25620000D02*
X28136120Y-26896120D01*
X28800000Y-29400000D02*
X30487760Y-29400000D01*
X28136120Y-26896120D02*
X28136120Y-28736120D01*
X30487760Y-29400000D02*
X37800000Y-36712240D01*
X37800000Y-36712240D02*
X37800000Y-103900000D01*
X37800000Y-103900000D02*
X33000000Y-108700000D01*
X28136120Y-28736120D02*
X28800000Y-29400000D01*
%TO.N,ADR 9*%
X26860000Y-40860000D02*
X28189000Y-42189000D01*
X28189000Y-44089000D02*
X35394000Y-51294000D01*
X28189000Y-42189000D02*
X28189000Y-44089000D01*
X35394000Y-51294000D02*
X35394000Y-84706000D01*
X35394000Y-84706000D02*
X33000000Y-87100000D01*
%TO.N,ADR 8*%
X33000000Y-83400000D02*
X34993000Y-81407000D01*
X26860000Y-43460000D02*
X26860000Y-43400000D01*
X34993000Y-81407000D02*
X34993000Y-51593000D01*
X34993000Y-51593000D02*
X26860000Y-43460000D01*
%TO.N,ADR 14*%
X26860000Y-28160000D02*
X28100000Y-29400000D01*
X37399000Y-100701000D02*
X33000000Y-105100000D01*
X28100000Y-29400000D02*
X28100000Y-31200000D01*
X28100000Y-31200000D02*
X28900000Y-32000000D01*
X28900000Y-32000000D02*
X30547760Y-32000000D01*
X30547760Y-32000000D02*
X37399000Y-38851240D01*
X37399000Y-38851240D02*
X37399000Y-100701000D01*
%TO.N,ADR 11*%
X36196000Y-91104000D02*
X33000000Y-94300000D01*
X30600000Y-39600000D02*
X36196000Y-45196000D01*
X36196000Y-45196000D02*
X36196000Y-91104000D01*
X26800000Y-35720000D02*
X28189000Y-37109000D01*
X28800000Y-39600000D02*
X30600000Y-39600000D01*
X28189000Y-38989000D02*
X28800000Y-39600000D01*
X28189000Y-37109000D02*
X28189000Y-38989000D01*
%TO.N,ADR 12*%
X27600000Y-34000000D02*
X28100000Y-34500000D01*
X27600000Y-33980000D02*
X27600000Y-34000000D01*
X28800000Y-37100000D02*
X30567760Y-37100000D01*
X36597000Y-43129240D02*
X36597000Y-94303000D01*
X36597000Y-94303000D02*
X33000000Y-97900000D01*
X28100000Y-36400000D02*
X28800000Y-37100000D01*
X30567760Y-37100000D02*
X36597000Y-43129240D01*
X28100000Y-34500000D02*
X28100000Y-36400000D01*
X26860000Y-33240000D02*
X27600000Y-33980000D01*
D15*
%TO.N,Main bus 0*%
X291462500Y-47837500D02*
X291500000Y-47800000D01*
D14*
X355500000Y-47800000D02*
X360600000Y-47800000D01*
X367800000Y-93152542D02*
X359437500Y-101515042D01*
X360600000Y-47800000D02*
X367800000Y-55000000D01*
X367800000Y-55000000D02*
X367800000Y-93152542D01*
D15*
X292900000Y-49200000D02*
X322100000Y-49200000D01*
X323500000Y-47800000D02*
X355500000Y-47800000D01*
D14*
X359437500Y-101515042D02*
X359437500Y-129962500D01*
X232950000Y-37162500D02*
X248875000Y-37162500D01*
D15*
X291500000Y-47800000D02*
X292900000Y-49200000D01*
D14*
X248875000Y-37162500D02*
X259550000Y-47837500D01*
D15*
X259550000Y-47837500D02*
X291462500Y-47837500D01*
X322100000Y-49200000D02*
X323500000Y-47800000D01*
%TO.N,Main bus 4*%
X261210000Y-56337500D02*
X267858636Y-56337500D01*
D14*
X357037500Y-101363798D02*
X366196000Y-92205298D01*
D15*
X268640364Y-56538500D02*
X268841364Y-56337500D01*
X289877500Y-56337500D02*
X291500000Y-57960000D01*
X309942364Y-57536500D02*
X323076500Y-57536500D01*
D14*
X366196000Y-64396000D02*
X359800000Y-58000000D01*
D15*
X346036136Y-57960000D02*
X346359636Y-57636500D01*
D14*
X366196000Y-92205298D02*
X366196000Y-64396000D01*
X355540000Y-58000000D02*
X355500000Y-57960000D01*
X255689000Y-54136500D02*
X259550000Y-57997500D01*
X357037500Y-142800000D02*
X357037500Y-101363798D01*
D15*
X323076500Y-57536500D02*
X323500000Y-57960000D01*
X291500000Y-57960000D02*
X309518864Y-57960000D01*
D14*
X232950000Y-54162500D02*
X232976000Y-54136500D01*
D15*
X323500000Y-57960000D02*
X346036136Y-57960000D01*
X267858636Y-56337500D02*
X268059636Y-56538500D01*
X268841364Y-56337500D02*
X289877500Y-56337500D01*
X259550000Y-57997500D02*
X261210000Y-56337500D01*
D14*
X359800000Y-58000000D02*
X355540000Y-58000000D01*
D15*
X309518864Y-57960000D02*
X309942364Y-57536500D01*
X355176500Y-57636500D02*
X355500000Y-57960000D01*
X268059636Y-56538500D02*
X268640364Y-56538500D01*
D14*
X232976000Y-54136500D02*
X255689000Y-54136500D01*
D15*
X346359636Y-57636500D02*
X355176500Y-57636500D01*
D14*
%TO.N,Main bus 1*%
X362572900Y-50340000D02*
X367399000Y-55166100D01*
D15*
X355500000Y-50340000D02*
X323500000Y-50340000D01*
D14*
X367399000Y-92703600D02*
X358837500Y-101265100D01*
D15*
X259587500Y-50340000D02*
X259550000Y-50377500D01*
D14*
X355500000Y-50340000D02*
X362572900Y-50340000D01*
D15*
X323500000Y-50340000D02*
X291500000Y-50340000D01*
X291500000Y-50340000D02*
X259587500Y-50340000D01*
D14*
X358837500Y-101265100D02*
X358837500Y-133200000D01*
X367399000Y-55166100D02*
X367399000Y-92703600D01*
X233588500Y-41001000D02*
X250173500Y-41001000D01*
X232950000Y-40362500D02*
X233588500Y-41001000D01*
X250173500Y-41001000D02*
X259550000Y-50377500D01*
%TO.N,Main bus 6*%
X355500000Y-63040000D02*
X355500000Y-63906000D01*
D15*
X291500000Y-63040000D02*
X291902500Y-62637500D01*
X322550000Y-62637500D02*
X346158636Y-62637500D01*
D14*
X365394000Y-91873100D02*
X355836500Y-101430600D01*
X365394000Y-73800000D02*
X365394000Y-91873100D01*
D15*
X323097500Y-62637500D02*
X323500000Y-63040000D01*
X291902500Y-62637500D02*
X322550000Y-62637500D01*
D14*
X355836500Y-101430600D02*
X355836500Y-149161500D01*
X355836500Y-149161500D02*
X355837500Y-149162500D01*
D15*
X259991000Y-62636500D02*
X291096500Y-62636500D01*
X291096500Y-62636500D02*
X291500000Y-63040000D01*
X322550000Y-62637500D02*
X323097500Y-62637500D01*
D14*
X355500000Y-63906000D02*
X365394000Y-73800000D01*
D15*
X259550000Y-63077500D02*
X259991000Y-62636500D01*
D14*
X232950000Y-63562500D02*
X259065000Y-63562500D01*
D15*
X346561136Y-63040000D02*
X355500000Y-63040000D01*
X346158636Y-62637500D02*
X346561136Y-63040000D01*
D14*
X259065000Y-63562500D02*
X259550000Y-63077500D01*
D15*
%TO.N,Main bus 3*%
X260400000Y-54607500D02*
X290687500Y-54607500D01*
X324350000Y-54570000D02*
X323500000Y-55420000D01*
D14*
X357637500Y-101330900D02*
X366597000Y-92371400D01*
D15*
X322517500Y-54437500D02*
X292482500Y-54437500D01*
X290687500Y-54607500D02*
X291500000Y-55420000D01*
X355500000Y-55420000D02*
X354650000Y-54570000D01*
D14*
X366597000Y-92371400D02*
X366597000Y-60797000D01*
X233287500Y-50200000D02*
X254292500Y-50200000D01*
X357637500Y-139562500D02*
X357637500Y-101330900D01*
X366597000Y-60797000D02*
X361220000Y-55420000D01*
D15*
X259550000Y-55457500D02*
X260400000Y-54607500D01*
X323500000Y-55420000D02*
X322517500Y-54437500D01*
X292482500Y-54437500D02*
X291500000Y-55420000D01*
D14*
X232950000Y-49862500D02*
X233287500Y-50200000D01*
X254292500Y-50200000D02*
X259550000Y-55457500D01*
X361220000Y-55420000D02*
X355500000Y-55420000D01*
D15*
X354650000Y-54570000D02*
X324350000Y-54570000D01*
%TO.N,Main bus 2*%
X259550000Y-52917500D02*
X291462500Y-52917500D01*
D14*
X366998000Y-92537500D02*
X366998000Y-55332200D01*
X233012500Y-45500000D02*
X232950000Y-45562500D01*
X252132500Y-45500000D02*
X233012500Y-45500000D01*
X358237500Y-136362500D02*
X358237500Y-101298000D01*
X358237500Y-101298000D02*
X366998000Y-92537500D01*
D15*
X323500000Y-52880000D02*
X355500000Y-52880000D01*
X291500000Y-52880000D02*
X323500000Y-52880000D01*
D14*
X366998000Y-55332200D02*
X364545800Y-52880000D01*
X259550000Y-52917500D02*
X252132500Y-45500000D01*
X364545800Y-52880000D02*
X355500000Y-52880000D01*
D15*
X291462500Y-52917500D02*
X291500000Y-52880000D01*
%TO.N,Main bus 5*%
X259650000Y-60637500D02*
X271550000Y-60637500D01*
D14*
X365795000Y-70795000D02*
X355500000Y-60500000D01*
D15*
X272150000Y-60037500D02*
X291037500Y-60037500D01*
X323027864Y-60027864D02*
X301151000Y-60027864D01*
X271550000Y-60637500D02*
X272150000Y-60037500D01*
D14*
X258413500Y-59401000D02*
X259550000Y-60537500D01*
X356437500Y-145962500D02*
X356437500Y-101396700D01*
X232950000Y-58962500D02*
X233388500Y-59401000D01*
D15*
X259550000Y-60537500D02*
X259650000Y-60637500D01*
X301151000Y-60027864D02*
X300678864Y-60500000D01*
D14*
X233388500Y-59401000D02*
X258413500Y-59401000D01*
D15*
X291037500Y-60037500D02*
X291500000Y-60500000D01*
X332678864Y-60500000D02*
X323500000Y-60500000D01*
X354927864Y-59927864D02*
X333251000Y-59927864D01*
D14*
X356437500Y-101396700D02*
X365795000Y-92039200D01*
D15*
X323500000Y-60500000D02*
X323027864Y-60027864D01*
X355500000Y-60500000D02*
X354927864Y-59927864D01*
X300678864Y-60500000D02*
X291500000Y-60500000D01*
X333251000Y-59927864D02*
X332678864Y-60500000D01*
D14*
X365795000Y-92039200D02*
X365795000Y-70795000D01*
%TO.N,AA0*%
X246500000Y-131350000D02*
X249637500Y-131350000D01*
X242800000Y-121500000D02*
X242800000Y-127650000D01*
X248350000Y-115950000D02*
X242800000Y-121500000D01*
X242800000Y-127650000D02*
X246500000Y-131350000D01*
%TO.N,XOR*%
X229400000Y-126800000D02*
X229300000Y-126700000D01*
X293687443Y-207550000D02*
X302338500Y-198898943D01*
X349997500Y-198450000D02*
X336597500Y-185050000D01*
X238917500Y-190670000D02*
X256797500Y-208550000D01*
X238917500Y-190670000D02*
X238770000Y-190670000D01*
X349997500Y-199250000D02*
X349997500Y-198450000D01*
X302338500Y-180291000D02*
X301197500Y-179150000D01*
X238770000Y-190670000D02*
X230400000Y-182300000D01*
X230400000Y-182300000D02*
X229400000Y-181300000D01*
X268197500Y-207550000D02*
X293687443Y-207550000D01*
X229400000Y-176500000D02*
X229400000Y-126800000D01*
X256797500Y-208550000D02*
X267197500Y-208550000D01*
X302338500Y-198898943D02*
X302338500Y-180291000D01*
X229400000Y-181300000D02*
X229400000Y-176500000D01*
X267197500Y-208550000D02*
X268197500Y-207550000D01*
X336597500Y-185050000D02*
X336597500Y-181750000D01*
%TO.N,ADD*%
X256098500Y-206951000D02*
X292486443Y-206951000D01*
X229900000Y-126100000D02*
X229900000Y-125600000D01*
X292486443Y-206951000D02*
X301197500Y-198239943D01*
X301197500Y-198239943D02*
X301197500Y-191150000D01*
X229900000Y-180752500D02*
X229900000Y-126100000D01*
X237300000Y-188152500D02*
X229900000Y-180752500D01*
X237300000Y-188152500D02*
X256098500Y-206951000D01*
%TO.N,OR*%
X339197500Y-214450000D02*
X344497500Y-209150000D01*
X227600000Y-134900000D02*
X227500000Y-134800000D01*
X237277500Y-200830000D02*
X250897500Y-214450000D01*
X264547557Y-214450000D02*
X264848557Y-214149000D01*
X344497500Y-209150000D02*
X344497500Y-207750000D01*
X250897500Y-214450000D02*
X264547557Y-214450000D01*
X227600000Y-191152500D02*
X227600000Y-186600000D01*
X265647443Y-214450000D02*
X339197500Y-214450000D01*
X265346443Y-214149000D02*
X265647443Y-214450000D01*
X237277500Y-200830000D02*
X227600000Y-191152500D01*
X264848557Y-214149000D02*
X265346443Y-214149000D01*
X227600000Y-186600000D02*
X227600000Y-134900000D01*
D15*
%TO.N,ALU FLAG N*%
X322956500Y-65036500D02*
X314259636Y-65036500D01*
X259550000Y-65617500D02*
X260470000Y-66537500D01*
X324457500Y-66537500D02*
X323500000Y-65580000D01*
D14*
X352897500Y-171450000D02*
X350397500Y-173950000D01*
X353437500Y-173350000D02*
X352897500Y-172810000D01*
X234274000Y-67038500D02*
X258129000Y-67038500D01*
D15*
X354542500Y-66537500D02*
X324457500Y-66537500D01*
D14*
X232850000Y-68462500D02*
X234274000Y-67038500D01*
X356180000Y-65580000D02*
X355500000Y-65580000D01*
X335537500Y-200150000D02*
X351837500Y-200150000D01*
D15*
X323500000Y-65580000D02*
X322956500Y-65036500D01*
D14*
X355943500Y-65136500D02*
X355500000Y-65580000D01*
X351837500Y-200150000D02*
X353437500Y-198550000D01*
X354437500Y-168550000D02*
X352897500Y-170090000D01*
X334037500Y-201650000D02*
X335537500Y-200150000D01*
D15*
X314259636Y-65036500D02*
X313716136Y-65580000D01*
D14*
X354437500Y-168550000D02*
X354637500Y-168350000D01*
X258129000Y-67038500D02*
X259550000Y-65617500D01*
D15*
X355500000Y-65580000D02*
X354542500Y-66537500D01*
X290542500Y-66537500D02*
X291500000Y-65580000D01*
D14*
X355237500Y-101462500D02*
X364993000Y-91707000D01*
X355237500Y-152362500D02*
X355237500Y-101462500D01*
D15*
X313716136Y-65580000D02*
X291500000Y-65580000D01*
D14*
X354637500Y-168350000D02*
X354637500Y-167450000D01*
X352897500Y-170090000D02*
X352897500Y-171450000D01*
X364993000Y-91707000D02*
X364993000Y-74393000D01*
D15*
X260470000Y-66537500D02*
X290542500Y-66537500D01*
D14*
X350397500Y-173950000D02*
X348997500Y-173950000D01*
X353437500Y-198550000D02*
X353437500Y-173350000D01*
X352897500Y-172810000D02*
X352897500Y-171450000D01*
X364993000Y-74393000D02*
X356180000Y-65580000D01*
%TO.N,NOT*%
X302739500Y-168392000D02*
X301497500Y-167150000D01*
X286886557Y-209951000D02*
X288488557Y-208349000D01*
X237277500Y-193210000D02*
X228999000Y-184931500D01*
X288488557Y-208349000D02*
X289136500Y-208349000D01*
X270686557Y-209249000D02*
X271388557Y-209951000D01*
X237277500Y-193210000D02*
X253316500Y-209249000D01*
X271388557Y-209951000D02*
X286886557Y-209951000D01*
X228999000Y-127668222D02*
X228800000Y-127469222D01*
X342797500Y-202450000D02*
X349173530Y-202450000D01*
X228999000Y-184931500D02*
X228999000Y-179100000D01*
X289637500Y-208850000D02*
X292954543Y-208850000D01*
X349173530Y-202450000D02*
X349735515Y-203011985D01*
X302739500Y-199065043D02*
X302739500Y-168392000D01*
X228999000Y-179100000D02*
X228999000Y-127668222D01*
X253316500Y-209249000D02*
X270686557Y-209249000D01*
X289136500Y-208349000D02*
X289637500Y-208850000D01*
X292954543Y-208850000D02*
X302739500Y-199065043D01*
%TO.N,AND*%
X347597500Y-199550000D02*
X347897500Y-199250000D01*
X237277500Y-198290000D02*
X252537500Y-213550000D01*
X303487442Y-199550000D02*
X302992471Y-200044971D01*
X305297500Y-196950000D02*
X305297500Y-141450000D01*
X289487443Y-213550000D02*
X302992471Y-200044971D01*
X228100000Y-189112500D02*
X228100000Y-183400000D01*
X237277500Y-198290000D02*
X228100000Y-189112500D01*
X307107557Y-199550000D02*
X303487442Y-199550000D01*
X305297500Y-197739943D02*
X305297500Y-196950000D01*
X307897500Y-199550000D02*
X307107557Y-199550000D01*
X305297500Y-197739943D02*
X307107557Y-199550000D01*
X307897500Y-199550000D02*
X347597500Y-199550000D01*
X228100000Y-132102000D02*
X227998000Y-132000000D01*
X302992471Y-200044971D02*
X305297500Y-197739943D01*
X252537500Y-213550000D02*
X289487443Y-213550000D01*
X228100000Y-183400000D02*
X228100000Y-132102000D01*
%TO.N,RS*%
X303597500Y-198774143D02*
X303597500Y-157150000D01*
X292222643Y-210149000D02*
X303597500Y-198774143D01*
X228598000Y-129499000D02*
X228598000Y-187070500D01*
X228399000Y-129300000D02*
X228598000Y-129499000D01*
X288187557Y-213150000D02*
X291188557Y-210149000D01*
X228598000Y-187070500D02*
X254677500Y-213150000D01*
X254677500Y-213150000D02*
X288187557Y-213150000D01*
X303597500Y-157150000D02*
X301597500Y-155150000D01*
X291188557Y-210149000D02*
X292222643Y-210149000D01*
%TO.N,READ A*%
X201698000Y-201898000D02*
X203200000Y-203400000D01*
X221198000Y-90600700D02*
X221198000Y-92417100D01*
X221199000Y-92418100D02*
X221199000Y-162601000D01*
X239100000Y-67700000D02*
X240000000Y-68600000D01*
X221198000Y-92417100D02*
X221199000Y-92418100D01*
X221199000Y-162601000D02*
X201698000Y-182102000D01*
X201698000Y-182102000D02*
X201698000Y-201898000D01*
X240000000Y-68600000D02*
X240000000Y-71798700D01*
X240000000Y-71798700D02*
X221198000Y-90600700D01*
%TO.N,READ D*%
X222500000Y-168950057D02*
X217999000Y-173451057D01*
X242900000Y-67900000D02*
X242900000Y-70600000D01*
X217999000Y-173451057D02*
X217999000Y-173850943D01*
X242900000Y-70600000D02*
X222500000Y-91000000D01*
X217999000Y-173850943D02*
X203549943Y-188300000D01*
X203549943Y-188300000D02*
X203100000Y-188300000D01*
X222500000Y-91000000D02*
X222500000Y-168950057D01*
%TO.N,READ C*%
X240416450Y-72516450D02*
X241616450Y-71316450D01*
X241616450Y-71316450D02*
X242300000Y-70632900D01*
X240416450Y-72516450D02*
X222000000Y-90932900D01*
X202500000Y-192700000D02*
X203200000Y-193400000D01*
X222000000Y-90932900D02*
X222000000Y-165300000D01*
X222000000Y-165300000D02*
X202500000Y-184800000D01*
X242300000Y-70632900D02*
X242300000Y-68465687D01*
X202500000Y-184800000D02*
X202500000Y-192700000D01*
%TO.N,READ B*%
X202099000Y-182951057D02*
X203051057Y-181999000D01*
X203200000Y-198500000D02*
X202099000Y-197399000D01*
X221600000Y-92252000D02*
X221599000Y-92251000D01*
X203051057Y-181999000D02*
X204301000Y-181999000D01*
X204301000Y-181999000D02*
X221600000Y-164700000D01*
X241700000Y-70665800D02*
X241700000Y-69062335D01*
X202099000Y-197399000D02*
X202099000Y-182951057D01*
X221599000Y-92251000D02*
X221599000Y-90766800D01*
X221600000Y-164700000D02*
X221600000Y-92252000D01*
X221599000Y-90766800D02*
X241700000Y-70665800D01*
%TO.N,Store Address ++*%
X42999000Y-101266100D02*
X43000000Y-101267100D01*
X47550000Y-49450000D02*
X43000000Y-54000000D01*
X43000000Y-54000000D02*
X43000000Y-56632900D01*
X43000000Y-101300000D02*
X46701000Y-105001000D01*
X48300000Y-165800000D02*
X56500000Y-165800000D01*
X43000000Y-101267100D02*
X43000000Y-101300000D01*
X46701000Y-105001000D02*
X46701000Y-164201000D01*
X42999000Y-56633900D02*
X42999000Y-101266100D01*
X46701000Y-164201000D02*
X48300000Y-165800000D01*
X43000000Y-56632900D02*
X42999000Y-56633900D01*
%TO.N,TEMP ADR 0*%
X60200000Y-60000000D02*
X58400000Y-58200000D01*
X58400000Y-51500000D02*
X73100000Y-36800000D01*
X96720000Y-36800000D02*
X98120000Y-35400000D01*
X73100000Y-36800000D02*
X96720000Y-36800000D01*
X58400000Y-58200000D02*
X58400000Y-51500000D01*
%TO.N,TEMP ADR 1*%
X64700000Y-59900000D02*
X64700000Y-59285557D01*
X73450057Y-37200000D02*
X98860000Y-37200000D01*
X98860000Y-37200000D02*
X100660000Y-35400000D01*
X64700000Y-59285557D02*
X59299000Y-53884557D01*
X59299000Y-53884557D02*
X59299000Y-51351057D01*
X59299000Y-51351057D02*
X73450057Y-37200000D01*
%TO.N,STORED ADR 15*%
X127700000Y-52200000D02*
X137000000Y-61500000D01*
X137000000Y-61500000D02*
X182200000Y-61500000D01*
X127700000Y-51600000D02*
X127700000Y-52200000D01*
X182200000Y-61500000D02*
X193700000Y-73000000D01*
%TO.N,STORED ADR 14*%
X191160000Y-73000000D02*
X187557000Y-69397000D01*
X126400000Y-51600000D02*
X123100000Y-51600000D01*
X187557000Y-69397000D02*
X187497000Y-69397000D01*
X136701000Y-61901000D02*
X126400000Y-51600000D01*
X180001000Y-61901000D02*
X136701000Y-61901000D01*
X187497000Y-69397000D02*
X180001000Y-61901000D01*
%TO.N,STORED ADR 13*%
X123801000Y-57774943D02*
X123801000Y-57301000D01*
X179124081Y-62302000D02*
X128328057Y-62302000D01*
X118700000Y-52200000D02*
X118700000Y-51500000D01*
X188620000Y-71797919D02*
X179124081Y-62302000D01*
X188620000Y-73000000D02*
X188620000Y-71797919D01*
X123801000Y-57301000D02*
X118700000Y-52200000D01*
X128328057Y-62302000D02*
X123801000Y-57774943D01*
%TO.N,STORED ADR 12*%
X175783000Y-62703000D02*
X123803000Y-62703000D01*
X186080000Y-73000000D02*
X175783000Y-62703000D01*
X123803000Y-62703000D02*
X114200000Y-53100000D01*
X114200000Y-53100000D02*
X114200000Y-51500000D01*
%TO.N,STORED ADR 11*%
X183540000Y-73000000D02*
X183540000Y-72690057D01*
X173953943Y-63104000D02*
X123404000Y-63104000D01*
X183540000Y-72690057D02*
X173953943Y-63104000D01*
X111900000Y-51600000D02*
X109600000Y-51600000D01*
X123404000Y-63104000D02*
X111900000Y-51600000D01*
%TO.N,STORED ADR 10*%
X114500000Y-59300000D02*
X112590557Y-59300000D01*
X105100000Y-51809443D02*
X105100000Y-51600000D01*
X118705000Y-63505000D02*
X114500000Y-59300000D01*
X171505000Y-63505000D02*
X118705000Y-63505000D01*
X181000000Y-73000000D02*
X171505000Y-63505000D01*
X112590557Y-59300000D02*
X105100000Y-51809443D01*
%TO.N,STORED ADR 9*%
X115106000Y-63906000D02*
X102800000Y-51600000D01*
X170568081Y-63906000D02*
X115106000Y-63906000D01*
X178460000Y-73000000D02*
X178460000Y-71797919D01*
X178460000Y-71797919D02*
X170568081Y-63906000D01*
X102800000Y-51600000D02*
X100800000Y-51600000D01*
%TO.N,STORED ADR 8*%
X97400000Y-52900000D02*
X96100000Y-51600000D01*
X99900000Y-52900000D02*
X97400000Y-52900000D01*
X167227000Y-64307000D02*
X111307000Y-64307000D01*
X111307000Y-64307000D02*
X99900000Y-52900000D01*
X96100000Y-51600000D02*
X96000000Y-51600000D01*
X175920000Y-73000000D02*
X167227000Y-64307000D01*
%TO.N,STORED ADR 7*%
X110353200Y-71399000D02*
X112326100Y-71399000D01*
X105605400Y-70597000D02*
X107578300Y-70597000D01*
X93700000Y-54500000D02*
X93700000Y-67500000D01*
X91600000Y-51700000D02*
X91600000Y-52400000D01*
X101764400Y-68696000D02*
X103264400Y-70196000D01*
X103264400Y-70196000D02*
X105204400Y-70196000D01*
X112326100Y-71399000D02*
X112727100Y-71800000D01*
X105204400Y-70196000D02*
X105605400Y-70597000D01*
X114700000Y-71800000D02*
X115900000Y-73000000D01*
X93700000Y-67500000D02*
X94896000Y-68696000D01*
X91600000Y-52400000D02*
X93700000Y-54500000D01*
X112727100Y-71800000D02*
X114700000Y-71800000D01*
X94896000Y-68696000D02*
X101764400Y-68696000D01*
X109952200Y-70998000D02*
X110353200Y-71399000D01*
X107578300Y-70597000D02*
X107979300Y-70998000D01*
X107979300Y-70998000D02*
X109952200Y-70998000D01*
%TO.N,STORED ADR 6*%
X110187100Y-71800000D02*
X109786100Y-71399000D01*
X88000000Y-67800000D02*
X88000000Y-52600000D01*
X88000000Y-52600000D02*
X87000000Y-51600000D01*
X105038300Y-70597000D02*
X103098300Y-70597000D01*
X103098300Y-70597000D02*
X101598300Y-69097000D01*
X107412200Y-70998000D02*
X105439300Y-70998000D01*
X101598300Y-69097000D02*
X89297000Y-69097000D01*
X107813200Y-71399000D02*
X107412200Y-70998000D01*
X89297000Y-69097000D02*
X88000000Y-67800000D01*
X105439300Y-70998000D02*
X105038300Y-70597000D01*
X113360000Y-73000000D02*
X112160000Y-71800000D01*
X112160000Y-71800000D02*
X110187100Y-71800000D01*
X109786100Y-71399000D02*
X107813200Y-71399000D01*
%TO.N,STORED ADR 5*%
X105273200Y-71399000D02*
X104872200Y-70998000D01*
X107647100Y-71800000D02*
X107246100Y-71399000D01*
X86898000Y-69498000D02*
X83600000Y-66200000D01*
X83600000Y-66200000D02*
X83600000Y-52700000D01*
X101432200Y-69498000D02*
X86898000Y-69498000D01*
X82600000Y-51700000D02*
X82600000Y-51600000D01*
X102932200Y-70998000D02*
X101432200Y-69498000D01*
X109620000Y-71800000D02*
X107647100Y-71800000D01*
X104872200Y-70998000D02*
X102932200Y-70998000D01*
X83600000Y-52700000D02*
X82600000Y-51700000D01*
X107246100Y-71399000D02*
X105273200Y-71399000D01*
X110820000Y-73000000D02*
X109620000Y-71800000D01*
%TO.N,STORED ADR 4*%
X105107100Y-71800000D02*
X104706100Y-71399000D01*
X108280000Y-73000000D02*
X107080000Y-71800000D01*
X107080000Y-71800000D02*
X105107100Y-71800000D01*
X79000000Y-66200000D02*
X79000000Y-52500000D01*
X79000000Y-52500000D02*
X78100000Y-51600000D01*
X102766100Y-71399000D02*
X101266100Y-69899000D01*
X104706100Y-71399000D02*
X102766100Y-71399000D01*
X82699000Y-69899000D02*
X79000000Y-66200000D01*
X101266100Y-69899000D02*
X82699000Y-69899000D01*
%TO.N,STORED ADR 3*%
X104540000Y-71800000D02*
X102600000Y-71800000D01*
X74800000Y-64400000D02*
X74800000Y-52800000D01*
X101100000Y-70300000D02*
X80700000Y-70300000D01*
X74800000Y-52800000D02*
X73600000Y-51600000D01*
X102600000Y-71800000D02*
X101100000Y-70300000D01*
X80700000Y-70300000D02*
X74800000Y-64400000D01*
X105740000Y-73000000D02*
X104540000Y-71800000D01*
%TO.N,STORED ADR 2*%
X74700000Y-70700000D02*
X70200000Y-66200000D01*
X100900000Y-70700000D02*
X74700000Y-70700000D01*
X70200000Y-52700000D02*
X69100000Y-51600000D01*
X70200000Y-66200000D02*
X70200000Y-52700000D01*
X103200000Y-73000000D02*
X100900000Y-70700000D01*
%TO.N,STORED ADR 1*%
X66600000Y-53600000D02*
X64600000Y-51600000D01*
X100660000Y-73000000D02*
X98760000Y-71100000D01*
X66600000Y-66100000D02*
X66600000Y-53600000D01*
X98760000Y-71100000D02*
X71600000Y-71100000D01*
X71600000Y-71100000D02*
X66600000Y-66100000D01*
%TO.N,STORED ADR 0*%
X98120000Y-73000000D02*
X96620000Y-71500000D01*
X66100000Y-57900000D02*
X59900000Y-51700000D01*
X66100000Y-66300000D02*
X66100000Y-57900000D01*
X59900000Y-51700000D02*
X59900000Y-51600000D01*
X96620000Y-71500000D02*
X71300000Y-71500000D01*
X71300000Y-71500000D02*
X66100000Y-66300000D01*
%TO.N,Read From stored Address*%
X42598000Y-52502000D02*
X47588500Y-47511500D01*
X42598000Y-101465100D02*
X42598000Y-52502000D01*
X45899000Y-131101000D02*
X45899000Y-104766100D01*
X79399000Y-169101000D02*
X49932600Y-169101000D01*
X45200000Y-164368400D02*
X45200000Y-131800000D01*
X49932600Y-169101000D02*
X45200000Y-164368400D01*
X45899000Y-104766100D02*
X42598000Y-101465100D01*
X47588500Y-47511500D02*
X57076000Y-47511500D01*
X81500000Y-167000000D02*
X79399000Y-169101000D01*
X45200000Y-131800000D02*
X45899000Y-131101000D01*
%TO.N,TEMP ADR 2*%
X68499000Y-51351057D02*
X68499000Y-59299000D01*
X100999000Y-37601000D02*
X82249057Y-37601000D01*
X82249057Y-37601000D02*
X68499000Y-51351057D01*
X68499000Y-59299000D02*
X69200000Y-60000000D01*
X103200000Y-35400000D02*
X100999000Y-37601000D01*
%TO.N,TEMP ADR 3*%
X72999000Y-59399000D02*
X72999000Y-49301000D01*
X73600000Y-60000000D02*
X72999000Y-59399000D01*
X84298000Y-38002000D02*
X103138000Y-38002000D01*
X103138000Y-38002000D02*
X105740000Y-35400000D01*
X72999000Y-49301000D02*
X84298000Y-38002000D01*
%TO.N,TEMP ADR 4*%
X77499000Y-51351057D02*
X77499000Y-59399000D01*
X105277000Y-38403000D02*
X90447057Y-38403000D01*
X108280000Y-35400000D02*
X105277000Y-38403000D01*
X77499000Y-59399000D02*
X78200000Y-60100000D01*
X90447057Y-38403000D02*
X77499000Y-51351057D01*
%TO.N,TEMP ADR 5*%
X94546057Y-38804000D02*
X107416000Y-38804000D01*
X81999000Y-51351057D02*
X94546057Y-38804000D01*
X107416000Y-38804000D02*
X110820000Y-35400000D01*
X82700000Y-60000000D02*
X81999000Y-59299000D01*
X81999000Y-59299000D02*
X81999000Y-51351057D01*
%TO.N,TEMP ADR 6*%
X98545057Y-39205000D02*
X86399000Y-51351057D01*
X109555000Y-39205000D02*
X98545057Y-39205000D01*
X86399000Y-51351057D02*
X86399000Y-59199000D01*
X113360000Y-35400000D02*
X109555000Y-39205000D01*
X86399000Y-59199000D02*
X87300000Y-60100000D01*
%TO.N,TEMP ADR 7*%
X111694000Y-39606000D02*
X115900000Y-35400000D01*
X90999000Y-51451057D02*
X102844057Y-39606000D01*
X91800000Y-60100000D02*
X90999000Y-59299000D01*
X102844057Y-39606000D02*
X111694000Y-39606000D01*
X90999000Y-59299000D02*
X90999000Y-51451057D01*
%TO.N,TEMP ADR 8*%
X94597000Y-58345000D02*
X94597000Y-50903000D01*
X100303000Y-45197000D02*
X166123000Y-45197000D01*
X94597000Y-50903000D02*
X100303000Y-45197000D01*
X166123000Y-45197000D02*
X175920000Y-35400000D01*
X96352000Y-60100000D02*
X94597000Y-58345000D01*
%TO.N,TEMP ADR 9*%
X177954714Y-35400000D02*
X178460000Y-35400000D01*
X100800000Y-57817043D02*
X94998000Y-52015043D01*
X100800000Y-60100000D02*
X100800000Y-57817043D01*
X100502000Y-45598000D02*
X167756714Y-45598000D01*
X167756714Y-45598000D02*
X177954714Y-35400000D01*
X94998000Y-52015043D02*
X94998000Y-51102000D01*
X94998000Y-51102000D02*
X100502000Y-45598000D01*
%TO.N,TEMP ADR 10*%
X95399000Y-51848943D02*
X103650057Y-60100000D01*
X181000000Y-35400000D02*
X170401000Y-45999000D01*
X103650057Y-60100000D02*
X105352000Y-60100000D01*
X95399000Y-51351057D02*
X95399000Y-51848943D01*
X100751056Y-45999000D02*
X95399000Y-51351057D01*
X170401000Y-45999000D02*
X100751056Y-45999000D01*
%TO.N,TEMP ADR 11*%
X172540000Y-46400000D02*
X183540000Y-35400000D01*
X109852000Y-60000000D02*
X109852000Y-59361557D01*
X102691443Y-52201000D02*
X100551057Y-52201000D01*
X100199000Y-51351057D02*
X105150057Y-46400000D01*
X100551057Y-52201000D02*
X100199000Y-51848943D01*
X109852000Y-59361557D02*
X102691443Y-52201000D01*
X105150057Y-46400000D02*
X172540000Y-46400000D01*
X100199000Y-51848943D02*
X100199000Y-51351057D01*
%TO.N,TEMP ADR 12*%
X112850057Y-60200000D02*
X104499000Y-51848943D01*
X183890000Y-37590000D02*
X186080000Y-35400000D01*
X104499000Y-51351057D02*
X107150057Y-48700000D01*
X104499000Y-51848943D02*
X104499000Y-51351057D01*
X107150057Y-48700000D02*
X172285557Y-48700000D01*
X172285557Y-48700000D02*
X183395556Y-37590000D01*
X114476000Y-60200000D02*
X112850057Y-60200000D01*
X183395556Y-37590000D02*
X183890000Y-37590000D01*
%TO.N,TEMP ADR 13*%
X111250057Y-49100000D02*
X174920000Y-49100000D01*
X108999000Y-51848943D02*
X108999000Y-51351057D01*
X111691443Y-52201000D02*
X109351057Y-52201000D01*
X109351057Y-52201000D02*
X108999000Y-51848943D01*
X118976000Y-59485557D02*
X111691443Y-52201000D01*
X108999000Y-51351057D02*
X111250057Y-49100000D01*
X118976000Y-60100000D02*
X118976000Y-59485557D01*
X174920000Y-49100000D02*
X188620000Y-35400000D01*
%TO.N,TEMP ADR 14*%
X118099000Y-52166100D02*
X118099000Y-51251057D01*
X176685443Y-50500000D02*
X191160000Y-36025442D01*
X118850057Y-50500000D02*
X176685443Y-50500000D01*
X191160000Y-36025442D02*
X191160000Y-35400000D01*
X123400000Y-60200000D02*
X123400000Y-57467100D01*
X123400000Y-57467100D02*
X118099000Y-52166100D01*
X118099000Y-51251057D02*
X118850057Y-50500000D01*
%TO.N,TEMP ADR 15*%
X127976000Y-60000000D02*
X127976000Y-57343100D01*
X122499000Y-51351057D02*
X122950057Y-50900000D01*
X178200000Y-50900000D02*
X193700000Y-35400000D01*
X122499000Y-51866100D02*
X122499000Y-51351057D01*
X127976000Y-57343100D02*
X122499000Y-51866100D01*
X122950057Y-50900000D02*
X178200000Y-50900000D01*
%TO.N,TIME STEP 0*%
X60000000Y-28300000D02*
X145300000Y-28300000D01*
X41550000Y-46750000D02*
X41550000Y-105550000D01*
X41550000Y-105550000D02*
X43500000Y-107500000D01*
X41550000Y-46750000D02*
X60000000Y-28300000D01*
X145300000Y-28300000D02*
X145800000Y-28800000D01*
D16*
%TO.N,TIME STEP IN 1*%
X83000000Y-109580000D02*
X83000000Y-135900000D01*
X80320000Y-106900000D02*
X83000000Y-109580000D01*
%TO.N,TIME STEP IN 2*%
X77292884Y-105724000D02*
X76416000Y-106600884D01*
X76416000Y-106600884D02*
X76416000Y-134884000D01*
X81684000Y-105724000D02*
X77292884Y-105724000D01*
D14*
X56200000Y-162400000D02*
X71699000Y-146901000D01*
X71699000Y-139601000D02*
X75700000Y-135600000D01*
X71699000Y-146901000D02*
X71699000Y-139601000D01*
D16*
X82860000Y-106900000D02*
X81684000Y-105724000D01*
X76416000Y-134884000D02*
X75700000Y-135600000D01*
D14*
%TO.N,FLAG O*%
X114540000Y-105700000D02*
X117000000Y-105700000D01*
X117900000Y-106600000D02*
X124700000Y-106600000D01*
X158600000Y-103000000D02*
X159000000Y-103400000D01*
X124700000Y-106600000D02*
X128300000Y-103000000D01*
X113340000Y-106900000D02*
X114540000Y-105700000D01*
X128300000Y-103000000D02*
X158600000Y-103000000D01*
X191100000Y-103400000D02*
X191200000Y-103500000D01*
X159000000Y-103400000D02*
X191100000Y-103400000D01*
X117000000Y-105700000D02*
X117900000Y-106600000D01*
%TO.N,FLAG C*%
X201400000Y-138400000D02*
X185100000Y-138400000D01*
X185100000Y-138400000D02*
X170550000Y-123850000D01*
%TO.N,Commit jump*%
X56649943Y-163100000D02*
X51900000Y-163100000D01*
X130551029Y-113074971D02*
X106674971Y-113074971D01*
X132100000Y-111526000D02*
X130551029Y-113074971D01*
X106674971Y-113074971D02*
X56649943Y-163100000D01*
D16*
%TO.N,TIME STEP IN 0*%
X77780000Y-138020000D02*
X72426000Y-143374000D01*
X77780000Y-106900000D02*
X77780000Y-138020000D01*
D14*
%TO.N,bus out -> Main bus*%
X213550000Y-46062500D02*
X213350000Y-45862500D01*
X148699000Y-29701000D02*
X148900000Y-29500000D01*
X213350000Y-45862500D02*
X213350000Y-41262500D01*
X48300000Y-40800000D02*
X60100000Y-29000000D01*
X213350000Y-36862500D02*
X213850000Y-36362500D01*
X213550000Y-50862500D02*
X213550000Y-46062500D01*
X148900000Y-29500000D02*
X209593750Y-29500000D01*
X47150000Y-50950000D02*
X47150000Y-53050000D01*
X213850000Y-36362500D02*
X213850000Y-33762500D01*
X213450000Y-59262500D02*
X213450000Y-54762500D01*
X43400000Y-101100000D02*
X47102000Y-104802000D01*
X213450000Y-54762500D02*
X213550000Y-54662500D01*
X47100000Y-45400000D02*
X48300000Y-44200000D01*
X49900000Y-163700000D02*
X66537500Y-163700000D01*
X60100000Y-29000000D02*
X120198000Y-29000000D01*
X43400000Y-56800000D02*
X43400000Y-101100000D01*
X47100000Y-45900000D02*
X47100000Y-45400000D01*
X213550000Y-50562500D02*
X213450000Y-50462500D01*
X47102000Y-160902000D02*
X49900000Y-163700000D01*
X213850000Y-33756250D02*
X213850000Y-33762500D01*
X48300000Y-44200000D02*
X48300000Y-40800000D01*
X213450000Y-63862500D02*
X213450000Y-59262500D01*
X209593750Y-29500000D02*
X213850000Y-33756250D01*
X120899000Y-29701000D02*
X148699000Y-29701000D01*
X47102000Y-104802000D02*
X47102000Y-160902000D01*
X213350000Y-41262500D02*
X213350000Y-36862500D01*
X47150000Y-53050000D02*
X43400000Y-56800000D01*
X213550000Y-50862500D02*
X213550000Y-50562500D01*
X66537500Y-163700000D02*
X75012500Y-155225000D01*
X120198000Y-29000000D02*
X120899000Y-29701000D01*
X213550000Y-54662500D02*
X213550000Y-50862500D01*
%TO.N,AA1*%
X242100000Y-120900000D02*
X242100000Y-127500000D01*
X247050000Y-115950000D02*
X242100000Y-120900000D01*
X242300000Y-127717100D02*
X249332900Y-134750000D01*
X249332900Y-134750000D02*
X249837500Y-134750000D01*
X242300000Y-127700000D02*
X242300000Y-127717100D01*
X242100000Y-127500000D02*
X242300000Y-127700000D01*
%TO.N,AA2*%
X241400000Y-130152500D02*
X249737500Y-138490000D01*
X241400000Y-120350000D02*
X241400000Y-130152500D01*
X249737500Y-138490000D02*
X249737500Y-138550000D01*
X245825000Y-115925000D02*
X241400000Y-120350000D01*
%TO.N,AA3*%
X240700000Y-119800000D02*
X240700000Y-133452500D01*
X244550000Y-115950000D02*
X240700000Y-119800000D01*
X240700000Y-133452500D02*
X249497500Y-142250000D01*
X249497500Y-142250000D02*
X249737500Y-142250000D01*
%TO.N,AA4*%
X240000000Y-119300000D02*
X240000000Y-136012500D01*
X243350000Y-115950000D02*
X240000000Y-119300000D01*
X240000000Y-136012500D02*
X249837500Y-145850000D01*
%TO.N,AA5*%
X239300000Y-118700000D02*
X239300000Y-139212500D01*
X242050000Y-115950000D02*
X239300000Y-118700000D01*
X239300000Y-139212500D02*
X249737500Y-149650000D01*
%TO.N,AA6*%
X238600000Y-142312500D02*
X249737500Y-153450000D01*
X238600000Y-118200000D02*
X238600000Y-142312500D01*
X241200000Y-115600000D02*
X238600000Y-118200000D01*
%TO.N,AA7*%
X237958500Y-145371000D02*
X249737500Y-157150000D01*
X340098500Y-214949000D02*
X265296500Y-214949000D01*
X353838500Y-173550000D02*
X353838500Y-201209000D01*
X353838500Y-173550000D02*
X354637500Y-172751000D01*
X241229250Y-114329250D02*
X237958500Y-117600000D01*
X354637500Y-172751000D02*
X354637500Y-169750000D01*
X353838500Y-201209000D02*
X340098500Y-214949000D01*
X265296500Y-214949000D02*
X265097500Y-214750000D01*
X237958500Y-117600000D02*
X237958500Y-145371000D01*
%TO.N,AB0*%
X342697500Y-130450000D02*
X342697500Y-177950000D01*
X251977500Y-119050000D02*
X261727500Y-109300000D01*
X251737500Y-119050000D02*
X251977500Y-119050000D01*
X342697500Y-177950000D02*
X345797500Y-181050000D01*
X261727500Y-109300000D02*
X279200000Y-109300000D01*
X251737500Y-119050000D02*
X243517500Y-127270000D01*
%TO.N,AB1*%
X261892500Y-109901000D02*
X282199000Y-109901000D01*
X244367500Y-127420000D02*
X249131500Y-122656000D01*
X249137500Y-122656000D02*
X261892500Y-109901000D01*
X282199000Y-109901000D02*
X283000000Y-109100000D01*
%TO.N,AB2*%
X285698000Y-110302000D02*
X286800000Y-109200000D01*
X250737500Y-121729600D02*
X253883550Y-118583550D01*
X244524393Y-128163107D02*
X250737500Y-121950000D01*
X262165100Y-110302000D02*
X265800000Y-110302000D01*
X250737500Y-121950000D02*
X250737500Y-121729600D01*
X253883550Y-118583550D02*
X262165100Y-110302000D01*
X244524393Y-128204467D02*
X244524393Y-128163107D01*
X265800000Y-110302000D02*
X285698000Y-110302000D01*
%TO.N,AB3*%
X252137500Y-120896700D02*
X254867100Y-118167100D01*
X262331200Y-110703000D02*
X265633900Y-110703000D01*
X245467500Y-128220000D02*
X252137500Y-121550000D01*
X254867100Y-118167100D02*
X262331200Y-110703000D01*
X265633900Y-110703000D02*
X288997000Y-110703000D01*
X288997000Y-110703000D02*
X290600000Y-109100000D01*
X252137500Y-121550000D02*
X252137500Y-120896700D01*
%TO.N,AB4*%
X262497300Y-111104000D02*
X265467800Y-111104000D01*
X265467800Y-111104000D02*
X273000000Y-111104000D01*
X273000000Y-111104000D02*
X292396000Y-111104000D01*
X253513235Y-120088065D02*
X254700650Y-118900650D01*
X253513235Y-121125735D02*
X253513235Y-120088065D01*
X292396000Y-111104000D02*
X294400000Y-109100000D01*
X254700650Y-118900650D02*
X262497300Y-111104000D01*
X253461765Y-121125735D02*
X253513235Y-121125735D01*
X245517500Y-129070000D02*
X253461765Y-121125735D01*
%TO.N,AB5*%
X254737500Y-120750000D02*
X254737500Y-119430900D01*
X295795000Y-111505000D02*
X298200000Y-109100000D01*
X254737500Y-119430900D02*
X257784200Y-116384200D01*
X269100000Y-111505000D02*
X295795000Y-111505000D01*
X262663400Y-111505000D02*
X269100000Y-111505000D01*
X246515643Y-128971857D02*
X254737500Y-120750000D01*
X257784200Y-116384200D02*
X262663400Y-111505000D01*
%TO.N,AB6*%
X262829500Y-111906000D02*
X270700000Y-111906000D01*
X270700000Y-111906000D02*
X299194000Y-111906000D01*
X256037500Y-120451000D02*
X256037500Y-120350000D01*
X246879047Y-129684554D02*
X246879047Y-129607803D01*
X247218000Y-129270500D02*
X256037500Y-120451000D01*
X256037500Y-118698000D02*
X257817750Y-116917750D01*
X299194000Y-111906000D02*
X302000000Y-109100000D01*
X257817750Y-116917750D02*
X262829500Y-111906000D01*
X246879047Y-129607803D02*
X247216350Y-129270500D01*
X256037500Y-120350000D02*
X256037500Y-118698000D01*
X247216350Y-129270500D02*
X247218000Y-129270500D01*
%TO.N,AB7*%
X247667500Y-129820000D02*
X257537500Y-119950000D01*
X260951300Y-114351300D02*
X262995600Y-112307000D01*
X257537500Y-117765100D02*
X260951300Y-114351300D01*
X262995600Y-112307000D02*
X278600000Y-112307000D01*
X278600000Y-112307000D02*
X302593000Y-112307000D01*
X348495532Y-161350000D02*
X348716516Y-161129016D01*
X302593000Y-112307000D02*
X305800000Y-109100000D01*
X257537500Y-119850000D02*
X257537500Y-117765100D01*
X257537500Y-119950000D02*
X257537500Y-119850000D01*
%TO.N,Net-(Q1129-G)*%
X300737500Y-125350000D02*
X300737500Y-132050000D01*
X280437500Y-123950000D02*
X299337500Y-123950000D01*
X277837500Y-126550000D02*
X280437500Y-123950000D01*
X299337500Y-123950000D02*
X300737500Y-125350000D01*
X300737500Y-132050000D02*
X302137500Y-133450000D01*
%TO.N,Net-(Q1127-G)*%
X264237500Y-128150000D02*
X264237500Y-126350000D01*
X264237500Y-126350000D02*
X267330500Y-123257000D01*
X267330500Y-123257000D02*
X295237500Y-123257000D01*
X295237500Y-123257000D02*
X300244500Y-123257000D01*
X300244500Y-123257000D02*
X302137500Y-125150000D01*
%TO.N,Net-(Q1141-G)*%
X294237500Y-134050000D02*
X306137500Y-134050000D01*
X306137500Y-134050000D02*
X306337500Y-133850000D01*
X277637500Y-137450000D02*
X279337500Y-135750000D01*
X279337500Y-135750000D02*
X292537500Y-135750000D01*
X292537500Y-135750000D02*
X294237500Y-134050000D01*
%TO.N,Net-(Q1139-G)*%
X264437500Y-139150000D02*
X259237500Y-133950000D01*
X259237500Y-133950000D02*
X259237500Y-126750000D01*
X259237500Y-126750000D02*
X263131500Y-122856000D01*
X299437500Y-122856000D02*
X304043500Y-122856000D01*
X263131500Y-122856000D02*
X299437500Y-122856000D01*
X304043500Y-122856000D02*
X306337500Y-125150000D01*
%TO.N,Net-(Q1151-G)*%
X304537500Y-122455000D02*
X307842500Y-122455000D01*
X264437500Y-150150000D02*
X258836500Y-144549000D01*
X258836500Y-144549000D02*
X258836500Y-126583900D01*
X258836500Y-126583900D02*
X262965400Y-122455000D01*
X262965400Y-122455000D02*
X304537500Y-122455000D01*
X307842500Y-122455000D02*
X310537500Y-125150000D01*
%TO.N,Net-(Q1153-G)*%
X298237500Y-145050000D02*
X298237500Y-138750000D01*
X296837500Y-146450000D02*
X297937500Y-145350000D01*
X297937500Y-145350000D02*
X298237500Y-145050000D01*
X307036500Y-134451000D02*
X307037500Y-134450000D01*
X307037500Y-134450000D02*
X310337500Y-134450000D01*
X279637500Y-146450000D02*
X285537500Y-146450000D01*
X285537500Y-146450000D02*
X296837500Y-146450000D01*
X298237500Y-138750000D02*
X298237500Y-136750000D01*
X300637500Y-134451000D02*
X307036500Y-134451000D01*
X298237500Y-136750000D02*
X300536500Y-134451000D01*
X277737500Y-148350000D02*
X279637500Y-146450000D01*
X310337500Y-134450000D02*
X310537500Y-134250000D01*
X300536500Y-134451000D02*
X300637500Y-134451000D01*
%TO.N,Net-(Q1163-G)*%
X309537500Y-122054000D02*
X311641500Y-122054000D01*
X311641500Y-122054000D02*
X314737500Y-125150000D01*
X262799300Y-122054000D02*
X309537500Y-122054000D01*
X258435500Y-126417800D02*
X262799300Y-122054000D01*
X264337500Y-161150000D02*
X258435500Y-155248000D01*
X258435500Y-155248000D02*
X258435500Y-126417800D01*
%TO.N,Net-(Q1000-D)*%
X300703600Y-134851000D02*
X314536500Y-134851000D01*
X279161500Y-157750000D02*
X297137500Y-157750000D01*
X297137500Y-157750000D02*
X298638500Y-156249000D01*
X314536500Y-134851000D02*
X314737500Y-134650000D01*
X298638500Y-136916100D02*
X300703600Y-134851000D01*
X298638500Y-156249000D02*
X298638500Y-136916100D01*
X277637500Y-159274000D02*
X279161500Y-157750000D01*
%TO.N,Net-(Q1008-D)*%
X312737500Y-121653000D02*
X315440500Y-121653000D01*
X262633200Y-121653000D02*
X312737500Y-121653000D01*
X264437500Y-172150000D02*
X258034500Y-165747000D01*
X315440500Y-121653000D02*
X318937500Y-125150000D01*
X258034500Y-126251700D02*
X262633200Y-121653000D01*
X258034500Y-165747000D02*
X258034500Y-126251700D01*
%TO.N,Net-(Q1025-D)*%
X257633500Y-176746000D02*
X257633500Y-126085600D01*
X257633500Y-126085600D02*
X262467100Y-121252000D01*
X264037500Y-183150000D02*
X257633500Y-176746000D01*
X262467100Y-121252000D02*
X317237500Y-121252000D01*
X319239500Y-121252000D02*
X323137500Y-125150000D01*
X317237500Y-121252000D02*
X319239500Y-121252000D01*
%TO.N,Net-(Q1028-D)*%
X300869700Y-135252000D02*
X318735500Y-135252000D01*
X299334500Y-165653000D02*
X299334500Y-136787200D01*
X277637500Y-170274000D02*
X279061500Y-168850000D01*
X296137500Y-168850000D02*
X299334500Y-165653000D01*
X279061500Y-168850000D02*
X296137500Y-168850000D01*
X318735500Y-135252000D02*
X318937500Y-135050000D01*
X299334500Y-136787200D02*
X300869700Y-135252000D01*
%TO.N,Net-(Q1035-D)*%
X264037500Y-194050000D02*
X257232500Y-187245000D01*
X257232500Y-187245000D02*
X257232500Y-125919500D01*
X264037500Y-194150000D02*
X264037500Y-194050000D01*
X262301000Y-120851000D02*
X320137500Y-120851000D01*
X323038500Y-120851000D02*
X327337500Y-125150000D01*
X320137500Y-120851000D02*
X323038500Y-120851000D01*
X257232500Y-125919500D02*
X262301000Y-120851000D01*
%TO.N,Net-(Q1045-G)*%
X304437500Y-188650000D02*
X304437500Y-176650000D01*
X304437500Y-176650000D02*
X304437500Y-164550000D01*
X304437500Y-194750000D02*
X304437500Y-188650000D01*
X304437500Y-164550000D02*
X304437500Y-152450000D01*
X304437500Y-152450000D02*
X304437500Y-140550000D01*
%TO.N,Net-(Q1050-D)*%
X299735500Y-176352000D02*
X299735500Y-136953300D01*
X277637500Y-181274000D02*
X279161500Y-179750000D01*
X299735500Y-136953300D02*
X301035800Y-135653000D01*
X301035800Y-135653000D02*
X322934500Y-135653000D01*
X322934500Y-135653000D02*
X323137500Y-135450000D01*
X296337500Y-179750000D02*
X299735500Y-176352000D01*
X279161500Y-179750000D02*
X296337500Y-179750000D01*
%TO.N,Net-(Q1055-G)*%
X308637500Y-188650000D02*
X308637500Y-176650000D01*
X308637500Y-140650000D02*
X308737500Y-140550000D01*
X308637500Y-194750000D02*
X308637500Y-188650000D01*
X308637500Y-164650000D02*
X308637500Y-152650000D01*
X308637500Y-176650000D02*
X308637500Y-164650000D01*
X308637500Y-152650000D02*
X308637500Y-140650000D01*
%TO.N,Net-(Q1057-D)*%
X256831500Y-125753400D02*
X262134900Y-120450000D01*
X256831500Y-197744000D02*
X256831500Y-125753400D01*
X326837500Y-120450000D02*
X331537500Y-125150000D01*
X322637500Y-120450000D02*
X326837500Y-120450000D01*
X264237500Y-205150000D02*
X256831500Y-197744000D01*
X262134900Y-120450000D02*
X322637500Y-120450000D01*
%TO.N,Net-(Q1058-G)*%
X312837500Y-194750000D02*
X312837500Y-188650000D01*
X312837500Y-152650000D02*
X312837500Y-140550000D01*
X312837500Y-188650000D02*
X312837500Y-176650000D01*
X312837500Y-164650000D02*
X312837500Y-152650000D01*
X312837500Y-176650000D02*
X312837500Y-164650000D01*
%TO.N,Net-(Q1060-G)*%
X317037500Y-164750000D02*
X317037500Y-152750000D01*
X317037500Y-152750000D02*
X317037500Y-140550000D01*
X317037500Y-194750000D02*
X317037500Y-188650000D01*
X317037500Y-176650000D02*
X317037500Y-164750000D01*
X317037500Y-188650000D02*
X317037500Y-176650000D01*
%TO.N,Net-(Q1071-G)*%
X321237500Y-176650000D02*
X321237500Y-164650000D01*
X321237500Y-164650000D02*
X321237500Y-152650000D01*
X321237500Y-188550000D02*
X321237500Y-176650000D01*
X321237500Y-152650000D02*
X321237500Y-140550000D01*
X321237500Y-194750000D02*
X321237500Y-188550000D01*
%TO.N,Net-(Q1074-G)*%
X325437500Y-152650000D02*
X325437500Y-140650000D01*
X325437500Y-176650000D02*
X325437500Y-164550000D01*
X325437500Y-194750000D02*
X325437500Y-188450000D01*
X325437500Y-164550000D02*
X325437500Y-152650000D01*
X325437500Y-188450000D02*
X325437500Y-176650000D01*
%TO.N,Net-(Q1078-D)*%
X279061500Y-190850000D02*
X295637500Y-190850000D01*
X295637500Y-190850000D02*
X300136500Y-186351000D01*
X327133500Y-136054000D02*
X327337500Y-135850000D01*
X300136500Y-186351000D02*
X300136500Y-185583900D01*
X301536500Y-181449000D02*
X300136500Y-180049000D01*
X300136500Y-180049000D02*
X300136500Y-137119400D01*
X300136500Y-137119400D02*
X301201900Y-136054000D01*
X300136500Y-185583900D02*
X301536500Y-184183900D01*
X301201900Y-136054000D02*
X327133500Y-136054000D01*
X277637500Y-192274000D02*
X279061500Y-190850000D01*
X301536500Y-184183900D02*
X301536500Y-181449000D01*
%TO.N,Net-(Q1084-G)*%
X329637500Y-188650000D02*
X329637500Y-176550000D01*
X329637500Y-176550000D02*
X329637500Y-164550000D01*
X329637500Y-164550000D02*
X329637500Y-152550000D01*
X329637500Y-152550000D02*
X329637500Y-140650000D01*
X329637500Y-194750000D02*
X329637500Y-188650000D01*
%TO.N,Net-(Q1087-G)*%
X333837500Y-176550000D02*
X333837500Y-164550000D01*
X333837500Y-164550000D02*
X333837500Y-140750000D01*
X333837500Y-194750000D02*
X333837500Y-188650000D01*
X333837500Y-188650000D02*
X333837500Y-176550000D01*
%TO.N,Net-(Q1096-D)*%
X288897500Y-215750000D02*
X288997500Y-215650000D01*
X288697500Y-215750000D02*
X288897500Y-215750000D01*
X341197500Y-215650000D02*
X348797500Y-208050000D01*
X288997500Y-215650000D02*
X341197500Y-215650000D01*
%TO.N,Net-(Q1102-D)*%
X301937500Y-184350000D02*
X301937500Y-180750000D01*
X300537500Y-179350000D02*
X300537500Y-137285500D01*
X278961500Y-201950000D02*
X295737500Y-201950000D01*
X300537500Y-137285500D02*
X301368000Y-136455000D01*
X300537500Y-185750000D02*
X301937500Y-184350000D01*
X300537500Y-197150000D02*
X300537500Y-185750000D01*
X301937500Y-180750000D02*
X300537500Y-179350000D01*
X277637500Y-203274000D02*
X278961500Y-201950000D01*
X331332500Y-136455000D02*
X331537500Y-136250000D01*
X295737500Y-201950000D02*
X300537500Y-197150000D01*
X301368000Y-136455000D02*
X331332500Y-136455000D01*
%TD*%
M02*
