M48
; DRILL file {KiCad 9.0.7} date 2026-03-29T15:28:22+0200
; FORMAT={-:-/ absolute / inch / decimal}
; #@! TF.CreationDate,2026-03-29T15:28:22+02:00
; #@! TF.GenerationSoftware,Kicad,Pcbnew,9.0.7
; #@! TF.FileFunction,Plated,1,6,PTH
FMAT,2
INCH
; #@! TA.AperFunction,Plated,PTH,ViaDrill
T1C0.0118
; #@! TA.AperFunction,Plated,PTH,ViaDrill
T2C0.0197
; #@! TA.AperFunction,Plated,PTH,ComponentDrill
T3C0.0315
; #@! TA.AperFunction,Plated,PTH,ComponentDrill
T4C0.0394
%
G90
G05
T1
X0.8898Y-3.0827
X1.0079Y-4.1024
X1.3583Y-4.2323
X1.4065Y-2.0167
X1.4252Y-4.2559
X1.5433Y-2.0472
X1.5472Y-1.8031
X1.5512Y-5.8031
X1.563Y-4.2559
X1.5709Y-1.8942
X1.5733Y-5.4754
X1.5787Y-6.6929
X1.5906Y-5.5866
X1.5945Y-1.8031
X1.5954Y-4.6693
X1.5954Y-4.8543
X1.5954Y-5.0197
X1.5954Y-5.2087
X1.6142Y-6.5866
X1.6535Y-4.8307
X1.6575Y-5.0
X1.6693Y-4.6457
X1.6772Y-5.1732
X1.689Y-6.4213
X1.7047Y-6.1929
X1.7126Y-6.563
X1.7244Y-5.7274
X1.7323Y-2.1969
X1.7638Y-6.6142
X1.7874Y-4.6299
X1.7874Y-4.8031
X1.7953Y-4.9803
X1.7953Y-5.1614
X1.7953Y-5.3425
X1.8189Y-5.4449
X1.8583Y-6.3937
X1.8701Y-6.5276
X1.9567Y-2.3465
X1.9724Y-5.4488
X2.0039Y-2.0315
X2.0157Y-2.3622
X2.0167Y-4.5276
X2.0167Y-4.6899
X2.0167Y-4.8671
X2.0167Y-5.0443
X2.0167Y-5.2156
X2.0187Y-2.1934
X2.126Y-5.9961
X2.1299Y-5.4449
X2.1299Y-5.874
X2.1378Y-2.3465
X2.1654Y-7.9646
X2.1693Y-7.2756
X2.1693Y-7.6181
X2.1693Y-7.7953
X2.1693Y-8.1378
X2.1693Y-8.311
X2.1732Y-7.1063
X2.1732Y-7.4488
X2.189Y-2.0315
X2.189Y-4.8858
X2.189Y-5.3031
X2.1929Y-2.3583
X2.1929Y-4.7047
X2.1929Y-5.0748
X2.1969Y-4.5315
X2.1989Y-1.8705
X2.1989Y-2.1934
X2.2126Y-4.4655
X2.2126Y-5.9803
X2.2387Y-6.2864
X2.2446Y-6.2254
X2.248Y-6.0906
X2.252Y-4.467
X2.252Y-5.8189
X2.2638Y-6.6299
X2.2874Y-5.4488
X2.2913Y-8.5906
X2.311Y-8.563
X2.315Y-2.3465
X2.3307Y-8.5354
X2.3504Y-8.5079
X2.3519Y-6.4345
X2.3661Y-2.0315
X2.3701Y-2.3622
X2.3701Y-8.4803
X2.371Y-4.5236
X2.371Y-4.6693
X2.371Y-4.8504
X2.371Y-5.0315
X2.371Y-5.2087
X2.3761Y-1.8705
X2.3761Y-2.1934
X2.3898Y-8.4528
X2.4094Y-2.689
X2.4094Y-8.4252
X2.4277Y-6.2077
X2.4291Y-8.3976
X2.4409Y-5.4449
X2.4409Y-7.1181
X2.4409Y-8.3386
X2.4646Y-7.248
X2.4646Y-8.563
X2.4882Y-2.3465
X2.4921Y-5.6496
X2.4921Y-7.3819
X2.4921Y-8.2835
X2.5127Y-4.6417
X2.5157Y-7.5157
X2.5157Y-8.2559
X2.5161Y-5.5909
X2.5182Y-6.373
X2.5221Y-5.9409
X2.5246Y-4.5984
X2.5246Y-5.0079
X2.5276Y-5.6732
X2.5285Y-5.1693
X2.532Y-4.8307
X2.5394Y-7.6535
X2.5394Y-8.2283
X2.5433Y-2.0315
X2.5433Y-2.3622
X2.5458Y-5.7943
X2.5512Y-6.8976
X2.5532Y-1.8705
X2.5532Y-2.1934
X2.5596Y-4.7677
X2.5596Y-4.9331
X2.5596Y-5.1772
X2.563Y-7.7835
X2.563Y-8.2008
X2.5866Y-8.1732
X2.5869Y-7.9058
X2.5984Y-5.4488
X2.5989Y-6.1112
X2.6181Y-8.1142
X2.626Y-5.3386
X2.6654Y-2.3425
X2.6811Y-5.9606
X2.6836Y-5.6683
X2.7047Y-0.8661
X2.7205Y-2.0315
X2.7244Y-2.3661
X2.7304Y-1.8705
X2.7313Y-2.1934
X2.7362Y-4.7362
X2.7598Y-5.4449
X2.7726Y-4.8882
X2.7726Y-5.085
X2.7726Y-5.2796
X2.7781Y-6.2077
X2.7953Y-6.9409
X2.7953Y-8.5906
X2.8071Y-0.8898
X2.8246Y-3.2774
X2.8268Y-6.378
X2.8346Y-3.748
X2.8425Y-2.3465
X2.8543Y-6.5748
X2.8622Y-4.5945
X2.8888Y-4.7795
X2.8976Y-2.0315
X2.9016Y-2.3622
X2.9055Y-0.9134
X2.9076Y-2.1934
X2.9133Y-1.8705
X2.9134Y-5.3504
X2.9151Y-3.7266
X2.9173Y-5.4528
X2.9409Y-6.8701
X2.9449Y-7.0
X2.9449Y-8.3386
X2.9685Y-6.2795
X2.9685Y-7.1339
X2.9685Y-8.311
X2.9724Y-3.622
X2.9856Y-4.7756
X2.9856Y-4.9803
X2.9856Y-5.1654
X2.9921Y-7.2559
X2.9921Y-8.5354
X2.9961Y-5.9557
X3.0079Y-0.937
X3.0197Y-2.3425
X3.0709Y-2.0315
X3.0748Y-5.4409
X3.0827Y-2.3661
X3.0847Y-1.8705
X3.0847Y-2.1934
X3.1063Y-0.9606
X3.1181Y-3.4213
X3.1339Y-6.8701
X3.1496Y-3.748
X3.1535Y-6.0039
X3.185Y-6.937
X3.185Y-8.5906
X3.1969Y-2.3386
X3.2008Y-5.8189
X3.2047Y-0.9843
X3.2323Y-3.7283
X3.2466Y-5.9557
X3.252Y-2.0354
X3.2598Y-2.3661
X3.2619Y-1.8705
X3.2619Y-2.1934
X3.2835Y-5.6142
X3.2913Y-3.626
X3.3071Y-1.0079
X3.3346Y-6.8661
X3.3543Y-6.9882
X3.3543Y-8.3386
X3.378Y-7.0984
X3.378Y-8.563
X3.3937Y-4.3228
X3.4055Y-1.0315
X3.4252Y-2.0315
X3.4331Y-4.3386
X3.4391Y-1.8705
X3.4391Y-2.1934
X3.4391Y-2.3661
X3.4391Y-2.4016
X3.4609Y-3.3113
X3.4646Y-3.748
X3.5236Y-6.8661
X3.5431Y-3.7247
X3.5748Y-4.6339
X3.5748Y-6.9409
X3.5748Y-8.5906
X3.6063Y-3.626
X3.6102Y-2.4055
X3.6142Y-2.0315
X3.6142Y-2.3661
X3.6162Y-1.8705
X3.6162Y-2.1934
X3.7008Y-7.0315
X3.7008Y-8.3386
X3.7126Y-6.8622
X3.7244Y-7.1654
X3.7244Y-8.311
X3.748Y-7.2992
X3.748Y-8.2835
X3.763Y-3.2866
X3.7717Y-7.4134
X3.7717Y-8.5079
X3.7795Y-3.748
X3.7835Y-2.0315
X3.7934Y-1.8705
X3.7934Y-2.1934
X3.7934Y-2.3661
X3.7934Y-2.4055
X3.858Y-3.7247
X3.9213Y-3.626
X3.9252Y-6.8661
X3.9606Y-2.0315
X3.9706Y-1.8705
X3.9706Y-2.1934
X3.9706Y-2.3622
X3.9706Y-2.4055
X3.9724Y-6.9409
X3.9724Y-8.5906
X4.0681Y-3.2964
X4.0945Y-3.748
X4.122Y-6.874
X4.1417Y-2.0276
X4.1477Y-2.1934
X4.1496Y-6.9764
X4.1496Y-8.3386
X4.1526Y-2.3701
X4.1526Y-2.4094
X4.1535Y-1.8705
X4.1693Y-8.563
X4.173Y-3.7247
X4.1732Y-7.0984
X4.2381Y-3.6299
X4.3083Y-4.6091
X4.3189Y-2.0276
X4.3228Y-6.8701
X4.3249Y-2.1934
X4.3298Y-2.3661
X4.3298Y-2.4055
X4.3307Y-1.8705
X4.3661Y-6.9409
X4.3661Y-8.5906
X4.3909Y-3.2885
X4.4094Y-3.748
X4.466Y-4.5157
X4.4882Y-3.7283
X4.4921Y-2.0315
X4.502Y-1.8705
X4.502Y-2.1934
X4.5039Y-2.3701
X4.5069Y-2.4055
X4.5118Y-7.0079
X4.5118Y-8.3386
X4.5197Y-6.8622
X4.5354Y-7.1457
X4.5354Y-8.311
X4.5512Y-3.622
X4.5551Y-4.689
X4.5551Y-8.5354
X4.5591Y-7.2598
X4.6457Y-3.3071
X4.6732Y-2.0315
X4.6792Y-1.8705
X4.6792Y-2.1934
X4.6841Y-2.3622
X4.6841Y-2.4055
X4.7126Y-7.3189
X4.7126Y-8.2835
X4.7205Y-6.8701
X4.7244Y-3.748
X4.7298Y-4.5906
X4.7362Y-7.4528
X4.7362Y-8.2559
X4.7598Y-7.5669
X4.7598Y-8.4803
X4.7717Y-5.8858
X4.7874Y-1.9606
X4.8049Y-3.7266
X4.8228Y-4.7559
X4.8465Y-4.3908
X4.8622Y-6.8898
X4.8681Y-3.622
X4.8831Y-6.6299
X4.9272Y-6.1811
X4.9606Y-3.3071
X4.9646Y-5.6024
X4.9646Y-5.811
X4.9646Y-7.2559
X4.9646Y-8.5354
X4.9764Y-4.6929
X5.0118Y-4.1181
X5.0394Y-3.748
X5.0472Y-5.622
X5.0591Y-6.8937
X5.0827Y-2.0315
X5.0827Y-2.3701
X5.0846Y-6.1772
X5.0896Y-2.1973
X5.0896Y-2.2717
X5.0915Y-1.8705
X5.1179Y-3.7247
X5.122Y-7.3071
X5.122Y-8.2835
X5.1457Y-7.4134
X5.1457Y-8.5079
X5.1811Y-3.622
X5.2421Y-6.1772
X5.2559Y-2.0315
X5.2559Y-2.3661
X5.2559Y-6.8898
X5.2668Y-2.1973
X5.2668Y-2.2717
X5.2687Y-1.8705
X5.2717Y-1.0787
X5.2968Y-4.5472
X5.3189Y-3.4094
X5.3204Y-4.5906
X5.3425Y-8.5354
X5.3465Y-7.2559
X5.3543Y-3.748
X5.3661Y-6.1772
X5.3858Y-1.1339
X5.4055Y-4.0866
X5.4085Y-4.2028
X5.4328Y-3.7247
X5.4331Y-2.374
X5.4395Y-2.03
X5.4439Y-2.1973
X5.4439Y-2.2717
X5.4449Y-1.8705
X5.4528Y-6.8819
X5.4724Y-7.3465
X5.4724Y-8.2835
X5.496Y-6.2008
X5.4961Y-3.6181
X5.4961Y-7.4764
X5.4961Y-8.2559
X5.5197Y-4.7087
X5.5197Y-4.7677
X5.5197Y-7.6142
X5.5197Y-8.2283
X5.5433Y-7.7283
X5.5433Y-8.4528
X5.5984Y-4.1142
X5.6102Y-4.8307
X5.6181Y-2.0276
X5.6211Y-2.1973
X5.6211Y-2.2717
X5.6211Y-2.3819
X5.6221Y-1.8705
X5.6299Y-3.4134
X5.6496Y-6.8937
X5.6535Y-6.2052
X5.6693Y-3.748
X5.6944Y-4.5906
X5.7402Y-7.2559
X5.7402Y-8.5354
X5.7478Y-3.7247
X5.7549Y-4.3209
X5.7717Y-0.8661
X5.7953Y-2.0276
X5.7953Y-2.3858
X5.7983Y-2.1973
X5.7983Y-2.2717
X5.8002Y-1.8705
X5.8071Y-3.622
X5.811Y-6.2008
X5.8465Y-6.8937
X5.8716Y-4.4724
X5.874Y-0.8898
X5.9173Y-7.2953
X5.9173Y-8.2835
X5.936Y-4.2028
X5.9409Y-7.4094
X5.9409Y-8.5079
X5.9488Y-3.4094
X5.9646Y-2.0276
X5.9685Y-6.2008
X5.9724Y-0.9134
X5.9724Y-2.3858
X5.9754Y-2.1973
X5.9754Y-2.2717
X5.9773Y-1.8705
X5.9843Y-3.748
X6.0354Y-4.2953
X6.0394Y-4.6791
X6.0433Y-6.8819
X6.0472Y-4.7717
X6.0627Y-3.7247
X6.0709Y-0.937
X6.0787Y-4.7166
X6.122Y-3.622
X6.1339Y-7.5709
X6.1339Y-8.4803
X6.1457Y-2.0276
X6.1496Y-2.3819
X6.1526Y-2.1973
X6.1526Y-2.2717
X6.1536Y-1.8705
X6.1693Y-0.9606
X6.2105Y-5.9861
X6.2402Y-6.8898
X6.2456Y-4.5906
X6.2638Y-3.4213
X6.2717Y-0.9843
X6.2835Y-7.6457
X6.2835Y-8.2283
X6.2992Y-3.748
X6.3061Y-4.2028
X6.3071Y-7.7795
X6.3071Y-8.2008
X6.311Y-6.3031
X6.3189Y-2.0276
X6.3189Y-4.0984
X6.3228Y-2.378
X6.3268Y-8.4252
X6.3298Y-2.1973
X6.3298Y-2.2717
X6.3307Y-7.8858
X6.3307Y-1.8705
X6.3504Y-6.0039
X6.3602Y-4.876
X6.374Y-1.0079
X6.3777Y-3.7247
X6.437Y-3.626
X6.437Y-6.8898
X6.4764Y-1.0315
X6.4882Y-2.0315
X6.5069Y-2.1973
X6.5069Y-2.2717
X6.5088Y-1.8705
X6.5236Y-2.5472
X6.5354Y-7.5709
X6.5354Y-8.4803
X6.5591Y-5.7756
X6.5827Y-3.4134
X6.6142Y-3.748
X6.6339Y-6.8898
X6.6486Y-4.3209
X6.6496Y-6.1432
X6.6535Y-5.9464
X6.6644Y-4.2028
X6.6811Y-2.0236
X6.6841Y-2.1973
X6.6841Y-2.2717
X6.686Y-1.8705
X6.6927Y-3.7247
X6.7008Y-5.7495
X6.7047Y-7.6181
X6.7047Y-8.2283
X6.7087Y-2.5433
X6.7283Y-7.7283
X6.7283Y-8.4528
X6.752Y-3.626
X6.8164Y-4.5906
X6.8243Y-4.4724
X6.8307Y-6.8898
X6.8465Y-4.1024
X6.8543Y-2.0276
X6.8613Y-2.1973
X6.8613Y-2.2717
X6.8622Y-1.8705
X6.8819Y-2.5433
X6.8976Y-3.4173
X6.9213Y-7.5669
X6.9213Y-8.4803
X6.9267Y-3.7495
X7.0076Y-3.7247
X7.0276Y-2.0315
X7.0276Y-6.8898
X7.0315Y-7.6772
X7.0315Y-8.2283
X7.0384Y-2.1973
X7.0384Y-2.2717
X7.0394Y-1.8705
X7.0551Y-7.811
X7.0551Y-8.2008
X7.0591Y-5.3031
X7.063Y-2.5354
X7.0709Y-3.622
X7.0787Y-7.9488
X7.0787Y-8.1732
X7.1181Y-4.2402
X7.122Y-8.0433
X7.1339Y-5.2638
X7.1457Y-8.3976
X7.1732Y-4.0748
X7.2087Y-2.0276
X7.2126Y-3.4134
X7.2156Y-2.1973
X7.2156Y-2.2717
X7.2175Y-1.8705
X7.2244Y-6.8898
X7.2323Y-2.5315
X7.2416Y-3.7495
X7.2559Y-4.3031
X7.2835Y-5.4055
X7.3226Y-3.7247
X7.3228Y-5.2047
X7.3268Y-5.1102
X7.3615Y-3.6385
X7.374Y-5.3543
X7.3898Y-2.0236
X7.3928Y-2.1973
X7.3928Y-2.2717
X7.3946Y-1.8705
X7.4055Y-2.5197
X7.5236Y-5.2283
X7.5276Y-3.4134
X7.5394Y-5.3661
X7.5566Y-3.7495
X7.5591Y-2.0315
X7.5669Y-5.0433
X7.5669Y-5.2402
X7.5699Y-2.1973
X7.5699Y-2.2717
X7.5709Y-1.8705
X7.5748Y-5.4488
X7.5906Y-4.8583
X7.5945Y-2.5394
X7.6373Y-2.2249
X7.6417Y-6.5945
X7.6417Y-7.4134
X7.6457Y-6.1654
X7.6457Y-7.6142
X7.6457Y-7.815
X7.6457Y-8.0079
X7.6496Y-5.7598
X7.6496Y-6.3583
X7.6496Y-6.9882
X7.6496Y-7.189
X7.6535Y-5.9646
X7.6575Y-6.7913
X7.6654Y-5.0945
X7.6693Y-4.937
X7.6969Y-3.626
X7.7087Y-8.0591
X7.7087Y-8.3386
X7.7323Y-2.0315
X7.7441Y-7.4488
X7.7481Y-1.8705
X7.7481Y-2.1973
X7.7677Y-2.5512
X7.7795Y-7.8543
X7.7835Y-4.6614
X7.7835Y-5.2047
X7.7874Y-6.1969
X7.7894Y-7.6673
X7.7913Y-7.0276
X7.7953Y-6.6417
X7.7953Y-7.2441
X7.7992Y-6.8386
X7.8031Y-6.4331
X7.8071Y-6.0276
X7.8346Y-4.8819
X7.8465Y-5.0512
X7.8661Y-8.0591
X7.8661Y-8.311
X7.8976Y-7.6457
X7.9016Y-6.815
X7.9094Y-1.4961
X7.9094Y-1.6732
X7.9094Y-1.8504
X7.9094Y-2.0276
X7.9094Y-2.2047
X7.9094Y-2.3819
X7.9094Y-2.5591
X7.9213Y-7.2205
X7.9803Y-5.1969
X7.9921Y-8.0433
X8.0Y-6.3976
X8.0Y-7.2283
X8.0413Y-4.6378
X8.0453Y-1.4513
X8.0453Y-1.6245
X8.0453Y-1.8056
X8.0472Y-4.6772
X8.0492Y-1.9867
X8.0492Y-2.156
X8.0492Y-2.3332
X8.0492Y-2.5143
X8.065Y-1.3292
X8.1063Y-5.2362
X8.1417Y-5.3543
X8.2047Y-6.0276
X8.2047Y-6.4331
X8.2283Y-7.2677
X8.2441Y-1.5182
X8.2441Y-1.6954
X8.2441Y-1.8725
X8.2441Y-2.0497
X8.2441Y-2.2269
X8.2441Y-2.404
X8.2441Y-2.5812
X8.252Y-6.8386
X8.252Y-7.2913
X8.252Y-7.6693
X8.2992Y-6.1969
X8.3228Y-6.811
X8.3228Y-7.6457
X8.3465Y-6.6417
X8.3465Y-7.0276
X8.3465Y-7.4488
X8.3465Y-7.8543
X8.4291Y-1.1535
X8.4409Y-1.122
X8.4567Y-1.0906
X8.4764Y-1.063
X8.4959Y-1.0356
X8.514Y-1.0097
X8.5238Y-0.9797
X8.5433Y-0.9528
X8.5768Y-1.5025
X8.5768Y-1.8607
X8.5768Y-2.3844
X8.5768Y-2.5655
X8.5807Y-1.3292
X8.5807Y-1.6757
X8.5807Y-1.967
X8.5807Y-2.03
X8.5807Y-2.2072
X8.5807Y-2.4985
X8.5846Y-2.1442
X8.5886Y-2.3253
X8.5925Y-2.6757
X8.5965Y-1.7859
X8.6161Y-1.6088
X8.6181Y-2.9882
X8.7028Y-1.4277
X8.7598Y-1.4921
X8.7598Y-2.0276
X8.7598Y-2.2047
X8.7598Y-2.3819
X8.7638Y-1.6732
X8.7638Y-1.8504
X8.7638Y-2.5591
X8.813Y-2.6954
X8.8169Y-1.4631
X8.8169Y-1.5891
X8.8169Y-1.7938
X8.8169Y-1.9631
X8.8169Y-2.1324
X8.8169Y-2.3214
X8.8169Y-2.5025
X8.8937Y-1.4961
X8.8937Y-1.6732
X8.8937Y-1.8504
X8.8937Y-2.0276
X8.8937Y-2.2047
X8.8937Y-2.3819
X8.8937Y-2.5591
X10.9055Y-5.0591
X10.9055Y-5.4921
X10.9055Y-5.9291
X10.9055Y-6.3583
X10.9055Y-7.6614
X10.9094Y-6.7953
X10.9094Y-7.2323
X10.9094Y-8.0945
X10.9134Y-5.1929
X10.9134Y-5.626
X10.9134Y-6.0591
X10.9134Y-6.9252
X10.9134Y-7.3583
X10.9134Y-7.7913
X10.9134Y-8.2244
X10.9761Y-5.3108
X10.9761Y-5.7438
X10.9761Y-6.1769
X10.9761Y-6.61
X10.9761Y-7.0431
X10.9761Y-7.4761
X10.9761Y-7.9092
X10.9761Y-8.3423
X10.9787Y-5.1047
X10.9787Y-5.5378
X10.9787Y-5.9709
X10.9787Y-6.4039
X10.9787Y-6.837
X10.9787Y-7.2701
X10.9787Y-7.7031
X10.9787Y-8.1362
X11.0433Y-5.3937
X11.0472Y-5.8268
X11.0472Y-6.2598
X11.0472Y-6.6929
X11.0472Y-7.126
X11.0472Y-7.5551
X11.0472Y-7.9921
X11.0472Y-8.4213
X11.2205Y-5.2047
X11.2205Y-5.252
X11.2205Y-5.6378
X11.2205Y-5.685
X11.2205Y-6.0709
X11.2205Y-6.1181
X11.2205Y-6.5039
X11.2205Y-6.5512
X11.2205Y-6.937
X11.2205Y-6.9843
X11.2205Y-7.3701
X11.2205Y-7.4173
X11.2205Y-7.8031
X11.2205Y-7.8504
X11.2205Y-8.2362
X11.2205Y-8.2835
X11.2913Y-5.3425
X11.2913Y-5.7756
X11.2913Y-6.2087
X11.2913Y-6.6417
X11.2913Y-7.0748
X11.2913Y-7.5079
X11.2913Y-7.9409
X11.2913Y-8.374
X11.3235Y-6.4691
X11.3235Y-6.9022
X11.3241Y-7.3346
X11.3254Y-5.1679
X11.3254Y-5.601
X11.3254Y-7.7664
X11.3254Y-8.1994
X11.3274Y-6.0321
X11.3794Y-5.475
X11.3794Y-5.908
X11.3794Y-6.3411
X11.3794Y-6.7742
X11.3794Y-7.2073
X11.3794Y-7.6403
X11.3794Y-8.0734
X11.3794Y-8.5065
X11.4173Y-5.3307
X11.4173Y-5.7638
X11.4173Y-6.1969
X11.4173Y-6.6299
X11.4173Y-7.063
X11.4173Y-7.4961
X11.4173Y-7.9291
X11.4173Y-8.3622
X11.5551Y-5.5709
X11.5551Y-6.4301
X11.5551Y-6.8631
X11.5551Y-7.2962
X11.5551Y-7.7293
X11.5551Y-8.1624
X11.5591Y-6.0
X11.563Y-5.1417
X11.563Y-5.3228
X11.563Y-5.7559
X11.563Y-6.189
X11.563Y-6.622
X11.563Y-7.0551
X11.563Y-7.4882
X11.563Y-7.9213
X11.563Y-8.3543
X11.5827Y-5.2205
X11.5827Y-5.6535
X11.5827Y-6.0866
X11.5827Y-6.5197
X11.5827Y-6.9528
X11.5827Y-7.3858
X11.5827Y-7.8189
X11.5827Y-8.252
X11.6063Y-5.1654
X11.6063Y-5.3701
X11.6063Y-5.5984
X11.6063Y-5.8031
X11.6063Y-6.0315
X11.6063Y-6.2362
X11.6063Y-6.4646
X11.6063Y-6.6693
X11.6063Y-6.8976
X11.6063Y-7.1024
X11.6063Y-7.3307
X11.6063Y-7.5354
X11.6063Y-7.7638
X11.6063Y-7.9685
X11.6063Y-8.1969
X11.6063Y-8.4016
X11.6614Y-5.4252
X11.6614Y-5.8583
X11.6614Y-6.2913
X11.6614Y-6.7244
X11.6614Y-7.1575
X11.6614Y-7.5906
X11.6614Y-8.0236
X11.6614Y-8.4567
X11.7559Y-5.7677
X11.7559Y-7.937
X11.7598Y-5.3346
X11.7598Y-6.2008
X11.7598Y-6.6339
X11.7598Y-7.0669
X11.7598Y-7.5
X11.7598Y-8.3661
X11.8465Y-5.3268
X11.8465Y-5.7598
X11.8465Y-6.1929
X11.8465Y-6.626
X11.8465Y-7.0591
X11.8465Y-7.4921
X11.8465Y-7.9252
X11.8465Y-8.3583
X11.9882Y-6.2165
X11.9882Y-7.0866
X11.9921Y-5.3543
X11.9921Y-5.7874
X11.9921Y-6.6535
X11.9921Y-7.5197
X11.9921Y-7.9528
X11.9921Y-8.3858
X12.0197Y-5.2205
X12.0197Y-5.6535
X12.0197Y-6.0866
X12.0197Y-6.5197
X12.0197Y-6.9528
X12.0197Y-7.3858
X12.0197Y-7.8189
X12.0197Y-8.252
X12.0236Y-5.374
X12.0236Y-5.8071
X12.0236Y-6.2402
X12.0236Y-6.6772
X12.0236Y-7.1102
X12.0236Y-7.5433
X12.0236Y-7.9764
X12.0236Y-8.4173
X12.0315Y-5.0984
X12.0394Y-5.5394
X12.0394Y-5.9764
X12.0394Y-6.4094
X12.0394Y-6.8425
X12.0394Y-7.2756
X12.0394Y-7.7047
X12.0394Y-8.1417
X12.0433Y-5.3268
X12.0433Y-5.7598
X12.0433Y-6.1929
X12.0433Y-6.626
X12.0433Y-7.0591
X12.0433Y-7.4921
X12.0433Y-7.9252
X12.0433Y-8.3583
X12.0984Y-5.4252
X12.0984Y-5.8583
X12.0984Y-6.2913
X12.0984Y-6.7244
X12.0984Y-7.1575
X12.0984Y-7.5906
X12.0984Y-8.0236
X12.0984Y-8.4567
X12.2047Y-5.248
X12.2087Y-8.2756
X12.2126Y-5.6772
X12.2126Y-6.1102
X12.2126Y-6.5433
X12.2126Y-6.9724
X12.2126Y-7.4094
X12.2205Y-7.8386
X14.252Y-8.3031
X14.252Y-8.6378
X14.3504Y-7.6063
X14.3535Y-6.5031
X14.3583Y-6.4567
X14.3583Y-7.1732
X14.3583Y-7.2165
X14.3622Y-6.6575
X14.378Y-7.7953
X14.378Y-8.0787
X14.4252Y-7.6378
X14.4843Y-7.5079
X14.4843Y-8.5
X14.5197Y-6.6575
X14.5472Y-6.9449
T2
X1.4331Y-2.8346
X1.5236Y-2.8307
X1.5887Y-6.377
X1.6417Y-7.0433
X1.6417Y-7.1496
X1.6417Y-7.2165
X1.6417Y-7.3228
X1.6417Y-7.3898
X1.6417Y-7.4961
X1.6417Y-7.563
X1.6417Y-7.6693
X1.6417Y-7.7362
X1.6417Y-7.8425
X1.6417Y-7.9094
X1.6417Y-8.0157
X1.6417Y-8.0827
X1.6417Y-8.189
X1.6417Y-8.2559
X1.6417Y-8.3622
X1.6496Y-2.5984
X1.6725Y-2.9673
X1.6993Y-5.7904
X1.722Y-2.3976
X1.7347Y-5.936
X1.7795Y-2.185
X1.8494Y-2.1934
X1.8686Y-6.2077
X1.8928Y-1.8705
X1.8937Y-3.2795
X1.9355Y-6.2077
X1.9626Y-3.4055
X1.9724Y-3.2047
X2.0039Y-3.7795
X2.0157Y-7.0433
X2.0157Y-7.1496
X2.0157Y-7.2165
X2.0157Y-7.3228
X2.0157Y-7.3898
X2.0157Y-7.4961
X2.0157Y-7.563
X2.0157Y-7.6693
X2.0157Y-7.7362
X2.0157Y-7.8425
X2.0157Y-7.9094
X2.0157Y-8.0157
X2.0157Y-8.0827
X2.0157Y-8.189
X2.0157Y-8.2559
X2.0157Y-8.3622
X2.0542Y-2.5984
X2.0669Y-3.7756
X2.0684Y-1.6914
X2.3489Y-6.5541
X2.4906Y-6.0463
X2.5064Y-6.2746
X2.5827Y-2.5984
X2.6048Y-6.2116
X2.6236Y-1.6914
X2.6909Y-3.2717
X2.748Y-3.685
X2.7795Y-6.6969
X2.8346Y-3.8622
X2.8386Y-3.4528
X2.8804Y-5.7864
X3.0059Y-3.2717
X3.063Y-3.685
X3.1245Y-5.7589
X3.1403Y-6.2628
X3.1496Y-3.8622
X3.1521Y-6.0463
X3.1535Y-3.4528
X3.1929Y-6.6969
X3.2111Y-6.2707
X3.2953Y-2.5984
X3.3208Y-3.2717
X3.3322Y-1.6914
X3.378Y-3.685
X3.4646Y-3.8622
X3.4685Y-3.4528
X3.6358Y-3.2717
X3.6929Y-3.685
X3.7795Y-3.8622
X3.7835Y-3.4528
X3.788Y-6.6975
X3.811Y-6.2244
X3.811Y-6.3228
X3.9507Y-3.2717
X4.0069Y-2.5984
X4.0079Y-3.685
X4.0369Y-1.6914
X4.0945Y-3.8622
X4.0984Y-3.4528
X4.1614Y-6.6969
X4.2657Y-3.2717
X4.3228Y-3.685
X4.4094Y-3.8622
X4.4134Y-3.4528
X4.5384Y-2.5871
X4.5669Y-6.6969
X4.5724Y-1.6914
X4.5807Y-3.2717
X4.6378Y-3.685
X4.7244Y-3.8622
X4.7283Y-3.4528
X4.7844Y-6.6978
X4.8031Y-5.7992
X4.8228Y-2.1496
X4.8573Y-4.2539
X4.8956Y-3.2717
X4.9164Y-2.1973
X4.9528Y-3.685
X4.9557Y-1.8705
X5.0157Y-4.1929
X5.0394Y-3.8622
X5.0433Y-3.4528
X5.1172Y-2.5871
X5.1329Y-1.6934
X5.2106Y-3.2717
X5.2677Y-3.685
X5.3543Y-3.8622
X5.3583Y-3.4528
X5.3622Y-6.6969
X5.3976Y-6.0669
X5.5256Y-3.2717
X5.5827Y-3.685
X5.6487Y-2.5871
X5.6693Y-3.8622
X5.6732Y-3.4528
X5.688Y-1.6934
X5.748Y-6.6969
X5.8405Y-3.2717
X5.8976Y-3.685
X5.9843Y-3.8622
X5.9882Y-3.4528
X6.1378Y-6.6969
X6.1555Y-3.2717
X6.2126Y-3.685
X6.2992Y-3.8622
X6.3031Y-3.4528
X6.3613Y-2.5871
X6.3967Y-1.6934
X6.4704Y-3.2717
X6.5276Y-3.685
X6.5354Y-6.6969
X6.5827Y-5.2362
X6.5866Y-5.3307
X6.6142Y-3.8622
X6.6181Y-3.4528
X6.7283Y-6.6969
X6.7854Y-3.2717
X6.8425Y-3.685
X6.8504Y-5.8189
X6.8543Y-6.0157
X6.8543Y-6.2087
X6.8543Y-6.4055
X6.9291Y-3.8622
X6.9331Y-3.4528
X7.0699Y-2.5871
X7.1004Y-3.2717
X7.1014Y-1.6934
X7.1122Y-8.1043
X7.1575Y-3.685
X7.2441Y-3.8622
X7.248Y-3.4528
X7.3425Y-5.7791
X7.3425Y-6.1964
X7.3425Y-6.6334
X7.3425Y-7.0232
X7.3425Y-7.8543
X7.3465Y-7.4606
X7.3898Y-4.7283
X7.4153Y-3.2717
X7.4724Y-3.685
X7.5374Y-4.252
X7.5413Y-4.3386
X7.5433Y-5.1732
X7.5433Y-5.7598
X7.5433Y-5.9567
X7.5433Y-6.1535
X7.5433Y-6.3504
X7.5433Y-6.5866
X7.5433Y-6.7835
X7.5433Y-6.9803
X7.5433Y-7.1772
X7.5433Y-7.4134
X7.5433Y-7.6102
X7.5433Y-7.8071
X7.5433Y-8.0039
X7.5591Y-3.8622
X7.563Y-3.4528
X7.6014Y-2.5871
X7.626Y-5.0472
X7.6369Y-1.6934
X7.7205Y-5.5138
X7.8307Y-1.5827
X7.8307Y-1.9449
X7.8307Y-2.3031
X7.9173Y-1.7992
X7.9173Y-2.1575
X8.0472Y-5.185
X8.1024Y-4.811
X8.1417Y-6.3307
X8.1417Y-7.1575
X8.1417Y-7.9843
X8.4016Y-1.3858
X8.4016Y-1.563
X8.4016Y-1.7402
X8.4016Y-1.9173
X8.4016Y-2.0945
X8.4016Y-2.2717
X8.4016Y-2.4488
X8.4016Y-2.626
X8.8898Y-2.8543
X8.9154Y-2.2662
X8.9232Y-1.3765
X8.9311Y-2.4631
X8.9764Y-1.5827
X8.9764Y-1.9449
X8.9764Y-2.3071
X13.1811Y-5.4173
X13.1811Y-5.8898
X13.1811Y-6.3622
X13.1811Y-6.8346
X13.1811Y-7.3071
X13.1811Y-7.7795
X13.1811Y-8.2913
X13.8327Y-5.2421
X13.8327Y-5.7146
X13.8327Y-6.187
X13.8327Y-6.6594
X13.8327Y-7.1319
X13.8327Y-7.6043
X13.9843Y-5.2559
X13.9843Y-5.7283
X13.9843Y-6.2008
X13.9843Y-6.6732
X13.9843Y-7.1457
X13.9843Y-7.6181
X14.4067Y-5.0248
X14.4067Y-5.1744
X14.4067Y-5.324
X14.4067Y-5.4736
X14.4067Y-5.6232
X14.4067Y-5.7728
X14.4067Y-5.9224
X14.4067Y-6.072
X14.4449Y-4.9331
X14.4449Y-5.0827
X14.4449Y-5.2323
X14.4449Y-5.3819
X14.4449Y-5.5315
X14.4449Y-5.6811
X14.4449Y-5.8307
X14.4449Y-5.9803
T3
X1.448Y-3.8976
X1.4484Y-3.4252
X1.4484Y-3.5433
X1.4484Y-3.6614
X1.4484Y-3.7795
X1.748Y-3.8976
X1.7484Y-3.4252
X1.7484Y-3.5433
X1.7484Y-3.6614
X1.7484Y-3.7795
X1.8504Y-3.3622
X1.8504Y-3.5591
X2.1614Y-3.3622
X2.1614Y-3.5591
X2.263Y-3.4252
X2.263Y-3.5433
X2.263Y-3.6614
X2.263Y-3.7795
X2.263Y-3.8976
X2.563Y-3.4252
X2.563Y-3.5433
X2.563Y-3.6614
X2.563Y-3.7795
X2.563Y-3.8976
T4
X1.0551Y-1.3701
X1.0551Y-1.4701
X1.0551Y-1.5701
X1.0551Y-1.6701
X1.0551Y-1.7701
X1.0551Y-1.8701
X1.0551Y-1.9701
X1.0551Y-2.0701
X1.0551Y-2.7126
X1.0551Y-2.8126
X1.0551Y-2.9126
X1.0551Y-3.0126
X1.0551Y-3.1126
X1.0551Y-3.2126
X1.0551Y-3.3126
X1.0551Y-3.4126
X1.1551Y-1.3701
X1.1551Y-1.4701
X1.1551Y-1.5701
X1.1551Y-1.6701
X1.1551Y-1.7701
X1.1551Y-1.8701
X1.1551Y-1.9701
X1.1551Y-2.0701
X1.1551Y-2.7126
X1.1551Y-2.8126
X1.1551Y-2.9126
X1.1551Y-3.0126
X1.1551Y-3.1126
X1.1551Y-3.2126
X1.1551Y-3.3126
X1.1551Y-3.4126
X1.1811Y-5.6614
X1.1811Y-5.7614
X1.1811Y-5.8614
X1.1811Y-5.9614
X1.1811Y-6.0614
X1.1811Y-6.1614
X1.1811Y-6.2614
X1.1811Y-6.3614
X1.1811Y-6.4614
X1.1811Y-6.5614
X1.1811Y-6.6614
X1.1811Y-6.7614
X1.1811Y-6.8614
X1.1811Y-6.9614
X1.1811Y-7.0614
X1.1811Y-7.1614
X1.1811Y-7.2614
X1.1811Y-7.3614
X1.1811Y-7.4614
X1.1811Y-7.5614
X1.1811Y-7.6614
X2.0039Y-3.6811
X2.0039Y-3.874
X2.1284Y-6.3022
X2.2079Y-4.2087
X2.2087Y-1.3937
X2.2087Y-2.874
X2.3079Y-4.2087
X2.3087Y-1.3937
X2.3087Y-2.874
X2.4079Y-4.2087
X2.4087Y-1.3937
X2.4087Y-2.874
X2.5079Y-4.2087
X2.5087Y-1.3937
X2.5087Y-2.874
X2.6079Y-4.2087
X2.6087Y-1.3937
X2.6087Y-2.874
X2.7079Y-4.2087
X2.7087Y-1.3937
X2.7087Y-2.874
X2.8079Y-4.2087
X2.8087Y-1.3937
X2.8087Y-2.874
X2.9079Y-4.2087
X2.9087Y-1.3937
X2.9087Y-2.874
X3.0079Y-4.2087
X3.0087Y-1.3937
X3.0087Y-2.874
X3.1079Y-4.2087
X3.1087Y-1.3937
X3.1087Y-2.874
X3.2079Y-4.2087
X3.2087Y-1.3937
X3.2087Y-2.874
X3.3079Y-4.2087
X3.3087Y-1.3937
X3.3087Y-2.874
X3.4079Y-4.2087
X3.4087Y-1.3937
X3.4087Y-2.874
X3.5079Y-4.2087
X3.5087Y-1.3937
X3.5087Y-2.874
X3.6079Y-4.2087
X3.6087Y-1.3937
X3.6087Y-2.874
X3.7079Y-4.2087
X3.7087Y-1.3937
X3.7087Y-2.874
X3.8079Y-4.2087
X3.8087Y-1.3937
X3.8087Y-2.874
X3.9079Y-4.2087
X3.9087Y-1.3937
X3.9087Y-2.874
X4.0079Y-4.2087
X4.0087Y-1.3937
X4.0087Y-2.874
X4.1079Y-4.2087
X4.1087Y-1.3937
X4.1087Y-2.874
X4.2079Y-4.2087
X4.2087Y-1.3937
X4.2087Y-2.874
X5.2717Y-1.3937
X5.2717Y-2.874
X5.3717Y-1.3937
X5.3717Y-2.874
X5.4717Y-1.3937
X5.4717Y-2.874
X5.5717Y-1.3937
X5.5717Y-2.874
X5.6717Y-1.3937
X5.6717Y-2.874
X5.7717Y-1.3937
X5.7717Y-2.874
X5.8717Y-1.3937
X5.8717Y-2.874
X5.9717Y-1.3937
X5.9717Y-2.874
X6.0717Y-1.3937
X6.0717Y-2.874
X6.1717Y-1.3937
X6.1717Y-2.874
X6.2717Y-1.3937
X6.2717Y-2.874
X6.3717Y-1.3937
X6.3717Y-2.874
X6.4717Y-1.3937
X6.4717Y-2.874
X6.5717Y-1.3937
X6.5717Y-2.874
X6.6717Y-1.3937
X6.6717Y-2.874
X6.7717Y-1.3937
X6.7717Y-2.874
X6.8717Y-1.3937
X6.8717Y-2.874
X6.9717Y-1.3937
X6.9717Y-2.874
X7.0717Y-1.3937
X7.0717Y-2.874
X7.1717Y-1.3937
X7.1717Y-2.874
X7.2717Y-1.3937
X7.2717Y-2.874
X8.5138Y-3.3858
X8.5138Y-4.0354
X8.8091Y-3.3858
X8.8091Y-4.0354
X9.185Y-1.1457
X9.185Y-1.2457
X9.185Y-1.3457
X9.185Y-1.4457
X9.185Y-1.5457
X9.185Y-1.6457
X9.185Y-1.7457
X9.185Y-1.8457
X9.185Y-7.4961
X9.185Y-7.5961
X9.185Y-7.6961
X9.185Y-7.7961
X9.185Y-7.8961
X9.185Y-7.9961
X9.185Y-8.0961
X9.185Y-8.1961
X9.1866Y-2.4055
X9.1866Y-2.5055
X9.1866Y-2.6055
X9.1866Y-2.7055
X9.1866Y-2.8055
X9.1866Y-2.9055
X9.1866Y-3.0055
X9.1866Y-3.1055
X9.285Y-1.1457
X9.285Y-1.2457
X9.285Y-1.3457
X9.285Y-1.4457
X9.285Y-1.5457
X9.285Y-1.6457
X9.285Y-1.7457
X9.285Y-1.8457
X9.285Y-7.4961
X9.285Y-7.5961
X9.285Y-7.6961
X9.285Y-7.7961
X9.285Y-7.8961
X9.285Y-7.9961
X9.285Y-8.0961
X9.285Y-8.1961
X9.2866Y-2.4055
X9.2866Y-2.5055
X9.2866Y-2.6055
X9.2866Y-2.7055
X9.2866Y-2.8055
X9.2866Y-2.9055
X9.2866Y-3.0055
X9.2866Y-3.1055
X9.8142Y-4.8228
X9.8142Y-4.9228
X9.8661Y-7.4661
X9.8661Y-7.5661
X9.8661Y-7.6661
X9.8661Y-7.7661
X9.8661Y-7.8661
X9.8661Y-7.9661
X9.8661Y-8.0661
X9.8661Y-8.1661
X9.9035Y-4.157
X9.9035Y-4.257
X9.9142Y-4.8228
X9.9142Y-4.9228
X9.9661Y-7.4661
X9.9661Y-7.5661
X9.9661Y-7.6661
X9.9661Y-7.7661
X9.9661Y-7.8661
X9.9661Y-7.9661
X9.9661Y-8.0661
X9.9661Y-8.1661
X10.0142Y-4.8228
X10.0142Y-4.9228
X10.1142Y-4.8228
X10.1142Y-4.9228
X10.2142Y-4.8228
X10.2142Y-4.9228
X10.3142Y-4.8228
X10.3142Y-4.9228
X10.4142Y-4.8228
X10.4142Y-4.9228
X10.4646Y-8.4646
X10.4646Y-8.5646
X10.5142Y-4.8228
X10.5142Y-4.9228
X10.8248Y-1.408
X10.8248Y-1.508
X10.8248Y-1.608
X10.8248Y-1.708
X10.8248Y-1.808
X10.8248Y-1.908
X10.8248Y-2.008
X10.8248Y-2.108
X10.8248Y-2.208
X10.8248Y-2.308
X10.8248Y-2.408
X10.8248Y-2.508
X10.8248Y-2.608
X10.8248Y-2.708
X10.8248Y-2.808
X10.8248Y-2.908
X10.8248Y-3.008
X10.8248Y-3.108
X10.8248Y-3.208
X10.8248Y-3.308
X10.8248Y-3.408
X12.0846Y-1.408
X12.0846Y-1.508
X12.0846Y-1.608
X12.0846Y-1.708
X12.0846Y-1.808
X12.0846Y-1.908
X12.0846Y-2.008
X12.0846Y-2.108
X12.0846Y-2.208
X12.0846Y-2.308
X12.0846Y-2.408
X12.0846Y-2.508
X12.0846Y-2.608
X12.0846Y-2.708
X12.0846Y-2.808
X12.0846Y-2.908
X12.0846Y-3.008
X12.0846Y-3.108
X12.0846Y-3.208
X12.0846Y-3.308
X12.0846Y-3.408
X12.5187Y-1.0418
X12.6187Y-1.0418
X13.2343Y-4.5064
X13.2343Y-4.6064
X13.3445Y-1.408
X13.3445Y-1.508
X13.3445Y-1.608
X13.3445Y-1.708
X13.3445Y-1.808
X13.3445Y-1.908
X13.3445Y-2.008
X13.3445Y-2.108
X13.3445Y-2.208
X13.3445Y-2.308
X13.3445Y-2.408
X13.3445Y-2.508
X13.3445Y-2.608
X13.3445Y-2.708
X13.3445Y-2.808
X13.3445Y-2.908
X13.3445Y-3.008
X13.3445Y-3.108
X13.3445Y-3.208
X13.3445Y-3.308
X13.3445Y-3.408
X14.6043Y-1.408
X14.6043Y-1.508
X14.6043Y-1.608
X14.6043Y-1.708
X14.6043Y-1.808
X14.6043Y-1.908
X14.6043Y-2.008
X14.6043Y-2.108
X14.6043Y-2.208
X14.6043Y-2.308
X14.6043Y-2.408
X14.6043Y-2.508
X14.6043Y-2.608
X14.6043Y-2.708
X14.6043Y-2.808
X14.6043Y-2.908
X14.6043Y-3.008
X14.6043Y-3.108
X14.6043Y-3.208
X14.6043Y-3.308
X14.6043Y-3.408
X14.6181Y-3.6937
X14.6181Y-3.7937
X14.6181Y-3.8937
X14.6181Y-3.9937
X14.6181Y-4.0937
X14.6181Y-4.1937
X14.6181Y-4.2937
X14.6181Y-4.3937
X14.7181Y-3.6937
X14.7181Y-3.7937
X14.7181Y-3.8937
X14.7181Y-3.9937
X14.7181Y-4.0937
X14.7181Y-4.1937
X14.7181Y-4.2937
X14.7181Y-4.3937
X14.7677Y-8.189
X14.8677Y-8.189
X14.8996Y-3.6937
X14.8996Y-3.7937
X14.8996Y-3.8937
X14.8996Y-3.9937
X14.8996Y-4.0937
X14.8996Y-4.1937
X14.8996Y-4.2937
X14.8996Y-4.3937
X14.9961Y-5.237
X14.9961Y-5.337
X14.9961Y-5.437
X14.9961Y-5.537
X14.9961Y-5.637
X14.9961Y-5.737
X14.9961Y-5.837
X14.9961Y-5.937
X14.9996Y-3.6937
X14.9996Y-3.7937
X14.9996Y-3.8937
X14.9996Y-3.9937
X14.9996Y-4.0937
X14.9996Y-4.1937
X14.9996Y-4.2937
X14.9996Y-4.3937
X15.0961Y-5.237
X15.0961Y-5.337
X15.0961Y-5.437
X15.0961Y-5.537
X15.0961Y-5.637
X15.0961Y-5.737
X15.0961Y-5.837
X15.0961Y-5.937
X15.1811Y-3.6937
X15.1811Y-3.7937
X15.1811Y-3.8937
X15.1811Y-3.9937
X15.1811Y-4.0937
X15.1811Y-4.1937
X15.1811Y-4.2937
X15.1811Y-4.3937
X15.2811Y-3.6937
X15.2811Y-3.7937
X15.2811Y-3.8937
X15.2811Y-3.9937
X15.2811Y-4.0937
X15.2811Y-4.1937
X15.2811Y-4.2937
X15.2811Y-4.3937
X15.4626Y-3.6937
X15.4626Y-3.7937
X15.4626Y-3.8937
X15.4626Y-3.9937
X15.4626Y-4.0937
X15.4626Y-4.1937
X15.4626Y-4.2937
X15.4626Y-4.3937
X15.5626Y-3.6937
X15.5626Y-3.7937
X15.5626Y-3.8937
X15.5626Y-3.9937
X15.5626Y-4.0937
X15.5626Y-4.1937
X15.5626Y-4.2937
X15.5626Y-4.3937
M30
