%TF.GenerationSoftware,KiCad,Pcbnew,9.0.7*%
%TF.CreationDate,2026-03-29T15:28:21+02:00*%
%TF.ProjectId,Whole_CPU_V1.0,57686f6c-655f-4435-9055-5f56312e302e,rev?*%
%TF.SameCoordinates,Original*%
%TF.FileFunction,Soldermask,Top*%
%TF.FilePolarity,Negative*%
%FSLAX46Y46*%
G04 Gerber Fmt 4.6, Leading zero omitted, Abs format (unit mm)*
G04 Created by KiCad (PCBNEW 9.0.7) date 2026-03-29 15:28:21*
%MOMM*%
%LPD*%
G01*
G04 APERTURE LIST*
G04 Aperture macros list*
%AMRoundRect*
0 Rectangle with rounded corners*
0 $1 Rounding radius*
0 $2 $3 $4 $5 $6 $7 $8 $9 X,Y pos of 4 corners*
0 Add a 4 corners polygon primitive as box body*
4,1,4,$2,$3,$4,$5,$6,$7,$8,$9,$2,$3,0*
0 Add four circle primitives for the rounded corners*
1,1,$1+$1,$2,$3*
1,1,$1+$1,$4,$5*
1,1,$1+$1,$6,$7*
1,1,$1+$1,$8,$9*
0 Add four rect primitives between the rounded corners*
20,1,$1+$1,$2,$3,$4,$5,0*
20,1,$1+$1,$4,$5,$6,$7,0*
20,1,$1+$1,$6,$7,$8,$9,0*
20,1,$1+$1,$8,$9,$2,$3,0*%
G04 Aperture macros list end*
%ADD10RoundRect,0.150000X-0.587500X-0.150000X0.587500X-0.150000X0.587500X0.150000X-0.587500X0.150000X0*%
%ADD11RoundRect,0.159000X-0.159000X-0.189000X0.159000X-0.189000X0.159000X0.189000X-0.159000X0.189000X0*%
%ADD12RoundRect,0.150000X0.150000X-0.587500X0.150000X0.587500X-0.150000X0.587500X-0.150000X-0.587500X0*%
%ADD13RoundRect,0.159000X0.159000X0.189000X-0.159000X0.189000X-0.159000X-0.189000X0.159000X-0.189000X0*%
%ADD14RoundRect,0.159000X-0.189000X0.159000X-0.189000X-0.159000X0.189000X-0.159000X0.189000X0.159000X0*%
%ADD15RoundRect,0.159000X0.189000X-0.159000X0.189000X0.159000X-0.189000X0.159000X-0.189000X-0.159000X0*%
%ADD16RoundRect,0.150000X0.587500X0.150000X-0.587500X0.150000X-0.587500X-0.150000X0.587500X-0.150000X0*%
%ADD17RoundRect,0.150000X-0.150000X0.587500X-0.150000X-0.587500X0.150000X-0.587500X0.150000X0.587500X0*%
%ADD18RoundRect,0.239000X-0.239000X-0.274000X0.239000X-0.274000X0.239000X0.274000X-0.239000X0.274000X0*%
%ADD19RoundRect,0.239000X0.239000X0.274000X-0.239000X0.274000X-0.239000X-0.274000X0.239000X-0.274000X0*%
%ADD20RoundRect,0.239000X-0.274000X0.239000X-0.274000X-0.239000X0.274000X-0.239000X0.274000X0.239000X0*%
%ADD21RoundRect,0.269000X-0.494000X0.269000X-0.494000X-0.269000X0.494000X-0.269000X0.494000X0.269000X0*%
%ADD22RoundRect,0.269000X0.494000X-0.269000X0.494000X0.269000X-0.494000X0.269000X-0.494000X-0.269000X0*%
%ADD23C,2.000000*%
%ADD24RoundRect,0.239000X0.274000X-0.239000X0.274000X0.239000X-0.274000X0.239000X-0.274000X-0.239000X0*%
%ADD25R,1.700000X1.700000*%
%ADD26C,1.700000*%
%ADD27C,1.600000*%
%ADD28RoundRect,0.269000X-0.269000X-0.494000X0.269000X-0.494000X0.269000X0.494000X-0.269000X0.494000X0*%
G04 APERTURE END LIST*
D10*
%TO.C,Q1128*%
X319837500Y-135200000D03*
X317962500Y-136150000D03*
X317962500Y-134250000D03*
%TD*%
D11*
%TO.C,R617*%
X310600000Y-156300000D03*
X309600000Y-156300000D03*
%TD*%
%TO.C,R623*%
X286800000Y-156300000D03*
X285800000Y-156300000D03*
%TD*%
D12*
%TO.C,Q966*%
X303500000Y-157962500D03*
X304450000Y-159837500D03*
X302550000Y-159837500D03*
%TD*%
%TO.C,Q964*%
X296100000Y-157962500D03*
X297050000Y-159837500D03*
X295150000Y-159837500D03*
%TD*%
%TO.C,Q963*%
X292400000Y-157962500D03*
X293350000Y-159837500D03*
X291450000Y-159837500D03*
%TD*%
D11*
%TO.C,R627*%
X301600000Y-156300000D03*
X300600000Y-156300000D03*
%TD*%
%TO.C,R628*%
X307400000Y-156300000D03*
X306400000Y-156300000D03*
%TD*%
D12*
%TO.C,Q973*%
X292400000Y-152762500D03*
X293350000Y-154637500D03*
X291450000Y-154637500D03*
%TD*%
D13*
%TO.C,R613*%
X283700000Y-156300000D03*
X284700000Y-156300000D03*
%TD*%
D12*
%TO.C,Q961*%
X285000000Y-157962500D03*
X285950000Y-159837500D03*
X284050000Y-159837500D03*
%TD*%
%TO.C,Q971*%
X285050000Y-152762500D03*
X286000000Y-154637500D03*
X284100000Y-154637500D03*
%TD*%
D13*
%TO.C,R624*%
X287900000Y-156300000D03*
X288900000Y-156300000D03*
%TD*%
%TO.C,R625*%
X292700000Y-156300000D03*
X293700000Y-156300000D03*
%TD*%
D12*
%TO.C,Q967*%
X307200000Y-157962500D03*
X308150000Y-159837500D03*
X306250000Y-159837500D03*
%TD*%
%TO.C,Q962*%
X288700000Y-157962500D03*
X289650000Y-159837500D03*
X287750000Y-159837500D03*
%TD*%
%TO.C,Q977*%
X307200000Y-152762500D03*
X308150000Y-154637500D03*
X306250000Y-154637500D03*
%TD*%
%TO.C,Q974*%
X296100000Y-152762500D03*
X297050000Y-154637500D03*
X295150000Y-154637500D03*
%TD*%
D13*
%TO.C,R615*%
X298500000Y-156300000D03*
X299500000Y-156300000D03*
%TD*%
D12*
%TO.C,Q976*%
X303500000Y-152762500D03*
X304450000Y-154637500D03*
X302550000Y-154637500D03*
%TD*%
%TO.C,Q968*%
X310900000Y-157962500D03*
X311850000Y-159837500D03*
X309950000Y-159837500D03*
%TD*%
%TO.C,Q965*%
X299800000Y-157962500D03*
X300750000Y-159837500D03*
X298850000Y-159837500D03*
%TD*%
%TO.C,Q975*%
X299800000Y-152762500D03*
X300750000Y-154637500D03*
X298850000Y-154637500D03*
%TD*%
D11*
%TO.C,R626*%
X295800000Y-156300000D03*
X294800000Y-156300000D03*
%TD*%
D13*
%TO.C,R616*%
X304300000Y-156300000D03*
X305300000Y-156300000D03*
%TD*%
D12*
%TO.C,Q972*%
X288700000Y-152762500D03*
X289650000Y-154637500D03*
X287750000Y-154637500D03*
%TD*%
D11*
%TO.C,R614*%
X291000000Y-156300000D03*
X290000000Y-156300000D03*
%TD*%
D14*
%TO.C,R723*%
X268600000Y-153600000D03*
X268600000Y-154600000D03*
%TD*%
D15*
%TO.C,R110*%
X187600000Y-198500000D03*
X187600000Y-197500000D03*
%TD*%
D16*
%TO.C,Q294*%
X155713500Y-54761500D03*
X155713500Y-52861500D03*
X153838500Y-53811500D03*
%TD*%
D17*
%TO.C,Q174*%
X174950000Y-80562500D03*
X173050000Y-80562500D03*
X174000000Y-82437500D03*
%TD*%
D12*
%TO.C,Q653*%
X316700000Y-109300000D03*
X318600000Y-109300000D03*
X317650000Y-107425000D03*
%TD*%
D17*
%TO.C,Q431*%
X45173718Y-124062500D03*
X43273718Y-124062500D03*
X44223718Y-125937500D03*
%TD*%
D10*
%TO.C,Q40*%
X122162500Y-191350000D03*
X122162500Y-193250000D03*
X124037500Y-192300000D03*
%TD*%
D12*
%TO.C,Q1032*%
X306250000Y-176637500D03*
X308150000Y-176637500D03*
X307200000Y-174762500D03*
%TD*%
D10*
%TO.C,Q684*%
X285512500Y-68112500D03*
X285512500Y-70012500D03*
X287387500Y-69062500D03*
%TD*%
%TO.C,Q1208*%
X343162500Y-182250000D03*
X343162500Y-184150000D03*
X345037500Y-183200000D03*
%TD*%
D13*
%TO.C,R695*%
X305300000Y-200300000D03*
X304300000Y-200300000D03*
%TD*%
D12*
%TO.C,Q938*%
X291450000Y-148837500D03*
X293350000Y-148837500D03*
X292400000Y-146962500D03*
%TD*%
D15*
%TO.C,R96*%
X163500000Y-172400000D03*
X163500000Y-171400000D03*
%TD*%
D12*
%TO.C,Q506*%
X79112500Y-150412500D03*
X81012500Y-150412500D03*
X80062500Y-148537500D03*
%TD*%
D14*
%TO.C,R555*%
X177600000Y-160600000D03*
X177600000Y-161600000D03*
%TD*%
D17*
%TO.C,Q259*%
X138950000Y-89562500D03*
X137050000Y-89562500D03*
X138000000Y-91437500D03*
%TD*%
D10*
%TO.C,Q479*%
X143637500Y-104500000D03*
X143637500Y-106400000D03*
X145512500Y-105450000D03*
%TD*%
%TO.C,Q1107*%
X264062500Y-161450000D03*
X264062500Y-163350000D03*
X265937500Y-162400000D03*
%TD*%
%TO.C,Q716*%
X313212500Y-68112500D03*
X313212500Y-70012500D03*
X315087500Y-69062500D03*
%TD*%
%TO.C,Q1046*%
X317962500Y-207250000D03*
X317962500Y-209150000D03*
X319837500Y-208200000D03*
%TD*%
D14*
%TO.C,R409*%
X307250000Y-104662500D03*
X307250000Y-105662500D03*
%TD*%
D11*
%TO.C,R718*%
X290000000Y-211300000D03*
X291000000Y-211300000D03*
%TD*%
D16*
%TO.C,Q387*%
X100413500Y-54761500D03*
X100413500Y-52861500D03*
X98538500Y-53811500D03*
%TD*%
D15*
%TO.C,R378*%
X39600000Y-194800000D03*
X39600000Y-193800000D03*
%TD*%
D10*
%TO.C,Q715*%
X313212500Y-71912500D03*
X313212500Y-73812500D03*
X315087500Y-72862500D03*
%TD*%
D15*
%TO.C,R97*%
X164500000Y-172400000D03*
X164500000Y-171400000D03*
%TD*%
D17*
%TO.C,*%
X149050000Y-89562500D03*
%TD*%
D15*
%TO.C,R237*%
X196176000Y-65711500D03*
X196176000Y-64711500D03*
%TD*%
D16*
%TO.C,Q395*%
X109413500Y-46461500D03*
X109413500Y-44561500D03*
X107538500Y-45511500D03*
%TD*%
D13*
%TO.C,R684*%
X293700000Y-189300000D03*
X292700000Y-189300000D03*
%TD*%
D14*
%TO.C,R700*%
X269600000Y-138800000D03*
X269600000Y-139800000D03*
%TD*%
D11*
%TO.C,R185*%
X137900000Y-93600000D03*
X138900000Y-93600000D03*
%TD*%
D12*
%TO.C,Q520*%
X222950000Y-40437500D03*
X224850000Y-40437500D03*
X223900000Y-38562500D03*
%TD*%
%TO.C,Q909*%
X284050000Y-137837500D03*
X285950000Y-137837500D03*
X285000000Y-135962500D03*
%TD*%
D10*
%TO.C,Q56*%
X162162500Y-195350000D03*
X162162500Y-197250000D03*
X164037500Y-196300000D03*
%TD*%
D12*
%TO.C,Q939*%
X295150000Y-148837500D03*
X297050000Y-148837500D03*
X296100000Y-146962500D03*
%TD*%
D15*
%TO.C,R99*%
X169500000Y-172400000D03*
X169500000Y-171400000D03*
%TD*%
D17*
%TO.C,Q605*%
X51750000Y-88462500D03*
X49850000Y-88462500D03*
X50800000Y-90337500D03*
%TD*%
D11*
%TO.C,R333*%
X198900000Y-65000000D03*
X199900000Y-65000000D03*
%TD*%
D17*
%TO.C,*%
X93050000Y-89562500D03*
%TD*%
D14*
%TO.C,R622*%
X281300000Y-153200000D03*
X281300000Y-154200000D03*
%TD*%
D13*
%TO.C,R318*%
X228000000Y-33500000D03*
X227000000Y-33500000D03*
%TD*%
D17*
%TO.C,Q557*%
X207850000Y-56562500D03*
X205950000Y-56562500D03*
X206900000Y-58437500D03*
%TD*%
D12*
%TO.C,Q960*%
X275950000Y-157837500D03*
X277850000Y-157837500D03*
X276900000Y-155962500D03*
%TD*%
%TO.C,Q1028*%
X291450000Y-176637500D03*
X293350000Y-176637500D03*
X292400000Y-174762500D03*
%TD*%
%TO.C,Q1023*%
X346850000Y-215137500D03*
X348750000Y-215137500D03*
X347800000Y-213262500D03*
%TD*%
%TO.C,Q1098*%
X309950000Y-214837500D03*
X311850000Y-214837500D03*
X310900000Y-212962500D03*
%TD*%
D15*
%TO.C,R69*%
X109500000Y-172400000D03*
X109500000Y-171400000D03*
%TD*%
D11*
%TO.C,R747*%
X351800000Y-179200000D03*
X352800000Y-179200000D03*
%TD*%
D15*
%TO.C,R228*%
X176376000Y-65711500D03*
X176376000Y-64711500D03*
%TD*%
%TO.C,R243*%
X59876000Y-65711500D03*
X59876000Y-64711500D03*
%TD*%
D18*
%TO.C,D109*%
X254310000Y-163300000D03*
X255890000Y-163300000D03*
%TD*%
D17*
%TO.C,Q101*%
X129150000Y-149162500D03*
X127250000Y-149162500D03*
X128200000Y-151037500D03*
%TD*%
D15*
%TO.C,R356*%
X39600000Y-212400000D03*
X39600000Y-211400000D03*
%TD*%
D19*
%TO.C,D110*%
X364790000Y-125600000D03*
X363210000Y-125600000D03*
%TD*%
D12*
%TO.C,Q532*%
X222950000Y-58437500D03*
X224850000Y-58437500D03*
X223900000Y-56562500D03*
%TD*%
D11*
%TO.C,R310*%
X45162500Y-148175000D03*
X46162500Y-148175000D03*
%TD*%
D13*
%TO.C,R52*%
X177600000Y-159400000D03*
X176600000Y-159400000D03*
%TD*%
D16*
%TO.C,Q736*%
X332687500Y-66212500D03*
X332687500Y-64312500D03*
X330812500Y-65262500D03*
%TD*%
D10*
%TO.C,Q1162*%
X326362500Y-194250000D03*
X326362500Y-196150000D03*
X328237500Y-195200000D03*
%TD*%
D17*
%TO.C,Q279*%
X106950000Y-95562500D03*
X105050000Y-95562500D03*
X106000000Y-97437500D03*
%TD*%
%TO.C,Q554*%
X207850000Y-52062500D03*
X205950000Y-52062500D03*
X206900000Y-53937500D03*
%TD*%
%TO.C,Q187*%
X70950000Y-80562500D03*
X69050000Y-80562500D03*
X70000000Y-82437500D03*
%TD*%
D15*
%TO.C,R655*%
X364300000Y-147000000D03*
X364300000Y-146000000D03*
%TD*%
D20*
%TO.C,D30*%
X189000000Y-191610000D03*
X189000000Y-193190000D03*
%TD*%
D17*
%TO.C,Q173*%
X182950000Y-80562500D03*
X181050000Y-80562500D03*
X182000000Y-82437500D03*
%TD*%
D11*
%TO.C,R178*%
X193900000Y-93600000D03*
X194900000Y-93600000D03*
%TD*%
D17*
%TO.C,Q451*%
X75012500Y-139737500D03*
X73112500Y-139737500D03*
X74062500Y-141612500D03*
%TD*%
D11*
%TO.C,R286*%
X40523718Y-133900000D03*
X41523718Y-133900000D03*
%TD*%
D17*
%TO.C,Q239*%
X166950000Y-89562500D03*
X165050000Y-89562500D03*
X166000000Y-91437500D03*
%TD*%
D10*
%TO.C,Q690*%
X294552500Y-32722500D03*
X294552500Y-34622500D03*
X296427500Y-33672500D03*
%TD*%
D17*
%TO.C,Q549*%
X203850000Y-43062500D03*
X201950000Y-43062500D03*
X202900000Y-44937500D03*
%TD*%
D10*
%TO.C,Q1074*%
X338962500Y-203600000D03*
X338962500Y-205500000D03*
X340837500Y-204550000D03*
%TD*%
%TO.C,Q61*%
X177162500Y-191350000D03*
X177162500Y-193250000D03*
X179037500Y-192300000D03*
%TD*%
D16*
%TO.C,Q707*%
X296387500Y-58612500D03*
X296387500Y-56712500D03*
X294512500Y-57662500D03*
%TD*%
D21*
%TO.C,C24*%
X339850000Y-114712500D03*
X339850000Y-116612500D03*
%TD*%
D11*
%TO.C,R395*%
X365150000Y-114062500D03*
X366150000Y-114062500D03*
%TD*%
D12*
%TO.C,Q505*%
X75112500Y-150412500D03*
X77012500Y-150412500D03*
X76062500Y-148537500D03*
%TD*%
D15*
%TO.C,R148*%
X140376000Y-65711500D03*
X140376000Y-64711500D03*
%TD*%
D11*
%TO.C,R429*%
X48662500Y-160875000D03*
X49662500Y-160875000D03*
%TD*%
D10*
%TO.C,Q1207*%
X343162500Y-178550000D03*
X343162500Y-180450000D03*
X345037500Y-179500000D03*
%TD*%
D13*
%TO.C,R454*%
X206100000Y-120800000D03*
X205100000Y-120800000D03*
%TD*%
D12*
%TO.C,Q383*%
X94026000Y-62949000D03*
X95926000Y-62949000D03*
X94976000Y-61074000D03*
%TD*%
D16*
%TO.C,Q731*%
X332687500Y-85212500D03*
X332687500Y-83312500D03*
X330812500Y-84262500D03*
%TD*%
D17*
%TO.C,Q490*%
X126725000Y-108612500D03*
X124825000Y-108612500D03*
X125775000Y-110487500D03*
%TD*%
D15*
%TO.C,R92*%
X153500000Y-172400000D03*
X153500000Y-171400000D03*
%TD*%
D10*
%TO.C,Q1154*%
X326362500Y-146250000D03*
X326362500Y-148150000D03*
X328237500Y-147200000D03*
%TD*%
D11*
%TO.C,R576*%
X309600000Y-134300000D03*
X310600000Y-134300000D03*
%TD*%
D14*
%TO.C,R609*%
X255900000Y-153600000D03*
X255900000Y-154600000D03*
%TD*%
D11*
%TO.C,R447*%
X44676000Y-53311500D03*
X45676000Y-53311500D03*
%TD*%
D19*
%TO.C,D112*%
X364790000Y-133200000D03*
X363210000Y-133200000D03*
%TD*%
D17*
%TO.C,Q278*%
X114950000Y-95562500D03*
X113050000Y-95562500D03*
X114000000Y-97437500D03*
%TD*%
D15*
%TO.C,R160*%
X167376000Y-65711500D03*
X167376000Y-64711500D03*
%TD*%
D10*
%TO.C,Q792*%
X381512500Y-75712500D03*
X381512500Y-77612500D03*
X383387500Y-76662500D03*
%TD*%
D17*
%TO.C,Q908*%
X367550000Y-179462500D03*
X365650000Y-179462500D03*
X366600000Y-181337500D03*
%TD*%
D18*
%TO.C,D104*%
X254310000Y-144800000D03*
X255890000Y-144800000D03*
%TD*%
D15*
%TO.C,R486*%
X38600000Y-199200000D03*
X38600000Y-198200000D03*
%TD*%
D17*
%TO.C,Q421*%
X45173718Y-115062500D03*
X43273718Y-115062500D03*
X44223718Y-116937500D03*
%TD*%
D15*
%TO.C,R149*%
X142176000Y-65711500D03*
X142176000Y-64711500D03*
%TD*%
D12*
%TO.C,Q1016*%
X291450000Y-181837500D03*
X293350000Y-181837500D03*
X292400000Y-179962500D03*
%TD*%
D13*
%TO.C,R448*%
X49662500Y-166075000D03*
X48662500Y-166075000D03*
%TD*%
D12*
%TO.C,Q322*%
X167326000Y-62949000D03*
X169226000Y-62949000D03*
X168276000Y-61074000D03*
%TD*%
D16*
%TO.C,Q351*%
X68913500Y-58661500D03*
X68913500Y-56761500D03*
X67038500Y-57711500D03*
%TD*%
D14*
%TO.C,R514*%
X111900000Y-99400000D03*
X111900000Y-100400000D03*
%TD*%
D10*
%TO.C,Q1181*%
X334762500Y-166550000D03*
X334762500Y-168450000D03*
X336637500Y-167500000D03*
%TD*%
D15*
%TO.C,R59*%
X84500000Y-172400000D03*
X84500000Y-171400000D03*
%TD*%
D17*
%TO.C,Q555*%
X203850000Y-52062500D03*
X201950000Y-52062500D03*
X202900000Y-53937500D03*
%TD*%
D15*
%TO.C,R472*%
X48100000Y-190400000D03*
X48100000Y-189400000D03*
%TD*%
D14*
%TO.C,R596*%
X281300000Y-131200000D03*
X281300000Y-132200000D03*
%TD*%
D10*
%TO.C,Q50*%
X142162500Y-183350000D03*
X142162500Y-185250000D03*
X144037500Y-184300000D03*
%TD*%
D17*
%TO.C,Q213*%
X118950000Y-85062500D03*
X117050000Y-85062500D03*
X118000000Y-86937500D03*
%TD*%
D15*
%TO.C,R638*%
X364300000Y-131800000D03*
X364300000Y-130800000D03*
%TD*%
D18*
%TO.C,D124*%
X268010000Y-159600000D03*
X269590000Y-159600000D03*
%TD*%
D14*
%TO.C,R518*%
X95900000Y-99400000D03*
X95900000Y-100400000D03*
%TD*%
D10*
%TO.C,Q901*%
X264962500Y-190550000D03*
X264962500Y-192450000D03*
X266837500Y-191500000D03*
%TD*%
D17*
%TO.C,Q207*%
X166950000Y-85062500D03*
X165050000Y-85062500D03*
X166000000Y-86937500D03*
%TD*%
D12*
%TO.C,Q943*%
X309950000Y-148837500D03*
X311850000Y-148837500D03*
X310900000Y-146962500D03*
%TD*%
D10*
%TO.C,Q724*%
X317512500Y-71912500D03*
X317512500Y-73812500D03*
X319387500Y-72862500D03*
%TD*%
D14*
%TO.C,R539*%
X317450000Y-104662500D03*
X317450000Y-105662500D03*
%TD*%
D17*
%TO.C,Q227*%
X138950000Y-85062500D03*
X137050000Y-85062500D03*
X138000000Y-86937500D03*
%TD*%
D11*
%TO.C,R182*%
X161900000Y-93600000D03*
X162900000Y-93600000D03*
%TD*%
D12*
%TO.C,Q936*%
X284050000Y-148837500D03*
X285950000Y-148837500D03*
X285000000Y-146962500D03*
%TD*%
D21*
%TO.C,C39*%
X257300000Y-215250000D03*
X257300000Y-217150000D03*
%TD*%
D12*
%TO.C,Q408*%
X116526000Y-62949000D03*
X118426000Y-62949000D03*
X117476000Y-61074000D03*
%TD*%
D17*
%TO.C,Q432*%
X63173718Y-128562500D03*
X61273718Y-128562500D03*
X62223718Y-130437500D03*
%TD*%
D15*
%TO.C,R169*%
X135400000Y-93600000D03*
X135400000Y-92600000D03*
%TD*%
D22*
%TO.C,C12*%
X102250000Y-160300000D03*
X102250000Y-158400000D03*
%TD*%
D12*
%TO.C,Q1019*%
X302550000Y-181837500D03*
X304450000Y-181837500D03*
X303500000Y-179962500D03*
%TD*%
D16*
%TO.C,Q703*%
X296387500Y-73812500D03*
X296387500Y-71912500D03*
X294512500Y-72862500D03*
%TD*%
D12*
%TO.C,Q1051*%
X295150000Y-187637500D03*
X297050000Y-187637500D03*
X296100000Y-185762500D03*
%TD*%
D15*
%TO.C,R70*%
X113500000Y-172400000D03*
X113500000Y-171400000D03*
%TD*%
D12*
%TO.C,Q84*%
X195750000Y-176837500D03*
X197650000Y-176837500D03*
X196700000Y-174962500D03*
%TD*%
D15*
%TO.C,R435*%
X46326000Y-65611500D03*
X46326000Y-64611500D03*
%TD*%
D17*
%TO.C,Q115*%
X157150000Y-154162500D03*
X155250000Y-154162500D03*
X156200000Y-156037500D03*
%TD*%
D16*
%TO.C,Q661*%
X268687500Y-62412500D03*
X268687500Y-60512500D03*
X266812500Y-61462500D03*
%TD*%
D18*
%TO.C,D118*%
X268010000Y-137400000D03*
X269590000Y-137400000D03*
%TD*%
D11*
%TO.C,R593*%
X309600000Y-145300000D03*
X310600000Y-145300000D03*
%TD*%
D13*
%TO.C,R31*%
X164500000Y-173400000D03*
X163500000Y-173400000D03*
%TD*%
%TO.C,R756*%
X335300000Y-201600000D03*
X334300000Y-201600000D03*
%TD*%
D17*
%TO.C,Q282*%
X82950000Y-95562500D03*
X81050000Y-95562500D03*
X82000000Y-97437500D03*
%TD*%
D10*
%TO.C,Q570*%
X122338500Y-57561500D03*
X122338500Y-59461500D03*
X124213500Y-58511500D03*
%TD*%
D16*
%TO.C,Q463*%
X171275000Y-118850000D03*
X171275000Y-116950000D03*
X169400000Y-117900000D03*
%TD*%
D18*
%TO.C,D98*%
X268910000Y-200000000D03*
X270490000Y-200000000D03*
%TD*%
D15*
%TO.C,R229*%
X178176000Y-65711500D03*
X178176000Y-64711500D03*
%TD*%
D12*
%TO.C,Q942*%
X306250000Y-148837500D03*
X308150000Y-148837500D03*
X307200000Y-146962500D03*
%TD*%
D17*
%TO.C,Q123*%
X193850000Y-169962500D03*
X191950000Y-169962500D03*
X192900000Y-171837500D03*
%TD*%
D15*
%TO.C,R162*%
X191400000Y-93600000D03*
X191400000Y-92600000D03*
%TD*%
D10*
%TO.C,Q1139*%
X322162500Y-130550000D03*
X322162500Y-132450000D03*
X324037500Y-131500000D03*
%TD*%
D20*
%TO.C,D42*%
X124176000Y-61521500D03*
X124176000Y-63101500D03*
%TD*%
D11*
%TO.C,R710*%
X344800000Y-201600000D03*
X345800000Y-201600000D03*
%TD*%
D17*
%TO.C,Q434*%
X54173718Y-128562500D03*
X52273718Y-128562500D03*
X53223718Y-130437500D03*
%TD*%
D16*
%TO.C,Q379*%
X95913500Y-50361500D03*
X95913500Y-48461500D03*
X94038500Y-49411500D03*
%TD*%
D17*
%TO.C,Q944*%
X279750000Y-130762500D03*
X277850000Y-130762500D03*
X278800000Y-132637500D03*
%TD*%
D14*
%TO.C,R537*%
X313650000Y-104662500D03*
X313650000Y-105662500D03*
%TD*%
D17*
%TO.C,Q264*%
X98950000Y-89562500D03*
X97050000Y-89562500D03*
X98000000Y-91437500D03*
%TD*%
D23*
%TO.C,C19*%
X216250000Y-86000000D03*
X223750000Y-86000000D03*
%TD*%
D16*
%TO.C,Q660*%
X268687500Y-66212500D03*
X268687500Y-64312500D03*
X266812500Y-65262500D03*
%TD*%
D17*
%TO.C,Q441*%
X45173718Y-133062500D03*
X43273718Y-133062500D03*
X44223718Y-134937500D03*
%TD*%
D12*
%TO.C,Q86*%
X195750000Y-166837500D03*
X197650000Y-166837500D03*
X196700000Y-164962500D03*
%TD*%
D13*
%TO.C,R538*%
X282450000Y-31962500D03*
X281450000Y-31962500D03*
%TD*%
D24*
%TO.C,D9*%
X107100000Y-173090000D03*
X107100000Y-171510000D03*
%TD*%
D10*
%TO.C,Q43*%
X122162500Y-183350000D03*
X122162500Y-185250000D03*
X124037500Y-184300000D03*
%TD*%
D13*
%TO.C,R683*%
X288900000Y-189300000D03*
X287900000Y-189300000D03*
%TD*%
D10*
%TO.C,Q27*%
X117162500Y-183350000D03*
X117162500Y-185250000D03*
X119037500Y-184300000D03*
%TD*%
%TO.C,Q16*%
X67162500Y-175350000D03*
X67162500Y-177250000D03*
X69037500Y-176300000D03*
%TD*%
D14*
%TO.C,R215*%
X153900000Y-99400000D03*
X153900000Y-100400000D03*
%TD*%
D19*
%TO.C,D116*%
X364790000Y-148400000D03*
X363210000Y-148400000D03*
%TD*%
D15*
%TO.C,R165*%
X167400000Y-93600000D03*
X167400000Y-92600000D03*
%TD*%
D10*
%TO.C,Q469*%
X157637500Y-104500000D03*
X157637500Y-106400000D03*
X159512500Y-105450000D03*
%TD*%
D16*
%TO.C,Q460*%
X156775000Y-118850000D03*
X156775000Y-116950000D03*
X154900000Y-117900000D03*
%TD*%
D13*
%TO.C,R450*%
X49662500Y-164075000D03*
X48662500Y-164075000D03*
%TD*%
D10*
%TO.C,Q59*%
X172162500Y-195350000D03*
X172162500Y-197250000D03*
X174037500Y-196300000D03*
%TD*%
D15*
%TO.C,R197*%
X168600000Y-93600000D03*
X168600000Y-92600000D03*
%TD*%
D17*
%TO.C,Q106*%
X149150000Y-149162500D03*
X147250000Y-149162500D03*
X148200000Y-151037500D03*
%TD*%
D10*
%TO.C,Q672*%
X281212500Y-83312500D03*
X281212500Y-85212500D03*
X283087500Y-84262500D03*
%TD*%
D16*
%TO.C,Q347*%
X64413500Y-54761500D03*
X64413500Y-52861500D03*
X62538500Y-53811500D03*
%TD*%
D14*
%TO.C,R403*%
X260850000Y-102662500D03*
X260850000Y-103662500D03*
%TD*%
D16*
%TO.C,Q1118*%
X363837500Y-208050000D03*
X363837500Y-206150000D03*
X361962500Y-207100000D03*
%TD*%
D11*
%TO.C,R445*%
X44676000Y-51311500D03*
X45676000Y-51311500D03*
%TD*%
D12*
%TO.C,Q1104*%
X298850000Y-209637500D03*
X300750000Y-209637500D03*
X299800000Y-207762500D03*
%TD*%
D15*
%TO.C,R247*%
X68876000Y-65711500D03*
X68876000Y-64711500D03*
%TD*%
D17*
%TO.C,Q126*%
X193850000Y-153962500D03*
X191950000Y-153962500D03*
X192900000Y-155837500D03*
%TD*%
D19*
%TO.C,D117*%
X364790000Y-152200000D03*
X363210000Y-152200000D03*
%TD*%
D17*
%TO.C,*%
X101050000Y-89562500D03*
%TD*%
D15*
%TO.C,R156*%
X158376000Y-65711500D03*
X158376000Y-64711500D03*
%TD*%
D17*
%TO.C,Q561*%
X203850000Y-61062500D03*
X201950000Y-61062500D03*
X202900000Y-62937500D03*
%TD*%
D14*
%TO.C,R733*%
X268600000Y-161000000D03*
X268600000Y-162000000D03*
%TD*%
%TO.C,R109*%
X187600000Y-195400000D03*
X187600000Y-196400000D03*
%TD*%
D12*
%TO.C,Q324*%
X176326000Y-62949000D03*
X178226000Y-62949000D03*
X177276000Y-61074000D03*
%TD*%
D10*
%TO.C,Q515*%
X56825000Y-163525000D03*
X56825000Y-165425000D03*
X58700000Y-164475000D03*
%TD*%
D15*
%TO.C,R40*%
X190400000Y-161500000D03*
X190400000Y-160500000D03*
%TD*%
D19*
%TO.C,D48*%
X68952500Y-159375000D03*
X67372500Y-159375000D03*
%TD*%
D10*
%TO.C,Q1137*%
X317962500Y-190550000D03*
X317962500Y-192450000D03*
X319837500Y-191500000D03*
%TD*%
D14*
%TO.C,R402*%
X264650000Y-102662500D03*
X264650000Y-103662500D03*
%TD*%
D15*
%TO.C,R307*%
X134475000Y-109650000D03*
X134475000Y-108650000D03*
%TD*%
D13*
%TO.C,R337*%
X193800000Y-125000000D03*
X192800000Y-125000000D03*
%TD*%
D15*
%TO.C,R5*%
X40600000Y-194800000D03*
X40600000Y-193800000D03*
%TD*%
D16*
%TO.C,Q656*%
X268687500Y-81412500D03*
X268687500Y-79512500D03*
X266812500Y-80462500D03*
%TD*%
D10*
%TO.C,Q23*%
X87162500Y-175350000D03*
X87162500Y-177250000D03*
X89037500Y-176300000D03*
%TD*%
D17*
%TO.C,Q232*%
X98950000Y-85062500D03*
X97050000Y-85062500D03*
X98000000Y-86937500D03*
%TD*%
D10*
%TO.C,Q789*%
X377212500Y-56712500D03*
X377212500Y-58612500D03*
X379087500Y-57662500D03*
%TD*%
D25*
%TO.C,J26*%
X383440000Y-133020000D03*
D26*
X380900000Y-133020000D03*
X383440000Y-135560000D03*
X380900000Y-135560000D03*
X383440000Y-138100000D03*
X380900000Y-138100000D03*
X383440000Y-140640000D03*
X380900000Y-140640000D03*
X383440000Y-143180000D03*
X380900000Y-143180000D03*
X383440000Y-145720000D03*
X380900000Y-145720000D03*
X383440000Y-148260000D03*
X380900000Y-148260000D03*
X383440000Y-150800000D03*
X380900000Y-150800000D03*
%TD*%
D17*
%TO.C,Q210*%
X142950000Y-85062500D03*
X141050000Y-85062500D03*
X142000000Y-86937500D03*
%TD*%
D14*
%TO.C,R585*%
X254900000Y-135100000D03*
X254900000Y-136100000D03*
%TD*%
D10*
%TO.C,Q1142*%
X322162500Y-146250000D03*
X322162500Y-148150000D03*
X324037500Y-147200000D03*
%TD*%
D22*
%TO.C,C28*%
X324950000Y-27312500D03*
X324950000Y-25412500D03*
%TD*%
D17*
%TO.C,Q415*%
X69173718Y-128062500D03*
X67273718Y-128062500D03*
X68223718Y-129937500D03*
%TD*%
D15*
%TO.C,R475*%
X47100000Y-181600000D03*
X47100000Y-180600000D03*
%TD*%
%TO.C,R484*%
X38600000Y-194800000D03*
X38600000Y-193800000D03*
%TD*%
D11*
%TO.C,R690*%
X328000000Y-201600000D03*
X329000000Y-201600000D03*
%TD*%
D17*
%TO.C,Q1057*%
X279750000Y-207762500D03*
X277850000Y-207762500D03*
X278800000Y-209637500D03*
%TD*%
D12*
%TO.C,Q1037*%
X287750000Y-192837500D03*
X289650000Y-192837500D03*
X288700000Y-190962500D03*
%TD*%
D10*
%TO.C,Q1045*%
X317962500Y-203550000D03*
X317962500Y-205450000D03*
X319837500Y-204500000D03*
%TD*%
D14*
%TO.C,R650*%
X276300000Y-175200000D03*
X276300000Y-176200000D03*
%TD*%
D17*
%TO.C,Q551*%
X207850000Y-47562500D03*
X205950000Y-47562500D03*
X206900000Y-49437500D03*
%TD*%
D14*
%TO.C,R225*%
X73900000Y-99400000D03*
X73900000Y-100400000D03*
%TD*%
D13*
%TO.C,R35*%
X184500000Y-173400000D03*
X183500000Y-173400000D03*
%TD*%
D17*
%TO.C,Q242*%
X142950000Y-89562500D03*
X141050000Y-89562500D03*
X142000000Y-91437500D03*
%TD*%
D13*
%TO.C,R346*%
X75262500Y-162975000D03*
X74262500Y-162975000D03*
%TD*%
D17*
%TO.C,Q444*%
X47012500Y-139737500D03*
X45112500Y-139737500D03*
X46062500Y-141612500D03*
%TD*%
D20*
%TO.C,D43*%
X51162500Y-158985000D03*
X51162500Y-160565000D03*
%TD*%
D11*
%TO.C,R308*%
X122476000Y-53311500D03*
X123476000Y-53311500D03*
%TD*%
D17*
%TO.C,Q128*%
X133150000Y-159162500D03*
X131250000Y-159162500D03*
X132200000Y-161037500D03*
%TD*%
%TO.C,Q177*%
X150950000Y-80562500D03*
X149050000Y-80562500D03*
X150000000Y-82437500D03*
%TD*%
D24*
%TO.C,D7*%
X97100000Y-173090000D03*
X97100000Y-171510000D03*
%TD*%
D14*
%TO.C,R128*%
X187600000Y-164400000D03*
X187600000Y-165400000D03*
%TD*%
D15*
%TO.C,R53*%
X69500000Y-172400000D03*
X69500000Y-171400000D03*
%TD*%
D12*
%TO.C,Q642*%
X258900000Y-107300000D03*
X260800000Y-107300000D03*
X259850000Y-105425000D03*
%TD*%
D15*
%TO.C,R103*%
X179500000Y-172400000D03*
X179500000Y-171400000D03*
%TD*%
%TO.C,R256*%
X89576000Y-65711500D03*
X89576000Y-64711500D03*
%TD*%
D12*
%TO.C,Q988*%
X295150000Y-170837500D03*
X297050000Y-170837500D03*
X296100000Y-168962500D03*
%TD*%
D16*
%TO.C,Q1024*%
X368737500Y-154050000D03*
X368737500Y-152150000D03*
X366862500Y-153100000D03*
%TD*%
D12*
%TO.C,Q987*%
X291450000Y-170837500D03*
X293350000Y-170837500D03*
X292400000Y-168962500D03*
%TD*%
D15*
%TO.C,R292*%
X143837500Y-115300000D03*
X143837500Y-114300000D03*
%TD*%
%TO.C,R303*%
X167275000Y-109750000D03*
X167275000Y-108750000D03*
%TD*%
D11*
%TO.C,R730*%
X300600000Y-211300000D03*
X301600000Y-211300000D03*
%TD*%
D15*
%TO.C,R314*%
X65762500Y-149975000D03*
X65762500Y-148975000D03*
%TD*%
D14*
%TO.C,R631*%
X276300000Y-164200000D03*
X276300000Y-165200000D03*
%TD*%
%TO.C,R522*%
X79900000Y-99400000D03*
X79900000Y-100400000D03*
%TD*%
D17*
%TO.C,Q105*%
X145150000Y-149162500D03*
X143250000Y-149162500D03*
X144200000Y-151037500D03*
%TD*%
D20*
%TO.C,D45*%
X47962500Y-148485000D03*
X47962500Y-150065000D03*
%TD*%
D10*
%TO.C,Q1179*%
X334762500Y-154550000D03*
X334762500Y-156450000D03*
X336637500Y-155500000D03*
%TD*%
%TO.C,Q21*%
X77162500Y-183350000D03*
X77162500Y-185250000D03*
X79037500Y-184300000D03*
%TD*%
D13*
%TO.C,R443*%
X75262500Y-164975000D03*
X74262500Y-164975000D03*
%TD*%
D10*
%TO.C,Q1189*%
X338962500Y-142550000D03*
X338962500Y-144450000D03*
X340837500Y-143500000D03*
%TD*%
%TO.C,Q582*%
X189062500Y-137450000D03*
X189062500Y-139350000D03*
X190937500Y-138400000D03*
%TD*%
D14*
%TO.C,R557*%
X269500000Y-190000000D03*
X269500000Y-191000000D03*
%TD*%
D13*
%TO.C,R24*%
X129500000Y-173400000D03*
X128500000Y-173400000D03*
%TD*%
D12*
%TO.C,Q937*%
X287750000Y-148837500D03*
X289650000Y-148837500D03*
X288700000Y-146962500D03*
%TD*%
D11*
%TO.C,R326*%
X198900000Y-33500000D03*
X199900000Y-33500000D03*
%TD*%
D10*
%TO.C,Q754*%
X344912500Y-60512500D03*
X344912500Y-62412500D03*
X346787500Y-61462500D03*
%TD*%
D15*
%TO.C,R131*%
X187600000Y-161500000D03*
X187600000Y-160500000D03*
%TD*%
D10*
%TO.C,Q945*%
X250362500Y-146650000D03*
X250362500Y-148550000D03*
X252237500Y-147600000D03*
%TD*%
D16*
%TO.C,Q732*%
X332687500Y-81412500D03*
X332687500Y-79512500D03*
X330812500Y-80462500D03*
%TD*%
D10*
%TO.C,Q470*%
X152637500Y-104500000D03*
X152637500Y-106400000D03*
X154512500Y-105450000D03*
%TD*%
D14*
%TO.C,R564*%
X269500000Y-205200000D03*
X269500000Y-206200000D03*
%TD*%
D13*
%TO.C,R675*%
X284700000Y-189300000D03*
X283700000Y-189300000D03*
%TD*%
%TO.C,R126*%
X189700000Y-173600000D03*
X188700000Y-173600000D03*
%TD*%
D18*
%TO.C,D167*%
X362560000Y-34662500D03*
X364140000Y-34662500D03*
%TD*%
D12*
%TO.C,Q319*%
X153826000Y-62949000D03*
X155726000Y-62949000D03*
X154776000Y-61074000D03*
%TD*%
D11*
%TO.C,R679*%
X309600000Y-189300000D03*
X310600000Y-189300000D03*
%TD*%
D13*
%TO.C,R677*%
X299500000Y-189300000D03*
X298500000Y-189300000D03*
%TD*%
D20*
%TO.C,D81*%
X175200000Y-149710000D03*
X175200000Y-151290000D03*
%TD*%
D16*
%TO.C,Q980*%
X368737500Y-127450000D03*
X368737500Y-125550000D03*
X366862500Y-126500000D03*
%TD*%
D15*
%TO.C,R245*%
X64376000Y-65711500D03*
X64376000Y-64711500D03*
%TD*%
D10*
%TO.C,Q1192*%
X338962500Y-158250000D03*
X338962500Y-160150000D03*
X340837500Y-159200000D03*
%TD*%
D12*
%TO.C,Q954*%
X306250000Y-143637500D03*
X308150000Y-143637500D03*
X307200000Y-141762500D03*
%TD*%
D17*
%TO.C,Q270*%
X178950000Y-95562500D03*
X177050000Y-95562500D03*
X178000000Y-97437500D03*
%TD*%
D14*
%TO.C,R565*%
X270600000Y-205200000D03*
X270600000Y-206200000D03*
%TD*%
D18*
%TO.C,D125*%
X268010000Y-163300000D03*
X269590000Y-163300000D03*
%TD*%
D15*
%TO.C,R42*%
X190400000Y-151500000D03*
X190400000Y-150500000D03*
%TD*%
D16*
%TO.C,Q153*%
X164713500Y-50361500D03*
X164713500Y-48461500D03*
X162838500Y-49411500D03*
%TD*%
D15*
%TO.C,R361*%
X39600000Y-186000000D03*
X39600000Y-185000000D03*
%TD*%
D12*
%TO.C,Q1100*%
X284050000Y-209637500D03*
X285950000Y-209637500D03*
X285000000Y-207762500D03*
%TD*%
%TO.C,Q955*%
X279650000Y-146837500D03*
X281550000Y-146837500D03*
X280600000Y-144962500D03*
%TD*%
D17*
%TO.C,Q522*%
X216850000Y-38562500D03*
X214950000Y-38562500D03*
X215900000Y-40437500D03*
%TD*%
D16*
%TO.C,Q485*%
X178937500Y-111450000D03*
X178937500Y-109550000D03*
X177062500Y-110500000D03*
%TD*%
D15*
%TO.C,R172*%
X111400000Y-93600000D03*
X111400000Y-92600000D03*
%TD*%
%TO.C,R61*%
X89500000Y-172400000D03*
X89500000Y-171400000D03*
%TD*%
D16*
%TO.C,Q477*%
X175775000Y-118850000D03*
X175775000Y-116950000D03*
X173900000Y-117900000D03*
%TD*%
D17*
%TO.C,Q624*%
X118950000Y-95562500D03*
X117050000Y-95562500D03*
X118000000Y-97437500D03*
%TD*%
%TO.C,Q182*%
X110950000Y-80562500D03*
X109050000Y-80562500D03*
X110000000Y-82437500D03*
%TD*%
%TO.C,Q464*%
X183050000Y-109562500D03*
X181150000Y-109562500D03*
X182100000Y-111437500D03*
%TD*%
D19*
%TO.C,D63*%
X40190000Y-205700000D03*
X38610000Y-205700000D03*
%TD*%
D18*
%TO.C,D91*%
X298560000Y-34662500D03*
X300140000Y-34662500D03*
%TD*%
D12*
%TO.C,Q1040*%
X298850000Y-192837500D03*
X300750000Y-192837500D03*
X299800000Y-190962500D03*
%TD*%
D27*
%TO.C,R22*%
X65100000Y-96000000D03*
X57480000Y-96000000D03*
%TD*%
D12*
%TO.C,Q1113*%
X352350000Y-171937500D03*
X354250000Y-171937500D03*
X353300000Y-170062500D03*
%TD*%
D10*
%TO.C,Q673*%
X281212500Y-79512500D03*
X281212500Y-81412500D03*
X283087500Y-80462500D03*
%TD*%
%TO.C,Q573*%
X195962500Y-124450000D03*
X195962500Y-126350000D03*
X197837500Y-125400000D03*
%TD*%
D15*
%TO.C,R105*%
X184500000Y-172400000D03*
X184500000Y-171400000D03*
%TD*%
D10*
%TO.C,Q604*%
X50062500Y-82950000D03*
X50062500Y-84850000D03*
X51937500Y-83900000D03*
%TD*%
D20*
%TO.C,D31*%
X189000000Y-186610000D03*
X189000000Y-188190000D03*
%TD*%
D12*
%TO.C,Q348*%
X62526000Y-62949000D03*
X64426000Y-62949000D03*
X63476000Y-61074000D03*
%TD*%
D14*
%TO.C,R122*%
X187600000Y-174400000D03*
X187600000Y-175400000D03*
%TD*%
D10*
%TO.C,Q1158*%
X326362500Y-170250000D03*
X326362500Y-172150000D03*
X328237500Y-171200000D03*
%TD*%
D14*
%TO.C,R415*%
X282450000Y-102662500D03*
X282450000Y-103662500D03*
%TD*%
D17*
%TO.C,Q621*%
X142950000Y-95562500D03*
X141050000Y-95562500D03*
X142000000Y-97437500D03*
%TD*%
D15*
%TO.C,R84*%
X133500000Y-172400000D03*
X133500000Y-171400000D03*
%TD*%
D16*
%TO.C,Q284*%
X133213500Y-54761500D03*
X133213500Y-52861500D03*
X131338500Y-53811500D03*
%TD*%
D13*
%TO.C,R589*%
X284700000Y-145300000D03*
X283700000Y-145300000D03*
%TD*%
D17*
%TO.C,Q209*%
X150950000Y-85062500D03*
X149050000Y-85062500D03*
X150000000Y-86937500D03*
%TD*%
D10*
%TO.C,Q49*%
X152162500Y-187350000D03*
X152162500Y-189250000D03*
X154037500Y-188300000D03*
%TD*%
D22*
%TO.C,C26*%
X331050000Y-27312500D03*
X331050000Y-25412500D03*
%TD*%
D17*
%TO.C,Q124*%
X193850000Y-164962500D03*
X191950000Y-164962500D03*
X192900000Y-166837500D03*
%TD*%
D25*
%TO.C,J13*%
X233300000Y-208180000D03*
D26*
X235840000Y-208180000D03*
X233300000Y-205640000D03*
X235840000Y-205640000D03*
X233300000Y-203100000D03*
X235840000Y-203100000D03*
X233300000Y-200560000D03*
X235840000Y-200560000D03*
X233300000Y-198020000D03*
X235840000Y-198020000D03*
X233300000Y-195480000D03*
X235840000Y-195480000D03*
X233300000Y-192940000D03*
X235840000Y-192940000D03*
X233300000Y-190400000D03*
X235840000Y-190400000D03*
%TD*%
D17*
%TO.C,Q237*%
X182950000Y-89562500D03*
X181050000Y-89562500D03*
X182000000Y-91437500D03*
%TD*%
%TO.C,Q491*%
X131525000Y-108612500D03*
X129625000Y-108612500D03*
X130575000Y-110487500D03*
%TD*%
D15*
%TO.C,R236*%
X194376000Y-65711500D03*
X194376000Y-64711500D03*
%TD*%
D10*
%TO.C,Q1141*%
X322162500Y-142550000D03*
X322162500Y-144450000D03*
X324037500Y-143500000D03*
%TD*%
%TO.C,Q574*%
X202962500Y-124450000D03*
X202962500Y-126350000D03*
X204837500Y-125400000D03*
%TD*%
D12*
%TO.C,Q526*%
X222950000Y-49437500D03*
X224850000Y-49437500D03*
X223900000Y-47562500D03*
%TD*%
%TO.C,Q1096*%
X302550000Y-214837500D03*
X304450000Y-214837500D03*
X303500000Y-212962500D03*
%TD*%
D14*
%TO.C,R216*%
X145900000Y-99400000D03*
X145900000Y-100400000D03*
%TD*%
D15*
%TO.C,R477*%
X37600000Y-181600000D03*
X37600000Y-180600000D03*
%TD*%
D17*
%TO.C,Q433*%
X59173718Y-128562500D03*
X57273718Y-128562500D03*
X58223718Y-130437500D03*
%TD*%
D16*
%TO.C,Q370*%
X86913500Y-46461500D03*
X86913500Y-44561500D03*
X85038500Y-45511500D03*
%TD*%
D17*
%TO.C,*%
X141050000Y-89562500D03*
%TD*%
D14*
%TO.C,R272*%
X75123718Y-128500000D03*
X75123718Y-129500000D03*
%TD*%
D11*
%TO.C,R676*%
X290000000Y-189300000D03*
X291000000Y-189300000D03*
%TD*%
D14*
%TO.C,R501*%
X160900000Y-99400000D03*
X160900000Y-100400000D03*
%TD*%
D25*
%TO.C,J14*%
X233340000Y-78880000D03*
D26*
X235880000Y-78880000D03*
X233340000Y-76340000D03*
X235880000Y-76340000D03*
X233340000Y-73800000D03*
X235880000Y-73800000D03*
X233340000Y-71260000D03*
X235880000Y-71260000D03*
X233340000Y-68720000D03*
X235880000Y-68720000D03*
X233340000Y-66180000D03*
X235880000Y-66180000D03*
X233340000Y-63640000D03*
X235880000Y-63640000D03*
X233340000Y-61100000D03*
X235880000Y-61100000D03*
%TD*%
D15*
%TO.C,R483*%
X37600000Y-194800000D03*
X37600000Y-193800000D03*
%TD*%
%TO.C,R163*%
X183400000Y-93600000D03*
X183400000Y-92600000D03*
%TD*%
D17*
%TO.C,*%
X157050000Y-89562500D03*
%TD*%
D14*
%TO.C,R512*%
X119900000Y-99400000D03*
X119900000Y-100400000D03*
%TD*%
D15*
%TO.C,R362*%
X39600000Y-181600000D03*
X39600000Y-180600000D03*
%TD*%
D16*
%TO.C,Q667*%
X264387500Y-70012500D03*
X264387500Y-68112500D03*
X262512500Y-69062500D03*
%TD*%
%TO.C,Q594*%
X137775000Y-118850000D03*
X137775000Y-116950000D03*
X135900000Y-117900000D03*
%TD*%
D11*
%TO.C,R180*%
X177900000Y-93600000D03*
X178900000Y-93600000D03*
%TD*%
D10*
%TO.C,Q588*%
X58825000Y-155525000D03*
X58825000Y-157425000D03*
X60700000Y-156475000D03*
%TD*%
D16*
%TO.C,Q159*%
X178213500Y-50361500D03*
X178213500Y-48461500D03*
X176338500Y-49411500D03*
%TD*%
D24*
%TO.C,D20*%
X147100000Y-173090000D03*
X147100000Y-171510000D03*
%TD*%
D15*
%TO.C,R152*%
X149376000Y-65711500D03*
X149376000Y-64711500D03*
%TD*%
D13*
%TO.C,R602*%
X293700000Y-145300000D03*
X292700000Y-145300000D03*
%TD*%
D15*
%TO.C,R72*%
X118500000Y-172400000D03*
X118500000Y-171400000D03*
%TD*%
D21*
%TO.C,C33*%
X361050000Y-114712500D03*
X361050000Y-116612500D03*
%TD*%
D15*
%TO.C,R37*%
X190400000Y-198500000D03*
X190400000Y-197500000D03*
%TD*%
D17*
%TO.C,Q418*%
X59173718Y-115062500D03*
X57273718Y-115062500D03*
X58223718Y-116937500D03*
%TD*%
D11*
%TO.C,R436*%
X82762500Y-159975000D03*
X83762500Y-159975000D03*
%TD*%
D17*
%TO.C,Q623*%
X126950000Y-95562500D03*
X125050000Y-95562500D03*
X126000000Y-97437500D03*
%TD*%
D14*
%TO.C,R419*%
X267250000Y-102662500D03*
X267250000Y-103662500D03*
%TD*%
D15*
%TO.C,R199*%
X152600000Y-93600000D03*
X152600000Y-92600000D03*
%TD*%
D14*
%TO.C,R222*%
X97900000Y-99400000D03*
X97900000Y-100400000D03*
%TD*%
D18*
%TO.C,D97*%
X268910000Y-196200000D03*
X270490000Y-196200000D03*
%TD*%
D10*
%TO.C,Q688*%
X364012500Y-107412500D03*
X364012500Y-109312500D03*
X365887500Y-108362500D03*
%TD*%
D15*
%TO.C,R100*%
X173500000Y-172400000D03*
X173500000Y-171400000D03*
%TD*%
D10*
%TO.C,Q712*%
X313212500Y-83312500D03*
X313212500Y-85212500D03*
X315087500Y-84262500D03*
%TD*%
D15*
%TO.C,R478*%
X38600000Y-181600000D03*
X38600000Y-180600000D03*
%TD*%
D12*
%TO.C,Q1027*%
X287750000Y-176637500D03*
X289650000Y-176637500D03*
X288700000Y-174762500D03*
%TD*%
%TO.C,Q1004*%
X306250000Y-165637500D03*
X308150000Y-165637500D03*
X307200000Y-163762500D03*
%TD*%
D15*
%TO.C,R250*%
X76076000Y-65711500D03*
X76076000Y-64711500D03*
%TD*%
%TO.C,R568*%
X252200000Y-218000000D03*
X252200000Y-217000000D03*
%TD*%
D12*
%TO.C,Q1052*%
X298850000Y-187637500D03*
X300750000Y-187637500D03*
X299800000Y-185762500D03*
%TD*%
D15*
%TO.C,R58*%
X83500000Y-172400000D03*
X83500000Y-171400000D03*
%TD*%
D16*
%TO.C,Q779*%
X360387500Y-62412500D03*
X360387500Y-60512500D03*
X358512500Y-61462500D03*
%TD*%
D14*
%TO.C,R340*%
X193600000Y-129400000D03*
X193600000Y-130400000D03*
%TD*%
D10*
%TO.C,Q595*%
X52325000Y-163525000D03*
X52325000Y-165425000D03*
X54200000Y-164475000D03*
%TD*%
D15*
%TO.C,R201*%
X136600000Y-93600000D03*
X136600000Y-92600000D03*
%TD*%
D18*
%TO.C,D73*%
X125010000Y-99700000D03*
X126590000Y-99700000D03*
%TD*%
D10*
%TO.C,Q931*%
X250362500Y-135550000D03*
X250362500Y-137450000D03*
X252237500Y-136500000D03*
%TD*%
D18*
%TO.C,D119*%
X268010000Y-141100000D03*
X269590000Y-141100000D03*
%TD*%
D17*
%TO.C,Q254*%
X178950000Y-89562500D03*
X177050000Y-89562500D03*
X178000000Y-91437500D03*
%TD*%
D10*
%TO.C,Q764*%
X358512500Y-32712500D03*
X358512500Y-34612500D03*
X360387500Y-33662500D03*
%TD*%
D16*
%TO.C,Q697*%
X300687500Y-62412500D03*
X300687500Y-60512500D03*
X298812500Y-61462500D03*
%TD*%
D15*
%TO.C,R466*%
X48100000Y-203600000D03*
X48100000Y-202600000D03*
%TD*%
D11*
%TO.C,R737*%
X351800000Y-142100000D03*
X352800000Y-142100000D03*
%TD*%
D25*
%TO.C,J7*%
X50900000Y-98400000D03*
%TD*%
D10*
%TO.C,Q699*%
X355612500Y-107412500D03*
X355612500Y-109312500D03*
X357487500Y-108362500D03*
%TD*%
D17*
%TO.C,Q228*%
X130950000Y-85062500D03*
X129050000Y-85062500D03*
X130000000Y-86937500D03*
%TD*%
D16*
%TO.C,Q142*%
X137713500Y-46461500D03*
X137713500Y-44561500D03*
X135838500Y-45511500D03*
%TD*%
%TO.C,Q168*%
X196213500Y-46461500D03*
X196213500Y-44561500D03*
X194338500Y-45511500D03*
%TD*%
D13*
%TO.C,R551*%
X378450000Y-33062500D03*
X377450000Y-33062500D03*
%TD*%
D16*
%TO.C,Q705*%
X296387500Y-66212500D03*
X296387500Y-64312500D03*
X294512500Y-65262500D03*
%TD*%
D11*
%TO.C,R670*%
X294800000Y-178300000D03*
X295800000Y-178300000D03*
%TD*%
%TO.C,R423*%
X267450000Y-31962500D03*
X268450000Y-31962500D03*
%TD*%
D15*
%TO.C,R629*%
X363200000Y-128000000D03*
X363200000Y-127000000D03*
%TD*%
D12*
%TO.C,Q535*%
X222950000Y-62937500D03*
X224850000Y-62937500D03*
X223900000Y-61062500D03*
%TD*%
D11*
%TO.C,R703*%
X285800000Y-200300000D03*
X286800000Y-200300000D03*
%TD*%
D16*
%TO.C,Q171*%
X133213500Y-58661500D03*
X133213500Y-56761500D03*
X131338500Y-57711500D03*
%TD*%
D17*
%TO.C,Q197*%
X122950000Y-80562500D03*
X121050000Y-80562500D03*
X122000000Y-82437500D03*
%TD*%
D16*
%TO.C,Q765*%
X364687500Y-85212500D03*
X364687500Y-83312500D03*
X362812500Y-84262500D03*
%TD*%
D11*
%TO.C,R745*%
X351800000Y-167200000D03*
X352800000Y-167200000D03*
%TD*%
D16*
%TO.C,Q285*%
X137713500Y-58661500D03*
X137713500Y-56761500D03*
X135838500Y-57711500D03*
%TD*%
D15*
%TO.C,R258*%
X94076000Y-65711500D03*
X94076000Y-64711500D03*
%TD*%
D14*
%TO.C,R509*%
X128900000Y-99400000D03*
X128900000Y-100400000D03*
%TD*%
D16*
%TO.C,Q389*%
X104913500Y-50361500D03*
X104913500Y-48461500D03*
X103038500Y-49411500D03*
%TD*%
D13*
%TO.C,R306*%
X125775000Y-106750000D03*
X124775000Y-106750000D03*
%TD*%
D14*
%TO.C,R664*%
X276300000Y-186200000D03*
X276300000Y-187200000D03*
%TD*%
D12*
%TO.C,Q923*%
X291450000Y-132637500D03*
X293350000Y-132637500D03*
X292400000Y-130762500D03*
%TD*%
D15*
%TO.C,R567*%
X251100000Y-218000000D03*
X251100000Y-217000000D03*
%TD*%
%TO.C,R159*%
X164676000Y-65711500D03*
X164676000Y-64711500D03*
%TD*%
D11*
%TO.C,R442*%
X64562500Y-153075000D03*
X65562500Y-153075000D03*
%TD*%
%TO.C,R347*%
X44676000Y-50311500D03*
X45676000Y-50311500D03*
%TD*%
D10*
%TO.C,Q63*%
X182162500Y-199350000D03*
X182162500Y-201250000D03*
X184037500Y-200300000D03*
%TD*%
%TO.C,Q1219*%
X347362500Y-190550000D03*
X347362500Y-192450000D03*
X349237500Y-191500000D03*
%TD*%
%TO.C,Q1176*%
X334762500Y-134250000D03*
X334762500Y-136150000D03*
X336637500Y-135200000D03*
%TD*%
D15*
%TO.C,R259*%
X95876000Y-65711500D03*
X95876000Y-64711500D03*
%TD*%
D13*
%TO.C,R657*%
X284700000Y-178300000D03*
X283700000Y-178300000D03*
%TD*%
D16*
%TO.C,Q154*%
X164713500Y-46461500D03*
X164713500Y-44561500D03*
X162838500Y-45511500D03*
%TD*%
D13*
%TO.C,R444*%
X75262500Y-163975000D03*
X74262500Y-163975000D03*
%TD*%
D16*
%TO.C,Q694*%
X300687500Y-73812500D03*
X300687500Y-71912500D03*
X298812500Y-72862500D03*
%TD*%
D15*
%TO.C,R492*%
X38600000Y-212400000D03*
X38600000Y-211400000D03*
%TD*%
D10*
%TO.C,Q1177*%
X334762500Y-142550000D03*
X334762500Y-144450000D03*
X336637500Y-143500000D03*
%TD*%
D17*
%TO.C,Q552*%
X203950000Y-47562500D03*
X202050000Y-47562500D03*
X203000000Y-49437500D03*
%TD*%
D10*
%TO.C,Q1133*%
X317962500Y-166550000D03*
X317962500Y-168450000D03*
X319837500Y-167500000D03*
%TD*%
%TO.C,Q495*%
X44825000Y-163525000D03*
X44825000Y-165425000D03*
X46700000Y-164475000D03*
%TD*%
D16*
%TO.C,Q143*%
X142213500Y-50361500D03*
X142213500Y-48461500D03*
X140338500Y-49411500D03*
%TD*%
D17*
%TO.C,Q236*%
X190950000Y-89562500D03*
X189050000Y-89562500D03*
X190000000Y-91437500D03*
%TD*%
D11*
%TO.C,R452*%
X122476000Y-51311500D03*
X123476000Y-51311500D03*
%TD*%
D12*
%TO.C,Q484*%
X169387500Y-114637500D03*
X171287500Y-114637500D03*
X170337500Y-112762500D03*
%TD*%
D16*
%TO.C,Q350*%
X68913500Y-46461500D03*
X68913500Y-44561500D03*
X67038500Y-45511500D03*
%TD*%
D15*
%TO.C,R479*%
X37600000Y-186000000D03*
X37600000Y-185000000D03*
%TD*%
D17*
%TO.C,Q190*%
X178950000Y-80562500D03*
X177050000Y-80562500D03*
X178000000Y-82437500D03*
%TD*%
D10*
%TO.C,Q54*%
X157162500Y-191350000D03*
X157162500Y-193250000D03*
X159037500Y-192300000D03*
%TD*%
D15*
%TO.C,R373*%
X49100000Y-190400000D03*
X49100000Y-189400000D03*
%TD*%
%TO.C,R151*%
X146676000Y-65711500D03*
X146676000Y-64711500D03*
%TD*%
D10*
%TO.C,Q1182*%
X334762500Y-170250000D03*
X334762500Y-172150000D03*
X336637500Y-171200000D03*
%TD*%
D17*
%TO.C,Q212*%
X126950000Y-85062500D03*
X125050000Y-85062500D03*
X126000000Y-86937500D03*
%TD*%
D10*
%TO.C,Q1138*%
X317962500Y-194250000D03*
X317962500Y-196150000D03*
X319837500Y-195200000D03*
%TD*%
D12*
%TO.C,Q648*%
X297700000Y-109300000D03*
X299600000Y-109300000D03*
X298650000Y-107425000D03*
%TD*%
D17*
%TO.C,Q273*%
X154950000Y-95562500D03*
X153050000Y-95562500D03*
X154000000Y-97437500D03*
%TD*%
D16*
%TO.C,Q406*%
X118413500Y-58661500D03*
X118413500Y-56761500D03*
X116538500Y-57711500D03*
%TD*%
D14*
%TO.C,R503*%
X152900000Y-99400000D03*
X152900000Y-100400000D03*
%TD*%
D18*
%TO.C,D77*%
X93010000Y-99700000D03*
X94590000Y-99700000D03*
%TD*%
D15*
%TO.C,R652*%
X364300000Y-143200000D03*
X364300000Y-142200000D03*
%TD*%
D10*
%TO.C,Q13*%
X67162500Y-187350000D03*
X67162500Y-189250000D03*
X69037500Y-188300000D03*
%TD*%
%TO.C,Q1210*%
X343162500Y-194250000D03*
X343162500Y-196150000D03*
X345037500Y-195200000D03*
%TD*%
D15*
%TO.C,R469*%
X48100000Y-194800000D03*
X48100000Y-193800000D03*
%TD*%
D17*
%TO.C,Q439*%
X54173718Y-133062500D03*
X52273718Y-133062500D03*
X53223718Y-134937500D03*
%TD*%
D14*
%TO.C,R620*%
X276300000Y-153200000D03*
X276300000Y-154200000D03*
%TD*%
D12*
%TO.C,Q328*%
X194326000Y-62949000D03*
X196226000Y-62949000D03*
X195276000Y-61074000D03*
%TD*%
D13*
%TO.C,R678*%
X305300000Y-189300000D03*
X304300000Y-189300000D03*
%TD*%
D16*
%TO.C,Q309*%
X191713500Y-58661500D03*
X191713500Y-56761500D03*
X189838500Y-57711500D03*
%TD*%
D10*
%TO.C,Q687*%
X285512500Y-56712500D03*
X285512500Y-58612500D03*
X287387500Y-57662500D03*
%TD*%
D15*
%TO.C,R241*%
X55376000Y-65711500D03*
X55376000Y-64711500D03*
%TD*%
D16*
%TO.C,Q384*%
X100413500Y-50361500D03*
X100413500Y-48461500D03*
X98538500Y-49411500D03*
%TD*%
D14*
%TO.C,R513*%
X112900000Y-99400000D03*
X112900000Y-100400000D03*
%TD*%
D16*
%TO.C,Q330*%
X50913500Y-46461500D03*
X50913500Y-44561500D03*
X49038500Y-45511500D03*
%TD*%
D10*
%TO.C,Q1187*%
X338962500Y-130550000D03*
X338962500Y-132450000D03*
X340837500Y-131500000D03*
%TD*%
D15*
%TO.C,R488*%
X38600000Y-203600000D03*
X38600000Y-202600000D03*
%TD*%
%TO.C,R60*%
X88500000Y-172400000D03*
X88500000Y-171400000D03*
%TD*%
D18*
%TO.C,D80*%
X69010000Y-99700000D03*
X70590000Y-99700000D03*
%TD*%
D20*
%TO.C,D29*%
X189000000Y-196610000D03*
X189000000Y-198190000D03*
%TD*%
D16*
%TO.C,Q775*%
X360387500Y-77612500D03*
X360387500Y-75712500D03*
X358512500Y-76662500D03*
%TD*%
%TO.C,Q141*%
X137713500Y-50361500D03*
X137713500Y-48461500D03*
X135838500Y-49411500D03*
%TD*%
D13*
%TO.C,R14*%
X94500000Y-173400000D03*
X93500000Y-173400000D03*
%TD*%
D10*
%TO.C,Q783*%
X377212500Y-79512500D03*
X377212500Y-81412500D03*
X379087500Y-80462500D03*
%TD*%
D14*
%TO.C,R715*%
X269600000Y-149900000D03*
X269600000Y-150900000D03*
%TD*%
D17*
%TO.C,Q423*%
X59173718Y-119562500D03*
X57273718Y-119562500D03*
X58223718Y-121437500D03*
%TD*%
D16*
%TO.C,Q698*%
X300687500Y-58612500D03*
X300687500Y-56712500D03*
X298812500Y-57662500D03*
%TD*%
D10*
%TO.C,Q749*%
X345212500Y-79512500D03*
X345212500Y-81412500D03*
X347087500Y-80462500D03*
%TD*%
%TO.C,Q1166*%
X330562500Y-146250000D03*
X330562500Y-148150000D03*
X332437500Y-147200000D03*
%TD*%
D12*
%TO.C,Q934*%
X279650000Y-135837500D03*
X281550000Y-135837500D03*
X280600000Y-133962500D03*
%TD*%
D17*
%TO.C,Q525*%
X216850000Y-43062500D03*
X214950000Y-43062500D03*
X215900000Y-44937500D03*
%TD*%
D11*
%TO.C,R453*%
X122476000Y-52311500D03*
X123476000Y-52311500D03*
%TD*%
%TO.C,R749*%
X351800000Y-191200000D03*
X352800000Y-191200000D03*
%TD*%
D12*
%TO.C,Q639*%
X270300000Y-107300000D03*
X272200000Y-107300000D03*
X271250000Y-105425000D03*
%TD*%
%TO.C,Q368*%
X80526000Y-62949000D03*
X82426000Y-62949000D03*
X81476000Y-61074000D03*
%TD*%
D10*
%TO.C,Q1140*%
X322162500Y-134250000D03*
X322162500Y-136150000D03*
X324037500Y-135200000D03*
%TD*%
D12*
%TO.C,Q562*%
X209950000Y-67437500D03*
X211850000Y-67437500D03*
X210900000Y-65562500D03*
%TD*%
D17*
%TO.C,Q234*%
X82950000Y-85062500D03*
X81050000Y-85062500D03*
X82000000Y-86937500D03*
%TD*%
%TO.C,Q528*%
X216850000Y-47562500D03*
X214950000Y-47562500D03*
X215900000Y-49437500D03*
%TD*%
D20*
%TO.C,D35*%
X189000000Y-165610000D03*
X189000000Y-167190000D03*
%TD*%
D17*
%TO.C,Q223*%
X170950000Y-85062500D03*
X169050000Y-85062500D03*
X170000000Y-86937500D03*
%TD*%
D14*
%TO.C,R416*%
X278650000Y-102662500D03*
X278650000Y-103662500D03*
%TD*%
D12*
%TO.C,Q1105*%
X302550000Y-209637500D03*
X304450000Y-209637500D03*
X303500000Y-207762500D03*
%TD*%
D13*
%TO.C,R34*%
X179500000Y-173400000D03*
X178500000Y-173400000D03*
%TD*%
D19*
%TO.C,D90*%
X283340000Y-34662500D03*
X281760000Y-34662500D03*
%TD*%
D10*
%TO.C,Q34*%
X112162500Y-175350000D03*
X112162500Y-177250000D03*
X114037500Y-176300000D03*
%TD*%
D16*
%TO.C,Q739*%
X328387500Y-85212500D03*
X328387500Y-83312500D03*
X326512500Y-84262500D03*
%TD*%
D14*
%TO.C,R273*%
X75123718Y-133500000D03*
X75123718Y-134500000D03*
%TD*%
D13*
%TO.C,R336*%
X125775000Y-104750000D03*
X124775000Y-104750000D03*
%TD*%
D17*
%TO.C,Q448*%
X63012500Y-139737500D03*
X61112500Y-139737500D03*
X62062500Y-141612500D03*
%TD*%
D11*
%TO.C,R283*%
X40523718Y-125850000D03*
X41523718Y-125850000D03*
%TD*%
D22*
%TO.C,C11*%
X99200000Y-160300000D03*
X99200000Y-158400000D03*
%TD*%
D14*
%TO.C,R517*%
X96900000Y-99400000D03*
X96900000Y-100400000D03*
%TD*%
%TO.C,R510*%
X127900000Y-99400000D03*
X127900000Y-100400000D03*
%TD*%
%TO.C,R556*%
X176600000Y-160600000D03*
X176600000Y-161600000D03*
%TD*%
D17*
%TO.C,Q133*%
X153150000Y-159162500D03*
X151250000Y-159162500D03*
X152200000Y-161037500D03*
%TD*%
D13*
%TO.C,R352*%
X78262500Y-154075000D03*
X77262500Y-154075000D03*
%TD*%
D14*
%TO.C,R611*%
X254900000Y-157300000D03*
X254900000Y-158300000D03*
%TD*%
D15*
%TO.C,R290*%
X135137500Y-114600000D03*
X135137500Y-113600000D03*
%TD*%
D17*
%TO.C,Q906*%
X363750000Y-162662500D03*
X361850000Y-162662500D03*
X362800000Y-164537500D03*
%TD*%
D16*
%TO.C,Q392*%
X104913500Y-54761500D03*
X104913500Y-52861500D03*
X103038500Y-53811500D03*
%TD*%
%TO.C,Q293*%
X155713500Y-58661500D03*
X155713500Y-56761500D03*
X153838500Y-57711500D03*
%TD*%
D12*
%TO.C,Q1069*%
X306250000Y-203837500D03*
X308150000Y-203837500D03*
X307200000Y-201962500D03*
%TD*%
D10*
%TO.C,Q725*%
X317512500Y-68112500D03*
X317512500Y-70012500D03*
X319387500Y-69062500D03*
%TD*%
D20*
%TO.C,D82*%
X175200000Y-144710000D03*
X175200000Y-146290000D03*
%TD*%
D17*
%TO.C,Q617*%
X174950000Y-95562500D03*
X173050000Y-95562500D03*
X174000000Y-97437500D03*
%TD*%
D15*
%TO.C,R81*%
X124500000Y-172400000D03*
X124500000Y-171400000D03*
%TD*%
D17*
%TO.C,Q542*%
X207850000Y-34062500D03*
X205950000Y-34062500D03*
X206900000Y-35937500D03*
%TD*%
D12*
%TO.C,Q1106*%
X306250000Y-209637500D03*
X308150000Y-209637500D03*
X307200000Y-207762500D03*
%TD*%
D11*
%TO.C,R600*%
X285800000Y-145300000D03*
X286800000Y-145300000D03*
%TD*%
D10*
%TO.C,Q1167*%
X330562500Y-154550000D03*
X330562500Y-156450000D03*
X332437500Y-155500000D03*
%TD*%
D16*
%TO.C,Q345*%
X64413500Y-46461500D03*
X64413500Y-44561500D03*
X62538500Y-45511500D03*
%TD*%
%TO.C,Q340*%
X59913500Y-46461500D03*
X59913500Y-44561500D03*
X58038500Y-45511500D03*
%TD*%
D17*
%TO.C,Q122*%
X193850000Y-174962500D03*
X191950000Y-174962500D03*
X192900000Y-176837500D03*
%TD*%
%TO.C,Q445*%
X51012500Y-139737500D03*
X49112500Y-139737500D03*
X50062500Y-141612500D03*
%TD*%
%TO.C,Q108*%
X157150000Y-149162500D03*
X155250000Y-149162500D03*
X156200000Y-151037500D03*
%TD*%
%TO.C,Q220*%
X194950000Y-85062500D03*
X193050000Y-85062500D03*
X194000000Y-86937500D03*
%TD*%
D14*
%TO.C,R400*%
X272250000Y-102662500D03*
X272250000Y-103662500D03*
%TD*%
D19*
%TO.C,D113*%
X364790000Y-137000000D03*
X363210000Y-137000000D03*
%TD*%
D12*
%TO.C,Q550*%
X209950000Y-49437500D03*
X211850000Y-49437500D03*
X210900000Y-47562500D03*
%TD*%
D13*
%TO.C,R335*%
X125775000Y-105750000D03*
X124775000Y-105750000D03*
%TD*%
D20*
%TO.C,D34*%
X189000000Y-170610000D03*
X189000000Y-172190000D03*
%TD*%
D16*
%TO.C,Q700*%
X296387500Y-85212500D03*
X296387500Y-83312500D03*
X294512500Y-84262500D03*
%TD*%
D17*
%TO.C,Q88*%
X129150000Y-144162500D03*
X127250000Y-144162500D03*
X128200000Y-146037500D03*
%TD*%
D12*
%TO.C,Q317*%
X144826000Y-62949000D03*
X146726000Y-62949000D03*
X145776000Y-61074000D03*
%TD*%
D16*
%TO.C,Q402*%
X113913500Y-54761500D03*
X113913500Y-52861500D03*
X112038500Y-53811500D03*
%TD*%
D10*
%TO.C,Q1146*%
X322162500Y-170250000D03*
X322162500Y-172150000D03*
X324037500Y-171200000D03*
%TD*%
%TO.C,Q494*%
X40325000Y-163525000D03*
X40325000Y-165425000D03*
X42200000Y-164475000D03*
%TD*%
D11*
%TO.C,R634*%
X290000000Y-167300000D03*
X291000000Y-167300000D03*
%TD*%
D16*
%TO.C,Q148*%
X151213500Y-46461500D03*
X151213500Y-44561500D03*
X149338500Y-45511500D03*
%TD*%
D13*
%TO.C,R320*%
X228000000Y-42500000D03*
X227000000Y-42500000D03*
%TD*%
D17*
%TO.C,Q193*%
X154950000Y-80562500D03*
X153050000Y-80562500D03*
X154000000Y-82437500D03*
%TD*%
D14*
%TO.C,R534*%
X306050000Y-104662500D03*
X306050000Y-105662500D03*
%TD*%
D12*
%TO.C,Q946*%
X275950000Y-146837500D03*
X277850000Y-146837500D03*
X276900000Y-144962500D03*
%TD*%
D15*
%TO.C,R80*%
X123500000Y-172400000D03*
X123500000Y-171400000D03*
%TD*%
D11*
%TO.C,R570*%
X365600000Y-183300000D03*
X366600000Y-183300000D03*
%TD*%
D28*
%TO.C,C44*%
X375450000Y-204400000D03*
X377350000Y-204400000D03*
%TD*%
D17*
%TO.C,Q93*%
X149150000Y-144162500D03*
X147250000Y-144162500D03*
X148200000Y-146037500D03*
%TD*%
D19*
%TO.C,D166*%
X347340000Y-34662500D03*
X345760000Y-34662500D03*
%TD*%
D12*
%TO.C,Q1080*%
X298850000Y-198637500D03*
X300750000Y-198637500D03*
X299800000Y-196762500D03*
%TD*%
D16*
%TO.C,Q407*%
X118413500Y-54761500D03*
X118413500Y-52861500D03*
X116538500Y-53811500D03*
%TD*%
D10*
%TO.C,Q785*%
X377250000Y-71862500D03*
X377250000Y-73762500D03*
X379125000Y-72812500D03*
%TD*%
D15*
%TO.C,R640*%
X363200000Y-135600000D03*
X363200000Y-134600000D03*
%TD*%
%TO.C,R464*%
X47100000Y-208000000D03*
X47100000Y-207000000D03*
%TD*%
D18*
%TO.C,D120*%
X268010000Y-144800000D03*
X269590000Y-144800000D03*
%TD*%
D15*
%TO.C,R299*%
X143075000Y-109750000D03*
X143075000Y-108750000D03*
%TD*%
D10*
%TO.C,Q471*%
X148137500Y-104500000D03*
X148137500Y-106400000D03*
X150012500Y-105450000D03*
%TD*%
D13*
%TO.C,R33*%
X174500000Y-173400000D03*
X173500000Y-173400000D03*
%TD*%
D16*
%TO.C,Q2*%
X44137500Y-207650000D03*
X44137500Y-205750000D03*
X42262500Y-206700000D03*
%TD*%
D17*
%TO.C,Q625*%
X110950000Y-95562500D03*
X109050000Y-95562500D03*
X110000000Y-97437500D03*
%TD*%
D12*
%TO.C,Q1110*%
X352400000Y-147937500D03*
X354300000Y-147937500D03*
X353350000Y-146062500D03*
%TD*%
D10*
%TO.C,Q1214*%
X347362500Y-146250000D03*
X347362500Y-148150000D03*
X349237500Y-147200000D03*
%TD*%
D18*
%TO.C,D75*%
X109010000Y-99700000D03*
X110590000Y-99700000D03*
%TD*%
D16*
%TO.C,Q693*%
X300687500Y-77612500D03*
X300687500Y-75712500D03*
X298812500Y-76662500D03*
%TD*%
D10*
%TO.C,Q1129*%
X317962500Y-142550000D03*
X317962500Y-144450000D03*
X319837500Y-143500000D03*
%TD*%
%TO.C,Q1088*%
X347362500Y-207250000D03*
X347362500Y-209150000D03*
X349237500Y-208200000D03*
%TD*%
D19*
%TO.C,D168*%
X379340000Y-34662500D03*
X377760000Y-34662500D03*
%TD*%
D17*
%TO.C,Q558*%
X203850000Y-56562500D03*
X201950000Y-56562500D03*
X202900000Y-58437500D03*
%TD*%
D15*
%TO.C,R424*%
X49600000Y-80200000D03*
X49600000Y-79200000D03*
%TD*%
D10*
%TO.C,Q572*%
X188962500Y-124450000D03*
X188962500Y-126350000D03*
X190837500Y-125400000D03*
%TD*%
D17*
%TO.C,Q113*%
X149150000Y-154162500D03*
X147250000Y-154162500D03*
X148200000Y-156037500D03*
%TD*%
%TO.C,Q195*%
X138950000Y-80562500D03*
X137050000Y-80562500D03*
X138000000Y-82437500D03*
%TD*%
D10*
%TO.C,Q760*%
X349512500Y-68112500D03*
X349512500Y-70012500D03*
X351387500Y-69062500D03*
%TD*%
D15*
%TO.C,R379*%
X50100000Y-194800000D03*
X50100000Y-193800000D03*
%TD*%
%TO.C,R88*%
X144500000Y-172400000D03*
X144500000Y-171400000D03*
%TD*%
D11*
%TO.C,R693*%
X290000000Y-200300000D03*
X291000000Y-200300000D03*
%TD*%
D10*
%TO.C,Q674*%
X281212500Y-75712500D03*
X281212500Y-77612500D03*
X283087500Y-76662500D03*
%TD*%
%TO.C,Q516*%
X200962500Y-128450000D03*
X200962500Y-130350000D03*
X202837500Y-129400000D03*
%TD*%
%TO.C,Q19*%
X77162500Y-175350000D03*
X77162500Y-177250000D03*
X79037500Y-176300000D03*
%TD*%
%TO.C,Q1115*%
X362062500Y-216050000D03*
X362062500Y-217950000D03*
X363937500Y-217000000D03*
%TD*%
D17*
%TO.C,Q184*%
X94950000Y-80562500D03*
X93050000Y-80562500D03*
X94000000Y-82437500D03*
%TD*%
D14*
%TO.C,R531*%
X294650000Y-104662500D03*
X294650000Y-105662500D03*
%TD*%
D15*
%TO.C,R107*%
X187600000Y-203500000D03*
X187600000Y-202500000D03*
%TD*%
D10*
%TO.C,Q64*%
X182162500Y-195350000D03*
X182162500Y-197250000D03*
X184037500Y-196300000D03*
%TD*%
D14*
%TO.C,R571*%
X369500000Y-178500000D03*
X369500000Y-179500000D03*
%TD*%
D10*
%TO.C,Q782*%
X377212500Y-83312500D03*
X377212500Y-85212500D03*
X379087500Y-84262500D03*
%TD*%
%TO.C,Q689*%
X359812500Y-107412500D03*
X359812500Y-109312500D03*
X361687500Y-108362500D03*
%TD*%
D14*
%TO.C,R494*%
X184900000Y-99400000D03*
X184900000Y-100400000D03*
%TD*%
D22*
%TO.C,C9*%
X161400000Y-135050000D03*
X161400000Y-133150000D03*
%TD*%
D17*
%TO.C,Q215*%
X102950000Y-85062500D03*
X101050000Y-85062500D03*
X102000000Y-86937500D03*
%TD*%
%TO.C,Q198*%
X114950000Y-80562500D03*
X113050000Y-80562500D03*
X114000000Y-82437500D03*
%TD*%
%TO.C,Q256*%
X162950000Y-89562500D03*
X161050000Y-89562500D03*
X162000000Y-91437500D03*
%TD*%
D10*
%TO.C,Q12*%
X67162500Y-191350000D03*
X67162500Y-193250000D03*
X69037500Y-192300000D03*
%TD*%
D12*
%TO.C,Q1076*%
X284050000Y-198637500D03*
X285950000Y-198637500D03*
X285000000Y-196762500D03*
%TD*%
D14*
%TO.C,R606*%
X254900000Y-149900000D03*
X254900000Y-150900000D03*
%TD*%
D15*
%TO.C,R459*%
X204600000Y-130400000D03*
X204600000Y-129400000D03*
%TD*%
D17*
%TO.C,Q235*%
X74950000Y-85062500D03*
X73050000Y-85062500D03*
X74000000Y-86937500D03*
%TD*%
D15*
%TO.C,R656*%
X363200000Y-150800000D03*
X363200000Y-149800000D03*
%TD*%
D16*
%TO.C,Q394*%
X109413500Y-50361500D03*
X109413500Y-48461500D03*
X107538500Y-49411500D03*
%TD*%
D17*
%TO.C,Q136*%
X193850000Y-143962500D03*
X191950000Y-143962500D03*
X192900000Y-145837500D03*
%TD*%
D10*
%TO.C,Q48*%
X142162500Y-187350000D03*
X142162500Y-189250000D03*
X144037500Y-188300000D03*
%TD*%
D17*
%TO.C,Q204*%
X190950000Y-85062500D03*
X189050000Y-85062500D03*
X190000000Y-86937500D03*
%TD*%
D15*
%TO.C,R490*%
X38600000Y-208000000D03*
X38600000Y-207000000D03*
%TD*%
D11*
%TO.C,R349*%
X64562500Y-154075000D03*
X65562500Y-154075000D03*
%TD*%
D10*
%TO.C,Q1135*%
X317962500Y-178550000D03*
X317962500Y-180450000D03*
X319837500Y-179500000D03*
%TD*%
D14*
%TO.C,R210*%
X193900000Y-99400000D03*
X193900000Y-100400000D03*
%TD*%
D24*
%TO.C,D27*%
X182100000Y-173090000D03*
X182100000Y-171510000D03*
%TD*%
D16*
%TO.C,Q711*%
X319387500Y-34612500D03*
X319387500Y-32712500D03*
X317512500Y-33662500D03*
%TD*%
D18*
%TO.C,D105*%
X254310000Y-148500000D03*
X255890000Y-148500000D03*
%TD*%
D12*
%TO.C,Q1095*%
X298850000Y-214837500D03*
X300750000Y-214837500D03*
X299800000Y-212962500D03*
%TD*%
D17*
%TO.C,Q276*%
X130950000Y-95562500D03*
X129050000Y-95562500D03*
X130000000Y-97437500D03*
%TD*%
D14*
%TO.C,R417*%
X274850000Y-102662500D03*
X274850000Y-103662500D03*
%TD*%
D12*
%TO.C,Q338*%
X53526000Y-62949000D03*
X55426000Y-62949000D03*
X54476000Y-61074000D03*
%TD*%
D13*
%TO.C,R577*%
X363800000Y-183300000D03*
X362800000Y-183300000D03*
%TD*%
D17*
%TO.C,Q453*%
X83012500Y-139737500D03*
X81112500Y-139737500D03*
X82062500Y-141612500D03*
%TD*%
D13*
%TO.C,R111*%
X189700000Y-199600000D03*
X188700000Y-199600000D03*
%TD*%
D10*
%TO.C,Q1206*%
X343162500Y-170250000D03*
X343162500Y-172150000D03*
X345037500Y-171200000D03*
%TD*%
D19*
%TO.C,D114*%
X364790000Y-140800000D03*
X363210000Y-140800000D03*
%TD*%
D13*
%TO.C,R351*%
X78262500Y-153075000D03*
X77262500Y-153075000D03*
%TD*%
D15*
%TO.C,R168*%
X143400000Y-93600000D03*
X143400000Y-92600000D03*
%TD*%
%TO.C,R262*%
X103076000Y-65711500D03*
X103076000Y-64711500D03*
%TD*%
%TO.C,R621*%
X318400000Y-214700000D03*
X318400000Y-213700000D03*
%TD*%
D12*
%TO.C,Q78*%
X203750000Y-202800000D03*
X205650000Y-202800000D03*
X204700000Y-200925000D03*
%TD*%
D10*
%TO.C,Q1089*%
X264062500Y-150350000D03*
X264062500Y-152250000D03*
X265937500Y-151300000D03*
%TD*%
D17*
%TO.C,Q615*%
X182950000Y-95562500D03*
X181050000Y-95562500D03*
X182000000Y-97437500D03*
%TD*%
D16*
%TO.C,Q356*%
X73413500Y-58661500D03*
X73413500Y-56761500D03*
X71538500Y-57711500D03*
%TD*%
%TO.C,Q138*%
X128713500Y-50361500D03*
X128713500Y-48461500D03*
X126838500Y-49411500D03*
%TD*%
%TO.C,Q165*%
X191713500Y-50361500D03*
X191713500Y-48461500D03*
X189838500Y-49411500D03*
%TD*%
D13*
%TO.C,R744*%
X366900000Y-190000000D03*
X365900000Y-190000000D03*
%TD*%
D10*
%TO.C,Q492*%
X129637500Y-104500000D03*
X129637500Y-106400000D03*
X131512500Y-105450000D03*
%TD*%
D17*
%TO.C,Q261*%
X122950000Y-89562500D03*
X121050000Y-89562500D03*
X122000000Y-91437500D03*
%TD*%
D10*
%TO.C,Q751*%
X345212500Y-71912500D03*
X345212500Y-73812500D03*
X347087500Y-72862500D03*
%TD*%
D17*
%TO.C,Q200*%
X98950000Y-80562500D03*
X97050000Y-80562500D03*
X98000000Y-82437500D03*
%TD*%
D10*
%TO.C,Q1136*%
X317962500Y-182250000D03*
X317962500Y-184150000D03*
X319837500Y-183200000D03*
%TD*%
D15*
%TO.C,R154*%
X153876000Y-65711500D03*
X153876000Y-64711500D03*
%TD*%
D11*
%TO.C,R672*%
X306400000Y-178300000D03*
X307400000Y-178300000D03*
%TD*%
D15*
%TO.C,R263*%
X104876000Y-65711500D03*
X104876000Y-64711500D03*
%TD*%
D24*
%TO.C,D23*%
X162100000Y-173090000D03*
X162100000Y-171510000D03*
%TD*%
D15*
%TO.C,R267*%
X113876000Y-65711500D03*
X113876000Y-64711500D03*
%TD*%
D10*
%TO.C,Q41*%
X122162500Y-187350000D03*
X122162500Y-189250000D03*
X124037500Y-188300000D03*
%TD*%
D13*
%TO.C,R322*%
X228000000Y-51500000D03*
X227000000Y-51500000D03*
%TD*%
D14*
%TO.C,R515*%
X104900000Y-99400000D03*
X104900000Y-100400000D03*
%TD*%
D17*
%TO.C,Q531*%
X216850000Y-52062500D03*
X214950000Y-52062500D03*
X215900000Y-53937500D03*
%TD*%
D13*
%TO.C,R32*%
X169500000Y-173400000D03*
X168500000Y-173400000D03*
%TD*%
D15*
%TO.C,R341*%
X205600000Y-130400000D03*
X205600000Y-129400000D03*
%TD*%
D16*
%TO.C,Q747*%
X351387500Y-34612500D03*
X351387500Y-32712500D03*
X349512500Y-33662500D03*
%TD*%
%TO.C,Q289*%
X146713500Y-58661500D03*
X146713500Y-56761500D03*
X144838500Y-57711500D03*
%TD*%
D17*
%TO.C,Q411*%
X73573718Y-128062500D03*
X71673718Y-128062500D03*
X72623718Y-129937500D03*
%TD*%
D18*
%TO.C,D100*%
X268910000Y-207600000D03*
X270490000Y-207600000D03*
%TD*%
D17*
%TO.C,Q219*%
X70950000Y-85062500D03*
X69050000Y-85062500D03*
X70000000Y-86937500D03*
%TD*%
D16*
%TO.C,Q304*%
X178213500Y-54761500D03*
X178213500Y-52861500D03*
X176338500Y-53811500D03*
%TD*%
D10*
%TO.C,Q614*%
X67825000Y-155525000D03*
X67825000Y-157425000D03*
X69700000Y-156475000D03*
%TD*%
D17*
%TO.C,Q417*%
X63173718Y-115062500D03*
X61273718Y-115062500D03*
X62223718Y-116937500D03*
%TD*%
D16*
%TO.C,Q297*%
X164713500Y-58661500D03*
X164713500Y-56761500D03*
X162838500Y-57711500D03*
%TD*%
D12*
%TO.C,Q1042*%
X306250000Y-192837500D03*
X308150000Y-192837500D03*
X307200000Y-190962500D03*
%TD*%
D13*
%TO.C,R108*%
X189700000Y-204600000D03*
X188700000Y-204600000D03*
%TD*%
D14*
%TO.C,R220*%
X113900000Y-99400000D03*
X113900000Y-100400000D03*
%TD*%
%TO.C,R697*%
X269600000Y-135100000D03*
X269600000Y-136100000D03*
%TD*%
D17*
%TO.C,Q536*%
X220850000Y-61062500D03*
X218950000Y-61062500D03*
X219900000Y-62937500D03*
%TD*%
D14*
%TO.C,R112*%
X187600000Y-190400000D03*
X187600000Y-191400000D03*
%TD*%
D15*
%TO.C,R476*%
X48100000Y-181600000D03*
X48100000Y-180600000D03*
%TD*%
D10*
%TO.C,Q466*%
X175637500Y-104500000D03*
X175637500Y-106400000D03*
X177512500Y-105450000D03*
%TD*%
D17*
%TO.C,Q530*%
X220850000Y-52062500D03*
X218950000Y-52062500D03*
X219900000Y-53937500D03*
%TD*%
%TO.C,Q266*%
X82950000Y-89562500D03*
X81050000Y-89562500D03*
X82000000Y-91437500D03*
%TD*%
D12*
%TO.C,Q541*%
X209950000Y-35937500D03*
X211850000Y-35937500D03*
X210900000Y-34062500D03*
%TD*%
%TO.C,Q914*%
X302550000Y-137837500D03*
X304450000Y-137837500D03*
X303500000Y-135962500D03*
%TD*%
D17*
%TO.C,Q99*%
X125150000Y-159162500D03*
X123250000Y-159162500D03*
X124200000Y-161037500D03*
%TD*%
%TO.C,Q241*%
X150950000Y-89562500D03*
X149050000Y-89562500D03*
X150000000Y-91437500D03*
%TD*%
%TO.C,Q274*%
X146950000Y-95562500D03*
X145050000Y-95562500D03*
X146000000Y-97437500D03*
%TD*%
%TO.C,Q179*%
X134950000Y-80562500D03*
X133050000Y-80562500D03*
X134000000Y-82437500D03*
%TD*%
D16*
%TO.C,Q385*%
X100413500Y-46461500D03*
X100413500Y-44561500D03*
X98538500Y-45511500D03*
%TD*%
D25*
%TO.C,J6*%
X56080000Y-106900000D03*
D26*
X58620000Y-106900000D03*
X61160000Y-106900000D03*
X63700000Y-106900000D03*
X66240000Y-106900000D03*
X68780000Y-106900000D03*
X71320000Y-106900000D03*
X73860000Y-106900000D03*
X76400000Y-106900000D03*
X78940000Y-106900000D03*
X81480000Y-106900000D03*
X84020000Y-106900000D03*
X86560000Y-106900000D03*
X89100000Y-106900000D03*
X91640000Y-106900000D03*
X94180000Y-106900000D03*
X96720000Y-106900000D03*
X99260000Y-106900000D03*
X101800000Y-106900000D03*
X104340000Y-106900000D03*
X106880000Y-106900000D03*
%TD*%
D14*
%TO.C,R413*%
X314850000Y-104662500D03*
X314850000Y-105662500D03*
%TD*%
%TO.C,R526*%
X176600000Y-150600000D03*
X176600000Y-151600000D03*
%TD*%
D12*
%TO.C,Q556*%
X209950000Y-58437500D03*
X211850000Y-58437500D03*
X210900000Y-56562500D03*
%TD*%
%TO.C,Q504*%
X71112500Y-150412500D03*
X73012500Y-150412500D03*
X72062500Y-148537500D03*
%TD*%
D14*
%TO.C,R298*%
X151475000Y-108050000D03*
X151475000Y-109050000D03*
%TD*%
D28*
%TO.C,C17*%
X36650000Y-66800000D03*
X38550000Y-66800000D03*
%TD*%
D15*
%TO.C,R234*%
X189876000Y-65711500D03*
X189876000Y-64711500D03*
%TD*%
D11*
%TO.C,R183*%
X153900000Y-93600000D03*
X154900000Y-93600000D03*
%TD*%
D10*
%TO.C,Q24*%
X92162500Y-175350000D03*
X92162500Y-177250000D03*
X94037500Y-176300000D03*
%TD*%
%TO.C,Q9*%
X67162500Y-203350000D03*
X67162500Y-205250000D03*
X69037500Y-204300000D03*
%TD*%
D17*
%TO.C,Q188*%
X194950000Y-80562500D03*
X193050000Y-80562500D03*
X194000000Y-82437500D03*
%TD*%
%TO.C,Q181*%
X118950000Y-80562500D03*
X117050000Y-80562500D03*
X118000000Y-82437500D03*
%TD*%
D16*
%TO.C,Q404*%
X118413500Y-50361500D03*
X118413500Y-48461500D03*
X116538500Y-49411500D03*
%TD*%
D17*
%TO.C,Q107*%
X153150000Y-149162500D03*
X151250000Y-149162500D03*
X152200000Y-151037500D03*
%TD*%
D24*
%TO.C,D15*%
X122100000Y-173090000D03*
X122100000Y-171510000D03*
%TD*%
D11*
%TO.C,R181*%
X169900000Y-93600000D03*
X170900000Y-93600000D03*
%TD*%
D12*
%TO.C,Q1033*%
X275950000Y-201837500D03*
X277850000Y-201837500D03*
X276900000Y-199962500D03*
%TD*%
D10*
%TO.C,Q1160*%
X326362500Y-182250000D03*
X326362500Y-184150000D03*
X328237500Y-183200000D03*
%TD*%
D13*
%TO.C,R591*%
X299500000Y-145300000D03*
X298500000Y-145300000D03*
%TD*%
D12*
%TO.C,Q77*%
X195750000Y-145837500D03*
X197650000Y-145837500D03*
X196700000Y-143962500D03*
%TD*%
D11*
%TO.C,R279*%
X40523718Y-116900000D03*
X41523718Y-116900000D03*
%TD*%
D12*
%TO.C,Q1034*%
X279650000Y-201837500D03*
X281550000Y-201837500D03*
X280600000Y-199962500D03*
%TD*%
D10*
%TO.C,Q748*%
X345212500Y-83312500D03*
X345212500Y-85212500D03*
X347087500Y-84262500D03*
%TD*%
D17*
%TO.C,Q262*%
X114950000Y-89562500D03*
X113050000Y-89562500D03*
X114000000Y-91437500D03*
%TD*%
D14*
%TO.C,R586*%
X276300000Y-131200000D03*
X276300000Y-132200000D03*
%TD*%
D10*
%TO.C,Q729*%
X334612500Y-107412500D03*
X334612500Y-109312500D03*
X336487500Y-108362500D03*
%TD*%
D14*
%TO.C,R133*%
X187600000Y-153400000D03*
X187600000Y-154400000D03*
%TD*%
D16*
%TO.C,Q390*%
X104913500Y-46461500D03*
X104913500Y-44561500D03*
X103038500Y-45511500D03*
%TD*%
%TO.C,Q312*%
X196213500Y-54761500D03*
X196213500Y-52861500D03*
X194338500Y-53811500D03*
%TD*%
D15*
%TO.C,R467*%
X47100000Y-199200000D03*
X47100000Y-198200000D03*
%TD*%
%TO.C,R268*%
X116576000Y-65711500D03*
X116576000Y-64711500D03*
%TD*%
D17*
%TO.C,Q125*%
X193850000Y-158962500D03*
X191950000Y-158962500D03*
X192900000Y-160837500D03*
%TD*%
D13*
%TO.C,R660*%
X305300000Y-178300000D03*
X304300000Y-178300000D03*
%TD*%
D17*
%TO.C,Q255*%
X170950000Y-89562500D03*
X169050000Y-89562500D03*
X170000000Y-91437500D03*
%TD*%
D16*
%TO.C,Q164*%
X187213500Y-46461500D03*
X187213500Y-44561500D03*
X185338500Y-45511500D03*
%TD*%
D22*
%TO.C,C31*%
X358950000Y-27412500D03*
X358950000Y-25512500D03*
%TD*%
D28*
%TO.C,C15*%
X36650000Y-60700000D03*
X38550000Y-60700000D03*
%TD*%
D13*
%TO.C,R321*%
X228000000Y-47000000D03*
X227000000Y-47000000D03*
%TD*%
D12*
%TO.C,Q538*%
X222950000Y-67437500D03*
X224850000Y-67437500D03*
X223900000Y-65562500D03*
%TD*%
D11*
%TO.C,R189*%
X105900000Y-93600000D03*
X106900000Y-93600000D03*
%TD*%
D25*
%TO.C,J24*%
X370950000Y-35762500D03*
D26*
X370950000Y-38302500D03*
X370950000Y-40842500D03*
X370950000Y-43382500D03*
X370950000Y-45922500D03*
X370950000Y-48462500D03*
X370950000Y-51002500D03*
X370950000Y-53542500D03*
X370950000Y-56082500D03*
X370950000Y-58622500D03*
X370950000Y-61162500D03*
X370950000Y-63702500D03*
X370950000Y-66242500D03*
X370950000Y-68782500D03*
X370950000Y-71322500D03*
X370950000Y-73862500D03*
X370950000Y-76402500D03*
X370950000Y-78942500D03*
X370950000Y-81482500D03*
X370950000Y-84022500D03*
X370950000Y-86562500D03*
%TD*%
D10*
%TO.C,Q1209*%
X343162500Y-190550000D03*
X343162500Y-192450000D03*
X345037500Y-191500000D03*
%TD*%
D13*
%TO.C,R338*%
X200800000Y-126000000D03*
X199800000Y-126000000D03*
%TD*%
D12*
%TO.C,Q969*%
X279650000Y-157837500D03*
X281550000Y-157837500D03*
X280600000Y-155962500D03*
%TD*%
%TO.C,Q636*%
X281700000Y-107300000D03*
X283600000Y-107300000D03*
X282650000Y-105425000D03*
%TD*%
D14*
%TO.C,R554*%
X177600000Y-155600000D03*
X177600000Y-156600000D03*
%TD*%
D13*
%TO.C,R751*%
X366900000Y-191400000D03*
X365900000Y-191400000D03*
%TD*%
D11*
%TO.C,R707*%
X300600000Y-200300000D03*
X301600000Y-200300000D03*
%TD*%
%TO.C,R573*%
X290000000Y-134300000D03*
X291000000Y-134300000D03*
%TD*%
D14*
%TO.C,R530*%
X290850000Y-104662500D03*
X290850000Y-105662500D03*
%TD*%
D17*
%TO.C,Q920*%
X367550000Y-171062500D03*
X365650000Y-171062500D03*
X366600000Y-172937500D03*
%TD*%
D16*
%TO.C,Q4*%
X44137500Y-198850000D03*
X44137500Y-196950000D03*
X42262500Y-197900000D03*
%TD*%
%TO.C,Q372*%
X86913500Y-54761500D03*
X86913500Y-52861500D03*
X85038500Y-53811500D03*
%TD*%
D12*
%TO.C,Q982*%
X324050000Y-215137500D03*
X325950000Y-215137500D03*
X325000000Y-213262500D03*
%TD*%
D17*
%TO.C,Q428*%
X59173718Y-124062500D03*
X57273718Y-124062500D03*
X58223718Y-125937500D03*
%TD*%
D16*
%TO.C,Q776*%
X360387500Y-73812500D03*
X360387500Y-71912500D03*
X358512500Y-72862500D03*
%TD*%
D10*
%TO.C,Q1168*%
X330562500Y-158250000D03*
X330562500Y-160150000D03*
X332437500Y-159200000D03*
%TD*%
D11*
%TO.C,R544*%
X331450000Y-31962500D03*
X332450000Y-31962500D03*
%TD*%
D10*
%TO.C,Q905*%
X264962500Y-205750000D03*
X264962500Y-207650000D03*
X266837500Y-206700000D03*
%TD*%
D15*
%TO.C,R249*%
X73376000Y-65711500D03*
X73376000Y-64711500D03*
%TD*%
%TO.C,R313*%
X82462500Y-149975000D03*
X82462500Y-148975000D03*
%TD*%
D16*
%TO.C,Q994*%
X368737500Y-135050000D03*
X368737500Y-133150000D03*
X366862500Y-134100000D03*
%TD*%
D15*
%TO.C,R143*%
X126876000Y-65711500D03*
X126876000Y-64711500D03*
%TD*%
D10*
%TO.C,Q1147*%
X322162500Y-178550000D03*
X322162500Y-180450000D03*
X324037500Y-179500000D03*
%TD*%
D16*
%TO.C,Q706*%
X296387500Y-62412500D03*
X296387500Y-60512500D03*
X294512500Y-61462500D03*
%TD*%
D13*
%TO.C,R28*%
X149500000Y-173400000D03*
X148500000Y-173400000D03*
%TD*%
D12*
%TO.C,Q1047*%
X279650000Y-212837500D03*
X281550000Y-212837500D03*
X280600000Y-210962500D03*
%TD*%
%TO.C,Q1102*%
X291450000Y-209637500D03*
X293350000Y-209637500D03*
X292400000Y-207762500D03*
%TD*%
D10*
%TO.C,Q1121*%
X362062500Y-212350000D03*
X362062500Y-214250000D03*
X363937500Y-213300000D03*
%TD*%
D17*
%TO.C,Q240*%
X158950000Y-89562500D03*
X157050000Y-89562500D03*
X158000000Y-91437500D03*
%TD*%
D13*
%TO.C,R542*%
X314450000Y-31962500D03*
X313450000Y-31962500D03*
%TD*%
D14*
%TO.C,R639*%
X281300000Y-164200000D03*
X281300000Y-165200000D03*
%TD*%
D20*
%TO.C,D28*%
X189000000Y-201610000D03*
X189000000Y-203190000D03*
%TD*%
D16*
%TO.C,Q307*%
X187213500Y-58661500D03*
X187213500Y-56761500D03*
X185338500Y-57711500D03*
%TD*%
D24*
%TO.C,D2*%
X72100000Y-173090000D03*
X72100000Y-171510000D03*
%TD*%
D10*
%TO.C,Q1213*%
X347362500Y-142550000D03*
X347362500Y-144450000D03*
X349237500Y-143500000D03*
%TD*%
D19*
%TO.C,D58*%
X40190000Y-183700000D03*
X38610000Y-183700000D03*
%TD*%
D13*
%TO.C,R18*%
X114500000Y-173400000D03*
X113500000Y-173400000D03*
%TD*%
D10*
%TO.C,Q761*%
X349512500Y-64312500D03*
X349512500Y-66212500D03*
X351387500Y-65262500D03*
%TD*%
D15*
%TO.C,R67*%
X104500000Y-172400000D03*
X104500000Y-171400000D03*
%TD*%
D19*
%TO.C,D92*%
X315340000Y-34762500D03*
X313760000Y-34762500D03*
%TD*%
D13*
%TO.C,R727*%
X288900000Y-211300000D03*
X287900000Y-211300000D03*
%TD*%
D15*
%TO.C,R137*%
X187600000Y-151500000D03*
X187600000Y-150500000D03*
%TD*%
D17*
%TO.C,Q427*%
X63173718Y-124062500D03*
X61273718Y-124062500D03*
X62223718Y-125937500D03*
%TD*%
D15*
%TO.C,R294*%
X168037500Y-115300000D03*
X168037500Y-114300000D03*
%TD*%
D14*
%TO.C,R741*%
X367000000Y-195000000D03*
X367000000Y-196000000D03*
%TD*%
D17*
%TO.C,Q265*%
X90950000Y-89562500D03*
X89050000Y-89562500D03*
X90000000Y-91437500D03*
%TD*%
D14*
%TO.C,R709*%
X269600000Y-142500000D03*
X269600000Y-143500000D03*
%TD*%
D16*
%TO.C,Q149*%
X155713500Y-50361500D03*
X155713500Y-48461500D03*
X153838500Y-49411500D03*
%TD*%
D13*
%TO.C,R17*%
X109500000Y-173400000D03*
X108500000Y-173400000D03*
%TD*%
D12*
%TO.C,Q995*%
X275950000Y-179837500D03*
X277850000Y-179837500D03*
X276900000Y-177962500D03*
%TD*%
D17*
%TO.C,Q622*%
X134950000Y-95562500D03*
X133050000Y-95562500D03*
X134000000Y-97437500D03*
%TD*%
D10*
%TO.C,Q1156*%
X326362500Y-158250000D03*
X326362500Y-160150000D03*
X328237500Y-159200000D03*
%TD*%
D16*
%TO.C,Q155*%
X169213500Y-50361500D03*
X169213500Y-48461500D03*
X167338500Y-49411500D03*
%TD*%
D10*
%TO.C,Q1220*%
X347362500Y-194250000D03*
X347362500Y-196150000D03*
X349237500Y-195200000D03*
%TD*%
D15*
%TO.C,R175*%
X87400000Y-93600000D03*
X87400000Y-92600000D03*
%TD*%
D16*
%TO.C,Q766*%
X364687500Y-81412500D03*
X364687500Y-79512500D03*
X362812500Y-80462500D03*
%TD*%
D17*
%TO.C,Q176*%
X158950000Y-80562500D03*
X157050000Y-80562500D03*
X158000000Y-82437500D03*
%TD*%
%TO.C,Q257*%
X154950000Y-89562500D03*
X153050000Y-89562500D03*
X154000000Y-91437500D03*
%TD*%
D15*
%TO.C,R642*%
X363200000Y-139400000D03*
X363200000Y-138400000D03*
%TD*%
D12*
%TO.C,Q649*%
X301500000Y-109300000D03*
X303400000Y-109300000D03*
X302450000Y-107425000D03*
%TD*%
D15*
%TO.C,R206*%
X96600000Y-93600000D03*
X96600000Y-92600000D03*
%TD*%
D11*
%TO.C,R549*%
X363450000Y-33062500D03*
X364450000Y-33062500D03*
%TD*%
D17*
%TO.C,Q500*%
X67112500Y-144537500D03*
X65212500Y-144537500D03*
X66162500Y-146412500D03*
%TD*%
D13*
%TO.C,R123*%
X189700000Y-178600000D03*
X188700000Y-178600000D03*
%TD*%
D16*
%TO.C,Q598*%
X53637500Y-203250000D03*
X53637500Y-201350000D03*
X51762500Y-202300000D03*
%TD*%
D12*
%TO.C,Q1026*%
X284050000Y-176637500D03*
X285950000Y-176637500D03*
X285000000Y-174762500D03*
%TD*%
D15*
%TO.C,R253*%
X82376000Y-65711500D03*
X82376000Y-64711500D03*
%TD*%
D11*
%TO.C,R190*%
X97900000Y-93600000D03*
X98900000Y-93600000D03*
%TD*%
D24*
%TO.C,D3*%
X77100000Y-173090000D03*
X77100000Y-171510000D03*
%TD*%
D10*
%TO.C,Q25*%
X97162500Y-187350000D03*
X97162500Y-189250000D03*
X99037500Y-188300000D03*
%TD*%
D14*
%TO.C,R674*%
X281300000Y-197200000D03*
X281300000Y-198200000D03*
%TD*%
D15*
%TO.C,R487*%
X37600000Y-203600000D03*
X37600000Y-202600000D03*
%TD*%
D10*
%TO.C,Q578*%
X193962500Y-133450000D03*
X193962500Y-135350000D03*
X195837500Y-134400000D03*
%TD*%
D12*
%TO.C,Q388*%
X98526000Y-62949000D03*
X100426000Y-62949000D03*
X99476000Y-61074000D03*
%TD*%
D16*
%TO.C,Q371*%
X86913500Y-58661500D03*
X86913500Y-56761500D03*
X85038500Y-57711500D03*
%TD*%
D10*
%TO.C,Q676*%
X281212500Y-68112500D03*
X281212500Y-70012500D03*
X283087500Y-69062500D03*
%TD*%
D14*
%TO.C,R302*%
X175137500Y-113600000D03*
X175137500Y-114600000D03*
%TD*%
D16*
%TO.C,Q770*%
X364687500Y-66212500D03*
X364687500Y-64312500D03*
X362812500Y-65262500D03*
%TD*%
D15*
%TO.C,R266*%
X112076000Y-65711500D03*
X112076000Y-64711500D03*
%TD*%
D14*
%TO.C,R408*%
X303450000Y-104662500D03*
X303450000Y-105662500D03*
%TD*%
D10*
%TO.C,Q726*%
X317512500Y-64312500D03*
X317512500Y-66212500D03*
X319387500Y-65262500D03*
%TD*%
D25*
%TO.C,J5*%
X133900000Y-35400000D03*
D26*
X136440000Y-35400000D03*
X138980000Y-35400000D03*
X141520000Y-35400000D03*
X144060000Y-35400000D03*
X146600000Y-35400000D03*
X149140000Y-35400000D03*
X151680000Y-35400000D03*
X154220000Y-35400000D03*
X156760000Y-35400000D03*
X159300000Y-35400000D03*
X161840000Y-35400000D03*
X164380000Y-35400000D03*
X166920000Y-35400000D03*
X169460000Y-35400000D03*
X172000000Y-35400000D03*
X174540000Y-35400000D03*
X177080000Y-35400000D03*
X179620000Y-35400000D03*
X182160000Y-35400000D03*
X184700000Y-35400000D03*
%TD*%
D12*
%TO.C,Q393*%
X103026000Y-62949000D03*
X104926000Y-62949000D03*
X103976000Y-61074000D03*
%TD*%
%TO.C,Q948*%
X284050000Y-143637500D03*
X285950000Y-143637500D03*
X285000000Y-141762500D03*
%TD*%
D17*
%TO.C,Q97*%
X165150000Y-144162500D03*
X163250000Y-144162500D03*
X164200000Y-146037500D03*
%TD*%
D12*
%TO.C,Q638*%
X274100000Y-107300000D03*
X276000000Y-107300000D03*
X275050000Y-105425000D03*
%TD*%
D16*
%TO.C,Q352*%
X68913500Y-54761500D03*
X68913500Y-52861500D03*
X67038500Y-53811500D03*
%TD*%
D14*
%TO.C,R612*%
X255900000Y-157300000D03*
X255900000Y-158300000D03*
%TD*%
D10*
%TO.C,Q496*%
X40225000Y-144525000D03*
X40225000Y-146425000D03*
X42100000Y-145475000D03*
%TD*%
D16*
%TO.C,Q1*%
X44137500Y-212050000D03*
X44137500Y-210150000D03*
X42262500Y-211100000D03*
%TD*%
D11*
%TO.C,R281*%
X40523718Y-121400000D03*
X41523718Y-121400000D03*
%TD*%
D12*
%TO.C,Q992*%
X309950000Y-170837500D03*
X311850000Y-170837500D03*
X310900000Y-168962500D03*
%TD*%
D28*
%TO.C,C41*%
X375450000Y-197200000D03*
X377350000Y-197200000D03*
%TD*%
D10*
%TO.C,Q586*%
X61325000Y-163525000D03*
X61325000Y-165425000D03*
X63200000Y-164475000D03*
%TD*%
D14*
%TO.C,R504*%
X151900000Y-99400000D03*
X151900000Y-100400000D03*
%TD*%
D11*
%TO.C,R685*%
X294800000Y-189300000D03*
X295800000Y-189300000D03*
%TD*%
D15*
%TO.C,R73*%
X119500000Y-172400000D03*
X119500000Y-171400000D03*
%TD*%
D19*
%TO.C,D47*%
X86952500Y-159375000D03*
X85372500Y-159375000D03*
%TD*%
D10*
%TO.C,Q723*%
X317512500Y-75712500D03*
X317512500Y-77612500D03*
X319387500Y-76662500D03*
%TD*%
D11*
%TO.C,R278*%
X40523718Y-115900000D03*
X41523718Y-115900000D03*
%TD*%
D15*
%TO.C,R312*%
X80862500Y-144975000D03*
X80862500Y-143975000D03*
%TD*%
%TO.C,R64*%
X98500000Y-172400000D03*
X98500000Y-171400000D03*
%TD*%
%TO.C,R369*%
X49100000Y-199200000D03*
X49100000Y-198200000D03*
%TD*%
D20*
%TO.C,D95*%
X175200000Y-154710000D03*
X175200000Y-156290000D03*
%TD*%
%TO.C,D32*%
X189000000Y-180610000D03*
X189000000Y-182190000D03*
%TD*%
D13*
%TO.C,R11*%
X79500000Y-173400000D03*
X78500000Y-173400000D03*
%TD*%
D17*
%TO.C,Q442*%
X67273718Y-113762500D03*
X65373718Y-113762500D03*
X66323718Y-115637500D03*
%TD*%
D16*
%TO.C,Q334*%
X55413500Y-50361500D03*
X55413500Y-48461500D03*
X53538500Y-49411500D03*
%TD*%
D11*
%TO.C,R280*%
X40523718Y-120400000D03*
X41523718Y-120400000D03*
%TD*%
D13*
%TO.C,R720*%
X305300000Y-211300000D03*
X304300000Y-211300000D03*
%TD*%
D14*
%TO.C,R597*%
X254900000Y-146200000D03*
X254900000Y-147200000D03*
%TD*%
D12*
%TO.C,Q1094*%
X295150000Y-214837500D03*
X297050000Y-214837500D03*
X296100000Y-212962500D03*
%TD*%
D15*
%TO.C,R311*%
X64762500Y-149975000D03*
X64762500Y-148975000D03*
%TD*%
D16*
%TO.C,Q771*%
X364687500Y-62412500D03*
X364687500Y-60512500D03*
X362812500Y-61462500D03*
%TD*%
D11*
%TO.C,R734*%
X351800000Y-130100000D03*
X352800000Y-130100000D03*
%TD*%
D16*
%TO.C,Q366*%
X82413500Y-58661500D03*
X82413500Y-56761500D03*
X80538500Y-57711500D03*
%TD*%
D18*
%TO.C,D79*%
X77010000Y-99700000D03*
X78590000Y-99700000D03*
%TD*%
D16*
%TO.C,Q360*%
X77913500Y-46461500D03*
X77913500Y-44561500D03*
X76038500Y-45511500D03*
%TD*%
%TO.C,Q599*%
X53637500Y-198850000D03*
X53637500Y-196950000D03*
X51762500Y-197900000D03*
%TD*%
D10*
%TO.C,Q1216*%
X347362500Y-170250000D03*
X347362500Y-172150000D03*
X349237500Y-171200000D03*
%TD*%
D14*
%TO.C,R528*%
X176600000Y-145600000D03*
X176600000Y-146600000D03*
%TD*%
D17*
%TO.C,Q272*%
X162950000Y-95562500D03*
X161050000Y-95562500D03*
X162000000Y-97437500D03*
%TD*%
D16*
%TO.C,Q147*%
X151213500Y-50361500D03*
X151213500Y-48461500D03*
X149338500Y-49411500D03*
%TD*%
%TO.C,Q1010*%
X368737500Y-146450000D03*
X368737500Y-144550000D03*
X366862500Y-145500000D03*
%TD*%
D17*
%TO.C,Q244*%
X126950000Y-89562500D03*
X125050000Y-89562500D03*
X126000000Y-91437500D03*
%TD*%
D16*
%TO.C,Q303*%
X178213500Y-58661500D03*
X178213500Y-56761500D03*
X176338500Y-57711500D03*
%TD*%
D11*
%TO.C,R285*%
X40523718Y-130400000D03*
X41523718Y-130400000D03*
%TD*%
D10*
%TO.C,Q1186*%
X334762500Y-194250000D03*
X334762500Y-196150000D03*
X336637500Y-195200000D03*
%TD*%
D16*
%TO.C,Q745*%
X328387500Y-62412500D03*
X328387500Y-60512500D03*
X326512500Y-61462500D03*
%TD*%
D17*
%TO.C,Q452*%
X79012500Y-139737500D03*
X77112500Y-139737500D03*
X78062500Y-141612500D03*
%TD*%
%TO.C,Q409*%
X73573718Y-118062500D03*
X71673718Y-118062500D03*
X72623718Y-119937500D03*
%TD*%
D14*
%TO.C,R594*%
X255900000Y-142500000D03*
X255900000Y-143500000D03*
%TD*%
D10*
%TO.C,Q1061*%
X330562500Y-207250000D03*
X330562500Y-209150000D03*
X332437500Y-208200000D03*
%TD*%
D17*
%TO.C,Q90*%
X137150000Y-144162500D03*
X135250000Y-144162500D03*
X136200000Y-146037500D03*
%TD*%
D15*
%TO.C,R153*%
X151176000Y-65711500D03*
X151176000Y-64711500D03*
%TD*%
D18*
%TO.C,D76*%
X101010000Y-99700000D03*
X102590000Y-99700000D03*
%TD*%
D21*
%TO.C,C22*%
X345950000Y-114712500D03*
X345950000Y-116612500D03*
%TD*%
D17*
%TO.C,Q277*%
X122950000Y-95562500D03*
X121050000Y-95562500D03*
X122000000Y-97437500D03*
%TD*%
D14*
%TO.C,R523*%
X71900000Y-99400000D03*
X71900000Y-100400000D03*
%TD*%
D10*
%TO.C,Q591*%
X72325000Y-155525000D03*
X72325000Y-157425000D03*
X74200000Y-156475000D03*
%TD*%
%TO.C,Q675*%
X281212500Y-71912500D03*
X281212500Y-73812500D03*
X283087500Y-72862500D03*
%TD*%
D12*
%TO.C,Q327*%
X189826000Y-62949000D03*
X191726000Y-62949000D03*
X190776000Y-61074000D03*
%TD*%
D15*
%TO.C,R200*%
X144600000Y-93600000D03*
X144600000Y-92600000D03*
%TD*%
D13*
%TO.C,R49*%
X177600000Y-149400000D03*
X176600000Y-149400000D03*
%TD*%
D12*
%TO.C,Q993*%
X327850000Y-215137500D03*
X329750000Y-215137500D03*
X328800000Y-213262500D03*
%TD*%
D15*
%TO.C,R304*%
X144075000Y-109750000D03*
X144075000Y-108750000D03*
%TD*%
D10*
%TO.C,Q1199*%
X343162500Y-130550000D03*
X343162500Y-132450000D03*
X345037500Y-131500000D03*
%TD*%
%TO.C,Q1218*%
X347362500Y-182250000D03*
X347362500Y-184150000D03*
X349237500Y-183200000D03*
%TD*%
D13*
%TO.C,R705*%
X293700000Y-200300000D03*
X292700000Y-200300000D03*
%TD*%
D14*
%TO.C,R553*%
X176600000Y-155600000D03*
X176600000Y-156600000D03*
%TD*%
D12*
%TO.C,Q67*%
X199750000Y-192837500D03*
X201650000Y-192837500D03*
X200700000Y-190962500D03*
%TD*%
D25*
%TO.C,J11*%
X29340000Y-34800000D03*
D26*
X26800000Y-34800000D03*
X29340000Y-37340000D03*
X26800000Y-37340000D03*
X29340000Y-39880000D03*
X26800000Y-39880000D03*
X29340000Y-42420000D03*
X26800000Y-42420000D03*
X29340000Y-44960000D03*
X26800000Y-44960000D03*
X29340000Y-47500000D03*
X26800000Y-47500000D03*
X29340000Y-50040000D03*
X26800000Y-50040000D03*
X29340000Y-52580000D03*
X26800000Y-52580000D03*
%TD*%
D10*
%TO.C,Q762*%
X349512500Y-60512500D03*
X349512500Y-62412500D03*
X351387500Y-61462500D03*
%TD*%
D15*
%TO.C,R63*%
X94500000Y-172400000D03*
X94500000Y-171400000D03*
%TD*%
D14*
%TO.C,R497*%
X175900000Y-99400000D03*
X175900000Y-100400000D03*
%TD*%
D10*
%TO.C,Q787*%
X377112500Y-64312500D03*
X377112500Y-66212500D03*
X378987500Y-65262500D03*
%TD*%
D14*
%TO.C,R458*%
X192600000Y-129400000D03*
X192600000Y-130400000D03*
%TD*%
D17*
%TO.C,Q560*%
X207850000Y-61062500D03*
X205950000Y-61062500D03*
X206900000Y-62937500D03*
%TD*%
D12*
%TO.C,Q482*%
X145387500Y-114737500D03*
X147287500Y-114737500D03*
X146337500Y-112862500D03*
%TD*%
D15*
%TO.C,R94*%
X158500000Y-172400000D03*
X158500000Y-171400000D03*
%TD*%
D10*
%TO.C,Q1144*%
X322162500Y-158250000D03*
X322162500Y-160150000D03*
X324037500Y-159200000D03*
%TD*%
D14*
%TO.C,R725*%
X268600000Y-157300000D03*
X268600000Y-158300000D03*
%TD*%
D17*
%TO.C,Q446*%
X55012500Y-139737500D03*
X53112500Y-139737500D03*
X54062500Y-141612500D03*
%TD*%
D10*
%TO.C,Q611*%
X45225000Y-144525000D03*
X45225000Y-146425000D03*
X47100000Y-145475000D03*
%TD*%
D12*
%TO.C,Q1006*%
X335450000Y-215137500D03*
X337350000Y-215137500D03*
X336400000Y-213262500D03*
%TD*%
D24*
%TO.C,D4*%
X82100000Y-173090000D03*
X82100000Y-171510000D03*
%TD*%
D16*
%TO.C,Q167*%
X196213500Y-50361500D03*
X196213500Y-48461500D03*
X194338500Y-49411500D03*
%TD*%
D13*
%TO.C,R547*%
X346450000Y-33062500D03*
X345450000Y-33062500D03*
%TD*%
D15*
%TO.C,R167*%
X151400000Y-93600000D03*
X151400000Y-92600000D03*
%TD*%
D13*
%TO.C,R633*%
X284700000Y-167300000D03*
X283700000Y-167300000D03*
%TD*%
D17*
%TO.C,Q465*%
X183050000Y-105062500D03*
X181150000Y-105062500D03*
X182100000Y-106937500D03*
%TD*%
D15*
%TO.C,R260*%
X98576000Y-65711500D03*
X98576000Y-64711500D03*
%TD*%
D25*
%TO.C,J27*%
X375100000Y-208000000D03*
D26*
X377640000Y-208000000D03*
%TD*%
D11*
%TO.C,R327*%
X198900000Y-38000000D03*
X199900000Y-38000000D03*
%TD*%
D10*
%TO.C,Q467*%
X171137500Y-104500000D03*
X171137500Y-106400000D03*
X173012500Y-105450000D03*
%TD*%
D16*
%TO.C,Q361*%
X77913500Y-58661500D03*
X77913500Y-56761500D03*
X76038500Y-57711500D03*
%TD*%
D10*
%TO.C,Q682*%
X285512500Y-75712500D03*
X285512500Y-77612500D03*
X287387500Y-76662500D03*
%TD*%
D15*
%TO.C,R248*%
X71576000Y-65711500D03*
X71576000Y-64711500D03*
%TD*%
D11*
%TO.C,R729*%
X294800000Y-211300000D03*
X295800000Y-211300000D03*
%TD*%
D24*
%TO.C,D40*%
X52200000Y-81090000D03*
X52200000Y-79510000D03*
%TD*%
D10*
%TO.C,Q1143*%
X322162500Y-154550000D03*
X322162500Y-156450000D03*
X324037500Y-155500000D03*
%TD*%
D15*
%TO.C,R113*%
X187600000Y-193500000D03*
X187600000Y-192500000D03*
%TD*%
D12*
%TO.C,Q547*%
X209950000Y-44937500D03*
X211850000Y-44937500D03*
X210900000Y-43062500D03*
%TD*%
D17*
%TO.C,Q984*%
X279750000Y-163762500D03*
X277850000Y-163762500D03*
X278800000Y-165637500D03*
%TD*%
D15*
%TO.C,R470*%
X47100000Y-194800000D03*
X47100000Y-193800000D03*
%TD*%
D16*
%TO.C,Q305*%
X182713500Y-58661500D03*
X182713500Y-56761500D03*
X180838500Y-57711500D03*
%TD*%
D22*
%TO.C,C10*%
X164450000Y-135050000D03*
X164450000Y-133150000D03*
%TD*%
D14*
%TO.C,R508*%
X136900000Y-99400000D03*
X136900000Y-100400000D03*
%TD*%
D10*
%TO.C,Q720*%
X338812500Y-107412500D03*
X338812500Y-109312500D03*
X340687500Y-108362500D03*
%TD*%
D12*
%TO.C,Q1001*%
X295150000Y-165637500D03*
X297050000Y-165637500D03*
X296100000Y-163762500D03*
%TD*%
%TO.C,Q940*%
X298850000Y-148837500D03*
X300750000Y-148837500D03*
X299800000Y-146962500D03*
%TD*%
D15*
%TO.C,R150*%
X144876000Y-65711500D03*
X144876000Y-64711500D03*
%TD*%
D19*
%TO.C,D60*%
X40190000Y-192500000D03*
X38610000Y-192500000D03*
%TD*%
D10*
%TO.C,Q576*%
X195962500Y-128450000D03*
X195962500Y-130350000D03*
X197837500Y-129400000D03*
%TD*%
D11*
%TO.C,R545*%
X331450000Y-33062500D03*
X332450000Y-33062500D03*
%TD*%
D12*
%TO.C,Q1048*%
X284050000Y-187637500D03*
X285950000Y-187637500D03*
X285000000Y-185762500D03*
%TD*%
D17*
%TO.C,Q267*%
X74950000Y-89562500D03*
X73050000Y-89562500D03*
X74000000Y-91437500D03*
%TD*%
D16*
%TO.C,Q742*%
X328387500Y-73812500D03*
X328387500Y-71912500D03*
X326512500Y-72862500D03*
%TD*%
D10*
%TO.C,Q902*%
X264962500Y-194350000D03*
X264962500Y-196250000D03*
X266837500Y-195300000D03*
%TD*%
D15*
%TO.C,R289*%
X81800000Y-145000000D03*
X81800000Y-144000000D03*
%TD*%
%TO.C,R4*%
X40600000Y-199200000D03*
X40600000Y-198200000D03*
%TD*%
D17*
%TO.C,Q251*%
X70950000Y-89562500D03*
X69050000Y-89562500D03*
X70000000Y-91437500D03*
%TD*%
D13*
%TO.C,R129*%
X189700000Y-168600000D03*
X188700000Y-168600000D03*
%TD*%
D15*
%TO.C,R38*%
X190400000Y-193500000D03*
X190400000Y-192500000D03*
%TD*%
D16*
%TO.C,Q166*%
X191713500Y-46461500D03*
X191713500Y-44561500D03*
X189838500Y-45511500D03*
%TD*%
D12*
%TO.C,Q323*%
X171826000Y-62949000D03*
X173726000Y-62949000D03*
X172776000Y-61074000D03*
%TD*%
D27*
%TO.C,R20*%
X36790000Y-87000000D03*
X44410000Y-87000000D03*
%TD*%
D17*
%TO.C,Q263*%
X106950000Y-89562500D03*
X105050000Y-89562500D03*
X106000000Y-91437500D03*
%TD*%
D11*
%TO.C,R184*%
X145900000Y-93600000D03*
X146900000Y-93600000D03*
%TD*%
D10*
%TO.C,Q11*%
X67162500Y-195350000D03*
X67162500Y-197250000D03*
X69037500Y-196300000D03*
%TD*%
D19*
%TO.C,D64*%
X40190000Y-210100000D03*
X38610000Y-210100000D03*
%TD*%
D16*
%TO.C,Q663*%
X264387500Y-85212500D03*
X264387500Y-83312500D03*
X262512500Y-84262500D03*
%TD*%
D15*
%TO.C,R207*%
X88600000Y-93600000D03*
X88600000Y-92600000D03*
%TD*%
D12*
%TO.C,Q325*%
X180826000Y-62949000D03*
X182726000Y-62949000D03*
X181776000Y-61074000D03*
%TD*%
D16*
%TO.C,Q359*%
X77913500Y-50361500D03*
X77913500Y-48461500D03*
X76038500Y-49411500D03*
%TD*%
%TO.C,Q997*%
X368737500Y-138850000D03*
X368737500Y-136950000D03*
X366862500Y-137900000D03*
%TD*%
D15*
%TO.C,R68*%
X108500000Y-172400000D03*
X108500000Y-171400000D03*
%TD*%
%TO.C,R195*%
X184600000Y-93600000D03*
X184600000Y-92600000D03*
%TD*%
D14*
%TO.C,R607*%
X254900000Y-153600000D03*
X254900000Y-154600000D03*
%TD*%
%TO.C,R666*%
X281300000Y-186200000D03*
X281300000Y-187200000D03*
%TD*%
D16*
%TO.C,Q780*%
X360425000Y-58612500D03*
X360425000Y-56712500D03*
X358550000Y-57662500D03*
%TD*%
D15*
%TO.C,R427*%
X124776000Y-65711500D03*
X124776000Y-64711500D03*
%TD*%
D12*
%TO.C,Q373*%
X85026000Y-62949000D03*
X86926000Y-62949000D03*
X85976000Y-61074000D03*
%TD*%
D15*
%TO.C,R480*%
X38600000Y-186000000D03*
X38600000Y-185000000D03*
%TD*%
D12*
%TO.C,Q559*%
X209950000Y-62937500D03*
X211850000Y-62937500D03*
X210900000Y-61062500D03*
%TD*%
D28*
%TO.C,C43*%
X375450000Y-202000000D03*
X377350000Y-202000000D03*
%TD*%
D15*
%TO.C,R227*%
X173676000Y-65711500D03*
X173676000Y-64711500D03*
%TD*%
D10*
%TO.C,Q474*%
X70325000Y-163525000D03*
X70325000Y-165425000D03*
X72200000Y-164475000D03*
%TD*%
D15*
%TO.C,R370*%
X50100000Y-199200000D03*
X50100000Y-198200000D03*
%TD*%
D13*
%TO.C,R646*%
X293700000Y-167300000D03*
X292700000Y-167300000D03*
%TD*%
%TO.C,R334*%
X200800000Y-125000000D03*
X199800000Y-125000000D03*
%TD*%
D17*
%TO.C,Q436*%
X45173718Y-128562500D03*
X43273718Y-128562500D03*
X44223718Y-130437500D03*
%TD*%
D18*
%TO.C,D71*%
X141010000Y-99700000D03*
X142590000Y-99700000D03*
%TD*%
D12*
%TO.C,Q645*%
X171250000Y-156037500D03*
X173150000Y-156037500D03*
X172200000Y-154162500D03*
%TD*%
D14*
%TO.C,R496*%
X191900000Y-99400000D03*
X191900000Y-100400000D03*
%TD*%
D10*
%TO.C,Q958*%
X250362500Y-157750000D03*
X250362500Y-159650000D03*
X252237500Y-158700000D03*
%TD*%
%TO.C,Q788*%
X377212500Y-60512500D03*
X377212500Y-62412500D03*
X379087500Y-61462500D03*
%TD*%
D15*
%TO.C,R89*%
X143500000Y-172400000D03*
X143500000Y-171400000D03*
%TD*%
D16*
%TO.C,Q743*%
X328387500Y-70012500D03*
X328387500Y-68112500D03*
X326512500Y-69062500D03*
%TD*%
D10*
%TO.C,Q708*%
X351412500Y-107412500D03*
X351412500Y-109312500D03*
X353287500Y-108362500D03*
%TD*%
D16*
%TO.C,Q781*%
X383387500Y-34612500D03*
X383387500Y-32712500D03*
X381512500Y-33662500D03*
%TD*%
D12*
%TO.C,Q910*%
X287750000Y-137837500D03*
X289650000Y-137837500D03*
X288700000Y-135962500D03*
%TD*%
D17*
%TO.C,Q217*%
X86950000Y-85062500D03*
X85050000Y-85062500D03*
X86000000Y-86937500D03*
%TD*%
D11*
%TO.C,R647*%
X294800000Y-167300000D03*
X295800000Y-167300000D03*
%TD*%
D24*
%TO.C,D5*%
X87100000Y-173090000D03*
X87100000Y-171510000D03*
%TD*%
D16*
%TO.C,Q1114*%
X363837500Y-204250000D03*
X363837500Y-202350000D03*
X361962500Y-203300000D03*
%TD*%
%TO.C,Q329*%
X50913500Y-50361500D03*
X50913500Y-48461500D03*
X49038500Y-49411500D03*
%TD*%
D12*
%TO.C,Q326*%
X185326000Y-62949000D03*
X187226000Y-62949000D03*
X186276000Y-61074000D03*
%TD*%
D11*
%TO.C,R713*%
X349000000Y-201600000D03*
X350000000Y-201600000D03*
%TD*%
D10*
%TO.C,Q589*%
X63325000Y-155525000D03*
X63325000Y-157425000D03*
X65200000Y-156475000D03*
%TD*%
D14*
%TO.C,R339*%
X206500000Y-123800000D03*
X206500000Y-124800000D03*
%TD*%
D16*
%TO.C,Q600*%
X53637500Y-194450000D03*
X53637500Y-192550000D03*
X51762500Y-193500000D03*
%TD*%
D10*
%TO.C,Q1198*%
X338962500Y-194250000D03*
X338962500Y-196150000D03*
X340837500Y-195200000D03*
%TD*%
D17*
%TO.C,*%
X125050000Y-89562500D03*
%TD*%
%TO.C,Q218*%
X78950000Y-85062500D03*
X77050000Y-85062500D03*
X78000000Y-86937500D03*
%TD*%
D15*
%TO.C,R654*%
X363200000Y-147000000D03*
X363200000Y-146000000D03*
%TD*%
D10*
%TO.C,Q713*%
X313212500Y-79512500D03*
X313212500Y-81412500D03*
X315087500Y-80462500D03*
%TD*%
%TO.C,Q1157*%
X326362500Y-166550000D03*
X326362500Y-168450000D03*
X328237500Y-167500000D03*
%TD*%
D15*
%TO.C,R235*%
X191676000Y-65711500D03*
X191676000Y-64711500D03*
%TD*%
D17*
%TO.C,Q211*%
X134950000Y-85062500D03*
X133050000Y-85062500D03*
X134000000Y-86937500D03*
%TD*%
D15*
%TO.C,R176*%
X79400000Y-93600000D03*
X79400000Y-92600000D03*
%TD*%
D22*
%TO.C,C4*%
X196950000Y-110050000D03*
X196950000Y-108150000D03*
%TD*%
D16*
%TO.C,Q306*%
X182713500Y-54761500D03*
X182713500Y-52861500D03*
X180838500Y-53811500D03*
%TD*%
D10*
%TO.C,Q722*%
X317512500Y-79512500D03*
X317512500Y-81412500D03*
X319387500Y-80462500D03*
%TD*%
D12*
%TO.C,Q632*%
X171250000Y-146037500D03*
X173150000Y-146037500D03*
X172200000Y-144162500D03*
%TD*%
D17*
%TO.C,Q231*%
X106950000Y-85062500D03*
X105050000Y-85062500D03*
X106000000Y-86937500D03*
%TD*%
D16*
%TO.C,Q380*%
X95913500Y-46461500D03*
X95913500Y-44561500D03*
X94038500Y-45511500D03*
%TD*%
D15*
%TO.C,R316*%
X63762500Y-149975000D03*
X63762500Y-148975000D03*
%TD*%
D28*
%TO.C,C18*%
X36650000Y-69850000D03*
X38550000Y-69850000D03*
%TD*%
D13*
%TO.C,R755*%
X331100000Y-201600000D03*
X330100000Y-201600000D03*
%TD*%
D10*
%TO.C,Q65*%
X182162500Y-191350000D03*
X182162500Y-193250000D03*
X184037500Y-192300000D03*
%TD*%
%TO.C,Q1196*%
X338962500Y-182250000D03*
X338962500Y-184150000D03*
X340837500Y-183200000D03*
%TD*%
D12*
%TO.C,Q981*%
X279650000Y-168837500D03*
X281550000Y-168837500D03*
X280600000Y-166962500D03*
%TD*%
D14*
%TO.C,R562*%
X269600000Y-201500000D03*
X269600000Y-202500000D03*
%TD*%
%TO.C,R736*%
X365700000Y-195000000D03*
X365700000Y-196000000D03*
%TD*%
D19*
%TO.C,D55*%
X49690000Y-183700000D03*
X48110000Y-183700000D03*
%TD*%
D24*
%TO.C,D127*%
X354200000Y-143990000D03*
X354200000Y-142410000D03*
%TD*%
D10*
%TO.C,Q35*%
X117162500Y-175350000D03*
X117162500Y-177250000D03*
X119037500Y-176300000D03*
%TD*%
D12*
%TO.C,Q318*%
X149426000Y-62949000D03*
X151326000Y-62949000D03*
X150376000Y-61074000D03*
%TD*%
D10*
%TO.C,Q1193*%
X338962500Y-166550000D03*
X338962500Y-168450000D03*
X340837500Y-167500000D03*
%TD*%
D12*
%TO.C,Q72*%
X199750000Y-160837500D03*
X201650000Y-160837500D03*
X200700000Y-158962500D03*
%TD*%
%TO.C,Q915*%
X306250000Y-137837500D03*
X308150000Y-137837500D03*
X307200000Y-135962500D03*
%TD*%
D17*
%TO.C,Q216*%
X94950000Y-85062500D03*
X93050000Y-85062500D03*
X94000000Y-86937500D03*
%TD*%
D14*
%TO.C,R270*%
X75123718Y-118500000D03*
X75123718Y-119500000D03*
%TD*%
D10*
%TO.C,Q903*%
X264962500Y-198150000D03*
X264962500Y-200050000D03*
X266837500Y-199100000D03*
%TD*%
D16*
%TO.C,Q137*%
X128713500Y-46461500D03*
X128713500Y-44561500D03*
X126838500Y-45511500D03*
%TD*%
D12*
%TO.C,Q951*%
X295150000Y-143637500D03*
X297050000Y-143637500D03*
X296100000Y-141762500D03*
%TD*%
D15*
%TO.C,R196*%
X176600000Y-93600000D03*
X176600000Y-92600000D03*
%TD*%
D28*
%TO.C,C42*%
X375450000Y-199600000D03*
X377350000Y-199600000D03*
%TD*%
D10*
%TO.C,Q1453*%
X381512500Y-56712500D03*
X381512500Y-58612500D03*
X383387500Y-57662500D03*
%TD*%
D17*
%TO.C,Q95*%
X157150000Y-144162500D03*
X155250000Y-144162500D03*
X156200000Y-146037500D03*
%TD*%
D15*
%TO.C,R239*%
X50876000Y-65711500D03*
X50876000Y-64711500D03*
%TD*%
D13*
%TO.C,R120*%
X189700000Y-183600000D03*
X188700000Y-183600000D03*
%TD*%
D14*
%TO.C,R711*%
X268600000Y-142500000D03*
X268600000Y-143500000D03*
%TD*%
D17*
%TO.C,Q628*%
X86950000Y-95562500D03*
X85050000Y-95562500D03*
X86000000Y-97437500D03*
%TD*%
D16*
%TO.C,Q773*%
X360387500Y-85212500D03*
X360387500Y-83312500D03*
X358512500Y-84262500D03*
%TD*%
D17*
%TO.C,Q1025*%
X279750000Y-185762500D03*
X277850000Y-185762500D03*
X278800000Y-187637500D03*
%TD*%
D12*
%TO.C,Q1111*%
X352350000Y-159937500D03*
X354250000Y-159937500D03*
X353300000Y-158062500D03*
%TD*%
D14*
%TO.C,R608*%
X276300000Y-142200000D03*
X276300000Y-143200000D03*
%TD*%
D27*
%TO.C,R76*%
X36790000Y-96000000D03*
X44410000Y-96000000D03*
%TD*%
D11*
%TO.C,R284*%
X40523718Y-129400000D03*
X41523718Y-129400000D03*
%TD*%
D17*
%TO.C,Q134*%
X157150000Y-159162500D03*
X155250000Y-159162500D03*
X156200000Y-161037500D03*
%TD*%
D12*
%TO.C,Q640*%
X266500000Y-107300000D03*
X268400000Y-107300000D03*
X267450000Y-105425000D03*
%TD*%
D10*
%TO.C,Q791*%
X381512500Y-79512500D03*
X381512500Y-81412500D03*
X383387500Y-80462500D03*
%TD*%
%TO.C,Q478*%
X166637500Y-104500000D03*
X166637500Y-106400000D03*
X168512500Y-105450000D03*
%TD*%
D15*
%TO.C,R462*%
X48100000Y-212400000D03*
X48100000Y-211400000D03*
%TD*%
D14*
%TO.C,R533*%
X302250000Y-104662500D03*
X302250000Y-105662500D03*
%TD*%
D17*
%TO.C,Q413*%
X69173718Y-118062500D03*
X67273718Y-118062500D03*
X68223718Y-119937500D03*
%TD*%
D10*
%TO.C,Q32*%
X102162500Y-175350000D03*
X102162500Y-177250000D03*
X104037500Y-176300000D03*
%TD*%
%TO.C,Q1197*%
X338962500Y-190550000D03*
X338962500Y-192450000D03*
X340837500Y-191500000D03*
%TD*%
D12*
%TO.C,Q529*%
X222950000Y-53937500D03*
X224850000Y-53937500D03*
X223900000Y-52062500D03*
%TD*%
D14*
%TO.C,R599*%
X255900000Y-149900000D03*
X255900000Y-150900000D03*
%TD*%
D21*
%TO.C,C38*%
X259600000Y-215250000D03*
X259600000Y-217150000D03*
%TD*%
D12*
%TO.C,Q523*%
X222950000Y-44937500D03*
X224850000Y-44937500D03*
X223900000Y-43062500D03*
%TD*%
D11*
%TO.C,R396*%
X365150000Y-115162500D03*
X366150000Y-115162500D03*
%TD*%
D10*
%TO.C,Q30*%
X117162500Y-179350000D03*
X117162500Y-181250000D03*
X119037500Y-180300000D03*
%TD*%
D17*
%TO.C,Q110*%
X129150000Y-159162500D03*
X127250000Y-159162500D03*
X128200000Y-161037500D03*
%TD*%
D10*
%TO.C,Q1171*%
X330562500Y-178550000D03*
X330562500Y-180450000D03*
X332437500Y-179500000D03*
%TD*%
D12*
%TO.C,Q927*%
X306250000Y-132637500D03*
X308150000Y-132637500D03*
X307200000Y-130762500D03*
%TD*%
D14*
%TO.C,R401*%
X268450000Y-102662500D03*
X268450000Y-103662500D03*
%TD*%
D16*
%TO.C,Q597*%
X53637500Y-207650000D03*
X53637500Y-205750000D03*
X51762500Y-206700000D03*
%TD*%
D10*
%TO.C,Q44*%
X127200000Y-183350000D03*
X127200000Y-185250000D03*
X129075000Y-184300000D03*
%TD*%
D14*
%TO.C,R296*%
X174475000Y-108050000D03*
X174475000Y-109050000D03*
%TD*%
D13*
%TO.C,R138*%
X189700000Y-152600000D03*
X188700000Y-152600000D03*
%TD*%
%TO.C,R645*%
X288900000Y-167300000D03*
X287900000Y-167300000D03*
%TD*%
D15*
%TO.C,R463*%
X48100000Y-208000000D03*
X48100000Y-207000000D03*
%TD*%
D25*
%TO.C,J4*%
X56100000Y-35400000D03*
D26*
X58640000Y-35400000D03*
X61180000Y-35400000D03*
X63720000Y-35400000D03*
X66260000Y-35400000D03*
X68800000Y-35400000D03*
X71340000Y-35400000D03*
X73880000Y-35400000D03*
X76420000Y-35400000D03*
X78960000Y-35400000D03*
X81500000Y-35400000D03*
X84040000Y-35400000D03*
X86580000Y-35400000D03*
X89120000Y-35400000D03*
X91660000Y-35400000D03*
X94200000Y-35400000D03*
X96740000Y-35400000D03*
X99280000Y-35400000D03*
X101820000Y-35400000D03*
X104360000Y-35400000D03*
X106900000Y-35400000D03*
%TD*%
D17*
%TO.C,Q250*%
X78950000Y-89562500D03*
X77050000Y-89562500D03*
X78000000Y-91437500D03*
%TD*%
D25*
%TO.C,J19*%
X251550000Y-105587500D03*
D26*
X251550000Y-108127500D03*
%TD*%
D11*
%TO.C,R331*%
X198900000Y-56000000D03*
X199900000Y-56000000D03*
%TD*%
D15*
%TO.C,R115*%
X187600000Y-188500000D03*
X187600000Y-187500000D03*
%TD*%
D12*
%TO.C,Q74*%
X195750000Y-160837500D03*
X197650000Y-160837500D03*
X196700000Y-158962500D03*
%TD*%
D17*
%TO.C,Q119*%
X193850000Y-190962500D03*
X191950000Y-190962500D03*
X192900000Y-192837500D03*
%TD*%
D10*
%TO.C,Q1217*%
X347362500Y-178550000D03*
X347362500Y-180450000D03*
X349237500Y-179500000D03*
%TD*%
D11*
%TO.C,R441*%
X81762500Y-153075000D03*
X82762500Y-153075000D03*
%TD*%
D14*
%TO.C,R511*%
X120900000Y-99400000D03*
X120900000Y-100400000D03*
%TD*%
D10*
%TO.C,Q18*%
X77162500Y-179350000D03*
X77162500Y-181250000D03*
X79037500Y-180300000D03*
%TD*%
%TO.C,Q784*%
X377212500Y-75712500D03*
X377212500Y-77612500D03*
X379087500Y-76662500D03*
%TD*%
D17*
%TO.C,Q189*%
X186950000Y-80562500D03*
X185050000Y-80562500D03*
X186000000Y-82437500D03*
%TD*%
D15*
%TO.C,R474*%
X48100000Y-186000000D03*
X48100000Y-185000000D03*
%TD*%
D17*
%TO.C,Q412*%
X73573718Y-133062500D03*
X71673718Y-133062500D03*
X72623718Y-134937500D03*
%TD*%
D11*
%TO.C,R743*%
X351800000Y-166100000D03*
X352800000Y-166100000D03*
%TD*%
%TO.C,R583*%
X306400000Y-134300000D03*
X307400000Y-134300000D03*
%TD*%
D18*
%TO.C,D94*%
X268910000Y-192400000D03*
X270490000Y-192400000D03*
%TD*%
D10*
%TO.C,Q1200*%
X343162500Y-134250000D03*
X343162500Y-136150000D03*
X345037500Y-135200000D03*
%TD*%
D15*
%TO.C,R665*%
X364300000Y-154600000D03*
X364300000Y-153600000D03*
%TD*%
D16*
%TO.C,Q374*%
X91413500Y-50361500D03*
X91413500Y-48461500D03*
X89538500Y-49411500D03*
%TD*%
D10*
%TO.C,Q1163*%
X330562500Y-130550000D03*
X330562500Y-132450000D03*
X332437500Y-131500000D03*
%TD*%
D15*
%TO.C,R1*%
X40600000Y-212400000D03*
X40600000Y-211400000D03*
%TD*%
D17*
%TO.C,Q247*%
X102950000Y-89562500D03*
X101050000Y-89562500D03*
X102000000Y-91437500D03*
%TD*%
D12*
%TO.C,Q519*%
X222950000Y-35937500D03*
X224850000Y-35937500D03*
X223900000Y-34062500D03*
%TD*%
D17*
%TO.C,Q919*%
X363750000Y-179462500D03*
X361850000Y-179462500D03*
X362800000Y-181337500D03*
%TD*%
D15*
%TO.C,R252*%
X80576000Y-65711500D03*
X80576000Y-64711500D03*
%TD*%
%TO.C,R226*%
X171876000Y-65711500D03*
X171876000Y-64711500D03*
%TD*%
D10*
%TO.C,Q15*%
X67162500Y-179350000D03*
X67162500Y-181250000D03*
X69037500Y-180300000D03*
%TD*%
D24*
%TO.C,D16*%
X127100000Y-173090000D03*
X127100000Y-171510000D03*
%TD*%
D20*
%TO.C,D96*%
X175200000Y-159710000D03*
X175200000Y-161290000D03*
%TD*%
D15*
%TO.C,R55*%
X74500000Y-172400000D03*
X74500000Y-171400000D03*
%TD*%
%TO.C,R127*%
X187600000Y-167500000D03*
X187600000Y-166500000D03*
%TD*%
D17*
%TO.C,Q619*%
X158950000Y-95562500D03*
X157050000Y-95562500D03*
X158000000Y-97437500D03*
%TD*%
D10*
%TO.C,Q1072*%
X334762500Y-207250000D03*
X334762500Y-209150000D03*
X336637500Y-208200000D03*
%TD*%
D17*
%TO.C,Q499*%
X55012500Y-144737500D03*
X53112500Y-144737500D03*
X54062500Y-146612500D03*
%TD*%
D13*
%TO.C,R546*%
X346450000Y-31962500D03*
X345450000Y-31962500D03*
%TD*%
D15*
%TO.C,R57*%
X79500000Y-172400000D03*
X79500000Y-171400000D03*
%TD*%
D21*
%TO.C,C35*%
X355200000Y-114712500D03*
X355200000Y-116612500D03*
%TD*%
D11*
%TO.C,R332*%
X198900000Y-60500000D03*
X199900000Y-60500000D03*
%TD*%
D12*
%TO.C,Q403*%
X112026000Y-62949000D03*
X113926000Y-62949000D03*
X112976000Y-61074000D03*
%TD*%
D18*
%TO.C,D74*%
X117010000Y-99700000D03*
X118590000Y-99700000D03*
%TD*%
D10*
%TO.C,Q26*%
X97162500Y-183350000D03*
X97162500Y-185250000D03*
X99037500Y-184300000D03*
%TD*%
%TO.C,Q593*%
X81325000Y-155525000D03*
X81325000Y-157425000D03*
X83200000Y-156475000D03*
%TD*%
D16*
%TO.C,Q746*%
X328387500Y-58612500D03*
X328387500Y-56712500D03*
X326512500Y-57662500D03*
%TD*%
D19*
%TO.C,D111*%
X364790000Y-129400000D03*
X363210000Y-129400000D03*
%TD*%
D25*
%TO.C,J28*%
X265800000Y-215000000D03*
D26*
X265800000Y-217540000D03*
%TD*%
D13*
%TO.C,R704*%
X288900000Y-200300000D03*
X287900000Y-200300000D03*
%TD*%
D15*
%TO.C,R364*%
X49100000Y-212400000D03*
X49100000Y-211400000D03*
%TD*%
D10*
%TO.C,Q1132*%
X317962500Y-158250000D03*
X317962500Y-160150000D03*
X319837500Y-159200000D03*
%TD*%
D12*
%TO.C,Q921*%
X284050000Y-132637500D03*
X285950000Y-132637500D03*
X285000000Y-130762500D03*
%TD*%
D11*
%TO.C,R343*%
X204700000Y-135200000D03*
X205700000Y-135200000D03*
%TD*%
D14*
%TO.C,R732*%
X269600000Y-161000000D03*
X269600000Y-162000000D03*
%TD*%
D12*
%TO.C,Q80*%
X203750000Y-181837500D03*
X205650000Y-181837500D03*
X204700000Y-179962500D03*
%TD*%
D17*
%TO.C,Q178*%
X142950000Y-80562500D03*
X141050000Y-80562500D03*
X142000000Y-82437500D03*
%TD*%
D15*
%TO.C,R357*%
X39600000Y-208000000D03*
X39600000Y-207000000D03*
%TD*%
D12*
%TO.C,Q363*%
X76026000Y-62949000D03*
X77926000Y-62949000D03*
X76976000Y-61074000D03*
%TD*%
D15*
%TO.C,R8*%
X40600000Y-181600000D03*
X40600000Y-180600000D03*
%TD*%
D17*
%TO.C,Q224*%
X162950000Y-85062500D03*
X161050000Y-85062500D03*
X162000000Y-86937500D03*
%TD*%
D15*
%TO.C,R434*%
X45376000Y-65611500D03*
X45376000Y-64611500D03*
%TD*%
%TO.C,R246*%
X67076000Y-65711500D03*
X67076000Y-64711500D03*
%TD*%
D16*
%TO.C,Q461*%
X161275000Y-118850000D03*
X161275000Y-116950000D03*
X159400000Y-117900000D03*
%TD*%
D10*
%TO.C,Q1185*%
X334762500Y-190550000D03*
X334762500Y-192450000D03*
X336637500Y-191500000D03*
%TD*%
D11*
%TO.C,R432*%
X45162500Y-149175000D03*
X46162500Y-149175000D03*
%TD*%
D17*
%TO.C,Q443*%
X43012500Y-139737500D03*
X41112500Y-139737500D03*
X42062500Y-141612500D03*
%TD*%
D16*
%TO.C,Q308*%
X187213500Y-54761500D03*
X187213500Y-52861500D03*
X185338500Y-53811500D03*
%TD*%
D17*
%TO.C,Q521*%
X220850000Y-38562500D03*
X218950000Y-38562500D03*
X219900000Y-40437500D03*
%TD*%
D16*
%TO.C,Q400*%
X113913500Y-46461500D03*
X113913500Y-44561500D03*
X112038500Y-45511500D03*
%TD*%
%TO.C,Q300*%
X169213500Y-54761500D03*
X169213500Y-52861500D03*
X167338500Y-53811500D03*
%TD*%
D14*
%TO.C,R516*%
X103900000Y-99400000D03*
X103900000Y-100400000D03*
%TD*%
D17*
%TO.C,Q275*%
X138950000Y-95562500D03*
X137050000Y-95562500D03*
X138000000Y-97437500D03*
%TD*%
%TO.C,*%
X173050000Y-89562500D03*
%TD*%
D15*
%TO.C,R102*%
X178500000Y-172400000D03*
X178500000Y-171400000D03*
%TD*%
D10*
%TO.C,Q933*%
X250362500Y-139250000D03*
X250362500Y-141150000D03*
X252237500Y-140200000D03*
%TD*%
%TO.C,Q29*%
X107162500Y-179350000D03*
X107162500Y-181250000D03*
X109037500Y-180300000D03*
%TD*%
D12*
%TO.C,Q1117*%
X352350000Y-183937500D03*
X354250000Y-183937500D03*
X353300000Y-182062500D03*
%TD*%
D14*
%TO.C,R527*%
X177600000Y-145600000D03*
X177600000Y-146600000D03*
%TD*%
D15*
%TO.C,R164*%
X175400000Y-93600000D03*
X175400000Y-92600000D03*
%TD*%
D25*
%TO.C,J10*%
X29340000Y-68900000D03*
D26*
X26800000Y-68900000D03*
X29340000Y-71440000D03*
X26800000Y-71440000D03*
X29340000Y-73980000D03*
X26800000Y-73980000D03*
X29340000Y-76520000D03*
X26800000Y-76520000D03*
X29340000Y-79060000D03*
X26800000Y-79060000D03*
X29340000Y-81600000D03*
X26800000Y-81600000D03*
X29340000Y-84140000D03*
X26800000Y-84140000D03*
X29340000Y-86680000D03*
X26800000Y-86680000D03*
%TD*%
D16*
%TO.C,Q401*%
X113913500Y-58661500D03*
X113913500Y-56761500D03*
X112038500Y-57711500D03*
%TD*%
D12*
%TO.C,Q1081*%
X302550000Y-198637500D03*
X304450000Y-198637500D03*
X303500000Y-196762500D03*
%TD*%
%TO.C,Q925*%
X298850000Y-132637500D03*
X300750000Y-132637500D03*
X299800000Y-130762500D03*
%TD*%
D24*
%TO.C,D25*%
X172100000Y-173090000D03*
X172100000Y-171510000D03*
%TD*%
D15*
%TO.C,R244*%
X62576000Y-65711500D03*
X62576000Y-64711500D03*
%TD*%
D10*
%TO.C,Q1124*%
X362062500Y-190150000D03*
X362062500Y-192050000D03*
X363937500Y-191100000D03*
%TD*%
D17*
%TO.C,Q206*%
X174950000Y-85062500D03*
X173050000Y-85062500D03*
X174000000Y-86937500D03*
%TD*%
D11*
%TO.C,R721*%
X309600000Y-211300000D03*
X310600000Y-211300000D03*
%TD*%
D10*
%TO.C,Q759*%
X349512500Y-71912500D03*
X349512500Y-73812500D03*
X351387500Y-72862500D03*
%TD*%
D15*
%TO.C,R144*%
X131376000Y-65711500D03*
X131376000Y-64711500D03*
%TD*%
D16*
%TO.C,Q774*%
X360387500Y-81412500D03*
X360387500Y-79512500D03*
X358512500Y-80462500D03*
%TD*%
D11*
%TO.C,R590*%
X290000000Y-145300000D03*
X291000000Y-145300000D03*
%TD*%
D16*
%TO.C,Q476*%
X151775000Y-118850000D03*
X151775000Y-116950000D03*
X149900000Y-117900000D03*
%TD*%
D14*
%TO.C,R213*%
X169900000Y-99400000D03*
X169900000Y-100400000D03*
%TD*%
D15*
%TO.C,R209*%
X72600000Y-93600000D03*
X72600000Y-92600000D03*
%TD*%
D17*
%TO.C,Q527*%
X220850000Y-47562500D03*
X218950000Y-47562500D03*
X219900000Y-49437500D03*
%TD*%
D16*
%TO.C,Q335*%
X55413500Y-46461500D03*
X55413500Y-44561500D03*
X53538500Y-45511500D03*
%TD*%
%TO.C,Q396*%
X109413500Y-58661500D03*
X109413500Y-56761500D03*
X107538500Y-57711500D03*
%TD*%
D25*
%TO.C,J1*%
X30000000Y-194600000D03*
D26*
X30000000Y-192060000D03*
X30000000Y-189520000D03*
X30000000Y-186980000D03*
X30000000Y-184440000D03*
X30000000Y-181900000D03*
X30000000Y-179360000D03*
X30000000Y-176820000D03*
X30000000Y-174280000D03*
X30000000Y-171740000D03*
X30000000Y-169200000D03*
X30000000Y-166660000D03*
X30000000Y-164120000D03*
X30000000Y-161580000D03*
X30000000Y-159040000D03*
X30000000Y-156500000D03*
X30000000Y-153960000D03*
X30000000Y-151420000D03*
X30000000Y-148880000D03*
X30000000Y-146340000D03*
X30000000Y-143800000D03*
%TD*%
D17*
%TO.C,Q440*%
X50173718Y-133062500D03*
X48273718Y-133062500D03*
X49223718Y-134937500D03*
%TD*%
D15*
%TO.C,R368*%
X50100000Y-203600000D03*
X50100000Y-202600000D03*
%TD*%
D16*
%TO.C,Q151*%
X160213500Y-50361500D03*
X160213500Y-48461500D03*
X158338500Y-49411500D03*
%TD*%
D11*
%TO.C,R671*%
X300600000Y-178300000D03*
X301600000Y-178300000D03*
%TD*%
D14*
%TO.C,R681*%
X276300000Y-208200000D03*
X276300000Y-209200000D03*
%TD*%
D15*
%TO.C,R238*%
X49076000Y-65711500D03*
X49076000Y-64711500D03*
%TD*%
D16*
%TO.C,Q458*%
X142775000Y-118850000D03*
X142775000Y-116950000D03*
X140900000Y-117900000D03*
%TD*%
D11*
%TO.C,R193*%
X73900000Y-93600000D03*
X74900000Y-93600000D03*
%TD*%
D14*
%TO.C,R598*%
X255900000Y-146200000D03*
X255900000Y-147200000D03*
%TD*%
D18*
%TO.C,D68*%
X165010000Y-99700000D03*
X166590000Y-99700000D03*
%TD*%
D12*
%TO.C,Q646*%
X171250000Y-161037500D03*
X173150000Y-161037500D03*
X172200000Y-159162500D03*
%TD*%
D16*
%TO.C,Q362*%
X77913500Y-54761500D03*
X77913500Y-52861500D03*
X76038500Y-53811500D03*
%TD*%
D12*
%TO.C,Q507*%
X51112500Y-150412500D03*
X53012500Y-150412500D03*
X52062500Y-148537500D03*
%TD*%
D10*
%TO.C,Q1123*%
X362062500Y-186450000D03*
X362062500Y-188350000D03*
X363937500Y-187400000D03*
%TD*%
%TO.C,Q654*%
X262512500Y-32712500D03*
X262512500Y-34612500D03*
X264387500Y-33662500D03*
%TD*%
%TO.C,Q959*%
X250362500Y-161450000D03*
X250362500Y-163350000D03*
X252237500Y-162400000D03*
%TD*%
D14*
%TO.C,R221*%
X105900000Y-99400000D03*
X105900000Y-100400000D03*
%TD*%
D16*
%TO.C,Q670*%
X264387500Y-58612500D03*
X264387500Y-56712500D03*
X262512500Y-57662500D03*
%TD*%
D15*
%TO.C,R82*%
X128500000Y-172400000D03*
X128500000Y-171400000D03*
%TD*%
D14*
%TO.C,R495*%
X192900000Y-99400000D03*
X192900000Y-100400000D03*
%TD*%
D17*
%TO.C,Q539*%
X220850000Y-65562500D03*
X218950000Y-65562500D03*
X219900000Y-67437500D03*
%TD*%
D13*
%TO.C,R345*%
X203700000Y-135200000D03*
X202700000Y-135200000D03*
%TD*%
D12*
%TO.C,Q916*%
X309950000Y-137837500D03*
X311850000Y-137837500D03*
X310900000Y-135962500D03*
%TD*%
D17*
%TO.C,Q172*%
X190950000Y-80562500D03*
X189050000Y-80562500D03*
X190000000Y-82437500D03*
%TD*%
D14*
%TO.C,R106*%
X187600000Y-200400000D03*
X187600000Y-201400000D03*
%TD*%
D11*
%TO.C,R604*%
X300600000Y-145300000D03*
X301600000Y-145300000D03*
%TD*%
D14*
%TO.C,R218*%
X129900000Y-99400000D03*
X129900000Y-100400000D03*
%TD*%
D13*
%TO.C,R300*%
X62662500Y-161975000D03*
X61662500Y-161975000D03*
%TD*%
D22*
%TO.C,C25*%
X334150000Y-27312500D03*
X334150000Y-25412500D03*
%TD*%
D11*
%TO.C,R186*%
X129900000Y-93600000D03*
X130900000Y-93600000D03*
%TD*%
D13*
%TO.C,R579*%
X288900000Y-134300000D03*
X287900000Y-134300000D03*
%TD*%
D10*
%TO.C,Q1161*%
X326362500Y-190550000D03*
X326362500Y-192450000D03*
X328237500Y-191500000D03*
%TD*%
D17*
%TO.C,Q422*%
X63173718Y-119562500D03*
X61273718Y-119562500D03*
X62223718Y-121437500D03*
%TD*%
D12*
%TO.C,Q315*%
X135826000Y-62949000D03*
X137726000Y-62949000D03*
X136776000Y-61074000D03*
%TD*%
D14*
%TO.C,R277*%
X65723718Y-133500000D03*
X65723718Y-134500000D03*
%TD*%
D19*
%TO.C,D53*%
X49690000Y-192500000D03*
X48110000Y-192500000D03*
%TD*%
D10*
%TO.C,Q497*%
X40225000Y-148525000D03*
X40225000Y-150425000D03*
X42100000Y-149475000D03*
%TD*%
%TO.C,Q20*%
X82162500Y-175350000D03*
X82162500Y-177250000D03*
X84037500Y-176300000D03*
%TD*%
D16*
%TO.C,Q331*%
X50913500Y-58661500D03*
X50913500Y-56761500D03*
X49038500Y-57711500D03*
%TD*%
D10*
%TO.C,Q1183*%
X334762500Y-178550000D03*
X334762500Y-180450000D03*
X336637500Y-179500000D03*
%TD*%
D17*
%TO.C,Q626*%
X102950000Y-95562500D03*
X101050000Y-95562500D03*
X102000000Y-97437500D03*
%TD*%
D15*
%TO.C,R91*%
X148500000Y-172400000D03*
X148500000Y-171400000D03*
%TD*%
D17*
%TO.C,Q563*%
X207850000Y-65562500D03*
X205950000Y-65562500D03*
X206900000Y-67437500D03*
%TD*%
D15*
%TO.C,R3*%
X40600000Y-203600000D03*
X40600000Y-202600000D03*
%TD*%
D10*
%TO.C,Q1125*%
X366462500Y-202350000D03*
X366462500Y-204250000D03*
X368337500Y-203300000D03*
%TD*%
D15*
%TO.C,R44*%
X190400000Y-182500000D03*
X190400000Y-181500000D03*
%TD*%
D14*
%TO.C,R535*%
X309850000Y-104662500D03*
X309850000Y-105662500D03*
%TD*%
D10*
%TO.C,Q512*%
X44825000Y-154525000D03*
X44825000Y-156425000D03*
X46700000Y-155475000D03*
%TD*%
D15*
%TO.C,R372*%
X50100000Y-190400000D03*
X50100000Y-189400000D03*
%TD*%
D25*
%TO.C,J16*%
X380990000Y-93820000D03*
D26*
X378450000Y-93820000D03*
X380990000Y-96360000D03*
X378450000Y-96360000D03*
X380990000Y-98900000D03*
X378450000Y-98900000D03*
X380990000Y-101440000D03*
X378450000Y-101440000D03*
X380990000Y-103980000D03*
X378450000Y-103980000D03*
X380990000Y-106520000D03*
X378450000Y-106520000D03*
X380990000Y-109060000D03*
X378450000Y-109060000D03*
X380990000Y-111600000D03*
X378450000Y-111600000D03*
%TD*%
D17*
%TO.C,Q229*%
X122950000Y-85062500D03*
X121050000Y-85062500D03*
X122000000Y-86937500D03*
%TD*%
D10*
%TO.C,Q1122*%
X366462500Y-206150000D03*
X366462500Y-208050000D03*
X368337500Y-207100000D03*
%TD*%
D15*
%TO.C,R566*%
X369500000Y-174300000D03*
X369500000Y-173300000D03*
%TD*%
%TO.C,R643*%
X364300000Y-139400000D03*
X364300000Y-138400000D03*
%TD*%
%TO.C,R297*%
X166075000Y-109750000D03*
X166075000Y-108750000D03*
%TD*%
D17*
%TO.C,Q610*%
X75412500Y-144537500D03*
X73512500Y-144537500D03*
X74462500Y-146412500D03*
%TD*%
%TO.C,Q268*%
X194950000Y-95562500D03*
X193050000Y-95562500D03*
X194000000Y-97437500D03*
%TD*%
D15*
%TO.C,R134*%
X187600000Y-156500000D03*
X187600000Y-155500000D03*
%TD*%
D13*
%TO.C,R659*%
X299500000Y-178300000D03*
X298500000Y-178300000D03*
%TD*%
D15*
%TO.C,R360*%
X39600000Y-190400000D03*
X39600000Y-189400000D03*
%TD*%
D14*
%TO.C,R532*%
X298450000Y-104662500D03*
X298450000Y-105662500D03*
%TD*%
D15*
%TO.C,R491*%
X37600000Y-212400000D03*
X37600000Y-211400000D03*
%TD*%
D11*
%TO.C,R746*%
X351800000Y-178100000D03*
X352800000Y-178100000D03*
%TD*%
D15*
%TO.C,R66*%
X103500000Y-172400000D03*
X103500000Y-171400000D03*
%TD*%
D11*
%TO.C,R451*%
X122476000Y-50311500D03*
X123476000Y-50311500D03*
%TD*%
D16*
%TO.C,Q454*%
X128775000Y-118850000D03*
X128775000Y-116950000D03*
X126900000Y-117900000D03*
%TD*%
D15*
%TO.C,R465*%
X47100000Y-203600000D03*
X47100000Y-202600000D03*
%TD*%
D10*
%TO.C,Q1165*%
X330562500Y-142550000D03*
X330562500Y-144450000D03*
X332437500Y-143500000D03*
%TD*%
D13*
%TO.C,R759*%
X347900000Y-201600000D03*
X346900000Y-201600000D03*
%TD*%
D16*
%TO.C,Q777*%
X360387500Y-70012500D03*
X360387500Y-68112500D03*
X358512500Y-69062500D03*
%TD*%
%TO.C,Q701*%
X296387500Y-81412500D03*
X296387500Y-79512500D03*
X294512500Y-80462500D03*
%TD*%
D13*
%TO.C,R669*%
X293700000Y-178300000D03*
X292700000Y-178300000D03*
%TD*%
D14*
%TO.C,R276*%
X65723718Y-128500000D03*
X65723718Y-129500000D03*
%TD*%
D10*
%TO.C,Q1190*%
X338962500Y-146250000D03*
X338962500Y-148150000D03*
X340837500Y-147200000D03*
%TD*%
D14*
%TO.C,R214*%
X161900000Y-99400000D03*
X161900000Y-100400000D03*
%TD*%
D17*
%TO.C,Q424*%
X54173718Y-119562500D03*
X52273718Y-119562500D03*
X53223718Y-121437500D03*
%TD*%
D13*
%TO.C,R13*%
X89500000Y-173400000D03*
X88500000Y-173400000D03*
%TD*%
D12*
%TO.C,Q950*%
X291450000Y-143637500D03*
X293350000Y-143637500D03*
X292400000Y-141762500D03*
%TD*%
D18*
%TO.C,D107*%
X254310000Y-155900000D03*
X255890000Y-155900000D03*
%TD*%
D12*
%TO.C,Q1043*%
X309950000Y-192837500D03*
X311850000Y-192837500D03*
X310900000Y-190962500D03*
%TD*%
D18*
%TO.C,D89*%
X266560000Y-34662500D03*
X268140000Y-34662500D03*
%TD*%
D11*
%TO.C,R658*%
X290000000Y-178300000D03*
X291000000Y-178300000D03*
%TD*%
D15*
%TO.C,R166*%
X159400000Y-93600000D03*
X159400000Y-92600000D03*
%TD*%
%TO.C,R47*%
X190400000Y-167500000D03*
X190400000Y-166500000D03*
%TD*%
D17*
%TO.C,Q103*%
X137150000Y-149162500D03*
X135250000Y-149162500D03*
X136200000Y-151037500D03*
%TD*%
D16*
%TO.C,Q768*%
X364687500Y-73812500D03*
X364687500Y-71912500D03*
X362812500Y-72862500D03*
%TD*%
D25*
%TO.C,J18*%
X317975000Y-26462500D03*
D26*
X320515000Y-26462500D03*
%TD*%
D10*
%TO.C,Q1086*%
X264062500Y-146650000D03*
X264062500Y-148550000D03*
X265937500Y-147600000D03*
%TD*%
D13*
%TO.C,R592*%
X305300000Y-145300000D03*
X304300000Y-145300000D03*
%TD*%
D14*
%TO.C,R561*%
X270600000Y-197600000D03*
X270600000Y-198600000D03*
%TD*%
%TO.C,R714*%
X268600000Y-146200000D03*
X268600000Y-147200000D03*
%TD*%
D10*
%TO.C,Q1148*%
X322162500Y-182250000D03*
X322162500Y-184150000D03*
X324037500Y-183200000D03*
%TD*%
D16*
%TO.C,Q1112*%
X363837500Y-200450000D03*
X363837500Y-198550000D03*
X361962500Y-199500000D03*
%TD*%
D10*
%TO.C,Q1131*%
X317962500Y-154550000D03*
X317962500Y-156450000D03*
X319837500Y-155500000D03*
%TD*%
D15*
%TO.C,R365*%
X49100000Y-208000000D03*
X49100000Y-207000000D03*
%TD*%
D17*
%TO.C,Q917*%
X367550000Y-175262500D03*
X365650000Y-175262500D03*
X366600000Y-177137500D03*
%TD*%
D11*
%TO.C,R433*%
X45162500Y-150175000D03*
X46162500Y-150175000D03*
%TD*%
D12*
%TO.C,Q926*%
X302550000Y-132637500D03*
X304450000Y-132637500D03*
X303500000Y-130762500D03*
%TD*%
D14*
%TO.C,R619*%
X254900000Y-161000000D03*
X254900000Y-162000000D03*
%TD*%
D27*
%TO.C,R21*%
X65100000Y-87000000D03*
X57480000Y-87000000D03*
%TD*%
D16*
%TO.C,Q346*%
X64413500Y-58661500D03*
X64413500Y-56761500D03*
X62538500Y-57711500D03*
%TD*%
D17*
%TO.C,Q112*%
X145150000Y-154162500D03*
X143250000Y-154162500D03*
X144200000Y-156037500D03*
%TD*%
D10*
%TO.C,Q58*%
X167162500Y-191350000D03*
X167162500Y-193250000D03*
X169037500Y-192300000D03*
%TD*%
D15*
%TO.C,R425*%
X50600000Y-80200000D03*
X50600000Y-79200000D03*
%TD*%
D16*
%TO.C,Q391*%
X104913500Y-58661500D03*
X104913500Y-56761500D03*
X103038500Y-57711500D03*
%TD*%
D14*
%TO.C,R224*%
X81900000Y-99400000D03*
X81900000Y-100400000D03*
%TD*%
D15*
%TO.C,R145*%
X133176000Y-65711500D03*
X133176000Y-64711500D03*
%TD*%
D10*
%TO.C,Q710*%
X343012500Y-107412500D03*
X343012500Y-109312500D03*
X344887500Y-108362500D03*
%TD*%
D17*
%TO.C,Q533*%
X220850000Y-56562500D03*
X218950000Y-56562500D03*
X219900000Y-58437500D03*
%TD*%
D15*
%TO.C,R51*%
X68500000Y-172400000D03*
X68500000Y-171400000D03*
%TD*%
D23*
%TO.C,C20*%
X216250000Y-102500000D03*
X223750000Y-102500000D03*
%TD*%
D11*
%TO.C,R282*%
X40523718Y-124900000D03*
X41523718Y-124900000D03*
%TD*%
D17*
%TO.C,Q567*%
X199250000Y-119862500D03*
X197350000Y-119862500D03*
X198300000Y-121737500D03*
%TD*%
D16*
%TO.C,Q298*%
X164713500Y-54761500D03*
X164713500Y-52861500D03*
X162838500Y-53811500D03*
%TD*%
D12*
%TO.C,Q75*%
X195750000Y-155837500D03*
X197650000Y-155837500D03*
X196700000Y-153962500D03*
%TD*%
D13*
%TO.C,R460*%
X203700000Y-134200000D03*
X202700000Y-134200000D03*
%TD*%
%TO.C,R717*%
X284700000Y-211300000D03*
X283700000Y-211300000D03*
%TD*%
D10*
%TO.C,Q46*%
X137162500Y-183350000D03*
X137162500Y-185250000D03*
X139037500Y-184300000D03*
%TD*%
D17*
%TO.C,Q281*%
X90950000Y-95562500D03*
X89050000Y-95562500D03*
X90000000Y-97437500D03*
%TD*%
D14*
%TO.C,R406*%
X295850000Y-104662500D03*
X295850000Y-105662500D03*
%TD*%
D10*
%TO.C,Q583*%
X206962500Y-137450000D03*
X206962500Y-139350000D03*
X208837500Y-138400000D03*
%TD*%
D17*
%TO.C,Q534*%
X216850000Y-56562500D03*
X214950000Y-56562500D03*
X215900000Y-58437500D03*
%TD*%
D13*
%TO.C,R748*%
X366900000Y-215900000D03*
X365900000Y-215900000D03*
%TD*%
D10*
%TO.C,Q587*%
X58825000Y-159425000D03*
X58825000Y-161325000D03*
X60700000Y-160375000D03*
%TD*%
D15*
%TO.C,R482*%
X38600000Y-190400000D03*
X38600000Y-189400000D03*
%TD*%
D14*
%TO.C,R500*%
X167900000Y-99400000D03*
X167900000Y-100400000D03*
%TD*%
%TO.C,R136*%
X187600000Y-148400000D03*
X187600000Y-149400000D03*
%TD*%
D17*
%TO.C,Q449*%
X67012500Y-139737500D03*
X65112500Y-139737500D03*
X66062500Y-141612500D03*
%TD*%
D12*
%TO.C,Q1021*%
X309950000Y-181837500D03*
X311850000Y-181837500D03*
X310900000Y-179962500D03*
%TD*%
D10*
%TO.C,Q1084*%
X343162500Y-203550000D03*
X343162500Y-205450000D03*
X345037500Y-204500000D03*
%TD*%
D14*
%TO.C,R275*%
X65723718Y-123500000D03*
X65723718Y-124500000D03*
%TD*%
D16*
%TO.C,Q357*%
X73413500Y-54761500D03*
X73413500Y-52861500D03*
X71538500Y-53811500D03*
%TD*%
D15*
%TO.C,R146*%
X135876000Y-65711500D03*
X135876000Y-64711500D03*
%TD*%
D13*
%TO.C,R572*%
X284700000Y-134300000D03*
X283700000Y-134300000D03*
%TD*%
D16*
%TO.C,Q740*%
X328387500Y-81412500D03*
X328387500Y-79512500D03*
X326512500Y-80462500D03*
%TD*%
D15*
%TO.C,R171*%
X119400000Y-93600000D03*
X119400000Y-92600000D03*
%TD*%
D24*
%TO.C,D126*%
X354200000Y-131990000D03*
X354200000Y-130410000D03*
%TD*%
D12*
%TO.C,Q979*%
X320250000Y-215137500D03*
X322150000Y-215137500D03*
X321200000Y-213262500D03*
%TD*%
D10*
%TO.C,Q590*%
X54325000Y-155525000D03*
X54325000Y-157425000D03*
X56200000Y-156475000D03*
%TD*%
D17*
%TO.C,*%
X109050000Y-89562500D03*
%TD*%
D16*
%TO.C,Q695*%
X300687500Y-70012500D03*
X300687500Y-68112500D03*
X298812500Y-69062500D03*
%TD*%
D15*
%TO.C,R56*%
X78500000Y-172400000D03*
X78500000Y-171400000D03*
%TD*%
%TO.C,R170*%
X127400000Y-93600000D03*
X127400000Y-92600000D03*
%TD*%
D12*
%TO.C,Q978*%
X275950000Y-168837500D03*
X277850000Y-168837500D03*
X276900000Y-166962500D03*
%TD*%
D13*
%TO.C,R692*%
X284700000Y-200300000D03*
X283700000Y-200300000D03*
%TD*%
D16*
%TO.C,Q354*%
X73413500Y-50361500D03*
X73413500Y-48461500D03*
X71538500Y-49411500D03*
%TD*%
D13*
%TO.C,R440*%
X75262500Y-165975000D03*
X74262500Y-165975000D03*
%TD*%
D19*
%TO.C,D115*%
X364790000Y-144600000D03*
X363210000Y-144600000D03*
%TD*%
D12*
%TO.C,Q953*%
X302550000Y-143637500D03*
X304450000Y-143637500D03*
X303500000Y-141762500D03*
%TD*%
D10*
%TO.C,Q1169*%
X330562500Y-166550000D03*
X330562500Y-168450000D03*
X332437500Y-167500000D03*
%TD*%
D22*
%TO.C,C3*%
X193900000Y-110050000D03*
X193900000Y-108150000D03*
%TD*%
D15*
%TO.C,R630*%
X364300000Y-128000000D03*
X364300000Y-127000000D03*
%TD*%
D13*
%TO.C,R50*%
X177600000Y-154400000D03*
X176600000Y-154400000D03*
%TD*%
D12*
%TO.C,Q320*%
X158326000Y-62949000D03*
X160226000Y-62949000D03*
X159276000Y-61074000D03*
%TD*%
D20*
%TO.C,D33*%
X189000000Y-175610000D03*
X189000000Y-177190000D03*
%TD*%
D14*
%TO.C,R139*%
X187600000Y-143400000D03*
X187600000Y-144400000D03*
%TD*%
D10*
%TO.C,Q52*%
X152162500Y-183350000D03*
X152162500Y-185250000D03*
X154037500Y-184300000D03*
%TD*%
D12*
%TO.C,Q924*%
X295150000Y-132637500D03*
X297050000Y-132637500D03*
X296100000Y-130762500D03*
%TD*%
D13*
%TO.C,R754*%
X326900000Y-201600000D03*
X325900000Y-201600000D03*
%TD*%
D14*
%TO.C,R587*%
X254900000Y-138800000D03*
X254900000Y-139800000D03*
%TD*%
D16*
%TO.C,Q375*%
X91413500Y-46461500D03*
X91413500Y-44561500D03*
X89538500Y-45511500D03*
%TD*%
%TO.C,Q157*%
X173713500Y-50361500D03*
X173713500Y-48461500D03*
X171838500Y-49411500D03*
%TD*%
D22*
%TO.C,C27*%
X328050000Y-27312500D03*
X328050000Y-25412500D03*
%TD*%
D16*
%TO.C,Q1109*%
X363837500Y-196650000D03*
X363837500Y-194750000D03*
X361962500Y-195700000D03*
%TD*%
D14*
%TO.C,R560*%
X269500000Y-197600000D03*
X269500000Y-198600000D03*
%TD*%
D20*
%TO.C,D38*%
X189000000Y-149610000D03*
X189000000Y-151190000D03*
%TD*%
D10*
%TO.C,Q514*%
X44238500Y-46861500D03*
X44238500Y-48761500D03*
X46113500Y-47811500D03*
%TD*%
D13*
%TO.C,R550*%
X378450000Y-31962500D03*
X377450000Y-31962500D03*
%TD*%
D14*
%TO.C,R563*%
X270700000Y-201500000D03*
X270700000Y-202500000D03*
%TD*%
D11*
%TO.C,R682*%
X285800000Y-189300000D03*
X286800000Y-189300000D03*
%TD*%
D10*
%TO.C,Q1120*%
X366362500Y-212350000D03*
X366362500Y-214250000D03*
X368237500Y-213300000D03*
%TD*%
D25*
%TO.C,J52*%
X395290000Y-93820000D03*
D26*
X392750000Y-93820000D03*
X395290000Y-96360000D03*
X392750000Y-96360000D03*
X395290000Y-98900000D03*
X392750000Y-98900000D03*
X395290000Y-101440000D03*
X392750000Y-101440000D03*
X395290000Y-103980000D03*
X392750000Y-103980000D03*
X395290000Y-106520000D03*
X392750000Y-106520000D03*
X395290000Y-109060000D03*
X392750000Y-109060000D03*
X395290000Y-111600000D03*
X392750000Y-111600000D03*
%TD*%
D13*
%TO.C,R48*%
X177600000Y-144400000D03*
X176600000Y-144400000D03*
%TD*%
D17*
%TO.C,Q568*%
X203250000Y-119862500D03*
X201350000Y-119862500D03*
X202300000Y-121737500D03*
%TD*%
D15*
%TO.C,R7*%
X40600000Y-186000000D03*
X40600000Y-185000000D03*
%TD*%
D12*
%TO.C,Q314*%
X131326000Y-62949000D03*
X133226000Y-62949000D03*
X132276000Y-61074000D03*
%TD*%
D18*
%TO.C,D65*%
X181010000Y-99700000D03*
X182590000Y-99700000D03*
%TD*%
D16*
%TO.C,Q8*%
X44137500Y-181250000D03*
X44137500Y-179350000D03*
X42262500Y-180300000D03*
%TD*%
%TO.C,Q767*%
X364687500Y-77612500D03*
X364687500Y-75712500D03*
X362812500Y-76662500D03*
%TD*%
%TO.C,Q457*%
X122775000Y-118850000D03*
X122775000Y-116950000D03*
X120900000Y-117900000D03*
%TD*%
%TO.C,Q290*%
X146713500Y-54761500D03*
X146713500Y-52861500D03*
X144838500Y-53811500D03*
%TD*%
D11*
%TO.C,R726*%
X285800000Y-211300000D03*
X286800000Y-211300000D03*
%TD*%
%TO.C,R691*%
X332200000Y-201600000D03*
X333200000Y-201600000D03*
%TD*%
D12*
%TO.C,Q1079*%
X295150000Y-198637500D03*
X297050000Y-198637500D03*
X296100000Y-196762500D03*
%TD*%
D17*
%TO.C,Q609*%
X55350000Y-97562500D03*
X53450000Y-97562500D03*
X54400000Y-99437500D03*
%TD*%
D11*
%TO.C,R344*%
X204700000Y-134200000D03*
X205700000Y-134200000D03*
%TD*%
D10*
%TO.C,Q1212*%
X347362500Y-134250000D03*
X347362500Y-136150000D03*
X349237500Y-135200000D03*
%TD*%
%TO.C,Q1059*%
X326362500Y-207250000D03*
X326362500Y-209150000D03*
X328237500Y-208200000D03*
%TD*%
%TO.C,Q758*%
X349512500Y-75712500D03*
X349512500Y-77612500D03*
X351387500Y-76662500D03*
%TD*%
D16*
%TO.C,Q287*%
X142213500Y-58661500D03*
X142213500Y-56761500D03*
X140338500Y-57711500D03*
%TD*%
D14*
%TO.C,R524*%
X72900000Y-99400000D03*
X72900000Y-100400000D03*
%TD*%
D17*
%TO.C,Q100*%
X125150000Y-149162500D03*
X123250000Y-149162500D03*
X124200000Y-151037500D03*
%TD*%
D10*
%TO.C,Q1205*%
X343162500Y-166550000D03*
X343162500Y-168450000D03*
X345037500Y-167500000D03*
%TD*%
D16*
%TO.C,Q983*%
X368737500Y-131250000D03*
X368737500Y-129350000D03*
X366862500Y-130300000D03*
%TD*%
D22*
%TO.C,C7*%
X155300000Y-135050000D03*
X155300000Y-133150000D03*
%TD*%
D14*
%TO.C,R519*%
X88900000Y-99400000D03*
X88900000Y-100400000D03*
%TD*%
D24*
%TO.C,D44*%
X77262500Y-145865000D03*
X77262500Y-144285000D03*
%TD*%
D18*
%TO.C,D121*%
X268010000Y-148500000D03*
X269590000Y-148500000D03*
%TD*%
D20*
%TO.C,D36*%
X189000000Y-159610000D03*
X189000000Y-161190000D03*
%TD*%
D16*
%TO.C,Q344*%
X64413500Y-50361500D03*
X64413500Y-48461500D03*
X62538500Y-49411500D03*
%TD*%
D11*
%TO.C,R438*%
X64862500Y-160075000D03*
X65862500Y-160075000D03*
%TD*%
D16*
%TO.C,Q286*%
X137713500Y-54761500D03*
X137713500Y-52861500D03*
X135838500Y-53811500D03*
%TD*%
D10*
%TO.C,Q33*%
X107162500Y-175350000D03*
X107162500Y-177250000D03*
X109037500Y-176300000D03*
%TD*%
D19*
%TO.C,D56*%
X49690000Y-179300000D03*
X48110000Y-179300000D03*
%TD*%
D12*
%TO.C,Q990*%
X302550000Y-170837500D03*
X304450000Y-170837500D03*
X303500000Y-168962500D03*
%TD*%
D10*
%TO.C,Q612*%
X44438500Y-57661500D03*
X44438500Y-59561500D03*
X46313500Y-58611500D03*
%TD*%
D15*
%TO.C,R473*%
X47100000Y-186000000D03*
X47100000Y-185000000D03*
%TD*%
D10*
%TO.C,Q1449*%
X381512500Y-71912500D03*
X381512500Y-73812500D03*
X383387500Y-72862500D03*
%TD*%
D15*
%TO.C,R430*%
X78862500Y-144975000D03*
X78862500Y-143975000D03*
%TD*%
D10*
%TO.C,Q577*%
X188962500Y-133450000D03*
X188962500Y-135350000D03*
X190837500Y-134400000D03*
%TD*%
D17*
%TO.C,Q957*%
X279750000Y-141762500D03*
X277850000Y-141762500D03*
X278800000Y-143637500D03*
%TD*%
D18*
%TO.C,D102*%
X254310000Y-137400000D03*
X255890000Y-137400000D03*
%TD*%
D13*
%TO.C,R135*%
X189700000Y-157600000D03*
X188700000Y-157600000D03*
%TD*%
D12*
%TO.C,Q69*%
X195750000Y-197837500D03*
X197650000Y-197837500D03*
X196700000Y-195962500D03*
%TD*%
D17*
%TO.C,Q546*%
X203850000Y-38562500D03*
X201950000Y-38562500D03*
X202900000Y-40437500D03*
%TD*%
D27*
%TO.C,R389*%
X44410000Y-93000000D03*
X36790000Y-93000000D03*
%TD*%
D17*
%TO.C,*%
X77050000Y-89562500D03*
%TD*%
D13*
%TO.C,R694*%
X299500000Y-200300000D03*
X298500000Y-200300000D03*
%TD*%
D11*
%TO.C,R648*%
X300600000Y-167300000D03*
X301600000Y-167300000D03*
%TD*%
%TO.C,R661*%
X309600000Y-178300000D03*
X310600000Y-178300000D03*
%TD*%
%TO.C,R739*%
X351800000Y-154100000D03*
X352800000Y-154100000D03*
%TD*%
D13*
%TO.C,R141*%
X189700000Y-147600000D03*
X188700000Y-147600000D03*
%TD*%
D17*
%TO.C,Q225*%
X154950000Y-85062500D03*
X153050000Y-85062500D03*
X154000000Y-86937500D03*
%TD*%
D16*
%TO.C,Q1013*%
X368737500Y-150250000D03*
X368737500Y-148350000D03*
X366862500Y-149300000D03*
%TD*%
%TO.C,Q405*%
X118413500Y-46461500D03*
X118413500Y-44561500D03*
X116538500Y-45511500D03*
%TD*%
D15*
%TO.C,R632*%
X363200000Y-131807500D03*
X363200000Y-130807500D03*
%TD*%
%TO.C,R174*%
X95400000Y-93600000D03*
X95400000Y-92600000D03*
%TD*%
D17*
%TO.C,Q87*%
X125150000Y-144162500D03*
X123250000Y-144162500D03*
X124200000Y-146037500D03*
%TD*%
D12*
%TO.C,Q1050*%
X291450000Y-187637500D03*
X293350000Y-187637500D03*
X292400000Y-185762500D03*
%TD*%
%TO.C,Q68*%
X195750000Y-202837500D03*
X197650000Y-202837500D03*
X196700000Y-200962500D03*
%TD*%
D11*
%TO.C,R439*%
X64862500Y-159075000D03*
X65862500Y-159075000D03*
%TD*%
D10*
%TO.C,Q45*%
X132162500Y-183350000D03*
X132162500Y-185250000D03*
X134037500Y-184300000D03*
%TD*%
D21*
%TO.C,C37*%
X261900000Y-215250000D03*
X261900000Y-217150000D03*
%TD*%
D10*
%TO.C,Q55*%
X162162500Y-191350000D03*
X162162500Y-193250000D03*
X164037500Y-192300000D03*
%TD*%
D21*
%TO.C,C21*%
X349050000Y-114712500D03*
X349050000Y-116612500D03*
%TD*%
D12*
%TO.C,Q544*%
X209950000Y-40437500D03*
X211850000Y-40437500D03*
X210900000Y-38562500D03*
%TD*%
D13*
%TO.C,R132*%
X189700000Y-162600000D03*
X188700000Y-162600000D03*
%TD*%
D15*
%TO.C,R374*%
X49100000Y-186000000D03*
X49100000Y-185000000D03*
%TD*%
D17*
%TO.C,Q253*%
X186950000Y-89562500D03*
X185050000Y-89562500D03*
X186000000Y-91437500D03*
%TD*%
D12*
%TO.C,Q1049*%
X287750000Y-187637500D03*
X289650000Y-187637500D03*
X288700000Y-185762500D03*
%TD*%
D24*
%TO.C,D10*%
X112100000Y-173090000D03*
X112100000Y-171510000D03*
%TD*%
D12*
%TO.C,Q553*%
X209950000Y-53937500D03*
X211850000Y-53937500D03*
X210900000Y-52062500D03*
%TD*%
D10*
%TO.C,Q790*%
X381512500Y-83312500D03*
X381512500Y-85212500D03*
X383387500Y-84262500D03*
%TD*%
D11*
%TO.C,R541*%
X299450000Y-33062500D03*
X300450000Y-33062500D03*
%TD*%
D16*
%TO.C,Q671*%
X287387500Y-34612500D03*
X287387500Y-32712500D03*
X285512500Y-33662500D03*
%TD*%
%TO.C,Q662*%
X268687500Y-58612500D03*
X268687500Y-56712500D03*
X266812500Y-57662500D03*
%TD*%
D17*
%TO.C,Q226*%
X146950000Y-85062500D03*
X145050000Y-85062500D03*
X146000000Y-86937500D03*
%TD*%
D22*
%TO.C,C13*%
X105300000Y-160300000D03*
X105300000Y-158400000D03*
%TD*%
D12*
%TO.C,Q85*%
X195750000Y-171837500D03*
X197650000Y-171837500D03*
X196700000Y-169962500D03*
%TD*%
%TO.C,Q1119*%
X352350000Y-195937500D03*
X354250000Y-195937500D03*
X353300000Y-194062500D03*
%TD*%
%TO.C,Q1054*%
X306250000Y-187637500D03*
X308150000Y-187637500D03*
X307200000Y-185762500D03*
%TD*%
D10*
%TO.C,Q1055*%
X322162500Y-203550000D03*
X322162500Y-205450000D03*
X324037500Y-204500000D03*
%TD*%
D14*
%TO.C,R702*%
X268600000Y-138800000D03*
X268600000Y-139800000D03*
%TD*%
D10*
%TO.C,Q1126*%
X366462500Y-198550000D03*
X366462500Y-200450000D03*
X368337500Y-199500000D03*
%TD*%
D14*
%TO.C,R724*%
X269600000Y-157300000D03*
X269600000Y-158300000D03*
%TD*%
D17*
%TO.C,*%
X133050000Y-89562500D03*
%TD*%
%TO.C,Q120*%
X193850000Y-185962500D03*
X191950000Y-185962500D03*
X192900000Y-187837500D03*
%TD*%
%TO.C,Q918*%
X363750000Y-175262500D03*
X361850000Y-175262500D03*
X362800000Y-177137500D03*
%TD*%
D13*
%TO.C,R601*%
X288900000Y-145300000D03*
X287900000Y-145300000D03*
%TD*%
D12*
%TO.C,Q1077*%
X287750000Y-198637500D03*
X289650000Y-198637500D03*
X288700000Y-196762500D03*
%TD*%
D16*
%TO.C,Q169*%
X128713500Y-58661500D03*
X128713500Y-56761500D03*
X126838500Y-57711500D03*
%TD*%
D13*
%TO.C,R25*%
X134500000Y-173400000D03*
X133500000Y-173400000D03*
%TD*%
%TO.C,R323*%
X228000000Y-56000000D03*
X227000000Y-56000000D03*
%TD*%
D21*
%TO.C,C34*%
X358050000Y-114712500D03*
X358050000Y-116612500D03*
%TD*%
D17*
%TO.C,Q524*%
X220850000Y-43062500D03*
X218950000Y-43062500D03*
X219900000Y-44937500D03*
%TD*%
D16*
%TO.C,Q342*%
X59913500Y-54761500D03*
X59913500Y-52861500D03*
X58038500Y-53811500D03*
%TD*%
D12*
%TO.C,Q1108*%
X352350000Y-135937500D03*
X354250000Y-135937500D03*
X353300000Y-134062500D03*
%TD*%
D15*
%TO.C,R121*%
X187600000Y-177500000D03*
X187600000Y-176500000D03*
%TD*%
D10*
%TO.C,Q1060*%
X330562500Y-203550000D03*
X330562500Y-205450000D03*
X332437500Y-204500000D03*
%TD*%
%TO.C,Q510*%
X40325000Y-154525000D03*
X40325000Y-156425000D03*
X42200000Y-155475000D03*
%TD*%
D16*
%TO.C,Q296*%
X160213500Y-54761500D03*
X160213500Y-52861500D03*
X158338500Y-53811500D03*
%TD*%
%TO.C,Q145*%
X146713500Y-50361500D03*
X146713500Y-48461500D03*
X144838500Y-49411500D03*
%TD*%
D14*
%TO.C,R125*%
X187600000Y-169400000D03*
X187600000Y-170400000D03*
%TD*%
D12*
%TO.C,Q509*%
X59112500Y-150412500D03*
X61012500Y-150412500D03*
X60062500Y-148537500D03*
%TD*%
D17*
%TO.C,Q91*%
X141150000Y-144162500D03*
X139250000Y-144162500D03*
X140200000Y-146037500D03*
%TD*%
D10*
%TO.C,Q1211*%
X347362500Y-130550000D03*
X347362500Y-132450000D03*
X349237500Y-131500000D03*
%TD*%
D16*
%TO.C,Q668*%
X264387500Y-66212500D03*
X264387500Y-64312500D03*
X262512500Y-65262500D03*
%TD*%
D10*
%TO.C,Q1090*%
X264062500Y-154050000D03*
X264062500Y-155950000D03*
X265937500Y-155000000D03*
%TD*%
%TO.C,Q719*%
X313212500Y-56712500D03*
X313212500Y-58612500D03*
X315087500Y-57662500D03*
%TD*%
D13*
%TO.C,R309*%
X49662500Y-163075000D03*
X48662500Y-163075000D03*
%TD*%
D14*
%TO.C,R414*%
X318650000Y-104662500D03*
X318650000Y-105662500D03*
%TD*%
D16*
%TO.C,Q140*%
X133213500Y-50361500D03*
X133213500Y-48461500D03*
X131338500Y-49411500D03*
%TD*%
D10*
%TO.C,Q686*%
X285512500Y-60512500D03*
X285512500Y-62412500D03*
X287387500Y-61462500D03*
%TD*%
D19*
%TO.C,D59*%
X40190000Y-188100000D03*
X38610000Y-188100000D03*
%TD*%
D15*
%TO.C,R288*%
X64723718Y-118800000D03*
X64723718Y-117800000D03*
%TD*%
D12*
%TO.C,Q1039*%
X295150000Y-192837500D03*
X297050000Y-192837500D03*
X296100000Y-190962500D03*
%TD*%
%TO.C,Q333*%
X49026000Y-62949000D03*
X50926000Y-62949000D03*
X49976000Y-61074000D03*
%TD*%
D17*
%TO.C,Q548*%
X207850000Y-43062500D03*
X205950000Y-43062500D03*
X206900000Y-44937500D03*
%TD*%
D10*
%TO.C,Q473*%
X134637500Y-104500000D03*
X134637500Y-106400000D03*
X136512500Y-105450000D03*
%TD*%
D20*
%TO.C,D39*%
X189000000Y-144610000D03*
X189000000Y-146190000D03*
%TD*%
D24*
%TO.C,D131*%
X354200000Y-191990000D03*
X354200000Y-190410000D03*
%TD*%
D15*
%TO.C,R257*%
X91376000Y-65711500D03*
X91376000Y-64711500D03*
%TD*%
D12*
%TO.C,Q1065*%
X291450000Y-203837500D03*
X293350000Y-203837500D03*
X292400000Y-201962500D03*
%TD*%
D16*
%TO.C,Q737*%
X332687500Y-62412500D03*
X332687500Y-60512500D03*
X330812500Y-61462500D03*
%TD*%
D14*
%TO.C,R397*%
X283650000Y-102662500D03*
X283650000Y-103662500D03*
%TD*%
%TO.C,R716*%
X268650000Y-149900000D03*
X268650000Y-150900000D03*
%TD*%
D16*
%TO.C,Q365*%
X82413500Y-46461500D03*
X82413500Y-44561500D03*
X80538500Y-45511500D03*
%TD*%
D10*
%TO.C,Q1145*%
X322162500Y-166550000D03*
X322162500Y-168450000D03*
X324037500Y-167500000D03*
%TD*%
D14*
%TO.C,R588*%
X255900000Y-138800000D03*
X255900000Y-139800000D03*
%TD*%
D10*
%TO.C,Q730*%
X326512500Y-32712500D03*
X326512500Y-34612500D03*
X328387500Y-33662500D03*
%TD*%
D17*
%TO.C,Q450*%
X71012500Y-139737500D03*
X69112500Y-139737500D03*
X70062500Y-141612500D03*
%TD*%
D11*
%TO.C,R750*%
X351800000Y-190100000D03*
X352800000Y-190100000D03*
%TD*%
D10*
%TO.C,Q571*%
X49325000Y-154525000D03*
X49325000Y-156425000D03*
X51200000Y-155475000D03*
%TD*%
D14*
%TO.C,R520*%
X87900000Y-99400000D03*
X87900000Y-100400000D03*
%TD*%
D10*
%TO.C,Q57*%
X162162500Y-199350000D03*
X162162500Y-201250000D03*
X164037500Y-200300000D03*
%TD*%
D12*
%TO.C,Q70*%
X195750000Y-192837500D03*
X197650000Y-192837500D03*
X196700000Y-190962500D03*
%TD*%
D16*
%TO.C,Q704*%
X296387500Y-70012500D03*
X296387500Y-68112500D03*
X294512500Y-69062500D03*
%TD*%
D10*
%TO.C,Q51*%
X147162500Y-183350000D03*
X147162500Y-185250000D03*
X149037500Y-184300000D03*
%TD*%
D13*
%TO.C,R758*%
X343700000Y-201600000D03*
X342700000Y-201600000D03*
%TD*%
D15*
%TO.C,R140*%
X187600000Y-146500000D03*
X187600000Y-145500000D03*
%TD*%
D17*
%TO.C,Q517*%
X220850000Y-34062500D03*
X218950000Y-34062500D03*
X219900000Y-35937500D03*
%TD*%
D10*
%TO.C,Q763*%
X349512500Y-56712500D03*
X349512500Y-58612500D03*
X351387500Y-57662500D03*
%TD*%
D19*
%TO.C,D51*%
X49690000Y-201300000D03*
X48110000Y-201300000D03*
%TD*%
D21*
%TO.C,C23*%
X342950000Y-114712500D03*
X342950000Y-116612500D03*
%TD*%
D18*
%TO.C,D88*%
X364260000Y-116562500D03*
X365840000Y-116562500D03*
%TD*%
D17*
%TO.C,Q205*%
X182950000Y-85062500D03*
X181050000Y-85062500D03*
X182000000Y-86937500D03*
%TD*%
D16*
%TO.C,Q156*%
X169213500Y-46461500D03*
X169213500Y-44561500D03*
X167338500Y-45511500D03*
%TD*%
D17*
%TO.C,*%
X189050000Y-89562500D03*
%TD*%
%TO.C,*%
X181050000Y-89562500D03*
%TD*%
D15*
%TO.C,R261*%
X100376000Y-65711500D03*
X100376000Y-64711500D03*
%TD*%
%TO.C,R569*%
X369500000Y-167900000D03*
X369500000Y-166900000D03*
%TD*%
D17*
%TO.C,Q94*%
X153150000Y-144162500D03*
X151250000Y-144162500D03*
X152200000Y-146037500D03*
%TD*%
D16*
%TO.C,Q734*%
X332687500Y-73812500D03*
X332687500Y-71912500D03*
X330812500Y-72862500D03*
%TD*%
D17*
%TO.C,Q238*%
X174950000Y-89562500D03*
X173050000Y-89562500D03*
X174000000Y-91437500D03*
%TD*%
%TO.C,Q260*%
X130950000Y-89562500D03*
X129050000Y-89562500D03*
X130000000Y-91437500D03*
%TD*%
D14*
%TO.C,R412*%
X311050000Y-104662500D03*
X311050000Y-105662500D03*
%TD*%
D16*
%TO.C,Q455*%
X133275000Y-118850000D03*
X133275000Y-116950000D03*
X131400000Y-117900000D03*
%TD*%
D25*
%TO.C,J20*%
X388140000Y-93820000D03*
D26*
X385600000Y-93820000D03*
X388140000Y-96360000D03*
X385600000Y-96360000D03*
X388140000Y-98900000D03*
X385600000Y-98900000D03*
X388140000Y-101440000D03*
X385600000Y-101440000D03*
X388140000Y-103980000D03*
X385600000Y-103980000D03*
X388140000Y-106520000D03*
X385600000Y-106520000D03*
X388140000Y-109060000D03*
X385600000Y-109060000D03*
X388140000Y-111600000D03*
X385600000Y-111600000D03*
%TD*%
D16*
%TO.C,Q341*%
X59913500Y-58661500D03*
X59913500Y-56761500D03*
X58038500Y-57711500D03*
%TD*%
D17*
%TO.C,Q131*%
X145150000Y-159162500D03*
X143250000Y-159162500D03*
X144200000Y-161037500D03*
%TD*%
D15*
%TO.C,R86*%
X138500000Y-172400000D03*
X138500000Y-171400000D03*
%TD*%
D10*
%TO.C,Q1191*%
X338962500Y-154550000D03*
X338962500Y-156450000D03*
X340837500Y-155500000D03*
%TD*%
D11*
%TO.C,R686*%
X300600000Y-189300000D03*
X301600000Y-189300000D03*
%TD*%
D12*
%TO.C,Q343*%
X58026000Y-62949000D03*
X59926000Y-62949000D03*
X58976000Y-61074000D03*
%TD*%
D15*
%TO.C,R46*%
X190400000Y-172500000D03*
X190400000Y-171500000D03*
%TD*%
D16*
%TO.C,Q310*%
X191713500Y-54761500D03*
X191713500Y-52861500D03*
X189838500Y-53811500D03*
%TD*%
D12*
%TO.C,Q932*%
X275950000Y-135837500D03*
X277850000Y-135837500D03*
X276900000Y-133962500D03*
%TD*%
D15*
%TO.C,R230*%
X180876000Y-65711500D03*
X180876000Y-64711500D03*
%TD*%
D16*
%TO.C,Q160*%
X178213500Y-46461500D03*
X178213500Y-44561500D03*
X176338500Y-45511500D03*
%TD*%
D17*
%TO.C,Q1008*%
X279750000Y-174762500D03*
X277850000Y-174762500D03*
X278800000Y-176637500D03*
%TD*%
D12*
%TO.C,Q73*%
X199750000Y-150837500D03*
X201650000Y-150837500D03*
X200700000Y-148962500D03*
%TD*%
D10*
%TO.C,Q1164*%
X330562500Y-134250000D03*
X330562500Y-136150000D03*
X332437500Y-135200000D03*
%TD*%
D18*
%TO.C,D66*%
X189010000Y-99700000D03*
X190590000Y-99700000D03*
%TD*%
D17*
%TO.C,Q416*%
X69173718Y-133062500D03*
X67273718Y-133062500D03*
X68223718Y-134937500D03*
%TD*%
%TO.C,Q543*%
X203850000Y-34062500D03*
X201950000Y-34062500D03*
X202900000Y-35937500D03*
%TD*%
D19*
%TO.C,D49*%
X49690000Y-210100000D03*
X48110000Y-210100000D03*
%TD*%
D13*
%TO.C,R753*%
X322700000Y-201600000D03*
X321700000Y-201600000D03*
%TD*%
D17*
%TO.C,Q447*%
X59012500Y-139737500D03*
X57112500Y-139737500D03*
X58062500Y-141612500D03*
%TD*%
%TO.C,Q907*%
X367550000Y-162662500D03*
X365650000Y-162662500D03*
X366600000Y-164537500D03*
%TD*%
%TO.C,Q627*%
X94950000Y-95562500D03*
X93050000Y-95562500D03*
X94000000Y-97437500D03*
%TD*%
%TO.C,Q130*%
X141150000Y-159162500D03*
X139250000Y-159162500D03*
X140200000Y-161037500D03*
%TD*%
D11*
%TO.C,R667*%
X285800000Y-178300000D03*
X286800000Y-178300000D03*
%TD*%
D14*
%TO.C,R559*%
X270600000Y-193800000D03*
X270600000Y-194800000D03*
%TD*%
D10*
%TO.C,Q752*%
X345212500Y-68112500D03*
X345212500Y-70012500D03*
X347087500Y-69062500D03*
%TD*%
D12*
%TO.C,Q985*%
X284050000Y-170837500D03*
X285950000Y-170837500D03*
X285000000Y-168962500D03*
%TD*%
D24*
%TO.C,D18*%
X137100000Y-173090000D03*
X137100000Y-171510000D03*
%TD*%
D17*
%TO.C,Q185*%
X86950000Y-80562500D03*
X85050000Y-80562500D03*
X86000000Y-82437500D03*
%TD*%
D10*
%TO.C,Q1116*%
X366362500Y-186450000D03*
X366362500Y-188350000D03*
X368237500Y-187400000D03*
%TD*%
D13*
%TO.C,R19*%
X119500000Y-173400000D03*
X118500000Y-173400000D03*
%TD*%
D10*
%TO.C,Q31*%
X97162500Y-175350000D03*
X97162500Y-177250000D03*
X99037500Y-176300000D03*
%TD*%
D17*
%TO.C,Q199*%
X106950000Y-80562500D03*
X105050000Y-80562500D03*
X106000000Y-82437500D03*
%TD*%
D24*
%TO.C,D41*%
X122775000Y-106440000D03*
X122775000Y-104860000D03*
%TD*%
D22*
%TO.C,C32*%
X361950000Y-27412500D03*
X361950000Y-25512500D03*
%TD*%
D17*
%TO.C,Q501*%
X71112500Y-144537500D03*
X69212500Y-144537500D03*
X70162500Y-146412500D03*
%TD*%
D14*
%TO.C,R499*%
X168900000Y-99400000D03*
X168900000Y-100400000D03*
%TD*%
D22*
%TO.C,C5*%
X200000000Y-110050000D03*
X200000000Y-108150000D03*
%TD*%
D15*
%TO.C,R377*%
X50100000Y-181600000D03*
X50100000Y-180600000D03*
%TD*%
D14*
%TO.C,R301*%
X150637500Y-113600000D03*
X150637500Y-114600000D03*
%TD*%
D10*
%TO.C,Q584*%
X202462500Y-137450000D03*
X202462500Y-139350000D03*
X204337500Y-138400000D03*
%TD*%
D12*
%TO.C,Q1078*%
X291450000Y-198637500D03*
X293350000Y-198637500D03*
X292400000Y-196762500D03*
%TD*%
D17*
%TO.C,Q608*%
X48350000Y-97562500D03*
X46450000Y-97562500D03*
X47400000Y-99437500D03*
%TD*%
D16*
%TO.C,Q397*%
X109413500Y-54761500D03*
X109413500Y-52861500D03*
X107538500Y-53811500D03*
%TD*%
D10*
%TO.C,Q1173*%
X330562500Y-190550000D03*
X330562500Y-192450000D03*
X332437500Y-191500000D03*
%TD*%
%TO.C,Q1451*%
X381512500Y-64312500D03*
X381512500Y-66212500D03*
X383387500Y-65262500D03*
%TD*%
D14*
%TO.C,R722*%
X269600000Y-153600000D03*
X269600000Y-154600000D03*
%TD*%
D20*
%TO.C,D46*%
X46276000Y-61421500D03*
X46276000Y-63001500D03*
%TD*%
D10*
%TO.C,Q10*%
X67162500Y-199350000D03*
X67162500Y-201250000D03*
X69037500Y-200300000D03*
%TD*%
D12*
%TO.C,Q502*%
X61312500Y-146412500D03*
X63212500Y-146412500D03*
X62262500Y-144537500D03*
%TD*%
D10*
%TO.C,Q681*%
X285512500Y-79512500D03*
X285512500Y-81412500D03*
X287387500Y-80462500D03*
%TD*%
D15*
%TO.C,R83*%
X129500000Y-172400000D03*
X129500000Y-171400000D03*
%TD*%
D10*
%TO.C,Q1184*%
X334762500Y-182250000D03*
X334762500Y-184150000D03*
X336637500Y-183200000D03*
%TD*%
%TO.C,Q904*%
X265062500Y-202050000D03*
X265062500Y-203950000D03*
X266937500Y-203000000D03*
%TD*%
D17*
%TO.C,Q537*%
X216850000Y-61062500D03*
X214950000Y-61062500D03*
X215900000Y-62937500D03*
%TD*%
D14*
%TO.C,R595*%
X254900000Y-142500000D03*
X254900000Y-143500000D03*
%TD*%
D12*
%TO.C,Q631*%
X171250000Y-151037500D03*
X173150000Y-151037500D03*
X172200000Y-149162500D03*
%TD*%
D11*
%TO.C,R329*%
X198900000Y-47000000D03*
X199900000Y-47000000D03*
%TD*%
D10*
%TO.C,Q1073*%
X264062500Y-139250000D03*
X264062500Y-141150000D03*
X265937500Y-140200000D03*
%TD*%
D25*
%TO.C,J17*%
X336150000Y-114462500D03*
D26*
X336150000Y-117002500D03*
%TD*%
D11*
%TO.C,R428*%
X48662500Y-159875000D03*
X49662500Y-159875000D03*
%TD*%
%TO.C,R437*%
X82762500Y-158975000D03*
X83762500Y-158975000D03*
%TD*%
D14*
%TO.C,R116*%
X187600000Y-185400000D03*
X187600000Y-186400000D03*
%TD*%
D16*
%TO.C,Q741*%
X328387500Y-77612500D03*
X328387500Y-75712500D03*
X326512500Y-76662500D03*
%TD*%
D10*
%TO.C,Q1071*%
X334762500Y-203550000D03*
X334762500Y-205450000D03*
X336637500Y-204500000D03*
%TD*%
D24*
%TO.C,D22*%
X157100000Y-173090000D03*
X157100000Y-171510000D03*
%TD*%
D10*
%TO.C,Q1130*%
X317962500Y-146250000D03*
X317962500Y-148150000D03*
X319837500Y-147200000D03*
%TD*%
D15*
%TO.C,R371*%
X49100000Y-194800000D03*
X49100000Y-193800000D03*
%TD*%
D14*
%TO.C,R502*%
X159900000Y-99400000D03*
X159900000Y-100400000D03*
%TD*%
D10*
%TO.C,Q513*%
X44825000Y-158525000D03*
X44825000Y-160425000D03*
X46700000Y-159475000D03*
%TD*%
D12*
%TO.C,Q1003*%
X302550000Y-165637500D03*
X304450000Y-165637500D03*
X303500000Y-163762500D03*
%TD*%
D17*
%TO.C,Q252*%
X194950000Y-89562500D03*
X193050000Y-89562500D03*
X194000000Y-91437500D03*
%TD*%
%TO.C,Q435*%
X50173718Y-128562500D03*
X48273718Y-128562500D03*
X49223718Y-130437500D03*
%TD*%
D16*
%TO.C,Q5*%
X44137500Y-194450000D03*
X44137500Y-192550000D03*
X42262500Y-193500000D03*
%TD*%
D17*
%TO.C,*%
X117050000Y-89562500D03*
%TD*%
%TO.C,Q180*%
X126950000Y-80562500D03*
X125050000Y-80562500D03*
X126000000Y-82437500D03*
%TD*%
D16*
%TO.C,Q772*%
X364687500Y-58612500D03*
X364687500Y-56712500D03*
X362812500Y-57662500D03*
%TD*%
D18*
%TO.C,D72*%
X133010000Y-99700000D03*
X134590000Y-99700000D03*
%TD*%
D10*
%TO.C,Q613*%
X85825000Y-155525000D03*
X85825000Y-157425000D03*
X87700000Y-156475000D03*
%TD*%
%TO.C,Q1175*%
X334762500Y-130550000D03*
X334762500Y-132450000D03*
X336637500Y-131500000D03*
%TD*%
D18*
%TO.C,D93*%
X330560000Y-34662500D03*
X332140000Y-34662500D03*
%TD*%
D15*
%TO.C,R359*%
X39600000Y-199200000D03*
X39600000Y-198200000D03*
%TD*%
D17*
%TO.C,Q414*%
X69173718Y-123062500D03*
X67273718Y-123062500D03*
X68223718Y-124937500D03*
%TD*%
D12*
%TO.C,Q1022*%
X279650000Y-190837500D03*
X281550000Y-190837500D03*
X280600000Y-188962500D03*
%TD*%
D22*
%TO.C,C6*%
X203050000Y-110050000D03*
X203050000Y-108150000D03*
%TD*%
D12*
%TO.C,Q952*%
X298850000Y-143637500D03*
X300750000Y-143637500D03*
X299800000Y-141762500D03*
%TD*%
D10*
%TO.C,Q575*%
X188962500Y-128450000D03*
X188962500Y-130350000D03*
X190837500Y-129400000D03*
%TD*%
D17*
%TO.C,Q607*%
X48350000Y-93462500D03*
X46450000Y-93462500D03*
X47400000Y-95337500D03*
%TD*%
%TO.C,Q116*%
X161150000Y-154162500D03*
X159250000Y-154162500D03*
X160200000Y-156037500D03*
%TD*%
D10*
%TO.C,Q581*%
X197962500Y-137450000D03*
X197962500Y-139350000D03*
X199837500Y-138400000D03*
%TD*%
%TO.C,Q1201*%
X343162500Y-142550000D03*
X343162500Y-144450000D03*
X345037500Y-143500000D03*
%TD*%
D13*
%TO.C,R30*%
X159500000Y-173400000D03*
X158500000Y-173400000D03*
%TD*%
D24*
%TO.C,D11*%
X117100000Y-173090000D03*
X117100000Y-171510000D03*
%TD*%
D12*
%TO.C,Q1068*%
X302550000Y-203837500D03*
X304450000Y-203837500D03*
X303500000Y-201962500D03*
%TD*%
D16*
%TO.C,Q462*%
X166775000Y-118850000D03*
X166775000Y-116950000D03*
X164900000Y-117900000D03*
%TD*%
D11*
%TO.C,R191*%
X89900000Y-93600000D03*
X90900000Y-93600000D03*
%TD*%
D12*
%TO.C,Q1030*%
X298850000Y-176637500D03*
X300750000Y-176637500D03*
X299800000Y-174762500D03*
%TD*%
D14*
%TO.C,R404*%
X257250000Y-102662500D03*
X257250000Y-103662500D03*
%TD*%
D17*
%TO.C,Q280*%
X98950000Y-95562500D03*
X97050000Y-95562500D03*
X98000000Y-97437500D03*
%TD*%
D25*
%TO.C,J15*%
X373840000Y-93820000D03*
D26*
X371300000Y-93820000D03*
X373840000Y-96360000D03*
X371300000Y-96360000D03*
X373840000Y-98900000D03*
X371300000Y-98900000D03*
X373840000Y-101440000D03*
X371300000Y-101440000D03*
X373840000Y-103980000D03*
X371300000Y-103980000D03*
X373840000Y-106520000D03*
X371300000Y-106520000D03*
X373840000Y-109060000D03*
X371300000Y-109060000D03*
X373840000Y-111600000D03*
X371300000Y-111600000D03*
%TD*%
D17*
%TO.C,Q606*%
X55350000Y-93362500D03*
X53450000Y-93362500D03*
X54400000Y-95237500D03*
%TD*%
D22*
%TO.C,C8*%
X158350000Y-135050000D03*
X158350000Y-133150000D03*
%TD*%
D13*
%TO.C,R26*%
X139500000Y-173400000D03*
X138500000Y-173400000D03*
%TD*%
D17*
%TO.C,Q109*%
X161150000Y-149162500D03*
X159250000Y-149162500D03*
X160200000Y-151037500D03*
%TD*%
D10*
%TO.C,Q1195*%
X338962500Y-178550000D03*
X338962500Y-180450000D03*
X340837500Y-179500000D03*
%TD*%
D16*
%TO.C,Q367*%
X82413500Y-54761500D03*
X82413500Y-52861500D03*
X80538500Y-53811500D03*
%TD*%
D10*
%TO.C,Q1155*%
X326362500Y-154550000D03*
X326362500Y-156450000D03*
X328237500Y-155500000D03*
%TD*%
D12*
%TO.C,Q1002*%
X298850000Y-165637500D03*
X300750000Y-165637500D03*
X299800000Y-163762500D03*
%TD*%
D10*
%TO.C,Q947*%
X250362500Y-150350000D03*
X250362500Y-152250000D03*
X252237500Y-151300000D03*
%TD*%
D27*
%TO.C,R77*%
X36780000Y-99000000D03*
X44400000Y-99000000D03*
%TD*%
D12*
%TO.C,Q989*%
X298850000Y-170837500D03*
X300750000Y-170837500D03*
X299800000Y-168962500D03*
%TD*%
D17*
%TO.C,Q127*%
X193850000Y-148962500D03*
X191950000Y-148962500D03*
X192900000Y-150837500D03*
%TD*%
D13*
%TO.C,R719*%
X299500000Y-211300000D03*
X298500000Y-211300000D03*
%TD*%
D18*
%TO.C,D108*%
X254310000Y-159600000D03*
X255890000Y-159600000D03*
%TD*%
D12*
%TO.C,Q1103*%
X295150000Y-209637500D03*
X297050000Y-209637500D03*
X296100000Y-207762500D03*
%TD*%
D15*
%TO.C,R471*%
X47100000Y-190400000D03*
X47100000Y-189400000D03*
%TD*%
D16*
%TO.C,Q339*%
X59913500Y-50361500D03*
X59913500Y-48461500D03*
X58038500Y-49411500D03*
%TD*%
%TO.C,Q459*%
X147275000Y-118850000D03*
X147275000Y-116950000D03*
X145400000Y-117900000D03*
%TD*%
D10*
%TO.C,Q580*%
X193462500Y-137450000D03*
X193462500Y-139350000D03*
X195337500Y-138400000D03*
%TD*%
D15*
%TO.C,R240*%
X53576000Y-65711500D03*
X53576000Y-64711500D03*
%TD*%
%TO.C,R354*%
X136137500Y-114600000D03*
X136137500Y-113600000D03*
%TD*%
D17*
%TO.C,Q186*%
X78950000Y-80562500D03*
X77050000Y-80562500D03*
X78000000Y-82437500D03*
%TD*%
D11*
%TO.C,R603*%
X294800000Y-145300000D03*
X295800000Y-145300000D03*
%TD*%
D16*
%TO.C,Q386*%
X100413500Y-58661500D03*
X100413500Y-56761500D03*
X98538500Y-57711500D03*
%TD*%
D10*
%TO.C,Q28*%
X97162500Y-179350000D03*
X97162500Y-181250000D03*
X99037500Y-180300000D03*
%TD*%
D14*
%TO.C,R507*%
X135900000Y-99400000D03*
X135900000Y-100400000D03*
%TD*%
D12*
%TO.C,Q641*%
X262700000Y-107300000D03*
X264600000Y-107300000D03*
X263650000Y-105425000D03*
%TD*%
D17*
%TO.C,Q201*%
X90950000Y-80562500D03*
X89050000Y-80562500D03*
X90000000Y-82437500D03*
%TD*%
D10*
%TO.C,Q717*%
X313212500Y-64312500D03*
X313212500Y-66212500D03*
X315087500Y-65262500D03*
%TD*%
%TO.C,Q468*%
X162137500Y-104500000D03*
X162137500Y-106400000D03*
X164012500Y-105450000D03*
%TD*%
D16*
%TO.C,Q658*%
X268687500Y-73812500D03*
X268687500Y-71912500D03*
X266812500Y-72862500D03*
%TD*%
D12*
%TO.C,Q79*%
X203750000Y-160837500D03*
X205650000Y-160837500D03*
X204700000Y-158962500D03*
%TD*%
D11*
%TO.C,R605*%
X306400000Y-145300000D03*
X307400000Y-145300000D03*
%TD*%
D10*
%TO.C,Q1075*%
X338962500Y-207250000D03*
X338962500Y-209150000D03*
X340837500Y-208200000D03*
%TD*%
D17*
%TO.C,Q1035*%
X279750000Y-196762500D03*
X277850000Y-196762500D03*
X278800000Y-198637500D03*
%TD*%
D15*
%TO.C,R202*%
X128600000Y-93600000D03*
X128600000Y-92600000D03*
%TD*%
D14*
%TO.C,R498*%
X176900000Y-99400000D03*
X176900000Y-100400000D03*
%TD*%
D17*
%TO.C,Q248*%
X94950000Y-89562500D03*
X93050000Y-89562500D03*
X94000000Y-91437500D03*
%TD*%
D15*
%TO.C,R177*%
X71400000Y-93600000D03*
X71400000Y-92600000D03*
%TD*%
D14*
%TO.C,R422*%
X256050000Y-102662500D03*
X256050000Y-103662500D03*
%TD*%
D16*
%TO.C,Q355*%
X73413500Y-46461500D03*
X73413500Y-44561500D03*
X71538500Y-45511500D03*
%TD*%
D12*
%TO.C,Q321*%
X162826000Y-62949000D03*
X164726000Y-62949000D03*
X163776000Y-61074000D03*
%TD*%
D16*
%TO.C,Q691*%
X300687500Y-85212500D03*
X300687500Y-83312500D03*
X298812500Y-84262500D03*
%TD*%
D12*
%TO.C,Q1097*%
X306250000Y-214837500D03*
X308150000Y-214837500D03*
X307200000Y-212962500D03*
%TD*%
D13*
%TO.C,R27*%
X144500000Y-173400000D03*
X143500000Y-173400000D03*
%TD*%
D15*
%TO.C,R265*%
X109376000Y-65711500D03*
X109376000Y-64711500D03*
%TD*%
D19*
%TO.C,D62*%
X40190000Y-201300000D03*
X38610000Y-201300000D03*
%TD*%
D15*
%TO.C,R45*%
X190400000Y-177500000D03*
X190400000Y-176500000D03*
%TD*%
D10*
%TO.C,Q579*%
X198962500Y-133450000D03*
X198962500Y-135350000D03*
X200837500Y-134400000D03*
%TD*%
D22*
%TO.C,C29*%
X352850000Y-27412500D03*
X352850000Y-25512500D03*
%TD*%
D12*
%TO.C,Q651*%
X309100000Y-109300000D03*
X311000000Y-109300000D03*
X310050000Y-107425000D03*
%TD*%
D13*
%TO.C,R543*%
X314450000Y-33062500D03*
X313450000Y-33062500D03*
%TD*%
D15*
%TO.C,R65*%
X99500000Y-172400000D03*
X99500000Y-171400000D03*
%TD*%
D12*
%TO.C,Q1070*%
X309950000Y-203837500D03*
X311850000Y-203837500D03*
X310900000Y-201962500D03*
%TD*%
D11*
%TO.C,R446*%
X44676000Y-52311500D03*
X45676000Y-52311500D03*
%TD*%
D10*
%TO.C,Q1204*%
X343162500Y-158250000D03*
X343162500Y-160150000D03*
X345037500Y-159200000D03*
%TD*%
D16*
%TO.C,Q163*%
X187213500Y-50361500D03*
X187213500Y-48461500D03*
X185338500Y-49411500D03*
%TD*%
D17*
%TO.C,Q111*%
X141150000Y-154162500D03*
X139250000Y-154162500D03*
X140200000Y-156037500D03*
%TD*%
%TO.C,Q271*%
X170950000Y-95562500D03*
X169050000Y-95562500D03*
X170000000Y-97437500D03*
%TD*%
D14*
%TO.C,R505*%
X144900000Y-99400000D03*
X144900000Y-100400000D03*
%TD*%
D16*
%TO.C,Q456*%
X118275000Y-118850000D03*
X118275000Y-116950000D03*
X116400000Y-117900000D03*
%TD*%
D12*
%TO.C,Q643*%
X255100000Y-107300000D03*
X257000000Y-107300000D03*
X256050000Y-105425000D03*
%TD*%
D13*
%TO.C,R324*%
X228000000Y-60500000D03*
X227000000Y-60500000D03*
%TD*%
D10*
%TO.C,Q756*%
X349512500Y-83312500D03*
X349512500Y-85212500D03*
X351387500Y-84262500D03*
%TD*%
D18*
%TO.C,D99*%
X269010000Y-203900000D03*
X270590000Y-203900000D03*
%TD*%
%TO.C,D122*%
X268010000Y-152200000D03*
X269590000Y-152200000D03*
%TD*%
D21*
%TO.C,C36*%
X352150000Y-114712500D03*
X352150000Y-116612500D03*
%TD*%
D18*
%TO.C,D106*%
X254310000Y-152200000D03*
X255890000Y-152200000D03*
%TD*%
D12*
%TO.C,Q313*%
X126826000Y-62949000D03*
X128726000Y-62949000D03*
X127776000Y-61074000D03*
%TD*%
D11*
%TO.C,R637*%
X309600000Y-167300000D03*
X310600000Y-167300000D03*
%TD*%
D17*
%TO.C,Q129*%
X137150000Y-159162500D03*
X135250000Y-159162500D03*
X136200000Y-161037500D03*
%TD*%
D12*
%TO.C,Q82*%
X199750000Y-171837500D03*
X201650000Y-171837500D03*
X200700000Y-169962500D03*
%TD*%
D17*
%TO.C,Q202*%
X82950000Y-80562500D03*
X81050000Y-80562500D03*
X82000000Y-82437500D03*
%TD*%
D15*
%TO.C,R62*%
X93500000Y-172400000D03*
X93500000Y-171400000D03*
%TD*%
D10*
%TO.C,Q1178*%
X334762500Y-146250000D03*
X334762500Y-148150000D03*
X336637500Y-147200000D03*
%TD*%
D22*
%TO.C,C30*%
X355850000Y-27412500D03*
X355850000Y-25512500D03*
%TD*%
D19*
%TO.C,D61*%
X40190000Y-196900000D03*
X38610000Y-196900000D03*
%TD*%
D17*
%TO.C,Q203*%
X74950000Y-80562500D03*
X73050000Y-80562500D03*
X74000000Y-82437500D03*
%TD*%
D16*
%TO.C,Q311*%
X196213500Y-58661500D03*
X196213500Y-56761500D03*
X194338500Y-57711500D03*
%TD*%
D14*
%TO.C,R421*%
X259650000Y-102662500D03*
X259650000Y-103662500D03*
%TD*%
%TO.C,R506*%
X143900000Y-99400000D03*
X143900000Y-100400000D03*
%TD*%
%TO.C,R295*%
X176137500Y-113600000D03*
X176137500Y-114600000D03*
%TD*%
D18*
%TO.C,D78*%
X85010000Y-99700000D03*
X86590000Y-99700000D03*
%TD*%
D16*
%TO.C,Q349*%
X68913500Y-50361500D03*
X68913500Y-48461500D03*
X67038500Y-49411500D03*
%TD*%
D13*
%TO.C,R15*%
X99500000Y-173400000D03*
X98500000Y-173400000D03*
%TD*%
D17*
%TO.C,Q498*%
X59012500Y-144737500D03*
X57112500Y-144737500D03*
X58062500Y-146612500D03*
%TD*%
D19*
%TO.C,D52*%
X49690000Y-196900000D03*
X48110000Y-196900000D03*
%TD*%
D17*
%TO.C,Q132*%
X149150000Y-159162500D03*
X147250000Y-159162500D03*
X148200000Y-161037500D03*
%TD*%
D10*
%TO.C,Q1127*%
X317962500Y-130550000D03*
X317962500Y-132450000D03*
X319837500Y-131500000D03*
%TD*%
D25*
%TO.C,J3*%
X133900000Y-73000000D03*
D26*
X136440000Y-73000000D03*
X138980000Y-73000000D03*
X141520000Y-73000000D03*
X144060000Y-73000000D03*
X146600000Y-73000000D03*
X149140000Y-73000000D03*
X151680000Y-73000000D03*
X154220000Y-73000000D03*
X156760000Y-73000000D03*
X159300000Y-73000000D03*
X161840000Y-73000000D03*
X164380000Y-73000000D03*
X166920000Y-73000000D03*
X169460000Y-73000000D03*
X172000000Y-73000000D03*
X174540000Y-73000000D03*
X177080000Y-73000000D03*
X179620000Y-73000000D03*
X182160000Y-73000000D03*
X184700000Y-73000000D03*
%TD*%
D11*
%TO.C,R317*%
X48662500Y-158875000D03*
X49662500Y-158875000D03*
%TD*%
D10*
%TO.C,Q1452*%
X381512500Y-60512500D03*
X381512500Y-62412500D03*
X383387500Y-61462500D03*
%TD*%
D12*
%TO.C,Q1012*%
X343050000Y-215175000D03*
X344950000Y-215175000D03*
X344000000Y-213300000D03*
%TD*%
D15*
%TO.C,R6*%
X40600000Y-190400000D03*
X40600000Y-189400000D03*
%TD*%
D11*
%TO.C,R548*%
X363450000Y-31962500D03*
X364450000Y-31962500D03*
%TD*%
D10*
%TO.C,Q1194*%
X338962500Y-170250000D03*
X338962500Y-172150000D03*
X340837500Y-171200000D03*
%TD*%
D13*
%TO.C,R29*%
X154500000Y-173400000D03*
X153500000Y-173400000D03*
%TD*%
D17*
%TO.C,Q192*%
X162950000Y-80562500D03*
X161050000Y-80562500D03*
X162000000Y-82437500D03*
%TD*%
D16*
%TO.C,Q381*%
X95913500Y-58661500D03*
X95913500Y-56761500D03*
X94038500Y-57711500D03*
%TD*%
D17*
%TO.C,Q117*%
X193850000Y-200962500D03*
X191950000Y-200962500D03*
X192900000Y-202837500D03*
%TD*%
D15*
%TO.C,R208*%
X80600000Y-93600000D03*
X80600000Y-92600000D03*
%TD*%
D13*
%TO.C,R757*%
X339500000Y-201600000D03*
X338500000Y-201600000D03*
%TD*%
D14*
%TO.C,R217*%
X137900000Y-99400000D03*
X137900000Y-100400000D03*
%TD*%
D16*
%TO.C,Q744*%
X328387500Y-66212500D03*
X328387500Y-64312500D03*
X326512500Y-65262500D03*
%TD*%
D12*
%TO.C,Q1066*%
X295150000Y-203837500D03*
X297050000Y-203837500D03*
X296100000Y-201962500D03*
%TD*%
D17*
%TO.C,Q196*%
X130950000Y-80562500D03*
X129050000Y-80562500D03*
X130000000Y-82437500D03*
%TD*%
D12*
%TO.C,Q378*%
X89526000Y-62949000D03*
X91426000Y-62949000D03*
X90476000Y-61074000D03*
%TD*%
D17*
%TO.C,Q104*%
X141150000Y-149162500D03*
X139250000Y-149162500D03*
X140200000Y-151037500D03*
%TD*%
D15*
%TO.C,R375*%
X50100000Y-186000000D03*
X50100000Y-185000000D03*
%TD*%
D11*
%TO.C,R529*%
X267450000Y-33062500D03*
X268450000Y-33062500D03*
%TD*%
D14*
%TO.C,R223*%
X89900000Y-99400000D03*
X89900000Y-100400000D03*
%TD*%
D12*
%TO.C,Q647*%
X293900000Y-109300000D03*
X295800000Y-109300000D03*
X294850000Y-107425000D03*
%TD*%
D16*
%TO.C,Q382*%
X95913500Y-54761500D03*
X95913500Y-52861500D03*
X94038500Y-53811500D03*
%TD*%
D13*
%TO.C,R9*%
X69500000Y-173400000D03*
X68500000Y-173400000D03*
%TD*%
D15*
%TO.C,R2*%
X40600000Y-208000000D03*
X40600000Y-207000000D03*
%TD*%
%TO.C,R203*%
X120600000Y-93600000D03*
X120600000Y-92600000D03*
%TD*%
%TO.C,R376*%
X49100000Y-181600000D03*
X49100000Y-180600000D03*
%TD*%
D16*
%TO.C,Q659*%
X268687500Y-70012500D03*
X268687500Y-68112500D03*
X266812500Y-69062500D03*
%TD*%
D12*
%TO.C,Q650*%
X305300000Y-109300000D03*
X307200000Y-109300000D03*
X306250000Y-107425000D03*
%TD*%
D24*
%TO.C,D17*%
X132100000Y-173090000D03*
X132100000Y-171510000D03*
%TD*%
D13*
%TO.C,R449*%
X49662500Y-165075000D03*
X48662500Y-165075000D03*
%TD*%
D11*
%TO.C,R192*%
X81900000Y-93600000D03*
X82900000Y-93600000D03*
%TD*%
D14*
%TO.C,R271*%
X75123718Y-123500000D03*
X75123718Y-124500000D03*
%TD*%
D16*
%TO.C,Q7*%
X44137500Y-185650000D03*
X44137500Y-183750000D03*
X42262500Y-184700000D03*
%TD*%
D25*
%TO.C,J29*%
X253140000Y-189640000D03*
D26*
X250600000Y-189640000D03*
X253140000Y-192180000D03*
X250600000Y-192180000D03*
X253140000Y-194720000D03*
X250600000Y-194720000D03*
X253140000Y-197260000D03*
X250600000Y-197260000D03*
X253140000Y-199800000D03*
X250600000Y-199800000D03*
X253140000Y-202340000D03*
X250600000Y-202340000D03*
X253140000Y-204880000D03*
X250600000Y-204880000D03*
X253140000Y-207420000D03*
X250600000Y-207420000D03*
%TD*%
D15*
%TO.C,R158*%
X162876000Y-65711500D03*
X162876000Y-64711500D03*
%TD*%
D17*
%TO.C,Q487*%
X164025000Y-108612500D03*
X162125000Y-108612500D03*
X163075000Y-110487500D03*
%TD*%
D12*
%TO.C,Q1014*%
X284050000Y-181837500D03*
X285950000Y-181837500D03*
X285000000Y-179962500D03*
%TD*%
D10*
%TO.C,Q1188*%
X338962500Y-134250000D03*
X338962500Y-136150000D03*
X340837500Y-135200000D03*
%TD*%
D14*
%TO.C,R552*%
X270600000Y-190000000D03*
X270600000Y-191000000D03*
%TD*%
D17*
%TO.C,Q425*%
X50173718Y-119562500D03*
X48273718Y-119562500D03*
X49223718Y-121437500D03*
%TD*%
D12*
%TO.C,Q1017*%
X295150000Y-181837500D03*
X297050000Y-181837500D03*
X296100000Y-179962500D03*
%TD*%
D16*
%TO.C,Q170*%
X128713500Y-54761500D03*
X128713500Y-52861500D03*
X126838500Y-53811500D03*
%TD*%
%TO.C,Q161*%
X182713500Y-50361500D03*
X182713500Y-48461500D03*
X180838500Y-49411500D03*
%TD*%
D13*
%TO.C,R728*%
X293700000Y-211300000D03*
X292700000Y-211300000D03*
%TD*%
D14*
%TO.C,R293*%
X151737500Y-113600000D03*
X151737500Y-114600000D03*
%TD*%
D15*
%TO.C,R468*%
X48100000Y-199200000D03*
X48100000Y-198200000D03*
%TD*%
%TO.C,R481*%
X37600000Y-190400000D03*
X37600000Y-189400000D03*
%TD*%
D13*
%TO.C,R455*%
X206100000Y-119750000D03*
X205100000Y-119750000D03*
%TD*%
D15*
%TO.C,R90*%
X149500000Y-172400000D03*
X149500000Y-171400000D03*
%TD*%
D12*
%TO.C,Q83*%
X195750000Y-181837500D03*
X197650000Y-181837500D03*
X196700000Y-179962500D03*
%TD*%
D14*
%TO.C,R689*%
X281300000Y-208200000D03*
X281300000Y-209200000D03*
%TD*%
D12*
%TO.C,Q503*%
X67112500Y-150412500D03*
X69012500Y-150412500D03*
X68062500Y-148537500D03*
%TD*%
D14*
%TO.C,R274*%
X65723718Y-118500000D03*
X65723718Y-119500000D03*
%TD*%
%TO.C,R420*%
X263450000Y-102662500D03*
X263450000Y-103662500D03*
%TD*%
D10*
%TO.C,Q786*%
X377212500Y-68112500D03*
X377212500Y-70012500D03*
X379087500Y-69062500D03*
%TD*%
D17*
%TO.C,Q616*%
X190950000Y-95562500D03*
X189050000Y-95562500D03*
X190000000Y-97437500D03*
%TD*%
D12*
%TO.C,Q999*%
X287750000Y-165637500D03*
X289650000Y-165637500D03*
X288700000Y-163762500D03*
%TD*%
D13*
%TO.C,R636*%
X305300000Y-167300000D03*
X304300000Y-167300000D03*
%TD*%
D18*
%TO.C,D103*%
X254310000Y-141100000D03*
X255890000Y-141100000D03*
%TD*%
D27*
%TO.C,R388*%
X57480000Y-90000000D03*
X65100000Y-90000000D03*
%TD*%
D19*
%TO.C,D54*%
X49690000Y-188100000D03*
X48110000Y-188100000D03*
%TD*%
D12*
%TO.C,Q1044*%
X275950000Y-212837500D03*
X277850000Y-212837500D03*
X276900000Y-210962500D03*
%TD*%
D10*
%TO.C,Q727*%
X317512500Y-60512500D03*
X317512500Y-62412500D03*
X319387500Y-61462500D03*
%TD*%
D15*
%TO.C,R663*%
X363200000Y-154600000D03*
X363200000Y-153600000D03*
%TD*%
D13*
%TO.C,R319*%
X228000000Y-38000000D03*
X227000000Y-38000000D03*
%TD*%
D11*
%TO.C,R698*%
X336400000Y-201600000D03*
X337400000Y-201600000D03*
%TD*%
D27*
%TO.C,R410*%
X57480000Y-93000000D03*
X65100000Y-93000000D03*
%TD*%
D14*
%TO.C,R521*%
X80900000Y-99400000D03*
X80900000Y-100400000D03*
%TD*%
D17*
%TO.C,Q564*%
X203850000Y-65562500D03*
X201950000Y-65562500D03*
X202900000Y-67437500D03*
%TD*%
D10*
%TO.C,Q1180*%
X334762500Y-158250000D03*
X334762500Y-160150000D03*
X336637500Y-159200000D03*
%TD*%
D24*
%TO.C,D8*%
X102100000Y-173090000D03*
X102100000Y-171510000D03*
%TD*%
D10*
%TO.C,Q472*%
X139137500Y-104500000D03*
X139137500Y-106400000D03*
X141012500Y-105450000D03*
%TD*%
D17*
%TO.C,Q540*%
X216850000Y-65562500D03*
X214950000Y-65562500D03*
X215900000Y-67437500D03*
%TD*%
D14*
%TO.C,R399*%
X276050000Y-102662500D03*
X276050000Y-103662500D03*
%TD*%
D24*
%TO.C,D129*%
X354200000Y-167990000D03*
X354200000Y-166410000D03*
%TD*%
D20*
%TO.C,D37*%
X189000000Y-154610000D03*
X189000000Y-156190000D03*
%TD*%
D14*
%TO.C,R291*%
X114637500Y-113800000D03*
X114637500Y-114800000D03*
%TD*%
D15*
%TO.C,R205*%
X104600000Y-93600000D03*
X104600000Y-92600000D03*
%TD*%
D10*
%TO.C,Q42*%
X132162500Y-187350000D03*
X132162500Y-189250000D03*
X134037500Y-188300000D03*
%TD*%
%TO.C,Q1058*%
X326362500Y-203550000D03*
X326362500Y-205450000D03*
X328237500Y-204500000D03*
%TD*%
D15*
%TO.C,R87*%
X139500000Y-172400000D03*
X139500000Y-171400000D03*
%TD*%
D17*
%TO.C,Q420*%
X50173718Y-115062500D03*
X48273718Y-115062500D03*
X49223718Y-116937500D03*
%TD*%
D16*
%TO.C,Q664*%
X264387500Y-81412500D03*
X264387500Y-79512500D03*
X262512500Y-80462500D03*
%TD*%
D10*
%TO.C,Q956*%
X250362500Y-154050000D03*
X250362500Y-155950000D03*
X252237500Y-155000000D03*
%TD*%
%TO.C,Q1056*%
X322162500Y-207250000D03*
X322162500Y-209150000D03*
X324037500Y-208200000D03*
%TD*%
D12*
%TO.C,Q986*%
X287750000Y-170837500D03*
X289650000Y-170837500D03*
X288700000Y-168962500D03*
%TD*%
%TO.C,Q912*%
X295150000Y-137837500D03*
X297050000Y-137837500D03*
X296100000Y-135962500D03*
%TD*%
D17*
%TO.C,Q102*%
X133150000Y-149162500D03*
X131250000Y-149162500D03*
X132200000Y-151037500D03*
%TD*%
D12*
%TO.C,Q922*%
X287750000Y-132637500D03*
X289650000Y-132637500D03*
X288700000Y-130762500D03*
%TD*%
D17*
%TO.C,Q489*%
X141025000Y-108612500D03*
X139125000Y-108612500D03*
X140075000Y-110487500D03*
%TD*%
D11*
%TO.C,R687*%
X306400000Y-189300000D03*
X307400000Y-189300000D03*
%TD*%
D12*
%TO.C,Q353*%
X67026000Y-62949000D03*
X68926000Y-62949000D03*
X67976000Y-61074000D03*
%TD*%
D16*
%TO.C,Q292*%
X151213500Y-54761500D03*
X151213500Y-52861500D03*
X149338500Y-53811500D03*
%TD*%
D24*
%TO.C,D1*%
X67100000Y-173090000D03*
X67100000Y-171510000D03*
%TD*%
D11*
%TO.C,R644*%
X285800000Y-167300000D03*
X286800000Y-167300000D03*
%TD*%
D15*
%TO.C,R71*%
X114500000Y-172400000D03*
X114500000Y-171400000D03*
%TD*%
D17*
%TO.C,Q245*%
X118950000Y-89562500D03*
X117050000Y-89562500D03*
X118000000Y-91437500D03*
%TD*%
D10*
%TO.C,Q678*%
X281212500Y-60512500D03*
X281212500Y-62412500D03*
X283087500Y-61462500D03*
%TD*%
%TO.C,Q750*%
X345212500Y-75712500D03*
X345212500Y-77612500D03*
X347087500Y-76662500D03*
%TD*%
D16*
%TO.C,Q291*%
X151213500Y-58661500D03*
X151213500Y-56761500D03*
X149338500Y-57711500D03*
%TD*%
D13*
%TO.C,R536*%
X282450000Y-33062500D03*
X281450000Y-33062500D03*
%TD*%
D12*
%TO.C,Q1101*%
X287750000Y-209637500D03*
X289650000Y-209637500D03*
X288700000Y-207762500D03*
%TD*%
%TO.C,Q1009*%
X339250000Y-215137500D03*
X341150000Y-215137500D03*
X340200000Y-213262500D03*
%TD*%
%TO.C,Q1038*%
X291450000Y-192837500D03*
X293350000Y-192837500D03*
X292400000Y-190962500D03*
%TD*%
D15*
%TO.C,R485*%
X37600000Y-199200000D03*
X37600000Y-198200000D03*
%TD*%
D12*
%TO.C,Q637*%
X277900000Y-107300000D03*
X279800000Y-107300000D03*
X278850000Y-105425000D03*
%TD*%
D16*
%TO.C,Q669*%
X264387500Y-62412500D03*
X264387500Y-60512500D03*
X262512500Y-61462500D03*
%TD*%
D15*
%TO.C,R426*%
X123776000Y-65711500D03*
X123776000Y-64711500D03*
%TD*%
D24*
%TO.C,D128*%
X354200000Y-155990000D03*
X354200000Y-154410000D03*
%TD*%
D15*
%TO.C,R36*%
X190400000Y-203500000D03*
X190400000Y-202500000D03*
%TD*%
D10*
%TO.C,Q1085*%
X343162500Y-207250000D03*
X343162500Y-209150000D03*
X345037500Y-208200000D03*
%TD*%
D15*
%TO.C,R461*%
X47100000Y-212400000D03*
X47100000Y-211400000D03*
%TD*%
%TO.C,R85*%
X134500000Y-172400000D03*
X134500000Y-171400000D03*
%TD*%
D11*
%TO.C,R688*%
X323800000Y-201600000D03*
X324800000Y-201600000D03*
%TD*%
D14*
%TO.C,R418*%
X271050000Y-102662500D03*
X271050000Y-103662500D03*
%TD*%
D13*
%TO.C,R580*%
X293700000Y-134300000D03*
X292700000Y-134300000D03*
%TD*%
D11*
%TO.C,R582*%
X300600000Y-134300000D03*
X301600000Y-134300000D03*
%TD*%
D10*
%TO.C,Q1215*%
X347362500Y-166550000D03*
X347362500Y-168450000D03*
X349237500Y-167500000D03*
%TD*%
D17*
%TO.C,Q430*%
X50173718Y-124062500D03*
X48273718Y-124062500D03*
X49223718Y-125937500D03*
%TD*%
D12*
%TO.C,Q66*%
X199750000Y-202837500D03*
X201650000Y-202837500D03*
X200700000Y-200962500D03*
%TD*%
D10*
%TO.C,Q1170*%
X330562500Y-170250000D03*
X330562500Y-172150000D03*
X332437500Y-171200000D03*
%TD*%
D15*
%TO.C,R367*%
X49100000Y-203600000D03*
X49100000Y-202600000D03*
%TD*%
D10*
%TO.C,Q1150*%
X322162500Y-194250000D03*
X322162500Y-196150000D03*
X324037500Y-195200000D03*
%TD*%
D15*
%TO.C,R119*%
X187600000Y-182500000D03*
X187600000Y-181500000D03*
%TD*%
D16*
%TO.C,Q295*%
X160213500Y-58661500D03*
X160213500Y-56761500D03*
X158338500Y-57711500D03*
%TD*%
D15*
%TO.C,R104*%
X183500000Y-172400000D03*
X183500000Y-171400000D03*
%TD*%
D14*
%TO.C,R212*%
X177900000Y-99400000D03*
X177900000Y-100400000D03*
%TD*%
D13*
%TO.C,R12*%
X84500000Y-173400000D03*
X83500000Y-173400000D03*
%TD*%
%TO.C,R635*%
X299500000Y-167300000D03*
X298500000Y-167300000D03*
%TD*%
D11*
%TO.C,R187*%
X121900000Y-93600000D03*
X122900000Y-93600000D03*
%TD*%
D15*
%TO.C,R232*%
X185376000Y-65711500D03*
X185376000Y-64711500D03*
%TD*%
D25*
%TO.C,J12*%
X233300000Y-46880000D03*
D26*
X235840000Y-46880000D03*
X233300000Y-44340000D03*
X235840000Y-44340000D03*
X233300000Y-41800000D03*
X235840000Y-41800000D03*
X233300000Y-39260000D03*
X235840000Y-39260000D03*
X233300000Y-36720000D03*
X235840000Y-36720000D03*
X233300000Y-34180000D03*
X235840000Y-34180000D03*
X233300000Y-31640000D03*
X235840000Y-31640000D03*
X233300000Y-29100000D03*
X235840000Y-29100000D03*
%TD*%
D17*
%TO.C,Q222*%
X178950000Y-85062500D03*
X177050000Y-85062500D03*
X178000000Y-86937500D03*
%TD*%
D18*
%TO.C,D69*%
X157010000Y-99700000D03*
X158590000Y-99700000D03*
%TD*%
D16*
%TO.C,Q666*%
X264387500Y-73812500D03*
X264387500Y-71912500D03*
X262512500Y-72862500D03*
%TD*%
D17*
%TO.C,Q118*%
X193850000Y-195962500D03*
X191950000Y-195962500D03*
X192900000Y-197837500D03*
%TD*%
D12*
%TO.C,Q1011*%
X275950000Y-190837500D03*
X277850000Y-190837500D03*
X276900000Y-188962500D03*
%TD*%
%TO.C,Q1092*%
X287750000Y-214837500D03*
X289650000Y-214837500D03*
X288700000Y-212962500D03*
%TD*%
D17*
%TO.C,Q488*%
X150025000Y-108612500D03*
X148125000Y-108612500D03*
X149075000Y-110487500D03*
%TD*%
D16*
%TO.C,Q702*%
X296387500Y-77612500D03*
X296387500Y-75712500D03*
X294512500Y-76662500D03*
%TD*%
D11*
%TO.C,R287*%
X40523718Y-134900000D03*
X41523718Y-134900000D03*
%TD*%
D17*
%TO.C,Q214*%
X110950000Y-85062500D03*
X109050000Y-85062500D03*
X110000000Y-86937500D03*
%TD*%
%TO.C,Q620*%
X150950000Y-95562500D03*
X149050000Y-95562500D03*
X150000000Y-97437500D03*
%TD*%
%TO.C,Q930*%
X363750000Y-166862500D03*
X361850000Y-166862500D03*
X362800000Y-168737500D03*
%TD*%
D14*
%TO.C,R355*%
X56862500Y-160875000D03*
X56862500Y-161875000D03*
%TD*%
D17*
%TO.C,Q191*%
X170950000Y-80562500D03*
X169050000Y-80562500D03*
X170000000Y-82437500D03*
%TD*%
D16*
%TO.C,Q162*%
X182713500Y-46461500D03*
X182713500Y-44561500D03*
X180838500Y-45511500D03*
%TD*%
D27*
%TO.C,C2*%
X47000000Y-90400000D03*
X47000000Y-85400000D03*
%TD*%
D13*
%TO.C,R752*%
X318500000Y-201600000D03*
X317500000Y-201600000D03*
%TD*%
%TO.C,R16*%
X104500000Y-173400000D03*
X103500000Y-173400000D03*
%TD*%
D14*
%TO.C,R130*%
X187600000Y-158400000D03*
X187600000Y-159400000D03*
%TD*%
D10*
%TO.C,Q683*%
X285512500Y-71912500D03*
X285512500Y-73812500D03*
X287387500Y-72862500D03*
%TD*%
D12*
%TO.C,Q996*%
X331650000Y-215137500D03*
X333550000Y-215137500D03*
X332600000Y-213262500D03*
%TD*%
D11*
%TO.C,R179*%
X185900000Y-93600000D03*
X186900000Y-93600000D03*
%TD*%
D15*
%TO.C,R173*%
X103400000Y-93600000D03*
X103400000Y-92600000D03*
%TD*%
D17*
%TO.C,Q175*%
X166950000Y-80562500D03*
X165050000Y-80562500D03*
X166000000Y-82437500D03*
%TD*%
%TO.C,Q233*%
X90950000Y-85062500D03*
X89050000Y-85062500D03*
X90000000Y-86937500D03*
%TD*%
D15*
%TO.C,R233*%
X187176000Y-65711500D03*
X187176000Y-64711500D03*
%TD*%
D17*
%TO.C,Q194*%
X146950000Y-80562500D03*
X145050000Y-80562500D03*
X146000000Y-82437500D03*
%TD*%
D10*
%TO.C,Q757*%
X349512500Y-79512500D03*
X349512500Y-81412500D03*
X351387500Y-80462500D03*
%TD*%
D16*
%TO.C,Q696*%
X300687500Y-66212500D03*
X300687500Y-64312500D03*
X298812500Y-65262500D03*
%TD*%
D10*
%TO.C,Q1152*%
X326362500Y-134250000D03*
X326362500Y-136150000D03*
X328237500Y-135200000D03*
%TD*%
D17*
%TO.C,Q566*%
X195250000Y-119862500D03*
X193350000Y-119862500D03*
X194300000Y-121737500D03*
%TD*%
D15*
%TO.C,R98*%
X168500000Y-172400000D03*
X168500000Y-171400000D03*
%TD*%
D13*
%TO.C,R23*%
X124500000Y-173400000D03*
X123500000Y-173400000D03*
%TD*%
D17*
%TO.C,Q230*%
X114950000Y-85062500D03*
X113050000Y-85062500D03*
X114000000Y-86937500D03*
%TD*%
D16*
%TO.C,Q665*%
X264387500Y-77612500D03*
X264387500Y-75712500D03*
X262512500Y-76662500D03*
%TD*%
D17*
%TO.C,Q929*%
X367550000Y-166862500D03*
X365650000Y-166862500D03*
X366600000Y-168737500D03*
%TD*%
D12*
%TO.C,Q911*%
X291450000Y-137837500D03*
X293350000Y-137837500D03*
X292400000Y-135962500D03*
%TD*%
%TO.C,Q316*%
X140326000Y-62949000D03*
X142226000Y-62949000D03*
X141276000Y-61074000D03*
%TD*%
%TO.C,Q481*%
X131387500Y-114737500D03*
X133287500Y-114737500D03*
X132337500Y-112862500D03*
%TD*%
D25*
%TO.C,J2*%
X56100000Y-73000000D03*
D26*
X58640000Y-73000000D03*
X61180000Y-73000000D03*
X63720000Y-73000000D03*
X66260000Y-73000000D03*
X68800000Y-73000000D03*
X71340000Y-73000000D03*
X73880000Y-73000000D03*
X76420000Y-73000000D03*
X78960000Y-73000000D03*
X81500000Y-73000000D03*
X84040000Y-73000000D03*
X86580000Y-73000000D03*
X89120000Y-73000000D03*
X91660000Y-73000000D03*
X94200000Y-73000000D03*
X96740000Y-73000000D03*
X99280000Y-73000000D03*
X101820000Y-73000000D03*
X104360000Y-73000000D03*
X106900000Y-73000000D03*
%TD*%
D15*
%TO.C,R651*%
X363200000Y-143200000D03*
X363200000Y-142200000D03*
%TD*%
D16*
%TO.C,Q369*%
X86913500Y-50361500D03*
X86913500Y-48461500D03*
X85038500Y-49411500D03*
%TD*%
D10*
%TO.C,Q709*%
X347212500Y-107412500D03*
X347212500Y-109312500D03*
X349087500Y-108362500D03*
%TD*%
D17*
%TO.C,Q629*%
X78950000Y-95562500D03*
X77050000Y-95562500D03*
X78000000Y-97437500D03*
%TD*%
D16*
%TO.C,Q1007*%
X368737500Y-142650000D03*
X368737500Y-140750000D03*
X366862500Y-141700000D03*
%TD*%
D10*
%TO.C,Q679*%
X281212500Y-56712500D03*
X281212500Y-58612500D03*
X283087500Y-57662500D03*
%TD*%
%TO.C,Q1174*%
X330562500Y-194250000D03*
X330562500Y-196150000D03*
X332437500Y-195200000D03*
%TD*%
D12*
%TO.C,Q1000*%
X291450000Y-165637500D03*
X293350000Y-165637500D03*
X292400000Y-163762500D03*
%TD*%
D10*
%TO.C,Q1159*%
X326362500Y-178550000D03*
X326362500Y-180450000D03*
X328237500Y-179500000D03*
%TD*%
D24*
%TO.C,D19*%
X142100000Y-173090000D03*
X142100000Y-171510000D03*
%TD*%
D12*
%TO.C,Q358*%
X71526000Y-62949000D03*
X73426000Y-62949000D03*
X72476000Y-61074000D03*
%TD*%
%TO.C,Q508*%
X55112500Y-150412500D03*
X57012500Y-150412500D03*
X56062500Y-148537500D03*
%TD*%
D11*
%TO.C,R581*%
X294800000Y-134300000D03*
X295800000Y-134300000D03*
%TD*%
D12*
%TO.C,Q1063*%
X284050000Y-203837500D03*
X285950000Y-203837500D03*
X285000000Y-201962500D03*
%TD*%
D13*
%TO.C,R114*%
X189700000Y-194600000D03*
X188700000Y-194600000D03*
%TD*%
D15*
%TO.C,R264*%
X107576000Y-65711500D03*
X107576000Y-64711500D03*
%TD*%
D16*
%TO.C,Q139*%
X133213500Y-46461500D03*
X133213500Y-44561500D03*
X131338500Y-45511500D03*
%TD*%
D11*
%TO.C,R706*%
X294800000Y-200300000D03*
X295800000Y-200300000D03*
%TD*%
D13*
%TO.C,R575*%
X305300000Y-134300000D03*
X304300000Y-134300000D03*
%TD*%
D18*
%TO.C,D67*%
X173010000Y-99700000D03*
X174590000Y-99700000D03*
%TD*%
D13*
%TO.C,R342*%
X203700000Y-133200000D03*
X202700000Y-133200000D03*
%TD*%
D10*
%TO.C,Q1099*%
X264062500Y-157750000D03*
X264062500Y-159650000D03*
X265937500Y-158700000D03*
%TD*%
D13*
%TO.C,R574*%
X299500000Y-134300000D03*
X298500000Y-134300000D03*
%TD*%
D16*
%TO.C,Q6*%
X44137500Y-190050000D03*
X44137500Y-188150000D03*
X42262500Y-189100000D03*
%TD*%
D10*
%TO.C,Q47*%
X142162500Y-191350000D03*
X142162500Y-193250000D03*
X144037500Y-192300000D03*
%TD*%
D16*
%TO.C,Q288*%
X142213500Y-54761500D03*
X142213500Y-52861500D03*
X140338500Y-53811500D03*
%TD*%
D10*
%TO.C,Q1153*%
X326362500Y-142550000D03*
X326362500Y-144450000D03*
X328237500Y-143500000D03*
%TD*%
D13*
%TO.C,R10*%
X74500000Y-173400000D03*
X73500000Y-173400000D03*
%TD*%
D15*
%TO.C,R662*%
X364300000Y-150800000D03*
X364300000Y-149800000D03*
%TD*%
D17*
%TO.C,Q92*%
X145150000Y-144162500D03*
X143250000Y-144162500D03*
X144200000Y-146037500D03*
%TD*%
D16*
%TO.C,Q337*%
X55413500Y-54761500D03*
X55413500Y-52861500D03*
X53538500Y-53811500D03*
%TD*%
D11*
%TO.C,R540*%
X299450000Y-31962500D03*
X300450000Y-31962500D03*
%TD*%
D17*
%TO.C,Q246*%
X110950000Y-89562500D03*
X109050000Y-89562500D03*
X110000000Y-91437500D03*
%TD*%
D15*
%TO.C,R155*%
X155676000Y-65711500D03*
X155676000Y-64711500D03*
%TD*%
D12*
%TO.C,Q81*%
X199750000Y-181837500D03*
X201650000Y-181837500D03*
X200700000Y-179962500D03*
%TD*%
D15*
%TO.C,R142*%
X128676000Y-65711500D03*
X128676000Y-64711500D03*
%TD*%
D10*
%TO.C,Q935*%
X250362500Y-142950000D03*
X250362500Y-144850000D03*
X252237500Y-143900000D03*
%TD*%
D15*
%TO.C,R489*%
X37600000Y-208000000D03*
X37600000Y-207000000D03*
%TD*%
D17*
%TO.C,Q426*%
X45173718Y-119562500D03*
X43273718Y-119562500D03*
X44223718Y-121437500D03*
%TD*%
D12*
%TO.C,Q480*%
X116387500Y-114737500D03*
X118287500Y-114737500D03*
X117337500Y-112862500D03*
%TD*%
D17*
%TO.C,Q98*%
X169150000Y-144162500D03*
X167250000Y-144162500D03*
X168200000Y-146037500D03*
%TD*%
D16*
%TO.C,Q144*%
X142213500Y-46461500D03*
X142213500Y-44561500D03*
X140338500Y-45511500D03*
%TD*%
D12*
%TO.C,Q1064*%
X287750000Y-203837500D03*
X289650000Y-203837500D03*
X288700000Y-201962500D03*
%TD*%
D14*
%TO.C,R584*%
X255900000Y-135100000D03*
X255900000Y-136100000D03*
%TD*%
D17*
%TO.C,Q269*%
X186950000Y-95562500D03*
X185050000Y-95562500D03*
X186000000Y-97437500D03*
%TD*%
%TO.C,Q970*%
X279750000Y-152762500D03*
X277850000Y-152762500D03*
X278800000Y-154637500D03*
%TD*%
%TO.C,Q121*%
X193850000Y-179962500D03*
X191950000Y-179962500D03*
X192900000Y-181837500D03*
%TD*%
%TO.C,Q486*%
X173025000Y-108612500D03*
X171125000Y-108612500D03*
X172075000Y-110487500D03*
%TD*%
D13*
%TO.C,R742*%
X366900000Y-217300000D03*
X365900000Y-217300000D03*
%TD*%
D14*
%TO.C,R493*%
X183900000Y-99400000D03*
X183900000Y-100400000D03*
%TD*%
D15*
%TO.C,R124*%
X187600000Y-172500000D03*
X187600000Y-171500000D03*
%TD*%
D17*
%TO.C,*%
X165050000Y-89562500D03*
%TD*%
D16*
%TO.C,Q602*%
X53637500Y-185650000D03*
X53637500Y-183750000D03*
X51762500Y-184700000D03*
%TD*%
D10*
%TO.C,Q685*%
X285512500Y-64312500D03*
X285512500Y-66212500D03*
X287387500Y-65262500D03*
%TD*%
D24*
%TO.C,D26*%
X177100000Y-173090000D03*
X177100000Y-171510000D03*
%TD*%
D16*
%TO.C,Q778*%
X360387500Y-66212500D03*
X360387500Y-64312500D03*
X358512500Y-65262500D03*
%TD*%
%TO.C,Q733*%
X332687500Y-77612500D03*
X332687500Y-75712500D03*
X330812500Y-76662500D03*
%TD*%
D12*
%TO.C,Q1053*%
X302550000Y-187637500D03*
X304450000Y-187637500D03*
X303500000Y-185762500D03*
%TD*%
D17*
%TO.C,Q429*%
X54173718Y-124062500D03*
X52273718Y-124062500D03*
X53223718Y-125937500D03*
%TD*%
D15*
%TO.C,R95*%
X159500000Y-172400000D03*
X159500000Y-171400000D03*
%TD*%
D13*
%TO.C,R668*%
X288900000Y-178300000D03*
X287900000Y-178300000D03*
%TD*%
D16*
%TO.C,Q735*%
X332687500Y-70012500D03*
X332687500Y-68112500D03*
X330812500Y-69062500D03*
%TD*%
D15*
%TO.C,R269*%
X118376000Y-65711500D03*
X118376000Y-64711500D03*
%TD*%
D10*
%TO.C,Q721*%
X317512500Y-83312500D03*
X317512500Y-85212500D03*
X319387500Y-84262500D03*
%TD*%
D15*
%TO.C,R41*%
X190400000Y-156500000D03*
X190400000Y-155500000D03*
%TD*%
%TO.C,R366*%
X50100000Y-208000000D03*
X50100000Y-207000000D03*
%TD*%
D17*
%TO.C,Q545*%
X207850000Y-38562500D03*
X205950000Y-38562500D03*
X206900000Y-40437500D03*
%TD*%
D12*
%TO.C,Q1018*%
X298850000Y-181837500D03*
X300750000Y-181837500D03*
X299800000Y-179962500D03*
%TD*%
D16*
%TO.C,Q596*%
X53637500Y-212050000D03*
X53637500Y-210150000D03*
X51762500Y-211100000D03*
%TD*%
D10*
%TO.C,Q22*%
X87162500Y-179350000D03*
X87162500Y-181250000D03*
X89037500Y-180300000D03*
%TD*%
D12*
%TO.C,Q1093*%
X291450000Y-214837500D03*
X293350000Y-214837500D03*
X292400000Y-212962500D03*
%TD*%
D15*
%TO.C,R147*%
X137676000Y-65711500D03*
X137676000Y-64711500D03*
%TD*%
D12*
%TO.C,Q71*%
X195750000Y-187837500D03*
X197650000Y-187837500D03*
X196700000Y-185962500D03*
%TD*%
%TO.C,Q949*%
X287750000Y-143637500D03*
X289650000Y-143637500D03*
X288700000Y-141762500D03*
%TD*%
D25*
%TO.C,J22*%
X306950000Y-35762500D03*
D26*
X306950000Y-38302500D03*
X306950000Y-40842500D03*
X306950000Y-43382500D03*
X306950000Y-45922500D03*
X306950000Y-48462500D03*
X306950000Y-51002500D03*
X306950000Y-53542500D03*
X306950000Y-56082500D03*
X306950000Y-58622500D03*
X306950000Y-61162500D03*
X306950000Y-63702500D03*
X306950000Y-66242500D03*
X306950000Y-68782500D03*
X306950000Y-71322500D03*
X306950000Y-73862500D03*
X306950000Y-76402500D03*
X306950000Y-78942500D03*
X306950000Y-81482500D03*
X306950000Y-84022500D03*
X306950000Y-86562500D03*
%TD*%
D16*
%TO.C,Q152*%
X160213500Y-46461500D03*
X160213500Y-44561500D03*
X158338500Y-45511500D03*
%TD*%
D14*
%TO.C,R618*%
X255900000Y-161000000D03*
X255900000Y-162000000D03*
%TD*%
%TO.C,R405*%
X292050000Y-104662500D03*
X292050000Y-105662500D03*
%TD*%
D10*
%TO.C,Q1203*%
X343162500Y-154550000D03*
X343162500Y-156450000D03*
X345037500Y-155500000D03*
%TD*%
D12*
%TO.C,Q652*%
X312900000Y-109300000D03*
X314800000Y-109300000D03*
X313850000Y-107425000D03*
%TD*%
D11*
%TO.C,R353*%
X81762500Y-154075000D03*
X82762500Y-154075000D03*
%TD*%
D16*
%TO.C,Q3*%
X44137500Y-203250000D03*
X44137500Y-201350000D03*
X42262500Y-202300000D03*
%TD*%
D14*
%TO.C,R673*%
X276300000Y-197200000D03*
X276300000Y-198200000D03*
%TD*%
D12*
%TO.C,Q483*%
X154887500Y-114737500D03*
X156787500Y-114737500D03*
X155837500Y-112862500D03*
%TD*%
D10*
%TO.C,Q755*%
X345212500Y-56712500D03*
X345212500Y-58612500D03*
X347087500Y-57662500D03*
%TD*%
D12*
%TO.C,Q1029*%
X295150000Y-176637500D03*
X297050000Y-176637500D03*
X296100000Y-174762500D03*
%TD*%
D10*
%TO.C,Q718*%
X313212500Y-60512500D03*
X313212500Y-62412500D03*
X315087500Y-61462500D03*
%TD*%
D16*
%TO.C,Q475*%
X113775000Y-118850000D03*
X113775000Y-116950000D03*
X111900000Y-117900000D03*
%TD*%
D12*
%TO.C,Q1082*%
X306250000Y-198637500D03*
X308150000Y-198637500D03*
X307200000Y-196762500D03*
%TD*%
D15*
%TO.C,R641*%
X364300000Y-135600000D03*
X364300000Y-134600000D03*
%TD*%
D18*
%TO.C,D70*%
X149010000Y-99700000D03*
X150590000Y-99700000D03*
%TD*%
D13*
%TO.C,R348*%
X61962500Y-154075000D03*
X60962500Y-154075000D03*
%TD*%
D24*
%TO.C,D6*%
X92100000Y-173090000D03*
X92100000Y-171510000D03*
%TD*%
D15*
%TO.C,R161*%
X169176000Y-65711500D03*
X169176000Y-64711500D03*
%TD*%
D17*
%TO.C,Q928*%
X363750000Y-171062500D03*
X361850000Y-171062500D03*
X362800000Y-172937500D03*
%TD*%
D10*
%TO.C,Q511*%
X40325000Y-158525000D03*
X40325000Y-160425000D03*
X42200000Y-159475000D03*
%TD*%
D16*
%TO.C,Q738*%
X332687500Y-58612500D03*
X332687500Y-56712500D03*
X330812500Y-57662500D03*
%TD*%
%TO.C,Q158*%
X173713500Y-46461500D03*
X173713500Y-44561500D03*
X171838500Y-45511500D03*
%TD*%
D15*
%TO.C,R43*%
X190400000Y-146500000D03*
X190400000Y-145500000D03*
%TD*%
D12*
%TO.C,Q998*%
X284050000Y-165637500D03*
X285950000Y-165637500D03*
X285000000Y-163762500D03*
%TD*%
D17*
%TO.C,Q630*%
X70950000Y-95562500D03*
X69050000Y-95562500D03*
X70000000Y-97437500D03*
%TD*%
D15*
%TO.C,R231*%
X182676000Y-65711500D03*
X182676000Y-64711500D03*
%TD*%
D12*
%TO.C,Q569*%
X120125000Y-110487500D03*
X122025000Y-110487500D03*
X121075000Y-108612500D03*
%TD*%
D16*
%TO.C,Q657*%
X268687500Y-77612500D03*
X268687500Y-75712500D03*
X266812500Y-76662500D03*
%TD*%
D17*
%TO.C,Q565*%
X191250000Y-119862500D03*
X189350000Y-119862500D03*
X190300000Y-121737500D03*
%TD*%
D14*
%TO.C,R558*%
X269500000Y-193800000D03*
X269500000Y-194800000D03*
%TD*%
D10*
%TO.C,Q62*%
X182162500Y-203350000D03*
X182162500Y-205250000D03*
X184037500Y-204300000D03*
%TD*%
D17*
%TO.C,Q438*%
X59173718Y-133062500D03*
X57273718Y-133062500D03*
X58223718Y-134937500D03*
%TD*%
D15*
%TO.C,R358*%
X39600000Y-203600000D03*
X39600000Y-202600000D03*
%TD*%
D10*
%TO.C,Q1134*%
X317962500Y-170250000D03*
X317962500Y-172150000D03*
X319837500Y-171200000D03*
%TD*%
D16*
%TO.C,Q399*%
X113913500Y-50361500D03*
X113913500Y-48461500D03*
X112038500Y-49411500D03*
%TD*%
D18*
%TO.C,D101*%
X250410000Y-215200000D03*
X251990000Y-215200000D03*
%TD*%
D27*
%TO.C,R74*%
X65100000Y-99000000D03*
X57480000Y-99000000D03*
%TD*%
D10*
%TO.C,Q53*%
X142162500Y-195350000D03*
X142162500Y-197250000D03*
X144037500Y-196300000D03*
%TD*%
D12*
%TO.C,Q1005*%
X279650000Y-179837500D03*
X281550000Y-179837500D03*
X280600000Y-177962500D03*
%TD*%
%TO.C,Q991*%
X306250000Y-170837500D03*
X308150000Y-170837500D03*
X307200000Y-168962500D03*
%TD*%
D17*
%TO.C,Q419*%
X54173718Y-115062500D03*
X52273718Y-115062500D03*
X53223718Y-116937500D03*
%TD*%
D14*
%TO.C,R219*%
X121900000Y-99400000D03*
X121900000Y-100400000D03*
%TD*%
D24*
%TO.C,D130*%
X354200000Y-179990000D03*
X354200000Y-178410000D03*
%TD*%
D14*
%TO.C,R653*%
X281300000Y-175200000D03*
X281300000Y-176200000D03*
%TD*%
D28*
%TO.C,C16*%
X36650000Y-63750000D03*
X38550000Y-63750000D03*
%TD*%
D17*
%TO.C,Q437*%
X63173718Y-133062500D03*
X61273718Y-133062500D03*
X62223718Y-134937500D03*
%TD*%
%TO.C,Q258*%
X146950000Y-89562500D03*
X145050000Y-89562500D03*
X146000000Y-91437500D03*
%TD*%
D10*
%TO.C,Q585*%
X65825000Y-163525000D03*
X65825000Y-165425000D03*
X67700000Y-164475000D03*
%TD*%
D17*
%TO.C,Q221*%
X186950000Y-85062500D03*
X185050000Y-85062500D03*
X186000000Y-86937500D03*
%TD*%
D10*
%TO.C,Q493*%
X122038500Y-46861500D03*
X122038500Y-48761500D03*
X123913500Y-47811500D03*
%TD*%
D12*
%TO.C,Q941*%
X302550000Y-148837500D03*
X304450000Y-148837500D03*
X303500000Y-146962500D03*
%TD*%
D11*
%TO.C,R696*%
X309600000Y-200300000D03*
X310600000Y-200300000D03*
%TD*%
D15*
%TO.C,R251*%
X77876000Y-65711500D03*
X77876000Y-64711500D03*
%TD*%
D11*
%TO.C,R731*%
X306400000Y-211300000D03*
X307400000Y-211300000D03*
%TD*%
D16*
%TO.C,Q364*%
X82413500Y-50361500D03*
X82413500Y-48461500D03*
X80538500Y-49411500D03*
%TD*%
D12*
%TO.C,Q1036*%
X284050000Y-192837500D03*
X285950000Y-192837500D03*
X285000000Y-190962500D03*
%TD*%
D11*
%TO.C,R708*%
X306400000Y-200300000D03*
X307400000Y-200300000D03*
%TD*%
D14*
%TO.C,R407*%
X299650000Y-104662500D03*
X299650000Y-105662500D03*
%TD*%
D13*
%TO.C,R350*%
X61962500Y-153075000D03*
X60962500Y-153075000D03*
%TD*%
D16*
%TO.C,Q302*%
X173713500Y-54761500D03*
X173713500Y-52861500D03*
X171838500Y-53811500D03*
%TD*%
D15*
%TO.C,R39*%
X190400000Y-188500000D03*
X190400000Y-187500000D03*
%TD*%
%TO.C,R242*%
X58076000Y-65711500D03*
X58076000Y-64711500D03*
%TD*%
D17*
%TO.C,Q183*%
X102950000Y-80562500D03*
X101050000Y-80562500D03*
X102000000Y-82437500D03*
%TD*%
D16*
%TO.C,Q377*%
X91413500Y-54761500D03*
X91413500Y-52861500D03*
X89538500Y-53811500D03*
%TD*%
D11*
%TO.C,R740*%
X351800000Y-155200000D03*
X352800000Y-155200000D03*
%TD*%
D15*
%TO.C,R157*%
X160176000Y-65711500D03*
X160176000Y-64711500D03*
%TD*%
%TO.C,R254*%
X85076000Y-65711500D03*
X85076000Y-64711500D03*
%TD*%
D10*
%TO.C,Q728*%
X317512500Y-56712500D03*
X317512500Y-58612500D03*
X319387500Y-57662500D03*
%TD*%
D16*
%TO.C,Q299*%
X169213500Y-58661500D03*
X169213500Y-56761500D03*
X167338500Y-57711500D03*
%TD*%
%TO.C,Q769*%
X364687500Y-70012500D03*
X364687500Y-68112500D03*
X362812500Y-69062500D03*
%TD*%
D11*
%TO.C,R738*%
X351800000Y-143200000D03*
X352800000Y-143200000D03*
%TD*%
D17*
%TO.C,Q114*%
X153150000Y-154162500D03*
X151250000Y-154162500D03*
X152200000Y-156037500D03*
%TD*%
D14*
%TO.C,R699*%
X268600000Y-135100000D03*
X268600000Y-136100000D03*
%TD*%
D24*
%TO.C,D21*%
X152100000Y-173090000D03*
X152100000Y-171510000D03*
%TD*%
D16*
%TO.C,Q692*%
X300687500Y-81412500D03*
X300687500Y-79512500D03*
X298812500Y-80462500D03*
%TD*%
D19*
%TO.C,D57*%
X40190000Y-179300000D03*
X38610000Y-179300000D03*
%TD*%
D27*
%TO.C,R411*%
X44410000Y-90000000D03*
X36790000Y-90000000D03*
%TD*%
D14*
%TO.C,R211*%
X185900000Y-99400000D03*
X185900000Y-100400000D03*
%TD*%
D11*
%TO.C,R649*%
X306400000Y-167300000D03*
X307400000Y-167300000D03*
%TD*%
D16*
%TO.C,Q603*%
X53637500Y-181250000D03*
X53637500Y-179350000D03*
X51762500Y-180300000D03*
%TD*%
D12*
%TO.C,Q1031*%
X302550000Y-176637500D03*
X304450000Y-176637500D03*
X303500000Y-174762500D03*
%TD*%
%TO.C,Q1015*%
X287750000Y-181837500D03*
X289650000Y-181837500D03*
X288700000Y-179962500D03*
%TD*%
D10*
%TO.C,Q60*%
X172162500Y-191350000D03*
X172162500Y-193250000D03*
X174037500Y-192300000D03*
%TD*%
D22*
%TO.C,C14*%
X108350000Y-160300000D03*
X108350000Y-158400000D03*
%TD*%
D17*
%TO.C,Q208*%
X158950000Y-85062500D03*
X157050000Y-85062500D03*
X158000000Y-86937500D03*
%TD*%
D16*
%TO.C,Q336*%
X55413500Y-58661500D03*
X55413500Y-56761500D03*
X53538500Y-57711500D03*
%TD*%
D14*
%TO.C,R525*%
X177600000Y-150600000D03*
X177600000Y-151600000D03*
%TD*%
D12*
%TO.C,Q1091*%
X284050000Y-214837500D03*
X285950000Y-214837500D03*
X285000000Y-212962500D03*
%TD*%
D14*
%TO.C,R457*%
X207500000Y-123800000D03*
X207500000Y-124800000D03*
%TD*%
%TO.C,R305*%
X133375000Y-109450000D03*
X133375000Y-110450000D03*
%TD*%
D12*
%TO.C,Q76*%
X195750000Y-150837500D03*
X197650000Y-150837500D03*
X196700000Y-148962500D03*
%TD*%
D25*
%TO.C,J21*%
X274950000Y-35762500D03*
D26*
X274950000Y-38302500D03*
X274950000Y-40842500D03*
X274950000Y-43382500D03*
X274950000Y-45922500D03*
X274950000Y-48462500D03*
X274950000Y-51002500D03*
X274950000Y-53542500D03*
X274950000Y-56082500D03*
X274950000Y-58622500D03*
X274950000Y-61162500D03*
X274950000Y-63702500D03*
X274950000Y-66242500D03*
X274950000Y-68782500D03*
X274950000Y-71322500D03*
X274950000Y-73862500D03*
X274950000Y-76402500D03*
X274950000Y-78942500D03*
X274950000Y-81482500D03*
X274950000Y-84022500D03*
X274950000Y-86562500D03*
%TD*%
D16*
%TO.C,Q655*%
X268687500Y-85212500D03*
X268687500Y-83312500D03*
X266812500Y-84262500D03*
%TD*%
D17*
%TO.C,Q243*%
X134950000Y-89562500D03*
X133050000Y-89562500D03*
X134000000Y-91437500D03*
%TD*%
D15*
%TO.C,R198*%
X160600000Y-93600000D03*
X160600000Y-92600000D03*
%TD*%
D10*
%TO.C,Q1083*%
X264062500Y-142950000D03*
X264062500Y-144850000D03*
X265937500Y-143900000D03*
%TD*%
D11*
%TO.C,R701*%
X340600000Y-201600000D03*
X341600000Y-201600000D03*
%TD*%
D10*
%TO.C,Q677*%
X281212500Y-64312500D03*
X281212500Y-66212500D03*
X283087500Y-65262500D03*
%TD*%
D15*
%TO.C,R93*%
X154500000Y-172400000D03*
X154500000Y-171400000D03*
%TD*%
D16*
%TO.C,Q332*%
X50913500Y-54761500D03*
X50913500Y-52861500D03*
X49038500Y-53811500D03*
%TD*%
%TO.C,Q601*%
X53637500Y-190050000D03*
X53637500Y-188150000D03*
X51762500Y-189100000D03*
%TD*%
D18*
%TO.C,D123*%
X268010000Y-155900000D03*
X269590000Y-155900000D03*
%TD*%
D11*
%TO.C,R188*%
X113900000Y-93600000D03*
X114900000Y-93600000D03*
%TD*%
D17*
%TO.C,Q410*%
X73573718Y-123062500D03*
X71673718Y-123062500D03*
X72623718Y-124937500D03*
%TD*%
D11*
%TO.C,R330*%
X198900000Y-51500000D03*
X199900000Y-51500000D03*
%TD*%
D13*
%TO.C,R117*%
X189700000Y-189600000D03*
X188700000Y-189600000D03*
%TD*%
D16*
%TO.C,Q146*%
X146713500Y-46461500D03*
X146713500Y-44561500D03*
X144838500Y-45511500D03*
%TD*%
D15*
%TO.C,R54*%
X73500000Y-172400000D03*
X73500000Y-171400000D03*
%TD*%
D10*
%TO.C,Q592*%
X76825000Y-155525000D03*
X76825000Y-157425000D03*
X78700000Y-156475000D03*
%TD*%
D12*
%TO.C,Q398*%
X107526000Y-62949000D03*
X109426000Y-62949000D03*
X108476000Y-61074000D03*
%TD*%
%TO.C,Q913*%
X298850000Y-137837500D03*
X300750000Y-137837500D03*
X299800000Y-135962500D03*
%TD*%
D13*
%TO.C,R325*%
X228000000Y-65000000D03*
X227000000Y-65000000D03*
%TD*%
D11*
%TO.C,R578*%
X285800000Y-134300000D03*
X286800000Y-134300000D03*
%TD*%
D17*
%TO.C,Q249*%
X86950000Y-89562500D03*
X85050000Y-89562500D03*
X86000000Y-91437500D03*
%TD*%
D10*
%TO.C,Q1151*%
X326362500Y-130550000D03*
X326362500Y-132450000D03*
X328237500Y-131500000D03*
%TD*%
D15*
%TO.C,R204*%
X112600000Y-93600000D03*
X112600000Y-92600000D03*
%TD*%
D16*
%TO.C,Q376*%
X91413500Y-58661500D03*
X91413500Y-56761500D03*
X89538500Y-57711500D03*
%TD*%
D12*
%TO.C,Q1020*%
X306250000Y-181837500D03*
X308150000Y-181837500D03*
X307200000Y-179962500D03*
%TD*%
%TO.C,Q1067*%
X298850000Y-203837500D03*
X300750000Y-203837500D03*
X299800000Y-201962500D03*
%TD*%
D17*
%TO.C,Q283*%
X74950000Y-95562500D03*
X73050000Y-95562500D03*
X74000000Y-97437500D03*
%TD*%
D15*
%TO.C,R315*%
X62762500Y-149975000D03*
X62762500Y-148975000D03*
%TD*%
D10*
%TO.C,Q1062*%
X264062500Y-135550000D03*
X264062500Y-137450000D03*
X265937500Y-136500000D03*
%TD*%
D15*
%TO.C,R194*%
X192600000Y-93600000D03*
X192600000Y-92600000D03*
%TD*%
D11*
%TO.C,R680*%
X319600000Y-201600000D03*
X320600000Y-201600000D03*
%TD*%
D16*
%TO.C,Q150*%
X155713500Y-46461500D03*
X155713500Y-44561500D03*
X153838500Y-45511500D03*
%TD*%
D14*
%TO.C,R712*%
X269600000Y-146200000D03*
X269600000Y-147200000D03*
%TD*%
D25*
%TO.C,J25*%
X267060000Y-125040000D03*
D26*
X267060000Y-122500000D03*
X264520000Y-125040000D03*
X264520000Y-122500000D03*
X261980000Y-125040000D03*
X261980000Y-122500000D03*
X259440000Y-125040000D03*
X259440000Y-122500000D03*
X256900000Y-125040000D03*
X256900000Y-122500000D03*
X254360000Y-125040000D03*
X254360000Y-122500000D03*
X251820000Y-125040000D03*
X251820000Y-122500000D03*
X249280000Y-125040000D03*
X249280000Y-122500000D03*
%TD*%
D24*
%TO.C,D24*%
X167100000Y-173090000D03*
X167100000Y-171510000D03*
%TD*%
D10*
%TO.C,Q17*%
X72162500Y-175350000D03*
X72162500Y-177250000D03*
X74037500Y-176300000D03*
%TD*%
D13*
%TO.C,R456*%
X193800000Y-126000000D03*
X192800000Y-126000000D03*
%TD*%
D11*
%TO.C,R735*%
X351800000Y-131200000D03*
X352800000Y-131200000D03*
%TD*%
D25*
%TO.C,J8*%
X50900000Y-93500000D03*
%TD*%
D11*
%TO.C,R328*%
X198900000Y-42500000D03*
X199900000Y-42500000D03*
%TD*%
D17*
%TO.C,Q96*%
X161150000Y-144162500D03*
X159250000Y-144162500D03*
X160200000Y-146037500D03*
%TD*%
D14*
%TO.C,R398*%
X279850000Y-102662500D03*
X279850000Y-103662500D03*
%TD*%
D10*
%TO.C,Q14*%
X67162500Y-183350000D03*
X67162500Y-185250000D03*
X69037500Y-184300000D03*
%TD*%
%TO.C,Q1202*%
X343162500Y-146250000D03*
X343162500Y-148150000D03*
X345037500Y-147200000D03*
%TD*%
D17*
%TO.C,Q518*%
X216850000Y-34062500D03*
X214950000Y-34062500D03*
X215900000Y-35937500D03*
%TD*%
D14*
%TO.C,R118*%
X187600000Y-179400000D03*
X187600000Y-180400000D03*
%TD*%
D16*
%TO.C,Q301*%
X173713500Y-58661500D03*
X173713500Y-56761500D03*
X171838500Y-57711500D03*
%TD*%
D25*
%TO.C,J23*%
X338950000Y-35762500D03*
D26*
X338950000Y-38302500D03*
X338950000Y-40842500D03*
X338950000Y-43382500D03*
X338950000Y-45922500D03*
X338950000Y-48462500D03*
X338950000Y-51002500D03*
X338950000Y-53542500D03*
X338950000Y-56082500D03*
X338950000Y-58622500D03*
X338950000Y-61162500D03*
X338950000Y-63702500D03*
X338950000Y-66242500D03*
X338950000Y-68782500D03*
X338950000Y-71322500D03*
X338950000Y-73862500D03*
X338950000Y-76402500D03*
X338950000Y-78942500D03*
X338950000Y-81482500D03*
X338950000Y-84022500D03*
X338950000Y-86562500D03*
%TD*%
D10*
%TO.C,Q1087*%
X347362500Y-203550000D03*
X347362500Y-205450000D03*
X349237500Y-204500000D03*
%TD*%
D14*
%TO.C,R610*%
X281300000Y-142200000D03*
X281300000Y-143200000D03*
%TD*%
D19*
%TO.C,D50*%
X49690000Y-205700000D03*
X48110000Y-205700000D03*
%TD*%
D12*
%TO.C,Q644*%
X290100000Y-109300000D03*
X292000000Y-109300000D03*
X291050000Y-107425000D03*
%TD*%
D17*
%TO.C,Q89*%
X133150000Y-144162500D03*
X131250000Y-144162500D03*
X132200000Y-146037500D03*
%TD*%
D10*
%TO.C,Q1149*%
X322162500Y-190550000D03*
X322162500Y-192450000D03*
X324037500Y-191500000D03*
%TD*%
D15*
%TO.C,R431*%
X79862500Y-144975000D03*
X79862500Y-143975000D03*
%TD*%
D27*
%TO.C,C1*%
X54900000Y-85400000D03*
X54900000Y-90400000D03*
%TD*%
D10*
%TO.C,Q1450*%
X381512500Y-68112500D03*
X381512500Y-70012500D03*
X383387500Y-69062500D03*
%TD*%
D15*
%TO.C,R363*%
X50100000Y-212400000D03*
X50100000Y-211400000D03*
%TD*%
D12*
%TO.C,Q1041*%
X302550000Y-192837500D03*
X304450000Y-192837500D03*
X303500000Y-190962500D03*
%TD*%
D10*
%TO.C,Q753*%
X345212500Y-64412500D03*
X345212500Y-66312500D03*
X347087500Y-65362500D03*
%TD*%
D17*
%TO.C,Q618*%
X166950000Y-95562500D03*
X165050000Y-95562500D03*
X166000000Y-97437500D03*
%TD*%
D15*
%TO.C,R101*%
X174500000Y-172400000D03*
X174500000Y-171400000D03*
%TD*%
D10*
%TO.C,Q1172*%
X330562500Y-182250000D03*
X330562500Y-184150000D03*
X332437500Y-183200000D03*
%TD*%
%TO.C,Q714*%
X313212500Y-75712500D03*
X313212500Y-77612500D03*
X315087500Y-76662500D03*
%TD*%
D17*
%TO.C,*%
X85050000Y-89562500D03*
%TD*%
D25*
%TO.C,J9*%
X54062500Y-160075000D03*
%TD*%
D21*
%TO.C,C40*%
X255000000Y-215250000D03*
X255000000Y-217150000D03*
%TD*%
D15*
%TO.C,R255*%
X86876000Y-65711500D03*
X86876000Y-64711500D03*
%TD*%
D10*
%TO.C,Q680*%
X285512500Y-83312500D03*
X285512500Y-85212500D03*
X287387500Y-84262500D03*
%TD*%
M02*
