%TF.GenerationSoftware,KiCad,Pcbnew,9.0.7*%
%TF.CreationDate,2026-03-30T23:57:58+02:00*%
%TF.ProjectId,Whole_CPU_V1.0,57686f6c-655f-4435-9055-5f56312e302e,rev?*%
%TF.SameCoordinates,Original*%
%TF.FileFunction,Copper,L6,Bot*%
%TF.FilePolarity,Positive*%
%FSLAX46Y46*%
G04 Gerber Fmt 4.6, Leading zero omitted, Abs format (unit mm)*
G04 Created by KiCad (PCBNEW 9.0.7) date 2026-03-30 23:57:58*
%MOMM*%
%LPD*%
G01*
G04 APERTURE LIST*
%TA.AperFunction,ComponentPad*%
%ADD10R,1.700000X1.700000*%
%TD*%
%TA.AperFunction,ComponentPad*%
%ADD11C,1.700000*%
%TD*%
%TA.AperFunction,ViaPad*%
%ADD12C,1.000000*%
%TD*%
%TA.AperFunction,ViaPad*%
%ADD13C,0.600000*%
%TD*%
%TA.AperFunction,Conductor*%
%ADD14C,0.600000*%
%TD*%
%TA.AperFunction,Conductor*%
%ADD15C,0.400000*%
%TD*%
%TA.AperFunction,Conductor*%
%ADD16C,0.200000*%
%TD*%
G04 APERTURE END LIST*
D10*
%TO.P,J28,1,Pin_1*%
%TO.N,VCC*%
X249715000Y-171925000D03*
D11*
%TO.P,J28,2,Pin_2*%
%TO.N,GND*%
X249715000Y-169385000D03*
%TD*%
D10*
%TO.P,J7,1,Pin_1*%
%TO.N,Faling Edge*%
X59900000Y-98400000D03*
%TD*%
%TO.P,J6,1,Pin_1*%
%TO.N,VCC*%
X65080000Y-106900000D03*
D11*
%TO.P,J6,2,Pin_2*%
%TO.N,GND*%
X67620000Y-106900000D03*
%TO.P,J6,3,Pin_3*%
%TO.N,rst*%
X70160000Y-106900000D03*
%TO.P,J6,4,Pin_4*%
%TO.N,VCC*%
X72700000Y-106900000D03*
%TO.P,J6,5,Pin_5*%
%TO.N,Rising Edge*%
X75240000Y-106900000D03*
%TO.P,J6,6,Pin_6*%
%TO.N,TIME STEP IN 0*%
X77780000Y-106900000D03*
%TO.P,J6,7,Pin_7*%
%TO.N,TIME STEP IN 1*%
X80320000Y-106900000D03*
%TO.P,J6,8,Pin_8*%
%TO.N,TIME STEP IN 2*%
X82860000Y-106900000D03*
%TO.P,J6,9,Pin_9*%
%TO.N,FLAG STORE N*%
X85400000Y-106900000D03*
%TO.P,J6,10,Pin_10*%
%TO.N,FLAG STORE Z*%
X87940000Y-106900000D03*
%TO.P,J6,11,Pin_11*%
%TO.N,FLAG STORE U*%
X90480000Y-106900000D03*
%TO.P,J6,12,Pin_12*%
%TO.N,FLAG STORE O*%
X93020000Y-106900000D03*
%TO.P,J6,13,Pin_13*%
%TO.N,FLAG STORE C*%
X95560000Y-106900000D03*
%TO.P,J6,14,Pin_14*%
%TO.N,TIME STEP 0*%
X98100000Y-106900000D03*
%TO.P,J6,15,Pin_15*%
%TO.N,TIME STEP 1*%
X100640000Y-106900000D03*
%TO.P,J6,16,Pin_16*%
%TO.N,TIME STEP 2*%
X103180000Y-106900000D03*
%TO.P,J6,17,Pin_17*%
%TO.N,FLAG N*%
X105720000Y-106900000D03*
%TO.P,J6,18,Pin_18*%
%TO.N,FLAG Z*%
X108260000Y-106900000D03*
%TO.P,J6,19,Pin_19*%
%TO.N,FLAG U*%
X110800000Y-106900000D03*
%TO.P,J6,20,Pin_20*%
%TO.N,FLAG O*%
X113340000Y-106900000D03*
%TO.P,J6,21,Pin_21*%
%TO.N,FLAG C*%
X115880000Y-106900000D03*
%TD*%
D10*
%TO.P,J24,1,Pin_1*%
%TO.N,VCC*%
X355500000Y-35100000D03*
D11*
%TO.P,J24,2,Pin_2*%
%TO.N,GND*%
X355500000Y-37640000D03*
%TO.P,J24,3,Pin_3*%
%TO.N,rst*%
X355500000Y-40180000D03*
%TO.P,J24,4,Pin_4*%
%TO.N,READ D*%
X355500000Y-42720000D03*
%TO.P,J24,5,Pin_5*%
%TO.N,Rising Edge*%
X355500000Y-45260000D03*
%TO.P,J24,6,Pin_6*%
%TO.N,Main bus 0*%
X355500000Y-47800000D03*
%TO.P,J24,7,Pin_7*%
%TO.N,Main bus 1*%
X355500000Y-50340000D03*
%TO.P,J24,8,Pin_8*%
%TO.N,Main bus 2*%
X355500000Y-52880000D03*
%TO.P,J24,9,Pin_9*%
%TO.N,Main bus 3*%
X355500000Y-55420000D03*
%TO.P,J24,10,Pin_10*%
%TO.N,Main bus 4*%
X355500000Y-57960000D03*
%TO.P,J24,11,Pin_11*%
%TO.N,Main bus 5*%
X355500000Y-60500000D03*
%TO.P,J24,12,Pin_12*%
%TO.N,Main bus 6*%
X355500000Y-63040000D03*
%TO.P,J24,13,Pin_13*%
%TO.N,ALU FLAG N*%
X355500000Y-65580000D03*
%TO.P,J24,14,Pin_14*%
%TO.N,Net-(J24-Pin_14)*%
X355500000Y-68120000D03*
%TO.P,J24,15,Pin_15*%
%TO.N,Net-(J24-Pin_15)*%
X355500000Y-70660000D03*
%TO.P,J24,16,Pin_16*%
%TO.N,Net-(J24-Pin_16)*%
X355500000Y-73200000D03*
%TO.P,J24,17,Pin_17*%
%TO.N,Net-(J24-Pin_17)*%
X355500000Y-75740000D03*
%TO.P,J24,18,Pin_18*%
%TO.N,Net-(J24-Pin_18)*%
X355500000Y-78280000D03*
%TO.P,J24,19,Pin_19*%
%TO.N,Net-(J24-Pin_19)*%
X355500000Y-80820000D03*
%TO.P,J24,20,Pin_20*%
%TO.N,Net-(J24-Pin_20)*%
X355500000Y-83360000D03*
%TO.P,J24,21,Pin_21*%
%TO.N,Net-(J24-Pin_21)*%
X355500000Y-85900000D03*
%TD*%
D10*
%TO.P,J5,1,Pin_1*%
%TO.N,VCC*%
X142900000Y-35400000D03*
D11*
%TO.P,J5,2,Pin_2*%
%TO.N,GND*%
X145440000Y-35400000D03*
%TO.P,J5,3,Pin_3*%
%TO.N,rst*%
X147980000Y-35400000D03*
%TO.P,J5,4,Pin_4*%
%TO.N,TIME STEP 0*%
X150520000Y-35400000D03*
%TO.P,J5,5,Pin_5*%
%TO.N,Faling Edge*%
X153060000Y-35400000D03*
%TO.P,J5,6,Pin_6*%
%TO.N,Buss0*%
X155600000Y-35400000D03*
%TO.P,J5,7,Pin_7*%
%TO.N,Buss1*%
X158140000Y-35400000D03*
%TO.P,J5,8,Pin_8*%
%TO.N,Buss2*%
X160680000Y-35400000D03*
%TO.P,J5,9,Pin_9*%
%TO.N,Buss3*%
X163220000Y-35400000D03*
%TO.P,J5,10,Pin_10*%
%TO.N,Buss4*%
X165760000Y-35400000D03*
%TO.P,J5,11,Pin_11*%
%TO.N,Buss5*%
X168300000Y-35400000D03*
%TO.P,J5,12,Pin_12*%
%TO.N,Buss6*%
X170840000Y-35400000D03*
%TO.P,J5,13,Pin_13*%
%TO.N,Buss7*%
X173380000Y-35400000D03*
%TO.P,J5,14,Pin_14*%
%TO.N,TEMP ADR 8*%
X175920000Y-35400000D03*
%TO.P,J5,15,Pin_15*%
%TO.N,TEMP ADR 9*%
X178460000Y-35400000D03*
%TO.P,J5,16,Pin_16*%
%TO.N,TEMP ADR 10*%
X181000000Y-35400000D03*
%TO.P,J5,17,Pin_17*%
%TO.N,TEMP ADR 11*%
X183540000Y-35400000D03*
%TO.P,J5,18,Pin_18*%
%TO.N,TEMP ADR 12*%
X186080000Y-35400000D03*
%TO.P,J5,19,Pin_19*%
%TO.N,TEMP ADR 13*%
X188620000Y-35400000D03*
%TO.P,J5,20,Pin_20*%
%TO.N,TEMP ADR 14*%
X191160000Y-35400000D03*
%TO.P,J5,21,Pin_21*%
%TO.N,TEMP ADR 15*%
X193700000Y-35400000D03*
%TD*%
D10*
%TO.P,J11,1,Pin_1*%
%TO.N,ADR 7*%
X29400000Y-25620000D03*
D11*
%TO.P,J11,2,Pin_2*%
%TO.N,ADR 15*%
X26860000Y-25620000D03*
%TO.P,J11,3,Pin_3*%
%TO.N,ADR 6*%
X29400000Y-28160000D03*
%TO.P,J11,4,Pin_4*%
%TO.N,ADR 14*%
X26860000Y-28160000D03*
%TO.P,J11,5,Pin_5*%
%TO.N,ADR 5*%
X29400000Y-30700000D03*
%TO.P,J11,6,Pin_6*%
%TO.N,ADR 13*%
X26860000Y-30700000D03*
%TO.P,J11,7,Pin_7*%
%TO.N,ADR 4*%
X29400000Y-33240000D03*
%TO.P,J11,8,Pin_8*%
%TO.N,ADR 12*%
X26860000Y-33240000D03*
%TO.P,J11,9,Pin_9*%
%TO.N,ADR 3*%
X29400000Y-35780000D03*
%TO.P,J11,10,Pin_10*%
%TO.N,ADR 11*%
X26860000Y-35780000D03*
%TO.P,J11,11,Pin_11*%
%TO.N,ADR 2*%
X29400000Y-38320000D03*
%TO.P,J11,12,Pin_12*%
%TO.N,ADR 10*%
X26860000Y-38320000D03*
%TO.P,J11,13,Pin_13*%
%TO.N,ADR 1*%
X29400000Y-40860000D03*
%TO.P,J11,14,Pin_14*%
%TO.N,ADR 9*%
X26860000Y-40860000D03*
%TO.P,J11,15,Pin_15*%
%TO.N,ADR 0*%
X29400000Y-43400000D03*
%TO.P,J11,16,Pin_16*%
%TO.N,ADR 8*%
X26860000Y-43400000D03*
%TD*%
D10*
%TO.P,J27,1,Pin_1*%
%TO.N,VCC*%
X233960000Y-210000000D03*
D11*
%TO.P,J27,2,Pin_2*%
%TO.N,GND*%
X236500000Y-210000000D03*
%TD*%
D10*
%TO.P,J4,1,Pin_1*%
%TO.N,VCC*%
X65100000Y-35400000D03*
D11*
%TO.P,J4,2,Pin_2*%
%TO.N,GND*%
X67640000Y-35400000D03*
%TO.P,J4,3,Pin_3*%
%TO.N,rst*%
X70180000Y-35400000D03*
%TO.P,J4,4,Pin_4*%
%TO.N,TIME STEP 1*%
X72720000Y-35400000D03*
%TO.P,J4,5,Pin_5*%
%TO.N,Faling Edge*%
X75260000Y-35400000D03*
%TO.P,J4,6,Pin_6*%
%TO.N,Buss0*%
X77800000Y-35400000D03*
%TO.P,J4,7,Pin_7*%
%TO.N,Buss1*%
X80340000Y-35400000D03*
%TO.P,J4,8,Pin_8*%
%TO.N,Buss2*%
X82880000Y-35400000D03*
%TO.P,J4,9,Pin_9*%
%TO.N,Buss3*%
X85420000Y-35400000D03*
%TO.P,J4,10,Pin_10*%
%TO.N,Buss4*%
X87960000Y-35400000D03*
%TO.P,J4,11,Pin_11*%
%TO.N,Buss5*%
X90500000Y-35400000D03*
%TO.P,J4,12,Pin_12*%
%TO.N,Buss6*%
X93040000Y-35400000D03*
%TO.P,J4,13,Pin_13*%
%TO.N,Buss7*%
X95580000Y-35400000D03*
%TO.P,J4,14,Pin_14*%
%TO.N,TEMP ADR 0*%
X98120000Y-35400000D03*
%TO.P,J4,15,Pin_15*%
%TO.N,TEMP ADR 1*%
X100660000Y-35400000D03*
%TO.P,J4,16,Pin_16*%
%TO.N,TEMP ADR 2*%
X103200000Y-35400000D03*
%TO.P,J4,17,Pin_17*%
%TO.N,TEMP ADR 3*%
X105740000Y-35400000D03*
%TO.P,J4,18,Pin_18*%
%TO.N,TEMP ADR 4*%
X108280000Y-35400000D03*
%TO.P,J4,19,Pin_19*%
%TO.N,TEMP ADR 5*%
X110820000Y-35400000D03*
%TO.P,J4,20,Pin_20*%
%TO.N,TEMP ADR 6*%
X113360000Y-35400000D03*
%TO.P,J4,21,Pin_21*%
%TO.N,TEMP ADR 7*%
X115900000Y-35400000D03*
%TD*%
D10*
%TO.P,J19,1,Pin_1*%
%TO.N,VCC*%
X232000000Y-105200000D03*
D11*
%TO.P,J19,2,Pin_2*%
%TO.N,GND*%
X234540000Y-105200000D03*
%TD*%
D10*
%TO.P,J10,1,Pin_1*%
%TO.N,Buss0*%
X29340000Y-120800000D03*
D11*
%TO.P,J10,2,Pin_2*%
%TO.N,VCC*%
X26800000Y-120800000D03*
%TO.P,J10,3,Pin_3*%
%TO.N,Buss1*%
X29340000Y-123340000D03*
%TO.P,J10,4,Pin_4*%
%TO.N,GND*%
X26800000Y-123340000D03*
%TO.P,J10,5,Pin_5*%
%TO.N,Buss2*%
X29340000Y-125880000D03*
%TO.P,J10,6,Pin_6*%
%TO.N,CLOCK*%
X26800000Y-125880000D03*
%TO.P,J10,7,Pin_7*%
%TO.N,Buss3*%
X29340000Y-128420000D03*
%TO.P,J10,8,Pin_8*%
%TO.N,rst*%
X26800000Y-128420000D03*
%TO.P,J10,9,Pin_9*%
%TO.N,Buss4*%
X29340000Y-130960000D03*
%TO.P,J10,10,Pin_10*%
%TO.N,GND*%
X26800000Y-130960000D03*
%TO.P,J10,11,Pin_11*%
%TO.N,Buss5*%
X29340000Y-133500000D03*
%TO.P,J10,12,Pin_12*%
%TO.N,R{slash}W out*%
X26800000Y-133500000D03*
%TO.P,J10,13,Pin_13*%
%TO.N,Buss6*%
X29340000Y-136040000D03*
%TO.P,J10,14,Pin_14*%
%TO.N,GND*%
X26800000Y-136040000D03*
%TO.P,J10,15,Pin_15*%
%TO.N,Buss7*%
X29340000Y-138580000D03*
%TO.P,J10,16,Pin_16*%
%TO.N,VCC*%
X26800000Y-138580000D03*
%TD*%
D10*
%TO.P,J1,1,Pin_1*%
%TO.N,VCC*%
X39000000Y-194600000D03*
D11*
%TO.P,J1,2,Pin_2*%
%TO.N,GND*%
X39000000Y-192060000D03*
%TO.P,J1,3,Pin_3*%
%TO.N,rst*%
X39000000Y-189520000D03*
%TO.P,J1,4,Pin_4*%
%TO.N,Read New Instruction*%
X39000000Y-186980000D03*
%TO.P,J1,5,Pin_5*%
%TO.N,Faling Edge*%
X39000000Y-184440000D03*
%TO.P,J1,6,Pin_6*%
%TO.N,Buss0*%
X39000000Y-181900000D03*
%TO.P,J1,7,Pin_7*%
%TO.N,Buss1*%
X39000000Y-179360000D03*
%TO.P,J1,8,Pin_8*%
%TO.N,Buss2*%
X39000000Y-176820000D03*
%TO.P,J1,9,Pin_9*%
%TO.N,Buss3*%
X39000000Y-174280000D03*
%TO.P,J1,10,Pin_10*%
%TO.N,Buss4*%
X39000000Y-171740000D03*
%TO.P,J1,11,Pin_11*%
%TO.N,Buss5*%
X39000000Y-169200000D03*
%TO.P,J1,12,Pin_12*%
%TO.N,Buss6*%
X39000000Y-166660000D03*
%TO.P,J1,13,Pin_13*%
%TO.N,Buss7*%
X39000000Y-164120000D03*
%TO.P,J1,14,Pin_14*%
%TO.N,Net-(J1-Pin_14)*%
X39000000Y-161580000D03*
%TO.P,J1,15,Pin_15*%
%TO.N,Net-(J1-Pin_15)*%
X39000000Y-159040000D03*
%TO.P,J1,16,Pin_16*%
%TO.N,Net-(J1-Pin_16)*%
X39000000Y-156500000D03*
%TO.P,J1,17,Pin_17*%
%TO.N,Net-(J1-Pin_17)*%
X39000000Y-153960000D03*
%TO.P,J1,18,Pin_18*%
%TO.N,Net-(J1-Pin_18)*%
X39000000Y-151420000D03*
%TO.P,J1,19,Pin_19*%
%TO.N,Net-(J1-Pin_19)*%
X39000000Y-148880000D03*
%TO.P,J1,20,Pin_20*%
%TO.N,Net-(J1-Pin_20)*%
X39000000Y-146340000D03*
%TO.P,J1,21,Pin_21*%
%TO.N,Net-(J1-Pin_21)*%
X39000000Y-143800000D03*
%TD*%
D10*
%TO.P,J18,1,Pin_1*%
%TO.N,VCC*%
X302525000Y-25800000D03*
D11*
%TO.P,J18,2,Pin_2*%
%TO.N,GND*%
X305065000Y-25800000D03*
%TD*%
D10*
%TO.P,J17,1,Pin_1*%
%TO.N,VCC*%
X350800000Y-114300000D03*
D11*
%TO.P,J17,2,Pin_2*%
%TO.N,GND*%
X350800000Y-111760000D03*
%TD*%
D10*
%TO.P,J3,1,Pin_1*%
%TO.N,VCC*%
X142900000Y-73000000D03*
D11*
%TO.P,J3,2,Pin_2*%
%TO.N,GND*%
X145440000Y-73000000D03*
%TO.P,J3,3,Pin_3*%
%TO.N,rst*%
X147980000Y-73000000D03*
%TO.P,J3,4,Pin_4*%
%TO.N,VCC*%
X150520000Y-73000000D03*
%TO.P,J3,5,Pin_5*%
%TO.N,Rising Edge*%
X153060000Y-73000000D03*
%TO.P,J3,6,Pin_6*%
%TO.N,NEXT ADR 8*%
X155600000Y-73000000D03*
%TO.P,J3,7,Pin_7*%
%TO.N,NEXT ADR 9*%
X158140000Y-73000000D03*
%TO.P,J3,8,Pin_8*%
%TO.N,NEXT ADR 10*%
X160680000Y-73000000D03*
%TO.P,J3,9,Pin_9*%
%TO.N,NEXT ADR 11*%
X163220000Y-73000000D03*
%TO.P,J3,10,Pin_10*%
%TO.N,NEXT ADR 12*%
X165760000Y-73000000D03*
%TO.P,J3,11,Pin_11*%
%TO.N,NEXT ADR 13*%
X168300000Y-73000000D03*
%TO.P,J3,12,Pin_12*%
%TO.N,NEXT ADR 14*%
X170840000Y-73000000D03*
%TO.P,J3,13,Pin_13*%
%TO.N,NEXT ADR 15*%
X173380000Y-73000000D03*
%TO.P,J3,14,Pin_14*%
%TO.N,STORED ADR 8*%
X175920000Y-73000000D03*
%TO.P,J3,15,Pin_15*%
%TO.N,STORED ADR 9*%
X178460000Y-73000000D03*
%TO.P,J3,16,Pin_16*%
%TO.N,STORED ADR 10*%
X181000000Y-73000000D03*
%TO.P,J3,17,Pin_17*%
%TO.N,STORED ADR 11*%
X183540000Y-73000000D03*
%TO.P,J3,18,Pin_18*%
%TO.N,STORED ADR 12*%
X186080000Y-73000000D03*
%TO.P,J3,19,Pin_19*%
%TO.N,STORED ADR 13*%
X188620000Y-73000000D03*
%TO.P,J3,20,Pin_20*%
%TO.N,STORED ADR 14*%
X191160000Y-73000000D03*
%TO.P,J3,21,Pin_21*%
%TO.N,STORED ADR 15*%
X193700000Y-73000000D03*
%TD*%
D10*
%TO.P,J2,1,Pin_1*%
%TO.N,VCC*%
X65100000Y-73000000D03*
D11*
%TO.P,J2,2,Pin_2*%
%TO.N,GND*%
X67640000Y-73000000D03*
%TO.P,J2,3,Pin_3*%
%TO.N,rst*%
X70180000Y-73000000D03*
%TO.P,J2,4,Pin_4*%
%TO.N,VCC*%
X72720000Y-73000000D03*
%TO.P,J2,5,Pin_5*%
%TO.N,Rising Edge*%
X75260000Y-73000000D03*
%TO.P,J2,6,Pin_6*%
%TO.N,NEXT ADR 0*%
X77800000Y-73000000D03*
%TO.P,J2,7,Pin_7*%
%TO.N,NEXT ADR 1*%
X80340000Y-73000000D03*
%TO.P,J2,8,Pin_8*%
%TO.N,NEXT ADR 2*%
X82880000Y-73000000D03*
%TO.P,J2,9,Pin_9*%
%TO.N,NEXT ADR 3*%
X85420000Y-73000000D03*
%TO.P,J2,10,Pin_10*%
%TO.N,NEXT ADR 4*%
X87960000Y-73000000D03*
%TO.P,J2,11,Pin_11*%
%TO.N,NEXT ADR 5*%
X90500000Y-73000000D03*
%TO.P,J2,12,Pin_12*%
%TO.N,NEXT ADR 6*%
X93040000Y-73000000D03*
%TO.P,J2,13,Pin_13*%
%TO.N,NEXT ADR 7*%
X95580000Y-73000000D03*
%TO.P,J2,14,Pin_14*%
%TO.N,STORED ADR 0*%
X98120000Y-73000000D03*
%TO.P,J2,15,Pin_15*%
%TO.N,STORED ADR 1*%
X100660000Y-73000000D03*
%TO.P,J2,16,Pin_16*%
%TO.N,STORED ADR 2*%
X103200000Y-73000000D03*
%TO.P,J2,17,Pin_17*%
%TO.N,STORED ADR 3*%
X105740000Y-73000000D03*
%TO.P,J2,18,Pin_18*%
%TO.N,STORED ADR 4*%
X108280000Y-73000000D03*
%TO.P,J2,19,Pin_19*%
%TO.N,STORED ADR 5*%
X110820000Y-73000000D03*
%TO.P,J2,20,Pin_20*%
%TO.N,STORED ADR 6*%
X113360000Y-73000000D03*
%TO.P,J2,21,Pin_21*%
%TO.N,STORED ADR 7*%
X115900000Y-73000000D03*
%TD*%
D10*
%TO.P,J22,1,Pin_1*%
%TO.N,VCC*%
X291500000Y-35100000D03*
D11*
%TO.P,J22,2,Pin_2*%
%TO.N,GND*%
X291500000Y-37640000D03*
%TO.P,J22,3,Pin_3*%
%TO.N,rst*%
X291500000Y-40180000D03*
%TO.P,J22,4,Pin_4*%
%TO.N,READ B*%
X291500000Y-42720000D03*
%TO.P,J22,5,Pin_5*%
%TO.N,Rising Edge*%
X291500000Y-45260000D03*
%TO.P,J22,6,Pin_6*%
%TO.N,Main bus 0*%
X291500000Y-47800000D03*
%TO.P,J22,7,Pin_7*%
%TO.N,Main bus 1*%
X291500000Y-50340000D03*
%TO.P,J22,8,Pin_8*%
%TO.N,Main bus 2*%
X291500000Y-52880000D03*
%TO.P,J22,9,Pin_9*%
%TO.N,Main bus 3*%
X291500000Y-55420000D03*
%TO.P,J22,10,Pin_10*%
%TO.N,Main bus 4*%
X291500000Y-57960000D03*
%TO.P,J22,11,Pin_11*%
%TO.N,Main bus 5*%
X291500000Y-60500000D03*
%TO.P,J22,12,Pin_12*%
%TO.N,Main bus 6*%
X291500000Y-63040000D03*
%TO.P,J22,13,Pin_13*%
%TO.N,ALU FLAG N*%
X291500000Y-65580000D03*
%TO.P,J22,14,Pin_14*%
%TO.N,Net-(J22-Pin_14)*%
X291500000Y-68120000D03*
%TO.P,J22,15,Pin_15*%
%TO.N,Net-(J22-Pin_15)*%
X291500000Y-70660000D03*
%TO.P,J22,16,Pin_16*%
%TO.N,Net-(J22-Pin_16)*%
X291500000Y-73200000D03*
%TO.P,J22,17,Pin_17*%
%TO.N,Net-(J22-Pin_17)*%
X291500000Y-75740000D03*
%TO.P,J22,18,Pin_18*%
%TO.N,Net-(J22-Pin_18)*%
X291500000Y-78280000D03*
%TO.P,J22,19,Pin_19*%
%TO.N,Net-(J22-Pin_19)*%
X291500000Y-80820000D03*
%TO.P,J22,20,Pin_20*%
%TO.N,Net-(J22-Pin_20)*%
X291500000Y-83360000D03*
%TO.P,J22,21,Pin_21*%
%TO.N,Net-(J22-Pin_21)*%
X291500000Y-85900000D03*
%TD*%
D10*
%TO.P,J21,1,Pin_1*%
%TO.N,VCC*%
X259550000Y-35137500D03*
D11*
%TO.P,J21,2,Pin_2*%
%TO.N,GND*%
X259550000Y-37677500D03*
%TO.P,J21,3,Pin_3*%
%TO.N,rst*%
X259550000Y-40217500D03*
%TO.P,J21,4,Pin_4*%
%TO.N,READ A*%
X259550000Y-42757500D03*
%TO.P,J21,5,Pin_5*%
%TO.N,Rising Edge*%
X259550000Y-45297500D03*
%TO.P,J21,6,Pin_6*%
%TO.N,Main bus 0*%
X259550000Y-47837500D03*
%TO.P,J21,7,Pin_7*%
%TO.N,Main bus 1*%
X259550000Y-50377500D03*
%TO.P,J21,8,Pin_8*%
%TO.N,Main bus 2*%
X259550000Y-52917500D03*
%TO.P,J21,9,Pin_9*%
%TO.N,Main bus 3*%
X259550000Y-55457500D03*
%TO.P,J21,10,Pin_10*%
%TO.N,Main bus 4*%
X259550000Y-57997500D03*
%TO.P,J21,11,Pin_11*%
%TO.N,Main bus 5*%
X259550000Y-60537500D03*
%TO.P,J21,12,Pin_12*%
%TO.N,Main bus 6*%
X259550000Y-63077500D03*
%TO.P,J21,13,Pin_13*%
%TO.N,ALU FLAG N*%
X259550000Y-65617500D03*
%TO.P,J21,14,Pin_14*%
%TO.N,Net-(J21-Pin_14)*%
X259550000Y-68157500D03*
%TO.P,J21,15,Pin_15*%
%TO.N,Net-(J21-Pin_15)*%
X259550000Y-70697500D03*
%TO.P,J21,16,Pin_16*%
%TO.N,Net-(J21-Pin_16)*%
X259550000Y-73237500D03*
%TO.P,J21,17,Pin_17*%
%TO.N,Net-(J21-Pin_17)*%
X259550000Y-75777500D03*
%TO.P,J21,18,Pin_18*%
%TO.N,Net-(J21-Pin_18)*%
X259550000Y-78317500D03*
%TO.P,J21,19,Pin_19*%
%TO.N,Net-(J21-Pin_19)*%
X259550000Y-80857500D03*
%TO.P,J21,20,Pin_20*%
%TO.N,Net-(J21-Pin_20)*%
X259550000Y-83397500D03*
%TO.P,J21,21,Pin_21*%
%TO.N,Net-(J21-Pin_21)*%
X259550000Y-85937500D03*
%TD*%
D10*
%TO.P,J8,1,Pin_1*%
%TO.N,Rising Edge*%
X59900000Y-93500000D03*
%TD*%
%TO.P,J23,1,Pin_1*%
%TO.N,VCC*%
X323500000Y-35100000D03*
D11*
%TO.P,J23,2,Pin_2*%
%TO.N,GND*%
X323500000Y-37640000D03*
%TO.P,J23,3,Pin_3*%
%TO.N,rst*%
X323500000Y-40180000D03*
%TO.P,J23,4,Pin_4*%
%TO.N,READ C*%
X323500000Y-42720000D03*
%TO.P,J23,5,Pin_5*%
%TO.N,Rising Edge*%
X323500000Y-45260000D03*
%TO.P,J23,6,Pin_6*%
%TO.N,Main bus 0*%
X323500000Y-47800000D03*
%TO.P,J23,7,Pin_7*%
%TO.N,Main bus 1*%
X323500000Y-50340000D03*
%TO.P,J23,8,Pin_8*%
%TO.N,Main bus 2*%
X323500000Y-52880000D03*
%TO.P,J23,9,Pin_9*%
%TO.N,Main bus 3*%
X323500000Y-55420000D03*
%TO.P,J23,10,Pin_10*%
%TO.N,Main bus 4*%
X323500000Y-57960000D03*
%TO.P,J23,11,Pin_11*%
%TO.N,Main bus 5*%
X323500000Y-60500000D03*
%TO.P,J23,12,Pin_12*%
%TO.N,Main bus 6*%
X323500000Y-63040000D03*
%TO.P,J23,13,Pin_13*%
%TO.N,ALU FLAG N*%
X323500000Y-65580000D03*
%TO.P,J23,14,Pin_14*%
%TO.N,Net-(J23-Pin_14)*%
X323500000Y-68120000D03*
%TO.P,J23,15,Pin_15*%
%TO.N,Net-(J23-Pin_15)*%
X323500000Y-70660000D03*
%TO.P,J23,16,Pin_16*%
%TO.N,Net-(J23-Pin_16)*%
X323500000Y-73200000D03*
%TO.P,J23,17,Pin_17*%
%TO.N,Net-(J23-Pin_17)*%
X323500000Y-75740000D03*
%TO.P,J23,18,Pin_18*%
%TO.N,Net-(J23-Pin_18)*%
X323500000Y-78280000D03*
%TO.P,J23,19,Pin_19*%
%TO.N,Net-(J23-Pin_19)*%
X323500000Y-80820000D03*
%TO.P,J23,20,Pin_20*%
%TO.N,Net-(J23-Pin_20)*%
X323500000Y-83360000D03*
%TO.P,J23,21,Pin_21*%
%TO.N,Net-(J23-Pin_21)*%
X323500000Y-85900000D03*
%TD*%
D10*
%TO.P,J9,1,Pin_1*%
%TO.N,Read New Instruction*%
X63062500Y-160075000D03*
%TD*%
D12*
%TO.N,GND*%
X53400000Y-97000000D03*
%TO.N,VCC*%
X74000000Y-84200000D03*
X45500000Y-84400000D03*
X46000000Y-96100000D03*
X74000000Y-95900000D03*
%TO.N,GND*%
X70300000Y-92200000D03*
X70300000Y-86800000D03*
X49500000Y-92100000D03*
X49400000Y-86800000D03*
X247640000Y-176250000D03*
%TO.N,VCC*%
X247740000Y-178550000D03*
D13*
%TO.N,!JMP*%
X49400000Y-141900000D03*
X73800000Y-175200000D03*
X136300000Y-104600000D03*
%TO.N,!BOP*%
X83700000Y-174500000D03*
X124700000Y-119100000D03*
X55200000Y-138300000D03*
%TO.N,!BON*%
X135400000Y-119200000D03*
X59100000Y-138400000D03*
X88600000Y-174500000D03*
%TO.N,!BOZ*%
X149200000Y-119600000D03*
X93700000Y-174400000D03*
X63100000Y-138300000D03*
%TO.N,!BNZ*%
X67100000Y-138400000D03*
X98500000Y-174400000D03*
X162600000Y-121200000D03*
X149200000Y-121100000D03*
X163400000Y-119801000D03*
%TO.N,!BOO*%
X103300000Y-174300000D03*
X71000000Y-138300000D03*
X151500000Y-122700000D03*
%TO.N,!BNO*%
X75000000Y-138400000D03*
X193300000Y-109300000D03*
X108700000Y-174400000D03*
%TO.N,!BOU*%
X113700000Y-174600000D03*
X182900000Y-104200000D03*
X79100000Y-138300000D03*
%TO.N,!BNU*%
X83100000Y-138500000D03*
X118800000Y-174500000D03*
X169500000Y-104100000D03*
%TO.N,!BOC*%
X123800000Y-174300000D03*
X162300000Y-109100000D03*
X87100000Y-138200000D03*
%TO.N,!BNC*%
X146300000Y-103800000D03*
X128900000Y-174500000D03*
X92400000Y-142600000D03*
%TO.N,!Clear*%
X208300000Y-128300000D03*
X132500000Y-175000000D03*
X135100000Y-142300000D03*
%TO.N,!Load*%
X48400000Y-147400000D03*
X66500000Y-168400000D03*
X50000000Y-167300000D03*
X66100000Y-154700000D03*
X133031786Y-168400000D03*
X137500000Y-175100000D03*
X137200000Y-142800000D03*
%TO.N,!Store*%
X142500000Y-175000000D03*
X130800000Y-149500000D03*
X135100000Y-147600000D03*
X200100000Y-132800000D03*
%TO.N,!INC*%
X134150000Y-157000000D03*
X215800000Y-136000000D03*
X147500000Y-174800000D03*
X213248942Y-117799000D03*
%TO.N,!DEC*%
X152500000Y-175100000D03*
X138150000Y-156900000D03*
%TO.N,!RS*%
X157500000Y-175100000D03*
X142150000Y-156900000D03*
%TO.N,!NOT*%
X145299000Y-156900000D03*
X162500000Y-174800000D03*
%TO.N,!AND*%
X195100000Y-129800000D03*
X148599000Y-157500000D03*
X203700000Y-129400000D03*
X167500000Y-175000000D03*
%TO.N,!OR*%
X206700000Y-132200000D03*
X195000000Y-132200000D03*
X172500000Y-175000000D03*
X152599000Y-157611500D03*
%TO.N,!XOR*%
X177500000Y-175000000D03*
X190200000Y-133700000D03*
X203800000Y-125400000D03*
X156599000Y-157500000D03*
%TO.N,!ADD*%
X182500000Y-175000000D03*
X206700000Y-118400000D03*
X188300000Y-134700000D03*
X160599000Y-157500000D03*
%TO.N,!ADC*%
X213400000Y-118800000D03*
X187500000Y-175000000D03*
X200500000Y-136300000D03*
X194000000Y-137300000D03*
X166745984Y-152045984D03*
%TO.N,!MOV*%
X170300000Y-152500000D03*
X201200000Y-133100000D03*
X192500000Y-175000000D03*
X175600000Y-146700000D03*
X196300000Y-136000000D03*
%TO.N,Net-(Q17-G)*%
X207000000Y-168700000D03*
X221000000Y-199500000D03*
X119900000Y-218200000D03*
X221000000Y-178500000D03*
X109900000Y-176300000D03*
X119900000Y-176300000D03*
X206600000Y-199500000D03*
X89900000Y-218200000D03*
X80000000Y-176300000D03*
X99800000Y-176300000D03*
X221000000Y-189200000D03*
X109900000Y-218200000D03*
X205700000Y-189200000D03*
X67200000Y-218200000D03*
X99800000Y-218200000D03*
X64100000Y-211100000D03*
X221000000Y-168700000D03*
X89900000Y-176200000D03*
X80000000Y-218200000D03*
X206900000Y-178500000D03*
%TO.N,Net-(Q15-G)*%
X220400000Y-194200000D03*
X220400000Y-172999000D03*
X115000000Y-180300000D03*
X94800000Y-180300000D03*
X114900000Y-217500000D03*
X71600000Y-184100000D03*
X209600000Y-194200000D03*
X64100000Y-206700000D03*
X209700000Y-173100000D03*
X67700000Y-217500000D03*
X71600000Y-217500000D03*
X94800000Y-217500000D03*
%TO.N,Net-(Q21-G)*%
X206800000Y-157400000D03*
X85000000Y-216800000D03*
X64000000Y-202300000D03*
X154800000Y-216800000D03*
X154800000Y-184300000D03*
X219800000Y-157400000D03*
X144800000Y-184300000D03*
X85000000Y-184300000D03*
X68200000Y-216800000D03*
X135100000Y-216800000D03*
X124700000Y-216800000D03*
X124800000Y-184400000D03*
X144700000Y-216800000D03*
X135100000Y-184300000D03*
%TO.N,Net-(Q25-G)*%
X159900000Y-188200000D03*
X64100000Y-198000000D03*
X104800000Y-188300000D03*
X104800000Y-216100000D03*
X159900000Y-216100000D03*
X139700000Y-188300000D03*
X68700000Y-216100000D03*
X139700000Y-216100000D03*
%TO.N,Net-(Q40-G)*%
X129900000Y-215400000D03*
X129900000Y-192200000D03*
X69200000Y-215400000D03*
X164800000Y-215400000D03*
X184800000Y-192200000D03*
X175000000Y-215400000D03*
X184800000Y-215400000D03*
X175000000Y-192300000D03*
X64100000Y-193500000D03*
X164800000Y-192300000D03*
%TO.N,Net-(Q53-G)*%
X64200000Y-189200000D03*
X179900000Y-196300000D03*
X149800000Y-214700000D03*
X149800000Y-196300000D03*
X179900000Y-214700000D03*
X69700000Y-214700000D03*
%TO.N,Net-(Q57-G)*%
X70200000Y-214000000D03*
X169700000Y-214000000D03*
X169800000Y-200300000D03*
X64100000Y-184800000D03*
%TO.N,Net-(Q603-D)*%
X189900000Y-204300000D03*
X64200000Y-180500000D03*
X70700000Y-213300000D03*
X190500000Y-213300000D03*
%TO.N,Net-(Q10-G)*%
X74706250Y-200806250D03*
X188800000Y-201900000D03*
X188800000Y-207600000D03*
X74700000Y-207600000D03*
%TO.N,Net-(Q11-G)*%
X169200000Y-208300000D03*
X188200000Y-198400000D03*
X169200000Y-197600000D03*
X188200000Y-208300000D03*
X74099000Y-197701000D03*
X74100000Y-208300000D03*
%TO.N,Net-(Q12-G)*%
X73500000Y-209000000D03*
X179300000Y-209000000D03*
X149200000Y-209000000D03*
X73500000Y-194400000D03*
X187600000Y-209000000D03*
X149200000Y-193400000D03*
X187600000Y-195000000D03*
X168600000Y-194200000D03*
X168600000Y-209000000D03*
X179300000Y-193500000D03*
%TO.N,Net-(Q13-G)*%
X129300000Y-189300000D03*
X72900000Y-190900000D03*
X129300000Y-209700000D03*
X72900000Y-209700000D03*
X148600000Y-209700000D03*
X148600000Y-189900000D03*
%TO.N,Net-(Q14-G)*%
X217400000Y-163400000D03*
X159300000Y-210400000D03*
X148000000Y-210400000D03*
X72300000Y-210400000D03*
X148000000Y-186600000D03*
X217400000Y-153100000D03*
X104200000Y-185400000D03*
X139100000Y-210400000D03*
X207300000Y-153100000D03*
X128700000Y-185900000D03*
X159300000Y-185300000D03*
X128700000Y-210400000D03*
X139100000Y-185600000D03*
X72300000Y-187500000D03*
X207200000Y-163400000D03*
X104200000Y-210400000D03*
%TO.N,Net-(Q18-G)*%
X84400000Y-211100000D03*
X84400000Y-181200000D03*
X208800000Y-211100000D03*
X210200000Y-183400000D03*
X103600000Y-182000000D03*
X103600000Y-211100000D03*
X218000000Y-184600000D03*
X124200000Y-181500000D03*
X208800000Y-204700000D03*
X124200000Y-211100000D03*
%TO.N,Net-(Q1-D)*%
X218600000Y-173700000D03*
X206850000Y-194750000D03*
X83800000Y-211800000D03*
X94200000Y-177500000D03*
X114400000Y-177200000D03*
X218600000Y-194800000D03*
X71000000Y-180800000D03*
X123600000Y-211800000D03*
X218600000Y-185200000D03*
X204800000Y-211800000D03*
X94200000Y-211800000D03*
X103000000Y-211800000D03*
X114400000Y-211800000D03*
X71000000Y-211800000D03*
X207000000Y-184000000D03*
X103000000Y-178600000D03*
X83800000Y-177800000D03*
X123600000Y-178000000D03*
X204800000Y-204700000D03*
X207100000Y-173700000D03*
D12*
%TO.N,Faling Edge*%
X50900000Y-66000000D03*
D13*
X45200000Y-109600000D03*
X47702000Y-109600000D03*
%TO.N,Read New Instruction*%
X52500000Y-166700000D03*
X49100000Y-170000000D03*
%TO.N,Buss3*%
X85400000Y-23800000D03*
X224795552Y-26303218D03*
X34599000Y-174300000D03*
X34596000Y-162450000D03*
X163200000Y-23800000D03*
X226950000Y-49962500D03*
%TO.N,GND*%
X269137500Y-172150000D03*
D12*
X129100000Y-87700000D03*
D13*
X51000000Y-122700000D03*
D12*
X29400000Y-96100000D03*
X60200000Y-183300000D03*
D13*
X289437500Y-194550000D03*
D12*
X82162500Y-146975000D03*
D13*
X257000000Y-107675000D03*
X261337500Y-171850000D03*
D12*
X250937500Y-188650000D03*
X183100000Y-152800000D03*
X318800000Y-81487500D03*
X28400000Y-152500000D03*
D13*
X349337500Y-201150000D03*
D12*
X202976000Y-43011500D03*
X52738500Y-60900000D03*
X264200000Y-83387500D03*
D13*
X284850000Y-108875000D03*
D12*
X189349000Y-83100000D03*
X28400000Y-148900000D03*
X250937500Y-203850000D03*
D13*
X273173265Y-146014235D03*
D12*
X200600000Y-188300000D03*
D13*
X273173265Y-179014235D03*
X261337500Y-138850000D03*
D12*
X286800000Y-81487500D03*
X200600000Y-151300000D03*
D13*
X289437500Y-161550000D03*
X346197500Y-157050000D03*
D12*
X125349000Y-83100000D03*
X161100000Y-87700000D03*
D13*
X300050000Y-108875000D03*
D12*
X318937500Y-206550000D03*
X165349000Y-83100000D03*
X29400000Y-74500000D03*
X183000000Y-147800000D03*
X125138500Y-42961500D03*
D13*
X262931250Y-163843750D03*
X289437500Y-183550000D03*
X77162500Y-143975000D03*
D12*
X222400000Y-48700000D03*
X101349000Y-83100000D03*
X250037500Y-159450000D03*
X236337500Y-133550000D03*
X296200000Y-83387500D03*
X271850000Y-30237500D03*
X77349000Y-83100000D03*
X60200000Y-196500000D03*
X177100000Y-87700000D03*
X141349000Y-83100000D03*
D13*
X53000000Y-55800000D03*
D12*
X88762500Y-159075000D03*
X200450000Y-108000000D03*
D13*
X262931250Y-152843750D03*
D12*
X339337500Y-129450000D03*
X93349000Y-83100000D03*
X200600000Y-203300000D03*
X222400000Y-39700000D03*
D13*
X261337500Y-160850000D03*
D12*
X360200000Y-83387500D03*
X343087500Y-35375000D03*
X235850000Y-62562500D03*
D13*
X51100000Y-127000000D03*
D12*
X29400000Y-88900000D03*
X146100000Y-154100000D03*
X52162500Y-147075000D03*
X251037500Y-200150000D03*
X351037500Y-144050000D03*
X351037500Y-121250000D03*
X153476000Y-43011500D03*
D13*
X153637500Y-116600000D03*
D12*
X351037500Y-128850000D03*
D13*
X269137500Y-205150000D03*
X273173265Y-135014235D03*
X269137500Y-150150000D03*
X51400000Y-118000000D03*
X146375000Y-106750000D03*
X97000000Y-95200000D03*
D12*
X200600000Y-146300000D03*
X29400000Y-70900000D03*
X236337500Y-152050000D03*
X50700000Y-178900000D03*
D13*
X289437500Y-172550000D03*
D12*
X318937500Y-133550000D03*
D13*
X348937500Y-165050000D03*
D12*
X339337500Y-153450000D03*
D13*
X262931250Y-174843750D03*
D12*
X50700000Y-183300000D03*
X318937500Y-169550000D03*
X58162500Y-157675000D03*
X351037500Y-132650000D03*
D13*
X105000000Y-95200000D03*
D12*
X336050000Y-110237500D03*
X236337500Y-148350000D03*
X183100000Y-157700000D03*
D13*
X182137500Y-116600000D03*
X291437500Y-177750000D03*
D12*
X189650000Y-205850000D03*
X222400000Y-57700000D03*
D13*
X178275000Y-106750000D03*
D12*
X250037500Y-155750000D03*
D13*
X289437500Y-150550000D03*
D12*
X75638500Y-42961500D03*
D13*
X278337500Y-172550000D03*
X144137500Y-116600000D03*
D12*
X50700000Y-205300000D03*
D13*
X269137500Y-161150000D03*
D12*
X28400000Y-156100000D03*
X250037500Y-152050000D03*
X157349000Y-83100000D03*
D13*
X161000000Y-95200000D03*
D12*
X28400000Y-163300000D03*
D13*
X278337500Y-161550000D03*
X184937500Y-95237500D03*
D12*
X28400000Y-170500000D03*
X50700000Y-192100000D03*
D13*
X291437500Y-210750000D03*
X79423718Y-134101000D03*
D12*
X318937500Y-193550000D03*
D13*
X269137500Y-183150000D03*
X65200000Y-151900000D03*
D12*
X111538500Y-42961500D03*
D13*
X269137500Y-128150000D03*
D12*
X173349000Y-83100000D03*
X222400000Y-66700000D03*
D13*
X262931250Y-141843750D03*
X291437500Y-155750000D03*
D12*
X75162500Y-157775000D03*
X339337500Y-189450000D03*
X93638500Y-42961500D03*
D13*
X261337500Y-193850000D03*
D12*
X318937500Y-157550000D03*
D13*
X273173265Y-212014235D03*
X261337500Y-127850000D03*
X288650000Y-108875000D03*
X169000000Y-95200000D03*
D12*
X200600000Y-167300000D03*
D13*
X81000000Y-95200000D03*
X113000000Y-95200000D03*
D12*
X50700000Y-187700000D03*
X61500000Y-95900000D03*
X176200000Y-133000000D03*
X200600000Y-193300000D03*
X250037500Y-140950000D03*
D13*
X264600000Y-107675000D03*
D12*
X200600000Y-198300000D03*
D13*
X79423718Y-129159032D03*
X278337500Y-194550000D03*
X289437500Y-139550000D03*
X280337500Y-166750000D03*
X130600000Y-49800000D03*
D12*
X222400000Y-44200000D03*
D13*
X273173265Y-201014235D03*
X177000000Y-95200000D03*
X70662500Y-157675000D03*
D12*
X250937500Y-192450000D03*
X28400000Y-166900000D03*
X181349000Y-83100000D03*
X351037500Y-147850000D03*
X185100000Y-87700000D03*
X339337500Y-177450000D03*
X57100000Y-83300000D03*
X169100000Y-87700000D03*
X236337500Y-137250000D03*
X339337500Y-141450000D03*
X29400000Y-99700000D03*
D13*
X278337500Y-183550000D03*
X253200000Y-107675000D03*
D12*
X29400000Y-103300000D03*
X137100000Y-87700000D03*
X109349000Y-83100000D03*
X105100000Y-87700000D03*
X60200000Y-178900000D03*
X29400000Y-56500000D03*
X171476000Y-43011500D03*
D13*
X129137500Y-116600000D03*
X262931250Y-207843750D03*
D12*
X236337500Y-155750000D03*
X351037500Y-136450000D03*
X28400000Y-174100000D03*
X200600000Y-182300000D03*
D13*
X345637500Y-173650000D03*
X262931250Y-130843750D03*
D12*
X250037500Y-137250000D03*
X60200000Y-192100000D03*
X235450000Y-57562500D03*
D13*
X153000000Y-95200000D03*
X51600000Y-131400000D03*
X278337500Y-150550000D03*
D12*
X350800000Y-81487500D03*
X196700000Y-120100000D03*
D13*
X348837500Y-178150000D03*
D12*
X133349000Y-83100000D03*
D13*
X280337500Y-155750000D03*
D12*
X250037500Y-148350000D03*
D13*
X189800000Y-107700000D03*
D12*
X318937500Y-181550000D03*
X29400000Y-67300000D03*
D13*
X261337500Y-149850000D03*
D12*
X117349000Y-83100000D03*
X139376000Y-43011500D03*
D13*
X291437500Y-166750000D03*
X289437500Y-128550000D03*
D12*
X60200000Y-205300000D03*
D13*
X200937500Y-95237500D03*
X260800000Y-107675000D03*
D12*
X50700000Y-209700000D03*
X200600000Y-177300000D03*
X50700000Y-200900000D03*
D13*
X192937500Y-95237500D03*
D12*
X81100000Y-87700000D03*
X222400000Y-53200000D03*
D13*
X280337500Y-133750000D03*
X296250000Y-108875000D03*
D12*
X28400000Y-159700000D03*
D13*
X159775000Y-106750000D03*
X79423718Y-124159032D03*
D12*
X145100000Y-87700000D03*
X254800000Y-81487500D03*
D13*
X262931250Y-185843750D03*
X291437500Y-199750000D03*
D12*
X29400000Y-52900000D03*
X351037500Y-125050000D03*
D13*
X73662500Y-147175000D03*
D12*
X193100000Y-87700000D03*
D13*
X261337500Y-204850000D03*
D12*
X349310000Y-24877500D03*
D13*
X137000000Y-95200000D03*
X249400000Y-107675000D03*
X269137500Y-194150000D03*
D12*
X183100000Y-162700000D03*
D13*
X167637500Y-116600000D03*
D12*
X200600000Y-131400000D03*
X210100000Y-54800000D03*
X121100000Y-87700000D03*
X279087500Y-35375000D03*
X235650000Y-34962500D03*
D13*
X280337500Y-144750000D03*
D12*
X59900000Y-96000000D03*
X236337500Y-144650000D03*
D13*
X245600000Y-107675000D03*
D12*
X250937500Y-196250000D03*
X153100000Y-87700000D03*
X236337500Y-159450000D03*
X113100000Y-87700000D03*
X85349000Y-83100000D03*
X200600000Y-172300000D03*
X61538500Y-42961500D03*
X339337500Y-165450000D03*
D13*
X75500000Y-206100000D03*
D12*
X60200000Y-200900000D03*
D13*
X278337500Y-205550000D03*
X268400000Y-107675000D03*
D12*
X222400000Y-62200000D03*
D13*
X262931250Y-196843750D03*
D12*
X189376000Y-43011500D03*
X60200000Y-187700000D03*
X205100000Y-140051000D03*
D13*
X66200000Y-113462500D03*
X278337500Y-128550000D03*
D12*
X351037500Y-140250000D03*
X68662500Y-166475000D03*
X97100000Y-87700000D03*
D13*
X348637500Y-189150000D03*
D12*
X29400000Y-92500000D03*
X132375000Y-108050000D03*
X250037500Y-144650000D03*
D13*
X280337500Y-188750000D03*
X280337500Y-210750000D03*
D12*
X29400000Y-63700000D03*
X367950000Y-30237500D03*
X29400000Y-78100000D03*
D13*
X48962500Y-139075000D03*
X89000000Y-95200000D03*
X346137500Y-215350000D03*
D12*
X201100000Y-87700000D03*
X210100000Y-45700000D03*
D13*
X291437500Y-133750000D03*
D12*
X250037500Y-133550000D03*
D13*
X303850000Y-108875000D03*
D12*
X105800000Y-158100000D03*
D13*
X145000000Y-95200000D03*
X292450000Y-108875000D03*
D12*
X50700000Y-196500000D03*
X149349000Y-83100000D03*
X200600000Y-156300000D03*
D13*
X66012500Y-158125000D03*
X281050000Y-108875000D03*
D12*
X29400000Y-81700000D03*
D13*
X278337500Y-139550000D03*
X273173265Y-190014235D03*
D12*
X197349000Y-83100000D03*
D13*
X272200000Y-107675000D03*
D12*
X60200000Y-209700000D03*
X335950000Y-30237500D03*
X247087500Y-35375000D03*
D13*
X129000000Y-95200000D03*
X261337500Y-182850000D03*
D12*
X236337500Y-140950000D03*
D13*
X273173265Y-157014235D03*
D12*
X215800000Y-181800000D03*
D13*
X291437500Y-144750000D03*
X169175000Y-106750000D03*
D12*
X29400000Y-60100000D03*
X222400000Y-35200000D03*
X131000000Y-147300000D03*
D13*
X291437500Y-188750000D03*
D12*
X215800000Y-160800000D03*
D13*
X280337500Y-199750000D03*
X273173265Y-168014235D03*
X269137500Y-139150000D03*
D12*
X303850000Y-30237500D03*
X328200000Y-83387500D03*
D13*
X307650000Y-108875000D03*
D12*
X89100000Y-87700000D03*
X318797500Y-213450000D03*
X58850000Y-86500000D03*
D13*
X79562500Y-157675000D03*
D12*
X49354112Y-161975000D03*
X318937500Y-145550000D03*
X29400000Y-85300000D03*
X29400000Y-106900000D03*
X215800000Y-202800000D03*
D13*
X280337500Y-177750000D03*
D12*
X311087500Y-35275000D03*
D13*
X121000000Y-95200000D03*
X348837500Y-159950000D03*
X289437500Y-205550000D03*
X81700000Y-116700000D03*
D12*
X200600000Y-161300000D03*
D13*
%TO.N,R{slash}W out*%
X68737500Y-163437500D03*
X46100000Y-132600000D03*
%TO.N,Buss2*%
X35000000Y-176800000D03*
X227350000Y-45362500D03*
X82800000Y-23200000D03*
X160700000Y-23200000D03*
X35000000Y-158800000D03*
X225254702Y-25645298D03*
%TO.N,rst*%
X70200000Y-68300000D03*
X142900000Y-27400000D03*
%TO.N,Buss0*%
X155600000Y-22000000D03*
X35799000Y-151600000D03*
X77700000Y-22000000D03*
X226000000Y-24200000D03*
X230050000Y-36262500D03*
%TO.N,Buss6*%
X226950000Y-63462500D03*
X33393000Y-167000000D03*
X170900000Y-25600000D03*
X33500000Y-173200000D03*
X223400000Y-28500000D03*
X93000000Y-25600000D03*
%TO.N,Buss7*%
X227250000Y-67962500D03*
X173500000Y-26200000D03*
X223100000Y-29300000D03*
X32594000Y-164200000D03*
X95500000Y-26200000D03*
X32800000Y-176900000D03*
%TO.N,Buss4*%
X34195000Y-166050000D03*
X87900000Y-24400000D03*
X34198000Y-171700000D03*
X165700000Y-24400000D03*
X224300000Y-27000000D03*
X227050000Y-54462500D03*
%TO.N,VCC*%
X74012718Y-121100000D03*
X91462500Y-151275000D03*
D12*
X50700000Y-186000000D03*
X202076000Y-65711500D03*
D13*
X294537500Y-195050000D03*
D12*
X350067500Y-138780000D03*
X25400000Y-103300000D03*
X207900000Y-58500000D03*
D13*
X269137500Y-140350000D03*
D12*
X250887500Y-30275000D03*
D13*
X285037500Y-142250000D03*
X312437500Y-196450000D03*
D12*
X102800000Y-93600000D03*
D13*
X74012718Y-125300000D03*
X290037500Y-186250000D03*
D12*
X130524207Y-170124207D03*
D13*
X352037500Y-186650000D03*
D12*
X237157500Y-135070000D03*
X195500000Y-199500000D03*
X137000000Y-98100000D03*
D13*
X306250000Y-102375000D03*
X294337500Y-151150000D03*
D12*
X268150000Y-30337500D03*
D13*
X274137500Y-175350000D03*
D12*
X195500000Y-157389000D03*
D13*
X262997500Y-125610000D03*
D12*
X251877500Y-197790000D03*
X74600000Y-66000000D03*
D13*
X294337500Y-173050000D03*
D12*
X153000000Y-98100000D03*
X150800000Y-93600000D03*
D13*
X49523718Y-123300000D03*
D12*
X177000000Y-98100000D03*
X335487500Y-141100000D03*
D13*
X262997500Y-136610000D03*
X247800000Y-101175000D03*
X244000000Y-101175000D03*
D12*
X24400000Y-152500000D03*
X50700000Y-203600000D03*
X237000000Y-40200000D03*
X138976000Y-65711500D03*
X131500000Y-54600000D03*
D13*
X294850000Y-102375000D03*
D12*
X105215686Y-170115686D03*
D13*
X290037500Y-197250000D03*
D12*
X237157500Y-138770000D03*
X54200000Y-55500000D03*
D13*
X84834718Y-131200000D03*
D12*
X118800000Y-93600000D03*
X198800000Y-93600000D03*
X92700000Y-66000000D03*
X332250000Y-30337500D03*
D13*
X277837500Y-175150000D03*
D12*
X121000000Y-98100000D03*
X72262500Y-153575000D03*
D13*
X263100000Y-101075000D03*
D12*
X185000000Y-98100000D03*
X142800000Y-93600000D03*
D13*
X262997500Y-169610000D03*
D12*
X59100000Y-81400000D03*
X110800000Y-93600000D03*
X50700000Y-212400000D03*
X50700000Y-199200000D03*
X237157500Y-142470000D03*
D13*
X269137500Y-195350000D03*
X262997500Y-180610000D03*
X277837500Y-164150000D03*
D12*
X126800000Y-93600000D03*
X61176000Y-66000000D03*
D13*
X274137500Y-208350000D03*
D12*
X250857500Y-142470000D03*
D13*
X350537500Y-189950000D03*
X143537500Y-115500000D03*
D12*
X195500000Y-168489000D03*
X25400000Y-60100000D03*
X105800000Y-160600000D03*
X50700000Y-181600000D03*
X237157500Y-157270000D03*
X113000000Y-98100000D03*
X170576000Y-65711500D03*
D13*
X277837500Y-131150000D03*
D12*
X50700000Y-194800000D03*
X364250000Y-30337500D03*
X176300000Y-135400000D03*
D13*
X277837500Y-142150000D03*
D12*
X250857500Y-146170000D03*
D13*
X279650000Y-102375000D03*
D12*
X60200000Y-203600000D03*
X175000000Y-170100000D03*
X90100000Y-170100000D03*
X195600000Y-189500000D03*
D13*
X353637500Y-172350000D03*
D12*
X202700000Y-128200000D03*
X105000000Y-98100000D03*
X60200000Y-181600000D03*
X335487500Y-129100000D03*
X213400000Y-131700000D03*
X251777500Y-190090000D03*
X250857500Y-135070000D03*
D13*
X298650000Y-102375000D03*
D12*
X250857500Y-131370000D03*
D13*
X270700000Y-101075000D03*
X262997500Y-191610000D03*
X182337500Y-113600000D03*
D12*
X250857500Y-157270000D03*
D13*
X287250000Y-102375000D03*
D12*
X158800000Y-93600000D03*
X282887500Y-30275000D03*
D13*
X74012718Y-131500000D03*
D12*
X201000000Y-98100000D03*
D13*
X262997500Y-147610000D03*
D12*
X335487500Y-177100000D03*
X346887500Y-30275000D03*
X237000000Y-49400000D03*
D13*
X73062500Y-150900000D03*
X333637500Y-196450000D03*
D12*
X125000000Y-170100000D03*
D13*
X262997500Y-202610000D03*
X294137500Y-129250000D03*
D12*
X251777500Y-201490000D03*
D13*
X274137500Y-131350000D03*
X290037500Y-175250000D03*
X269137500Y-173350000D03*
D12*
X89000000Y-98100000D03*
X251777500Y-193890000D03*
D13*
X269137500Y-129350000D03*
X269137500Y-162350000D03*
X324937500Y-196450000D03*
X277837500Y-186150000D03*
X348837500Y-179250000D03*
X285037500Y-208250000D03*
X308537500Y-196350000D03*
D12*
X97000000Y-98100000D03*
D13*
X274137500Y-197350000D03*
D12*
X182800000Y-93600000D03*
D13*
X285037500Y-197250000D03*
D12*
X237000000Y-58600000D03*
X335487500Y-153100000D03*
X350067500Y-123580000D03*
D13*
X285037500Y-153250000D03*
X266900000Y-101075000D03*
X49523718Y-127500000D03*
D12*
X25400000Y-70900000D03*
X251777500Y-186290000D03*
X88362500Y-146275000D03*
D13*
X320737500Y-196450000D03*
D12*
X24400000Y-174100000D03*
D13*
X262997500Y-158610000D03*
X84834718Y-121300000D03*
X291050000Y-102375000D03*
X294337500Y-140150000D03*
X277837500Y-197150000D03*
X269137500Y-151350000D03*
X259300000Y-101075000D03*
X352937500Y-165050000D03*
D12*
X237157500Y-153570000D03*
D13*
X294337500Y-184150000D03*
D12*
X335487500Y-165100000D03*
D13*
X285037500Y-175250000D03*
D12*
X56462500Y-157675000D03*
X110776000Y-66000000D03*
X314887500Y-30175000D03*
D13*
X316437500Y-196450000D03*
X283450000Y-102375000D03*
D12*
X60200000Y-186000000D03*
X350067500Y-150180000D03*
X237157500Y-149870000D03*
D13*
X274137500Y-186350000D03*
X304337500Y-196450000D03*
X290037500Y-153250000D03*
X84834718Y-126500000D03*
D12*
X60200000Y-199200000D03*
X250857500Y-153570000D03*
D13*
X255400000Y-101175000D03*
D12*
X60200000Y-212400000D03*
D13*
X269137500Y-184350000D03*
D12*
X136400000Y-106500000D03*
D13*
X290037500Y-131250000D03*
X294237500Y-206150000D03*
D12*
X350067500Y-146380000D03*
X24400000Y-163300000D03*
X94800000Y-93600000D03*
X129000000Y-98100000D03*
D13*
X290037500Y-208250000D03*
D12*
X60200000Y-208000000D03*
X207900000Y-40200000D03*
X152476000Y-65711500D03*
D13*
X290037500Y-142250000D03*
D12*
X145200000Y-170100000D03*
X134800000Y-93600000D03*
D13*
X302450000Y-102375000D03*
D12*
X161000000Y-98100000D03*
X79600000Y-170100000D03*
D13*
X274137500Y-142350000D03*
D12*
X90562500Y-159275000D03*
X25400000Y-92500000D03*
D13*
X274137500Y-164350000D03*
D12*
X50700000Y-208000000D03*
X166800000Y-93600000D03*
X214800000Y-122200000D03*
X60200000Y-194800000D03*
X350067500Y-142580000D03*
D13*
X277837500Y-208150000D03*
X290037500Y-164250000D03*
X49523718Y-132300000D03*
D12*
X250857500Y-138770000D03*
X174800000Y-93600000D03*
D13*
X122437500Y-114700000D03*
D12*
X350067500Y-131180000D03*
D13*
X251600000Y-101175000D03*
X285037500Y-131250000D03*
D12*
X190800000Y-93600000D03*
X237157500Y-131370000D03*
X25400000Y-81700000D03*
D13*
X65862500Y-159675000D03*
D12*
X155000000Y-170100000D03*
X350067500Y-134980000D03*
X300150000Y-30337500D03*
X72662500Y-159375000D03*
D13*
X274137500Y-153350000D03*
D12*
X335487500Y-189100000D03*
X86800000Y-93600000D03*
D13*
X158137500Y-113600000D03*
X351097500Y-214550000D03*
D12*
X114700000Y-170100000D03*
X200550000Y-110200000D03*
X89062500Y-153575000D03*
D13*
X177875000Y-109750000D03*
D12*
X124276000Y-65711500D03*
X207900000Y-49400000D03*
X169000000Y-98100000D03*
X195500000Y-146789000D03*
X195500000Y-178389000D03*
D13*
X294337500Y-162150000D03*
D12*
X350067500Y-127380000D03*
X60200000Y-190400000D03*
D13*
X72962500Y-161875000D03*
X302537500Y-211750000D03*
X155175000Y-109750000D03*
X269137500Y-206350000D03*
D12*
X193000000Y-98100000D03*
X188576000Y-65711500D03*
X81000000Y-98100000D03*
X50700000Y-190400000D03*
D13*
X285037500Y-186250000D03*
D12*
X250857500Y-149870000D03*
X164900000Y-170100000D03*
X78800000Y-93600000D03*
X237157500Y-146170000D03*
X349310000Y-26877500D03*
X53062500Y-150775000D03*
D13*
X277837500Y-153150000D03*
X49523718Y-118600000D03*
X285037500Y-164250000D03*
X329437500Y-196350000D03*
D12*
X145000000Y-98100000D03*
X179900000Y-170100000D03*
%TO.N,CLOCK*%
X53100000Y-79800000D03*
D13*
%TO.N,Buss5*%
X90400000Y-25000000D03*
X227150000Y-59062500D03*
X33794000Y-169650000D03*
X168300000Y-25000000D03*
X223800000Y-27700000D03*
%TO.N,Buss1*%
X227850000Y-40862500D03*
X225504807Y-24885396D03*
X35400000Y-178700000D03*
X80300000Y-22600000D03*
X35400000Y-155200000D03*
X158200000Y-22600000D03*
%TO.N,ADR 13*%
X33000000Y-101500000D03*
X118976000Y-61100000D03*
%TO.N,ADR 10*%
X105352000Y-61100000D03*
X33000000Y-90700000D03*
%TO.N,ADR 6*%
X85700000Y-59500000D03*
%TO.N,ADR 15*%
X33000000Y-108700000D03*
X127976000Y-61100000D03*
%TO.N,ADR 7*%
X90200000Y-59400000D03*
%TO.N,ADR 0*%
X58700000Y-59600000D03*
%TO.N,ADR 2*%
X67800000Y-59600000D03*
%TO.N,ADR 5*%
X81200000Y-59600000D03*
%TO.N,ADR 9*%
X33000000Y-87100000D03*
X100700000Y-61100000D03*
%TO.N,ADR 3*%
X72200000Y-59600000D03*
%TO.N,ADR 4*%
X76700000Y-59500000D03*
%TO.N,ADR 1*%
X63300000Y-59600000D03*
%TO.N,ADR 8*%
X33000000Y-83400000D03*
X96352000Y-61000000D03*
%TO.N,ADR 14*%
X33000000Y-105100000D03*
X123476000Y-61100000D03*
%TO.N,ADR 11*%
X109852000Y-61100000D03*
X33000000Y-94300000D03*
%TO.N,ADR 12*%
X114476000Y-61200000D03*
X33000000Y-97900000D03*
%TO.N,Main bus 0*%
X304137500Y-208750000D03*
X359437500Y-206404223D03*
X304637500Y-201550000D03*
X232950000Y-37162500D03*
X359437500Y-129962500D03*
%TO.N,Main bus 4*%
X319337500Y-208650000D03*
X321237500Y-201650000D03*
X232950000Y-54162500D03*
X357037500Y-204065607D03*
X357037500Y-142800000D03*
%TO.N,Main bus 1*%
X307937500Y-208650000D03*
X308637500Y-201550000D03*
X358837500Y-133200000D03*
X358837500Y-205815902D03*
X232950000Y-40362500D03*
%TO.N,Main bus 6*%
X232950000Y-63562500D03*
X355837500Y-149162500D03*
X329737500Y-201550000D03*
X355837500Y-202750000D03*
X326937500Y-208650000D03*
%TO.N,Main bus 3*%
X357637500Y-204619929D03*
X232950000Y-49862500D03*
X317137500Y-201550000D03*
X315637500Y-208750000D03*
X357637500Y-139562500D03*
%TO.N,Main bus 2*%
X311837500Y-208650000D03*
X358237500Y-205254655D03*
X358237500Y-136362500D03*
X312937500Y-201550000D03*
X232950000Y-45562500D03*
%TO.N,Main bus 5*%
X356437500Y-203399936D03*
X356437500Y-145962500D03*
X323137500Y-208650000D03*
X325437500Y-201550000D03*
X232950000Y-58962500D03*
%TO.N,AA0*%
X248350000Y-115950000D03*
X249637500Y-131350000D03*
X278937500Y-127150000D03*
X264637500Y-132950000D03*
X271803281Y-127215781D03*
%TO.N,XOR*%
X208000000Y-124000000D03*
X301197500Y-179150000D03*
X336597500Y-181750000D03*
X229300000Y-126700000D03*
X349997500Y-199250000D03*
%TO.N,ADD*%
X335197500Y-193250000D03*
X301197500Y-191150000D03*
X229900000Y-125600000D03*
X346137500Y-206850000D03*
X349337500Y-193950000D03*
%TO.N,OR*%
X346700000Y-197250000D03*
X214900000Y-133000000D03*
X344461500Y-197250000D03*
X344497500Y-207750000D03*
X211700000Y-132000000D03*
X227500000Y-134800000D03*
%TO.N,ALU FLAG O*%
X64700000Y-128900000D03*
X245100000Y-198000000D03*
%TO.N,ALU FLAG N*%
X355237500Y-152362500D03*
X352897500Y-171450000D03*
X334037500Y-201650000D03*
X64800000Y-115100000D03*
X330737500Y-207350000D03*
X355237500Y-202150000D03*
X330737500Y-208650000D03*
X354637500Y-167450000D03*
X348997500Y-173950000D03*
X232850000Y-68462500D03*
X247400000Y-186500000D03*
%TO.N,NOT*%
X301497500Y-167150000D03*
X349735515Y-203011985D03*
X342797500Y-202450000D03*
X228800000Y-127469222D03*
%TO.N,ALU FLAG U*%
X64600000Y-124100000D03*
X247300000Y-194100000D03*
%TO.N,Carry in*%
X255397500Y-137150000D03*
X278397500Y-134950000D03*
%TO.N,ALU FLAG C*%
X247200000Y-201700000D03*
X64600000Y-134700000D03*
X349997500Y-214650000D03*
X352297500Y-215950000D03*
%TO.N,AND*%
X347897500Y-199250000D03*
X227998000Y-132000000D03*
X305297500Y-141450000D03*
%TO.N,ALU FLAG Z*%
X247600000Y-190300000D03*
X64700000Y-119500000D03*
%TO.N,RS*%
X228399000Y-129300000D03*
X201200000Y-128100000D03*
X345238500Y-187076250D03*
X301597500Y-155150000D03*
X343797500Y-187050000D03*
%TO.N,A ->ALU B*%
X267900000Y-81500000D03*
X270450000Y-35437500D03*
X265850000Y-53737500D03*
X203300000Y-161500000D03*
%TO.N,ALU B = FF*%
X227400000Y-118300000D03*
X201800000Y-123400000D03*
X223395000Y-118400000D03*
X317450000Y-106737500D03*
%TO.N,READ A*%
X203200000Y-203400000D03*
X239100000Y-67700000D03*
%TO.N,C ->ALU A*%
X225799000Y-116800000D03*
X308449000Y-36900000D03*
X203500000Y-172500000D03*
X227400000Y-116800000D03*
X315750000Y-55137500D03*
X314500000Y-105000000D03*
X317300000Y-86500000D03*
%TO.N,D ->ALU A*%
X203100000Y-167500000D03*
X225398000Y-119800000D03*
X347850000Y-55437500D03*
X349100000Y-102300000D03*
X345350000Y-34791968D03*
X227400000Y-119800000D03*
%TO.N,B ->ALU B*%
X302400000Y-35487500D03*
X224200000Y-100000000D03*
X227500000Y-100000000D03*
X299800000Y-81500000D03*
X297762500Y-53637500D03*
X203200000Y-156600000D03*
%TO.N,B ->ALU A*%
X227400000Y-98600000D03*
X203300000Y-177500000D03*
X284250000Y-38337500D03*
X282600000Y-87000000D03*
X226200000Y-98600000D03*
X283750000Y-55337500D03*
%TO.N,A ->ALU A*%
X253100000Y-86000000D03*
X250545532Y-54737500D03*
X248500000Y-35200000D03*
X203300000Y-182600000D03*
%TO.N,READ D*%
X203100000Y-188300000D03*
X242900000Y-67900000D03*
%TO.N,READ C*%
X242300000Y-68465687D03*
X203200000Y-193400000D03*
%TO.N,C ->ALU B*%
X334750000Y-35137500D03*
X323500000Y-102400000D03*
X223796000Y-113600000D03*
X331500000Y-86300000D03*
X329750000Y-53737500D03*
X227400000Y-113500000D03*
X203400000Y-151500000D03*
%TO.N,READ B*%
X241700000Y-69062335D03*
X203200000Y-198500000D03*
%TO.N,D ->ALU B*%
X203300000Y-146300000D03*
X223395000Y-121000000D03*
X227400000Y-121000000D03*
X364100000Y-91300000D03*
X362250000Y-54637500D03*
X366250000Y-35637500D03*
%TO.N,REG Read*%
X212000000Y-204300000D03*
X179200000Y-146037500D03*
%TO.N,REG -> ALU B*%
X212200000Y-162500000D03*
X177900000Y-156037500D03*
%TO.N,REG -> ALU A*%
X212200000Y-183600000D03*
X178000000Y-151037500D03*
%TO.N,READ FALG*%
X96200000Y-110200000D03*
X60223718Y-119124000D03*
X60223718Y-128124000D03*
X65200000Y-113424000D03*
X60223718Y-123624000D03*
X60223718Y-115000000D03*
X169300000Y-160100000D03*
X60223718Y-132477000D03*
%TO.N,Store Address ++*%
X147301000Y-47511500D03*
X192324000Y-47511500D03*
X49500000Y-44600000D03*
X142824000Y-47511500D03*
X196824000Y-47511500D03*
X47550000Y-49450000D03*
X156324000Y-47511500D03*
X160824000Y-47511500D03*
X187801000Y-47511500D03*
X56500000Y-165800000D03*
X151801000Y-47511500D03*
X201301000Y-47511500D03*
X183301000Y-47511500D03*
X174324000Y-47511500D03*
X169801000Y-47511500D03*
X178824000Y-47511500D03*
D12*
X134876000Y-47511500D03*
D13*
X205801000Y-47511500D03*
X165301000Y-47511500D03*
X138324000Y-47511500D03*
%TO.N,ADR++ 0*%
X84500000Y-92000000D03*
X138100000Y-51600000D03*
%TO.N,ADR++ 1*%
X142500000Y-51600000D03*
X92600000Y-92100000D03*
%TO.N,ADR++ 2*%
X147163235Y-51563235D03*
X100600000Y-92100000D03*
%TO.N,ADR++ 3*%
X151700000Y-51500000D03*
X108600000Y-92100000D03*
%TO.N,ADR++ 4*%
X156200000Y-51500000D03*
X116649000Y-92200000D03*
%TO.N,ADR++ 5*%
X160500000Y-51500000D03*
X124600000Y-92000000D03*
%TO.N,ADR++ 6*%
X132649000Y-92000000D03*
X165100000Y-51500000D03*
%TO.N,ADR++ 7*%
X140600000Y-92000000D03*
X169500000Y-51500000D03*
%TO.N,ADR++ 8*%
X148600000Y-91900000D03*
X173800000Y-51600000D03*
%TO.N,ADR++ 9*%
X178700000Y-51400000D03*
X156500000Y-92000000D03*
%TO.N,ADR++ 10*%
X183100000Y-51500000D03*
X164500000Y-92000000D03*
%TO.N,ADR++ 11*%
X172500000Y-92100000D03*
X187500000Y-51600000D03*
%TO.N,ADR++ 12*%
X180500000Y-92100000D03*
X192100000Y-51500000D03*
%TO.N,ADR++ 13*%
X188600000Y-92000000D03*
X196700000Y-51400000D03*
%TO.N,ADR++ 14*%
X195981250Y-92418750D03*
X201000000Y-51600000D03*
%TO.N,ADR++ 15*%
X205400000Y-51600000D03*
X204500000Y-92100000D03*
%TO.N,TEMP ADR 0*%
X138276000Y-57700000D03*
X60200000Y-60000000D03*
%TO.N,Net-(Q170-G)*%
X156276000Y-55811500D03*
X142776000Y-55811500D03*
X192276000Y-55811500D03*
X151776000Y-55811500D03*
X178776000Y-55811500D03*
X147276000Y-55811500D03*
D12*
X133876000Y-55811500D03*
D13*
X165276000Y-55811500D03*
X138276000Y-55811500D03*
X183276000Y-55811500D03*
X201276000Y-55811500D03*
X187776000Y-55811500D03*
X169776000Y-55811500D03*
X205801000Y-55811500D03*
X160776000Y-55811500D03*
X174276000Y-55811500D03*
X196776000Y-55811500D03*
%TO.N,TEMP ADR 1*%
X142776000Y-57700000D03*
X64700000Y-59900000D03*
%TO.N,STORED ADR 15*%
X127700000Y-51600000D03*
%TO.N,STORED ADR 14*%
X123100000Y-51600000D03*
%TO.N,STORED ADR 13*%
X118700000Y-51500000D03*
%TO.N,STORED ADR 12*%
X114200000Y-51500000D03*
%TO.N,STORED ADR 11*%
X109600000Y-51600000D03*
%TO.N,STORED ADR 10*%
X105100000Y-51600000D03*
%TO.N,STORED ADR 9*%
X100800000Y-51600000D03*
%TO.N,STORED ADR 8*%
X96000000Y-51600000D03*
%TO.N,STORED ADR 7*%
X91600000Y-51700000D03*
%TO.N,STORED ADR 6*%
X87000000Y-51600000D03*
%TO.N,STORED ADR 5*%
X82600000Y-51600000D03*
%TO.N,STORED ADR 4*%
X78100000Y-51600000D03*
%TO.N,STORED ADR 3*%
X73600000Y-51600000D03*
%TO.N,STORED ADR 2*%
X69100000Y-51600000D03*
%TO.N,STORED ADR 1*%
X64600000Y-51600000D03*
%TO.N,STORED ADR 0*%
X59900000Y-51600000D03*
%TO.N,Net-(Q204-G)*%
X200200000Y-86700000D03*
X194993750Y-94606250D03*
%TO.N,Net-(Q205-G)*%
X192200000Y-86700000D03*
X186993750Y-94606250D03*
%TO.N,Net-(Q206-G)*%
X184200000Y-86800000D03*
X178993750Y-94606250D03*
%TO.N,Net-(Q207-G)*%
X176200000Y-86700000D03*
X170993750Y-94606250D03*
%TO.N,Net-(Q208-G)*%
X168100000Y-86900000D03*
X162993750Y-94606250D03*
%TO.N,Net-(Q209-G)*%
X154993750Y-94606250D03*
X160100000Y-86600000D03*
%TO.N,Net-(Q210-G)*%
X146993750Y-94606250D03*
X152000000Y-86700000D03*
%TO.N,Net-(Q211-G)*%
X144100000Y-86600000D03*
X138993750Y-94606250D03*
%TO.N,Net-(Q212-G)*%
X135000000Y-84000000D03*
X131043750Y-94656250D03*
%TO.N,Net-(Q213-G)*%
X127000000Y-84000000D03*
X123000000Y-94700000D03*
%TO.N,Net-(Q214-G)*%
X114993750Y-94606250D03*
X120529016Y-83529016D03*
%TO.N,Net-(Q215-G)*%
X106993750Y-94606250D03*
X112329016Y-83729016D03*
%TO.N,Net-(Q216-G)*%
X98993750Y-94606250D03*
X104579016Y-83479016D03*
%TO.N,Net-(Q217-G)*%
X96906250Y-84106250D03*
X91100000Y-94700000D03*
%TO.N,Net-(Q218-G)*%
X88200000Y-86900000D03*
X83043750Y-94656250D03*
%TO.N,Read From stored Address*%
X118999000Y-47511500D03*
X73852000Y-47511500D03*
X81500000Y-167000000D03*
X82999000Y-47511500D03*
X69352000Y-47511500D03*
X96352000Y-47511500D03*
X127852000Y-47511500D03*
X80745984Y-83245984D03*
D12*
X57076000Y-47511500D03*
D13*
X123352000Y-47511500D03*
X87352000Y-47511500D03*
X78352000Y-47511500D03*
X109852000Y-47511500D03*
X91852000Y-47511500D03*
X64852000Y-47511500D03*
X105352000Y-47511500D03*
X100852000Y-47511500D03*
X114499000Y-47511500D03*
%TO.N,TEMP ADR 2*%
X69200000Y-60000000D03*
X147276000Y-57700000D03*
%TO.N,TEMP ADR 3*%
X151776000Y-57700000D03*
X73600000Y-60000000D03*
%TO.N,TEMP ADR 4*%
X156276000Y-57700000D03*
X78200000Y-60100000D03*
%TO.N,TEMP ADR 5*%
X160776000Y-57700000D03*
X82700000Y-60000000D03*
%TO.N,TEMP ADR 6*%
X165276000Y-57700000D03*
X87300000Y-60100000D03*
%TO.N,TEMP ADR 7*%
X91800000Y-60100000D03*
X169776000Y-57700000D03*
%TO.N,TEMP ADR 8*%
X174276000Y-57700000D03*
X96352000Y-60100000D03*
%TO.N,TEMP ADR 9*%
X100800000Y-60100000D03*
X178776000Y-57700000D03*
%TO.N,TEMP ADR 10*%
X105352000Y-60100000D03*
X183276000Y-57700000D03*
%TO.N,TEMP ADR 11*%
X187776000Y-57700000D03*
X109852000Y-60000000D03*
%TO.N,TEMP ADR 12*%
X192276000Y-57700000D03*
X114476000Y-60200000D03*
%TO.N,TEMP ADR 13*%
X118976000Y-60100000D03*
X196776000Y-57700000D03*
%TO.N,TEMP ADR 14*%
X123400000Y-60200000D03*
X201276000Y-57700000D03*
%TO.N,TEMP ADR 15*%
X202987028Y-56511500D03*
X127976000Y-60000000D03*
%TO.N,NEXT ADR 0*%
X138100000Y-60200000D03*
%TO.N,NEXT ADR 1*%
X142500000Y-60100000D03*
%TO.N,NEXT ADR 2*%
X147000000Y-60300000D03*
%TO.N,NEXT ADR 3*%
X151776000Y-60500000D03*
%TO.N,NEXT ADR 4*%
X156200000Y-60600000D03*
%TO.N,NEXT ADR 5*%
X160700000Y-60600000D03*
%TO.N,NEXT ADR 6*%
X165200000Y-60500000D03*
%TO.N,NEXT ADR 7*%
X169600000Y-60400000D03*
%TO.N,NEXT ADR 8*%
X174700000Y-64700000D03*
%TO.N,NEXT ADR 9*%
X179400000Y-64600000D03*
%TO.N,NEXT ADR 10*%
X183800000Y-64600000D03*
%TO.N,NEXT ADR 11*%
X188400000Y-64400000D03*
%TO.N,NEXT ADR 12*%
X192700000Y-64300000D03*
%TO.N,NEXT ADR 13*%
X197100000Y-64000000D03*
%TO.N,NEXT ADR 14*%
X201900000Y-64500000D03*
%TO.N,NEXT ADR 15*%
X206300000Y-64800000D03*
%TO.N,Net-(Q332-G)*%
X114352000Y-55711500D03*
X127852000Y-55711500D03*
X64852000Y-55711500D03*
X73852000Y-55711500D03*
X91852000Y-55711500D03*
X78376000Y-55711500D03*
X100852000Y-55711500D03*
X105352000Y-55711500D03*
X69352000Y-55711500D03*
X82852000Y-55711500D03*
X87352000Y-55711500D03*
X118852000Y-55711500D03*
X96352000Y-55711500D03*
X60276000Y-55711500D03*
D12*
X55976000Y-55711500D03*
D13*
X123352000Y-55711500D03*
X109852000Y-55711500D03*
%TO.N,TIME STEP 0*%
X95200000Y-109800000D03*
X43500000Y-107500000D03*
X145800000Y-28800000D03*
%TO.N,!TIME STEP 0*%
X82375000Y-121400000D03*
X80800000Y-162000000D03*
%TO.N,TIME STEP IN 1*%
X83000000Y-135900000D03*
%TO.N,TIME STEP 1*%
X78500000Y-120300000D03*
X63100000Y-149200000D03*
X77100000Y-151399000D03*
%TO.N,TIME STEP IN 2*%
X75700000Y-135600000D03*
X56200000Y-162400000D03*
%TO.N,FLAG N*%
X73123718Y-116800000D03*
%TO.N,Net-(Q418-G)*%
X69223718Y-132300000D03*
X69223718Y-123200000D03*
X69223718Y-114900000D03*
X69223718Y-127800000D03*
X69223718Y-118600000D03*
%TO.N,FLAG STORE N*%
X54400000Y-117600000D03*
%TO.N,FLAG Z*%
X72823718Y-117900000D03*
X162400000Y-118850000D03*
X118430000Y-117070000D03*
%TO.N,FLAG STORE Z*%
X54400000Y-122000000D03*
%TO.N,FLAG U*%
X73312718Y-122700000D03*
%TO.N,FLAG STORE U*%
X54600000Y-126500000D03*
%TO.N,FLAG O*%
X191200000Y-103500000D03*
X73123718Y-127200000D03*
%TO.N,FLAG STORE O*%
X54600000Y-131100000D03*
%TO.N,FLAG C*%
X73223718Y-131300000D03*
X170550000Y-123850000D03*
X151200000Y-104500000D03*
X201400000Y-138400000D03*
%TO.N,FLAG STORE C*%
X54600000Y-135700000D03*
%TO.N,Read Write ins*%
X52300000Y-157300000D03*
X73200000Y-144100000D03*
X52800000Y-145475000D03*
X72908058Y-142008058D03*
X53800000Y-168000000D03*
%TO.N,Commit jump*%
X51900000Y-163100000D03*
X132100000Y-111526000D03*
%TO.N,TIME STEP IN 0*%
X72300000Y-143500000D03*
%TO.N,TIME STEP 2*%
X84400000Y-159500000D03*
X85100000Y-151276000D03*
X99800000Y-117700000D03*
%TO.N,TIME STEP 0or1or2*%
X90300000Y-147800000D03*
X89100000Y-152500000D03*
%TO.N,TIME STEP 0or1*%
X63000000Y-152300000D03*
X66200000Y-147800000D03*
%TO.N,Main bus -> bus out*%
X226950000Y-56062500D03*
X226850000Y-47262500D03*
X227900000Y-75900000D03*
X226950000Y-51562500D03*
X226950000Y-33762500D03*
X226850000Y-65162500D03*
X226850000Y-60562500D03*
X226850000Y-38162500D03*
X131500000Y-120800000D03*
X226950000Y-42562500D03*
%TO.N,Net-(Q520-D)*%
X234900000Y-38000000D03*
X231500000Y-37900000D03*
%TO.N,Net-(Q523-D)*%
X234900000Y-42500000D03*
X231600000Y-42500000D03*
%TO.N,Net-(Q526-D)*%
X231600000Y-47000000D03*
X234900000Y-47000000D03*
%TO.N,Net-(Q529-D)*%
X234900000Y-51500000D03*
X231500000Y-51500000D03*
%TO.N,Net-(Q532-D)*%
X234900000Y-56000000D03*
X231500000Y-56000000D03*
%TO.N,Net-(Q535-D)*%
X231500000Y-60500000D03*
X234900000Y-60500000D03*
%TO.N,Net-(Q538-D)*%
X234900000Y-65000000D03*
X231600000Y-65000000D03*
%TO.N,bus out -> Main bus*%
X213450000Y-63862500D03*
X213350000Y-36862500D03*
X75012500Y-155225000D03*
X213350000Y-45862500D03*
X213450000Y-59262500D03*
X47150000Y-50950000D03*
X213350000Y-41262500D03*
X213450000Y-54762500D03*
X213450000Y-50462500D03*
X47100000Y-45900000D03*
X213850000Y-33762500D03*
%TO.N,Net-(Q544-D)*%
X218400000Y-38562500D03*
X209900000Y-38000000D03*
%TO.N,Net-(Q547-D)*%
X209900000Y-42500000D03*
X218400000Y-43062500D03*
%TO.N,Net-(Q550-D)*%
X209900000Y-47000000D03*
X218400000Y-47562500D03*
%TO.N,Net-(Q553-D)*%
X218400000Y-52062500D03*
X209900000Y-51500000D03*
%TO.N,Net-(Q556-D)*%
X218400000Y-56562500D03*
X209900000Y-56000000D03*
%TO.N,Net-(Q559-D)*%
X218400000Y-61062500D03*
X209900000Y-60500000D03*
%TO.N,Net-(Q562-D)*%
X218400000Y-65562500D03*
X209900000Y-65000000D03*
%TO.N,AA1*%
X271803281Y-138215781D03*
X278937500Y-138150000D03*
X264737500Y-143950000D03*
X247050000Y-115950000D03*
X249837500Y-134750000D03*
%TO.N,AA2*%
X271853281Y-149165781D03*
X249737500Y-138550000D03*
X278937500Y-149150000D03*
X264737500Y-154950000D03*
X245825000Y-115925000D03*
%TO.N,AA3*%
X278937500Y-160150000D03*
X249737500Y-142250000D03*
X271753281Y-160265781D03*
X244550000Y-115950000D03*
X264737500Y-165950000D03*
%TO.N,AA4*%
X278937500Y-171150000D03*
X249837500Y-145850000D03*
X243350000Y-115950000D03*
X271753281Y-171265781D03*
X264737500Y-176950000D03*
%TO.N,AA5*%
X249737500Y-149650000D03*
X264737500Y-187850000D03*
X271770623Y-182248438D03*
X242050000Y-115950000D03*
X278937500Y-182150000D03*
%TO.N,AA6*%
X278937500Y-193150000D03*
X264737500Y-198950000D03*
X271803281Y-193215781D03*
X241200000Y-115600000D03*
X249737500Y-153450000D03*
%TO.N,AA7*%
X249737500Y-157150000D03*
X241229250Y-114329250D03*
X265097500Y-214750000D03*
X278937500Y-204150000D03*
X354637500Y-169750000D03*
X271803281Y-204215781D03*
X348397500Y-168850000D03*
%TO.N,AB0*%
X345797500Y-181050000D03*
X342697500Y-130450000D03*
X279200000Y-109300000D03*
X243517500Y-127270000D03*
X251737500Y-119050000D03*
%TO.N,AB1*%
X244367500Y-127420000D03*
X249137500Y-122656000D03*
X283000000Y-109100000D03*
%TO.N,AB2*%
X244524393Y-128204467D03*
X286800000Y-109200000D03*
X250737500Y-121950000D03*
%TO.N,AB3*%
X245467500Y-128220000D03*
X290600000Y-109100000D03*
X252137500Y-121550000D03*
%TO.N,AB4*%
X294400000Y-109100000D03*
X253513235Y-121125735D03*
X245517500Y-129070000D03*
%TO.N,AB5*%
X246515643Y-128971857D03*
X298200000Y-109100000D03*
X254737500Y-120750000D03*
%TO.N,AB6*%
X302000000Y-109100000D03*
X246879047Y-129684554D03*
X256037500Y-120350000D03*
%TO.N,AB7*%
X305800000Y-109100000D03*
X257537500Y-119850000D03*
X348716516Y-161129016D03*
X247667500Y-129820000D03*
X326797500Y-151450000D03*
%TO.N,Net-(Q1133-G)*%
X302137500Y-157650000D03*
X270937500Y-131650000D03*
%TO.N,Net-(Q1135-G)*%
X302137500Y-169550000D03*
X289737500Y-125450000D03*
%TO.N,Net-(Q913-D)*%
X282837500Y-131450000D03*
X289537500Y-132450000D03*
%TO.N,Net-(Q914-D)*%
X278937500Y-143350000D03*
X288737500Y-131950000D03*
%TO.N,Net-(Q1129-G)*%
X277837500Y-126550000D03*
X302137500Y-133450000D03*
%TO.N,Net-(Q1145-G)*%
X306337500Y-158050000D03*
X270937500Y-142650000D03*
%TO.N,Net-(Q1147-G)*%
X289937500Y-136650000D03*
X306337500Y-169850000D03*
%TO.N,Net-(Q940-D)*%
X289537500Y-143450000D03*
X282737500Y-142450000D03*
%TO.N,Net-(Q941-D)*%
X278937500Y-154350000D03*
X288737500Y-142950000D03*
%TO.N,Net-(Q1149-G)*%
X297437500Y-142450000D03*
X296037500Y-142450000D03*
%TO.N,Net-(Q1127-G)*%
X302137500Y-125150000D03*
X264237500Y-128150000D03*
%TO.N,Net-(Q1141-G)*%
X306337500Y-133850000D03*
X277637500Y-137450000D03*
%TO.N,Net-(Q1139-G)*%
X264437500Y-139150000D03*
X306337500Y-125150000D03*
%TO.N,Net-(Q1157-G)*%
X270937500Y-153650000D03*
X310437500Y-158450000D03*
%TO.N,Net-(Q1159-G)*%
X310537500Y-170250000D03*
X289937500Y-147750000D03*
%TO.N,Net-(Q965-D)*%
X282837500Y-153450000D03*
X289537500Y-154450000D03*
%TO.N,Net-(Q966-D)*%
X288637500Y-153850000D03*
X278937500Y-165350000D03*
%TO.N,Net-(Q1161-G)*%
X296037500Y-152250000D03*
X297838500Y-152250000D03*
%TO.N,Net-(Q1151-G)*%
X310537500Y-125150000D03*
X264437500Y-150150000D03*
%TO.N,Net-(Q1153-G)*%
X277737500Y-148350000D03*
X310537500Y-134250000D03*
%TO.N,Net-(Q1163-G)*%
X314737500Y-125150000D03*
X264337500Y-161150000D03*
%TO.N,Net-(Q1169-G)*%
X270937500Y-164650000D03*
X314637500Y-158850000D03*
%TO.N,Net-(Q1002-G)*%
X314637500Y-170650000D03*
X289937500Y-158750000D03*
%TO.N,Net-(Q989-D)*%
X282837500Y-164450000D03*
X289537500Y-165550000D03*
%TO.N,Net-(Q1017-G)*%
X288737500Y-164950000D03*
X278937500Y-176350000D03*
%TO.N,Net-(Q1173-G)*%
X298337500Y-164550000D03*
X296137500Y-164450000D03*
%TO.N,Net-(Q1000-D)*%
X277637500Y-159274000D03*
X314737500Y-134650000D03*
%TO.N,Net-(Q1008-D)*%
X318937500Y-125150000D03*
X264437500Y-172150000D03*
%TO.N,Net-(Q1014-S)*%
X318837500Y-159250000D03*
X270937500Y-175650000D03*
%TO.N,Net-(Q1016-D)*%
X319037500Y-171150000D03*
X289937500Y-169750000D03*
%TO.N,Net-(Q1018-D)*%
X289537500Y-176550000D03*
X282837500Y-175450000D03*
%TO.N,Net-(Q1019-D)*%
X278937500Y-187350000D03*
X288637500Y-175950000D03*
%TO.N,Net-(Q1021-D)*%
X296037500Y-174250000D03*
X298640500Y-172150000D03*
%TO.N,Net-(Q1025-D)*%
X323137500Y-125150000D03*
X264037500Y-183150000D03*
%TO.N,Net-(Q1028-D)*%
X318937500Y-135050000D03*
X277637500Y-170274000D03*
%TO.N,Net-(Q1035-D)*%
X264037500Y-194150000D03*
X327337500Y-125150000D03*
%TO.N,Net-(Q1036-S)*%
X323037500Y-159650000D03*
X270937500Y-186650000D03*
%TO.N,Net-(Q1038-D)*%
X289937500Y-180750000D03*
X323137500Y-171550000D03*
%TO.N,Net-(Q1040-D)*%
X289537500Y-187550000D03*
X282837500Y-186450000D03*
%TO.N,Net-(Q1041-D)*%
X288737500Y-186950000D03*
X278937500Y-198350000D03*
%TO.N,Net-(Q1043-D)*%
X299041500Y-180550000D03*
X295937500Y-185250000D03*
%TO.N,Net-(Q1045-G)*%
X304437500Y-140550000D03*
X304437500Y-152450000D03*
X304437500Y-176650000D03*
X304537500Y-128650000D03*
X304437500Y-194750000D03*
X304437500Y-164550000D03*
X304437500Y-188650000D03*
%TO.N,Net-(Q1046-G)*%
X345737500Y-193050000D03*
X343697500Y-193050000D03*
%TO.N,Net-(Q1050-D)*%
X277637500Y-181274000D03*
X323137500Y-135450000D03*
%TO.N,Net-(Q1055-G)*%
X308637500Y-164650000D03*
X308637500Y-152650000D03*
X308637500Y-194750000D03*
X308737500Y-128750000D03*
X308637500Y-188650000D03*
X308737500Y-140550000D03*
X308637500Y-176650000D03*
%TO.N,Net-(Q1057-D)*%
X331537500Y-125150000D03*
X264237500Y-205150000D03*
%TO.N,Net-(Q1058-G)*%
X312837500Y-194750000D03*
X312837500Y-164650000D03*
X312837500Y-128550000D03*
X312837500Y-176650000D03*
X312837500Y-188650000D03*
X312837500Y-140550000D03*
X312837500Y-152650000D03*
%TO.N,Net-(Q1060-G)*%
X317037500Y-176650000D03*
X317037500Y-188650000D03*
X317037500Y-164750000D03*
X317037500Y-194750000D03*
X317037500Y-152750000D03*
X317137500Y-128550000D03*
X317037500Y-140550000D03*
%TO.N,Net-(Q1063-S)*%
X270937500Y-197650000D03*
X327237500Y-160050000D03*
%TO.N,Net-(Q1065-D)*%
X327337500Y-171850000D03*
X289937500Y-191650000D03*
%TO.N,Net-(Q1067-D)*%
X289537500Y-198550000D03*
X282737500Y-197550000D03*
%TO.N,Net-(Q1068-D)*%
X288737500Y-197950000D03*
X278937500Y-209350000D03*
%TO.N,Net-(Q1070-D)*%
X299442500Y-181651470D03*
X296137500Y-196850000D03*
%TO.N,Net-(Q1071-G)*%
X321337500Y-128650000D03*
X321237500Y-194750000D03*
X321237500Y-164650000D03*
X321237500Y-140550000D03*
X321237500Y-176650000D03*
X321237500Y-188550000D03*
X321237500Y-152650000D03*
%TO.N,Net-(Q1074-G)*%
X325537500Y-128750000D03*
X325437500Y-164550000D03*
X325437500Y-176650000D03*
X325437500Y-194750000D03*
X325437500Y-152650000D03*
X325437500Y-188450000D03*
X325437500Y-140650000D03*
%TO.N,Net-(Q1078-D)*%
X277637500Y-192274000D03*
X327337500Y-135850000D03*
%TO.N,Net-(Q1084-G)*%
X329637500Y-176550000D03*
X329637500Y-194750000D03*
X329637500Y-164550000D03*
X329737500Y-128550000D03*
X329637500Y-140650000D03*
X329637500Y-152550000D03*
X329637500Y-188650000D03*
%TO.N,Net-(Q1087-G)*%
X333837500Y-140750000D03*
X333837500Y-164550000D03*
X333837500Y-188650000D03*
X333837500Y-194750000D03*
X333837500Y-176550000D03*
X333837500Y-128550000D03*
%TO.N,Net-(Q1091-S)*%
X331437500Y-160450000D03*
X270937500Y-208650000D03*
%TO.N,Net-(Q1093-D)*%
X289937500Y-202750000D03*
X331437500Y-172550000D03*
%TO.N,Net-(Q1095-D)*%
X289537500Y-209750000D03*
X282837500Y-208450000D03*
%TO.N,Net-(Q1096-D)*%
X288737500Y-208950000D03*
X348797500Y-208050000D03*
X288697500Y-215750000D03*
%TO.N,Net-(Q1098-D)*%
X300763530Y-182123970D03*
X296637500Y-201950000D03*
%TO.N,Net-(Q1102-D)*%
X331537500Y-136250000D03*
X277637500Y-203274000D03*
%TO.N,Net-(J21-Pin_17)*%
X268350000Y-67237500D03*
X250650000Y-69937500D03*
%TO.N,Net-(J21-Pin_21)*%
X268350000Y-82537500D03*
X250550000Y-84637500D03*
%TO.N,Net-(J21-Pin_14)*%
X268350000Y-55837500D03*
X250550000Y-58337500D03*
%TO.N,Net-(J21-Pin_19)*%
X268250000Y-74837500D03*
X250550000Y-77237500D03*
%TO.N,Net-(J21-Pin_15)*%
X250650000Y-62337500D03*
X268350000Y-59637500D03*
%TO.N,Net-(J21-Pin_20)*%
X250650000Y-81037500D03*
X268250000Y-78637500D03*
%TO.N,Net-(J21-Pin_16)*%
X250450000Y-66437500D03*
X268350000Y-63337500D03*
%TO.N,Net-(J21-Pin_18)*%
X250650000Y-73537500D03*
X268250000Y-71137500D03*
%TO.N,Net-(J22-Pin_20)*%
X300350000Y-78637500D03*
X282650000Y-80937500D03*
%TO.N,Net-(J22-Pin_16)*%
X300350000Y-63537500D03*
X282750000Y-65737500D03*
%TO.N,Net-(J22-Pin_14)*%
X300450000Y-55837500D03*
X282650000Y-58237500D03*
%TO.N,Net-(J22-Pin_19)*%
X300250000Y-74937500D03*
X282550000Y-77137500D03*
%TO.N,Net-(J22-Pin_15)*%
X300450000Y-59737500D03*
X282650000Y-61936500D03*
%TO.N,Net-(J22-Pin_17)*%
X282550000Y-69637500D03*
X300350000Y-67337500D03*
%TO.N,Net-(J22-Pin_18)*%
X300250000Y-71137500D03*
X282650000Y-73337500D03*
%TO.N,Net-(J22-Pin_21)*%
X282650000Y-84837500D03*
X300350000Y-82437500D03*
%TO.N,Net-(J23-Pin_17)*%
X314750000Y-69637500D03*
X332350000Y-67237500D03*
%TO.N,Net-(J23-Pin_15)*%
X314650000Y-61937500D03*
X332550000Y-59637500D03*
%TO.N,Net-(J23-Pin_21)*%
X314650000Y-84737500D03*
X332350000Y-82537500D03*
%TO.N,Net-(J23-Pin_18)*%
X314750000Y-73437500D03*
X332350000Y-71137500D03*
%TO.N,Net-(J23-Pin_14)*%
X332350000Y-55737500D03*
X314650000Y-58237500D03*
%TO.N,Net-(J23-Pin_19)*%
X332250000Y-74837500D03*
X314650000Y-77237500D03*
%TO.N,Net-(J23-Pin_16)*%
X314550000Y-65737500D03*
X332450000Y-63437500D03*
%TO.N,Net-(J23-Pin_20)*%
X314650000Y-80937500D03*
X332450000Y-78637500D03*
%TO.N,Net-(J24-Pin_16)*%
X364350000Y-63437500D03*
X346750000Y-65837500D03*
%TO.N,Net-(J24-Pin_18)*%
X364250000Y-71037500D03*
X346650000Y-73437500D03*
%TO.N,Net-(J24-Pin_20)*%
X364350000Y-78437500D03*
X346750000Y-80937500D03*
%TO.N,Net-(J24-Pin_21)*%
X364250000Y-82337500D03*
X346550000Y-84837500D03*
%TO.N,Net-(J24-Pin_15)*%
X364616443Y-59852087D03*
X346650000Y-62137500D03*
%TO.N,Net-(J24-Pin_17)*%
X346750000Y-69737500D03*
X364350000Y-67237500D03*
%TO.N,Net-(J24-Pin_19)*%
X364350000Y-74737500D03*
X346750000Y-77337500D03*
%TO.N,Net-(J24-Pin_14)*%
X364350000Y-55937500D03*
X346650000Y-58337500D03*
%TO.N,Net-(Q636-G)*%
X300450000Y-91335726D03*
X309350000Y-57137500D03*
X245550000Y-56837500D03*
X269440625Y-91346875D03*
X277350000Y-57037500D03*
%TO.N,Net-(Q637-G)*%
X300962149Y-91950305D03*
X277350000Y-60837500D03*
X309550000Y-60937500D03*
X269978502Y-91946875D03*
X265600000Y-93938500D03*
X245050000Y-60837500D03*
%TO.N,Net-(Q638-G)*%
X261750000Y-94538500D03*
X244649000Y-64637500D03*
X277550000Y-64837500D03*
X270372593Y-92660057D03*
X301450000Y-92633496D03*
X309550000Y-64737500D03*
%TO.N,Net-(Q639-G)*%
X309450000Y-68537500D03*
X270929177Y-93234703D03*
X257850000Y-95138500D03*
X301961542Y-93248581D03*
X277450000Y-68437500D03*
X244248000Y-68337500D03*
%TO.N,Net-(Q640-G)*%
X243847000Y-72137500D03*
X277450000Y-72337500D03*
X271357146Y-93935706D03*
X309550000Y-72437500D03*
X254100000Y-95837500D03*
X302450000Y-93934635D03*
%TO.N,Net-(Q641-G)*%
X309550000Y-76137500D03*
X277550000Y-76137500D03*
X302977054Y-94536477D03*
X250350000Y-96437500D03*
X271886277Y-94535726D03*
X243446000Y-75937500D03*
%TO.N,Net-(Q642-G)*%
X303550000Y-95136477D03*
X272414575Y-95136477D03*
X243045000Y-79931500D03*
X246850000Y-96937500D03*
X277450000Y-79937500D03*
X309650000Y-79937500D03*
%TO.N,Net-(Q643-G)*%
X304150000Y-95736477D03*
X242644000Y-83600000D03*
X242700000Y-97575000D03*
X272951023Y-95736477D03*
X309650000Y-83737500D03*
X277550000Y-83837500D03*
%TO.N,Net-(Q1453-D)*%
X337450000Y-57037500D03*
X368550000Y-58237500D03*
X305450000Y-57037500D03*
X341950000Y-96537500D03*
X309950000Y-96537500D03*
X278250000Y-96537500D03*
X273450000Y-57037500D03*
%TO.N,Net-(Q1452-D)*%
X368450000Y-61937500D03*
X337450000Y-60937500D03*
X273450000Y-60937500D03*
X309450000Y-97172818D03*
X305450000Y-60937500D03*
X282050000Y-97172818D03*
X341450000Y-97172818D03*
%TO.N,Net-(Q1451-D)*%
X273450000Y-64737500D03*
X308950000Y-97937500D03*
X285850000Y-97937500D03*
X368450000Y-65737500D03*
X305450000Y-64737500D03*
X337450000Y-64737500D03*
X340950000Y-97937500D03*
%TO.N,Net-(Q1450-D)*%
X368450000Y-69537500D03*
X289650000Y-98637500D03*
X305450000Y-68537500D03*
X308350000Y-98637500D03*
X337450000Y-68537500D03*
X340350000Y-98637500D03*
X273450000Y-68537500D03*
%TO.N,Net-(Q1449-D)*%
X307750000Y-99337500D03*
X293450000Y-99337500D03*
X337450000Y-72337500D03*
X339750000Y-99337500D03*
X368450000Y-73337500D03*
X305450000Y-72337500D03*
X273450000Y-72337500D03*
%TO.N,Net-(Q651-G)*%
X339150000Y-100037500D03*
X297250000Y-100037500D03*
X368550000Y-77137500D03*
X305450000Y-76137500D03*
X307150000Y-100037500D03*
X273450000Y-76137500D03*
X337450000Y-76137500D03*
%TO.N,Net-(Q652-G)*%
X273450000Y-79937500D03*
X368450000Y-80937500D03*
X301050000Y-100772818D03*
X338450000Y-100772818D03*
X305450000Y-79937500D03*
X306450000Y-100772818D03*
X337450000Y-79937500D03*
%TO.N,Net-(Q653-G)*%
X337450000Y-83737500D03*
X337550000Y-101437500D03*
X368450000Y-84737500D03*
X304850000Y-101437500D03*
X305450000Y-83737500D03*
X273450000Y-83737500D03*
%TD*%
D14*
%TO.N,Rising Edge*%
X151360000Y-71300000D02*
X153060000Y-73000000D01*
X142000000Y-71300000D02*
X151360000Y-71300000D01*
X135700000Y-72900000D02*
X140400000Y-72900000D01*
X132500000Y-76100000D02*
X135700000Y-72900000D01*
X122700000Y-73700000D02*
X125100000Y-76100000D01*
X125100000Y-76100000D02*
X132500000Y-76100000D01*
X115178472Y-76521528D02*
X118000000Y-73700000D01*
X118000000Y-73700000D02*
X122700000Y-73700000D01*
X81400000Y-76521528D02*
X115178472Y-76521528D01*
X140400000Y-72900000D02*
X142000000Y-71300000D01*
%TO.N,Faling Edge*%
X148660000Y-31000000D02*
X153060000Y-35400000D01*
X144000000Y-28800000D02*
X146200000Y-31000000D01*
X81860000Y-28800000D02*
X144000000Y-28800000D01*
X75260000Y-35400000D02*
X81860000Y-28800000D01*
X146200000Y-31000000D02*
X148660000Y-31000000D01*
D15*
X153060000Y-34960000D02*
X153060000Y-35400000D01*
D14*
X54799000Y-73100000D02*
X54799000Y-69899000D01*
X54799000Y-69899000D02*
X50900000Y-66000000D01*
%TO.N,Rising Edge*%
X78781528Y-76521528D02*
X75260000Y-73000000D01*
X81400000Y-76521528D02*
X78781528Y-76521528D01*
X75260000Y-76521528D02*
X81400000Y-76521528D01*
X59900000Y-91881528D02*
X75260000Y-76521528D01*
X75260000Y-76521528D02*
X75260000Y-73000000D01*
X59900000Y-93500000D02*
X59900000Y-91881528D01*
D16*
%TO.N,ADR 2*%
X50862500Y-58598000D02*
X30584500Y-38320000D01*
X66798000Y-58598000D02*
X50862500Y-58598000D01*
X67800000Y-59600000D02*
X66798000Y-58598000D01*
X30584500Y-38320000D02*
X29400000Y-38320000D01*
%TO.N,ADR 3*%
X32596000Y-38896000D02*
X32596000Y-39764400D01*
X29480000Y-35780000D02*
X32596000Y-38896000D01*
X32596000Y-39764400D02*
X51028600Y-58197000D01*
X51028600Y-58197000D02*
X70797000Y-58197000D01*
X29400000Y-35780000D02*
X29480000Y-35780000D01*
X70797000Y-58197000D02*
X72200000Y-59600000D01*
%TO.N,ADR 4*%
X32997000Y-36897000D02*
X29400000Y-33300000D01*
X32997000Y-39598300D02*
X32997000Y-36897000D01*
X29400000Y-33300000D02*
X29400000Y-33240000D01*
X51194700Y-57796000D02*
X32997000Y-39598300D01*
X74996000Y-57796000D02*
X51194700Y-57796000D01*
X76700000Y-59500000D02*
X74996000Y-57796000D01*
%TO.N,ADR 5*%
X33398000Y-34698000D02*
X33398000Y-39432200D01*
X78995000Y-57395000D02*
X81200000Y-59600000D01*
X29400000Y-30700000D02*
X33398000Y-34698000D01*
X33398000Y-39432200D02*
X51360800Y-57395000D01*
X51360800Y-57395000D02*
X78995000Y-57395000D01*
%TO.N,ADR 6*%
X29460000Y-28160000D02*
X29400000Y-28160000D01*
X33799000Y-39266100D02*
X33799000Y-32499000D01*
X51526900Y-56994000D02*
X33799000Y-39266100D01*
X33799000Y-32499000D02*
X29460000Y-28160000D01*
X83194000Y-56994000D02*
X51526900Y-56994000D01*
X85700000Y-59500000D02*
X83194000Y-56994000D01*
%TO.N,ADR 7*%
X34200000Y-30400000D02*
X29420000Y-25620000D01*
X34200000Y-39100000D02*
X34200000Y-30400000D01*
X29420000Y-25620000D02*
X29400000Y-25620000D01*
X87393000Y-56593000D02*
X51693000Y-56593000D01*
X90200000Y-59400000D02*
X87393000Y-56593000D01*
X51693000Y-56593000D02*
X34200000Y-39100000D01*
%TO.N,ADR 1*%
X50697400Y-59000000D02*
X32557400Y-40860000D01*
X58400000Y-59000000D02*
X50697400Y-59000000D01*
X58401000Y-58999000D02*
X58400000Y-59000000D01*
X32557400Y-40860000D02*
X29400000Y-40860000D01*
X62699000Y-58999000D02*
X58401000Y-58999000D01*
X63300000Y-59600000D02*
X62699000Y-58999000D01*
X29400000Y-40860000D02*
X29340000Y-40800000D01*
%TO.N,ADR 0*%
X34530300Y-43400000D02*
X29400000Y-43400000D01*
X50730300Y-59600000D02*
X34530300Y-43400000D01*
X58700000Y-59600000D02*
X50730300Y-59600000D01*
%TO.N,ADR 15*%
X26860000Y-25640000D02*
X26860000Y-25620000D01*
X23198000Y-29302000D02*
X26860000Y-25640000D01*
X23198000Y-45298000D02*
X23198000Y-29302000D01*
X43019500Y-65119500D02*
X23198000Y-45298000D01*
X54700000Y-65119500D02*
X43019500Y-65119500D01*
X55814500Y-64005000D02*
X54700000Y-65119500D01*
X106731200Y-62904000D02*
X105630200Y-64005000D01*
X110599243Y-62904000D02*
X106731200Y-62904000D01*
X110901243Y-62602000D02*
X110599243Y-62904000D01*
X113894857Y-62603000D02*
X113893857Y-62602000D01*
X115057143Y-62603000D02*
X113894857Y-62603000D01*
X115058143Y-62602000D02*
X115057143Y-62603000D01*
X118608200Y-62602000D02*
X115058143Y-62602000D01*
X118609200Y-62601000D02*
X118608200Y-62602000D01*
X118917100Y-62600000D02*
X118916100Y-62601000D01*
X118916100Y-62601000D02*
X118609200Y-62601000D01*
X113893857Y-62602000D02*
X110901243Y-62602000D01*
X119000000Y-62600000D02*
X118917100Y-62600000D01*
X119899000Y-61701000D02*
X119000000Y-62600000D01*
X127976000Y-61100000D02*
X127375000Y-61701000D01*
X105630200Y-64005000D02*
X55814500Y-64005000D01*
X127375000Y-61701000D02*
X119899000Y-61701000D01*
%TO.N,ADR 14*%
X26840000Y-28160000D02*
X26860000Y-28160000D01*
X23599000Y-31401000D02*
X26840000Y-28160000D01*
X43185600Y-64718500D02*
X23599000Y-45131900D01*
X55564400Y-63604000D02*
X54449900Y-64718500D01*
X23599000Y-45131900D02*
X23599000Y-31401000D01*
X105464100Y-63604000D02*
X55564400Y-63604000D01*
X106566100Y-62502000D02*
X105464100Y-63604000D01*
X108567800Y-62502000D02*
X106566100Y-62502000D01*
X108568800Y-62503000D02*
X108567800Y-62502000D01*
X110433143Y-62503000D02*
X108568800Y-62503000D01*
X54449900Y-64718500D02*
X43185600Y-64718500D01*
X110735143Y-62201000D02*
X110433143Y-62503000D01*
X114059957Y-62201000D02*
X110735143Y-62201000D01*
X114891043Y-62202000D02*
X114060957Y-62202000D01*
X114060957Y-62202000D02*
X114059957Y-62201000D01*
X118750000Y-62200000D02*
X118443100Y-62200000D01*
X118442100Y-62201000D02*
X114892043Y-62201000D01*
X114892043Y-62201000D02*
X114891043Y-62202000D01*
X119850000Y-61100000D02*
X118750000Y-62200000D01*
X123476000Y-61100000D02*
X119850000Y-61100000D01*
X118443100Y-62200000D02*
X118442100Y-62201000D01*
%TO.N,ADR 13*%
X24000000Y-44965800D02*
X43351700Y-64317500D01*
X24000000Y-33560000D02*
X24000000Y-44965800D01*
X26860000Y-30700000D02*
X24000000Y-33560000D01*
X43351700Y-64317500D02*
X53600000Y-64317500D01*
%TO.N,ADR 12*%
X24446000Y-35654000D02*
X26860000Y-33240000D01*
X24446000Y-44844700D02*
X24446000Y-35654000D01*
X43517800Y-63916500D02*
X24446000Y-44844700D01*
X54117700Y-63916500D02*
X43517800Y-63916500D01*
X106169043Y-61700000D02*
X105067043Y-62802000D01*
X105067043Y-62802000D02*
X55232200Y-62802000D01*
X108900000Y-61700000D02*
X106169043Y-61700000D01*
X108901000Y-61701000D02*
X108900000Y-61700000D01*
X110100943Y-61701000D02*
X108901000Y-61701000D01*
X110601943Y-61200000D02*
X110100943Y-61701000D01*
X114476000Y-61200000D02*
X110601943Y-61200000D01*
X55232200Y-62802000D02*
X54117700Y-63916500D01*
%TO.N,ADR 11*%
X106201943Y-61100000D02*
X109852000Y-61100000D01*
X55066100Y-62401000D02*
X104900943Y-62401000D01*
X24847000Y-44678600D02*
X43683900Y-63515500D01*
X43683900Y-63515500D02*
X53951600Y-63515500D01*
X104900943Y-62401000D02*
X106201943Y-61100000D01*
X24847000Y-37853000D02*
X24847000Y-44678600D01*
X26860000Y-35840000D02*
X24847000Y-37853000D01*
X26860000Y-35780000D02*
X26860000Y-35840000D01*
X53951600Y-63515500D02*
X55066100Y-62401000D01*
%TO.N,ADR 10*%
X26860000Y-38340000D02*
X26860000Y-38320000D01*
X25248000Y-44512500D02*
X25248000Y-39952000D01*
X25248000Y-39952000D02*
X26860000Y-38340000D01*
X53785500Y-63114500D02*
X43850000Y-63114500D01*
X43850000Y-63114500D02*
X25248000Y-44512500D01*
X54900000Y-62000000D02*
X53785500Y-63114500D01*
X100700000Y-62000000D02*
X54900000Y-62000000D01*
X101600000Y-61100000D02*
X100700000Y-62000000D01*
X105352000Y-61100000D02*
X101600000Y-61100000D01*
%TO.N,ADR 9*%
X100200000Y-61600000D02*
X100700000Y-61100000D01*
X44113500Y-62713500D02*
X53586500Y-62713500D01*
X25649000Y-44249000D02*
X44113500Y-62713500D01*
X53586500Y-62713500D02*
X54700000Y-61600000D01*
X54700000Y-61600000D02*
X100200000Y-61600000D01*
X25649000Y-42071000D02*
X25649000Y-44249000D01*
X26860000Y-40860000D02*
X25649000Y-42071000D01*
%TO.N,ADR 8*%
X26900000Y-43440000D02*
X26860000Y-43400000D01*
X44279600Y-62312500D02*
X26900000Y-44932900D01*
X26900000Y-44932900D02*
X26900000Y-43440000D01*
X53300000Y-62312500D02*
X44279600Y-62312500D01*
X96352000Y-61000000D02*
X54612500Y-61000000D01*
X54612500Y-61000000D02*
X53300000Y-62312500D01*
%TO.N,!JMP*%
X80167100Y-114700000D02*
X92284660Y-114700000D01*
X49400000Y-141900000D02*
X58222000Y-133078000D01*
X58222000Y-133078000D02*
X73906661Y-133078000D01*
X49400000Y-141900000D02*
X46798000Y-144502000D01*
X46798000Y-144502000D02*
X46798000Y-166298000D01*
X75600000Y-131384660D02*
X75600000Y-119267100D01*
X73906661Y-133078000D02*
X74692330Y-132292330D01*
X46798000Y-166298000D02*
X55700000Y-175200000D01*
X130900000Y-104600000D02*
X120800000Y-114700000D01*
X74692330Y-132292330D02*
X75600000Y-131384660D01*
X55700000Y-175200000D02*
X73800000Y-175200000D01*
X75600000Y-119267100D02*
X80167100Y-114700000D01*
X136300000Y-104600000D02*
X130900000Y-104600000D01*
X120800000Y-114700000D02*
X92284660Y-114700000D01*
%TO.N,!BOP*%
X74072761Y-133479000D02*
X76100000Y-131451760D01*
X115500000Y-115100000D02*
X119500000Y-119100000D01*
X60021000Y-133479000D02*
X74072761Y-133479000D01*
X80400000Y-115100000D02*
X115500000Y-115100000D01*
X47199000Y-146301000D02*
X55200000Y-138300000D01*
X76100000Y-131451760D02*
X76100000Y-119400000D01*
X47199000Y-165899000D02*
X47199000Y-146301000D01*
X55800000Y-174500000D02*
X47199000Y-165899000D01*
X76100000Y-119400000D02*
X80400000Y-115100000D01*
X83700000Y-174500000D02*
X55800000Y-174500000D01*
X55200000Y-138300000D02*
X60021000Y-133479000D01*
X119500000Y-119100000D02*
X124700000Y-119100000D01*
%TO.N,!BON*%
X57400000Y-140100000D02*
X59100000Y-138400000D01*
X87999000Y-173899000D02*
X61199000Y-173899000D01*
X57400000Y-156500000D02*
X57400000Y-140100000D01*
X57361500Y-156538500D02*
X57400000Y-156500000D01*
X88600000Y-174500000D02*
X87999000Y-173899000D01*
X57361500Y-170061500D02*
X57361500Y-156538500D01*
X61199000Y-173899000D02*
X57361500Y-170061500D01*
%TO.N,!BOZ*%
X67100000Y-142300000D02*
X63100000Y-138300000D01*
X67100000Y-170500000D02*
X67100000Y-142300000D01*
X92600000Y-173300000D02*
X69900000Y-173300000D01*
X93700000Y-174400000D02*
X92600000Y-173300000D01*
X69900000Y-173300000D02*
X67100000Y-170500000D01*
%TO.N,!BNZ*%
X69463500Y-140763500D02*
X67100000Y-138400000D01*
X96800000Y-172700000D02*
X72700000Y-172700000D01*
X72700000Y-172700000D02*
X69463500Y-169463500D01*
X98500000Y-174400000D02*
X96800000Y-172700000D01*
X69463500Y-169463500D02*
X69463500Y-140763500D01*
%TO.N,!BOO*%
X71300000Y-141650057D02*
X71000000Y-141350057D01*
X84454714Y-172300000D02*
X71300000Y-159145286D01*
X71000000Y-141350057D02*
X71000000Y-138300000D01*
X101300000Y-172300000D02*
X84454714Y-172300000D01*
X71300000Y-159145286D02*
X71300000Y-141650057D01*
X103300000Y-174300000D02*
X101300000Y-172300000D01*
%TO.N,!BNO*%
X85099000Y-171899000D02*
X76200000Y-163000000D01*
X76200000Y-163000000D02*
X76200000Y-142145286D01*
X106199000Y-171899000D02*
X85099000Y-171899000D01*
X108700000Y-174400000D02*
X106199000Y-171899000D01*
X76200000Y-142145286D02*
X75000000Y-140945286D01*
X75000000Y-140945286D02*
X75000000Y-138400000D01*
%TO.N,!BOU*%
X113700000Y-174600000D02*
X110500000Y-171400000D01*
X82963500Y-142163500D02*
X79100000Y-138300000D01*
X82963500Y-167300000D02*
X82963500Y-142163500D01*
X110500000Y-171400000D02*
X87063500Y-171400000D01*
X87063500Y-171400000D02*
X82963500Y-167300000D01*
%TO.N,!BNU*%
X88699000Y-170999000D02*
X87700000Y-170000000D01*
X115299000Y-170999000D02*
X105400000Y-170999000D01*
X105400000Y-170999000D02*
X88699000Y-170999000D01*
X83364500Y-138764500D02*
X83100000Y-138500000D01*
X83364500Y-165664500D02*
X83364500Y-138764500D01*
X118800000Y-174500000D02*
X115299000Y-170999000D01*
X87700000Y-170000000D02*
X83364500Y-165664500D01*
%TO.N,!BOC*%
X92199000Y-169299000D02*
X87200000Y-164300000D01*
X123800000Y-174300000D02*
X118799000Y-169299000D01*
X118799000Y-169299000D02*
X92199000Y-169299000D01*
X87200000Y-138300000D02*
X87100000Y-138200000D01*
X87200000Y-164300000D02*
X87200000Y-138300000D01*
%TO.N,!BNC*%
X114800000Y-168898000D02*
X94098000Y-168898000D01*
X92400000Y-167200000D02*
X92400000Y-142600000D01*
X125200000Y-174500000D02*
X119800000Y-169100000D01*
X94098000Y-168898000D02*
X92850000Y-167650000D01*
X92850000Y-167650000D02*
X92400000Y-167200000D01*
X128900000Y-174500000D02*
X125200000Y-174500000D01*
X119800000Y-169100000D02*
X119598000Y-168898000D01*
X119598000Y-168898000D02*
X114800000Y-168898000D01*
%TO.N,!Clear*%
X208300000Y-128300000D02*
X206001000Y-130599000D01*
X194150943Y-130599000D02*
X187549943Y-137200000D01*
X140200000Y-137200000D02*
X135100000Y-142300000D01*
X131801000Y-174301000D02*
X132500000Y-175000000D01*
X187549943Y-137200000D02*
X147100000Y-137200000D01*
X147100000Y-137200000D02*
X140200000Y-137200000D01*
X206001000Y-130599000D02*
X194150943Y-130599000D01*
X135100000Y-142300000D02*
X131801000Y-145599000D01*
X131801000Y-145599000D02*
X131801000Y-174301000D01*
%TO.N,!Load*%
X66100000Y-154700000D02*
X66613500Y-155213500D01*
X50155112Y-149155112D02*
X48400000Y-147400000D01*
X66613500Y-168286500D02*
X66500000Y-168400000D01*
X133031786Y-146968214D02*
X137200000Y-142800000D01*
X137500000Y-173767214D02*
X133031786Y-169299000D01*
X50155112Y-167144888D02*
X50155112Y-149155112D01*
X66613500Y-155213500D02*
X66613500Y-168286500D01*
X137500000Y-175100000D02*
X137500000Y-173767214D01*
X133031786Y-168400000D02*
X133031786Y-146968214D01*
X133031786Y-169299000D02*
X133031786Y-168400000D01*
X50000000Y-167300000D02*
X50155112Y-167144888D01*
%TO.N,!Store*%
X181163500Y-145436500D02*
X137263500Y-145436500D01*
X200100000Y-132800000D02*
X193800000Y-132800000D01*
X193800000Y-132800000D02*
X181163500Y-145436500D01*
X135100000Y-147600000D02*
X133549000Y-149151000D01*
X133549000Y-149151000D02*
X133549000Y-166049000D01*
X133549000Y-166049000D02*
X142500000Y-175000000D01*
X137263500Y-145436500D02*
X135100000Y-147600000D01*
%TO.N,!INC*%
X146467214Y-174800000D02*
X134150000Y-162482786D01*
X213324971Y-117875029D02*
X213248943Y-117799000D01*
X147500000Y-174800000D02*
X146467214Y-174800000D01*
X215800000Y-120350057D02*
X213324971Y-117875029D01*
X134150000Y-162482786D02*
X134150000Y-157000000D01*
X213248942Y-117799000D02*
X213324971Y-117875029D01*
X215800000Y-136000000D02*
X215800000Y-120350057D01*
%TO.N,!DEC*%
X152500000Y-175100000D02*
X138150000Y-160750000D01*
X138150000Y-160750000D02*
X138150000Y-156900000D01*
%TO.N,!RS*%
X156467214Y-175100000D02*
X142150000Y-160782786D01*
X157500000Y-175100000D02*
X156467214Y-175100000D01*
X142150000Y-160782786D02*
X142150000Y-156900000D01*
%TO.N,!NOT*%
X162500000Y-174800000D02*
X162500000Y-174101000D01*
X162500000Y-174101000D02*
X145299000Y-156900000D01*
%TO.N,!AND*%
X166099000Y-175000000D02*
X148599000Y-157500000D01*
X195100000Y-129800000D02*
X203300000Y-129800000D01*
X203300000Y-129800000D02*
X203700000Y-129400000D01*
X167500000Y-175000000D02*
X166099000Y-175000000D01*
%TO.N,!OR*%
X172500000Y-175000000D02*
X155111500Y-157611500D01*
X155111500Y-157611500D02*
X152599000Y-157611500D01*
X195000000Y-132200000D02*
X206700000Y-132200000D01*
%TO.N,!XOR*%
X174099000Y-175000000D02*
X156599000Y-157500000D01*
X190200000Y-133700000D02*
X198500000Y-125400000D01*
X198500000Y-125400000D02*
X203800000Y-125400000D01*
X177500000Y-175000000D02*
X174099000Y-175000000D01*
%TO.N,!ADD*%
X182500000Y-175000000D02*
X165000000Y-157500000D01*
X188350057Y-134700000D02*
X204650057Y-118400000D01*
X204650057Y-118400000D02*
X206700000Y-118400000D01*
X188300000Y-134700000D02*
X188350057Y-134700000D01*
X165000000Y-157500000D02*
X160599000Y-157500000D01*
%TO.N,!ADC*%
X199500000Y-137300000D02*
X200500000Y-136300000D01*
X213400000Y-126349943D02*
X213400000Y-118800000D01*
X200500000Y-136300000D02*
X203449943Y-136300000D01*
X187500000Y-175000000D02*
X186267214Y-175000000D01*
X194000000Y-137300000D02*
X199500000Y-137300000D01*
X203449943Y-136300000D02*
X213400000Y-126349943D01*
X186267214Y-175000000D02*
X166745984Y-155478770D01*
X166745984Y-155478770D02*
X166745984Y-152045984D01*
%TO.N,!MOV*%
X196300000Y-136000000D02*
X198300000Y-136000000D01*
X170300000Y-152000000D02*
X170300000Y-152500000D01*
X198300000Y-136000000D02*
X201200000Y-133100000D01*
X170300000Y-152800000D02*
X170300000Y-152500000D01*
X175600000Y-146700000D02*
X170300000Y-152000000D01*
X192500000Y-175000000D02*
X170300000Y-152800000D01*
%TO.N,Net-(Q17-G)*%
X206600000Y-199500000D02*
X221000000Y-199500000D01*
X205700000Y-189200000D02*
X221000000Y-189200000D01*
X99800000Y-176300000D02*
X99800000Y-218200000D01*
X89900000Y-176200000D02*
X89900000Y-218200000D01*
X207000000Y-168700000D02*
X221000000Y-168700000D01*
X109900000Y-176300000D02*
X109900000Y-218200000D01*
X119900000Y-176300000D02*
X119900000Y-218200000D01*
X221000000Y-178500000D02*
X206900000Y-178500000D01*
X80000000Y-176300000D02*
X80000000Y-218200000D01*
X64100000Y-215100000D02*
X67200000Y-218200000D01*
X64100000Y-211100000D02*
X64100000Y-215100000D01*
%TO.N,Net-(Q15-G)*%
X115000000Y-217400000D02*
X114900000Y-217500000D01*
X209801000Y-172999000D02*
X209700000Y-173100000D01*
X209600000Y-194200000D02*
X220400000Y-194200000D01*
X71600000Y-184300000D02*
X71600000Y-217500000D01*
X64700000Y-214500000D02*
X67700000Y-217500000D01*
X220400000Y-172999000D02*
X209801000Y-172999000D01*
X94800000Y-180300000D02*
X94800000Y-217500000D01*
X71400000Y-184100000D02*
X71600000Y-184300000D01*
X64700000Y-207300000D02*
X64700000Y-214500000D01*
X64100000Y-206700000D02*
X64700000Y-207300000D01*
X115000000Y-180300000D02*
X115000000Y-217400000D01*
%TO.N,Net-(Q21-G)*%
X154800000Y-184300000D02*
X154800000Y-216800000D01*
X206800000Y-157400000D02*
X219800000Y-157400000D01*
X135100000Y-184300000D02*
X135100000Y-216800000D01*
X65200000Y-203500000D02*
X64000000Y-202300000D01*
X144800000Y-216700000D02*
X144700000Y-216800000D01*
X124700000Y-216800000D02*
X124800000Y-216700000D01*
X65200000Y-213800000D02*
X65200000Y-203500000D01*
X144800000Y-184300000D02*
X144800000Y-216700000D01*
X85000000Y-184300000D02*
X85000000Y-216800000D01*
X124800000Y-216700000D02*
X124800000Y-184400000D01*
X68200000Y-216800000D02*
X65200000Y-213800000D01*
%TO.N,Net-(Q25-G)*%
X68700000Y-216100000D02*
X65600000Y-213000000D01*
X65600000Y-213000000D02*
X65600000Y-199500000D01*
X139700000Y-188300000D02*
X139700000Y-216100000D01*
X104800000Y-188300000D02*
X104800000Y-216100000D01*
X65600000Y-199500000D02*
X64100000Y-198000000D01*
X159900000Y-188200000D02*
X159900000Y-216100000D01*
%TO.N,Net-(Q40-G)*%
X66000000Y-212200000D02*
X66000000Y-195400000D01*
X184800000Y-192200000D02*
X184800000Y-215400000D01*
X69200000Y-215400000D02*
X66000000Y-212200000D01*
X164800000Y-192300000D02*
X164800000Y-215400000D01*
X64100000Y-193500000D02*
X66000000Y-195400000D01*
X129900000Y-192200000D02*
X129900000Y-215400000D01*
X175000000Y-192300000D02*
X175000000Y-215400000D01*
%TO.N,Net-(Q53-G)*%
X149800000Y-196300000D02*
X149800000Y-214700000D01*
X64200000Y-189200000D02*
X66400000Y-191400000D01*
X69700000Y-214700000D02*
X66400000Y-211400000D01*
X179900000Y-196300000D02*
X179900000Y-214700000D01*
X66400000Y-211400000D02*
X66400000Y-191400000D01*
%TO.N,Net-(Q57-G)*%
X70200000Y-214000000D02*
X66801000Y-210601000D01*
X169800000Y-213900000D02*
X169700000Y-214000000D01*
X66801000Y-210601000D02*
X66801000Y-187501000D01*
X66801000Y-187501000D02*
X64100000Y-184800000D01*
X169800000Y-200300000D02*
X169800000Y-213900000D01*
%TO.N,Net-(Q603-D)*%
X70700000Y-213300000D02*
X67202000Y-209802000D01*
X67202000Y-183502000D02*
X64200000Y-180500000D01*
X67202000Y-209802000D02*
X67202000Y-183502000D01*
X189900000Y-204300000D02*
X190500000Y-204900000D01*
X190500000Y-204900000D02*
X190500000Y-213300000D01*
%TO.N,Net-(Q10-G)*%
X74706250Y-200806250D02*
X74706250Y-207593750D01*
X188800000Y-201900000D02*
X188800000Y-207600000D01*
X74706250Y-207593750D02*
X74700000Y-207600000D01*
%TO.N,Net-(Q11-G)*%
X73899000Y-197701000D02*
X74100000Y-197902000D01*
X188200000Y-198400000D02*
X188200000Y-208300000D01*
X169200000Y-197600000D02*
X169200000Y-208300000D01*
X74100000Y-197902000D02*
X74100000Y-208300000D01*
%TO.N,Net-(Q12-G)*%
X187600000Y-209000000D02*
X187600000Y-195000000D01*
X168600000Y-194200000D02*
X168600000Y-209000000D01*
X73500000Y-194600000D02*
X73500000Y-197450057D01*
X73500000Y-197450057D02*
X73498000Y-197452057D01*
X73498000Y-197949943D02*
X73500000Y-197951943D01*
X149200000Y-193400000D02*
X149200000Y-209000000D01*
X73499000Y-208548943D02*
X73500000Y-208549943D01*
X73500000Y-208549943D02*
X73500000Y-209000000D01*
X73500000Y-197951943D02*
X73500000Y-208050057D01*
X73300000Y-194400000D02*
X73500000Y-194600000D01*
X73500000Y-208050057D02*
X73499000Y-208051057D01*
X179300000Y-193500000D02*
X179300000Y-209000000D01*
X73499000Y-208051057D02*
X73499000Y-208548943D01*
X73498000Y-197452057D02*
X73498000Y-197949943D01*
%TO.N,Net-(Q13-G)*%
X148600000Y-189900000D02*
X148600000Y-209700000D01*
X72900000Y-191100000D02*
X72900000Y-209700000D01*
X72700000Y-190900000D02*
X72900000Y-191100000D01*
X129300000Y-189300000D02*
X129300000Y-209700000D01*
%TO.N,Net-(Q14-G)*%
X159300000Y-185300000D02*
X159300000Y-210400000D01*
X207300000Y-153100000D02*
X217400000Y-153100000D01*
X104200000Y-185400000D02*
X104200000Y-210400000D01*
X72300000Y-187700000D02*
X72300000Y-210400000D01*
X128700000Y-185900000D02*
X128700000Y-210400000D01*
X72100000Y-187500000D02*
X72300000Y-187700000D01*
X139100000Y-185600000D02*
X139100000Y-210400000D01*
X217400000Y-163400000D02*
X207200000Y-163400000D01*
X148000000Y-186600000D02*
X148000000Y-210400000D01*
%TO.N,Net-(Q18-G)*%
X210200000Y-183400000D02*
X211400000Y-184600000D01*
X124200000Y-181500000D02*
X124200000Y-211100000D01*
X103600000Y-182000000D02*
X103600000Y-211100000D01*
X84400000Y-181200000D02*
X84400000Y-211100000D01*
X211400000Y-184600000D02*
X218000000Y-184600000D01*
X208800000Y-204700000D02*
X208800000Y-211100000D01*
%TO.N,Net-(Q1-D)*%
X218600000Y-194800000D02*
X207100000Y-194800000D01*
X71000000Y-181000000D02*
X71000000Y-211800000D01*
X207050000Y-194750000D02*
X206850000Y-194750000D01*
X83799000Y-177801000D02*
X83799000Y-211799000D01*
X208200000Y-185200000D02*
X218600000Y-185200000D01*
X207100000Y-194800000D02*
X207050000Y-194750000D01*
X114400000Y-177200000D02*
X114400000Y-211800000D01*
X207000000Y-184000000D02*
X208200000Y-185200000D01*
X83799000Y-211799000D02*
X83800000Y-211800000D01*
X70800000Y-180800000D02*
X71000000Y-181000000D01*
X204800000Y-204700000D02*
X204800000Y-211800000D01*
X218600000Y-173700000D02*
X207100000Y-173700000D01*
X94200000Y-177500000D02*
X94200000Y-211800000D01*
X123600000Y-178000000D02*
X123600000Y-211800000D01*
X83800000Y-177800000D02*
X83799000Y-177801000D01*
X103000000Y-178600000D02*
X103000000Y-211800000D01*
D14*
%TO.N,Faling Edge*%
X59900000Y-98400000D02*
X54799000Y-93299000D01*
X54799000Y-93299000D02*
X54799000Y-73100000D01*
D15*
%TO.N,Rising Edge*%
X291462500Y-45297500D02*
X291500000Y-45260000D01*
D16*
%TO.N,Read New Instruction*%
X49100000Y-170000000D02*
X40500000Y-178600000D01*
X40500000Y-178600000D02*
X40500000Y-185480000D01*
X39000000Y-186980000D02*
X40500000Y-185480000D01*
%TO.N,Buss3*%
X225054000Y-26554000D02*
X225054000Y-48066500D01*
X225054000Y-48066500D02*
X226950000Y-49962500D01*
X224803218Y-26303218D02*
X225054000Y-26554000D01*
X224795552Y-26303218D02*
X224803218Y-26303218D01*
%TO.N,Buss2*%
X225254702Y-25645298D02*
X225455000Y-25845596D01*
X225455000Y-43467500D02*
X227350000Y-45362500D01*
X225455000Y-25845596D02*
X225455000Y-43467500D01*
%TO.N,rst*%
X31900000Y-146700000D02*
X31900000Y-182420000D01*
X27951000Y-127269000D02*
X30931000Y-127269000D01*
X68000000Y-108500000D02*
X69600000Y-106900000D01*
D15*
X322650000Y-40180000D02*
X323500000Y-40180000D01*
D16*
X26800000Y-128420000D02*
X27951000Y-127269000D01*
X49700000Y-108500000D02*
X68000000Y-108500000D01*
X31900000Y-182420000D02*
X39000000Y-189520000D01*
X70200000Y-68300000D02*
X70180000Y-68320000D01*
X30931000Y-127269000D02*
X49700000Y-108500000D01*
X78180000Y-27400000D02*
X70180000Y-35400000D01*
X28100000Y-142900000D02*
X31900000Y-146700000D01*
X28100000Y-129720000D02*
X28100000Y-142900000D01*
X70180000Y-68320000D02*
X70180000Y-73000000D01*
X142900000Y-27400000D02*
X78180000Y-27400000D01*
D15*
X291462500Y-40217500D02*
X291500000Y-40180000D01*
D16*
X69600000Y-106900000D02*
X70160000Y-106900000D01*
X26800000Y-128420000D02*
X28100000Y-129720000D01*
%TO.N,Buss0*%
X226000000Y-24200000D02*
X229150000Y-27350000D01*
X229150000Y-27350000D02*
X229150000Y-35362500D01*
X229150000Y-35362500D02*
X230050000Y-36262500D01*
%TO.N,Buss6*%
X223851000Y-60363500D02*
X226950000Y-63462500D01*
X223400000Y-28500000D02*
X223851000Y-28951000D01*
X223851000Y-28951000D02*
X223851000Y-60363500D01*
%TO.N,Buss7*%
X223450000Y-29650000D02*
X223450000Y-64162500D01*
X223100000Y-29300000D02*
X223450000Y-29650000D01*
X223450000Y-64162500D02*
X227250000Y-67962500D01*
%TO.N,Buss4*%
X224653000Y-27353000D02*
X224653000Y-52065500D01*
X224300000Y-27000000D02*
X224653000Y-27353000D01*
X224653000Y-52065500D02*
X227050000Y-54462500D01*
D15*
%TO.N,CLOCK*%
X41100000Y-83900000D02*
X41100000Y-97991364D01*
X28051000Y-124629000D02*
X26800000Y-125880000D01*
X45200000Y-79800000D02*
X41100000Y-83900000D01*
X41100000Y-97991364D02*
X28051000Y-111040364D01*
X28051000Y-111040364D02*
X28051000Y-124629000D01*
X53100000Y-79800000D02*
X45200000Y-79800000D01*
D16*
%TO.N,Buss5*%
X224252000Y-28152000D02*
X223800000Y-27700000D01*
X224252000Y-56164500D02*
X224252000Y-28152000D01*
X227150000Y-59062500D02*
X224252000Y-56164500D01*
%TO.N,Buss1*%
X227850000Y-40162500D02*
X228450000Y-39562500D01*
X227850000Y-40862500D02*
X227850000Y-40162500D01*
X225504807Y-24885396D02*
X228450000Y-27830589D01*
X228450000Y-39562500D02*
X228450000Y-27830589D01*
%TO.N,ADR 13*%
X53800000Y-64317500D02*
X54282500Y-64317500D01*
X105298000Y-63203000D02*
X106400000Y-62101000D01*
X114226057Y-61800000D02*
X114227057Y-61801000D01*
X54283800Y-64317500D02*
X55398300Y-63203000D01*
X53600000Y-64317500D02*
X53800000Y-64317500D01*
X108734900Y-62102000D02*
X110267043Y-62102000D01*
X118276000Y-61800000D02*
X118976000Y-61100000D01*
X106400000Y-62101000D02*
X108733900Y-62101000D01*
X114725943Y-61800000D02*
X118276000Y-61800000D01*
X55398300Y-63203000D02*
X105298000Y-63203000D01*
X114227057Y-61801000D02*
X114724943Y-61801000D01*
X110569043Y-61800000D02*
X114226057Y-61800000D01*
X110267043Y-62102000D02*
X110569043Y-61800000D01*
X53600000Y-64317500D02*
X54283800Y-64317500D01*
X108733900Y-62101000D02*
X108734900Y-62102000D01*
X114724943Y-61801000D02*
X114725943Y-61800000D01*
%TO.N,Main bus 0*%
X304137500Y-208750000D02*
X304137500Y-202050000D01*
X304137500Y-202050000D02*
X304637500Y-201550000D01*
%TO.N,Main bus 4*%
X319337500Y-208650000D02*
X321237500Y-206750000D01*
X321237500Y-206750000D02*
X321237500Y-201650000D01*
%TO.N,Main bus 1*%
X307937500Y-208650000D02*
X307937500Y-202250000D01*
X307937500Y-202250000D02*
X308637500Y-201550000D01*
%TO.N,Main bus 6*%
X326937500Y-204350000D02*
X329737500Y-201550000D01*
X326937500Y-208650000D02*
X326937500Y-204350000D01*
%TO.N,Main bus 3*%
X315637500Y-208750000D02*
X315637500Y-203050000D01*
X315637500Y-203050000D02*
X317137500Y-201550000D01*
%TO.N,Main bus 2*%
X311837500Y-202650000D02*
X312937500Y-201550000D01*
X311837500Y-208650000D02*
X311837500Y-202650000D01*
%TO.N,Main bus 5*%
X323137500Y-203850000D02*
X325437500Y-201550000D01*
X323137500Y-208650000D02*
X323137500Y-203850000D01*
%TO.N,AA0*%
X271803281Y-127215781D02*
X271869062Y-127150000D01*
X271803281Y-127534162D02*
X271803281Y-127215781D01*
X271869062Y-127150000D02*
X278937500Y-127150000D01*
X264637500Y-132950000D02*
X266387443Y-132950000D01*
X251237500Y-132950000D02*
X264637500Y-132950000D01*
X266387443Y-132950000D02*
X271803281Y-127534162D01*
X249637500Y-131350000D02*
X251237500Y-132950000D01*
%TO.N,ADD*%
X346137500Y-199850000D02*
X349337500Y-196650000D01*
X349337500Y-195462443D02*
X346948943Y-197851000D01*
X339798500Y-197851000D02*
X335197500Y-193250000D01*
X349337500Y-193950000D02*
X349337500Y-195462443D01*
X346948943Y-197851000D02*
X339798500Y-197851000D01*
X349337500Y-196650000D02*
X349337500Y-193950000D01*
X346137500Y-206850000D02*
X346137500Y-199850000D01*
%TO.N,OR*%
X212700000Y-133000000D02*
X211700000Y-132000000D01*
X346700000Y-197250000D02*
X344461500Y-197250000D01*
X214900000Y-133000000D02*
X212700000Y-133000000D01*
%TO.N,ALU FLAG N*%
X330737500Y-204950000D02*
X334037500Y-201650000D01*
X330737500Y-207350000D02*
X330737500Y-204950000D01*
X330737500Y-208650000D02*
X330737500Y-207350000D01*
%TO.N,Carry in*%
X255397500Y-137150000D02*
X256597500Y-135950000D01*
X277397500Y-135950000D02*
X278397500Y-134950000D01*
X256597500Y-135950000D02*
X277397500Y-135950000D01*
%TO.N,ALU FLAG C*%
X352297500Y-215950000D02*
X351297500Y-215950000D01*
X351297500Y-215950000D02*
X349997500Y-214650000D01*
%TO.N,RS*%
X345212250Y-187050000D02*
X345238500Y-187076250D01*
X343797500Y-187050000D02*
X345212250Y-187050000D01*
%TO.N,A ->ALU B*%
X265850000Y-53737500D02*
X265850000Y-40037500D01*
X265850000Y-40037500D02*
X270450000Y-35437500D01*
X224800000Y-93732900D02*
X224800000Y-119548057D01*
X252100000Y-85400000D02*
X233132900Y-85400000D01*
X264700000Y-84700000D02*
X252800000Y-84700000D01*
X224800000Y-119548057D02*
X224797000Y-119551057D01*
X267900000Y-81500000D02*
X264700000Y-84700000D01*
X204801000Y-159999000D02*
X203300000Y-161500000D01*
X224797000Y-120048943D02*
X224800000Y-120051943D01*
X224800000Y-153249943D02*
X218050943Y-159999000D01*
X233132900Y-85400000D02*
X224800000Y-93732900D01*
X252800000Y-84700000D02*
X252100000Y-85400000D01*
X224797000Y-119551057D02*
X224797000Y-120048943D01*
X224800000Y-120051943D02*
X224800000Y-153249943D01*
X218050943Y-159999000D02*
X204801000Y-159999000D01*
%TO.N,ALU B = FF*%
X201800000Y-123400000D02*
X206797999Y-123400000D01*
X213397999Y-116800000D02*
X221795000Y-116800000D01*
X221795000Y-116800000D02*
X223395000Y-118400000D01*
X233700000Y-112000000D02*
X312187500Y-112000000D01*
X312187500Y-112000000D02*
X317450000Y-106737500D01*
X206797999Y-123400000D02*
X213397999Y-116800000D01*
X227400000Y-118300000D02*
X233700000Y-112000000D01*
%TO.N,C ->ALU A*%
X233100000Y-111100000D02*
X227400000Y-116800000D01*
X314500000Y-42951000D02*
X314500000Y-53887500D01*
X225998000Y-116999000D02*
X225998000Y-164602000D01*
X314500000Y-53887500D02*
X315750000Y-55137500D01*
X225799000Y-116800000D02*
X225998000Y-116999000D01*
X218100000Y-172500000D02*
X203500000Y-172500000D01*
X225998000Y-164602000D02*
X218100000Y-172500000D01*
X314500000Y-105000000D02*
X308400000Y-111100000D01*
X308449000Y-36900000D02*
X314500000Y-42951000D01*
X308400000Y-111100000D02*
X233100000Y-111100000D01*
%TO.N,D ->ALU A*%
X338600000Y-112800000D02*
X349100000Y-102300000D01*
X234400000Y-112800000D02*
X338600000Y-112800000D01*
X214149943Y-167500000D02*
X203100000Y-167500000D01*
X345350000Y-34791968D02*
X345350000Y-34837500D01*
X347850000Y-37337500D02*
X347850000Y-55437500D01*
X225597000Y-156052943D02*
X214149943Y-167500000D01*
X227400000Y-119800000D02*
X234400000Y-112800000D01*
X225398000Y-119800000D02*
X225597000Y-119999000D01*
X225597000Y-119999000D02*
X225597000Y-156052943D01*
X345350000Y-34837500D02*
X347850000Y-37337500D01*
%TO.N,B ->ALU B*%
X296789000Y-84511000D02*
X299800000Y-81500000D01*
X302400000Y-35487500D02*
X297762500Y-40125000D01*
X227500000Y-100000000D02*
X273937557Y-100000000D01*
X224399000Y-106500000D02*
X224399000Y-100199000D01*
X289426557Y-84511000D02*
X296789000Y-84511000D01*
X224399000Y-135151056D02*
X224399000Y-125799000D01*
X224399000Y-125799000D02*
X224396000Y-125796000D01*
X224396000Y-106503000D02*
X224399000Y-106500000D01*
X273937557Y-100000000D02*
X289426557Y-84511000D01*
X297762500Y-53637500D02*
X297762500Y-40125000D01*
X224396000Y-125796000D02*
X224396000Y-106503000D01*
X203200000Y-156350057D02*
X220125028Y-139425028D01*
X220125028Y-139425028D02*
X224399000Y-135151056D01*
X203200000Y-156600000D02*
X203200000Y-156350057D01*
X224399000Y-100199000D02*
X224200000Y-100000000D01*
%TO.N,B ->ALU A*%
X226399000Y-98799000D02*
X226399000Y-167849943D01*
X226200000Y-98600000D02*
X226399000Y-98799000D01*
X216748943Y-177500000D02*
X203300000Y-177500000D01*
X226399000Y-167849943D02*
X216748943Y-177500000D01*
X227400000Y-98600000D02*
X271000000Y-98600000D01*
X284250000Y-38337500D02*
X284250000Y-54837500D01*
X271000000Y-98600000D02*
X282600000Y-87000000D01*
X284250000Y-54837500D02*
X283750000Y-55337500D01*
%TO.N,A ->ALU A*%
X206501000Y-185801000D02*
X203300000Y-182600000D01*
X233100000Y-86000000D02*
X226800000Y-92300000D01*
X226800000Y-92300000D02*
X226800000Y-177849943D01*
X253100000Y-86000000D02*
X233100000Y-86000000D01*
X226800000Y-177849943D02*
X218848943Y-185801000D01*
X248500000Y-35200000D02*
X248500000Y-52691968D01*
X218848943Y-185801000D02*
X206501000Y-185801000D01*
X248500000Y-52691968D02*
X250545532Y-54737500D01*
%TO.N,C ->ALU B*%
X322600000Y-103300000D02*
X323500000Y-102400000D01*
X219500000Y-135400000D02*
X203400000Y-151500000D01*
X219500000Y-135400000D02*
X223995000Y-130905000D01*
X223995000Y-113799000D02*
X223796000Y-113600000D01*
X223995000Y-130905000D02*
X223995000Y-113799000D01*
X334750000Y-35437500D02*
X334750000Y-35137500D01*
X307900000Y-110700000D02*
X315300000Y-103300000D01*
X329750000Y-40437500D02*
X334750000Y-35437500D01*
X234800000Y-110700000D02*
X307900000Y-110700000D01*
X230200000Y-110700000D02*
X234800000Y-110700000D01*
X329750000Y-53737500D02*
X329750000Y-40437500D01*
X315300000Y-103300000D02*
X322600000Y-103300000D01*
X227400000Y-113500000D02*
X230200000Y-110700000D01*
%TO.N,D ->ALU B*%
X227400000Y-121000000D02*
X235199000Y-113201000D01*
X223594000Y-130706000D02*
X223594000Y-127400000D01*
X223594000Y-121199000D02*
X223395000Y-121000000D01*
X342799000Y-113201000D02*
X363900000Y-92100000D01*
X363900000Y-92100000D02*
X364100000Y-91900000D01*
X219500000Y-134800000D02*
X223594000Y-130706000D01*
X242000000Y-113201000D02*
X342799000Y-113201000D01*
X362250000Y-54637500D02*
X366250000Y-50637500D01*
X223594000Y-127400000D02*
X223594000Y-121199000D01*
X235199000Y-113201000D02*
X242000000Y-113201000D01*
X219500000Y-134800000D02*
X208000000Y-146300000D01*
X366250000Y-50637500D02*
X366250000Y-35637500D01*
X208000000Y-146300000D02*
X203300000Y-146300000D01*
X364100000Y-91900000D02*
X364100000Y-91300000D01*
%TO.N,REG Read*%
X199799000Y-181299000D02*
X176898000Y-158398000D01*
X210467214Y-204300000D02*
X199799000Y-193631786D01*
X176898000Y-158398000D02*
X176898000Y-148339500D01*
X199799000Y-193631786D02*
X199799000Y-181299000D01*
X176898000Y-148339500D02*
X179200000Y-146037500D01*
X212000000Y-204300000D02*
X210467214Y-204300000D01*
%TO.N,REG -> ALU B*%
X212200000Y-162500000D02*
X184362500Y-162500000D01*
X184362500Y-162500000D02*
X177900000Y-156037500D01*
%TO.N,REG -> ALU A*%
X198301000Y-179101000D02*
X177299000Y-158099000D01*
X177299000Y-158099000D02*
X177299000Y-151738500D01*
X207701000Y-179101000D02*
X198301000Y-179101000D01*
X177299000Y-151738500D02*
X178000000Y-151037500D01*
X212200000Y-183600000D02*
X207701000Y-179101000D01*
%TO.N,READ FALG*%
X60223718Y-118400282D02*
X60223718Y-119124000D01*
X65200000Y-113424000D02*
X60223718Y-118400282D01*
X60223718Y-115000000D02*
X60223718Y-132477000D01*
%TO.N,Store Address ++*%
X47561500Y-49450000D02*
X47550000Y-49450000D01*
X49500000Y-44600000D02*
X49500000Y-47511500D01*
D15*
X134876000Y-47511500D02*
X205801000Y-47511500D01*
D16*
X49500000Y-47511500D02*
X47561500Y-49450000D01*
D15*
%TO.N,Net-(Q170-G)*%
X133876000Y-55811500D02*
X205801000Y-55811500D01*
D16*
%TO.N,Net-(Q204-G)*%
X200200000Y-89400000D02*
X200200000Y-86700000D01*
X194993750Y-94606250D02*
X200200000Y-89400000D01*
%TO.N,Net-(Q205-G)*%
X186993750Y-94606250D02*
X192200000Y-89400000D01*
X192200000Y-89400000D02*
X192200000Y-86700000D01*
%TO.N,Net-(Q206-G)*%
X178993750Y-92006250D02*
X184200000Y-86800000D01*
X178993750Y-94606250D02*
X178993750Y-92006250D01*
%TO.N,Net-(Q207-G)*%
X170993750Y-94606250D02*
X176200000Y-89400000D01*
X176200000Y-89400000D02*
X176200000Y-86700000D01*
%TO.N,Net-(Q208-G)*%
X162993750Y-94606250D02*
X168100000Y-89500000D01*
X168100000Y-89500000D02*
X168100000Y-86900000D01*
%TO.N,Net-(Q209-G)*%
X154993750Y-94606250D02*
X160100000Y-89500000D01*
X160100000Y-89500000D02*
X160100000Y-86600000D01*
%TO.N,Net-(Q210-G)*%
X152000000Y-89600000D02*
X152000000Y-86700000D01*
X146993750Y-94606250D02*
X152000000Y-89600000D01*
%TO.N,Net-(Q211-G)*%
X144100000Y-89500000D02*
X144100000Y-86600000D01*
X138993750Y-94606250D02*
X144100000Y-89500000D01*
%TO.N,Net-(Q212-G)*%
X131043750Y-94656250D02*
X131043750Y-87956250D01*
X131043750Y-87956250D02*
X135000000Y-84000000D01*
%TO.N,Net-(Q213-G)*%
X123000000Y-94700000D02*
X123000000Y-88000000D01*
X123000000Y-88000000D02*
X127000000Y-84000000D01*
%TO.N,Net-(Q214-G)*%
X114993750Y-94606250D02*
X114993750Y-89064282D01*
X114993750Y-89064282D02*
X120529016Y-83529016D01*
%TO.N,Net-(Q215-G)*%
X106993750Y-89064282D02*
X112329016Y-83729016D01*
X106993750Y-94606250D02*
X106993750Y-89064282D01*
%TO.N,Net-(Q216-G)*%
X98993750Y-94606250D02*
X98993750Y-89064282D01*
X98993750Y-89064282D02*
X104579016Y-83479016D01*
%TO.N,Net-(Q217-G)*%
X91100000Y-89912500D02*
X96906250Y-84106250D01*
X91100000Y-94700000D02*
X91100000Y-89912500D01*
%TO.N,Net-(Q218-G)*%
X83043750Y-92056250D02*
X83043750Y-94656250D01*
X88200000Y-86900000D02*
X83043750Y-92056250D01*
D15*
%TO.N,Read From stored Address*%
X57076000Y-47511500D02*
X127852000Y-47511500D01*
D16*
%TO.N,NEXT ADR 0*%
X127541100Y-62102000D02*
X120065100Y-62102000D01*
X113727757Y-63003000D02*
X111067343Y-63003000D01*
X119083200Y-63001000D02*
X119082200Y-63002000D01*
X120065100Y-62102000D02*
X119166100Y-63001000D01*
X106897300Y-63305000D02*
X105796300Y-64406000D01*
X118775300Y-63002000D02*
X118774300Y-63003000D01*
X115223243Y-63004000D02*
X113728757Y-63004000D01*
X127543100Y-62100000D02*
X127541100Y-62102000D01*
X105796300Y-64406000D02*
X86394000Y-64406000D01*
X113728757Y-63004000D02*
X113727757Y-63003000D01*
X131600000Y-60200000D02*
X129700000Y-62100000D01*
X129700000Y-62100000D02*
X127543100Y-62100000D01*
X110765343Y-63305000D02*
X106897300Y-63305000D01*
X119082200Y-63002000D02*
X118775300Y-63002000D01*
X115224243Y-63003000D02*
X115223243Y-63004000D01*
X111067343Y-63003000D02*
X110765343Y-63305000D01*
X118774300Y-63003000D02*
X115224243Y-63003000D01*
X86394000Y-64406000D02*
X77800000Y-73000000D01*
X119166100Y-63001000D02*
X119083200Y-63001000D01*
X138100000Y-60200000D02*
X131600000Y-60200000D01*
%TO.N,NEXT ADR 1*%
X129533900Y-62501000D02*
X129531900Y-62503000D01*
X119396000Y-63404000D02*
X111233443Y-63404000D01*
X111233443Y-63404000D02*
X110931443Y-63706000D01*
X129531900Y-62503000D02*
X120297000Y-62503000D01*
X131567100Y-60800000D02*
X129866100Y-62501000D01*
X142500000Y-60100000D02*
X141800000Y-60800000D01*
X129866100Y-62501000D02*
X129533900Y-62501000D01*
X120297000Y-62503000D02*
X119396000Y-63404000D01*
X141800000Y-60800000D02*
X131567100Y-60800000D01*
X105962400Y-64807000D02*
X88533000Y-64807000D01*
X88533000Y-64807000D02*
X80340000Y-73000000D01*
X110931443Y-63706000D02*
X107063400Y-63706000D01*
X107063400Y-63706000D02*
X105962400Y-64807000D01*
%TO.N,NEXT ADR 2*%
X146099000Y-61201000D02*
X147000000Y-60300000D01*
X82880000Y-73000000D02*
X89079000Y-66801000D01*
X111097543Y-64107000D02*
X111399543Y-63805000D01*
X106128500Y-65208000D02*
X107229500Y-64107000D01*
X89079000Y-66801000D02*
X93207000Y-66801000D01*
X111399543Y-63805000D02*
X119562100Y-63805000D01*
X120463100Y-62904000D02*
X129698000Y-62904000D01*
X129698000Y-62904000D02*
X129700000Y-62902000D01*
X130032200Y-62902000D02*
X131733200Y-61201000D01*
X131733200Y-61201000D02*
X146099000Y-61201000D01*
X107229500Y-64107000D02*
X111097543Y-64107000D01*
X93207000Y-66801000D02*
X94800000Y-65208000D01*
X129700000Y-62902000D02*
X130032200Y-62902000D01*
X119562100Y-63805000D02*
X120463100Y-62904000D01*
X94800000Y-65208000D02*
X106128500Y-65208000D01*
%TO.N,NEXT ADR 3*%
X111263643Y-64508000D02*
X111565643Y-64206000D01*
X85420000Y-73000000D02*
X88224000Y-70196000D01*
X130197000Y-63303000D02*
X131898000Y-61602000D01*
X129864100Y-63305000D02*
X129866100Y-63303000D01*
X94991000Y-65609000D02*
X106294600Y-65609000D01*
X111565643Y-64206000D02*
X119728200Y-64206000D01*
X119728200Y-64206000D02*
X120629200Y-63305000D01*
X107395600Y-64508000D02*
X111263643Y-64508000D01*
X88224000Y-70176000D02*
X91100000Y-67300000D01*
X131898000Y-61602000D02*
X150674000Y-61602000D01*
X91100000Y-67300000D02*
X93300000Y-67300000D01*
X88224000Y-70196000D02*
X88224000Y-70176000D01*
X120629200Y-63305000D02*
X129864100Y-63305000D01*
X106294600Y-65609000D02*
X107395600Y-64508000D01*
X150674000Y-61602000D02*
X151776000Y-60500000D01*
X129866100Y-63303000D02*
X130197000Y-63303000D01*
X93300000Y-67300000D02*
X94991000Y-65609000D01*
%TO.N,NEXT ADR 4*%
X130363100Y-63704000D02*
X130032200Y-63704000D01*
X93259000Y-67701000D02*
X87960000Y-73000000D01*
X154797000Y-62003000D02*
X132064100Y-62003000D01*
X111429743Y-64909000D02*
X107561700Y-64909000D01*
X120795300Y-63706000D02*
X119894300Y-64607000D01*
X130032200Y-63704000D02*
X130030200Y-63706000D01*
X107561700Y-64909000D02*
X106460700Y-66010000D01*
X130030200Y-63706000D02*
X120795300Y-63706000D01*
X132064100Y-62003000D02*
X130363100Y-63704000D01*
X156200000Y-60600000D02*
X154797000Y-62003000D01*
X111731743Y-64607000D02*
X111429743Y-64909000D01*
X119894300Y-64607000D02*
X111731743Y-64607000D01*
X95157100Y-66010000D02*
X93466100Y-67701000D01*
X106460700Y-66010000D02*
X95157100Y-66010000D01*
X93466100Y-67701000D02*
X93259000Y-67701000D01*
%TO.N,NEXT ADR 5*%
X111107786Y-66801000D02*
X96699000Y-66801000D01*
X130196300Y-64107000D02*
X120961400Y-64107000D01*
X130529200Y-64105000D02*
X130198300Y-64105000D01*
X158896000Y-62404000D02*
X132230200Y-62404000D01*
X111577000Y-66331786D02*
X111107786Y-66801000D01*
X120961400Y-64107000D02*
X120060400Y-65008000D01*
X96699000Y-66801000D02*
X90500000Y-73000000D01*
X112892000Y-65008000D02*
X111577000Y-66323000D01*
X160700000Y-60600000D02*
X158896000Y-62404000D01*
X132230200Y-62404000D02*
X130529200Y-64105000D01*
X120060400Y-65008000D02*
X112892000Y-65008000D01*
X111577000Y-66323000D02*
X111577000Y-66331786D01*
X130198300Y-64105000D02*
X130196300Y-64107000D01*
%TO.N,NEXT ADR 6*%
X132396300Y-62805000D02*
X130693300Y-64508000D01*
X162895000Y-62805000D02*
X132396300Y-62805000D01*
X165200000Y-60500000D02*
X162895000Y-62805000D01*
X120226500Y-65409000D02*
X113058100Y-65409000D01*
X111978000Y-66489100D02*
X111978000Y-66497886D01*
X113058100Y-65409000D02*
X111978000Y-66489100D01*
X130693300Y-64508000D02*
X121127500Y-64508000D01*
X111273886Y-67202000D02*
X98838000Y-67202000D01*
X121127500Y-64508000D02*
X120226500Y-65409000D01*
X98838000Y-67202000D02*
X93040000Y-73000000D01*
X111978000Y-66497886D02*
X111273886Y-67202000D01*
%TO.N,NEXT ADR 7*%
X113224200Y-65810000D02*
X112379000Y-66655200D01*
X130859400Y-64909000D02*
X121293600Y-64909000D01*
X120392600Y-65810000D02*
X113224200Y-65810000D01*
X132562400Y-63206000D02*
X130859400Y-64909000D01*
X111439986Y-67603000D02*
X100977000Y-67603000D01*
X166794000Y-63206000D02*
X132562400Y-63206000D01*
X100977000Y-67603000D02*
X95580000Y-73000000D01*
X121293600Y-64909000D02*
X120392600Y-65810000D01*
X112379000Y-66663986D02*
X111439986Y-67603000D01*
X169600000Y-60400000D02*
X166794000Y-63206000D01*
X112379000Y-66655200D02*
X112379000Y-66663986D01*
%TO.N,NEXT ADR 8*%
X158772900Y-71800000D02*
X159124900Y-71448000D01*
X159124900Y-71448000D02*
X160633900Y-71448000D01*
X160633900Y-71448000D02*
X161034900Y-71047000D01*
X166652700Y-70646000D02*
X167501700Y-69797000D01*
X174579600Y-64700000D02*
X174700000Y-64700000D01*
X156800000Y-71800000D02*
X158772900Y-71800000D01*
X161034900Y-71047000D02*
X161831000Y-71047000D01*
X162232000Y-70646000D02*
X166652700Y-70646000D01*
X167501700Y-69797000D02*
X169482600Y-69797000D01*
X169482600Y-69797000D02*
X174579600Y-64700000D01*
X161831000Y-71047000D02*
X162232000Y-70646000D01*
X155600000Y-73000000D02*
X156800000Y-71800000D01*
%TO.N,NEXT ADR 9*%
X174604000Y-69396000D02*
X179400000Y-64600000D01*
X161201000Y-71448000D02*
X161997100Y-71448000D01*
X158140000Y-73000000D02*
X159291000Y-71849000D01*
X166818800Y-71047000D02*
X167667800Y-70198000D01*
X161997100Y-71448000D02*
X162398100Y-71047000D01*
X160800000Y-71849000D02*
X161201000Y-71448000D01*
X162398100Y-71047000D02*
X166818800Y-71047000D01*
X172800000Y-69396000D02*
X174604000Y-69396000D01*
X169648700Y-70198000D02*
X170002700Y-69844000D01*
X167667800Y-70198000D02*
X169648700Y-70198000D01*
X170002700Y-69844000D02*
X172352000Y-69844000D01*
X159291000Y-71849000D02*
X160800000Y-71849000D01*
X172352000Y-69844000D02*
X172800000Y-69396000D01*
%TO.N,NEXT ADR 10*%
X170168800Y-70245000D02*
X172852000Y-70245000D01*
X163400000Y-71849000D02*
X163801000Y-71448000D01*
X172852000Y-70245000D02*
X173300000Y-69797000D01*
X163801000Y-71448000D02*
X166984900Y-71448000D01*
X166984900Y-71448000D02*
X167833900Y-70599000D01*
X167833900Y-70599000D02*
X169814800Y-70599000D01*
X160680000Y-73000000D02*
X161831000Y-71849000D01*
X161831000Y-71849000D02*
X163400000Y-71849000D01*
X173300000Y-69797000D02*
X178603000Y-69797000D01*
X178603000Y-69797000D02*
X183800000Y-64600000D01*
X169814800Y-70599000D02*
X170168800Y-70245000D01*
%TO.N,NEXT ADR 11*%
X173500000Y-70198000D02*
X182302000Y-70198000D01*
X169980900Y-71000000D02*
X170334900Y-70646000D01*
X170334900Y-70646000D02*
X173052000Y-70646000D01*
X163220000Y-73000000D02*
X164371000Y-71849000D01*
X188100000Y-64400000D02*
X188400000Y-64400000D01*
X168000000Y-71000000D02*
X169980900Y-71000000D01*
X182302000Y-70198000D02*
X188100000Y-64400000D01*
X173052000Y-70646000D02*
X173500000Y-70198000D01*
X167151000Y-71849000D02*
X168000000Y-71000000D01*
X164371000Y-71849000D02*
X167151000Y-71849000D01*
%TO.N,NEXT ADR 12*%
X166600000Y-73000000D02*
X168152000Y-71448000D01*
X186401000Y-70599000D02*
X192700000Y-64300000D01*
X173800000Y-70599000D02*
X186401000Y-70599000D01*
X168152000Y-71448000D02*
X170100000Y-71448000D01*
X165760000Y-73000000D02*
X166600000Y-73000000D01*
X170100000Y-71448000D02*
X170501000Y-71047000D01*
X170501000Y-71047000D02*
X173352000Y-71047000D01*
X173352000Y-71047000D02*
X173800000Y-70599000D01*
%TO.N,NEXT ADR 13*%
X190100000Y-71000000D02*
X197100000Y-64000000D01*
X169451000Y-71849000D02*
X170800000Y-71849000D01*
X170800000Y-71849000D02*
X171201000Y-71448000D01*
X174100000Y-71000000D02*
X190100000Y-71000000D01*
X171201000Y-71448000D02*
X173652000Y-71448000D01*
X168300000Y-73000000D02*
X169451000Y-71849000D01*
X173652000Y-71448000D02*
X174100000Y-71000000D01*
%TO.N,NEXT ADR 14*%
X170840000Y-73000000D02*
X171991000Y-71849000D01*
X197600000Y-64500000D02*
X201900000Y-64500000D01*
X174400000Y-71400000D02*
X190700000Y-71400000D01*
X171991000Y-71849000D02*
X173951000Y-71849000D01*
X190700000Y-71400000D02*
X197600000Y-64500000D01*
X173951000Y-71849000D02*
X174400000Y-71400000D01*
%TO.N,NEXT ADR 15*%
X204000000Y-67100000D02*
X195600000Y-67100000D01*
X195600000Y-67100000D02*
X190900000Y-71800000D01*
X190900000Y-71800000D02*
X174580000Y-71800000D01*
X174580000Y-71800000D02*
X173380000Y-73000000D01*
X206300000Y-64800000D02*
X204000000Y-67100000D01*
D15*
%TO.N,Net-(Q332-G)*%
X55976000Y-55711500D02*
X60176000Y-55711500D01*
D16*
X60176000Y-55711500D02*
X60276000Y-55711500D01*
D15*
X60176000Y-55711500D02*
X127852000Y-55711500D01*
D16*
%TO.N,TIME STEP 0*%
X95200000Y-109800000D02*
X98100000Y-106900000D01*
%TO.N,!TIME STEP 0*%
X78499000Y-159699000D02*
X78499000Y-131301000D01*
X80800000Y-162000000D02*
X78499000Y-159699000D01*
X82375000Y-127425000D02*
X82375000Y-121400000D01*
X81200000Y-128600000D02*
X82375000Y-127425000D01*
X78499000Y-131301000D02*
X81200000Y-128600000D01*
%TO.N,TIME STEP 1*%
X77763500Y-121036500D02*
X78500000Y-120300000D01*
X77100000Y-151399000D02*
X77763500Y-150735500D01*
X77763500Y-150735500D02*
X77763500Y-121036500D01*
%TO.N,FLAG N*%
X100221000Y-112399000D02*
X77524718Y-112399000D01*
X105720000Y-106900000D02*
X100221000Y-112399000D01*
X77524718Y-112399000D02*
X73123718Y-116800000D01*
%TO.N,Net-(Q418-G)*%
X69223718Y-123200000D02*
X69223718Y-127800000D01*
X69223718Y-114900000D02*
X69223718Y-118600000D01*
X69223718Y-118600000D02*
X69223718Y-123200000D01*
X69223718Y-127800000D02*
X69223718Y-132300000D01*
%TO.N,FLAG STORE N*%
X54400000Y-114500000D02*
X54599000Y-114301000D01*
X54599000Y-114199700D02*
X56001700Y-112797000D01*
X83800000Y-108500000D02*
X85400000Y-106900000D01*
X54599000Y-114301000D02*
X54599000Y-114199700D01*
X56001700Y-112797000D02*
X62501700Y-112797000D01*
X62501700Y-112797000D02*
X64602700Y-110696000D01*
X64602700Y-110696000D02*
X66369800Y-110696000D01*
X68565800Y-108500000D02*
X83800000Y-108500000D01*
X66369800Y-110696000D02*
X68565800Y-108500000D01*
X54400000Y-117600000D02*
X54400000Y-114500000D01*
%TO.N,FLAG Z*%
X161950000Y-118400000D02*
X162400000Y-118850000D01*
X118430000Y-117070000D02*
X123519943Y-117070000D01*
X78023718Y-112800000D02*
X72923718Y-117900000D01*
X123519943Y-117070000D02*
X124849943Y-118400000D01*
X124849943Y-118400000D02*
X161950000Y-118400000D01*
X102360000Y-112800000D02*
X78023718Y-112800000D01*
X72923718Y-117900000D02*
X72823718Y-117900000D01*
X108260000Y-106900000D02*
X102360000Y-112800000D01*
%TO.N,FLAG STORE Z*%
X56167800Y-113198000D02*
X62667800Y-113198000D01*
X55000000Y-121400000D02*
X55000000Y-114365800D01*
X54400000Y-122000000D02*
X55000000Y-121400000D01*
X68767800Y-108998000D02*
X85842000Y-108998000D01*
X66535900Y-111097000D02*
X68633900Y-108999000D01*
X62667800Y-113198000D02*
X64768800Y-111097000D01*
X55000000Y-114365800D02*
X56167800Y-113198000D01*
X68766800Y-108999000D02*
X68767800Y-108998000D01*
X64768800Y-111097000D02*
X66535900Y-111097000D01*
X85842000Y-108998000D02*
X87940000Y-106900000D01*
X68633900Y-108999000D02*
X68766800Y-108999000D01*
%TO.N,FLAG U*%
X73312718Y-118987282D02*
X73312718Y-122700000D01*
X79100000Y-113200000D02*
X73312718Y-118987282D01*
X110800000Y-106900000D02*
X104500000Y-113200000D01*
X104500000Y-113200000D02*
X79100000Y-113200000D01*
%TO.N,FLAG STORE U*%
X56333900Y-113599000D02*
X62833900Y-113599000D01*
X54600000Y-126500000D02*
X55401000Y-125699000D01*
X66702000Y-111498000D02*
X68800000Y-109400000D01*
X68800000Y-109400000D02*
X68932900Y-109400000D01*
X55401000Y-114531900D02*
X56333900Y-113599000D01*
X68932900Y-109400000D02*
X68933900Y-109399000D01*
X55401000Y-125699000D02*
X55401000Y-114531900D01*
X64934900Y-111498000D02*
X66702000Y-111498000D01*
X68933900Y-109399000D02*
X87981000Y-109399000D01*
X62833900Y-113599000D02*
X64934900Y-111498000D01*
X87981000Y-109399000D02*
X90480000Y-106900000D01*
%TO.N,FLAG O*%
X106640000Y-113600000D02*
X113340000Y-106900000D01*
X80100000Y-113600000D02*
X106640000Y-113600000D01*
X74700000Y-125623718D02*
X74700000Y-119000000D01*
X73123718Y-127200000D02*
X74700000Y-125623718D01*
X74700000Y-119000000D02*
X80100000Y-113600000D01*
%TO.N,FLAG STORE O*%
X55802000Y-114698000D02*
X56500000Y-114000000D01*
X67001000Y-111899000D02*
X69100000Y-109800000D01*
X56500000Y-114000000D02*
X63132900Y-114000000D01*
X54600000Y-131100000D02*
X55802000Y-129898000D01*
X63132900Y-114000000D02*
X65233900Y-111899000D01*
X65233900Y-111899000D02*
X67001000Y-111899000D01*
X55802000Y-129898000D02*
X55802000Y-114698000D01*
X69100000Y-109800000D02*
X90120000Y-109800000D01*
X90120000Y-109800000D02*
X93020000Y-106900000D01*
%TO.N,FLAG C*%
X80299000Y-114001000D02*
X108779000Y-114001000D01*
X73223718Y-131300000D02*
X75101000Y-129422718D01*
X75101000Y-119199000D02*
X80299000Y-114001000D01*
X75101000Y-129422718D02*
X75101000Y-119199000D01*
X108779000Y-114001000D02*
X115880000Y-106900000D01*
X115880000Y-106900000D02*
X115900000Y-106920000D01*
%TO.N,FLAG STORE C*%
X54600000Y-135700000D02*
X56203000Y-134097000D01*
X56203000Y-134097000D02*
X56203000Y-115697000D01*
X92260000Y-110200000D02*
X95560000Y-106900000D01*
X65400000Y-112300000D02*
X77056618Y-112300000D01*
X77358618Y-111998000D02*
X88489100Y-111998000D01*
X56203000Y-115697000D02*
X57500000Y-114400000D01*
X63300000Y-114400000D02*
X65400000Y-112300000D01*
X57500000Y-114400000D02*
X63300000Y-114400000D01*
X77056618Y-112300000D02*
X77358618Y-111998000D01*
X88489100Y-111998000D02*
X90287100Y-110200000D01*
X90287100Y-110200000D02*
X92260000Y-110200000D01*
%TO.N,Read Write ins*%
X72908058Y-142008058D02*
X73200000Y-142300000D01*
X52963500Y-149741214D02*
X52261500Y-150443214D01*
X52261500Y-157261500D02*
X52300000Y-157300000D01*
X52800000Y-145475000D02*
X52800000Y-145775000D01*
X73200000Y-142300000D02*
X73200000Y-144100000D01*
X52800000Y-145775000D02*
X52963500Y-145938500D01*
X53800000Y-168000000D02*
X53800000Y-158800000D01*
X52963500Y-145938500D02*
X52963500Y-149741214D01*
X53800000Y-158800000D02*
X52300000Y-157300000D01*
X52261500Y-150443214D02*
X52261500Y-157261500D01*
%TO.N,TIME STEP 2*%
X84400000Y-151900000D02*
X84400000Y-159500000D01*
X85100000Y-132500000D02*
X99200000Y-118400000D01*
X85100000Y-151276000D02*
X85024000Y-151276000D01*
X99200000Y-118400000D02*
X99800000Y-117800000D01*
X85024000Y-151276000D02*
X84400000Y-151900000D01*
X85100000Y-151276000D02*
X85100000Y-132500000D01*
X99800000Y-117800000D02*
X99800000Y-117700000D01*
%TO.N,TIME STEP 0or1or2*%
X89100000Y-152500000D02*
X90300000Y-151300000D01*
X90300000Y-151300000D02*
X90300000Y-147800000D01*
%TO.N,TIME STEP 0or1*%
X63000000Y-152300000D02*
X63100000Y-152200000D01*
X63100000Y-150900000D02*
X66200000Y-147800000D01*
X63100000Y-152200000D02*
X63100000Y-150900000D01*
%TO.N,Main bus -> bus out*%
X227951000Y-46161500D02*
X227951000Y-43563500D01*
X226950000Y-38062500D02*
X226950000Y-33762500D01*
X227551000Y-47963500D02*
X226850000Y-47262500D01*
X227751000Y-56863500D02*
X226950000Y-56062500D01*
X227651000Y-52263500D02*
X226950000Y-51562500D01*
X227900000Y-75900000D02*
X227851000Y-75851000D01*
X226950000Y-42562500D02*
X226950000Y-38262500D01*
X226950000Y-56062500D02*
X227651000Y-55361500D01*
X226850000Y-47262500D02*
X227951000Y-46161500D01*
X226950000Y-51562500D02*
X227551000Y-50961500D01*
X226950000Y-38262500D02*
X226850000Y-38162500D01*
X227551000Y-61263500D02*
X226850000Y-60562500D01*
X227751000Y-59661500D02*
X227751000Y-56863500D01*
X227551000Y-64461500D02*
X227551000Y-61263500D01*
X227851000Y-75851000D02*
X227851000Y-66163500D01*
X227651000Y-55361500D02*
X227651000Y-52263500D01*
X227851000Y-66163500D02*
X226850000Y-65162500D01*
X226850000Y-60562500D02*
X227751000Y-59661500D01*
X227551000Y-50961500D02*
X227551000Y-47963500D01*
X226850000Y-38162500D02*
X226950000Y-38062500D01*
X227951000Y-43563500D02*
X226950000Y-42562500D01*
X226850000Y-65162500D02*
X227551000Y-64461500D01*
%TO.N,Net-(Q520-D)*%
X234900000Y-38000000D02*
X231600000Y-38000000D01*
X231600000Y-38000000D02*
X231500000Y-37900000D01*
%TO.N,Net-(Q523-D)*%
X234900000Y-42500000D02*
X231600000Y-42500000D01*
%TO.N,Net-(Q526-D)*%
X234900000Y-47000000D02*
X231600000Y-47000000D01*
%TO.N,Net-(Q529-D)*%
X234900000Y-51500000D02*
X231500000Y-51500000D01*
%TO.N,Net-(Q532-D)*%
X234900000Y-56000000D02*
X231500000Y-56000000D01*
%TO.N,Net-(Q535-D)*%
X234900000Y-60500000D02*
X231500000Y-60500000D01*
%TO.N,Net-(Q538-D)*%
X234900000Y-65000000D02*
X231600000Y-65000000D01*
%TO.N,Net-(Q544-D)*%
X217837500Y-38000000D02*
X218400000Y-38562500D01*
X209900000Y-38000000D02*
X217837500Y-38000000D01*
%TO.N,Net-(Q547-D)*%
X217837500Y-42500000D02*
X218400000Y-43062500D01*
X209900000Y-42500000D02*
X217837500Y-42500000D01*
%TO.N,Net-(Q550-D)*%
X209900000Y-47000000D02*
X217837500Y-47000000D01*
X217837500Y-47000000D02*
X218400000Y-47562500D01*
%TO.N,Net-(Q553-D)*%
X217837500Y-51500000D02*
X218400000Y-52062500D01*
X209900000Y-51500000D02*
X217837500Y-51500000D01*
%TO.N,Net-(Q556-D)*%
X209900000Y-56000000D02*
X217837500Y-56000000D01*
X217837500Y-56000000D02*
X218400000Y-56562500D01*
%TO.N,Net-(Q559-D)*%
X209900000Y-60500000D02*
X217837500Y-60500000D01*
X217837500Y-60500000D02*
X218400000Y-61062500D01*
%TO.N,Net-(Q562-D)*%
X217837500Y-65000000D02*
X218400000Y-65562500D01*
X209900000Y-65000000D02*
X217837500Y-65000000D01*
%TO.N,AA1*%
X264737500Y-143950000D02*
X266437500Y-143950000D01*
X271803281Y-138215781D02*
X278871719Y-138215781D01*
X249837500Y-134750000D02*
X249837500Y-135182786D01*
X258604714Y-143950000D02*
X264737500Y-143950000D01*
X278871719Y-138215781D02*
X278937500Y-138150000D01*
X266437500Y-143950000D02*
X271803281Y-138584219D01*
X271803281Y-138584219D02*
X271803281Y-138215781D01*
X249837500Y-135182786D02*
X258604714Y-143950000D01*
%TO.N,AA2*%
X271853281Y-149165781D02*
X271869062Y-149150000D01*
X264737500Y-154950000D02*
X266437500Y-154950000D01*
X260537500Y-154950000D02*
X264737500Y-154950000D01*
X249737500Y-138550000D02*
X249737500Y-139517214D01*
X266437500Y-154950000D02*
X271853281Y-149534219D01*
X271853281Y-149534219D02*
X271853281Y-149165781D01*
X249737500Y-139517214D02*
X258336500Y-148116214D01*
X258336500Y-152749000D02*
X260537500Y-154950000D01*
X258336500Y-148116214D02*
X258336500Y-152749000D01*
X271869062Y-149150000D02*
X278937500Y-149150000D01*
%TO.N,AA3*%
X249737500Y-142482786D02*
X257935500Y-150680786D01*
X249737500Y-142250000D02*
X249737500Y-142482786D01*
X263356222Y-164268722D02*
X264737500Y-165650000D01*
X271869062Y-160150000D02*
X278937500Y-160150000D01*
X271753281Y-160265781D02*
X271869062Y-160150000D01*
X257935500Y-158380900D02*
X257938500Y-158383900D01*
X271753281Y-160634219D02*
X271753281Y-160265781D01*
X263532250Y-163594807D02*
X263532250Y-164092693D01*
X263532250Y-164092693D02*
X263356222Y-164268722D01*
X263180193Y-163242750D02*
X263532250Y-163594807D01*
X257938500Y-158851000D02*
X262506279Y-163418779D01*
X264737500Y-165650000D02*
X264737500Y-165950000D01*
X257938500Y-158383900D02*
X257938500Y-158851000D01*
X262682307Y-163242750D02*
X263180193Y-163242750D01*
X262506279Y-163418779D02*
X262682307Y-163242750D01*
X266437500Y-165950000D02*
X271753281Y-160634219D01*
X257935500Y-150680786D02*
X257935500Y-158380900D01*
X264737500Y-165950000D02*
X266437500Y-165950000D01*
%TO.N,AA4*%
X257534500Y-158547000D02*
X257537500Y-158550000D01*
X271753281Y-171584162D02*
X271753281Y-171265781D01*
X257537500Y-158550000D02*
X257537500Y-168899943D01*
X257534500Y-153979786D02*
X257534500Y-158547000D01*
X266387443Y-176950000D02*
X271753281Y-171584162D01*
X271753281Y-171265781D02*
X278821719Y-171265781D01*
X264737500Y-176950000D02*
X266387443Y-176950000D01*
X257537500Y-168899943D02*
X262880307Y-174242750D01*
X278821719Y-171265781D02*
X278937500Y-171150000D01*
X249837500Y-146282786D02*
X257534500Y-153979786D01*
X263180193Y-174242750D02*
X264737500Y-175800057D01*
X262880307Y-174242750D02*
X263180193Y-174242750D01*
X264737500Y-175800057D02*
X264737500Y-176950000D01*
X249837500Y-145850000D02*
X249837500Y-146282786D01*
%TO.N,AA5*%
X271770623Y-182248438D02*
X278839062Y-182248438D01*
X249737500Y-149882786D02*
X257133500Y-157278786D01*
X264737500Y-187850000D02*
X266537500Y-187850000D01*
X264737500Y-177799943D02*
X264737500Y-187850000D01*
X249737500Y-149650000D02*
X249737500Y-149882786D01*
X257133500Y-166047000D02*
X257136500Y-166050000D01*
X271770623Y-182616877D02*
X271770623Y-182248438D01*
X257133500Y-157278786D02*
X257133500Y-166047000D01*
X266537500Y-187850000D02*
X271770623Y-182616877D01*
X278839062Y-182248438D02*
X278937500Y-182150000D01*
X257136500Y-166050000D02*
X257136500Y-170198943D01*
X257136500Y-170198943D02*
X264737500Y-177799943D01*
%TO.N,AA6*%
X264737500Y-188699943D02*
X264737500Y-198950000D01*
X264737500Y-198950000D02*
X266637500Y-198950000D01*
X249737500Y-153450000D02*
X249737500Y-153582786D01*
X271803281Y-193215781D02*
X271869062Y-193150000D01*
X271869062Y-193150000D02*
X278937500Y-193150000D01*
X256732500Y-180694943D02*
X264737500Y-188699943D01*
X249737500Y-153582786D02*
X256732500Y-160577786D01*
X271803281Y-193784219D02*
X271803281Y-193215781D01*
X256732500Y-160577786D02*
X256732500Y-180694943D01*
X266637500Y-198950000D02*
X271803281Y-193784219D01*
%TO.N,AA7*%
X265097500Y-210050000D02*
X264737500Y-209690000D01*
X249737500Y-157282786D02*
X249737500Y-157150000D01*
X271803281Y-204215781D02*
X271869062Y-204150000D01*
X264737500Y-207400057D02*
X256331500Y-198994057D01*
X265097500Y-214750000D02*
X265097500Y-210450000D01*
X265697500Y-209850000D02*
X266537500Y-209850000D01*
X256331500Y-163876786D02*
X249737500Y-157282786D01*
X349597500Y-170050000D02*
X348397500Y-168850000D01*
X354337500Y-170050000D02*
X349597500Y-170050000D01*
X271803281Y-204584219D02*
X271803281Y-204215781D01*
X264737500Y-209690000D02*
X264737500Y-207400057D01*
X265097500Y-210450000D02*
X265697500Y-209850000D01*
X354637500Y-169750000D02*
X354337500Y-170050000D01*
X266537500Y-209850000D02*
X271803281Y-204584219D01*
X256331500Y-198994057D02*
X256331500Y-163876786D01*
X265097500Y-214750000D02*
X265097500Y-210050000D01*
X271869062Y-204150000D02*
X278937500Y-204150000D01*
%TO.N,AB7*%
X341697500Y-161250000D02*
X348595532Y-161250000D01*
X348595532Y-161250000D02*
X348716516Y-161129016D01*
X331897500Y-151450000D02*
X326797500Y-151450000D01*
X341697500Y-161250000D02*
X331897500Y-151450000D01*
%TO.N,Net-(Q1135-G)*%
X300737500Y-130650000D02*
X300737500Y-168150000D01*
X295537500Y-125450000D02*
X300737500Y-130650000D01*
X289737500Y-125450000D02*
X295537500Y-125450000D01*
X300737500Y-168150000D02*
X302137500Y-169550000D01*
%TO.N,Net-(Q913-D)*%
X283337500Y-131950000D02*
X282837500Y-131450000D01*
X286837500Y-131950000D02*
X283337500Y-131950000D01*
X288986443Y-131349000D02*
X287438500Y-131349000D01*
X289537500Y-132450000D02*
X289312471Y-132224971D01*
X289338500Y-131701057D02*
X288986443Y-131349000D01*
X289312471Y-132224971D02*
X289338500Y-132198943D01*
X289338500Y-132198943D02*
X289338500Y-131701057D01*
X287438500Y-131349000D02*
X286837500Y-131950000D01*
%TO.N,Net-(Q914-D)*%
X288737500Y-131950000D02*
X288737500Y-133550000D01*
X288737500Y-133550000D02*
X278937500Y-143350000D01*
%TO.N,Net-(Q1147-G)*%
X301887557Y-170150000D02*
X300336500Y-168598943D01*
X300336500Y-140849000D02*
X296137500Y-136650000D01*
X300336500Y-168598943D02*
X300336500Y-140849000D01*
X296137500Y-136650000D02*
X289937500Y-136650000D01*
X306337500Y-169850000D02*
X306037500Y-170150000D01*
X306037500Y-170150000D02*
X301887557Y-170150000D01*
%TO.N,Net-(Q940-D)*%
X289537500Y-142900057D02*
X288986443Y-142349000D01*
X286837500Y-143551000D02*
X283838500Y-143551000D01*
X289537500Y-143450000D02*
X289537500Y-142900057D01*
X288986443Y-142349000D02*
X288039500Y-142349000D01*
X288039500Y-142349000D02*
X286837500Y-143551000D01*
X283838500Y-143551000D02*
X282737500Y-142450000D01*
%TO.N,Net-(Q941-D)*%
X288737500Y-142950000D02*
X288737500Y-144550000D01*
X288737500Y-144550000D02*
X278937500Y-154350000D01*
%TO.N,Net-(Q1149-G)*%
X296037500Y-142450000D02*
X297437500Y-142450000D01*
%TO.N,Net-(Q1159-G)*%
X310537500Y-170350000D02*
X310337500Y-170550000D01*
X310337500Y-170550000D02*
X301537500Y-170550000D01*
X310537500Y-170250000D02*
X310537500Y-170350000D01*
X294637500Y-147750000D02*
X289937500Y-147750000D01*
X299935500Y-153048000D02*
X294637500Y-147750000D01*
X301537500Y-170550000D02*
X299935500Y-168948000D01*
X299935500Y-168948000D02*
X299935500Y-153048000D01*
%TO.N,Net-(Q965-D)*%
X289537500Y-154450000D02*
X289537500Y-153900057D01*
X288138500Y-153249000D02*
X286937500Y-154450000D01*
X288886443Y-153249000D02*
X288138500Y-153249000D01*
X289537500Y-153900057D02*
X288886443Y-153249000D01*
X286937500Y-154450000D02*
X283837500Y-154450000D01*
X283837500Y-154450000D02*
X282837500Y-153450000D01*
%TO.N,Net-(Q966-D)*%
X288637500Y-153850000D02*
X288637500Y-155650000D01*
X288637500Y-155650000D02*
X278937500Y-165350000D01*
%TO.N,Net-(Q1161-G)*%
X296037500Y-152250000D02*
X297838500Y-152250000D01*
%TO.N,Net-(Q1002-G)*%
X294937500Y-158750000D02*
X289937500Y-158750000D01*
X314337500Y-170950000D02*
X301370400Y-170950000D01*
X299534500Y-163347000D02*
X294937500Y-158750000D01*
X314637500Y-170650000D02*
X314337500Y-170950000D01*
X299534500Y-169114100D02*
X299534500Y-163347000D01*
X301370400Y-170950000D02*
X299534500Y-169114100D01*
%TO.N,Net-(Q989-D)*%
X288986443Y-164349000D02*
X288138500Y-164349000D01*
X283937500Y-165550000D02*
X282837500Y-164450000D01*
X289537500Y-164900057D02*
X288986443Y-164349000D01*
X286937500Y-165550000D02*
X283937500Y-165550000D01*
X288138500Y-164349000D02*
X286937500Y-165550000D01*
X289537500Y-165550000D02*
X289537500Y-164900057D01*
%TO.N,Net-(Q1017-G)*%
X288737500Y-164950000D02*
X288737500Y-166550000D01*
X288737500Y-166550000D02*
X278937500Y-176350000D01*
%TO.N,Net-(Q1173-G)*%
X296237500Y-164550000D02*
X298337500Y-164550000D01*
X296137500Y-164450000D02*
X296237500Y-164550000D01*
%TO.N,Net-(Q1016-D)*%
X318937500Y-171150000D02*
X318738500Y-171349000D01*
X318338500Y-171351000D02*
X301204300Y-171351000D01*
X299603300Y-169750000D02*
X289937500Y-169750000D01*
X318738500Y-171349000D02*
X318340500Y-171349000D01*
X301204300Y-171351000D02*
X299603300Y-169750000D01*
X319037500Y-171150000D02*
X318937500Y-171150000D01*
X318340500Y-171349000D02*
X318338500Y-171351000D01*
%TO.N,Net-(Q1018-D)*%
X286937500Y-176550000D02*
X283937500Y-176550000D01*
X288886443Y-175349000D02*
X288138500Y-175349000D01*
X283937500Y-176550000D02*
X282837500Y-175450000D01*
X289537500Y-176550000D02*
X289537500Y-176000057D01*
X289537500Y-176000057D02*
X288886443Y-175349000D01*
X288138500Y-175349000D02*
X286937500Y-176550000D01*
%TO.N,Net-(Q1019-D)*%
X278937500Y-185650000D02*
X278937500Y-187350000D01*
X288637500Y-175950000D02*
X278937500Y-185650000D01*
%TO.N,Net-(Q1021-D)*%
X296540500Y-174250000D02*
X298640500Y-172150000D01*
X296037500Y-174250000D02*
X296540500Y-174250000D01*
%TO.N,Net-(Q1038-D)*%
X323137500Y-171550000D02*
X322938500Y-171749000D01*
X300368400Y-171752000D02*
X291370400Y-180750000D01*
X291370400Y-180750000D02*
X289937500Y-180750000D01*
X322338500Y-171749000D02*
X322337500Y-171750000D01*
X322337500Y-171750000D02*
X318506600Y-171750000D01*
X318504600Y-171752000D02*
X300368400Y-171752000D01*
X318506600Y-171750000D02*
X318504600Y-171752000D01*
X322938500Y-171749000D02*
X322338500Y-171749000D01*
%TO.N,Net-(Q1040-D)*%
X289537500Y-186900057D02*
X288987443Y-186350000D01*
X286937500Y-187550000D02*
X283937500Y-187550000D01*
X289537500Y-187550000D02*
X289537500Y-186900057D01*
X288137500Y-186350000D02*
X286937500Y-187550000D01*
X288987443Y-186350000D02*
X288137500Y-186350000D01*
X283937500Y-187550000D02*
X282837500Y-186450000D01*
%TO.N,Net-(Q1041-D)*%
X288737500Y-186950000D02*
X288737500Y-188750000D01*
X288737500Y-188750000D02*
X279137500Y-198350000D01*
X279137500Y-198350000D02*
X278937500Y-198350000D01*
%TO.N,Net-(Q1043-D)*%
X298937500Y-180550000D02*
X295937500Y-183550000D01*
X295937500Y-183550000D02*
X295937500Y-185250000D01*
X299041500Y-180550000D02*
X298937500Y-180550000D01*
%TO.N,Net-(Q1045-G)*%
X304437500Y-140550000D02*
X304437500Y-128750000D01*
X304437500Y-128750000D02*
X304537500Y-128650000D01*
%TO.N,Net-(Q1046-G)*%
X343697500Y-193050000D02*
X345737500Y-193050000D01*
%TO.N,Net-(Q1055-G)*%
X308737500Y-140550000D02*
X308737500Y-128750000D01*
%TO.N,Net-(Q1058-G)*%
X312837500Y-140550000D02*
X312837500Y-128550000D01*
%TO.N,Net-(Q1060-G)*%
X317037500Y-140550000D02*
X317037500Y-128650000D01*
X317037500Y-128650000D02*
X317137500Y-128550000D01*
%TO.N,Net-(Q1065-D)*%
X300534500Y-172153000D02*
X293137500Y-179550000D01*
X327037500Y-172150000D02*
X323387443Y-172150000D01*
X318672700Y-172151000D02*
X318670700Y-172153000D01*
X327337500Y-171850000D02*
X327037500Y-172150000D01*
X322887557Y-172150000D02*
X322504600Y-172150000D01*
X322503600Y-172151000D02*
X318672700Y-172151000D01*
X322504600Y-172150000D02*
X322503600Y-172151000D01*
X323387443Y-172150000D02*
X323386443Y-172151000D01*
X323386443Y-172151000D02*
X322888557Y-172151000D01*
X322888557Y-172151000D02*
X322887557Y-172150000D01*
X293137500Y-179550000D02*
X293137500Y-188450000D01*
X293137500Y-188450000D02*
X289937500Y-191650000D01*
X318670700Y-172153000D02*
X300534500Y-172153000D01*
%TO.N,Net-(Q1067-D)*%
X286837500Y-198550000D02*
X283737500Y-198550000D01*
X288038500Y-197349000D02*
X286837500Y-198550000D01*
X283737500Y-198550000D02*
X282737500Y-197550000D01*
X289537500Y-197900057D02*
X288986443Y-197349000D01*
X289537500Y-198550000D02*
X289537500Y-197900057D01*
X288986443Y-197349000D02*
X288038500Y-197349000D01*
%TO.N,Net-(Q1068-D)*%
X288737500Y-197950000D02*
X288737500Y-199550000D01*
X288737500Y-199550000D02*
X278937500Y-209350000D01*
%TO.N,Net-(Q1070-D)*%
X299442500Y-181651470D02*
X298403130Y-181651470D01*
X296637500Y-183417100D02*
X296637500Y-193850000D01*
X298403130Y-181651470D02*
X296637500Y-183417100D01*
X296637500Y-193850000D02*
X296637500Y-196350000D01*
X296637500Y-196350000D02*
X296137500Y-196850000D01*
%TO.N,Net-(Q1071-G)*%
X321237500Y-140550000D02*
X321237500Y-128750000D01*
X321237500Y-128750000D02*
X321337500Y-128650000D01*
%TO.N,Net-(Q1074-G)*%
X325437500Y-140650000D02*
X325437500Y-128850000D01*
X325437500Y-128850000D02*
X325537500Y-128750000D01*
%TO.N,Net-(Q1084-G)*%
X329637500Y-140650000D02*
X329637500Y-128650000D01*
X329637500Y-128650000D02*
X329737500Y-128550000D01*
%TO.N,Net-(Q1087-G)*%
X333837500Y-140750000D02*
X333837500Y-128550000D01*
%TO.N,Net-(Q1093-D)*%
X318838800Y-172552000D02*
X322669700Y-172552000D01*
X296737500Y-202750000D02*
X300537500Y-198950000D01*
X300537500Y-172717100D02*
X300700600Y-172554000D01*
X301937500Y-184250000D02*
X301937500Y-181050000D01*
X289937500Y-202750000D02*
X296737500Y-202750000D01*
X322722457Y-172552000D02*
X331435500Y-172552000D01*
X331435500Y-172552000D02*
X331437500Y-172550000D01*
X300537500Y-185650000D02*
X301937500Y-184250000D01*
X322669700Y-172552000D02*
X322670700Y-172551000D01*
X301937500Y-181050000D02*
X300537500Y-179650000D01*
X300537500Y-198950000D02*
X300537500Y-185650000D01*
X300537500Y-179650000D02*
X300537500Y-172717100D01*
X322670700Y-172551000D02*
X322721457Y-172551000D01*
X300700600Y-172554000D02*
X318836800Y-172554000D01*
X322721457Y-172551000D02*
X322722457Y-172552000D01*
X318836800Y-172554000D02*
X318838800Y-172552000D01*
%TO.N,Net-(Q1095-D)*%
X289537500Y-209750000D02*
X289537500Y-208900057D01*
X288986443Y-208349000D02*
X288338500Y-208349000D01*
X288338500Y-208349000D02*
X286937500Y-209750000D01*
X286937500Y-209750000D02*
X284137500Y-209750000D01*
X284137500Y-209750000D02*
X282837500Y-208450000D01*
X289537500Y-208900057D02*
X288986443Y-208349000D01*
%TO.N,Net-(Q1096-D)*%
X288697500Y-215350000D02*
X288737500Y-215310000D01*
X288697500Y-215750000D02*
X288697500Y-215350000D01*
X288737500Y-215310000D02*
X288737500Y-208950000D01*
%TO.N,Net-(Q1098-D)*%
X297037500Y-197250000D02*
X297037500Y-201550000D01*
X300763530Y-182123970D02*
X297037500Y-185850000D01*
X297037500Y-185850000D02*
X297037500Y-197250000D01*
X297037500Y-201550000D02*
X296637500Y-201950000D01*
%TO.N,Net-(Q636-G)*%
X306250000Y-85535726D02*
X300450000Y-91335726D01*
X274050000Y-86737500D02*
X274050000Y-60337500D01*
X269440625Y-91346875D02*
X274050000Y-86737500D01*
X274050000Y-60337500D02*
X277350000Y-57037500D01*
X306250000Y-60237500D02*
X306250000Y-85535726D01*
X309350000Y-57137500D02*
X306250000Y-60237500D01*
%TO.N,Net-(Q637-G)*%
X274451000Y-63736500D02*
X277350000Y-60837500D01*
X265600000Y-93938500D02*
X267975728Y-93938500D01*
X269967353Y-91946875D02*
X269978502Y-91946875D01*
X306650000Y-63837500D02*
X306650000Y-86262454D01*
X269978502Y-91935726D02*
X274451000Y-87463228D01*
X267975728Y-93938500D02*
X269967353Y-91946875D01*
X306650000Y-86262454D02*
X300962149Y-91950305D01*
X309550000Y-60937500D02*
X306650000Y-63837500D01*
X274451000Y-87463228D02*
X274451000Y-63736500D01*
X269978502Y-91946875D02*
X269978502Y-91935726D01*
%TO.N,Net-(Q638-G)*%
X309550000Y-64737500D02*
X307051000Y-67236500D01*
X307051000Y-67236500D02*
X307051000Y-87032496D01*
X268496390Y-94538500D02*
X270372593Y-92662297D01*
X270372593Y-92660057D02*
X270494104Y-92538546D01*
X261750000Y-94538500D02*
X268496390Y-94538500D01*
X307051000Y-87032496D02*
X301450000Y-92633496D01*
X274852000Y-88188956D02*
X274852000Y-67535500D01*
X270494104Y-92538546D02*
X270502410Y-92538546D01*
X270372593Y-92662297D02*
X270372593Y-92660057D01*
X270502410Y-92538546D02*
X274852000Y-88188956D01*
X274852000Y-67535500D02*
X277550000Y-64837500D01*
%TO.N,Net-(Q639-G)*%
X307452000Y-87758123D02*
X301961542Y-93248581D01*
X307452000Y-70535500D02*
X307452000Y-87758123D01*
X269025380Y-95138500D02*
X270929177Y-93234703D01*
X270932982Y-93234703D02*
X275253000Y-88914685D01*
X275253000Y-70634500D02*
X277450000Y-68437500D01*
X309450000Y-68537500D02*
X307452000Y-70535500D01*
X270929177Y-93234703D02*
X270932982Y-93234703D01*
X275253000Y-88914685D02*
X275253000Y-70634500D01*
X257850000Y-95138500D02*
X269025380Y-95138500D01*
%TO.N,Net-(Q640-G)*%
X275654000Y-74133500D02*
X277450000Y-72337500D01*
X307853000Y-74134500D02*
X307853000Y-88531635D01*
X269459199Y-95833691D02*
X269459199Y-95833653D01*
X269455390Y-95837500D02*
X269459199Y-95833691D01*
X254100000Y-95837500D02*
X269455390Y-95837500D01*
X309550000Y-72437500D02*
X307853000Y-74134500D01*
X275654000Y-89640413D02*
X275654000Y-74133500D01*
X271358707Y-93935706D02*
X275654000Y-89640413D01*
X271357146Y-93935706D02*
X271358707Y-93935706D01*
X269459199Y-95833653D02*
X271357146Y-93935706D01*
X307853000Y-88531635D02*
X302450000Y-93934635D01*
%TO.N,Net-(Q641-G)*%
X269984553Y-96437500D02*
X271886277Y-94535776D01*
X276055000Y-77632500D02*
X277550000Y-76137500D01*
X250350000Y-96437500D02*
X269984553Y-96437500D01*
X271886277Y-94535776D02*
X271886277Y-94535726D01*
X308254000Y-89259531D02*
X302977054Y-94536477D01*
X308254000Y-77433500D02*
X308254000Y-89259531D01*
X276055000Y-90370744D02*
X276055000Y-77632500D01*
X271886277Y-94535726D02*
X271890018Y-94535726D01*
X271890018Y-94535726D02*
X276055000Y-90370744D01*
X309550000Y-76137500D02*
X308254000Y-77433500D01*
%TO.N,Net-(Q642-G)*%
X308655000Y-80932500D02*
X308655000Y-90031477D01*
X276456000Y-91095052D02*
X276456000Y-80931500D01*
X309650000Y-79937500D02*
X308655000Y-80932500D01*
X272414575Y-95136477D02*
X270512552Y-97038500D01*
X272414575Y-95136477D02*
X276456000Y-91095052D01*
X276456000Y-80931500D02*
X277450000Y-79937500D01*
X308655000Y-90031477D02*
X303550000Y-95136477D01*
X270512552Y-97038500D02*
X246951000Y-97038500D01*
X246951000Y-97038500D02*
X246850000Y-96937500D01*
%TO.N,Net-(Q643-G)*%
X271049000Y-97638500D02*
X272951023Y-95736477D01*
X276857000Y-84530500D02*
X277550000Y-83837500D01*
X309056000Y-90830477D02*
X304150000Y-95736477D01*
X272951023Y-95736477D02*
X276857000Y-91830500D01*
X242763500Y-97638500D02*
X271049000Y-97638500D01*
X242700000Y-97575000D02*
X242763500Y-97638500D01*
X309650000Y-83737500D02*
X309056000Y-84331500D01*
X309056000Y-84331500D02*
X309056000Y-90830477D01*
X276857000Y-91830500D02*
X276857000Y-84530500D01*
%TO.N,Net-(Q1453-D)*%
X357950000Y-86270400D02*
X347682900Y-96537500D01*
X357950000Y-68837500D02*
X357950000Y-86270400D01*
X347682900Y-96537500D02*
X278250000Y-96537500D01*
X368550000Y-58237500D02*
X357950000Y-68837500D01*
%TO.N,Net-(Q1452-D)*%
X368450000Y-61937500D02*
X358351000Y-72036500D01*
X358351000Y-86469400D02*
X347647582Y-97172818D01*
X347647582Y-97172818D02*
X282050000Y-97172818D01*
X358351000Y-72036500D02*
X358351000Y-86469400D01*
%TO.N,Net-(Q1451-D)*%
X347450000Y-97937500D02*
X308950000Y-97937500D01*
X285850000Y-97937500D02*
X308950000Y-97937500D01*
X368450000Y-65737500D02*
X358752000Y-75435500D01*
X358752000Y-86635500D02*
X347450000Y-97937500D01*
X358752000Y-75435500D02*
X358752000Y-86635500D01*
%TO.N,Net-(Q1450-D)*%
X367550000Y-69537500D02*
X359153000Y-77934500D01*
X359153000Y-86801600D02*
X347317100Y-98637500D01*
X368450000Y-69537500D02*
X367550000Y-69537500D01*
X289650000Y-98637500D02*
X308350000Y-98637500D01*
X308350000Y-98637500D02*
X347317100Y-98637500D01*
X359153000Y-77934500D02*
X359153000Y-86801600D01*
%TO.N,Net-(Q1449-D)*%
X365150000Y-86637500D02*
X352450000Y-99337500D01*
X307750000Y-99337500D02*
X352450000Y-99337500D01*
X293450000Y-99337500D02*
X307750000Y-99337500D01*
X368450000Y-73337500D02*
X365150000Y-76637500D01*
X365150000Y-76637500D02*
X365150000Y-86637500D01*
%TO.N,Net-(Q651-G)*%
X365551000Y-80136500D02*
X365551000Y-86836500D01*
X365551000Y-86836500D02*
X352350000Y-100037500D01*
X368550000Y-77137500D02*
X365551000Y-80136500D01*
X307150000Y-100037500D02*
X352350000Y-100037500D01*
X297250000Y-100037500D02*
X307150000Y-100037500D01*
%TO.N,Net-(Q652-G)*%
X368450000Y-80937500D02*
X365952000Y-83435500D01*
X365952000Y-83435500D02*
X365952000Y-87002600D01*
X301050000Y-100772818D02*
X306450000Y-100772818D01*
X365952000Y-87002600D02*
X352181782Y-100772818D01*
X306450000Y-100772818D02*
X352181782Y-100772818D01*
%TO.N,Net-(Q653-G)*%
X304850000Y-101437500D02*
X352084200Y-101437500D01*
X368450000Y-85071700D02*
X368450000Y-84737500D01*
X352084200Y-101437500D02*
X368450000Y-85071700D01*
%TD*%
M02*
