M48
; DRILL file {KiCad 9.0.7} date 2026-03-31T13:30:02+0200
; FORMAT={-:-/ absolute / inch / decimal}
; #@! TF.CreationDate,2026-03-31T13:30:02+02:00
; #@! TF.GenerationSoftware,Kicad,Pcbnew,9.0.7
; #@! TF.FileFunction,NonPlated,1,6,NPTH
FMAT,2
INCH
; #@! TA.AperFunction,NonPlated,NPTH,ComponentDrill
T1C0.0866
; #@! TA.AperFunction,NonPlated,NPTH,ComponentDrill
T2C0.1260
%
G90
G05
T1
X1.4094Y-5.5118
X1.4094Y-7.811
X1.6614Y-5.5118
X1.6614Y-7.811
X2.4134Y-1.2677
X2.4134Y-1.5197
X2.4134Y-2.748
X2.4134Y-3.0
X2.4134Y-4.0827
X2.4134Y-4.3346
X4.7087Y-1.2638
X4.7126Y-1.5197
X4.7126Y-2.748
X4.7126Y-3.0
X4.7126Y-4.0827
X4.7126Y-4.3346
X5.4764Y-1.2677
X5.4764Y-1.5197
X5.4764Y-2.748
X5.4764Y-3.0
X7.7756Y-1.2677
X7.7756Y-1.5197
X7.7756Y-2.748
X7.7756Y-3.0
X10.0886Y-3.533
X10.0925Y-1.2338
X10.3445Y-1.2338
X10.3445Y-3.533
X11.3484Y-1.2338
X11.3524Y-3.533
X11.6004Y-3.533
X11.6043Y-1.2338
X12.6083Y-1.2338
X12.6122Y-3.533
X12.8602Y-3.533
X12.8642Y-1.2338
X13.8681Y-1.2338
X13.872Y-3.533
X14.1201Y-3.533
X14.124Y-1.2338
T2
X0.9488Y-8.5197
X1.815Y-0.9252
X2.0472Y-4.1732
X5.0118Y-6.3701
X5.0787Y-2.8701
X5.1063Y-1.3898
X8.9055Y-8.5197
X9.2874Y-3.6654
X9.311Y-0.9606
X12.0276Y-1.7165
X14.2992Y-4.9094
X14.4488Y-0.9252
X14.4488Y-8.5197
M30
