M48
; DRILL file {KiCad 9.0.7} date 2026-03-29T15:28:22+0200
; FORMAT={-:-/ absolute / inch / decimal}
; #@! TF.CreationDate,2026-03-29T15:28:22+02:00
; #@! TF.GenerationSoftware,Kicad,Pcbnew,9.0.7
; #@! TF.FileFunction,NonPlated,1,6,NPTH
FMAT,2
INCH
; #@! TA.AperFunction,NonPlated,NPTH,ComponentDrill
T1C0.0866
; #@! TA.AperFunction,NonPlated,NPTH,ComponentDrill
T2C0.1260
%
G90
G05
T1
X1.0551Y-5.5118
X1.0551Y-7.811
X1.3071Y-5.5118
X1.3071Y-7.811
X2.0591Y-1.2677
X2.0591Y-1.5197
X2.0591Y-2.748
X2.0591Y-3.0
X2.0591Y-4.0827
X2.0591Y-4.3346
X4.3543Y-1.2638
X4.3583Y-1.5197
X4.3583Y-2.748
X4.3583Y-3.0
X4.3583Y-4.0827
X4.3583Y-4.3346
X5.122Y-1.2677
X5.122Y-1.5197
X5.122Y-2.748
X5.122Y-3.0
X7.4213Y-1.2677
X7.4213Y-1.5197
X7.4213Y-2.748
X7.4213Y-3.0
T2
X0.9252Y-0.9252
X0.9252Y-8.5197
X1.1811Y-4.7244
X4.7244Y-2.8701
X4.752Y-1.3898
X5.2874Y-5.0827
X9.0945Y-4.4488
X9.5433Y-0.9252
X9.5433Y-8.5236
X15.6181Y-0.9252
X15.6181Y-4.7283
X15.6181Y-8.5236
M30
