%TF.GenerationSoftware,KiCad,Pcbnew,9.0.7*%
%TF.CreationDate,2026-03-29T15:28:21+02:00*%
%TF.ProjectId,Whole_CPU_V1.0,57686f6c-655f-4435-9055-5f56312e302e,rev?*%
%TF.SameCoordinates,Original*%
%TF.FileFunction,Copper,L2,Inr*%
%TF.FilePolarity,Positive*%
%FSLAX46Y46*%
G04 Gerber Fmt 4.6, Leading zero omitted, Abs format (unit mm)*
G04 Created by KiCad (PCBNEW 9.0.7) date 2026-03-29 15:28:21*
%MOMM*%
%LPD*%
G01*
G04 APERTURE LIST*
%TA.AperFunction,ComponentPad*%
%ADD10C,2.000000*%
%TD*%
%TA.AperFunction,ComponentPad*%
%ADD11R,1.700000X1.700000*%
%TD*%
%TA.AperFunction,ComponentPad*%
%ADD12C,1.700000*%
%TD*%
%TA.AperFunction,ComponentPad*%
%ADD13C,1.600000*%
%TD*%
%TA.AperFunction,ViaPad*%
%ADD14C,0.600000*%
%TD*%
%TA.AperFunction,ViaPad*%
%ADD15C,1.000000*%
%TD*%
%TA.AperFunction,Conductor*%
%ADD16C,0.200000*%
%TD*%
%TA.AperFunction,Conductor*%
%ADD17C,0.250000*%
%TD*%
G04 APERTURE END LIST*
D10*
%TO.N,VCC*%
%TO.C,C19*%
X216250000Y-86000000D03*
%TO.N,GND*%
X223750000Y-86000000D03*
%TD*%
D11*
%TO.N,Net-(J26-Pin_1)*%
%TO.C,J26*%
X383440000Y-133020000D03*
D12*
%TO.N,VCC*%
X380900000Y-133020000D03*
%TO.N,Net-(J26-Pin_3)*%
X383440000Y-135560000D03*
%TO.N,GND*%
X380900000Y-135560000D03*
%TO.N,Net-(J26-Pin_5)*%
X383440000Y-138100000D03*
%TO.N,VCC*%
X380900000Y-138100000D03*
%TO.N,Net-(J26-Pin_7)*%
X383440000Y-140640000D03*
%TO.N,GND*%
X380900000Y-140640000D03*
%TO.N,Net-(J26-Pin_9)*%
X383440000Y-143180000D03*
%TO.N,VCC*%
X380900000Y-143180000D03*
%TO.N,Net-(J26-Pin_11)*%
X383440000Y-145720000D03*
%TO.N,GND*%
X380900000Y-145720000D03*
%TO.N,Net-(J26-Pin_13)*%
X383440000Y-148260000D03*
%TO.N,VCC*%
X380900000Y-148260000D03*
%TO.N,/N*%
X383440000Y-150800000D03*
%TO.N,GND*%
X380900000Y-150800000D03*
%TD*%
D13*
%TO.N,VCC*%
%TO.C,R22*%
X65100000Y-96000000D03*
%TO.N,Net-(Q606-D)*%
X57480000Y-96000000D03*
%TD*%
D11*
%TO.N,GND*%
%TO.C,J13*%
X233300000Y-208180000D03*
D12*
%TO.N,VCC*%
X235840000Y-208180000D03*
%TO.N,Carry in*%
X233300000Y-205640000D03*
%TO.N,OR*%
X235840000Y-205640000D03*
%TO.N,ALU FLAG C*%
X233300000Y-203100000D03*
%TO.N,AND*%
X235840000Y-203100000D03*
%TO.N,ALU FLAG O*%
X233300000Y-200560000D03*
%TO.N,RS*%
X235840000Y-200560000D03*
%TO.N,ALU FLAG U*%
X233300000Y-198020000D03*
%TO.N,NOT*%
X235840000Y-198020000D03*
%TO.N,ALU FLAG Z*%
X233300000Y-195480000D03*
%TO.N,XOR*%
X235840000Y-195480000D03*
%TO.N,ALU FLAG N*%
X233300000Y-192940000D03*
%TO.N,ADD*%
X235840000Y-192940000D03*
%TO.N,GND*%
X233300000Y-190400000D03*
%TO.N,VCC*%
X235840000Y-190400000D03*
%TD*%
D11*
%TO.N,GND*%
%TO.C,J14*%
X233340000Y-78880000D03*
D12*
%TO.N,D ->ALU B*%
X235880000Y-78880000D03*
%TO.N,rst*%
X233340000Y-76340000D03*
%TO.N,C ->ALU B*%
X235880000Y-76340000D03*
%TO.N,Rising Edge*%
X233340000Y-73800000D03*
%TO.N,B ->ALU B*%
X235880000Y-73800000D03*
%TO.N,ALU B = FF*%
X233340000Y-71260000D03*
%TO.N,A ->ALU B*%
X235880000Y-71260000D03*
%TO.N,READ D*%
X233340000Y-68720000D03*
%TO.N,D ->ALU A*%
X235880000Y-68720000D03*
%TO.N,READ C*%
X233340000Y-66180000D03*
%TO.N,C ->ALU A*%
X235880000Y-66180000D03*
%TO.N,READ B*%
X233340000Y-63640000D03*
%TO.N,B ->ALU A*%
X235880000Y-63640000D03*
%TO.N,READ A*%
X233340000Y-61100000D03*
%TO.N,A ->ALU A*%
X235880000Y-61100000D03*
%TD*%
D11*
%TO.N,Faling Edge*%
%TO.C,J7*%
X50900000Y-98400000D03*
%TD*%
%TO.N,VCC*%
%TO.C,J6*%
X56080000Y-106900000D03*
D12*
%TO.N,GND*%
X58620000Y-106900000D03*
%TO.N,rst*%
X61160000Y-106900000D03*
%TO.N,VCC*%
X63700000Y-106900000D03*
%TO.N,Rising Edge*%
X66240000Y-106900000D03*
%TO.N,TIME STEP IN 0*%
X68780000Y-106900000D03*
%TO.N,TIME STEP IN 1*%
X71320000Y-106900000D03*
%TO.N,TIME STEP IN 2*%
X73860000Y-106900000D03*
%TO.N,FLAG STORE N*%
X76400000Y-106900000D03*
%TO.N,FLAG STORE Z*%
X78940000Y-106900000D03*
%TO.N,FLAG STORE U*%
X81480000Y-106900000D03*
%TO.N,FLAG STORE O*%
X84020000Y-106900000D03*
%TO.N,FLAG STORE C*%
X86560000Y-106900000D03*
%TO.N,TIME STEP 0*%
X89100000Y-106900000D03*
%TO.N,TIME STEP 1*%
X91640000Y-106900000D03*
%TO.N,TIME STEP 2*%
X94180000Y-106900000D03*
%TO.N,FLAG N*%
X96720000Y-106900000D03*
%TO.N,FLAG Z*%
X99260000Y-106900000D03*
%TO.N,FLAG U*%
X101800000Y-106900000D03*
%TO.N,FLAG O*%
X104340000Y-106900000D03*
%TO.N,FLAG C*%
X106880000Y-106900000D03*
%TD*%
D11*
%TO.N,VCC*%
%TO.C,J24*%
X370950000Y-35762500D03*
D12*
%TO.N,GND*%
X370950000Y-38302500D03*
%TO.N,RST*%
X370950000Y-40842500D03*
%TO.N,Net-(J20-Pin_9)*%
X370950000Y-43382500D03*
%TO.N,Rising_Edge*%
X370950000Y-45922500D03*
%TO.N,Net-(J16-Pin_2)*%
X370950000Y-48462500D03*
%TO.N,Net-(J16-Pin_4)*%
X370950000Y-51002500D03*
%TO.N,Net-(J16-Pin_6)*%
X370950000Y-53542500D03*
%TO.N,Net-(J16-Pin_8)*%
X370950000Y-56082500D03*
%TO.N,Net-(J16-Pin_10)*%
X370950000Y-58622500D03*
%TO.N,Net-(J16-Pin_12)*%
X370950000Y-61162500D03*
%TO.N,Net-(J16-Pin_14)*%
X370950000Y-63702500D03*
%TO.N,Net-(J16-Pin_16)*%
X370950000Y-66242500D03*
%TO.N,Net-(J24-Pin_14)*%
X370950000Y-68782500D03*
%TO.N,Net-(J24-Pin_15)*%
X370950000Y-71322500D03*
%TO.N,Net-(J24-Pin_16)*%
X370950000Y-73862500D03*
%TO.N,Net-(J24-Pin_17)*%
X370950000Y-76402500D03*
%TO.N,Net-(J24-Pin_18)*%
X370950000Y-78942500D03*
%TO.N,Net-(J24-Pin_19)*%
X370950000Y-81482500D03*
%TO.N,Net-(J24-Pin_20)*%
X370950000Y-84022500D03*
%TO.N,Net-(J24-Pin_21)*%
X370950000Y-86562500D03*
%TD*%
D11*
%TO.N,VCC*%
%TO.C,J5*%
X133900000Y-35400000D03*
D12*
%TO.N,GND*%
X136440000Y-35400000D03*
%TO.N,rst*%
X138980000Y-35400000D03*
%TO.N,TIME STEP 0*%
X141520000Y-35400000D03*
%TO.N,Faling Edge*%
X144060000Y-35400000D03*
%TO.N,Buss0*%
X146600000Y-35400000D03*
%TO.N,Buss1*%
X149140000Y-35400000D03*
%TO.N,Buss2*%
X151680000Y-35400000D03*
%TO.N,Buss3*%
X154220000Y-35400000D03*
%TO.N,Buss4*%
X156760000Y-35400000D03*
%TO.N,Buss5*%
X159300000Y-35400000D03*
%TO.N,Buss6*%
X161840000Y-35400000D03*
%TO.N,Buss7*%
X164380000Y-35400000D03*
%TO.N,TEMP ADR 8*%
X166920000Y-35400000D03*
%TO.N,TEMP ADR 9*%
X169460000Y-35400000D03*
%TO.N,TEMP ADR 10*%
X172000000Y-35400000D03*
%TO.N,TEMP ADR 11*%
X174540000Y-35400000D03*
%TO.N,TEMP ADR 12*%
X177080000Y-35400000D03*
%TO.N,TEMP ADR 13*%
X179620000Y-35400000D03*
%TO.N,TEMP ADR 14*%
X182160000Y-35400000D03*
%TO.N,TEMP ADR 15*%
X184700000Y-35400000D03*
%TD*%
D11*
%TO.N,ADR 7*%
%TO.C,J11*%
X29340000Y-34800000D03*
D12*
%TO.N,ADR 15*%
X26800000Y-34800000D03*
%TO.N,ADR 6*%
X29340000Y-37340000D03*
%TO.N,ADR 14*%
X26800000Y-37340000D03*
%TO.N,ADR 5*%
X29340000Y-39880000D03*
%TO.N,ADR 13*%
X26800000Y-39880000D03*
%TO.N,ADR 4*%
X29340000Y-42420000D03*
%TO.N,ADR 12*%
X26800000Y-42420000D03*
%TO.N,ADR 3*%
X29340000Y-44960000D03*
%TO.N,ADR 11*%
X26800000Y-44960000D03*
%TO.N,ADR 2*%
X29340000Y-47500000D03*
%TO.N,ADR 10*%
X26800000Y-47500000D03*
%TO.N,ADR 1*%
X29340000Y-50040000D03*
%TO.N,ADR 9*%
X26800000Y-50040000D03*
%TO.N,ADR 0*%
X29340000Y-52580000D03*
%TO.N,ADR 8*%
X26800000Y-52580000D03*
%TD*%
D11*
%TO.N,VCC*%
%TO.C,J27*%
X375100000Y-208000000D03*
D12*
%TO.N,GND*%
X377640000Y-208000000D03*
%TD*%
D13*
%TO.N,VCC*%
%TO.C,R20*%
X36790000Y-87000000D03*
%TO.N,Net-(Q605-D)*%
X44410000Y-87000000D03*
%TD*%
%TO.N,VCC*%
%TO.C,R76*%
X36790000Y-96000000D03*
%TO.N,Net-(Q607-D)*%
X44410000Y-96000000D03*
%TD*%
D11*
%TO.N,VCC*%
%TO.C,J4*%
X56100000Y-35400000D03*
D12*
%TO.N,GND*%
X58640000Y-35400000D03*
%TO.N,rst*%
X61180000Y-35400000D03*
%TO.N,TIME STEP 1*%
X63720000Y-35400000D03*
%TO.N,Faling Edge*%
X66260000Y-35400000D03*
%TO.N,Buss0*%
X68800000Y-35400000D03*
%TO.N,Buss1*%
X71340000Y-35400000D03*
%TO.N,Buss2*%
X73880000Y-35400000D03*
%TO.N,Buss3*%
X76420000Y-35400000D03*
%TO.N,Buss4*%
X78960000Y-35400000D03*
%TO.N,Buss5*%
X81500000Y-35400000D03*
%TO.N,Buss6*%
X84040000Y-35400000D03*
%TO.N,Buss7*%
X86580000Y-35400000D03*
%TO.N,TEMP ADR 0*%
X89120000Y-35400000D03*
%TO.N,TEMP ADR 1*%
X91660000Y-35400000D03*
%TO.N,TEMP ADR 2*%
X94200000Y-35400000D03*
%TO.N,TEMP ADR 3*%
X96740000Y-35400000D03*
%TO.N,TEMP ADR 4*%
X99280000Y-35400000D03*
%TO.N,TEMP ADR 5*%
X101820000Y-35400000D03*
%TO.N,TEMP ADR 6*%
X104360000Y-35400000D03*
%TO.N,TEMP ADR 7*%
X106900000Y-35400000D03*
%TD*%
D11*
%TO.N,VCC*%
%TO.C,J19*%
X251550000Y-105587500D03*
D12*
%TO.N,GND*%
X251550000Y-108127500D03*
%TD*%
D11*
%TO.N,VCC*%
%TO.C,J28*%
X265800000Y-215000000D03*
D12*
%TO.N,GND*%
X265800000Y-217540000D03*
%TD*%
D11*
%TO.N,Buss0*%
%TO.C,J10*%
X29340000Y-68900000D03*
D12*
%TO.N,VCC*%
X26800000Y-68900000D03*
%TO.N,Buss1*%
X29340000Y-71440000D03*
%TO.N,GND*%
X26800000Y-71440000D03*
%TO.N,Buss2*%
X29340000Y-73980000D03*
%TO.N,CLOCK*%
X26800000Y-73980000D03*
%TO.N,Buss3*%
X29340000Y-76520000D03*
%TO.N,rst*%
X26800000Y-76520000D03*
%TO.N,Buss4*%
X29340000Y-79060000D03*
%TO.N,GND*%
X26800000Y-79060000D03*
%TO.N,Buss5*%
X29340000Y-81600000D03*
%TO.N,R{slash}W out*%
X26800000Y-81600000D03*
%TO.N,Buss6*%
X29340000Y-84140000D03*
%TO.N,GND*%
X26800000Y-84140000D03*
%TO.N,Buss7*%
X29340000Y-86680000D03*
%TO.N,VCC*%
X26800000Y-86680000D03*
%TD*%
D11*
%TO.N,VCC*%
%TO.C,J1*%
X30000000Y-194600000D03*
D12*
%TO.N,GND*%
X30000000Y-192060000D03*
%TO.N,rst*%
X30000000Y-189520000D03*
%TO.N,Read New Instruction*%
X30000000Y-186980000D03*
%TO.N,Faling Edge*%
X30000000Y-184440000D03*
%TO.N,Buss0*%
X30000000Y-181900000D03*
%TO.N,Buss1*%
X30000000Y-179360000D03*
%TO.N,Buss2*%
X30000000Y-176820000D03*
%TO.N,Buss3*%
X30000000Y-174280000D03*
%TO.N,Buss4*%
X30000000Y-171740000D03*
%TO.N,Buss5*%
X30000000Y-169200000D03*
%TO.N,Buss6*%
X30000000Y-166660000D03*
%TO.N,Buss7*%
X30000000Y-164120000D03*
%TO.N,Net-(J1-Pin_14)*%
X30000000Y-161580000D03*
%TO.N,Net-(J1-Pin_15)*%
X30000000Y-159040000D03*
%TO.N,Net-(J1-Pin_16)*%
X30000000Y-156500000D03*
%TO.N,Net-(J1-Pin_17)*%
X30000000Y-153960000D03*
%TO.N,Net-(J1-Pin_18)*%
X30000000Y-151420000D03*
%TO.N,Net-(J1-Pin_19)*%
X30000000Y-148880000D03*
%TO.N,Net-(J1-Pin_20)*%
X30000000Y-146340000D03*
%TO.N,Net-(J1-Pin_21)*%
X30000000Y-143800000D03*
%TD*%
D11*
%TO.N,VCC*%
%TO.C,J16*%
X380990000Y-93820000D03*
D12*
%TO.N,Net-(J16-Pin_2)*%
X378450000Y-93820000D03*
%TO.N,GND*%
X380990000Y-96360000D03*
%TO.N,Net-(J16-Pin_4)*%
X378450000Y-96360000D03*
%TO.N,VCC*%
X380990000Y-98900000D03*
%TO.N,Net-(J16-Pin_6)*%
X378450000Y-98900000D03*
%TO.N,GND*%
X380990000Y-101440000D03*
%TO.N,Net-(J16-Pin_8)*%
X378450000Y-101440000D03*
%TO.N,VCC*%
X380990000Y-103980000D03*
%TO.N,Net-(J16-Pin_10)*%
X378450000Y-103980000D03*
%TO.N,GND*%
X380990000Y-106520000D03*
%TO.N,Net-(J16-Pin_12)*%
X378450000Y-106520000D03*
%TO.N,VCC*%
X380990000Y-109060000D03*
%TO.N,Net-(J16-Pin_14)*%
X378450000Y-109060000D03*
%TO.N,GND*%
X380990000Y-111600000D03*
%TO.N,Net-(J16-Pin_16)*%
X378450000Y-111600000D03*
%TD*%
D11*
%TO.N,VCC*%
%TO.C,J18*%
X317975000Y-26462500D03*
D12*
%TO.N,GND*%
X320515000Y-26462500D03*
%TD*%
D13*
%TO.N,VCC*%
%TO.C,R21*%
X65100000Y-87000000D03*
%TO.N,Net-(Q604-D)*%
X57480000Y-87000000D03*
%TD*%
D10*
%TO.N,VCC*%
%TO.C,C20*%
X216250000Y-102500000D03*
%TO.N,GND*%
X223750000Y-102500000D03*
%TD*%
D11*
%TO.N,GND*%
%TO.C,J52*%
X395290000Y-93820000D03*
D12*
%TO.N,Net-(J16-Pin_16)*%
X392750000Y-93820000D03*
%TO.N,VCC*%
X395290000Y-96360000D03*
%TO.N,Net-(J16-Pin_14)*%
X392750000Y-96360000D03*
%TO.N,GND*%
X395290000Y-98900000D03*
%TO.N,Net-(J16-Pin_12)*%
X392750000Y-98900000D03*
%TO.N,VCC*%
X395290000Y-101440000D03*
%TO.N,Net-(J16-Pin_10)*%
X392750000Y-101440000D03*
%TO.N,GND*%
X395290000Y-103980000D03*
%TO.N,Net-(J16-Pin_8)*%
X392750000Y-103980000D03*
%TO.N,VCC*%
X395290000Y-106520000D03*
%TO.N,Net-(J16-Pin_6)*%
X392750000Y-106520000D03*
%TO.N,GND*%
X395290000Y-109060000D03*
%TO.N,Net-(J16-Pin_4)*%
X392750000Y-109060000D03*
%TO.N,VCC*%
X395290000Y-111600000D03*
%TO.N,Net-(J16-Pin_2)*%
X392750000Y-111600000D03*
%TD*%
D13*
%TO.N,Net-(Q607-G)*%
%TO.C,R389*%
X44410000Y-93000000D03*
%TO.N,GND*%
X36790000Y-93000000D03*
%TD*%
D11*
%TO.N,GND*%
%TO.C,J20*%
X388140000Y-93820000D03*
D12*
%TO.N,Net-(J20-Pin_2)*%
X385600000Y-93820000D03*
%TO.N,RST*%
X388140000Y-96360000D03*
%TO.N,Net-(J20-Pin_4)*%
X385600000Y-96360000D03*
%TO.N,Rising_Edge*%
X388140000Y-98900000D03*
%TO.N,Net-(J20-Pin_6)*%
X385600000Y-98900000D03*
%TO.N,/ALU B -> FF*%
X388140000Y-101440000D03*
%TO.N,Net-(J20-Pin_8)*%
X385600000Y-101440000D03*
%TO.N,Net-(J20-Pin_9)*%
X388140000Y-103980000D03*
%TO.N,Net-(J20-Pin_10)*%
X385600000Y-103980000D03*
%TO.N,Net-(J20-Pin_11)*%
X388140000Y-106520000D03*
%TO.N,Net-(J20-Pin_12)*%
X385600000Y-106520000D03*
%TO.N,Net-(J20-Pin_13)*%
X388140000Y-109060000D03*
%TO.N,Net-(J20-Pin_14)*%
X385600000Y-109060000D03*
%TO.N,Net-(J20-Pin_15)*%
X388140000Y-111600000D03*
%TO.N,Net-(J20-Pin_16)*%
X385600000Y-111600000D03*
%TD*%
D11*
%TO.N,VCC*%
%TO.C,J17*%
X336150000Y-114462500D03*
D12*
%TO.N,GND*%
X336150000Y-117002500D03*
%TD*%
D11*
%TO.N,Net-(J15-Pin_1)*%
%TO.C,J15*%
X373840000Y-93820000D03*
D12*
%TO.N,Net-(J15-Pin_2)*%
X371300000Y-93820000D03*
%TO.N,Net-(J15-Pin_3)*%
X373840000Y-96360000D03*
%TO.N,Net-(J15-Pin_4)*%
X371300000Y-96360000D03*
%TO.N,Net-(J15-Pin_5)*%
X373840000Y-98900000D03*
%TO.N,Net-(J15-Pin_6)*%
X371300000Y-98900000D03*
%TO.N,Net-(J15-Pin_7)*%
X373840000Y-101440000D03*
%TO.N,Net-(J15-Pin_8)*%
X371300000Y-101440000D03*
%TO.N,Net-(J15-Pin_9)*%
X373840000Y-103980000D03*
%TO.N,Net-(J15-Pin_10)*%
X371300000Y-103980000D03*
%TO.N,Net-(J15-Pin_11)*%
X373840000Y-106520000D03*
%TO.N,Net-(J15-Pin_12)*%
X371300000Y-106520000D03*
%TO.N,Net-(J15-Pin_13)*%
X373840000Y-109060000D03*
%TO.N,Net-(J15-Pin_14)*%
X371300000Y-109060000D03*
%TO.N,Net-(J15-Pin_15)*%
X373840000Y-111600000D03*
%TO.N,Net-(J15-Pin_16)*%
X371300000Y-111600000D03*
%TD*%
D13*
%TO.N,VCC*%
%TO.C,R77*%
X36780000Y-99000000D03*
%TO.N,Rising Edge*%
X44400000Y-99000000D03*
%TD*%
D11*
%TO.N,VCC*%
%TO.C,J3*%
X133900000Y-73000000D03*
D12*
%TO.N,GND*%
X136440000Y-73000000D03*
%TO.N,rst*%
X138980000Y-73000000D03*
%TO.N,VCC*%
X141520000Y-73000000D03*
%TO.N,Rising Edge*%
X144060000Y-73000000D03*
%TO.N,NEXT ADR 8*%
X146600000Y-73000000D03*
%TO.N,NEXT ADR 9*%
X149140000Y-73000000D03*
%TO.N,NEXT ADR 10*%
X151680000Y-73000000D03*
%TO.N,NEXT ADR 11*%
X154220000Y-73000000D03*
%TO.N,NEXT ADR 12*%
X156760000Y-73000000D03*
%TO.N,NEXT ADR 13*%
X159300000Y-73000000D03*
%TO.N,NEXT ADR 14*%
X161840000Y-73000000D03*
%TO.N,NEXT ADR 15*%
X164380000Y-73000000D03*
%TO.N,STORED ADR 8*%
X166920000Y-73000000D03*
%TO.N,STORED ADR 9*%
X169460000Y-73000000D03*
%TO.N,STORED ADR 10*%
X172000000Y-73000000D03*
%TO.N,STORED ADR 11*%
X174540000Y-73000000D03*
%TO.N,STORED ADR 12*%
X177080000Y-73000000D03*
%TO.N,STORED ADR 13*%
X179620000Y-73000000D03*
%TO.N,STORED ADR 14*%
X182160000Y-73000000D03*
%TO.N,STORED ADR 15*%
X184700000Y-73000000D03*
%TD*%
D11*
%TO.N,VCC*%
%TO.C,J29*%
X253140000Y-189640000D03*
D12*
%TO.N,GND*%
X250600000Y-189640000D03*
%TO.N,Net-(J29-Pin_3)*%
X253140000Y-192180000D03*
%TO.N,/N*%
X250600000Y-192180000D03*
%TO.N,Net-(J29-Pin_5)*%
X253140000Y-194720000D03*
%TO.N,/Z*%
X250600000Y-194720000D03*
%TO.N,Net-(J29-Pin_7)*%
X253140000Y-197260000D03*
%TO.N,/U*%
X250600000Y-197260000D03*
%TO.N,Net-(J29-Pin_9)*%
X253140000Y-199800000D03*
%TO.N,/O*%
X250600000Y-199800000D03*
%TO.N,Net-(J29-Pin_11)*%
X253140000Y-202340000D03*
%TO.N,/C_out*%
X250600000Y-202340000D03*
%TO.N,Net-(J29-Pin_13)*%
X253140000Y-204880000D03*
%TO.N,/C_in*%
X250600000Y-204880000D03*
%TO.N,VCC*%
X253140000Y-207420000D03*
%TO.N,GND*%
X250600000Y-207420000D03*
%TD*%
D13*
%TO.N,Net-(Q606-G)*%
%TO.C,R388*%
X57480000Y-90000000D03*
%TO.N,GND*%
X65100000Y-90000000D03*
%TD*%
%TO.N,Net-(Q606-G)*%
%TO.C,R410*%
X57480000Y-93000000D03*
%TO.N,GND*%
X65100000Y-93000000D03*
%TD*%
D11*
%TO.N,Main bus 7*%
%TO.C,J12*%
X233300000Y-46880000D03*
D12*
%TO.N,GND*%
X235840000Y-46880000D03*
%TO.N,Main bus 6*%
X233300000Y-44340000D03*
%TO.N,VCC*%
X235840000Y-44340000D03*
%TO.N,Main bus 5*%
X233300000Y-41800000D03*
%TO.N,GND*%
X235840000Y-41800000D03*
%TO.N,Main bus 4*%
X233300000Y-39260000D03*
%TO.N,VCC*%
X235840000Y-39260000D03*
%TO.N,Main bus 3*%
X233300000Y-36720000D03*
%TO.N,GND*%
X235840000Y-36720000D03*
%TO.N,Main bus 2*%
X233300000Y-34180000D03*
%TO.N,VCC*%
X235840000Y-34180000D03*
%TO.N,Main bus 1*%
X233300000Y-31640000D03*
%TO.N,GND*%
X235840000Y-31640000D03*
%TO.N,Main bus 0*%
X233300000Y-29100000D03*
%TO.N,VCC*%
X235840000Y-29100000D03*
%TD*%
D13*
%TO.N,Net-(Q605-D)*%
%TO.C,C2*%
X47000000Y-90400000D03*
%TO.N,Net-(Q607-G)*%
X47000000Y-85400000D03*
%TD*%
D11*
%TO.N,VCC*%
%TO.C,J2*%
X56100000Y-73000000D03*
D12*
%TO.N,GND*%
X58640000Y-73000000D03*
%TO.N,rst*%
X61180000Y-73000000D03*
%TO.N,VCC*%
X63720000Y-73000000D03*
%TO.N,Rising Edge*%
X66260000Y-73000000D03*
%TO.N,NEXT ADR 0*%
X68800000Y-73000000D03*
%TO.N,NEXT ADR 1*%
X71340000Y-73000000D03*
%TO.N,NEXT ADR 2*%
X73880000Y-73000000D03*
%TO.N,NEXT ADR 3*%
X76420000Y-73000000D03*
%TO.N,NEXT ADR 4*%
X78960000Y-73000000D03*
%TO.N,NEXT ADR 5*%
X81500000Y-73000000D03*
%TO.N,NEXT ADR 6*%
X84040000Y-73000000D03*
%TO.N,NEXT ADR 7*%
X86580000Y-73000000D03*
%TO.N,STORED ADR 0*%
X89120000Y-73000000D03*
%TO.N,STORED ADR 1*%
X91660000Y-73000000D03*
%TO.N,STORED ADR 2*%
X94200000Y-73000000D03*
%TO.N,STORED ADR 3*%
X96740000Y-73000000D03*
%TO.N,STORED ADR 4*%
X99280000Y-73000000D03*
%TO.N,STORED ADR 5*%
X101820000Y-73000000D03*
%TO.N,STORED ADR 6*%
X104360000Y-73000000D03*
%TO.N,STORED ADR 7*%
X106900000Y-73000000D03*
%TD*%
D11*
%TO.N,VCC*%
%TO.C,J22*%
X306950000Y-35762500D03*
D12*
%TO.N,GND*%
X306950000Y-38302500D03*
%TO.N,RST*%
X306950000Y-40842500D03*
%TO.N,Net-(J20-Pin_13)*%
X306950000Y-43382500D03*
%TO.N,Rising_Edge*%
X306950000Y-45922500D03*
%TO.N,Net-(J16-Pin_2)*%
X306950000Y-48462500D03*
%TO.N,Net-(J16-Pin_4)*%
X306950000Y-51002500D03*
%TO.N,Net-(J16-Pin_6)*%
X306950000Y-53542500D03*
%TO.N,Net-(J16-Pin_8)*%
X306950000Y-56082500D03*
%TO.N,Net-(J16-Pin_10)*%
X306950000Y-58622500D03*
%TO.N,Net-(J16-Pin_12)*%
X306950000Y-61162500D03*
%TO.N,Net-(J16-Pin_14)*%
X306950000Y-63702500D03*
%TO.N,Net-(J16-Pin_16)*%
X306950000Y-66242500D03*
%TO.N,Net-(J22-Pin_14)*%
X306950000Y-68782500D03*
%TO.N,Net-(J22-Pin_15)*%
X306950000Y-71322500D03*
%TO.N,Net-(J22-Pin_16)*%
X306950000Y-73862500D03*
%TO.N,Net-(J22-Pin_17)*%
X306950000Y-76402500D03*
%TO.N,Net-(J22-Pin_18)*%
X306950000Y-78942500D03*
%TO.N,Net-(J22-Pin_19)*%
X306950000Y-81482500D03*
%TO.N,Net-(J22-Pin_20)*%
X306950000Y-84022500D03*
%TO.N,Net-(J22-Pin_21)*%
X306950000Y-86562500D03*
%TD*%
D13*
%TO.N,VCC*%
%TO.C,R74*%
X65100000Y-99000000D03*
%TO.N,Faling Edge*%
X57480000Y-99000000D03*
%TD*%
%TO.N,Net-(Q607-G)*%
%TO.C,R411*%
X44410000Y-90000000D03*
%TO.N,GND*%
X36790000Y-90000000D03*
%TD*%
D11*
%TO.N,VCC*%
%TO.C,J21*%
X274950000Y-35762500D03*
D12*
%TO.N,GND*%
X274950000Y-38302500D03*
%TO.N,RST*%
X274950000Y-40842500D03*
%TO.N,Net-(J20-Pin_15)*%
X274950000Y-43382500D03*
%TO.N,Rising_Edge*%
X274950000Y-45922500D03*
%TO.N,Net-(J16-Pin_2)*%
X274950000Y-48462500D03*
%TO.N,Net-(J16-Pin_4)*%
X274950000Y-51002500D03*
%TO.N,Net-(J16-Pin_6)*%
X274950000Y-53542500D03*
%TO.N,Net-(J16-Pin_8)*%
X274950000Y-56082500D03*
%TO.N,Net-(J16-Pin_10)*%
X274950000Y-58622500D03*
%TO.N,Net-(J16-Pin_12)*%
X274950000Y-61162500D03*
%TO.N,Net-(J16-Pin_14)*%
X274950000Y-63702500D03*
%TO.N,Net-(J16-Pin_16)*%
X274950000Y-66242500D03*
%TO.N,Net-(J21-Pin_14)*%
X274950000Y-68782500D03*
%TO.N,Net-(J21-Pin_15)*%
X274950000Y-71322500D03*
%TO.N,Net-(J21-Pin_16)*%
X274950000Y-73862500D03*
%TO.N,Net-(J21-Pin_17)*%
X274950000Y-76402500D03*
%TO.N,Net-(J21-Pin_18)*%
X274950000Y-78942500D03*
%TO.N,Net-(J21-Pin_19)*%
X274950000Y-81482500D03*
%TO.N,Net-(J21-Pin_20)*%
X274950000Y-84022500D03*
%TO.N,Net-(J21-Pin_21)*%
X274950000Y-86562500D03*
%TD*%
D11*
%TO.N,Net-(J25-Pin_1)*%
%TO.C,J25*%
X267060000Y-125040000D03*
D12*
%TO.N,Net-(J25-Pin_2)*%
X267060000Y-122500000D03*
%TO.N,Net-(J25-Pin_3)*%
X264520000Y-125040000D03*
%TO.N,Net-(J25-Pin_4)*%
X264520000Y-122500000D03*
%TO.N,Net-(J25-Pin_5)*%
X261980000Y-125040000D03*
%TO.N,Net-(J25-Pin_6)*%
X261980000Y-122500000D03*
%TO.N,Net-(J25-Pin_7)*%
X259440000Y-125040000D03*
%TO.N,Net-(J25-Pin_8)*%
X259440000Y-122500000D03*
%TO.N,Net-(J25-Pin_9)*%
X256900000Y-125040000D03*
%TO.N,Net-(J25-Pin_10)*%
X256900000Y-122500000D03*
%TO.N,Net-(J25-Pin_11)*%
X254360000Y-125040000D03*
%TO.N,Net-(J25-Pin_12)*%
X254360000Y-122500000D03*
%TO.N,Net-(J25-Pin_13)*%
X251820000Y-125040000D03*
%TO.N,Net-(J25-Pin_14)*%
X251820000Y-122500000D03*
%TO.N,Net-(J25-Pin_15)*%
X249280000Y-125040000D03*
%TO.N,Net-(J25-Pin_16)*%
X249280000Y-122500000D03*
%TD*%
D11*
%TO.N,Rising Edge*%
%TO.C,J8*%
X50900000Y-93500000D03*
%TD*%
%TO.N,VCC*%
%TO.C,J23*%
X338950000Y-35762500D03*
D12*
%TO.N,GND*%
X338950000Y-38302500D03*
%TO.N,RST*%
X338950000Y-40842500D03*
%TO.N,Net-(J20-Pin_11)*%
X338950000Y-43382500D03*
%TO.N,Rising_Edge*%
X338950000Y-45922500D03*
%TO.N,Net-(J16-Pin_2)*%
X338950000Y-48462500D03*
%TO.N,Net-(J16-Pin_4)*%
X338950000Y-51002500D03*
%TO.N,Net-(J16-Pin_6)*%
X338950000Y-53542500D03*
%TO.N,Net-(J16-Pin_8)*%
X338950000Y-56082500D03*
%TO.N,Net-(J16-Pin_10)*%
X338950000Y-58622500D03*
%TO.N,Net-(J16-Pin_12)*%
X338950000Y-61162500D03*
%TO.N,Net-(J16-Pin_14)*%
X338950000Y-63702500D03*
%TO.N,Net-(J16-Pin_16)*%
X338950000Y-66242500D03*
%TO.N,Net-(J23-Pin_14)*%
X338950000Y-68782500D03*
%TO.N,Net-(J23-Pin_15)*%
X338950000Y-71322500D03*
%TO.N,Net-(J23-Pin_16)*%
X338950000Y-73862500D03*
%TO.N,Net-(J23-Pin_17)*%
X338950000Y-76402500D03*
%TO.N,Net-(J23-Pin_18)*%
X338950000Y-78942500D03*
%TO.N,Net-(J23-Pin_19)*%
X338950000Y-81482500D03*
%TO.N,Net-(J23-Pin_20)*%
X338950000Y-84022500D03*
%TO.N,Net-(J23-Pin_21)*%
X338950000Y-86562500D03*
%TD*%
D13*
%TO.N,Net-(Q604-D)*%
%TO.C,C1*%
X54900000Y-85400000D03*
%TO.N,Net-(Q606-G)*%
X54900000Y-90400000D03*
%TD*%
D11*
%TO.N,Read New Instruction*%
%TO.C,J9*%
X54062500Y-160075000D03*
%TD*%
D14*
%TO.N,Net-(J29-Pin_3)*%
X362000000Y-210900000D03*
X365200000Y-198000000D03*
%TO.N,GND*%
X362000000Y-219400000D03*
%TO.N,VCC*%
X367900000Y-215900000D03*
%TO.N,Net-(J25-Pin_16)*%
X364579016Y-165179016D03*
%TO.N,GND*%
X365200000Y-205200000D03*
X364700000Y-164000000D03*
X364500000Y-193200000D03*
X364700000Y-182200000D03*
%TO.N,VCC*%
X368800000Y-169100000D03*
%TO.N,GND*%
X364800000Y-169100000D03*
%TO.N,VCC*%
X367900000Y-190700000D03*
X366400000Y-194000000D03*
X369500000Y-176400000D03*
X364700000Y-183300000D03*
D15*
%TO.N,GND*%
X366900000Y-151900000D03*
%TO.N,VCC*%
X365930000Y-154230000D03*
%TO.N,GND*%
X366900000Y-148100000D03*
%TO.N,VCC*%
X365930000Y-150430000D03*
%TO.N,GND*%
X366900000Y-144300000D03*
%TO.N,VCC*%
X365930000Y-146630000D03*
%TO.N,GND*%
X366900000Y-140500000D03*
%TO.N,VCC*%
X365930000Y-142830000D03*
%TO.N,GND*%
X366900000Y-136700000D03*
%TO.N,VCC*%
X365930000Y-139030000D03*
%TO.N,GND*%
X366900000Y-132900000D03*
%TO.N,VCC*%
X365930000Y-135230000D03*
%TO.N,GND*%
X366900000Y-129100000D03*
%TO.N,VCC*%
X365930000Y-131430000D03*
%TO.N,GND*%
X366900000Y-125300000D03*
%TO.N,VCC*%
X365930000Y-127630000D03*
%TO.N,GND*%
X355200000Y-193500000D03*
%TO.N,VCC*%
X351350000Y-193150000D03*
%TO.N,GND*%
X355200000Y-181500000D03*
%TO.N,VCC*%
X351350000Y-181150000D03*
%TO.N,GND*%
X355200000Y-169500000D03*
%TO.N,VCC*%
X351350000Y-169150000D03*
%TO.N,GND*%
X355200000Y-157500000D03*
%TO.N,VCC*%
X351350000Y-157150000D03*
%TO.N,GND*%
X355200000Y-145500000D03*
%TO.N,VCC*%
X351350000Y-145150000D03*
%TO.N,GND*%
X355200000Y-133500000D03*
%TO.N,VCC*%
X351350000Y-133150000D03*
%TO.N,GND*%
X334800000Y-210600000D03*
X334800000Y-197600000D03*
X334800000Y-185600000D03*
X334800000Y-173600000D03*
X334800000Y-161600000D03*
X334800000Y-149600000D03*
X334800000Y-137600000D03*
D14*
%TO.N,Net-(J25-Pin_15)*%
X280600000Y-213900000D03*
%TO.N,Net-(J25-Pin_16)*%
X277100000Y-205600000D03*
%TO.N,Net-(J25-Pin_14)*%
X277000000Y-194600000D03*
%TO.N,Net-(J25-Pin_13)*%
X280600000Y-203000000D03*
%TO.N,Net-(J25-Pin_11)*%
X280600000Y-191900000D03*
%TO.N,Net-(J25-Pin_12)*%
X277100000Y-183700000D03*
%TO.N,Net-(J25-Pin_10)*%
X277100000Y-172600000D03*
%TO.N,Net-(J25-Pin_9)*%
X280600000Y-181000000D03*
%TO.N,Net-(J25-Pin_1)*%
X280500000Y-137000000D03*
%TO.N,Net-(J25-Pin_3)*%
X280600000Y-148000000D03*
%TO.N,Net-(J25-Pin_5)*%
X280600000Y-159000000D03*
%TO.N,Net-(J25-Pin_7)*%
X280600000Y-170000000D03*
%TO.N,Net-(J25-Pin_8)*%
X277000000Y-161500000D03*
%TO.N,Net-(J25-Pin_6)*%
X277000000Y-150600000D03*
%TO.N,Net-(J25-Pin_4)*%
X277000000Y-139500000D03*
%TO.N,Net-(J25-Pin_2)*%
X277000000Y-128500000D03*
%TO.N,Net-(Q1093-D)*%
X305800000Y-206800000D03*
%TO.N,Net-(Q1065-D)*%
X305800000Y-195700000D03*
%TO.N,Net-(Q1038-D)*%
X305800000Y-184800000D03*
%TO.N,Net-(Q1016-D)*%
X305800000Y-173800000D03*
%TO.N,Net-(Q1002-G)*%
X305800000Y-162800000D03*
%TO.N,Net-(Q1159-G)*%
X305800000Y-151800000D03*
%TO.N,Net-(Q1147-G)*%
X305800000Y-140700000D03*
%TO.N,Net-(Q1135-G)*%
X305600000Y-129500000D03*
%TO.N,Net-(J25-Pin_1)*%
X294800000Y-131200000D03*
X287665781Y-131265781D03*
%TO.N,Net-(J25-Pin_3)*%
X294800000Y-142200000D03*
X287665781Y-142265781D03*
%TO.N,Net-(J25-Pin_5)*%
X294800000Y-153200000D03*
X287715781Y-153215781D03*
%TO.N,Net-(J25-Pin_15)*%
X294800000Y-208200000D03*
X287665781Y-208265781D03*
%TO.N,Net-(J25-Pin_13)*%
X294800000Y-197200000D03*
X287665781Y-197265781D03*
%TO.N,Net-(J25-Pin_11)*%
X294800000Y-186200000D03*
X287633123Y-186298438D03*
%TO.N,Net-(J25-Pin_9)*%
X294800000Y-175200000D03*
X287615781Y-175315781D03*
%TO.N,Net-(J25-Pin_7)*%
X294800000Y-164200000D03*
X287615781Y-164315781D03*
%TO.N,/C_in*%
X294800000Y-136400000D03*
%TO.N,Net-(Q914-D)*%
X294800000Y-147400000D03*
%TO.N,Net-(Q941-D)*%
X294800000Y-158400000D03*
%TO.N,Net-(Q966-D)*%
X294800000Y-169400000D03*
%TO.N,Net-(Q1017-G)*%
X294800000Y-180400000D03*
%TO.N,Net-(Q1019-D)*%
X294800000Y-191400000D03*
%TO.N,Net-(Q1041-D)*%
X294800000Y-202400000D03*
%TO.N,Net-(Q1068-D)*%
X294800000Y-213400000D03*
%TO.N,Net-(Q1102-D)*%
X293500000Y-207324000D03*
%TO.N,Net-(Q1078-D)*%
X293500000Y-196324000D03*
%TO.N,Net-(Q1050-D)*%
X293500000Y-185324000D03*
%TO.N,Net-(Q1028-D)*%
X293500000Y-174324000D03*
%TO.N,Net-(Q1000-D)*%
X293500000Y-163324000D03*
%TO.N,Net-(Q1153-G)*%
X293600000Y-152400000D03*
%TO.N,Net-(Q1141-G)*%
X293500000Y-141500000D03*
%TO.N,Net-(Q1129-G)*%
X293700000Y-130600000D03*
%TO.N,Net-(Q913-D)*%
X305400000Y-136500000D03*
%TO.N,Net-(Q940-D)*%
X305400000Y-147500000D03*
%TO.N,Net-(Q965-D)*%
X305400000Y-158500000D03*
%TO.N,Net-(Q989-D)*%
X305400000Y-169600000D03*
%TO.N,Net-(Q1018-D)*%
X305400000Y-180600000D03*
%TO.N,Net-(Q1040-D)*%
X305400000Y-191600000D03*
%TO.N,Net-(Q1067-D)*%
X305400000Y-202600000D03*
%TO.N,Net-(Q1095-D)*%
X305400000Y-213800000D03*
%TO.N,Net-(Q1091-S)*%
X286800000Y-212700000D03*
%TO.N,Net-(Q1063-S)*%
X286800000Y-201700000D03*
%TO.N,Net-(Q1036-S)*%
X286800000Y-190700000D03*
%TO.N,Net-(Q1014-S)*%
X286800000Y-179700000D03*
%TO.N,Net-(Q1169-G)*%
X286800000Y-168700000D03*
%TO.N,Net-(Q1157-G)*%
X286800000Y-157700000D03*
%TO.N,Net-(Q1145-G)*%
X286800000Y-146700000D03*
%TO.N,Net-(Q1133-G)*%
X286800000Y-135700000D03*
%TO.N,Net-(Q1095-D)*%
X298700000Y-212500000D03*
%TO.N,Net-(Q1067-D)*%
X298600000Y-201600000D03*
%TO.N,Net-(Q1040-D)*%
X298700000Y-190500000D03*
%TO.N,Net-(Q1018-D)*%
X298700000Y-179500000D03*
%TO.N,Net-(Q989-D)*%
X298700000Y-168500000D03*
%TO.N,Net-(Q965-D)*%
X298700000Y-157500000D03*
%TO.N,Net-(Q940-D)*%
X298600000Y-146500000D03*
%TO.N,Net-(Q913-D)*%
X298700000Y-135500000D03*
%TO.N,VCC*%
X310100000Y-210200000D03*
X310400000Y-199100000D03*
X310200000Y-188200000D03*
X310200000Y-177100000D03*
X310200000Y-166200000D03*
X310200000Y-155200000D03*
X310200000Y-144200000D03*
X310000000Y-133300000D03*
%TO.N,Net-(Q914-D)*%
X304600000Y-136000000D03*
%TO.N,Net-(Q941-D)*%
X304600000Y-147000000D03*
%TO.N,Net-(Q1096-D)*%
X304600000Y-213000000D03*
%TO.N,Net-(Q1068-D)*%
X304600000Y-202000000D03*
%TO.N,Net-(Q1041-D)*%
X304600000Y-191000000D03*
%TO.N,Net-(Q1019-D)*%
X304500000Y-180000000D03*
%TO.N,Net-(Q1017-G)*%
X304600000Y-169000000D03*
%TO.N,Net-(Q966-D)*%
X304500000Y-157900000D03*
%TO.N,GND*%
X277200000Y-131900000D03*
X277200000Y-142900000D03*
X277200000Y-175900000D03*
X277200000Y-186900000D03*
X277200000Y-208900000D03*
X277200000Y-197900000D03*
X296200000Y-214800000D03*
X285000000Y-209200000D03*
X305300000Y-209600000D03*
X289035765Y-216064235D03*
%TO.N,VCC*%
X300900000Y-212300000D03*
X285000000Y-210400000D03*
X290000000Y-212400000D03*
X293700000Y-212200000D03*
%TO.N,GND*%
X307300000Y-214800000D03*
%TO.N,VCC*%
X305900000Y-212300000D03*
%TO.N,GND*%
X294200000Y-209600000D03*
X296200000Y-203800000D03*
X285000000Y-198200000D03*
X305300000Y-198600000D03*
X289035765Y-205064235D03*
%TO.N,VCC*%
X300900000Y-201300000D03*
X285000000Y-199400000D03*
X290000000Y-201400000D03*
X293700000Y-201200000D03*
%TO.N,GND*%
X307300000Y-203800000D03*
%TO.N,VCC*%
X305900000Y-201300000D03*
%TO.N,GND*%
X294200000Y-198600000D03*
X296200000Y-192800000D03*
X285000000Y-187200000D03*
X305300000Y-187600000D03*
X289035765Y-194064235D03*
%TO.N,VCC*%
X300900000Y-190300000D03*
X285000000Y-188400000D03*
X290000000Y-190400000D03*
X293700000Y-190200000D03*
%TO.N,GND*%
X307300000Y-192800000D03*
%TO.N,VCC*%
X305900000Y-190300000D03*
%TO.N,GND*%
X294200000Y-187600000D03*
X296200000Y-181800000D03*
X285000000Y-176200000D03*
X305300000Y-176600000D03*
X289035765Y-183064235D03*
%TO.N,VCC*%
X300900000Y-179300000D03*
X285000000Y-177400000D03*
X290000000Y-179400000D03*
X293700000Y-179200000D03*
%TO.N,GND*%
X307300000Y-181800000D03*
%TO.N,VCC*%
X305900000Y-179300000D03*
%TO.N,GND*%
X294200000Y-176600000D03*
X296200000Y-170800000D03*
X285000000Y-165200000D03*
X305300000Y-165600000D03*
X289035765Y-172064235D03*
%TO.N,VCC*%
X300900000Y-168300000D03*
X285000000Y-166400000D03*
X290000000Y-168400000D03*
X293700000Y-168200000D03*
%TO.N,GND*%
X307300000Y-170800000D03*
%TO.N,VCC*%
X305900000Y-168300000D03*
%TO.N,GND*%
X294200000Y-165600000D03*
X296200000Y-159800000D03*
X285000000Y-154200000D03*
X305300000Y-154600000D03*
X289035765Y-161064235D03*
%TO.N,VCC*%
X300900000Y-157300000D03*
X285000000Y-155400000D03*
X290000000Y-157400000D03*
X293700000Y-157200000D03*
%TO.N,GND*%
X307300000Y-159800000D03*
%TO.N,VCC*%
X305900000Y-157300000D03*
%TO.N,GND*%
X294200000Y-154600000D03*
X296200000Y-148800000D03*
X285000000Y-143200000D03*
X305300000Y-143600000D03*
X289035765Y-150064235D03*
%TO.N,VCC*%
X300900000Y-146300000D03*
X285000000Y-144400000D03*
X290000000Y-146400000D03*
X293700000Y-146200000D03*
%TO.N,GND*%
X307300000Y-148800000D03*
%TO.N,VCC*%
X305900000Y-146300000D03*
%TO.N,GND*%
X294200000Y-143600000D03*
%TO.N,VCC*%
X300900000Y-135300000D03*
%TO.N,GND*%
X296200000Y-137800000D03*
X289035765Y-139064235D03*
X285000000Y-132200000D03*
X305300000Y-132600000D03*
%TO.N,VCC*%
X293700000Y-135200000D03*
%TO.N,GND*%
X307300000Y-137800000D03*
%TO.N,VCC*%
X305900000Y-135300000D03*
%TO.N,GND*%
X294200000Y-132600000D03*
%TO.N,VCC*%
X285000000Y-133400000D03*
X290000000Y-135400000D03*
X278860000Y-206660000D03*
%TO.N,GND*%
X278793750Y-211893750D03*
%TO.N,VCC*%
X278860000Y-195660000D03*
%TO.N,GND*%
X278793750Y-200893750D03*
%TO.N,VCC*%
X278860000Y-184660000D03*
%TO.N,GND*%
X278793750Y-189893750D03*
%TO.N,VCC*%
X278860000Y-173660000D03*
%TO.N,GND*%
X278793750Y-178893750D03*
%TO.N,VCC*%
X278860000Y-162660000D03*
%TO.N,GND*%
X278793750Y-167893750D03*
%TO.N,VCC*%
X278860000Y-151660000D03*
%TO.N,GND*%
X278793750Y-156893750D03*
%TO.N,VCC*%
X278860000Y-140660000D03*
%TO.N,GND*%
X278793750Y-145893750D03*
X278793750Y-134893750D03*
%TO.N,VCC*%
X278860000Y-129660000D03*
%TO.N,!JMP*%
X40400000Y-141900000D03*
X64800000Y-175200000D03*
X127300000Y-104600000D03*
%TO.N,!BOP*%
X74700000Y-174500000D03*
X115700000Y-119100000D03*
X46200000Y-138300000D03*
%TO.N,!BON*%
X126400000Y-119200000D03*
X50100000Y-138400000D03*
X79600000Y-174500000D03*
%TO.N,!BOZ*%
X140200000Y-119600000D03*
X84700000Y-174400000D03*
X54100000Y-138300000D03*
%TO.N,!BNZ*%
X58100000Y-138400000D03*
X89500000Y-174400000D03*
X153600000Y-121200000D03*
X140200000Y-121100000D03*
X154400000Y-119801000D03*
%TO.N,!BOO*%
X94300000Y-174300000D03*
X62000000Y-138300000D03*
X142500000Y-122700000D03*
%TO.N,!BNO*%
X66000000Y-138400000D03*
X184300000Y-109300000D03*
X99700000Y-174400000D03*
%TO.N,!BOU*%
X104700000Y-174600000D03*
X173900000Y-104200000D03*
X70100000Y-138300000D03*
%TO.N,!BNU*%
X74100000Y-138500000D03*
X109800000Y-174500000D03*
X160500000Y-104100000D03*
%TO.N,!BOC*%
X114800000Y-174300000D03*
X153300000Y-109100000D03*
X78100000Y-138200000D03*
%TO.N,!BNC*%
X137300000Y-103800000D03*
X119900000Y-174500000D03*
X83400000Y-142600000D03*
%TO.N,!Clear*%
X199300000Y-128300000D03*
X123500000Y-175000000D03*
X126100000Y-142300000D03*
%TO.N,!Load*%
X39400000Y-147400000D03*
X57500000Y-168400000D03*
X41000000Y-167300000D03*
X57100000Y-154700000D03*
X124031786Y-168400000D03*
X128500000Y-175100000D03*
X128200000Y-142800000D03*
%TO.N,!Store*%
X133500000Y-175000000D03*
X121200000Y-149500000D03*
X126100000Y-147600000D03*
X191100000Y-132800000D03*
%TO.N,!INC*%
X125150000Y-157000000D03*
X206800000Y-136000000D03*
X138500000Y-174800000D03*
X204248942Y-117799000D03*
%TO.N,!DEC*%
X143500000Y-175100000D03*
X129150000Y-156900000D03*
%TO.N,!RS*%
X148500000Y-175100000D03*
X133150000Y-156900000D03*
%TO.N,!NOT*%
X136299000Y-156900000D03*
X153500000Y-174800000D03*
%TO.N,!AND*%
X186100000Y-129800000D03*
X139599000Y-157500000D03*
X194700000Y-129400000D03*
X158500000Y-175000000D03*
%TO.N,!OR*%
X197700000Y-132200000D03*
X186000000Y-132200000D03*
X163500000Y-175000000D03*
X143599000Y-157611500D03*
%TO.N,!XOR*%
X168500000Y-175000000D03*
X181200000Y-133700000D03*
X194800000Y-125400000D03*
X147599000Y-157500000D03*
%TO.N,!ADD*%
X173500000Y-175000000D03*
X197700000Y-118400000D03*
X179300000Y-134700000D03*
X151599000Y-157500000D03*
%TO.N,!ADC*%
X204400000Y-118800000D03*
X178500000Y-175000000D03*
X191500000Y-136300000D03*
X185000000Y-137300000D03*
X157745984Y-152045984D03*
%TO.N,!MOV*%
X161300000Y-152500000D03*
X192200000Y-133100000D03*
X183500000Y-175000000D03*
X166600000Y-146700000D03*
X187300000Y-136000000D03*
%TO.N,Net-(Q17-G)*%
X198000000Y-168700000D03*
X212000000Y-199500000D03*
X110900000Y-218200000D03*
X212000000Y-178500000D03*
X100900000Y-176300000D03*
X110900000Y-176300000D03*
X197600000Y-199500000D03*
X80900000Y-218200000D03*
X71000000Y-176300000D03*
X90800000Y-176300000D03*
X212000000Y-189200000D03*
X100900000Y-218200000D03*
X196700000Y-189200000D03*
X58200000Y-218200000D03*
X90800000Y-218200000D03*
X55100000Y-211100000D03*
X212000000Y-168700000D03*
X80900000Y-176200000D03*
X71000000Y-218200000D03*
X197900000Y-178500000D03*
%TO.N,Net-(Q15-G)*%
X211400000Y-194200000D03*
X211400000Y-172999000D03*
X106000000Y-180300000D03*
X85800000Y-180300000D03*
X105900000Y-217500000D03*
X62600000Y-184100000D03*
X200600000Y-194200000D03*
X55100000Y-206700000D03*
X200700000Y-173100000D03*
X58700000Y-217500000D03*
X62600000Y-217500000D03*
X85800000Y-217500000D03*
%TO.N,Net-(Q21-G)*%
X197800000Y-157400000D03*
X76000000Y-216800000D03*
X55000000Y-202300000D03*
X145800000Y-216800000D03*
X145800000Y-184300000D03*
X210800000Y-157400000D03*
X135800000Y-184300000D03*
X76000000Y-184300000D03*
X59200000Y-216800000D03*
X126100000Y-216800000D03*
X115700000Y-216800000D03*
X115800000Y-184400000D03*
X135700000Y-216800000D03*
X126100000Y-184300000D03*
%TO.N,Net-(Q25-G)*%
X150900000Y-188200000D03*
X55100000Y-198000000D03*
X95800000Y-188300000D03*
X95800000Y-216100000D03*
X150900000Y-216100000D03*
X130700000Y-188300000D03*
X59700000Y-216100000D03*
X130700000Y-216100000D03*
%TO.N,Net-(Q40-G)*%
X120900000Y-215400000D03*
X120900000Y-192200000D03*
X60200000Y-215400000D03*
X155800000Y-215400000D03*
X175800000Y-192200000D03*
X166000000Y-215400000D03*
X175800000Y-215400000D03*
X166000000Y-192300000D03*
X55100000Y-193500000D03*
X155800000Y-192300000D03*
%TO.N,Net-(Q53-G)*%
X55200000Y-189200000D03*
X170900000Y-196300000D03*
X140800000Y-214700000D03*
X140800000Y-196300000D03*
X170900000Y-214700000D03*
X60700000Y-214700000D03*
%TO.N,Net-(Q57-G)*%
X61200000Y-214000000D03*
X160700000Y-214000000D03*
X160800000Y-200300000D03*
X55100000Y-184800000D03*
%TO.N,Net-(Q603-D)*%
X180900000Y-204300000D03*
X55200000Y-180500000D03*
X61700000Y-213300000D03*
X181500000Y-213300000D03*
%TO.N,Net-(Q10-G)*%
X65706250Y-200806250D03*
X179800000Y-201900000D03*
X179800000Y-207600000D03*
X65700000Y-207600000D03*
%TO.N,Net-(Q11-G)*%
X160200000Y-208300000D03*
X179200000Y-198400000D03*
X160200000Y-197600000D03*
X179200000Y-208300000D03*
X65099000Y-197701000D03*
X65100000Y-208300000D03*
%TO.N,Net-(Q12-G)*%
X64500000Y-209000000D03*
X170300000Y-209000000D03*
X140200000Y-209000000D03*
X64500000Y-194400000D03*
X178600000Y-209000000D03*
X140200000Y-193400000D03*
X178600000Y-195000000D03*
X159600000Y-194200000D03*
X159600000Y-209000000D03*
X170300000Y-193500000D03*
%TO.N,Net-(Q13-G)*%
X120300000Y-189300000D03*
X63900000Y-190900000D03*
X120300000Y-209700000D03*
X63900000Y-209700000D03*
X139600000Y-209700000D03*
X139600000Y-189900000D03*
%TO.N,Net-(Q14-G)*%
X208400000Y-163400000D03*
X150300000Y-210400000D03*
X139000000Y-210400000D03*
X63300000Y-210400000D03*
X139000000Y-186600000D03*
X208400000Y-153100000D03*
X95200000Y-185400000D03*
X130100000Y-210400000D03*
X198300000Y-153100000D03*
X119700000Y-185900000D03*
X150300000Y-185300000D03*
X119700000Y-210400000D03*
X130100000Y-185600000D03*
X63300000Y-187500000D03*
X198200000Y-163400000D03*
X95200000Y-210400000D03*
%TO.N,Net-(Q18-G)*%
X75400000Y-211100000D03*
X75400000Y-181200000D03*
X199800000Y-211100000D03*
X201200000Y-183400000D03*
X94600000Y-182000000D03*
X94600000Y-211100000D03*
X209000000Y-184600000D03*
X115200000Y-181500000D03*
X199800000Y-204700000D03*
X115200000Y-211100000D03*
%TO.N,Net-(Q1-D)*%
X209600000Y-173700000D03*
X197850000Y-194750000D03*
X74800000Y-211800000D03*
X85200000Y-177500000D03*
X105400000Y-177200000D03*
X209600000Y-194800000D03*
X62000000Y-180800000D03*
X114600000Y-211800000D03*
X209600000Y-185200000D03*
X195800000Y-211800000D03*
X85200000Y-211800000D03*
X94000000Y-211800000D03*
X105400000Y-211800000D03*
X62000000Y-211800000D03*
X198000000Y-184000000D03*
X94000000Y-178600000D03*
X74800000Y-177800000D03*
X114600000Y-178000000D03*
X195800000Y-204700000D03*
X198100000Y-173700000D03*
D15*
%TO.N,Faling Edge*%
X41900000Y-66000000D03*
D14*
X36200000Y-108100000D03*
X39700000Y-108100000D03*
%TO.N,Read New Instruction*%
X43500000Y-166700000D03*
X40100000Y-170000000D03*
%TO.N,Buss3*%
X76400000Y-23800000D03*
X215795552Y-26303218D03*
X154200000Y-23800000D03*
X217950000Y-49962500D03*
D15*
%TO.N,GND*%
X120100000Y-87700000D03*
D14*
X42000000Y-122700000D03*
D15*
X51200000Y-183300000D03*
X73162500Y-146975000D03*
X174100000Y-152800000D03*
X193976000Y-43011500D03*
X43738500Y-60900000D03*
X180349000Y-83100000D03*
X191600000Y-188300000D03*
X191600000Y-151300000D03*
X116349000Y-83100000D03*
X152100000Y-87700000D03*
X156349000Y-83100000D03*
X174000000Y-147800000D03*
X116138500Y-42961500D03*
D14*
X68162500Y-143975000D03*
D15*
X213400000Y-48700000D03*
X92349000Y-83100000D03*
X68349000Y-83100000D03*
X51200000Y-196500000D03*
X168100000Y-87700000D03*
X132349000Y-83100000D03*
D14*
X44000000Y-55800000D03*
D15*
X79762500Y-159075000D03*
X191450000Y-108000000D03*
X84349000Y-83100000D03*
X191600000Y-203300000D03*
X213400000Y-39700000D03*
X226850000Y-62562500D03*
D14*
X42100000Y-127000000D03*
D15*
X137100000Y-154100000D03*
X43162500Y-147075000D03*
X144476000Y-43011500D03*
D14*
X144637500Y-116600000D03*
X42400000Y-118000000D03*
X137375000Y-106750000D03*
X88000000Y-95200000D03*
D15*
X191600000Y-146300000D03*
X41700000Y-178900000D03*
X41700000Y-183300000D03*
X49162500Y-157675000D03*
D14*
X96000000Y-95200000D03*
D15*
X174100000Y-157700000D03*
D14*
X173137500Y-116600000D03*
D15*
X180650000Y-205850000D03*
X213400000Y-57700000D03*
D14*
X169275000Y-106750000D03*
D15*
X66638500Y-42961500D03*
D14*
X135137500Y-116600000D03*
D15*
X41700000Y-205300000D03*
X148349000Y-83100000D03*
D14*
X152000000Y-95200000D03*
X175937500Y-95237500D03*
D15*
X41700000Y-192100000D03*
D14*
X70423718Y-134101000D03*
X56200000Y-151900000D03*
D15*
X102538500Y-42961500D03*
X164349000Y-83100000D03*
X213400000Y-66700000D03*
X66162500Y-157775000D03*
X84638500Y-42961500D03*
D14*
X160000000Y-95200000D03*
D15*
X191600000Y-167300000D03*
D14*
X72000000Y-95200000D03*
X104000000Y-95200000D03*
D15*
X41700000Y-187700000D03*
X52500000Y-95900000D03*
X167200000Y-133000000D03*
X191600000Y-193300000D03*
X191600000Y-198300000D03*
D14*
X70423718Y-129159032D03*
X121600000Y-49800000D03*
D15*
X213400000Y-44200000D03*
D14*
X168000000Y-95200000D03*
X61662500Y-157675000D03*
D15*
X172349000Y-83100000D03*
X176100000Y-87700000D03*
X48100000Y-83300000D03*
X160100000Y-87700000D03*
X128100000Y-87700000D03*
X100349000Y-83100000D03*
X96100000Y-87700000D03*
X51200000Y-178900000D03*
X162476000Y-43011500D03*
D14*
X120137500Y-116600000D03*
D15*
X191600000Y-182300000D03*
X51200000Y-192100000D03*
X226450000Y-57562500D03*
D14*
X144000000Y-95200000D03*
X42600000Y-131400000D03*
D15*
X187700000Y-120100000D03*
X124349000Y-83100000D03*
D14*
X180800000Y-107700000D03*
D15*
X108349000Y-83100000D03*
X130376000Y-43011500D03*
X51200000Y-205300000D03*
D14*
X191937500Y-95237500D03*
D15*
X41700000Y-209700000D03*
X191600000Y-177300000D03*
X41700000Y-200900000D03*
D14*
X183937500Y-95237500D03*
D15*
X72100000Y-87700000D03*
X213400000Y-53200000D03*
D14*
X150775000Y-106750000D03*
X70423718Y-124159032D03*
D15*
X136100000Y-87700000D03*
D14*
X64662500Y-147175000D03*
D15*
X184100000Y-87700000D03*
D14*
X128000000Y-95200000D03*
D15*
X174100000Y-162700000D03*
D14*
X158637500Y-116600000D03*
D15*
X191600000Y-131400000D03*
X201100000Y-54800000D03*
X112100000Y-87700000D03*
X226650000Y-34962500D03*
X50900000Y-96000000D03*
X144100000Y-87700000D03*
X104100000Y-87700000D03*
X76349000Y-83100000D03*
X191600000Y-172300000D03*
X52538500Y-42961500D03*
D14*
X66500000Y-206100000D03*
D15*
X51200000Y-200900000D03*
X213400000Y-62200000D03*
X180376000Y-43011500D03*
X51200000Y-187700000D03*
X196100000Y-140051000D03*
D14*
X57200000Y-113462500D03*
D15*
X59662500Y-166475000D03*
X88100000Y-87700000D03*
X123375000Y-108050000D03*
D14*
X39962500Y-139075000D03*
X80000000Y-95200000D03*
D15*
X192100000Y-87700000D03*
X201100000Y-45700000D03*
X96800000Y-158100000D03*
D14*
X136000000Y-95200000D03*
D15*
X41700000Y-196500000D03*
X140349000Y-83100000D03*
X191600000Y-156300000D03*
D14*
X57012500Y-158125000D03*
D15*
X188349000Y-83100000D03*
X51200000Y-209700000D03*
D14*
X120000000Y-95200000D03*
D15*
X206800000Y-181800000D03*
D14*
X160175000Y-106750000D03*
D15*
X213400000Y-35200000D03*
X122000000Y-147300000D03*
X206800000Y-160800000D03*
X80100000Y-87700000D03*
X38700000Y-71900000D03*
X49850000Y-86500000D03*
D14*
X70562500Y-157675000D03*
D15*
X40354112Y-161975000D03*
X206800000Y-202800000D03*
D14*
X112000000Y-95200000D03*
X72700000Y-116700000D03*
D15*
X191600000Y-161300000D03*
D14*
%TO.N,R{slash}W out*%
X59737500Y-163437500D03*
%TO.N,Buss2*%
X218350000Y-45362500D03*
X73800000Y-23200000D03*
X151700000Y-23200000D03*
X216254702Y-25645298D03*
%TO.N,rst*%
X61200000Y-68300000D03*
X133900000Y-27400000D03*
X35724265Y-51224265D03*
D15*
X225800000Y-72500000D03*
D14*
X22600000Y-78300000D03*
X25600000Y-104200000D03*
%TO.N,Buss0*%
X146600000Y-22000000D03*
X68700000Y-22000000D03*
X217000000Y-24200000D03*
X221050000Y-36262500D03*
%TO.N,Buss6*%
X217950000Y-63462500D03*
X161900000Y-25600000D03*
X214400000Y-28500000D03*
X84000000Y-25600000D03*
%TO.N,Buss7*%
X218250000Y-67962500D03*
X164500000Y-26200000D03*
X214100000Y-29300000D03*
X86500000Y-26200000D03*
%TO.N,Buss4*%
X78900000Y-24400000D03*
X156700000Y-24400000D03*
X215300000Y-27000000D03*
X218050000Y-54462500D03*
%TO.N,VCC*%
X65012718Y-121100000D03*
X82462500Y-151275000D03*
D15*
X41700000Y-186000000D03*
X193076000Y-65711500D03*
X198900000Y-58500000D03*
X93800000Y-93600000D03*
D14*
X65012718Y-125300000D03*
D15*
X121524207Y-170124207D03*
X186500000Y-199500000D03*
X128000000Y-98100000D03*
X186500000Y-157389000D03*
X65600000Y-66000000D03*
X144000000Y-98100000D03*
X141800000Y-93600000D03*
D14*
X40523718Y-123300000D03*
D15*
X168000000Y-98100000D03*
X41700000Y-203600000D03*
X228000000Y-40200000D03*
X129976000Y-65711500D03*
X122500000Y-54600000D03*
X96215686Y-170115686D03*
X45200000Y-55500000D03*
D14*
X75834718Y-131200000D03*
D15*
X109800000Y-93600000D03*
X189800000Y-93600000D03*
X83700000Y-66000000D03*
X112000000Y-98100000D03*
X63262500Y-153575000D03*
X176000000Y-98100000D03*
X133800000Y-93600000D03*
X50100000Y-81400000D03*
X101800000Y-93600000D03*
X41700000Y-212400000D03*
X41700000Y-199200000D03*
X117800000Y-93600000D03*
X52176000Y-66000000D03*
D14*
X134537500Y-115500000D03*
D15*
X186500000Y-168489000D03*
X96800000Y-160600000D03*
X41700000Y-181600000D03*
X104000000Y-98100000D03*
X161576000Y-65711500D03*
X41700000Y-194800000D03*
X167300000Y-135400000D03*
X51200000Y-203600000D03*
X166000000Y-170100000D03*
X81100000Y-170100000D03*
X186600000Y-189500000D03*
X193700000Y-128200000D03*
X96000000Y-98100000D03*
X51200000Y-181600000D03*
X204400000Y-131700000D03*
D14*
X173337500Y-113600000D03*
D15*
X149800000Y-93600000D03*
D14*
X65012718Y-131500000D03*
D15*
X192000000Y-98100000D03*
X228000000Y-49400000D03*
D14*
X64062500Y-150900000D03*
D15*
X116000000Y-170100000D03*
X80000000Y-98100000D03*
X88000000Y-98100000D03*
X173800000Y-93600000D03*
X228000000Y-58600000D03*
D14*
X40523718Y-127500000D03*
D15*
X79362500Y-146275000D03*
D14*
X75834718Y-121300000D03*
D15*
X47462500Y-157675000D03*
X101776000Y-66000000D03*
X51200000Y-186000000D03*
D14*
X75834718Y-126500000D03*
D15*
X51200000Y-199200000D03*
X51200000Y-212400000D03*
X127400000Y-106500000D03*
X85800000Y-93600000D03*
X120000000Y-98100000D03*
X51200000Y-208000000D03*
X198900000Y-40200000D03*
X36400000Y-72000000D03*
X143476000Y-65711500D03*
X136200000Y-170100000D03*
X125800000Y-93600000D03*
X152000000Y-98100000D03*
X70600000Y-170100000D03*
X81562500Y-159275000D03*
X41700000Y-208000000D03*
X157800000Y-93600000D03*
X205800000Y-122200000D03*
X51200000Y-194800000D03*
D14*
X40523718Y-132300000D03*
D15*
X165800000Y-93600000D03*
D14*
X113437500Y-114700000D03*
D15*
X181800000Y-93600000D03*
D14*
X56862500Y-159675000D03*
D15*
X146000000Y-170100000D03*
X63662500Y-159375000D03*
X77800000Y-93600000D03*
D14*
X149137500Y-113600000D03*
D15*
X105700000Y-170100000D03*
X191550000Y-110200000D03*
X80062500Y-153575000D03*
D14*
X168875000Y-109750000D03*
D15*
X115276000Y-65711500D03*
X198900000Y-49400000D03*
X160000000Y-98100000D03*
X186500000Y-146789000D03*
X186500000Y-178389000D03*
X51200000Y-190400000D03*
D14*
X63962500Y-161875000D03*
X146175000Y-109750000D03*
D15*
X184000000Y-98100000D03*
X179576000Y-65711500D03*
X72000000Y-98100000D03*
X41700000Y-190400000D03*
X155900000Y-170100000D03*
X69800000Y-93600000D03*
X44062500Y-150775000D03*
D14*
X40523718Y-118600000D03*
D15*
X136000000Y-98100000D03*
X170900000Y-170100000D03*
%TO.N,CLOCK*%
X42481500Y-75369000D03*
D14*
%TO.N,Buss5*%
X81400000Y-25000000D03*
X218150000Y-59062500D03*
X159300000Y-25000000D03*
X214800000Y-27700000D03*
%TO.N,Buss1*%
X218850000Y-40862500D03*
X216504807Y-24885396D03*
X71300000Y-22600000D03*
X149200000Y-22600000D03*
%TO.N,ADR 13*%
X109976000Y-61100000D03*
%TO.N,ADR 10*%
X96352000Y-61100000D03*
%TO.N,ADR 6*%
X76700000Y-59500000D03*
%TO.N,ADR 15*%
X118976000Y-61100000D03*
%TO.N,ADR 7*%
X81200000Y-59400000D03*
%TO.N,ADR 0*%
X49700000Y-59600000D03*
%TO.N,ADR 2*%
X58800000Y-59600000D03*
%TO.N,ADR 5*%
X72200000Y-59600000D03*
%TO.N,ADR 9*%
X91700000Y-61100000D03*
%TO.N,ADR 3*%
X63200000Y-59600000D03*
%TO.N,ADR 4*%
X67700000Y-59500000D03*
%TO.N,ADR 1*%
X54300000Y-59600000D03*
%TO.N,ADR 8*%
X87352000Y-61000000D03*
%TO.N,ADR 14*%
X114476000Y-61100000D03*
%TO.N,ADR 11*%
X100852000Y-61100000D03*
%TO.N,ADR 12*%
X105476000Y-61200000D03*
%TO.N,Main bus 0*%
X223950000Y-37162500D03*
%TO.N,Main bus 4*%
X223950000Y-54162500D03*
%TO.N,Main bus 1*%
X223950000Y-40362500D03*
%TO.N,Main bus 6*%
X223950000Y-63562500D03*
%TO.N,Main bus 3*%
X223950000Y-49862500D03*
%TO.N,Main bus 2*%
X223950000Y-45562500D03*
%TO.N,Main bus 5*%
X223950000Y-58962500D03*
%TO.N,Main bus 7*%
X223850000Y-68462500D03*
%TO.N,XOR*%
X199000000Y-124000000D03*
%TO.N,OR*%
X205900000Y-133000000D03*
X202700000Y-132000000D03*
%TO.N,ALU FLAG O*%
X55700000Y-128900000D03*
%TO.N,ALU FLAG N*%
X55800000Y-115100000D03*
%TO.N,ALU FLAG U*%
X55600000Y-124100000D03*
%TO.N,ALU FLAG C*%
X55600000Y-134700000D03*
%TO.N,ALU FLAG Z*%
X55700000Y-119500000D03*
%TO.N,RS*%
X192200000Y-128100000D03*
%TO.N,A ->ALU B*%
X194300000Y-161500000D03*
%TO.N,ALU B = FF*%
X192800000Y-123400000D03*
%TO.N,READ A*%
X194200000Y-203400000D03*
%TO.N,C ->ALU A*%
X194500000Y-172500000D03*
%TO.N,D ->ALU A*%
X194100000Y-167500000D03*
%TO.N,B ->ALU B*%
X194200000Y-156600000D03*
%TO.N,B ->ALU A*%
X194300000Y-177500000D03*
%TO.N,A ->ALU A*%
X194300000Y-182600000D03*
%TO.N,READ D*%
X194100000Y-188300000D03*
%TO.N,READ C*%
X194200000Y-193400000D03*
%TO.N,C ->ALU B*%
X194400000Y-151500000D03*
%TO.N,READ B*%
X194200000Y-198500000D03*
%TO.N,D ->ALU B*%
X194300000Y-146300000D03*
%TO.N,REG Read*%
X203000000Y-204300000D03*
X170200000Y-146037500D03*
%TO.N,REG -> ALU B*%
X203200000Y-162500000D03*
X168900000Y-156037500D03*
%TO.N,REG -> ALU A*%
X203200000Y-183600000D03*
X169000000Y-151037500D03*
%TO.N,READ FALG*%
X87200000Y-110200000D03*
X51223718Y-119124000D03*
X51223718Y-128124000D03*
X56200000Y-113424000D03*
X51223718Y-123624000D03*
X51223718Y-115000000D03*
X160300000Y-160100000D03*
X51223718Y-132477000D03*
%TO.N,Store Address ++*%
X138301000Y-47511500D03*
X183324000Y-47511500D03*
X40500000Y-45800000D03*
X133824000Y-47511500D03*
X187824000Y-47511500D03*
X39900000Y-48111500D03*
X147324000Y-47511500D03*
X151824000Y-47511500D03*
X178801000Y-47511500D03*
X47500000Y-165800000D03*
X142801000Y-47511500D03*
X192301000Y-47511500D03*
X174301000Y-47511500D03*
X165324000Y-47511500D03*
X160801000Y-47511500D03*
X169824000Y-47511500D03*
D15*
X125876000Y-47511500D03*
D14*
X196801000Y-47511500D03*
X156301000Y-47511500D03*
X129324000Y-47511500D03*
%TO.N,ADR++ 0*%
X75500000Y-92000000D03*
X129100000Y-51600000D03*
%TO.N,ADR++ 1*%
X133500000Y-51600000D03*
X83600000Y-92100000D03*
%TO.N,ADR++ 2*%
X138163235Y-51563235D03*
X91600000Y-92100000D03*
%TO.N,ADR++ 3*%
X142700000Y-51500000D03*
X99600000Y-92100000D03*
%TO.N,ADR++ 4*%
X147200000Y-51500000D03*
X107649000Y-92200000D03*
%TO.N,ADR++ 5*%
X151500000Y-51500000D03*
X115600000Y-92000000D03*
%TO.N,ADR++ 6*%
X123649000Y-92000000D03*
X156100000Y-51500000D03*
%TO.N,ADR++ 7*%
X131600000Y-92000000D03*
X160500000Y-51500000D03*
%TO.N,ADR++ 8*%
X139600000Y-91900000D03*
X164800000Y-51600000D03*
%TO.N,ADR++ 9*%
X169700000Y-51400000D03*
X147500000Y-92000000D03*
%TO.N,ADR++ 10*%
X174100000Y-51500000D03*
X155500000Y-92000000D03*
%TO.N,ADR++ 11*%
X163500000Y-92100000D03*
X178500000Y-51600000D03*
%TO.N,ADR++ 12*%
X171500000Y-92100000D03*
X183100000Y-51500000D03*
%TO.N,ADR++ 13*%
X179600000Y-92000000D03*
X187700000Y-51400000D03*
%TO.N,ADR++ 14*%
X186981250Y-92418750D03*
X192000000Y-51600000D03*
%TO.N,ADR++ 15*%
X196400000Y-51600000D03*
X195500000Y-92100000D03*
%TO.N,TEMP ADR 0*%
X129276000Y-57700000D03*
X51200000Y-60000000D03*
%TO.N,Net-(Q170-G)*%
X147276000Y-55811500D03*
X133776000Y-55811500D03*
X183276000Y-55811500D03*
X142776000Y-55811500D03*
X169776000Y-55811500D03*
X138276000Y-55811500D03*
D15*
X124876000Y-55811500D03*
D14*
X156276000Y-55811500D03*
X129276000Y-55811500D03*
X174276000Y-55811500D03*
X192276000Y-55811500D03*
X178776000Y-55811500D03*
X160776000Y-55811500D03*
X196801000Y-55811500D03*
X151776000Y-55811500D03*
X165276000Y-55811500D03*
X187776000Y-55811500D03*
%TO.N,TEMP ADR 1*%
X133776000Y-57700000D03*
X55700000Y-59900000D03*
%TO.N,STORED ADR 15*%
X118700000Y-51600000D03*
%TO.N,STORED ADR 14*%
X114100000Y-51600000D03*
%TO.N,STORED ADR 13*%
X109700000Y-51500000D03*
%TO.N,STORED ADR 12*%
X105200000Y-51500000D03*
%TO.N,STORED ADR 11*%
X100600000Y-51600000D03*
%TO.N,STORED ADR 10*%
X96100000Y-51600000D03*
%TO.N,STORED ADR 9*%
X91800000Y-51600000D03*
%TO.N,STORED ADR 8*%
X87000000Y-51600000D03*
%TO.N,STORED ADR 7*%
X82600000Y-51700000D03*
%TO.N,STORED ADR 6*%
X78000000Y-51600000D03*
%TO.N,STORED ADR 5*%
X73600000Y-51600000D03*
%TO.N,STORED ADR 4*%
X69100000Y-51600000D03*
%TO.N,STORED ADR 3*%
X64600000Y-51600000D03*
%TO.N,STORED ADR 2*%
X60100000Y-51600000D03*
%TO.N,STORED ADR 1*%
X55600000Y-51600000D03*
%TO.N,STORED ADR 0*%
X50900000Y-51600000D03*
%TO.N,Net-(Q204-G)*%
X191200000Y-86700000D03*
X185993750Y-94606250D03*
%TO.N,Net-(Q205-G)*%
X183200000Y-86700000D03*
X177993750Y-94606250D03*
%TO.N,Net-(Q206-G)*%
X175200000Y-86800000D03*
X169993750Y-94606250D03*
%TO.N,Net-(Q207-G)*%
X167200000Y-86700000D03*
X161993750Y-94606250D03*
%TO.N,Net-(Q208-G)*%
X159100000Y-86900000D03*
X153993750Y-94606250D03*
%TO.N,Net-(Q209-G)*%
X145993750Y-94606250D03*
X151100000Y-86600000D03*
%TO.N,Net-(Q210-G)*%
X137993750Y-94606250D03*
X143000000Y-86700000D03*
%TO.N,Net-(Q211-G)*%
X135100000Y-86600000D03*
X129993750Y-94606250D03*
%TO.N,Net-(Q212-G)*%
X126000000Y-84000000D03*
X122043750Y-94656250D03*
%TO.N,Net-(Q213-G)*%
X118000000Y-84000000D03*
X114000000Y-94700000D03*
%TO.N,Net-(Q214-G)*%
X105993750Y-94606250D03*
X111529016Y-83529016D03*
%TO.N,Net-(Q215-G)*%
X97993750Y-94606250D03*
X103329016Y-83729016D03*
%TO.N,Net-(Q216-G)*%
X89993750Y-94606250D03*
X95579016Y-83479016D03*
%TO.N,Net-(Q217-G)*%
X87906250Y-84106250D03*
X82100000Y-94700000D03*
%TO.N,Net-(Q218-G)*%
X79200000Y-86900000D03*
X74043750Y-94656250D03*
%TO.N,Read From stored Address*%
X109999000Y-47511500D03*
X64852000Y-47511500D03*
X72500000Y-167000000D03*
X73999000Y-47511500D03*
X60352000Y-47511500D03*
X87352000Y-47511500D03*
X118852000Y-47511500D03*
X71745984Y-83245984D03*
D15*
X48076000Y-47511500D03*
D14*
X114352000Y-47511500D03*
X78352000Y-47511500D03*
X69352000Y-47511500D03*
X100852000Y-47511500D03*
X82852000Y-47511500D03*
X55852000Y-47511500D03*
X96352000Y-47511500D03*
X91852000Y-47511500D03*
X105499000Y-47511500D03*
%TO.N,TEMP ADR 2*%
X60200000Y-60000000D03*
X138276000Y-57700000D03*
%TO.N,TEMP ADR 3*%
X142776000Y-57700000D03*
X64600000Y-60000000D03*
%TO.N,TEMP ADR 4*%
X147276000Y-57700000D03*
X69200000Y-60100000D03*
%TO.N,TEMP ADR 5*%
X151776000Y-57700000D03*
X73700000Y-60000000D03*
%TO.N,TEMP ADR 6*%
X156276000Y-57700000D03*
X78300000Y-60100000D03*
%TO.N,TEMP ADR 7*%
X82800000Y-60100000D03*
X160776000Y-57700000D03*
%TO.N,TEMP ADR 8*%
X165276000Y-57700000D03*
X87352000Y-60100000D03*
%TO.N,TEMP ADR 9*%
X91800000Y-60100000D03*
X169776000Y-57700000D03*
%TO.N,TEMP ADR 10*%
X96352000Y-60100000D03*
X174276000Y-57700000D03*
%TO.N,TEMP ADR 11*%
X178776000Y-57700000D03*
X100852000Y-60000000D03*
%TO.N,TEMP ADR 12*%
X183276000Y-57700000D03*
X105476000Y-60200000D03*
%TO.N,TEMP ADR 13*%
X109976000Y-60100000D03*
X187776000Y-57700000D03*
%TO.N,TEMP ADR 14*%
X114400000Y-60200000D03*
X192276000Y-57700000D03*
%TO.N,TEMP ADR 15*%
X193987028Y-56511500D03*
X118976000Y-60000000D03*
%TO.N,NEXT ADR 0*%
X129100000Y-60200000D03*
%TO.N,NEXT ADR 1*%
X133500000Y-60100000D03*
%TO.N,NEXT ADR 2*%
X138000000Y-60300000D03*
%TO.N,NEXT ADR 3*%
X142776000Y-60500000D03*
%TO.N,NEXT ADR 4*%
X147200000Y-60600000D03*
%TO.N,NEXT ADR 5*%
X151700000Y-60600000D03*
%TO.N,NEXT ADR 6*%
X156200000Y-60500000D03*
%TO.N,NEXT ADR 7*%
X160600000Y-60400000D03*
%TO.N,NEXT ADR 8*%
X165700000Y-64700000D03*
%TO.N,NEXT ADR 9*%
X170400000Y-64600000D03*
%TO.N,NEXT ADR 10*%
X174800000Y-64600000D03*
%TO.N,NEXT ADR 11*%
X179400000Y-64400000D03*
%TO.N,NEXT ADR 12*%
X183700000Y-64300000D03*
%TO.N,NEXT ADR 13*%
X188100000Y-64000000D03*
%TO.N,NEXT ADR 14*%
X192900000Y-64500000D03*
%TO.N,NEXT ADR 15*%
X197300000Y-64800000D03*
%TO.N,Net-(Q332-G)*%
X105352000Y-55711500D03*
X118852000Y-55711500D03*
X55852000Y-55711500D03*
X64852000Y-55711500D03*
X82852000Y-55711500D03*
X69376000Y-55711500D03*
X91852000Y-55711500D03*
X96352000Y-55711500D03*
X60352000Y-55711500D03*
X73852000Y-55711500D03*
X78352000Y-55711500D03*
X109852000Y-55711500D03*
X87352000Y-55711500D03*
X51276000Y-55711500D03*
D15*
X46976000Y-55711500D03*
D14*
X114352000Y-55711500D03*
X100852000Y-55711500D03*
%TO.N,TIME STEP 0*%
X86200000Y-109800000D03*
X34500000Y-107500000D03*
X136800000Y-28800000D03*
%TO.N,!TIME STEP 0*%
X73375000Y-121400000D03*
X71800000Y-162000000D03*
%TO.N,TIME STEP IN 1*%
X74000000Y-135900000D03*
%TO.N,TIME STEP 1*%
X69500000Y-120300000D03*
X54100000Y-149200000D03*
X68100000Y-151399000D03*
%TO.N,TIME STEP IN 2*%
X66700000Y-135600000D03*
X47200000Y-162400000D03*
%TO.N,FLAG N*%
X64123718Y-116800000D03*
%TO.N,Net-(Q418-G)*%
X60223718Y-132300000D03*
X60223718Y-123200000D03*
X60223718Y-114900000D03*
X60223718Y-127800000D03*
X60223718Y-118600000D03*
%TO.N,FLAG STORE N*%
X45400000Y-117600000D03*
%TO.N,FLAG Z*%
X63823718Y-117900000D03*
X153400000Y-118850000D03*
X109430000Y-117070000D03*
%TO.N,FLAG STORE Z*%
X45400000Y-122000000D03*
%TO.N,FLAG U*%
X64312718Y-122700000D03*
%TO.N,FLAG STORE U*%
X45600000Y-126500000D03*
%TO.N,FLAG O*%
X182200000Y-103500000D03*
X64123718Y-127200000D03*
%TO.N,FLAG STORE O*%
X45600000Y-131100000D03*
%TO.N,FLAG C*%
X64223718Y-131300000D03*
X161550000Y-123850000D03*
X142200000Y-104500000D03*
X192400000Y-138400000D03*
%TO.N,FLAG STORE C*%
X45600000Y-135700000D03*
%TO.N,Read Write ins*%
X43300000Y-157300000D03*
X64200000Y-144100000D03*
X43800000Y-145475000D03*
X63908058Y-142008058D03*
X44800000Y-168000000D03*
%TO.N,Commit jump*%
X42900000Y-163100000D03*
X123100000Y-111526000D03*
%TO.N,TIME STEP IN 0*%
X63300000Y-143500000D03*
%TO.N,TIME STEP 2*%
X75400000Y-159500000D03*
X76100000Y-151276000D03*
X90800000Y-117700000D03*
%TO.N,TIME STEP 0or1or2*%
X81300000Y-147800000D03*
X80100000Y-152500000D03*
%TO.N,TIME STEP 0or1*%
X54000000Y-152300000D03*
X57200000Y-147800000D03*
%TO.N,Main bus -> bus out*%
X217950000Y-56062500D03*
X217850000Y-47262500D03*
X218900000Y-75900000D03*
X217950000Y-51562500D03*
X217950000Y-33762500D03*
X217850000Y-65162500D03*
X217850000Y-60562500D03*
X217850000Y-38162500D03*
X122500000Y-120800000D03*
X217950000Y-42562500D03*
%TO.N,Net-(Q520-D)*%
X225900000Y-38000000D03*
X222500000Y-37900000D03*
%TO.N,Net-(Q523-D)*%
X225900000Y-42500000D03*
X222600000Y-42500000D03*
%TO.N,Net-(Q526-D)*%
X222600000Y-47000000D03*
X225900000Y-47000000D03*
%TO.N,Net-(Q529-D)*%
X225900000Y-51500000D03*
X222500000Y-51500000D03*
%TO.N,Net-(Q532-D)*%
X225900000Y-56000000D03*
X222500000Y-56000000D03*
%TO.N,Net-(Q535-D)*%
X222500000Y-60500000D03*
X225900000Y-60500000D03*
%TO.N,Net-(Q538-D)*%
X225900000Y-65000000D03*
X222600000Y-65000000D03*
%TO.N,bus out -> Main bus*%
X204450000Y-63862500D03*
X204350000Y-36862500D03*
X66012500Y-155225000D03*
X204350000Y-45862500D03*
X204450000Y-59262500D03*
X39200000Y-52000000D03*
X204350000Y-41262500D03*
X204450000Y-54762500D03*
X204450000Y-50462500D03*
X39300000Y-45800000D03*
X204850000Y-33762500D03*
%TO.N,Net-(Q544-D)*%
X209400000Y-38562500D03*
X200900000Y-38000000D03*
%TO.N,Net-(Q547-D)*%
X200900000Y-42500000D03*
X209400000Y-43062500D03*
%TO.N,Net-(Q550-D)*%
X200900000Y-47000000D03*
X209400000Y-47562500D03*
%TO.N,Net-(Q553-D)*%
X209400000Y-52062500D03*
X200900000Y-51500000D03*
%TO.N,Net-(Q556-D)*%
X209400000Y-56562500D03*
X200900000Y-56000000D03*
%TO.N,Net-(Q559-D)*%
X209400000Y-61062500D03*
X200900000Y-60500000D03*
%TO.N,Net-(Q562-D)*%
X209400000Y-65562500D03*
X200900000Y-65000000D03*
%TO.N,GND*%
X277200000Y-153900000D03*
%TD*%
D16*
%TO.N,!BON*%
X126400000Y-119200000D02*
X79600000Y-166000000D01*
X79600000Y-166000000D02*
X79600000Y-174500000D01*
%TO.N,!BOZ*%
X124200000Y-130500000D02*
X135100000Y-119600000D01*
X84700000Y-174400000D02*
X124200000Y-134900000D01*
X135100000Y-119600000D02*
X140200000Y-119600000D01*
X124200000Y-134900000D02*
X124200000Y-130500000D01*
%TO.N,!BNZ*%
X126000000Y-134900000D02*
X126000000Y-131100000D01*
X154400000Y-119801000D02*
X154400000Y-120400000D01*
X154400000Y-120400000D02*
X153600000Y-121200000D01*
X136000000Y-121100000D02*
X140200000Y-121100000D01*
X126000000Y-131100000D02*
X136000000Y-121100000D01*
X89500000Y-171400000D02*
X126000000Y-134900000D01*
X89500000Y-174400000D02*
X89500000Y-171400000D01*
%TO.N,!BOO*%
X141300000Y-123900000D02*
X142500000Y-122700000D01*
X94300000Y-170900000D02*
X130000000Y-135200000D01*
X94300000Y-174300000D02*
X94300000Y-170900000D01*
X141300000Y-129132900D02*
X141300000Y-123900000D01*
X135232900Y-135200000D02*
X141300000Y-129132900D01*
X130000000Y-135200000D02*
X135232900Y-135200000D01*
%TO.N,!BNO*%
X100902000Y-175602000D02*
X114915043Y-175602000D01*
X175250057Y-109300000D02*
X184300000Y-109300000D01*
X99700000Y-174400000D02*
X100902000Y-175602000D01*
X128000000Y-162517043D02*
X128000000Y-156550057D01*
X114915043Y-175602000D02*
X128000000Y-162517043D01*
X128000000Y-156550057D02*
X175250057Y-109300000D01*
%TO.N,!BOU*%
X113501114Y-173851057D02*
X114551057Y-174901000D01*
X127599000Y-151875943D02*
X173900000Y-105574943D01*
X105448943Y-173851057D02*
X113501114Y-173851057D01*
X114551057Y-174901000D02*
X115048943Y-174901000D01*
X115048943Y-174901000D02*
X127599000Y-162350943D01*
X104700000Y-174600000D02*
X105448943Y-173851057D01*
X127599000Y-162350943D02*
X127599000Y-151875943D01*
X173900000Y-105574943D02*
X173900000Y-104200000D01*
%TO.N,!BNU*%
X135150000Y-135850000D02*
X141700000Y-129300000D01*
X104099000Y-174848943D02*
X104099000Y-174351057D01*
X130950000Y-135850000D02*
X135150000Y-135850000D01*
X157450057Y-104100000D02*
X160500000Y-104100000D01*
X109800000Y-174500000D02*
X109099000Y-175201000D01*
X109800000Y-157000000D02*
X130950000Y-135850000D01*
X141700000Y-125100000D02*
X148536500Y-118263500D01*
X109800000Y-168650057D02*
X109800000Y-157000000D01*
X148536500Y-118263500D02*
X148536500Y-113013557D01*
X148536500Y-113013557D02*
X157450057Y-104100000D01*
X141700000Y-129300000D02*
X141700000Y-125100000D01*
X109099000Y-175201000D02*
X104451057Y-175201000D01*
X104451057Y-175201000D02*
X104099000Y-174848943D01*
X104099000Y-174351057D02*
X109800000Y-168650057D01*
%TO.N,!BOC*%
X114800000Y-152750057D02*
X114800000Y-174300000D01*
X153300000Y-109100000D02*
X153300000Y-114250057D01*
X142300000Y-130100000D02*
X142300000Y-125250057D01*
X135924972Y-136475028D02*
X142300000Y-130100000D01*
X131075028Y-136475028D02*
X114800000Y-152750057D01*
X131075028Y-136475028D02*
X135924972Y-136475028D01*
X142300000Y-125250057D02*
X153300000Y-114250057D01*
%TO.N,!BNC*%
X98500000Y-142600000D02*
X83400000Y-142600000D01*
X137300000Y-103800000D02*
X98500000Y-142600000D01*
%TO.N,!Store*%
X121200000Y-149500000D02*
X124200000Y-149500000D01*
X124200000Y-149500000D02*
X126100000Y-147600000D01*
%TO.N,!MOV*%
X161300000Y-152500000D02*
X161300000Y-152800000D01*
%TO.N,Faling Edge*%
X36200000Y-108100000D02*
X36300000Y-108200000D01*
X36300000Y-178140000D02*
X30000000Y-184440000D01*
X47200000Y-98400000D02*
X50900000Y-98400000D01*
X39700000Y-105900000D02*
X47200000Y-98400000D01*
X36300000Y-108200000D02*
X36300000Y-178140000D01*
X39700000Y-108100000D02*
X39700000Y-105900000D01*
%TO.N,R{slash}W out*%
X37300000Y-164901300D02*
X37300000Y-106400000D01*
X28100000Y-97200000D02*
X28100000Y-82900000D01*
X54475000Y-168700000D02*
X41098700Y-168700000D01*
X41098700Y-168700000D02*
X37300000Y-164901300D01*
X37300000Y-106400000D02*
X28100000Y-97200000D01*
X59737500Y-163437500D02*
X54475000Y-168700000D01*
X28100000Y-82900000D02*
X26800000Y-81600000D01*
%TO.N,rst*%
X24201000Y-62747530D02*
X24201000Y-73921000D01*
X24201000Y-73921000D02*
X26800000Y-76520000D01*
X23600000Y-179900000D02*
X23600000Y-183120000D01*
X25600000Y-104200000D02*
X23600000Y-106200000D01*
X23600000Y-183120000D02*
X30000000Y-189520000D01*
X22600000Y-101200000D02*
X22600000Y-78300000D01*
X23600000Y-106200000D02*
X23600000Y-179900000D01*
X35724265Y-51224265D02*
X24201000Y-62747530D01*
X25600000Y-104200000D02*
X22600000Y-101200000D01*
%TO.N,READ A*%
X192698000Y-182102000D02*
X220800000Y-154000000D01*
X192698000Y-201898000D02*
X192698000Y-182102000D01*
X220800000Y-154000000D02*
X220800000Y-73640000D01*
X220800000Y-73640000D02*
X233340000Y-61100000D01*
X194200000Y-203400000D02*
X192698000Y-201898000D01*
%TO.N,READ D*%
X222200000Y-79860000D02*
X233340000Y-68720000D01*
X222200000Y-160250058D02*
X222200000Y-79860000D01*
X194549943Y-188300000D02*
X208999000Y-173850943D01*
X194100000Y-188300000D02*
X194549943Y-188300000D01*
X208999000Y-173451057D02*
X222200000Y-160250058D01*
X208999000Y-173850943D02*
X208999000Y-173451057D01*
%TO.N,READ C*%
X193500000Y-192700000D02*
X193500000Y-184800000D01*
X193500000Y-184800000D02*
X221700000Y-156600000D01*
X221700000Y-77820000D02*
X233340000Y-66180000D01*
X221700000Y-156600000D02*
X221700000Y-77820000D01*
X194200000Y-193400000D02*
X193500000Y-192700000D01*
%TO.N,READ B*%
X221250000Y-75730000D02*
X233340000Y-63640000D01*
X195301000Y-181999000D02*
X221250000Y-156050000D01*
X221250000Y-156050000D02*
X221250000Y-75730000D01*
X194051057Y-181999000D02*
X195301000Y-181999000D01*
X194200000Y-198500000D02*
X193099000Y-197399000D01*
X193099000Y-182951057D02*
X194051057Y-181999000D01*
X193099000Y-197399000D02*
X193099000Y-182951057D01*
%TO.N,Store Address ++*%
X34000000Y-101267100D02*
X34000000Y-101300000D01*
X39900000Y-48111500D02*
X39211500Y-48800000D01*
X39300000Y-165800000D02*
X47500000Y-165800000D01*
X39211500Y-48800000D02*
X39200000Y-48800000D01*
X33999000Y-56633900D02*
X33999000Y-101266100D01*
X39200000Y-48800000D02*
X34000000Y-54000000D01*
X34000000Y-56632900D02*
X33999000Y-56633900D01*
X34000000Y-101300000D02*
X37701000Y-105001000D01*
X33999000Y-101266100D02*
X34000000Y-101267100D01*
X34000000Y-54000000D02*
X34000000Y-56632900D01*
X37701000Y-164201000D02*
X39300000Y-165800000D01*
X37701000Y-105001000D02*
X37701000Y-164201000D01*
%TO.N,TEMP ADR 0*%
X51200000Y-60000000D02*
X49400000Y-58200000D01*
X49400000Y-51500000D02*
X64100000Y-36800000D01*
X87720000Y-36800000D02*
X89120000Y-35400000D01*
X64100000Y-36800000D02*
X87720000Y-36800000D01*
X49400000Y-58200000D02*
X49400000Y-51500000D01*
%TO.N,TEMP ADR 1*%
X55700000Y-59900000D02*
X55700000Y-59285557D01*
X64450057Y-37200000D02*
X89860000Y-37200000D01*
X89860000Y-37200000D02*
X91660000Y-35400000D01*
X55700000Y-59285557D02*
X50299000Y-53884557D01*
X50299000Y-53884557D02*
X50299000Y-51351057D01*
X50299000Y-51351057D02*
X64450057Y-37200000D01*
%TO.N,STORED ADR 15*%
X118700000Y-52200000D02*
X128000000Y-61500000D01*
X128000000Y-61500000D02*
X173200000Y-61500000D01*
X118700000Y-51600000D02*
X118700000Y-52200000D01*
X173200000Y-61500000D02*
X184700000Y-73000000D01*
%TO.N,STORED ADR 14*%
X182160000Y-73000000D02*
X178557000Y-69397000D01*
X117400000Y-51600000D02*
X114100000Y-51600000D01*
X178557000Y-69397000D02*
X178497000Y-69397000D01*
X127701000Y-61901000D02*
X117400000Y-51600000D01*
X171001000Y-61901000D02*
X127701000Y-61901000D01*
X178497000Y-69397000D02*
X171001000Y-61901000D01*
%TO.N,STORED ADR 13*%
X114801000Y-57774943D02*
X114801000Y-57301000D01*
X170124081Y-62302000D02*
X119328057Y-62302000D01*
X109700000Y-52200000D02*
X109700000Y-51500000D01*
X179620000Y-71797919D02*
X170124081Y-62302000D01*
X179620000Y-73000000D02*
X179620000Y-71797919D01*
X114801000Y-57301000D02*
X109700000Y-52200000D01*
X119328057Y-62302000D02*
X114801000Y-57774943D01*
%TO.N,STORED ADR 12*%
X166783000Y-62703000D02*
X114803000Y-62703000D01*
X177080000Y-73000000D02*
X166783000Y-62703000D01*
X114803000Y-62703000D02*
X105200000Y-53100000D01*
X105200000Y-53100000D02*
X105200000Y-51500000D01*
%TO.N,STORED ADR 11*%
X174540000Y-73000000D02*
X174540000Y-72690057D01*
X164953943Y-63104000D02*
X114404000Y-63104000D01*
X174540000Y-72690057D02*
X164953943Y-63104000D01*
X102900000Y-51600000D02*
X100600000Y-51600000D01*
X114404000Y-63104000D02*
X102900000Y-51600000D01*
%TO.N,STORED ADR 10*%
X105500000Y-59300000D02*
X103590557Y-59300000D01*
X96100000Y-51809443D02*
X96100000Y-51600000D01*
X109705000Y-63505000D02*
X105500000Y-59300000D01*
X162505000Y-63505000D02*
X109705000Y-63505000D01*
X172000000Y-73000000D02*
X162505000Y-63505000D01*
X103590557Y-59300000D02*
X96100000Y-51809443D01*
%TO.N,STORED ADR 9*%
X106106000Y-63906000D02*
X93800000Y-51600000D01*
X161568081Y-63906000D02*
X106106000Y-63906000D01*
X169460000Y-73000000D02*
X169460000Y-71797919D01*
X169460000Y-71797919D02*
X161568081Y-63906000D01*
X93800000Y-51600000D02*
X91800000Y-51600000D01*
%TO.N,STORED ADR 8*%
X88400000Y-52900000D02*
X87100000Y-51600000D01*
X90900000Y-52900000D02*
X88400000Y-52900000D01*
X158227000Y-64307000D02*
X102307000Y-64307000D01*
X102307000Y-64307000D02*
X90900000Y-52900000D01*
X87100000Y-51600000D02*
X87000000Y-51600000D01*
X166920000Y-73000000D02*
X158227000Y-64307000D01*
%TO.N,STORED ADR 7*%
X101353200Y-71399000D02*
X103326100Y-71399000D01*
X96605400Y-70597000D02*
X98578300Y-70597000D01*
X84700000Y-54500000D02*
X84700000Y-67500000D01*
X82600000Y-51700000D02*
X82600000Y-52400000D01*
X92764400Y-68696000D02*
X94264400Y-70196000D01*
X94264400Y-70196000D02*
X96204400Y-70196000D01*
X103326100Y-71399000D02*
X103727100Y-71800000D01*
X96204400Y-70196000D02*
X96605400Y-70597000D01*
X105700000Y-71800000D02*
X106900000Y-73000000D01*
X84700000Y-67500000D02*
X85896000Y-68696000D01*
X82600000Y-52400000D02*
X84700000Y-54500000D01*
X103727100Y-71800000D02*
X105700000Y-71800000D01*
X85896000Y-68696000D02*
X92764400Y-68696000D01*
X100952200Y-70998000D02*
X101353200Y-71399000D01*
X98578300Y-70597000D02*
X98979300Y-70998000D01*
X98979300Y-70998000D02*
X100952200Y-70998000D01*
%TO.N,STORED ADR 6*%
X101187100Y-71800000D02*
X100786100Y-71399000D01*
X79000000Y-67800000D02*
X79000000Y-52600000D01*
X79000000Y-52600000D02*
X78000000Y-51600000D01*
X96038300Y-70597000D02*
X94098300Y-70597000D01*
X94098300Y-70597000D02*
X92598300Y-69097000D01*
X98412200Y-70998000D02*
X96439300Y-70998000D01*
X92598300Y-69097000D02*
X80297000Y-69097000D01*
X98813200Y-71399000D02*
X98412200Y-70998000D01*
X80297000Y-69097000D02*
X79000000Y-67800000D01*
X96439300Y-70998000D02*
X96038300Y-70597000D01*
X104360000Y-73000000D02*
X103160000Y-71800000D01*
X103160000Y-71800000D02*
X101187100Y-71800000D01*
X100786100Y-71399000D02*
X98813200Y-71399000D01*
%TO.N,STORED ADR 5*%
X96273200Y-71399000D02*
X95872200Y-70998000D01*
X98647100Y-71800000D02*
X98246100Y-71399000D01*
X77898000Y-69498000D02*
X74600000Y-66200000D01*
X74600000Y-66200000D02*
X74600000Y-52700000D01*
X92432200Y-69498000D02*
X77898000Y-69498000D01*
X73600000Y-51700000D02*
X73600000Y-51600000D01*
X93932200Y-70998000D02*
X92432200Y-69498000D01*
X100620000Y-71800000D02*
X98647100Y-71800000D01*
X95872200Y-70998000D02*
X93932200Y-70998000D01*
X74600000Y-52700000D02*
X73600000Y-51700000D01*
X98246100Y-71399000D02*
X96273200Y-71399000D01*
X101820000Y-73000000D02*
X100620000Y-71800000D01*
%TO.N,STORED ADR 4*%
X96107100Y-71800000D02*
X95706100Y-71399000D01*
X99280000Y-73000000D02*
X98080000Y-71800000D01*
X98080000Y-71800000D02*
X96107100Y-71800000D01*
X70000000Y-66200000D02*
X70000000Y-52500000D01*
X70000000Y-52500000D02*
X69100000Y-51600000D01*
X93766100Y-71399000D02*
X92266100Y-69899000D01*
X95706100Y-71399000D02*
X93766100Y-71399000D01*
X73699000Y-69899000D02*
X70000000Y-66200000D01*
X92266100Y-69899000D02*
X73699000Y-69899000D01*
%TO.N,STORED ADR 3*%
X95540000Y-71800000D02*
X93600000Y-71800000D01*
X65800000Y-64400000D02*
X65800000Y-52800000D01*
X92100000Y-70300000D02*
X71700000Y-70300000D01*
X65800000Y-52800000D02*
X64600000Y-51600000D01*
X93600000Y-71800000D02*
X92100000Y-70300000D01*
X71700000Y-70300000D02*
X65800000Y-64400000D01*
X96740000Y-73000000D02*
X95540000Y-71800000D01*
%TO.N,STORED ADR 2*%
X65700000Y-70700000D02*
X61200000Y-66200000D01*
X91900000Y-70700000D02*
X65700000Y-70700000D01*
X61200000Y-52700000D02*
X60100000Y-51600000D01*
X61200000Y-66200000D02*
X61200000Y-52700000D01*
X94200000Y-73000000D02*
X91900000Y-70700000D01*
%TO.N,STORED ADR 1*%
X57600000Y-53600000D02*
X55600000Y-51600000D01*
X91660000Y-73000000D02*
X89760000Y-71100000D01*
X57600000Y-66100000D02*
X57600000Y-53600000D01*
X89760000Y-71100000D02*
X62600000Y-71100000D01*
X62600000Y-71100000D02*
X57600000Y-66100000D01*
%TO.N,STORED ADR 0*%
X89120000Y-73000000D02*
X87620000Y-71500000D01*
X57100000Y-57900000D02*
X50900000Y-51700000D01*
X57100000Y-66300000D02*
X57100000Y-57900000D01*
X50900000Y-51700000D02*
X50900000Y-51600000D01*
X87620000Y-71500000D02*
X62300000Y-71500000D01*
X62300000Y-71500000D02*
X57100000Y-66300000D01*
%TO.N,Read From stored Address*%
X36800000Y-164968400D02*
X36800000Y-106700000D01*
X38588500Y-47511500D02*
X48076000Y-47511500D01*
X40932600Y-169101000D02*
X36800000Y-164968400D01*
X72500000Y-167000000D02*
X70399000Y-169101000D01*
X36800000Y-106700000D02*
X23800000Y-93700000D01*
X23800000Y-62300000D02*
X38588500Y-47511500D01*
X23800000Y-93700000D02*
X23800000Y-62300000D01*
X70399000Y-169101000D02*
X40932600Y-169101000D01*
%TO.N,TEMP ADR 2*%
X59499000Y-51351057D02*
X59499000Y-59299000D01*
X91999000Y-37601000D02*
X73249057Y-37601000D01*
X73249057Y-37601000D02*
X59499000Y-51351057D01*
X59499000Y-59299000D02*
X60200000Y-60000000D01*
X94200000Y-35400000D02*
X91999000Y-37601000D01*
%TO.N,TEMP ADR 3*%
X63999000Y-59399000D02*
X63999000Y-49301000D01*
X64600000Y-60000000D02*
X63999000Y-59399000D01*
X75298000Y-38002000D02*
X94138000Y-38002000D01*
X94138000Y-38002000D02*
X96740000Y-35400000D01*
X63999000Y-49301000D02*
X75298000Y-38002000D01*
%TO.N,TEMP ADR 4*%
X68499000Y-51351057D02*
X68499000Y-59399000D01*
X96277000Y-38403000D02*
X81447057Y-38403000D01*
X99280000Y-35400000D02*
X96277000Y-38403000D01*
X68499000Y-59399000D02*
X69200000Y-60100000D01*
X81447057Y-38403000D02*
X68499000Y-51351057D01*
%TO.N,TEMP ADR 5*%
X85546057Y-38804000D02*
X98416000Y-38804000D01*
X72999000Y-51351057D02*
X85546057Y-38804000D01*
X98416000Y-38804000D02*
X101820000Y-35400000D01*
X73700000Y-60000000D02*
X72999000Y-59299000D01*
X72999000Y-59299000D02*
X72999000Y-51351057D01*
%TO.N,TEMP ADR 6*%
X89545057Y-39205000D02*
X77399000Y-51351057D01*
X100555000Y-39205000D02*
X89545057Y-39205000D01*
X77399000Y-51351057D02*
X77399000Y-59199000D01*
X104360000Y-35400000D02*
X100555000Y-39205000D01*
X77399000Y-59199000D02*
X78300000Y-60100000D01*
%TO.N,TEMP ADR 7*%
X102694000Y-39606000D02*
X106900000Y-35400000D01*
X81999000Y-51451057D02*
X93844057Y-39606000D01*
X82800000Y-60100000D02*
X81999000Y-59299000D01*
X93844057Y-39606000D02*
X102694000Y-39606000D01*
X81999000Y-59299000D02*
X81999000Y-51451057D01*
%TO.N,TEMP ADR 8*%
X85597000Y-58345000D02*
X85597000Y-50903000D01*
X91303000Y-45197000D02*
X157123000Y-45197000D01*
X85597000Y-50903000D02*
X91303000Y-45197000D01*
X157123000Y-45197000D02*
X166920000Y-35400000D01*
X87352000Y-60100000D02*
X85597000Y-58345000D01*
%TO.N,TEMP ADR 9*%
X168954714Y-35400000D02*
X169460000Y-35400000D01*
X91800000Y-57817043D02*
X85998000Y-52015043D01*
X91800000Y-60100000D02*
X91800000Y-57817043D01*
X91502000Y-45598000D02*
X158756714Y-45598000D01*
X158756714Y-45598000D02*
X168954714Y-35400000D01*
X85998000Y-52015043D02*
X85998000Y-51102000D01*
X85998000Y-51102000D02*
X91502000Y-45598000D01*
%TO.N,TEMP ADR 10*%
X86399000Y-51848943D02*
X94650057Y-60100000D01*
X172000000Y-35400000D02*
X161401000Y-45999000D01*
X94650057Y-60100000D02*
X96352000Y-60100000D01*
X86399000Y-51351057D02*
X86399000Y-51848943D01*
X91751056Y-45999000D02*
X86399000Y-51351057D01*
X161401000Y-45999000D02*
X91751056Y-45999000D01*
%TO.N,TEMP ADR 11*%
X163540000Y-46400000D02*
X174540000Y-35400000D01*
X100852000Y-60000000D02*
X100852000Y-59361557D01*
X93691443Y-52201000D02*
X91551057Y-52201000D01*
X91199000Y-51351057D02*
X96150057Y-46400000D01*
X91551057Y-52201000D02*
X91199000Y-51848943D01*
X100852000Y-59361557D02*
X93691443Y-52201000D01*
X96150057Y-46400000D02*
X163540000Y-46400000D01*
X91199000Y-51848943D02*
X91199000Y-51351057D01*
%TO.N,TEMP ADR 12*%
X103850057Y-60200000D02*
X95499000Y-51848943D01*
X174890000Y-37590000D02*
X177080000Y-35400000D01*
X95499000Y-51351057D02*
X98150057Y-48700000D01*
X95499000Y-51848943D02*
X95499000Y-51351057D01*
X98150057Y-48700000D02*
X163285557Y-48700000D01*
X163285557Y-48700000D02*
X174395556Y-37590000D01*
X105476000Y-60200000D02*
X103850057Y-60200000D01*
X174395556Y-37590000D02*
X174890000Y-37590000D01*
%TO.N,TEMP ADR 13*%
X102250057Y-49100000D02*
X165920000Y-49100000D01*
X99999000Y-51848943D02*
X99999000Y-51351057D01*
X102691443Y-52201000D02*
X100351057Y-52201000D01*
X100351057Y-52201000D02*
X99999000Y-51848943D01*
X109976000Y-59485557D02*
X102691443Y-52201000D01*
X99999000Y-51351057D02*
X102250057Y-49100000D01*
X109976000Y-60100000D02*
X109976000Y-59485557D01*
X165920000Y-49100000D02*
X179620000Y-35400000D01*
%TO.N,TEMP ADR 14*%
X109099000Y-52166100D02*
X109099000Y-51251057D01*
X167685443Y-50500000D02*
X182160000Y-36025442D01*
X109850057Y-50500000D02*
X167685443Y-50500000D01*
X182160000Y-36025442D02*
X182160000Y-35400000D01*
X114400000Y-60200000D02*
X114400000Y-57467100D01*
X114400000Y-57467100D02*
X109099000Y-52166100D01*
X109099000Y-51251057D02*
X109850057Y-50500000D01*
%TO.N,TEMP ADR 15*%
X118976000Y-60000000D02*
X118976000Y-57343100D01*
X113499000Y-51351057D02*
X113950057Y-50900000D01*
X169200000Y-50900000D02*
X184700000Y-35400000D01*
X113499000Y-51866100D02*
X113499000Y-51351057D01*
X118976000Y-57343100D02*
X113499000Y-51866100D01*
X113950057Y-50900000D02*
X169200000Y-50900000D01*
%TO.N,TIME STEP 0*%
X23399000Y-96399000D02*
X23399000Y-60148760D01*
X51000000Y-28300000D02*
X136300000Y-28300000D01*
X34500000Y-107500000D02*
X23399000Y-96399000D01*
X32550000Y-50997760D02*
X32550000Y-46750000D01*
X23399000Y-60148760D02*
X32550000Y-50997760D01*
X32550000Y-46750000D02*
X51000000Y-28300000D01*
X136300000Y-28300000D02*
X136800000Y-28800000D01*
D17*
%TO.N,TIME STEP IN 1*%
X74000000Y-109580000D02*
X74000000Y-135900000D01*
X71320000Y-106900000D02*
X74000000Y-109580000D01*
%TO.N,TIME STEP IN 2*%
X68292884Y-105724000D02*
X67416000Y-106600884D01*
X67416000Y-106600884D02*
X67416000Y-134884000D01*
X72684000Y-105724000D02*
X68292884Y-105724000D01*
D16*
X47200000Y-162400000D02*
X62699000Y-146901000D01*
X62699000Y-139601000D02*
X66700000Y-135600000D01*
X62699000Y-146901000D02*
X62699000Y-139601000D01*
D17*
X73860000Y-106900000D02*
X72684000Y-105724000D01*
X67416000Y-134884000D02*
X66700000Y-135600000D01*
D16*
%TO.N,FLAG O*%
X105540000Y-105700000D02*
X108000000Y-105700000D01*
X108900000Y-106600000D02*
X115700000Y-106600000D01*
X149600000Y-103000000D02*
X150000000Y-103400000D01*
X115700000Y-106600000D02*
X119300000Y-103000000D01*
X104340000Y-106900000D02*
X105540000Y-105700000D01*
X119300000Y-103000000D02*
X149600000Y-103000000D01*
X182100000Y-103400000D02*
X182200000Y-103500000D01*
X150000000Y-103400000D02*
X182100000Y-103400000D01*
X108000000Y-105700000D02*
X108900000Y-106600000D01*
%TO.N,FLAG C*%
X192400000Y-138400000D02*
X176100000Y-138400000D01*
X176100000Y-138400000D02*
X161550000Y-123850000D01*
%TO.N,Commit jump*%
X47649943Y-163100000D02*
X42900000Y-163100000D01*
X121551029Y-113074971D02*
X97674971Y-113074971D01*
X123100000Y-111526000D02*
X121551029Y-113074971D01*
X97674971Y-113074971D02*
X47649943Y-163100000D01*
D17*
%TO.N,TIME STEP IN 0*%
X68780000Y-138020000D02*
X63426000Y-143374000D01*
X68780000Y-106900000D02*
X68780000Y-138020000D01*
D16*
%TO.N,bus out -> Main bus*%
X204550000Y-46062500D02*
X204350000Y-45862500D01*
X111198000Y-29000000D02*
X111899000Y-29701000D01*
X38102000Y-160902000D02*
X38102000Y-104802000D01*
X204350000Y-45862500D02*
X204350000Y-41262500D01*
X204350000Y-36862500D02*
X204850000Y-36362500D01*
X200593750Y-29500000D02*
X204850000Y-33756250D01*
X204550000Y-50862500D02*
X204550000Y-46062500D01*
X40900000Y-163700000D02*
X38102000Y-160902000D01*
X139699000Y-29701000D02*
X139900000Y-29500000D01*
X57537500Y-163700000D02*
X40900000Y-163700000D01*
X204850000Y-36362500D02*
X204850000Y-33762500D01*
X204450000Y-59262500D02*
X204450000Y-54762500D01*
X34400000Y-101100000D02*
X34400000Y-56800000D01*
X204450000Y-54762500D02*
X204550000Y-54662500D01*
X139900000Y-29500000D02*
X200593750Y-29500000D01*
X111899000Y-29701000D02*
X139699000Y-29701000D01*
X39300000Y-40800000D02*
X51100000Y-29000000D01*
X204550000Y-50562500D02*
X204450000Y-50462500D01*
X34400000Y-56800000D02*
X39200000Y-52000000D01*
X204450000Y-63862500D02*
X204450000Y-59262500D01*
X66012500Y-155225000D02*
X57537500Y-163700000D01*
X204350000Y-41262500D02*
X204350000Y-36862500D01*
X204550000Y-50862500D02*
X204550000Y-50562500D01*
X39300000Y-45800000D02*
X39300000Y-40800000D01*
X204850000Y-33756250D02*
X204850000Y-33762500D01*
X51100000Y-29000000D02*
X111198000Y-29000000D01*
X38102000Y-104802000D02*
X34400000Y-101100000D01*
X204550000Y-54662500D02*
X204550000Y-50862500D01*
%TD*%
M02*
