%TF.GenerationSoftware,KiCad,Pcbnew,9.0.7*%
%TF.CreationDate,2026-03-29T15:28:21+02:00*%
%TF.ProjectId,Whole_CPU_V1.0,57686f6c-655f-4435-9055-5f56312e302e,rev?*%
%TF.SameCoordinates,Original*%
%TF.FileFunction,Copper,L6,Bot*%
%TF.FilePolarity,Positive*%
%FSLAX46Y46*%
G04 Gerber Fmt 4.6, Leading zero omitted, Abs format (unit mm)*
G04 Created by KiCad (PCBNEW 9.0.7) date 2026-03-29 15:28:21*
%MOMM*%
%LPD*%
G01*
G04 APERTURE LIST*
%TA.AperFunction,ComponentPad*%
%ADD10C,2.000000*%
%TD*%
%TA.AperFunction,ComponentPad*%
%ADD11R,1.700000X1.700000*%
%TD*%
%TA.AperFunction,ComponentPad*%
%ADD12C,1.700000*%
%TD*%
%TA.AperFunction,ComponentPad*%
%ADD13C,1.600000*%
%TD*%
%TA.AperFunction,ViaPad*%
%ADD14C,0.600000*%
%TD*%
%TA.AperFunction,ViaPad*%
%ADD15C,1.000000*%
%TD*%
%TA.AperFunction,Conductor*%
%ADD16C,0.200000*%
%TD*%
%TA.AperFunction,Conductor*%
%ADD17C,0.400000*%
%TD*%
G04 APERTURE END LIST*
D10*
%TO.P,C19,1*%
%TO.N,VCC*%
X216250000Y-86000000D03*
%TO.P,C19,2*%
%TO.N,GND*%
X223750000Y-86000000D03*
%TD*%
D11*
%TO.P,J26,1,Pin_1*%
%TO.N,Net-(J26-Pin_1)*%
X383440000Y-133020000D03*
D12*
%TO.P,J26,2,Pin_2*%
%TO.N,VCC*%
X380900000Y-133020000D03*
%TO.P,J26,3,Pin_3*%
%TO.N,Net-(J26-Pin_3)*%
X383440000Y-135560000D03*
%TO.P,J26,4,Pin_4*%
%TO.N,GND*%
X380900000Y-135560000D03*
%TO.P,J26,5,Pin_5*%
%TO.N,Net-(J26-Pin_5)*%
X383440000Y-138100000D03*
%TO.P,J26,6,Pin_6*%
%TO.N,VCC*%
X380900000Y-138100000D03*
%TO.P,J26,7,Pin_7*%
%TO.N,Net-(J26-Pin_7)*%
X383440000Y-140640000D03*
%TO.P,J26,8,Pin_8*%
%TO.N,GND*%
X380900000Y-140640000D03*
%TO.P,J26,9,Pin_9*%
%TO.N,Net-(J26-Pin_9)*%
X383440000Y-143180000D03*
%TO.P,J26,10,Pin_10*%
%TO.N,VCC*%
X380900000Y-143180000D03*
%TO.P,J26,11,Pin_11*%
%TO.N,Net-(J26-Pin_11)*%
X383440000Y-145720000D03*
%TO.P,J26,12,Pin_12*%
%TO.N,GND*%
X380900000Y-145720000D03*
%TO.P,J26,13,Pin_13*%
%TO.N,Net-(J26-Pin_13)*%
X383440000Y-148260000D03*
%TO.P,J26,14,Pin_14*%
%TO.N,VCC*%
X380900000Y-148260000D03*
%TO.P,J26,15,Pin_15*%
%TO.N,/N*%
X383440000Y-150800000D03*
%TO.P,J26,16,Pin_16*%
%TO.N,GND*%
X380900000Y-150800000D03*
%TD*%
D13*
%TO.P,R22,1*%
%TO.N,VCC*%
X65100000Y-96000000D03*
%TO.P,R22,2*%
%TO.N,Net-(Q606-D)*%
X57480000Y-96000000D03*
%TD*%
D11*
%TO.P,J13,1,Pin_1*%
%TO.N,GND*%
X233300000Y-208180000D03*
D12*
%TO.P,J13,2,Pin_2*%
%TO.N,VCC*%
X235840000Y-208180000D03*
%TO.P,J13,3,Pin_3*%
%TO.N,Carry in*%
X233300000Y-205640000D03*
%TO.P,J13,4,Pin_4*%
%TO.N,OR*%
X235840000Y-205640000D03*
%TO.P,J13,5,Pin_5*%
%TO.N,ALU FLAG C*%
X233300000Y-203100000D03*
%TO.P,J13,6,Pin_6*%
%TO.N,AND*%
X235840000Y-203100000D03*
%TO.P,J13,7,Pin_7*%
%TO.N,ALU FLAG O*%
X233300000Y-200560000D03*
%TO.P,J13,8,Pin_8*%
%TO.N,RS*%
X235840000Y-200560000D03*
%TO.P,J13,9,Pin_9*%
%TO.N,ALU FLAG U*%
X233300000Y-198020000D03*
%TO.P,J13,10,Pin_10*%
%TO.N,NOT*%
X235840000Y-198020000D03*
%TO.P,J13,11,Pin_11*%
%TO.N,ALU FLAG Z*%
X233300000Y-195480000D03*
%TO.P,J13,12,Pin_12*%
%TO.N,XOR*%
X235840000Y-195480000D03*
%TO.P,J13,13,Pin_13*%
%TO.N,ALU FLAG N*%
X233300000Y-192940000D03*
%TO.P,J13,14,Pin_14*%
%TO.N,ADD*%
X235840000Y-192940000D03*
%TO.P,J13,15,Pin_15*%
%TO.N,GND*%
X233300000Y-190400000D03*
%TO.P,J13,16,Pin_16*%
%TO.N,VCC*%
X235840000Y-190400000D03*
%TD*%
D11*
%TO.P,J14,1,Pin_1*%
%TO.N,GND*%
X233340000Y-78880000D03*
D12*
%TO.P,J14,2,Pin_2*%
%TO.N,D ->ALU B*%
X235880000Y-78880000D03*
%TO.P,J14,3,Pin_3*%
%TO.N,rst*%
X233340000Y-76340000D03*
%TO.P,J14,4,Pin_4*%
%TO.N,C ->ALU B*%
X235880000Y-76340000D03*
%TO.P,J14,5,Pin_5*%
%TO.N,Rising Edge*%
X233340000Y-73800000D03*
%TO.P,J14,6,Pin_6*%
%TO.N,B ->ALU B*%
X235880000Y-73800000D03*
%TO.P,J14,7,Pin_7*%
%TO.N,ALU B = FF*%
X233340000Y-71260000D03*
%TO.P,J14,8,Pin_8*%
%TO.N,A ->ALU B*%
X235880000Y-71260000D03*
%TO.P,J14,9,Pin_9*%
%TO.N,READ D*%
X233340000Y-68720000D03*
%TO.P,J14,10,Pin_10*%
%TO.N,D ->ALU A*%
X235880000Y-68720000D03*
%TO.P,J14,11,Pin_11*%
%TO.N,READ C*%
X233340000Y-66180000D03*
%TO.P,J14,12,Pin_12*%
%TO.N,C ->ALU A*%
X235880000Y-66180000D03*
%TO.P,J14,13,Pin_13*%
%TO.N,READ B*%
X233340000Y-63640000D03*
%TO.P,J14,14,Pin_14*%
%TO.N,B ->ALU A*%
X235880000Y-63640000D03*
%TO.P,J14,15,Pin_15*%
%TO.N,READ A*%
X233340000Y-61100000D03*
%TO.P,J14,16,Pin_16*%
%TO.N,A ->ALU A*%
X235880000Y-61100000D03*
%TD*%
D11*
%TO.P,J7,1,Pin_1*%
%TO.N,Faling Edge*%
X50900000Y-98400000D03*
%TD*%
%TO.P,J6,1,Pin_1*%
%TO.N,VCC*%
X56080000Y-106900000D03*
D12*
%TO.P,J6,2,Pin_2*%
%TO.N,GND*%
X58620000Y-106900000D03*
%TO.P,J6,3,Pin_3*%
%TO.N,rst*%
X61160000Y-106900000D03*
%TO.P,J6,4,Pin_4*%
%TO.N,VCC*%
X63700000Y-106900000D03*
%TO.P,J6,5,Pin_5*%
%TO.N,Rising Edge*%
X66240000Y-106900000D03*
%TO.P,J6,6,Pin_6*%
%TO.N,TIME STEP IN 0*%
X68780000Y-106900000D03*
%TO.P,J6,7,Pin_7*%
%TO.N,TIME STEP IN 1*%
X71320000Y-106900000D03*
%TO.P,J6,8,Pin_8*%
%TO.N,TIME STEP IN 2*%
X73860000Y-106900000D03*
%TO.P,J6,9,Pin_9*%
%TO.N,FLAG STORE N*%
X76400000Y-106900000D03*
%TO.P,J6,10,Pin_10*%
%TO.N,FLAG STORE Z*%
X78940000Y-106900000D03*
%TO.P,J6,11,Pin_11*%
%TO.N,FLAG STORE U*%
X81480000Y-106900000D03*
%TO.P,J6,12,Pin_12*%
%TO.N,FLAG STORE O*%
X84020000Y-106900000D03*
%TO.P,J6,13,Pin_13*%
%TO.N,FLAG STORE C*%
X86560000Y-106900000D03*
%TO.P,J6,14,Pin_14*%
%TO.N,TIME STEP 0*%
X89100000Y-106900000D03*
%TO.P,J6,15,Pin_15*%
%TO.N,TIME STEP 1*%
X91640000Y-106900000D03*
%TO.P,J6,16,Pin_16*%
%TO.N,TIME STEP 2*%
X94180000Y-106900000D03*
%TO.P,J6,17,Pin_17*%
%TO.N,FLAG N*%
X96720000Y-106900000D03*
%TO.P,J6,18,Pin_18*%
%TO.N,FLAG Z*%
X99260000Y-106900000D03*
%TO.P,J6,19,Pin_19*%
%TO.N,FLAG U*%
X101800000Y-106900000D03*
%TO.P,J6,20,Pin_20*%
%TO.N,FLAG O*%
X104340000Y-106900000D03*
%TO.P,J6,21,Pin_21*%
%TO.N,FLAG C*%
X106880000Y-106900000D03*
%TD*%
D11*
%TO.P,J24,1,Pin_1*%
%TO.N,VCC*%
X370950000Y-35762500D03*
D12*
%TO.P,J24,2,Pin_2*%
%TO.N,GND*%
X370950000Y-38302500D03*
%TO.P,J24,3,Pin_3*%
%TO.N,RST*%
X370950000Y-40842500D03*
%TO.P,J24,4,Pin_4*%
%TO.N,Net-(J20-Pin_9)*%
X370950000Y-43382500D03*
%TO.P,J24,5,Pin_5*%
%TO.N,Rising_Edge*%
X370950000Y-45922500D03*
%TO.P,J24,6,Pin_6*%
%TO.N,Net-(J16-Pin_2)*%
X370950000Y-48462500D03*
%TO.P,J24,7,Pin_7*%
%TO.N,Net-(J16-Pin_4)*%
X370950000Y-51002500D03*
%TO.P,J24,8,Pin_8*%
%TO.N,Net-(J16-Pin_6)*%
X370950000Y-53542500D03*
%TO.P,J24,9,Pin_9*%
%TO.N,Net-(J16-Pin_8)*%
X370950000Y-56082500D03*
%TO.P,J24,10,Pin_10*%
%TO.N,Net-(J16-Pin_10)*%
X370950000Y-58622500D03*
%TO.P,J24,11,Pin_11*%
%TO.N,Net-(J16-Pin_12)*%
X370950000Y-61162500D03*
%TO.P,J24,12,Pin_12*%
%TO.N,Net-(J16-Pin_14)*%
X370950000Y-63702500D03*
%TO.P,J24,13,Pin_13*%
%TO.N,Net-(J16-Pin_16)*%
X370950000Y-66242500D03*
%TO.P,J24,14,Pin_14*%
%TO.N,Net-(J24-Pin_14)*%
X370950000Y-68782500D03*
%TO.P,J24,15,Pin_15*%
%TO.N,Net-(J24-Pin_15)*%
X370950000Y-71322500D03*
%TO.P,J24,16,Pin_16*%
%TO.N,Net-(J24-Pin_16)*%
X370950000Y-73862500D03*
%TO.P,J24,17,Pin_17*%
%TO.N,Net-(J24-Pin_17)*%
X370950000Y-76402500D03*
%TO.P,J24,18,Pin_18*%
%TO.N,Net-(J24-Pin_18)*%
X370950000Y-78942500D03*
%TO.P,J24,19,Pin_19*%
%TO.N,Net-(J24-Pin_19)*%
X370950000Y-81482500D03*
%TO.P,J24,20,Pin_20*%
%TO.N,Net-(J24-Pin_20)*%
X370950000Y-84022500D03*
%TO.P,J24,21,Pin_21*%
%TO.N,Net-(J24-Pin_21)*%
X370950000Y-86562500D03*
%TD*%
D11*
%TO.P,J5,1,Pin_1*%
%TO.N,VCC*%
X133900000Y-35400000D03*
D12*
%TO.P,J5,2,Pin_2*%
%TO.N,GND*%
X136440000Y-35400000D03*
%TO.P,J5,3,Pin_3*%
%TO.N,rst*%
X138980000Y-35400000D03*
%TO.P,J5,4,Pin_4*%
%TO.N,TIME STEP 0*%
X141520000Y-35400000D03*
%TO.P,J5,5,Pin_5*%
%TO.N,Faling Edge*%
X144060000Y-35400000D03*
%TO.P,J5,6,Pin_6*%
%TO.N,Buss0*%
X146600000Y-35400000D03*
%TO.P,J5,7,Pin_7*%
%TO.N,Buss1*%
X149140000Y-35400000D03*
%TO.P,J5,8,Pin_8*%
%TO.N,Buss2*%
X151680000Y-35400000D03*
%TO.P,J5,9,Pin_9*%
%TO.N,Buss3*%
X154220000Y-35400000D03*
%TO.P,J5,10,Pin_10*%
%TO.N,Buss4*%
X156760000Y-35400000D03*
%TO.P,J5,11,Pin_11*%
%TO.N,Buss5*%
X159300000Y-35400000D03*
%TO.P,J5,12,Pin_12*%
%TO.N,Buss6*%
X161840000Y-35400000D03*
%TO.P,J5,13,Pin_13*%
%TO.N,Buss7*%
X164380000Y-35400000D03*
%TO.P,J5,14,Pin_14*%
%TO.N,TEMP ADR 8*%
X166920000Y-35400000D03*
%TO.P,J5,15,Pin_15*%
%TO.N,TEMP ADR 9*%
X169460000Y-35400000D03*
%TO.P,J5,16,Pin_16*%
%TO.N,TEMP ADR 10*%
X172000000Y-35400000D03*
%TO.P,J5,17,Pin_17*%
%TO.N,TEMP ADR 11*%
X174540000Y-35400000D03*
%TO.P,J5,18,Pin_18*%
%TO.N,TEMP ADR 12*%
X177080000Y-35400000D03*
%TO.P,J5,19,Pin_19*%
%TO.N,TEMP ADR 13*%
X179620000Y-35400000D03*
%TO.P,J5,20,Pin_20*%
%TO.N,TEMP ADR 14*%
X182160000Y-35400000D03*
%TO.P,J5,21,Pin_21*%
%TO.N,TEMP ADR 15*%
X184700000Y-35400000D03*
%TD*%
D11*
%TO.P,J11,1,Pin_1*%
%TO.N,ADR 7*%
X29340000Y-34800000D03*
D12*
%TO.P,J11,2,Pin_2*%
%TO.N,ADR 15*%
X26800000Y-34800000D03*
%TO.P,J11,3,Pin_3*%
%TO.N,ADR 6*%
X29340000Y-37340000D03*
%TO.P,J11,4,Pin_4*%
%TO.N,ADR 14*%
X26800000Y-37340000D03*
%TO.P,J11,5,Pin_5*%
%TO.N,ADR 5*%
X29340000Y-39880000D03*
%TO.P,J11,6,Pin_6*%
%TO.N,ADR 13*%
X26800000Y-39880000D03*
%TO.P,J11,7,Pin_7*%
%TO.N,ADR 4*%
X29340000Y-42420000D03*
%TO.P,J11,8,Pin_8*%
%TO.N,ADR 12*%
X26800000Y-42420000D03*
%TO.P,J11,9,Pin_9*%
%TO.N,ADR 3*%
X29340000Y-44960000D03*
%TO.P,J11,10,Pin_10*%
%TO.N,ADR 11*%
X26800000Y-44960000D03*
%TO.P,J11,11,Pin_11*%
%TO.N,ADR 2*%
X29340000Y-47500000D03*
%TO.P,J11,12,Pin_12*%
%TO.N,ADR 10*%
X26800000Y-47500000D03*
%TO.P,J11,13,Pin_13*%
%TO.N,ADR 1*%
X29340000Y-50040000D03*
%TO.P,J11,14,Pin_14*%
%TO.N,ADR 9*%
X26800000Y-50040000D03*
%TO.P,J11,15,Pin_15*%
%TO.N,ADR 0*%
X29340000Y-52580000D03*
%TO.P,J11,16,Pin_16*%
%TO.N,ADR 8*%
X26800000Y-52580000D03*
%TD*%
D11*
%TO.P,J27,1,Pin_1*%
%TO.N,VCC*%
X375100000Y-208000000D03*
D12*
%TO.P,J27,2,Pin_2*%
%TO.N,GND*%
X377640000Y-208000000D03*
%TD*%
D13*
%TO.P,R20,1*%
%TO.N,VCC*%
X36790000Y-87000000D03*
%TO.P,R20,2*%
%TO.N,Net-(Q605-D)*%
X44410000Y-87000000D03*
%TD*%
%TO.P,R76,1*%
%TO.N,VCC*%
X36790000Y-96000000D03*
%TO.P,R76,2*%
%TO.N,Net-(Q607-D)*%
X44410000Y-96000000D03*
%TD*%
D11*
%TO.P,J4,1,Pin_1*%
%TO.N,VCC*%
X56100000Y-35400000D03*
D12*
%TO.P,J4,2,Pin_2*%
%TO.N,GND*%
X58640000Y-35400000D03*
%TO.P,J4,3,Pin_3*%
%TO.N,rst*%
X61180000Y-35400000D03*
%TO.P,J4,4,Pin_4*%
%TO.N,TIME STEP 1*%
X63720000Y-35400000D03*
%TO.P,J4,5,Pin_5*%
%TO.N,Faling Edge*%
X66260000Y-35400000D03*
%TO.P,J4,6,Pin_6*%
%TO.N,Buss0*%
X68800000Y-35400000D03*
%TO.P,J4,7,Pin_7*%
%TO.N,Buss1*%
X71340000Y-35400000D03*
%TO.P,J4,8,Pin_8*%
%TO.N,Buss2*%
X73880000Y-35400000D03*
%TO.P,J4,9,Pin_9*%
%TO.N,Buss3*%
X76420000Y-35400000D03*
%TO.P,J4,10,Pin_10*%
%TO.N,Buss4*%
X78960000Y-35400000D03*
%TO.P,J4,11,Pin_11*%
%TO.N,Buss5*%
X81500000Y-35400000D03*
%TO.P,J4,12,Pin_12*%
%TO.N,Buss6*%
X84040000Y-35400000D03*
%TO.P,J4,13,Pin_13*%
%TO.N,Buss7*%
X86580000Y-35400000D03*
%TO.P,J4,14,Pin_14*%
%TO.N,TEMP ADR 0*%
X89120000Y-35400000D03*
%TO.P,J4,15,Pin_15*%
%TO.N,TEMP ADR 1*%
X91660000Y-35400000D03*
%TO.P,J4,16,Pin_16*%
%TO.N,TEMP ADR 2*%
X94200000Y-35400000D03*
%TO.P,J4,17,Pin_17*%
%TO.N,TEMP ADR 3*%
X96740000Y-35400000D03*
%TO.P,J4,18,Pin_18*%
%TO.N,TEMP ADR 4*%
X99280000Y-35400000D03*
%TO.P,J4,19,Pin_19*%
%TO.N,TEMP ADR 5*%
X101820000Y-35400000D03*
%TO.P,J4,20,Pin_20*%
%TO.N,TEMP ADR 6*%
X104360000Y-35400000D03*
%TO.P,J4,21,Pin_21*%
%TO.N,TEMP ADR 7*%
X106900000Y-35400000D03*
%TD*%
D11*
%TO.P,J19,1,Pin_1*%
%TO.N,VCC*%
X251550000Y-105587500D03*
D12*
%TO.P,J19,2,Pin_2*%
%TO.N,GND*%
X251550000Y-108127500D03*
%TD*%
D11*
%TO.P,J28,1,Pin_1*%
%TO.N,VCC*%
X265800000Y-215000000D03*
D12*
%TO.P,J28,2,Pin_2*%
%TO.N,GND*%
X265800000Y-217540000D03*
%TD*%
D11*
%TO.P,J10,1,Pin_1*%
%TO.N,Buss0*%
X29340000Y-68900000D03*
D12*
%TO.P,J10,2,Pin_2*%
%TO.N,VCC*%
X26800000Y-68900000D03*
%TO.P,J10,3,Pin_3*%
%TO.N,Buss1*%
X29340000Y-71440000D03*
%TO.P,J10,4,Pin_4*%
%TO.N,GND*%
X26800000Y-71440000D03*
%TO.P,J10,5,Pin_5*%
%TO.N,Buss2*%
X29340000Y-73980000D03*
%TO.P,J10,6,Pin_6*%
%TO.N,CLOCK*%
X26800000Y-73980000D03*
%TO.P,J10,7,Pin_7*%
%TO.N,Buss3*%
X29340000Y-76520000D03*
%TO.P,J10,8,Pin_8*%
%TO.N,rst*%
X26800000Y-76520000D03*
%TO.P,J10,9,Pin_9*%
%TO.N,Buss4*%
X29340000Y-79060000D03*
%TO.P,J10,10,Pin_10*%
%TO.N,GND*%
X26800000Y-79060000D03*
%TO.P,J10,11,Pin_11*%
%TO.N,Buss5*%
X29340000Y-81600000D03*
%TO.P,J10,12,Pin_12*%
%TO.N,R{slash}W out*%
X26800000Y-81600000D03*
%TO.P,J10,13,Pin_13*%
%TO.N,Buss6*%
X29340000Y-84140000D03*
%TO.P,J10,14,Pin_14*%
%TO.N,GND*%
X26800000Y-84140000D03*
%TO.P,J10,15,Pin_15*%
%TO.N,Buss7*%
X29340000Y-86680000D03*
%TO.P,J10,16,Pin_16*%
%TO.N,VCC*%
X26800000Y-86680000D03*
%TD*%
D11*
%TO.P,J1,1,Pin_1*%
%TO.N,VCC*%
X30000000Y-194600000D03*
D12*
%TO.P,J1,2,Pin_2*%
%TO.N,GND*%
X30000000Y-192060000D03*
%TO.P,J1,3,Pin_3*%
%TO.N,rst*%
X30000000Y-189520000D03*
%TO.P,J1,4,Pin_4*%
%TO.N,Read New Instruction*%
X30000000Y-186980000D03*
%TO.P,J1,5,Pin_5*%
%TO.N,Faling Edge*%
X30000000Y-184440000D03*
%TO.P,J1,6,Pin_6*%
%TO.N,Buss0*%
X30000000Y-181900000D03*
%TO.P,J1,7,Pin_7*%
%TO.N,Buss1*%
X30000000Y-179360000D03*
%TO.P,J1,8,Pin_8*%
%TO.N,Buss2*%
X30000000Y-176820000D03*
%TO.P,J1,9,Pin_9*%
%TO.N,Buss3*%
X30000000Y-174280000D03*
%TO.P,J1,10,Pin_10*%
%TO.N,Buss4*%
X30000000Y-171740000D03*
%TO.P,J1,11,Pin_11*%
%TO.N,Buss5*%
X30000000Y-169200000D03*
%TO.P,J1,12,Pin_12*%
%TO.N,Buss6*%
X30000000Y-166660000D03*
%TO.P,J1,13,Pin_13*%
%TO.N,Buss7*%
X30000000Y-164120000D03*
%TO.P,J1,14,Pin_14*%
%TO.N,Net-(J1-Pin_14)*%
X30000000Y-161580000D03*
%TO.P,J1,15,Pin_15*%
%TO.N,Net-(J1-Pin_15)*%
X30000000Y-159040000D03*
%TO.P,J1,16,Pin_16*%
%TO.N,Net-(J1-Pin_16)*%
X30000000Y-156500000D03*
%TO.P,J1,17,Pin_17*%
%TO.N,Net-(J1-Pin_17)*%
X30000000Y-153960000D03*
%TO.P,J1,18,Pin_18*%
%TO.N,Net-(J1-Pin_18)*%
X30000000Y-151420000D03*
%TO.P,J1,19,Pin_19*%
%TO.N,Net-(J1-Pin_19)*%
X30000000Y-148880000D03*
%TO.P,J1,20,Pin_20*%
%TO.N,Net-(J1-Pin_20)*%
X30000000Y-146340000D03*
%TO.P,J1,21,Pin_21*%
%TO.N,Net-(J1-Pin_21)*%
X30000000Y-143800000D03*
%TD*%
D11*
%TO.P,J16,1,Pin_1*%
%TO.N,VCC*%
X380990000Y-93820000D03*
D12*
%TO.P,J16,2,Pin_2*%
%TO.N,Net-(J16-Pin_2)*%
X378450000Y-93820000D03*
%TO.P,J16,3,Pin_3*%
%TO.N,GND*%
X380990000Y-96360000D03*
%TO.P,J16,4,Pin_4*%
%TO.N,Net-(J16-Pin_4)*%
X378450000Y-96360000D03*
%TO.P,J16,5,Pin_5*%
%TO.N,VCC*%
X380990000Y-98900000D03*
%TO.P,J16,6,Pin_6*%
%TO.N,Net-(J16-Pin_6)*%
X378450000Y-98900000D03*
%TO.P,J16,7,Pin_7*%
%TO.N,GND*%
X380990000Y-101440000D03*
%TO.P,J16,8,Pin_8*%
%TO.N,Net-(J16-Pin_8)*%
X378450000Y-101440000D03*
%TO.P,J16,9,Pin_9*%
%TO.N,VCC*%
X380990000Y-103980000D03*
%TO.P,J16,10,Pin_10*%
%TO.N,Net-(J16-Pin_10)*%
X378450000Y-103980000D03*
%TO.P,J16,11,Pin_11*%
%TO.N,GND*%
X380990000Y-106520000D03*
%TO.P,J16,12,Pin_12*%
%TO.N,Net-(J16-Pin_12)*%
X378450000Y-106520000D03*
%TO.P,J16,13,Pin_13*%
%TO.N,VCC*%
X380990000Y-109060000D03*
%TO.P,J16,14,Pin_14*%
%TO.N,Net-(J16-Pin_14)*%
X378450000Y-109060000D03*
%TO.P,J16,15,Pin_15*%
%TO.N,GND*%
X380990000Y-111600000D03*
%TO.P,J16,16,Pin_16*%
%TO.N,Net-(J16-Pin_16)*%
X378450000Y-111600000D03*
%TD*%
D11*
%TO.P,J18,1,Pin_1*%
%TO.N,VCC*%
X317975000Y-26462500D03*
D12*
%TO.P,J18,2,Pin_2*%
%TO.N,GND*%
X320515000Y-26462500D03*
%TD*%
D13*
%TO.P,R21,1*%
%TO.N,VCC*%
X65100000Y-87000000D03*
%TO.P,R21,2*%
%TO.N,Net-(Q604-D)*%
X57480000Y-87000000D03*
%TD*%
D10*
%TO.P,C20,1*%
%TO.N,VCC*%
X216250000Y-102500000D03*
%TO.P,C20,2*%
%TO.N,GND*%
X223750000Y-102500000D03*
%TD*%
D11*
%TO.P,J52,1,Pin_1*%
%TO.N,GND*%
X395290000Y-93820000D03*
D12*
%TO.P,J52,2,Pin_2*%
%TO.N,Net-(J16-Pin_16)*%
X392750000Y-93820000D03*
%TO.P,J52,3,Pin_3*%
%TO.N,VCC*%
X395290000Y-96360000D03*
%TO.P,J52,4,Pin_4*%
%TO.N,Net-(J16-Pin_14)*%
X392750000Y-96360000D03*
%TO.P,J52,5,Pin_5*%
%TO.N,GND*%
X395290000Y-98900000D03*
%TO.P,J52,6,Pin_6*%
%TO.N,Net-(J16-Pin_12)*%
X392750000Y-98900000D03*
%TO.P,J52,7,Pin_7*%
%TO.N,VCC*%
X395290000Y-101440000D03*
%TO.P,J52,8,Pin_8*%
%TO.N,Net-(J16-Pin_10)*%
X392750000Y-101440000D03*
%TO.P,J52,9,Pin_9*%
%TO.N,GND*%
X395290000Y-103980000D03*
%TO.P,J52,10,Pin_10*%
%TO.N,Net-(J16-Pin_8)*%
X392750000Y-103980000D03*
%TO.P,J52,11,Pin_11*%
%TO.N,VCC*%
X395290000Y-106520000D03*
%TO.P,J52,12,Pin_12*%
%TO.N,Net-(J16-Pin_6)*%
X392750000Y-106520000D03*
%TO.P,J52,13,Pin_13*%
%TO.N,GND*%
X395290000Y-109060000D03*
%TO.P,J52,14,Pin_14*%
%TO.N,Net-(J16-Pin_4)*%
X392750000Y-109060000D03*
%TO.P,J52,15,Pin_15*%
%TO.N,VCC*%
X395290000Y-111600000D03*
%TO.P,J52,16,Pin_16*%
%TO.N,Net-(J16-Pin_2)*%
X392750000Y-111600000D03*
%TD*%
D13*
%TO.P,R389,1*%
%TO.N,Net-(Q607-G)*%
X44410000Y-93000000D03*
%TO.P,R389,2*%
%TO.N,GND*%
X36790000Y-93000000D03*
%TD*%
D11*
%TO.P,J20,1,Pin_1*%
%TO.N,GND*%
X388140000Y-93820000D03*
D12*
%TO.P,J20,2,Pin_2*%
%TO.N,Net-(J20-Pin_2)*%
X385600000Y-93820000D03*
%TO.P,J20,3,Pin_3*%
%TO.N,RST*%
X388140000Y-96360000D03*
%TO.P,J20,4,Pin_4*%
%TO.N,Net-(J20-Pin_4)*%
X385600000Y-96360000D03*
%TO.P,J20,5,Pin_5*%
%TO.N,Rising_Edge*%
X388140000Y-98900000D03*
%TO.P,J20,6,Pin_6*%
%TO.N,Net-(J20-Pin_6)*%
X385600000Y-98900000D03*
%TO.P,J20,7,Pin_7*%
%TO.N,/ALU B -> FF*%
X388140000Y-101440000D03*
%TO.P,J20,8,Pin_8*%
%TO.N,Net-(J20-Pin_8)*%
X385600000Y-101440000D03*
%TO.P,J20,9,Pin_9*%
%TO.N,Net-(J20-Pin_9)*%
X388140000Y-103980000D03*
%TO.P,J20,10,Pin_10*%
%TO.N,Net-(J20-Pin_10)*%
X385600000Y-103980000D03*
%TO.P,J20,11,Pin_11*%
%TO.N,Net-(J20-Pin_11)*%
X388140000Y-106520000D03*
%TO.P,J20,12,Pin_12*%
%TO.N,Net-(J20-Pin_12)*%
X385600000Y-106520000D03*
%TO.P,J20,13,Pin_13*%
%TO.N,Net-(J20-Pin_13)*%
X388140000Y-109060000D03*
%TO.P,J20,14,Pin_14*%
%TO.N,Net-(J20-Pin_14)*%
X385600000Y-109060000D03*
%TO.P,J20,15,Pin_15*%
%TO.N,Net-(J20-Pin_15)*%
X388140000Y-111600000D03*
%TO.P,J20,16,Pin_16*%
%TO.N,Net-(J20-Pin_16)*%
X385600000Y-111600000D03*
%TD*%
D11*
%TO.P,J17,1,Pin_1*%
%TO.N,VCC*%
X336150000Y-114462500D03*
D12*
%TO.P,J17,2,Pin_2*%
%TO.N,GND*%
X336150000Y-117002500D03*
%TD*%
D11*
%TO.P,J15,1,Pin_1*%
%TO.N,Net-(J15-Pin_1)*%
X373840000Y-93820000D03*
D12*
%TO.P,J15,2,Pin_2*%
%TO.N,Net-(J15-Pin_2)*%
X371300000Y-93820000D03*
%TO.P,J15,3,Pin_3*%
%TO.N,Net-(J15-Pin_3)*%
X373840000Y-96360000D03*
%TO.P,J15,4,Pin_4*%
%TO.N,Net-(J15-Pin_4)*%
X371300000Y-96360000D03*
%TO.P,J15,5,Pin_5*%
%TO.N,Net-(J15-Pin_5)*%
X373840000Y-98900000D03*
%TO.P,J15,6,Pin_6*%
%TO.N,Net-(J15-Pin_6)*%
X371300000Y-98900000D03*
%TO.P,J15,7,Pin_7*%
%TO.N,Net-(J15-Pin_7)*%
X373840000Y-101440000D03*
%TO.P,J15,8,Pin_8*%
%TO.N,Net-(J15-Pin_8)*%
X371300000Y-101440000D03*
%TO.P,J15,9,Pin_9*%
%TO.N,Net-(J15-Pin_9)*%
X373840000Y-103980000D03*
%TO.P,J15,10,Pin_10*%
%TO.N,Net-(J15-Pin_10)*%
X371300000Y-103980000D03*
%TO.P,J15,11,Pin_11*%
%TO.N,Net-(J15-Pin_11)*%
X373840000Y-106520000D03*
%TO.P,J15,12,Pin_12*%
%TO.N,Net-(J15-Pin_12)*%
X371300000Y-106520000D03*
%TO.P,J15,13,Pin_13*%
%TO.N,Net-(J15-Pin_13)*%
X373840000Y-109060000D03*
%TO.P,J15,14,Pin_14*%
%TO.N,Net-(J15-Pin_14)*%
X371300000Y-109060000D03*
%TO.P,J15,15,Pin_15*%
%TO.N,Net-(J15-Pin_15)*%
X373840000Y-111600000D03*
%TO.P,J15,16,Pin_16*%
%TO.N,Net-(J15-Pin_16)*%
X371300000Y-111600000D03*
%TD*%
D13*
%TO.P,R77,1*%
%TO.N,VCC*%
X36780000Y-99000000D03*
%TO.P,R77,2*%
%TO.N,Rising Edge*%
X44400000Y-99000000D03*
%TD*%
D11*
%TO.P,J3,1,Pin_1*%
%TO.N,VCC*%
X133900000Y-73000000D03*
D12*
%TO.P,J3,2,Pin_2*%
%TO.N,GND*%
X136440000Y-73000000D03*
%TO.P,J3,3,Pin_3*%
%TO.N,rst*%
X138980000Y-73000000D03*
%TO.P,J3,4,Pin_4*%
%TO.N,VCC*%
X141520000Y-73000000D03*
%TO.P,J3,5,Pin_5*%
%TO.N,Rising Edge*%
X144060000Y-73000000D03*
%TO.P,J3,6,Pin_6*%
%TO.N,NEXT ADR 8*%
X146600000Y-73000000D03*
%TO.P,J3,7,Pin_7*%
%TO.N,NEXT ADR 9*%
X149140000Y-73000000D03*
%TO.P,J3,8,Pin_8*%
%TO.N,NEXT ADR 10*%
X151680000Y-73000000D03*
%TO.P,J3,9,Pin_9*%
%TO.N,NEXT ADR 11*%
X154220000Y-73000000D03*
%TO.P,J3,10,Pin_10*%
%TO.N,NEXT ADR 12*%
X156760000Y-73000000D03*
%TO.P,J3,11,Pin_11*%
%TO.N,NEXT ADR 13*%
X159300000Y-73000000D03*
%TO.P,J3,12,Pin_12*%
%TO.N,NEXT ADR 14*%
X161840000Y-73000000D03*
%TO.P,J3,13,Pin_13*%
%TO.N,NEXT ADR 15*%
X164380000Y-73000000D03*
%TO.P,J3,14,Pin_14*%
%TO.N,STORED ADR 8*%
X166920000Y-73000000D03*
%TO.P,J3,15,Pin_15*%
%TO.N,STORED ADR 9*%
X169460000Y-73000000D03*
%TO.P,J3,16,Pin_16*%
%TO.N,STORED ADR 10*%
X172000000Y-73000000D03*
%TO.P,J3,17,Pin_17*%
%TO.N,STORED ADR 11*%
X174540000Y-73000000D03*
%TO.P,J3,18,Pin_18*%
%TO.N,STORED ADR 12*%
X177080000Y-73000000D03*
%TO.P,J3,19,Pin_19*%
%TO.N,STORED ADR 13*%
X179620000Y-73000000D03*
%TO.P,J3,20,Pin_20*%
%TO.N,STORED ADR 14*%
X182160000Y-73000000D03*
%TO.P,J3,21,Pin_21*%
%TO.N,STORED ADR 15*%
X184700000Y-73000000D03*
%TD*%
D11*
%TO.P,J29,1,Pin_1*%
%TO.N,VCC*%
X253140000Y-189640000D03*
D12*
%TO.P,J29,2,Pin_2*%
%TO.N,GND*%
X250600000Y-189640000D03*
%TO.P,J29,3,Pin_3*%
%TO.N,Net-(J29-Pin_3)*%
X253140000Y-192180000D03*
%TO.P,J29,4,Pin_4*%
%TO.N,/N*%
X250600000Y-192180000D03*
%TO.P,J29,5,Pin_5*%
%TO.N,Net-(J29-Pin_5)*%
X253140000Y-194720000D03*
%TO.P,J29,6,Pin_6*%
%TO.N,/Z*%
X250600000Y-194720000D03*
%TO.P,J29,7,Pin_7*%
%TO.N,Net-(J29-Pin_7)*%
X253140000Y-197260000D03*
%TO.P,J29,8,Pin_8*%
%TO.N,/U*%
X250600000Y-197260000D03*
%TO.P,J29,9,Pin_9*%
%TO.N,Net-(J29-Pin_9)*%
X253140000Y-199800000D03*
%TO.P,J29,10,Pin_10*%
%TO.N,/O*%
X250600000Y-199800000D03*
%TO.P,J29,11,Pin_11*%
%TO.N,Net-(J29-Pin_11)*%
X253140000Y-202340000D03*
%TO.P,J29,12,Pin_12*%
%TO.N,/C_out*%
X250600000Y-202340000D03*
%TO.P,J29,13,Pin_13*%
%TO.N,Net-(J29-Pin_13)*%
X253140000Y-204880000D03*
%TO.P,J29,14,Pin_14*%
%TO.N,/C_in*%
X250600000Y-204880000D03*
%TO.P,J29,15,Pin_15*%
%TO.N,VCC*%
X253140000Y-207420000D03*
%TO.P,J29,16,Pin_16*%
%TO.N,GND*%
X250600000Y-207420000D03*
%TD*%
D13*
%TO.P,R388,1*%
%TO.N,Net-(Q606-G)*%
X57480000Y-90000000D03*
%TO.P,R388,2*%
%TO.N,GND*%
X65100000Y-90000000D03*
%TD*%
%TO.P,R410,1*%
%TO.N,Net-(Q606-G)*%
X57480000Y-93000000D03*
%TO.P,R410,2*%
%TO.N,GND*%
X65100000Y-93000000D03*
%TD*%
D11*
%TO.P,J12,1,Pin_1*%
%TO.N,Main bus 7*%
X233300000Y-46880000D03*
D12*
%TO.P,J12,2,Pin_2*%
%TO.N,GND*%
X235840000Y-46880000D03*
%TO.P,J12,3,Pin_3*%
%TO.N,Main bus 6*%
X233300000Y-44340000D03*
%TO.P,J12,4,Pin_4*%
%TO.N,VCC*%
X235840000Y-44340000D03*
%TO.P,J12,5,Pin_5*%
%TO.N,Main bus 5*%
X233300000Y-41800000D03*
%TO.P,J12,6,Pin_6*%
%TO.N,GND*%
X235840000Y-41800000D03*
%TO.P,J12,7,Pin_7*%
%TO.N,Main bus 4*%
X233300000Y-39260000D03*
%TO.P,J12,8,Pin_8*%
%TO.N,VCC*%
X235840000Y-39260000D03*
%TO.P,J12,9,Pin_9*%
%TO.N,Main bus 3*%
X233300000Y-36720000D03*
%TO.P,J12,10,Pin_10*%
%TO.N,GND*%
X235840000Y-36720000D03*
%TO.P,J12,11,Pin_11*%
%TO.N,Main bus 2*%
X233300000Y-34180000D03*
%TO.P,J12,12,Pin_12*%
%TO.N,VCC*%
X235840000Y-34180000D03*
%TO.P,J12,13,Pin_13*%
%TO.N,Main bus 1*%
X233300000Y-31640000D03*
%TO.P,J12,14,Pin_14*%
%TO.N,GND*%
X235840000Y-31640000D03*
%TO.P,J12,15,Pin_15*%
%TO.N,Main bus 0*%
X233300000Y-29100000D03*
%TO.P,J12,16,Pin_16*%
%TO.N,VCC*%
X235840000Y-29100000D03*
%TD*%
D13*
%TO.P,C2,1*%
%TO.N,Net-(Q605-D)*%
X47000000Y-90400000D03*
%TO.P,C2,2*%
%TO.N,Net-(Q607-G)*%
X47000000Y-85400000D03*
%TD*%
D11*
%TO.P,J2,1,Pin_1*%
%TO.N,VCC*%
X56100000Y-73000000D03*
D12*
%TO.P,J2,2,Pin_2*%
%TO.N,GND*%
X58640000Y-73000000D03*
%TO.P,J2,3,Pin_3*%
%TO.N,rst*%
X61180000Y-73000000D03*
%TO.P,J2,4,Pin_4*%
%TO.N,VCC*%
X63720000Y-73000000D03*
%TO.P,J2,5,Pin_5*%
%TO.N,Rising Edge*%
X66260000Y-73000000D03*
%TO.P,J2,6,Pin_6*%
%TO.N,NEXT ADR 0*%
X68800000Y-73000000D03*
%TO.P,J2,7,Pin_7*%
%TO.N,NEXT ADR 1*%
X71340000Y-73000000D03*
%TO.P,J2,8,Pin_8*%
%TO.N,NEXT ADR 2*%
X73880000Y-73000000D03*
%TO.P,J2,9,Pin_9*%
%TO.N,NEXT ADR 3*%
X76420000Y-73000000D03*
%TO.P,J2,10,Pin_10*%
%TO.N,NEXT ADR 4*%
X78960000Y-73000000D03*
%TO.P,J2,11,Pin_11*%
%TO.N,NEXT ADR 5*%
X81500000Y-73000000D03*
%TO.P,J2,12,Pin_12*%
%TO.N,NEXT ADR 6*%
X84040000Y-73000000D03*
%TO.P,J2,13,Pin_13*%
%TO.N,NEXT ADR 7*%
X86580000Y-73000000D03*
%TO.P,J2,14,Pin_14*%
%TO.N,STORED ADR 0*%
X89120000Y-73000000D03*
%TO.P,J2,15,Pin_15*%
%TO.N,STORED ADR 1*%
X91660000Y-73000000D03*
%TO.P,J2,16,Pin_16*%
%TO.N,STORED ADR 2*%
X94200000Y-73000000D03*
%TO.P,J2,17,Pin_17*%
%TO.N,STORED ADR 3*%
X96740000Y-73000000D03*
%TO.P,J2,18,Pin_18*%
%TO.N,STORED ADR 4*%
X99280000Y-73000000D03*
%TO.P,J2,19,Pin_19*%
%TO.N,STORED ADR 5*%
X101820000Y-73000000D03*
%TO.P,J2,20,Pin_20*%
%TO.N,STORED ADR 6*%
X104360000Y-73000000D03*
%TO.P,J2,21,Pin_21*%
%TO.N,STORED ADR 7*%
X106900000Y-73000000D03*
%TD*%
D11*
%TO.P,J22,1,Pin_1*%
%TO.N,VCC*%
X306950000Y-35762500D03*
D12*
%TO.P,J22,2,Pin_2*%
%TO.N,GND*%
X306950000Y-38302500D03*
%TO.P,J22,3,Pin_3*%
%TO.N,RST*%
X306950000Y-40842500D03*
%TO.P,J22,4,Pin_4*%
%TO.N,Net-(J20-Pin_13)*%
X306950000Y-43382500D03*
%TO.P,J22,5,Pin_5*%
%TO.N,Rising_Edge*%
X306950000Y-45922500D03*
%TO.P,J22,6,Pin_6*%
%TO.N,Net-(J16-Pin_2)*%
X306950000Y-48462500D03*
%TO.P,J22,7,Pin_7*%
%TO.N,Net-(J16-Pin_4)*%
X306950000Y-51002500D03*
%TO.P,J22,8,Pin_8*%
%TO.N,Net-(J16-Pin_6)*%
X306950000Y-53542500D03*
%TO.P,J22,9,Pin_9*%
%TO.N,Net-(J16-Pin_8)*%
X306950000Y-56082500D03*
%TO.P,J22,10,Pin_10*%
%TO.N,Net-(J16-Pin_10)*%
X306950000Y-58622500D03*
%TO.P,J22,11,Pin_11*%
%TO.N,Net-(J16-Pin_12)*%
X306950000Y-61162500D03*
%TO.P,J22,12,Pin_12*%
%TO.N,Net-(J16-Pin_14)*%
X306950000Y-63702500D03*
%TO.P,J22,13,Pin_13*%
%TO.N,Net-(J16-Pin_16)*%
X306950000Y-66242500D03*
%TO.P,J22,14,Pin_14*%
%TO.N,Net-(J22-Pin_14)*%
X306950000Y-68782500D03*
%TO.P,J22,15,Pin_15*%
%TO.N,Net-(J22-Pin_15)*%
X306950000Y-71322500D03*
%TO.P,J22,16,Pin_16*%
%TO.N,Net-(J22-Pin_16)*%
X306950000Y-73862500D03*
%TO.P,J22,17,Pin_17*%
%TO.N,Net-(J22-Pin_17)*%
X306950000Y-76402500D03*
%TO.P,J22,18,Pin_18*%
%TO.N,Net-(J22-Pin_18)*%
X306950000Y-78942500D03*
%TO.P,J22,19,Pin_19*%
%TO.N,Net-(J22-Pin_19)*%
X306950000Y-81482500D03*
%TO.P,J22,20,Pin_20*%
%TO.N,Net-(J22-Pin_20)*%
X306950000Y-84022500D03*
%TO.P,J22,21,Pin_21*%
%TO.N,Net-(J22-Pin_21)*%
X306950000Y-86562500D03*
%TD*%
D13*
%TO.P,R74,1*%
%TO.N,VCC*%
X65100000Y-99000000D03*
%TO.P,R74,2*%
%TO.N,Faling Edge*%
X57480000Y-99000000D03*
%TD*%
%TO.P,R411,1*%
%TO.N,Net-(Q607-G)*%
X44410000Y-90000000D03*
%TO.P,R411,2*%
%TO.N,GND*%
X36790000Y-90000000D03*
%TD*%
D11*
%TO.P,J21,1,Pin_1*%
%TO.N,VCC*%
X274950000Y-35762500D03*
D12*
%TO.P,J21,2,Pin_2*%
%TO.N,GND*%
X274950000Y-38302500D03*
%TO.P,J21,3,Pin_3*%
%TO.N,RST*%
X274950000Y-40842500D03*
%TO.P,J21,4,Pin_4*%
%TO.N,Net-(J20-Pin_15)*%
X274950000Y-43382500D03*
%TO.P,J21,5,Pin_5*%
%TO.N,Rising_Edge*%
X274950000Y-45922500D03*
%TO.P,J21,6,Pin_6*%
%TO.N,Net-(J16-Pin_2)*%
X274950000Y-48462500D03*
%TO.P,J21,7,Pin_7*%
%TO.N,Net-(J16-Pin_4)*%
X274950000Y-51002500D03*
%TO.P,J21,8,Pin_8*%
%TO.N,Net-(J16-Pin_6)*%
X274950000Y-53542500D03*
%TO.P,J21,9,Pin_9*%
%TO.N,Net-(J16-Pin_8)*%
X274950000Y-56082500D03*
%TO.P,J21,10,Pin_10*%
%TO.N,Net-(J16-Pin_10)*%
X274950000Y-58622500D03*
%TO.P,J21,11,Pin_11*%
%TO.N,Net-(J16-Pin_12)*%
X274950000Y-61162500D03*
%TO.P,J21,12,Pin_12*%
%TO.N,Net-(J16-Pin_14)*%
X274950000Y-63702500D03*
%TO.P,J21,13,Pin_13*%
%TO.N,Net-(J16-Pin_16)*%
X274950000Y-66242500D03*
%TO.P,J21,14,Pin_14*%
%TO.N,Net-(J21-Pin_14)*%
X274950000Y-68782500D03*
%TO.P,J21,15,Pin_15*%
%TO.N,Net-(J21-Pin_15)*%
X274950000Y-71322500D03*
%TO.P,J21,16,Pin_16*%
%TO.N,Net-(J21-Pin_16)*%
X274950000Y-73862500D03*
%TO.P,J21,17,Pin_17*%
%TO.N,Net-(J21-Pin_17)*%
X274950000Y-76402500D03*
%TO.P,J21,18,Pin_18*%
%TO.N,Net-(J21-Pin_18)*%
X274950000Y-78942500D03*
%TO.P,J21,19,Pin_19*%
%TO.N,Net-(J21-Pin_19)*%
X274950000Y-81482500D03*
%TO.P,J21,20,Pin_20*%
%TO.N,Net-(J21-Pin_20)*%
X274950000Y-84022500D03*
%TO.P,J21,21,Pin_21*%
%TO.N,Net-(J21-Pin_21)*%
X274950000Y-86562500D03*
%TD*%
D11*
%TO.P,J25,1,Pin_1*%
%TO.N,Net-(J25-Pin_1)*%
X267060000Y-125040000D03*
D12*
%TO.P,J25,2,Pin_2*%
%TO.N,Net-(J25-Pin_2)*%
X267060000Y-122500000D03*
%TO.P,J25,3,Pin_3*%
%TO.N,Net-(J25-Pin_3)*%
X264520000Y-125040000D03*
%TO.P,J25,4,Pin_4*%
%TO.N,Net-(J25-Pin_4)*%
X264520000Y-122500000D03*
%TO.P,J25,5,Pin_5*%
%TO.N,Net-(J25-Pin_5)*%
X261980000Y-125040000D03*
%TO.P,J25,6,Pin_6*%
%TO.N,Net-(J25-Pin_6)*%
X261980000Y-122500000D03*
%TO.P,J25,7,Pin_7*%
%TO.N,Net-(J25-Pin_7)*%
X259440000Y-125040000D03*
%TO.P,J25,8,Pin_8*%
%TO.N,Net-(J25-Pin_8)*%
X259440000Y-122500000D03*
%TO.P,J25,9,Pin_9*%
%TO.N,Net-(J25-Pin_9)*%
X256900000Y-125040000D03*
%TO.P,J25,10,Pin_10*%
%TO.N,Net-(J25-Pin_10)*%
X256900000Y-122500000D03*
%TO.P,J25,11,Pin_11*%
%TO.N,Net-(J25-Pin_11)*%
X254360000Y-125040000D03*
%TO.P,J25,12,Pin_12*%
%TO.N,Net-(J25-Pin_12)*%
X254360000Y-122500000D03*
%TO.P,J25,13,Pin_13*%
%TO.N,Net-(J25-Pin_13)*%
X251820000Y-125040000D03*
%TO.P,J25,14,Pin_14*%
%TO.N,Net-(J25-Pin_14)*%
X251820000Y-122500000D03*
%TO.P,J25,15,Pin_15*%
%TO.N,Net-(J25-Pin_15)*%
X249280000Y-125040000D03*
%TO.P,J25,16,Pin_16*%
%TO.N,Net-(J25-Pin_16)*%
X249280000Y-122500000D03*
%TD*%
D11*
%TO.P,J8,1,Pin_1*%
%TO.N,Rising Edge*%
X50900000Y-93500000D03*
%TD*%
%TO.P,J23,1,Pin_1*%
%TO.N,VCC*%
X338950000Y-35762500D03*
D12*
%TO.P,J23,2,Pin_2*%
%TO.N,GND*%
X338950000Y-38302500D03*
%TO.P,J23,3,Pin_3*%
%TO.N,RST*%
X338950000Y-40842500D03*
%TO.P,J23,4,Pin_4*%
%TO.N,Net-(J20-Pin_11)*%
X338950000Y-43382500D03*
%TO.P,J23,5,Pin_5*%
%TO.N,Rising_Edge*%
X338950000Y-45922500D03*
%TO.P,J23,6,Pin_6*%
%TO.N,Net-(J16-Pin_2)*%
X338950000Y-48462500D03*
%TO.P,J23,7,Pin_7*%
%TO.N,Net-(J16-Pin_4)*%
X338950000Y-51002500D03*
%TO.P,J23,8,Pin_8*%
%TO.N,Net-(J16-Pin_6)*%
X338950000Y-53542500D03*
%TO.P,J23,9,Pin_9*%
%TO.N,Net-(J16-Pin_8)*%
X338950000Y-56082500D03*
%TO.P,J23,10,Pin_10*%
%TO.N,Net-(J16-Pin_10)*%
X338950000Y-58622500D03*
%TO.P,J23,11,Pin_11*%
%TO.N,Net-(J16-Pin_12)*%
X338950000Y-61162500D03*
%TO.P,J23,12,Pin_12*%
%TO.N,Net-(J16-Pin_14)*%
X338950000Y-63702500D03*
%TO.P,J23,13,Pin_13*%
%TO.N,Net-(J16-Pin_16)*%
X338950000Y-66242500D03*
%TO.P,J23,14,Pin_14*%
%TO.N,Net-(J23-Pin_14)*%
X338950000Y-68782500D03*
%TO.P,J23,15,Pin_15*%
%TO.N,Net-(J23-Pin_15)*%
X338950000Y-71322500D03*
%TO.P,J23,16,Pin_16*%
%TO.N,Net-(J23-Pin_16)*%
X338950000Y-73862500D03*
%TO.P,J23,17,Pin_17*%
%TO.N,Net-(J23-Pin_17)*%
X338950000Y-76402500D03*
%TO.P,J23,18,Pin_18*%
%TO.N,Net-(J23-Pin_18)*%
X338950000Y-78942500D03*
%TO.P,J23,19,Pin_19*%
%TO.N,Net-(J23-Pin_19)*%
X338950000Y-81482500D03*
%TO.P,J23,20,Pin_20*%
%TO.N,Net-(J23-Pin_20)*%
X338950000Y-84022500D03*
%TO.P,J23,21,Pin_21*%
%TO.N,Net-(J23-Pin_21)*%
X338950000Y-86562500D03*
%TD*%
D13*
%TO.P,C1,1*%
%TO.N,Net-(Q604-D)*%
X54900000Y-85400000D03*
%TO.P,C1,2*%
%TO.N,Net-(Q606-G)*%
X54900000Y-90400000D03*
%TD*%
D11*
%TO.P,J9,1,Pin_1*%
%TO.N,Read New Instruction*%
X54062500Y-160075000D03*
%TD*%
D14*
%TO.N,Net-(J29-Pin_3)*%
X362000000Y-210900000D03*
X365200000Y-198000000D03*
%TO.N,GND*%
X362000000Y-219400000D03*
%TO.N,VCC*%
X367900000Y-215900000D03*
%TO.N,Net-(J25-Pin_16)*%
X364579016Y-165179016D03*
%TO.N,GND*%
X365200000Y-205200000D03*
X364700000Y-164000000D03*
X364500000Y-193200000D03*
X364700000Y-182200000D03*
%TO.N,VCC*%
X368800000Y-169100000D03*
%TO.N,GND*%
X364800000Y-169100000D03*
%TO.N,VCC*%
X367900000Y-190700000D03*
X366400000Y-194000000D03*
X369500000Y-176400000D03*
X364700000Y-183300000D03*
D15*
%TO.N,GND*%
X366900000Y-151900000D03*
%TO.N,VCC*%
X365930000Y-154230000D03*
%TO.N,GND*%
X366900000Y-148100000D03*
%TO.N,VCC*%
X365930000Y-150430000D03*
%TO.N,GND*%
X366900000Y-144300000D03*
%TO.N,VCC*%
X365930000Y-146630000D03*
%TO.N,GND*%
X366900000Y-140500000D03*
%TO.N,VCC*%
X365930000Y-142830000D03*
%TO.N,GND*%
X366900000Y-136700000D03*
%TO.N,VCC*%
X365930000Y-139030000D03*
%TO.N,GND*%
X366900000Y-132900000D03*
%TO.N,VCC*%
X365930000Y-135230000D03*
%TO.N,GND*%
X366900000Y-129100000D03*
%TO.N,VCC*%
X365930000Y-131430000D03*
%TO.N,GND*%
X366900000Y-125300000D03*
%TO.N,VCC*%
X365930000Y-127630000D03*
%TO.N,GND*%
X355200000Y-193500000D03*
%TO.N,VCC*%
X351350000Y-193150000D03*
%TO.N,GND*%
X355200000Y-181500000D03*
%TO.N,VCC*%
X351350000Y-181150000D03*
%TO.N,GND*%
X355200000Y-169500000D03*
%TO.N,VCC*%
X351350000Y-169150000D03*
%TO.N,GND*%
X355200000Y-157500000D03*
%TO.N,VCC*%
X351350000Y-157150000D03*
%TO.N,GND*%
X355200000Y-145500000D03*
%TO.N,VCC*%
X351350000Y-145150000D03*
%TO.N,GND*%
X355200000Y-133500000D03*
%TO.N,VCC*%
X351350000Y-133150000D03*
%TO.N,GND*%
X334800000Y-210600000D03*
X334800000Y-197600000D03*
X334800000Y-185600000D03*
X334800000Y-173600000D03*
X334800000Y-161600000D03*
X334800000Y-149600000D03*
X334800000Y-137600000D03*
D14*
%TO.N,Net-(J25-Pin_15)*%
X280600000Y-213900000D03*
%TO.N,Net-(J25-Pin_16)*%
X277100000Y-205600000D03*
%TO.N,Net-(J25-Pin_14)*%
X277000000Y-194600000D03*
%TO.N,Net-(J25-Pin_13)*%
X280600000Y-203000000D03*
%TO.N,Net-(J25-Pin_11)*%
X280600000Y-191900000D03*
%TO.N,Net-(J25-Pin_12)*%
X277100000Y-183700000D03*
%TO.N,Net-(J25-Pin_10)*%
X277100000Y-172600000D03*
%TO.N,Net-(J25-Pin_9)*%
X280600000Y-181000000D03*
%TO.N,Net-(J25-Pin_1)*%
X280500000Y-137000000D03*
%TO.N,Net-(J25-Pin_3)*%
X280600000Y-148000000D03*
%TO.N,Net-(J25-Pin_5)*%
X280600000Y-159000000D03*
%TO.N,Net-(J25-Pin_7)*%
X280600000Y-170000000D03*
%TO.N,Net-(J25-Pin_8)*%
X277000000Y-161500000D03*
%TO.N,Net-(J25-Pin_6)*%
X277000000Y-150600000D03*
%TO.N,Net-(J25-Pin_4)*%
X277000000Y-139500000D03*
%TO.N,Net-(J25-Pin_2)*%
X277000000Y-128500000D03*
%TO.N,Net-(Q1093-D)*%
X305800000Y-206800000D03*
%TO.N,Net-(Q1065-D)*%
X305800000Y-195700000D03*
%TO.N,Net-(Q1038-D)*%
X305800000Y-184800000D03*
%TO.N,Net-(Q1016-D)*%
X305800000Y-173800000D03*
%TO.N,Net-(Q1002-G)*%
X305800000Y-162800000D03*
%TO.N,Net-(Q1159-G)*%
X305800000Y-151800000D03*
%TO.N,Net-(Q1147-G)*%
X305800000Y-140700000D03*
%TO.N,Net-(Q1135-G)*%
X305600000Y-129500000D03*
%TO.N,Net-(J25-Pin_1)*%
X294800000Y-131200000D03*
X287665781Y-131265781D03*
%TO.N,Net-(J25-Pin_3)*%
X294800000Y-142200000D03*
X287665781Y-142265781D03*
%TO.N,Net-(J25-Pin_5)*%
X294800000Y-153200000D03*
X287715781Y-153215781D03*
%TO.N,Net-(J25-Pin_15)*%
X294800000Y-208200000D03*
X287665781Y-208265781D03*
%TO.N,Net-(J25-Pin_13)*%
X294800000Y-197200000D03*
X287665781Y-197265781D03*
%TO.N,Net-(J25-Pin_11)*%
X294800000Y-186200000D03*
X287633123Y-186298438D03*
%TO.N,Net-(J25-Pin_9)*%
X294800000Y-175200000D03*
X287615781Y-175315781D03*
%TO.N,Net-(J25-Pin_7)*%
X294800000Y-164200000D03*
X287615781Y-164315781D03*
%TO.N,/C_in*%
X294800000Y-136400000D03*
%TO.N,Net-(Q914-D)*%
X294800000Y-147400000D03*
%TO.N,Net-(Q941-D)*%
X294800000Y-158400000D03*
%TO.N,Net-(Q966-D)*%
X294800000Y-169400000D03*
%TO.N,Net-(Q1017-G)*%
X294800000Y-180400000D03*
%TO.N,Net-(Q1019-D)*%
X294800000Y-191400000D03*
%TO.N,Net-(Q1041-D)*%
X294800000Y-202400000D03*
%TO.N,Net-(Q1068-D)*%
X294800000Y-213400000D03*
%TO.N,Net-(Q1102-D)*%
X293500000Y-207324000D03*
%TO.N,Net-(Q1078-D)*%
X293500000Y-196324000D03*
%TO.N,Net-(Q1050-D)*%
X293500000Y-185324000D03*
%TO.N,Net-(Q1028-D)*%
X293500000Y-174324000D03*
%TO.N,Net-(Q1000-D)*%
X293500000Y-163324000D03*
%TO.N,Net-(Q1153-G)*%
X293600000Y-152400000D03*
%TO.N,Net-(Q1141-G)*%
X293500000Y-141500000D03*
%TO.N,Net-(Q1129-G)*%
X293700000Y-130600000D03*
%TO.N,Net-(Q913-D)*%
X305400000Y-136500000D03*
%TO.N,Net-(Q940-D)*%
X305400000Y-147500000D03*
%TO.N,Net-(Q965-D)*%
X305400000Y-158500000D03*
%TO.N,Net-(Q989-D)*%
X305400000Y-169600000D03*
%TO.N,Net-(Q1018-D)*%
X305400000Y-180600000D03*
%TO.N,Net-(Q1040-D)*%
X305400000Y-191600000D03*
%TO.N,Net-(Q1067-D)*%
X305400000Y-202600000D03*
%TO.N,Net-(Q1095-D)*%
X305400000Y-213800000D03*
%TO.N,Net-(Q1091-S)*%
X286800000Y-212700000D03*
%TO.N,Net-(Q1063-S)*%
X286800000Y-201700000D03*
%TO.N,Net-(Q1036-S)*%
X286800000Y-190700000D03*
%TO.N,Net-(Q1014-S)*%
X286800000Y-179700000D03*
%TO.N,Net-(Q1169-G)*%
X286800000Y-168700000D03*
%TO.N,Net-(Q1157-G)*%
X286800000Y-157700000D03*
%TO.N,Net-(Q1145-G)*%
X286800000Y-146700000D03*
%TO.N,Net-(Q1133-G)*%
X286800000Y-135700000D03*
%TO.N,Net-(Q1095-D)*%
X298700000Y-212500000D03*
%TO.N,Net-(Q1067-D)*%
X298600000Y-201600000D03*
%TO.N,Net-(Q1040-D)*%
X298700000Y-190500000D03*
%TO.N,Net-(Q1018-D)*%
X298700000Y-179500000D03*
%TO.N,Net-(Q989-D)*%
X298700000Y-168500000D03*
%TO.N,Net-(Q965-D)*%
X298700000Y-157500000D03*
%TO.N,Net-(Q940-D)*%
X298600000Y-146500000D03*
%TO.N,Net-(Q913-D)*%
X298700000Y-135500000D03*
%TO.N,VCC*%
X310100000Y-210200000D03*
X310400000Y-199100000D03*
X310200000Y-188200000D03*
X310200000Y-177100000D03*
X310200000Y-166200000D03*
X310200000Y-155200000D03*
X310200000Y-144200000D03*
X310000000Y-133300000D03*
%TO.N,Net-(Q914-D)*%
X304600000Y-136000000D03*
%TO.N,Net-(Q941-D)*%
X304600000Y-147000000D03*
%TO.N,Net-(Q1096-D)*%
X304600000Y-213000000D03*
%TO.N,Net-(Q1068-D)*%
X304600000Y-202000000D03*
%TO.N,Net-(Q1041-D)*%
X304600000Y-191000000D03*
%TO.N,Net-(Q1019-D)*%
X304500000Y-180000000D03*
%TO.N,Net-(Q1017-G)*%
X304600000Y-169000000D03*
%TO.N,Net-(Q966-D)*%
X304500000Y-157900000D03*
%TO.N,GND*%
X277200000Y-131900000D03*
X277200000Y-142900000D03*
X277200000Y-175900000D03*
X277200000Y-186900000D03*
X277200000Y-208900000D03*
X277200000Y-197900000D03*
X296200000Y-214800000D03*
X285000000Y-209200000D03*
X305300000Y-209600000D03*
X289035765Y-216064235D03*
%TO.N,VCC*%
X300900000Y-212300000D03*
X285000000Y-210400000D03*
X290000000Y-212400000D03*
X293700000Y-212200000D03*
%TO.N,GND*%
X307300000Y-214800000D03*
%TO.N,VCC*%
X305900000Y-212300000D03*
%TO.N,GND*%
X294200000Y-209600000D03*
X296200000Y-203800000D03*
X285000000Y-198200000D03*
X305300000Y-198600000D03*
X289035765Y-205064235D03*
%TO.N,VCC*%
X300900000Y-201300000D03*
X285000000Y-199400000D03*
X290000000Y-201400000D03*
X293700000Y-201200000D03*
%TO.N,GND*%
X307300000Y-203800000D03*
%TO.N,VCC*%
X305900000Y-201300000D03*
%TO.N,GND*%
X294200000Y-198600000D03*
X296200000Y-192800000D03*
X285000000Y-187200000D03*
X305300000Y-187600000D03*
X289035765Y-194064235D03*
%TO.N,VCC*%
X300900000Y-190300000D03*
X285000000Y-188400000D03*
X290000000Y-190400000D03*
X293700000Y-190200000D03*
%TO.N,GND*%
X307300000Y-192800000D03*
%TO.N,VCC*%
X305900000Y-190300000D03*
%TO.N,GND*%
X294200000Y-187600000D03*
X296200000Y-181800000D03*
X285000000Y-176200000D03*
X305300000Y-176600000D03*
X289035765Y-183064235D03*
%TO.N,VCC*%
X300900000Y-179300000D03*
X285000000Y-177400000D03*
X290000000Y-179400000D03*
X293700000Y-179200000D03*
%TO.N,GND*%
X307300000Y-181800000D03*
%TO.N,VCC*%
X305900000Y-179300000D03*
%TO.N,GND*%
X294200000Y-176600000D03*
X296200000Y-170800000D03*
X285000000Y-165200000D03*
X305300000Y-165600000D03*
X289035765Y-172064235D03*
%TO.N,VCC*%
X300900000Y-168300000D03*
X285000000Y-166400000D03*
X290000000Y-168400000D03*
X293700000Y-168200000D03*
%TO.N,GND*%
X307300000Y-170800000D03*
%TO.N,VCC*%
X305900000Y-168300000D03*
%TO.N,GND*%
X294200000Y-165600000D03*
X296200000Y-159800000D03*
X285000000Y-154200000D03*
X305300000Y-154600000D03*
X289035765Y-161064235D03*
%TO.N,VCC*%
X300900000Y-157300000D03*
X285000000Y-155400000D03*
X290000000Y-157400000D03*
X293700000Y-157200000D03*
%TO.N,GND*%
X307300000Y-159800000D03*
%TO.N,VCC*%
X305900000Y-157300000D03*
%TO.N,GND*%
X294200000Y-154600000D03*
X296200000Y-148800000D03*
X285000000Y-143200000D03*
X305300000Y-143600000D03*
X289035765Y-150064235D03*
%TO.N,VCC*%
X300900000Y-146300000D03*
X285000000Y-144400000D03*
X290000000Y-146400000D03*
X293700000Y-146200000D03*
%TO.N,GND*%
X307300000Y-148800000D03*
%TO.N,VCC*%
X305900000Y-146300000D03*
%TO.N,GND*%
X294200000Y-143600000D03*
%TO.N,VCC*%
X300900000Y-135300000D03*
%TO.N,GND*%
X296200000Y-137800000D03*
X289035765Y-139064235D03*
X285000000Y-132200000D03*
X305300000Y-132600000D03*
%TO.N,VCC*%
X293700000Y-135200000D03*
%TO.N,GND*%
X307300000Y-137800000D03*
%TO.N,VCC*%
X305900000Y-135300000D03*
%TO.N,GND*%
X294200000Y-132600000D03*
%TO.N,VCC*%
X285000000Y-133400000D03*
X290000000Y-135400000D03*
X278860000Y-206660000D03*
%TO.N,GND*%
X278793750Y-211893750D03*
%TO.N,VCC*%
X278860000Y-195660000D03*
%TO.N,GND*%
X278793750Y-200893750D03*
%TO.N,VCC*%
X278860000Y-184660000D03*
%TO.N,GND*%
X278793750Y-189893750D03*
%TO.N,VCC*%
X278860000Y-173660000D03*
%TO.N,GND*%
X278793750Y-178893750D03*
%TO.N,VCC*%
X278860000Y-162660000D03*
%TO.N,GND*%
X278793750Y-167893750D03*
%TO.N,VCC*%
X278860000Y-151660000D03*
%TO.N,GND*%
X278793750Y-156893750D03*
%TO.N,VCC*%
X278860000Y-140660000D03*
%TO.N,GND*%
X278793750Y-145893750D03*
X278793750Y-134893750D03*
%TO.N,VCC*%
X278860000Y-129660000D03*
%TO.N,!JMP*%
X40400000Y-141900000D03*
X64800000Y-175200000D03*
X127300000Y-104600000D03*
%TO.N,!BOP*%
X74700000Y-174500000D03*
X115700000Y-119100000D03*
X46200000Y-138300000D03*
%TO.N,!BON*%
X126400000Y-119200000D03*
X50100000Y-138400000D03*
X79600000Y-174500000D03*
%TO.N,!BOZ*%
X140200000Y-119600000D03*
X84700000Y-174400000D03*
X54100000Y-138300000D03*
%TO.N,!BNZ*%
X58100000Y-138400000D03*
X89500000Y-174400000D03*
X153600000Y-121200000D03*
X140200000Y-121100000D03*
X154400000Y-119801000D03*
%TO.N,!BOO*%
X94300000Y-174300000D03*
X62000000Y-138300000D03*
X142500000Y-122700000D03*
%TO.N,!BNO*%
X66000000Y-138400000D03*
X184300000Y-109300000D03*
X99700000Y-174400000D03*
%TO.N,!BOU*%
X104700000Y-174600000D03*
X173900000Y-104200000D03*
X70100000Y-138300000D03*
%TO.N,!BNU*%
X74100000Y-138500000D03*
X109800000Y-174500000D03*
X160500000Y-104100000D03*
%TO.N,!BOC*%
X114800000Y-174300000D03*
X153300000Y-109100000D03*
X78100000Y-138200000D03*
%TO.N,!BNC*%
X137300000Y-103800000D03*
X119900000Y-174500000D03*
X83400000Y-142600000D03*
%TO.N,!Clear*%
X199300000Y-128300000D03*
X123500000Y-175000000D03*
X126100000Y-142300000D03*
%TO.N,!Load*%
X39400000Y-147400000D03*
X57500000Y-168400000D03*
X41000000Y-167300000D03*
X57100000Y-154700000D03*
X124031786Y-168400000D03*
X128500000Y-175100000D03*
X128200000Y-142800000D03*
%TO.N,!Store*%
X133500000Y-175000000D03*
X121200000Y-149500000D03*
X126100000Y-147600000D03*
X191100000Y-132800000D03*
%TO.N,!INC*%
X125150000Y-157000000D03*
X206800000Y-136000000D03*
X138500000Y-174800000D03*
X204248942Y-117799000D03*
%TO.N,!DEC*%
X143500000Y-175100000D03*
X129150000Y-156900000D03*
%TO.N,!RS*%
X148500000Y-175100000D03*
X133150000Y-156900000D03*
%TO.N,!NOT*%
X136299000Y-156900000D03*
X153500000Y-174800000D03*
%TO.N,!AND*%
X186100000Y-129800000D03*
X139599000Y-157500000D03*
X194700000Y-129400000D03*
X158500000Y-175000000D03*
%TO.N,!OR*%
X197700000Y-132200000D03*
X186000000Y-132200000D03*
X163500000Y-175000000D03*
X143599000Y-157611500D03*
%TO.N,!XOR*%
X168500000Y-175000000D03*
X181200000Y-133700000D03*
X194800000Y-125400000D03*
X147599000Y-157500000D03*
%TO.N,!ADD*%
X173500000Y-175000000D03*
X197700000Y-118400000D03*
X179300000Y-134700000D03*
X151599000Y-157500000D03*
%TO.N,!ADC*%
X204400000Y-118800000D03*
X178500000Y-175000000D03*
X191500000Y-136300000D03*
X185000000Y-137300000D03*
X157745984Y-152045984D03*
%TO.N,!MOV*%
X161300000Y-152500000D03*
X192200000Y-133100000D03*
X183500000Y-175000000D03*
X166600000Y-146700000D03*
X187300000Y-136000000D03*
%TO.N,Net-(Q17-G)*%
X198000000Y-168700000D03*
X212000000Y-199500000D03*
X110900000Y-218200000D03*
X212000000Y-178500000D03*
X100900000Y-176300000D03*
X110900000Y-176300000D03*
X197600000Y-199500000D03*
X80900000Y-218200000D03*
X71000000Y-176300000D03*
X90800000Y-176300000D03*
X212000000Y-189200000D03*
X100900000Y-218200000D03*
X196700000Y-189200000D03*
X58200000Y-218200000D03*
X90800000Y-218200000D03*
X55100000Y-211100000D03*
X212000000Y-168700000D03*
X80900000Y-176200000D03*
X71000000Y-218200000D03*
X197900000Y-178500000D03*
%TO.N,Net-(Q15-G)*%
X211400000Y-194200000D03*
X211400000Y-172999000D03*
X106000000Y-180300000D03*
X85800000Y-180300000D03*
X105900000Y-217500000D03*
X62600000Y-184100000D03*
X200600000Y-194200000D03*
X55100000Y-206700000D03*
X200700000Y-173100000D03*
X58700000Y-217500000D03*
X62600000Y-217500000D03*
X85800000Y-217500000D03*
%TO.N,Net-(Q21-G)*%
X197800000Y-157400000D03*
X76000000Y-216800000D03*
X55000000Y-202300000D03*
X145800000Y-216800000D03*
X145800000Y-184300000D03*
X210800000Y-157400000D03*
X135800000Y-184300000D03*
X76000000Y-184300000D03*
X59200000Y-216800000D03*
X126100000Y-216800000D03*
X115700000Y-216800000D03*
X115800000Y-184400000D03*
X135700000Y-216800000D03*
X126100000Y-184300000D03*
%TO.N,Net-(Q25-G)*%
X150900000Y-188200000D03*
X55100000Y-198000000D03*
X95800000Y-188300000D03*
X95800000Y-216100000D03*
X150900000Y-216100000D03*
X130700000Y-188300000D03*
X59700000Y-216100000D03*
X130700000Y-216100000D03*
%TO.N,Net-(Q40-G)*%
X120900000Y-215400000D03*
X120900000Y-192200000D03*
X60200000Y-215400000D03*
X155800000Y-215400000D03*
X175800000Y-192200000D03*
X166000000Y-215400000D03*
X175800000Y-215400000D03*
X166000000Y-192300000D03*
X55100000Y-193500000D03*
X155800000Y-192300000D03*
%TO.N,Net-(Q53-G)*%
X55200000Y-189200000D03*
X170900000Y-196300000D03*
X140800000Y-214700000D03*
X140800000Y-196300000D03*
X170900000Y-214700000D03*
X60700000Y-214700000D03*
%TO.N,Net-(Q57-G)*%
X61200000Y-214000000D03*
X160700000Y-214000000D03*
X160800000Y-200300000D03*
X55100000Y-184800000D03*
%TO.N,Net-(Q603-D)*%
X180900000Y-204300000D03*
X55200000Y-180500000D03*
X61700000Y-213300000D03*
X181500000Y-213300000D03*
%TO.N,Net-(Q10-G)*%
X65706250Y-200806250D03*
X179800000Y-201900000D03*
X179800000Y-207600000D03*
X65700000Y-207600000D03*
%TO.N,Net-(Q11-G)*%
X160200000Y-208300000D03*
X179200000Y-198400000D03*
X160200000Y-197600000D03*
X179200000Y-208300000D03*
X65099000Y-197701000D03*
X65100000Y-208300000D03*
%TO.N,Net-(Q12-G)*%
X64500000Y-209000000D03*
X170300000Y-209000000D03*
X140200000Y-209000000D03*
X64500000Y-194400000D03*
X178600000Y-209000000D03*
X140200000Y-193400000D03*
X178600000Y-195000000D03*
X159600000Y-194200000D03*
X159600000Y-209000000D03*
X170300000Y-193500000D03*
%TO.N,Net-(Q13-G)*%
X120300000Y-189300000D03*
X63900000Y-190900000D03*
X120300000Y-209700000D03*
X63900000Y-209700000D03*
X139600000Y-209700000D03*
X139600000Y-189900000D03*
%TO.N,Net-(Q14-G)*%
X208400000Y-163400000D03*
X150300000Y-210400000D03*
X139000000Y-210400000D03*
X63300000Y-210400000D03*
X139000000Y-186600000D03*
X208400000Y-153100000D03*
X95200000Y-185400000D03*
X130100000Y-210400000D03*
X198300000Y-153100000D03*
X119700000Y-185900000D03*
X150300000Y-185300000D03*
X119700000Y-210400000D03*
X130100000Y-185600000D03*
X63300000Y-187500000D03*
X198200000Y-163400000D03*
X95200000Y-210400000D03*
%TO.N,Net-(Q18-G)*%
X75400000Y-211100000D03*
X75400000Y-181200000D03*
X199800000Y-211100000D03*
X201200000Y-183400000D03*
X94600000Y-182000000D03*
X94600000Y-211100000D03*
X209000000Y-184600000D03*
X115200000Y-181500000D03*
X199800000Y-204700000D03*
X115200000Y-211100000D03*
%TO.N,Net-(Q1-D)*%
X209600000Y-173700000D03*
X197850000Y-194750000D03*
X74800000Y-211800000D03*
X85200000Y-177500000D03*
X105400000Y-177200000D03*
X209600000Y-194800000D03*
X62000000Y-180800000D03*
X114600000Y-211800000D03*
X209600000Y-185200000D03*
X195800000Y-211800000D03*
X85200000Y-211800000D03*
X94000000Y-211800000D03*
X105400000Y-211800000D03*
X62000000Y-211800000D03*
X198000000Y-184000000D03*
X94000000Y-178600000D03*
X74800000Y-177800000D03*
X114600000Y-178000000D03*
X195800000Y-204700000D03*
X198100000Y-173700000D03*
D15*
%TO.N,Faling Edge*%
X41900000Y-66000000D03*
D14*
X36200000Y-108100000D03*
X39700000Y-108100000D03*
%TO.N,Read New Instruction*%
X43500000Y-166700000D03*
X40100000Y-170000000D03*
%TO.N,Buss3*%
X76400000Y-23800000D03*
X215795552Y-26303218D03*
X154200000Y-23800000D03*
X217950000Y-49962500D03*
D15*
%TO.N,GND*%
X120100000Y-87700000D03*
D14*
X42000000Y-122700000D03*
D15*
X51200000Y-183300000D03*
X73162500Y-146975000D03*
X174100000Y-152800000D03*
X193976000Y-43011500D03*
X43738500Y-60900000D03*
X180349000Y-83100000D03*
X191600000Y-188300000D03*
X191600000Y-151300000D03*
X116349000Y-83100000D03*
X152100000Y-87700000D03*
X156349000Y-83100000D03*
X174000000Y-147800000D03*
X116138500Y-42961500D03*
D14*
X68162500Y-143975000D03*
D15*
X213400000Y-48700000D03*
X92349000Y-83100000D03*
X68349000Y-83100000D03*
X51200000Y-196500000D03*
X168100000Y-87700000D03*
X132349000Y-83100000D03*
D14*
X44000000Y-55800000D03*
D15*
X79762500Y-159075000D03*
X191450000Y-108000000D03*
X84349000Y-83100000D03*
X191600000Y-203300000D03*
X213400000Y-39700000D03*
X226850000Y-62562500D03*
D14*
X42100000Y-127000000D03*
D15*
X137100000Y-154100000D03*
X43162500Y-147075000D03*
X144476000Y-43011500D03*
D14*
X144637500Y-116600000D03*
X42400000Y-118000000D03*
X137375000Y-106750000D03*
X88000000Y-95200000D03*
D15*
X191600000Y-146300000D03*
X41700000Y-178900000D03*
X41700000Y-183300000D03*
X49162500Y-157675000D03*
D14*
X96000000Y-95200000D03*
D15*
X174100000Y-157700000D03*
D14*
X173137500Y-116600000D03*
D15*
X180650000Y-205850000D03*
X213400000Y-57700000D03*
D14*
X169275000Y-106750000D03*
D15*
X66638500Y-42961500D03*
D14*
X135137500Y-116600000D03*
D15*
X41700000Y-205300000D03*
X148349000Y-83100000D03*
D14*
X152000000Y-95200000D03*
X175937500Y-95237500D03*
D15*
X41700000Y-192100000D03*
D14*
X70423718Y-134101000D03*
X56200000Y-151900000D03*
D15*
X102538500Y-42961500D03*
X164349000Y-83100000D03*
X213400000Y-66700000D03*
X66162500Y-157775000D03*
X84638500Y-42961500D03*
D14*
X160000000Y-95200000D03*
D15*
X191600000Y-167300000D03*
D14*
X72000000Y-95200000D03*
X104000000Y-95200000D03*
D15*
X41700000Y-187700000D03*
X52500000Y-95900000D03*
X167200000Y-133000000D03*
X191600000Y-193300000D03*
X191600000Y-198300000D03*
D14*
X70423718Y-129159032D03*
X121600000Y-49800000D03*
D15*
X213400000Y-44200000D03*
D14*
X168000000Y-95200000D03*
X61662500Y-157675000D03*
D15*
X172349000Y-83100000D03*
X176100000Y-87700000D03*
X48100000Y-83300000D03*
X160100000Y-87700000D03*
X128100000Y-87700000D03*
X100349000Y-83100000D03*
X96100000Y-87700000D03*
X51200000Y-178900000D03*
X162476000Y-43011500D03*
D14*
X120137500Y-116600000D03*
D15*
X191600000Y-182300000D03*
X51200000Y-192100000D03*
X226450000Y-57562500D03*
D14*
X144000000Y-95200000D03*
X42600000Y-131400000D03*
D15*
X187700000Y-120100000D03*
X124349000Y-83100000D03*
D14*
X180800000Y-107700000D03*
D15*
X108349000Y-83100000D03*
X130376000Y-43011500D03*
X51200000Y-205300000D03*
D14*
X191937500Y-95237500D03*
D15*
X41700000Y-209700000D03*
X191600000Y-177300000D03*
X41700000Y-200900000D03*
D14*
X183937500Y-95237500D03*
D15*
X72100000Y-87700000D03*
X213400000Y-53200000D03*
D14*
X150775000Y-106750000D03*
X70423718Y-124159032D03*
D15*
X136100000Y-87700000D03*
D14*
X64662500Y-147175000D03*
D15*
X184100000Y-87700000D03*
D14*
X128000000Y-95200000D03*
D15*
X174100000Y-162700000D03*
D14*
X158637500Y-116600000D03*
D15*
X191600000Y-131400000D03*
X201100000Y-54800000D03*
X112100000Y-87700000D03*
X226650000Y-34962500D03*
X50900000Y-96000000D03*
X144100000Y-87700000D03*
X104100000Y-87700000D03*
X76349000Y-83100000D03*
X191600000Y-172300000D03*
X52538500Y-42961500D03*
D14*
X66500000Y-206100000D03*
D15*
X51200000Y-200900000D03*
X213400000Y-62200000D03*
X180376000Y-43011500D03*
X51200000Y-187700000D03*
X196100000Y-140051000D03*
D14*
X57200000Y-113462500D03*
D15*
X59662500Y-166475000D03*
X88100000Y-87700000D03*
X123375000Y-108050000D03*
D14*
X39962500Y-139075000D03*
X80000000Y-95200000D03*
D15*
X192100000Y-87700000D03*
X201100000Y-45700000D03*
X96800000Y-158100000D03*
D14*
X136000000Y-95200000D03*
D15*
X41700000Y-196500000D03*
X140349000Y-83100000D03*
X191600000Y-156300000D03*
D14*
X57012500Y-158125000D03*
D15*
X188349000Y-83100000D03*
X51200000Y-209700000D03*
D14*
X120000000Y-95200000D03*
D15*
X206800000Y-181800000D03*
D14*
X160175000Y-106750000D03*
D15*
X213400000Y-35200000D03*
X122000000Y-147300000D03*
X206800000Y-160800000D03*
X80100000Y-87700000D03*
X38700000Y-71900000D03*
X49850000Y-86500000D03*
D14*
X70562500Y-157675000D03*
D15*
X40354112Y-161975000D03*
X206800000Y-202800000D03*
D14*
X112000000Y-95200000D03*
X72700000Y-116700000D03*
D15*
X191600000Y-161300000D03*
D14*
%TO.N,R{slash}W out*%
X59737500Y-163437500D03*
%TO.N,Buss2*%
X218350000Y-45362500D03*
X73800000Y-23200000D03*
X151700000Y-23200000D03*
X216254702Y-25645298D03*
%TO.N,rst*%
X61200000Y-68300000D03*
X133900000Y-27400000D03*
X35724265Y-51224265D03*
D15*
X225800000Y-72500000D03*
D14*
X22600000Y-78300000D03*
X25600000Y-104200000D03*
%TO.N,Buss0*%
X146600000Y-22000000D03*
X68700000Y-22000000D03*
X217000000Y-24200000D03*
X221050000Y-36262500D03*
%TO.N,Buss6*%
X217950000Y-63462500D03*
X161900000Y-25600000D03*
X214400000Y-28500000D03*
X84000000Y-25600000D03*
%TO.N,Buss7*%
X218250000Y-67962500D03*
X164500000Y-26200000D03*
X214100000Y-29300000D03*
X86500000Y-26200000D03*
%TO.N,Buss4*%
X78900000Y-24400000D03*
X156700000Y-24400000D03*
X215300000Y-27000000D03*
X218050000Y-54462500D03*
%TO.N,VCC*%
X65012718Y-121100000D03*
X82462500Y-151275000D03*
D15*
X41700000Y-186000000D03*
X193076000Y-65711500D03*
X198900000Y-58500000D03*
X93800000Y-93600000D03*
D14*
X65012718Y-125300000D03*
D15*
X121524207Y-170124207D03*
X186500000Y-199500000D03*
X128000000Y-98100000D03*
X186500000Y-157389000D03*
X65600000Y-66000000D03*
X144000000Y-98100000D03*
X141800000Y-93600000D03*
D14*
X40523718Y-123300000D03*
D15*
X168000000Y-98100000D03*
X41700000Y-203600000D03*
X228000000Y-40200000D03*
X129976000Y-65711500D03*
X122500000Y-54600000D03*
X96215686Y-170115686D03*
X45200000Y-55500000D03*
D14*
X75834718Y-131200000D03*
D15*
X109800000Y-93600000D03*
X189800000Y-93600000D03*
X83700000Y-66000000D03*
X112000000Y-98100000D03*
X63262500Y-153575000D03*
X176000000Y-98100000D03*
X133800000Y-93600000D03*
X50100000Y-81400000D03*
X101800000Y-93600000D03*
X41700000Y-212400000D03*
X41700000Y-199200000D03*
X117800000Y-93600000D03*
X52176000Y-66000000D03*
D14*
X134537500Y-115500000D03*
D15*
X186500000Y-168489000D03*
X96800000Y-160600000D03*
X41700000Y-181600000D03*
X104000000Y-98100000D03*
X161576000Y-65711500D03*
X41700000Y-194800000D03*
X167300000Y-135400000D03*
X51200000Y-203600000D03*
X166000000Y-170100000D03*
X81100000Y-170100000D03*
X186600000Y-189500000D03*
X193700000Y-128200000D03*
X96000000Y-98100000D03*
X51200000Y-181600000D03*
X204400000Y-131700000D03*
D14*
X173337500Y-113600000D03*
D15*
X149800000Y-93600000D03*
D14*
X65012718Y-131500000D03*
D15*
X192000000Y-98100000D03*
X228000000Y-49400000D03*
D14*
X64062500Y-150900000D03*
D15*
X116000000Y-170100000D03*
X80000000Y-98100000D03*
X88000000Y-98100000D03*
X173800000Y-93600000D03*
X228000000Y-58600000D03*
D14*
X40523718Y-127500000D03*
D15*
X79362500Y-146275000D03*
D14*
X75834718Y-121300000D03*
D15*
X47462500Y-157675000D03*
X101776000Y-66000000D03*
X51200000Y-186000000D03*
D14*
X75834718Y-126500000D03*
D15*
X51200000Y-199200000D03*
X51200000Y-212400000D03*
X127400000Y-106500000D03*
X85800000Y-93600000D03*
X120000000Y-98100000D03*
X51200000Y-208000000D03*
X198900000Y-40200000D03*
X36400000Y-72000000D03*
X143476000Y-65711500D03*
X136200000Y-170100000D03*
X125800000Y-93600000D03*
X152000000Y-98100000D03*
X70600000Y-170100000D03*
X81562500Y-159275000D03*
X41700000Y-208000000D03*
X157800000Y-93600000D03*
X205800000Y-122200000D03*
X51200000Y-194800000D03*
D14*
X40523718Y-132300000D03*
D15*
X165800000Y-93600000D03*
D14*
X113437500Y-114700000D03*
D15*
X181800000Y-93600000D03*
D14*
X56862500Y-159675000D03*
D15*
X146000000Y-170100000D03*
X63662500Y-159375000D03*
X77800000Y-93600000D03*
D14*
X149137500Y-113600000D03*
D15*
X105700000Y-170100000D03*
X191550000Y-110200000D03*
X80062500Y-153575000D03*
D14*
X168875000Y-109750000D03*
D15*
X115276000Y-65711500D03*
X198900000Y-49400000D03*
X160000000Y-98100000D03*
X186500000Y-146789000D03*
X186500000Y-178389000D03*
X51200000Y-190400000D03*
D14*
X63962500Y-161875000D03*
X146175000Y-109750000D03*
D15*
X184000000Y-98100000D03*
X179576000Y-65711500D03*
X72000000Y-98100000D03*
X41700000Y-190400000D03*
X155900000Y-170100000D03*
X69800000Y-93600000D03*
X44062500Y-150775000D03*
D14*
X40523718Y-118600000D03*
D15*
X136000000Y-98100000D03*
X170900000Y-170100000D03*
%TO.N,CLOCK*%
X42481500Y-75369000D03*
D14*
%TO.N,Buss5*%
X81400000Y-25000000D03*
X218150000Y-59062500D03*
X159300000Y-25000000D03*
X214800000Y-27700000D03*
%TO.N,Buss1*%
X218850000Y-40862500D03*
X216504807Y-24885396D03*
X71300000Y-22600000D03*
X149200000Y-22600000D03*
%TO.N,ADR 13*%
X109976000Y-61100000D03*
%TO.N,ADR 10*%
X96352000Y-61100000D03*
%TO.N,ADR 6*%
X76700000Y-59500000D03*
%TO.N,ADR 15*%
X118976000Y-61100000D03*
%TO.N,ADR 7*%
X81200000Y-59400000D03*
%TO.N,ADR 0*%
X49700000Y-59600000D03*
%TO.N,ADR 2*%
X58800000Y-59600000D03*
%TO.N,ADR 5*%
X72200000Y-59600000D03*
%TO.N,ADR 9*%
X91700000Y-61100000D03*
%TO.N,ADR 3*%
X63200000Y-59600000D03*
%TO.N,ADR 4*%
X67700000Y-59500000D03*
%TO.N,ADR 1*%
X54300000Y-59600000D03*
%TO.N,ADR 8*%
X87352000Y-61000000D03*
%TO.N,ADR 14*%
X114476000Y-61100000D03*
%TO.N,ADR 11*%
X100852000Y-61100000D03*
%TO.N,ADR 12*%
X105476000Y-61200000D03*
%TO.N,Main bus 0*%
X223950000Y-37162500D03*
%TO.N,Main bus 4*%
X223950000Y-54162500D03*
%TO.N,Main bus 1*%
X223950000Y-40362500D03*
%TO.N,Main bus 6*%
X223950000Y-63562500D03*
%TO.N,Main bus 3*%
X223950000Y-49862500D03*
%TO.N,Main bus 2*%
X223950000Y-45562500D03*
%TO.N,Main bus 5*%
X223950000Y-58962500D03*
%TO.N,Main bus 7*%
X223850000Y-68462500D03*
%TO.N,XOR*%
X199000000Y-124000000D03*
%TO.N,OR*%
X205900000Y-133000000D03*
X202700000Y-132000000D03*
%TO.N,ALU FLAG O*%
X55700000Y-128900000D03*
%TO.N,ALU FLAG N*%
X55800000Y-115100000D03*
%TO.N,ALU FLAG U*%
X55600000Y-124100000D03*
%TO.N,ALU FLAG C*%
X55600000Y-134700000D03*
%TO.N,ALU FLAG Z*%
X55700000Y-119500000D03*
%TO.N,RS*%
X192200000Y-128100000D03*
%TO.N,A ->ALU B*%
X194300000Y-161500000D03*
%TO.N,ALU B = FF*%
X192800000Y-123400000D03*
%TO.N,READ A*%
X194200000Y-203400000D03*
%TO.N,C ->ALU A*%
X194500000Y-172500000D03*
%TO.N,D ->ALU A*%
X194100000Y-167500000D03*
%TO.N,B ->ALU B*%
X194200000Y-156600000D03*
%TO.N,B ->ALU A*%
X194300000Y-177500000D03*
%TO.N,A ->ALU A*%
X194300000Y-182600000D03*
%TO.N,READ D*%
X194100000Y-188300000D03*
%TO.N,READ C*%
X194200000Y-193400000D03*
%TO.N,C ->ALU B*%
X194400000Y-151500000D03*
%TO.N,READ B*%
X194200000Y-198500000D03*
%TO.N,D ->ALU B*%
X194300000Y-146300000D03*
%TO.N,REG Read*%
X203000000Y-204300000D03*
X170200000Y-146037500D03*
%TO.N,REG -> ALU B*%
X203200000Y-162500000D03*
X168900000Y-156037500D03*
%TO.N,REG -> ALU A*%
X203200000Y-183600000D03*
X169000000Y-151037500D03*
%TO.N,READ FALG*%
X87200000Y-110200000D03*
X51223718Y-119124000D03*
X51223718Y-128124000D03*
X56200000Y-113424000D03*
X51223718Y-123624000D03*
X51223718Y-115000000D03*
X160300000Y-160100000D03*
X51223718Y-132477000D03*
%TO.N,Store Address ++*%
X138301000Y-47511500D03*
X183324000Y-47511500D03*
X40500000Y-45800000D03*
X133824000Y-47511500D03*
X187824000Y-47511500D03*
X39900000Y-48111500D03*
X147324000Y-47511500D03*
X151824000Y-47511500D03*
X178801000Y-47511500D03*
X47500000Y-165800000D03*
X142801000Y-47511500D03*
X192301000Y-47511500D03*
X174301000Y-47511500D03*
X165324000Y-47511500D03*
X160801000Y-47511500D03*
X169824000Y-47511500D03*
D15*
X125876000Y-47511500D03*
D14*
X196801000Y-47511500D03*
X156301000Y-47511500D03*
X129324000Y-47511500D03*
%TO.N,ADR++ 0*%
X75500000Y-92000000D03*
X129100000Y-51600000D03*
%TO.N,ADR++ 1*%
X133500000Y-51600000D03*
X83600000Y-92100000D03*
%TO.N,ADR++ 2*%
X138163235Y-51563235D03*
X91600000Y-92100000D03*
%TO.N,ADR++ 3*%
X142700000Y-51500000D03*
X99600000Y-92100000D03*
%TO.N,ADR++ 4*%
X147200000Y-51500000D03*
X107649000Y-92200000D03*
%TO.N,ADR++ 5*%
X151500000Y-51500000D03*
X115600000Y-92000000D03*
%TO.N,ADR++ 6*%
X123649000Y-92000000D03*
X156100000Y-51500000D03*
%TO.N,ADR++ 7*%
X131600000Y-92000000D03*
X160500000Y-51500000D03*
%TO.N,ADR++ 8*%
X139600000Y-91900000D03*
X164800000Y-51600000D03*
%TO.N,ADR++ 9*%
X169700000Y-51400000D03*
X147500000Y-92000000D03*
%TO.N,ADR++ 10*%
X174100000Y-51500000D03*
X155500000Y-92000000D03*
%TO.N,ADR++ 11*%
X163500000Y-92100000D03*
X178500000Y-51600000D03*
%TO.N,ADR++ 12*%
X171500000Y-92100000D03*
X183100000Y-51500000D03*
%TO.N,ADR++ 13*%
X179600000Y-92000000D03*
X187700000Y-51400000D03*
%TO.N,ADR++ 14*%
X186981250Y-92418750D03*
X192000000Y-51600000D03*
%TO.N,ADR++ 15*%
X196400000Y-51600000D03*
X195500000Y-92100000D03*
%TO.N,TEMP ADR 0*%
X129276000Y-57700000D03*
X51200000Y-60000000D03*
%TO.N,Net-(Q170-G)*%
X147276000Y-55811500D03*
X133776000Y-55811500D03*
X183276000Y-55811500D03*
X142776000Y-55811500D03*
X169776000Y-55811500D03*
X138276000Y-55811500D03*
D15*
X124876000Y-55811500D03*
D14*
X156276000Y-55811500D03*
X129276000Y-55811500D03*
X174276000Y-55811500D03*
X192276000Y-55811500D03*
X178776000Y-55811500D03*
X160776000Y-55811500D03*
X196801000Y-55811500D03*
X151776000Y-55811500D03*
X165276000Y-55811500D03*
X187776000Y-55811500D03*
%TO.N,TEMP ADR 1*%
X133776000Y-57700000D03*
X55700000Y-59900000D03*
%TO.N,STORED ADR 15*%
X118700000Y-51600000D03*
%TO.N,STORED ADR 14*%
X114100000Y-51600000D03*
%TO.N,STORED ADR 13*%
X109700000Y-51500000D03*
%TO.N,STORED ADR 12*%
X105200000Y-51500000D03*
%TO.N,STORED ADR 11*%
X100600000Y-51600000D03*
%TO.N,STORED ADR 10*%
X96100000Y-51600000D03*
%TO.N,STORED ADR 9*%
X91800000Y-51600000D03*
%TO.N,STORED ADR 8*%
X87000000Y-51600000D03*
%TO.N,STORED ADR 7*%
X82600000Y-51700000D03*
%TO.N,STORED ADR 6*%
X78000000Y-51600000D03*
%TO.N,STORED ADR 5*%
X73600000Y-51600000D03*
%TO.N,STORED ADR 4*%
X69100000Y-51600000D03*
%TO.N,STORED ADR 3*%
X64600000Y-51600000D03*
%TO.N,STORED ADR 2*%
X60100000Y-51600000D03*
%TO.N,STORED ADR 1*%
X55600000Y-51600000D03*
%TO.N,STORED ADR 0*%
X50900000Y-51600000D03*
%TO.N,Net-(Q204-G)*%
X191200000Y-86700000D03*
X185993750Y-94606250D03*
%TO.N,Net-(Q205-G)*%
X183200000Y-86700000D03*
X177993750Y-94606250D03*
%TO.N,Net-(Q206-G)*%
X175200000Y-86800000D03*
X169993750Y-94606250D03*
%TO.N,Net-(Q207-G)*%
X167200000Y-86700000D03*
X161993750Y-94606250D03*
%TO.N,Net-(Q208-G)*%
X159100000Y-86900000D03*
X153993750Y-94606250D03*
%TO.N,Net-(Q209-G)*%
X145993750Y-94606250D03*
X151100000Y-86600000D03*
%TO.N,Net-(Q210-G)*%
X137993750Y-94606250D03*
X143000000Y-86700000D03*
%TO.N,Net-(Q211-G)*%
X135100000Y-86600000D03*
X129993750Y-94606250D03*
%TO.N,Net-(Q212-G)*%
X126000000Y-84000000D03*
X122043750Y-94656250D03*
%TO.N,Net-(Q213-G)*%
X118000000Y-84000000D03*
X114000000Y-94700000D03*
%TO.N,Net-(Q214-G)*%
X105993750Y-94606250D03*
X111529016Y-83529016D03*
%TO.N,Net-(Q215-G)*%
X97993750Y-94606250D03*
X103329016Y-83729016D03*
%TO.N,Net-(Q216-G)*%
X89993750Y-94606250D03*
X95579016Y-83479016D03*
%TO.N,Net-(Q217-G)*%
X87906250Y-84106250D03*
X82100000Y-94700000D03*
%TO.N,Net-(Q218-G)*%
X79200000Y-86900000D03*
X74043750Y-94656250D03*
%TO.N,Read From stored Address*%
X109999000Y-47511500D03*
X64852000Y-47511500D03*
X72500000Y-167000000D03*
X73999000Y-47511500D03*
X60352000Y-47511500D03*
X87352000Y-47511500D03*
X118852000Y-47511500D03*
X71745984Y-83245984D03*
D15*
X48076000Y-47511500D03*
D14*
X114352000Y-47511500D03*
X78352000Y-47511500D03*
X69352000Y-47511500D03*
X100852000Y-47511500D03*
X82852000Y-47511500D03*
X55852000Y-47511500D03*
X96352000Y-47511500D03*
X91852000Y-47511500D03*
X105499000Y-47511500D03*
%TO.N,TEMP ADR 2*%
X60200000Y-60000000D03*
X138276000Y-57700000D03*
%TO.N,TEMP ADR 3*%
X142776000Y-57700000D03*
X64600000Y-60000000D03*
%TO.N,TEMP ADR 4*%
X147276000Y-57700000D03*
X69200000Y-60100000D03*
%TO.N,TEMP ADR 5*%
X151776000Y-57700000D03*
X73700000Y-60000000D03*
%TO.N,TEMP ADR 6*%
X156276000Y-57700000D03*
X78300000Y-60100000D03*
%TO.N,TEMP ADR 7*%
X82800000Y-60100000D03*
X160776000Y-57700000D03*
%TO.N,TEMP ADR 8*%
X165276000Y-57700000D03*
X87352000Y-60100000D03*
%TO.N,TEMP ADR 9*%
X91800000Y-60100000D03*
X169776000Y-57700000D03*
%TO.N,TEMP ADR 10*%
X96352000Y-60100000D03*
X174276000Y-57700000D03*
%TO.N,TEMP ADR 11*%
X178776000Y-57700000D03*
X100852000Y-60000000D03*
%TO.N,TEMP ADR 12*%
X183276000Y-57700000D03*
X105476000Y-60200000D03*
%TO.N,TEMP ADR 13*%
X109976000Y-60100000D03*
X187776000Y-57700000D03*
%TO.N,TEMP ADR 14*%
X114400000Y-60200000D03*
X192276000Y-57700000D03*
%TO.N,TEMP ADR 15*%
X193987028Y-56511500D03*
X118976000Y-60000000D03*
%TO.N,NEXT ADR 0*%
X129100000Y-60200000D03*
%TO.N,NEXT ADR 1*%
X133500000Y-60100000D03*
%TO.N,NEXT ADR 2*%
X138000000Y-60300000D03*
%TO.N,NEXT ADR 3*%
X142776000Y-60500000D03*
%TO.N,NEXT ADR 4*%
X147200000Y-60600000D03*
%TO.N,NEXT ADR 5*%
X151700000Y-60600000D03*
%TO.N,NEXT ADR 6*%
X156200000Y-60500000D03*
%TO.N,NEXT ADR 7*%
X160600000Y-60400000D03*
%TO.N,NEXT ADR 8*%
X165700000Y-64700000D03*
%TO.N,NEXT ADR 9*%
X170400000Y-64600000D03*
%TO.N,NEXT ADR 10*%
X174800000Y-64600000D03*
%TO.N,NEXT ADR 11*%
X179400000Y-64400000D03*
%TO.N,NEXT ADR 12*%
X183700000Y-64300000D03*
%TO.N,NEXT ADR 13*%
X188100000Y-64000000D03*
%TO.N,NEXT ADR 14*%
X192900000Y-64500000D03*
%TO.N,NEXT ADR 15*%
X197300000Y-64800000D03*
%TO.N,Net-(Q332-G)*%
X105352000Y-55711500D03*
X118852000Y-55711500D03*
X55852000Y-55711500D03*
X64852000Y-55711500D03*
X82852000Y-55711500D03*
X69376000Y-55711500D03*
X91852000Y-55711500D03*
X96352000Y-55711500D03*
X60352000Y-55711500D03*
X73852000Y-55711500D03*
X78352000Y-55711500D03*
X109852000Y-55711500D03*
X87352000Y-55711500D03*
X51276000Y-55711500D03*
D15*
X46976000Y-55711500D03*
D14*
X114352000Y-55711500D03*
X100852000Y-55711500D03*
%TO.N,TIME STEP 0*%
X86200000Y-109800000D03*
X34500000Y-107500000D03*
X136800000Y-28800000D03*
%TO.N,!TIME STEP 0*%
X73375000Y-121400000D03*
X71800000Y-162000000D03*
%TO.N,TIME STEP IN 1*%
X74000000Y-135900000D03*
%TO.N,TIME STEP 1*%
X69500000Y-120300000D03*
X54100000Y-149200000D03*
X68100000Y-151399000D03*
%TO.N,TIME STEP IN 2*%
X66700000Y-135600000D03*
X47200000Y-162400000D03*
%TO.N,FLAG N*%
X64123718Y-116800000D03*
%TO.N,Net-(Q418-G)*%
X60223718Y-132300000D03*
X60223718Y-123200000D03*
X60223718Y-114900000D03*
X60223718Y-127800000D03*
X60223718Y-118600000D03*
%TO.N,FLAG STORE N*%
X45400000Y-117600000D03*
%TO.N,FLAG Z*%
X63823718Y-117900000D03*
X153400000Y-118850000D03*
X109430000Y-117070000D03*
%TO.N,FLAG STORE Z*%
X45400000Y-122000000D03*
%TO.N,FLAG U*%
X64312718Y-122700000D03*
%TO.N,FLAG STORE U*%
X45600000Y-126500000D03*
%TO.N,FLAG O*%
X182200000Y-103500000D03*
X64123718Y-127200000D03*
%TO.N,FLAG STORE O*%
X45600000Y-131100000D03*
%TO.N,FLAG C*%
X64223718Y-131300000D03*
X161550000Y-123850000D03*
X142200000Y-104500000D03*
X192400000Y-138400000D03*
%TO.N,FLAG STORE C*%
X45600000Y-135700000D03*
%TO.N,Read Write ins*%
X43300000Y-157300000D03*
X64200000Y-144100000D03*
X43800000Y-145475000D03*
X63908058Y-142008058D03*
X44800000Y-168000000D03*
%TO.N,Commit jump*%
X42900000Y-163100000D03*
X123100000Y-111526000D03*
%TO.N,TIME STEP IN 0*%
X63300000Y-143500000D03*
%TO.N,TIME STEP 2*%
X75400000Y-159500000D03*
X76100000Y-151276000D03*
X90800000Y-117700000D03*
%TO.N,TIME STEP 0or1or2*%
X81300000Y-147800000D03*
X80100000Y-152500000D03*
%TO.N,TIME STEP 0or1*%
X54000000Y-152300000D03*
X57200000Y-147800000D03*
%TO.N,Main bus -> bus out*%
X217950000Y-56062500D03*
X217850000Y-47262500D03*
X218900000Y-75900000D03*
X217950000Y-51562500D03*
X217950000Y-33762500D03*
X217850000Y-65162500D03*
X217850000Y-60562500D03*
X217850000Y-38162500D03*
X122500000Y-120800000D03*
X217950000Y-42562500D03*
%TO.N,Net-(Q520-D)*%
X225900000Y-38000000D03*
X222500000Y-37900000D03*
%TO.N,Net-(Q523-D)*%
X225900000Y-42500000D03*
X222600000Y-42500000D03*
%TO.N,Net-(Q526-D)*%
X222600000Y-47000000D03*
X225900000Y-47000000D03*
%TO.N,Net-(Q529-D)*%
X225900000Y-51500000D03*
X222500000Y-51500000D03*
%TO.N,Net-(Q532-D)*%
X225900000Y-56000000D03*
X222500000Y-56000000D03*
%TO.N,Net-(Q535-D)*%
X222500000Y-60500000D03*
X225900000Y-60500000D03*
%TO.N,Net-(Q538-D)*%
X225900000Y-65000000D03*
X222600000Y-65000000D03*
%TO.N,bus out -> Main bus*%
X204450000Y-63862500D03*
X204350000Y-36862500D03*
X66012500Y-155225000D03*
X204350000Y-45862500D03*
X204450000Y-59262500D03*
X39200000Y-52000000D03*
X204350000Y-41262500D03*
X204450000Y-54762500D03*
X204450000Y-50462500D03*
X39300000Y-45800000D03*
X204850000Y-33762500D03*
%TO.N,Net-(Q544-D)*%
X209400000Y-38562500D03*
X200900000Y-38000000D03*
%TO.N,Net-(Q547-D)*%
X200900000Y-42500000D03*
X209400000Y-43062500D03*
%TO.N,Net-(Q550-D)*%
X200900000Y-47000000D03*
X209400000Y-47562500D03*
%TO.N,Net-(Q553-D)*%
X209400000Y-52062500D03*
X200900000Y-51500000D03*
%TO.N,Net-(Q556-D)*%
X209400000Y-56562500D03*
X200900000Y-56000000D03*
%TO.N,Net-(Q559-D)*%
X209400000Y-61062500D03*
X200900000Y-60500000D03*
%TO.N,Net-(Q562-D)*%
X209400000Y-65562500D03*
X200900000Y-65000000D03*
%TO.N,GND*%
X277200000Y-153900000D03*
%TD*%
D16*
%TO.N,Net-(J29-Pin_3)*%
X362000000Y-210900000D02*
X362000000Y-201200000D01*
X362000000Y-201200000D02*
X365200000Y-198000000D01*
%TO.N,Net-(J25-Pin_15)*%
X287665781Y-208634219D02*
X287665781Y-208265781D01*
X280600000Y-213900000D02*
X282400000Y-213900000D01*
X282400000Y-213900000D02*
X287665781Y-208634219D01*
%TO.N,Net-(J25-Pin_13)*%
X287665781Y-197834219D02*
X287665781Y-197265781D01*
X280600000Y-203000000D02*
X282500000Y-203000000D01*
X282500000Y-203000000D02*
X287665781Y-197834219D01*
%TO.N,Net-(J25-Pin_11)*%
X282400000Y-191900000D02*
X287633123Y-186666877D01*
X280600000Y-191900000D02*
X282400000Y-191900000D01*
X287633123Y-186666877D02*
X287633123Y-186298438D01*
%TO.N,Net-(J25-Pin_9)*%
X282249943Y-181000000D02*
X287615781Y-175634162D01*
X280600000Y-181000000D02*
X282249943Y-181000000D01*
X287615781Y-175634162D02*
X287615781Y-175315781D01*
%TO.N,Net-(J25-Pin_1)*%
X282249943Y-137000000D02*
X287665781Y-131584162D01*
X280500000Y-137000000D02*
X282249943Y-137000000D01*
X287665781Y-131584162D02*
X287665781Y-131265781D01*
%TO.N,Net-(J25-Pin_3)*%
X287665781Y-142634219D02*
X287665781Y-142265781D01*
X282300000Y-148000000D02*
X287665781Y-142634219D01*
X280600000Y-148000000D02*
X282300000Y-148000000D01*
%TO.N,Net-(J25-Pin_5)*%
X282300000Y-159000000D02*
X287715781Y-153584219D01*
X280600000Y-159000000D02*
X282300000Y-159000000D01*
X287715781Y-153584219D02*
X287715781Y-153215781D01*
%TO.N,Net-(J25-Pin_7)*%
X287615781Y-164684219D02*
X287615781Y-164315781D01*
X282300000Y-170000000D02*
X287615781Y-164684219D01*
X280600000Y-170000000D02*
X282300000Y-170000000D01*
%TO.N,Net-(J25-Pin_1)*%
X287665781Y-131265781D02*
X287731562Y-131200000D01*
X287731562Y-131200000D02*
X294800000Y-131200000D01*
%TO.N,Net-(J25-Pin_3)*%
X294734219Y-142265781D02*
X294800000Y-142200000D01*
X287665781Y-142265781D02*
X294734219Y-142265781D01*
%TO.N,Net-(J25-Pin_5)*%
X287731562Y-153200000D02*
X294800000Y-153200000D01*
X287715781Y-153215781D02*
X287731562Y-153200000D01*
%TO.N,Net-(J25-Pin_15)*%
X287731562Y-208200000D02*
X294800000Y-208200000D01*
X287665781Y-208265781D02*
X287731562Y-208200000D01*
%TO.N,Net-(J25-Pin_13)*%
X287731562Y-197200000D02*
X294800000Y-197200000D01*
X287665781Y-197265781D02*
X287731562Y-197200000D01*
%TO.N,Net-(J25-Pin_11)*%
X294701562Y-186298438D02*
X294800000Y-186200000D01*
X287633123Y-186298438D02*
X294701562Y-186298438D01*
%TO.N,Net-(J25-Pin_9)*%
X294684219Y-175315781D02*
X294800000Y-175200000D01*
X287615781Y-175315781D02*
X294684219Y-175315781D01*
%TO.N,Net-(J25-Pin_7)*%
X287731562Y-164200000D02*
X294800000Y-164200000D01*
X287615781Y-164315781D02*
X287731562Y-164200000D01*
%TO.N,Net-(Q914-D)*%
X304600000Y-137600000D02*
X294800000Y-147400000D01*
X304600000Y-136000000D02*
X304600000Y-137600000D01*
%TO.N,Net-(Q941-D)*%
X304600000Y-148600000D02*
X294800000Y-158400000D01*
X304600000Y-147000000D02*
X304600000Y-148600000D01*
%TO.N,Net-(Q966-D)*%
X304500000Y-159700000D02*
X294800000Y-169400000D01*
X304500000Y-157900000D02*
X304500000Y-159700000D01*
%TO.N,Net-(Q1017-G)*%
X304600000Y-170600000D02*
X294800000Y-180400000D01*
X304600000Y-169000000D02*
X304600000Y-170600000D01*
%TO.N,Net-(Q1019-D)*%
X294800000Y-189700000D02*
X294800000Y-191400000D01*
X304500000Y-180000000D02*
X294800000Y-189700000D01*
%TO.N,Net-(Q1041-D)*%
X295000000Y-202400000D02*
X294800000Y-202400000D01*
X304600000Y-192800000D02*
X295000000Y-202400000D01*
X304600000Y-191000000D02*
X304600000Y-192800000D01*
%TO.N,Net-(Q1068-D)*%
X304600000Y-203600000D02*
X294800000Y-213400000D01*
X304600000Y-202000000D02*
X304600000Y-203600000D01*
%TO.N,Net-(Q1095-D)*%
X302800000Y-213800000D02*
X300000000Y-213800000D01*
X304848943Y-212399000D02*
X304201000Y-212399000D01*
X300000000Y-213800000D02*
X298700000Y-212500000D01*
X305400000Y-212950057D02*
X304848943Y-212399000D01*
X305400000Y-213800000D02*
X305400000Y-212950057D01*
X304201000Y-212399000D02*
X302800000Y-213800000D01*
%TO.N,Net-(Q1067-D)*%
X302700000Y-202600000D02*
X299600000Y-202600000D01*
X305400000Y-201950057D02*
X304848943Y-201399000D01*
X303901000Y-201399000D02*
X302700000Y-202600000D01*
X299600000Y-202600000D02*
X298600000Y-201600000D01*
X305400000Y-202600000D02*
X305400000Y-201950057D01*
X304848943Y-201399000D02*
X303901000Y-201399000D01*
%TO.N,Net-(Q1040-D)*%
X299800000Y-191600000D02*
X298700000Y-190500000D01*
X304849943Y-190400000D02*
X304000000Y-190400000D01*
X302800000Y-191600000D02*
X299800000Y-191600000D01*
X305400000Y-190950057D02*
X304849943Y-190400000D01*
X305400000Y-191600000D02*
X305400000Y-190950057D01*
X304000000Y-190400000D02*
X302800000Y-191600000D01*
%TO.N,Net-(Q1018-D)*%
X302800000Y-180600000D02*
X299800000Y-180600000D01*
X304001000Y-179399000D02*
X302800000Y-180600000D01*
X304748943Y-179399000D02*
X304001000Y-179399000D01*
X299800000Y-180600000D02*
X298700000Y-179500000D01*
X305400000Y-180050057D02*
X304748943Y-179399000D01*
X305400000Y-180600000D02*
X305400000Y-180050057D01*
%TO.N,Net-(Q989-D)*%
X302800000Y-169600000D02*
X299800000Y-169600000D01*
X304001000Y-168399000D02*
X302800000Y-169600000D01*
X304848943Y-168399000D02*
X304001000Y-168399000D01*
X299800000Y-169600000D02*
X298700000Y-168500000D01*
X305400000Y-168950057D02*
X304848943Y-168399000D01*
X305400000Y-169600000D02*
X305400000Y-168950057D01*
%TO.N,Net-(Q965-D)*%
X299700000Y-158500000D02*
X298700000Y-157500000D01*
X302800000Y-158500000D02*
X299700000Y-158500000D01*
X305400000Y-157950057D02*
X304748943Y-157299000D01*
X305400000Y-158500000D02*
X305400000Y-157950057D01*
X304748943Y-157299000D02*
X304001000Y-157299000D01*
X304001000Y-157299000D02*
X302800000Y-158500000D01*
%TO.N,Net-(Q940-D)*%
X303902000Y-146399000D02*
X302700000Y-147601000D01*
X305400000Y-146950057D02*
X304848943Y-146399000D01*
X305400000Y-147500000D02*
X305400000Y-146950057D01*
X304848943Y-146399000D02*
X303902000Y-146399000D01*
%TO.N,Net-(Q913-D)*%
X299200000Y-136000000D02*
X298700000Y-135500000D01*
X302700000Y-136000000D02*
X299200000Y-136000000D01*
X303301000Y-135399000D02*
X302700000Y-136000000D01*
X305201000Y-135751057D02*
X304848943Y-135399000D01*
X305201000Y-136248943D02*
X305201000Y-135751057D01*
X304848943Y-135399000D02*
X303301000Y-135399000D01*
X305174971Y-136274971D02*
X305201000Y-136248943D01*
X305400000Y-136500000D02*
X305174971Y-136274971D01*
%TO.N,Net-(Q940-D)*%
X299701000Y-147601000D02*
X298600000Y-146500000D01*
X302700000Y-147601000D02*
X299701000Y-147601000D01*
%TO.N,!JMP*%
X71167100Y-114700000D02*
X83284660Y-114700000D01*
X40400000Y-141900000D02*
X49222000Y-133078000D01*
X49222000Y-133078000D02*
X64906661Y-133078000D01*
X40400000Y-141900000D02*
X37798000Y-144502000D01*
X37798000Y-144502000D02*
X37798000Y-166298000D01*
X66600000Y-131384660D02*
X66600000Y-119267100D01*
X64906661Y-133078000D02*
X65692330Y-132292330D01*
X37798000Y-166298000D02*
X46700000Y-175200000D01*
X121900000Y-104600000D02*
X111800000Y-114700000D01*
X65692330Y-132292330D02*
X66600000Y-131384660D01*
X46700000Y-175200000D02*
X64800000Y-175200000D01*
X66600000Y-119267100D02*
X71167100Y-114700000D01*
X127300000Y-104600000D02*
X121900000Y-104600000D01*
X111800000Y-114700000D02*
X83284660Y-114700000D01*
%TO.N,!BOP*%
X65072761Y-133479000D02*
X67100000Y-131451760D01*
X106500000Y-115100000D02*
X110500000Y-119100000D01*
X51021000Y-133479000D02*
X65072761Y-133479000D01*
X71400000Y-115100000D02*
X106500000Y-115100000D01*
X38199000Y-146301000D02*
X46200000Y-138300000D01*
X67100000Y-131451760D02*
X67100000Y-119400000D01*
X38199000Y-165899000D02*
X38199000Y-146301000D01*
X46800000Y-174500000D02*
X38199000Y-165899000D01*
X67100000Y-119400000D02*
X71400000Y-115100000D01*
X74700000Y-174500000D02*
X46800000Y-174500000D01*
X46200000Y-138300000D02*
X51021000Y-133479000D01*
X110500000Y-119100000D02*
X115700000Y-119100000D01*
%TO.N,!BON*%
X48400000Y-140100000D02*
X50100000Y-138400000D01*
X78999000Y-173899000D02*
X52199000Y-173899000D01*
X48400000Y-156500000D02*
X48400000Y-140100000D01*
X48361500Y-156538500D02*
X48400000Y-156500000D01*
X79600000Y-174500000D02*
X78999000Y-173899000D01*
X48361500Y-170061500D02*
X48361500Y-156538500D01*
X52199000Y-173899000D02*
X48361500Y-170061500D01*
%TO.N,!BOZ*%
X58100000Y-142300000D02*
X54100000Y-138300000D01*
X58100000Y-170500000D02*
X58100000Y-142300000D01*
X83600000Y-173300000D02*
X60900000Y-173300000D01*
X84700000Y-174400000D02*
X83600000Y-173300000D01*
X60900000Y-173300000D02*
X58100000Y-170500000D01*
%TO.N,!BNZ*%
X60463500Y-140763500D02*
X58100000Y-138400000D01*
X87800000Y-172700000D02*
X63700000Y-172700000D01*
X63700000Y-172700000D02*
X60463500Y-169463500D01*
X89500000Y-174400000D02*
X87800000Y-172700000D01*
X60463500Y-169463500D02*
X60463500Y-140763500D01*
%TO.N,!BOO*%
X62300000Y-141650057D02*
X62000000Y-141350057D01*
X75454714Y-172300000D02*
X62300000Y-159145286D01*
X62000000Y-141350057D02*
X62000000Y-138300000D01*
X92300000Y-172300000D02*
X75454714Y-172300000D01*
X62300000Y-159145286D02*
X62300000Y-141650057D01*
X94300000Y-174300000D02*
X92300000Y-172300000D01*
%TO.N,!BNO*%
X76099000Y-171899000D02*
X67200000Y-163000000D01*
X67200000Y-163000000D02*
X67200000Y-142145286D01*
X97199000Y-171899000D02*
X76099000Y-171899000D01*
X99700000Y-174400000D02*
X97199000Y-171899000D01*
X67200000Y-142145286D02*
X66000000Y-140945286D01*
X66000000Y-140945286D02*
X66000000Y-138400000D01*
%TO.N,!BOU*%
X104700000Y-174600000D02*
X101500000Y-171400000D01*
X73963500Y-142163500D02*
X70100000Y-138300000D01*
X73963500Y-167300000D02*
X73963500Y-142163500D01*
X101500000Y-171400000D02*
X78063500Y-171400000D01*
X78063500Y-171400000D02*
X73963500Y-167300000D01*
%TO.N,!BNU*%
X79699000Y-170999000D02*
X78700000Y-170000000D01*
X106299000Y-170999000D02*
X96400000Y-170999000D01*
X96400000Y-170999000D02*
X79699000Y-170999000D01*
X74364500Y-138764500D02*
X74100000Y-138500000D01*
X74364500Y-165664500D02*
X74364500Y-138764500D01*
X109800000Y-174500000D02*
X106299000Y-170999000D01*
X78700000Y-170000000D02*
X74364500Y-165664500D01*
%TO.N,!BOC*%
X83199000Y-169299000D02*
X78200000Y-164300000D01*
X114800000Y-174300000D02*
X109799000Y-169299000D01*
X109799000Y-169299000D02*
X83199000Y-169299000D01*
X78200000Y-138300000D02*
X78100000Y-138200000D01*
X78200000Y-164300000D02*
X78200000Y-138300000D01*
%TO.N,!BNC*%
X105800000Y-168898000D02*
X85098000Y-168898000D01*
X83400000Y-167200000D02*
X83400000Y-142600000D01*
X116200000Y-174500000D02*
X110800000Y-169100000D01*
X85098000Y-168898000D02*
X83850000Y-167650000D01*
X83850000Y-167650000D02*
X83400000Y-167200000D01*
X119900000Y-174500000D02*
X116200000Y-174500000D01*
X110800000Y-169100000D02*
X110598000Y-168898000D01*
X110598000Y-168898000D02*
X105800000Y-168898000D01*
%TO.N,!Clear*%
X199300000Y-128300000D02*
X197001000Y-130599000D01*
X185150943Y-130599000D02*
X178549943Y-137200000D01*
X131200000Y-137200000D02*
X126100000Y-142300000D01*
X122801000Y-174301000D02*
X123500000Y-175000000D01*
X178549943Y-137200000D02*
X138100000Y-137200000D01*
X138100000Y-137200000D02*
X131200000Y-137200000D01*
X197001000Y-130599000D02*
X185150943Y-130599000D01*
X126100000Y-142300000D02*
X122801000Y-145599000D01*
X122801000Y-145599000D02*
X122801000Y-174301000D01*
%TO.N,!Load*%
X57100000Y-154700000D02*
X57613500Y-155213500D01*
X41155112Y-149155112D02*
X39400000Y-147400000D01*
X57613500Y-168286500D02*
X57500000Y-168400000D01*
X124031786Y-146968214D02*
X128200000Y-142800000D01*
X128500000Y-173767214D02*
X124031786Y-169299000D01*
X41155112Y-167144888D02*
X41155112Y-149155112D01*
X57613500Y-155213500D02*
X57613500Y-168286500D01*
X128500000Y-175100000D02*
X128500000Y-173767214D01*
X124031786Y-168400000D02*
X124031786Y-146968214D01*
X124031786Y-169299000D02*
X124031786Y-168400000D01*
X41000000Y-167300000D02*
X41155112Y-167144888D01*
%TO.N,!Store*%
X172163500Y-145436500D02*
X128263500Y-145436500D01*
X191100000Y-132800000D02*
X184800000Y-132800000D01*
X184800000Y-132800000D02*
X172163500Y-145436500D01*
X126100000Y-147600000D02*
X124549000Y-149151000D01*
X124549000Y-149151000D02*
X124549000Y-166049000D01*
X124549000Y-166049000D02*
X133500000Y-175000000D01*
X128263500Y-145436500D02*
X126100000Y-147600000D01*
%TO.N,!INC*%
X137467214Y-174800000D02*
X125150000Y-162482786D01*
X204324971Y-117875029D02*
X204248943Y-117799000D01*
X138500000Y-174800000D02*
X137467214Y-174800000D01*
X206800000Y-120350057D02*
X204324971Y-117875029D01*
X125150000Y-162482786D02*
X125150000Y-157000000D01*
X204248942Y-117799000D02*
X204324971Y-117875029D01*
X206800000Y-136000000D02*
X206800000Y-120350057D01*
%TO.N,!DEC*%
X143500000Y-175100000D02*
X129150000Y-160750000D01*
X129150000Y-160750000D02*
X129150000Y-156900000D01*
%TO.N,!RS*%
X147467214Y-175100000D02*
X133150000Y-160782786D01*
X148500000Y-175100000D02*
X147467214Y-175100000D01*
X133150000Y-160782786D02*
X133150000Y-156900000D01*
%TO.N,!NOT*%
X153500000Y-174800000D02*
X153500000Y-174101000D01*
X153500000Y-174101000D02*
X136299000Y-156900000D01*
%TO.N,!AND*%
X157099000Y-175000000D02*
X139599000Y-157500000D01*
X186100000Y-129800000D02*
X194300000Y-129800000D01*
X194300000Y-129800000D02*
X194700000Y-129400000D01*
X158500000Y-175000000D02*
X157099000Y-175000000D01*
%TO.N,!OR*%
X163500000Y-175000000D02*
X146111500Y-157611500D01*
X146111500Y-157611500D02*
X143599000Y-157611500D01*
X186000000Y-132200000D02*
X197700000Y-132200000D01*
%TO.N,!XOR*%
X165099000Y-175000000D02*
X147599000Y-157500000D01*
X181200000Y-133700000D02*
X189500000Y-125400000D01*
X189500000Y-125400000D02*
X194800000Y-125400000D01*
X168500000Y-175000000D02*
X165099000Y-175000000D01*
%TO.N,!ADD*%
X173500000Y-175000000D02*
X156000000Y-157500000D01*
X179350057Y-134700000D02*
X195650057Y-118400000D01*
X195650057Y-118400000D02*
X197700000Y-118400000D01*
X179300000Y-134700000D02*
X179350057Y-134700000D01*
X156000000Y-157500000D02*
X151599000Y-157500000D01*
%TO.N,!ADC*%
X190500000Y-137300000D02*
X191500000Y-136300000D01*
X204400000Y-126349943D02*
X204400000Y-118800000D01*
X191500000Y-136300000D02*
X194449943Y-136300000D01*
X178500000Y-175000000D02*
X177267214Y-175000000D01*
X185000000Y-137300000D02*
X190500000Y-137300000D01*
X194449943Y-136300000D02*
X204400000Y-126349943D01*
X177267214Y-175000000D02*
X157745984Y-155478770D01*
X157745984Y-155478770D02*
X157745984Y-152045984D01*
%TO.N,!MOV*%
X187300000Y-136000000D02*
X189300000Y-136000000D01*
X161300000Y-152000000D02*
X161300000Y-152500000D01*
X189300000Y-136000000D02*
X192200000Y-133100000D01*
X161300000Y-152800000D02*
X161300000Y-152500000D01*
X166600000Y-146700000D02*
X161300000Y-152000000D01*
X183500000Y-175000000D02*
X161300000Y-152800000D01*
%TO.N,Net-(Q17-G)*%
X197600000Y-199500000D02*
X212000000Y-199500000D01*
X196700000Y-189200000D02*
X212000000Y-189200000D01*
X90800000Y-176300000D02*
X90800000Y-218200000D01*
X80900000Y-176200000D02*
X80900000Y-218200000D01*
X198000000Y-168700000D02*
X212000000Y-168700000D01*
X100900000Y-176300000D02*
X100900000Y-218200000D01*
X110900000Y-176300000D02*
X110900000Y-218200000D01*
X212000000Y-178500000D02*
X197900000Y-178500000D01*
X71000000Y-176300000D02*
X71000000Y-218200000D01*
X55100000Y-215100000D02*
X58200000Y-218200000D01*
X55100000Y-211100000D02*
X55100000Y-215100000D01*
%TO.N,Net-(Q15-G)*%
X106000000Y-217400000D02*
X105900000Y-217500000D01*
X200801000Y-172999000D02*
X200700000Y-173100000D01*
X200600000Y-194200000D02*
X211400000Y-194200000D01*
X62600000Y-184300000D02*
X62600000Y-217500000D01*
X55700000Y-214500000D02*
X58700000Y-217500000D01*
X211400000Y-172999000D02*
X200801000Y-172999000D01*
X85800000Y-180300000D02*
X85800000Y-217500000D01*
X62400000Y-184100000D02*
X62600000Y-184300000D01*
X55700000Y-207300000D02*
X55700000Y-214500000D01*
X55100000Y-206700000D02*
X55700000Y-207300000D01*
X106000000Y-180300000D02*
X106000000Y-217400000D01*
%TO.N,Net-(Q21-G)*%
X145800000Y-184300000D02*
X145800000Y-216800000D01*
X197800000Y-157400000D02*
X210800000Y-157400000D01*
X126100000Y-184300000D02*
X126100000Y-216800000D01*
X56200000Y-203500000D02*
X55000000Y-202300000D01*
X135800000Y-216700000D02*
X135700000Y-216800000D01*
X115700000Y-216800000D02*
X115800000Y-216700000D01*
X56200000Y-213800000D02*
X56200000Y-203500000D01*
X135800000Y-184300000D02*
X135800000Y-216700000D01*
X76000000Y-184300000D02*
X76000000Y-216800000D01*
X115800000Y-216700000D02*
X115800000Y-184400000D01*
X59200000Y-216800000D02*
X56200000Y-213800000D01*
%TO.N,Net-(Q25-G)*%
X59700000Y-216100000D02*
X56600000Y-213000000D01*
X56600000Y-213000000D02*
X56600000Y-199500000D01*
X130700000Y-188300000D02*
X130700000Y-216100000D01*
X95800000Y-188300000D02*
X95800000Y-216100000D01*
X56600000Y-199500000D02*
X55100000Y-198000000D01*
X150900000Y-188200000D02*
X150900000Y-216100000D01*
%TO.N,Net-(Q40-G)*%
X57000000Y-212200000D02*
X57000000Y-195400000D01*
X175800000Y-192200000D02*
X175800000Y-215400000D01*
X60200000Y-215400000D02*
X57000000Y-212200000D01*
X155800000Y-192300000D02*
X155800000Y-215400000D01*
X55100000Y-193500000D02*
X57000000Y-195400000D01*
X120900000Y-192200000D02*
X120900000Y-215400000D01*
X166000000Y-192300000D02*
X166000000Y-215400000D01*
%TO.N,Net-(Q53-G)*%
X140800000Y-196300000D02*
X140800000Y-214700000D01*
X55200000Y-189200000D02*
X57400000Y-191400000D01*
X60700000Y-214700000D02*
X57400000Y-211400000D01*
X170900000Y-196300000D02*
X170900000Y-214700000D01*
X57400000Y-211400000D02*
X57400000Y-191400000D01*
%TO.N,Net-(Q57-G)*%
X61200000Y-214000000D02*
X57801000Y-210601000D01*
X160800000Y-213900000D02*
X160700000Y-214000000D01*
X57801000Y-210601000D02*
X57801000Y-187501000D01*
X57801000Y-187501000D02*
X55100000Y-184800000D01*
X160800000Y-200300000D02*
X160800000Y-213900000D01*
%TO.N,Net-(Q603-D)*%
X61700000Y-213300000D02*
X58202000Y-209802000D01*
X58202000Y-183502000D02*
X55200000Y-180500000D01*
X58202000Y-209802000D02*
X58202000Y-183502000D01*
X180900000Y-204300000D02*
X181500000Y-204900000D01*
X181500000Y-204900000D02*
X181500000Y-213300000D01*
%TO.N,Net-(Q10-G)*%
X65706250Y-200806250D02*
X65706250Y-207593750D01*
X179800000Y-201900000D02*
X179800000Y-207600000D01*
X65706250Y-207593750D02*
X65700000Y-207600000D01*
%TO.N,Net-(Q11-G)*%
X64899000Y-197701000D02*
X65100000Y-197902000D01*
X179200000Y-198400000D02*
X179200000Y-208300000D01*
X160200000Y-197600000D02*
X160200000Y-208300000D01*
X65100000Y-197902000D02*
X65100000Y-208300000D01*
%TO.N,Net-(Q12-G)*%
X178600000Y-209000000D02*
X178600000Y-195000000D01*
X159600000Y-194200000D02*
X159600000Y-209000000D01*
X64500000Y-194600000D02*
X64500000Y-197450057D01*
X64500000Y-197450057D02*
X64498000Y-197452057D01*
X64498000Y-197949943D02*
X64500000Y-197951943D01*
X140200000Y-193400000D02*
X140200000Y-209000000D01*
X64499000Y-208548943D02*
X64500000Y-208549943D01*
X64500000Y-208549943D02*
X64500000Y-209000000D01*
X64500000Y-197951943D02*
X64500000Y-208050057D01*
X64300000Y-194400000D02*
X64500000Y-194600000D01*
X64500000Y-208050057D02*
X64499000Y-208051057D01*
X170300000Y-193500000D02*
X170300000Y-209000000D01*
X64499000Y-208051057D02*
X64499000Y-208548943D01*
X64498000Y-197452057D02*
X64498000Y-197949943D01*
%TO.N,Net-(Q13-G)*%
X139600000Y-189900000D02*
X139600000Y-209700000D01*
X63900000Y-191100000D02*
X63900000Y-209700000D01*
X63700000Y-190900000D02*
X63900000Y-191100000D01*
X120300000Y-189300000D02*
X120300000Y-209700000D01*
%TO.N,Net-(Q14-G)*%
X150300000Y-185300000D02*
X150300000Y-210400000D01*
X198300000Y-153100000D02*
X208400000Y-153100000D01*
X95200000Y-185400000D02*
X95200000Y-210400000D01*
X63300000Y-187700000D02*
X63300000Y-210400000D01*
X119700000Y-185900000D02*
X119700000Y-210400000D01*
X63100000Y-187500000D02*
X63300000Y-187700000D01*
X130100000Y-185600000D02*
X130100000Y-210400000D01*
X208400000Y-163400000D02*
X198200000Y-163400000D01*
X139000000Y-186600000D02*
X139000000Y-210400000D01*
%TO.N,Net-(Q18-G)*%
X201200000Y-183400000D02*
X202400000Y-184600000D01*
X115200000Y-181500000D02*
X115200000Y-211100000D01*
X94600000Y-182000000D02*
X94600000Y-211100000D01*
X75400000Y-181200000D02*
X75400000Y-211100000D01*
X202400000Y-184600000D02*
X209000000Y-184600000D01*
X199800000Y-204700000D02*
X199800000Y-211100000D01*
%TO.N,Net-(Q1-D)*%
X209600000Y-194800000D02*
X198100000Y-194800000D01*
X62000000Y-181000000D02*
X62000000Y-211800000D01*
X198050000Y-194750000D02*
X197850000Y-194750000D01*
X74799000Y-177801000D02*
X74799000Y-211799000D01*
X199200000Y-185200000D02*
X209600000Y-185200000D01*
X198100000Y-194800000D02*
X198050000Y-194750000D01*
X105400000Y-177200000D02*
X105400000Y-211800000D01*
X198000000Y-184000000D02*
X199200000Y-185200000D01*
X74799000Y-211799000D02*
X74800000Y-211800000D01*
X61800000Y-180800000D02*
X62000000Y-181000000D01*
X195800000Y-204700000D02*
X195800000Y-211800000D01*
X209600000Y-173700000D02*
X198100000Y-173700000D01*
X85200000Y-177500000D02*
X85200000Y-211800000D01*
X114600000Y-178000000D02*
X114600000Y-211800000D01*
X74800000Y-177800000D02*
X74799000Y-177801000D01*
X94000000Y-178600000D02*
X94000000Y-211800000D01*
D17*
%TO.N,Faling Edge*%
X45799000Y-71999000D02*
X42750000Y-68950000D01*
X66260000Y-35400000D02*
X73560000Y-28100000D01*
X50900000Y-98400000D02*
X45799000Y-93299000D01*
X144060000Y-34960000D02*
X144060000Y-35400000D01*
X42750000Y-68950000D02*
X41800000Y-68000000D01*
X137200000Y-28100000D02*
X144060000Y-34960000D01*
X42750000Y-68950000D02*
X41900000Y-68100000D01*
X41900000Y-68100000D02*
X41900000Y-66000000D01*
X73560000Y-28100000D02*
X137200000Y-28100000D01*
X45799000Y-93299000D02*
X45799000Y-71999000D01*
D16*
%TO.N,Rising Edge*%
X50800000Y-92122950D02*
X50900000Y-92022950D01*
D17*
X66260000Y-75502000D02*
X67511000Y-74251000D01*
X112300000Y-73400000D02*
X115600000Y-76700000D01*
X50900000Y-93500000D02*
X50900000Y-92022950D01*
X66260000Y-76521529D02*
X66260000Y-75900000D01*
X132600000Y-71300000D02*
X142360000Y-71300000D01*
X122900000Y-76700000D02*
X126700000Y-72900000D01*
X142360000Y-71300000D02*
X144060000Y-73000000D01*
D16*
X50800000Y-93500000D02*
X50800000Y-92122950D01*
D17*
X50900000Y-91881529D02*
X66260000Y-76521529D01*
X66260000Y-75900000D02*
X66260000Y-73000000D01*
X50900000Y-92022950D02*
X50900000Y-91881529D01*
X131000000Y-72900000D02*
X132600000Y-71300000D01*
X108449000Y-74251000D02*
X109300000Y-73400000D01*
X115600000Y-76700000D02*
X122900000Y-76700000D01*
X67511000Y-74251000D02*
X108449000Y-74251000D01*
X66260000Y-73000000D02*
X67511000Y-74251000D01*
X126700000Y-72900000D02*
X131000000Y-72900000D01*
X66260000Y-75900000D02*
X66260000Y-75502000D01*
X109300000Y-73400000D02*
X112300000Y-73400000D01*
D16*
%TO.N,Read New Instruction*%
X40100000Y-170000000D02*
X31500000Y-178600000D01*
X31500000Y-178600000D02*
X31500000Y-185480000D01*
X30000000Y-186980000D02*
X31500000Y-185480000D01*
%TO.N,Buss3*%
X216054000Y-26554000D02*
X216054000Y-48066500D01*
X216054000Y-48066500D02*
X217950000Y-49962500D01*
X215803218Y-26303218D02*
X216054000Y-26554000D01*
X215795552Y-26303218D02*
X215803218Y-26303218D01*
%TO.N,Buss2*%
X216254702Y-25645298D02*
X216455000Y-25845596D01*
X216455000Y-43467500D02*
X218350000Y-45362500D01*
X216455000Y-25845596D02*
X216455000Y-43467500D01*
%TO.N,rst*%
X49951000Y-34249000D02*
X60029000Y-34249000D01*
X233280000Y-76340000D02*
X233340000Y-76340000D01*
X61200000Y-68300000D02*
X61180000Y-68320000D01*
X35724265Y-48475735D02*
X49951000Y-34249000D01*
X69180000Y-27400000D02*
X61180000Y-35400000D01*
X61180000Y-68320000D02*
X61180000Y-73000000D01*
X60029000Y-34249000D02*
X61180000Y-35400000D01*
X133900000Y-27400000D02*
X69180000Y-27400000D01*
X35724265Y-51224265D02*
X35724265Y-48475735D01*
%TO.N,Buss0*%
X217000000Y-24200000D02*
X220150000Y-27350000D01*
X220150000Y-27350000D02*
X220150000Y-35362500D01*
X220150000Y-35362500D02*
X221050000Y-36262500D01*
%TO.N,Buss6*%
X214851000Y-60363500D02*
X217950000Y-63462500D01*
X214400000Y-28500000D02*
X214851000Y-28951000D01*
X214851000Y-28951000D02*
X214851000Y-60363500D01*
%TO.N,Buss7*%
X214450000Y-29650000D02*
X214450000Y-64162500D01*
X214100000Y-29300000D02*
X214450000Y-29650000D01*
X214450000Y-64162500D02*
X218250000Y-67962500D01*
%TO.N,Buss4*%
X215653000Y-27353000D02*
X215653000Y-52065500D01*
X215300000Y-27000000D02*
X215653000Y-27353000D01*
X215653000Y-52065500D02*
X218050000Y-54462500D01*
D17*
%TO.N,CLOCK*%
X28051000Y-75231000D02*
X42343500Y-75231000D01*
X42343500Y-75231000D02*
X42481500Y-75369000D01*
X26800000Y-73980000D02*
X28051000Y-75231000D01*
D16*
%TO.N,Buss5*%
X215252000Y-28152000D02*
X214800000Y-27700000D01*
X215252000Y-56164500D02*
X215252000Y-28152000D01*
X218150000Y-59062500D02*
X215252000Y-56164500D01*
%TO.N,Buss1*%
X218850000Y-40162500D02*
X219450000Y-39562500D01*
X218850000Y-40862500D02*
X218850000Y-40162500D01*
X216504807Y-24885396D02*
X219450000Y-27830589D01*
X219450000Y-39562500D02*
X219450000Y-27830589D01*
%TO.N,ADR 13*%
X44800000Y-64317500D02*
X45282500Y-64317500D01*
X24000000Y-53676160D02*
X34641340Y-64317500D01*
X96298000Y-63203000D02*
X97400000Y-62101000D01*
X105226057Y-61800000D02*
X105227057Y-61801000D01*
X45283800Y-64317500D02*
X46398300Y-63203000D01*
X34641340Y-64317500D02*
X44600000Y-64317500D01*
X24000000Y-42680000D02*
X24000000Y-53676160D01*
X26800000Y-39880000D02*
X24000000Y-42680000D01*
X44600000Y-64317500D02*
X44800000Y-64317500D01*
X99734900Y-62102000D02*
X101267043Y-62102000D01*
X109276000Y-61800000D02*
X109976000Y-61100000D01*
X97400000Y-62101000D02*
X99733900Y-62101000D01*
X105725943Y-61800000D02*
X109276000Y-61800000D01*
X46398300Y-63203000D02*
X96298000Y-63203000D01*
X105227057Y-61801000D02*
X105724943Y-61801000D01*
X101569043Y-61800000D02*
X105226057Y-61800000D01*
X101267043Y-62102000D02*
X101569043Y-61800000D01*
X44600000Y-64317500D02*
X45283800Y-64317500D01*
X99733900Y-62101000D02*
X99734900Y-62102000D01*
X105724943Y-61801000D02*
X105725943Y-61800000D01*
%TO.N,ADR 10*%
X91700000Y-62000000D02*
X92600000Y-61100000D01*
X92600000Y-61100000D02*
X96352000Y-61100000D01*
X25248000Y-53222860D02*
X35139640Y-63114500D01*
X45900000Y-62000000D02*
X91700000Y-62000000D01*
X44785500Y-63114500D02*
X45900000Y-62000000D01*
X25248000Y-49052000D02*
X25248000Y-53222860D01*
X26800000Y-47500000D02*
X25248000Y-49052000D01*
X35139640Y-63114500D02*
X44785500Y-63114500D01*
%TO.N,ADR 6*%
X32600000Y-40600000D02*
X29340000Y-37340000D01*
X38894000Y-56994000D02*
X32600000Y-50700000D01*
X76700000Y-59500000D02*
X74194000Y-56994000D01*
X32600000Y-50700000D02*
X32600000Y-40600000D01*
X74194000Y-56994000D02*
X38894000Y-56994000D01*
%TO.N,ADR 15*%
X110899000Y-61701000D02*
X110000000Y-62600000D01*
X118976000Y-61100000D02*
X118375000Y-61701000D01*
X109609200Y-62601000D02*
X109608200Y-62602000D01*
X104893857Y-62602000D02*
X101901243Y-62602000D01*
X110000000Y-62600000D02*
X109917100Y-62600000D01*
X109917100Y-62600000D02*
X109916100Y-62601000D01*
X109608200Y-62602000D02*
X106058143Y-62602000D01*
X23198000Y-38402000D02*
X26800000Y-34800000D01*
X46814500Y-64005000D02*
X45700000Y-65119500D01*
X45700000Y-65119500D02*
X34309140Y-65119500D01*
X23198000Y-54008360D02*
X23198000Y-38402000D01*
X101901243Y-62602000D02*
X101599243Y-62904000D01*
X106058143Y-62602000D02*
X106057143Y-62603000D01*
X109916100Y-62601000D02*
X109609200Y-62601000D01*
X106057143Y-62603000D02*
X104894857Y-62603000D01*
X97731200Y-62904000D02*
X96630200Y-64005000D01*
X96630200Y-64005000D02*
X46814500Y-64005000D01*
X101599243Y-62904000D02*
X97731200Y-62904000D01*
X104894857Y-62603000D02*
X104893857Y-62602000D01*
X118375000Y-61701000D02*
X110899000Y-61701000D01*
X34309140Y-65119500D02*
X23198000Y-54008360D01*
%TO.N,ADR 7*%
X33000000Y-50200000D02*
X33000000Y-38460000D01*
X39393000Y-56593000D02*
X33000000Y-50200000D01*
X33000000Y-38460000D02*
X29340000Y-34800000D01*
X78393000Y-56593000D02*
X39393000Y-56593000D01*
X81200000Y-59400000D02*
X78393000Y-56593000D01*
%TO.N,ADR 0*%
X36360000Y-59600000D02*
X29340000Y-52580000D01*
X49700000Y-59600000D02*
X36360000Y-59600000D01*
%TO.N,ADR 2*%
X58800000Y-59600000D02*
X57798000Y-58598000D01*
X57798000Y-58598000D02*
X38198000Y-58598000D01*
X29340000Y-47740000D02*
X29340000Y-47500000D01*
X30750000Y-51150000D02*
X30750000Y-49150000D01*
X30750000Y-49150000D02*
X29340000Y-47740000D01*
X38198000Y-58598000D02*
X30750000Y-51150000D01*
%TO.N,ADR 5*%
X32161000Y-42701000D02*
X29340000Y-39880000D01*
X38729200Y-57395000D02*
X32161000Y-50826800D01*
X69995000Y-57395000D02*
X38729200Y-57395000D01*
X32161000Y-50826800D02*
X32161000Y-42701000D01*
X72200000Y-59600000D02*
X69995000Y-57395000D01*
%TO.N,ADR 9*%
X25649000Y-53056760D02*
X25649000Y-51191000D01*
X91200000Y-61600000D02*
X45700000Y-61600000D01*
X45700000Y-61600000D02*
X44586500Y-62713500D01*
X25649000Y-51191000D02*
X26800000Y-50040000D01*
X91700000Y-61100000D02*
X91200000Y-61600000D01*
X44586500Y-62713500D02*
X35305740Y-62713500D01*
X35305740Y-62713500D02*
X25649000Y-53056760D01*
%TO.N,ADR 3*%
X38397000Y-58197000D02*
X31290000Y-51090000D01*
X61797000Y-58197000D02*
X38397000Y-58197000D01*
X31290000Y-46910000D02*
X29340000Y-44960000D01*
X31290000Y-51090000D02*
X31290000Y-46910000D01*
X63200000Y-59600000D02*
X61797000Y-58197000D01*
%TO.N,ADR 4*%
X65996000Y-57796000D02*
X38563100Y-57796000D01*
X31760000Y-50992900D02*
X31760000Y-44840000D01*
X31760000Y-44840000D02*
X29340000Y-42420000D01*
X67700000Y-59500000D02*
X65996000Y-57796000D01*
X38563100Y-57796000D02*
X31760000Y-50992900D01*
%TO.N,ADR 1*%
X49400000Y-59000000D02*
X37600000Y-59000000D01*
X37600000Y-59000000D02*
X29340000Y-50740000D01*
X29340000Y-50740000D02*
X29340000Y-50040000D01*
X49401000Y-58999000D02*
X49400000Y-59000000D01*
X54300000Y-59600000D02*
X53699000Y-58999000D01*
X53699000Y-58999000D02*
X49401000Y-58999000D01*
%TO.N,ADR 8*%
X87352000Y-61000000D02*
X45612500Y-61000000D01*
X26800000Y-53640660D02*
X26800000Y-52580000D01*
X45612500Y-61000000D02*
X44300000Y-62312500D01*
X44300000Y-62312500D02*
X35471840Y-62312500D01*
X35471840Y-62312500D02*
X26800000Y-53640660D01*
%TO.N,ADR 14*%
X105892043Y-62201000D02*
X109442100Y-62201000D01*
X34475240Y-64718500D02*
X45449900Y-64718500D01*
X99568800Y-62503000D02*
X101433143Y-62503000D01*
X23599000Y-53842260D02*
X34475240Y-64718500D01*
X105060957Y-62202000D02*
X105891043Y-62202000D01*
X105891043Y-62202000D02*
X105892043Y-62201000D01*
X109750000Y-62200000D02*
X110850000Y-61100000D01*
X97566100Y-62502000D02*
X99567800Y-62502000D01*
X109442100Y-62201000D02*
X109443100Y-62200000D01*
X96464100Y-63604000D02*
X97566100Y-62502000D01*
X99567800Y-62502000D02*
X99568800Y-62503000D01*
X109443100Y-62200000D02*
X109750000Y-62200000D01*
X105059957Y-62201000D02*
X105060957Y-62202000D01*
X110850000Y-61100000D02*
X114476000Y-61100000D01*
X101433143Y-62503000D02*
X101735143Y-62201000D01*
X23599000Y-40541000D02*
X23599000Y-53842260D01*
X26800000Y-37340000D02*
X23599000Y-40541000D01*
X46564400Y-63604000D02*
X96464100Y-63604000D01*
X45449900Y-64718500D02*
X46564400Y-63604000D01*
X101735143Y-62201000D02*
X105059957Y-62201000D01*
%TO.N,ADR 11*%
X24847000Y-46913000D02*
X26800000Y-44960000D01*
X44951600Y-63515500D02*
X34973540Y-63515500D01*
X100852000Y-61100000D02*
X97201943Y-61100000D01*
X95900943Y-62401000D02*
X46066100Y-62401000D01*
X34973540Y-63515500D02*
X24847000Y-53388960D01*
X46066100Y-62401000D02*
X44951600Y-63515500D01*
X24847000Y-53388960D02*
X24847000Y-46913000D01*
X97201943Y-61100000D02*
X95900943Y-62401000D01*
%TO.N,ADR 12*%
X24446000Y-53555060D02*
X24446000Y-44774000D01*
X101601943Y-61200000D02*
X101100943Y-61701000D01*
X97169043Y-61700000D02*
X96067043Y-62802000D01*
X105476000Y-61200000D02*
X101601943Y-61200000D01*
X45117700Y-63916500D02*
X34807440Y-63916500D01*
X34807440Y-63916500D02*
X24446000Y-53555060D01*
X96067043Y-62802000D02*
X46232200Y-62802000D01*
X101100943Y-61701000D02*
X99901000Y-61701000D01*
X24446000Y-44774000D02*
X26800000Y-42420000D01*
X99901000Y-61701000D02*
X99900000Y-61700000D01*
X46232200Y-62802000D02*
X45117700Y-63916500D01*
X99900000Y-61700000D02*
X97169043Y-61700000D01*
%TO.N,OR*%
X203700000Y-133000000D02*
X202700000Y-132000000D01*
X205900000Y-133000000D02*
X203700000Y-133000000D01*
%TO.N,A ->ALU B*%
X197799000Y-158001000D02*
X211048943Y-158001000D01*
X194300000Y-161500000D02*
X197799000Y-158001000D01*
X238700000Y-74080000D02*
X235880000Y-71260000D01*
X238700000Y-130349943D02*
X238700000Y-74080000D01*
X211048943Y-158001000D02*
X238700000Y-130349943D01*
%TO.N,ALU B = FF*%
X197797999Y-123400000D02*
X228699000Y-92498999D01*
X228699000Y-75901000D02*
X233340000Y-71260000D01*
X192800000Y-123400000D02*
X197797999Y-123400000D01*
X228699000Y-92498999D02*
X228699000Y-75901000D01*
%TO.N,C ->ALU A*%
X211650943Y-172400000D02*
X213300000Y-172400000D01*
X239500000Y-146200000D02*
X239500000Y-69800000D01*
X211149057Y-172400000D02*
X211151057Y-172398000D01*
X239500000Y-69800000D02*
X235880000Y-66180000D01*
X213300000Y-172400000D02*
X239500000Y-146200000D01*
X194600000Y-172400000D02*
X211149057Y-172400000D01*
X211648943Y-172398000D02*
X211650943Y-172400000D01*
X211151057Y-172398000D02*
X211648943Y-172398000D01*
X194500000Y-172500000D02*
X194600000Y-172400000D01*
%TO.N,D ->ALU A*%
X235880000Y-68720000D02*
X239100000Y-71940000D01*
X239100000Y-133900000D02*
X205500000Y-167500000D01*
X239100000Y-71940000D02*
X239100000Y-133900000D01*
X205500000Y-167500000D02*
X194100000Y-167500000D01*
%TO.N,B ->ALU B*%
X238200000Y-124267100D02*
X238200000Y-76120000D01*
X238200000Y-76120000D02*
X235880000Y-73800000D01*
X194200000Y-156600000D02*
X205867100Y-156600000D01*
X205867100Y-156600000D02*
X238200000Y-124267100D01*
%TO.N,B ->ALU A*%
X211300000Y-177500000D02*
X194300000Y-177500000D01*
X235880000Y-63640000D02*
X239901000Y-67661000D01*
X239901000Y-67661000D02*
X239901000Y-148899000D01*
X239901000Y-148899000D02*
X211300000Y-177500000D01*
%TO.N,A ->ALU A*%
X197501000Y-185801000D02*
X209848943Y-185801000D01*
X240302000Y-155347944D02*
X240302000Y-65522000D01*
X209848943Y-185801000D02*
X240302000Y-155347944D01*
X194300000Y-182600000D02*
X197501000Y-185801000D01*
X240302000Y-65522000D02*
X235880000Y-61100000D01*
%TO.N,C ->ALU B*%
X237800000Y-124100000D02*
X237800000Y-78260000D01*
X210400000Y-151500000D02*
X237800000Y-124100000D01*
X194400000Y-151500000D02*
X210400000Y-151500000D01*
X237800000Y-78260000D02*
X235880000Y-76340000D01*
%TO.N,D ->ALU B*%
X235880000Y-78880000D02*
X235880000Y-123420000D01*
X213000000Y-146300000D02*
X235880000Y-123420000D01*
X194300000Y-146300000D02*
X213000000Y-146300000D01*
%TO.N,REG Read*%
X190799000Y-181299000D02*
X167898000Y-158398000D01*
X201467214Y-204300000D02*
X190799000Y-193631786D01*
X167898000Y-158398000D02*
X167898000Y-148339500D01*
X190799000Y-193631786D02*
X190799000Y-181299000D01*
X167898000Y-148339500D02*
X170200000Y-146037500D01*
X203000000Y-204300000D02*
X201467214Y-204300000D01*
%TO.N,REG -> ALU B*%
X203200000Y-162500000D02*
X175362500Y-162500000D01*
X175362500Y-162500000D02*
X168900000Y-156037500D01*
%TO.N,REG -> ALU A*%
X189301000Y-179101000D02*
X168299000Y-158099000D01*
X168299000Y-158099000D02*
X168299000Y-151738500D01*
X198701000Y-179101000D02*
X189301000Y-179101000D01*
X168299000Y-151738500D02*
X169000000Y-151037500D01*
X203200000Y-183600000D02*
X198701000Y-179101000D01*
%TO.N,READ FALG*%
X51223718Y-118400282D02*
X51223718Y-119124000D01*
X56200000Y-113424000D02*
X51223718Y-118400282D01*
X51223718Y-115000000D02*
X51223718Y-132477000D01*
D17*
%TO.N,Store Address ++*%
X125876000Y-47511500D02*
X196801000Y-47511500D01*
D16*
X39900000Y-48111500D02*
X40500000Y-47511500D01*
X40500000Y-47511500D02*
X40500000Y-45800000D01*
D17*
%TO.N,Net-(Q170-G)*%
X124876000Y-55811500D02*
X196801000Y-55811500D01*
D16*
%TO.N,Net-(Q204-G)*%
X191200000Y-89400000D02*
X191200000Y-86700000D01*
X185993750Y-94606250D02*
X191200000Y-89400000D01*
%TO.N,Net-(Q205-G)*%
X177993750Y-94606250D02*
X183200000Y-89400000D01*
X183200000Y-89400000D02*
X183200000Y-86700000D01*
%TO.N,Net-(Q206-G)*%
X169993750Y-92006250D02*
X175200000Y-86800000D01*
X169993750Y-94606250D02*
X169993750Y-92006250D01*
%TO.N,Net-(Q207-G)*%
X161993750Y-94606250D02*
X167200000Y-89400000D01*
X167200000Y-89400000D02*
X167200000Y-86700000D01*
%TO.N,Net-(Q208-G)*%
X153993750Y-94606250D02*
X159100000Y-89500000D01*
X159100000Y-89500000D02*
X159100000Y-86900000D01*
%TO.N,Net-(Q209-G)*%
X145993750Y-94606250D02*
X151100000Y-89500000D01*
X151100000Y-89500000D02*
X151100000Y-86600000D01*
%TO.N,Net-(Q210-G)*%
X143000000Y-89600000D02*
X143000000Y-86700000D01*
X137993750Y-94606250D02*
X143000000Y-89600000D01*
%TO.N,Net-(Q211-G)*%
X135100000Y-89500000D02*
X135100000Y-86600000D01*
X129993750Y-94606250D02*
X135100000Y-89500000D01*
%TO.N,Net-(Q212-G)*%
X122043750Y-94656250D02*
X122043750Y-87956250D01*
X122043750Y-87956250D02*
X126000000Y-84000000D01*
%TO.N,Net-(Q213-G)*%
X114000000Y-94700000D02*
X114000000Y-88000000D01*
X114000000Y-88000000D02*
X118000000Y-84000000D01*
%TO.N,Net-(Q214-G)*%
X105993750Y-94606250D02*
X105993750Y-89064282D01*
X105993750Y-89064282D02*
X111529016Y-83529016D01*
%TO.N,Net-(Q215-G)*%
X97993750Y-89064282D02*
X103329016Y-83729016D01*
X97993750Y-94606250D02*
X97993750Y-89064282D01*
%TO.N,Net-(Q216-G)*%
X89993750Y-94606250D02*
X89993750Y-89064282D01*
X89993750Y-89064282D02*
X95579016Y-83479016D01*
%TO.N,Net-(Q217-G)*%
X82100000Y-89912500D02*
X87906250Y-84106250D01*
X82100000Y-94700000D02*
X82100000Y-89912500D01*
%TO.N,Net-(Q218-G)*%
X74043750Y-92056250D02*
X74043750Y-94656250D01*
X79200000Y-86900000D02*
X74043750Y-92056250D01*
D17*
%TO.N,Read From stored Address*%
X48076000Y-47511500D02*
X118852000Y-47511500D01*
D16*
%TO.N,NEXT ADR 0*%
X118541100Y-62102000D02*
X111065100Y-62102000D01*
X104727757Y-63003000D02*
X102067343Y-63003000D01*
X110083200Y-63001000D02*
X110082200Y-63002000D01*
X111065100Y-62102000D02*
X110166100Y-63001000D01*
X97897300Y-63305000D02*
X96796300Y-64406000D01*
X109775300Y-63002000D02*
X109774300Y-63003000D01*
X106223243Y-63004000D02*
X104728757Y-63004000D01*
X118543100Y-62100000D02*
X118541100Y-62102000D01*
X96796300Y-64406000D02*
X77394000Y-64406000D01*
X104728757Y-63004000D02*
X104727757Y-63003000D01*
X122600000Y-60200000D02*
X120700000Y-62100000D01*
X120700000Y-62100000D02*
X118543100Y-62100000D01*
X101765343Y-63305000D02*
X97897300Y-63305000D01*
X110082200Y-63002000D02*
X109775300Y-63002000D01*
X106224243Y-63003000D02*
X106223243Y-63004000D01*
X102067343Y-63003000D02*
X101765343Y-63305000D01*
X109774300Y-63003000D02*
X106224243Y-63003000D01*
X77394000Y-64406000D02*
X68800000Y-73000000D01*
X110166100Y-63001000D02*
X110083200Y-63001000D01*
X129100000Y-60200000D02*
X122600000Y-60200000D01*
%TO.N,NEXT ADR 1*%
X120533900Y-62501000D02*
X120531900Y-62503000D01*
X110396000Y-63404000D02*
X102233443Y-63404000D01*
X102233443Y-63404000D02*
X101931443Y-63706000D01*
X120531900Y-62503000D02*
X111297000Y-62503000D01*
X122567100Y-60800000D02*
X120866100Y-62501000D01*
X133500000Y-60100000D02*
X132800000Y-60800000D01*
X120866100Y-62501000D02*
X120533900Y-62501000D01*
X111297000Y-62503000D02*
X110396000Y-63404000D01*
X132800000Y-60800000D02*
X122567100Y-60800000D01*
X96962400Y-64807000D02*
X79533000Y-64807000D01*
X79533000Y-64807000D02*
X71340000Y-73000000D01*
X101931443Y-63706000D02*
X98063400Y-63706000D01*
X98063400Y-63706000D02*
X96962400Y-64807000D01*
%TO.N,NEXT ADR 2*%
X137099000Y-61201000D02*
X138000000Y-60300000D01*
X73880000Y-73000000D02*
X80079000Y-66801000D01*
X102097543Y-64107000D02*
X102399543Y-63805000D01*
X97128500Y-65208000D02*
X98229500Y-64107000D01*
X80079000Y-66801000D02*
X84207000Y-66801000D01*
X102399543Y-63805000D02*
X110562100Y-63805000D01*
X111463100Y-62904000D02*
X120698000Y-62904000D01*
X120698000Y-62904000D02*
X120700000Y-62902000D01*
X121032200Y-62902000D02*
X122733200Y-61201000D01*
X122733200Y-61201000D02*
X137099000Y-61201000D01*
X98229500Y-64107000D02*
X102097543Y-64107000D01*
X84207000Y-66801000D02*
X85800000Y-65208000D01*
X120700000Y-62902000D02*
X121032200Y-62902000D01*
X110562100Y-63805000D02*
X111463100Y-62904000D01*
X85800000Y-65208000D02*
X97128500Y-65208000D01*
%TO.N,NEXT ADR 3*%
X102263643Y-64508000D02*
X102565643Y-64206000D01*
X76420000Y-73000000D02*
X79224000Y-70196000D01*
X121197000Y-63303000D02*
X122898000Y-61602000D01*
X120864100Y-63305000D02*
X120866100Y-63303000D01*
X85991000Y-65609000D02*
X97294600Y-65609000D01*
X102565643Y-64206000D02*
X110728200Y-64206000D01*
X110728200Y-64206000D02*
X111629200Y-63305000D01*
X98395600Y-64508000D02*
X102263643Y-64508000D01*
X79224000Y-70176000D02*
X82100000Y-67300000D01*
X122898000Y-61602000D02*
X141674000Y-61602000D01*
X82100000Y-67300000D02*
X84300000Y-67300000D01*
X79224000Y-70196000D02*
X79224000Y-70176000D01*
X111629200Y-63305000D02*
X120864100Y-63305000D01*
X97294600Y-65609000D02*
X98395600Y-64508000D01*
X141674000Y-61602000D02*
X142776000Y-60500000D01*
X120866100Y-63303000D02*
X121197000Y-63303000D01*
X84300000Y-67300000D02*
X85991000Y-65609000D01*
%TO.N,NEXT ADR 4*%
X121363100Y-63704000D02*
X121032200Y-63704000D01*
X84259000Y-67701000D02*
X78960000Y-73000000D01*
X145797000Y-62003000D02*
X123064100Y-62003000D01*
X102429743Y-64909000D02*
X98561700Y-64909000D01*
X111795300Y-63706000D02*
X110894300Y-64607000D01*
X121032200Y-63704000D02*
X121030200Y-63706000D01*
X98561700Y-64909000D02*
X97460700Y-66010000D01*
X121030200Y-63706000D02*
X111795300Y-63706000D01*
X123064100Y-62003000D02*
X121363100Y-63704000D01*
X147200000Y-60600000D02*
X145797000Y-62003000D01*
X102731743Y-64607000D02*
X102429743Y-64909000D01*
X110894300Y-64607000D02*
X102731743Y-64607000D01*
X86157100Y-66010000D02*
X84466100Y-67701000D01*
X97460700Y-66010000D02*
X86157100Y-66010000D01*
X84466100Y-67701000D02*
X84259000Y-67701000D01*
%TO.N,NEXT ADR 5*%
X102107786Y-66801000D02*
X87699000Y-66801000D01*
X121196300Y-64107000D02*
X111961400Y-64107000D01*
X121529200Y-64105000D02*
X121198300Y-64105000D01*
X149896000Y-62404000D02*
X123230200Y-62404000D01*
X102577000Y-66331786D02*
X102107786Y-66801000D01*
X111961400Y-64107000D02*
X111060400Y-65008000D01*
X87699000Y-66801000D02*
X81500000Y-73000000D01*
X103892000Y-65008000D02*
X102577000Y-66323000D01*
X151700000Y-60600000D02*
X149896000Y-62404000D01*
X123230200Y-62404000D02*
X121529200Y-64105000D01*
X111060400Y-65008000D02*
X103892000Y-65008000D01*
X102577000Y-66323000D02*
X102577000Y-66331786D01*
X121198300Y-64105000D02*
X121196300Y-64107000D01*
%TO.N,NEXT ADR 6*%
X123396300Y-62805000D02*
X121693300Y-64508000D01*
X153895000Y-62805000D02*
X123396300Y-62805000D01*
X156200000Y-60500000D02*
X153895000Y-62805000D01*
X111226500Y-65409000D02*
X104058100Y-65409000D01*
X102978000Y-66489100D02*
X102978000Y-66497886D01*
X104058100Y-65409000D02*
X102978000Y-66489100D01*
X121693300Y-64508000D02*
X112127500Y-64508000D01*
X102273886Y-67202000D02*
X89838000Y-67202000D01*
X112127500Y-64508000D02*
X111226500Y-65409000D01*
X89838000Y-67202000D02*
X84040000Y-73000000D01*
X102978000Y-66497886D02*
X102273886Y-67202000D01*
%TO.N,NEXT ADR 7*%
X104224200Y-65810000D02*
X103379000Y-66655200D01*
X121859400Y-64909000D02*
X112293600Y-64909000D01*
X111392600Y-65810000D02*
X104224200Y-65810000D01*
X123562400Y-63206000D02*
X121859400Y-64909000D01*
X102439986Y-67603000D02*
X91977000Y-67603000D01*
X157794000Y-63206000D02*
X123562400Y-63206000D01*
X91977000Y-67603000D02*
X86580000Y-73000000D01*
X112293600Y-64909000D02*
X111392600Y-65810000D01*
X103379000Y-66663986D02*
X102439986Y-67603000D01*
X160600000Y-60400000D02*
X157794000Y-63206000D01*
X103379000Y-66655200D02*
X103379000Y-66663986D01*
%TO.N,NEXT ADR 8*%
X149772900Y-71800000D02*
X150124900Y-71448000D01*
X150124900Y-71448000D02*
X151633900Y-71448000D01*
X151633900Y-71448000D02*
X152034900Y-71047000D01*
X157652700Y-70646000D02*
X158501700Y-69797000D01*
X165579600Y-64700000D02*
X165700000Y-64700000D01*
X147800000Y-71800000D02*
X149772900Y-71800000D01*
X152034900Y-71047000D02*
X152831000Y-71047000D01*
X153232000Y-70646000D02*
X157652700Y-70646000D01*
X158501700Y-69797000D02*
X160482600Y-69797000D01*
X160482600Y-69797000D02*
X165579600Y-64700000D01*
X152831000Y-71047000D02*
X153232000Y-70646000D01*
X146600000Y-73000000D02*
X147800000Y-71800000D01*
%TO.N,NEXT ADR 9*%
X165604000Y-69396000D02*
X170400000Y-64600000D01*
X152201000Y-71448000D02*
X152997100Y-71448000D01*
X149140000Y-73000000D02*
X150291000Y-71849000D01*
X157818800Y-71047000D02*
X158667800Y-70198000D01*
X152997100Y-71448000D02*
X153398100Y-71047000D01*
X151800000Y-71849000D02*
X152201000Y-71448000D01*
X153398100Y-71047000D02*
X157818800Y-71047000D01*
X163800000Y-69396000D02*
X165604000Y-69396000D01*
X160648700Y-70198000D02*
X161002700Y-69844000D01*
X158667800Y-70198000D02*
X160648700Y-70198000D01*
X161002700Y-69844000D02*
X163352000Y-69844000D01*
X150291000Y-71849000D02*
X151800000Y-71849000D01*
X163352000Y-69844000D02*
X163800000Y-69396000D01*
%TO.N,NEXT ADR 10*%
X161168800Y-70245000D02*
X163852000Y-70245000D01*
X154400000Y-71849000D02*
X154801000Y-71448000D01*
X163852000Y-70245000D02*
X164300000Y-69797000D01*
X154801000Y-71448000D02*
X157984900Y-71448000D01*
X157984900Y-71448000D02*
X158833900Y-70599000D01*
X158833900Y-70599000D02*
X160814800Y-70599000D01*
X151680000Y-73000000D02*
X152831000Y-71849000D01*
X152831000Y-71849000D02*
X154400000Y-71849000D01*
X164300000Y-69797000D02*
X169603000Y-69797000D01*
X169603000Y-69797000D02*
X174800000Y-64600000D01*
X160814800Y-70599000D02*
X161168800Y-70245000D01*
%TO.N,NEXT ADR 11*%
X164500000Y-70198000D02*
X173302000Y-70198000D01*
X160980900Y-71000000D02*
X161334900Y-70646000D01*
X161334900Y-70646000D02*
X164052000Y-70646000D01*
X154220000Y-73000000D02*
X155371000Y-71849000D01*
X179100000Y-64400000D02*
X179400000Y-64400000D01*
X159000000Y-71000000D02*
X160980900Y-71000000D01*
X173302000Y-70198000D02*
X179100000Y-64400000D01*
X164052000Y-70646000D02*
X164500000Y-70198000D01*
X158151000Y-71849000D02*
X159000000Y-71000000D01*
X155371000Y-71849000D02*
X158151000Y-71849000D01*
%TO.N,NEXT ADR 12*%
X157600000Y-73000000D02*
X159152000Y-71448000D01*
X177401000Y-70599000D02*
X183700000Y-64300000D01*
X164800000Y-70599000D02*
X177401000Y-70599000D01*
X159152000Y-71448000D02*
X161100000Y-71448000D01*
X156760000Y-73000000D02*
X157600000Y-73000000D01*
X161100000Y-71448000D02*
X161501000Y-71047000D01*
X161501000Y-71047000D02*
X164352000Y-71047000D01*
X164352000Y-71047000D02*
X164800000Y-70599000D01*
%TO.N,NEXT ADR 13*%
X181100000Y-71000000D02*
X188100000Y-64000000D01*
X160451000Y-71849000D02*
X161800000Y-71849000D01*
X161800000Y-71849000D02*
X162201000Y-71448000D01*
X165100000Y-71000000D02*
X181100000Y-71000000D01*
X162201000Y-71448000D02*
X164652000Y-71448000D01*
X159300000Y-73000000D02*
X160451000Y-71849000D01*
X164652000Y-71448000D02*
X165100000Y-71000000D01*
%TO.N,NEXT ADR 14*%
X161840000Y-73000000D02*
X162991000Y-71849000D01*
X188600000Y-64500000D02*
X192900000Y-64500000D01*
X165400000Y-71400000D02*
X181700000Y-71400000D01*
X162991000Y-71849000D02*
X164951000Y-71849000D01*
X181700000Y-71400000D02*
X188600000Y-64500000D01*
X164951000Y-71849000D02*
X165400000Y-71400000D01*
%TO.N,NEXT ADR 15*%
X195000000Y-67100000D02*
X186600000Y-67100000D01*
X186600000Y-67100000D02*
X181900000Y-71800000D01*
X181900000Y-71800000D02*
X165580000Y-71800000D01*
X165580000Y-71800000D02*
X164380000Y-73000000D01*
X197300000Y-64800000D02*
X195000000Y-67100000D01*
D17*
%TO.N,Net-(Q332-G)*%
X46976000Y-55711500D02*
X51176000Y-55711500D01*
D16*
X51176000Y-55711500D02*
X51276000Y-55711500D01*
D17*
X51176000Y-55711500D02*
X118852000Y-55711500D01*
D16*
%TO.N,TIME STEP 0*%
X86200000Y-109800000D02*
X89100000Y-106900000D01*
%TO.N,!TIME STEP 0*%
X69499000Y-159699000D02*
X69499000Y-131301000D01*
X71800000Y-162000000D02*
X69499000Y-159699000D01*
X73375000Y-127425000D02*
X73375000Y-121400000D01*
X72200000Y-128600000D02*
X73375000Y-127425000D01*
X69499000Y-131301000D02*
X72200000Y-128600000D01*
%TO.N,TIME STEP 1*%
X68763500Y-121036500D02*
X69500000Y-120300000D01*
X68100000Y-151399000D02*
X68763500Y-150735500D01*
X68763500Y-150735500D02*
X68763500Y-121036500D01*
%TO.N,FLAG N*%
X91221000Y-112399000D02*
X68524718Y-112399000D01*
X96720000Y-106900000D02*
X91221000Y-112399000D01*
X68524718Y-112399000D02*
X64123718Y-116800000D01*
%TO.N,Net-(Q418-G)*%
X60223718Y-123200000D02*
X60223718Y-127800000D01*
X60223718Y-114900000D02*
X60223718Y-118600000D01*
X60223718Y-118600000D02*
X60223718Y-123200000D01*
X60223718Y-127800000D02*
X60223718Y-132300000D01*
%TO.N,FLAG STORE N*%
X45400000Y-114500000D02*
X45599000Y-114301000D01*
X45599000Y-114199700D02*
X47001700Y-112797000D01*
X74800000Y-108500000D02*
X76400000Y-106900000D01*
X45599000Y-114301000D02*
X45599000Y-114199700D01*
X47001700Y-112797000D02*
X53501700Y-112797000D01*
X53501700Y-112797000D02*
X55602700Y-110696000D01*
X55602700Y-110696000D02*
X57369800Y-110696000D01*
X59565800Y-108500000D02*
X74800000Y-108500000D01*
X57369800Y-110696000D02*
X59565800Y-108500000D01*
X45400000Y-117600000D02*
X45400000Y-114500000D01*
%TO.N,FLAG Z*%
X152950000Y-118400000D02*
X153400000Y-118850000D01*
X109430000Y-117070000D02*
X114519943Y-117070000D01*
X69023718Y-112800000D02*
X63923718Y-117900000D01*
X114519943Y-117070000D02*
X115849943Y-118400000D01*
X115849943Y-118400000D02*
X152950000Y-118400000D01*
X93360000Y-112800000D02*
X69023718Y-112800000D01*
X63923718Y-117900000D02*
X63823718Y-117900000D01*
X99260000Y-106900000D02*
X93360000Y-112800000D01*
%TO.N,FLAG STORE Z*%
X47167800Y-113198000D02*
X53667800Y-113198000D01*
X46000000Y-121400000D02*
X46000000Y-114365800D01*
X45400000Y-122000000D02*
X46000000Y-121400000D01*
X59767800Y-108998000D02*
X76842000Y-108998000D01*
X57535900Y-111097000D02*
X59633900Y-108999000D01*
X53667800Y-113198000D02*
X55768800Y-111097000D01*
X46000000Y-114365800D02*
X47167800Y-113198000D01*
X59766800Y-108999000D02*
X59767800Y-108998000D01*
X55768800Y-111097000D02*
X57535900Y-111097000D01*
X76842000Y-108998000D02*
X78940000Y-106900000D01*
X59633900Y-108999000D02*
X59766800Y-108999000D01*
%TO.N,FLAG U*%
X64312718Y-118987282D02*
X64312718Y-122700000D01*
X70100000Y-113200000D02*
X64312718Y-118987282D01*
X101800000Y-106900000D02*
X95500000Y-113200000D01*
X95500000Y-113200000D02*
X70100000Y-113200000D01*
%TO.N,FLAG STORE U*%
X47333900Y-113599000D02*
X53833900Y-113599000D01*
X45600000Y-126500000D02*
X46401000Y-125699000D01*
X57702000Y-111498000D02*
X59800000Y-109400000D01*
X59800000Y-109400000D02*
X59932900Y-109400000D01*
X46401000Y-114531900D02*
X47333900Y-113599000D01*
X59932900Y-109400000D02*
X59933900Y-109399000D01*
X46401000Y-125699000D02*
X46401000Y-114531900D01*
X55934900Y-111498000D02*
X57702000Y-111498000D01*
X59933900Y-109399000D02*
X78981000Y-109399000D01*
X53833900Y-113599000D02*
X55934900Y-111498000D01*
X78981000Y-109399000D02*
X81480000Y-106900000D01*
%TO.N,FLAG O*%
X97640000Y-113600000D02*
X104340000Y-106900000D01*
X71100000Y-113600000D02*
X97640000Y-113600000D01*
X65700000Y-125623718D02*
X65700000Y-119000000D01*
X64123718Y-127200000D02*
X65700000Y-125623718D01*
X65700000Y-119000000D02*
X71100000Y-113600000D01*
%TO.N,FLAG STORE O*%
X46802000Y-114698000D02*
X47500000Y-114000000D01*
X58001000Y-111899000D02*
X60100000Y-109800000D01*
X47500000Y-114000000D02*
X54132900Y-114000000D01*
X45600000Y-131100000D02*
X46802000Y-129898000D01*
X54132900Y-114000000D02*
X56233900Y-111899000D01*
X56233900Y-111899000D02*
X58001000Y-111899000D01*
X46802000Y-129898000D02*
X46802000Y-114698000D01*
X60100000Y-109800000D02*
X81120000Y-109800000D01*
X81120000Y-109800000D02*
X84020000Y-106900000D01*
%TO.N,FLAG C*%
X71299000Y-114001000D02*
X99779000Y-114001000D01*
X64223718Y-131300000D02*
X66101000Y-129422718D01*
X66101000Y-119199000D02*
X71299000Y-114001000D01*
X66101000Y-129422718D02*
X66101000Y-119199000D01*
X99779000Y-114001000D02*
X106880000Y-106900000D01*
X106880000Y-106900000D02*
X106900000Y-106920000D01*
%TO.N,FLAG STORE C*%
X45600000Y-135700000D02*
X47203000Y-134097000D01*
X47203000Y-134097000D02*
X47203000Y-115697000D01*
X83260000Y-110200000D02*
X86560000Y-106900000D01*
X56400000Y-112300000D02*
X68056618Y-112300000D01*
X68358618Y-111998000D02*
X79489100Y-111998000D01*
X47203000Y-115697000D02*
X48500000Y-114400000D01*
X54300000Y-114400000D02*
X56400000Y-112300000D01*
X48500000Y-114400000D02*
X54300000Y-114400000D01*
X68056618Y-112300000D02*
X68358618Y-111998000D01*
X79489100Y-111998000D02*
X81287100Y-110200000D01*
X81287100Y-110200000D02*
X83260000Y-110200000D01*
%TO.N,Read Write ins*%
X63908058Y-142008058D02*
X64200000Y-142300000D01*
X43963500Y-149741214D02*
X43261500Y-150443214D01*
X43261500Y-157261500D02*
X43300000Y-157300000D01*
X43800000Y-145475000D02*
X43800000Y-145775000D01*
X64200000Y-142300000D02*
X64200000Y-144100000D01*
X43800000Y-145775000D02*
X43963500Y-145938500D01*
X44800000Y-168000000D02*
X44800000Y-158800000D01*
X43963500Y-145938500D02*
X43963500Y-149741214D01*
X44800000Y-158800000D02*
X43300000Y-157300000D01*
X43261500Y-150443214D02*
X43261500Y-157261500D01*
%TO.N,TIME STEP 2*%
X75400000Y-151900000D02*
X75400000Y-159500000D01*
X76100000Y-132500000D02*
X90200000Y-118400000D01*
X76100000Y-151276000D02*
X76024000Y-151276000D01*
X90200000Y-118400000D02*
X90800000Y-117800000D01*
X76024000Y-151276000D02*
X75400000Y-151900000D01*
X76100000Y-151276000D02*
X76100000Y-132500000D01*
X90800000Y-117800000D02*
X90800000Y-117700000D01*
%TO.N,TIME STEP 0or1or2*%
X80100000Y-152500000D02*
X81300000Y-151300000D01*
X81300000Y-151300000D02*
X81300000Y-147800000D01*
%TO.N,TIME STEP 0or1*%
X54000000Y-152300000D02*
X54100000Y-152200000D01*
X54100000Y-150900000D02*
X57200000Y-147800000D01*
X54100000Y-152200000D02*
X54100000Y-150900000D01*
%TO.N,Main bus -> bus out*%
X218951000Y-46161500D02*
X218951000Y-43563500D01*
X217950000Y-38062500D02*
X217950000Y-33762500D01*
X218551000Y-47963500D02*
X217850000Y-47262500D01*
X218751000Y-56863500D02*
X217950000Y-56062500D01*
X218651000Y-52263500D02*
X217950000Y-51562500D01*
X218900000Y-75900000D02*
X218851000Y-75851000D01*
X217950000Y-42562500D02*
X217950000Y-38262500D01*
X217950000Y-56062500D02*
X218651000Y-55361500D01*
X217850000Y-47262500D02*
X218951000Y-46161500D01*
X217950000Y-51562500D02*
X218551000Y-50961500D01*
X217950000Y-38262500D02*
X217850000Y-38162500D01*
X218551000Y-61263500D02*
X217850000Y-60562500D01*
X218751000Y-59661500D02*
X218751000Y-56863500D01*
X218551000Y-64461500D02*
X218551000Y-61263500D01*
X218851000Y-75851000D02*
X218851000Y-66163500D01*
X218651000Y-55361500D02*
X218651000Y-52263500D01*
X218851000Y-66163500D02*
X217850000Y-65162500D01*
X217850000Y-60562500D02*
X218751000Y-59661500D01*
X218551000Y-50961500D02*
X218551000Y-47963500D01*
X217850000Y-38162500D02*
X217950000Y-38062500D01*
X218951000Y-43563500D02*
X217950000Y-42562500D01*
X217850000Y-65162500D02*
X218551000Y-64461500D01*
%TO.N,Net-(Q520-D)*%
X225900000Y-38000000D02*
X222600000Y-38000000D01*
X222600000Y-38000000D02*
X222500000Y-37900000D01*
%TO.N,Net-(Q523-D)*%
X225900000Y-42500000D02*
X222600000Y-42500000D01*
%TO.N,Net-(Q526-D)*%
X225900000Y-47000000D02*
X222600000Y-47000000D01*
%TO.N,Net-(Q529-D)*%
X225900000Y-51500000D02*
X222500000Y-51500000D01*
%TO.N,Net-(Q532-D)*%
X225900000Y-56000000D02*
X222500000Y-56000000D01*
%TO.N,Net-(Q535-D)*%
X225900000Y-60500000D02*
X222500000Y-60500000D01*
%TO.N,Net-(Q538-D)*%
X225900000Y-65000000D02*
X222600000Y-65000000D01*
%TO.N,Net-(Q544-D)*%
X208837500Y-38000000D02*
X209400000Y-38562500D01*
X200900000Y-38000000D02*
X208837500Y-38000000D01*
%TO.N,Net-(Q547-D)*%
X208837500Y-42500000D02*
X209400000Y-43062500D01*
X200900000Y-42500000D02*
X208837500Y-42500000D01*
%TO.N,Net-(Q550-D)*%
X200900000Y-47000000D02*
X208837500Y-47000000D01*
X208837500Y-47000000D02*
X209400000Y-47562500D01*
%TO.N,Net-(Q553-D)*%
X208837500Y-51500000D02*
X209400000Y-52062500D01*
X200900000Y-51500000D02*
X208837500Y-51500000D01*
%TO.N,Net-(Q556-D)*%
X200900000Y-56000000D02*
X208837500Y-56000000D01*
X208837500Y-56000000D02*
X209400000Y-56562500D01*
%TO.N,Net-(Q559-D)*%
X200900000Y-60500000D02*
X208837500Y-60500000D01*
X208837500Y-60500000D02*
X209400000Y-61062500D01*
%TO.N,Net-(Q562-D)*%
X208837500Y-65000000D02*
X209400000Y-65562500D01*
X200900000Y-65000000D02*
X208837500Y-65000000D01*
%TD*%
M02*
