G04 #@! TF.GenerationSoftware,KiCad,Pcbnew,9.0.7*
G04 #@! TF.CreationDate,2026-02-04T13:15:48+01:00*
G04 #@! TF.ProjectId,REG8bit-SMD-V3.0,52454738-6269-4742-9d53-4d442d56332e,rev?*
G04 #@! TF.SameCoordinates,Original*
G04 #@! TF.FileFunction,Copper,L1,Top*
G04 #@! TF.FilePolarity,Positive*
%FSLAX46Y46*%
G04 Gerber Fmt 4.6, Leading zero omitted, Abs format (unit mm)*
G04 Created by KiCad (PCBNEW 9.0.7) date 2026-02-04 13:15:48*
%MOMM*%
%LPD*%
G01*
G04 APERTURE LIST*
G04 Aperture macros list*
%AMRoundRect*
0 Rectangle with rounded corners*
0 $1 Rounding radius*
0 $2 $3 $4 $5 $6 $7 $8 $9 X,Y pos of 4 corners*
0 Add a 4 corners polygon primitive as box body*
4,1,4,$2,$3,$4,$5,$6,$7,$8,$9,$2,$3,0*
0 Add four circle primitives for the rounded corners*
1,1,$1+$1,$2,$3*
1,1,$1+$1,$4,$5*
1,1,$1+$1,$6,$7*
1,1,$1+$1,$8,$9*
0 Add four rect primitives between the rounded corners*
20,1,$1+$1,$2,$3,$4,$5,0*
20,1,$1+$1,$4,$5,$6,$7,0*
20,1,$1+$1,$6,$7,$8,$9,0*
20,1,$1+$1,$8,$9,$2,$3,0*%
G04 Aperture macros list end*
G04 #@! TA.AperFunction,SMDPad,CuDef*
%ADD10RoundRect,0.140000X-0.140000X-0.170000X0.140000X-0.170000X0.140000X0.170000X-0.140000X0.170000X0*%
G04 #@! TD*
G04 #@! TA.AperFunction,SMDPad,CuDef*
%ADD11RoundRect,0.150000X0.587500X0.150000X-0.587500X0.150000X-0.587500X-0.150000X0.587500X-0.150000X0*%
G04 #@! TD*
G04 #@! TA.AperFunction,SMDPad,CuDef*
%ADD12RoundRect,0.140000X0.170000X-0.140000X0.170000X0.140000X-0.170000X0.140000X-0.170000X-0.140000X0*%
G04 #@! TD*
G04 #@! TA.AperFunction,SMDPad,CuDef*
%ADD13RoundRect,0.220000X0.255000X-0.220000X0.255000X0.220000X-0.255000X0.220000X-0.255000X-0.220000X0*%
G04 #@! TD*
G04 #@! TA.AperFunction,SMDPad,CuDef*
%ADD14RoundRect,0.250000X0.475000X-0.250000X0.475000X0.250000X-0.475000X0.250000X-0.475000X-0.250000X0*%
G04 #@! TD*
G04 #@! TA.AperFunction,ComponentPad*
%ADD15R,1.700000X1.700000*%
G04 #@! TD*
G04 #@! TA.AperFunction,ComponentPad*
%ADD16O,1.700000X1.700000*%
G04 #@! TD*
G04 #@! TA.AperFunction,ViaPad*
%ADD17C,0.600000*%
G04 #@! TD*
G04 #@! TA.AperFunction,Conductor*
%ADD18C,0.500000*%
G04 #@! TD*
G04 #@! TA.AperFunction,Conductor*
%ADD19C,0.200000*%
G04 #@! TD*
G04 APERTURE END LIST*
D10*
X51300000Y-124100000D03*
X52300000Y-124100000D03*
D11*
X110037500Y-114850000D03*
X110037500Y-112950000D03*
X108162500Y-113900000D03*
D12*
X54800000Y-130300000D03*
X54800000Y-129300000D03*
D11*
X52837500Y-131550000D03*
X52837500Y-129650000D03*
X50962500Y-130600000D03*
X83637500Y-114850000D03*
X83637500Y-112950000D03*
X81762500Y-113900000D03*
X70437500Y-118750000D03*
X70437500Y-116850000D03*
X68562500Y-117800000D03*
X57237500Y-107050000D03*
X57237500Y-105150000D03*
X55362500Y-106100000D03*
X118837500Y-127550000D03*
X118837500Y-125650000D03*
X116962500Y-126600000D03*
D10*
X86500000Y-124100000D03*
X87500000Y-124100000D03*
D13*
X70700000Y-106690000D03*
X70700000Y-105110000D03*
D11*
X66037500Y-122650000D03*
X66037500Y-120750000D03*
X64162500Y-121700000D03*
X110037500Y-127550000D03*
X110037500Y-125650000D03*
X108162500Y-126600000D03*
D13*
X79500000Y-106690000D03*
X79500000Y-105110000D03*
D11*
X92437500Y-107050000D03*
X92437500Y-105150000D03*
X90562500Y-106100000D03*
D10*
X94400000Y-107400000D03*
X95400000Y-107400000D03*
X50400000Y-107400000D03*
X51400000Y-107400000D03*
D11*
X96837500Y-122650000D03*
X96837500Y-120750000D03*
X94962500Y-121700000D03*
X52837500Y-110950000D03*
X52837500Y-109050000D03*
X50962500Y-110000000D03*
D10*
X60100000Y-124100000D03*
X61100000Y-124100000D03*
D11*
X101237500Y-110950000D03*
X101237500Y-109050000D03*
X99362500Y-110000000D03*
D14*
X118700000Y-131950000D03*
X118700000Y-130050000D03*
D11*
X101237500Y-127550000D03*
X101237500Y-125650000D03*
X99362500Y-126600000D03*
X110037500Y-107050000D03*
X110037500Y-105150000D03*
X108162500Y-106100000D03*
X57237500Y-114850000D03*
X57237500Y-112950000D03*
X55362500Y-113900000D03*
X118837500Y-110950000D03*
X118837500Y-109050000D03*
X116962500Y-110000000D03*
X88037500Y-110950000D03*
X88037500Y-109050000D03*
X86162500Y-110000000D03*
X79237500Y-122650000D03*
X79237500Y-120750000D03*
X77362500Y-121700000D03*
D10*
X112900000Y-124100000D03*
X113900000Y-124100000D03*
D11*
X114437500Y-118750000D03*
X114437500Y-116850000D03*
X112562500Y-117800000D03*
D10*
X104100000Y-124100000D03*
X105100000Y-124100000D03*
D11*
X52837500Y-127550000D03*
X52837500Y-125650000D03*
X50962500Y-126600000D03*
D10*
X68000000Y-107400000D03*
X69000000Y-107400000D03*
D11*
X52837500Y-114850000D03*
X52837500Y-112950000D03*
X50962500Y-113900000D03*
X57237500Y-127550000D03*
X57237500Y-125650000D03*
X55362500Y-126600000D03*
X61637500Y-122650000D03*
X61637500Y-120750000D03*
X59762500Y-121700000D03*
D10*
X85600000Y-107400000D03*
X86600000Y-107400000D03*
D11*
X92437500Y-127550000D03*
X92437500Y-125650000D03*
X90562500Y-126600000D03*
X74837500Y-127550000D03*
X74837500Y-125650000D03*
X72962500Y-126600000D03*
X70437500Y-110950000D03*
X70437500Y-109050000D03*
X68562500Y-110000000D03*
D13*
X114700000Y-106690000D03*
X114700000Y-105110000D03*
D11*
X114437500Y-110950000D03*
X114437500Y-109050000D03*
X112562500Y-110000000D03*
X96837500Y-118750000D03*
X96837500Y-116850000D03*
X94962500Y-117800000D03*
X105637500Y-122650000D03*
X105637500Y-120750000D03*
X103762500Y-121700000D03*
X105637500Y-127550000D03*
X105637500Y-125650000D03*
X103762500Y-126600000D03*
D10*
X59200000Y-106100000D03*
X60200000Y-106100000D03*
D11*
X79237500Y-114850000D03*
X79237500Y-112950000D03*
X77362500Y-113900000D03*
D13*
X116500000Y-131490000D03*
X116500000Y-129910000D03*
D11*
X114437500Y-114850000D03*
X114437500Y-112950000D03*
X112562500Y-113900000D03*
X74837500Y-107050000D03*
X74837500Y-105150000D03*
X72962500Y-106100000D03*
X57237500Y-118750000D03*
X57237500Y-116850000D03*
X55362500Y-117800000D03*
X83637500Y-122650000D03*
X83637500Y-120750000D03*
X81762500Y-121700000D03*
X70437500Y-114850000D03*
X70437500Y-112950000D03*
X68562500Y-113900000D03*
X61637500Y-114850000D03*
X61637500Y-112950000D03*
X59762500Y-113900000D03*
X66037500Y-107050000D03*
X66037500Y-105150000D03*
X64162500Y-106100000D03*
X57237500Y-122650000D03*
X57237500Y-120750000D03*
X55362500Y-121700000D03*
X74837500Y-122650000D03*
X74837500Y-120750000D03*
X72962500Y-121700000D03*
X101237500Y-118750000D03*
X101237500Y-116850000D03*
X99362500Y-117800000D03*
D10*
X112000000Y-104800000D03*
X113000000Y-104800000D03*
D11*
X118837500Y-118750000D03*
X118837500Y-116850000D03*
X116962500Y-117800000D03*
X105637500Y-110950000D03*
X105637500Y-109050000D03*
X103762500Y-110000000D03*
X66037500Y-118750000D03*
X66037500Y-116850000D03*
X64162500Y-117800000D03*
X88037500Y-127550000D03*
X88037500Y-125650000D03*
X86162500Y-126600000D03*
D10*
X59200000Y-107400000D03*
X60200000Y-107400000D03*
D11*
X52837500Y-122650000D03*
X52837500Y-120750000D03*
X50962500Y-121700000D03*
D10*
X85600000Y-106100000D03*
X86600000Y-106100000D03*
D11*
X61637500Y-110950000D03*
X61637500Y-109050000D03*
X59762500Y-110000000D03*
X74837500Y-114850000D03*
X74837500Y-112950000D03*
X72962500Y-113900000D03*
D10*
X50400000Y-106100000D03*
X51400000Y-106100000D03*
X112000000Y-106100000D03*
X113000000Y-106100000D03*
D11*
X61637500Y-127550000D03*
X61637500Y-125650000D03*
X59762500Y-126600000D03*
X92437500Y-122650000D03*
X92437500Y-120750000D03*
X90562500Y-121700000D03*
X92437500Y-110950000D03*
X92437500Y-109050000D03*
X90562500Y-110000000D03*
X118837500Y-122650000D03*
X118837500Y-120750000D03*
X116962500Y-121700000D03*
X101237500Y-107050000D03*
X101237500Y-105150000D03*
X99362500Y-106100000D03*
X74837500Y-118750000D03*
X74837500Y-116850000D03*
X72962500Y-117800000D03*
X79237500Y-118750000D03*
X79237500Y-116850000D03*
X77362500Y-117800000D03*
X57237500Y-110950000D03*
X57237500Y-109050000D03*
X55362500Y-110000000D03*
D10*
X50400000Y-104800000D03*
X51400000Y-104800000D03*
X94400000Y-104800000D03*
X95400000Y-104800000D03*
D11*
X96837500Y-110950000D03*
X96837500Y-109050000D03*
X94962500Y-110000000D03*
D13*
X53100000Y-106690000D03*
X53100000Y-105110000D03*
X97100000Y-106690000D03*
X97100000Y-105110000D03*
D11*
X96837500Y-114850000D03*
X96837500Y-112950000D03*
X94962500Y-113900000D03*
X105637500Y-118750000D03*
X105637500Y-116850000D03*
X103762500Y-117800000D03*
D10*
X103200000Y-104800000D03*
X104200000Y-104800000D03*
D11*
X110037500Y-110950000D03*
X110037500Y-109050000D03*
X108162500Y-110000000D03*
X101237500Y-122650000D03*
X101237500Y-120750000D03*
X99362500Y-121700000D03*
X88037500Y-114850000D03*
X88037500Y-112950000D03*
X86162500Y-113900000D03*
X70437500Y-122650000D03*
X70437500Y-120750000D03*
X68562500Y-121700000D03*
X114437500Y-127550000D03*
X114437500Y-125650000D03*
X112562500Y-126600000D03*
D10*
X95000000Y-124100000D03*
X96000000Y-124100000D03*
X68000000Y-104800000D03*
X69000000Y-104800000D03*
D11*
X66037500Y-110950000D03*
X66037500Y-109050000D03*
X64162500Y-110000000D03*
D13*
X88300000Y-106690000D03*
X88300000Y-105110000D03*
D11*
X79237500Y-110950000D03*
X79237500Y-109050000D03*
X77362500Y-110000000D03*
D13*
X105900000Y-106690000D03*
X105900000Y-105110000D03*
D10*
X77800000Y-124100000D03*
X78800000Y-124100000D03*
X85600000Y-104800000D03*
X86600000Y-104800000D03*
D13*
X61900000Y-106690000D03*
X61900000Y-105110000D03*
D10*
X59200000Y-104800000D03*
X60200000Y-104800000D03*
D11*
X61637500Y-118750000D03*
X61637500Y-116850000D03*
X59762500Y-117800000D03*
X118837500Y-114850000D03*
X118837500Y-112950000D03*
X116962500Y-113900000D03*
D10*
X69000000Y-124100000D03*
X70000000Y-124100000D03*
D11*
X92437500Y-118750000D03*
X92437500Y-116850000D03*
X90562500Y-117800000D03*
X110037500Y-122650000D03*
X110037500Y-120750000D03*
X108162500Y-121700000D03*
D12*
X114900000Y-130600000D03*
X114900000Y-129600000D03*
D10*
X94400000Y-106100000D03*
X95400000Y-106100000D03*
D11*
X83637500Y-118750000D03*
X83637500Y-116850000D03*
X81762500Y-117800000D03*
X79237500Y-127550000D03*
X79237500Y-125650000D03*
X77362500Y-126600000D03*
X118837500Y-107050000D03*
X118837500Y-105150000D03*
X116962500Y-106100000D03*
X110037500Y-118750000D03*
X110037500Y-116850000D03*
X108162500Y-117800000D03*
D15*
X110300000Y-131700000D03*
D16*
X107760000Y-131700000D03*
X105220000Y-131700000D03*
X102680000Y-131700000D03*
X100140000Y-131700000D03*
X97600000Y-131700000D03*
X95060000Y-131700000D03*
X92520000Y-131700000D03*
X89980000Y-131700000D03*
X87440000Y-131700000D03*
X84900000Y-131700000D03*
X82360000Y-131700000D03*
X79820000Y-131700000D03*
X77280000Y-131700000D03*
X74740000Y-131700000D03*
X72200000Y-131700000D03*
X69660000Y-131700000D03*
X67120000Y-131700000D03*
X64580000Y-131700000D03*
X62040000Y-131700000D03*
X59500000Y-131700000D03*
D10*
X68000000Y-106100000D03*
X69000000Y-106100000D03*
D11*
X92437500Y-114850000D03*
X92437500Y-112950000D03*
X90562500Y-113900000D03*
X74837500Y-110950000D03*
X74837500Y-109050000D03*
X72962500Y-110000000D03*
D10*
X103200000Y-106100000D03*
X104200000Y-106100000D03*
D11*
X83637500Y-127550000D03*
X83637500Y-125650000D03*
X81762500Y-126600000D03*
D10*
X76800000Y-104800000D03*
X77800000Y-104800000D03*
X76800000Y-107400000D03*
X77800000Y-107400000D03*
X103200000Y-107400000D03*
X104200000Y-107400000D03*
D11*
X70437500Y-127550000D03*
X70437500Y-125650000D03*
X68562500Y-126600000D03*
X52837500Y-118750000D03*
X52837500Y-116850000D03*
X50962500Y-117800000D03*
X101237500Y-114850000D03*
X101237500Y-112950000D03*
X99362500Y-113900000D03*
D10*
X112000000Y-107400000D03*
X113000000Y-107400000D03*
D11*
X66037500Y-127550000D03*
X66037500Y-125650000D03*
X64162500Y-126600000D03*
X83637500Y-110950000D03*
X83637500Y-109050000D03*
X81762500Y-110000000D03*
X96837500Y-127550000D03*
X96837500Y-125650000D03*
X94962500Y-126600000D03*
X114437500Y-122650000D03*
X114437500Y-120750000D03*
X112562500Y-121700000D03*
X88037500Y-122650000D03*
X88037500Y-120750000D03*
X86162500Y-121700000D03*
D10*
X76800000Y-106100000D03*
X77800000Y-106100000D03*
D11*
X105637500Y-114850000D03*
X105637500Y-112950000D03*
X103762500Y-113900000D03*
X83637500Y-107050000D03*
X83637500Y-105150000D03*
X81762500Y-106100000D03*
X88037500Y-118750000D03*
X88037500Y-116850000D03*
X86162500Y-117800000D03*
X66037500Y-114850000D03*
X66037500Y-112950000D03*
X64162500Y-113900000D03*
D17*
X77034541Y-124045459D03*
X106100000Y-124150000D03*
X115000000Y-131800000D03*
X68127015Y-124114892D03*
X50500000Y-108600000D03*
X85819541Y-124030459D03*
X96900000Y-124150000D03*
X59432041Y-124042959D03*
X51500000Y-124900000D03*
X120100000Y-130900000D03*
X53100000Y-126449999D03*
X112169541Y-123980459D03*
X55700000Y-129700000D03*
X117500000Y-130900000D03*
X67600000Y-108800000D03*
X110100000Y-126600000D03*
X118900000Y-126600000D03*
X91393750Y-119706250D03*
X96200000Y-108300000D03*
X74400000Y-108100000D03*
X53800000Y-112200000D03*
X95800000Y-115812500D03*
X87700000Y-108300000D03*
X101300000Y-126600000D03*
X102300000Y-108400000D03*
X61900000Y-117800000D03*
X60600000Y-115812500D03*
X83600000Y-126700000D03*
X104600000Y-115812500D03*
X52400000Y-108100000D03*
X105300000Y-108400000D03*
X92400000Y-126600000D03*
X51600000Y-129100000D03*
X100200000Y-119712500D03*
X53875000Y-115812500D03*
X57300000Y-126600000D03*
X64400000Y-104800000D03*
X111000000Y-108300000D03*
X65093750Y-119806250D03*
X56200000Y-119712500D03*
X69800000Y-108100000D03*
X73300000Y-104600000D03*
X87000000Y-115812500D03*
X69400000Y-115812500D03*
X73800000Y-119712500D03*
X55700000Y-104900000D03*
X108700000Y-104500000D03*
X117843750Y-119756250D03*
X109000000Y-119700000D03*
X62200000Y-121700000D03*
X61100000Y-108100000D03*
X78200000Y-115812500D03*
X113340552Y-115753052D03*
X114000000Y-108200000D03*
X66000000Y-126700000D03*
X99700000Y-104600000D03*
X85000000Y-108600000D03*
X78922492Y-108177508D03*
X82600000Y-119712500D03*
X58400000Y-108100000D03*
X117100000Y-104500000D03*
X119600000Y-108300000D03*
X82100000Y-104600000D03*
X91100000Y-104700000D03*
X93600000Y-108400000D03*
X74800000Y-126600000D03*
X56000000Y-122700000D03*
X82100000Y-122700000D03*
X64500000Y-122700000D03*
X90900000Y-122700000D03*
X108700000Y-122700000D03*
X99900000Y-122700000D03*
X117600000Y-122700000D03*
X73300000Y-122700000D03*
X56200000Y-124900000D03*
X104300000Y-118800000D03*
X68900000Y-118800000D03*
X77700000Y-118800000D03*
X54300000Y-118800000D03*
X60400000Y-118800000D03*
X113100000Y-118800000D03*
X95600000Y-118800000D03*
X86600000Y-118800000D03*
X52300000Y-110000000D03*
X55200000Y-112700000D03*
X61100000Y-110000000D03*
X64162500Y-112825000D03*
X72962500Y-112825000D03*
X70300000Y-110100000D03*
X81762500Y-112825000D03*
X78900000Y-110000000D03*
X90562500Y-112825000D03*
X87700000Y-110000000D03*
X96600000Y-110100000D03*
X99362500Y-112825000D03*
X108162500Y-112825000D03*
X105300000Y-110100000D03*
X114200000Y-110000000D03*
X116962500Y-112825000D03*
X112600000Y-127700000D03*
X95100000Y-127500000D03*
X73900000Y-128500000D03*
X109100000Y-128500000D03*
X117800000Y-128400000D03*
X65100000Y-128500000D03*
X91500000Y-128500000D03*
X57800000Y-128500000D03*
X82700000Y-128500000D03*
X100300000Y-128500000D03*
X103800000Y-127500000D03*
X86200000Y-127500000D03*
X51300000Y-127400000D03*
X60000000Y-127500000D03*
X111400000Y-114900000D03*
X58500000Y-114900000D03*
X76400000Y-114900000D03*
X117800000Y-115500000D03*
X53800000Y-131000000D03*
X67600000Y-114900000D03*
X102700000Y-114900000D03*
X85200000Y-114900000D03*
X94000000Y-114900000D03*
X68600000Y-127400000D03*
X77400000Y-127500000D03*
D18*
X58200000Y-103750000D02*
X58200000Y-103800000D01*
X58200000Y-103800000D02*
X59200000Y-104800000D01*
D19*
X51300000Y-124700000D02*
X51500000Y-124900000D01*
X118700000Y-131950000D02*
X119050000Y-131950000D01*
D18*
X66800000Y-103750000D02*
X75900000Y-103750000D01*
D19*
X112289082Y-124100000D02*
X112169541Y-123980459D01*
D18*
X102100000Y-103750000D02*
X102150000Y-103750000D01*
X93350000Y-103750000D02*
X94400000Y-104800000D01*
X75900000Y-103750000D02*
X84400000Y-103750000D01*
D19*
X95610000Y-124710000D02*
X96340000Y-124710000D01*
D18*
X51140001Y-103750000D02*
X58200000Y-103750000D01*
X50400000Y-107400000D02*
X50400000Y-104800000D01*
D19*
X114900000Y-130600000D02*
X114900000Y-131700000D01*
D18*
X66800000Y-103750000D02*
X66950000Y-103750000D01*
X103200000Y-104800000D02*
X103200000Y-107400000D01*
D19*
X69000000Y-124100000D02*
X68141907Y-124100000D01*
D18*
X102100000Y-103750000D02*
X110950000Y-103750000D01*
X76800000Y-104800000D02*
X76800000Y-107400000D01*
D19*
X95000000Y-124100000D02*
X95610000Y-124710000D01*
X112900000Y-124100000D02*
X112289082Y-124100000D01*
X96340000Y-124710000D02*
X96900000Y-124150000D01*
X86500000Y-124100000D02*
X85889082Y-124100000D01*
D18*
X84400000Y-103750000D02*
X93100000Y-103750000D01*
X93100000Y-103750000D02*
X93350000Y-103750000D01*
D19*
X77089082Y-124100000D02*
X77034541Y-124045459D01*
X105540000Y-124710000D02*
X106100000Y-124150000D01*
D18*
X76800000Y-104650000D02*
X76800000Y-104800000D01*
D19*
X59489082Y-124100000D02*
X59432041Y-124042959D01*
D18*
X68000000Y-104800000D02*
X68000000Y-107400000D01*
D19*
X104710000Y-124710000D02*
X105540000Y-124710000D01*
D18*
X85600000Y-104800000D02*
X85600000Y-107400000D01*
X112000000Y-104800000D02*
X112000000Y-107400000D01*
D19*
X60100000Y-124100000D02*
X59489082Y-124100000D01*
D18*
X66950000Y-103750000D02*
X68000000Y-104800000D01*
X102150000Y-103750000D02*
X103200000Y-104800000D01*
X93100000Y-103750000D02*
X102100000Y-103750000D01*
X50400000Y-104490001D02*
X51140001Y-103750000D01*
X50500000Y-107500000D02*
X50400000Y-107400000D01*
X50500000Y-108600000D02*
X50500000Y-107500000D01*
D19*
X85889082Y-124100000D02*
X85819541Y-124030459D01*
D18*
X84400000Y-103750000D02*
X84550000Y-103750000D01*
X84550000Y-103750000D02*
X85600000Y-104800000D01*
D19*
X54800000Y-130300000D02*
X55100000Y-130300000D01*
D18*
X110950000Y-103750000D02*
X112000000Y-104800000D01*
X58200000Y-103750000D02*
X66800000Y-103750000D01*
D19*
X55100000Y-130300000D02*
X55700000Y-129700000D01*
X114900000Y-131700000D02*
X115000000Y-131800000D01*
X104100000Y-124100000D02*
X104710000Y-124710000D01*
D18*
X50400000Y-104800000D02*
X50400000Y-104490001D01*
D19*
X77800000Y-124100000D02*
X77089082Y-124100000D01*
D18*
X59200000Y-104800000D02*
X59200000Y-107400000D01*
X75900000Y-103750000D02*
X76800000Y-104650000D01*
D19*
X51300000Y-124100000D02*
X51300000Y-124700000D01*
X119050000Y-131950000D02*
X120100000Y-130900000D01*
X68141907Y-124100000D02*
X68127015Y-124114892D01*
D18*
X94400000Y-104800000D02*
X94400000Y-107400000D01*
D19*
X118837500Y-120750000D02*
X117800000Y-119712500D01*
X110037500Y-117303052D02*
X110037500Y-116850000D01*
X61637500Y-112950000D02*
X61637500Y-113403052D01*
X92437500Y-109050000D02*
X92950000Y-109050000D01*
X61637500Y-120750000D02*
X61637500Y-121137500D01*
X88037500Y-120750000D02*
X89075000Y-119712500D01*
X79237500Y-112950000D02*
X79237500Y-113462500D01*
X110037500Y-109050000D02*
X110250000Y-109050000D01*
X118837500Y-126537500D02*
X118900000Y-126600000D01*
X87000000Y-115812500D02*
X87000000Y-114440552D01*
X66037500Y-125650000D02*
X66037500Y-126662500D01*
X87000000Y-114440552D02*
X88037500Y-113403052D01*
X61637500Y-109050000D02*
X61637500Y-108637500D01*
X79237500Y-120750000D02*
X79237500Y-120837500D01*
X73800000Y-118409448D02*
X73800000Y-119712500D01*
X69400000Y-114509448D02*
X70437500Y-113471948D01*
X117750000Y-105150000D02*
X117100000Y-104500000D01*
X106675000Y-119712500D02*
X106675000Y-117887500D01*
X105637500Y-109050000D02*
X105637500Y-108737500D01*
X97875000Y-117887500D02*
X96837500Y-116850000D01*
X105637500Y-113403052D02*
X105637500Y-112950000D01*
X118700000Y-130350000D02*
X118350000Y-130350000D01*
X65000000Y-118409448D02*
X65000000Y-119712500D01*
X114437500Y-113403052D02*
X114437500Y-112950000D01*
X114437500Y-108637500D02*
X114000000Y-108200000D01*
X71475000Y-119712500D02*
X71475000Y-117887500D01*
X110037500Y-125650000D02*
X110037500Y-126537500D01*
X61637500Y-113403052D02*
X60600000Y-114440552D01*
X96837500Y-108937500D02*
X96200000Y-108300000D01*
X70437500Y-108737500D02*
X69800000Y-108100000D01*
X83637500Y-105150000D02*
X82650000Y-105150000D01*
X52837500Y-120750000D02*
X57237500Y-120750000D01*
X70437500Y-120750000D02*
X71475000Y-119712500D01*
X83637500Y-116850000D02*
X83637500Y-117303052D01*
X52837500Y-109050000D02*
X52837500Y-108537500D01*
X109000000Y-118340552D02*
X110037500Y-117303052D01*
X88037500Y-108637500D02*
X87700000Y-108300000D01*
X96837500Y-120750000D02*
X97875000Y-119712500D01*
X70437500Y-113471948D02*
X70437500Y-112950000D01*
X66037500Y-120750000D02*
X65093750Y-119806250D01*
X92437500Y-126562500D02*
X92400000Y-126600000D01*
X79237500Y-120750000D02*
X80275000Y-119712500D01*
X57237500Y-109050000D02*
X57450000Y-109050000D01*
X88037500Y-113403052D02*
X88037500Y-112950000D01*
X109350000Y-105150000D02*
X108700000Y-104500000D01*
X56200000Y-119712500D02*
X57237500Y-120750000D01*
X100200000Y-119712500D02*
X100200000Y-118340552D01*
X114437500Y-116850000D02*
X115475000Y-117887500D01*
X92437500Y-125650000D02*
X92437500Y-126562500D01*
X53050000Y-112950000D02*
X53800000Y-112200000D01*
X92437500Y-105150000D02*
X91550000Y-105150000D01*
X105637500Y-116850000D02*
X104600000Y-115812500D01*
X115475000Y-117887500D02*
X115475000Y-119712500D01*
X80275000Y-119712500D02*
X80275000Y-117887500D01*
X116910000Y-131490000D02*
X117500000Y-130900000D01*
X114437500Y-109050000D02*
X114437500Y-108637500D01*
X64500000Y-104900000D02*
X64400000Y-104800000D01*
X66037500Y-116850000D02*
X66037500Y-117371948D01*
X73800000Y-119712500D02*
X74837500Y-120750000D01*
X52150000Y-129650000D02*
X51600000Y-129100000D01*
X84550000Y-109050000D02*
X85000000Y-108600000D01*
X83637500Y-109050000D02*
X84550000Y-109050000D01*
X113340552Y-114500000D02*
X114437500Y-113403052D01*
X117800000Y-118400000D02*
X118837500Y-117362500D01*
X71475000Y-117887500D02*
X70437500Y-116850000D01*
X57237500Y-105150000D02*
X55950000Y-105150000D01*
X74837500Y-117371948D02*
X73800000Y-118409448D01*
X66037500Y-120750000D02*
X65550000Y-120750000D01*
X64750000Y-105150000D02*
X64500000Y-104900000D01*
X113340552Y-115753052D02*
X113340552Y-114500000D01*
X70437500Y-116850000D02*
X69400000Y-115812500D01*
X74837500Y-125650000D02*
X74837500Y-126562500D01*
X52837500Y-120750000D02*
X55162500Y-120750000D01*
X67350000Y-109050000D02*
X67600000Y-108800000D01*
X57237500Y-125650000D02*
X57237500Y-126537500D01*
X83637500Y-125650000D02*
X83637500Y-126662500D01*
X53875000Y-115812500D02*
X53875000Y-113987500D01*
X61637500Y-121137500D02*
X62200000Y-121700000D01*
X104600000Y-114440552D02*
X105637500Y-113403052D01*
X57237500Y-116850000D02*
X57237500Y-117371948D01*
X110037500Y-120750000D02*
X109000000Y-119712500D01*
X57450000Y-109050000D02*
X58400000Y-108100000D01*
X104600000Y-115812500D02*
X104600000Y-114440552D01*
X91550000Y-105150000D02*
X91100000Y-104700000D01*
X118837500Y-105150000D02*
X117750000Y-105150000D01*
X91340552Y-118400000D02*
X92437500Y-117303052D01*
X82600000Y-118340552D02*
X82600000Y-119712500D01*
X105637500Y-108737500D02*
X105300000Y-108400000D01*
X92950000Y-109050000D02*
X93600000Y-108400000D01*
X101237500Y-117303052D02*
X101237500Y-116850000D01*
X61637500Y-116850000D02*
X61637500Y-117537500D01*
X80275000Y-117887500D02*
X79237500Y-116850000D01*
X101237500Y-105150000D02*
X100250000Y-105150000D01*
X92437500Y-120750000D02*
X91340552Y-119653052D01*
X88037500Y-116850000D02*
X87000000Y-115812500D01*
X110037500Y-126537500D02*
X110100000Y-126600000D01*
X56200000Y-118409448D02*
X56200000Y-119712500D01*
X89075000Y-117887500D02*
X88037500Y-116850000D01*
X115475000Y-119712500D02*
X114437500Y-120750000D01*
X95800000Y-114440552D02*
X96837500Y-113403052D01*
X109000000Y-119712500D02*
X109000000Y-118340552D01*
X92437500Y-117303052D02*
X92437500Y-116850000D01*
X52837500Y-116850000D02*
X53875000Y-115812500D01*
X66037500Y-109050000D02*
X67350000Y-109050000D01*
X101237500Y-120750000D02*
X100200000Y-119712500D01*
X55950000Y-105150000D02*
X55700000Y-104900000D01*
X95800000Y-115812500D02*
X95800000Y-114440552D01*
X91340552Y-119653052D02*
X91340552Y-118400000D01*
X57237500Y-117371948D02*
X56200000Y-118409448D01*
X110250000Y-109050000D02*
X111000000Y-108300000D01*
X52837500Y-112950000D02*
X53050000Y-112950000D01*
X55162500Y-120750000D02*
X56200000Y-119712500D01*
X118837500Y-125650000D02*
X118837500Y-126537500D01*
X73850000Y-105150000D02*
X73300000Y-104600000D01*
X79237500Y-109050000D02*
X79237500Y-108492516D01*
X78200000Y-114500000D02*
X78200000Y-115812500D01*
X61637500Y-108637500D02*
X61100000Y-108100000D01*
X82650000Y-105150000D02*
X82100000Y-104600000D01*
X83637500Y-117303052D02*
X82600000Y-118340552D01*
X96837500Y-109050000D02*
X96837500Y-108937500D01*
X118837500Y-117362500D02*
X118837500Y-116850000D01*
X117800000Y-119712500D02*
X117800000Y-118400000D01*
X60600000Y-114440552D02*
X60600000Y-115812500D01*
X118837500Y-109050000D02*
X118850000Y-109050000D01*
X69400000Y-115812500D02*
X69400000Y-114509448D01*
X66037500Y-126662500D02*
X66000000Y-126700000D01*
X61637500Y-117537500D02*
X61900000Y-117800000D01*
X101650000Y-109050000D02*
X102300000Y-108400000D01*
X53875000Y-113987500D02*
X52837500Y-112950000D01*
X96837500Y-116850000D02*
X95800000Y-115812500D01*
X66037500Y-105150000D02*
X64750000Y-105150000D01*
X52837500Y-108537500D02*
X52400000Y-108100000D01*
X114437500Y-116850000D02*
X113340552Y-115753052D01*
X66037500Y-117371948D02*
X65000000Y-118409448D01*
X100250000Y-105150000D02*
X99700000Y-104600000D01*
X101237500Y-126537500D02*
X101300000Y-126600000D01*
X74837500Y-109050000D02*
X74837500Y-108537500D01*
X52837500Y-129650000D02*
X52150000Y-129650000D01*
X118350000Y-130050000D02*
X117500000Y-130900000D01*
X101237500Y-109050000D02*
X101650000Y-109050000D01*
X65000000Y-119712500D02*
X65093750Y-119806250D01*
X74837500Y-116850000D02*
X74837500Y-117371948D01*
X116500000Y-131490000D02*
X116910000Y-131490000D01*
X74837500Y-108537500D02*
X74400000Y-108100000D01*
X106675000Y-117887500D02*
X105637500Y-116850000D01*
X88037500Y-109050000D02*
X88037500Y-108637500D01*
X118850000Y-109050000D02*
X119600000Y-108300000D01*
X101237500Y-125650000D02*
X101237500Y-126537500D01*
X79237500Y-116850000D02*
X78200000Y-115812500D01*
X110037500Y-105150000D02*
X109350000Y-105150000D01*
X79237500Y-113462500D02*
X78200000Y-114500000D01*
X89075000Y-119712500D02*
X89075000Y-117887500D01*
X79237500Y-108492516D02*
X78922492Y-108177508D01*
X60600000Y-115812500D02*
X61637500Y-116850000D01*
X74837500Y-105150000D02*
X73850000Y-105150000D01*
X105637500Y-120750000D02*
X106675000Y-119712500D01*
X96837500Y-113403052D02*
X96837500Y-112950000D01*
X57237500Y-126537500D02*
X57300000Y-126600000D01*
X70437500Y-109050000D02*
X70437500Y-108737500D01*
X97875000Y-119712500D02*
X97875000Y-117887500D01*
X82600000Y-119712500D02*
X83637500Y-120750000D01*
X100200000Y-118340552D02*
X101237500Y-117303052D01*
X74837500Y-126562500D02*
X74800000Y-126600000D01*
X83637500Y-126662500D02*
X83600000Y-126700000D01*
X54772500Y-106690000D02*
X55362500Y-106100000D01*
X53100000Y-106690000D02*
X54772500Y-106690000D01*
X51710000Y-105110000D02*
X51400000Y-104800000D01*
X53100000Y-105110000D02*
X51710000Y-105110000D01*
X63572500Y-106690000D02*
X64162500Y-106100000D01*
X61900000Y-106690000D02*
X63572500Y-106690000D01*
X61590000Y-104800000D02*
X61900000Y-105110000D01*
X60200000Y-104800000D02*
X61590000Y-104800000D01*
X70700000Y-106690000D02*
X72372500Y-106690000D01*
X72372500Y-106690000D02*
X72962500Y-106100000D01*
X70390000Y-104800000D02*
X70700000Y-105110000D01*
X69000000Y-104800000D02*
X70390000Y-104800000D01*
X79500000Y-106690000D02*
X81172500Y-106690000D01*
X81172500Y-106690000D02*
X81762500Y-106100000D01*
X77800000Y-104800000D02*
X79190000Y-104800000D01*
X79190000Y-104800000D02*
X79500000Y-105110000D01*
X87990000Y-104800000D02*
X88300000Y-105110000D01*
X86600000Y-104800000D02*
X87990000Y-104800000D01*
X88300000Y-106690000D02*
X89972500Y-106690000D01*
X89972500Y-106690000D02*
X90562500Y-106100000D01*
X97100000Y-106690000D02*
X98772500Y-106690000D01*
X98772500Y-106690000D02*
X99362500Y-106100000D01*
X96790000Y-104800000D02*
X97100000Y-105110000D01*
X95400000Y-104800000D02*
X96790000Y-104800000D01*
X105590000Y-104800000D02*
X105900000Y-105110000D01*
X104200000Y-104800000D02*
X105590000Y-104800000D01*
X107572500Y-106690000D02*
X108162500Y-106100000D01*
X105900000Y-106690000D02*
X107572500Y-106690000D01*
X114390000Y-104800000D02*
X114700000Y-105110000D01*
X113000000Y-104800000D02*
X114390000Y-104800000D01*
X114700000Y-106690000D02*
X116372500Y-106690000D01*
X116372500Y-106690000D02*
X116962500Y-106100000D01*
X114900000Y-129600000D02*
X116190000Y-129600000D01*
X116190000Y-129900000D02*
X116500000Y-130210000D01*
X117600000Y-122700000D02*
X118787500Y-122700000D01*
X74837500Y-122650000D02*
X73350000Y-122650000D01*
X57187500Y-122700000D02*
X57237500Y-122650000D01*
X83637500Y-122650000D02*
X82150000Y-122650000D01*
X101237500Y-122650000D02*
X99950000Y-122650000D01*
X53265552Y-130600000D02*
X54565552Y-129300000D01*
X90950000Y-122650000D02*
X90900000Y-122700000D01*
X82150000Y-122650000D02*
X82100000Y-122700000D01*
X118787500Y-122700000D02*
X118837500Y-122650000D01*
X56400000Y-126940552D02*
X56400000Y-126200000D01*
X66037500Y-122650000D02*
X64550000Y-122650000D01*
X54565552Y-129300000D02*
X54800000Y-129300000D01*
X54800000Y-129300000D02*
X54800000Y-128540552D01*
X99950000Y-122650000D02*
X99900000Y-122700000D01*
X108750000Y-122650000D02*
X108700000Y-122700000D01*
X54800000Y-128540552D02*
X56400000Y-126940552D01*
X56000000Y-122700000D02*
X57187500Y-122700000D01*
X56400000Y-126200000D02*
X56200000Y-126000000D01*
X92437500Y-122650000D02*
X90950000Y-122650000D01*
X110037500Y-122650000D02*
X108750000Y-122650000D01*
X50962500Y-130600000D02*
X53265552Y-130600000D01*
X64550000Y-122650000D02*
X64500000Y-122700000D01*
X73350000Y-122650000D02*
X73300000Y-122700000D01*
X56200000Y-126000000D02*
X56200000Y-124900000D01*
X52000000Y-117459448D02*
X52000000Y-118209448D01*
X52300000Y-124000000D02*
X50962500Y-122662500D01*
X52000000Y-118209448D02*
X50962500Y-119246948D01*
X52300000Y-124100000D02*
X52300000Y-124000000D01*
X51740552Y-115946948D02*
X51740552Y-117200000D01*
X55362500Y-121700000D02*
X50962500Y-121700000D01*
X50962500Y-122662500D02*
X50962500Y-121700000D01*
X52837500Y-114850000D02*
X51740552Y-115946948D01*
X50962500Y-119246948D02*
X50962500Y-121700000D01*
X51740552Y-117200000D02*
X52000000Y-117459448D01*
X54287500Y-110000000D02*
X53993750Y-110293750D01*
X55193514Y-110000000D02*
X51400000Y-106206486D01*
X53993750Y-110293750D02*
X57237500Y-107050000D01*
X50962500Y-117800000D02*
X50962500Y-113900000D01*
X52837500Y-127096948D02*
X49900000Y-124159448D01*
X49900000Y-118862500D02*
X50962500Y-117800000D01*
X52837500Y-110950000D02*
X53337500Y-110950000D01*
X53337500Y-110950000D02*
X53993750Y-110293750D01*
X55362500Y-110000000D02*
X55193514Y-110000000D01*
X49900000Y-124159448D02*
X49900000Y-118862500D01*
X55362500Y-110000000D02*
X54287500Y-110000000D01*
X50962500Y-112825000D02*
X52837500Y-110950000D01*
X52837500Y-127550000D02*
X52837500Y-127096948D01*
X50962500Y-113900000D02*
X50962500Y-112825000D01*
X51400000Y-106206486D02*
X51400000Y-106100000D01*
X52837500Y-127550000D02*
X52837500Y-127637500D01*
X113100000Y-118800000D02*
X114387500Y-118800000D01*
X79237500Y-118750000D02*
X77750000Y-118750000D01*
X60400000Y-118800000D02*
X60450000Y-118750000D01*
X88037500Y-118750000D02*
X86650000Y-118750000D01*
X77750000Y-118750000D02*
X77700000Y-118800000D01*
X60450000Y-118750000D02*
X61637500Y-118750000D01*
X68950000Y-118750000D02*
X68900000Y-118800000D01*
X105637500Y-118750000D02*
X104350000Y-118750000D01*
X54250000Y-118750000D02*
X54300000Y-118800000D01*
X70437500Y-118750000D02*
X68950000Y-118750000D01*
X104350000Y-118750000D02*
X104300000Y-118800000D01*
X96837500Y-118750000D02*
X95650000Y-118750000D01*
X86650000Y-118750000D02*
X86600000Y-118800000D01*
X114387500Y-118800000D02*
X114437500Y-118750000D01*
X52837500Y-118750000D02*
X54250000Y-118750000D01*
X95650000Y-118750000D02*
X95600000Y-118800000D01*
X52837500Y-125650000D02*
X54412500Y-125650000D01*
X54412500Y-125650000D02*
X55362500Y-126600000D01*
X52300000Y-110000000D02*
X50962500Y-110000000D01*
X51400000Y-109562500D02*
X50962500Y-110000000D01*
X55362500Y-112862500D02*
X55200000Y-112700000D01*
X57237500Y-110950000D02*
X55362500Y-112825000D01*
X51400000Y-107400000D02*
X51400000Y-109562500D01*
X55362500Y-113900000D02*
X55362500Y-112862500D01*
X55362500Y-112825000D02*
X55362500Y-113900000D01*
X55362500Y-117800000D02*
X55362500Y-115278052D01*
X55362500Y-115278052D02*
X57237500Y-113403052D01*
X57237500Y-113403052D02*
X57237500Y-112950000D01*
X59762500Y-122762500D02*
X59762500Y-121700000D01*
X61100000Y-124100000D02*
X59762500Y-122762500D01*
X62700000Y-115912500D02*
X61637500Y-114850000D01*
X62700000Y-120237500D02*
X62700000Y-118900000D01*
X59762500Y-121700000D02*
X59762500Y-120446948D01*
X62415552Y-119350000D02*
X62700000Y-119065552D01*
X60859448Y-119350000D02*
X62415552Y-119350000D01*
X62700000Y-119065552D02*
X62700000Y-118900000D01*
X62700000Y-118900000D02*
X62700000Y-115912500D01*
X59762500Y-120446948D02*
X60859448Y-119350000D01*
X64162500Y-121700000D02*
X62700000Y-120237500D01*
X60200000Y-106100000D02*
X60200000Y-106206486D01*
X58725000Y-124184448D02*
X61637500Y-127096948D01*
X59762500Y-112825000D02*
X59762500Y-113900000D01*
X58725000Y-118837500D02*
X58725000Y-124184448D01*
X61637500Y-110950000D02*
X65537500Y-107050000D01*
X63993514Y-110000000D02*
X64162500Y-110000000D01*
X65537500Y-107050000D02*
X66037500Y-107050000D01*
X60200000Y-106206486D02*
X63993514Y-110000000D01*
X59762500Y-113900000D02*
X59762500Y-117800000D01*
X61637500Y-110950000D02*
X59762500Y-112825000D01*
X61637500Y-127096948D02*
X61637500Y-127550000D01*
X59762500Y-117800000D02*
X58725000Y-118837500D01*
X61637500Y-125650000D02*
X63212500Y-125650000D01*
X63212500Y-125650000D02*
X64162500Y-126600000D01*
X64162500Y-117800000D02*
X64162500Y-115278052D01*
X66037500Y-113403052D02*
X66037500Y-112950000D01*
X64162500Y-115278052D02*
X66037500Y-113403052D01*
X70865552Y-121700000D02*
X71925000Y-120640552D01*
X68562500Y-121700000D02*
X70865552Y-121700000D01*
X71925000Y-120640552D02*
X71925000Y-120500000D01*
X68562500Y-122662500D02*
X68562500Y-121700000D01*
X71925000Y-120662500D02*
X71925000Y-120500000D01*
X72962500Y-121700000D02*
X71925000Y-120662500D01*
X70000000Y-124100000D02*
X68562500Y-122662500D01*
X71925000Y-120500000D02*
X71925000Y-116337500D01*
X71925000Y-116337500D02*
X70437500Y-114850000D01*
X68562500Y-117800000D02*
X68562500Y-112825000D01*
X68562500Y-112825000D02*
X70437500Y-110950000D01*
X70437500Y-127096948D02*
X68050552Y-124710000D01*
X68050552Y-124710000D02*
X67610000Y-124710000D01*
X67610000Y-124710000D02*
X67525000Y-124625000D01*
X70437500Y-110950000D02*
X74337500Y-107050000D01*
X69000000Y-106206486D02*
X69000000Y-106100000D01*
X72962500Y-110000000D02*
X72793514Y-110000000D01*
X67525000Y-118837500D02*
X68562500Y-117800000D01*
X72793514Y-110000000D02*
X69000000Y-106206486D01*
X67525000Y-124625000D02*
X67525000Y-118837500D01*
X74337500Y-107050000D02*
X74837500Y-107050000D01*
X70437500Y-127550000D02*
X70437500Y-127096948D01*
X72012500Y-125650000D02*
X72962500Y-126600000D01*
X70437500Y-125650000D02*
X72012500Y-125650000D01*
X72962500Y-115346948D02*
X74837500Y-113471948D01*
X74837500Y-113471948D02*
X74837500Y-112950000D01*
X72962500Y-117800000D02*
X72962500Y-115346948D01*
X77362500Y-121700000D02*
X79665552Y-121700000D01*
X80700000Y-116312500D02*
X79237500Y-114850000D01*
X79665552Y-121700000D02*
X80700000Y-120665552D01*
X80700000Y-120637500D02*
X80700000Y-116312500D01*
X78800000Y-124100000D02*
X77362500Y-122662500D01*
X81762500Y-121700000D02*
X80700000Y-120637500D01*
X77362500Y-122662500D02*
X77362500Y-121700000D01*
X80700000Y-120665552D02*
X80700000Y-120637500D01*
X77800000Y-106206486D02*
X77800000Y-106100000D01*
X76330000Y-124189448D02*
X76330000Y-124060000D01*
X76325000Y-124055000D02*
X76325000Y-118837500D01*
X76330000Y-124060000D02*
X76325000Y-124055000D01*
X79237500Y-127096948D02*
X76330000Y-124189448D01*
X77362500Y-113900000D02*
X77362500Y-117800000D01*
X77362500Y-113900000D02*
X77362500Y-112825000D01*
X79737500Y-110950000D02*
X79237500Y-110950000D01*
X81593514Y-110000000D02*
X77800000Y-106206486D01*
X79237500Y-127550000D02*
X79237500Y-127096948D01*
X81762500Y-110000000D02*
X81593514Y-110000000D01*
X76325000Y-118837500D02*
X77362500Y-117800000D01*
X77362500Y-112825000D02*
X79237500Y-110950000D01*
X83637500Y-107050000D02*
X79737500Y-110950000D01*
X80812500Y-125650000D02*
X81762500Y-126600000D01*
X79237500Y-125650000D02*
X80812500Y-125650000D01*
X81762500Y-117800000D02*
X81762500Y-115346948D01*
X83637500Y-113471948D02*
X83637500Y-112950000D01*
X81762500Y-115346948D02*
X83637500Y-113471948D01*
X86162500Y-122762500D02*
X86162500Y-121700000D01*
X88465552Y-121700000D02*
X89075000Y-121090552D01*
X87500000Y-124100000D02*
X86162500Y-122762500D01*
X86162500Y-121700000D02*
X88465552Y-121700000D01*
X90562500Y-121700000D02*
X89775000Y-121700000D01*
X89775000Y-121700000D02*
X89075000Y-121000000D01*
X89075000Y-121090552D02*
X89075000Y-121000000D01*
X89075000Y-121000000D02*
X89500000Y-120575000D01*
X89500000Y-120575000D02*
X89500000Y-116312500D01*
X89500000Y-116312500D02*
X88037500Y-114850000D01*
X88037500Y-127550000D02*
X88037500Y-127096948D01*
X91937500Y-107050000D02*
X92437500Y-107050000D01*
X88037500Y-110950000D02*
X91937500Y-107050000D01*
X85120000Y-124179448D02*
X85120000Y-118842500D01*
X88037500Y-127096948D02*
X85120000Y-124179448D01*
X86162500Y-112825000D02*
X88037500Y-110950000D01*
X86600000Y-106100000D02*
X86600000Y-106206486D01*
X85120000Y-118842500D02*
X86162500Y-117800000D01*
X90393514Y-110000000D02*
X90562500Y-110000000D01*
X86162500Y-117800000D02*
X86162500Y-112825000D01*
X86600000Y-106206486D02*
X90393514Y-110000000D01*
X88037500Y-125650000D02*
X89612500Y-125650000D01*
X89612500Y-125650000D02*
X90562500Y-126600000D01*
X90562500Y-115346948D02*
X92437500Y-113471948D01*
X92437500Y-113471948D02*
X92437500Y-112950000D01*
X90562500Y-117800000D02*
X90562500Y-115346948D01*
X98325000Y-120000000D02*
X98325000Y-116337500D01*
X99362500Y-121700000D02*
X98325000Y-120662500D01*
X98325000Y-116337500D02*
X96837500Y-114850000D01*
X97265552Y-121700000D02*
X98325000Y-120640552D01*
X96000000Y-124100000D02*
X94962500Y-123062500D01*
X98325000Y-120662500D02*
X98325000Y-120000000D01*
X98325000Y-120640552D02*
X98325000Y-120000000D01*
X94962500Y-121700000D02*
X97265552Y-121700000D01*
X94962500Y-123062500D02*
X94962500Y-121700000D01*
X97118634Y-107756134D02*
X96692268Y-107756134D01*
X93925000Y-124115552D02*
X93925000Y-118837500D01*
X97337500Y-110950000D02*
X101237500Y-107050000D01*
X96837500Y-110950000D02*
X97337500Y-110950000D01*
X95400000Y-106463866D02*
X95400000Y-106100000D01*
X93925000Y-118837500D02*
X94962500Y-117800000D01*
X96692268Y-107756134D02*
X95400000Y-106463866D01*
X96837500Y-127550000D02*
X96837500Y-127028052D01*
X99362500Y-110000000D02*
X97118634Y-107756134D01*
X96837500Y-127028052D02*
X93925000Y-124115552D01*
X94962500Y-112825000D02*
X96837500Y-110950000D01*
X94962500Y-117800000D02*
X94962500Y-112825000D01*
X98412500Y-125650000D02*
X99362500Y-126600000D01*
X96837500Y-125650000D02*
X98412500Y-125650000D01*
X99362500Y-115346948D02*
X101237500Y-113471948D01*
X99362500Y-117800000D02*
X99362500Y-115346948D01*
X101237500Y-113471948D02*
X101237500Y-112950000D01*
X108162500Y-121700000D02*
X107284448Y-121700000D01*
X106675000Y-121090552D02*
X107100000Y-120665552D01*
X103762500Y-122762500D02*
X103762500Y-121700000D01*
X105100000Y-124100000D02*
X103762500Y-122762500D01*
X107284448Y-121700000D02*
X106675000Y-121090552D01*
X103762500Y-121700000D02*
X106065552Y-121700000D01*
X107100000Y-116312500D02*
X105637500Y-114850000D01*
X106065552Y-121700000D02*
X106675000Y-121090552D01*
X107100000Y-120665552D02*
X107100000Y-116312500D01*
X102690000Y-118872500D02*
X103762500Y-117800000D01*
X102873866Y-124810000D02*
X102690000Y-124626134D01*
X103419448Y-124810000D02*
X102873866Y-124810000D01*
X103762500Y-112825000D02*
X105637500Y-110950000D01*
X105637500Y-127028052D02*
X103419448Y-124810000D01*
X102690000Y-124626134D02*
X102690000Y-118872500D01*
X106137500Y-110950000D02*
X110037500Y-107050000D01*
X103762500Y-117800000D02*
X103762500Y-112825000D01*
X105637500Y-110950000D02*
X106137500Y-110950000D01*
X105637500Y-127550000D02*
X105637500Y-127028052D01*
X107993514Y-110000000D02*
X104200000Y-106206486D01*
X104200000Y-106206486D02*
X104200000Y-106100000D01*
X108162500Y-110000000D02*
X107993514Y-110000000D01*
X105637500Y-125650000D02*
X107212500Y-125650000D01*
X107212500Y-125650000D02*
X108162500Y-126600000D01*
X108162500Y-115278052D02*
X110037500Y-113403052D01*
X110037500Y-113403052D02*
X110037500Y-112950000D01*
X108162500Y-117800000D02*
X108162500Y-115278052D01*
X112562500Y-122762500D02*
X112562500Y-121700000D01*
X115900000Y-120665552D02*
X115900000Y-116312500D01*
X115475000Y-121090552D02*
X115900000Y-120665552D01*
X113900000Y-124100000D02*
X112562500Y-122762500D01*
X116962500Y-121700000D02*
X116084448Y-121700000D01*
X115900000Y-116312500D02*
X114437500Y-114850000D01*
X116084448Y-121700000D02*
X115475000Y-121090552D01*
X112562500Y-121700000D02*
X114865552Y-121700000D01*
X114865552Y-121700000D02*
X115475000Y-121090552D01*
X112562500Y-117800000D02*
X112562500Y-113900000D01*
X111525000Y-124184448D02*
X111525000Y-118837500D01*
X114437500Y-127096948D02*
X111525000Y-124184448D01*
X114437500Y-110950000D02*
X114937500Y-110950000D01*
X113000000Y-106206486D02*
X113000000Y-106100000D01*
X114937500Y-110950000D02*
X118837500Y-107050000D01*
X112562500Y-112825000D02*
X114437500Y-110950000D01*
X114437500Y-127550000D02*
X114437500Y-127096948D01*
X111525000Y-118837500D02*
X112562500Y-117800000D01*
X116962500Y-110000000D02*
X116793514Y-110000000D01*
X116793514Y-110000000D02*
X113000000Y-106206486D01*
X112562500Y-113900000D02*
X112562500Y-112825000D01*
X116012500Y-125650000D02*
X116962500Y-126600000D01*
X114437500Y-125650000D02*
X116012500Y-125650000D01*
X116962500Y-117800000D02*
X116962500Y-115346948D01*
X118837500Y-113471948D02*
X118837500Y-112950000D01*
X116962500Y-115346948D02*
X118837500Y-113471948D01*
X60200000Y-109562500D02*
X59762500Y-110000000D01*
X64162500Y-113900000D02*
X64162500Y-112825000D01*
X60200000Y-107400000D02*
X60200000Y-109562500D01*
X64162500Y-112825000D02*
X66037500Y-110950000D01*
X59762500Y-110000000D02*
X61100000Y-110000000D01*
X70300000Y-110100000D02*
X70200000Y-110000000D01*
X69000000Y-109562500D02*
X69000000Y-107400000D01*
X72962500Y-113900000D02*
X72962500Y-112825000D01*
X70200000Y-110000000D02*
X68562500Y-110000000D01*
X72962500Y-112825000D02*
X74837500Y-110950000D01*
X68562500Y-110000000D02*
X69000000Y-109562500D01*
X81762500Y-112825000D02*
X83637500Y-110950000D01*
X77800000Y-109562500D02*
X77362500Y-110000000D01*
X81762500Y-113900000D02*
X81762500Y-112825000D01*
X77800000Y-107400000D02*
X77800000Y-109562500D01*
X77362500Y-110000000D02*
X78900000Y-110000000D01*
X86162500Y-110000000D02*
X87700000Y-110000000D01*
X90562500Y-112825000D02*
X92437500Y-110950000D01*
X90562500Y-113900000D02*
X90562500Y-112825000D01*
X86600000Y-109562500D02*
X86162500Y-110000000D01*
X86600000Y-107400000D02*
X86600000Y-109562500D01*
X95400000Y-107400000D02*
X95400000Y-109562500D01*
X94962500Y-110000000D02*
X96500000Y-110000000D01*
X99362500Y-113900000D02*
X99362500Y-112825000D01*
X96500000Y-110000000D02*
X96600000Y-110100000D01*
X95400000Y-109562500D02*
X94962500Y-110000000D01*
X99362500Y-112825000D02*
X101237500Y-110950000D01*
X108162500Y-112825000D02*
X110037500Y-110950000D01*
X105200000Y-110000000D02*
X105300000Y-110100000D01*
X108162500Y-113900000D02*
X108162500Y-112825000D01*
X103762500Y-110000000D02*
X105200000Y-110000000D01*
X104200000Y-109562500D02*
X104200000Y-107400000D01*
X103762500Y-110000000D02*
X104200000Y-109562500D01*
X116962500Y-112825000D02*
X118837500Y-110950000D01*
X116962500Y-113900000D02*
X116962500Y-112825000D01*
X113000000Y-109562500D02*
X112562500Y-110000000D01*
X112562500Y-110000000D02*
X114200000Y-110000000D01*
X113000000Y-107400000D02*
X113000000Y-109562500D01*
X89100000Y-130000000D02*
X108965552Y-130000000D01*
X87300000Y-131800000D02*
X89100000Y-130000000D01*
X107187500Y-124200000D02*
X111075000Y-124200000D01*
X111075000Y-124200000D02*
X111075000Y-119787500D01*
X111075000Y-127890552D02*
X111075000Y-124200000D01*
X108965552Y-130000000D02*
X111075000Y-127890552D01*
X105637500Y-122650000D02*
X107187500Y-124200000D01*
X111075000Y-119787500D02*
X110037500Y-118750000D01*
X112600000Y-127700000D02*
X112600000Y-126637500D01*
X112600000Y-126637500D02*
X112562500Y-126600000D01*
X86960000Y-129600000D02*
X100565552Y-129600000D01*
X98287500Y-124100000D02*
X102275000Y-124100000D01*
X100565552Y-129600000D02*
X102275000Y-127890552D01*
X102275000Y-127890552D02*
X102275000Y-124100000D01*
X102275000Y-119787500D02*
X101237500Y-118750000D01*
X84760000Y-131800000D02*
X86960000Y-129600000D01*
X100934448Y-118750000D02*
X101237500Y-118750000D01*
X96837500Y-122650000D02*
X98287500Y-124100000D01*
X102275000Y-124100000D02*
X102275000Y-119787500D01*
X95100000Y-127500000D02*
X95100000Y-126737500D01*
X95100000Y-126737500D02*
X94962500Y-126600000D01*
X89840000Y-131800000D02*
X91240000Y-130400000D01*
X111400000Y-129000000D02*
X118900000Y-129000000D01*
X119875000Y-124100000D02*
X119875000Y-119787500D01*
X91240000Y-130400000D02*
X110000000Y-130400000D01*
X119875000Y-119787500D02*
X118837500Y-118750000D01*
X118900000Y-129000000D02*
X119875000Y-128025000D01*
X119875000Y-128025000D02*
X119875000Y-124100000D01*
X114437500Y-122650000D02*
X115887500Y-124100000D01*
X110000000Y-130400000D02*
X111400000Y-129000000D01*
X115887500Y-124100000D02*
X119875000Y-124100000D01*
X74837500Y-127562500D02*
X73900000Y-128500000D01*
X101237500Y-127550000D02*
X101237500Y-127562500D01*
X66037500Y-127550000D02*
X66037500Y-127562500D01*
X92437500Y-127562500D02*
X91500000Y-128500000D01*
X57800000Y-128500000D02*
X57800000Y-128112500D01*
X117800000Y-128400000D02*
X117987500Y-128400000D01*
X83637500Y-127562500D02*
X82700000Y-128500000D01*
X110037500Y-127550000D02*
X110037500Y-127562500D01*
X66037500Y-127562500D02*
X65100000Y-128500000D01*
X74837500Y-127550000D02*
X74837500Y-127562500D01*
X101237500Y-127562500D02*
X100300000Y-128500000D01*
X83637500Y-127550000D02*
X83637500Y-127562500D01*
X117987500Y-128400000D02*
X118837500Y-127550000D01*
X57800000Y-128112500D02*
X57237500Y-127550000D01*
X92437500Y-127550000D02*
X92437500Y-127562500D01*
X110037500Y-127562500D02*
X109100000Y-128500000D01*
X93525000Y-124220000D02*
X93525000Y-119837500D01*
X84920000Y-129100000D02*
X93020000Y-129100000D01*
X88037500Y-122650000D02*
X89607500Y-124220000D01*
X93020000Y-129100000D02*
X93525000Y-128595000D01*
X82220000Y-131800000D02*
X84920000Y-129100000D01*
X89607500Y-124220000D02*
X93525000Y-124220000D01*
X93525000Y-128595000D02*
X93525000Y-124220000D01*
X93525000Y-119837500D02*
X92437500Y-118750000D01*
X103800000Y-127500000D02*
X103800000Y-126637500D01*
X103800000Y-126637500D02*
X103762500Y-126600000D01*
X86200000Y-126637500D02*
X86162500Y-126600000D01*
X86200000Y-127500000D02*
X86200000Y-126637500D01*
X51300000Y-126937500D02*
X50962500Y-126600000D01*
X51300000Y-127400000D02*
X51300000Y-126937500D01*
X60000000Y-126837500D02*
X59762500Y-126600000D01*
X60000000Y-127500000D02*
X60000000Y-126837500D01*
X84675000Y-128125000D02*
X84675000Y-124180000D01*
X79237500Y-122650000D02*
X80767500Y-124180000D01*
X84675000Y-119787500D02*
X83637500Y-118750000D01*
X79680000Y-131800000D02*
X82380000Y-129100000D01*
X84675000Y-124180000D02*
X84675000Y-119787500D01*
X82800000Y-129100000D02*
X83700000Y-129100000D01*
X80767500Y-124180000D02*
X84675000Y-124180000D01*
X83700000Y-129100000D02*
X84675000Y-128125000D01*
X82380000Y-129100000D02*
X82800000Y-129100000D01*
X67550000Y-114850000D02*
X67600000Y-114900000D01*
X55536134Y-130500000D02*
X54486134Y-131550000D01*
X74837500Y-114850000D02*
X76350000Y-114850000D01*
X52837500Y-131550000D02*
X53250000Y-131550000D01*
X93950000Y-114850000D02*
X94000000Y-114900000D01*
X92437500Y-114850000D02*
X93950000Y-114850000D01*
X66037500Y-114850000D02*
X67550000Y-114850000D01*
X54486134Y-131550000D02*
X52837500Y-131550000D01*
X117800000Y-115500000D02*
X118187500Y-115500000D01*
X53250000Y-131550000D02*
X53800000Y-131000000D01*
X66980000Y-131800000D02*
X65680000Y-130500000D01*
X58500000Y-114900000D02*
X57287500Y-114900000D01*
X111350000Y-114850000D02*
X111400000Y-114900000D01*
X101237500Y-114850000D02*
X102650000Y-114850000D01*
X65680000Y-130500000D02*
X55536134Y-130500000D01*
X85150000Y-114850000D02*
X85200000Y-114900000D01*
X83637500Y-114850000D02*
X85150000Y-114850000D01*
X118187500Y-115500000D02*
X118837500Y-114850000D01*
X102650000Y-114850000D02*
X102700000Y-114900000D01*
X110037500Y-114850000D02*
X111350000Y-114850000D01*
X76350000Y-114850000D02*
X76400000Y-114900000D01*
X57287500Y-114900000D02*
X57237500Y-114850000D01*
X70437500Y-122650000D02*
X71847500Y-124060000D01*
X75875000Y-123375000D02*
X75875000Y-119787500D01*
X75875000Y-119787500D02*
X74837500Y-118750000D01*
X75900000Y-123400000D02*
X75875000Y-123375000D01*
X75240000Y-124060000D02*
X75900000Y-123400000D01*
X75875000Y-123375000D02*
X75875000Y-130555000D01*
X71847500Y-124060000D02*
X75240000Y-124060000D01*
X75875000Y-130555000D02*
X77120000Y-131800000D01*
X71585785Y-131800000D02*
X72060000Y-131800000D01*
X60265552Y-129200000D02*
X68985785Y-129200000D01*
X58275000Y-127209448D02*
X60265552Y-129200000D01*
X58275000Y-119787500D02*
X57237500Y-118750000D01*
X52837500Y-122650000D02*
X54337500Y-124150000D01*
X58275000Y-124150000D02*
X58275000Y-127209448D01*
X54337500Y-124150000D02*
X58275000Y-124150000D01*
X58275000Y-124150000D02*
X58275000Y-119787500D01*
X68985785Y-129200000D02*
X71585785Y-131800000D01*
X62977500Y-123990000D02*
X67075000Y-123990000D01*
X67075000Y-126723529D02*
X67075000Y-123990000D01*
X61637500Y-122650000D02*
X62977500Y-123990000D01*
X67075000Y-123990000D02*
X67075000Y-119787500D01*
X74600000Y-131800000D02*
X71840000Y-129040000D01*
X71840000Y-129040000D02*
X69391471Y-129040000D01*
X67075000Y-119787500D02*
X66037500Y-118750000D01*
X69391471Y-129040000D02*
X67075000Y-126723529D01*
X68600000Y-127400000D02*
X68600000Y-126637500D01*
X68600000Y-126637500D02*
X68562500Y-126600000D01*
X77400000Y-126637500D02*
X77362500Y-126600000D01*
X77400000Y-127500000D02*
X77400000Y-126637500D01*
M02*
