M48
; DRILL file {KiCad 9.0.7} date 2026-02-04T13:15:38+0100
; FORMAT={-:-/ absolute / metric / decimal}
; #@! TF.CreationDate,2026-02-04T13:15:38+01:00
; #@! TF.GenerationSoftware,Kicad,Pcbnew,9.0.7
; #@! TF.FileFunction,Plated,1,4,PTH
FMAT,2
METRIC
; #@! TA.AperFunction,Plated,PTH,ViaDrill
T1C0.300
; #@! TA.AperFunction,Plated,PTH,ComponentDrill
T2C1.000
%
G90
G05
T1
X50.5Y-108.6
X51.3Y-127.4
X51.5Y-124.9
X51.6Y-129.1
X52.3Y-110.0
X52.4Y-108.1
X53.1Y-126.45
X53.8Y-112.2
X53.8Y-131.0
X53.875Y-115.812
X54.3Y-118.8
X55.2Y-112.7
X55.7Y-104.9
X55.7Y-129.7
X56.0Y-122.7
X56.2Y-119.712
X56.2Y-124.9
X57.3Y-126.6
X57.8Y-128.5
X58.4Y-108.1
X58.5Y-114.9
X59.432Y-124.043
X60.0Y-127.5
X60.4Y-118.8
X60.6Y-115.812
X61.1Y-108.1
X61.1Y-110.0
X61.9Y-117.8
X62.2Y-121.7
X64.162Y-112.825
X64.4Y-104.8
X64.5Y-122.7
X65.094Y-119.806
X65.1Y-128.5
X66.0Y-126.7
X67.6Y-108.8
X67.6Y-114.9
X68.127Y-124.115
X68.6Y-127.4
X68.9Y-118.8
X69.4Y-115.812
X69.8Y-108.1
X70.3Y-110.1
X72.962Y-112.825
X73.3Y-104.6
X73.3Y-122.7
X73.8Y-119.712
X73.9Y-128.5
X74.4Y-108.1
X74.8Y-126.6
X76.4Y-114.9
X77.035Y-124.045
X77.4Y-127.5
X77.7Y-118.8
X78.2Y-115.812
X78.9Y-110.0
X78.922Y-108.178
X81.763Y-112.825
X82.1Y-104.6
X82.1Y-122.7
X82.6Y-119.712
X82.7Y-128.5
X83.6Y-126.7
X85.0Y-108.6
X85.2Y-114.9
X85.82Y-124.03
X86.2Y-127.5
X86.6Y-118.8
X87.0Y-115.812
X87.7Y-108.3
X87.7Y-110.0
X90.562Y-112.825
X90.9Y-122.7
X91.1Y-104.7
X91.394Y-119.706
X91.5Y-128.5
X92.4Y-126.6
X93.6Y-108.4
X94.0Y-114.9
X95.1Y-127.5
X95.6Y-118.8
X95.8Y-115.812
X96.2Y-108.3
X96.6Y-110.1
X96.9Y-124.15
X99.362Y-112.825
X99.7Y-104.6
X99.9Y-122.7
X100.2Y-119.712
X100.3Y-128.5
X101.3Y-126.6
X102.3Y-108.4
X102.7Y-114.9
X103.8Y-127.5
X104.3Y-118.8
X104.6Y-115.812
X105.3Y-108.4
X105.3Y-110.1
X106.1Y-124.15
X108.162Y-112.825
X108.7Y-104.5
X108.7Y-122.7
X109.0Y-119.7
X109.1Y-128.5
X110.1Y-126.6
X111.0Y-108.3
X111.4Y-114.9
X112.17Y-123.98
X112.6Y-127.7
X113.1Y-118.8
X113.341Y-115.753
X114.0Y-108.2
X114.2Y-110.0
X115.0Y-131.8
X116.962Y-112.825
X117.1Y-104.5
X117.5Y-130.9
X117.6Y-122.7
X117.8Y-115.5
X117.8Y-128.4
X117.844Y-119.756
X118.9Y-126.6
X119.6Y-108.3
X120.1Y-130.9
T2
X59.5Y-131.7
X62.04Y-131.7
X64.58Y-131.7
X67.12Y-131.7
X69.66Y-131.7
X72.2Y-131.7
X74.74Y-131.7
X77.28Y-131.7
X79.82Y-131.7
X82.36Y-131.7
X84.9Y-131.7
X87.44Y-131.7
X89.98Y-131.7
X92.52Y-131.7
X95.06Y-131.7
X97.6Y-131.7
X100.14Y-131.7
X102.68Y-131.7
X105.22Y-131.7
X107.76Y-131.7
X110.3Y-131.7
M30
