G04 #@! TF.GenerationSoftware,KiCad,Pcbnew,9.0.7*
G04 #@! TF.CreationDate,2026-02-04T13:15:48+01:00*
G04 #@! TF.ProjectId,REG8bit-SMD-V3.0,52454738-6269-4742-9d53-4d442d56332e,rev?*
G04 #@! TF.SameCoordinates,Original*
G04 #@! TF.FileFunction,Copper,L2,Inr*
G04 #@! TF.FilePolarity,Positive*
%FSLAX46Y46*%
G04 Gerber Fmt 4.6, Leading zero omitted, Abs format (unit mm)*
G04 Created by KiCad (PCBNEW 9.0.7) date 2026-02-04 13:15:48*
%MOMM*%
%LPD*%
G01*
G04 APERTURE LIST*
G04 #@! TA.AperFunction,ComponentPad*
%ADD10R,1.700000X1.700000*%
G04 #@! TD*
G04 #@! TA.AperFunction,ComponentPad*
%ADD11O,1.700000X1.700000*%
G04 #@! TD*
G04 #@! TA.AperFunction,ViaPad*
%ADD12C,0.600000*%
G04 #@! TD*
G04 #@! TA.AperFunction,Conductor*
%ADD13C,0.200000*%
G04 #@! TD*
G04 APERTURE END LIST*
D10*
X110300000Y-131700000D03*
D11*
X107760000Y-131700000D03*
X105220000Y-131700000D03*
X102680000Y-131700000D03*
X100140000Y-131700000D03*
X97600000Y-131700000D03*
X95060000Y-131700000D03*
X92520000Y-131700000D03*
X89980000Y-131700000D03*
X87440000Y-131700000D03*
X84900000Y-131700000D03*
X82360000Y-131700000D03*
X79820000Y-131700000D03*
X77280000Y-131700000D03*
X74740000Y-131700000D03*
X72200000Y-131700000D03*
X69660000Y-131700000D03*
X67120000Y-131700000D03*
X64580000Y-131700000D03*
X62040000Y-131700000D03*
X59500000Y-131700000D03*
D12*
X77034541Y-124045459D03*
X106100000Y-124150000D03*
X115000000Y-131800000D03*
X68127015Y-124114892D03*
X50500000Y-108600000D03*
X85819541Y-124030459D03*
X96900000Y-124150000D03*
X59432041Y-124042959D03*
X51500000Y-124900000D03*
X120100000Y-130900000D03*
X53100000Y-126449999D03*
X112169541Y-123980459D03*
X55700000Y-129700000D03*
X117500000Y-130900000D03*
X67600000Y-108800000D03*
X110100000Y-126600000D03*
X118900000Y-126600000D03*
X91393750Y-119706250D03*
X96200000Y-108300000D03*
X74400000Y-108100000D03*
X53800000Y-112200000D03*
X95800000Y-115812500D03*
X87700000Y-108300000D03*
X101300000Y-126600000D03*
X102300000Y-108400000D03*
X61900000Y-117800000D03*
X60600000Y-115812500D03*
X83600000Y-126700000D03*
X104600000Y-115812500D03*
X52400000Y-108100000D03*
X105300000Y-108400000D03*
X92400000Y-126600000D03*
X51600000Y-129100000D03*
X100200000Y-119712500D03*
X53875000Y-115812500D03*
X57300000Y-126600000D03*
X64400000Y-104800000D03*
X111000000Y-108300000D03*
X65093750Y-119806250D03*
X56200000Y-119712500D03*
X69800000Y-108100000D03*
X73300000Y-104600000D03*
X87000000Y-115812500D03*
X69400000Y-115812500D03*
X73800000Y-119712500D03*
X55700000Y-104900000D03*
X108700000Y-104500000D03*
X117843750Y-119756250D03*
X109000000Y-119700000D03*
X62200000Y-121700000D03*
X61100000Y-108100000D03*
X78200000Y-115812500D03*
X113340552Y-115753052D03*
X114000000Y-108200000D03*
X66000000Y-126700000D03*
X99700000Y-104600000D03*
X85000000Y-108600000D03*
X78922492Y-108177508D03*
X82600000Y-119712500D03*
X58400000Y-108100000D03*
X117100000Y-104500000D03*
X119600000Y-108300000D03*
X82100000Y-104600000D03*
X91100000Y-104700000D03*
X93600000Y-108400000D03*
X74800000Y-126600000D03*
X56000000Y-122700000D03*
X82100000Y-122700000D03*
X64500000Y-122700000D03*
X90900000Y-122700000D03*
X108700000Y-122700000D03*
X99900000Y-122700000D03*
X117600000Y-122700000D03*
X73300000Y-122700000D03*
X56200000Y-124900000D03*
X104300000Y-118800000D03*
X68900000Y-118800000D03*
X77700000Y-118800000D03*
X54300000Y-118800000D03*
X60400000Y-118800000D03*
X113100000Y-118800000D03*
X95600000Y-118800000D03*
X86600000Y-118800000D03*
X52300000Y-110000000D03*
X55200000Y-112700000D03*
X61100000Y-110000000D03*
X64162500Y-112825000D03*
X72962500Y-112825000D03*
X70300000Y-110100000D03*
X81762500Y-112825000D03*
X78900000Y-110000000D03*
X90562500Y-112825000D03*
X87700000Y-110000000D03*
X96600000Y-110100000D03*
X99362500Y-112825000D03*
X108162500Y-112825000D03*
X105300000Y-110100000D03*
X114200000Y-110000000D03*
X116962500Y-112825000D03*
X112600000Y-127700000D03*
X95100000Y-127500000D03*
X73900000Y-128500000D03*
X109100000Y-128500000D03*
X117800000Y-128400000D03*
X65100000Y-128500000D03*
X91500000Y-128500000D03*
X57800000Y-128500000D03*
X82700000Y-128500000D03*
X100300000Y-128500000D03*
X103800000Y-127500000D03*
X86200000Y-127500000D03*
X51300000Y-127400000D03*
X60000000Y-127500000D03*
X111400000Y-114900000D03*
X58500000Y-114900000D03*
X76400000Y-114900000D03*
X117800000Y-115500000D03*
X53800000Y-131000000D03*
X67600000Y-114900000D03*
X102700000Y-114900000D03*
X85200000Y-114900000D03*
X94000000Y-114900000D03*
X68600000Y-127400000D03*
X77400000Y-127500000D03*
D13*
X63800000Y-129940000D02*
X63800000Y-129800000D01*
X62040000Y-131700000D02*
X60240000Y-129900000D01*
X60200000Y-129900000D02*
X60240000Y-129900000D01*
X62040000Y-131700000D02*
X63800000Y-129940000D01*
G04 #@! TA.AperFunction,Conductor*
G36*
X121042539Y-103270185D02*
G01*
X121088294Y-103322989D01*
X121099500Y-103374500D01*
X121099500Y-130597809D01*
X121079815Y-130664848D01*
X121027011Y-130710603D01*
X120957853Y-130720547D01*
X120894297Y-130691522D01*
X120860939Y-130645261D01*
X120809397Y-130520827D01*
X120809390Y-130520814D01*
X120721789Y-130389711D01*
X120721786Y-130389707D01*
X120610292Y-130278213D01*
X120610288Y-130278210D01*
X120479185Y-130190609D01*
X120479172Y-130190602D01*
X120333501Y-130130264D01*
X120333489Y-130130261D01*
X120178845Y-130099500D01*
X120178842Y-130099500D01*
X120021158Y-130099500D01*
X120021155Y-130099500D01*
X119866510Y-130130261D01*
X119866498Y-130130264D01*
X119720827Y-130190602D01*
X119720814Y-130190609D01*
X119589711Y-130278210D01*
X119589707Y-130278213D01*
X119478213Y-130389707D01*
X119478210Y-130389711D01*
X119390609Y-130520814D01*
X119390602Y-130520827D01*
X119330264Y-130666498D01*
X119330261Y-130666510D01*
X119299500Y-130821153D01*
X119299500Y-130978846D01*
X119330261Y-131133489D01*
X119330264Y-131133501D01*
X119390602Y-131279172D01*
X119390609Y-131279185D01*
X119478210Y-131410288D01*
X119478213Y-131410292D01*
X119589707Y-131521786D01*
X119589711Y-131521789D01*
X119720814Y-131609390D01*
X119720827Y-131609397D01*
X119866498Y-131669735D01*
X119866503Y-131669737D01*
X120018644Y-131700000D01*
X120021153Y-131700499D01*
X120021156Y-131700500D01*
X120021158Y-131700500D01*
X120178844Y-131700500D01*
X120178845Y-131700499D01*
X120333497Y-131669737D01*
X120479179Y-131609394D01*
X120610289Y-131521789D01*
X120721789Y-131410289D01*
X120809394Y-131279179D01*
X120849817Y-131181588D01*
X120860939Y-131154738D01*
X120904779Y-131100334D01*
X120971074Y-131078269D01*
X121038773Y-131095548D01*
X121086384Y-131146685D01*
X121099500Y-131202190D01*
X121099500Y-132475500D01*
X121079815Y-132542539D01*
X121027011Y-132588294D01*
X120975500Y-132599500D01*
X115631941Y-132599500D01*
X115564902Y-132579815D01*
X115519147Y-132527011D01*
X115509203Y-132457853D01*
X115538228Y-132394297D01*
X115544260Y-132387819D01*
X115621786Y-132310292D01*
X115621789Y-132310289D01*
X115709394Y-132179179D01*
X115769737Y-132033497D01*
X115800500Y-131878842D01*
X115800500Y-131721158D01*
X115800500Y-131721155D01*
X115800499Y-131721153D01*
X115784961Y-131643039D01*
X115769737Y-131566503D01*
X115745093Y-131507007D01*
X115709397Y-131420827D01*
X115709390Y-131420814D01*
X115621789Y-131289711D01*
X115621786Y-131289707D01*
X115510292Y-131178213D01*
X115510288Y-131178210D01*
X115379185Y-131090609D01*
X115379172Y-131090602D01*
X115233501Y-131030264D01*
X115233489Y-131030261D01*
X115078845Y-130999500D01*
X115078842Y-130999500D01*
X114921158Y-130999500D01*
X114921155Y-130999500D01*
X114766510Y-131030261D01*
X114766498Y-131030264D01*
X114620827Y-131090602D01*
X114620814Y-131090609D01*
X114489711Y-131178210D01*
X114489707Y-131178213D01*
X114378213Y-131289707D01*
X114378210Y-131289711D01*
X114290609Y-131420814D01*
X114290602Y-131420827D01*
X114230264Y-131566498D01*
X114230261Y-131566510D01*
X114199500Y-131721153D01*
X114199500Y-131878846D01*
X114230261Y-132033489D01*
X114230264Y-132033501D01*
X114290602Y-132179172D01*
X114290609Y-132179185D01*
X114378210Y-132310288D01*
X114378213Y-132310292D01*
X114455740Y-132387819D01*
X114489225Y-132449142D01*
X114484241Y-132518834D01*
X114442369Y-132574767D01*
X114376905Y-132599184D01*
X114368059Y-132599500D01*
X111774500Y-132599500D01*
X111707461Y-132579815D01*
X111661706Y-132527011D01*
X111650500Y-132475500D01*
X111650499Y-130802129D01*
X111650498Y-130802123D01*
X111644091Y-130742516D01*
X111593797Y-130607671D01*
X111593793Y-130607664D01*
X111507547Y-130492455D01*
X111507544Y-130492452D01*
X111392335Y-130406206D01*
X111392328Y-130406202D01*
X111257482Y-130355908D01*
X111257483Y-130355908D01*
X111197883Y-130349501D01*
X111197881Y-130349500D01*
X111197873Y-130349500D01*
X111197864Y-130349500D01*
X109402129Y-130349500D01*
X109402123Y-130349501D01*
X109342516Y-130355908D01*
X109207671Y-130406202D01*
X109207664Y-130406206D01*
X109092455Y-130492452D01*
X109092452Y-130492455D01*
X109006206Y-130607664D01*
X109006203Y-130607669D01*
X108957189Y-130739083D01*
X108915317Y-130795016D01*
X108849853Y-130819433D01*
X108781580Y-130804581D01*
X108753326Y-130783430D01*
X108639786Y-130669890D01*
X108467820Y-130544951D01*
X108278414Y-130448444D01*
X108278413Y-130448443D01*
X108278412Y-130448443D01*
X108076243Y-130382754D01*
X108076241Y-130382753D01*
X108076240Y-130382753D01*
X107914957Y-130357208D01*
X107866287Y-130349500D01*
X107653713Y-130349500D01*
X107605042Y-130357208D01*
X107443760Y-130382753D01*
X107241585Y-130448444D01*
X107052179Y-130544951D01*
X106880213Y-130669890D01*
X106729890Y-130820213D01*
X106604949Y-130992182D01*
X106600484Y-131000946D01*
X106552509Y-131051742D01*
X106484688Y-131068536D01*
X106418553Y-131045998D01*
X106379516Y-131000946D01*
X106375050Y-130992182D01*
X106250109Y-130820213D01*
X106099786Y-130669890D01*
X105927820Y-130544951D01*
X105738414Y-130448444D01*
X105738413Y-130448443D01*
X105738412Y-130448443D01*
X105536243Y-130382754D01*
X105536241Y-130382753D01*
X105536240Y-130382753D01*
X105374957Y-130357208D01*
X105326287Y-130349500D01*
X105113713Y-130349500D01*
X105065042Y-130357208D01*
X104903760Y-130382753D01*
X104701585Y-130448444D01*
X104512179Y-130544951D01*
X104340213Y-130669890D01*
X104189890Y-130820213D01*
X104064949Y-130992182D01*
X104060484Y-131000946D01*
X104012509Y-131051742D01*
X103944688Y-131068536D01*
X103878553Y-131045998D01*
X103839516Y-131000946D01*
X103835050Y-130992182D01*
X103710109Y-130820213D01*
X103559786Y-130669890D01*
X103387820Y-130544951D01*
X103198414Y-130448444D01*
X103198413Y-130448443D01*
X103198412Y-130448443D01*
X102996243Y-130382754D01*
X102996241Y-130382753D01*
X102996240Y-130382753D01*
X102834957Y-130357208D01*
X102786287Y-130349500D01*
X102573713Y-130349500D01*
X102525042Y-130357208D01*
X102363760Y-130382753D01*
X102161585Y-130448444D01*
X101972179Y-130544951D01*
X101800213Y-130669890D01*
X101649890Y-130820213D01*
X101524949Y-130992182D01*
X101520484Y-131000946D01*
X101472509Y-131051742D01*
X101404688Y-131068536D01*
X101338553Y-131045998D01*
X101299516Y-131000946D01*
X101295050Y-130992182D01*
X101170109Y-130820213D01*
X101019786Y-130669890D01*
X100847820Y-130544951D01*
X100658414Y-130448444D01*
X100658413Y-130448443D01*
X100658412Y-130448443D01*
X100456243Y-130382754D01*
X100456241Y-130382753D01*
X100456240Y-130382753D01*
X100294957Y-130357208D01*
X100246287Y-130349500D01*
X100033713Y-130349500D01*
X99985042Y-130357208D01*
X99823760Y-130382753D01*
X99621585Y-130448444D01*
X99432179Y-130544951D01*
X99260213Y-130669890D01*
X99109890Y-130820213D01*
X98984949Y-130992182D01*
X98980484Y-131000946D01*
X98932509Y-131051742D01*
X98864688Y-131068536D01*
X98798553Y-131045998D01*
X98759516Y-131000946D01*
X98755050Y-130992182D01*
X98630109Y-130820213D01*
X98479786Y-130669890D01*
X98307820Y-130544951D01*
X98118414Y-130448444D01*
X98118413Y-130448443D01*
X98118412Y-130448443D01*
X97916243Y-130382754D01*
X97916241Y-130382753D01*
X97916240Y-130382753D01*
X97754957Y-130357208D01*
X97706287Y-130349500D01*
X97493713Y-130349500D01*
X97445042Y-130357208D01*
X97283760Y-130382753D01*
X97081585Y-130448444D01*
X96892179Y-130544951D01*
X96720213Y-130669890D01*
X96569890Y-130820213D01*
X96444949Y-130992182D01*
X96440484Y-131000946D01*
X96392509Y-131051742D01*
X96324688Y-131068536D01*
X96258553Y-131045998D01*
X96219516Y-131000946D01*
X96215050Y-130992182D01*
X96090109Y-130820213D01*
X95939786Y-130669890D01*
X95767820Y-130544951D01*
X95578414Y-130448444D01*
X95578413Y-130448443D01*
X95578412Y-130448443D01*
X95376243Y-130382754D01*
X95376241Y-130382753D01*
X95376240Y-130382753D01*
X95214957Y-130357208D01*
X95166287Y-130349500D01*
X94953713Y-130349500D01*
X94905042Y-130357208D01*
X94743760Y-130382753D01*
X94541585Y-130448444D01*
X94352179Y-130544951D01*
X94180213Y-130669890D01*
X94029890Y-130820213D01*
X93904949Y-130992182D01*
X93900484Y-131000946D01*
X93852509Y-131051742D01*
X93784688Y-131068536D01*
X93718553Y-131045998D01*
X93679516Y-131000946D01*
X93675050Y-130992182D01*
X93550109Y-130820213D01*
X93399786Y-130669890D01*
X93227820Y-130544951D01*
X93038414Y-130448444D01*
X93038413Y-130448443D01*
X93038412Y-130448443D01*
X92836243Y-130382754D01*
X92836241Y-130382753D01*
X92836240Y-130382753D01*
X92674957Y-130357208D01*
X92626287Y-130349500D01*
X92413713Y-130349500D01*
X92365042Y-130357208D01*
X92203760Y-130382753D01*
X92001585Y-130448444D01*
X91812179Y-130544951D01*
X91640213Y-130669890D01*
X91489890Y-130820213D01*
X91364949Y-130992182D01*
X91360484Y-131000946D01*
X91312509Y-131051742D01*
X91244688Y-131068536D01*
X91178553Y-131045998D01*
X91139516Y-131000946D01*
X91135050Y-130992182D01*
X91010109Y-130820213D01*
X90859786Y-130669890D01*
X90687820Y-130544951D01*
X90498414Y-130448444D01*
X90498413Y-130448443D01*
X90498412Y-130448443D01*
X90296243Y-130382754D01*
X90296241Y-130382753D01*
X90296240Y-130382753D01*
X90134957Y-130357208D01*
X90086287Y-130349500D01*
X89873713Y-130349500D01*
X89825042Y-130357208D01*
X89663760Y-130382753D01*
X89461585Y-130448444D01*
X89272179Y-130544951D01*
X89100213Y-130669890D01*
X88949890Y-130820213D01*
X88824949Y-130992182D01*
X88820484Y-131000946D01*
X88772509Y-131051742D01*
X88704688Y-131068536D01*
X88638553Y-131045998D01*
X88599516Y-131000946D01*
X88595050Y-130992182D01*
X88470109Y-130820213D01*
X88319786Y-130669890D01*
X88147820Y-130544951D01*
X87958414Y-130448444D01*
X87958413Y-130448443D01*
X87958412Y-130448443D01*
X87756243Y-130382754D01*
X87756241Y-130382753D01*
X87756240Y-130382753D01*
X87594957Y-130357208D01*
X87546287Y-130349500D01*
X87333713Y-130349500D01*
X87285042Y-130357208D01*
X87123760Y-130382753D01*
X86921585Y-130448444D01*
X86732179Y-130544951D01*
X86560213Y-130669890D01*
X86409890Y-130820213D01*
X86284949Y-130992182D01*
X86280484Y-131000946D01*
X86232509Y-131051742D01*
X86164688Y-131068536D01*
X86098553Y-131045998D01*
X86059516Y-131000946D01*
X86055050Y-130992182D01*
X85930109Y-130820213D01*
X85779786Y-130669890D01*
X85607820Y-130544951D01*
X85418414Y-130448444D01*
X85418413Y-130448443D01*
X85418412Y-130448443D01*
X85216243Y-130382754D01*
X85216241Y-130382753D01*
X85216240Y-130382753D01*
X85054957Y-130357208D01*
X85006287Y-130349500D01*
X84793713Y-130349500D01*
X84745042Y-130357208D01*
X84583760Y-130382753D01*
X84381585Y-130448444D01*
X84192179Y-130544951D01*
X84020213Y-130669890D01*
X83869890Y-130820213D01*
X83744949Y-130992182D01*
X83740484Y-131000946D01*
X83692509Y-131051742D01*
X83624688Y-131068536D01*
X83558553Y-131045998D01*
X83519516Y-131000946D01*
X83515050Y-130992182D01*
X83390109Y-130820213D01*
X83239786Y-130669890D01*
X83067820Y-130544951D01*
X82878414Y-130448444D01*
X82878413Y-130448443D01*
X82878412Y-130448443D01*
X82676243Y-130382754D01*
X82676241Y-130382753D01*
X82676240Y-130382753D01*
X82514957Y-130357208D01*
X82466287Y-130349500D01*
X82253713Y-130349500D01*
X82205042Y-130357208D01*
X82043760Y-130382753D01*
X81841585Y-130448444D01*
X81652179Y-130544951D01*
X81480213Y-130669890D01*
X81329890Y-130820213D01*
X81204949Y-130992182D01*
X81200484Y-131000946D01*
X81152509Y-131051742D01*
X81084688Y-131068536D01*
X81018553Y-131045998D01*
X80979516Y-131000946D01*
X80975050Y-130992182D01*
X80850109Y-130820213D01*
X80699786Y-130669890D01*
X80527820Y-130544951D01*
X80338414Y-130448444D01*
X80338413Y-130448443D01*
X80338412Y-130448443D01*
X80136243Y-130382754D01*
X80136241Y-130382753D01*
X80136240Y-130382753D01*
X79974957Y-130357208D01*
X79926287Y-130349500D01*
X79713713Y-130349500D01*
X79665042Y-130357208D01*
X79503760Y-130382753D01*
X79301585Y-130448444D01*
X79112179Y-130544951D01*
X78940213Y-130669890D01*
X78789890Y-130820213D01*
X78664949Y-130992182D01*
X78660484Y-131000946D01*
X78612509Y-131051742D01*
X78544688Y-131068536D01*
X78478553Y-131045998D01*
X78439516Y-131000946D01*
X78435050Y-130992182D01*
X78310109Y-130820213D01*
X78159786Y-130669890D01*
X77987820Y-130544951D01*
X77798414Y-130448444D01*
X77798413Y-130448443D01*
X77798412Y-130448443D01*
X77596243Y-130382754D01*
X77596241Y-130382753D01*
X77596240Y-130382753D01*
X77434957Y-130357208D01*
X77386287Y-130349500D01*
X77173713Y-130349500D01*
X77125042Y-130357208D01*
X76963760Y-130382753D01*
X76761585Y-130448444D01*
X76572179Y-130544951D01*
X76400213Y-130669890D01*
X76249890Y-130820213D01*
X76124949Y-130992182D01*
X76120484Y-131000946D01*
X76072509Y-131051742D01*
X76004688Y-131068536D01*
X75938553Y-131045998D01*
X75899516Y-131000946D01*
X75895050Y-130992182D01*
X75770109Y-130820213D01*
X75619786Y-130669890D01*
X75447820Y-130544951D01*
X75258414Y-130448444D01*
X75258413Y-130448443D01*
X75258412Y-130448443D01*
X75056243Y-130382754D01*
X75056241Y-130382753D01*
X75056240Y-130382753D01*
X74894957Y-130357208D01*
X74846287Y-130349500D01*
X74633713Y-130349500D01*
X74585042Y-130357208D01*
X74423760Y-130382753D01*
X74221585Y-130448444D01*
X74032179Y-130544951D01*
X73860213Y-130669890D01*
X73709890Y-130820213D01*
X73584949Y-130992182D01*
X73580484Y-131000946D01*
X73532509Y-131051742D01*
X73464688Y-131068536D01*
X73398553Y-131045998D01*
X73359516Y-131000946D01*
X73355050Y-130992182D01*
X73230109Y-130820213D01*
X73079786Y-130669890D01*
X72907820Y-130544951D01*
X72718414Y-130448444D01*
X72718413Y-130448443D01*
X72718412Y-130448443D01*
X72516243Y-130382754D01*
X72516241Y-130382753D01*
X72516240Y-130382753D01*
X72354957Y-130357208D01*
X72306287Y-130349500D01*
X72093713Y-130349500D01*
X72045042Y-130357208D01*
X71883760Y-130382753D01*
X71681585Y-130448444D01*
X71492179Y-130544951D01*
X71320213Y-130669890D01*
X71169890Y-130820213D01*
X71044949Y-130992182D01*
X71040484Y-131000946D01*
X70992509Y-131051742D01*
X70924688Y-131068536D01*
X70858553Y-131045998D01*
X70819516Y-131000946D01*
X70815050Y-130992182D01*
X70690109Y-130820213D01*
X70539786Y-130669890D01*
X70367820Y-130544951D01*
X70178414Y-130448444D01*
X70178413Y-130448443D01*
X70178412Y-130448443D01*
X69976243Y-130382754D01*
X69976241Y-130382753D01*
X69976240Y-130382753D01*
X69814957Y-130357208D01*
X69766287Y-130349500D01*
X69553713Y-130349500D01*
X69505042Y-130357208D01*
X69343760Y-130382753D01*
X69141585Y-130448444D01*
X68952179Y-130544951D01*
X68780213Y-130669890D01*
X68629890Y-130820213D01*
X68504949Y-130992182D01*
X68500484Y-131000946D01*
X68452509Y-131051742D01*
X68384688Y-131068536D01*
X68318553Y-131045998D01*
X68279516Y-131000946D01*
X68275050Y-130992182D01*
X68150109Y-130820213D01*
X67999786Y-130669890D01*
X67827820Y-130544951D01*
X67638414Y-130448444D01*
X67638413Y-130448443D01*
X67638412Y-130448443D01*
X67436243Y-130382754D01*
X67436241Y-130382753D01*
X67436240Y-130382753D01*
X67274957Y-130357208D01*
X67226287Y-130349500D01*
X67013713Y-130349500D01*
X66965042Y-130357208D01*
X66803760Y-130382753D01*
X66601585Y-130448444D01*
X66412179Y-130544951D01*
X66240213Y-130669890D01*
X66089890Y-130820213D01*
X65964949Y-130992182D01*
X65960484Y-131000946D01*
X65912509Y-131051742D01*
X65844688Y-131068536D01*
X65778553Y-131045998D01*
X65739516Y-131000946D01*
X65735050Y-130992182D01*
X65610109Y-130820213D01*
X65459786Y-130669890D01*
X65287820Y-130544951D01*
X65098414Y-130448444D01*
X65098413Y-130448443D01*
X65098412Y-130448443D01*
X64896243Y-130382754D01*
X64896241Y-130382753D01*
X64896240Y-130382753D01*
X64734957Y-130357208D01*
X64686287Y-130349500D01*
X64473713Y-130349500D01*
X64425042Y-130357208D01*
X64263760Y-130382753D01*
X64061585Y-130448444D01*
X63872179Y-130544951D01*
X63700213Y-130669890D01*
X63549890Y-130820213D01*
X63424949Y-130992182D01*
X63420202Y-131001499D01*
X63372227Y-131052293D01*
X63304405Y-131069087D01*
X63238271Y-131046548D01*
X63199234Y-131001495D01*
X63194622Y-130992444D01*
X63069727Y-130820540D01*
X63069723Y-130820535D01*
X62919464Y-130670276D01*
X62919459Y-130670272D01*
X62747557Y-130545379D01*
X62558215Y-130448903D01*
X62356124Y-130383241D01*
X62290000Y-130372768D01*
X62290000Y-131266988D01*
X62232993Y-131234075D01*
X62105826Y-131200000D01*
X61974174Y-131200000D01*
X61847007Y-131234075D01*
X61790000Y-131266988D01*
X61790000Y-130372768D01*
X61789999Y-130372768D01*
X61723875Y-130383241D01*
X61521784Y-130448903D01*
X61332442Y-130545379D01*
X61160540Y-130670272D01*
X61160535Y-130670276D01*
X61010276Y-130820535D01*
X61010272Y-130820540D01*
X60885378Y-130992443D01*
X60880762Y-131001502D01*
X60832784Y-131052295D01*
X60764963Y-131069087D01*
X60698829Y-131046546D01*
X60659794Y-131001493D01*
X60655051Y-130992184D01*
X60655049Y-130992181D01*
X60655048Y-130992179D01*
X60530109Y-130820213D01*
X60379786Y-130669890D01*
X60207820Y-130544951D01*
X60018414Y-130448444D01*
X60018413Y-130448443D01*
X60018412Y-130448443D01*
X59816243Y-130382754D01*
X59816241Y-130382753D01*
X59816240Y-130382753D01*
X59654957Y-130357208D01*
X59606287Y-130349500D01*
X59393713Y-130349500D01*
X59345042Y-130357208D01*
X59183760Y-130382753D01*
X58981585Y-130448444D01*
X58792179Y-130544951D01*
X58620213Y-130669890D01*
X58469890Y-130820213D01*
X58344951Y-130992179D01*
X58248444Y-131181585D01*
X58182753Y-131383760D01*
X58152305Y-131576000D01*
X58149500Y-131593713D01*
X58149500Y-131806287D01*
X58182754Y-132016243D01*
X58248443Y-132218412D01*
X58344949Y-132407816D01*
X58344955Y-132407825D01*
X58346723Y-132410710D01*
X58347061Y-132411962D01*
X58347161Y-132412157D01*
X58347120Y-132412177D01*
X58364967Y-132478156D01*
X58343850Y-132544759D01*
X58290079Y-132589372D01*
X58240995Y-132599500D01*
X48824500Y-132599500D01*
X48757461Y-132579815D01*
X48711706Y-132527011D01*
X48700500Y-132475500D01*
X48700500Y-130921153D01*
X52999500Y-130921153D01*
X52999500Y-131078846D01*
X53030261Y-131233489D01*
X53030264Y-131233501D01*
X53090602Y-131379172D01*
X53090609Y-131379185D01*
X53178210Y-131510288D01*
X53178213Y-131510292D01*
X53289707Y-131621786D01*
X53289711Y-131621789D01*
X53420814Y-131709390D01*
X53420827Y-131709397D01*
X53557061Y-131765826D01*
X53566503Y-131769737D01*
X53721153Y-131800499D01*
X53721156Y-131800500D01*
X53721158Y-131800500D01*
X53878844Y-131800500D01*
X53878845Y-131800499D01*
X54033497Y-131769737D01*
X54179179Y-131709394D01*
X54310289Y-131621789D01*
X54421789Y-131510289D01*
X54509394Y-131379179D01*
X54569737Y-131233497D01*
X54600500Y-131078842D01*
X54600500Y-130921158D01*
X54600500Y-130921155D01*
X54600499Y-130921153D01*
X54569737Y-130766503D01*
X54559801Y-130742516D01*
X54509397Y-130620827D01*
X54509390Y-130620814D01*
X54421789Y-130489711D01*
X54421786Y-130489707D01*
X54310292Y-130378213D01*
X54310288Y-130378210D01*
X54179185Y-130290609D01*
X54179172Y-130290602D01*
X54033501Y-130230264D01*
X54033489Y-130230261D01*
X53878845Y-130199500D01*
X53878842Y-130199500D01*
X53721158Y-130199500D01*
X53721155Y-130199500D01*
X53566510Y-130230261D01*
X53566498Y-130230264D01*
X53420827Y-130290602D01*
X53420814Y-130290609D01*
X53289711Y-130378210D01*
X53289707Y-130378213D01*
X53178213Y-130489707D01*
X53178210Y-130489711D01*
X53090609Y-130620814D01*
X53090602Y-130620827D01*
X53030264Y-130766498D01*
X53030261Y-130766510D01*
X52999500Y-130921153D01*
X48700500Y-130921153D01*
X48700500Y-129621153D01*
X54899500Y-129621153D01*
X54899500Y-129778846D01*
X54930261Y-129933489D01*
X54930264Y-129933501D01*
X54990602Y-130079172D01*
X54990609Y-130079185D01*
X55078210Y-130210288D01*
X55078213Y-130210292D01*
X55189707Y-130321786D01*
X55189711Y-130321789D01*
X55320814Y-130409390D01*
X55320827Y-130409397D01*
X55466498Y-130469735D01*
X55466503Y-130469737D01*
X55621153Y-130500499D01*
X55621156Y-130500500D01*
X55621158Y-130500500D01*
X55778844Y-130500500D01*
X55778845Y-130500499D01*
X55933497Y-130469737D01*
X56079179Y-130409394D01*
X56210289Y-130321789D01*
X56321789Y-130210289D01*
X56409394Y-130079179D01*
X56469737Y-129933497D01*
X56500500Y-129778842D01*
X56500500Y-129621158D01*
X56500500Y-129621155D01*
X56500499Y-129621153D01*
X56469738Y-129466510D01*
X56469737Y-129466503D01*
X56469735Y-129466498D01*
X56409397Y-129320827D01*
X56409390Y-129320814D01*
X56321789Y-129189711D01*
X56321786Y-129189707D01*
X56210292Y-129078213D01*
X56210288Y-129078210D01*
X56079185Y-128990609D01*
X56079172Y-128990602D01*
X55933501Y-128930264D01*
X55933489Y-128930261D01*
X55778845Y-128899500D01*
X55778842Y-128899500D01*
X55621158Y-128899500D01*
X55621155Y-128899500D01*
X55466510Y-128930261D01*
X55466498Y-128930264D01*
X55320827Y-128990602D01*
X55320814Y-128990609D01*
X55189711Y-129078210D01*
X55189707Y-129078213D01*
X55078213Y-129189707D01*
X55078210Y-129189711D01*
X54990609Y-129320814D01*
X54990602Y-129320827D01*
X54930264Y-129466498D01*
X54930261Y-129466510D01*
X54899500Y-129621153D01*
X48700500Y-129621153D01*
X48700500Y-128421153D01*
X56999500Y-128421153D01*
X56999500Y-128578846D01*
X57030261Y-128733489D01*
X57030264Y-128733501D01*
X57090602Y-128879172D01*
X57090609Y-128879185D01*
X57178210Y-129010288D01*
X57178213Y-129010292D01*
X57289707Y-129121786D01*
X57289711Y-129121789D01*
X57420814Y-129209390D01*
X57420827Y-129209397D01*
X57566498Y-129269735D01*
X57566503Y-129269737D01*
X57721153Y-129300499D01*
X57721156Y-129300500D01*
X57721158Y-129300500D01*
X57878844Y-129300500D01*
X57878845Y-129300499D01*
X58033497Y-129269737D01*
X58179179Y-129209394D01*
X58310289Y-129121789D01*
X58421789Y-129010289D01*
X58509394Y-128879179D01*
X58569737Y-128733497D01*
X58600500Y-128578842D01*
X58600500Y-128421158D01*
X58600500Y-128421155D01*
X58600499Y-128421153D01*
X64299500Y-128421153D01*
X64299500Y-128578846D01*
X64330261Y-128733489D01*
X64330264Y-128733501D01*
X64390602Y-128879172D01*
X64390609Y-128879185D01*
X64478210Y-129010288D01*
X64478213Y-129010292D01*
X64589707Y-129121786D01*
X64589711Y-129121789D01*
X64720814Y-129209390D01*
X64720827Y-129209397D01*
X64866498Y-129269735D01*
X64866503Y-129269737D01*
X65021153Y-129300499D01*
X65021156Y-129300500D01*
X65021158Y-129300500D01*
X65178844Y-129300500D01*
X65178845Y-129300499D01*
X65333497Y-129269737D01*
X65479179Y-129209394D01*
X65610289Y-129121789D01*
X65721789Y-129010289D01*
X65809394Y-128879179D01*
X65869737Y-128733497D01*
X65900500Y-128578842D01*
X65900500Y-128421158D01*
X65900500Y-128421155D01*
X65900499Y-128421153D01*
X73099500Y-128421153D01*
X73099500Y-128578846D01*
X73130261Y-128733489D01*
X73130264Y-128733501D01*
X73190602Y-128879172D01*
X73190609Y-128879185D01*
X73278210Y-129010288D01*
X73278213Y-129010292D01*
X73389707Y-129121786D01*
X73389711Y-129121789D01*
X73520814Y-129209390D01*
X73520827Y-129209397D01*
X73666498Y-129269735D01*
X73666503Y-129269737D01*
X73821153Y-129300499D01*
X73821156Y-129300500D01*
X73821158Y-129300500D01*
X73978844Y-129300500D01*
X73978845Y-129300499D01*
X74133497Y-129269737D01*
X74279179Y-129209394D01*
X74410289Y-129121789D01*
X74521789Y-129010289D01*
X74609394Y-128879179D01*
X74669737Y-128733497D01*
X74700500Y-128578842D01*
X74700500Y-128421158D01*
X74700500Y-128421155D01*
X74700499Y-128421153D01*
X81899500Y-128421153D01*
X81899500Y-128578846D01*
X81930261Y-128733489D01*
X81930264Y-128733501D01*
X81990602Y-128879172D01*
X81990609Y-128879185D01*
X82078210Y-129010288D01*
X82078213Y-129010292D01*
X82189707Y-129121786D01*
X82189711Y-129121789D01*
X82320814Y-129209390D01*
X82320827Y-129209397D01*
X82466498Y-129269735D01*
X82466503Y-129269737D01*
X82621153Y-129300499D01*
X82621156Y-129300500D01*
X82621158Y-129300500D01*
X82778844Y-129300500D01*
X82778845Y-129300499D01*
X82933497Y-129269737D01*
X83079179Y-129209394D01*
X83210289Y-129121789D01*
X83321789Y-129010289D01*
X83409394Y-128879179D01*
X83469737Y-128733497D01*
X83500500Y-128578842D01*
X83500500Y-128421158D01*
X83500500Y-128421155D01*
X83500499Y-128421153D01*
X90699500Y-128421153D01*
X90699500Y-128578846D01*
X90730261Y-128733489D01*
X90730264Y-128733501D01*
X90790602Y-128879172D01*
X90790609Y-128879185D01*
X90878210Y-129010288D01*
X90878213Y-129010292D01*
X90989707Y-129121786D01*
X90989711Y-129121789D01*
X91120814Y-129209390D01*
X91120827Y-129209397D01*
X91266498Y-129269735D01*
X91266503Y-129269737D01*
X91421153Y-129300499D01*
X91421156Y-129300500D01*
X91421158Y-129300500D01*
X91578844Y-129300500D01*
X91578845Y-129300499D01*
X91733497Y-129269737D01*
X91879179Y-129209394D01*
X92010289Y-129121789D01*
X92121789Y-129010289D01*
X92209394Y-128879179D01*
X92269737Y-128733497D01*
X92300500Y-128578842D01*
X92300500Y-128421158D01*
X92300500Y-128421155D01*
X92300499Y-128421153D01*
X99499500Y-128421153D01*
X99499500Y-128578846D01*
X99530261Y-128733489D01*
X99530264Y-128733501D01*
X99590602Y-128879172D01*
X99590609Y-128879185D01*
X99678210Y-129010288D01*
X99678213Y-129010292D01*
X99789707Y-129121786D01*
X99789711Y-129121789D01*
X99920814Y-129209390D01*
X99920827Y-129209397D01*
X100066498Y-129269735D01*
X100066503Y-129269737D01*
X100221153Y-129300499D01*
X100221156Y-129300500D01*
X100221158Y-129300500D01*
X100378844Y-129300500D01*
X100378845Y-129300499D01*
X100533497Y-129269737D01*
X100679179Y-129209394D01*
X100810289Y-129121789D01*
X100921789Y-129010289D01*
X101009394Y-128879179D01*
X101069737Y-128733497D01*
X101100500Y-128578842D01*
X101100500Y-128421158D01*
X101100500Y-128421155D01*
X101100499Y-128421153D01*
X108299500Y-128421153D01*
X108299500Y-128578846D01*
X108330261Y-128733489D01*
X108330264Y-128733501D01*
X108390602Y-128879172D01*
X108390609Y-128879185D01*
X108478210Y-129010288D01*
X108478213Y-129010292D01*
X108589707Y-129121786D01*
X108589711Y-129121789D01*
X108720814Y-129209390D01*
X108720827Y-129209397D01*
X108866498Y-129269735D01*
X108866503Y-129269737D01*
X109021153Y-129300499D01*
X109021156Y-129300500D01*
X109021158Y-129300500D01*
X109178844Y-129300500D01*
X109178845Y-129300499D01*
X109333497Y-129269737D01*
X109479179Y-129209394D01*
X109610289Y-129121789D01*
X109721789Y-129010289D01*
X109809394Y-128879179D01*
X109869737Y-128733497D01*
X109900500Y-128578842D01*
X109900500Y-128421158D01*
X109900500Y-128421155D01*
X109900499Y-128421153D01*
X109880734Y-128321789D01*
X109869737Y-128266503D01*
X109842398Y-128200500D01*
X109809397Y-128120827D01*
X109809390Y-128120814D01*
X109721789Y-127989711D01*
X109721786Y-127989707D01*
X109610292Y-127878213D01*
X109610288Y-127878210D01*
X109479185Y-127790609D01*
X109479172Y-127790602D01*
X109333501Y-127730264D01*
X109333489Y-127730261D01*
X109178845Y-127699500D01*
X109178842Y-127699500D01*
X109021158Y-127699500D01*
X109021155Y-127699500D01*
X108866510Y-127730261D01*
X108866498Y-127730264D01*
X108720827Y-127790602D01*
X108720814Y-127790609D01*
X108589711Y-127878210D01*
X108589707Y-127878213D01*
X108478213Y-127989707D01*
X108478210Y-127989711D01*
X108390609Y-128120814D01*
X108390602Y-128120827D01*
X108330264Y-128266498D01*
X108330261Y-128266510D01*
X108299500Y-128421153D01*
X101100499Y-128421153D01*
X101080734Y-128321789D01*
X101069737Y-128266503D01*
X101042398Y-128200500D01*
X101009397Y-128120827D01*
X101009390Y-128120814D01*
X100921789Y-127989711D01*
X100921786Y-127989707D01*
X100810292Y-127878213D01*
X100810288Y-127878210D01*
X100679185Y-127790609D01*
X100679172Y-127790602D01*
X100533501Y-127730264D01*
X100533489Y-127730261D01*
X100378845Y-127699500D01*
X100378842Y-127699500D01*
X100221158Y-127699500D01*
X100221155Y-127699500D01*
X100066510Y-127730261D01*
X100066498Y-127730264D01*
X99920827Y-127790602D01*
X99920814Y-127790609D01*
X99789711Y-127878210D01*
X99789707Y-127878213D01*
X99678213Y-127989707D01*
X99678210Y-127989711D01*
X99590609Y-128120814D01*
X99590602Y-128120827D01*
X99530264Y-128266498D01*
X99530261Y-128266510D01*
X99499500Y-128421153D01*
X92300499Y-128421153D01*
X92280734Y-128321789D01*
X92269737Y-128266503D01*
X92242398Y-128200500D01*
X92209397Y-128120827D01*
X92209390Y-128120814D01*
X92121789Y-127989711D01*
X92121786Y-127989707D01*
X92010292Y-127878213D01*
X92010288Y-127878210D01*
X91879185Y-127790609D01*
X91879172Y-127790602D01*
X91733501Y-127730264D01*
X91733489Y-127730261D01*
X91578845Y-127699500D01*
X91578842Y-127699500D01*
X91421158Y-127699500D01*
X91421155Y-127699500D01*
X91266510Y-127730261D01*
X91266498Y-127730264D01*
X91120827Y-127790602D01*
X91120814Y-127790609D01*
X90989711Y-127878210D01*
X90989707Y-127878213D01*
X90878213Y-127989707D01*
X90878210Y-127989711D01*
X90790609Y-128120814D01*
X90790602Y-128120827D01*
X90730264Y-128266498D01*
X90730261Y-128266510D01*
X90699500Y-128421153D01*
X83500499Y-128421153D01*
X83480734Y-128321789D01*
X83469737Y-128266503D01*
X83442398Y-128200500D01*
X83409397Y-128120827D01*
X83409390Y-128120814D01*
X83321789Y-127989711D01*
X83321786Y-127989707D01*
X83210292Y-127878213D01*
X83210288Y-127878210D01*
X83079185Y-127790609D01*
X83079172Y-127790602D01*
X82933501Y-127730264D01*
X82933489Y-127730261D01*
X82778845Y-127699500D01*
X82778842Y-127699500D01*
X82621158Y-127699500D01*
X82621155Y-127699500D01*
X82466510Y-127730261D01*
X82466498Y-127730264D01*
X82320827Y-127790602D01*
X82320814Y-127790609D01*
X82189711Y-127878210D01*
X82189707Y-127878213D01*
X82078213Y-127989707D01*
X82078210Y-127989711D01*
X81990609Y-128120814D01*
X81990602Y-128120827D01*
X81930264Y-128266498D01*
X81930261Y-128266510D01*
X81899500Y-128421153D01*
X74700499Y-128421153D01*
X74680734Y-128321789D01*
X74669737Y-128266503D01*
X74642398Y-128200500D01*
X74609397Y-128120827D01*
X74609390Y-128120814D01*
X74521789Y-127989711D01*
X74521786Y-127989707D01*
X74410292Y-127878213D01*
X74410288Y-127878210D01*
X74279185Y-127790609D01*
X74279172Y-127790602D01*
X74133501Y-127730264D01*
X74133489Y-127730261D01*
X73978845Y-127699500D01*
X73978842Y-127699500D01*
X73821158Y-127699500D01*
X73821155Y-127699500D01*
X73666510Y-127730261D01*
X73666498Y-127730264D01*
X73520827Y-127790602D01*
X73520814Y-127790609D01*
X73389711Y-127878210D01*
X73389707Y-127878213D01*
X73278213Y-127989707D01*
X73278210Y-127989711D01*
X73190609Y-128120814D01*
X73190602Y-128120827D01*
X73130264Y-128266498D01*
X73130261Y-128266510D01*
X73099500Y-128421153D01*
X65900499Y-128421153D01*
X65880734Y-128321789D01*
X65869737Y-128266503D01*
X65842398Y-128200500D01*
X65809397Y-128120827D01*
X65809390Y-128120814D01*
X65721789Y-127989711D01*
X65721786Y-127989707D01*
X65610292Y-127878213D01*
X65610288Y-127878210D01*
X65479185Y-127790609D01*
X65479172Y-127790602D01*
X65333501Y-127730264D01*
X65333489Y-127730261D01*
X65178845Y-127699500D01*
X65178842Y-127699500D01*
X65021158Y-127699500D01*
X65021155Y-127699500D01*
X64866510Y-127730261D01*
X64866498Y-127730264D01*
X64720827Y-127790602D01*
X64720814Y-127790609D01*
X64589711Y-127878210D01*
X64589707Y-127878213D01*
X64478213Y-127989707D01*
X64478210Y-127989711D01*
X64390609Y-128120814D01*
X64390602Y-128120827D01*
X64330264Y-128266498D01*
X64330261Y-128266510D01*
X64299500Y-128421153D01*
X58600499Y-128421153D01*
X58580734Y-128321789D01*
X58569737Y-128266503D01*
X58542398Y-128200500D01*
X58509397Y-128120827D01*
X58509390Y-128120814D01*
X58421789Y-127989711D01*
X58421786Y-127989707D01*
X58310292Y-127878213D01*
X58310288Y-127878210D01*
X58179185Y-127790609D01*
X58179172Y-127790602D01*
X58033501Y-127730264D01*
X58033489Y-127730261D01*
X57878845Y-127699500D01*
X57878842Y-127699500D01*
X57721158Y-127699500D01*
X57721155Y-127699500D01*
X57566510Y-127730261D01*
X57566498Y-127730264D01*
X57420827Y-127790602D01*
X57420814Y-127790609D01*
X57289711Y-127878210D01*
X57289707Y-127878213D01*
X57178213Y-127989707D01*
X57178210Y-127989711D01*
X57090609Y-128120814D01*
X57090602Y-128120827D01*
X57030264Y-128266498D01*
X57030261Y-128266510D01*
X56999500Y-128421153D01*
X48700500Y-128421153D01*
X48700500Y-127321153D01*
X50499500Y-127321153D01*
X50499500Y-127478846D01*
X50530261Y-127633489D01*
X50530264Y-127633501D01*
X50590602Y-127779172D01*
X50590609Y-127779185D01*
X50678210Y-127910288D01*
X50678213Y-127910292D01*
X50789707Y-128021786D01*
X50789711Y-128021789D01*
X50920814Y-128109390D01*
X50920827Y-128109397D01*
X51058683Y-128166498D01*
X51066503Y-128169737D01*
X51221153Y-128200499D01*
X51221156Y-128200500D01*
X51221158Y-128200500D01*
X51378844Y-128200500D01*
X51378845Y-128200499D01*
X51533497Y-128169737D01*
X51651592Y-128120821D01*
X51679172Y-128109397D01*
X51679172Y-128109396D01*
X51679179Y-128109394D01*
X51810289Y-128021789D01*
X51921789Y-127910289D01*
X52009394Y-127779179D01*
X52069737Y-127633497D01*
X52100500Y-127478842D01*
X52100500Y-127421153D01*
X59199500Y-127421153D01*
X59199500Y-127578846D01*
X59230261Y-127733489D01*
X59230264Y-127733501D01*
X59290602Y-127879172D01*
X59290609Y-127879185D01*
X59378210Y-128010288D01*
X59378213Y-128010292D01*
X59489707Y-128121786D01*
X59489711Y-128121789D01*
X59620814Y-128209390D01*
X59620827Y-128209397D01*
X59664255Y-128227385D01*
X59766503Y-128269737D01*
X59921153Y-128300499D01*
X59921156Y-128300500D01*
X59921158Y-128300500D01*
X60078844Y-128300500D01*
X60078845Y-128300499D01*
X60089179Y-128298443D01*
X60114287Y-128293450D01*
X60114292Y-128293449D01*
X60199800Y-128276439D01*
X60233497Y-128269737D01*
X60379179Y-128209394D01*
X60510289Y-128121789D01*
X60621789Y-128010289D01*
X60709394Y-127879179D01*
X60769737Y-127733497D01*
X60800500Y-127578842D01*
X60800500Y-127421158D01*
X60800500Y-127421155D01*
X60784209Y-127339258D01*
X60784209Y-127339257D01*
X60780608Y-127321153D01*
X67799500Y-127321153D01*
X67799500Y-127478846D01*
X67830261Y-127633489D01*
X67830264Y-127633501D01*
X67890602Y-127779172D01*
X67890609Y-127779185D01*
X67978210Y-127910288D01*
X67978213Y-127910292D01*
X68089707Y-128021786D01*
X68089711Y-128021789D01*
X68220814Y-128109390D01*
X68220827Y-128109397D01*
X68358683Y-128166498D01*
X68366503Y-128169737D01*
X68521153Y-128200499D01*
X68521156Y-128200500D01*
X68521158Y-128200500D01*
X68678844Y-128200500D01*
X68678845Y-128200499D01*
X68833497Y-128169737D01*
X68951592Y-128120821D01*
X68979172Y-128109397D01*
X68979172Y-128109396D01*
X68979179Y-128109394D01*
X69110289Y-128021789D01*
X69221789Y-127910289D01*
X69309394Y-127779179D01*
X69369737Y-127633497D01*
X69400500Y-127478842D01*
X69400500Y-127421153D01*
X76599500Y-127421153D01*
X76599500Y-127578846D01*
X76630261Y-127733489D01*
X76630264Y-127733501D01*
X76690602Y-127879172D01*
X76690609Y-127879185D01*
X76778210Y-128010288D01*
X76778213Y-128010292D01*
X76889707Y-128121786D01*
X76889711Y-128121789D01*
X77020814Y-128209390D01*
X77020827Y-128209397D01*
X77064255Y-128227385D01*
X77166503Y-128269737D01*
X77321153Y-128300499D01*
X77321156Y-128300500D01*
X77321158Y-128300500D01*
X77478844Y-128300500D01*
X77478845Y-128300499D01*
X77489179Y-128298443D01*
X77514287Y-128293450D01*
X77514292Y-128293449D01*
X77599800Y-128276439D01*
X77633497Y-128269737D01*
X77779179Y-128209394D01*
X77910289Y-128121789D01*
X78021789Y-128010289D01*
X78109394Y-127879179D01*
X78169737Y-127733497D01*
X78200500Y-127578842D01*
X78200500Y-127421158D01*
X78200500Y-127421155D01*
X78200499Y-127421153D01*
X85399500Y-127421153D01*
X85399500Y-127578846D01*
X85430261Y-127733489D01*
X85430264Y-127733501D01*
X85490602Y-127879172D01*
X85490609Y-127879185D01*
X85578210Y-128010288D01*
X85578213Y-128010292D01*
X85689707Y-128121786D01*
X85689711Y-128121789D01*
X85820814Y-128209390D01*
X85820827Y-128209397D01*
X85864255Y-128227385D01*
X85966503Y-128269737D01*
X86121153Y-128300499D01*
X86121156Y-128300500D01*
X86121158Y-128300500D01*
X86278844Y-128300500D01*
X86278845Y-128300499D01*
X86289179Y-128298443D01*
X86314287Y-128293450D01*
X86314292Y-128293449D01*
X86399800Y-128276439D01*
X86433497Y-128269737D01*
X86579179Y-128209394D01*
X86710289Y-128121789D01*
X86821789Y-128010289D01*
X86909394Y-127879179D01*
X86969737Y-127733497D01*
X87000500Y-127578842D01*
X87000500Y-127421158D01*
X87000500Y-127421155D01*
X87000499Y-127421153D01*
X94299500Y-127421153D01*
X94299500Y-127578846D01*
X94330261Y-127733489D01*
X94330264Y-127733501D01*
X94390602Y-127879172D01*
X94390609Y-127879185D01*
X94478210Y-128010288D01*
X94478213Y-128010292D01*
X94589707Y-128121786D01*
X94589711Y-128121789D01*
X94720814Y-128209390D01*
X94720827Y-128209397D01*
X94764255Y-128227385D01*
X94866503Y-128269737D01*
X95021153Y-128300499D01*
X95021156Y-128300500D01*
X95021158Y-128300500D01*
X95178844Y-128300500D01*
X95178845Y-128300499D01*
X95189179Y-128298443D01*
X95214287Y-128293450D01*
X95214292Y-128293449D01*
X95299800Y-128276439D01*
X95333497Y-128269737D01*
X95479179Y-128209394D01*
X95610289Y-128121789D01*
X95721789Y-128010289D01*
X95809394Y-127879179D01*
X95869737Y-127733497D01*
X95900500Y-127578842D01*
X95900500Y-127421158D01*
X95900500Y-127421155D01*
X95900499Y-127421153D01*
X102999500Y-127421153D01*
X102999500Y-127578846D01*
X103030261Y-127733489D01*
X103030264Y-127733501D01*
X103090602Y-127879172D01*
X103090609Y-127879185D01*
X103178210Y-128010288D01*
X103178213Y-128010292D01*
X103289707Y-128121786D01*
X103289711Y-128121789D01*
X103420814Y-128209390D01*
X103420827Y-128209397D01*
X103464255Y-128227385D01*
X103566503Y-128269737D01*
X103721153Y-128300499D01*
X103721156Y-128300500D01*
X103721158Y-128300500D01*
X103878844Y-128300500D01*
X103878845Y-128300499D01*
X103889179Y-128298443D01*
X103914287Y-128293450D01*
X103914292Y-128293449D01*
X103999800Y-128276439D01*
X104033497Y-128269737D01*
X104179179Y-128209394D01*
X104310289Y-128121789D01*
X104421789Y-128010289D01*
X104509394Y-127879179D01*
X104569737Y-127733497D01*
X104592084Y-127621153D01*
X111799500Y-127621153D01*
X111799500Y-127778846D01*
X111830261Y-127933489D01*
X111830264Y-127933501D01*
X111890602Y-128079172D01*
X111890609Y-128079185D01*
X111978210Y-128210288D01*
X111978213Y-128210292D01*
X112089707Y-128321786D01*
X112089711Y-128321789D01*
X112220814Y-128409390D01*
X112220827Y-128409397D01*
X112366498Y-128469735D01*
X112366503Y-128469737D01*
X112521153Y-128500499D01*
X112521156Y-128500500D01*
X112521158Y-128500500D01*
X112678844Y-128500500D01*
X112678845Y-128500499D01*
X112833497Y-128469737D01*
X112979179Y-128409394D01*
X113110289Y-128321789D01*
X113110925Y-128321153D01*
X116999500Y-128321153D01*
X116999500Y-128478846D01*
X117030261Y-128633489D01*
X117030264Y-128633501D01*
X117090602Y-128779172D01*
X117090609Y-128779185D01*
X117178210Y-128910288D01*
X117178213Y-128910292D01*
X117289707Y-129021786D01*
X117289711Y-129021789D01*
X117420814Y-129109390D01*
X117420827Y-129109397D01*
X117566498Y-129169735D01*
X117566503Y-129169737D01*
X117721153Y-129200499D01*
X117721156Y-129200500D01*
X117721158Y-129200500D01*
X117878844Y-129200500D01*
X117878845Y-129200499D01*
X118033497Y-129169737D01*
X118179179Y-129109394D01*
X118310289Y-129021789D01*
X118421789Y-128910289D01*
X118509394Y-128779179D01*
X118569737Y-128633497D01*
X118600500Y-128478842D01*
X118600500Y-128321158D01*
X118600500Y-128321155D01*
X118600499Y-128321153D01*
X118578447Y-128210292D01*
X118569737Y-128166503D01*
X118533569Y-128079185D01*
X118509397Y-128020827D01*
X118509390Y-128020814D01*
X118421789Y-127889711D01*
X118421786Y-127889707D01*
X118310292Y-127778213D01*
X118310288Y-127778210D01*
X118179185Y-127690609D01*
X118179172Y-127690602D01*
X118033501Y-127630264D01*
X118033489Y-127630261D01*
X117878845Y-127599500D01*
X117878842Y-127599500D01*
X117721158Y-127599500D01*
X117721155Y-127599500D01*
X117566510Y-127630261D01*
X117566498Y-127630264D01*
X117420827Y-127690602D01*
X117420814Y-127690609D01*
X117289711Y-127778210D01*
X117289707Y-127778213D01*
X117178213Y-127889707D01*
X117178210Y-127889711D01*
X117090609Y-128020814D01*
X117090602Y-128020827D01*
X117030264Y-128166498D01*
X117030261Y-128166510D01*
X116999500Y-128321153D01*
X113110925Y-128321153D01*
X113138629Y-128293449D01*
X113204694Y-128227385D01*
X113221786Y-128210292D01*
X113221789Y-128210289D01*
X113309394Y-128079179D01*
X113369737Y-127933497D01*
X113400500Y-127778842D01*
X113400500Y-127621158D01*
X113400500Y-127621155D01*
X113400499Y-127621153D01*
X113396192Y-127599500D01*
X113369737Y-127466503D01*
X113350955Y-127421158D01*
X113309397Y-127320827D01*
X113309390Y-127320814D01*
X113221789Y-127189711D01*
X113221786Y-127189707D01*
X113110292Y-127078213D01*
X113110288Y-127078210D01*
X112979185Y-126990609D01*
X112979172Y-126990602D01*
X112833501Y-126930264D01*
X112833489Y-126930261D01*
X112678845Y-126899500D01*
X112678842Y-126899500D01*
X112521158Y-126899500D01*
X112521155Y-126899500D01*
X112366510Y-126930261D01*
X112366498Y-126930264D01*
X112220827Y-126990602D01*
X112220814Y-126990609D01*
X112089711Y-127078210D01*
X112089707Y-127078213D01*
X111978213Y-127189707D01*
X111978210Y-127189711D01*
X111890609Y-127320814D01*
X111890602Y-127320827D01*
X111830264Y-127466498D01*
X111830261Y-127466510D01*
X111799500Y-127621153D01*
X104592084Y-127621153D01*
X104600500Y-127578842D01*
X104600500Y-127421158D01*
X104600500Y-127421155D01*
X104600499Y-127421153D01*
X104584209Y-127339257D01*
X104569737Y-127266503D01*
X104537929Y-127189711D01*
X104509397Y-127120827D01*
X104509390Y-127120814D01*
X104421789Y-126989711D01*
X104421786Y-126989707D01*
X104310292Y-126878213D01*
X104310288Y-126878210D01*
X104179185Y-126790609D01*
X104179172Y-126790602D01*
X104033501Y-126730264D01*
X104033489Y-126730261D01*
X103878845Y-126699500D01*
X103878842Y-126699500D01*
X103721158Y-126699500D01*
X103721155Y-126699500D01*
X103566510Y-126730261D01*
X103566498Y-126730264D01*
X103420827Y-126790602D01*
X103420814Y-126790609D01*
X103289711Y-126878210D01*
X103289707Y-126878213D01*
X103178213Y-126989707D01*
X103178210Y-126989711D01*
X103090609Y-127120814D01*
X103090602Y-127120827D01*
X103030264Y-127266498D01*
X103030261Y-127266510D01*
X102999500Y-127421153D01*
X95900499Y-127421153D01*
X95884209Y-127339257D01*
X95869737Y-127266503D01*
X95837929Y-127189711D01*
X95809397Y-127120827D01*
X95809390Y-127120814D01*
X95721789Y-126989711D01*
X95721786Y-126989707D01*
X95610292Y-126878213D01*
X95610288Y-126878210D01*
X95479185Y-126790609D01*
X95479172Y-126790602D01*
X95333501Y-126730264D01*
X95333489Y-126730261D01*
X95178845Y-126699500D01*
X95178842Y-126699500D01*
X95021158Y-126699500D01*
X95021155Y-126699500D01*
X94866510Y-126730261D01*
X94866498Y-126730264D01*
X94720827Y-126790602D01*
X94720814Y-126790609D01*
X94589711Y-126878210D01*
X94589707Y-126878213D01*
X94478213Y-126989707D01*
X94478210Y-126989711D01*
X94390609Y-127120814D01*
X94390602Y-127120827D01*
X94330264Y-127266498D01*
X94330261Y-127266510D01*
X94299500Y-127421153D01*
X87000499Y-127421153D01*
X86984209Y-127339257D01*
X86969737Y-127266503D01*
X86937929Y-127189711D01*
X86909397Y-127120827D01*
X86909390Y-127120814D01*
X86821789Y-126989711D01*
X86821786Y-126989707D01*
X86710292Y-126878213D01*
X86710288Y-126878210D01*
X86579185Y-126790609D01*
X86579172Y-126790602D01*
X86433501Y-126730264D01*
X86433489Y-126730261D01*
X86278845Y-126699500D01*
X86278842Y-126699500D01*
X86121158Y-126699500D01*
X86121155Y-126699500D01*
X85966510Y-126730261D01*
X85966498Y-126730264D01*
X85820827Y-126790602D01*
X85820814Y-126790609D01*
X85689711Y-126878210D01*
X85689707Y-126878213D01*
X85578213Y-126989707D01*
X85578210Y-126989711D01*
X85490609Y-127120814D01*
X85490602Y-127120827D01*
X85430264Y-127266498D01*
X85430261Y-127266510D01*
X85399500Y-127421153D01*
X78200499Y-127421153D01*
X78184209Y-127339257D01*
X78169737Y-127266503D01*
X78137929Y-127189711D01*
X78109397Y-127120827D01*
X78109390Y-127120814D01*
X78021789Y-126989711D01*
X78021786Y-126989707D01*
X77910292Y-126878213D01*
X77910288Y-126878210D01*
X77779185Y-126790609D01*
X77779172Y-126790602D01*
X77633501Y-126730264D01*
X77633489Y-126730261D01*
X77478845Y-126699500D01*
X77478842Y-126699500D01*
X77321158Y-126699500D01*
X77321155Y-126699500D01*
X77166510Y-126730261D01*
X77166498Y-126730264D01*
X77020827Y-126790602D01*
X77020814Y-126790609D01*
X76889711Y-126878210D01*
X76889707Y-126878213D01*
X76778213Y-126989707D01*
X76778210Y-126989711D01*
X76690609Y-127120814D01*
X76690602Y-127120827D01*
X76630264Y-127266498D01*
X76630261Y-127266510D01*
X76599500Y-127421153D01*
X69400500Y-127421153D01*
X69400500Y-127321158D01*
X69400500Y-127321155D01*
X69400499Y-127321153D01*
X69374353Y-127189711D01*
X69369737Y-127166503D01*
X69350812Y-127120814D01*
X69309397Y-127020827D01*
X69309390Y-127020814D01*
X69221789Y-126889711D01*
X69221786Y-126889707D01*
X69110292Y-126778213D01*
X69110288Y-126778210D01*
X68979185Y-126690609D01*
X68979172Y-126690602D01*
X68833501Y-126630264D01*
X68833489Y-126630261D01*
X68678845Y-126599500D01*
X68678842Y-126599500D01*
X68521158Y-126599500D01*
X68521155Y-126599500D01*
X68366510Y-126630261D01*
X68366498Y-126630264D01*
X68220827Y-126690602D01*
X68220814Y-126690609D01*
X68089711Y-126778210D01*
X68089707Y-126778213D01*
X67978213Y-126889707D01*
X67978210Y-126889711D01*
X67890609Y-127020814D01*
X67890602Y-127020827D01*
X67830264Y-127166498D01*
X67830261Y-127166510D01*
X67799500Y-127321153D01*
X60780608Y-127321153D01*
X60769738Y-127266510D01*
X60769737Y-127266503D01*
X60737929Y-127189711D01*
X60709397Y-127120827D01*
X60709390Y-127120814D01*
X60621789Y-126989711D01*
X60621786Y-126989707D01*
X60510292Y-126878213D01*
X60510288Y-126878210D01*
X60379185Y-126790609D01*
X60379172Y-126790602D01*
X60233501Y-126730264D01*
X60233489Y-126730261D01*
X60078845Y-126699500D01*
X60078842Y-126699500D01*
X59921158Y-126699500D01*
X59921155Y-126699500D01*
X59766510Y-126730261D01*
X59766498Y-126730264D01*
X59620827Y-126790602D01*
X59620814Y-126790609D01*
X59489711Y-126878210D01*
X59489707Y-126878213D01*
X59378213Y-126989707D01*
X59378210Y-126989711D01*
X59290609Y-127120814D01*
X59290602Y-127120827D01*
X59230264Y-127266498D01*
X59230261Y-127266510D01*
X59199500Y-127421153D01*
X52100500Y-127421153D01*
X52100500Y-127321158D01*
X52100500Y-127321155D01*
X52100499Y-127321153D01*
X52074353Y-127189711D01*
X52069737Y-127166503D01*
X52050812Y-127120814D01*
X52009397Y-127020827D01*
X52009390Y-127020814D01*
X51921789Y-126889711D01*
X51921786Y-126889707D01*
X51810292Y-126778213D01*
X51810288Y-126778210D01*
X51679185Y-126690609D01*
X51679172Y-126690602D01*
X51533501Y-126630264D01*
X51533489Y-126630261D01*
X51378845Y-126599500D01*
X51378842Y-126599500D01*
X51221158Y-126599500D01*
X51221155Y-126599500D01*
X51066510Y-126630261D01*
X51066498Y-126630264D01*
X50920827Y-126690602D01*
X50920814Y-126690609D01*
X50789711Y-126778210D01*
X50789707Y-126778213D01*
X50678213Y-126889707D01*
X50678210Y-126889711D01*
X50590609Y-127020814D01*
X50590602Y-127020827D01*
X50530264Y-127166498D01*
X50530261Y-127166510D01*
X50499500Y-127321153D01*
X48700500Y-127321153D01*
X48700500Y-126371152D01*
X52299500Y-126371152D01*
X52299500Y-126528845D01*
X52330261Y-126683488D01*
X52330264Y-126683500D01*
X52390602Y-126829171D01*
X52390609Y-126829184D01*
X52478210Y-126960287D01*
X52478213Y-126960291D01*
X52589707Y-127071785D01*
X52589711Y-127071788D01*
X52720814Y-127159389D01*
X52720827Y-127159396D01*
X52866498Y-127219734D01*
X52866503Y-127219736D01*
X53021153Y-127250498D01*
X53021156Y-127250499D01*
X53021158Y-127250499D01*
X53178844Y-127250499D01*
X53178845Y-127250498D01*
X53333497Y-127219736D01*
X53479179Y-127159393D01*
X53610289Y-127071788D01*
X53721789Y-126960288D01*
X53809394Y-126829178D01*
X53869737Y-126683496D01*
X53900500Y-126528841D01*
X53900500Y-126371157D01*
X53900500Y-126371154D01*
X53900499Y-126371152D01*
X53869738Y-126216509D01*
X53869737Y-126216502D01*
X53869735Y-126216497D01*
X53809397Y-126070826D01*
X53809390Y-126070813D01*
X53721789Y-125939710D01*
X53721786Y-125939706D01*
X53610292Y-125828212D01*
X53610288Y-125828209D01*
X53479185Y-125740608D01*
X53479172Y-125740601D01*
X53333501Y-125680263D01*
X53333489Y-125680260D01*
X53178845Y-125649499D01*
X53178842Y-125649499D01*
X53021158Y-125649499D01*
X53021155Y-125649499D01*
X52866510Y-125680260D01*
X52866498Y-125680263D01*
X52720827Y-125740601D01*
X52720814Y-125740608D01*
X52589711Y-125828209D01*
X52589707Y-125828212D01*
X52478213Y-125939706D01*
X52478210Y-125939710D01*
X52390609Y-126070813D01*
X52390602Y-126070826D01*
X52330264Y-126216497D01*
X52330261Y-126216509D01*
X52299500Y-126371152D01*
X48700500Y-126371152D01*
X48700500Y-124821153D01*
X50699500Y-124821153D01*
X50699500Y-124978846D01*
X50730261Y-125133489D01*
X50730264Y-125133501D01*
X50790602Y-125279172D01*
X50790609Y-125279185D01*
X50878210Y-125410288D01*
X50878213Y-125410292D01*
X50989707Y-125521786D01*
X50989711Y-125521789D01*
X51120814Y-125609390D01*
X51120827Y-125609397D01*
X51266498Y-125669735D01*
X51266503Y-125669737D01*
X51421153Y-125700499D01*
X51421156Y-125700500D01*
X51421158Y-125700500D01*
X51578844Y-125700500D01*
X51578845Y-125700499D01*
X51733497Y-125669737D01*
X51879179Y-125609394D01*
X52010289Y-125521789D01*
X52121789Y-125410289D01*
X52209394Y-125279179D01*
X52269737Y-125133497D01*
X52300500Y-124978842D01*
X52300500Y-124821158D01*
X52300500Y-124821155D01*
X52300499Y-124821153D01*
X55399500Y-124821153D01*
X55399500Y-124978846D01*
X55430261Y-125133489D01*
X55430264Y-125133501D01*
X55490602Y-125279172D01*
X55490609Y-125279185D01*
X55578210Y-125410288D01*
X55578213Y-125410292D01*
X55689707Y-125521786D01*
X55689711Y-125521789D01*
X55820814Y-125609390D01*
X55820827Y-125609397D01*
X55966498Y-125669735D01*
X55966503Y-125669737D01*
X56121153Y-125700499D01*
X56121156Y-125700500D01*
X56121158Y-125700500D01*
X56278844Y-125700500D01*
X56278845Y-125700499D01*
X56433497Y-125669737D01*
X56579179Y-125609394D01*
X56710289Y-125521789D01*
X56821789Y-125410289D01*
X56909394Y-125279179D01*
X56969737Y-125133497D01*
X57000500Y-124978842D01*
X57000500Y-124821158D01*
X57000500Y-124821155D01*
X57000499Y-124821153D01*
X56990679Y-124771786D01*
X56969737Y-124666503D01*
X56967163Y-124660288D01*
X56909397Y-124520827D01*
X56909390Y-124520814D01*
X56821789Y-124389711D01*
X56821786Y-124389707D01*
X56710292Y-124278213D01*
X56710288Y-124278210D01*
X56579185Y-124190609D01*
X56579172Y-124190602D01*
X56433501Y-124130264D01*
X56433489Y-124130261D01*
X56278845Y-124099500D01*
X56278842Y-124099500D01*
X56121158Y-124099500D01*
X56121155Y-124099500D01*
X55966510Y-124130261D01*
X55966498Y-124130264D01*
X55820827Y-124190602D01*
X55820814Y-124190609D01*
X55689711Y-124278210D01*
X55689707Y-124278213D01*
X55578213Y-124389707D01*
X55578210Y-124389711D01*
X55490609Y-124520814D01*
X55490602Y-124520827D01*
X55430264Y-124666498D01*
X55430261Y-124666510D01*
X55399500Y-124821153D01*
X52300499Y-124821153D01*
X52290679Y-124771786D01*
X52269737Y-124666503D01*
X52267163Y-124660288D01*
X52209397Y-124520827D01*
X52209390Y-124520814D01*
X52121789Y-124389711D01*
X52121786Y-124389707D01*
X52010292Y-124278213D01*
X52010288Y-124278210D01*
X51879185Y-124190609D01*
X51879172Y-124190602D01*
X51733501Y-124130264D01*
X51733489Y-124130261D01*
X51578845Y-124099500D01*
X51578842Y-124099500D01*
X51421158Y-124099500D01*
X51421155Y-124099500D01*
X51266510Y-124130261D01*
X51266498Y-124130264D01*
X51120827Y-124190602D01*
X51120814Y-124190609D01*
X50989711Y-124278210D01*
X50989707Y-124278213D01*
X50878213Y-124389707D01*
X50878210Y-124389711D01*
X50790609Y-124520814D01*
X50790602Y-124520827D01*
X50730264Y-124666498D01*
X50730261Y-124666510D01*
X50699500Y-124821153D01*
X48700500Y-124821153D01*
X48700500Y-123964112D01*
X58631541Y-123964112D01*
X58631541Y-124121805D01*
X58662302Y-124276448D01*
X58662305Y-124276460D01*
X58722643Y-124422131D01*
X58722650Y-124422144D01*
X58810251Y-124553247D01*
X58810254Y-124553251D01*
X58921748Y-124664745D01*
X58921752Y-124664748D01*
X59052855Y-124752349D01*
X59052868Y-124752356D01*
X59198539Y-124812694D01*
X59198544Y-124812696D01*
X59290353Y-124830958D01*
X59353194Y-124843458D01*
X59353197Y-124843459D01*
X59353199Y-124843459D01*
X59510885Y-124843459D01*
X59510886Y-124843458D01*
X59665538Y-124812696D01*
X59805177Y-124754856D01*
X59811213Y-124752356D01*
X59811213Y-124752355D01*
X59811220Y-124752353D01*
X59942330Y-124664748D01*
X60053830Y-124553248D01*
X60141435Y-124422138D01*
X60201778Y-124276456D01*
X60232541Y-124121801D01*
X60232541Y-124036045D01*
X67326515Y-124036045D01*
X67326515Y-124193738D01*
X67357276Y-124348381D01*
X67357279Y-124348393D01*
X67417617Y-124494064D01*
X67417624Y-124494077D01*
X67505225Y-124625180D01*
X67505228Y-124625184D01*
X67616722Y-124736678D01*
X67616726Y-124736681D01*
X67747829Y-124824282D01*
X67747842Y-124824289D01*
X67893513Y-124884627D01*
X67893518Y-124884629D01*
X68048168Y-124915391D01*
X68048171Y-124915392D01*
X68048173Y-124915392D01*
X68205859Y-124915392D01*
X68205860Y-124915391D01*
X68360512Y-124884629D01*
X68506194Y-124824286D01*
X68637304Y-124736681D01*
X68748804Y-124625181D01*
X68836409Y-124494071D01*
X68837786Y-124490748D01*
X68866207Y-124422131D01*
X68896752Y-124348389D01*
X68927515Y-124193734D01*
X68927515Y-124036050D01*
X68927515Y-124036047D01*
X68927514Y-124036045D01*
X68917305Y-123984716D01*
X68913704Y-123966612D01*
X76234041Y-123966612D01*
X76234041Y-124124305D01*
X76264802Y-124278948D01*
X76264805Y-124278960D01*
X76325143Y-124424631D01*
X76325150Y-124424644D01*
X76412751Y-124555747D01*
X76412754Y-124555751D01*
X76524248Y-124667245D01*
X76524252Y-124667248D01*
X76655355Y-124754849D01*
X76655368Y-124754856D01*
X76795008Y-124812696D01*
X76801044Y-124815196D01*
X76943126Y-124843458D01*
X76955694Y-124845958D01*
X76955697Y-124845959D01*
X76955699Y-124845959D01*
X77113385Y-124845959D01*
X77113386Y-124845958D01*
X77268038Y-124815196D01*
X77413720Y-124754853D01*
X77544830Y-124667248D01*
X77656330Y-124555748D01*
X77743935Y-124424638D01*
X77744974Y-124422131D01*
X77770859Y-124359638D01*
X77804278Y-124278956D01*
X77835041Y-124124301D01*
X77835041Y-123966617D01*
X77835041Y-123966614D01*
X77835040Y-123966613D01*
X77832057Y-123951617D01*
X77832056Y-123951612D01*
X85019041Y-123951612D01*
X85019041Y-124109305D01*
X85049802Y-124263948D01*
X85049805Y-124263960D01*
X85110143Y-124409631D01*
X85110150Y-124409644D01*
X85197751Y-124540747D01*
X85197754Y-124540751D01*
X85309248Y-124652245D01*
X85309252Y-124652248D01*
X85440355Y-124739849D01*
X85440368Y-124739856D01*
X85539601Y-124780959D01*
X85586044Y-124800196D01*
X85707132Y-124824282D01*
X85740694Y-124830958D01*
X85740697Y-124830959D01*
X85740699Y-124830959D01*
X85898385Y-124830959D01*
X85898386Y-124830958D01*
X86053038Y-124800196D01*
X86198720Y-124739853D01*
X86329830Y-124652248D01*
X86441330Y-124540748D01*
X86528935Y-124409638D01*
X86589278Y-124263956D01*
X86620041Y-124109301D01*
X86620041Y-124071153D01*
X96099500Y-124071153D01*
X96099500Y-124228846D01*
X96130261Y-124383489D01*
X96130264Y-124383501D01*
X96190602Y-124529172D01*
X96190609Y-124529185D01*
X96278210Y-124660288D01*
X96278213Y-124660292D01*
X96389707Y-124771786D01*
X96389711Y-124771789D01*
X96520814Y-124859390D01*
X96520827Y-124859397D01*
X96656013Y-124915392D01*
X96666503Y-124919737D01*
X96821153Y-124950499D01*
X96821156Y-124950500D01*
X96821158Y-124950500D01*
X96978844Y-124950500D01*
X96978845Y-124950499D01*
X97133497Y-124919737D01*
X97279179Y-124859394D01*
X97410289Y-124771789D01*
X97521789Y-124660289D01*
X97609394Y-124529179D01*
X97612854Y-124520827D01*
X97653734Y-124422131D01*
X97669737Y-124383497D01*
X97700500Y-124228842D01*
X97700500Y-124071158D01*
X97700500Y-124071155D01*
X97700499Y-124071153D01*
X105299500Y-124071153D01*
X105299500Y-124228846D01*
X105330261Y-124383489D01*
X105330264Y-124383501D01*
X105390602Y-124529172D01*
X105390609Y-124529185D01*
X105478210Y-124660288D01*
X105478213Y-124660292D01*
X105589707Y-124771786D01*
X105589711Y-124771789D01*
X105720814Y-124859390D01*
X105720827Y-124859397D01*
X105856013Y-124915392D01*
X105866503Y-124919737D01*
X106021153Y-124950499D01*
X106021156Y-124950500D01*
X106021158Y-124950500D01*
X106178844Y-124950500D01*
X106178845Y-124950499D01*
X106333497Y-124919737D01*
X106479179Y-124859394D01*
X106610289Y-124771789D01*
X106721789Y-124660289D01*
X106809394Y-124529179D01*
X106812854Y-124520827D01*
X106853734Y-124422131D01*
X106869737Y-124383497D01*
X106900500Y-124228842D01*
X106900500Y-124071158D01*
X106900500Y-124071155D01*
X106900499Y-124071153D01*
X106870377Y-123919716D01*
X106870377Y-123919715D01*
X106869739Y-123916512D01*
X106869738Y-123916509D01*
X106869737Y-123916503D01*
X106863569Y-123901612D01*
X111369041Y-123901612D01*
X111369041Y-124059305D01*
X111399802Y-124213948D01*
X111399805Y-124213960D01*
X111460143Y-124359631D01*
X111460150Y-124359644D01*
X111547751Y-124490747D01*
X111547754Y-124490751D01*
X111659248Y-124602245D01*
X111659252Y-124602248D01*
X111790355Y-124689849D01*
X111790368Y-124689856D01*
X111936039Y-124750194D01*
X111936044Y-124750196D01*
X112044584Y-124771786D01*
X112090694Y-124780958D01*
X112090697Y-124780959D01*
X112090699Y-124780959D01*
X112248385Y-124780959D01*
X112248386Y-124780958D01*
X112403038Y-124750196D01*
X112548720Y-124689853D01*
X112679830Y-124602248D01*
X112791330Y-124490748D01*
X112878935Y-124359638D01*
X112883595Y-124348389D01*
X112912354Y-124278956D01*
X112939278Y-124213956D01*
X112970041Y-124059301D01*
X112970041Y-123901617D01*
X112970041Y-123901614D01*
X112970040Y-123901612D01*
X112949225Y-123796969D01*
X112939278Y-123746962D01*
X112904823Y-123663780D01*
X112878938Y-123601286D01*
X112878931Y-123601273D01*
X112791330Y-123470170D01*
X112791327Y-123470166D01*
X112679833Y-123358672D01*
X112679829Y-123358669D01*
X112548726Y-123271068D01*
X112548713Y-123271061D01*
X112403042Y-123210723D01*
X112403030Y-123210720D01*
X112248386Y-123179959D01*
X112248383Y-123179959D01*
X112090699Y-123179959D01*
X112090696Y-123179959D01*
X111936051Y-123210720D01*
X111936039Y-123210723D01*
X111790368Y-123271061D01*
X111790355Y-123271068D01*
X111659252Y-123358669D01*
X111659248Y-123358672D01*
X111547754Y-123470166D01*
X111547751Y-123470170D01*
X111460150Y-123601273D01*
X111460143Y-123601286D01*
X111399805Y-123746957D01*
X111399802Y-123746969D01*
X111369041Y-123901612D01*
X106863569Y-123901612D01*
X106826433Y-123811957D01*
X106809397Y-123770827D01*
X106809390Y-123770814D01*
X106721789Y-123639711D01*
X106721786Y-123639707D01*
X106610292Y-123528213D01*
X106610288Y-123528210D01*
X106479185Y-123440609D01*
X106479172Y-123440602D01*
X106333501Y-123380264D01*
X106333489Y-123380261D01*
X106178845Y-123349500D01*
X106178842Y-123349500D01*
X106021158Y-123349500D01*
X106021155Y-123349500D01*
X105866510Y-123380261D01*
X105866498Y-123380264D01*
X105720827Y-123440602D01*
X105720814Y-123440609D01*
X105589711Y-123528210D01*
X105589707Y-123528213D01*
X105478213Y-123639707D01*
X105478210Y-123639711D01*
X105390609Y-123770814D01*
X105390602Y-123770827D01*
X105330264Y-123916498D01*
X105330261Y-123916510D01*
X105299500Y-124071153D01*
X97700499Y-124071153D01*
X97698141Y-124059301D01*
X97669737Y-123916503D01*
X97626433Y-123811957D01*
X97609397Y-123770827D01*
X97609390Y-123770814D01*
X97521789Y-123639711D01*
X97521786Y-123639707D01*
X97410292Y-123528213D01*
X97410288Y-123528210D01*
X97279185Y-123440609D01*
X97279172Y-123440602D01*
X97133501Y-123380264D01*
X97133489Y-123380261D01*
X96978845Y-123349500D01*
X96978842Y-123349500D01*
X96821158Y-123349500D01*
X96821155Y-123349500D01*
X96666510Y-123380261D01*
X96666498Y-123380264D01*
X96520827Y-123440602D01*
X96520814Y-123440609D01*
X96389711Y-123528210D01*
X96389707Y-123528213D01*
X96278213Y-123639707D01*
X96278210Y-123639711D01*
X96190609Y-123770814D01*
X96190602Y-123770827D01*
X96130264Y-123916498D01*
X96130261Y-123916510D01*
X96099500Y-124071153D01*
X86620041Y-124071153D01*
X86620041Y-123951617D01*
X86620041Y-123951614D01*
X86620040Y-123951612D01*
X86592263Y-123811969D01*
X86589278Y-123796962D01*
X86578447Y-123770814D01*
X86528938Y-123651286D01*
X86528931Y-123651273D01*
X86441330Y-123520170D01*
X86441327Y-123520166D01*
X86329833Y-123408672D01*
X86329829Y-123408669D01*
X86198726Y-123321068D01*
X86198713Y-123321061D01*
X86053042Y-123260723D01*
X86053030Y-123260720D01*
X85898386Y-123229959D01*
X85898383Y-123229959D01*
X85740699Y-123229959D01*
X85740696Y-123229959D01*
X85586051Y-123260720D01*
X85586039Y-123260723D01*
X85440368Y-123321061D01*
X85440355Y-123321068D01*
X85309252Y-123408669D01*
X85309248Y-123408672D01*
X85197754Y-123520166D01*
X85197751Y-123520170D01*
X85110150Y-123651273D01*
X85110143Y-123651286D01*
X85049805Y-123796957D01*
X85049802Y-123796969D01*
X85019041Y-123951612D01*
X77832056Y-123951612D01*
X77804278Y-123811962D01*
X77803245Y-123809469D01*
X77743938Y-123666286D01*
X77743931Y-123666273D01*
X77656330Y-123535170D01*
X77656327Y-123535166D01*
X77544833Y-123423672D01*
X77544829Y-123423669D01*
X77413726Y-123336068D01*
X77413713Y-123336061D01*
X77268042Y-123275723D01*
X77268030Y-123275720D01*
X77113386Y-123244959D01*
X77113383Y-123244959D01*
X76955699Y-123244959D01*
X76955696Y-123244959D01*
X76801051Y-123275720D01*
X76801039Y-123275723D01*
X76655368Y-123336061D01*
X76655355Y-123336068D01*
X76524252Y-123423669D01*
X76524248Y-123423672D01*
X76412754Y-123535166D01*
X76412751Y-123535170D01*
X76325150Y-123666273D01*
X76325143Y-123666286D01*
X76264805Y-123811957D01*
X76264802Y-123811969D01*
X76234041Y-123966612D01*
X68913704Y-123966612D01*
X68896753Y-123881400D01*
X68896752Y-123881399D01*
X68896752Y-123881395D01*
X68850954Y-123770827D01*
X68836412Y-123735719D01*
X68836405Y-123735706D01*
X68748804Y-123604603D01*
X68748801Y-123604599D01*
X68637307Y-123493105D01*
X68637303Y-123493102D01*
X68506200Y-123405501D01*
X68506187Y-123405494D01*
X68360516Y-123345156D01*
X68360504Y-123345153D01*
X68205860Y-123314392D01*
X68205857Y-123314392D01*
X68048173Y-123314392D01*
X68048170Y-123314392D01*
X67893525Y-123345153D01*
X67893513Y-123345156D01*
X67747842Y-123405494D01*
X67747829Y-123405501D01*
X67616726Y-123493102D01*
X67616722Y-123493105D01*
X67505228Y-123604599D01*
X67505225Y-123604603D01*
X67417624Y-123735706D01*
X67417617Y-123735719D01*
X67357279Y-123881390D01*
X67357276Y-123881402D01*
X67326515Y-124036045D01*
X60232541Y-124036045D01*
X60232541Y-123964117D01*
X60232541Y-123964114D01*
X60232540Y-123964112D01*
X60216085Y-123881390D01*
X60201778Y-123809462D01*
X60185775Y-123770827D01*
X60141438Y-123663786D01*
X60141431Y-123663773D01*
X60053830Y-123532670D01*
X60053827Y-123532666D01*
X59942333Y-123421172D01*
X59942329Y-123421169D01*
X59811226Y-123333568D01*
X59811213Y-123333561D01*
X59665542Y-123273223D01*
X59665530Y-123273220D01*
X59510886Y-123242459D01*
X59510883Y-123242459D01*
X59353199Y-123242459D01*
X59353196Y-123242459D01*
X59198551Y-123273220D01*
X59198539Y-123273223D01*
X59052868Y-123333561D01*
X59052855Y-123333568D01*
X58921752Y-123421169D01*
X58921748Y-123421172D01*
X58810254Y-123532666D01*
X58810251Y-123532670D01*
X58722650Y-123663773D01*
X58722643Y-123663786D01*
X58662305Y-123809457D01*
X58662302Y-123809469D01*
X58631541Y-123964112D01*
X48700500Y-123964112D01*
X48700500Y-122621153D01*
X55199500Y-122621153D01*
X55199500Y-122778846D01*
X55230261Y-122933489D01*
X55230264Y-122933501D01*
X55290602Y-123079172D01*
X55290609Y-123079185D01*
X55378210Y-123210288D01*
X55378213Y-123210292D01*
X55489707Y-123321786D01*
X55489711Y-123321789D01*
X55620814Y-123409390D01*
X55620827Y-123409397D01*
X55696181Y-123440609D01*
X55766503Y-123469737D01*
X55921153Y-123500499D01*
X55921156Y-123500500D01*
X55921158Y-123500500D01*
X56078844Y-123500500D01*
X56078845Y-123500499D01*
X56233497Y-123469737D01*
X56379179Y-123409394D01*
X56510289Y-123321789D01*
X56621789Y-123210289D01*
X56709394Y-123079179D01*
X56769737Y-122933497D01*
X56800500Y-122778842D01*
X56800500Y-122621158D01*
X56800500Y-122621155D01*
X56800499Y-122621153D01*
X63699500Y-122621153D01*
X63699500Y-122778846D01*
X63730261Y-122933489D01*
X63730264Y-122933501D01*
X63790602Y-123079172D01*
X63790609Y-123079185D01*
X63878210Y-123210288D01*
X63878213Y-123210292D01*
X63989707Y-123321786D01*
X63989711Y-123321789D01*
X64120814Y-123409390D01*
X64120827Y-123409397D01*
X64196181Y-123440609D01*
X64266503Y-123469737D01*
X64421153Y-123500499D01*
X64421156Y-123500500D01*
X64421158Y-123500500D01*
X64578844Y-123500500D01*
X64578845Y-123500499D01*
X64733497Y-123469737D01*
X64879179Y-123409394D01*
X65010289Y-123321789D01*
X65121789Y-123210289D01*
X65209394Y-123079179D01*
X65269737Y-122933497D01*
X65300500Y-122778842D01*
X65300500Y-122621158D01*
X65300500Y-122621155D01*
X65300499Y-122621153D01*
X72499500Y-122621153D01*
X72499500Y-122778846D01*
X72530261Y-122933489D01*
X72530264Y-122933501D01*
X72590602Y-123079172D01*
X72590609Y-123079185D01*
X72678210Y-123210288D01*
X72678213Y-123210292D01*
X72789707Y-123321786D01*
X72789711Y-123321789D01*
X72920814Y-123409390D01*
X72920827Y-123409397D01*
X72996181Y-123440609D01*
X73066503Y-123469737D01*
X73221153Y-123500499D01*
X73221156Y-123500500D01*
X73221158Y-123500500D01*
X73378844Y-123500500D01*
X73378845Y-123500499D01*
X73533497Y-123469737D01*
X73679179Y-123409394D01*
X73810289Y-123321789D01*
X73921789Y-123210289D01*
X74009394Y-123079179D01*
X74069737Y-122933497D01*
X74100500Y-122778842D01*
X74100500Y-122621158D01*
X74100500Y-122621155D01*
X74100499Y-122621153D01*
X81299500Y-122621153D01*
X81299500Y-122778846D01*
X81330261Y-122933489D01*
X81330264Y-122933501D01*
X81390602Y-123079172D01*
X81390609Y-123079185D01*
X81478210Y-123210288D01*
X81478213Y-123210292D01*
X81589707Y-123321786D01*
X81589711Y-123321789D01*
X81720814Y-123409390D01*
X81720827Y-123409397D01*
X81796181Y-123440609D01*
X81866503Y-123469737D01*
X82021153Y-123500499D01*
X82021156Y-123500500D01*
X82021158Y-123500500D01*
X82178844Y-123500500D01*
X82178845Y-123500499D01*
X82333497Y-123469737D01*
X82479179Y-123409394D01*
X82610289Y-123321789D01*
X82721789Y-123210289D01*
X82809394Y-123079179D01*
X82869737Y-122933497D01*
X82900500Y-122778842D01*
X82900500Y-122621158D01*
X82900500Y-122621155D01*
X82900499Y-122621153D01*
X90099500Y-122621153D01*
X90099500Y-122778846D01*
X90130261Y-122933489D01*
X90130264Y-122933501D01*
X90190602Y-123079172D01*
X90190609Y-123079185D01*
X90278210Y-123210288D01*
X90278213Y-123210292D01*
X90389707Y-123321786D01*
X90389711Y-123321789D01*
X90520814Y-123409390D01*
X90520827Y-123409397D01*
X90596181Y-123440609D01*
X90666503Y-123469737D01*
X90821153Y-123500499D01*
X90821156Y-123500500D01*
X90821158Y-123500500D01*
X90978844Y-123500500D01*
X90978845Y-123500499D01*
X91133497Y-123469737D01*
X91279179Y-123409394D01*
X91410289Y-123321789D01*
X91521789Y-123210289D01*
X91609394Y-123079179D01*
X91669737Y-122933497D01*
X91700500Y-122778842D01*
X91700500Y-122621158D01*
X91700500Y-122621155D01*
X91700499Y-122621153D01*
X99099500Y-122621153D01*
X99099500Y-122778846D01*
X99130261Y-122933489D01*
X99130264Y-122933501D01*
X99190602Y-123079172D01*
X99190609Y-123079185D01*
X99278210Y-123210288D01*
X99278213Y-123210292D01*
X99389707Y-123321786D01*
X99389711Y-123321789D01*
X99520814Y-123409390D01*
X99520827Y-123409397D01*
X99596181Y-123440609D01*
X99666503Y-123469737D01*
X99821153Y-123500499D01*
X99821156Y-123500500D01*
X99821158Y-123500500D01*
X99978844Y-123500500D01*
X99978845Y-123500499D01*
X100133497Y-123469737D01*
X100279179Y-123409394D01*
X100410289Y-123321789D01*
X100521789Y-123210289D01*
X100609394Y-123079179D01*
X100669737Y-122933497D01*
X100700500Y-122778842D01*
X100700500Y-122621158D01*
X100700500Y-122621155D01*
X100700499Y-122621153D01*
X107899500Y-122621153D01*
X107899500Y-122778846D01*
X107930261Y-122933489D01*
X107930264Y-122933501D01*
X107990602Y-123079172D01*
X107990609Y-123079185D01*
X108078210Y-123210288D01*
X108078213Y-123210292D01*
X108189707Y-123321786D01*
X108189711Y-123321789D01*
X108320814Y-123409390D01*
X108320827Y-123409397D01*
X108396181Y-123440609D01*
X108466503Y-123469737D01*
X108621153Y-123500499D01*
X108621156Y-123500500D01*
X108621158Y-123500500D01*
X108778844Y-123500500D01*
X108778845Y-123500499D01*
X108933497Y-123469737D01*
X109079179Y-123409394D01*
X109210289Y-123321789D01*
X109321789Y-123210289D01*
X109409394Y-123079179D01*
X109469737Y-122933497D01*
X109500500Y-122778842D01*
X109500500Y-122621158D01*
X109500500Y-122621155D01*
X109500499Y-122621153D01*
X116799500Y-122621153D01*
X116799500Y-122778846D01*
X116830261Y-122933489D01*
X116830264Y-122933501D01*
X116890602Y-123079172D01*
X116890609Y-123079185D01*
X116978210Y-123210288D01*
X116978213Y-123210292D01*
X117089707Y-123321786D01*
X117089711Y-123321789D01*
X117220814Y-123409390D01*
X117220827Y-123409397D01*
X117296181Y-123440609D01*
X117366503Y-123469737D01*
X117521153Y-123500499D01*
X117521156Y-123500500D01*
X117521158Y-123500500D01*
X117678844Y-123500500D01*
X117678845Y-123500499D01*
X117833497Y-123469737D01*
X117979179Y-123409394D01*
X118110289Y-123321789D01*
X118221789Y-123210289D01*
X118309394Y-123079179D01*
X118369737Y-122933497D01*
X118400500Y-122778842D01*
X118400500Y-122621158D01*
X118400500Y-122621155D01*
X118400499Y-122621153D01*
X118369738Y-122466510D01*
X118369737Y-122466503D01*
X118369735Y-122466498D01*
X118309397Y-122320827D01*
X118309390Y-122320814D01*
X118221789Y-122189711D01*
X118221786Y-122189707D01*
X118110292Y-122078213D01*
X118110288Y-122078210D01*
X117979185Y-121990609D01*
X117979172Y-121990602D01*
X117833501Y-121930264D01*
X117833489Y-121930261D01*
X117678845Y-121899500D01*
X117678842Y-121899500D01*
X117521158Y-121899500D01*
X117521155Y-121899500D01*
X117366510Y-121930261D01*
X117366498Y-121930264D01*
X117220827Y-121990602D01*
X117220814Y-121990609D01*
X117089711Y-122078210D01*
X117089707Y-122078213D01*
X116978213Y-122189707D01*
X116978210Y-122189711D01*
X116890609Y-122320814D01*
X116890602Y-122320827D01*
X116830264Y-122466498D01*
X116830261Y-122466510D01*
X116799500Y-122621153D01*
X109500499Y-122621153D01*
X109469738Y-122466510D01*
X109469737Y-122466503D01*
X109469735Y-122466498D01*
X109409397Y-122320827D01*
X109409390Y-122320814D01*
X109321789Y-122189711D01*
X109321786Y-122189707D01*
X109210292Y-122078213D01*
X109210288Y-122078210D01*
X109079185Y-121990609D01*
X109079172Y-121990602D01*
X108933501Y-121930264D01*
X108933489Y-121930261D01*
X108778845Y-121899500D01*
X108778842Y-121899500D01*
X108621158Y-121899500D01*
X108621155Y-121899500D01*
X108466510Y-121930261D01*
X108466498Y-121930264D01*
X108320827Y-121990602D01*
X108320814Y-121990609D01*
X108189711Y-122078210D01*
X108189707Y-122078213D01*
X108078213Y-122189707D01*
X108078210Y-122189711D01*
X107990609Y-122320814D01*
X107990602Y-122320827D01*
X107930264Y-122466498D01*
X107930261Y-122466510D01*
X107899500Y-122621153D01*
X100700499Y-122621153D01*
X100669738Y-122466510D01*
X100669737Y-122466503D01*
X100669735Y-122466498D01*
X100609397Y-122320827D01*
X100609390Y-122320814D01*
X100521789Y-122189711D01*
X100521786Y-122189707D01*
X100410292Y-122078213D01*
X100410288Y-122078210D01*
X100279185Y-121990609D01*
X100279172Y-121990602D01*
X100133501Y-121930264D01*
X100133489Y-121930261D01*
X99978845Y-121899500D01*
X99978842Y-121899500D01*
X99821158Y-121899500D01*
X99821155Y-121899500D01*
X99666510Y-121930261D01*
X99666498Y-121930264D01*
X99520827Y-121990602D01*
X99520814Y-121990609D01*
X99389711Y-122078210D01*
X99389707Y-122078213D01*
X99278213Y-122189707D01*
X99278210Y-122189711D01*
X99190609Y-122320814D01*
X99190602Y-122320827D01*
X99130264Y-122466498D01*
X99130261Y-122466510D01*
X99099500Y-122621153D01*
X91700499Y-122621153D01*
X91669738Y-122466510D01*
X91669737Y-122466503D01*
X91669735Y-122466498D01*
X91609397Y-122320827D01*
X91609390Y-122320814D01*
X91521789Y-122189711D01*
X91521786Y-122189707D01*
X91410292Y-122078213D01*
X91410288Y-122078210D01*
X91279185Y-121990609D01*
X91279172Y-121990602D01*
X91133501Y-121930264D01*
X91133489Y-121930261D01*
X90978845Y-121899500D01*
X90978842Y-121899500D01*
X90821158Y-121899500D01*
X90821155Y-121899500D01*
X90666510Y-121930261D01*
X90666498Y-121930264D01*
X90520827Y-121990602D01*
X90520814Y-121990609D01*
X90389711Y-122078210D01*
X90389707Y-122078213D01*
X90278213Y-122189707D01*
X90278210Y-122189711D01*
X90190609Y-122320814D01*
X90190602Y-122320827D01*
X90130264Y-122466498D01*
X90130261Y-122466510D01*
X90099500Y-122621153D01*
X82900499Y-122621153D01*
X82869738Y-122466510D01*
X82869737Y-122466503D01*
X82869735Y-122466498D01*
X82809397Y-122320827D01*
X82809390Y-122320814D01*
X82721789Y-122189711D01*
X82721786Y-122189707D01*
X82610292Y-122078213D01*
X82610288Y-122078210D01*
X82479185Y-121990609D01*
X82479172Y-121990602D01*
X82333501Y-121930264D01*
X82333489Y-121930261D01*
X82178845Y-121899500D01*
X82178842Y-121899500D01*
X82021158Y-121899500D01*
X82021155Y-121899500D01*
X81866510Y-121930261D01*
X81866498Y-121930264D01*
X81720827Y-121990602D01*
X81720814Y-121990609D01*
X81589711Y-122078210D01*
X81589707Y-122078213D01*
X81478213Y-122189707D01*
X81478210Y-122189711D01*
X81390609Y-122320814D01*
X81390602Y-122320827D01*
X81330264Y-122466498D01*
X81330261Y-122466510D01*
X81299500Y-122621153D01*
X74100499Y-122621153D01*
X74069738Y-122466510D01*
X74069737Y-122466503D01*
X74069735Y-122466498D01*
X74009397Y-122320827D01*
X74009390Y-122320814D01*
X73921789Y-122189711D01*
X73921786Y-122189707D01*
X73810292Y-122078213D01*
X73810288Y-122078210D01*
X73679185Y-121990609D01*
X73679172Y-121990602D01*
X73533501Y-121930264D01*
X73533489Y-121930261D01*
X73378845Y-121899500D01*
X73378842Y-121899500D01*
X73221158Y-121899500D01*
X73221155Y-121899500D01*
X73066510Y-121930261D01*
X73066498Y-121930264D01*
X72920827Y-121990602D01*
X72920814Y-121990609D01*
X72789711Y-122078210D01*
X72789707Y-122078213D01*
X72678213Y-122189707D01*
X72678210Y-122189711D01*
X72590609Y-122320814D01*
X72590602Y-122320827D01*
X72530264Y-122466498D01*
X72530261Y-122466510D01*
X72499500Y-122621153D01*
X65300499Y-122621153D01*
X65269738Y-122466510D01*
X65269737Y-122466503D01*
X65269735Y-122466498D01*
X65209397Y-122320827D01*
X65209390Y-122320814D01*
X65121789Y-122189711D01*
X65121786Y-122189707D01*
X65010292Y-122078213D01*
X65010288Y-122078210D01*
X64879185Y-121990609D01*
X64879172Y-121990602D01*
X64733501Y-121930264D01*
X64733489Y-121930261D01*
X64578845Y-121899500D01*
X64578842Y-121899500D01*
X64421158Y-121899500D01*
X64421155Y-121899500D01*
X64266510Y-121930261D01*
X64266498Y-121930264D01*
X64120827Y-121990602D01*
X64120814Y-121990609D01*
X63989711Y-122078210D01*
X63989707Y-122078213D01*
X63878213Y-122189707D01*
X63878210Y-122189711D01*
X63790609Y-122320814D01*
X63790602Y-122320827D01*
X63730264Y-122466498D01*
X63730261Y-122466510D01*
X63699500Y-122621153D01*
X56800499Y-122621153D01*
X56769738Y-122466510D01*
X56769737Y-122466503D01*
X56769735Y-122466498D01*
X56709397Y-122320827D01*
X56709390Y-122320814D01*
X56621789Y-122189711D01*
X56621786Y-122189707D01*
X56510292Y-122078213D01*
X56510288Y-122078210D01*
X56379185Y-121990609D01*
X56379172Y-121990602D01*
X56233501Y-121930264D01*
X56233489Y-121930261D01*
X56078845Y-121899500D01*
X56078842Y-121899500D01*
X55921158Y-121899500D01*
X55921155Y-121899500D01*
X55766510Y-121930261D01*
X55766498Y-121930264D01*
X55620827Y-121990602D01*
X55620814Y-121990609D01*
X55489711Y-122078210D01*
X55489707Y-122078213D01*
X55378213Y-122189707D01*
X55378210Y-122189711D01*
X55290609Y-122320814D01*
X55290602Y-122320827D01*
X55230264Y-122466498D01*
X55230261Y-122466510D01*
X55199500Y-122621153D01*
X48700500Y-122621153D01*
X48700500Y-118721153D01*
X53499500Y-118721153D01*
X53499500Y-118878846D01*
X53530261Y-119033489D01*
X53530264Y-119033501D01*
X53590602Y-119179172D01*
X53590609Y-119179185D01*
X53678210Y-119310288D01*
X53678213Y-119310292D01*
X53789707Y-119421786D01*
X53789711Y-119421789D01*
X53920814Y-119509390D01*
X53920827Y-119509397D01*
X54066498Y-119569735D01*
X54066503Y-119569737D01*
X54221153Y-119600499D01*
X54221156Y-119600500D01*
X54221158Y-119600500D01*
X54378844Y-119600500D01*
X54378845Y-119600499D01*
X54533497Y-119569737D01*
X54679179Y-119509394D01*
X54810289Y-119421789D01*
X54921789Y-119310289D01*
X55009394Y-119179179D01*
X55069737Y-119033497D01*
X55100500Y-118878842D01*
X55100500Y-118721158D01*
X55100500Y-118721155D01*
X55100499Y-118721153D01*
X59599500Y-118721153D01*
X59599500Y-118878846D01*
X59630261Y-119033489D01*
X59630264Y-119033501D01*
X59690602Y-119179172D01*
X59690609Y-119179185D01*
X59778210Y-119310288D01*
X59778213Y-119310292D01*
X59889707Y-119421786D01*
X59889711Y-119421789D01*
X60020814Y-119509390D01*
X60020827Y-119509397D01*
X60166498Y-119569735D01*
X60166503Y-119569737D01*
X60321153Y-119600499D01*
X60321156Y-119600500D01*
X60321158Y-119600500D01*
X60478844Y-119600500D01*
X60478845Y-119600499D01*
X60633497Y-119569737D01*
X60779179Y-119509394D01*
X60910289Y-119421789D01*
X61021789Y-119310289D01*
X61109394Y-119179179D01*
X61169737Y-119033497D01*
X61200500Y-118878842D01*
X61200500Y-118721158D01*
X61200500Y-118721155D01*
X61200499Y-118721153D01*
X68099500Y-118721153D01*
X68099500Y-118878846D01*
X68130261Y-119033489D01*
X68130264Y-119033501D01*
X68190602Y-119179172D01*
X68190609Y-119179185D01*
X68278210Y-119310288D01*
X68278213Y-119310292D01*
X68389707Y-119421786D01*
X68389711Y-119421789D01*
X68520814Y-119509390D01*
X68520827Y-119509397D01*
X68666498Y-119569735D01*
X68666503Y-119569737D01*
X68821153Y-119600499D01*
X68821156Y-119600500D01*
X68821158Y-119600500D01*
X68978844Y-119600500D01*
X68978845Y-119600499D01*
X69133497Y-119569737D01*
X69279179Y-119509394D01*
X69410289Y-119421789D01*
X69521789Y-119310289D01*
X69609394Y-119179179D01*
X69669737Y-119033497D01*
X69700500Y-118878842D01*
X69700500Y-118721158D01*
X69700500Y-118721155D01*
X69700499Y-118721153D01*
X76899500Y-118721153D01*
X76899500Y-118878846D01*
X76930261Y-119033489D01*
X76930264Y-119033501D01*
X76990602Y-119179172D01*
X76990609Y-119179185D01*
X77078210Y-119310288D01*
X77078213Y-119310292D01*
X77189707Y-119421786D01*
X77189711Y-119421789D01*
X77320814Y-119509390D01*
X77320827Y-119509397D01*
X77466498Y-119569735D01*
X77466503Y-119569737D01*
X77621153Y-119600499D01*
X77621156Y-119600500D01*
X77621158Y-119600500D01*
X77778844Y-119600500D01*
X77778845Y-119600499D01*
X77933497Y-119569737D01*
X78079179Y-119509394D01*
X78210289Y-119421789D01*
X78321789Y-119310289D01*
X78409394Y-119179179D01*
X78469737Y-119033497D01*
X78500500Y-118878842D01*
X78500500Y-118721158D01*
X78500500Y-118721155D01*
X78500499Y-118721153D01*
X85799500Y-118721153D01*
X85799500Y-118878846D01*
X85830261Y-119033489D01*
X85830264Y-119033501D01*
X85890602Y-119179172D01*
X85890609Y-119179185D01*
X85978210Y-119310288D01*
X85978213Y-119310292D01*
X86089707Y-119421786D01*
X86089711Y-119421789D01*
X86220814Y-119509390D01*
X86220827Y-119509397D01*
X86366498Y-119569735D01*
X86366503Y-119569737D01*
X86521153Y-119600499D01*
X86521156Y-119600500D01*
X86521158Y-119600500D01*
X86678844Y-119600500D01*
X86678845Y-119600499D01*
X86833497Y-119569737D01*
X86979179Y-119509394D01*
X87110289Y-119421789D01*
X87221789Y-119310289D01*
X87309394Y-119179179D01*
X87369737Y-119033497D01*
X87400500Y-118878842D01*
X87400500Y-118721158D01*
X87400500Y-118721155D01*
X87400499Y-118721153D01*
X94799500Y-118721153D01*
X94799500Y-118878846D01*
X94830261Y-119033489D01*
X94830264Y-119033501D01*
X94890602Y-119179172D01*
X94890609Y-119179185D01*
X94978210Y-119310288D01*
X94978213Y-119310292D01*
X95089707Y-119421786D01*
X95089711Y-119421789D01*
X95220814Y-119509390D01*
X95220827Y-119509397D01*
X95366498Y-119569735D01*
X95366503Y-119569737D01*
X95521153Y-119600499D01*
X95521156Y-119600500D01*
X95521158Y-119600500D01*
X95678844Y-119600500D01*
X95678845Y-119600499D01*
X95833497Y-119569737D01*
X95979179Y-119509394D01*
X96110289Y-119421789D01*
X96221789Y-119310289D01*
X96309394Y-119179179D01*
X96369737Y-119033497D01*
X96400500Y-118878842D01*
X96400500Y-118721158D01*
X96400500Y-118721155D01*
X96400499Y-118721153D01*
X103499500Y-118721153D01*
X103499500Y-118878846D01*
X103530261Y-119033489D01*
X103530264Y-119033501D01*
X103590602Y-119179172D01*
X103590609Y-119179185D01*
X103678210Y-119310288D01*
X103678213Y-119310292D01*
X103789707Y-119421786D01*
X103789711Y-119421789D01*
X103920814Y-119509390D01*
X103920827Y-119509397D01*
X104066498Y-119569735D01*
X104066503Y-119569737D01*
X104221153Y-119600499D01*
X104221156Y-119600500D01*
X104221158Y-119600500D01*
X104378844Y-119600500D01*
X104378845Y-119600499D01*
X104533497Y-119569737D01*
X104679179Y-119509394D01*
X104810289Y-119421789D01*
X104921789Y-119310289D01*
X105009394Y-119179179D01*
X105069737Y-119033497D01*
X105100500Y-118878842D01*
X105100500Y-118721158D01*
X105100500Y-118721155D01*
X105100499Y-118721153D01*
X112299500Y-118721153D01*
X112299500Y-118878846D01*
X112330261Y-119033489D01*
X112330264Y-119033501D01*
X112390602Y-119179172D01*
X112390609Y-119179185D01*
X112478210Y-119310288D01*
X112478213Y-119310292D01*
X112589707Y-119421786D01*
X112589711Y-119421789D01*
X112720814Y-119509390D01*
X112720827Y-119509397D01*
X112866498Y-119569735D01*
X112866503Y-119569737D01*
X113021153Y-119600499D01*
X113021156Y-119600500D01*
X113021158Y-119600500D01*
X113178844Y-119600500D01*
X113178845Y-119600499D01*
X113333497Y-119569737D01*
X113479179Y-119509394D01*
X113610289Y-119421789D01*
X113721789Y-119310289D01*
X113809394Y-119179179D01*
X113869737Y-119033497D01*
X113900500Y-118878842D01*
X113900500Y-118721158D01*
X113900500Y-118721155D01*
X113900499Y-118721153D01*
X113869738Y-118566510D01*
X113869737Y-118566503D01*
X113869735Y-118566498D01*
X113809397Y-118420827D01*
X113809390Y-118420814D01*
X113721789Y-118289711D01*
X113721786Y-118289707D01*
X113610292Y-118178213D01*
X113610288Y-118178210D01*
X113479185Y-118090609D01*
X113479172Y-118090602D01*
X113333501Y-118030264D01*
X113333489Y-118030261D01*
X113178845Y-117999500D01*
X113178842Y-117999500D01*
X113021158Y-117999500D01*
X113021155Y-117999500D01*
X112866510Y-118030261D01*
X112866498Y-118030264D01*
X112720827Y-118090602D01*
X112720814Y-118090609D01*
X112589711Y-118178210D01*
X112589707Y-118178213D01*
X112478213Y-118289707D01*
X112478210Y-118289711D01*
X112390609Y-118420814D01*
X112390602Y-118420827D01*
X112330264Y-118566498D01*
X112330261Y-118566510D01*
X112299500Y-118721153D01*
X105100499Y-118721153D01*
X105069738Y-118566510D01*
X105069737Y-118566503D01*
X105069735Y-118566498D01*
X105009397Y-118420827D01*
X105009390Y-118420814D01*
X104921789Y-118289711D01*
X104921786Y-118289707D01*
X104810292Y-118178213D01*
X104810288Y-118178210D01*
X104679185Y-118090609D01*
X104679172Y-118090602D01*
X104533501Y-118030264D01*
X104533489Y-118030261D01*
X104378845Y-117999500D01*
X104378842Y-117999500D01*
X104221158Y-117999500D01*
X104221155Y-117999500D01*
X104066510Y-118030261D01*
X104066498Y-118030264D01*
X103920827Y-118090602D01*
X103920814Y-118090609D01*
X103789711Y-118178210D01*
X103789707Y-118178213D01*
X103678213Y-118289707D01*
X103678210Y-118289711D01*
X103590609Y-118420814D01*
X103590602Y-118420827D01*
X103530264Y-118566498D01*
X103530261Y-118566510D01*
X103499500Y-118721153D01*
X96400499Y-118721153D01*
X96369738Y-118566510D01*
X96369737Y-118566503D01*
X96369735Y-118566498D01*
X96309397Y-118420827D01*
X96309390Y-118420814D01*
X96221789Y-118289711D01*
X96221786Y-118289707D01*
X96110292Y-118178213D01*
X96110288Y-118178210D01*
X95979185Y-118090609D01*
X95979172Y-118090602D01*
X95833501Y-118030264D01*
X95833489Y-118030261D01*
X95678845Y-117999500D01*
X95678842Y-117999500D01*
X95521158Y-117999500D01*
X95521155Y-117999500D01*
X95366510Y-118030261D01*
X95366498Y-118030264D01*
X95220827Y-118090602D01*
X95220814Y-118090609D01*
X95089711Y-118178210D01*
X95089707Y-118178213D01*
X94978213Y-118289707D01*
X94978210Y-118289711D01*
X94890609Y-118420814D01*
X94890602Y-118420827D01*
X94830264Y-118566498D01*
X94830261Y-118566510D01*
X94799500Y-118721153D01*
X87400499Y-118721153D01*
X87369738Y-118566510D01*
X87369737Y-118566503D01*
X87369735Y-118566498D01*
X87309397Y-118420827D01*
X87309390Y-118420814D01*
X87221789Y-118289711D01*
X87221786Y-118289707D01*
X87110292Y-118178213D01*
X87110288Y-118178210D01*
X86979185Y-118090609D01*
X86979172Y-118090602D01*
X86833501Y-118030264D01*
X86833489Y-118030261D01*
X86678845Y-117999500D01*
X86678842Y-117999500D01*
X86521158Y-117999500D01*
X86521155Y-117999500D01*
X86366510Y-118030261D01*
X86366498Y-118030264D01*
X86220827Y-118090602D01*
X86220814Y-118090609D01*
X86089711Y-118178210D01*
X86089707Y-118178213D01*
X85978213Y-118289707D01*
X85978210Y-118289711D01*
X85890609Y-118420814D01*
X85890602Y-118420827D01*
X85830264Y-118566498D01*
X85830261Y-118566510D01*
X85799500Y-118721153D01*
X78500499Y-118721153D01*
X78469738Y-118566510D01*
X78469737Y-118566503D01*
X78469735Y-118566498D01*
X78409397Y-118420827D01*
X78409390Y-118420814D01*
X78321789Y-118289711D01*
X78321786Y-118289707D01*
X78210292Y-118178213D01*
X78210288Y-118178210D01*
X78079185Y-118090609D01*
X78079172Y-118090602D01*
X77933501Y-118030264D01*
X77933489Y-118030261D01*
X77778845Y-117999500D01*
X77778842Y-117999500D01*
X77621158Y-117999500D01*
X77621155Y-117999500D01*
X77466510Y-118030261D01*
X77466498Y-118030264D01*
X77320827Y-118090602D01*
X77320814Y-118090609D01*
X77189711Y-118178210D01*
X77189707Y-118178213D01*
X77078213Y-118289707D01*
X77078210Y-118289711D01*
X76990609Y-118420814D01*
X76990602Y-118420827D01*
X76930264Y-118566498D01*
X76930261Y-118566510D01*
X76899500Y-118721153D01*
X69700499Y-118721153D01*
X69669738Y-118566510D01*
X69669737Y-118566503D01*
X69669735Y-118566498D01*
X69609397Y-118420827D01*
X69609390Y-118420814D01*
X69521789Y-118289711D01*
X69521786Y-118289707D01*
X69410292Y-118178213D01*
X69410288Y-118178210D01*
X69279185Y-118090609D01*
X69279172Y-118090602D01*
X69133501Y-118030264D01*
X69133489Y-118030261D01*
X68978845Y-117999500D01*
X68978842Y-117999500D01*
X68821158Y-117999500D01*
X68821155Y-117999500D01*
X68666510Y-118030261D01*
X68666498Y-118030264D01*
X68520827Y-118090602D01*
X68520814Y-118090609D01*
X68389711Y-118178210D01*
X68389707Y-118178213D01*
X68278213Y-118289707D01*
X68278210Y-118289711D01*
X68190609Y-118420814D01*
X68190602Y-118420827D01*
X68130264Y-118566498D01*
X68130261Y-118566510D01*
X68099500Y-118721153D01*
X61200499Y-118721153D01*
X61169738Y-118566510D01*
X61169737Y-118566503D01*
X61169735Y-118566498D01*
X61109397Y-118420827D01*
X61109390Y-118420814D01*
X61021789Y-118289711D01*
X61021786Y-118289707D01*
X60910292Y-118178213D01*
X60910288Y-118178210D01*
X60779185Y-118090609D01*
X60779172Y-118090602D01*
X60633501Y-118030264D01*
X60633489Y-118030261D01*
X60478845Y-117999500D01*
X60478842Y-117999500D01*
X60321158Y-117999500D01*
X60321155Y-117999500D01*
X60166510Y-118030261D01*
X60166498Y-118030264D01*
X60020827Y-118090602D01*
X60020814Y-118090609D01*
X59889711Y-118178210D01*
X59889707Y-118178213D01*
X59778213Y-118289707D01*
X59778210Y-118289711D01*
X59690609Y-118420814D01*
X59690602Y-118420827D01*
X59630264Y-118566498D01*
X59630261Y-118566510D01*
X59599500Y-118721153D01*
X55100499Y-118721153D01*
X55069738Y-118566510D01*
X55069737Y-118566503D01*
X55069735Y-118566498D01*
X55009397Y-118420827D01*
X55009390Y-118420814D01*
X54921789Y-118289711D01*
X54921786Y-118289707D01*
X54810292Y-118178213D01*
X54810288Y-118178210D01*
X54679185Y-118090609D01*
X54679172Y-118090602D01*
X54533501Y-118030264D01*
X54533489Y-118030261D01*
X54378845Y-117999500D01*
X54378842Y-117999500D01*
X54221158Y-117999500D01*
X54221155Y-117999500D01*
X54066510Y-118030261D01*
X54066498Y-118030264D01*
X53920827Y-118090602D01*
X53920814Y-118090609D01*
X53789711Y-118178210D01*
X53789707Y-118178213D01*
X53678213Y-118289707D01*
X53678210Y-118289711D01*
X53590609Y-118420814D01*
X53590602Y-118420827D01*
X53530264Y-118566498D01*
X53530261Y-118566510D01*
X53499500Y-118721153D01*
X48700500Y-118721153D01*
X48700500Y-114821153D01*
X57699500Y-114821153D01*
X57699500Y-114978846D01*
X57730261Y-115133489D01*
X57730264Y-115133501D01*
X57790602Y-115279172D01*
X57790609Y-115279185D01*
X57878210Y-115410288D01*
X57878213Y-115410292D01*
X57989707Y-115521786D01*
X57989711Y-115521789D01*
X58120814Y-115609390D01*
X58120827Y-115609397D01*
X58266498Y-115669735D01*
X58266503Y-115669737D01*
X58421153Y-115700499D01*
X58421156Y-115700500D01*
X58421158Y-115700500D01*
X58578844Y-115700500D01*
X58578845Y-115700499D01*
X58733497Y-115669737D01*
X58879179Y-115609394D01*
X59010289Y-115521789D01*
X59121789Y-115410289D01*
X59209394Y-115279179D01*
X59269737Y-115133497D01*
X59300500Y-114978842D01*
X59300500Y-114821158D01*
X59300500Y-114821155D01*
X59300499Y-114821153D01*
X66799500Y-114821153D01*
X66799500Y-114978846D01*
X66830261Y-115133489D01*
X66830264Y-115133501D01*
X66890602Y-115279172D01*
X66890609Y-115279185D01*
X66978210Y-115410288D01*
X66978213Y-115410292D01*
X67089707Y-115521786D01*
X67089711Y-115521789D01*
X67220814Y-115609390D01*
X67220827Y-115609397D01*
X67366498Y-115669735D01*
X67366503Y-115669737D01*
X67521153Y-115700499D01*
X67521156Y-115700500D01*
X67521158Y-115700500D01*
X67678844Y-115700500D01*
X67678845Y-115700499D01*
X67833497Y-115669737D01*
X67979179Y-115609394D01*
X68110289Y-115521789D01*
X68221789Y-115410289D01*
X68309394Y-115279179D01*
X68369737Y-115133497D01*
X68400500Y-114978842D01*
X68400500Y-114821158D01*
X68400500Y-114821155D01*
X68400499Y-114821153D01*
X75599500Y-114821153D01*
X75599500Y-114978846D01*
X75630261Y-115133489D01*
X75630264Y-115133501D01*
X75690602Y-115279172D01*
X75690609Y-115279185D01*
X75778210Y-115410288D01*
X75778213Y-115410292D01*
X75889707Y-115521786D01*
X75889711Y-115521789D01*
X76020814Y-115609390D01*
X76020827Y-115609397D01*
X76166498Y-115669735D01*
X76166503Y-115669737D01*
X76321153Y-115700499D01*
X76321156Y-115700500D01*
X76321158Y-115700500D01*
X76478844Y-115700500D01*
X76478845Y-115700499D01*
X76633497Y-115669737D01*
X76779179Y-115609394D01*
X76910289Y-115521789D01*
X77021789Y-115410289D01*
X77109394Y-115279179D01*
X77169737Y-115133497D01*
X77200500Y-114978842D01*
X77200500Y-114821158D01*
X77200500Y-114821155D01*
X77200499Y-114821153D01*
X84399500Y-114821153D01*
X84399500Y-114978846D01*
X84430261Y-115133489D01*
X84430264Y-115133501D01*
X84490602Y-115279172D01*
X84490609Y-115279185D01*
X84578210Y-115410288D01*
X84578213Y-115410292D01*
X84689707Y-115521786D01*
X84689711Y-115521789D01*
X84820814Y-115609390D01*
X84820827Y-115609397D01*
X84966498Y-115669735D01*
X84966503Y-115669737D01*
X85121153Y-115700499D01*
X85121156Y-115700500D01*
X85121158Y-115700500D01*
X85278844Y-115700500D01*
X85278845Y-115700499D01*
X85433497Y-115669737D01*
X85579179Y-115609394D01*
X85710289Y-115521789D01*
X85821789Y-115410289D01*
X85909394Y-115279179D01*
X85969737Y-115133497D01*
X86000500Y-114978842D01*
X86000500Y-114821158D01*
X86000500Y-114821155D01*
X86000499Y-114821153D01*
X93199500Y-114821153D01*
X93199500Y-114978846D01*
X93230261Y-115133489D01*
X93230264Y-115133501D01*
X93290602Y-115279172D01*
X93290609Y-115279185D01*
X93378210Y-115410288D01*
X93378213Y-115410292D01*
X93489707Y-115521786D01*
X93489711Y-115521789D01*
X93620814Y-115609390D01*
X93620827Y-115609397D01*
X93766498Y-115669735D01*
X93766503Y-115669737D01*
X93921153Y-115700499D01*
X93921156Y-115700500D01*
X93921158Y-115700500D01*
X94078844Y-115700500D01*
X94078845Y-115700499D01*
X94233497Y-115669737D01*
X94379179Y-115609394D01*
X94510289Y-115521789D01*
X94621789Y-115410289D01*
X94709394Y-115279179D01*
X94769737Y-115133497D01*
X94800500Y-114978842D01*
X94800500Y-114821158D01*
X94800500Y-114821155D01*
X94800499Y-114821153D01*
X101899500Y-114821153D01*
X101899500Y-114978846D01*
X101930261Y-115133489D01*
X101930264Y-115133501D01*
X101990602Y-115279172D01*
X101990609Y-115279185D01*
X102078210Y-115410288D01*
X102078213Y-115410292D01*
X102189707Y-115521786D01*
X102189711Y-115521789D01*
X102320814Y-115609390D01*
X102320827Y-115609397D01*
X102466498Y-115669735D01*
X102466503Y-115669737D01*
X102621153Y-115700499D01*
X102621156Y-115700500D01*
X102621158Y-115700500D01*
X102778844Y-115700500D01*
X102778845Y-115700499D01*
X102933497Y-115669737D01*
X103079179Y-115609394D01*
X103210289Y-115521789D01*
X103321789Y-115410289D01*
X103409394Y-115279179D01*
X103469737Y-115133497D01*
X103500500Y-114978842D01*
X103500500Y-114821158D01*
X103500500Y-114821155D01*
X103500499Y-114821153D01*
X110599500Y-114821153D01*
X110599500Y-114978846D01*
X110630261Y-115133489D01*
X110630264Y-115133501D01*
X110690602Y-115279172D01*
X110690609Y-115279185D01*
X110778210Y-115410288D01*
X110778213Y-115410292D01*
X110889707Y-115521786D01*
X110889711Y-115521789D01*
X111020814Y-115609390D01*
X111020827Y-115609397D01*
X111166498Y-115669735D01*
X111166503Y-115669737D01*
X111321153Y-115700499D01*
X111321156Y-115700500D01*
X111321158Y-115700500D01*
X111478844Y-115700500D01*
X111478845Y-115700499D01*
X111633497Y-115669737D01*
X111779179Y-115609394D01*
X111910289Y-115521789D01*
X112010925Y-115421153D01*
X116999500Y-115421153D01*
X116999500Y-115578846D01*
X117030261Y-115733489D01*
X117030264Y-115733501D01*
X117090602Y-115879172D01*
X117090609Y-115879185D01*
X117178210Y-116010288D01*
X117178213Y-116010292D01*
X117289707Y-116121786D01*
X117289711Y-116121789D01*
X117420814Y-116209390D01*
X117420827Y-116209397D01*
X117566498Y-116269735D01*
X117566503Y-116269737D01*
X117721153Y-116300499D01*
X117721156Y-116300500D01*
X117721158Y-116300500D01*
X117878844Y-116300500D01*
X117878845Y-116300499D01*
X118033497Y-116269737D01*
X118179179Y-116209394D01*
X118310289Y-116121789D01*
X118421789Y-116010289D01*
X118509394Y-115879179D01*
X118569737Y-115733497D01*
X118600500Y-115578842D01*
X118600500Y-115421158D01*
X118600500Y-115421155D01*
X118600499Y-115421153D01*
X118585585Y-115346175D01*
X118569737Y-115266503D01*
X118569735Y-115266498D01*
X118509397Y-115120827D01*
X118509390Y-115120814D01*
X118421789Y-114989711D01*
X118421786Y-114989707D01*
X118310292Y-114878213D01*
X118310288Y-114878210D01*
X118179185Y-114790609D01*
X118179172Y-114790602D01*
X118033501Y-114730264D01*
X118033489Y-114730261D01*
X117878845Y-114699500D01*
X117878842Y-114699500D01*
X117721158Y-114699500D01*
X117721155Y-114699500D01*
X117566510Y-114730261D01*
X117566498Y-114730264D01*
X117420827Y-114790602D01*
X117420814Y-114790609D01*
X117289711Y-114878210D01*
X117289707Y-114878213D01*
X117178213Y-114989707D01*
X117178210Y-114989711D01*
X117090609Y-115120814D01*
X117090602Y-115120827D01*
X117030264Y-115266498D01*
X117030261Y-115266510D01*
X116999500Y-115421153D01*
X112010925Y-115421153D01*
X112021789Y-115410289D01*
X112109394Y-115279179D01*
X112169737Y-115133497D01*
X112200500Y-114978842D01*
X112200500Y-114821158D01*
X112200500Y-114821155D01*
X112200499Y-114821153D01*
X112182419Y-114730261D01*
X112169737Y-114666503D01*
X112169735Y-114666498D01*
X112109397Y-114520827D01*
X112109390Y-114520814D01*
X112021789Y-114389711D01*
X112021786Y-114389707D01*
X111910292Y-114278213D01*
X111910288Y-114278210D01*
X111779185Y-114190609D01*
X111779172Y-114190602D01*
X111633501Y-114130264D01*
X111633489Y-114130261D01*
X111478845Y-114099500D01*
X111478842Y-114099500D01*
X111321158Y-114099500D01*
X111321155Y-114099500D01*
X111166510Y-114130261D01*
X111166498Y-114130264D01*
X111020827Y-114190602D01*
X111020814Y-114190609D01*
X110889711Y-114278210D01*
X110889707Y-114278213D01*
X110778213Y-114389707D01*
X110778210Y-114389711D01*
X110690609Y-114520814D01*
X110690602Y-114520827D01*
X110630264Y-114666498D01*
X110630261Y-114666510D01*
X110599500Y-114821153D01*
X103500499Y-114821153D01*
X103482419Y-114730261D01*
X103469737Y-114666503D01*
X103469735Y-114666498D01*
X103409397Y-114520827D01*
X103409390Y-114520814D01*
X103321789Y-114389711D01*
X103321786Y-114389707D01*
X103210292Y-114278213D01*
X103210288Y-114278210D01*
X103079185Y-114190609D01*
X103079172Y-114190602D01*
X102933501Y-114130264D01*
X102933489Y-114130261D01*
X102778845Y-114099500D01*
X102778842Y-114099500D01*
X102621158Y-114099500D01*
X102621155Y-114099500D01*
X102466510Y-114130261D01*
X102466498Y-114130264D01*
X102320827Y-114190602D01*
X102320814Y-114190609D01*
X102189711Y-114278210D01*
X102189707Y-114278213D01*
X102078213Y-114389707D01*
X102078210Y-114389711D01*
X101990609Y-114520814D01*
X101990602Y-114520827D01*
X101930264Y-114666498D01*
X101930261Y-114666510D01*
X101899500Y-114821153D01*
X94800499Y-114821153D01*
X94782419Y-114730261D01*
X94769737Y-114666503D01*
X94769735Y-114666498D01*
X94709397Y-114520827D01*
X94709390Y-114520814D01*
X94621789Y-114389711D01*
X94621786Y-114389707D01*
X94510292Y-114278213D01*
X94510288Y-114278210D01*
X94379185Y-114190609D01*
X94379172Y-114190602D01*
X94233501Y-114130264D01*
X94233489Y-114130261D01*
X94078845Y-114099500D01*
X94078842Y-114099500D01*
X93921158Y-114099500D01*
X93921155Y-114099500D01*
X93766510Y-114130261D01*
X93766498Y-114130264D01*
X93620827Y-114190602D01*
X93620814Y-114190609D01*
X93489711Y-114278210D01*
X93489707Y-114278213D01*
X93378213Y-114389707D01*
X93378210Y-114389711D01*
X93290609Y-114520814D01*
X93290602Y-114520827D01*
X93230264Y-114666498D01*
X93230261Y-114666510D01*
X93199500Y-114821153D01*
X86000499Y-114821153D01*
X85982419Y-114730261D01*
X85969737Y-114666503D01*
X85969735Y-114666498D01*
X85909397Y-114520827D01*
X85909390Y-114520814D01*
X85821789Y-114389711D01*
X85821786Y-114389707D01*
X85710292Y-114278213D01*
X85710288Y-114278210D01*
X85579185Y-114190609D01*
X85579172Y-114190602D01*
X85433501Y-114130264D01*
X85433489Y-114130261D01*
X85278845Y-114099500D01*
X85278842Y-114099500D01*
X85121158Y-114099500D01*
X85121155Y-114099500D01*
X84966510Y-114130261D01*
X84966498Y-114130264D01*
X84820827Y-114190602D01*
X84820814Y-114190609D01*
X84689711Y-114278210D01*
X84689707Y-114278213D01*
X84578213Y-114389707D01*
X84578210Y-114389711D01*
X84490609Y-114520814D01*
X84490602Y-114520827D01*
X84430264Y-114666498D01*
X84430261Y-114666510D01*
X84399500Y-114821153D01*
X77200499Y-114821153D01*
X77182419Y-114730261D01*
X77169737Y-114666503D01*
X77169735Y-114666498D01*
X77109397Y-114520827D01*
X77109390Y-114520814D01*
X77021789Y-114389711D01*
X77021786Y-114389707D01*
X76910292Y-114278213D01*
X76910288Y-114278210D01*
X76779185Y-114190609D01*
X76779172Y-114190602D01*
X76633501Y-114130264D01*
X76633489Y-114130261D01*
X76478845Y-114099500D01*
X76478842Y-114099500D01*
X76321158Y-114099500D01*
X76321155Y-114099500D01*
X76166510Y-114130261D01*
X76166498Y-114130264D01*
X76020827Y-114190602D01*
X76020814Y-114190609D01*
X75889711Y-114278210D01*
X75889707Y-114278213D01*
X75778213Y-114389707D01*
X75778210Y-114389711D01*
X75690609Y-114520814D01*
X75690602Y-114520827D01*
X75630264Y-114666498D01*
X75630261Y-114666510D01*
X75599500Y-114821153D01*
X68400499Y-114821153D01*
X68382419Y-114730261D01*
X68369737Y-114666503D01*
X68369735Y-114666498D01*
X68309397Y-114520827D01*
X68309390Y-114520814D01*
X68221789Y-114389711D01*
X68221786Y-114389707D01*
X68110292Y-114278213D01*
X68110288Y-114278210D01*
X67979185Y-114190609D01*
X67979172Y-114190602D01*
X67833501Y-114130264D01*
X67833489Y-114130261D01*
X67678845Y-114099500D01*
X67678842Y-114099500D01*
X67521158Y-114099500D01*
X67521155Y-114099500D01*
X67366510Y-114130261D01*
X67366498Y-114130264D01*
X67220827Y-114190602D01*
X67220814Y-114190609D01*
X67089711Y-114278210D01*
X67089707Y-114278213D01*
X66978213Y-114389707D01*
X66978210Y-114389711D01*
X66890609Y-114520814D01*
X66890602Y-114520827D01*
X66830264Y-114666498D01*
X66830261Y-114666510D01*
X66799500Y-114821153D01*
X59300499Y-114821153D01*
X59282419Y-114730261D01*
X59269737Y-114666503D01*
X59269735Y-114666498D01*
X59209397Y-114520827D01*
X59209390Y-114520814D01*
X59121789Y-114389711D01*
X59121786Y-114389707D01*
X59010292Y-114278213D01*
X59010288Y-114278210D01*
X58879185Y-114190609D01*
X58879172Y-114190602D01*
X58733501Y-114130264D01*
X58733489Y-114130261D01*
X58578845Y-114099500D01*
X58578842Y-114099500D01*
X58421158Y-114099500D01*
X58421155Y-114099500D01*
X58266510Y-114130261D01*
X58266498Y-114130264D01*
X58120827Y-114190602D01*
X58120814Y-114190609D01*
X57989711Y-114278210D01*
X57989707Y-114278213D01*
X57878213Y-114389707D01*
X57878210Y-114389711D01*
X57790609Y-114520814D01*
X57790602Y-114520827D01*
X57730264Y-114666498D01*
X57730261Y-114666510D01*
X57699500Y-114821153D01*
X48700500Y-114821153D01*
X48700500Y-112621153D01*
X54399500Y-112621153D01*
X54399500Y-112778846D01*
X54430261Y-112933489D01*
X54430264Y-112933501D01*
X54490602Y-113079172D01*
X54490609Y-113079185D01*
X54578210Y-113210288D01*
X54578213Y-113210292D01*
X54689707Y-113321786D01*
X54689711Y-113321789D01*
X54820814Y-113409390D01*
X54820827Y-113409397D01*
X54911101Y-113446789D01*
X54966503Y-113469737D01*
X55121153Y-113500499D01*
X55121156Y-113500500D01*
X55121158Y-113500500D01*
X55278844Y-113500500D01*
X55278845Y-113500499D01*
X55433497Y-113469737D01*
X55579179Y-113409394D01*
X55710289Y-113321789D01*
X55821789Y-113210289D01*
X55909394Y-113079179D01*
X55969737Y-112933497D01*
X56000500Y-112778842D01*
X56000500Y-112746153D01*
X63362000Y-112746153D01*
X63362000Y-112903846D01*
X63392761Y-113058489D01*
X63392764Y-113058501D01*
X63453102Y-113204172D01*
X63453109Y-113204185D01*
X63540710Y-113335288D01*
X63540713Y-113335292D01*
X63652207Y-113446786D01*
X63652211Y-113446789D01*
X63783314Y-113534390D01*
X63783327Y-113534397D01*
X63928998Y-113594735D01*
X63929003Y-113594737D01*
X64083653Y-113625499D01*
X64083656Y-113625500D01*
X64083658Y-113625500D01*
X64241344Y-113625500D01*
X64241345Y-113625499D01*
X64395997Y-113594737D01*
X64541679Y-113534394D01*
X64672789Y-113446789D01*
X64784289Y-113335289D01*
X64871894Y-113204179D01*
X64932237Y-113058497D01*
X64963000Y-112903842D01*
X64963000Y-112746158D01*
X64963000Y-112746155D01*
X64962999Y-112746153D01*
X72162000Y-112746153D01*
X72162000Y-112903846D01*
X72192761Y-113058489D01*
X72192764Y-113058501D01*
X72253102Y-113204172D01*
X72253109Y-113204185D01*
X72340710Y-113335288D01*
X72340713Y-113335292D01*
X72452207Y-113446786D01*
X72452211Y-113446789D01*
X72583314Y-113534390D01*
X72583327Y-113534397D01*
X72728998Y-113594735D01*
X72729003Y-113594737D01*
X72883653Y-113625499D01*
X72883656Y-113625500D01*
X72883658Y-113625500D01*
X73041344Y-113625500D01*
X73041345Y-113625499D01*
X73195997Y-113594737D01*
X73341679Y-113534394D01*
X73472789Y-113446789D01*
X73584289Y-113335289D01*
X73671894Y-113204179D01*
X73732237Y-113058497D01*
X73763000Y-112903842D01*
X73763000Y-112746158D01*
X73763000Y-112746155D01*
X73762999Y-112746153D01*
X80962000Y-112746153D01*
X80962000Y-112903846D01*
X80992761Y-113058489D01*
X80992764Y-113058501D01*
X81053102Y-113204172D01*
X81053109Y-113204185D01*
X81140710Y-113335288D01*
X81140713Y-113335292D01*
X81252207Y-113446786D01*
X81252211Y-113446789D01*
X81383314Y-113534390D01*
X81383327Y-113534397D01*
X81528998Y-113594735D01*
X81529003Y-113594737D01*
X81683653Y-113625499D01*
X81683656Y-113625500D01*
X81683658Y-113625500D01*
X81841344Y-113625500D01*
X81841345Y-113625499D01*
X81995997Y-113594737D01*
X82141679Y-113534394D01*
X82272789Y-113446789D01*
X82384289Y-113335289D01*
X82471894Y-113204179D01*
X82532237Y-113058497D01*
X82563000Y-112903842D01*
X82563000Y-112746158D01*
X82563000Y-112746155D01*
X82562999Y-112746153D01*
X89762000Y-112746153D01*
X89762000Y-112903846D01*
X89792761Y-113058489D01*
X89792764Y-113058501D01*
X89853102Y-113204172D01*
X89853109Y-113204185D01*
X89940710Y-113335288D01*
X89940713Y-113335292D01*
X90052207Y-113446786D01*
X90052211Y-113446789D01*
X90183314Y-113534390D01*
X90183327Y-113534397D01*
X90328998Y-113594735D01*
X90329003Y-113594737D01*
X90483653Y-113625499D01*
X90483656Y-113625500D01*
X90483658Y-113625500D01*
X90641344Y-113625500D01*
X90641345Y-113625499D01*
X90795997Y-113594737D01*
X90941679Y-113534394D01*
X91072789Y-113446789D01*
X91184289Y-113335289D01*
X91271894Y-113204179D01*
X91332237Y-113058497D01*
X91363000Y-112903842D01*
X91363000Y-112746158D01*
X91363000Y-112746155D01*
X91362999Y-112746153D01*
X98562000Y-112746153D01*
X98562000Y-112903846D01*
X98592761Y-113058489D01*
X98592764Y-113058501D01*
X98653102Y-113204172D01*
X98653109Y-113204185D01*
X98740710Y-113335288D01*
X98740713Y-113335292D01*
X98852207Y-113446786D01*
X98852211Y-113446789D01*
X98983314Y-113534390D01*
X98983327Y-113534397D01*
X99128998Y-113594735D01*
X99129003Y-113594737D01*
X99283653Y-113625499D01*
X99283656Y-113625500D01*
X99283658Y-113625500D01*
X99441344Y-113625500D01*
X99441345Y-113625499D01*
X99595997Y-113594737D01*
X99741679Y-113534394D01*
X99872789Y-113446789D01*
X99984289Y-113335289D01*
X100071894Y-113204179D01*
X100132237Y-113058497D01*
X100163000Y-112903842D01*
X100163000Y-112746158D01*
X100163000Y-112746155D01*
X100162999Y-112746153D01*
X107362000Y-112746153D01*
X107362000Y-112903846D01*
X107392761Y-113058489D01*
X107392764Y-113058501D01*
X107453102Y-113204172D01*
X107453109Y-113204185D01*
X107540710Y-113335288D01*
X107540713Y-113335292D01*
X107652207Y-113446786D01*
X107652211Y-113446789D01*
X107783314Y-113534390D01*
X107783327Y-113534397D01*
X107928998Y-113594735D01*
X107929003Y-113594737D01*
X108083653Y-113625499D01*
X108083656Y-113625500D01*
X108083658Y-113625500D01*
X108241344Y-113625500D01*
X108241345Y-113625499D01*
X108395997Y-113594737D01*
X108541679Y-113534394D01*
X108672789Y-113446789D01*
X108784289Y-113335289D01*
X108871894Y-113204179D01*
X108932237Y-113058497D01*
X108963000Y-112903842D01*
X108963000Y-112746158D01*
X108963000Y-112746155D01*
X108962999Y-112746153D01*
X116162000Y-112746153D01*
X116162000Y-112903846D01*
X116192761Y-113058489D01*
X116192764Y-113058501D01*
X116253102Y-113204172D01*
X116253109Y-113204185D01*
X116340710Y-113335288D01*
X116340713Y-113335292D01*
X116452207Y-113446786D01*
X116452211Y-113446789D01*
X116583314Y-113534390D01*
X116583327Y-113534397D01*
X116728998Y-113594735D01*
X116729003Y-113594737D01*
X116883653Y-113625499D01*
X116883656Y-113625500D01*
X116883658Y-113625500D01*
X117041344Y-113625500D01*
X117041345Y-113625499D01*
X117195997Y-113594737D01*
X117341679Y-113534394D01*
X117472789Y-113446789D01*
X117584289Y-113335289D01*
X117671894Y-113204179D01*
X117732237Y-113058497D01*
X117763000Y-112903842D01*
X117763000Y-112746158D01*
X117763000Y-112746155D01*
X117762999Y-112746153D01*
X117732237Y-112591503D01*
X117680459Y-112466498D01*
X117671897Y-112445827D01*
X117671890Y-112445814D01*
X117584289Y-112314711D01*
X117584286Y-112314707D01*
X117472792Y-112203213D01*
X117472788Y-112203210D01*
X117341685Y-112115609D01*
X117341672Y-112115602D01*
X117196001Y-112055264D01*
X117195989Y-112055261D01*
X117041345Y-112024500D01*
X117041342Y-112024500D01*
X116883658Y-112024500D01*
X116883655Y-112024500D01*
X116729010Y-112055261D01*
X116728998Y-112055264D01*
X116583327Y-112115602D01*
X116583314Y-112115609D01*
X116452211Y-112203210D01*
X116452207Y-112203213D01*
X116340713Y-112314707D01*
X116340710Y-112314711D01*
X116253109Y-112445814D01*
X116253102Y-112445827D01*
X116192764Y-112591498D01*
X116192761Y-112591510D01*
X116162000Y-112746153D01*
X108962999Y-112746153D01*
X108932237Y-112591503D01*
X108880459Y-112466498D01*
X108871897Y-112445827D01*
X108871890Y-112445814D01*
X108784289Y-112314711D01*
X108784286Y-112314707D01*
X108672792Y-112203213D01*
X108672788Y-112203210D01*
X108541685Y-112115609D01*
X108541672Y-112115602D01*
X108396001Y-112055264D01*
X108395989Y-112055261D01*
X108241345Y-112024500D01*
X108241342Y-112024500D01*
X108083658Y-112024500D01*
X108083655Y-112024500D01*
X107929010Y-112055261D01*
X107928998Y-112055264D01*
X107783327Y-112115602D01*
X107783314Y-112115609D01*
X107652211Y-112203210D01*
X107652207Y-112203213D01*
X107540713Y-112314707D01*
X107540710Y-112314711D01*
X107453109Y-112445814D01*
X107453102Y-112445827D01*
X107392764Y-112591498D01*
X107392761Y-112591510D01*
X107362000Y-112746153D01*
X100162999Y-112746153D01*
X100132237Y-112591503D01*
X100080459Y-112466498D01*
X100071897Y-112445827D01*
X100071890Y-112445814D01*
X99984289Y-112314711D01*
X99984286Y-112314707D01*
X99872792Y-112203213D01*
X99872788Y-112203210D01*
X99741685Y-112115609D01*
X99741672Y-112115602D01*
X99596001Y-112055264D01*
X99595989Y-112055261D01*
X99441345Y-112024500D01*
X99441342Y-112024500D01*
X99283658Y-112024500D01*
X99283655Y-112024500D01*
X99129010Y-112055261D01*
X99128998Y-112055264D01*
X98983327Y-112115602D01*
X98983314Y-112115609D01*
X98852211Y-112203210D01*
X98852207Y-112203213D01*
X98740713Y-112314707D01*
X98740710Y-112314711D01*
X98653109Y-112445814D01*
X98653102Y-112445827D01*
X98592764Y-112591498D01*
X98592761Y-112591510D01*
X98562000Y-112746153D01*
X91362999Y-112746153D01*
X91332237Y-112591503D01*
X91280459Y-112466498D01*
X91271897Y-112445827D01*
X91271890Y-112445814D01*
X91184289Y-112314711D01*
X91184286Y-112314707D01*
X91072792Y-112203213D01*
X91072788Y-112203210D01*
X90941685Y-112115609D01*
X90941672Y-112115602D01*
X90796001Y-112055264D01*
X90795989Y-112055261D01*
X90641345Y-112024500D01*
X90641342Y-112024500D01*
X90483658Y-112024500D01*
X90483655Y-112024500D01*
X90329010Y-112055261D01*
X90328998Y-112055264D01*
X90183327Y-112115602D01*
X90183314Y-112115609D01*
X90052211Y-112203210D01*
X90052207Y-112203213D01*
X89940713Y-112314707D01*
X89940710Y-112314711D01*
X89853109Y-112445814D01*
X89853102Y-112445827D01*
X89792764Y-112591498D01*
X89792761Y-112591510D01*
X89762000Y-112746153D01*
X82562999Y-112746153D01*
X82532237Y-112591503D01*
X82480459Y-112466498D01*
X82471897Y-112445827D01*
X82471890Y-112445814D01*
X82384289Y-112314711D01*
X82384286Y-112314707D01*
X82272792Y-112203213D01*
X82272788Y-112203210D01*
X82141685Y-112115609D01*
X82141672Y-112115602D01*
X81996001Y-112055264D01*
X81995989Y-112055261D01*
X81841345Y-112024500D01*
X81841342Y-112024500D01*
X81683658Y-112024500D01*
X81683655Y-112024500D01*
X81529010Y-112055261D01*
X81528998Y-112055264D01*
X81383327Y-112115602D01*
X81383314Y-112115609D01*
X81252211Y-112203210D01*
X81252207Y-112203213D01*
X81140713Y-112314707D01*
X81140710Y-112314711D01*
X81053109Y-112445814D01*
X81053102Y-112445827D01*
X80992764Y-112591498D01*
X80992761Y-112591510D01*
X80962000Y-112746153D01*
X73762999Y-112746153D01*
X73732237Y-112591503D01*
X73680459Y-112466498D01*
X73671897Y-112445827D01*
X73671890Y-112445814D01*
X73584289Y-112314711D01*
X73584286Y-112314707D01*
X73472792Y-112203213D01*
X73472788Y-112203210D01*
X73341685Y-112115609D01*
X73341672Y-112115602D01*
X73196001Y-112055264D01*
X73195989Y-112055261D01*
X73041345Y-112024500D01*
X73041342Y-112024500D01*
X72883658Y-112024500D01*
X72883655Y-112024500D01*
X72729010Y-112055261D01*
X72728998Y-112055264D01*
X72583327Y-112115602D01*
X72583314Y-112115609D01*
X72452211Y-112203210D01*
X72452207Y-112203213D01*
X72340713Y-112314707D01*
X72340710Y-112314711D01*
X72253109Y-112445814D01*
X72253102Y-112445827D01*
X72192764Y-112591498D01*
X72192761Y-112591510D01*
X72162000Y-112746153D01*
X64962999Y-112746153D01*
X64932237Y-112591503D01*
X64880459Y-112466498D01*
X64871897Y-112445827D01*
X64871890Y-112445814D01*
X64784289Y-112314711D01*
X64784286Y-112314707D01*
X64672792Y-112203213D01*
X64672788Y-112203210D01*
X64541685Y-112115609D01*
X64541672Y-112115602D01*
X64396001Y-112055264D01*
X64395989Y-112055261D01*
X64241345Y-112024500D01*
X64241342Y-112024500D01*
X64083658Y-112024500D01*
X64083655Y-112024500D01*
X63929010Y-112055261D01*
X63928998Y-112055264D01*
X63783327Y-112115602D01*
X63783314Y-112115609D01*
X63652211Y-112203210D01*
X63652207Y-112203213D01*
X63540713Y-112314707D01*
X63540710Y-112314711D01*
X63453109Y-112445814D01*
X63453102Y-112445827D01*
X63392764Y-112591498D01*
X63392761Y-112591510D01*
X63362000Y-112746153D01*
X56000500Y-112746153D01*
X56000500Y-112621158D01*
X56000500Y-112621155D01*
X56000499Y-112621153D01*
X55969738Y-112466510D01*
X55969737Y-112466503D01*
X55961170Y-112445821D01*
X55909397Y-112320827D01*
X55909390Y-112320814D01*
X55821789Y-112189711D01*
X55821786Y-112189707D01*
X55710292Y-112078213D01*
X55710288Y-112078210D01*
X55579185Y-111990609D01*
X55579172Y-111990602D01*
X55433501Y-111930264D01*
X55433489Y-111930261D01*
X55278845Y-111899500D01*
X55278842Y-111899500D01*
X55121158Y-111899500D01*
X55121155Y-111899500D01*
X54966510Y-111930261D01*
X54966498Y-111930264D01*
X54820827Y-111990602D01*
X54820814Y-111990609D01*
X54689711Y-112078210D01*
X54689707Y-112078213D01*
X54578213Y-112189707D01*
X54578210Y-112189711D01*
X54490609Y-112320814D01*
X54490602Y-112320827D01*
X54430264Y-112466498D01*
X54430261Y-112466510D01*
X54399500Y-112621153D01*
X48700500Y-112621153D01*
X48700500Y-109921153D01*
X51499500Y-109921153D01*
X51499500Y-110078846D01*
X51530261Y-110233489D01*
X51530264Y-110233501D01*
X51590602Y-110379172D01*
X51590609Y-110379185D01*
X51678210Y-110510288D01*
X51678213Y-110510292D01*
X51789707Y-110621786D01*
X51789711Y-110621789D01*
X51920814Y-110709390D01*
X51920827Y-110709397D01*
X52066498Y-110769735D01*
X52066503Y-110769737D01*
X52221153Y-110800499D01*
X52221156Y-110800500D01*
X52221158Y-110800500D01*
X52378844Y-110800500D01*
X52378845Y-110800499D01*
X52533497Y-110769737D01*
X52679179Y-110709394D01*
X52810289Y-110621789D01*
X52921789Y-110510289D01*
X53009394Y-110379179D01*
X53069737Y-110233497D01*
X53100500Y-110078842D01*
X53100500Y-109921158D01*
X53100500Y-109921155D01*
X53100499Y-109921153D01*
X60299500Y-109921153D01*
X60299500Y-110078846D01*
X60330261Y-110233489D01*
X60330264Y-110233501D01*
X60390602Y-110379172D01*
X60390609Y-110379185D01*
X60478210Y-110510288D01*
X60478213Y-110510292D01*
X60589707Y-110621786D01*
X60589711Y-110621789D01*
X60720814Y-110709390D01*
X60720827Y-110709397D01*
X60866498Y-110769735D01*
X60866503Y-110769737D01*
X61021153Y-110800499D01*
X61021156Y-110800500D01*
X61021158Y-110800500D01*
X61178844Y-110800500D01*
X61178845Y-110800499D01*
X61333497Y-110769737D01*
X61479179Y-110709394D01*
X61610289Y-110621789D01*
X61721789Y-110510289D01*
X61809394Y-110379179D01*
X61869737Y-110233497D01*
X61900500Y-110078842D01*
X61900500Y-110021153D01*
X69499500Y-110021153D01*
X69499500Y-110178846D01*
X69530261Y-110333489D01*
X69530264Y-110333501D01*
X69590602Y-110479172D01*
X69590609Y-110479185D01*
X69678210Y-110610288D01*
X69678213Y-110610292D01*
X69789707Y-110721786D01*
X69789711Y-110721789D01*
X69920814Y-110809390D01*
X69920827Y-110809397D01*
X70066498Y-110869735D01*
X70066503Y-110869737D01*
X70221153Y-110900499D01*
X70221156Y-110900500D01*
X70221158Y-110900500D01*
X70378844Y-110900500D01*
X70378845Y-110900499D01*
X70533497Y-110869737D01*
X70679179Y-110809394D01*
X70810289Y-110721789D01*
X70921789Y-110610289D01*
X71009394Y-110479179D01*
X71069737Y-110333497D01*
X71100500Y-110178842D01*
X71100500Y-110021158D01*
X71100500Y-110021155D01*
X71084209Y-109939258D01*
X71084209Y-109939257D01*
X71080608Y-109921153D01*
X78099500Y-109921153D01*
X78099500Y-110078846D01*
X78130261Y-110233489D01*
X78130264Y-110233501D01*
X78190602Y-110379172D01*
X78190609Y-110379185D01*
X78278210Y-110510288D01*
X78278213Y-110510292D01*
X78389707Y-110621786D01*
X78389711Y-110621789D01*
X78520814Y-110709390D01*
X78520827Y-110709397D01*
X78666498Y-110769735D01*
X78666503Y-110769737D01*
X78821153Y-110800499D01*
X78821156Y-110800500D01*
X78821158Y-110800500D01*
X78978844Y-110800500D01*
X78978845Y-110800499D01*
X79133497Y-110769737D01*
X79279179Y-110709394D01*
X79410289Y-110621789D01*
X79521789Y-110510289D01*
X79609394Y-110379179D01*
X79669737Y-110233497D01*
X79700500Y-110078842D01*
X79700500Y-109921158D01*
X79700500Y-109921155D01*
X79700499Y-109921153D01*
X86899500Y-109921153D01*
X86899500Y-110078846D01*
X86930261Y-110233489D01*
X86930264Y-110233501D01*
X86990602Y-110379172D01*
X86990609Y-110379185D01*
X87078210Y-110510288D01*
X87078213Y-110510292D01*
X87189707Y-110621786D01*
X87189711Y-110621789D01*
X87320814Y-110709390D01*
X87320827Y-110709397D01*
X87466498Y-110769735D01*
X87466503Y-110769737D01*
X87621153Y-110800499D01*
X87621156Y-110800500D01*
X87621158Y-110800500D01*
X87778844Y-110800500D01*
X87778845Y-110800499D01*
X87933497Y-110769737D01*
X88079179Y-110709394D01*
X88210289Y-110621789D01*
X88321789Y-110510289D01*
X88409394Y-110379179D01*
X88469737Y-110233497D01*
X88500500Y-110078842D01*
X88500500Y-110021153D01*
X95799500Y-110021153D01*
X95799500Y-110178846D01*
X95830261Y-110333489D01*
X95830264Y-110333501D01*
X95890602Y-110479172D01*
X95890609Y-110479185D01*
X95978210Y-110610288D01*
X95978213Y-110610292D01*
X96089707Y-110721786D01*
X96089711Y-110721789D01*
X96220814Y-110809390D01*
X96220827Y-110809397D01*
X96366498Y-110869735D01*
X96366503Y-110869737D01*
X96521153Y-110900499D01*
X96521156Y-110900500D01*
X96521158Y-110900500D01*
X96678844Y-110900500D01*
X96678845Y-110900499D01*
X96833497Y-110869737D01*
X96979179Y-110809394D01*
X97110289Y-110721789D01*
X97221789Y-110610289D01*
X97309394Y-110479179D01*
X97369737Y-110333497D01*
X97400500Y-110178842D01*
X97400500Y-110021158D01*
X97400500Y-110021155D01*
X97400499Y-110021153D01*
X104499500Y-110021153D01*
X104499500Y-110178846D01*
X104530261Y-110333489D01*
X104530264Y-110333501D01*
X104590602Y-110479172D01*
X104590609Y-110479185D01*
X104678210Y-110610288D01*
X104678213Y-110610292D01*
X104789707Y-110721786D01*
X104789711Y-110721789D01*
X104920814Y-110809390D01*
X104920827Y-110809397D01*
X105066498Y-110869735D01*
X105066503Y-110869737D01*
X105221153Y-110900499D01*
X105221156Y-110900500D01*
X105221158Y-110900500D01*
X105378844Y-110900500D01*
X105378845Y-110900499D01*
X105533497Y-110869737D01*
X105679179Y-110809394D01*
X105810289Y-110721789D01*
X105921789Y-110610289D01*
X106009394Y-110479179D01*
X106069737Y-110333497D01*
X106100500Y-110178842D01*
X106100500Y-110021158D01*
X106100500Y-110021155D01*
X106084209Y-109939258D01*
X106084209Y-109939257D01*
X106080608Y-109921153D01*
X113399500Y-109921153D01*
X113399500Y-110078846D01*
X113430261Y-110233489D01*
X113430264Y-110233501D01*
X113490602Y-110379172D01*
X113490609Y-110379185D01*
X113578210Y-110510288D01*
X113578213Y-110510292D01*
X113689707Y-110621786D01*
X113689711Y-110621789D01*
X113820814Y-110709390D01*
X113820827Y-110709397D01*
X113966498Y-110769735D01*
X113966503Y-110769737D01*
X114121153Y-110800499D01*
X114121156Y-110800500D01*
X114121158Y-110800500D01*
X114278844Y-110800500D01*
X114278845Y-110800499D01*
X114433497Y-110769737D01*
X114579179Y-110709394D01*
X114710289Y-110621789D01*
X114821789Y-110510289D01*
X114909394Y-110379179D01*
X114969737Y-110233497D01*
X115000500Y-110078842D01*
X115000500Y-109921158D01*
X115000500Y-109921155D01*
X115000499Y-109921153D01*
X114969738Y-109766510D01*
X114969737Y-109766503D01*
X114950812Y-109720814D01*
X114909397Y-109620827D01*
X114909390Y-109620814D01*
X114821789Y-109489711D01*
X114821786Y-109489707D01*
X114710292Y-109378213D01*
X114710288Y-109378210D01*
X114579185Y-109290609D01*
X114579172Y-109290602D01*
X114433501Y-109230264D01*
X114433489Y-109230261D01*
X114278845Y-109199500D01*
X114278842Y-109199500D01*
X114121158Y-109199500D01*
X114121155Y-109199500D01*
X113966510Y-109230261D01*
X113966498Y-109230264D01*
X113820827Y-109290602D01*
X113820814Y-109290609D01*
X113689711Y-109378210D01*
X113689707Y-109378213D01*
X113578213Y-109489707D01*
X113578210Y-109489711D01*
X113490609Y-109620814D01*
X113490602Y-109620827D01*
X113430264Y-109766498D01*
X113430261Y-109766510D01*
X113399500Y-109921153D01*
X106080608Y-109921153D01*
X106069738Y-109866510D01*
X106069737Y-109866503D01*
X106028314Y-109766498D01*
X106009397Y-109720827D01*
X106009390Y-109720814D01*
X105921789Y-109589711D01*
X105921786Y-109589707D01*
X105810292Y-109478213D01*
X105810288Y-109478210D01*
X105679185Y-109390609D01*
X105679172Y-109390602D01*
X105533501Y-109330264D01*
X105533489Y-109330261D01*
X105378845Y-109299500D01*
X105378842Y-109299500D01*
X105221158Y-109299500D01*
X105221155Y-109299500D01*
X105066510Y-109330261D01*
X105066498Y-109330264D01*
X104920827Y-109390602D01*
X104920814Y-109390609D01*
X104789711Y-109478210D01*
X104789707Y-109478213D01*
X104678213Y-109589707D01*
X104678210Y-109589711D01*
X104590609Y-109720814D01*
X104590602Y-109720827D01*
X104530264Y-109866498D01*
X104530261Y-109866510D01*
X104499500Y-110021153D01*
X97400499Y-110021153D01*
X97384209Y-109939257D01*
X97369737Y-109866503D01*
X97328314Y-109766498D01*
X97309397Y-109720827D01*
X97309390Y-109720814D01*
X97221789Y-109589711D01*
X97221786Y-109589707D01*
X97110292Y-109478213D01*
X97110288Y-109478210D01*
X96979185Y-109390609D01*
X96979172Y-109390602D01*
X96833501Y-109330264D01*
X96833489Y-109330261D01*
X96678845Y-109299500D01*
X96678842Y-109299500D01*
X96521158Y-109299500D01*
X96521155Y-109299500D01*
X96366510Y-109330261D01*
X96366498Y-109330264D01*
X96220827Y-109390602D01*
X96220814Y-109390609D01*
X96089711Y-109478210D01*
X96089707Y-109478213D01*
X95978213Y-109589707D01*
X95978210Y-109589711D01*
X95890609Y-109720814D01*
X95890602Y-109720827D01*
X95830264Y-109866498D01*
X95830261Y-109866510D01*
X95799500Y-110021153D01*
X88500500Y-110021153D01*
X88500500Y-109921158D01*
X88500500Y-109921155D01*
X88500499Y-109921153D01*
X88469738Y-109766510D01*
X88469737Y-109766503D01*
X88450812Y-109720814D01*
X88409397Y-109620827D01*
X88409390Y-109620814D01*
X88321789Y-109489711D01*
X88321786Y-109489707D01*
X88210292Y-109378213D01*
X88210288Y-109378210D01*
X88079185Y-109290609D01*
X88079172Y-109290602D01*
X87933501Y-109230264D01*
X87933489Y-109230261D01*
X87778845Y-109199500D01*
X87778842Y-109199500D01*
X87621158Y-109199500D01*
X87621155Y-109199500D01*
X87466510Y-109230261D01*
X87466498Y-109230264D01*
X87320827Y-109290602D01*
X87320814Y-109290609D01*
X87189711Y-109378210D01*
X87189707Y-109378213D01*
X87078213Y-109489707D01*
X87078210Y-109489711D01*
X86990609Y-109620814D01*
X86990602Y-109620827D01*
X86930264Y-109766498D01*
X86930261Y-109766510D01*
X86899500Y-109921153D01*
X79700499Y-109921153D01*
X79669738Y-109766510D01*
X79669737Y-109766503D01*
X79650812Y-109720814D01*
X79609397Y-109620827D01*
X79609390Y-109620814D01*
X79521789Y-109489711D01*
X79521786Y-109489707D01*
X79410292Y-109378213D01*
X79410288Y-109378210D01*
X79279185Y-109290609D01*
X79279172Y-109290602D01*
X79133501Y-109230264D01*
X79133489Y-109230261D01*
X78978845Y-109199500D01*
X78978842Y-109199500D01*
X78821158Y-109199500D01*
X78821155Y-109199500D01*
X78666510Y-109230261D01*
X78666498Y-109230264D01*
X78520827Y-109290602D01*
X78520814Y-109290609D01*
X78389711Y-109378210D01*
X78389707Y-109378213D01*
X78278213Y-109489707D01*
X78278210Y-109489711D01*
X78190609Y-109620814D01*
X78190602Y-109620827D01*
X78130264Y-109766498D01*
X78130261Y-109766510D01*
X78099500Y-109921153D01*
X71080608Y-109921153D01*
X71069738Y-109866510D01*
X71069737Y-109866503D01*
X71028314Y-109766498D01*
X71009397Y-109720827D01*
X71009390Y-109720814D01*
X70921789Y-109589711D01*
X70921786Y-109589707D01*
X70810292Y-109478213D01*
X70810288Y-109478210D01*
X70679185Y-109390609D01*
X70679172Y-109390602D01*
X70533501Y-109330264D01*
X70533489Y-109330261D01*
X70378845Y-109299500D01*
X70378842Y-109299500D01*
X70221158Y-109299500D01*
X70221155Y-109299500D01*
X70066510Y-109330261D01*
X70066498Y-109330264D01*
X69920827Y-109390602D01*
X69920814Y-109390609D01*
X69789711Y-109478210D01*
X69789707Y-109478213D01*
X69678213Y-109589707D01*
X69678210Y-109589711D01*
X69590609Y-109720814D01*
X69590602Y-109720827D01*
X69530264Y-109866498D01*
X69530261Y-109866510D01*
X69499500Y-110021153D01*
X61900500Y-110021153D01*
X61900500Y-109921158D01*
X61900500Y-109921155D01*
X61900499Y-109921153D01*
X61869738Y-109766510D01*
X61869737Y-109766503D01*
X61850812Y-109720814D01*
X61809397Y-109620827D01*
X61809390Y-109620814D01*
X61721789Y-109489711D01*
X61721786Y-109489707D01*
X61610292Y-109378213D01*
X61610288Y-109378210D01*
X61479185Y-109290609D01*
X61479172Y-109290602D01*
X61333501Y-109230264D01*
X61333489Y-109230261D01*
X61178845Y-109199500D01*
X61178842Y-109199500D01*
X61021158Y-109199500D01*
X61021155Y-109199500D01*
X60866510Y-109230261D01*
X60866498Y-109230264D01*
X60720827Y-109290602D01*
X60720814Y-109290609D01*
X60589711Y-109378210D01*
X60589707Y-109378213D01*
X60478213Y-109489707D01*
X60478210Y-109489711D01*
X60390609Y-109620814D01*
X60390602Y-109620827D01*
X60330264Y-109766498D01*
X60330261Y-109766510D01*
X60299500Y-109921153D01*
X53100499Y-109921153D01*
X53069738Y-109766510D01*
X53069737Y-109766503D01*
X53050812Y-109720814D01*
X53009397Y-109620827D01*
X53009390Y-109620814D01*
X52921789Y-109489711D01*
X52921786Y-109489707D01*
X52810292Y-109378213D01*
X52810288Y-109378210D01*
X52679185Y-109290609D01*
X52679172Y-109290602D01*
X52533501Y-109230264D01*
X52533489Y-109230261D01*
X52378845Y-109199500D01*
X52378842Y-109199500D01*
X52221158Y-109199500D01*
X52221155Y-109199500D01*
X52066510Y-109230261D01*
X52066498Y-109230264D01*
X51920827Y-109290602D01*
X51920814Y-109290609D01*
X51789711Y-109378210D01*
X51789707Y-109378213D01*
X51678213Y-109489707D01*
X51678210Y-109489711D01*
X51590609Y-109620814D01*
X51590602Y-109620827D01*
X51530264Y-109766498D01*
X51530261Y-109766510D01*
X51499500Y-109921153D01*
X48700500Y-109921153D01*
X48700500Y-108521153D01*
X49699500Y-108521153D01*
X49699500Y-108678846D01*
X49730261Y-108833489D01*
X49730264Y-108833501D01*
X49790602Y-108979172D01*
X49790609Y-108979185D01*
X49878210Y-109110288D01*
X49878213Y-109110292D01*
X49989707Y-109221786D01*
X49989711Y-109221789D01*
X50120814Y-109309390D01*
X50120827Y-109309397D01*
X50266498Y-109369735D01*
X50266503Y-109369737D01*
X50421153Y-109400499D01*
X50421156Y-109400500D01*
X50421158Y-109400500D01*
X50578844Y-109400500D01*
X50578845Y-109400499D01*
X50733497Y-109369737D01*
X50879179Y-109309394D01*
X51010289Y-109221789D01*
X51121789Y-109110289D01*
X51209394Y-108979179D01*
X51269737Y-108833497D01*
X51300500Y-108678842D01*
X51300500Y-108521158D01*
X51300500Y-108521155D01*
X51300499Y-108521153D01*
X51269738Y-108366510D01*
X51269737Y-108366503D01*
X51269735Y-108366498D01*
X51209397Y-108220827D01*
X51209390Y-108220814D01*
X51121789Y-108089711D01*
X51121786Y-108089707D01*
X51010292Y-107978213D01*
X51010288Y-107978210D01*
X50879185Y-107890609D01*
X50879172Y-107890602D01*
X50733501Y-107830264D01*
X50733489Y-107830261D01*
X50578845Y-107799500D01*
X50578842Y-107799500D01*
X50421158Y-107799500D01*
X50421155Y-107799500D01*
X50266510Y-107830261D01*
X50266498Y-107830264D01*
X50120827Y-107890602D01*
X50120814Y-107890609D01*
X49989711Y-107978210D01*
X49989707Y-107978213D01*
X49878213Y-108089707D01*
X49878210Y-108089711D01*
X49790609Y-108220814D01*
X49790602Y-108220827D01*
X49730264Y-108366498D01*
X49730261Y-108366510D01*
X49699500Y-108521153D01*
X48700500Y-108521153D01*
X48700500Y-103374500D01*
X48720185Y-103307461D01*
X48772989Y-103261706D01*
X48824500Y-103250500D01*
X120975500Y-103250500D01*
X121042539Y-103270185D01*
G37*
G04 #@! TD.AperFunction*
M02*
