%TF.GenerationSoftware,KiCad,Pcbnew,8.0.8*%
%TF.CreationDate,2025-09-05T20:33:19+02:00*%
%TF.ProjectId,REG8bit-SMD,52454738-6269-4742-9d53-4d442e6b6963,rev?*%
%TF.SameCoordinates,Original*%
%TF.FileFunction,Copper,L3,Inr*%
%TF.FilePolarity,Positive*%
%FSLAX46Y46*%
G04 Gerber Fmt 4.6, Leading zero omitted, Abs format (unit mm)*
G04 Created by KiCad (PCBNEW 8.0.8) date 2025-09-05 20:33:19*
%MOMM*%
%LPD*%
G01*
G04 APERTURE LIST*
%TA.AperFunction,ComponentPad*%
%ADD10R,1.700000X1.700000*%
%TD*%
%TA.AperFunction,ComponentPad*%
%ADD11O,1.700000X1.700000*%
%TD*%
%TA.AperFunction,ViaPad*%
%ADD12C,0.600000*%
%TD*%
%TA.AperFunction,Conductor*%
%ADD13C,0.200000*%
%TD*%
G04 APERTURE END LIST*
D10*
%TO.N,Net-(J1-Pin_1)*%
%TO.C,J1*%
X109725000Y-161625000D03*
D11*
%TO.N,Net-(J1-Pin_2)*%
X107185000Y-161625000D03*
%TO.N,Net-(J1-Pin_3)*%
X104645000Y-161625000D03*
%TO.N,Net-(J1-Pin_4)*%
X102105000Y-161625000D03*
%TO.N,Net-(J1-Pin_5)*%
X99565000Y-161625000D03*
%TO.N,Net-(J1-Pin_6)*%
X97025000Y-161625000D03*
%TO.N,Net-(J1-Pin_7)*%
X94485000Y-161625000D03*
%TO.N,Net-(J1-Pin_8)*%
X91945000Y-161625000D03*
%TO.N,Net-(J1-Pin_9)*%
X89405000Y-161625000D03*
%TO.N,Net-(J1-Pin_10)*%
X86865000Y-161625000D03*
%TO.N,Net-(J1-Pin_11)*%
X84325000Y-161625000D03*
%TO.N,Net-(J1-Pin_12)*%
X81785000Y-161625000D03*
%TO.N,Net-(J1-Pin_13)*%
X79245000Y-161625000D03*
%TO.N,Net-(J1-Pin_14)*%
X76705000Y-161625000D03*
%TO.N,Net-(J1-Pin_15)*%
X74165000Y-161625000D03*
%TO.N,Net-(J1-Pin_16)*%
X71625000Y-161625000D03*
%TO.N,/EN*%
X69085000Y-161625000D03*
%TO.N,/RST*%
X66545000Y-161625000D03*
%TO.N,Earth*%
X64005000Y-161625000D03*
%TO.N,VCC*%
X61465000Y-161625000D03*
%TD*%
D12*
%TO.N,Earth*%
X121400000Y-132800000D03*
X112400000Y-133100000D03*
X103500000Y-133000000D03*
X94400000Y-133200000D03*
X85500000Y-133000000D03*
X76400000Y-133100000D03*
X67400000Y-133100000D03*
X58000000Y-133100000D03*
X51200000Y-158800000D03*
X116200000Y-154200000D03*
X112400000Y-156200000D03*
X108000000Y-155900000D03*
X103400000Y-156200000D03*
X98900000Y-155800000D03*
X94500000Y-154700000D03*
X90100000Y-154400000D03*
X85400000Y-154400000D03*
X80702943Y-154400000D03*
X75900000Y-154400000D03*
X71900000Y-154400000D03*
X67500000Y-154400000D03*
X62900000Y-154400000D03*
X58400000Y-154600000D03*
X54000000Y-155900000D03*
X112700000Y-150800000D03*
X108200000Y-150200000D03*
X103400000Y-151600000D03*
X99200000Y-150200000D03*
X94500000Y-151800000D03*
X90100000Y-151400000D03*
X85300000Y-151700000D03*
X81100000Y-151450000D03*
X76600000Y-151000000D03*
X71968808Y-151440552D03*
X67100000Y-151500000D03*
X63400000Y-150400000D03*
X58400000Y-151700000D03*
X53400000Y-151700000D03*
X61900000Y-139700000D03*
X53000000Y-139700000D03*
X57300000Y-139700000D03*
X57400000Y-144200000D03*
X66300000Y-144200000D03*
X75300000Y-144200000D03*
X84300000Y-144200000D03*
X93300000Y-144200000D03*
X102400000Y-144100000D03*
X111400000Y-144100000D03*
X120300000Y-144200000D03*
X120700000Y-139800000D03*
X116000000Y-139800000D03*
X111300000Y-139800000D03*
X106900000Y-139800000D03*
X102300000Y-139800000D03*
X97900000Y-139800000D03*
X93237500Y-139837500D03*
X89000000Y-139800000D03*
X84400000Y-139700000D03*
X79900000Y-139800000D03*
X75300000Y-139800000D03*
X70900000Y-139900000D03*
X66500000Y-139800000D03*
%TO.N,Net-(Q10-D)*%
X49900000Y-149000000D03*
X51100000Y-147200000D03*
%TO.N,Net-(Q19-G)*%
X58900000Y-147000000D03*
X58900000Y-148990000D03*
%TO.N,Net-(Q29-G)*%
X67900000Y-147000000D03*
X67900000Y-148990000D03*
%TO.N,Net-(Q39-G)*%
X76900000Y-147000000D03*
X76900000Y-148990000D03*
%TO.N,Net-(Q49-G)*%
X86700000Y-147100000D03*
X85900000Y-148990000D03*
%TO.N,Net-(Q59-G)*%
X94900000Y-146900000D03*
X94900000Y-148990000D03*
%TO.N,Net-(Q69-G)*%
X103940000Y-147000000D03*
X103940000Y-148990000D03*
%TO.N,Net-(Q78-S)*%
X120600000Y-137400000D03*
X119400000Y-139800000D03*
%TO.N,Earth*%
X120300000Y-151600000D03*
X120300000Y-156100000D03*
X119600000Y-161000000D03*
X114550000Y-161350000D03*
%TO.N,/RST*%
X76700000Y-152650000D03*
X76600000Y-156600000D03*
%TO.N,Net-(Q74-D)*%
X116100000Y-143900000D03*
%TO.N,Net-(Q64-D)*%
X107100000Y-143900000D03*
%TO.N,Net-(Q54-D)*%
X98100000Y-143900000D03*
%TO.N,Net-(Q44-D)*%
X89100000Y-143900000D03*
%TO.N,Net-(Q34-D)*%
X80100000Y-143900000D03*
%TO.N,Net-(Q24-D)*%
X71100000Y-143900000D03*
%TO.N,Net-(Q14-D)*%
X62100000Y-143900000D03*
%TO.N,Net-(Q4-D)*%
X53100000Y-143900000D03*
%TO.N,VCC*%
X52800000Y-149300000D03*
X55800000Y-159800000D03*
%TO.N,/EN*%
X52600000Y-148300000D03*
X54200000Y-161400000D03*
%TO.N,Net-(Q2-D)*%
X51504724Y-150704724D03*
%TO.N,Net-(Q4-D)*%
X55600000Y-150700000D03*
%TO.N,Net-(Q12-D)*%
X60504724Y-150704724D03*
%TO.N,Net-(Q14-D)*%
X64904724Y-150704724D03*
%TO.N,Net-(Q22-D)*%
X69504724Y-150704724D03*
%TO.N,Net-(Q24-D)*%
X73362500Y-150700000D03*
%TO.N,Net-(Q32-D)*%
X78504724Y-150704724D03*
%TO.N,Net-(Q34-D)*%
X82362500Y-150700000D03*
%TO.N,Net-(Q42-D)*%
X87504724Y-150704724D03*
%TO.N,Net-(Q44-D)*%
X91362500Y-150700000D03*
%TO.N,Net-(Q52-D)*%
X96504724Y-150704724D03*
%TO.N,Net-(Q54-D)*%
X100362500Y-150700000D03*
%TO.N,Net-(Q62-D)*%
X105504724Y-150704724D03*
%TO.N,Net-(Q64-D)*%
X109362500Y-150700000D03*
%TO.N,Net-(Q74-D)*%
X118400000Y-150700000D03*
%TO.N,Net-(Q72-D)*%
X114500000Y-150700000D03*
X114000000Y-154400000D03*
%TO.N,Net-(Q54-D)*%
X100500000Y-154400000D03*
%TO.N,Net-(Q44-D)*%
X91400000Y-154400000D03*
%TO.N,Net-(Q34-D)*%
X82400000Y-154400000D03*
%TO.N,Net-(Q24-D)*%
X73400000Y-154400000D03*
%TO.N,Net-(Q2-D)*%
X51300000Y-155200000D03*
%TO.N,Net-(Q4-D)*%
X55400000Y-154400000D03*
%TO.N,Net-(Q14-D)*%
X64400000Y-154400000D03*
%TO.N,Net-(Q12-D)*%
X60000000Y-154400000D03*
%TO.N,Net-(Q22-D)*%
X69000000Y-154400000D03*
%TO.N,Net-(Q32-D)*%
X78000000Y-154400000D03*
%TO.N,Net-(Q42-D)*%
X87000000Y-154400000D03*
%TO.N,Net-(Q52-D)*%
X96000000Y-154400000D03*
%TO.N,Net-(Q62-D)*%
X105000000Y-154400000D03*
%TO.N,Net-(Q64-D)*%
X109400000Y-154400000D03*
%TO.N,Net-(Q74-D)*%
X118400000Y-154400000D03*
%TO.N,VCC*%
X54400000Y-133900000D03*
X63400000Y-133900000D03*
X72400000Y-133900000D03*
X81400000Y-133900000D03*
X90400000Y-133900000D03*
X99400000Y-133900000D03*
X108400000Y-133900000D03*
X117400000Y-133900000D03*
%TO.N,Net-(J1-Pin_8)*%
X54300000Y-134880000D03*
X54100000Y-137500000D03*
%TO.N,Net-(J1-Pin_7)*%
X63300000Y-134880000D03*
X63100000Y-137500000D03*
%TO.N,Net-(J1-Pin_6)*%
X72300000Y-134900000D03*
X72100000Y-137500000D03*
%TO.N,Net-(J1-Pin_5)*%
X81300000Y-134900000D03*
X81100000Y-137500000D03*
%TO.N,Net-(J1-Pin_4)*%
X90300000Y-134880000D03*
X90100000Y-137500000D03*
%TO.N,Net-(J1-Pin_3)*%
X99300000Y-134880000D03*
X99100000Y-137500000D03*
%TO.N,Net-(J1-Pin_2)*%
X108300000Y-134880000D03*
X108100000Y-137500000D03*
%TO.N,Net-(J1-Pin_1)*%
X117300000Y-134880000D03*
X117100000Y-137500000D03*
%TO.N,Net-(J1-Pin_16)*%
X56000000Y-147300000D03*
X51600000Y-157100000D03*
%TO.N,Net-(J1-Pin_15)*%
X65000000Y-147300000D03*
X60600000Y-157100000D03*
%TO.N,Net-(J1-Pin_14)*%
X74000000Y-147300000D03*
X69600000Y-157100000D03*
%TO.N,Net-(J1-Pin_13)*%
X83000000Y-147300000D03*
X78600000Y-157100000D03*
%TO.N,Net-(J1-Pin_12)*%
X92000000Y-147300000D03*
X87600000Y-157100000D03*
%TO.N,Net-(J1-Pin_9)*%
X119000000Y-147300000D03*
X114600000Y-157100000D03*
%TO.N,Net-(J1-Pin_10)*%
X105600000Y-157100000D03*
%TO.N,Net-(J1-Pin_11)*%
X101000000Y-147300000D03*
X96600000Y-157100000D03*
%TO.N,Net-(J1-Pin_10)*%
X110000000Y-147300000D03*
%TO.N,Earth*%
X117100000Y-150300000D03*
%TO.N,Net-(Q79-G)*%
X113000000Y-148990000D03*
X113000000Y-147000000D03*
%TD*%
D13*
%TO.N,Earth*%
X62280000Y-159900000D02*
X61800000Y-159900000D01*
X64005000Y-161625000D02*
X62280000Y-159900000D01*
X65630000Y-160000000D02*
X66000000Y-160000000D01*
X64005000Y-161625000D02*
X65630000Y-160000000D01*
X120500000Y-156300000D02*
X120800000Y-156300000D01*
X120300000Y-156100000D02*
X120500000Y-156300000D01*
%TD*%
%TA.AperFunction,Conductor*%
%TO.N,Earth*%
G36*
X122042539Y-130620185D02*
G01*
X122088294Y-130672989D01*
X122099500Y-130724500D01*
X122099500Y-162575500D01*
X122079815Y-162642539D01*
X122027011Y-162688294D01*
X121975500Y-162699500D01*
X111194556Y-162699500D01*
X111127517Y-162679815D01*
X111081762Y-162627011D01*
X111071267Y-162562244D01*
X111075499Y-162522881D01*
X111075500Y-162522873D01*
X111075499Y-160727128D01*
X111069091Y-160667517D01*
X111067810Y-160664083D01*
X111018797Y-160532671D01*
X111018793Y-160532664D01*
X110932547Y-160417455D01*
X110932544Y-160417452D01*
X110817335Y-160331206D01*
X110817328Y-160331202D01*
X110682482Y-160280908D01*
X110682483Y-160280908D01*
X110622883Y-160274501D01*
X110622881Y-160274500D01*
X110622873Y-160274500D01*
X110622864Y-160274500D01*
X108827129Y-160274500D01*
X108827123Y-160274501D01*
X108767516Y-160280908D01*
X108632671Y-160331202D01*
X108632664Y-160331206D01*
X108517455Y-160417452D01*
X108517452Y-160417455D01*
X108431206Y-160532664D01*
X108431203Y-160532669D01*
X108382189Y-160664083D01*
X108340317Y-160720016D01*
X108274853Y-160744433D01*
X108206580Y-160729581D01*
X108178326Y-160708430D01*
X108056402Y-160586506D01*
X108056395Y-160586501D01*
X108054778Y-160585369D01*
X107979518Y-160532671D01*
X107862834Y-160450967D01*
X107862830Y-160450965D01*
X107817474Y-160429815D01*
X107648663Y-160351097D01*
X107648659Y-160351096D01*
X107648655Y-160351094D01*
X107420413Y-160289938D01*
X107420403Y-160289936D01*
X107185001Y-160269341D01*
X107184999Y-160269341D01*
X106949596Y-160289936D01*
X106949586Y-160289938D01*
X106721344Y-160351094D01*
X106721335Y-160351098D01*
X106507171Y-160450964D01*
X106507169Y-160450965D01*
X106313597Y-160586505D01*
X106146505Y-160753597D01*
X106016575Y-160939158D01*
X105961998Y-160982783D01*
X105892500Y-160989977D01*
X105830145Y-160958454D01*
X105813425Y-160939158D01*
X105683494Y-160753597D01*
X105516402Y-160586506D01*
X105516395Y-160586501D01*
X105514778Y-160585369D01*
X105439518Y-160532671D01*
X105322834Y-160450967D01*
X105322830Y-160450965D01*
X105277474Y-160429815D01*
X105108663Y-160351097D01*
X105108659Y-160351096D01*
X105108655Y-160351094D01*
X104880413Y-160289938D01*
X104880403Y-160289936D01*
X104645001Y-160269341D01*
X104644999Y-160269341D01*
X104409596Y-160289936D01*
X104409586Y-160289938D01*
X104181344Y-160351094D01*
X104181335Y-160351098D01*
X103967171Y-160450964D01*
X103967169Y-160450965D01*
X103773597Y-160586505D01*
X103606505Y-160753597D01*
X103476575Y-160939158D01*
X103421998Y-160982783D01*
X103352500Y-160989977D01*
X103290145Y-160958454D01*
X103273425Y-160939158D01*
X103143494Y-160753597D01*
X102976402Y-160586506D01*
X102976395Y-160586501D01*
X102974778Y-160585369D01*
X102899518Y-160532671D01*
X102782834Y-160450967D01*
X102782830Y-160450965D01*
X102737474Y-160429815D01*
X102568663Y-160351097D01*
X102568659Y-160351096D01*
X102568655Y-160351094D01*
X102340413Y-160289938D01*
X102340403Y-160289936D01*
X102105001Y-160269341D01*
X102104999Y-160269341D01*
X101869596Y-160289936D01*
X101869586Y-160289938D01*
X101641344Y-160351094D01*
X101641335Y-160351098D01*
X101427171Y-160450964D01*
X101427169Y-160450965D01*
X101233597Y-160586505D01*
X101066505Y-160753597D01*
X100936575Y-160939158D01*
X100881998Y-160982783D01*
X100812500Y-160989977D01*
X100750145Y-160958454D01*
X100733425Y-160939158D01*
X100603494Y-160753597D01*
X100436402Y-160586506D01*
X100436395Y-160586501D01*
X100434778Y-160585369D01*
X100359518Y-160532671D01*
X100242834Y-160450967D01*
X100242830Y-160450965D01*
X100197474Y-160429815D01*
X100028663Y-160351097D01*
X100028659Y-160351096D01*
X100028655Y-160351094D01*
X99800413Y-160289938D01*
X99800403Y-160289936D01*
X99565001Y-160269341D01*
X99564999Y-160269341D01*
X99329596Y-160289936D01*
X99329586Y-160289938D01*
X99101344Y-160351094D01*
X99101335Y-160351098D01*
X98887171Y-160450964D01*
X98887169Y-160450965D01*
X98693597Y-160586505D01*
X98526505Y-160753597D01*
X98396575Y-160939158D01*
X98341998Y-160982783D01*
X98272500Y-160989977D01*
X98210145Y-160958454D01*
X98193425Y-160939158D01*
X98063494Y-160753597D01*
X97896402Y-160586506D01*
X97896395Y-160586501D01*
X97894778Y-160585369D01*
X97819518Y-160532671D01*
X97702834Y-160450967D01*
X97702830Y-160450965D01*
X97657474Y-160429815D01*
X97488663Y-160351097D01*
X97488659Y-160351096D01*
X97488655Y-160351094D01*
X97260413Y-160289938D01*
X97260403Y-160289936D01*
X97025001Y-160269341D01*
X97024999Y-160269341D01*
X96789596Y-160289936D01*
X96789586Y-160289938D01*
X96561344Y-160351094D01*
X96561335Y-160351098D01*
X96347171Y-160450964D01*
X96347169Y-160450965D01*
X96153597Y-160586505D01*
X95986505Y-160753597D01*
X95856575Y-160939158D01*
X95801998Y-160982783D01*
X95732500Y-160989977D01*
X95670145Y-160958454D01*
X95653425Y-160939158D01*
X95523494Y-160753597D01*
X95356402Y-160586506D01*
X95356395Y-160586501D01*
X95354778Y-160585369D01*
X95279518Y-160532671D01*
X95162834Y-160450967D01*
X95162830Y-160450965D01*
X95117474Y-160429815D01*
X94948663Y-160351097D01*
X94948659Y-160351096D01*
X94948655Y-160351094D01*
X94720413Y-160289938D01*
X94720403Y-160289936D01*
X94485001Y-160269341D01*
X94484999Y-160269341D01*
X94249596Y-160289936D01*
X94249586Y-160289938D01*
X94021344Y-160351094D01*
X94021335Y-160351098D01*
X93807171Y-160450964D01*
X93807169Y-160450965D01*
X93613597Y-160586505D01*
X93446505Y-160753597D01*
X93316575Y-160939158D01*
X93261998Y-160982783D01*
X93192500Y-160989977D01*
X93130145Y-160958454D01*
X93113425Y-160939158D01*
X92983494Y-160753597D01*
X92816402Y-160586506D01*
X92816395Y-160586501D01*
X92814778Y-160585369D01*
X92739518Y-160532671D01*
X92622834Y-160450967D01*
X92622830Y-160450965D01*
X92577474Y-160429815D01*
X92408663Y-160351097D01*
X92408659Y-160351096D01*
X92408655Y-160351094D01*
X92180413Y-160289938D01*
X92180403Y-160289936D01*
X91945001Y-160269341D01*
X91944999Y-160269341D01*
X91709596Y-160289936D01*
X91709586Y-160289938D01*
X91481344Y-160351094D01*
X91481335Y-160351098D01*
X91267171Y-160450964D01*
X91267169Y-160450965D01*
X91073597Y-160586505D01*
X90906505Y-160753597D01*
X90776575Y-160939158D01*
X90721998Y-160982783D01*
X90652500Y-160989977D01*
X90590145Y-160958454D01*
X90573425Y-160939158D01*
X90443494Y-160753597D01*
X90276402Y-160586506D01*
X90276395Y-160586501D01*
X90274778Y-160585369D01*
X90199518Y-160532671D01*
X90082834Y-160450967D01*
X90082830Y-160450965D01*
X90037474Y-160429815D01*
X89868663Y-160351097D01*
X89868659Y-160351096D01*
X89868655Y-160351094D01*
X89640413Y-160289938D01*
X89640403Y-160289936D01*
X89405001Y-160269341D01*
X89404999Y-160269341D01*
X89169596Y-160289936D01*
X89169586Y-160289938D01*
X88941344Y-160351094D01*
X88941335Y-160351098D01*
X88727171Y-160450964D01*
X88727169Y-160450965D01*
X88533597Y-160586505D01*
X88366505Y-160753597D01*
X88236575Y-160939158D01*
X88181998Y-160982783D01*
X88112500Y-160989977D01*
X88050145Y-160958454D01*
X88033425Y-160939158D01*
X87903494Y-160753597D01*
X87736402Y-160586506D01*
X87736395Y-160586501D01*
X87734778Y-160585369D01*
X87659518Y-160532671D01*
X87542834Y-160450967D01*
X87542830Y-160450965D01*
X87497474Y-160429815D01*
X87328663Y-160351097D01*
X87328659Y-160351096D01*
X87328655Y-160351094D01*
X87100413Y-160289938D01*
X87100403Y-160289936D01*
X86865001Y-160269341D01*
X86864999Y-160269341D01*
X86629596Y-160289936D01*
X86629586Y-160289938D01*
X86401344Y-160351094D01*
X86401335Y-160351098D01*
X86187171Y-160450964D01*
X86187169Y-160450965D01*
X85993597Y-160586505D01*
X85826505Y-160753597D01*
X85696575Y-160939158D01*
X85641998Y-160982783D01*
X85572500Y-160989977D01*
X85510145Y-160958454D01*
X85493425Y-160939158D01*
X85363494Y-160753597D01*
X85196402Y-160586506D01*
X85196395Y-160586501D01*
X85194778Y-160585369D01*
X85119518Y-160532671D01*
X85002834Y-160450967D01*
X85002830Y-160450965D01*
X84957474Y-160429815D01*
X84788663Y-160351097D01*
X84788659Y-160351096D01*
X84788655Y-160351094D01*
X84560413Y-160289938D01*
X84560403Y-160289936D01*
X84325001Y-160269341D01*
X84324999Y-160269341D01*
X84089596Y-160289936D01*
X84089586Y-160289938D01*
X83861344Y-160351094D01*
X83861335Y-160351098D01*
X83647171Y-160450964D01*
X83647169Y-160450965D01*
X83453597Y-160586505D01*
X83286505Y-160753597D01*
X83156575Y-160939158D01*
X83101998Y-160982783D01*
X83032500Y-160989977D01*
X82970145Y-160958454D01*
X82953425Y-160939158D01*
X82823494Y-160753597D01*
X82656402Y-160586506D01*
X82656395Y-160586501D01*
X82654778Y-160585369D01*
X82579518Y-160532671D01*
X82462834Y-160450967D01*
X82462830Y-160450965D01*
X82417474Y-160429815D01*
X82248663Y-160351097D01*
X82248659Y-160351096D01*
X82248655Y-160351094D01*
X82020413Y-160289938D01*
X82020403Y-160289936D01*
X81785001Y-160269341D01*
X81784999Y-160269341D01*
X81549596Y-160289936D01*
X81549586Y-160289938D01*
X81321344Y-160351094D01*
X81321335Y-160351098D01*
X81107171Y-160450964D01*
X81107169Y-160450965D01*
X80913597Y-160586505D01*
X80746505Y-160753597D01*
X80616575Y-160939158D01*
X80561998Y-160982783D01*
X80492500Y-160989977D01*
X80430145Y-160958454D01*
X80413425Y-160939158D01*
X80283494Y-160753597D01*
X80116402Y-160586506D01*
X80116395Y-160586501D01*
X80114778Y-160585369D01*
X80039518Y-160532671D01*
X79922834Y-160450967D01*
X79922830Y-160450965D01*
X79877474Y-160429815D01*
X79708663Y-160351097D01*
X79708659Y-160351096D01*
X79708655Y-160351094D01*
X79480413Y-160289938D01*
X79480403Y-160289936D01*
X79245001Y-160269341D01*
X79244999Y-160269341D01*
X79009596Y-160289936D01*
X79009586Y-160289938D01*
X78781344Y-160351094D01*
X78781335Y-160351098D01*
X78567171Y-160450964D01*
X78567169Y-160450965D01*
X78373597Y-160586505D01*
X78206505Y-160753597D01*
X78076575Y-160939158D01*
X78021998Y-160982783D01*
X77952500Y-160989977D01*
X77890145Y-160958454D01*
X77873425Y-160939158D01*
X77743494Y-160753597D01*
X77576402Y-160586506D01*
X77576395Y-160586501D01*
X77574778Y-160585369D01*
X77499518Y-160532671D01*
X77382834Y-160450967D01*
X77382830Y-160450965D01*
X77337474Y-160429815D01*
X77168663Y-160351097D01*
X77168659Y-160351096D01*
X77168655Y-160351094D01*
X76940413Y-160289938D01*
X76940403Y-160289936D01*
X76705001Y-160269341D01*
X76704999Y-160269341D01*
X76469596Y-160289936D01*
X76469586Y-160289938D01*
X76241344Y-160351094D01*
X76241335Y-160351098D01*
X76027171Y-160450964D01*
X76027169Y-160450965D01*
X75833597Y-160586505D01*
X75666505Y-160753597D01*
X75536575Y-160939158D01*
X75481998Y-160982783D01*
X75412500Y-160989977D01*
X75350145Y-160958454D01*
X75333425Y-160939158D01*
X75203494Y-160753597D01*
X75036402Y-160586506D01*
X75036395Y-160586501D01*
X75034778Y-160585369D01*
X74959518Y-160532671D01*
X74842834Y-160450967D01*
X74842830Y-160450965D01*
X74797474Y-160429815D01*
X74628663Y-160351097D01*
X74628659Y-160351096D01*
X74628655Y-160351094D01*
X74400413Y-160289938D01*
X74400403Y-160289936D01*
X74165001Y-160269341D01*
X74164999Y-160269341D01*
X73929596Y-160289936D01*
X73929586Y-160289938D01*
X73701344Y-160351094D01*
X73701335Y-160351098D01*
X73487171Y-160450964D01*
X73487169Y-160450965D01*
X73293597Y-160586505D01*
X73126505Y-160753597D01*
X72996575Y-160939158D01*
X72941998Y-160982783D01*
X72872500Y-160989977D01*
X72810145Y-160958454D01*
X72793425Y-160939158D01*
X72663494Y-160753597D01*
X72496402Y-160586506D01*
X72496395Y-160586501D01*
X72494778Y-160585369D01*
X72419518Y-160532671D01*
X72302834Y-160450967D01*
X72302830Y-160450965D01*
X72257474Y-160429815D01*
X72088663Y-160351097D01*
X72088659Y-160351096D01*
X72088655Y-160351094D01*
X71860413Y-160289938D01*
X71860403Y-160289936D01*
X71625001Y-160269341D01*
X71624999Y-160269341D01*
X71389596Y-160289936D01*
X71389586Y-160289938D01*
X71161344Y-160351094D01*
X71161335Y-160351098D01*
X70947171Y-160450964D01*
X70947169Y-160450965D01*
X70753597Y-160586505D01*
X70586505Y-160753597D01*
X70456575Y-160939158D01*
X70401998Y-160982783D01*
X70332500Y-160989977D01*
X70270145Y-160958454D01*
X70253425Y-160939158D01*
X70123494Y-160753597D01*
X69956402Y-160586506D01*
X69956395Y-160586501D01*
X69954778Y-160585369D01*
X69879518Y-160532671D01*
X69762834Y-160450967D01*
X69762830Y-160450965D01*
X69717474Y-160429815D01*
X69548663Y-160351097D01*
X69548659Y-160351096D01*
X69548655Y-160351094D01*
X69320413Y-160289938D01*
X69320403Y-160289936D01*
X69085001Y-160269341D01*
X69084999Y-160269341D01*
X68849596Y-160289936D01*
X68849586Y-160289938D01*
X68621344Y-160351094D01*
X68621335Y-160351098D01*
X68407171Y-160450964D01*
X68407169Y-160450965D01*
X68213597Y-160586505D01*
X68046505Y-160753597D01*
X67916575Y-160939158D01*
X67861998Y-160982783D01*
X67792500Y-160989977D01*
X67730145Y-160958454D01*
X67713425Y-160939158D01*
X67583494Y-160753597D01*
X67416402Y-160586506D01*
X67416395Y-160586501D01*
X67414778Y-160585369D01*
X67339518Y-160532671D01*
X67222834Y-160450967D01*
X67222830Y-160450965D01*
X67177474Y-160429815D01*
X67008663Y-160351097D01*
X67008659Y-160351096D01*
X67008655Y-160351094D01*
X66780413Y-160289938D01*
X66780403Y-160289936D01*
X66545001Y-160269341D01*
X66544999Y-160269341D01*
X66309596Y-160289936D01*
X66309586Y-160289938D01*
X66081344Y-160351094D01*
X66081335Y-160351098D01*
X65867171Y-160450964D01*
X65867169Y-160450965D01*
X65673597Y-160586505D01*
X65506508Y-160753594D01*
X65376269Y-160939595D01*
X65321692Y-160983219D01*
X65252193Y-160990412D01*
X65189839Y-160958890D01*
X65173119Y-160939594D01*
X65043113Y-160753926D01*
X65043108Y-160753920D01*
X64876082Y-160586894D01*
X64682578Y-160451399D01*
X64468492Y-160351570D01*
X64468486Y-160351567D01*
X64255000Y-160294364D01*
X64255000Y-161191988D01*
X64197993Y-161159075D01*
X64070826Y-161125000D01*
X63939174Y-161125000D01*
X63812007Y-161159075D01*
X63755000Y-161191988D01*
X63755000Y-160294364D01*
X63754999Y-160294364D01*
X63541513Y-160351567D01*
X63541507Y-160351570D01*
X63327422Y-160451399D01*
X63327420Y-160451400D01*
X63133926Y-160586886D01*
X63133920Y-160586891D01*
X62966891Y-160753920D01*
X62966890Y-160753922D01*
X62836880Y-160939595D01*
X62782303Y-160983219D01*
X62712804Y-160990412D01*
X62650450Y-160958890D01*
X62633730Y-160939594D01*
X62503494Y-160753597D01*
X62336402Y-160586506D01*
X62336395Y-160586501D01*
X62334778Y-160585369D01*
X62259518Y-160532671D01*
X62142834Y-160450967D01*
X62142830Y-160450965D01*
X62097474Y-160429815D01*
X61928663Y-160351097D01*
X61928659Y-160351096D01*
X61928655Y-160351094D01*
X61700413Y-160289938D01*
X61700403Y-160289936D01*
X61465001Y-160269341D01*
X61464999Y-160269341D01*
X61229596Y-160289936D01*
X61229586Y-160289938D01*
X61001344Y-160351094D01*
X61001335Y-160351098D01*
X60787171Y-160450964D01*
X60787169Y-160450965D01*
X60593597Y-160586505D01*
X60426505Y-160753597D01*
X60290965Y-160947169D01*
X60290964Y-160947171D01*
X60191098Y-161161335D01*
X60191094Y-161161344D01*
X60129938Y-161389586D01*
X60129936Y-161389596D01*
X60109341Y-161624999D01*
X60109341Y-161625000D01*
X60129936Y-161860403D01*
X60129938Y-161860413D01*
X60191094Y-162088655D01*
X60191096Y-162088659D01*
X60191097Y-162088663D01*
X60270801Y-162259588D01*
X60290965Y-162302830D01*
X60290967Y-162302834D01*
X60429610Y-162500836D01*
X60428530Y-162501592D01*
X60454007Y-162559787D01*
X60442976Y-162628781D01*
X60396396Y-162680858D01*
X60331007Y-162699500D01*
X49224500Y-162699500D01*
X49157461Y-162679815D01*
X49111706Y-162627011D01*
X49100500Y-162575500D01*
X49100500Y-161399996D01*
X53394435Y-161399996D01*
X53394435Y-161400003D01*
X53414630Y-161579249D01*
X53414631Y-161579254D01*
X53474211Y-161749523D01*
X53570184Y-161902262D01*
X53697738Y-162029816D01*
X53788080Y-162086582D01*
X53804711Y-162097032D01*
X53850478Y-162125789D01*
X54020745Y-162185368D01*
X54020750Y-162185369D01*
X54199996Y-162205565D01*
X54200000Y-162205565D01*
X54200004Y-162205565D01*
X54379249Y-162185369D01*
X54379252Y-162185368D01*
X54379255Y-162185368D01*
X54549522Y-162125789D01*
X54702262Y-162029816D01*
X54829816Y-161902262D01*
X54925789Y-161749522D01*
X54985368Y-161579255D01*
X54987631Y-161559174D01*
X55005565Y-161400003D01*
X55005565Y-161399996D01*
X54985369Y-161220750D01*
X54985368Y-161220745D01*
X54964580Y-161161337D01*
X54925789Y-161050478D01*
X54829816Y-160897738D01*
X54702262Y-160770184D01*
X54637643Y-160729581D01*
X54549523Y-160674211D01*
X54379254Y-160614631D01*
X54379249Y-160614630D01*
X54200004Y-160594435D01*
X54199996Y-160594435D01*
X54020750Y-160614630D01*
X54020745Y-160614631D01*
X53850476Y-160674211D01*
X53697737Y-160770184D01*
X53570184Y-160897737D01*
X53474211Y-161050476D01*
X53414631Y-161220745D01*
X53414630Y-161220750D01*
X53394435Y-161399996D01*
X49100500Y-161399996D01*
X49100500Y-159799996D01*
X54994435Y-159799996D01*
X54994435Y-159800003D01*
X55014630Y-159979249D01*
X55014631Y-159979254D01*
X55074211Y-160149523D01*
X55156766Y-160280908D01*
X55170184Y-160302262D01*
X55297738Y-160429816D01*
X55450478Y-160525789D01*
X55470146Y-160532671D01*
X55620745Y-160585368D01*
X55620750Y-160585369D01*
X55799996Y-160605565D01*
X55800000Y-160605565D01*
X55800004Y-160605565D01*
X55979249Y-160585369D01*
X55979252Y-160585368D01*
X55979255Y-160585368D01*
X56149522Y-160525789D01*
X56302262Y-160429816D01*
X56429816Y-160302262D01*
X56525789Y-160149522D01*
X56585368Y-159979255D01*
X56605565Y-159800000D01*
X56585368Y-159620745D01*
X56525789Y-159450478D01*
X56429816Y-159297738D01*
X56302262Y-159170184D01*
X56149523Y-159074211D01*
X55979254Y-159014631D01*
X55979249Y-159014630D01*
X55800004Y-158994435D01*
X55799996Y-158994435D01*
X55620750Y-159014630D01*
X55620745Y-159014631D01*
X55450476Y-159074211D01*
X55297737Y-159170184D01*
X55170184Y-159297737D01*
X55074211Y-159450476D01*
X55014631Y-159620745D01*
X55014630Y-159620750D01*
X54994435Y-159799996D01*
X49100500Y-159799996D01*
X49100500Y-157099996D01*
X50794435Y-157099996D01*
X50794435Y-157100003D01*
X50814630Y-157279249D01*
X50814631Y-157279254D01*
X50874211Y-157449523D01*
X50970184Y-157602262D01*
X51097738Y-157729816D01*
X51250478Y-157825789D01*
X51420745Y-157885368D01*
X51420750Y-157885369D01*
X51599996Y-157905565D01*
X51600000Y-157905565D01*
X51600004Y-157905565D01*
X51779249Y-157885369D01*
X51779252Y-157885368D01*
X51779255Y-157885368D01*
X51949522Y-157825789D01*
X52102262Y-157729816D01*
X52229816Y-157602262D01*
X52325789Y-157449522D01*
X52385368Y-157279255D01*
X52385369Y-157279249D01*
X52405565Y-157100003D01*
X52405565Y-157099996D01*
X59794435Y-157099996D01*
X59794435Y-157100003D01*
X59814630Y-157279249D01*
X59814631Y-157279254D01*
X59874211Y-157449523D01*
X59970184Y-157602262D01*
X60097738Y-157729816D01*
X60250478Y-157825789D01*
X60420745Y-157885368D01*
X60420750Y-157885369D01*
X60599996Y-157905565D01*
X60600000Y-157905565D01*
X60600004Y-157905565D01*
X60779249Y-157885369D01*
X60779252Y-157885368D01*
X60779255Y-157885368D01*
X60949522Y-157825789D01*
X61102262Y-157729816D01*
X61229816Y-157602262D01*
X61325789Y-157449522D01*
X61385368Y-157279255D01*
X61385369Y-157279249D01*
X61405565Y-157100003D01*
X61405565Y-157099996D01*
X68794435Y-157099996D01*
X68794435Y-157100003D01*
X68814630Y-157279249D01*
X68814631Y-157279254D01*
X68874211Y-157449523D01*
X68970184Y-157602262D01*
X69097738Y-157729816D01*
X69250478Y-157825789D01*
X69420745Y-157885368D01*
X69420750Y-157885369D01*
X69599996Y-157905565D01*
X69600000Y-157905565D01*
X69600004Y-157905565D01*
X69779249Y-157885369D01*
X69779252Y-157885368D01*
X69779255Y-157885368D01*
X69949522Y-157825789D01*
X70102262Y-157729816D01*
X70229816Y-157602262D01*
X70325789Y-157449522D01*
X70385368Y-157279255D01*
X70385369Y-157279249D01*
X70405565Y-157100003D01*
X70405565Y-157099996D01*
X70385369Y-156920750D01*
X70385368Y-156920745D01*
X70325789Y-156750478D01*
X70231235Y-156599996D01*
X75794435Y-156599996D01*
X75794435Y-156600003D01*
X75814630Y-156779249D01*
X75814631Y-156779254D01*
X75874211Y-156949523D01*
X75968760Y-157099996D01*
X75970184Y-157102262D01*
X76097738Y-157229816D01*
X76250478Y-157325789D01*
X76420745Y-157385368D01*
X76420750Y-157385369D01*
X76599996Y-157405565D01*
X76600000Y-157405565D01*
X76600004Y-157405565D01*
X76779249Y-157385369D01*
X76779252Y-157385368D01*
X76779255Y-157385368D01*
X76949522Y-157325789D01*
X77102262Y-157229816D01*
X77229816Y-157102262D01*
X77231240Y-157099996D01*
X77794435Y-157099996D01*
X77794435Y-157100003D01*
X77814630Y-157279249D01*
X77814631Y-157279254D01*
X77874211Y-157449523D01*
X77970184Y-157602262D01*
X78097738Y-157729816D01*
X78250478Y-157825789D01*
X78420745Y-157885368D01*
X78420750Y-157885369D01*
X78599996Y-157905565D01*
X78600000Y-157905565D01*
X78600004Y-157905565D01*
X78779249Y-157885369D01*
X78779252Y-157885368D01*
X78779255Y-157885368D01*
X78949522Y-157825789D01*
X79102262Y-157729816D01*
X79229816Y-157602262D01*
X79325789Y-157449522D01*
X79385368Y-157279255D01*
X79385369Y-157279249D01*
X79405565Y-157100003D01*
X79405565Y-157099996D01*
X86794435Y-157099996D01*
X86794435Y-157100003D01*
X86814630Y-157279249D01*
X86814631Y-157279254D01*
X86874211Y-157449523D01*
X86970184Y-157602262D01*
X87097738Y-157729816D01*
X87250478Y-157825789D01*
X87420745Y-157885368D01*
X87420750Y-157885369D01*
X87599996Y-157905565D01*
X87600000Y-157905565D01*
X87600004Y-157905565D01*
X87779249Y-157885369D01*
X87779252Y-157885368D01*
X87779255Y-157885368D01*
X87949522Y-157825789D01*
X88102262Y-157729816D01*
X88229816Y-157602262D01*
X88325789Y-157449522D01*
X88385368Y-157279255D01*
X88385369Y-157279249D01*
X88405565Y-157100003D01*
X88405565Y-157099996D01*
X95794435Y-157099996D01*
X95794435Y-157100003D01*
X95814630Y-157279249D01*
X95814631Y-157279254D01*
X95874211Y-157449523D01*
X95970184Y-157602262D01*
X96097738Y-157729816D01*
X96250478Y-157825789D01*
X96420745Y-157885368D01*
X96420750Y-157885369D01*
X96599996Y-157905565D01*
X96600000Y-157905565D01*
X96600004Y-157905565D01*
X96779249Y-157885369D01*
X96779252Y-157885368D01*
X96779255Y-157885368D01*
X96949522Y-157825789D01*
X97102262Y-157729816D01*
X97229816Y-157602262D01*
X97325789Y-157449522D01*
X97385368Y-157279255D01*
X97385369Y-157279249D01*
X97405565Y-157100003D01*
X97405565Y-157099996D01*
X104794435Y-157099996D01*
X104794435Y-157100003D01*
X104814630Y-157279249D01*
X104814631Y-157279254D01*
X104874211Y-157449523D01*
X104970184Y-157602262D01*
X105097738Y-157729816D01*
X105250478Y-157825789D01*
X105420745Y-157885368D01*
X105420750Y-157885369D01*
X105599996Y-157905565D01*
X105600000Y-157905565D01*
X105600004Y-157905565D01*
X105779249Y-157885369D01*
X105779252Y-157885368D01*
X105779255Y-157885368D01*
X105949522Y-157825789D01*
X106102262Y-157729816D01*
X106229816Y-157602262D01*
X106325789Y-157449522D01*
X106385368Y-157279255D01*
X106385369Y-157279249D01*
X106405565Y-157100003D01*
X106405565Y-157099996D01*
X113794435Y-157099996D01*
X113794435Y-157100003D01*
X113814630Y-157279249D01*
X113814631Y-157279254D01*
X113874211Y-157449523D01*
X113970184Y-157602262D01*
X114097738Y-157729816D01*
X114250478Y-157825789D01*
X114420745Y-157885368D01*
X114420750Y-157885369D01*
X114599996Y-157905565D01*
X114600000Y-157905565D01*
X114600004Y-157905565D01*
X114779249Y-157885369D01*
X114779252Y-157885368D01*
X114779255Y-157885368D01*
X114949522Y-157825789D01*
X115102262Y-157729816D01*
X115229816Y-157602262D01*
X115325789Y-157449522D01*
X115385368Y-157279255D01*
X115385369Y-157279249D01*
X115405565Y-157100003D01*
X115405565Y-157099996D01*
X115385369Y-156920750D01*
X115385368Y-156920745D01*
X115325789Y-156750478D01*
X115229816Y-156597738D01*
X115102262Y-156470184D01*
X114949523Y-156374211D01*
X114779254Y-156314631D01*
X114779249Y-156314630D01*
X114600004Y-156294435D01*
X114599996Y-156294435D01*
X114420750Y-156314630D01*
X114420745Y-156314631D01*
X114250476Y-156374211D01*
X114097737Y-156470184D01*
X113970184Y-156597737D01*
X113874211Y-156750476D01*
X113814631Y-156920745D01*
X113814630Y-156920750D01*
X113794435Y-157099996D01*
X106405565Y-157099996D01*
X106385369Y-156920750D01*
X106385368Y-156920745D01*
X106325789Y-156750478D01*
X106229816Y-156597738D01*
X106102262Y-156470184D01*
X105949523Y-156374211D01*
X105779254Y-156314631D01*
X105779249Y-156314630D01*
X105600004Y-156294435D01*
X105599996Y-156294435D01*
X105420750Y-156314630D01*
X105420745Y-156314631D01*
X105250476Y-156374211D01*
X105097737Y-156470184D01*
X104970184Y-156597737D01*
X104874211Y-156750476D01*
X104814631Y-156920745D01*
X104814630Y-156920750D01*
X104794435Y-157099996D01*
X97405565Y-157099996D01*
X97385369Y-156920750D01*
X97385368Y-156920745D01*
X97325789Y-156750478D01*
X97229816Y-156597738D01*
X97102262Y-156470184D01*
X96949523Y-156374211D01*
X96779254Y-156314631D01*
X96779249Y-156314630D01*
X96600004Y-156294435D01*
X96599996Y-156294435D01*
X96420750Y-156314630D01*
X96420745Y-156314631D01*
X96250476Y-156374211D01*
X96097737Y-156470184D01*
X95970184Y-156597737D01*
X95874211Y-156750476D01*
X95814631Y-156920745D01*
X95814630Y-156920750D01*
X95794435Y-157099996D01*
X88405565Y-157099996D01*
X88385369Y-156920750D01*
X88385368Y-156920745D01*
X88325789Y-156750478D01*
X88229816Y-156597738D01*
X88102262Y-156470184D01*
X87949523Y-156374211D01*
X87779254Y-156314631D01*
X87779249Y-156314630D01*
X87600004Y-156294435D01*
X87599996Y-156294435D01*
X87420750Y-156314630D01*
X87420745Y-156314631D01*
X87250476Y-156374211D01*
X87097737Y-156470184D01*
X86970184Y-156597737D01*
X86874211Y-156750476D01*
X86814631Y-156920745D01*
X86814630Y-156920750D01*
X86794435Y-157099996D01*
X79405565Y-157099996D01*
X79385369Y-156920750D01*
X79385368Y-156920745D01*
X79325789Y-156750478D01*
X79229816Y-156597738D01*
X79102262Y-156470184D01*
X78949523Y-156374211D01*
X78779254Y-156314631D01*
X78779249Y-156314630D01*
X78600004Y-156294435D01*
X78599996Y-156294435D01*
X78420750Y-156314630D01*
X78420745Y-156314631D01*
X78250476Y-156374211D01*
X78097737Y-156470184D01*
X77970184Y-156597737D01*
X77874211Y-156750476D01*
X77814631Y-156920745D01*
X77814630Y-156920750D01*
X77794435Y-157099996D01*
X77231240Y-157099996D01*
X77325789Y-156949522D01*
X77385368Y-156779255D01*
X77385369Y-156779249D01*
X77405565Y-156600003D01*
X77405565Y-156599996D01*
X77385369Y-156420750D01*
X77385368Y-156420745D01*
X77325788Y-156250476D01*
X77229815Y-156097737D01*
X77102262Y-155970184D01*
X76949523Y-155874211D01*
X76779254Y-155814631D01*
X76779249Y-155814630D01*
X76600004Y-155794435D01*
X76599996Y-155794435D01*
X76420750Y-155814630D01*
X76420745Y-155814631D01*
X76250476Y-155874211D01*
X76097737Y-155970184D01*
X75970184Y-156097737D01*
X75874211Y-156250476D01*
X75814631Y-156420745D01*
X75814630Y-156420750D01*
X75794435Y-156599996D01*
X70231235Y-156599996D01*
X70229816Y-156597738D01*
X70102262Y-156470184D01*
X69949523Y-156374211D01*
X69779254Y-156314631D01*
X69779249Y-156314630D01*
X69600004Y-156294435D01*
X69599996Y-156294435D01*
X69420750Y-156314630D01*
X69420745Y-156314631D01*
X69250476Y-156374211D01*
X69097737Y-156470184D01*
X68970184Y-156597737D01*
X68874211Y-156750476D01*
X68814631Y-156920745D01*
X68814630Y-156920750D01*
X68794435Y-157099996D01*
X61405565Y-157099996D01*
X61385369Y-156920750D01*
X61385368Y-156920745D01*
X61325789Y-156750478D01*
X61229816Y-156597738D01*
X61102262Y-156470184D01*
X60949523Y-156374211D01*
X60779254Y-156314631D01*
X60779249Y-156314630D01*
X60600004Y-156294435D01*
X60599996Y-156294435D01*
X60420750Y-156314630D01*
X60420745Y-156314631D01*
X60250476Y-156374211D01*
X60097737Y-156470184D01*
X59970184Y-156597737D01*
X59874211Y-156750476D01*
X59814631Y-156920745D01*
X59814630Y-156920750D01*
X59794435Y-157099996D01*
X52405565Y-157099996D01*
X52385369Y-156920750D01*
X52385368Y-156920745D01*
X52325789Y-156750478D01*
X52229816Y-156597738D01*
X52102262Y-156470184D01*
X51949523Y-156374211D01*
X51779254Y-156314631D01*
X51779249Y-156314630D01*
X51600004Y-156294435D01*
X51599996Y-156294435D01*
X51420750Y-156314630D01*
X51420745Y-156314631D01*
X51250476Y-156374211D01*
X51097737Y-156470184D01*
X50970184Y-156597737D01*
X50874211Y-156750476D01*
X50814631Y-156920745D01*
X50814630Y-156920750D01*
X50794435Y-157099996D01*
X49100500Y-157099996D01*
X49100500Y-155199996D01*
X50494435Y-155199996D01*
X50494435Y-155200003D01*
X50514630Y-155379249D01*
X50514631Y-155379254D01*
X50574211Y-155549523D01*
X50670184Y-155702262D01*
X50797738Y-155829816D01*
X50950478Y-155925789D01*
X51077352Y-155970184D01*
X51120745Y-155985368D01*
X51120750Y-155985369D01*
X51299996Y-156005565D01*
X51300000Y-156005565D01*
X51300004Y-156005565D01*
X51479249Y-155985369D01*
X51479252Y-155985368D01*
X51479255Y-155985368D01*
X51649522Y-155925789D01*
X51802262Y-155829816D01*
X51929816Y-155702262D01*
X52025789Y-155549522D01*
X52085368Y-155379255D01*
X52105565Y-155200000D01*
X52103916Y-155185369D01*
X52085369Y-155020750D01*
X52085368Y-155020745D01*
X52025788Y-154850476D01*
X51929815Y-154697737D01*
X51802262Y-154570184D01*
X51649523Y-154474211D01*
X51479254Y-154414631D01*
X51479249Y-154414630D01*
X51349362Y-154399996D01*
X54594435Y-154399996D01*
X54594435Y-154400003D01*
X54614630Y-154579249D01*
X54614631Y-154579254D01*
X54674211Y-154749523D01*
X54737646Y-154850478D01*
X54770184Y-154902262D01*
X54897738Y-155029816D01*
X55050478Y-155125789D01*
X55220745Y-155185368D01*
X55220750Y-155185369D01*
X55399996Y-155205565D01*
X55400000Y-155205565D01*
X55400004Y-155205565D01*
X55579249Y-155185369D01*
X55579252Y-155185368D01*
X55579255Y-155185368D01*
X55749522Y-155125789D01*
X55902262Y-155029816D01*
X56029816Y-154902262D01*
X56125789Y-154749522D01*
X56185368Y-154579255D01*
X56197204Y-154474211D01*
X56205565Y-154400003D01*
X56205565Y-154399996D01*
X59194435Y-154399996D01*
X59194435Y-154400003D01*
X59214630Y-154579249D01*
X59214631Y-154579254D01*
X59274211Y-154749523D01*
X59337646Y-154850478D01*
X59370184Y-154902262D01*
X59497738Y-155029816D01*
X59650478Y-155125789D01*
X59820745Y-155185368D01*
X59820750Y-155185369D01*
X59999996Y-155205565D01*
X60000000Y-155205565D01*
X60000004Y-155205565D01*
X60179249Y-155185369D01*
X60179252Y-155185368D01*
X60179255Y-155185368D01*
X60349522Y-155125789D01*
X60502262Y-155029816D01*
X60629816Y-154902262D01*
X60725789Y-154749522D01*
X60785368Y-154579255D01*
X60797204Y-154474211D01*
X60805565Y-154400003D01*
X60805565Y-154399996D01*
X63594435Y-154399996D01*
X63594435Y-154400003D01*
X63614630Y-154579249D01*
X63614631Y-154579254D01*
X63674211Y-154749523D01*
X63737646Y-154850478D01*
X63770184Y-154902262D01*
X63897738Y-155029816D01*
X64050478Y-155125789D01*
X64220745Y-155185368D01*
X64220750Y-155185369D01*
X64399996Y-155205565D01*
X64400000Y-155205565D01*
X64400004Y-155205565D01*
X64579249Y-155185369D01*
X64579252Y-155185368D01*
X64579255Y-155185368D01*
X64749522Y-155125789D01*
X64902262Y-155029816D01*
X65029816Y-154902262D01*
X65125789Y-154749522D01*
X65185368Y-154579255D01*
X65197204Y-154474211D01*
X65205565Y-154400003D01*
X65205565Y-154399996D01*
X68194435Y-154399996D01*
X68194435Y-154400003D01*
X68214630Y-154579249D01*
X68214631Y-154579254D01*
X68274211Y-154749523D01*
X68337646Y-154850478D01*
X68370184Y-154902262D01*
X68497738Y-155029816D01*
X68650478Y-155125789D01*
X68820745Y-155185368D01*
X68820750Y-155185369D01*
X68999996Y-155205565D01*
X69000000Y-155205565D01*
X69000004Y-155205565D01*
X69179249Y-155185369D01*
X69179252Y-155185368D01*
X69179255Y-155185368D01*
X69349522Y-155125789D01*
X69502262Y-155029816D01*
X69629816Y-154902262D01*
X69725789Y-154749522D01*
X69785368Y-154579255D01*
X69797204Y-154474211D01*
X69805565Y-154400003D01*
X69805565Y-154399996D01*
X72594435Y-154399996D01*
X72594435Y-154400003D01*
X72614630Y-154579249D01*
X72614631Y-154579254D01*
X72674211Y-154749523D01*
X72737646Y-154850478D01*
X72770184Y-154902262D01*
X72897738Y-155029816D01*
X73050478Y-155125789D01*
X73220745Y-155185368D01*
X73220750Y-155185369D01*
X73399996Y-155205565D01*
X73400000Y-155205565D01*
X73400004Y-155205565D01*
X73579249Y-155185369D01*
X73579252Y-155185368D01*
X73579255Y-155185368D01*
X73749522Y-155125789D01*
X73902262Y-155029816D01*
X74029816Y-154902262D01*
X74125789Y-154749522D01*
X74185368Y-154579255D01*
X74197204Y-154474211D01*
X74205565Y-154400003D01*
X74205565Y-154399996D01*
X77194435Y-154399996D01*
X77194435Y-154400003D01*
X77214630Y-154579249D01*
X77214631Y-154579254D01*
X77274211Y-154749523D01*
X77337646Y-154850478D01*
X77370184Y-154902262D01*
X77497738Y-155029816D01*
X77650478Y-155125789D01*
X77820745Y-155185368D01*
X77820750Y-155185369D01*
X77999996Y-155205565D01*
X78000000Y-155205565D01*
X78000004Y-155205565D01*
X78179249Y-155185369D01*
X78179252Y-155185368D01*
X78179255Y-155185368D01*
X78349522Y-155125789D01*
X78502262Y-155029816D01*
X78629816Y-154902262D01*
X78725789Y-154749522D01*
X78785368Y-154579255D01*
X78797204Y-154474211D01*
X78805565Y-154400003D01*
X78805565Y-154399996D01*
X81594435Y-154399996D01*
X81594435Y-154400003D01*
X81614630Y-154579249D01*
X81614631Y-154579254D01*
X81674211Y-154749523D01*
X81737646Y-154850478D01*
X81770184Y-154902262D01*
X81897738Y-155029816D01*
X82050478Y-155125789D01*
X82220745Y-155185368D01*
X82220750Y-155185369D01*
X82399996Y-155205565D01*
X82400000Y-155205565D01*
X82400004Y-155205565D01*
X82579249Y-155185369D01*
X82579252Y-155185368D01*
X82579255Y-155185368D01*
X82749522Y-155125789D01*
X82902262Y-155029816D01*
X83029816Y-154902262D01*
X83125789Y-154749522D01*
X83185368Y-154579255D01*
X83197204Y-154474211D01*
X83205565Y-154400003D01*
X83205565Y-154399996D01*
X86194435Y-154399996D01*
X86194435Y-154400003D01*
X86214630Y-154579249D01*
X86214631Y-154579254D01*
X86274211Y-154749523D01*
X86337646Y-154850478D01*
X86370184Y-154902262D01*
X86497738Y-155029816D01*
X86650478Y-155125789D01*
X86820745Y-155185368D01*
X86820750Y-155185369D01*
X86999996Y-155205565D01*
X87000000Y-155205565D01*
X87000004Y-155205565D01*
X87179249Y-155185369D01*
X87179252Y-155185368D01*
X87179255Y-155185368D01*
X87349522Y-155125789D01*
X87502262Y-155029816D01*
X87629816Y-154902262D01*
X87725789Y-154749522D01*
X87785368Y-154579255D01*
X87797204Y-154474211D01*
X87805565Y-154400003D01*
X87805565Y-154399996D01*
X90594435Y-154399996D01*
X90594435Y-154400003D01*
X90614630Y-154579249D01*
X90614631Y-154579254D01*
X90674211Y-154749523D01*
X90737646Y-154850478D01*
X90770184Y-154902262D01*
X90897738Y-155029816D01*
X91050478Y-155125789D01*
X91220745Y-155185368D01*
X91220750Y-155185369D01*
X91399996Y-155205565D01*
X91400000Y-155205565D01*
X91400004Y-155205565D01*
X91579249Y-155185369D01*
X91579252Y-155185368D01*
X91579255Y-155185368D01*
X91749522Y-155125789D01*
X91902262Y-155029816D01*
X92029816Y-154902262D01*
X92125789Y-154749522D01*
X92185368Y-154579255D01*
X92197204Y-154474211D01*
X92205565Y-154400003D01*
X92205565Y-154399996D01*
X95194435Y-154399996D01*
X95194435Y-154400003D01*
X95214630Y-154579249D01*
X95214631Y-154579254D01*
X95274211Y-154749523D01*
X95337646Y-154850478D01*
X95370184Y-154902262D01*
X95497738Y-155029816D01*
X95650478Y-155125789D01*
X95820745Y-155185368D01*
X95820750Y-155185369D01*
X95999996Y-155205565D01*
X96000000Y-155205565D01*
X96000004Y-155205565D01*
X96179249Y-155185369D01*
X96179252Y-155185368D01*
X96179255Y-155185368D01*
X96349522Y-155125789D01*
X96502262Y-155029816D01*
X96629816Y-154902262D01*
X96725789Y-154749522D01*
X96785368Y-154579255D01*
X96797204Y-154474211D01*
X96805565Y-154400003D01*
X96805565Y-154399996D01*
X99694435Y-154399996D01*
X99694435Y-154400003D01*
X99714630Y-154579249D01*
X99714631Y-154579254D01*
X99774211Y-154749523D01*
X99837646Y-154850478D01*
X99870184Y-154902262D01*
X99997738Y-155029816D01*
X100150478Y-155125789D01*
X100320745Y-155185368D01*
X100320750Y-155185369D01*
X100499996Y-155205565D01*
X100500000Y-155205565D01*
X100500004Y-155205565D01*
X100679249Y-155185369D01*
X100679252Y-155185368D01*
X100679255Y-155185368D01*
X100849522Y-155125789D01*
X101002262Y-155029816D01*
X101129816Y-154902262D01*
X101225789Y-154749522D01*
X101285368Y-154579255D01*
X101297204Y-154474211D01*
X101305565Y-154400003D01*
X101305565Y-154399996D01*
X104194435Y-154399996D01*
X104194435Y-154400003D01*
X104214630Y-154579249D01*
X104214631Y-154579254D01*
X104274211Y-154749523D01*
X104337646Y-154850478D01*
X104370184Y-154902262D01*
X104497738Y-155029816D01*
X104650478Y-155125789D01*
X104820745Y-155185368D01*
X104820750Y-155185369D01*
X104999996Y-155205565D01*
X105000000Y-155205565D01*
X105000004Y-155205565D01*
X105179249Y-155185369D01*
X105179252Y-155185368D01*
X105179255Y-155185368D01*
X105349522Y-155125789D01*
X105502262Y-155029816D01*
X105629816Y-154902262D01*
X105725789Y-154749522D01*
X105785368Y-154579255D01*
X105797204Y-154474211D01*
X105805565Y-154400003D01*
X105805565Y-154399996D01*
X108594435Y-154399996D01*
X108594435Y-154400003D01*
X108614630Y-154579249D01*
X108614631Y-154579254D01*
X108674211Y-154749523D01*
X108737646Y-154850478D01*
X108770184Y-154902262D01*
X108897738Y-155029816D01*
X109050478Y-155125789D01*
X109220745Y-155185368D01*
X109220750Y-155185369D01*
X109399996Y-155205565D01*
X109400000Y-155205565D01*
X109400004Y-155205565D01*
X109579249Y-155185369D01*
X109579252Y-155185368D01*
X109579255Y-155185368D01*
X109749522Y-155125789D01*
X109902262Y-155029816D01*
X110029816Y-154902262D01*
X110125789Y-154749522D01*
X110185368Y-154579255D01*
X110197204Y-154474211D01*
X110205565Y-154400003D01*
X110205565Y-154399996D01*
X113194435Y-154399996D01*
X113194435Y-154400003D01*
X113214630Y-154579249D01*
X113214631Y-154579254D01*
X113274211Y-154749523D01*
X113337646Y-154850478D01*
X113370184Y-154902262D01*
X113497738Y-155029816D01*
X113650478Y-155125789D01*
X113820745Y-155185368D01*
X113820750Y-155185369D01*
X113999996Y-155205565D01*
X114000000Y-155205565D01*
X114000004Y-155205565D01*
X114179249Y-155185369D01*
X114179252Y-155185368D01*
X114179255Y-155185368D01*
X114349522Y-155125789D01*
X114502262Y-155029816D01*
X114629816Y-154902262D01*
X114725789Y-154749522D01*
X114785368Y-154579255D01*
X114797204Y-154474211D01*
X114805565Y-154400003D01*
X114805565Y-154399996D01*
X117594435Y-154399996D01*
X117594435Y-154400003D01*
X117614630Y-154579249D01*
X117614631Y-154579254D01*
X117674211Y-154749523D01*
X117737646Y-154850478D01*
X117770184Y-154902262D01*
X117897738Y-155029816D01*
X118050478Y-155125789D01*
X118220745Y-155185368D01*
X118220750Y-155185369D01*
X118399996Y-155205565D01*
X118400000Y-155205565D01*
X118400004Y-155205565D01*
X118579249Y-155185369D01*
X118579252Y-155185368D01*
X118579255Y-155185368D01*
X118749522Y-155125789D01*
X118902262Y-155029816D01*
X119029816Y-154902262D01*
X119125789Y-154749522D01*
X119185368Y-154579255D01*
X119197204Y-154474211D01*
X119205565Y-154400003D01*
X119205565Y-154399996D01*
X119185369Y-154220750D01*
X119185368Y-154220745D01*
X119125788Y-154050476D01*
X119029815Y-153897737D01*
X118902262Y-153770184D01*
X118749523Y-153674211D01*
X118579254Y-153614631D01*
X118579249Y-153614630D01*
X118400004Y-153594435D01*
X118399996Y-153594435D01*
X118220750Y-153614630D01*
X118220745Y-153614631D01*
X118050476Y-153674211D01*
X117897737Y-153770184D01*
X117770184Y-153897737D01*
X117674211Y-154050476D01*
X117614631Y-154220745D01*
X117614630Y-154220750D01*
X117594435Y-154399996D01*
X114805565Y-154399996D01*
X114785369Y-154220750D01*
X114785368Y-154220745D01*
X114725788Y-154050476D01*
X114629815Y-153897737D01*
X114502262Y-153770184D01*
X114349523Y-153674211D01*
X114179254Y-153614631D01*
X114179249Y-153614630D01*
X114000004Y-153594435D01*
X113999996Y-153594435D01*
X113820750Y-153614630D01*
X113820745Y-153614631D01*
X113650476Y-153674211D01*
X113497737Y-153770184D01*
X113370184Y-153897737D01*
X113274211Y-154050476D01*
X113214631Y-154220745D01*
X113214630Y-154220750D01*
X113194435Y-154399996D01*
X110205565Y-154399996D01*
X110185369Y-154220750D01*
X110185368Y-154220745D01*
X110125788Y-154050476D01*
X110029815Y-153897737D01*
X109902262Y-153770184D01*
X109749523Y-153674211D01*
X109579254Y-153614631D01*
X109579249Y-153614630D01*
X109400004Y-153594435D01*
X109399996Y-153594435D01*
X109220750Y-153614630D01*
X109220745Y-153614631D01*
X109050476Y-153674211D01*
X108897737Y-153770184D01*
X108770184Y-153897737D01*
X108674211Y-154050476D01*
X108614631Y-154220745D01*
X108614630Y-154220750D01*
X108594435Y-154399996D01*
X105805565Y-154399996D01*
X105785369Y-154220750D01*
X105785368Y-154220745D01*
X105725788Y-154050476D01*
X105629815Y-153897737D01*
X105502262Y-153770184D01*
X105349523Y-153674211D01*
X105179254Y-153614631D01*
X105179249Y-153614630D01*
X105000004Y-153594435D01*
X104999996Y-153594435D01*
X104820750Y-153614630D01*
X104820745Y-153614631D01*
X104650476Y-153674211D01*
X104497737Y-153770184D01*
X104370184Y-153897737D01*
X104274211Y-154050476D01*
X104214631Y-154220745D01*
X104214630Y-154220750D01*
X104194435Y-154399996D01*
X101305565Y-154399996D01*
X101285369Y-154220750D01*
X101285368Y-154220745D01*
X101225788Y-154050476D01*
X101129815Y-153897737D01*
X101002262Y-153770184D01*
X100849523Y-153674211D01*
X100679254Y-153614631D01*
X100679249Y-153614630D01*
X100500004Y-153594435D01*
X100499996Y-153594435D01*
X100320750Y-153614630D01*
X100320745Y-153614631D01*
X100150476Y-153674211D01*
X99997737Y-153770184D01*
X99870184Y-153897737D01*
X99774211Y-154050476D01*
X99714631Y-154220745D01*
X99714630Y-154220750D01*
X99694435Y-154399996D01*
X96805565Y-154399996D01*
X96785369Y-154220750D01*
X96785368Y-154220745D01*
X96725788Y-154050476D01*
X96629815Y-153897737D01*
X96502262Y-153770184D01*
X96349523Y-153674211D01*
X96179254Y-153614631D01*
X96179249Y-153614630D01*
X96000004Y-153594435D01*
X95999996Y-153594435D01*
X95820750Y-153614630D01*
X95820745Y-153614631D01*
X95650476Y-153674211D01*
X95497737Y-153770184D01*
X95370184Y-153897737D01*
X95274211Y-154050476D01*
X95214631Y-154220745D01*
X95214630Y-154220750D01*
X95194435Y-154399996D01*
X92205565Y-154399996D01*
X92185369Y-154220750D01*
X92185368Y-154220745D01*
X92125788Y-154050476D01*
X92029815Y-153897737D01*
X91902262Y-153770184D01*
X91749523Y-153674211D01*
X91579254Y-153614631D01*
X91579249Y-153614630D01*
X91400004Y-153594435D01*
X91399996Y-153594435D01*
X91220750Y-153614630D01*
X91220745Y-153614631D01*
X91050476Y-153674211D01*
X90897737Y-153770184D01*
X90770184Y-153897737D01*
X90674211Y-154050476D01*
X90614631Y-154220745D01*
X90614630Y-154220750D01*
X90594435Y-154399996D01*
X87805565Y-154399996D01*
X87785369Y-154220750D01*
X87785368Y-154220745D01*
X87725788Y-154050476D01*
X87629815Y-153897737D01*
X87502262Y-153770184D01*
X87349523Y-153674211D01*
X87179254Y-153614631D01*
X87179249Y-153614630D01*
X87000004Y-153594435D01*
X86999996Y-153594435D01*
X86820750Y-153614630D01*
X86820745Y-153614631D01*
X86650476Y-153674211D01*
X86497737Y-153770184D01*
X86370184Y-153897737D01*
X86274211Y-154050476D01*
X86214631Y-154220745D01*
X86214630Y-154220750D01*
X86194435Y-154399996D01*
X83205565Y-154399996D01*
X83185369Y-154220750D01*
X83185368Y-154220745D01*
X83125788Y-154050476D01*
X83029815Y-153897737D01*
X82902262Y-153770184D01*
X82749523Y-153674211D01*
X82579254Y-153614631D01*
X82579249Y-153614630D01*
X82400004Y-153594435D01*
X82399996Y-153594435D01*
X82220750Y-153614630D01*
X82220745Y-153614631D01*
X82050476Y-153674211D01*
X81897737Y-153770184D01*
X81770184Y-153897737D01*
X81674211Y-154050476D01*
X81614631Y-154220745D01*
X81614630Y-154220750D01*
X81594435Y-154399996D01*
X78805565Y-154399996D01*
X78785369Y-154220750D01*
X78785368Y-154220745D01*
X78725788Y-154050476D01*
X78629815Y-153897737D01*
X78502262Y-153770184D01*
X78349523Y-153674211D01*
X78179254Y-153614631D01*
X78179249Y-153614630D01*
X78000004Y-153594435D01*
X77999996Y-153594435D01*
X77820750Y-153614630D01*
X77820745Y-153614631D01*
X77650476Y-153674211D01*
X77497737Y-153770184D01*
X77370184Y-153897737D01*
X77274211Y-154050476D01*
X77214631Y-154220745D01*
X77214630Y-154220750D01*
X77194435Y-154399996D01*
X74205565Y-154399996D01*
X74185369Y-154220750D01*
X74185368Y-154220745D01*
X74125788Y-154050476D01*
X74029815Y-153897737D01*
X73902262Y-153770184D01*
X73749523Y-153674211D01*
X73579254Y-153614631D01*
X73579249Y-153614630D01*
X73400004Y-153594435D01*
X73399996Y-153594435D01*
X73220750Y-153614630D01*
X73220745Y-153614631D01*
X73050476Y-153674211D01*
X72897737Y-153770184D01*
X72770184Y-153897737D01*
X72674211Y-154050476D01*
X72614631Y-154220745D01*
X72614630Y-154220750D01*
X72594435Y-154399996D01*
X69805565Y-154399996D01*
X69785369Y-154220750D01*
X69785368Y-154220745D01*
X69725788Y-154050476D01*
X69629815Y-153897737D01*
X69502262Y-153770184D01*
X69349523Y-153674211D01*
X69179254Y-153614631D01*
X69179249Y-153614630D01*
X69000004Y-153594435D01*
X68999996Y-153594435D01*
X68820750Y-153614630D01*
X68820745Y-153614631D01*
X68650476Y-153674211D01*
X68497737Y-153770184D01*
X68370184Y-153897737D01*
X68274211Y-154050476D01*
X68214631Y-154220745D01*
X68214630Y-154220750D01*
X68194435Y-154399996D01*
X65205565Y-154399996D01*
X65185369Y-154220750D01*
X65185368Y-154220745D01*
X65125788Y-154050476D01*
X65029815Y-153897737D01*
X64902262Y-153770184D01*
X64749523Y-153674211D01*
X64579254Y-153614631D01*
X64579249Y-153614630D01*
X64400004Y-153594435D01*
X64399996Y-153594435D01*
X64220750Y-153614630D01*
X64220745Y-153614631D01*
X64050476Y-153674211D01*
X63897737Y-153770184D01*
X63770184Y-153897737D01*
X63674211Y-154050476D01*
X63614631Y-154220745D01*
X63614630Y-154220750D01*
X63594435Y-154399996D01*
X60805565Y-154399996D01*
X60785369Y-154220750D01*
X60785368Y-154220745D01*
X60725788Y-154050476D01*
X60629815Y-153897737D01*
X60502262Y-153770184D01*
X60349523Y-153674211D01*
X60179254Y-153614631D01*
X60179249Y-153614630D01*
X60000004Y-153594435D01*
X59999996Y-153594435D01*
X59820750Y-153614630D01*
X59820745Y-153614631D01*
X59650476Y-153674211D01*
X59497737Y-153770184D01*
X59370184Y-153897737D01*
X59274211Y-154050476D01*
X59214631Y-154220745D01*
X59214630Y-154220750D01*
X59194435Y-154399996D01*
X56205565Y-154399996D01*
X56185369Y-154220750D01*
X56185368Y-154220745D01*
X56125788Y-154050476D01*
X56029815Y-153897737D01*
X55902262Y-153770184D01*
X55749523Y-153674211D01*
X55579254Y-153614631D01*
X55579249Y-153614630D01*
X55400004Y-153594435D01*
X55399996Y-153594435D01*
X55220750Y-153614630D01*
X55220745Y-153614631D01*
X55050476Y-153674211D01*
X54897737Y-153770184D01*
X54770184Y-153897737D01*
X54674211Y-154050476D01*
X54614631Y-154220745D01*
X54614630Y-154220750D01*
X54594435Y-154399996D01*
X51349362Y-154399996D01*
X51300004Y-154394435D01*
X51299996Y-154394435D01*
X51120750Y-154414630D01*
X51120745Y-154414631D01*
X50950476Y-154474211D01*
X50797737Y-154570184D01*
X50670184Y-154697737D01*
X50574211Y-154850476D01*
X50514631Y-155020745D01*
X50514630Y-155020750D01*
X50494435Y-155199996D01*
X49100500Y-155199996D01*
X49100500Y-152649996D01*
X75894435Y-152649996D01*
X75894435Y-152650003D01*
X75914630Y-152829249D01*
X75914631Y-152829254D01*
X75974211Y-152999523D01*
X76070184Y-153152262D01*
X76197738Y-153279816D01*
X76350478Y-153375789D01*
X76520745Y-153435368D01*
X76520750Y-153435369D01*
X76699996Y-153455565D01*
X76700000Y-153455565D01*
X76700004Y-153455565D01*
X76879249Y-153435369D01*
X76879252Y-153435368D01*
X76879255Y-153435368D01*
X77049522Y-153375789D01*
X77202262Y-153279816D01*
X77329816Y-153152262D01*
X77425789Y-152999522D01*
X77485368Y-152829255D01*
X77505565Y-152650000D01*
X77485368Y-152470745D01*
X77425789Y-152300478D01*
X77329816Y-152147738D01*
X77202262Y-152020184D01*
X77049523Y-151924211D01*
X76879254Y-151864631D01*
X76879249Y-151864630D01*
X76700004Y-151844435D01*
X76699996Y-151844435D01*
X76520750Y-151864630D01*
X76520745Y-151864631D01*
X76350476Y-151924211D01*
X76197737Y-152020184D01*
X76070184Y-152147737D01*
X75974211Y-152300476D01*
X75914631Y-152470745D01*
X75914630Y-152470750D01*
X75894435Y-152649996D01*
X49100500Y-152649996D01*
X49100500Y-150704720D01*
X50699159Y-150704720D01*
X50699159Y-150704727D01*
X50719354Y-150883973D01*
X50719355Y-150883978D01*
X50778935Y-151054247D01*
X50871940Y-151202262D01*
X50874908Y-151206986D01*
X51002462Y-151334540D01*
X51092804Y-151391306D01*
X51147683Y-151425789D01*
X51155202Y-151430513D01*
X51325469Y-151490092D01*
X51325474Y-151490093D01*
X51504720Y-151510289D01*
X51504724Y-151510289D01*
X51504728Y-151510289D01*
X51683973Y-151490093D01*
X51683976Y-151490092D01*
X51683979Y-151490092D01*
X51854246Y-151430513D01*
X52006986Y-151334540D01*
X52134540Y-151206986D01*
X52230513Y-151054246D01*
X52290092Y-150883979D01*
X52290093Y-150883973D01*
X52310289Y-150704727D01*
X52310289Y-150704720D01*
X52309757Y-150699996D01*
X54794435Y-150699996D01*
X54794435Y-150700003D01*
X54814630Y-150879249D01*
X54814631Y-150879254D01*
X54874211Y-151049523D01*
X54970184Y-151202262D01*
X55097738Y-151329816D01*
X55250478Y-151425789D01*
X55420745Y-151485368D01*
X55420750Y-151485369D01*
X55599996Y-151505565D01*
X55600000Y-151505565D01*
X55600004Y-151505565D01*
X55779249Y-151485369D01*
X55779252Y-151485368D01*
X55779255Y-151485368D01*
X55949522Y-151425789D01*
X56102262Y-151329816D01*
X56229816Y-151202262D01*
X56325789Y-151049522D01*
X56385368Y-150879255D01*
X56385369Y-150879249D01*
X56405034Y-150704720D01*
X59699159Y-150704720D01*
X59699159Y-150704727D01*
X59719354Y-150883973D01*
X59719355Y-150883978D01*
X59778935Y-151054247D01*
X59871940Y-151202262D01*
X59874908Y-151206986D01*
X60002462Y-151334540D01*
X60092804Y-151391306D01*
X60147683Y-151425789D01*
X60155202Y-151430513D01*
X60325469Y-151490092D01*
X60325474Y-151490093D01*
X60504720Y-151510289D01*
X60504724Y-151510289D01*
X60504728Y-151510289D01*
X60683973Y-151490093D01*
X60683976Y-151490092D01*
X60683979Y-151490092D01*
X60854246Y-151430513D01*
X61006986Y-151334540D01*
X61134540Y-151206986D01*
X61230513Y-151054246D01*
X61290092Y-150883979D01*
X61290093Y-150883973D01*
X61310289Y-150704727D01*
X61310289Y-150704720D01*
X64099159Y-150704720D01*
X64099159Y-150704727D01*
X64119354Y-150883973D01*
X64119355Y-150883978D01*
X64178935Y-151054247D01*
X64271940Y-151202262D01*
X64274908Y-151206986D01*
X64402462Y-151334540D01*
X64492804Y-151391306D01*
X64547683Y-151425789D01*
X64555202Y-151430513D01*
X64725469Y-151490092D01*
X64725474Y-151490093D01*
X64904720Y-151510289D01*
X64904724Y-151510289D01*
X64904728Y-151510289D01*
X65083973Y-151490093D01*
X65083976Y-151490092D01*
X65083979Y-151490092D01*
X65254246Y-151430513D01*
X65406986Y-151334540D01*
X65534540Y-151206986D01*
X65630513Y-151054246D01*
X65690092Y-150883979D01*
X65690093Y-150883973D01*
X65710289Y-150704727D01*
X65710289Y-150704720D01*
X68699159Y-150704720D01*
X68699159Y-150704727D01*
X68719354Y-150883973D01*
X68719355Y-150883978D01*
X68778935Y-151054247D01*
X68871940Y-151202262D01*
X68874908Y-151206986D01*
X69002462Y-151334540D01*
X69092804Y-151391306D01*
X69147683Y-151425789D01*
X69155202Y-151430513D01*
X69325469Y-151490092D01*
X69325474Y-151490093D01*
X69504720Y-151510289D01*
X69504724Y-151510289D01*
X69504728Y-151510289D01*
X69683973Y-151490093D01*
X69683976Y-151490092D01*
X69683979Y-151490092D01*
X69854246Y-151430513D01*
X70006986Y-151334540D01*
X70134540Y-151206986D01*
X70230513Y-151054246D01*
X70290092Y-150883979D01*
X70290093Y-150883973D01*
X70310289Y-150704727D01*
X70310289Y-150704720D01*
X70309757Y-150699996D01*
X72556935Y-150699996D01*
X72556935Y-150700003D01*
X72577130Y-150879249D01*
X72577131Y-150879254D01*
X72636711Y-151049523D01*
X72732684Y-151202262D01*
X72860238Y-151329816D01*
X73012978Y-151425789D01*
X73183245Y-151485368D01*
X73183250Y-151485369D01*
X73362496Y-151505565D01*
X73362500Y-151505565D01*
X73362504Y-151505565D01*
X73541749Y-151485369D01*
X73541752Y-151485368D01*
X73541755Y-151485368D01*
X73712022Y-151425789D01*
X73864762Y-151329816D01*
X73992316Y-151202262D01*
X74088289Y-151049522D01*
X74147868Y-150879255D01*
X74147869Y-150879249D01*
X74167534Y-150704720D01*
X77699159Y-150704720D01*
X77699159Y-150704727D01*
X77719354Y-150883973D01*
X77719355Y-150883978D01*
X77778935Y-151054247D01*
X77871940Y-151202262D01*
X77874908Y-151206986D01*
X78002462Y-151334540D01*
X78092804Y-151391306D01*
X78147683Y-151425789D01*
X78155202Y-151430513D01*
X78325469Y-151490092D01*
X78325474Y-151490093D01*
X78504720Y-151510289D01*
X78504724Y-151510289D01*
X78504728Y-151510289D01*
X78683973Y-151490093D01*
X78683976Y-151490092D01*
X78683979Y-151490092D01*
X78854246Y-151430513D01*
X79006986Y-151334540D01*
X79134540Y-151206986D01*
X79230513Y-151054246D01*
X79290092Y-150883979D01*
X79290093Y-150883973D01*
X79310289Y-150704727D01*
X79310289Y-150704720D01*
X79309757Y-150699996D01*
X81556935Y-150699996D01*
X81556935Y-150700003D01*
X81577130Y-150879249D01*
X81577131Y-150879254D01*
X81636711Y-151049523D01*
X81732684Y-151202262D01*
X81860238Y-151329816D01*
X82012978Y-151425789D01*
X82183245Y-151485368D01*
X82183250Y-151485369D01*
X82362496Y-151505565D01*
X82362500Y-151505565D01*
X82362504Y-151505565D01*
X82541749Y-151485369D01*
X82541752Y-151485368D01*
X82541755Y-151485368D01*
X82712022Y-151425789D01*
X82864762Y-151329816D01*
X82992316Y-151202262D01*
X83088289Y-151049522D01*
X83147868Y-150879255D01*
X83147869Y-150879249D01*
X83167534Y-150704720D01*
X86699159Y-150704720D01*
X86699159Y-150704727D01*
X86719354Y-150883973D01*
X86719355Y-150883978D01*
X86778935Y-151054247D01*
X86871940Y-151202262D01*
X86874908Y-151206986D01*
X87002462Y-151334540D01*
X87092804Y-151391306D01*
X87147683Y-151425789D01*
X87155202Y-151430513D01*
X87325469Y-151490092D01*
X87325474Y-151490093D01*
X87504720Y-151510289D01*
X87504724Y-151510289D01*
X87504728Y-151510289D01*
X87683973Y-151490093D01*
X87683976Y-151490092D01*
X87683979Y-151490092D01*
X87854246Y-151430513D01*
X88006986Y-151334540D01*
X88134540Y-151206986D01*
X88230513Y-151054246D01*
X88290092Y-150883979D01*
X88290093Y-150883973D01*
X88310289Y-150704727D01*
X88310289Y-150704720D01*
X88309757Y-150699996D01*
X90556935Y-150699996D01*
X90556935Y-150700003D01*
X90577130Y-150879249D01*
X90577131Y-150879254D01*
X90636711Y-151049523D01*
X90732684Y-151202262D01*
X90860238Y-151329816D01*
X91012978Y-151425789D01*
X91183245Y-151485368D01*
X91183250Y-151485369D01*
X91362496Y-151505565D01*
X91362500Y-151505565D01*
X91362504Y-151505565D01*
X91541749Y-151485369D01*
X91541752Y-151485368D01*
X91541755Y-151485368D01*
X91712022Y-151425789D01*
X91864762Y-151329816D01*
X91992316Y-151202262D01*
X92088289Y-151049522D01*
X92147868Y-150879255D01*
X92147869Y-150879249D01*
X92167534Y-150704720D01*
X95699159Y-150704720D01*
X95699159Y-150704727D01*
X95719354Y-150883973D01*
X95719355Y-150883978D01*
X95778935Y-151054247D01*
X95871940Y-151202262D01*
X95874908Y-151206986D01*
X96002462Y-151334540D01*
X96092804Y-151391306D01*
X96147683Y-151425789D01*
X96155202Y-151430513D01*
X96325469Y-151490092D01*
X96325474Y-151490093D01*
X96504720Y-151510289D01*
X96504724Y-151510289D01*
X96504728Y-151510289D01*
X96683973Y-151490093D01*
X96683976Y-151490092D01*
X96683979Y-151490092D01*
X96854246Y-151430513D01*
X97006986Y-151334540D01*
X97134540Y-151206986D01*
X97230513Y-151054246D01*
X97290092Y-150883979D01*
X97290093Y-150883973D01*
X97310289Y-150704727D01*
X97310289Y-150704720D01*
X97309757Y-150699996D01*
X99556935Y-150699996D01*
X99556935Y-150700003D01*
X99577130Y-150879249D01*
X99577131Y-150879254D01*
X99636711Y-151049523D01*
X99732684Y-151202262D01*
X99860238Y-151329816D01*
X100012978Y-151425789D01*
X100183245Y-151485368D01*
X100183250Y-151485369D01*
X100362496Y-151505565D01*
X100362500Y-151505565D01*
X100362504Y-151505565D01*
X100541749Y-151485369D01*
X100541752Y-151485368D01*
X100541755Y-151485368D01*
X100712022Y-151425789D01*
X100864762Y-151329816D01*
X100992316Y-151202262D01*
X101088289Y-151049522D01*
X101147868Y-150879255D01*
X101147869Y-150879249D01*
X101167534Y-150704720D01*
X104699159Y-150704720D01*
X104699159Y-150704727D01*
X104719354Y-150883973D01*
X104719355Y-150883978D01*
X104778935Y-151054247D01*
X104871940Y-151202262D01*
X104874908Y-151206986D01*
X105002462Y-151334540D01*
X105092804Y-151391306D01*
X105147683Y-151425789D01*
X105155202Y-151430513D01*
X105325469Y-151490092D01*
X105325474Y-151490093D01*
X105504720Y-151510289D01*
X105504724Y-151510289D01*
X105504728Y-151510289D01*
X105683973Y-151490093D01*
X105683976Y-151490092D01*
X105683979Y-151490092D01*
X105854246Y-151430513D01*
X106006986Y-151334540D01*
X106134540Y-151206986D01*
X106230513Y-151054246D01*
X106290092Y-150883979D01*
X106290093Y-150883973D01*
X106310289Y-150704727D01*
X106310289Y-150704720D01*
X106309757Y-150699996D01*
X108556935Y-150699996D01*
X108556935Y-150700003D01*
X108577130Y-150879249D01*
X108577131Y-150879254D01*
X108636711Y-151049523D01*
X108732684Y-151202262D01*
X108860238Y-151329816D01*
X109012978Y-151425789D01*
X109183245Y-151485368D01*
X109183250Y-151485369D01*
X109362496Y-151505565D01*
X109362500Y-151505565D01*
X109362504Y-151505565D01*
X109541749Y-151485369D01*
X109541752Y-151485368D01*
X109541755Y-151485368D01*
X109712022Y-151425789D01*
X109864762Y-151329816D01*
X109992316Y-151202262D01*
X110088289Y-151049522D01*
X110147868Y-150879255D01*
X110147869Y-150879249D01*
X110168065Y-150700003D01*
X110168065Y-150699996D01*
X113694435Y-150699996D01*
X113694435Y-150700003D01*
X113714630Y-150879249D01*
X113714631Y-150879254D01*
X113774211Y-151049523D01*
X113870184Y-151202262D01*
X113997738Y-151329816D01*
X114150478Y-151425789D01*
X114320745Y-151485368D01*
X114320750Y-151485369D01*
X114499996Y-151505565D01*
X114500000Y-151505565D01*
X114500004Y-151505565D01*
X114679249Y-151485369D01*
X114679252Y-151485368D01*
X114679255Y-151485368D01*
X114849522Y-151425789D01*
X115002262Y-151329816D01*
X115129816Y-151202262D01*
X115225789Y-151049522D01*
X115285368Y-150879255D01*
X115285369Y-150879249D01*
X115305565Y-150700003D01*
X115305565Y-150699996D01*
X117594435Y-150699996D01*
X117594435Y-150700003D01*
X117614630Y-150879249D01*
X117614631Y-150879254D01*
X117674211Y-151049523D01*
X117770184Y-151202262D01*
X117897738Y-151329816D01*
X118050478Y-151425789D01*
X118220745Y-151485368D01*
X118220750Y-151485369D01*
X118399996Y-151505565D01*
X118400000Y-151505565D01*
X118400004Y-151505565D01*
X118579249Y-151485369D01*
X118579252Y-151485368D01*
X118579255Y-151485368D01*
X118749522Y-151425789D01*
X118902262Y-151329816D01*
X119029816Y-151202262D01*
X119125789Y-151049522D01*
X119185368Y-150879255D01*
X119185369Y-150879249D01*
X119205565Y-150700003D01*
X119205565Y-150699996D01*
X119185369Y-150520750D01*
X119185368Y-150520745D01*
X119125788Y-150350476D01*
X119032784Y-150202462D01*
X119029816Y-150197738D01*
X118902262Y-150070184D01*
X118831608Y-150025789D01*
X118749523Y-149974211D01*
X118579254Y-149914631D01*
X118579249Y-149914630D01*
X118400004Y-149894435D01*
X118399996Y-149894435D01*
X118220750Y-149914630D01*
X118220745Y-149914631D01*
X118050476Y-149974211D01*
X117897737Y-150070184D01*
X117770184Y-150197737D01*
X117674211Y-150350476D01*
X117614631Y-150520745D01*
X117614630Y-150520750D01*
X117594435Y-150699996D01*
X115305565Y-150699996D01*
X115285369Y-150520750D01*
X115285368Y-150520745D01*
X115225788Y-150350476D01*
X115132784Y-150202462D01*
X115129816Y-150197738D01*
X115002262Y-150070184D01*
X114931608Y-150025789D01*
X114849523Y-149974211D01*
X114679254Y-149914631D01*
X114679249Y-149914630D01*
X114500004Y-149894435D01*
X114499996Y-149894435D01*
X114320750Y-149914630D01*
X114320745Y-149914631D01*
X114150476Y-149974211D01*
X113997737Y-150070184D01*
X113870184Y-150197737D01*
X113774211Y-150350476D01*
X113714631Y-150520745D01*
X113714630Y-150520750D01*
X113694435Y-150699996D01*
X110168065Y-150699996D01*
X110147869Y-150520750D01*
X110147868Y-150520745D01*
X110088288Y-150350476D01*
X109995284Y-150202462D01*
X109992316Y-150197738D01*
X109864762Y-150070184D01*
X109794108Y-150025789D01*
X109712023Y-149974211D01*
X109541754Y-149914631D01*
X109541749Y-149914630D01*
X109362504Y-149894435D01*
X109362496Y-149894435D01*
X109183250Y-149914630D01*
X109183245Y-149914631D01*
X109012976Y-149974211D01*
X108860237Y-150070184D01*
X108732684Y-150197737D01*
X108636711Y-150350476D01*
X108577131Y-150520745D01*
X108577130Y-150520750D01*
X108556935Y-150699996D01*
X106309757Y-150699996D01*
X106290093Y-150525474D01*
X106290092Y-150525469D01*
X106230512Y-150355200D01*
X106134539Y-150202461D01*
X106006986Y-150074908D01*
X105854247Y-149978935D01*
X105683978Y-149919355D01*
X105683973Y-149919354D01*
X105504728Y-149899159D01*
X105504720Y-149899159D01*
X105325474Y-149919354D01*
X105325469Y-149919355D01*
X105155200Y-149978935D01*
X105002461Y-150074908D01*
X104874908Y-150202461D01*
X104778935Y-150355200D01*
X104719355Y-150525469D01*
X104719354Y-150525474D01*
X104699159Y-150704720D01*
X101167534Y-150704720D01*
X101168065Y-150700003D01*
X101168065Y-150699996D01*
X101147869Y-150520750D01*
X101147868Y-150520745D01*
X101088288Y-150350476D01*
X100995284Y-150202462D01*
X100992316Y-150197738D01*
X100864762Y-150070184D01*
X100794108Y-150025789D01*
X100712023Y-149974211D01*
X100541754Y-149914631D01*
X100541749Y-149914630D01*
X100362504Y-149894435D01*
X100362496Y-149894435D01*
X100183250Y-149914630D01*
X100183245Y-149914631D01*
X100012976Y-149974211D01*
X99860237Y-150070184D01*
X99732684Y-150197737D01*
X99636711Y-150350476D01*
X99577131Y-150520745D01*
X99577130Y-150520750D01*
X99556935Y-150699996D01*
X97309757Y-150699996D01*
X97290093Y-150525474D01*
X97290092Y-150525469D01*
X97230512Y-150355200D01*
X97134539Y-150202461D01*
X97006986Y-150074908D01*
X96854247Y-149978935D01*
X96683978Y-149919355D01*
X96683973Y-149919354D01*
X96504728Y-149899159D01*
X96504720Y-149899159D01*
X96325474Y-149919354D01*
X96325469Y-149919355D01*
X96155200Y-149978935D01*
X96002461Y-150074908D01*
X95874908Y-150202461D01*
X95778935Y-150355200D01*
X95719355Y-150525469D01*
X95719354Y-150525474D01*
X95699159Y-150704720D01*
X92167534Y-150704720D01*
X92168065Y-150700003D01*
X92168065Y-150699996D01*
X92147869Y-150520750D01*
X92147868Y-150520745D01*
X92088288Y-150350476D01*
X91995284Y-150202462D01*
X91992316Y-150197738D01*
X91864762Y-150070184D01*
X91794108Y-150025789D01*
X91712023Y-149974211D01*
X91541754Y-149914631D01*
X91541749Y-149914630D01*
X91362504Y-149894435D01*
X91362496Y-149894435D01*
X91183250Y-149914630D01*
X91183245Y-149914631D01*
X91012976Y-149974211D01*
X90860237Y-150070184D01*
X90732684Y-150197737D01*
X90636711Y-150350476D01*
X90577131Y-150520745D01*
X90577130Y-150520750D01*
X90556935Y-150699996D01*
X88309757Y-150699996D01*
X88290093Y-150525474D01*
X88290092Y-150525469D01*
X88230512Y-150355200D01*
X88134539Y-150202461D01*
X88006986Y-150074908D01*
X87854247Y-149978935D01*
X87683978Y-149919355D01*
X87683973Y-149919354D01*
X87504728Y-149899159D01*
X87504720Y-149899159D01*
X87325474Y-149919354D01*
X87325469Y-149919355D01*
X87155200Y-149978935D01*
X87002461Y-150074908D01*
X86874908Y-150202461D01*
X86778935Y-150355200D01*
X86719355Y-150525469D01*
X86719354Y-150525474D01*
X86699159Y-150704720D01*
X83167534Y-150704720D01*
X83168065Y-150700003D01*
X83168065Y-150699996D01*
X83147869Y-150520750D01*
X83147868Y-150520745D01*
X83088288Y-150350476D01*
X82995284Y-150202462D01*
X82992316Y-150197738D01*
X82864762Y-150070184D01*
X82794108Y-150025789D01*
X82712023Y-149974211D01*
X82541754Y-149914631D01*
X82541749Y-149914630D01*
X82362504Y-149894435D01*
X82362496Y-149894435D01*
X82183250Y-149914630D01*
X82183245Y-149914631D01*
X82012976Y-149974211D01*
X81860237Y-150070184D01*
X81732684Y-150197737D01*
X81636711Y-150350476D01*
X81577131Y-150520745D01*
X81577130Y-150520750D01*
X81556935Y-150699996D01*
X79309757Y-150699996D01*
X79290093Y-150525474D01*
X79290092Y-150525469D01*
X79230512Y-150355200D01*
X79134539Y-150202461D01*
X79006986Y-150074908D01*
X78854247Y-149978935D01*
X78683978Y-149919355D01*
X78683973Y-149919354D01*
X78504728Y-149899159D01*
X78504720Y-149899159D01*
X78325474Y-149919354D01*
X78325469Y-149919355D01*
X78155200Y-149978935D01*
X78002461Y-150074908D01*
X77874908Y-150202461D01*
X77778935Y-150355200D01*
X77719355Y-150525469D01*
X77719354Y-150525474D01*
X77699159Y-150704720D01*
X74167534Y-150704720D01*
X74168065Y-150700003D01*
X74168065Y-150699996D01*
X74147869Y-150520750D01*
X74147868Y-150520745D01*
X74088288Y-150350476D01*
X73995284Y-150202462D01*
X73992316Y-150197738D01*
X73864762Y-150070184D01*
X73794108Y-150025789D01*
X73712023Y-149974211D01*
X73541754Y-149914631D01*
X73541749Y-149914630D01*
X73362504Y-149894435D01*
X73362496Y-149894435D01*
X73183250Y-149914630D01*
X73183245Y-149914631D01*
X73012976Y-149974211D01*
X72860237Y-150070184D01*
X72732684Y-150197737D01*
X72636711Y-150350476D01*
X72577131Y-150520745D01*
X72577130Y-150520750D01*
X72556935Y-150699996D01*
X70309757Y-150699996D01*
X70290093Y-150525474D01*
X70290092Y-150525469D01*
X70230512Y-150355200D01*
X70134539Y-150202461D01*
X70006986Y-150074908D01*
X69854247Y-149978935D01*
X69683978Y-149919355D01*
X69683973Y-149919354D01*
X69504728Y-149899159D01*
X69504720Y-149899159D01*
X69325474Y-149919354D01*
X69325469Y-149919355D01*
X69155200Y-149978935D01*
X69002461Y-150074908D01*
X68874908Y-150202461D01*
X68778935Y-150355200D01*
X68719355Y-150525469D01*
X68719354Y-150525474D01*
X68699159Y-150704720D01*
X65710289Y-150704720D01*
X65690093Y-150525474D01*
X65690092Y-150525469D01*
X65630512Y-150355200D01*
X65534539Y-150202461D01*
X65406986Y-150074908D01*
X65254247Y-149978935D01*
X65083978Y-149919355D01*
X65083973Y-149919354D01*
X64904728Y-149899159D01*
X64904720Y-149899159D01*
X64725474Y-149919354D01*
X64725469Y-149919355D01*
X64555200Y-149978935D01*
X64402461Y-150074908D01*
X64274908Y-150202461D01*
X64178935Y-150355200D01*
X64119355Y-150525469D01*
X64119354Y-150525474D01*
X64099159Y-150704720D01*
X61310289Y-150704720D01*
X61290093Y-150525474D01*
X61290092Y-150525469D01*
X61230512Y-150355200D01*
X61134539Y-150202461D01*
X61006986Y-150074908D01*
X60854247Y-149978935D01*
X60683978Y-149919355D01*
X60683973Y-149919354D01*
X60504728Y-149899159D01*
X60504720Y-149899159D01*
X60325474Y-149919354D01*
X60325469Y-149919355D01*
X60155200Y-149978935D01*
X60002461Y-150074908D01*
X59874908Y-150202461D01*
X59778935Y-150355200D01*
X59719355Y-150525469D01*
X59719354Y-150525474D01*
X59699159Y-150704720D01*
X56405034Y-150704720D01*
X56405565Y-150700003D01*
X56405565Y-150699996D01*
X56385369Y-150520750D01*
X56385368Y-150520745D01*
X56325788Y-150350476D01*
X56232784Y-150202462D01*
X56229816Y-150197738D01*
X56102262Y-150070184D01*
X56031608Y-150025789D01*
X55949523Y-149974211D01*
X55779254Y-149914631D01*
X55779249Y-149914630D01*
X55600004Y-149894435D01*
X55599996Y-149894435D01*
X55420750Y-149914630D01*
X55420745Y-149914631D01*
X55250476Y-149974211D01*
X55097737Y-150070184D01*
X54970184Y-150197737D01*
X54874211Y-150350476D01*
X54814631Y-150520745D01*
X54814630Y-150520750D01*
X54794435Y-150699996D01*
X52309757Y-150699996D01*
X52290093Y-150525474D01*
X52290092Y-150525469D01*
X52230512Y-150355200D01*
X52134539Y-150202461D01*
X52006986Y-150074908D01*
X51854247Y-149978935D01*
X51683978Y-149919355D01*
X51683973Y-149919354D01*
X51504728Y-149899159D01*
X51504720Y-149899159D01*
X51325474Y-149919354D01*
X51325469Y-149919355D01*
X51155200Y-149978935D01*
X51002461Y-150074908D01*
X50874908Y-150202461D01*
X50778935Y-150355200D01*
X50719355Y-150525469D01*
X50719354Y-150525474D01*
X50699159Y-150704720D01*
X49100500Y-150704720D01*
X49100500Y-149631940D01*
X49120185Y-149564901D01*
X49172989Y-149519146D01*
X49242147Y-149509202D01*
X49305703Y-149538227D01*
X49312181Y-149544259D01*
X49397738Y-149629816D01*
X49488080Y-149686582D01*
X49534561Y-149715788D01*
X49550478Y-149725789D01*
X49720745Y-149785368D01*
X49720750Y-149785369D01*
X49899996Y-149805565D01*
X49900000Y-149805565D01*
X49900004Y-149805565D01*
X50079249Y-149785369D01*
X50079252Y-149785368D01*
X50079255Y-149785368D01*
X50249522Y-149725789D01*
X50402262Y-149629816D01*
X50529816Y-149502262D01*
X50625789Y-149349522D01*
X50685368Y-149179255D01*
X50686495Y-149169254D01*
X50705565Y-149000003D01*
X50705565Y-148999996D01*
X50685369Y-148820750D01*
X50685368Y-148820745D01*
X50681869Y-148810745D01*
X50625789Y-148650478D01*
X50625188Y-148649522D01*
X50529815Y-148497737D01*
X50402262Y-148370184D01*
X50290559Y-148299996D01*
X51794435Y-148299996D01*
X51794435Y-148300003D01*
X51814630Y-148479249D01*
X51814631Y-148479254D01*
X51874211Y-148649523D01*
X51970184Y-148802262D01*
X52030571Y-148862649D01*
X52064056Y-148923972D01*
X52059932Y-148991285D01*
X52014631Y-149120745D01*
X52014630Y-149120750D01*
X51994435Y-149299996D01*
X51994435Y-149300003D01*
X52014630Y-149479249D01*
X52014631Y-149479254D01*
X52074211Y-149649523D01*
X52153285Y-149775368D01*
X52170184Y-149802262D01*
X52297738Y-149929816D01*
X52450478Y-150025789D01*
X52577352Y-150070184D01*
X52620745Y-150085368D01*
X52620750Y-150085369D01*
X52799996Y-150105565D01*
X52800000Y-150105565D01*
X52800004Y-150105565D01*
X52979249Y-150085369D01*
X52979252Y-150085368D01*
X52979255Y-150085368D01*
X53149522Y-150025789D01*
X53302262Y-149929816D01*
X53429816Y-149802262D01*
X53525789Y-149649522D01*
X53585368Y-149479255D01*
X53599985Y-149349523D01*
X53605565Y-149300003D01*
X53605565Y-149299996D01*
X53585369Y-149120750D01*
X53585368Y-149120745D01*
X53561953Y-149053828D01*
X53539617Y-148989996D01*
X58094435Y-148989996D01*
X58094435Y-148990003D01*
X58114630Y-149169249D01*
X58114631Y-149169254D01*
X58174211Y-149339523D01*
X58262011Y-149479255D01*
X58270184Y-149492262D01*
X58397738Y-149619816D01*
X58550478Y-149715789D01*
X58720745Y-149775368D01*
X58720750Y-149775369D01*
X58899996Y-149795565D01*
X58900000Y-149795565D01*
X58900004Y-149795565D01*
X59079249Y-149775369D01*
X59079252Y-149775368D01*
X59079255Y-149775368D01*
X59249522Y-149715789D01*
X59402262Y-149619816D01*
X59529816Y-149492262D01*
X59625789Y-149339522D01*
X59685368Y-149169255D01*
X59690834Y-149120745D01*
X59705565Y-148990003D01*
X59705565Y-148989996D01*
X67094435Y-148989996D01*
X67094435Y-148990003D01*
X67114630Y-149169249D01*
X67114631Y-149169254D01*
X67174211Y-149339523D01*
X67262011Y-149479255D01*
X67270184Y-149492262D01*
X67397738Y-149619816D01*
X67550478Y-149715789D01*
X67720745Y-149775368D01*
X67720750Y-149775369D01*
X67899996Y-149795565D01*
X67900000Y-149795565D01*
X67900004Y-149795565D01*
X68079249Y-149775369D01*
X68079252Y-149775368D01*
X68079255Y-149775368D01*
X68249522Y-149715789D01*
X68402262Y-149619816D01*
X68529816Y-149492262D01*
X68625789Y-149339522D01*
X68685368Y-149169255D01*
X68690834Y-149120745D01*
X68705565Y-148990003D01*
X68705565Y-148989996D01*
X76094435Y-148989996D01*
X76094435Y-148990003D01*
X76114630Y-149169249D01*
X76114631Y-149169254D01*
X76174211Y-149339523D01*
X76262011Y-149479255D01*
X76270184Y-149492262D01*
X76397738Y-149619816D01*
X76550478Y-149715789D01*
X76720745Y-149775368D01*
X76720750Y-149775369D01*
X76899996Y-149795565D01*
X76900000Y-149795565D01*
X76900004Y-149795565D01*
X77079249Y-149775369D01*
X77079252Y-149775368D01*
X77079255Y-149775368D01*
X77249522Y-149715789D01*
X77402262Y-149619816D01*
X77529816Y-149492262D01*
X77625789Y-149339522D01*
X77685368Y-149169255D01*
X77690834Y-149120745D01*
X77705565Y-148990003D01*
X77705565Y-148989996D01*
X85094435Y-148989996D01*
X85094435Y-148990003D01*
X85114630Y-149169249D01*
X85114631Y-149169254D01*
X85174211Y-149339523D01*
X85262011Y-149479255D01*
X85270184Y-149492262D01*
X85397738Y-149619816D01*
X85550478Y-149715789D01*
X85720745Y-149775368D01*
X85720750Y-149775369D01*
X85899996Y-149795565D01*
X85900000Y-149795565D01*
X85900004Y-149795565D01*
X86079249Y-149775369D01*
X86079252Y-149775368D01*
X86079255Y-149775368D01*
X86249522Y-149715789D01*
X86402262Y-149619816D01*
X86529816Y-149492262D01*
X86625789Y-149339522D01*
X86685368Y-149169255D01*
X86690834Y-149120745D01*
X86705565Y-148990003D01*
X86705565Y-148989996D01*
X94094435Y-148989996D01*
X94094435Y-148990003D01*
X94114630Y-149169249D01*
X94114631Y-149169254D01*
X94174211Y-149339523D01*
X94262011Y-149479255D01*
X94270184Y-149492262D01*
X94397738Y-149619816D01*
X94550478Y-149715789D01*
X94720745Y-149775368D01*
X94720750Y-149775369D01*
X94899996Y-149795565D01*
X94900000Y-149795565D01*
X94900004Y-149795565D01*
X95079249Y-149775369D01*
X95079252Y-149775368D01*
X95079255Y-149775368D01*
X95249522Y-149715789D01*
X95402262Y-149619816D01*
X95529816Y-149492262D01*
X95625789Y-149339522D01*
X95685368Y-149169255D01*
X95690834Y-149120745D01*
X95705565Y-148990003D01*
X95705565Y-148989996D01*
X103134435Y-148989996D01*
X103134435Y-148990003D01*
X103154630Y-149169249D01*
X103154631Y-149169254D01*
X103214211Y-149339523D01*
X103302011Y-149479255D01*
X103310184Y-149492262D01*
X103437738Y-149619816D01*
X103590478Y-149715789D01*
X103760745Y-149775368D01*
X103760750Y-149775369D01*
X103939996Y-149795565D01*
X103940000Y-149795565D01*
X103940004Y-149795565D01*
X104119249Y-149775369D01*
X104119252Y-149775368D01*
X104119255Y-149775368D01*
X104289522Y-149715789D01*
X104442262Y-149619816D01*
X104569816Y-149492262D01*
X104665789Y-149339522D01*
X104725368Y-149169255D01*
X104730834Y-149120745D01*
X104745565Y-148990003D01*
X104745565Y-148989996D01*
X112194435Y-148989996D01*
X112194435Y-148990003D01*
X112214630Y-149169249D01*
X112214631Y-149169254D01*
X112274211Y-149339523D01*
X112362011Y-149479255D01*
X112370184Y-149492262D01*
X112497738Y-149619816D01*
X112650478Y-149715789D01*
X112820745Y-149775368D01*
X112820750Y-149775369D01*
X112999996Y-149795565D01*
X113000000Y-149795565D01*
X113000004Y-149795565D01*
X113179249Y-149775369D01*
X113179252Y-149775368D01*
X113179255Y-149775368D01*
X113349522Y-149715789D01*
X113502262Y-149619816D01*
X113629816Y-149492262D01*
X113725789Y-149339522D01*
X113785368Y-149169255D01*
X113790834Y-149120745D01*
X113805565Y-148990003D01*
X113805565Y-148989996D01*
X113785369Y-148810750D01*
X113785368Y-148810745D01*
X113728954Y-148649523D01*
X113725789Y-148640478D01*
X113629816Y-148487738D01*
X113502262Y-148360184D01*
X113406480Y-148300000D01*
X113349523Y-148264211D01*
X113179254Y-148204631D01*
X113179249Y-148204630D01*
X113000004Y-148184435D01*
X112999996Y-148184435D01*
X112820750Y-148204630D01*
X112820745Y-148204631D01*
X112650476Y-148264211D01*
X112497737Y-148360184D01*
X112370184Y-148487737D01*
X112274211Y-148640476D01*
X112214631Y-148810745D01*
X112214630Y-148810750D01*
X112194435Y-148989996D01*
X104745565Y-148989996D01*
X104725369Y-148810750D01*
X104725368Y-148810745D01*
X104668954Y-148649523D01*
X104665789Y-148640478D01*
X104569816Y-148487738D01*
X104442262Y-148360184D01*
X104346480Y-148300000D01*
X104289523Y-148264211D01*
X104119254Y-148204631D01*
X104119249Y-148204630D01*
X103940004Y-148184435D01*
X103939996Y-148184435D01*
X103760750Y-148204630D01*
X103760745Y-148204631D01*
X103590476Y-148264211D01*
X103437737Y-148360184D01*
X103310184Y-148487737D01*
X103214211Y-148640476D01*
X103154631Y-148810745D01*
X103154630Y-148810750D01*
X103134435Y-148989996D01*
X95705565Y-148989996D01*
X95685369Y-148810750D01*
X95685368Y-148810745D01*
X95628954Y-148649523D01*
X95625789Y-148640478D01*
X95529816Y-148487738D01*
X95402262Y-148360184D01*
X95306480Y-148300000D01*
X95249523Y-148264211D01*
X95079254Y-148204631D01*
X95079249Y-148204630D01*
X94900004Y-148184435D01*
X94899996Y-148184435D01*
X94720750Y-148204630D01*
X94720745Y-148204631D01*
X94550476Y-148264211D01*
X94397737Y-148360184D01*
X94270184Y-148487737D01*
X94174211Y-148640476D01*
X94114631Y-148810745D01*
X94114630Y-148810750D01*
X94094435Y-148989996D01*
X86705565Y-148989996D01*
X86685369Y-148810750D01*
X86685368Y-148810745D01*
X86628954Y-148649523D01*
X86625789Y-148640478D01*
X86529816Y-148487738D01*
X86402262Y-148360184D01*
X86306480Y-148300000D01*
X86249523Y-148264211D01*
X86079254Y-148204631D01*
X86079249Y-148204630D01*
X85900004Y-148184435D01*
X85899996Y-148184435D01*
X85720750Y-148204630D01*
X85720745Y-148204631D01*
X85550476Y-148264211D01*
X85397737Y-148360184D01*
X85270184Y-148487737D01*
X85174211Y-148640476D01*
X85114631Y-148810745D01*
X85114630Y-148810750D01*
X85094435Y-148989996D01*
X77705565Y-148989996D01*
X77685369Y-148810750D01*
X77685368Y-148810745D01*
X77628954Y-148649523D01*
X77625789Y-148640478D01*
X77529816Y-148487738D01*
X77402262Y-148360184D01*
X77306480Y-148300000D01*
X77249523Y-148264211D01*
X77079254Y-148204631D01*
X77079249Y-148204630D01*
X76900004Y-148184435D01*
X76899996Y-148184435D01*
X76720750Y-148204630D01*
X76720745Y-148204631D01*
X76550476Y-148264211D01*
X76397737Y-148360184D01*
X76270184Y-148487737D01*
X76174211Y-148640476D01*
X76114631Y-148810745D01*
X76114630Y-148810750D01*
X76094435Y-148989996D01*
X68705565Y-148989996D01*
X68685369Y-148810750D01*
X68685368Y-148810745D01*
X68628954Y-148649523D01*
X68625789Y-148640478D01*
X68529816Y-148487738D01*
X68402262Y-148360184D01*
X68306480Y-148300000D01*
X68249523Y-148264211D01*
X68079254Y-148204631D01*
X68079249Y-148204630D01*
X67900004Y-148184435D01*
X67899996Y-148184435D01*
X67720750Y-148204630D01*
X67720745Y-148204631D01*
X67550476Y-148264211D01*
X67397737Y-148360184D01*
X67270184Y-148487737D01*
X67174211Y-148640476D01*
X67114631Y-148810745D01*
X67114630Y-148810750D01*
X67094435Y-148989996D01*
X59705565Y-148989996D01*
X59685369Y-148810750D01*
X59685368Y-148810745D01*
X59628954Y-148649523D01*
X59625789Y-148640478D01*
X59529816Y-148487738D01*
X59402262Y-148360184D01*
X59306480Y-148300000D01*
X59249523Y-148264211D01*
X59079254Y-148204631D01*
X59079249Y-148204630D01*
X58900004Y-148184435D01*
X58899996Y-148184435D01*
X58720750Y-148204630D01*
X58720745Y-148204631D01*
X58550476Y-148264211D01*
X58397737Y-148360184D01*
X58270184Y-148487737D01*
X58174211Y-148640476D01*
X58114631Y-148810745D01*
X58114630Y-148810750D01*
X58094435Y-148989996D01*
X53539617Y-148989996D01*
X53525789Y-148950478D01*
X53429816Y-148797738D01*
X53369428Y-148737350D01*
X53335943Y-148676027D01*
X53340067Y-148608715D01*
X53385368Y-148479255D01*
X53385369Y-148479249D01*
X53405565Y-148300003D01*
X53405565Y-148299996D01*
X53385369Y-148120750D01*
X53385368Y-148120745D01*
X53337998Y-147985369D01*
X53325789Y-147950478D01*
X53229816Y-147797738D01*
X53102262Y-147670184D01*
X53038017Y-147629816D01*
X52949523Y-147574211D01*
X52779254Y-147514631D01*
X52779249Y-147514630D01*
X52600004Y-147494435D01*
X52599996Y-147494435D01*
X52420750Y-147514630D01*
X52420745Y-147514631D01*
X52250476Y-147574211D01*
X52097737Y-147670184D01*
X51970184Y-147797737D01*
X51874211Y-147950476D01*
X51814631Y-148120745D01*
X51814630Y-148120750D01*
X51794435Y-148299996D01*
X50290559Y-148299996D01*
X50249523Y-148274211D01*
X50079254Y-148214631D01*
X50079249Y-148214630D01*
X49900004Y-148194435D01*
X49899996Y-148194435D01*
X49720750Y-148214630D01*
X49720745Y-148214631D01*
X49550476Y-148274211D01*
X49397737Y-148370184D01*
X49312181Y-148455741D01*
X49250858Y-148489226D01*
X49181166Y-148484242D01*
X49125233Y-148442370D01*
X49100816Y-148376906D01*
X49100500Y-148368060D01*
X49100500Y-147199996D01*
X50294435Y-147199996D01*
X50294435Y-147200003D01*
X50314630Y-147379249D01*
X50314631Y-147379254D01*
X50374211Y-147549523D01*
X50424662Y-147629815D01*
X50470184Y-147702262D01*
X50597738Y-147829816D01*
X50750478Y-147925789D01*
X50920745Y-147985368D01*
X50920750Y-147985369D01*
X51099996Y-148005565D01*
X51100000Y-148005565D01*
X51100004Y-148005565D01*
X51279249Y-147985369D01*
X51279252Y-147985368D01*
X51279255Y-147985368D01*
X51449522Y-147925789D01*
X51602262Y-147829816D01*
X51729816Y-147702262D01*
X51825789Y-147549522D01*
X51885368Y-147379255D01*
X51888718Y-147349522D01*
X51894298Y-147299996D01*
X55194435Y-147299996D01*
X55194435Y-147300003D01*
X55214630Y-147479249D01*
X55214631Y-147479254D01*
X55274211Y-147649523D01*
X55324662Y-147729815D01*
X55370184Y-147802262D01*
X55497738Y-147929816D01*
X55650478Y-148025789D01*
X55820745Y-148085368D01*
X55820750Y-148085369D01*
X55999996Y-148105565D01*
X56000000Y-148105565D01*
X56000004Y-148105565D01*
X56179249Y-148085369D01*
X56179252Y-148085368D01*
X56179255Y-148085368D01*
X56349522Y-148025789D01*
X56502262Y-147929816D01*
X56629816Y-147802262D01*
X56725789Y-147649522D01*
X56785368Y-147479255D01*
X56794043Y-147402262D01*
X56805565Y-147300003D01*
X56805565Y-147299996D01*
X56785369Y-147120750D01*
X56785368Y-147120745D01*
X56750376Y-147020745D01*
X56743116Y-146999996D01*
X58094435Y-146999996D01*
X58094435Y-147000003D01*
X58114630Y-147179249D01*
X58114631Y-147179254D01*
X58174211Y-147349523D01*
X58237045Y-147449522D01*
X58270184Y-147502262D01*
X58397738Y-147629816D01*
X58550478Y-147725789D01*
X58561984Y-147729815D01*
X58720745Y-147785368D01*
X58720750Y-147785369D01*
X58899996Y-147805565D01*
X58900000Y-147805565D01*
X58900004Y-147805565D01*
X59079249Y-147785369D01*
X59079252Y-147785368D01*
X59079255Y-147785368D01*
X59249522Y-147725789D01*
X59402262Y-147629816D01*
X59529816Y-147502262D01*
X59625789Y-147349522D01*
X59643119Y-147299996D01*
X64194435Y-147299996D01*
X64194435Y-147300003D01*
X64214630Y-147479249D01*
X64214631Y-147479254D01*
X64274211Y-147649523D01*
X64324662Y-147729815D01*
X64370184Y-147802262D01*
X64497738Y-147929816D01*
X64650478Y-148025789D01*
X64820745Y-148085368D01*
X64820750Y-148085369D01*
X64999996Y-148105565D01*
X65000000Y-148105565D01*
X65000004Y-148105565D01*
X65179249Y-148085369D01*
X65179252Y-148085368D01*
X65179255Y-148085368D01*
X65349522Y-148025789D01*
X65502262Y-147929816D01*
X65629816Y-147802262D01*
X65725789Y-147649522D01*
X65785368Y-147479255D01*
X65794043Y-147402262D01*
X65805565Y-147300003D01*
X65805565Y-147299996D01*
X65785369Y-147120750D01*
X65785368Y-147120745D01*
X65750376Y-147020745D01*
X65743116Y-146999996D01*
X67094435Y-146999996D01*
X67094435Y-147000003D01*
X67114630Y-147179249D01*
X67114631Y-147179254D01*
X67174211Y-147349523D01*
X67237045Y-147449522D01*
X67270184Y-147502262D01*
X67397738Y-147629816D01*
X67550478Y-147725789D01*
X67561984Y-147729815D01*
X67720745Y-147785368D01*
X67720750Y-147785369D01*
X67899996Y-147805565D01*
X67900000Y-147805565D01*
X67900004Y-147805565D01*
X68079249Y-147785369D01*
X68079252Y-147785368D01*
X68079255Y-147785368D01*
X68249522Y-147725789D01*
X68402262Y-147629816D01*
X68529816Y-147502262D01*
X68625789Y-147349522D01*
X68643119Y-147299996D01*
X73194435Y-147299996D01*
X73194435Y-147300003D01*
X73214630Y-147479249D01*
X73214631Y-147479254D01*
X73274211Y-147649523D01*
X73324662Y-147729815D01*
X73370184Y-147802262D01*
X73497738Y-147929816D01*
X73650478Y-148025789D01*
X73820745Y-148085368D01*
X73820750Y-148085369D01*
X73999996Y-148105565D01*
X74000000Y-148105565D01*
X74000004Y-148105565D01*
X74179249Y-148085369D01*
X74179252Y-148085368D01*
X74179255Y-148085368D01*
X74349522Y-148025789D01*
X74502262Y-147929816D01*
X74629816Y-147802262D01*
X74725789Y-147649522D01*
X74785368Y-147479255D01*
X74794043Y-147402262D01*
X74805565Y-147300003D01*
X74805565Y-147299996D01*
X74785369Y-147120750D01*
X74785368Y-147120745D01*
X74750376Y-147020745D01*
X74743116Y-146999996D01*
X76094435Y-146999996D01*
X76094435Y-147000003D01*
X76114630Y-147179249D01*
X76114631Y-147179254D01*
X76174211Y-147349523D01*
X76237045Y-147449522D01*
X76270184Y-147502262D01*
X76397738Y-147629816D01*
X76550478Y-147725789D01*
X76561984Y-147729815D01*
X76720745Y-147785368D01*
X76720750Y-147785369D01*
X76899996Y-147805565D01*
X76900000Y-147805565D01*
X76900004Y-147805565D01*
X77079249Y-147785369D01*
X77079252Y-147785368D01*
X77079255Y-147785368D01*
X77249522Y-147725789D01*
X77402262Y-147629816D01*
X77529816Y-147502262D01*
X77625789Y-147349522D01*
X77643119Y-147299996D01*
X82194435Y-147299996D01*
X82194435Y-147300003D01*
X82214630Y-147479249D01*
X82214631Y-147479254D01*
X82274211Y-147649523D01*
X82324662Y-147729815D01*
X82370184Y-147802262D01*
X82497738Y-147929816D01*
X82650478Y-148025789D01*
X82820745Y-148085368D01*
X82820750Y-148085369D01*
X82999996Y-148105565D01*
X83000000Y-148105565D01*
X83000004Y-148105565D01*
X83179249Y-148085369D01*
X83179252Y-148085368D01*
X83179255Y-148085368D01*
X83349522Y-148025789D01*
X83502262Y-147929816D01*
X83629816Y-147802262D01*
X83725789Y-147649522D01*
X83785368Y-147479255D01*
X83794043Y-147402262D01*
X83805565Y-147300003D01*
X83805565Y-147299996D01*
X83785369Y-147120750D01*
X83785368Y-147120745D01*
X83778108Y-147099996D01*
X85894435Y-147099996D01*
X85894435Y-147100003D01*
X85914630Y-147279249D01*
X85914631Y-147279254D01*
X85974211Y-147449523D01*
X86015122Y-147514632D01*
X86070184Y-147602262D01*
X86197738Y-147729816D01*
X86286148Y-147785368D01*
X86305833Y-147797737D01*
X86350478Y-147825789D01*
X86361984Y-147829815D01*
X86520745Y-147885368D01*
X86520750Y-147885369D01*
X86699996Y-147905565D01*
X86700000Y-147905565D01*
X86700004Y-147905565D01*
X86879249Y-147885369D01*
X86879252Y-147885368D01*
X86879255Y-147885368D01*
X87049522Y-147825789D01*
X87202262Y-147729816D01*
X87329816Y-147602262D01*
X87425789Y-147449522D01*
X87478110Y-147299996D01*
X91194435Y-147299996D01*
X91194435Y-147300003D01*
X91214630Y-147479249D01*
X91214631Y-147479254D01*
X91274211Y-147649523D01*
X91324662Y-147729815D01*
X91370184Y-147802262D01*
X91497738Y-147929816D01*
X91650478Y-148025789D01*
X91820745Y-148085368D01*
X91820750Y-148085369D01*
X91999996Y-148105565D01*
X92000000Y-148105565D01*
X92000004Y-148105565D01*
X92179249Y-148085369D01*
X92179252Y-148085368D01*
X92179255Y-148085368D01*
X92349522Y-148025789D01*
X92502262Y-147929816D01*
X92629816Y-147802262D01*
X92725789Y-147649522D01*
X92785368Y-147479255D01*
X92794043Y-147402262D01*
X92805565Y-147300003D01*
X92805565Y-147299996D01*
X92785369Y-147120750D01*
X92785368Y-147120745D01*
X92750376Y-147020745D01*
X92725789Y-146950478D01*
X92707106Y-146920745D01*
X92694069Y-146899996D01*
X94094435Y-146899996D01*
X94094435Y-146900003D01*
X94114630Y-147079249D01*
X94114631Y-147079254D01*
X94174211Y-147249523D01*
X94205926Y-147299996D01*
X94270184Y-147402262D01*
X94397738Y-147529816D01*
X94550478Y-147625789D01*
X94618306Y-147649523D01*
X94720745Y-147685368D01*
X94720750Y-147685369D01*
X94899996Y-147705565D01*
X94900000Y-147705565D01*
X94900004Y-147705565D01*
X95079249Y-147685369D01*
X95079252Y-147685368D01*
X95079255Y-147685368D01*
X95249522Y-147625789D01*
X95402262Y-147529816D01*
X95529816Y-147402262D01*
X95594074Y-147299996D01*
X100194435Y-147299996D01*
X100194435Y-147300003D01*
X100214630Y-147479249D01*
X100214631Y-147479254D01*
X100274211Y-147649523D01*
X100324662Y-147729815D01*
X100370184Y-147802262D01*
X100497738Y-147929816D01*
X100650478Y-148025789D01*
X100820745Y-148085368D01*
X100820750Y-148085369D01*
X100999996Y-148105565D01*
X101000000Y-148105565D01*
X101000004Y-148105565D01*
X101179249Y-148085369D01*
X101179252Y-148085368D01*
X101179255Y-148085368D01*
X101349522Y-148025789D01*
X101502262Y-147929816D01*
X101629816Y-147802262D01*
X101725789Y-147649522D01*
X101785368Y-147479255D01*
X101794043Y-147402262D01*
X101805565Y-147300003D01*
X101805565Y-147299996D01*
X101785369Y-147120750D01*
X101785368Y-147120745D01*
X101750376Y-147020745D01*
X101743116Y-146999996D01*
X103134435Y-146999996D01*
X103134435Y-147000003D01*
X103154630Y-147179249D01*
X103154631Y-147179254D01*
X103214211Y-147349523D01*
X103277045Y-147449522D01*
X103310184Y-147502262D01*
X103437738Y-147629816D01*
X103590478Y-147725789D01*
X103601984Y-147729815D01*
X103760745Y-147785368D01*
X103760750Y-147785369D01*
X103939996Y-147805565D01*
X103940000Y-147805565D01*
X103940004Y-147805565D01*
X104119249Y-147785369D01*
X104119252Y-147785368D01*
X104119255Y-147785368D01*
X104289522Y-147725789D01*
X104442262Y-147629816D01*
X104569816Y-147502262D01*
X104665789Y-147349522D01*
X104683119Y-147299996D01*
X109194435Y-147299996D01*
X109194435Y-147300003D01*
X109214630Y-147479249D01*
X109214631Y-147479254D01*
X109274211Y-147649523D01*
X109324662Y-147729815D01*
X109370184Y-147802262D01*
X109497738Y-147929816D01*
X109650478Y-148025789D01*
X109820745Y-148085368D01*
X109820750Y-148085369D01*
X109999996Y-148105565D01*
X110000000Y-148105565D01*
X110000004Y-148105565D01*
X110179249Y-148085369D01*
X110179252Y-148085368D01*
X110179255Y-148085368D01*
X110349522Y-148025789D01*
X110502262Y-147929816D01*
X110629816Y-147802262D01*
X110725789Y-147649522D01*
X110785368Y-147479255D01*
X110794043Y-147402262D01*
X110805565Y-147300003D01*
X110805565Y-147299996D01*
X110785369Y-147120750D01*
X110785368Y-147120745D01*
X110750376Y-147020745D01*
X110743116Y-146999996D01*
X112194435Y-146999996D01*
X112194435Y-147000003D01*
X112214630Y-147179249D01*
X112214631Y-147179254D01*
X112274211Y-147349523D01*
X112337045Y-147449522D01*
X112370184Y-147502262D01*
X112497738Y-147629816D01*
X112650478Y-147725789D01*
X112661984Y-147729815D01*
X112820745Y-147785368D01*
X112820750Y-147785369D01*
X112999996Y-147805565D01*
X113000000Y-147805565D01*
X113000004Y-147805565D01*
X113179249Y-147785369D01*
X113179252Y-147785368D01*
X113179255Y-147785368D01*
X113349522Y-147725789D01*
X113502262Y-147629816D01*
X113629816Y-147502262D01*
X113725789Y-147349522D01*
X113743119Y-147299996D01*
X118194435Y-147299996D01*
X118194435Y-147300003D01*
X118214630Y-147479249D01*
X118214631Y-147479254D01*
X118274211Y-147649523D01*
X118324662Y-147729815D01*
X118370184Y-147802262D01*
X118497738Y-147929816D01*
X118650478Y-148025789D01*
X118820745Y-148085368D01*
X118820750Y-148085369D01*
X118999996Y-148105565D01*
X119000000Y-148105565D01*
X119000004Y-148105565D01*
X119179249Y-148085369D01*
X119179252Y-148085368D01*
X119179255Y-148085368D01*
X119349522Y-148025789D01*
X119502262Y-147929816D01*
X119629816Y-147802262D01*
X119725789Y-147649522D01*
X119785368Y-147479255D01*
X119794043Y-147402262D01*
X119805565Y-147300003D01*
X119805565Y-147299996D01*
X119785369Y-147120750D01*
X119785368Y-147120745D01*
X119750376Y-147020745D01*
X119725789Y-146950478D01*
X119707106Y-146920745D01*
X119662955Y-146850478D01*
X119629816Y-146797738D01*
X119502262Y-146670184D01*
X119470897Y-146650476D01*
X119349523Y-146574211D01*
X119179254Y-146514631D01*
X119179249Y-146514630D01*
X119000004Y-146494435D01*
X118999996Y-146494435D01*
X118820750Y-146514630D01*
X118820745Y-146514631D01*
X118650476Y-146574211D01*
X118497737Y-146670184D01*
X118370184Y-146797737D01*
X118274211Y-146950476D01*
X118214631Y-147120745D01*
X118214630Y-147120750D01*
X118194435Y-147299996D01*
X113743119Y-147299996D01*
X113785368Y-147179255D01*
X113791960Y-147120750D01*
X113805565Y-147000003D01*
X113805565Y-146999996D01*
X113785369Y-146820750D01*
X113785368Y-146820745D01*
X113725789Y-146650478D01*
X113629816Y-146497738D01*
X113502262Y-146370184D01*
X113413852Y-146314632D01*
X113349523Y-146274211D01*
X113179254Y-146214631D01*
X113179249Y-146214630D01*
X113000004Y-146194435D01*
X112999996Y-146194435D01*
X112820750Y-146214630D01*
X112820745Y-146214631D01*
X112650476Y-146274211D01*
X112497737Y-146370184D01*
X112370184Y-146497737D01*
X112274211Y-146650476D01*
X112214631Y-146820745D01*
X112214630Y-146820750D01*
X112194435Y-146999996D01*
X110743116Y-146999996D01*
X110725789Y-146950478D01*
X110707106Y-146920745D01*
X110662955Y-146850478D01*
X110629816Y-146797738D01*
X110502262Y-146670184D01*
X110470897Y-146650476D01*
X110349523Y-146574211D01*
X110179254Y-146514631D01*
X110179249Y-146514630D01*
X110000004Y-146494435D01*
X109999996Y-146494435D01*
X109820750Y-146514630D01*
X109820745Y-146514631D01*
X109650476Y-146574211D01*
X109497737Y-146670184D01*
X109370184Y-146797737D01*
X109274211Y-146950476D01*
X109214631Y-147120745D01*
X109214630Y-147120750D01*
X109194435Y-147299996D01*
X104683119Y-147299996D01*
X104725368Y-147179255D01*
X104731960Y-147120750D01*
X104745565Y-147000003D01*
X104745565Y-146999996D01*
X104725369Y-146820750D01*
X104725368Y-146820745D01*
X104665789Y-146650478D01*
X104569816Y-146497738D01*
X104442262Y-146370184D01*
X104353852Y-146314632D01*
X104289523Y-146274211D01*
X104119254Y-146214631D01*
X104119249Y-146214630D01*
X103940004Y-146194435D01*
X103939996Y-146194435D01*
X103760750Y-146214630D01*
X103760745Y-146214631D01*
X103590476Y-146274211D01*
X103437737Y-146370184D01*
X103310184Y-146497737D01*
X103214211Y-146650476D01*
X103154631Y-146820745D01*
X103154630Y-146820750D01*
X103134435Y-146999996D01*
X101743116Y-146999996D01*
X101725789Y-146950478D01*
X101707106Y-146920745D01*
X101662955Y-146850478D01*
X101629816Y-146797738D01*
X101502262Y-146670184D01*
X101470897Y-146650476D01*
X101349523Y-146574211D01*
X101179254Y-146514631D01*
X101179249Y-146514630D01*
X101000004Y-146494435D01*
X100999996Y-146494435D01*
X100820750Y-146514630D01*
X100820745Y-146514631D01*
X100650476Y-146574211D01*
X100497737Y-146670184D01*
X100370184Y-146797737D01*
X100274211Y-146950476D01*
X100214631Y-147120745D01*
X100214630Y-147120750D01*
X100194435Y-147299996D01*
X95594074Y-147299996D01*
X95625789Y-147249522D01*
X95685368Y-147079255D01*
X95691960Y-147020750D01*
X95705565Y-146900003D01*
X95705565Y-146899996D01*
X95685369Y-146720750D01*
X95685368Y-146720745D01*
X95625789Y-146550478D01*
X95603265Y-146514632D01*
X95540431Y-146414632D01*
X95529816Y-146397738D01*
X95402262Y-146270184D01*
X95313852Y-146214632D01*
X95249523Y-146174211D01*
X95079254Y-146114631D01*
X95079249Y-146114630D01*
X94900004Y-146094435D01*
X94899996Y-146094435D01*
X94720750Y-146114630D01*
X94720745Y-146114631D01*
X94550476Y-146174211D01*
X94397737Y-146270184D01*
X94270184Y-146397737D01*
X94174211Y-146550476D01*
X94114631Y-146720745D01*
X94114630Y-146720750D01*
X94094435Y-146899996D01*
X92694069Y-146899996D01*
X92662955Y-146850478D01*
X92629816Y-146797738D01*
X92502262Y-146670184D01*
X92470897Y-146650476D01*
X92349523Y-146574211D01*
X92179254Y-146514631D01*
X92179249Y-146514630D01*
X92000004Y-146494435D01*
X91999996Y-146494435D01*
X91820750Y-146514630D01*
X91820745Y-146514631D01*
X91650476Y-146574211D01*
X91497737Y-146670184D01*
X91370184Y-146797737D01*
X91274211Y-146950476D01*
X91214631Y-147120745D01*
X91214630Y-147120750D01*
X91194435Y-147299996D01*
X87478110Y-147299996D01*
X87485368Y-147279255D01*
X87488718Y-147249522D01*
X87505565Y-147100003D01*
X87505565Y-147099996D01*
X87485369Y-146920750D01*
X87485368Y-146920745D01*
X87478108Y-146899996D01*
X87425789Y-146750478D01*
X87407106Y-146720745D01*
X87362955Y-146650478D01*
X87329816Y-146597738D01*
X87202262Y-146470184D01*
X87113852Y-146414632D01*
X87049523Y-146374211D01*
X86879254Y-146314631D01*
X86879249Y-146314630D01*
X86700004Y-146294435D01*
X86699996Y-146294435D01*
X86520750Y-146314630D01*
X86520745Y-146314631D01*
X86350476Y-146374211D01*
X86197737Y-146470184D01*
X86070184Y-146597737D01*
X85974211Y-146750476D01*
X85914631Y-146920745D01*
X85914630Y-146920750D01*
X85894435Y-147099996D01*
X83778108Y-147099996D01*
X83750376Y-147020745D01*
X83725789Y-146950478D01*
X83707106Y-146920745D01*
X83662955Y-146850478D01*
X83629816Y-146797738D01*
X83502262Y-146670184D01*
X83470897Y-146650476D01*
X83349523Y-146574211D01*
X83179254Y-146514631D01*
X83179249Y-146514630D01*
X83000004Y-146494435D01*
X82999996Y-146494435D01*
X82820750Y-146514630D01*
X82820745Y-146514631D01*
X82650476Y-146574211D01*
X82497737Y-146670184D01*
X82370184Y-146797737D01*
X82274211Y-146950476D01*
X82214631Y-147120745D01*
X82214630Y-147120750D01*
X82194435Y-147299996D01*
X77643119Y-147299996D01*
X77685368Y-147179255D01*
X77691960Y-147120750D01*
X77705565Y-147000003D01*
X77705565Y-146999996D01*
X77685369Y-146820750D01*
X77685368Y-146820745D01*
X77625789Y-146650478D01*
X77529816Y-146497738D01*
X77402262Y-146370184D01*
X77313852Y-146314632D01*
X77249523Y-146274211D01*
X77079254Y-146214631D01*
X77079249Y-146214630D01*
X76900004Y-146194435D01*
X76899996Y-146194435D01*
X76720750Y-146214630D01*
X76720745Y-146214631D01*
X76550476Y-146274211D01*
X76397737Y-146370184D01*
X76270184Y-146497737D01*
X76174211Y-146650476D01*
X76114631Y-146820745D01*
X76114630Y-146820750D01*
X76094435Y-146999996D01*
X74743116Y-146999996D01*
X74725789Y-146950478D01*
X74707106Y-146920745D01*
X74662955Y-146850478D01*
X74629816Y-146797738D01*
X74502262Y-146670184D01*
X74470897Y-146650476D01*
X74349523Y-146574211D01*
X74179254Y-146514631D01*
X74179249Y-146514630D01*
X74000004Y-146494435D01*
X73999996Y-146494435D01*
X73820750Y-146514630D01*
X73820745Y-146514631D01*
X73650476Y-146574211D01*
X73497737Y-146670184D01*
X73370184Y-146797737D01*
X73274211Y-146950476D01*
X73214631Y-147120745D01*
X73214630Y-147120750D01*
X73194435Y-147299996D01*
X68643119Y-147299996D01*
X68685368Y-147179255D01*
X68691960Y-147120750D01*
X68705565Y-147000003D01*
X68705565Y-146999996D01*
X68685369Y-146820750D01*
X68685368Y-146820745D01*
X68625789Y-146650478D01*
X68529816Y-146497738D01*
X68402262Y-146370184D01*
X68313852Y-146314632D01*
X68249523Y-146274211D01*
X68079254Y-146214631D01*
X68079249Y-146214630D01*
X67900004Y-146194435D01*
X67899996Y-146194435D01*
X67720750Y-146214630D01*
X67720745Y-146214631D01*
X67550476Y-146274211D01*
X67397737Y-146370184D01*
X67270184Y-146497737D01*
X67174211Y-146650476D01*
X67114631Y-146820745D01*
X67114630Y-146820750D01*
X67094435Y-146999996D01*
X65743116Y-146999996D01*
X65725789Y-146950478D01*
X65707106Y-146920745D01*
X65662955Y-146850478D01*
X65629816Y-146797738D01*
X65502262Y-146670184D01*
X65470897Y-146650476D01*
X65349523Y-146574211D01*
X65179254Y-146514631D01*
X65179249Y-146514630D01*
X65000004Y-146494435D01*
X64999996Y-146494435D01*
X64820750Y-146514630D01*
X64820745Y-146514631D01*
X64650476Y-146574211D01*
X64497737Y-146670184D01*
X64370184Y-146797737D01*
X64274211Y-146950476D01*
X64214631Y-147120745D01*
X64214630Y-147120750D01*
X64194435Y-147299996D01*
X59643119Y-147299996D01*
X59685368Y-147179255D01*
X59691960Y-147120750D01*
X59705565Y-147000003D01*
X59705565Y-146999996D01*
X59685369Y-146820750D01*
X59685368Y-146820745D01*
X59625789Y-146650478D01*
X59529816Y-146497738D01*
X59402262Y-146370184D01*
X59313852Y-146314632D01*
X59249523Y-146274211D01*
X59079254Y-146214631D01*
X59079249Y-146214630D01*
X58900004Y-146194435D01*
X58899996Y-146194435D01*
X58720750Y-146214630D01*
X58720745Y-146214631D01*
X58550476Y-146274211D01*
X58397737Y-146370184D01*
X58270184Y-146497737D01*
X58174211Y-146650476D01*
X58114631Y-146820745D01*
X58114630Y-146820750D01*
X58094435Y-146999996D01*
X56743116Y-146999996D01*
X56725789Y-146950478D01*
X56707106Y-146920745D01*
X56662955Y-146850478D01*
X56629816Y-146797738D01*
X56502262Y-146670184D01*
X56470897Y-146650476D01*
X56349523Y-146574211D01*
X56179254Y-146514631D01*
X56179249Y-146514630D01*
X56000004Y-146494435D01*
X55999996Y-146494435D01*
X55820750Y-146514630D01*
X55820745Y-146514631D01*
X55650476Y-146574211D01*
X55497737Y-146670184D01*
X55370184Y-146797737D01*
X55274211Y-146950476D01*
X55214631Y-147120745D01*
X55214630Y-147120750D01*
X55194435Y-147299996D01*
X51894298Y-147299996D01*
X51905565Y-147200003D01*
X51905565Y-147199996D01*
X51885369Y-147020750D01*
X51885368Y-147020745D01*
X51878108Y-146999996D01*
X51825789Y-146850478D01*
X51807106Y-146820745D01*
X51762955Y-146750478D01*
X51729816Y-146697738D01*
X51602262Y-146570184D01*
X51513852Y-146514632D01*
X51449523Y-146474211D01*
X51279254Y-146414631D01*
X51279249Y-146414630D01*
X51100004Y-146394435D01*
X51099996Y-146394435D01*
X50920750Y-146414630D01*
X50920745Y-146414631D01*
X50750476Y-146474211D01*
X50597737Y-146570184D01*
X50470184Y-146697737D01*
X50374211Y-146850476D01*
X50314631Y-147020745D01*
X50314630Y-147020750D01*
X50294435Y-147199996D01*
X49100500Y-147199996D01*
X49100500Y-143899996D01*
X52294435Y-143899996D01*
X52294435Y-143900003D01*
X52314630Y-144079249D01*
X52314631Y-144079254D01*
X52374211Y-144249523D01*
X52470184Y-144402262D01*
X52597738Y-144529816D01*
X52750478Y-144625789D01*
X52920745Y-144685368D01*
X52920750Y-144685369D01*
X53099996Y-144705565D01*
X53100000Y-144705565D01*
X53100004Y-144705565D01*
X53279249Y-144685369D01*
X53279252Y-144685368D01*
X53279255Y-144685368D01*
X53449522Y-144625789D01*
X53602262Y-144529816D01*
X53729816Y-144402262D01*
X53825789Y-144249522D01*
X53885368Y-144079255D01*
X53905565Y-143900000D01*
X53905565Y-143899996D01*
X61294435Y-143899996D01*
X61294435Y-143900003D01*
X61314630Y-144079249D01*
X61314631Y-144079254D01*
X61374211Y-144249523D01*
X61470184Y-144402262D01*
X61597738Y-144529816D01*
X61750478Y-144625789D01*
X61920745Y-144685368D01*
X61920750Y-144685369D01*
X62099996Y-144705565D01*
X62100000Y-144705565D01*
X62100004Y-144705565D01*
X62279249Y-144685369D01*
X62279252Y-144685368D01*
X62279255Y-144685368D01*
X62449522Y-144625789D01*
X62602262Y-144529816D01*
X62729816Y-144402262D01*
X62825789Y-144249522D01*
X62885368Y-144079255D01*
X62905565Y-143900000D01*
X62905565Y-143899996D01*
X70294435Y-143899996D01*
X70294435Y-143900003D01*
X70314630Y-144079249D01*
X70314631Y-144079254D01*
X70374211Y-144249523D01*
X70470184Y-144402262D01*
X70597738Y-144529816D01*
X70750478Y-144625789D01*
X70920745Y-144685368D01*
X70920750Y-144685369D01*
X71099996Y-144705565D01*
X71100000Y-144705565D01*
X71100004Y-144705565D01*
X71279249Y-144685369D01*
X71279252Y-144685368D01*
X71279255Y-144685368D01*
X71449522Y-144625789D01*
X71602262Y-144529816D01*
X71729816Y-144402262D01*
X71825789Y-144249522D01*
X71885368Y-144079255D01*
X71905565Y-143900000D01*
X71905565Y-143899996D01*
X79294435Y-143899996D01*
X79294435Y-143900003D01*
X79314630Y-144079249D01*
X79314631Y-144079254D01*
X79374211Y-144249523D01*
X79470184Y-144402262D01*
X79597738Y-144529816D01*
X79750478Y-144625789D01*
X79920745Y-144685368D01*
X79920750Y-144685369D01*
X80099996Y-144705565D01*
X80100000Y-144705565D01*
X80100004Y-144705565D01*
X80279249Y-144685369D01*
X80279252Y-144685368D01*
X80279255Y-144685368D01*
X80449522Y-144625789D01*
X80602262Y-144529816D01*
X80729816Y-144402262D01*
X80825789Y-144249522D01*
X80885368Y-144079255D01*
X80905565Y-143900000D01*
X80905565Y-143899996D01*
X88294435Y-143899996D01*
X88294435Y-143900003D01*
X88314630Y-144079249D01*
X88314631Y-144079254D01*
X88374211Y-144249523D01*
X88470184Y-144402262D01*
X88597738Y-144529816D01*
X88750478Y-144625789D01*
X88920745Y-144685368D01*
X88920750Y-144685369D01*
X89099996Y-144705565D01*
X89100000Y-144705565D01*
X89100004Y-144705565D01*
X89279249Y-144685369D01*
X89279252Y-144685368D01*
X89279255Y-144685368D01*
X89449522Y-144625789D01*
X89602262Y-144529816D01*
X89729816Y-144402262D01*
X89825789Y-144249522D01*
X89885368Y-144079255D01*
X89905565Y-143900000D01*
X89905565Y-143899996D01*
X97294435Y-143899996D01*
X97294435Y-143900003D01*
X97314630Y-144079249D01*
X97314631Y-144079254D01*
X97374211Y-144249523D01*
X97470184Y-144402262D01*
X97597738Y-144529816D01*
X97750478Y-144625789D01*
X97920745Y-144685368D01*
X97920750Y-144685369D01*
X98099996Y-144705565D01*
X98100000Y-144705565D01*
X98100004Y-144705565D01*
X98279249Y-144685369D01*
X98279252Y-144685368D01*
X98279255Y-144685368D01*
X98449522Y-144625789D01*
X98602262Y-144529816D01*
X98729816Y-144402262D01*
X98825789Y-144249522D01*
X98885368Y-144079255D01*
X98905565Y-143900000D01*
X98905565Y-143899996D01*
X106294435Y-143899996D01*
X106294435Y-143900003D01*
X106314630Y-144079249D01*
X106314631Y-144079254D01*
X106374211Y-144249523D01*
X106470184Y-144402262D01*
X106597738Y-144529816D01*
X106750478Y-144625789D01*
X106920745Y-144685368D01*
X106920750Y-144685369D01*
X107099996Y-144705565D01*
X107100000Y-144705565D01*
X107100004Y-144705565D01*
X107279249Y-144685369D01*
X107279252Y-144685368D01*
X107279255Y-144685368D01*
X107449522Y-144625789D01*
X107602262Y-144529816D01*
X107729816Y-144402262D01*
X107825789Y-144249522D01*
X107885368Y-144079255D01*
X107905565Y-143900000D01*
X107905565Y-143899996D01*
X115294435Y-143899996D01*
X115294435Y-143900003D01*
X115314630Y-144079249D01*
X115314631Y-144079254D01*
X115374211Y-144249523D01*
X115470184Y-144402262D01*
X115597738Y-144529816D01*
X115750478Y-144625789D01*
X115920745Y-144685368D01*
X115920750Y-144685369D01*
X116099996Y-144705565D01*
X116100000Y-144705565D01*
X116100004Y-144705565D01*
X116279249Y-144685369D01*
X116279252Y-144685368D01*
X116279255Y-144685368D01*
X116449522Y-144625789D01*
X116602262Y-144529816D01*
X116729816Y-144402262D01*
X116825789Y-144249522D01*
X116885368Y-144079255D01*
X116905565Y-143900000D01*
X116885368Y-143720745D01*
X116825789Y-143550478D01*
X116729816Y-143397738D01*
X116602262Y-143270184D01*
X116449523Y-143174211D01*
X116279254Y-143114631D01*
X116279249Y-143114630D01*
X116100004Y-143094435D01*
X116099996Y-143094435D01*
X115920750Y-143114630D01*
X115920745Y-143114631D01*
X115750476Y-143174211D01*
X115597737Y-143270184D01*
X115470184Y-143397737D01*
X115374211Y-143550476D01*
X115314631Y-143720745D01*
X115314630Y-143720750D01*
X115294435Y-143899996D01*
X107905565Y-143899996D01*
X107885368Y-143720745D01*
X107825789Y-143550478D01*
X107729816Y-143397738D01*
X107602262Y-143270184D01*
X107449523Y-143174211D01*
X107279254Y-143114631D01*
X107279249Y-143114630D01*
X107100004Y-143094435D01*
X107099996Y-143094435D01*
X106920750Y-143114630D01*
X106920745Y-143114631D01*
X106750476Y-143174211D01*
X106597737Y-143270184D01*
X106470184Y-143397737D01*
X106374211Y-143550476D01*
X106314631Y-143720745D01*
X106314630Y-143720750D01*
X106294435Y-143899996D01*
X98905565Y-143899996D01*
X98885368Y-143720745D01*
X98825789Y-143550478D01*
X98729816Y-143397738D01*
X98602262Y-143270184D01*
X98449523Y-143174211D01*
X98279254Y-143114631D01*
X98279249Y-143114630D01*
X98100004Y-143094435D01*
X98099996Y-143094435D01*
X97920750Y-143114630D01*
X97920745Y-143114631D01*
X97750476Y-143174211D01*
X97597737Y-143270184D01*
X97470184Y-143397737D01*
X97374211Y-143550476D01*
X97314631Y-143720745D01*
X97314630Y-143720750D01*
X97294435Y-143899996D01*
X89905565Y-143899996D01*
X89885368Y-143720745D01*
X89825789Y-143550478D01*
X89729816Y-143397738D01*
X89602262Y-143270184D01*
X89449523Y-143174211D01*
X89279254Y-143114631D01*
X89279249Y-143114630D01*
X89100004Y-143094435D01*
X89099996Y-143094435D01*
X88920750Y-143114630D01*
X88920745Y-143114631D01*
X88750476Y-143174211D01*
X88597737Y-143270184D01*
X88470184Y-143397737D01*
X88374211Y-143550476D01*
X88314631Y-143720745D01*
X88314630Y-143720750D01*
X88294435Y-143899996D01*
X80905565Y-143899996D01*
X80885368Y-143720745D01*
X80825789Y-143550478D01*
X80729816Y-143397738D01*
X80602262Y-143270184D01*
X80449523Y-143174211D01*
X80279254Y-143114631D01*
X80279249Y-143114630D01*
X80100004Y-143094435D01*
X80099996Y-143094435D01*
X79920750Y-143114630D01*
X79920745Y-143114631D01*
X79750476Y-143174211D01*
X79597737Y-143270184D01*
X79470184Y-143397737D01*
X79374211Y-143550476D01*
X79314631Y-143720745D01*
X79314630Y-143720750D01*
X79294435Y-143899996D01*
X71905565Y-143899996D01*
X71885368Y-143720745D01*
X71825789Y-143550478D01*
X71729816Y-143397738D01*
X71602262Y-143270184D01*
X71449523Y-143174211D01*
X71279254Y-143114631D01*
X71279249Y-143114630D01*
X71100004Y-143094435D01*
X71099996Y-143094435D01*
X70920750Y-143114630D01*
X70920745Y-143114631D01*
X70750476Y-143174211D01*
X70597737Y-143270184D01*
X70470184Y-143397737D01*
X70374211Y-143550476D01*
X70314631Y-143720745D01*
X70314630Y-143720750D01*
X70294435Y-143899996D01*
X62905565Y-143899996D01*
X62885368Y-143720745D01*
X62825789Y-143550478D01*
X62729816Y-143397738D01*
X62602262Y-143270184D01*
X62449523Y-143174211D01*
X62279254Y-143114631D01*
X62279249Y-143114630D01*
X62100004Y-143094435D01*
X62099996Y-143094435D01*
X61920750Y-143114630D01*
X61920745Y-143114631D01*
X61750476Y-143174211D01*
X61597737Y-143270184D01*
X61470184Y-143397737D01*
X61374211Y-143550476D01*
X61314631Y-143720745D01*
X61314630Y-143720750D01*
X61294435Y-143899996D01*
X53905565Y-143899996D01*
X53885368Y-143720745D01*
X53825789Y-143550478D01*
X53729816Y-143397738D01*
X53602262Y-143270184D01*
X53449523Y-143174211D01*
X53279254Y-143114631D01*
X53279249Y-143114630D01*
X53100004Y-143094435D01*
X53099996Y-143094435D01*
X52920750Y-143114630D01*
X52920745Y-143114631D01*
X52750476Y-143174211D01*
X52597737Y-143270184D01*
X52470184Y-143397737D01*
X52374211Y-143550476D01*
X52314631Y-143720745D01*
X52314630Y-143720750D01*
X52294435Y-143899996D01*
X49100500Y-143899996D01*
X49100500Y-139799996D01*
X118594435Y-139799996D01*
X118594435Y-139800003D01*
X118614630Y-139979249D01*
X118614631Y-139979254D01*
X118674211Y-140149523D01*
X118770184Y-140302262D01*
X118897738Y-140429816D01*
X119050478Y-140525789D01*
X119220745Y-140585368D01*
X119220750Y-140585369D01*
X119399996Y-140605565D01*
X119400000Y-140605565D01*
X119400004Y-140605565D01*
X119579249Y-140585369D01*
X119579252Y-140585368D01*
X119579255Y-140585368D01*
X119749522Y-140525789D01*
X119902262Y-140429816D01*
X120029816Y-140302262D01*
X120125789Y-140149522D01*
X120185368Y-139979255D01*
X120205565Y-139800000D01*
X120185368Y-139620745D01*
X120125789Y-139450478D01*
X120029816Y-139297738D01*
X119902262Y-139170184D01*
X119749523Y-139074211D01*
X119579254Y-139014631D01*
X119579249Y-139014630D01*
X119400004Y-138994435D01*
X119399996Y-138994435D01*
X119220750Y-139014630D01*
X119220745Y-139014631D01*
X119050476Y-139074211D01*
X118897737Y-139170184D01*
X118770184Y-139297737D01*
X118674211Y-139450476D01*
X118614631Y-139620745D01*
X118614630Y-139620750D01*
X118594435Y-139799996D01*
X49100500Y-139799996D01*
X49100500Y-137499996D01*
X53294435Y-137499996D01*
X53294435Y-137500003D01*
X53314630Y-137679249D01*
X53314631Y-137679254D01*
X53374211Y-137849523D01*
X53470184Y-138002262D01*
X53597738Y-138129816D01*
X53750478Y-138225789D01*
X53920745Y-138285368D01*
X53920750Y-138285369D01*
X54099996Y-138305565D01*
X54100000Y-138305565D01*
X54100004Y-138305565D01*
X54279249Y-138285369D01*
X54279252Y-138285368D01*
X54279255Y-138285368D01*
X54449522Y-138225789D01*
X54602262Y-138129816D01*
X54729816Y-138002262D01*
X54825789Y-137849522D01*
X54885368Y-137679255D01*
X54885369Y-137679249D01*
X54905565Y-137500003D01*
X54905565Y-137499996D01*
X62294435Y-137499996D01*
X62294435Y-137500003D01*
X62314630Y-137679249D01*
X62314631Y-137679254D01*
X62374211Y-137849523D01*
X62470184Y-138002262D01*
X62597738Y-138129816D01*
X62750478Y-138225789D01*
X62920745Y-138285368D01*
X62920750Y-138285369D01*
X63099996Y-138305565D01*
X63100000Y-138305565D01*
X63100004Y-138305565D01*
X63279249Y-138285369D01*
X63279252Y-138285368D01*
X63279255Y-138285368D01*
X63449522Y-138225789D01*
X63602262Y-138129816D01*
X63729816Y-138002262D01*
X63825789Y-137849522D01*
X63885368Y-137679255D01*
X63885369Y-137679249D01*
X63905565Y-137500003D01*
X63905565Y-137499996D01*
X71294435Y-137499996D01*
X71294435Y-137500003D01*
X71314630Y-137679249D01*
X71314631Y-137679254D01*
X71374211Y-137849523D01*
X71470184Y-138002262D01*
X71597738Y-138129816D01*
X71750478Y-138225789D01*
X71920745Y-138285368D01*
X71920750Y-138285369D01*
X72099996Y-138305565D01*
X72100000Y-138305565D01*
X72100004Y-138305565D01*
X72279249Y-138285369D01*
X72279252Y-138285368D01*
X72279255Y-138285368D01*
X72449522Y-138225789D01*
X72602262Y-138129816D01*
X72729816Y-138002262D01*
X72825789Y-137849522D01*
X72885368Y-137679255D01*
X72885369Y-137679249D01*
X72905565Y-137500003D01*
X72905565Y-137499996D01*
X80294435Y-137499996D01*
X80294435Y-137500003D01*
X80314630Y-137679249D01*
X80314631Y-137679254D01*
X80374211Y-137849523D01*
X80470184Y-138002262D01*
X80597738Y-138129816D01*
X80750478Y-138225789D01*
X80920745Y-138285368D01*
X80920750Y-138285369D01*
X81099996Y-138305565D01*
X81100000Y-138305565D01*
X81100004Y-138305565D01*
X81279249Y-138285369D01*
X81279252Y-138285368D01*
X81279255Y-138285368D01*
X81449522Y-138225789D01*
X81602262Y-138129816D01*
X81729816Y-138002262D01*
X81825789Y-137849522D01*
X81885368Y-137679255D01*
X81885369Y-137679249D01*
X81905565Y-137500003D01*
X81905565Y-137499996D01*
X89294435Y-137499996D01*
X89294435Y-137500003D01*
X89314630Y-137679249D01*
X89314631Y-137679254D01*
X89374211Y-137849523D01*
X89470184Y-138002262D01*
X89597738Y-138129816D01*
X89750478Y-138225789D01*
X89920745Y-138285368D01*
X89920750Y-138285369D01*
X90099996Y-138305565D01*
X90100000Y-138305565D01*
X90100004Y-138305565D01*
X90279249Y-138285369D01*
X90279252Y-138285368D01*
X90279255Y-138285368D01*
X90449522Y-138225789D01*
X90602262Y-138129816D01*
X90729816Y-138002262D01*
X90825789Y-137849522D01*
X90885368Y-137679255D01*
X90885369Y-137679249D01*
X90905565Y-137500003D01*
X90905565Y-137499996D01*
X98294435Y-137499996D01*
X98294435Y-137500003D01*
X98314630Y-137679249D01*
X98314631Y-137679254D01*
X98374211Y-137849523D01*
X98470184Y-138002262D01*
X98597738Y-138129816D01*
X98750478Y-138225789D01*
X98920745Y-138285368D01*
X98920750Y-138285369D01*
X99099996Y-138305565D01*
X99100000Y-138305565D01*
X99100004Y-138305565D01*
X99279249Y-138285369D01*
X99279252Y-138285368D01*
X99279255Y-138285368D01*
X99449522Y-138225789D01*
X99602262Y-138129816D01*
X99729816Y-138002262D01*
X99825789Y-137849522D01*
X99885368Y-137679255D01*
X99885369Y-137679249D01*
X99905565Y-137500003D01*
X99905565Y-137499996D01*
X107294435Y-137499996D01*
X107294435Y-137500003D01*
X107314630Y-137679249D01*
X107314631Y-137679254D01*
X107374211Y-137849523D01*
X107470184Y-138002262D01*
X107597738Y-138129816D01*
X107750478Y-138225789D01*
X107920745Y-138285368D01*
X107920750Y-138285369D01*
X108099996Y-138305565D01*
X108100000Y-138305565D01*
X108100004Y-138305565D01*
X108279249Y-138285369D01*
X108279252Y-138285368D01*
X108279255Y-138285368D01*
X108449522Y-138225789D01*
X108602262Y-138129816D01*
X108729816Y-138002262D01*
X108825789Y-137849522D01*
X108885368Y-137679255D01*
X108885369Y-137679249D01*
X108905565Y-137500003D01*
X108905565Y-137499996D01*
X116294435Y-137499996D01*
X116294435Y-137500003D01*
X116314630Y-137679249D01*
X116314631Y-137679254D01*
X116374211Y-137849523D01*
X116470184Y-138002262D01*
X116597738Y-138129816D01*
X116750478Y-138225789D01*
X116920745Y-138285368D01*
X116920750Y-138285369D01*
X117099996Y-138305565D01*
X117100000Y-138305565D01*
X117100004Y-138305565D01*
X117279249Y-138285369D01*
X117279252Y-138285368D01*
X117279255Y-138285368D01*
X117449522Y-138225789D01*
X117602262Y-138129816D01*
X117729816Y-138002262D01*
X117825789Y-137849522D01*
X117885368Y-137679255D01*
X117885369Y-137679249D01*
X117905565Y-137500003D01*
X117905565Y-137499996D01*
X117894298Y-137399996D01*
X119794435Y-137399996D01*
X119794435Y-137400003D01*
X119814630Y-137579249D01*
X119814631Y-137579254D01*
X119874211Y-137749523D01*
X119937045Y-137849522D01*
X119970184Y-137902262D01*
X120097738Y-138029816D01*
X120250478Y-138125789D01*
X120261984Y-138129815D01*
X120420745Y-138185368D01*
X120420750Y-138185369D01*
X120599996Y-138205565D01*
X120600000Y-138205565D01*
X120600004Y-138205565D01*
X120779249Y-138185369D01*
X120779252Y-138185368D01*
X120779255Y-138185368D01*
X120949522Y-138125789D01*
X121102262Y-138029816D01*
X121229816Y-137902262D01*
X121325789Y-137749522D01*
X121385368Y-137579255D01*
X121385369Y-137579249D01*
X121405565Y-137400003D01*
X121405565Y-137399996D01*
X121385369Y-137220750D01*
X121385368Y-137220745D01*
X121325789Y-137050478D01*
X121229816Y-136897738D01*
X121102262Y-136770184D01*
X121013852Y-136714632D01*
X120949523Y-136674211D01*
X120779254Y-136614631D01*
X120779249Y-136614630D01*
X120600004Y-136594435D01*
X120599996Y-136594435D01*
X120420750Y-136614630D01*
X120420745Y-136614631D01*
X120250476Y-136674211D01*
X120097737Y-136770184D01*
X119970184Y-136897737D01*
X119874211Y-137050476D01*
X119814631Y-137220745D01*
X119814630Y-137220750D01*
X119794435Y-137399996D01*
X117894298Y-137399996D01*
X117885369Y-137320750D01*
X117885368Y-137320745D01*
X117825788Y-137150476D01*
X117762955Y-137050478D01*
X117729816Y-136997738D01*
X117602262Y-136870184D01*
X117449523Y-136774211D01*
X117279254Y-136714631D01*
X117279249Y-136714630D01*
X117100004Y-136694435D01*
X117099996Y-136694435D01*
X116920750Y-136714630D01*
X116920745Y-136714631D01*
X116750476Y-136774211D01*
X116597737Y-136870184D01*
X116470184Y-136997737D01*
X116374211Y-137150476D01*
X116314631Y-137320745D01*
X116314630Y-137320750D01*
X116294435Y-137499996D01*
X108905565Y-137499996D01*
X108885369Y-137320750D01*
X108885368Y-137320745D01*
X108825788Y-137150476D01*
X108762955Y-137050478D01*
X108729816Y-136997738D01*
X108602262Y-136870184D01*
X108449523Y-136774211D01*
X108279254Y-136714631D01*
X108279249Y-136714630D01*
X108100004Y-136694435D01*
X108099996Y-136694435D01*
X107920750Y-136714630D01*
X107920745Y-136714631D01*
X107750476Y-136774211D01*
X107597737Y-136870184D01*
X107470184Y-136997737D01*
X107374211Y-137150476D01*
X107314631Y-137320745D01*
X107314630Y-137320750D01*
X107294435Y-137499996D01*
X99905565Y-137499996D01*
X99885369Y-137320750D01*
X99885368Y-137320745D01*
X99825788Y-137150476D01*
X99762955Y-137050478D01*
X99729816Y-136997738D01*
X99602262Y-136870184D01*
X99449523Y-136774211D01*
X99279254Y-136714631D01*
X99279249Y-136714630D01*
X99100004Y-136694435D01*
X99099996Y-136694435D01*
X98920750Y-136714630D01*
X98920745Y-136714631D01*
X98750476Y-136774211D01*
X98597737Y-136870184D01*
X98470184Y-136997737D01*
X98374211Y-137150476D01*
X98314631Y-137320745D01*
X98314630Y-137320750D01*
X98294435Y-137499996D01*
X90905565Y-137499996D01*
X90885369Y-137320750D01*
X90885368Y-137320745D01*
X90825788Y-137150476D01*
X90762955Y-137050478D01*
X90729816Y-136997738D01*
X90602262Y-136870184D01*
X90449523Y-136774211D01*
X90279254Y-136714631D01*
X90279249Y-136714630D01*
X90100004Y-136694435D01*
X90099996Y-136694435D01*
X89920750Y-136714630D01*
X89920745Y-136714631D01*
X89750476Y-136774211D01*
X89597737Y-136870184D01*
X89470184Y-136997737D01*
X89374211Y-137150476D01*
X89314631Y-137320745D01*
X89314630Y-137320750D01*
X89294435Y-137499996D01*
X81905565Y-137499996D01*
X81885369Y-137320750D01*
X81885368Y-137320745D01*
X81825788Y-137150476D01*
X81762955Y-137050478D01*
X81729816Y-136997738D01*
X81602262Y-136870184D01*
X81449523Y-136774211D01*
X81279254Y-136714631D01*
X81279249Y-136714630D01*
X81100004Y-136694435D01*
X81099996Y-136694435D01*
X80920750Y-136714630D01*
X80920745Y-136714631D01*
X80750476Y-136774211D01*
X80597737Y-136870184D01*
X80470184Y-136997737D01*
X80374211Y-137150476D01*
X80314631Y-137320745D01*
X80314630Y-137320750D01*
X80294435Y-137499996D01*
X72905565Y-137499996D01*
X72885369Y-137320750D01*
X72885368Y-137320745D01*
X72825788Y-137150476D01*
X72762955Y-137050478D01*
X72729816Y-136997738D01*
X72602262Y-136870184D01*
X72449523Y-136774211D01*
X72279254Y-136714631D01*
X72279249Y-136714630D01*
X72100004Y-136694435D01*
X72099996Y-136694435D01*
X71920750Y-136714630D01*
X71920745Y-136714631D01*
X71750476Y-136774211D01*
X71597737Y-136870184D01*
X71470184Y-136997737D01*
X71374211Y-137150476D01*
X71314631Y-137320745D01*
X71314630Y-137320750D01*
X71294435Y-137499996D01*
X63905565Y-137499996D01*
X63885369Y-137320750D01*
X63885368Y-137320745D01*
X63825788Y-137150476D01*
X63762955Y-137050478D01*
X63729816Y-136997738D01*
X63602262Y-136870184D01*
X63449523Y-136774211D01*
X63279254Y-136714631D01*
X63279249Y-136714630D01*
X63100004Y-136694435D01*
X63099996Y-136694435D01*
X62920750Y-136714630D01*
X62920745Y-136714631D01*
X62750476Y-136774211D01*
X62597737Y-136870184D01*
X62470184Y-136997737D01*
X62374211Y-137150476D01*
X62314631Y-137320745D01*
X62314630Y-137320750D01*
X62294435Y-137499996D01*
X54905565Y-137499996D01*
X54885369Y-137320750D01*
X54885368Y-137320745D01*
X54825788Y-137150476D01*
X54762955Y-137050478D01*
X54729816Y-136997738D01*
X54602262Y-136870184D01*
X54449523Y-136774211D01*
X54279254Y-136714631D01*
X54279249Y-136714630D01*
X54100004Y-136694435D01*
X54099996Y-136694435D01*
X53920750Y-136714630D01*
X53920745Y-136714631D01*
X53750476Y-136774211D01*
X53597737Y-136870184D01*
X53470184Y-136997737D01*
X53374211Y-137150476D01*
X53314631Y-137320745D01*
X53314630Y-137320750D01*
X53294435Y-137499996D01*
X49100500Y-137499996D01*
X49100500Y-134879996D01*
X53494435Y-134879996D01*
X53494435Y-134880003D01*
X53514630Y-135059249D01*
X53514631Y-135059254D01*
X53574211Y-135229523D01*
X53586778Y-135249523D01*
X53670184Y-135382262D01*
X53797738Y-135509816D01*
X53950478Y-135605789D01*
X54007632Y-135625788D01*
X54120745Y-135665368D01*
X54120750Y-135665369D01*
X54299996Y-135685565D01*
X54300000Y-135685565D01*
X54300004Y-135685565D01*
X54479249Y-135665369D01*
X54479252Y-135665368D01*
X54479255Y-135665368D01*
X54649522Y-135605789D01*
X54802262Y-135509816D01*
X54929816Y-135382262D01*
X55025789Y-135229522D01*
X55085368Y-135059255D01*
X55085369Y-135059249D01*
X55105565Y-134880003D01*
X55105565Y-134879996D01*
X62494435Y-134879996D01*
X62494435Y-134880003D01*
X62514630Y-135059249D01*
X62514631Y-135059254D01*
X62574211Y-135229523D01*
X62586778Y-135249523D01*
X62670184Y-135382262D01*
X62797738Y-135509816D01*
X62950478Y-135605789D01*
X63007632Y-135625788D01*
X63120745Y-135665368D01*
X63120750Y-135665369D01*
X63299996Y-135685565D01*
X63300000Y-135685565D01*
X63300004Y-135685565D01*
X63479249Y-135665369D01*
X63479252Y-135665368D01*
X63479255Y-135665368D01*
X63649522Y-135605789D01*
X63802262Y-135509816D01*
X63929816Y-135382262D01*
X64025789Y-135229522D01*
X64085368Y-135059255D01*
X64085369Y-135059249D01*
X64103312Y-134899996D01*
X71494435Y-134899996D01*
X71494435Y-134900003D01*
X71514630Y-135079249D01*
X71514631Y-135079254D01*
X71574211Y-135249523D01*
X71657617Y-135382262D01*
X71670184Y-135402262D01*
X71797738Y-135529816D01*
X71888080Y-135586582D01*
X71918646Y-135605788D01*
X71950478Y-135625789D01*
X72063591Y-135665369D01*
X72120745Y-135685368D01*
X72120750Y-135685369D01*
X72299996Y-135705565D01*
X72300000Y-135705565D01*
X72300004Y-135705565D01*
X72479249Y-135685369D01*
X72479252Y-135685368D01*
X72479255Y-135685368D01*
X72649522Y-135625789D01*
X72802262Y-135529816D01*
X72929816Y-135402262D01*
X73025789Y-135249522D01*
X73085368Y-135079255D01*
X73085369Y-135079249D01*
X73105565Y-134900003D01*
X73105565Y-134899996D01*
X80494435Y-134899996D01*
X80494435Y-134900003D01*
X80514630Y-135079249D01*
X80514631Y-135079254D01*
X80574211Y-135249523D01*
X80657617Y-135382262D01*
X80670184Y-135402262D01*
X80797738Y-135529816D01*
X80888080Y-135586582D01*
X80918646Y-135605788D01*
X80950478Y-135625789D01*
X81063591Y-135665369D01*
X81120745Y-135685368D01*
X81120750Y-135685369D01*
X81299996Y-135705565D01*
X81300000Y-135705565D01*
X81300004Y-135705565D01*
X81479249Y-135685369D01*
X81479252Y-135685368D01*
X81479255Y-135685368D01*
X81649522Y-135625789D01*
X81802262Y-135529816D01*
X81929816Y-135402262D01*
X82025789Y-135249522D01*
X82085368Y-135079255D01*
X82085369Y-135079249D01*
X82105565Y-134900003D01*
X82105565Y-134899996D01*
X82103312Y-134879996D01*
X89494435Y-134879996D01*
X89494435Y-134880003D01*
X89514630Y-135059249D01*
X89514631Y-135059254D01*
X89574211Y-135229523D01*
X89586778Y-135249523D01*
X89670184Y-135382262D01*
X89797738Y-135509816D01*
X89950478Y-135605789D01*
X90007632Y-135625788D01*
X90120745Y-135665368D01*
X90120750Y-135665369D01*
X90299996Y-135685565D01*
X90300000Y-135685565D01*
X90300004Y-135685565D01*
X90479249Y-135665369D01*
X90479252Y-135665368D01*
X90479255Y-135665368D01*
X90649522Y-135605789D01*
X90802262Y-135509816D01*
X90929816Y-135382262D01*
X91025789Y-135229522D01*
X91085368Y-135059255D01*
X91085369Y-135059249D01*
X91105565Y-134880003D01*
X91105565Y-134879996D01*
X98494435Y-134879996D01*
X98494435Y-134880003D01*
X98514630Y-135059249D01*
X98514631Y-135059254D01*
X98574211Y-135229523D01*
X98586778Y-135249523D01*
X98670184Y-135382262D01*
X98797738Y-135509816D01*
X98950478Y-135605789D01*
X99007632Y-135625788D01*
X99120745Y-135665368D01*
X99120750Y-135665369D01*
X99299996Y-135685565D01*
X99300000Y-135685565D01*
X99300004Y-135685565D01*
X99479249Y-135665369D01*
X99479252Y-135665368D01*
X99479255Y-135665368D01*
X99649522Y-135605789D01*
X99802262Y-135509816D01*
X99929816Y-135382262D01*
X100025789Y-135229522D01*
X100085368Y-135059255D01*
X100085369Y-135059249D01*
X100105565Y-134880003D01*
X100105565Y-134879996D01*
X107494435Y-134879996D01*
X107494435Y-134880003D01*
X107514630Y-135059249D01*
X107514631Y-135059254D01*
X107574211Y-135229523D01*
X107586778Y-135249523D01*
X107670184Y-135382262D01*
X107797738Y-135509816D01*
X107950478Y-135605789D01*
X108007632Y-135625788D01*
X108120745Y-135665368D01*
X108120750Y-135665369D01*
X108299996Y-135685565D01*
X108300000Y-135685565D01*
X108300004Y-135685565D01*
X108479249Y-135665369D01*
X108479252Y-135665368D01*
X108479255Y-135665368D01*
X108649522Y-135605789D01*
X108802262Y-135509816D01*
X108929816Y-135382262D01*
X109025789Y-135229522D01*
X109085368Y-135059255D01*
X109085369Y-135059249D01*
X109105565Y-134880003D01*
X109105565Y-134879996D01*
X116494435Y-134879996D01*
X116494435Y-134880003D01*
X116514630Y-135059249D01*
X116514631Y-135059254D01*
X116574211Y-135229523D01*
X116586778Y-135249523D01*
X116670184Y-135382262D01*
X116797738Y-135509816D01*
X116950478Y-135605789D01*
X117007632Y-135625788D01*
X117120745Y-135665368D01*
X117120750Y-135665369D01*
X117299996Y-135685565D01*
X117300000Y-135685565D01*
X117300004Y-135685565D01*
X117479249Y-135665369D01*
X117479252Y-135665368D01*
X117479255Y-135665368D01*
X117649522Y-135605789D01*
X117802262Y-135509816D01*
X117929816Y-135382262D01*
X118025789Y-135229522D01*
X118085368Y-135059255D01*
X118085369Y-135059249D01*
X118105565Y-134880003D01*
X118105565Y-134879996D01*
X118085369Y-134700750D01*
X118085366Y-134700737D01*
X118025789Y-134530478D01*
X118022769Y-134524206D01*
X118025411Y-134522933D01*
X118009973Y-134468320D01*
X118028974Y-134403601D01*
X118029814Y-134402263D01*
X118029816Y-134402262D01*
X118125789Y-134249522D01*
X118185368Y-134079255D01*
X118205565Y-133900000D01*
X118185368Y-133720745D01*
X118125789Y-133550478D01*
X118029816Y-133397738D01*
X117902262Y-133270184D01*
X117749523Y-133174211D01*
X117579254Y-133114631D01*
X117579249Y-133114630D01*
X117400004Y-133094435D01*
X117399996Y-133094435D01*
X117220750Y-133114630D01*
X117220745Y-133114631D01*
X117050476Y-133174211D01*
X116897737Y-133270184D01*
X116770184Y-133397737D01*
X116674211Y-133550476D01*
X116614631Y-133720745D01*
X116614630Y-133720750D01*
X116594435Y-133899996D01*
X116594435Y-133900003D01*
X116614630Y-134079249D01*
X116614633Y-134079262D01*
X116674210Y-134249521D01*
X116677231Y-134255794D01*
X116674594Y-134257063D01*
X116690025Y-134311718D01*
X116671026Y-134376397D01*
X116574211Y-134530476D01*
X116514631Y-134700745D01*
X116514630Y-134700750D01*
X116494435Y-134879996D01*
X109105565Y-134879996D01*
X109085369Y-134700750D01*
X109085366Y-134700737D01*
X109025789Y-134530478D01*
X109022769Y-134524206D01*
X109025411Y-134522933D01*
X109009973Y-134468320D01*
X109028974Y-134403601D01*
X109029814Y-134402263D01*
X109029816Y-134402262D01*
X109125789Y-134249522D01*
X109185368Y-134079255D01*
X109205565Y-133900000D01*
X109185368Y-133720745D01*
X109125789Y-133550478D01*
X109029816Y-133397738D01*
X108902262Y-133270184D01*
X108749523Y-133174211D01*
X108579254Y-133114631D01*
X108579249Y-133114630D01*
X108400004Y-133094435D01*
X108399996Y-133094435D01*
X108220750Y-133114630D01*
X108220745Y-133114631D01*
X108050476Y-133174211D01*
X107897737Y-133270184D01*
X107770184Y-133397737D01*
X107674211Y-133550476D01*
X107614631Y-133720745D01*
X107614630Y-133720750D01*
X107594435Y-133899996D01*
X107594435Y-133900003D01*
X107614630Y-134079249D01*
X107614633Y-134079262D01*
X107674210Y-134249521D01*
X107677231Y-134255794D01*
X107674594Y-134257063D01*
X107690025Y-134311718D01*
X107671026Y-134376397D01*
X107574211Y-134530476D01*
X107514631Y-134700745D01*
X107514630Y-134700750D01*
X107494435Y-134879996D01*
X100105565Y-134879996D01*
X100085369Y-134700750D01*
X100085366Y-134700737D01*
X100025789Y-134530478D01*
X100022769Y-134524206D01*
X100025411Y-134522933D01*
X100009973Y-134468320D01*
X100028974Y-134403601D01*
X100029814Y-134402263D01*
X100029816Y-134402262D01*
X100125789Y-134249522D01*
X100185368Y-134079255D01*
X100205565Y-133900000D01*
X100185368Y-133720745D01*
X100125789Y-133550478D01*
X100029816Y-133397738D01*
X99902262Y-133270184D01*
X99749523Y-133174211D01*
X99579254Y-133114631D01*
X99579249Y-133114630D01*
X99400004Y-133094435D01*
X99399996Y-133094435D01*
X99220750Y-133114630D01*
X99220745Y-133114631D01*
X99050476Y-133174211D01*
X98897737Y-133270184D01*
X98770184Y-133397737D01*
X98674211Y-133550476D01*
X98614631Y-133720745D01*
X98614630Y-133720750D01*
X98594435Y-133899996D01*
X98594435Y-133900003D01*
X98614630Y-134079249D01*
X98614633Y-134079262D01*
X98674210Y-134249521D01*
X98677231Y-134255794D01*
X98674594Y-134257063D01*
X98690025Y-134311718D01*
X98671026Y-134376397D01*
X98574211Y-134530476D01*
X98514631Y-134700745D01*
X98514630Y-134700750D01*
X98494435Y-134879996D01*
X91105565Y-134879996D01*
X91085369Y-134700750D01*
X91085366Y-134700737D01*
X91025789Y-134530478D01*
X91022769Y-134524206D01*
X91025411Y-134522933D01*
X91009973Y-134468320D01*
X91028974Y-134403601D01*
X91029814Y-134402263D01*
X91029816Y-134402262D01*
X91125789Y-134249522D01*
X91185368Y-134079255D01*
X91205565Y-133900000D01*
X91185368Y-133720745D01*
X91125789Y-133550478D01*
X91029816Y-133397738D01*
X90902262Y-133270184D01*
X90749523Y-133174211D01*
X90579254Y-133114631D01*
X90579249Y-133114630D01*
X90400004Y-133094435D01*
X90399996Y-133094435D01*
X90220750Y-133114630D01*
X90220745Y-133114631D01*
X90050476Y-133174211D01*
X89897737Y-133270184D01*
X89770184Y-133397737D01*
X89674211Y-133550476D01*
X89614631Y-133720745D01*
X89614630Y-133720750D01*
X89594435Y-133899996D01*
X89594435Y-133900003D01*
X89614630Y-134079249D01*
X89614633Y-134079262D01*
X89674210Y-134249521D01*
X89677231Y-134255794D01*
X89674594Y-134257063D01*
X89690025Y-134311718D01*
X89671026Y-134376397D01*
X89574211Y-134530476D01*
X89514631Y-134700745D01*
X89514630Y-134700750D01*
X89494435Y-134879996D01*
X82103312Y-134879996D01*
X82085369Y-134720750D01*
X82085368Y-134720745D01*
X82078367Y-134700737D01*
X82025789Y-134550478D01*
X82022286Y-134544903D01*
X82003284Y-134477666D01*
X82023650Y-134410831D01*
X82029512Y-134402745D01*
X82029814Y-134402263D01*
X82029816Y-134402262D01*
X82125789Y-134249522D01*
X82185368Y-134079255D01*
X82205565Y-133900000D01*
X82185368Y-133720745D01*
X82125789Y-133550478D01*
X82029816Y-133397738D01*
X81902262Y-133270184D01*
X81749523Y-133174211D01*
X81579254Y-133114631D01*
X81579249Y-133114630D01*
X81400004Y-133094435D01*
X81399996Y-133094435D01*
X81220750Y-133114630D01*
X81220745Y-133114631D01*
X81050476Y-133174211D01*
X80897737Y-133270184D01*
X80770184Y-133397737D01*
X80674211Y-133550476D01*
X80614631Y-133720745D01*
X80614630Y-133720750D01*
X80594435Y-133899996D01*
X80594435Y-133900003D01*
X80614630Y-134079249D01*
X80614631Y-134079254D01*
X80674211Y-134249523D01*
X80677715Y-134255099D01*
X80696715Y-134322335D01*
X80676347Y-134389171D01*
X80670491Y-134397249D01*
X80574211Y-134550476D01*
X80514631Y-134720745D01*
X80514630Y-134720750D01*
X80494435Y-134899996D01*
X73105565Y-134899996D01*
X73085369Y-134720750D01*
X73085368Y-134720745D01*
X73078367Y-134700737D01*
X73025789Y-134550478D01*
X73022286Y-134544903D01*
X73003284Y-134477666D01*
X73023650Y-134410831D01*
X73029512Y-134402745D01*
X73029814Y-134402263D01*
X73029816Y-134402262D01*
X73125789Y-134249522D01*
X73185368Y-134079255D01*
X73205565Y-133900000D01*
X73185368Y-133720745D01*
X73125789Y-133550478D01*
X73029816Y-133397738D01*
X72902262Y-133270184D01*
X72749523Y-133174211D01*
X72579254Y-133114631D01*
X72579249Y-133114630D01*
X72400004Y-133094435D01*
X72399996Y-133094435D01*
X72220750Y-133114630D01*
X72220745Y-133114631D01*
X72050476Y-133174211D01*
X71897737Y-133270184D01*
X71770184Y-133397737D01*
X71674211Y-133550476D01*
X71614631Y-133720745D01*
X71614630Y-133720750D01*
X71594435Y-133899996D01*
X71594435Y-133900003D01*
X71614630Y-134079249D01*
X71614631Y-134079254D01*
X71674211Y-134249523D01*
X71677715Y-134255099D01*
X71696715Y-134322335D01*
X71676347Y-134389171D01*
X71670491Y-134397249D01*
X71574211Y-134550476D01*
X71514631Y-134720745D01*
X71514630Y-134720750D01*
X71494435Y-134899996D01*
X64103312Y-134899996D01*
X64105565Y-134880003D01*
X64105565Y-134879996D01*
X64085369Y-134700750D01*
X64085366Y-134700737D01*
X64025789Y-134530478D01*
X64022769Y-134524206D01*
X64025411Y-134522933D01*
X64009973Y-134468320D01*
X64028974Y-134403601D01*
X64029814Y-134402263D01*
X64029816Y-134402262D01*
X64125789Y-134249522D01*
X64185368Y-134079255D01*
X64205565Y-133900000D01*
X64185368Y-133720745D01*
X64125789Y-133550478D01*
X64029816Y-133397738D01*
X63902262Y-133270184D01*
X63749523Y-133174211D01*
X63579254Y-133114631D01*
X63579249Y-133114630D01*
X63400004Y-133094435D01*
X63399996Y-133094435D01*
X63220750Y-133114630D01*
X63220745Y-133114631D01*
X63050476Y-133174211D01*
X62897737Y-133270184D01*
X62770184Y-133397737D01*
X62674211Y-133550476D01*
X62614631Y-133720745D01*
X62614630Y-133720750D01*
X62594435Y-133899996D01*
X62594435Y-133900003D01*
X62614630Y-134079249D01*
X62614633Y-134079262D01*
X62674210Y-134249521D01*
X62677231Y-134255794D01*
X62674594Y-134257063D01*
X62690025Y-134311718D01*
X62671026Y-134376397D01*
X62574211Y-134530476D01*
X62514631Y-134700745D01*
X62514630Y-134700750D01*
X62494435Y-134879996D01*
X55105565Y-134879996D01*
X55085369Y-134700750D01*
X55085366Y-134700737D01*
X55025789Y-134530478D01*
X55022769Y-134524206D01*
X55025411Y-134522933D01*
X55009973Y-134468320D01*
X55028974Y-134403601D01*
X55029814Y-134402263D01*
X55029816Y-134402262D01*
X55125789Y-134249522D01*
X55185368Y-134079255D01*
X55205565Y-133900000D01*
X55185368Y-133720745D01*
X55125789Y-133550478D01*
X55029816Y-133397738D01*
X54902262Y-133270184D01*
X54749523Y-133174211D01*
X54579254Y-133114631D01*
X54579249Y-133114630D01*
X54400004Y-133094435D01*
X54399996Y-133094435D01*
X54220750Y-133114630D01*
X54220745Y-133114631D01*
X54050476Y-133174211D01*
X53897737Y-133270184D01*
X53770184Y-133397737D01*
X53674211Y-133550476D01*
X53614631Y-133720745D01*
X53614630Y-133720750D01*
X53594435Y-133899996D01*
X53594435Y-133900003D01*
X53614630Y-134079249D01*
X53614633Y-134079262D01*
X53674210Y-134249521D01*
X53677231Y-134255794D01*
X53674594Y-134257063D01*
X53690025Y-134311718D01*
X53671026Y-134376397D01*
X53574211Y-134530476D01*
X53514631Y-134700745D01*
X53514630Y-134700750D01*
X53494435Y-134879996D01*
X49100500Y-134879996D01*
X49100500Y-130724500D01*
X49120185Y-130657461D01*
X49172989Y-130611706D01*
X49224500Y-130600500D01*
X121975500Y-130600500D01*
X122042539Y-130620185D01*
G37*
%TD.AperFunction*%
%TD*%
M02*
