%TF.GenerationSoftware,KiCad,Pcbnew,8.0.8*%
%TF.CreationDate,2025-09-05T20:33:19+02:00*%
%TF.ProjectId,REG8bit-SMD,52454738-6269-4742-9d53-4d442e6b6963,rev?*%
%TF.SameCoordinates,Original*%
%TF.FileFunction,Legend,Top*%
%TF.FilePolarity,Positive*%
%FSLAX46Y46*%
G04 Gerber Fmt 4.6, Leading zero omitted, Abs format (unit mm)*
G04 Created by KiCad (PCBNEW 8.0.8) date 2025-09-05 20:33:19*
%MOMM*%
%LPD*%
G01*
G04 APERTURE LIST*
%ADD10C,0.150000*%
%ADD11C,0.120000*%
G04 APERTURE END LIST*
D10*
X111449819Y-166343333D02*
X112164104Y-166343333D01*
X112164104Y-166343333D02*
X112306961Y-166390952D01*
X112306961Y-166390952D02*
X112402200Y-166486190D01*
X112402200Y-166486190D02*
X112449819Y-166629047D01*
X112449819Y-166629047D02*
X112449819Y-166724285D01*
X112449819Y-165343333D02*
X112449819Y-165914761D01*
X112449819Y-165629047D02*
X111449819Y-165629047D01*
X111449819Y-165629047D02*
X111592676Y-165724285D01*
X111592676Y-165724285D02*
X111687914Y-165819523D01*
X111687914Y-165819523D02*
X111735533Y-165914761D01*
D11*
%TO.C,Q18*%
X65300000Y-135940000D02*
X64650000Y-135940000D01*
X65300000Y-135940000D02*
X65950000Y-135940000D01*
X65300000Y-139060000D02*
X64650000Y-139060000D01*
X65300000Y-139060000D02*
X65950000Y-139060000D01*
X66702500Y-139340000D02*
X66222500Y-139340000D01*
X66462500Y-139010000D01*
X66702500Y-139340000D01*
G36*
X66702500Y-139340000D02*
G01*
X66222500Y-139340000D01*
X66462500Y-139010000D01*
X66702500Y-139340000D01*
G37*
%TO.C,Q21*%
X65300000Y-144740000D02*
X64650000Y-144740000D01*
X65300000Y-144740000D02*
X65950000Y-144740000D01*
X65300000Y-147860000D02*
X64650000Y-147860000D01*
X65300000Y-147860000D02*
X65950000Y-147860000D01*
X66702500Y-148140000D02*
X66222500Y-148140000D01*
X66462500Y-147810000D01*
X66702500Y-148140000D01*
G36*
X66702500Y-148140000D02*
G01*
X66222500Y-148140000D01*
X66462500Y-147810000D01*
X66702500Y-148140000D01*
G37*
%TO.C,Q16*%
X60900000Y-135940000D02*
X60250000Y-135940000D01*
X60900000Y-135940000D02*
X61550000Y-135940000D01*
X60900000Y-139060000D02*
X60250000Y-139060000D01*
X60900000Y-139060000D02*
X61550000Y-139060000D01*
X62302500Y-139340000D02*
X61822500Y-139340000D01*
X62062500Y-139010000D01*
X62302500Y-139340000D01*
G36*
X62302500Y-139340000D02*
G01*
X61822500Y-139340000D01*
X62062500Y-139010000D01*
X62302500Y-139340000D01*
G37*
%TO.C,Q27*%
X69900000Y-140340000D02*
X69250000Y-140340000D01*
X69900000Y-140340000D02*
X70550000Y-140340000D01*
X69900000Y-143460000D02*
X69250000Y-143460000D01*
X69900000Y-143460000D02*
X70550000Y-143460000D01*
X71302500Y-143740000D02*
X70822500Y-143740000D01*
X71062500Y-143410000D01*
X71302500Y-143740000D01*
G36*
X71302500Y-143740000D02*
G01*
X70822500Y-143740000D01*
X71062500Y-143410000D01*
X71302500Y-143740000D01*
G37*
%TO.C,Q13*%
X60900000Y-150140000D02*
X60250000Y-150140000D01*
X60900000Y-150140000D02*
X61550000Y-150140000D01*
X60900000Y-153260000D02*
X60250000Y-153260000D01*
X60900000Y-153260000D02*
X61550000Y-153260000D01*
X62302500Y-153540000D02*
X61822500Y-153540000D01*
X62062500Y-153210000D01*
X62302500Y-153540000D01*
G36*
X62302500Y-153540000D02*
G01*
X61822500Y-153540000D01*
X62062500Y-153210000D01*
X62302500Y-153540000D01*
G37*
%TO.C,Q6*%
X51900000Y-140340000D02*
X51250000Y-140340000D01*
X51900000Y-140340000D02*
X52550000Y-140340000D01*
X51900000Y-143460000D02*
X51250000Y-143460000D01*
X51900000Y-143460000D02*
X52550000Y-143460000D01*
X53302500Y-143740000D02*
X52822500Y-143740000D01*
X53062500Y-143410000D01*
X53302500Y-143740000D01*
G36*
X53302500Y-143740000D02*
G01*
X52822500Y-143740000D01*
X53062500Y-143410000D01*
X53302500Y-143740000D01*
G37*
%TO.C,Q5*%
X56300000Y-150140000D02*
X55650000Y-150140000D01*
X56300000Y-150140000D02*
X56950000Y-150140000D01*
X56300000Y-153260000D02*
X55650000Y-153260000D01*
X56300000Y-153260000D02*
X56950000Y-153260000D01*
X57702500Y-153540000D02*
X57222500Y-153540000D01*
X57462500Y-153210000D01*
X57702500Y-153540000D01*
G36*
X57702500Y-153540000D02*
G01*
X57222500Y-153540000D01*
X57462500Y-153210000D01*
X57702500Y-153540000D01*
G37*
%TO.C,Q68*%
X110300000Y-135940000D02*
X109650000Y-135940000D01*
X110300000Y-135940000D02*
X110950000Y-135940000D01*
X110300000Y-139060000D02*
X109650000Y-139060000D01*
X110300000Y-139060000D02*
X110950000Y-139060000D01*
X111702500Y-139340000D02*
X111222500Y-139340000D01*
X111462500Y-139010000D01*
X111702500Y-139340000D01*
G36*
X111702500Y-139340000D02*
G01*
X111222500Y-139340000D01*
X111462500Y-139010000D01*
X111702500Y-139340000D01*
G37*
D10*
%TO.C,D9*%
X120290000Y-160530000D02*
X120290000Y-159070000D01*
X120290000Y-159070000D02*
X118000000Y-159070000D01*
X118000000Y-160530000D02*
X120290000Y-160530000D01*
D11*
%TO.C,Q65*%
X110300000Y-150140000D02*
X109650000Y-150140000D01*
X110300000Y-150140000D02*
X110950000Y-150140000D01*
X110300000Y-153260000D02*
X109650000Y-153260000D01*
X110300000Y-153260000D02*
X110950000Y-153260000D01*
X111702500Y-153540000D02*
X111222500Y-153540000D01*
X111462500Y-153210000D01*
X111702500Y-153540000D01*
G36*
X111702500Y-153540000D02*
G01*
X111222500Y-153540000D01*
X111462500Y-153210000D01*
X111702500Y-153540000D01*
G37*
%TO.C,Q60*%
X96900000Y-144740000D02*
X96250000Y-144740000D01*
X96900000Y-144740000D02*
X97550000Y-144740000D01*
X96900000Y-147860000D02*
X96250000Y-147860000D01*
X96900000Y-147860000D02*
X97550000Y-147860000D01*
X98302500Y-148140000D02*
X97822500Y-148140000D01*
X98062500Y-147810000D01*
X98302500Y-148140000D01*
G36*
X98302500Y-148140000D02*
G01*
X97822500Y-148140000D01*
X98062500Y-147810000D01*
X98302500Y-148140000D01*
G37*
%TO.C,Q45*%
X92300000Y-150140000D02*
X91650000Y-150140000D01*
X92300000Y-150140000D02*
X92950000Y-150140000D01*
X92300000Y-153260000D02*
X91650000Y-153260000D01*
X92300000Y-153260000D02*
X92950000Y-153260000D01*
X93702500Y-153540000D02*
X93222500Y-153540000D01*
X93462500Y-153210000D01*
X93702500Y-153540000D01*
G36*
X93702500Y-153540000D02*
G01*
X93222500Y-153540000D01*
X93462500Y-153210000D01*
X93702500Y-153540000D01*
G37*
%TO.C,Q17*%
X60900000Y-140340000D02*
X60250000Y-140340000D01*
X60900000Y-140340000D02*
X61550000Y-140340000D01*
X60900000Y-143460000D02*
X60250000Y-143460000D01*
X60900000Y-143460000D02*
X61550000Y-143460000D01*
X62302500Y-143740000D02*
X61822500Y-143740000D01*
X62062500Y-143410000D01*
X62302500Y-143740000D01*
G36*
X62302500Y-143740000D02*
G01*
X61822500Y-143740000D01*
X62062500Y-143410000D01*
X62302500Y-143740000D01*
G37*
D10*
%TO.C,D2*%
X60100000Y-132930000D02*
X62390000Y-132930000D01*
X62390000Y-131470000D02*
X60100000Y-131470000D01*
X62390000Y-132930000D02*
X62390000Y-131470000D01*
D11*
%TO.C,Q72*%
X114900000Y-154540000D02*
X114250000Y-154540000D01*
X114900000Y-154540000D02*
X115550000Y-154540000D01*
X114900000Y-157660000D02*
X114250000Y-157660000D01*
X114900000Y-157660000D02*
X115550000Y-157660000D01*
X116302500Y-157940000D02*
X115822500Y-157940000D01*
X116062500Y-157610000D01*
X116302500Y-157940000D01*
G36*
X116302500Y-157940000D02*
G01*
X115822500Y-157940000D01*
X116062500Y-157610000D01*
X116302500Y-157940000D01*
G37*
%TO.C,Q55*%
X101300000Y-150140000D02*
X100650000Y-150140000D01*
X101300000Y-150140000D02*
X101950000Y-150140000D01*
X101300000Y-153260000D02*
X100650000Y-153260000D01*
X101300000Y-153260000D02*
X101950000Y-153260000D01*
X102702500Y-153540000D02*
X102222500Y-153540000D01*
X102462500Y-153210000D01*
X102702500Y-153540000D01*
G36*
X102702500Y-153540000D02*
G01*
X102222500Y-153540000D01*
X102462500Y-153210000D01*
X102702500Y-153540000D01*
G37*
%TO.C,Q9*%
X56300000Y-140340000D02*
X55650000Y-140340000D01*
X56300000Y-140340000D02*
X56950000Y-140340000D01*
X56300000Y-143460000D02*
X55650000Y-143460000D01*
X56300000Y-143460000D02*
X56950000Y-143460000D01*
X57702500Y-143740000D02*
X57222500Y-143740000D01*
X57462500Y-143410000D01*
X57702500Y-143740000D01*
G36*
X57702500Y-143740000D02*
G01*
X57222500Y-143740000D01*
X57462500Y-143410000D01*
X57702500Y-143740000D01*
G37*
%TO.C,Q1*%
X51900000Y-158940000D02*
X51250000Y-158940000D01*
X51900000Y-158940000D02*
X52550000Y-158940000D01*
X51900000Y-162060000D02*
X51250000Y-162060000D01*
X51900000Y-162060000D02*
X52550000Y-162060000D01*
X53302500Y-162340000D02*
X52822500Y-162340000D01*
X53062500Y-162010000D01*
X53302500Y-162340000D01*
G36*
X53302500Y-162340000D02*
G01*
X52822500Y-162340000D01*
X53062500Y-162010000D01*
X53302500Y-162340000D01*
G37*
%TO.C,Q78*%
X119300000Y-135940000D02*
X118650000Y-135940000D01*
X119300000Y-135940000D02*
X119950000Y-135940000D01*
X119300000Y-139060000D02*
X118650000Y-139060000D01*
X119300000Y-139060000D02*
X119950000Y-139060000D01*
X120702500Y-139340000D02*
X120222500Y-139340000D01*
X120462500Y-139010000D01*
X120702500Y-139340000D01*
G36*
X120702500Y-139340000D02*
G01*
X120222500Y-139340000D01*
X120462500Y-139010000D01*
X120702500Y-139340000D01*
G37*
%TO.C,Q14*%
X65300000Y-154540000D02*
X64650000Y-154540000D01*
X65300000Y-154540000D02*
X65950000Y-154540000D01*
X65300000Y-157660000D02*
X64650000Y-157660000D01*
X65300000Y-157660000D02*
X65950000Y-157660000D01*
X66702500Y-157940000D02*
X66222500Y-157940000D01*
X66462500Y-157610000D01*
X66702500Y-157940000D01*
G36*
X66702500Y-157940000D02*
G01*
X66222500Y-157940000D01*
X66462500Y-157610000D01*
X66702500Y-157940000D01*
G37*
%TO.C,Q52*%
X96900000Y-154540000D02*
X96250000Y-154540000D01*
X96900000Y-154540000D02*
X97550000Y-154540000D01*
X96900000Y-157660000D02*
X96250000Y-157660000D01*
X96900000Y-157660000D02*
X97550000Y-157660000D01*
X98302500Y-157940000D02*
X97822500Y-157940000D01*
X98062500Y-157610000D01*
X98302500Y-157940000D01*
G36*
X98302500Y-157940000D02*
G01*
X97822500Y-157940000D01*
X98062500Y-157610000D01*
X98302500Y-157940000D01*
G37*
%TO.C,Q69*%
X110300000Y-140340000D02*
X109650000Y-140340000D01*
X110300000Y-140340000D02*
X110950000Y-140340000D01*
X110300000Y-143460000D02*
X109650000Y-143460000D01*
X110300000Y-143460000D02*
X110950000Y-143460000D01*
X111702500Y-143740000D02*
X111222500Y-143740000D01*
X111462500Y-143410000D01*
X111702500Y-143740000D01*
G36*
X111702500Y-143740000D02*
G01*
X111222500Y-143740000D01*
X111462500Y-143410000D01*
X111702500Y-143740000D01*
G37*
%TO.C,Q31*%
X74300000Y-144740000D02*
X73650000Y-144740000D01*
X74300000Y-144740000D02*
X74950000Y-144740000D01*
X74300000Y-147860000D02*
X73650000Y-147860000D01*
X74300000Y-147860000D02*
X74950000Y-147860000D01*
X75702500Y-148140000D02*
X75222500Y-148140000D01*
X75462500Y-147810000D01*
X75702500Y-148140000D01*
G36*
X75702500Y-148140000D02*
G01*
X75222500Y-148140000D01*
X75462500Y-147810000D01*
X75702500Y-148140000D01*
G37*
%TO.C,Q75*%
X119300000Y-150140000D02*
X118650000Y-150140000D01*
X119300000Y-150140000D02*
X119950000Y-150140000D01*
X119300000Y-153260000D02*
X118650000Y-153260000D01*
X119300000Y-153260000D02*
X119950000Y-153260000D01*
X120702500Y-153540000D02*
X120222500Y-153540000D01*
X120462500Y-153210000D01*
X120702500Y-153540000D01*
G36*
X120702500Y-153540000D02*
G01*
X120222500Y-153540000D01*
X120462500Y-153210000D01*
X120702500Y-153540000D01*
G37*
%TO.C,Q83*%
X65300000Y-131540000D02*
X64650000Y-131540000D01*
X65300000Y-131540000D02*
X65950000Y-131540000D01*
X65300000Y-134660000D02*
X64650000Y-134660000D01*
X65300000Y-134660000D02*
X65950000Y-134660000D01*
X66702500Y-134940000D02*
X66222500Y-134940000D01*
X66462500Y-134610000D01*
X66702500Y-134940000D01*
G36*
X66702500Y-134940000D02*
G01*
X66222500Y-134940000D01*
X66462500Y-134610000D01*
X66702500Y-134940000D01*
G37*
%TO.C,Q34*%
X83300000Y-154540000D02*
X82650000Y-154540000D01*
X83300000Y-154540000D02*
X83950000Y-154540000D01*
X83300000Y-157660000D02*
X82650000Y-157660000D01*
X83300000Y-157660000D02*
X83950000Y-157660000D01*
X84702500Y-157940000D02*
X84222500Y-157940000D01*
X84462500Y-157610000D01*
X84702500Y-157940000D01*
G36*
X84702500Y-157940000D02*
G01*
X84222500Y-157940000D01*
X84462500Y-157610000D01*
X84702500Y-157940000D01*
G37*
%TO.C,Q46*%
X87900000Y-135940000D02*
X87250000Y-135940000D01*
X87900000Y-135940000D02*
X88550000Y-135940000D01*
X87900000Y-139060000D02*
X87250000Y-139060000D01*
X87900000Y-139060000D02*
X88550000Y-139060000D01*
X89302500Y-139340000D02*
X88822500Y-139340000D01*
X89062500Y-139010000D01*
X89302500Y-139340000D01*
G36*
X89302500Y-139340000D02*
G01*
X88822500Y-139340000D01*
X89062500Y-139010000D01*
X89302500Y-139340000D01*
G37*
%TO.C,Q3*%
X51900000Y-150140000D02*
X51250000Y-150140000D01*
X51900000Y-150140000D02*
X52550000Y-150140000D01*
X51900000Y-153260000D02*
X51250000Y-153260000D01*
X51900000Y-153260000D02*
X52550000Y-153260000D01*
X53302500Y-153540000D02*
X52822500Y-153540000D01*
X53062500Y-153210000D01*
X53302500Y-153540000D01*
G36*
X53302500Y-153540000D02*
G01*
X52822500Y-153540000D01*
X53062500Y-153210000D01*
X53302500Y-153540000D01*
G37*
%TO.C,Q76*%
X114862500Y-135940000D02*
X114212500Y-135940000D01*
X114862500Y-135940000D02*
X115512500Y-135940000D01*
X114862500Y-139060000D02*
X114212500Y-139060000D01*
X114862500Y-139060000D02*
X115512500Y-139060000D01*
X116265000Y-139340000D02*
X115785000Y-139340000D01*
X116025000Y-139010000D01*
X116265000Y-139340000D01*
G36*
X116265000Y-139340000D02*
G01*
X115785000Y-139340000D01*
X116025000Y-139010000D01*
X116265000Y-139340000D01*
G37*
%TO.C,Q71*%
X110300000Y-144740000D02*
X109650000Y-144740000D01*
X110300000Y-144740000D02*
X110950000Y-144740000D01*
X110300000Y-147860000D02*
X109650000Y-147860000D01*
X110300000Y-147860000D02*
X110950000Y-147860000D01*
X111702500Y-148140000D02*
X111222500Y-148140000D01*
X111462500Y-147810000D01*
X111702500Y-148140000D01*
G36*
X111702500Y-148140000D02*
G01*
X111222500Y-148140000D01*
X111462500Y-147810000D01*
X111702500Y-148140000D01*
G37*
D10*
%TO.C,D3*%
X69100000Y-132930000D02*
X71390000Y-132930000D01*
X71390000Y-132930000D02*
X71390000Y-131470000D01*
X71390000Y-131470000D02*
X69100000Y-131470000D01*
D11*
%TO.C,Q39*%
X83300000Y-140340000D02*
X82650000Y-140340000D01*
X83300000Y-140340000D02*
X83950000Y-140340000D01*
X83300000Y-143460000D02*
X82650000Y-143460000D01*
X83300000Y-143460000D02*
X83950000Y-143460000D01*
X84702500Y-143740000D02*
X84222500Y-143740000D01*
X84462500Y-143410000D01*
X84702500Y-143740000D01*
G36*
X84702500Y-143740000D02*
G01*
X84222500Y-143740000D01*
X84462500Y-143410000D01*
X84702500Y-143740000D01*
G37*
%TO.C,Q15*%
X65300000Y-150140000D02*
X64650000Y-150140000D01*
X65300000Y-150140000D02*
X65950000Y-150140000D01*
X65300000Y-153260000D02*
X64650000Y-153260000D01*
X65300000Y-153260000D02*
X65950000Y-153260000D01*
X66702500Y-153540000D02*
X66222500Y-153540000D01*
X66462500Y-153210000D01*
X66702500Y-153540000D01*
G36*
X66702500Y-153540000D02*
G01*
X66222500Y-153540000D01*
X66462500Y-153210000D01*
X66702500Y-153540000D01*
G37*
%TO.C,Q32*%
X78900000Y-154540000D02*
X78250000Y-154540000D01*
X78900000Y-154540000D02*
X79550000Y-154540000D01*
X78900000Y-157660000D02*
X78250000Y-157660000D01*
X78900000Y-157660000D02*
X79550000Y-157660000D01*
X80302500Y-157940000D02*
X79822500Y-157940000D01*
X80062500Y-157610000D01*
X80302500Y-157940000D01*
G36*
X80302500Y-157940000D02*
G01*
X79822500Y-157940000D01*
X80062500Y-157610000D01*
X80302500Y-157940000D01*
G37*
%TO.C,Q67*%
X105900000Y-140340000D02*
X105250000Y-140340000D01*
X105900000Y-140340000D02*
X106550000Y-140340000D01*
X105900000Y-143460000D02*
X105250000Y-143460000D01*
X105900000Y-143460000D02*
X106550000Y-143460000D01*
X107302500Y-143740000D02*
X106822500Y-143740000D01*
X107062500Y-143410000D01*
X107302500Y-143740000D01*
G36*
X107302500Y-143740000D02*
G01*
X106822500Y-143740000D01*
X107062500Y-143410000D01*
X107302500Y-143740000D01*
G37*
D10*
%TO.C,D7*%
X107390000Y-131470000D02*
X105100000Y-131470000D01*
X107390000Y-132930000D02*
X107390000Y-131470000D01*
X105100000Y-132930000D02*
X107390000Y-132930000D01*
D11*
%TO.C,Q43*%
X87900000Y-150140000D02*
X87250000Y-150140000D01*
X87900000Y-150140000D02*
X88550000Y-150140000D01*
X87900000Y-153260000D02*
X87250000Y-153260000D01*
X87900000Y-153260000D02*
X88550000Y-153260000D01*
X89302500Y-153540000D02*
X88822500Y-153540000D01*
X89062500Y-153210000D01*
X89302500Y-153540000D01*
G36*
X89302500Y-153540000D02*
G01*
X88822500Y-153540000D01*
X89062500Y-153210000D01*
X89302500Y-153540000D01*
G37*
%TO.C,Q58*%
X101300000Y-135940000D02*
X100650000Y-135940000D01*
X101300000Y-135940000D02*
X101950000Y-135940000D01*
X101300000Y-139060000D02*
X100650000Y-139060000D01*
X101300000Y-139060000D02*
X101950000Y-139060000D01*
X102702500Y-139340000D02*
X102222500Y-139340000D01*
X102462500Y-139010000D01*
X102702500Y-139340000D01*
G36*
X102702500Y-139340000D02*
G01*
X102222500Y-139340000D01*
X102462500Y-139010000D01*
X102702500Y-139340000D01*
G37*
%TO.C,Q40*%
X78900000Y-144740000D02*
X78250000Y-144740000D01*
X78900000Y-144740000D02*
X79550000Y-144740000D01*
X78900000Y-147860000D02*
X78250000Y-147860000D01*
X78900000Y-147860000D02*
X79550000Y-147860000D01*
X80302500Y-148140000D02*
X79822500Y-148140000D01*
X80062500Y-147810000D01*
X80302500Y-148140000D01*
G36*
X80302500Y-148140000D02*
G01*
X79822500Y-148140000D01*
X80062500Y-147810000D01*
X80302500Y-148140000D01*
G37*
%TO.C,Q24*%
X74300000Y-154540000D02*
X73650000Y-154540000D01*
X74300000Y-154540000D02*
X74950000Y-154540000D01*
X74300000Y-157660000D02*
X73650000Y-157660000D01*
X74300000Y-157660000D02*
X74950000Y-157660000D01*
X75702500Y-157940000D02*
X75222500Y-157940000D01*
X75462500Y-157610000D01*
X75702500Y-157940000D01*
G36*
X75702500Y-157940000D02*
G01*
X75222500Y-157940000D01*
X75462500Y-157610000D01*
X75702500Y-157940000D01*
G37*
%TO.C,Q22*%
X69900000Y-154540000D02*
X69250000Y-154540000D01*
X69900000Y-154540000D02*
X70550000Y-154540000D01*
X69900000Y-157660000D02*
X69250000Y-157660000D01*
X69900000Y-157660000D02*
X70550000Y-157660000D01*
X71302500Y-157940000D02*
X70822500Y-157940000D01*
X71062500Y-157610000D01*
X71302500Y-157940000D01*
G36*
X71302500Y-157940000D02*
G01*
X70822500Y-157940000D01*
X71062500Y-157610000D01*
X71302500Y-157940000D01*
G37*
%TO.C,Q63*%
X105900000Y-150140000D02*
X105250000Y-150140000D01*
X105900000Y-150140000D02*
X106550000Y-150140000D01*
X105900000Y-153260000D02*
X105250000Y-153260000D01*
X105900000Y-153260000D02*
X106550000Y-153260000D01*
X107302500Y-153540000D02*
X106822500Y-153540000D01*
X107062500Y-153210000D01*
X107302500Y-153540000D01*
G36*
X107302500Y-153540000D02*
G01*
X106822500Y-153540000D01*
X107062500Y-153210000D01*
X107302500Y-153540000D01*
G37*
%TO.C,Q79*%
X119300000Y-140340000D02*
X118650000Y-140340000D01*
X119300000Y-140340000D02*
X119950000Y-140340000D01*
X119300000Y-143460000D02*
X118650000Y-143460000D01*
X119300000Y-143460000D02*
X119950000Y-143460000D01*
X120702500Y-143740000D02*
X120222500Y-143740000D01*
X120462500Y-143410000D01*
X120702500Y-143740000D01*
G36*
X120702500Y-143740000D02*
G01*
X120222500Y-143740000D01*
X120462500Y-143410000D01*
X120702500Y-143740000D01*
G37*
%TO.C,Q85*%
X83300000Y-131540000D02*
X82650000Y-131540000D01*
X83300000Y-131540000D02*
X83950000Y-131540000D01*
X83300000Y-134660000D02*
X82650000Y-134660000D01*
X83300000Y-134660000D02*
X83950000Y-134660000D01*
X84702500Y-134940000D02*
X84222500Y-134940000D01*
X84462500Y-134610000D01*
X84702500Y-134940000D01*
G36*
X84702500Y-134940000D02*
G01*
X84222500Y-134940000D01*
X84462500Y-134610000D01*
X84702500Y-134940000D01*
G37*
%TO.C,Q33*%
X78900000Y-150140000D02*
X78250000Y-150140000D01*
X78900000Y-150140000D02*
X79550000Y-150140000D01*
X78900000Y-153260000D02*
X78250000Y-153260000D01*
X78900000Y-153260000D02*
X79550000Y-153260000D01*
X80302500Y-153540000D02*
X79822500Y-153540000D01*
X80062500Y-153210000D01*
X80302500Y-153540000D01*
G36*
X80302500Y-153540000D02*
G01*
X79822500Y-153540000D01*
X80062500Y-153210000D01*
X80302500Y-153540000D01*
G37*
%TO.C,Q51*%
X93702500Y-148140000D02*
X93222500Y-148140000D01*
X93462500Y-147810000D01*
X93702500Y-148140000D01*
G36*
X93702500Y-148140000D02*
G01*
X93222500Y-148140000D01*
X93462500Y-147810000D01*
X93702500Y-148140000D01*
G37*
X92300000Y-147860000D02*
X92950000Y-147860000D01*
X92300000Y-147860000D02*
X91650000Y-147860000D01*
X92300000Y-144740000D02*
X92950000Y-144740000D01*
X92300000Y-144740000D02*
X91650000Y-144740000D01*
%TO.C,Q73*%
X114900000Y-150140000D02*
X114250000Y-150140000D01*
X114900000Y-150140000D02*
X115550000Y-150140000D01*
X114900000Y-153260000D02*
X114250000Y-153260000D01*
X114900000Y-153260000D02*
X115550000Y-153260000D01*
X116302500Y-153540000D02*
X115822500Y-153540000D01*
X116062500Y-153210000D01*
X116302500Y-153540000D01*
G36*
X116302500Y-153540000D02*
G01*
X115822500Y-153540000D01*
X116062500Y-153210000D01*
X116302500Y-153540000D01*
G37*
%TO.C,Q36*%
X78900000Y-135940000D02*
X78250000Y-135940000D01*
X78900000Y-135940000D02*
X79550000Y-135940000D01*
X78900000Y-139060000D02*
X78250000Y-139060000D01*
X78900000Y-139060000D02*
X79550000Y-139060000D01*
X80302500Y-139340000D02*
X79822500Y-139340000D01*
X80062500Y-139010000D01*
X80302500Y-139340000D01*
G36*
X80302500Y-139340000D02*
G01*
X79822500Y-139340000D01*
X80062500Y-139010000D01*
X80302500Y-139340000D01*
G37*
%TO.C,Q84*%
X74300000Y-131540000D02*
X73650000Y-131540000D01*
X74300000Y-131540000D02*
X74950000Y-131540000D01*
X74300000Y-134660000D02*
X73650000Y-134660000D01*
X74300000Y-134660000D02*
X74950000Y-134660000D01*
X75702500Y-134940000D02*
X75222500Y-134940000D01*
X75462500Y-134610000D01*
X75702500Y-134940000D01*
G36*
X75702500Y-134940000D02*
G01*
X75222500Y-134940000D01*
X75462500Y-134610000D01*
X75702500Y-134940000D01*
G37*
%TO.C,Q50*%
X89302500Y-148140000D02*
X88822500Y-148140000D01*
X89062500Y-147810000D01*
X89302500Y-148140000D01*
G36*
X89302500Y-148140000D02*
G01*
X88822500Y-148140000D01*
X89062500Y-147810000D01*
X89302500Y-148140000D01*
G37*
X87900000Y-147860000D02*
X88550000Y-147860000D01*
X87900000Y-147860000D02*
X87250000Y-147860000D01*
X87900000Y-144740000D02*
X88550000Y-144740000D01*
X87900000Y-144740000D02*
X87250000Y-144740000D01*
%TO.C,Q89*%
X119300000Y-131440000D02*
X118650000Y-131440000D01*
X119300000Y-131440000D02*
X119950000Y-131440000D01*
X119300000Y-134560000D02*
X118650000Y-134560000D01*
X119300000Y-134560000D02*
X119950000Y-134560000D01*
X120702500Y-134840000D02*
X120222500Y-134840000D01*
X120462500Y-134510000D01*
X120702500Y-134840000D01*
G36*
X120702500Y-134840000D02*
G01*
X120222500Y-134840000D01*
X120462500Y-134510000D01*
X120702500Y-134840000D01*
G37*
%TO.C,Q54*%
X101300000Y-154540000D02*
X100650000Y-154540000D01*
X101300000Y-154540000D02*
X101950000Y-154540000D01*
X101300000Y-157660000D02*
X100650000Y-157660000D01*
X101300000Y-157660000D02*
X101950000Y-157660000D01*
X102702500Y-157940000D02*
X102222500Y-157940000D01*
X102462500Y-157610000D01*
X102702500Y-157940000D01*
G36*
X102702500Y-157940000D02*
G01*
X102222500Y-157940000D01*
X102462500Y-157610000D01*
X102702500Y-157940000D01*
G37*
%TO.C,Q20*%
X60900000Y-144740000D02*
X60250000Y-144740000D01*
X60900000Y-144740000D02*
X61550000Y-144740000D01*
X60900000Y-147860000D02*
X60250000Y-147860000D01*
X60900000Y-147860000D02*
X61550000Y-147860000D01*
X62302500Y-148140000D02*
X61822500Y-148140000D01*
X62062500Y-147810000D01*
X62302500Y-148140000D01*
G36*
X62302500Y-148140000D02*
G01*
X61822500Y-148140000D01*
X62062500Y-147810000D01*
X62302500Y-148140000D01*
G37*
%TO.C,Q87*%
X101300000Y-131540000D02*
X100650000Y-131540000D01*
X101300000Y-131540000D02*
X101950000Y-131540000D01*
X101300000Y-134660000D02*
X100650000Y-134660000D01*
X101300000Y-134660000D02*
X101950000Y-134660000D01*
X102702500Y-134940000D02*
X102222500Y-134940000D01*
X102462500Y-134610000D01*
X102702500Y-134940000D01*
G36*
X102702500Y-134940000D02*
G01*
X102222500Y-134940000D01*
X102462500Y-134610000D01*
X102702500Y-134940000D01*
G37*
%TO.C,Q80*%
X114900000Y-144740000D02*
X114250000Y-144740000D01*
X114900000Y-144740000D02*
X115550000Y-144740000D01*
X114900000Y-147860000D02*
X114250000Y-147860000D01*
X114900000Y-147860000D02*
X115550000Y-147860000D01*
X116302500Y-148140000D02*
X115822500Y-148140000D01*
X116062500Y-147810000D01*
X116302500Y-148140000D01*
G36*
X116302500Y-148140000D02*
G01*
X115822500Y-148140000D01*
X116062500Y-147810000D01*
X116302500Y-148140000D01*
G37*
%TO.C,J1*%
X60135000Y-163065000D02*
X60135000Y-165725000D01*
X60135000Y-165725000D02*
X111055000Y-165725000D01*
X61085000Y-162667929D02*
X61085000Y-163065000D01*
X61085000Y-171725000D02*
X61085000Y-165725000D01*
X61845000Y-162667929D02*
X61845000Y-163065000D01*
X61845000Y-165725000D02*
X61845000Y-171725000D01*
X61845000Y-171725000D02*
X61085000Y-171725000D01*
X62735000Y-163065000D02*
X62735000Y-165725000D01*
X63625000Y-162667929D02*
X63625000Y-163065000D01*
X63625000Y-171725000D02*
X63625000Y-165725000D01*
X64385000Y-162667929D02*
X64385000Y-163065000D01*
X64385000Y-165725000D02*
X64385000Y-171725000D01*
X64385000Y-171725000D02*
X63625000Y-171725000D01*
X65275000Y-163065000D02*
X65275000Y-165725000D01*
X66165000Y-162667929D02*
X66165000Y-163065000D01*
X66165000Y-171725000D02*
X66165000Y-165725000D01*
X66925000Y-162667929D02*
X66925000Y-163065000D01*
X66925000Y-165725000D02*
X66925000Y-171725000D01*
X66925000Y-171725000D02*
X66165000Y-171725000D01*
X67815000Y-163065000D02*
X67815000Y-165725000D01*
X68705000Y-162667929D02*
X68705000Y-163065000D01*
X68705000Y-171725000D02*
X68705000Y-165725000D01*
X69465000Y-162667929D02*
X69465000Y-163065000D01*
X69465000Y-165725000D02*
X69465000Y-171725000D01*
X69465000Y-171725000D02*
X68705000Y-171725000D01*
X70355000Y-163065000D02*
X70355000Y-165725000D01*
X71245000Y-162667929D02*
X71245000Y-163065000D01*
X71245000Y-171725000D02*
X71245000Y-165725000D01*
X72005000Y-162667929D02*
X72005000Y-163065000D01*
X72005000Y-165725000D02*
X72005000Y-171725000D01*
X72005000Y-171725000D02*
X71245000Y-171725000D01*
X72895000Y-163065000D02*
X72895000Y-165725000D01*
X73785000Y-162667929D02*
X73785000Y-163065000D01*
X73785000Y-171725000D02*
X73785000Y-165725000D01*
X74545000Y-162667929D02*
X74545000Y-163065000D01*
X74545000Y-165725000D02*
X74545000Y-171725000D01*
X74545000Y-171725000D02*
X73785000Y-171725000D01*
X75435000Y-163065000D02*
X75435000Y-165725000D01*
X76325000Y-162667929D02*
X76325000Y-163065000D01*
X76325000Y-171725000D02*
X76325000Y-165725000D01*
X77085000Y-162667929D02*
X77085000Y-163065000D01*
X77085000Y-165725000D02*
X77085000Y-171725000D01*
X77085000Y-171725000D02*
X76325000Y-171725000D01*
X77975000Y-163065000D02*
X77975000Y-165725000D01*
X78865000Y-162667929D02*
X78865000Y-163065000D01*
X78865000Y-171725000D02*
X78865000Y-165725000D01*
X79625000Y-162667929D02*
X79625000Y-163065000D01*
X79625000Y-165725000D02*
X79625000Y-171725000D01*
X79625000Y-171725000D02*
X78865000Y-171725000D01*
X80515000Y-163065000D02*
X80515000Y-165725000D01*
X81405000Y-162667929D02*
X81405000Y-163065000D01*
X81405000Y-171725000D02*
X81405000Y-165725000D01*
X82165000Y-162667929D02*
X82165000Y-163065000D01*
X82165000Y-165725000D02*
X82165000Y-171725000D01*
X82165000Y-171725000D02*
X81405000Y-171725000D01*
X83055000Y-163065000D02*
X83055000Y-165725000D01*
X83945000Y-162667929D02*
X83945000Y-163065000D01*
X83945000Y-171725000D02*
X83945000Y-165725000D01*
X84705000Y-162667929D02*
X84705000Y-163065000D01*
X84705000Y-165725000D02*
X84705000Y-171725000D01*
X84705000Y-171725000D02*
X83945000Y-171725000D01*
X85595000Y-163065000D02*
X85595000Y-165725000D01*
X86485000Y-162667929D02*
X86485000Y-163065000D01*
X86485000Y-171725000D02*
X86485000Y-165725000D01*
X87245000Y-162667929D02*
X87245000Y-163065000D01*
X87245000Y-165725000D02*
X87245000Y-171725000D01*
X87245000Y-171725000D02*
X86485000Y-171725000D01*
X88135000Y-163065000D02*
X88135000Y-165725000D01*
X89025000Y-162667929D02*
X89025000Y-163065000D01*
X89025000Y-171725000D02*
X89025000Y-165725000D01*
X89785000Y-162667929D02*
X89785000Y-163065000D01*
X89785000Y-165725000D02*
X89785000Y-171725000D01*
X89785000Y-171725000D02*
X89025000Y-171725000D01*
X90675000Y-163065000D02*
X90675000Y-165725000D01*
X91565000Y-162667929D02*
X91565000Y-163065000D01*
X91565000Y-171725000D02*
X91565000Y-165725000D01*
X92325000Y-162667929D02*
X92325000Y-163065000D01*
X92325000Y-165725000D02*
X92325000Y-171725000D01*
X92325000Y-171725000D02*
X91565000Y-171725000D01*
X93215000Y-163065000D02*
X93215000Y-165725000D01*
X94105000Y-162667929D02*
X94105000Y-163065000D01*
X94105000Y-171725000D02*
X94105000Y-165725000D01*
X94865000Y-162667929D02*
X94865000Y-163065000D01*
X94865000Y-165725000D02*
X94865000Y-171725000D01*
X94865000Y-171725000D02*
X94105000Y-171725000D01*
X95755000Y-163065000D02*
X95755000Y-165725000D01*
X96645000Y-162667929D02*
X96645000Y-163065000D01*
X96645000Y-171725000D02*
X96645000Y-165725000D01*
X97405000Y-162667929D02*
X97405000Y-163065000D01*
X97405000Y-165725000D02*
X97405000Y-171725000D01*
X97405000Y-171725000D02*
X96645000Y-171725000D01*
X98295000Y-163065000D02*
X98295000Y-165725000D01*
X99185000Y-162667929D02*
X99185000Y-163065000D01*
X99185000Y-171725000D02*
X99185000Y-165725000D01*
X99945000Y-162667929D02*
X99945000Y-163065000D01*
X99945000Y-165725000D02*
X99945000Y-171725000D01*
X99945000Y-171725000D02*
X99185000Y-171725000D01*
X100835000Y-163065000D02*
X100835000Y-165725000D01*
X101725000Y-162667929D02*
X101725000Y-163065000D01*
X101725000Y-171725000D02*
X101725000Y-165725000D01*
X102485000Y-162667929D02*
X102485000Y-163065000D01*
X102485000Y-165725000D02*
X102485000Y-171725000D01*
X102485000Y-171725000D02*
X101725000Y-171725000D01*
X103375000Y-163065000D02*
X103375000Y-165725000D01*
X104265000Y-162667929D02*
X104265000Y-163065000D01*
X104265000Y-171725000D02*
X104265000Y-165725000D01*
X105025000Y-162667929D02*
X105025000Y-163065000D01*
X105025000Y-165725000D02*
X105025000Y-171725000D01*
X105025000Y-171725000D02*
X104265000Y-171725000D01*
X105915000Y-163065000D02*
X105915000Y-165725000D01*
X106805000Y-162667929D02*
X106805000Y-163065000D01*
X106805000Y-171725000D02*
X106805000Y-165725000D01*
X107565000Y-162667929D02*
X107565000Y-163065000D01*
X107565000Y-165725000D02*
X107565000Y-171725000D01*
X107565000Y-171725000D02*
X106805000Y-171725000D01*
X108455000Y-163065000D02*
X108455000Y-165725000D01*
X109345000Y-162735000D02*
X109345000Y-163065000D01*
X109345000Y-171725000D02*
X109345000Y-165725000D01*
X109445000Y-165725000D02*
X109445000Y-171725000D01*
X109565000Y-165725000D02*
X109565000Y-171725000D01*
X109685000Y-165725000D02*
X109685000Y-171725000D01*
X109725000Y-160355000D02*
X110995000Y-160355000D01*
X109805000Y-165725000D02*
X109805000Y-171725000D01*
X109925000Y-165725000D02*
X109925000Y-171725000D01*
X110045000Y-165725000D02*
X110045000Y-171725000D01*
X110105000Y-162735000D02*
X110105000Y-163065000D01*
X110105000Y-165725000D02*
X110105000Y-171725000D01*
X110105000Y-171725000D02*
X109345000Y-171725000D01*
X110995000Y-160355000D02*
X110995000Y-161625000D01*
X111055000Y-163065000D02*
X60135000Y-163065000D01*
X111055000Y-165725000D02*
X111055000Y-163065000D01*
%TO.C,Q7*%
X51900000Y-135940000D02*
X51250000Y-135940000D01*
X51900000Y-135940000D02*
X52550000Y-135940000D01*
X51900000Y-139060000D02*
X51250000Y-139060000D01*
X51900000Y-139060000D02*
X52550000Y-139060000D01*
X53302500Y-139340000D02*
X52822500Y-139340000D01*
X53062500Y-139010000D01*
X53302500Y-139340000D01*
G36*
X53302500Y-139340000D02*
G01*
X52822500Y-139340000D01*
X53062500Y-139010000D01*
X53302500Y-139340000D01*
G37*
%TO.C,Q11*%
X56300000Y-144740000D02*
X55650000Y-144740000D01*
X56300000Y-144740000D02*
X56950000Y-144740000D01*
X56300000Y-147860000D02*
X55650000Y-147860000D01*
X56300000Y-147860000D02*
X56950000Y-147860000D01*
X57702500Y-148140000D02*
X57222500Y-148140000D01*
X57462500Y-147810000D01*
X57702500Y-148140000D01*
G36*
X57702500Y-148140000D02*
G01*
X57222500Y-148140000D01*
X57462500Y-147810000D01*
X57702500Y-148140000D01*
G37*
D10*
%TO.C,D4*%
X78100000Y-132930000D02*
X80390000Y-132930000D01*
X80390000Y-132930000D02*
X80390000Y-131470000D01*
X80390000Y-131470000D02*
X78100000Y-131470000D01*
D11*
%TO.C,Q74*%
X119300000Y-154540000D02*
X118650000Y-154540000D01*
X119300000Y-154540000D02*
X119950000Y-154540000D01*
X119300000Y-157660000D02*
X118650000Y-157660000D01*
X119300000Y-157660000D02*
X119950000Y-157660000D01*
X120702500Y-157940000D02*
X120222500Y-157940000D01*
X120462500Y-157610000D01*
X120702500Y-157940000D01*
G36*
X120702500Y-157940000D02*
G01*
X120222500Y-157940000D01*
X120462500Y-157610000D01*
X120702500Y-157940000D01*
G37*
%TO.C,Q70*%
X105900000Y-144740000D02*
X105250000Y-144740000D01*
X105900000Y-144740000D02*
X106550000Y-144740000D01*
X105900000Y-147860000D02*
X105250000Y-147860000D01*
X105900000Y-147860000D02*
X106550000Y-147860000D01*
X107302500Y-148140000D02*
X106822500Y-148140000D01*
X107062500Y-147810000D01*
X107302500Y-148140000D01*
G36*
X107302500Y-148140000D02*
G01*
X106822500Y-148140000D01*
X107062500Y-147810000D01*
X107302500Y-148140000D01*
G37*
%TO.C,Q10*%
X51900000Y-144740000D02*
X51250000Y-144740000D01*
X51900000Y-144740000D02*
X52550000Y-144740000D01*
X51900000Y-147860000D02*
X51250000Y-147860000D01*
X51900000Y-147860000D02*
X52550000Y-147860000D01*
X53302500Y-148140000D02*
X52822500Y-148140000D01*
X53062500Y-147810000D01*
X53302500Y-148140000D01*
G36*
X53302500Y-148140000D02*
G01*
X52822500Y-148140000D01*
X53062500Y-147810000D01*
X53302500Y-148140000D01*
G37*
D10*
%TO.C,D5*%
X87100000Y-132930000D02*
X89390000Y-132930000D01*
X89390000Y-132930000D02*
X89390000Y-131470000D01*
X89390000Y-131470000D02*
X87100000Y-131470000D01*
D11*
%TO.C,Q44*%
X92300000Y-154540000D02*
X91650000Y-154540000D01*
X92300000Y-154540000D02*
X92950000Y-154540000D01*
X92300000Y-157660000D02*
X91650000Y-157660000D01*
X92300000Y-157660000D02*
X92950000Y-157660000D01*
X93702500Y-157940000D02*
X93222500Y-157940000D01*
X93462500Y-157610000D01*
X93702500Y-157940000D01*
G36*
X93702500Y-157940000D02*
G01*
X93222500Y-157940000D01*
X93462500Y-157610000D01*
X93702500Y-157940000D01*
G37*
%TO.C,Q28*%
X74300000Y-135940000D02*
X73650000Y-135940000D01*
X74300000Y-135940000D02*
X74950000Y-135940000D01*
X74300000Y-139060000D02*
X73650000Y-139060000D01*
X74300000Y-139060000D02*
X74950000Y-139060000D01*
X75702500Y-139340000D02*
X75222500Y-139340000D01*
X75462500Y-139010000D01*
X75702500Y-139340000D01*
G36*
X75702500Y-139340000D02*
G01*
X75222500Y-139340000D01*
X75462500Y-139010000D01*
X75702500Y-139340000D01*
G37*
%TO.C,Q86*%
X92300000Y-131540000D02*
X91650000Y-131540000D01*
X92300000Y-131540000D02*
X92950000Y-131540000D01*
X92300000Y-134660000D02*
X91650000Y-134660000D01*
X92300000Y-134660000D02*
X92950000Y-134660000D01*
X93702500Y-134940000D02*
X93222500Y-134940000D01*
X93462500Y-134610000D01*
X93702500Y-134940000D01*
G36*
X93702500Y-134940000D02*
G01*
X93222500Y-134940000D01*
X93462500Y-134610000D01*
X93702500Y-134940000D01*
G37*
%TO.C,Q35*%
X83300000Y-150140000D02*
X82650000Y-150140000D01*
X83300000Y-150140000D02*
X83950000Y-150140000D01*
X83300000Y-153260000D02*
X82650000Y-153260000D01*
X83300000Y-153260000D02*
X83950000Y-153260000D01*
X84702500Y-153540000D02*
X84222500Y-153540000D01*
X84462500Y-153210000D01*
X84702500Y-153540000D01*
G36*
X84702500Y-153540000D02*
G01*
X84222500Y-153540000D01*
X84462500Y-153210000D01*
X84702500Y-153540000D01*
G37*
D10*
%TO.C,D6*%
X96100000Y-132930000D02*
X98390000Y-132930000D01*
X98390000Y-132930000D02*
X98390000Y-131470000D01*
X98390000Y-131470000D02*
X96100000Y-131470000D01*
D11*
%TO.C,Q12*%
X60900000Y-154540000D02*
X60250000Y-154540000D01*
X60900000Y-154540000D02*
X61550000Y-154540000D01*
X60900000Y-157660000D02*
X60250000Y-157660000D01*
X60900000Y-157660000D02*
X61550000Y-157660000D01*
X62302500Y-157940000D02*
X61822500Y-157940000D01*
X62062500Y-157610000D01*
X62302500Y-157940000D01*
G36*
X62302500Y-157940000D02*
G01*
X61822500Y-157940000D01*
X62062500Y-157610000D01*
X62302500Y-157940000D01*
G37*
%TO.C,Q82*%
X56300000Y-131540000D02*
X55650000Y-131540000D01*
X56300000Y-131540000D02*
X56950000Y-131540000D01*
X56300000Y-134660000D02*
X55650000Y-134660000D01*
X56300000Y-134660000D02*
X56950000Y-134660000D01*
X57702500Y-134940000D02*
X57222500Y-134940000D01*
X57462500Y-134610000D01*
X57702500Y-134940000D01*
G36*
X57702500Y-134940000D02*
G01*
X57222500Y-134940000D01*
X57462500Y-134610000D01*
X57702500Y-134940000D01*
G37*
%TO.C,Q57*%
X96900000Y-140340000D02*
X96250000Y-140340000D01*
X96900000Y-140340000D02*
X97550000Y-140340000D01*
X96900000Y-143460000D02*
X96250000Y-143460000D01*
X96900000Y-143460000D02*
X97550000Y-143460000D01*
X98302500Y-143740000D02*
X97822500Y-143740000D01*
X98062500Y-143410000D01*
X98302500Y-143740000D01*
G36*
X98302500Y-143740000D02*
G01*
X97822500Y-143740000D01*
X98062500Y-143410000D01*
X98302500Y-143740000D01*
G37*
D10*
%TO.C,D1*%
X51100000Y-132930000D02*
X53390000Y-132930000D01*
X53390000Y-131470000D02*
X51100000Y-131470000D01*
X53390000Y-132930000D02*
X53390000Y-131470000D01*
D11*
%TO.C,Q26*%
X69900000Y-135940000D02*
X69250000Y-135940000D01*
X69900000Y-135940000D02*
X70550000Y-135940000D01*
X69900000Y-139060000D02*
X69250000Y-139060000D01*
X69900000Y-139060000D02*
X70550000Y-139060000D01*
X71302500Y-139340000D02*
X70822500Y-139340000D01*
X71062500Y-139010000D01*
X71302500Y-139340000D01*
G36*
X71302500Y-139340000D02*
G01*
X70822500Y-139340000D01*
X71062500Y-139010000D01*
X71302500Y-139340000D01*
G37*
%TO.C,Q49*%
X92300000Y-140340000D02*
X91650000Y-140340000D01*
X92300000Y-140340000D02*
X92950000Y-140340000D01*
X92300000Y-143460000D02*
X91650000Y-143460000D01*
X92300000Y-143460000D02*
X92950000Y-143460000D01*
X93702500Y-143740000D02*
X93222500Y-143740000D01*
X93462500Y-143410000D01*
X93702500Y-143740000D01*
G36*
X93702500Y-143740000D02*
G01*
X93222500Y-143740000D01*
X93462500Y-143410000D01*
X93702500Y-143740000D01*
G37*
%TO.C,Q23*%
X69900000Y-150140000D02*
X69250000Y-150140000D01*
X69900000Y-150140000D02*
X70550000Y-150140000D01*
X69900000Y-153260000D02*
X69250000Y-153260000D01*
X69900000Y-153260000D02*
X70550000Y-153260000D01*
X71302500Y-153540000D02*
X70822500Y-153540000D01*
X71062500Y-153210000D01*
X71302500Y-153540000D01*
G36*
X71302500Y-153540000D02*
G01*
X70822500Y-153540000D01*
X71062500Y-153210000D01*
X71302500Y-153540000D01*
G37*
%TO.C,Q2*%
X51900000Y-154540000D02*
X51250000Y-154540000D01*
X51900000Y-154540000D02*
X52550000Y-154540000D01*
X51900000Y-157660000D02*
X51250000Y-157660000D01*
X51900000Y-157660000D02*
X52550000Y-157660000D01*
X53302500Y-157940000D02*
X52822500Y-157940000D01*
X53062500Y-157610000D01*
X53302500Y-157940000D01*
G36*
X53302500Y-157940000D02*
G01*
X52822500Y-157940000D01*
X53062500Y-157610000D01*
X53302500Y-157940000D01*
G37*
%TO.C,Q66*%
X105900000Y-135940000D02*
X105250000Y-135940000D01*
X105900000Y-135940000D02*
X106550000Y-135940000D01*
X105900000Y-139060000D02*
X105250000Y-139060000D01*
X105900000Y-139060000D02*
X106550000Y-139060000D01*
X107302500Y-139340000D02*
X106822500Y-139340000D01*
X107062500Y-139010000D01*
X107302500Y-139340000D01*
G36*
X107302500Y-139340000D02*
G01*
X106822500Y-139340000D01*
X107062500Y-139010000D01*
X107302500Y-139340000D01*
G37*
%TO.C,Q53*%
X96900000Y-150140000D02*
X96250000Y-150140000D01*
X96900000Y-150140000D02*
X97550000Y-150140000D01*
X96900000Y-153260000D02*
X96250000Y-153260000D01*
X96900000Y-153260000D02*
X97550000Y-153260000D01*
X98302500Y-153540000D02*
X97822500Y-153540000D01*
X98062500Y-153210000D01*
X98302500Y-153540000D01*
G36*
X98302500Y-153540000D02*
G01*
X97822500Y-153540000D01*
X98062500Y-153210000D01*
X98302500Y-153540000D01*
G37*
%TO.C,Q38*%
X83300000Y-135940000D02*
X82650000Y-135940000D01*
X83300000Y-135940000D02*
X83950000Y-135940000D01*
X83300000Y-139060000D02*
X82650000Y-139060000D01*
X83300000Y-139060000D02*
X83950000Y-139060000D01*
X84702500Y-139340000D02*
X84222500Y-139340000D01*
X84462500Y-139010000D01*
X84702500Y-139340000D01*
G36*
X84702500Y-139340000D02*
G01*
X84222500Y-139340000D01*
X84462500Y-139010000D01*
X84702500Y-139340000D01*
G37*
%TO.C,Q4*%
X56300000Y-154540000D02*
X55650000Y-154540000D01*
X56300000Y-154540000D02*
X56950000Y-154540000D01*
X56300000Y-157660000D02*
X55650000Y-157660000D01*
X56300000Y-157660000D02*
X56950000Y-157660000D01*
X57702500Y-157940000D02*
X57222500Y-157940000D01*
X57462500Y-157610000D01*
X57702500Y-157940000D01*
G36*
X57702500Y-157940000D02*
G01*
X57222500Y-157940000D01*
X57462500Y-157610000D01*
X57702500Y-157940000D01*
G37*
%TO.C,Q25*%
X74300000Y-150140000D02*
X73650000Y-150140000D01*
X74300000Y-150140000D02*
X74950000Y-150140000D01*
X74300000Y-153260000D02*
X73650000Y-153260000D01*
X74300000Y-153260000D02*
X74950000Y-153260000D01*
X75702500Y-153540000D02*
X75222500Y-153540000D01*
X75462500Y-153210000D01*
X75702500Y-153540000D01*
G36*
X75702500Y-153540000D02*
G01*
X75222500Y-153540000D01*
X75462500Y-153210000D01*
X75702500Y-153540000D01*
G37*
%TO.C,Q37*%
X78900000Y-140340000D02*
X78250000Y-140340000D01*
X78900000Y-140340000D02*
X79550000Y-140340000D01*
X78900000Y-143460000D02*
X78250000Y-143460000D01*
X78900000Y-143460000D02*
X79550000Y-143460000D01*
X80302500Y-143740000D02*
X79822500Y-143740000D01*
X80062500Y-143410000D01*
X80302500Y-143740000D01*
G36*
X80302500Y-143740000D02*
G01*
X79822500Y-143740000D01*
X80062500Y-143410000D01*
X80302500Y-143740000D01*
G37*
%TO.C,Q62*%
X105900000Y-154540000D02*
X105250000Y-154540000D01*
X105900000Y-154540000D02*
X106550000Y-154540000D01*
X105900000Y-157660000D02*
X105250000Y-157660000D01*
X105900000Y-157660000D02*
X106550000Y-157660000D01*
X107302500Y-157940000D02*
X106822500Y-157940000D01*
X107062500Y-157610000D01*
X107302500Y-157940000D01*
G36*
X107302500Y-157940000D02*
G01*
X106822500Y-157940000D01*
X107062500Y-157610000D01*
X107302500Y-157940000D01*
G37*
%TO.C,Q19*%
X65300000Y-140340000D02*
X64650000Y-140340000D01*
X65300000Y-140340000D02*
X65950000Y-140340000D01*
X65300000Y-143460000D02*
X64650000Y-143460000D01*
X65300000Y-143460000D02*
X65950000Y-143460000D01*
X66702500Y-143740000D02*
X66222500Y-143740000D01*
X66462500Y-143410000D01*
X66702500Y-143740000D01*
G36*
X66702500Y-143740000D02*
G01*
X66222500Y-143740000D01*
X66462500Y-143410000D01*
X66702500Y-143740000D01*
G37*
%TO.C,Q48*%
X92300000Y-135940000D02*
X91650000Y-135940000D01*
X92300000Y-135940000D02*
X92950000Y-135940000D01*
X92300000Y-139060000D02*
X91650000Y-139060000D01*
X92300000Y-139060000D02*
X92950000Y-139060000D01*
X93702500Y-139340000D02*
X93222500Y-139340000D01*
X93462500Y-139010000D01*
X93702500Y-139340000D01*
G36*
X93702500Y-139340000D02*
G01*
X93222500Y-139340000D01*
X93462500Y-139010000D01*
X93702500Y-139340000D01*
G37*
%TO.C,Q8*%
X56300000Y-135940000D02*
X55650000Y-135940000D01*
X56300000Y-135940000D02*
X56950000Y-135940000D01*
X56300000Y-139060000D02*
X55650000Y-139060000D01*
X56300000Y-139060000D02*
X56950000Y-139060000D01*
X57702500Y-139340000D02*
X57222500Y-139340000D01*
X57462500Y-139010000D01*
X57702500Y-139340000D01*
G36*
X57702500Y-139340000D02*
G01*
X57222500Y-139340000D01*
X57462500Y-139010000D01*
X57702500Y-139340000D01*
G37*
%TO.C,Q61*%
X101300000Y-144740000D02*
X100650000Y-144740000D01*
X101300000Y-144740000D02*
X101950000Y-144740000D01*
X101300000Y-147860000D02*
X100650000Y-147860000D01*
X101300000Y-147860000D02*
X101950000Y-147860000D01*
X102702500Y-148140000D02*
X102222500Y-148140000D01*
X102462500Y-147810000D01*
X102702500Y-148140000D01*
G36*
X102702500Y-148140000D02*
G01*
X102222500Y-148140000D01*
X102462500Y-147810000D01*
X102702500Y-148140000D01*
G37*
%TO.C,Q42*%
X87900000Y-154540000D02*
X87250000Y-154540000D01*
X87900000Y-154540000D02*
X88550000Y-154540000D01*
X87900000Y-157660000D02*
X87250000Y-157660000D01*
X87900000Y-157660000D02*
X88550000Y-157660000D01*
X89302500Y-157940000D02*
X88822500Y-157940000D01*
X89062500Y-157610000D01*
X89302500Y-157940000D01*
G36*
X89302500Y-157940000D02*
G01*
X88822500Y-157940000D01*
X89062500Y-157610000D01*
X89302500Y-157940000D01*
G37*
D10*
%TO.C,D8*%
X114100000Y-132930000D02*
X116390000Y-132930000D01*
X116390000Y-132930000D02*
X116390000Y-131470000D01*
X116390000Y-131470000D02*
X114100000Y-131470000D01*
D11*
%TO.C,Q29*%
X74300000Y-140340000D02*
X73650000Y-140340000D01*
X74300000Y-140340000D02*
X74950000Y-140340000D01*
X74300000Y-143460000D02*
X73650000Y-143460000D01*
X74300000Y-143460000D02*
X74950000Y-143460000D01*
X75702500Y-143740000D02*
X75222500Y-143740000D01*
X75462500Y-143410000D01*
X75702500Y-143740000D01*
G36*
X75702500Y-143740000D02*
G01*
X75222500Y-143740000D01*
X75462500Y-143410000D01*
X75702500Y-143740000D01*
G37*
%TO.C,Q88*%
X110300000Y-131440000D02*
X109650000Y-131440000D01*
X110300000Y-131440000D02*
X110950000Y-131440000D01*
X110300000Y-134560000D02*
X109650000Y-134560000D01*
X110300000Y-134560000D02*
X110950000Y-134560000D01*
X111702500Y-134840000D02*
X111222500Y-134840000D01*
X111462500Y-134510000D01*
X111702500Y-134840000D01*
G36*
X111702500Y-134840000D02*
G01*
X111222500Y-134840000D01*
X111462500Y-134510000D01*
X111702500Y-134840000D01*
G37*
%TO.C,Q64*%
X110300000Y-154540000D02*
X109650000Y-154540000D01*
X110300000Y-154540000D02*
X110950000Y-154540000D01*
X110300000Y-157660000D02*
X109650000Y-157660000D01*
X110300000Y-157660000D02*
X110950000Y-157660000D01*
X111702500Y-157940000D02*
X111222500Y-157940000D01*
X111462500Y-157610000D01*
X111702500Y-157940000D01*
G36*
X111702500Y-157940000D02*
G01*
X111222500Y-157940000D01*
X111462500Y-157610000D01*
X111702500Y-157940000D01*
G37*
%TO.C,Q59*%
X101300000Y-140340000D02*
X100650000Y-140340000D01*
X101300000Y-140340000D02*
X101950000Y-140340000D01*
X101300000Y-143460000D02*
X100650000Y-143460000D01*
X101300000Y-143460000D02*
X101950000Y-143460000D01*
X102702500Y-143740000D02*
X102222500Y-143740000D01*
X102462500Y-143410000D01*
X102702500Y-143740000D01*
G36*
X102702500Y-143740000D02*
G01*
X102222500Y-143740000D01*
X102462500Y-143410000D01*
X102702500Y-143740000D01*
G37*
%TO.C,Q56*%
X96900000Y-135940000D02*
X96250000Y-135940000D01*
X96900000Y-135940000D02*
X97550000Y-135940000D01*
X96900000Y-139060000D02*
X96250000Y-139060000D01*
X96900000Y-139060000D02*
X97550000Y-139060000D01*
X98302500Y-139340000D02*
X97822500Y-139340000D01*
X98062500Y-139010000D01*
X98302500Y-139340000D01*
G36*
X98302500Y-139340000D02*
G01*
X97822500Y-139340000D01*
X98062500Y-139010000D01*
X98302500Y-139340000D01*
G37*
%TO.C,Q41*%
X83300000Y-144740000D02*
X82650000Y-144740000D01*
X83300000Y-144740000D02*
X83950000Y-144740000D01*
X83300000Y-147860000D02*
X82650000Y-147860000D01*
X83300000Y-147860000D02*
X83950000Y-147860000D01*
X84702500Y-148140000D02*
X84222500Y-148140000D01*
X84462500Y-147810000D01*
X84702500Y-148140000D01*
G36*
X84702500Y-148140000D02*
G01*
X84222500Y-148140000D01*
X84462500Y-147810000D01*
X84702500Y-148140000D01*
G37*
%TO.C,Q30*%
X69900000Y-144740000D02*
X69250000Y-144740000D01*
X69900000Y-144740000D02*
X70550000Y-144740000D01*
X69900000Y-147860000D02*
X69250000Y-147860000D01*
X69900000Y-147860000D02*
X70550000Y-147860000D01*
X71302500Y-148140000D02*
X70822500Y-148140000D01*
X71062500Y-147810000D01*
X71302500Y-148140000D01*
G36*
X71302500Y-148140000D02*
G01*
X70822500Y-148140000D01*
X71062500Y-147810000D01*
X71302500Y-148140000D01*
G37*
%TO.C,Q77*%
X114862500Y-140340000D02*
X114212500Y-140340000D01*
X114862500Y-140340000D02*
X115512500Y-140340000D01*
X114862500Y-143460000D02*
X114212500Y-143460000D01*
X114862500Y-143460000D02*
X115512500Y-143460000D01*
X116265000Y-143740000D02*
X115785000Y-143740000D01*
X116025000Y-143410000D01*
X116265000Y-143740000D01*
G36*
X116265000Y-143740000D02*
G01*
X115785000Y-143740000D01*
X116025000Y-143410000D01*
X116265000Y-143740000D01*
G37*
%TO.C,Q81*%
X119300000Y-144740000D02*
X118650000Y-144740000D01*
X119300000Y-144740000D02*
X119950000Y-144740000D01*
X119300000Y-147860000D02*
X118650000Y-147860000D01*
X119300000Y-147860000D02*
X119950000Y-147860000D01*
X120702500Y-148140000D02*
X120222500Y-148140000D01*
X120462500Y-147810000D01*
X120702500Y-148140000D01*
G36*
X120702500Y-148140000D02*
G01*
X120222500Y-148140000D01*
X120462500Y-147810000D01*
X120702500Y-148140000D01*
G37*
%TO.C,Q47*%
X87900000Y-140340000D02*
X87250000Y-140340000D01*
X87900000Y-140340000D02*
X88550000Y-140340000D01*
X87900000Y-143460000D02*
X87250000Y-143460000D01*
X87900000Y-143460000D02*
X88550000Y-143460000D01*
X89302500Y-143740000D02*
X88822500Y-143740000D01*
X89062500Y-143410000D01*
X89302500Y-143740000D01*
G36*
X89302500Y-143740000D02*
G01*
X88822500Y-143740000D01*
X89062500Y-143410000D01*
X89302500Y-143740000D01*
G37*
%TD*%
M02*
