%TF.GenerationSoftware,KiCad,Pcbnew,8.0.8*%
%TF.CreationDate,2025-09-05T20:33:19+02:00*%
%TF.ProjectId,REG8bit-SMD,52454738-6269-4742-9d53-4d442e6b6963,rev?*%
%TF.SameCoordinates,Original*%
%TF.FileFunction,Paste,Top*%
%TF.FilePolarity,Positive*%
%FSLAX46Y46*%
G04 Gerber Fmt 4.6, Leading zero omitted, Abs format (unit mm)*
G04 Created by KiCad (PCBNEW 8.0.8) date 2025-09-05 20:33:19*
%MOMM*%
%LPD*%
G01*
G04 APERTURE LIST*
G04 Aperture macros list*
%AMRoundRect*
0 Rectangle with rounded corners*
0 $1 Rounding radius*
0 $2 $3 $4 $5 $6 $7 $8 $9 X,Y pos of 4 corners*
0 Add a 4 corners polygon primitive as box body*
4,1,4,$2,$3,$4,$5,$6,$7,$8,$9,$2,$3,0*
0 Add four circle primitives for the rounded corners*
1,1,$1+$1,$2,$3*
1,1,$1+$1,$4,$5*
1,1,$1+$1,$6,$7*
1,1,$1+$1,$8,$9*
0 Add four rect primitives between the rounded corners*
20,1,$1+$1,$2,$3,$4,$5,0*
20,1,$1+$1,$4,$5,$6,$7,0*
20,1,$1+$1,$6,$7,$8,$9,0*
20,1,$1+$1,$8,$9,$2,$3,0*%
G04 Aperture macros list end*
%ADD10RoundRect,0.150000X0.587500X0.150000X-0.587500X0.150000X-0.587500X-0.150000X0.587500X-0.150000X0*%
%ADD11RoundRect,0.140000X0.170000X-0.140000X0.170000X0.140000X-0.170000X0.140000X-0.170000X-0.140000X0*%
%ADD12RoundRect,0.140000X-0.140000X-0.170000X0.140000X-0.170000X0.140000X0.170000X-0.140000X0.170000X0*%
%ADD13RoundRect,0.140000X0.140000X0.170000X-0.140000X0.170000X-0.140000X-0.170000X0.140000X-0.170000X0*%
%ADD14RoundRect,0.220000X0.220000X0.255000X-0.220000X0.255000X-0.220000X-0.255000X0.220000X-0.255000X0*%
%ADD15RoundRect,0.140000X-0.170000X0.140000X-0.170000X-0.140000X0.170000X-0.140000X0.170000X0.140000X0*%
%ADD16RoundRect,0.250000X-0.250000X-0.475000X0.250000X-0.475000X0.250000X0.475000X-0.250000X0.475000X0*%
G04 APERTURE END LIST*
D10*
%TO.C,Q18*%
X66237500Y-138450000D03*
X66237500Y-136550000D03*
X64362500Y-137500000D03*
%TD*%
%TO.C,Q21*%
X66237500Y-147250000D03*
X66237500Y-145350000D03*
X64362500Y-146300000D03*
%TD*%
D11*
%TO.C,R43*%
X59400000Y-134900000D03*
X59400000Y-133900000D03*
%TD*%
D10*
%TO.C,Q16*%
X61837500Y-138450000D03*
X61837500Y-136550000D03*
X59962500Y-137500000D03*
%TD*%
D12*
%TO.C,R22*%
X89600000Y-149000000D03*
X90600000Y-149000000D03*
%TD*%
D10*
%TO.C,Q27*%
X70837500Y-142850000D03*
X70837500Y-140950000D03*
X68962500Y-141900000D03*
%TD*%
%TO.C,Q13*%
X61837500Y-152650000D03*
X61837500Y-150750000D03*
X59962500Y-151700000D03*
%TD*%
%TO.C,Q6*%
X52837500Y-142850000D03*
X52837500Y-140950000D03*
X50962500Y-141900000D03*
%TD*%
D13*
%TO.C,R36*%
X105900000Y-149000000D03*
X104900000Y-149000000D03*
%TD*%
D10*
%TO.C,Q5*%
X57237500Y-152650000D03*
X57237500Y-150750000D03*
X55362500Y-151700000D03*
%TD*%
D13*
%TO.C,R38*%
X120300000Y-149000000D03*
X119300000Y-149000000D03*
%TD*%
D10*
%TO.C,Q68*%
X111237500Y-138450000D03*
X111237500Y-136550000D03*
X109362500Y-137500000D03*
%TD*%
D13*
%TO.C,R13*%
X75300000Y-149000000D03*
X74300000Y-149000000D03*
%TD*%
D14*
%TO.C,D9*%
X119590000Y-159800000D03*
X118010000Y-159800000D03*
%TD*%
D10*
%TO.C,Q65*%
X111237500Y-152650000D03*
X111237500Y-150750000D03*
X109362500Y-151700000D03*
%TD*%
%TO.C,Q60*%
X97837500Y-147250000D03*
X97837500Y-145350000D03*
X95962500Y-146300000D03*
%TD*%
%TO.C,Q45*%
X93237500Y-152650000D03*
X93237500Y-150750000D03*
X91362500Y-151700000D03*
%TD*%
%TO.C,Q17*%
X61837500Y-142850000D03*
X61837500Y-140950000D03*
X59962500Y-141900000D03*
%TD*%
D14*
%TO.C,D2*%
X61690000Y-132200000D03*
X60110000Y-132200000D03*
%TD*%
D10*
%TO.C,Q72*%
X115837500Y-157050000D03*
X115837500Y-155150000D03*
X113962500Y-156100000D03*
%TD*%
D11*
%TO.C,R46*%
X86400000Y-134900000D03*
X86400000Y-133900000D03*
%TD*%
D10*
%TO.C,Q55*%
X102237500Y-152650000D03*
X102237500Y-150750000D03*
X100362500Y-151700000D03*
%TD*%
%TO.C,Q9*%
X57237500Y-142850000D03*
X57237500Y-140950000D03*
X55362500Y-141900000D03*
%TD*%
%TO.C,Q1*%
X52837500Y-161450000D03*
X52837500Y-159550000D03*
X50962500Y-160500000D03*
%TD*%
%TO.C,Q78*%
X120237500Y-138450000D03*
X120237500Y-136550000D03*
X118362500Y-137500000D03*
%TD*%
D11*
%TO.C,R48*%
X104400000Y-133900000D03*
X104400000Y-134900000D03*
%TD*%
D10*
%TO.C,Q14*%
X66237500Y-157050000D03*
X66237500Y-155150000D03*
X64362500Y-156100000D03*
%TD*%
%TO.C,Q52*%
X97837500Y-157050000D03*
X97837500Y-155150000D03*
X95962500Y-156100000D03*
%TD*%
%TO.C,Q69*%
X111237500Y-142850000D03*
X111237500Y-140950000D03*
X109362500Y-141900000D03*
%TD*%
D13*
%TO.C,R28*%
X102300000Y-149000000D03*
X101300000Y-149000000D03*
%TD*%
D10*
%TO.C,Q31*%
X75237500Y-147250000D03*
X75237500Y-145350000D03*
X73362500Y-146300000D03*
%TD*%
%TO.C,Q75*%
X120237500Y-152650000D03*
X120237500Y-150750000D03*
X118362500Y-151700000D03*
%TD*%
%TO.C,Q83*%
X66237500Y-134050000D03*
X66237500Y-132150000D03*
X64362500Y-133100000D03*
%TD*%
%TO.C,Q34*%
X84237500Y-157050000D03*
X84237500Y-155150000D03*
X82362500Y-156100000D03*
%TD*%
D12*
%TO.C,R12*%
X71600000Y-149000000D03*
X72600000Y-149000000D03*
%TD*%
D15*
%TO.C,R15*%
X71400000Y-133900000D03*
X71400000Y-134900000D03*
%TD*%
D10*
%TO.C,Q46*%
X88837500Y-138450000D03*
X88837500Y-136550000D03*
X86962500Y-137500000D03*
%TD*%
%TO.C,Q3*%
X52837500Y-152650000D03*
X52837500Y-150750000D03*
X50962500Y-151700000D03*
%TD*%
%TO.C,Q76*%
X115800000Y-138450000D03*
X115800000Y-136550000D03*
X113925000Y-137500000D03*
%TD*%
D13*
%TO.C,R21*%
X78900000Y-149000000D03*
X77900000Y-149000000D03*
%TD*%
D10*
%TO.C,Q71*%
X111237500Y-147250000D03*
X111237500Y-145350000D03*
X109362500Y-146300000D03*
%TD*%
D13*
%TO.C,R41*%
X113900000Y-149000000D03*
X114900000Y-149000000D03*
%TD*%
%TO.C,R16*%
X69900000Y-149000000D03*
X68900000Y-149000000D03*
%TD*%
D14*
%TO.C,D3*%
X70690000Y-132200000D03*
X69110000Y-132200000D03*
%TD*%
D10*
%TO.C,Q39*%
X84237500Y-142850000D03*
X84237500Y-140950000D03*
X82362500Y-141900000D03*
%TD*%
%TO.C,Q15*%
X66237500Y-152650000D03*
X66237500Y-150750000D03*
X64362500Y-151700000D03*
%TD*%
%TO.C,Q32*%
X79837500Y-157050000D03*
X79837500Y-155150000D03*
X77962500Y-156100000D03*
%TD*%
%TO.C,Q67*%
X106837500Y-142850000D03*
X106837500Y-140950000D03*
X104962500Y-141900000D03*
%TD*%
D14*
%TO.C,D7*%
X105110000Y-132200000D03*
X106690000Y-132200000D03*
%TD*%
D10*
%TO.C,Q43*%
X88837500Y-152650000D03*
X88837500Y-150750000D03*
X86962500Y-151700000D03*
%TD*%
%TO.C,Q58*%
X102237500Y-138450000D03*
X102237500Y-136550000D03*
X100362500Y-137500000D03*
%TD*%
%TO.C,Q40*%
X79837500Y-147250000D03*
X79837500Y-145350000D03*
X77962500Y-146300000D03*
%TD*%
%TO.C,Q24*%
X75237500Y-157050000D03*
X75237500Y-155150000D03*
X73362500Y-156100000D03*
%TD*%
D15*
%TO.C,R5*%
X53400000Y-133900000D03*
X53400000Y-134900000D03*
%TD*%
D10*
%TO.C,Q22*%
X70837500Y-157050000D03*
X70837500Y-155150000D03*
X68962500Y-156100000D03*
%TD*%
%TO.C,Q63*%
X106837500Y-152650000D03*
X106837500Y-150750000D03*
X104962500Y-151700000D03*
%TD*%
D15*
%TO.C,R39*%
X114900000Y-133900000D03*
X114900000Y-134900000D03*
%TD*%
D10*
%TO.C,Q79*%
X120237500Y-142850000D03*
X120237500Y-140950000D03*
X118362500Y-141900000D03*
%TD*%
%TO.C,Q85*%
X84237500Y-134050000D03*
X84237500Y-132150000D03*
X82362500Y-133100000D03*
%TD*%
%TO.C,Q33*%
X79837500Y-152650000D03*
X79837500Y-150750000D03*
X77962500Y-151700000D03*
%TD*%
D13*
%TO.C,R6*%
X51900000Y-149000000D03*
X50900000Y-149000000D03*
%TD*%
D15*
%TO.C,R20*%
X80400000Y-133900000D03*
X80400000Y-134900000D03*
%TD*%
D10*
%TO.C,Q51*%
X91362500Y-146300000D03*
X93237500Y-145350000D03*
X93237500Y-147250000D03*
%TD*%
%TO.C,Q73*%
X115837500Y-152650000D03*
X115837500Y-150750000D03*
X113962500Y-151700000D03*
%TD*%
D12*
%TO.C,R32*%
X108600000Y-149000000D03*
X107600000Y-149000000D03*
%TD*%
D10*
%TO.C,Q36*%
X79837500Y-138450000D03*
X79837500Y-136550000D03*
X77962500Y-137500000D03*
%TD*%
D12*
%TO.C,R8*%
X65300000Y-149000000D03*
X66300000Y-149000000D03*
%TD*%
D10*
%TO.C,Q84*%
X75237500Y-134050000D03*
X75237500Y-132150000D03*
X73362500Y-133100000D03*
%TD*%
D11*
%TO.C,R50*%
X116300000Y-160400000D03*
X116300000Y-159400000D03*
%TD*%
D13*
%TO.C,R26*%
X86900000Y-149000000D03*
X87900000Y-149000000D03*
%TD*%
D10*
%TO.C,Q50*%
X86962500Y-146300000D03*
X88837500Y-145350000D03*
X88837500Y-147250000D03*
%TD*%
D13*
%TO.C,R11*%
X60900000Y-149000000D03*
X59900000Y-149000000D03*
%TD*%
D10*
%TO.C,Q89*%
X120237500Y-133950000D03*
X120237500Y-132050000D03*
X118362500Y-133000000D03*
%TD*%
%TO.C,Q54*%
X102237500Y-157050000D03*
X102237500Y-155150000D03*
X100362500Y-156100000D03*
%TD*%
%TO.C,Q20*%
X61837500Y-147250000D03*
X61837500Y-145350000D03*
X59962500Y-146300000D03*
%TD*%
D12*
%TO.C,R2*%
X53600000Y-149000000D03*
X54600000Y-149000000D03*
%TD*%
D10*
%TO.C,Q87*%
X102237500Y-134050000D03*
X102237500Y-132150000D03*
X100362500Y-133100000D03*
%TD*%
%TO.C,Q80*%
X115837500Y-147250000D03*
X115837500Y-145350000D03*
X113962500Y-146300000D03*
%TD*%
%TO.C,Q7*%
X52837500Y-138450000D03*
X52837500Y-136550000D03*
X50962500Y-137500000D03*
%TD*%
D13*
%TO.C,R23*%
X93300000Y-149000000D03*
X92300000Y-149000000D03*
%TD*%
D10*
%TO.C,Q11*%
X57237500Y-147250000D03*
X57237500Y-145350000D03*
X55362500Y-146300000D03*
%TD*%
D14*
%TO.C,D4*%
X79690000Y-132200000D03*
X78110000Y-132200000D03*
%TD*%
D15*
%TO.C,R34*%
X105900000Y-133900000D03*
X105900000Y-134900000D03*
%TD*%
D10*
%TO.C,Q74*%
X120237500Y-157050000D03*
X120237500Y-155150000D03*
X118362500Y-156100000D03*
%TD*%
%TO.C,Q70*%
X106837500Y-147250000D03*
X106837500Y-145350000D03*
X104962500Y-146300000D03*
%TD*%
%TO.C,Q10*%
X52837500Y-147250000D03*
X52837500Y-145350000D03*
X50962500Y-146300000D03*
%TD*%
D14*
%TO.C,D5*%
X88690000Y-132200000D03*
X87110000Y-132200000D03*
%TD*%
D11*
%TO.C,R45*%
X77400000Y-134900000D03*
X77400000Y-133900000D03*
%TD*%
D12*
%TO.C,R37*%
X117600000Y-149000000D03*
X116600000Y-149000000D03*
%TD*%
D10*
%TO.C,Q44*%
X93237500Y-157050000D03*
X93237500Y-155150000D03*
X91362500Y-156100000D03*
%TD*%
%TO.C,Q28*%
X75237500Y-138450000D03*
X75237500Y-136550000D03*
X73362500Y-137500000D03*
%TD*%
%TO.C,Q86*%
X93237500Y-134050000D03*
X93237500Y-132150000D03*
X91362500Y-133100000D03*
%TD*%
%TO.C,Q35*%
X84237500Y-152650000D03*
X84237500Y-150750000D03*
X82362500Y-151700000D03*
%TD*%
D14*
%TO.C,D6*%
X97690000Y-132200000D03*
X96110000Y-132200000D03*
%TD*%
D10*
%TO.C,Q12*%
X61837500Y-157050000D03*
X61837500Y-155150000D03*
X59962500Y-156100000D03*
%TD*%
D11*
%TO.C,R42*%
X50400000Y-134900000D03*
X50400000Y-133900000D03*
%TD*%
D15*
%TO.C,R19*%
X78900000Y-133900000D03*
X78900000Y-134900000D03*
%TD*%
%TO.C,R24*%
X87900000Y-133900000D03*
X87900000Y-134900000D03*
%TD*%
D10*
%TO.C,Q82*%
X57237500Y-134050000D03*
X57237500Y-132150000D03*
X55362500Y-133100000D03*
%TD*%
%TO.C,Q57*%
X97837500Y-142850000D03*
X97837500Y-140950000D03*
X95962500Y-141900000D03*
%TD*%
D14*
%TO.C,D1*%
X52690000Y-132200000D03*
X51110000Y-132200000D03*
%TD*%
D15*
%TO.C,R29*%
X96900000Y-133900000D03*
X96900000Y-134900000D03*
%TD*%
D10*
%TO.C,Q26*%
X70837500Y-138450000D03*
X70837500Y-136550000D03*
X68962500Y-137500000D03*
%TD*%
%TO.C,Q49*%
X93237500Y-142850000D03*
X93237500Y-140950000D03*
X91362500Y-141900000D03*
%TD*%
D15*
%TO.C,R25*%
X89400000Y-133900000D03*
X89400000Y-134900000D03*
%TD*%
D12*
%TO.C,R27*%
X98600000Y-149000000D03*
X99600000Y-149000000D03*
%TD*%
D10*
%TO.C,Q23*%
X70837500Y-152650000D03*
X70837500Y-150750000D03*
X68962500Y-151700000D03*
%TD*%
%TO.C,Q2*%
X52837500Y-157050000D03*
X52837500Y-155150000D03*
X50962500Y-156100000D03*
%TD*%
%TO.C,Q66*%
X106837500Y-138450000D03*
X106837500Y-136550000D03*
X104962500Y-137500000D03*
%TD*%
D15*
%TO.C,R35*%
X107400000Y-133900000D03*
X107400000Y-134900000D03*
%TD*%
D10*
%TO.C,Q53*%
X97837500Y-152650000D03*
X97837500Y-150750000D03*
X95962500Y-151700000D03*
%TD*%
D13*
%TO.C,R33*%
X111300000Y-149000000D03*
X110300000Y-149000000D03*
%TD*%
D15*
%TO.C,R40*%
X116400000Y-133900000D03*
X116400000Y-134900000D03*
%TD*%
D10*
%TO.C,Q38*%
X84237500Y-138450000D03*
X84237500Y-136550000D03*
X82362500Y-137500000D03*
%TD*%
%TO.C,Q4*%
X57237500Y-157050000D03*
X57237500Y-155150000D03*
X55362500Y-156100000D03*
%TD*%
D11*
%TO.C,R44*%
X68400000Y-134900000D03*
X68400000Y-133900000D03*
%TD*%
D13*
%TO.C,R31*%
X96900000Y-149000000D03*
X95900000Y-149000000D03*
%TD*%
D16*
%TO.C,C1*%
X112650000Y-159900000D03*
X114550000Y-159900000D03*
%TD*%
D10*
%TO.C,Q25*%
X75237500Y-152650000D03*
X75237500Y-150750000D03*
X73362500Y-151700000D03*
%TD*%
%TO.C,Q37*%
X79837500Y-142850000D03*
X79837500Y-140950000D03*
X77962500Y-141900000D03*
%TD*%
%TO.C,Q62*%
X106837500Y-157050000D03*
X106837500Y-155150000D03*
X104962500Y-156100000D03*
%TD*%
D15*
%TO.C,R30*%
X98400000Y-133900000D03*
X98400000Y-134900000D03*
%TD*%
D10*
%TO.C,Q19*%
X66237500Y-142850000D03*
X66237500Y-140950000D03*
X64362500Y-141900000D03*
%TD*%
%TO.C,Q48*%
X93237500Y-138450000D03*
X93237500Y-136550000D03*
X91362500Y-137500000D03*
%TD*%
%TO.C,Q8*%
X57237500Y-138450000D03*
X57237500Y-136550000D03*
X55362500Y-137500000D03*
%TD*%
D11*
%TO.C,R49*%
X113400000Y-134900000D03*
X113400000Y-133900000D03*
%TD*%
D10*
%TO.C,Q61*%
X102237500Y-147250000D03*
X102237500Y-145350000D03*
X100362500Y-146300000D03*
%TD*%
D11*
%TO.C,R47*%
X95400000Y-134900000D03*
X95400000Y-133900000D03*
%TD*%
D15*
%TO.C,R4*%
X51900000Y-133900000D03*
X51900000Y-134900000D03*
%TD*%
D10*
%TO.C,Q42*%
X88837500Y-157050000D03*
X88837500Y-155150000D03*
X86962500Y-156100000D03*
%TD*%
D14*
%TO.C,D8*%
X115690000Y-132200000D03*
X114110000Y-132200000D03*
%TD*%
D10*
%TO.C,Q29*%
X75237500Y-142850000D03*
X75237500Y-140950000D03*
X73362500Y-141900000D03*
%TD*%
D12*
%TO.C,R17*%
X80600000Y-149000000D03*
X81600000Y-149000000D03*
%TD*%
D10*
%TO.C,Q88*%
X111237500Y-133950000D03*
X111237500Y-132050000D03*
X109362500Y-133000000D03*
%TD*%
D15*
%TO.C,R10*%
X62400000Y-133900000D03*
X62400000Y-134900000D03*
%TD*%
D10*
%TO.C,Q64*%
X111237500Y-157050000D03*
X111237500Y-155150000D03*
X109362500Y-156100000D03*
%TD*%
%TO.C,Q59*%
X102237500Y-142850000D03*
X102237500Y-140950000D03*
X100362500Y-141900000D03*
%TD*%
D12*
%TO.C,R3*%
X56300000Y-149000000D03*
X57300000Y-149000000D03*
%TD*%
D10*
%TO.C,Q56*%
X97837500Y-138450000D03*
X97837500Y-136550000D03*
X95962500Y-137500000D03*
%TD*%
D12*
%TO.C,R7*%
X62600000Y-149000000D03*
X63600000Y-149000000D03*
%TD*%
D10*
%TO.C,Q41*%
X84237500Y-147250000D03*
X84237500Y-145350000D03*
X82362500Y-146300000D03*
%TD*%
D15*
%TO.C,R14*%
X69900000Y-133900000D03*
X69900000Y-134900000D03*
%TD*%
%TO.C,R1*%
X54800000Y-159200000D03*
X54800000Y-160200000D03*
%TD*%
D10*
%TO.C,Q30*%
X70837500Y-147250000D03*
X70837500Y-145350000D03*
X68962500Y-146300000D03*
%TD*%
D15*
%TO.C,R9*%
X60900000Y-133900000D03*
X60900000Y-134900000D03*
%TD*%
D10*
%TO.C,Q77*%
X115800000Y-142850000D03*
X115800000Y-140950000D03*
X113925000Y-141900000D03*
%TD*%
D13*
%TO.C,R18*%
X84300000Y-149000000D03*
X83300000Y-149000000D03*
%TD*%
D10*
%TO.C,Q81*%
X120237500Y-147250000D03*
X120237500Y-145350000D03*
X118362500Y-146300000D03*
%TD*%
%TO.C,Q47*%
X88837500Y-142850000D03*
X88837500Y-140950000D03*
X86962500Y-141900000D03*
%TD*%
M02*
