%TF.GenerationSoftware,KiCad,Pcbnew,9.0.7*%
%TF.CreationDate,2026-02-26T12:37:46+01:00*%
%TF.ProjectId,Register_Holder_V1.0,52656769-7374-4657-925f-486f6c646572,rev?*%
%TF.SameCoordinates,Original*%
%TF.FileFunction,Copper,L6,Bot*%
%TF.FilePolarity,Positive*%
%FSLAX46Y46*%
G04 Gerber Fmt 4.6, Leading zero omitted, Abs format (unit mm)*
G04 Created by KiCad (PCBNEW 9.0.7) date 2026-02-26 12:37:46*
%MOMM*%
%LPD*%
G01*
G04 APERTURE LIST*
%TA.AperFunction,ComponentPad*%
%ADD10R,1.700000X1.700000*%
%TD*%
%TA.AperFunction,ComponentPad*%
%ADD11C,1.700000*%
%TD*%
%TA.AperFunction,ViaPad*%
%ADD12C,0.600000*%
%TD*%
%TA.AperFunction,ViaPad*%
%ADD13C,1.000000*%
%TD*%
%TA.AperFunction,ViaPad*%
%ADD14C,1.500000*%
%TD*%
%TA.AperFunction,Conductor*%
%ADD15C,0.200000*%
%TD*%
%TA.AperFunction,Conductor*%
%ADD16C,0.400000*%
%TD*%
%TA.AperFunction,Conductor*%
%ADD17C,0.600000*%
%TD*%
G04 APERTURE END LIST*
D10*
%TO.P,J6,1,Pin_1*%
%TO.N,Rising_Edge*%
X63460000Y-23700000D03*
D11*
%TO.P,J6,2,Pin_2*%
%TO.N,RST*%
X66000000Y-23700000D03*
%TD*%
D10*
%TO.P,J3,1,Pin_1*%
%TO.N,VCC*%
X144590000Y-33100000D03*
D11*
%TO.P,J3,2,Pin_2*%
%TO.N,GND*%
X144590000Y-35640000D03*
%TO.P,J3,3,Pin_3*%
%TO.N,RST*%
X144590000Y-38180000D03*
%TO.P,J3,4,Pin_4*%
%TO.N,Net-(J3-Pin_4)*%
X144590000Y-40720000D03*
%TO.P,J3,5,Pin_5*%
%TO.N,Rising_Edge*%
X144590000Y-43260000D03*
%TO.P,J3,6,Pin_6*%
%TO.N,Net-(J1-Pin_6)*%
X144590000Y-45800000D03*
%TO.P,J3,7,Pin_7*%
%TO.N,Net-(J1-Pin_7)*%
X144590000Y-48340000D03*
%TO.P,J3,8,Pin_8*%
%TO.N,Net-(J1-Pin_8)*%
X144590000Y-50880000D03*
%TO.P,J3,9,Pin_9*%
%TO.N,Net-(J1-Pin_9)*%
X144590000Y-53420000D03*
%TO.P,J3,10,Pin_10*%
%TO.N,Net-(J1-Pin_10)*%
X144590000Y-55960000D03*
%TO.P,J3,11,Pin_11*%
%TO.N,Net-(J1-Pin_11)*%
X144590000Y-58500000D03*
%TO.P,J3,12,Pin_12*%
%TO.N,Net-(J1-Pin_12)*%
X144590000Y-61040000D03*
%TO.P,J3,13,Pin_13*%
%TO.N,Net-(J1-Pin_13)*%
X144590000Y-63580000D03*
%TO.P,J3,14,Pin_14*%
%TO.N,Net-(J3-Pin_14)*%
X144590000Y-66120000D03*
%TO.P,J3,15,Pin_15*%
%TO.N,Net-(J3-Pin_15)*%
X144590000Y-68660000D03*
%TO.P,J3,16,Pin_16*%
%TO.N,Net-(J3-Pin_16)*%
X144590000Y-71200000D03*
%TO.P,J3,17,Pin_17*%
%TO.N,Net-(J3-Pin_17)*%
X144590000Y-73740000D03*
%TO.P,J3,18,Pin_18*%
%TO.N,Net-(J3-Pin_18)*%
X144590000Y-76280000D03*
%TO.P,J3,19,Pin_19*%
%TO.N,Net-(J3-Pin_19)*%
X144590000Y-78820000D03*
%TO.P,J3,20,Pin_20*%
%TO.N,Net-(J3-Pin_20)*%
X144590000Y-81360000D03*
%TO.P,J3,21,Pin_21*%
%TO.N,Net-(J3-Pin_21)*%
X144590000Y-83900000D03*
%TD*%
D10*
%TO.P,J14,1,Pin_1*%
%TO.N,VCC*%
X135712500Y-111712500D03*
D11*
%TO.P,J14,2,Pin_2*%
%TO.N,GND*%
X135712500Y-114252500D03*
%TD*%
D10*
%TO.P,J15,1,Pin_1*%
%TO.N,VCC*%
X57190000Y-102925000D03*
D11*
%TO.P,J15,2,Pin_2*%
%TO.N,GND*%
X57190000Y-105465000D03*
%TD*%
D10*
%TO.P,J5,1,Pin_1*%
%TO.N,Net-(J1-Pin_4)*%
X57190000Y-63000000D03*
D11*
%TO.P,J5,2,Pin_2*%
%TO.N,Net-(J2-Pin_4)*%
X57190000Y-65540000D03*
%TO.P,J5,3,Pin_3*%
%TO.N,Net-(J3-Pin_4)*%
X57190000Y-68080000D03*
%TO.P,J5,4,Pin_4*%
%TO.N,Net-(J4-Pin_4)*%
X57190000Y-70620000D03*
%TD*%
D10*
%TO.P,J9,1,Pin_1*%
%TO.N,Net-(J1-Pin_6)*%
X204200000Y-31100000D03*
D11*
%TO.P,J9,2,Pin_2*%
%TO.N,Net-(J1-Pin_7)*%
X204200000Y-33640000D03*
%TO.P,J9,3,Pin_3*%
%TO.N,Net-(J1-Pin_8)*%
X204200000Y-36180000D03*
%TO.P,J9,4,Pin_4*%
%TO.N,Net-(J1-Pin_9)*%
X204200000Y-38720000D03*
%TO.P,J9,5,Pin_5*%
%TO.N,Net-(J1-Pin_10)*%
X204200000Y-41260000D03*
%TO.P,J9,6,Pin_6*%
%TO.N,Net-(J1-Pin_11)*%
X204200000Y-43800000D03*
%TO.P,J9,7,Pin_7*%
%TO.N,Net-(J1-Pin_12)*%
X204200000Y-46340000D03*
%TO.P,J9,8,Pin_8*%
%TO.N,Net-(J1-Pin_13)*%
X204200000Y-48880000D03*
%TD*%
D10*
%TO.P,J10,1,Pin_1*%
%TO.N,Net-(J10-Pin_1)*%
X66100000Y-114000000D03*
D11*
%TO.P,J10,2,Pin_2*%
%TO.N,Net-(J10-Pin_2)*%
X68640000Y-114000000D03*
%TO.P,J10,3,Pin_3*%
%TO.N,Net-(J10-Pin_3)*%
X71180000Y-114000000D03*
%TO.P,J10,4,Pin_4*%
%TO.N,Net-(J10-Pin_4)*%
X73720000Y-114000000D03*
%TO.P,J10,5,Pin_5*%
%TO.N,Net-(J10-Pin_5)*%
X76260000Y-114000000D03*
%TO.P,J10,6,Pin_6*%
%TO.N,Net-(J10-Pin_6)*%
X78800000Y-114000000D03*
%TO.P,J10,7,Pin_7*%
%TO.N,Net-(J10-Pin_7)*%
X81340000Y-114000000D03*
%TO.P,J10,8,Pin_8*%
%TO.N,Net-(J10-Pin_8)*%
X83880000Y-114000000D03*
%TD*%
D10*
%TO.P,J1,1,Pin_1*%
%TO.N,VCC*%
X80590000Y-33100000D03*
D11*
%TO.P,J1,2,Pin_2*%
%TO.N,GND*%
X80590000Y-35640000D03*
%TO.P,J1,3,Pin_3*%
%TO.N,RST*%
X80590000Y-38180000D03*
%TO.P,J1,4,Pin_4*%
%TO.N,Net-(J1-Pin_4)*%
X80590000Y-40720000D03*
%TO.P,J1,5,Pin_5*%
%TO.N,Rising_Edge*%
X80590000Y-43260000D03*
%TO.P,J1,6,Pin_6*%
%TO.N,Net-(J1-Pin_6)*%
X80590000Y-45800000D03*
%TO.P,J1,7,Pin_7*%
%TO.N,Net-(J1-Pin_7)*%
X80590000Y-48340000D03*
%TO.P,J1,8,Pin_8*%
%TO.N,Net-(J1-Pin_8)*%
X80590000Y-50880000D03*
%TO.P,J1,9,Pin_9*%
%TO.N,Net-(J1-Pin_9)*%
X80590000Y-53420000D03*
%TO.P,J1,10,Pin_10*%
%TO.N,Net-(J1-Pin_10)*%
X80590000Y-55960000D03*
%TO.P,J1,11,Pin_11*%
%TO.N,Net-(J1-Pin_11)*%
X80590000Y-58500000D03*
%TO.P,J1,12,Pin_12*%
%TO.N,Net-(J1-Pin_12)*%
X80590000Y-61040000D03*
%TO.P,J1,13,Pin_13*%
%TO.N,Net-(J1-Pin_13)*%
X80590000Y-63580000D03*
%TO.P,J1,14,Pin_14*%
%TO.N,Net-(J1-Pin_14)*%
X80590000Y-66120000D03*
%TO.P,J1,15,Pin_15*%
%TO.N,Net-(J1-Pin_15)*%
X80590000Y-68660000D03*
%TO.P,J1,16,Pin_16*%
%TO.N,Net-(J1-Pin_16)*%
X80590000Y-71200000D03*
%TO.P,J1,17,Pin_17*%
%TO.N,Net-(J1-Pin_17)*%
X80590000Y-73740000D03*
%TO.P,J1,18,Pin_18*%
%TO.N,Net-(J1-Pin_18)*%
X80590000Y-76280000D03*
%TO.P,J1,19,Pin_19*%
%TO.N,Net-(J1-Pin_19)*%
X80590000Y-78820000D03*
%TO.P,J1,20,Pin_20*%
%TO.N,Net-(J1-Pin_20)*%
X80590000Y-81360000D03*
%TO.P,J1,21,Pin_21*%
%TO.N,Net-(J1-Pin_21)*%
X80590000Y-83900000D03*
%TD*%
D10*
%TO.P,J4,1,Pin_1*%
%TO.N,VCC*%
X176590000Y-33100000D03*
D11*
%TO.P,J4,2,Pin_2*%
%TO.N,GND*%
X176590000Y-35640000D03*
%TO.P,J4,3,Pin_3*%
%TO.N,RST*%
X176590000Y-38180000D03*
%TO.P,J4,4,Pin_4*%
%TO.N,Net-(J4-Pin_4)*%
X176590000Y-40720000D03*
%TO.P,J4,5,Pin_5*%
%TO.N,Rising_Edge*%
X176590000Y-43260000D03*
%TO.P,J4,6,Pin_6*%
%TO.N,Net-(J1-Pin_6)*%
X176590000Y-45800000D03*
%TO.P,J4,7,Pin_7*%
%TO.N,Net-(J1-Pin_7)*%
X176590000Y-48340000D03*
%TO.P,J4,8,Pin_8*%
%TO.N,Net-(J1-Pin_8)*%
X176590000Y-50880000D03*
%TO.P,J4,9,Pin_9*%
%TO.N,Net-(J1-Pin_9)*%
X176590000Y-53420000D03*
%TO.P,J4,10,Pin_10*%
%TO.N,Net-(J1-Pin_10)*%
X176590000Y-55960000D03*
%TO.P,J4,11,Pin_11*%
%TO.N,Net-(J1-Pin_11)*%
X176590000Y-58500000D03*
%TO.P,J4,12,Pin_12*%
%TO.N,Net-(J1-Pin_12)*%
X176590000Y-61040000D03*
%TO.P,J4,13,Pin_13*%
%TO.N,Net-(J1-Pin_13)*%
X176590000Y-63580000D03*
%TO.P,J4,14,Pin_14*%
%TO.N,Net-(J4-Pin_14)*%
X176590000Y-66120000D03*
%TO.P,J4,15,Pin_15*%
%TO.N,Net-(J4-Pin_15)*%
X176590000Y-68660000D03*
%TO.P,J4,16,Pin_16*%
%TO.N,Net-(J4-Pin_16)*%
X176590000Y-71200000D03*
%TO.P,J4,17,Pin_17*%
%TO.N,Net-(J4-Pin_17)*%
X176590000Y-73740000D03*
%TO.P,J4,18,Pin_18*%
%TO.N,Net-(J4-Pin_18)*%
X176590000Y-76280000D03*
%TO.P,J4,19,Pin_19*%
%TO.N,Net-(J4-Pin_19)*%
X176590000Y-78820000D03*
%TO.P,J4,20,Pin_20*%
%TO.N,Net-(J4-Pin_20)*%
X176590000Y-81360000D03*
%TO.P,J4,21,Pin_21*%
%TO.N,Net-(J4-Pin_21)*%
X176590000Y-83900000D03*
%TD*%
D10*
%TO.P,J8,1,Pin_1*%
%TO.N,Net-(J8-Pin_1)*%
X57190000Y-89380000D03*
D11*
%TO.P,J8,2,Pin_2*%
%TO.N,Net-(J8-Pin_2)*%
X57190000Y-91920000D03*
%TO.P,J8,3,Pin_3*%
%TO.N,Net-(J8-Pin_3)*%
X57190000Y-94460000D03*
%TO.P,J8,4,Pin_4*%
%TO.N,Net-(J8-Pin_4)*%
X57190000Y-97000000D03*
%TD*%
D10*
%TO.P,J11,1,Pin_1*%
%TO.N,Net-(J11-Pin_1)*%
X101100000Y-114000000D03*
D11*
%TO.P,J11,2,Pin_2*%
%TO.N,Net-(J11-Pin_2)*%
X103640000Y-114000000D03*
%TO.P,J11,3,Pin_3*%
%TO.N,Net-(J11-Pin_3)*%
X106180000Y-114000000D03*
%TO.P,J11,4,Pin_4*%
%TO.N,Net-(J11-Pin_4)*%
X108720000Y-114000000D03*
%TO.P,J11,5,Pin_5*%
%TO.N,Net-(J11-Pin_5)*%
X111260000Y-114000000D03*
%TO.P,J11,6,Pin_6*%
%TO.N,Net-(J11-Pin_6)*%
X113800000Y-114000000D03*
%TO.P,J11,7,Pin_7*%
%TO.N,Net-(J11-Pin_7)*%
X116340000Y-114000000D03*
%TO.P,J11,8,Pin_8*%
%TO.N,Net-(J11-Pin_8)*%
X118880000Y-114000000D03*
%TD*%
D10*
%TO.P,J7,1,Pin_1*%
%TO.N,Net-(J7-Pin_1)*%
X57190000Y-76200000D03*
D11*
%TO.P,J7,2,Pin_2*%
%TO.N,Net-(J7-Pin_2)*%
X57190000Y-78740000D03*
%TO.P,J7,3,Pin_3*%
%TO.N,Net-(J7-Pin_3)*%
X57190000Y-81280000D03*
%TO.P,J7,4,Pin_4*%
%TO.N,Net-(J7-Pin_4)*%
X57190000Y-83820000D03*
%TD*%
D10*
%TO.P,J12,1,Pin_1*%
%TO.N,Net-(J1-Pin_6)*%
X57190000Y-31120000D03*
D11*
%TO.P,J12,2,Pin_2*%
%TO.N,Net-(J1-Pin_7)*%
X57190000Y-33660000D03*
%TO.P,J12,3,Pin_3*%
%TO.N,Net-(J1-Pin_8)*%
X57190000Y-36200000D03*
%TO.P,J12,4,Pin_4*%
%TO.N,Net-(J1-Pin_9)*%
X57190000Y-38740000D03*
%TO.P,J12,5,Pin_5*%
%TO.N,Net-(J1-Pin_10)*%
X57190000Y-41280000D03*
%TO.P,J12,6,Pin_6*%
%TO.N,Net-(J1-Pin_11)*%
X57190000Y-43820000D03*
%TO.P,J12,7,Pin_7*%
%TO.N,Net-(J1-Pin_12)*%
X57190000Y-46360000D03*
%TO.P,J12,8,Pin_8*%
%TO.N,Net-(J1-Pin_13)*%
X57190000Y-48900000D03*
%TD*%
D10*
%TO.P,J2,1,Pin_1*%
%TO.N,VCC*%
X112590000Y-33100000D03*
D11*
%TO.P,J2,2,Pin_2*%
%TO.N,GND*%
X112590000Y-35640000D03*
%TO.P,J2,3,Pin_3*%
%TO.N,RST*%
X112590000Y-38180000D03*
%TO.P,J2,4,Pin_4*%
%TO.N,Net-(J2-Pin_4)*%
X112590000Y-40720000D03*
%TO.P,J2,5,Pin_5*%
%TO.N,Rising_Edge*%
X112590000Y-43260000D03*
%TO.P,J2,6,Pin_6*%
%TO.N,Net-(J1-Pin_6)*%
X112590000Y-45800000D03*
%TO.P,J2,7,Pin_7*%
%TO.N,Net-(J1-Pin_7)*%
X112590000Y-48340000D03*
%TO.P,J2,8,Pin_8*%
%TO.N,Net-(J1-Pin_8)*%
X112590000Y-50880000D03*
%TO.P,J2,9,Pin_9*%
%TO.N,Net-(J1-Pin_9)*%
X112590000Y-53420000D03*
%TO.P,J2,10,Pin_10*%
%TO.N,Net-(J1-Pin_10)*%
X112590000Y-55960000D03*
%TO.P,J2,11,Pin_11*%
%TO.N,Net-(J1-Pin_11)*%
X112590000Y-58500000D03*
%TO.P,J2,12,Pin_12*%
%TO.N,Net-(J1-Pin_12)*%
X112590000Y-61040000D03*
%TO.P,J2,13,Pin_13*%
%TO.N,Net-(J1-Pin_13)*%
X112590000Y-63580000D03*
%TO.P,J2,14,Pin_14*%
%TO.N,Net-(J2-Pin_14)*%
X112590000Y-66120000D03*
%TO.P,J2,15,Pin_15*%
%TO.N,Net-(J2-Pin_15)*%
X112590000Y-68660000D03*
%TO.P,J2,16,Pin_16*%
%TO.N,Net-(J2-Pin_16)*%
X112590000Y-71200000D03*
%TO.P,J2,17,Pin_17*%
%TO.N,Net-(J2-Pin_17)*%
X112590000Y-73740000D03*
%TO.P,J2,18,Pin_18*%
%TO.N,Net-(J2-Pin_18)*%
X112590000Y-76280000D03*
%TO.P,J2,19,Pin_19*%
%TO.N,Net-(J2-Pin_19)*%
X112590000Y-78820000D03*
%TO.P,J2,20,Pin_20*%
%TO.N,Net-(J2-Pin_20)*%
X112590000Y-81360000D03*
%TO.P,J2,21,Pin_21*%
%TO.N,Net-(J2-Pin_21)*%
X112590000Y-83900000D03*
%TD*%
D10*
%TO.P,J13,1,Pin_1*%
%TO.N,VCC*%
X123600000Y-23800000D03*
D11*
%TO.P,J13,2,Pin_2*%
%TO.N,GND*%
X126140000Y-23800000D03*
%TD*%
D12*
%TO.N,Net-(J1-Pin_16)*%
X71690000Y-63800000D03*
X89290000Y-60400000D03*
%TO.N,Net-(J1-Pin_15)*%
X71690000Y-60000000D03*
X89490000Y-57700000D03*
%TO.N,Net-(J1-Pin_20)*%
X89490000Y-76600000D03*
X71690000Y-79000000D03*
%TO.N,Net-(J1-Pin_11)*%
X193900000Y-75300000D03*
D13*
%TO.N,GND*%
X199000000Y-84300000D03*
D12*
X121390000Y-110200000D03*
X117590000Y-110200000D03*
X63590000Y-110200000D03*
D13*
X156990000Y-28300000D03*
D12*
X102390000Y-110200000D03*
D13*
X139890000Y-79500000D03*
D12*
X67390000Y-110200000D03*
X71190000Y-110200000D03*
D13*
X75890000Y-79500000D03*
D12*
X106190000Y-110200000D03*
D13*
X188990000Y-28300000D03*
X199000000Y-68300000D03*
X100190000Y-33300000D03*
D12*
X82590000Y-110200000D03*
D13*
X124990000Y-28300000D03*
X199000000Y-76300000D03*
X171890000Y-79500000D03*
X199000000Y-64300000D03*
X199000000Y-60300000D03*
D12*
X78790000Y-110200000D03*
X90190000Y-110200000D03*
X109990000Y-110200000D03*
D13*
X199000000Y-72300000D03*
X199000000Y-56300000D03*
D12*
X125190000Y-110200000D03*
D13*
X85290000Y-81400000D03*
X117290000Y-81400000D03*
D12*
X86390000Y-110200000D03*
D13*
X68190000Y-33300000D03*
X181290000Y-81400000D03*
D12*
X74990000Y-110200000D03*
D13*
X132190000Y-33300000D03*
D12*
X113790000Y-110200000D03*
D13*
X164190000Y-33300000D03*
X149290000Y-81400000D03*
D12*
X98590000Y-110200000D03*
D13*
X199000000Y-80300000D03*
X92990000Y-28300000D03*
X107890000Y-79500000D03*
D12*
%TO.N,Net-(J1-Pin_10)*%
X193500000Y-71300000D03*
%TO.N,Net-(J1-Pin_18)*%
X89490000Y-69000000D03*
X71690000Y-71400000D03*
%TO.N,Net-(J1-Pin_14)*%
X89490000Y-53900000D03*
X71690000Y-56200000D03*
%TO.N,Net-(J1-Pin_21)*%
X71690000Y-82800000D03*
X89490000Y-80400000D03*
%TO.N,VCC*%
X115690000Y-102900000D03*
X111890000Y-102900000D03*
D13*
X167990000Y-28200000D03*
D12*
X96690000Y-102900000D03*
X100490000Y-102900000D03*
D13*
X135990000Y-28200000D03*
D12*
X80690000Y-102900000D03*
X65490000Y-102900000D03*
D13*
X121290000Y-28400000D03*
X103990000Y-28200000D03*
D12*
X104290000Y-102900000D03*
X76890000Y-102900000D03*
D14*
X205600000Y-89000000D03*
D13*
X71990000Y-28200000D03*
D12*
X119490000Y-102900000D03*
D13*
X89290000Y-28400000D03*
D12*
X123290000Y-102900000D03*
X88290000Y-102900000D03*
D14*
X204500000Y-52600000D03*
D12*
X61690000Y-102900000D03*
X84490000Y-102900000D03*
D13*
X185290000Y-28400000D03*
D12*
X69290000Y-102900000D03*
X73090000Y-102900000D03*
X108090000Y-102900000D03*
D13*
X153290000Y-28400000D03*
D12*
%TO.N,Net-(J1-Pin_19)*%
X71690000Y-75200000D03*
X89490000Y-72800000D03*
%TO.N,Net-(J1-Pin_13)*%
X194700000Y-83300000D03*
%TO.N,Net-(J1-Pin_12)*%
X194300000Y-79300000D03*
%TO.N,Net-(J1-Pin_9)*%
X193100000Y-67300000D03*
%TO.N,Net-(J1-Pin_17)*%
X89490000Y-65200000D03*
X71690000Y-67600000D03*
%TO.N,Net-(J1-Pin_7)*%
X192200000Y-59300000D03*
%TO.N,Net-(J1-Pin_6)*%
X191900000Y-55300000D03*
%TO.N,Net-(J1-Pin_8)*%
X192700000Y-63300000D03*
%TO.N,Net-(J2-Pin_17)*%
X103790000Y-67600000D03*
X121390000Y-65200000D03*
%TO.N,Net-(J2-Pin_15)*%
X121490000Y-57600000D03*
X103790000Y-60100000D03*
%TO.N,Net-(J2-Pin_20)*%
X121490000Y-76600000D03*
X103790000Y-79000000D03*
%TO.N,Net-(J2-Pin_14)*%
X121490000Y-53800000D03*
X103790000Y-56500000D03*
%TO.N,Net-(J2-Pin_18)*%
X121490000Y-69000000D03*
X103690000Y-71500000D03*
%TO.N,Net-(J2-Pin_21)*%
X103790000Y-82800000D03*
X121390000Y-80400000D03*
%TO.N,Net-(J2-Pin_19)*%
X121490000Y-72800000D03*
X103790000Y-75200000D03*
%TO.N,Net-(J2-Pin_16)*%
X103690000Y-64100000D03*
X122190000Y-62400000D03*
%TO.N,Net-(J3-Pin_18)*%
X135690000Y-71400000D03*
X153490000Y-69000000D03*
%TO.N,Net-(J3-Pin_16)*%
X154190000Y-62500000D03*
X135790000Y-64100000D03*
%TO.N,Net-(J3-Pin_19)*%
X153490000Y-72800000D03*
X135690000Y-75200000D03*
%TO.N,Net-(J3-Pin_20)*%
X153390000Y-76600000D03*
X135690000Y-79000000D03*
%TO.N,Net-(J3-Pin_17)*%
X135690000Y-67600000D03*
X153490000Y-65200000D03*
%TO.N,Net-(J3-Pin_14)*%
X135690000Y-56500000D03*
X153490000Y-53800000D03*
%TO.N,Net-(J3-Pin_21)*%
X153390000Y-80400000D03*
X135690000Y-82800000D03*
%TO.N,Net-(J3-Pin_15)*%
X135690000Y-60000000D03*
X153490000Y-57600000D03*
%TO.N,Net-(J4-Pin_17)*%
X167690000Y-67600000D03*
X185490000Y-65200000D03*
%TO.N,Net-(J4-Pin_21)*%
X185490000Y-80400000D03*
X167690000Y-82800000D03*
%TO.N,Net-(J4-Pin_20)*%
X185490000Y-76600000D03*
X167690000Y-79000000D03*
%TO.N,Net-(J4-Pin_14)*%
X185490000Y-53800000D03*
X167690000Y-56500000D03*
%TO.N,Net-(J4-Pin_18)*%
X167690000Y-71400000D03*
X185490000Y-69000000D03*
%TO.N,Net-(J4-Pin_19)*%
X185490000Y-72800000D03*
X167690000Y-75200000D03*
%TO.N,Net-(J4-Pin_16)*%
X167690000Y-64100000D03*
X185490000Y-61400000D03*
%TO.N,Net-(J4-Pin_15)*%
X185490000Y-57600000D03*
X167690000Y-60000000D03*
%TO.N,Net-(J7-Pin_4)*%
X166790000Y-51900000D03*
%TO.N,Net-(J7-Pin_2)*%
X100060984Y-49229016D03*
%TO.N,Net-(J7-Pin_3)*%
X137190000Y-49600000D03*
%TO.N,Net-(J7-Pin_1)*%
X69239032Y-50407064D03*
%TO.N,Net-(J8-Pin_1)*%
X86690000Y-79700000D03*
%TO.N,Net-(J8-Pin_2)*%
X118490000Y-79700000D03*
%TO.N,Net-(J8-Pin_3)*%
X150590000Y-79700000D03*
%TO.N,Net-(J8-Pin_4)*%
X185090000Y-79100000D03*
%TO.N,Net-(Q1-D)*%
X154090000Y-95400000D03*
X130590000Y-81600000D03*
X66790000Y-81600000D03*
X123890000Y-95400000D03*
X93590000Y-95400000D03*
X98590000Y-81600000D03*
X162590000Y-81600000D03*
X87290000Y-98200000D03*
%TO.N,Net-(Q106-D)*%
X83540000Y-98200000D03*
X123390000Y-94700000D03*
X93090000Y-94700000D03*
X66790000Y-77800000D03*
X130590000Y-77800000D03*
X153590000Y-94700000D03*
X162590000Y-77800000D03*
X98590000Y-77800000D03*
%TO.N,Net-(Q107-D)*%
X130590000Y-74000000D03*
X79740000Y-98200000D03*
X162590000Y-74000000D03*
X92590000Y-94000000D03*
X98590000Y-74000000D03*
X153090000Y-94000000D03*
X66790000Y-74000000D03*
X122890000Y-94000000D03*
%TO.N,Net-(Q108-D)*%
X130590000Y-70200000D03*
X75940000Y-98200000D03*
X98590000Y-70200000D03*
X162590000Y-70200000D03*
X122390000Y-93300000D03*
X152590000Y-93300000D03*
X92090000Y-93300000D03*
X66790000Y-70200000D03*
%TO.N,Net-(Q109-D)*%
X66790000Y-66400000D03*
X130590000Y-66400000D03*
X152090000Y-92600000D03*
X72140000Y-98200000D03*
X121890000Y-92600000D03*
X98590000Y-66400000D03*
X91590000Y-92600000D03*
X162590000Y-66400000D03*
%TO.N,Net-(Q11-D)*%
X121390000Y-91900000D03*
X91090000Y-91900000D03*
X162590000Y-62500000D03*
X66790000Y-62600000D03*
X130590000Y-62500000D03*
X151590000Y-91900000D03*
X68340000Y-98200000D03*
X98590000Y-62500000D03*
%TO.N,Net-(Q111-D)*%
X66790000Y-58800000D03*
X98590000Y-59300000D03*
X90590000Y-91200000D03*
X162590000Y-59300000D03*
X64540000Y-98200000D03*
X120890000Y-91200000D03*
X151090000Y-91200000D03*
X130590000Y-59300000D03*
%TO.N,Net-(Q112-D)*%
X98590000Y-54900000D03*
X150590000Y-90500000D03*
X130590000Y-54900000D03*
X162590000Y-54900000D03*
X90090000Y-90500000D03*
X120390000Y-90500000D03*
X60740000Y-98200000D03*
X66790000Y-55000000D03*
%TO.N,Net-(Q121-D)*%
X122090000Y-102200000D03*
X125790000Y-101200000D03*
X150590000Y-101200000D03*
X94590000Y-81600000D03*
X122090000Y-106400000D03*
X158590000Y-81600000D03*
X190390000Y-81600000D03*
X126590000Y-81600000D03*
%TO.N,Net-(Q122-D)*%
X152390000Y-100500000D03*
X94590000Y-77800000D03*
X118290000Y-106400000D03*
X158590000Y-77800000D03*
X126390000Y-100500000D03*
X118290000Y-101600000D03*
X190390000Y-77800000D03*
X126590000Y-77800000D03*
%TO.N,Net-(Q123-D)*%
X114490000Y-101000000D03*
X126590000Y-74000000D03*
X158590000Y-74000000D03*
X114490000Y-106400000D03*
X153990000Y-99800000D03*
X190390000Y-74000000D03*
X94590000Y-74000000D03*
X126990000Y-99800000D03*
%TO.N,Net-(Q124-D)*%
X110690000Y-100400000D03*
X110690000Y-106400000D03*
X126590000Y-70200000D03*
X158590000Y-70200000D03*
X127590000Y-99100000D03*
X94590000Y-70200000D03*
X190390000Y-70200000D03*
X155590000Y-99100000D03*
%TO.N,Net-(Q125-D)*%
X190390000Y-66400000D03*
X158590000Y-66400000D03*
X128190000Y-98400000D03*
X94590000Y-66400000D03*
X106890000Y-99800000D03*
X157190000Y-98400000D03*
X106890000Y-106400000D03*
X126590000Y-66400000D03*
%TO.N,Net-(Q126-D)*%
X103090000Y-106400000D03*
X190390000Y-62600000D03*
X103090000Y-99200000D03*
X128790000Y-97700000D03*
X126590000Y-62500000D03*
X94590000Y-62500000D03*
X158790000Y-97700000D03*
X158590000Y-62500000D03*
%TO.N,Net-(Q127-D)*%
X126590000Y-59300000D03*
X94590000Y-59300000D03*
X129390000Y-97000000D03*
X99290000Y-98100000D03*
X190390000Y-58800000D03*
X158590000Y-59300000D03*
X160490000Y-97000000D03*
X99290000Y-106400000D03*
%TO.N,Net-(Q128-D)*%
X190390000Y-55000000D03*
X126590000Y-54900000D03*
X161990000Y-96300000D03*
X95490000Y-106400000D03*
X94590000Y-55000000D03*
X158590000Y-54900000D03*
X98090000Y-96300000D03*
X129990000Y-96300000D03*
%TD*%
D15*
%TO.N,RST*%
X80480000Y-38180000D02*
X80590000Y-38180000D01*
D16*
X66000000Y-23700000D02*
X80480000Y-38180000D01*
D17*
%TO.N,Rising_Edge*%
X63460000Y-26130000D02*
X80590000Y-43260000D01*
X63460000Y-23700000D02*
X63460000Y-26130000D01*
D15*
%TO.N,Net-(J1-Pin_11)*%
X193900000Y-75300000D02*
X194100000Y-75100000D01*
X194100000Y-75100000D02*
X194100000Y-53900000D01*
X194100000Y-53900000D02*
X204200000Y-43800000D01*
%TO.N,Net-(J1-Pin_10)*%
X193700000Y-71100000D02*
X193700000Y-51760000D01*
X193700000Y-51760000D02*
X204200000Y-41260000D01*
X193500000Y-71300000D02*
X193700000Y-71100000D01*
%TO.N,Net-(J1-Pin_13)*%
X194902000Y-58178000D02*
X194902000Y-59700000D01*
X194902000Y-83098000D02*
X194700000Y-83300000D01*
X204200000Y-48880000D02*
X197980000Y-55100000D01*
X194902000Y-59700000D02*
X194902000Y-83098000D01*
X197980000Y-55100000D02*
X194902000Y-58178000D01*
%TO.N,Net-(J1-Pin_12)*%
X194650000Y-55850000D02*
X194600000Y-55900000D01*
X194501000Y-79099000D02*
X194300000Y-79300000D01*
X204160000Y-46340000D02*
X194650000Y-55850000D01*
X194501000Y-56400000D02*
X194501000Y-79099000D01*
X204200000Y-46340000D02*
X204160000Y-46340000D01*
X194650000Y-55850000D02*
X194501000Y-55999000D01*
X194501000Y-55999000D02*
X194501000Y-56400000D01*
%TO.N,Net-(J1-Pin_9)*%
X193300000Y-49620000D02*
X204200000Y-38720000D01*
X193100000Y-67300000D02*
X193300000Y-67100000D01*
X193300000Y-67100000D02*
X193300000Y-49620000D01*
%TO.N,Net-(J1-Pin_7)*%
X192200000Y-59300000D02*
X192400000Y-59300000D01*
X192400000Y-59300000D02*
X192500000Y-59200000D01*
X192500000Y-45340000D02*
X204200000Y-33640000D01*
X192500000Y-59200000D02*
X192500000Y-45340000D01*
%TO.N,Net-(J1-Pin_6)*%
X191900000Y-55300000D02*
X192000000Y-55300000D01*
X192000000Y-55300000D02*
X192100000Y-55200000D01*
X192100000Y-55200000D02*
X192100000Y-43200000D01*
X192100000Y-43200000D02*
X204200000Y-31100000D01*
%TO.N,Net-(J1-Pin_8)*%
X192900000Y-63100000D02*
X192900000Y-47480000D01*
X192700000Y-63300000D02*
X192900000Y-63100000D01*
X192900000Y-47480000D02*
X204200000Y-36180000D01*
%TO.N,Net-(J7-Pin_4)*%
X98838943Y-54299000D02*
X99191000Y-54651057D01*
X57260000Y-83780000D02*
X61659943Y-83780000D01*
X123658214Y-54299000D02*
X130838943Y-54299000D01*
X158057214Y-51900000D02*
X166790000Y-51900000D01*
X61659943Y-83780000D02*
X78039943Y-67400000D01*
X130838943Y-54299000D02*
X131191000Y-54651057D01*
X123306157Y-54651057D02*
X123658214Y-54299000D01*
X155306157Y-54651057D02*
X158057214Y-51900000D01*
X85240057Y-67400000D02*
X98341057Y-54299000D01*
X57190000Y-83710000D02*
X57260000Y-83780000D01*
X99191000Y-54651057D02*
X123306157Y-54651057D01*
X78039943Y-67400000D02*
X85240057Y-67400000D01*
X131191000Y-54651057D02*
X155306157Y-54651057D01*
X98341057Y-54299000D02*
X98838943Y-54299000D01*
%TO.N,Net-(J7-Pin_2)*%
X82590016Y-62429000D02*
X95790000Y-49229016D01*
X57260000Y-78700000D02*
X63490000Y-78700000D01*
X79761000Y-62429000D02*
X82590016Y-62429000D01*
X95790000Y-49229016D02*
X100060984Y-49229016D01*
X63490000Y-78700000D02*
X79761000Y-62429000D01*
X57190000Y-78630000D02*
X57260000Y-78700000D01*
%TO.N,Net-(J7-Pin_3)*%
X102740057Y-49900000D02*
X103040057Y-49600000D01*
X68890000Y-74700000D02*
X70172843Y-74700000D01*
X57190000Y-81170000D02*
X57260000Y-81240000D01*
X62350000Y-81240000D02*
X68890000Y-74700000D01*
X57260000Y-81240000D02*
X62350000Y-81240000D01*
X79972843Y-64900000D02*
X81390000Y-64900000D01*
X103040057Y-49600000D02*
X137190000Y-49600000D01*
X81390000Y-64900000D02*
X96390000Y-49900000D01*
X70172843Y-74700000D02*
X79972843Y-64900000D01*
X96390000Y-49900000D02*
X102740057Y-49900000D01*
%TO.N,Net-(J7-Pin_1)*%
X57260000Y-76160000D02*
X63630000Y-76160000D01*
X69239032Y-70550968D02*
X69239032Y-50407064D01*
X57190000Y-76090000D02*
X57260000Y-76160000D01*
X63630000Y-76160000D02*
X69239032Y-70550968D01*
%TO.N,Net-(Q1-D)*%
X130590000Y-81600000D02*
X129993000Y-82197000D01*
X98590000Y-81600000D02*
X97990000Y-82200000D01*
X97990000Y-82200000D02*
X97990000Y-91000000D01*
X161996000Y-87494000D02*
X154090000Y-95400000D01*
X162590000Y-81600000D02*
X161996000Y-82194000D01*
X129993000Y-89297000D02*
X123890000Y-95400000D01*
X161996000Y-82194000D02*
X161996000Y-87494000D01*
X97990000Y-91000000D02*
X93590000Y-95400000D01*
X129993000Y-82197000D02*
X129993000Y-89297000D01*
%TO.N,Net-(Q106-D)*%
X97590000Y-78800000D02*
X97590000Y-90200000D01*
X130590000Y-77800000D02*
X129592000Y-78798000D01*
X161595000Y-86695000D02*
X153590000Y-94700000D01*
X97590000Y-90200000D02*
X93090000Y-94700000D01*
X162590000Y-77800000D02*
X161595000Y-78795000D01*
X98590000Y-77800000D02*
X97590000Y-78800000D01*
X129592000Y-78798000D02*
X129592000Y-88498000D01*
X129592000Y-88498000D02*
X123390000Y-94700000D01*
X161595000Y-78795000D02*
X161595000Y-86695000D01*
%TO.N,Net-(Q107-D)*%
X130590000Y-74000000D02*
X129191000Y-75399000D01*
X97190000Y-75400000D02*
X97190000Y-89400000D01*
X162590000Y-74000000D02*
X161194000Y-75396000D01*
X129191000Y-87699000D02*
X122890000Y-94000000D01*
X161194000Y-75396000D02*
X161194000Y-85896000D01*
X129191000Y-75399000D02*
X129191000Y-87699000D01*
X97190000Y-89400000D02*
X92590000Y-94000000D01*
X98590000Y-74000000D02*
X97190000Y-75400000D01*
X161194000Y-85896000D02*
X153090000Y-94000000D01*
%TO.N,Net-(Q108-D)*%
X128790000Y-71800000D02*
X128790000Y-86900000D01*
X92090000Y-93300000D02*
X96790000Y-88600000D01*
X96790000Y-88600000D02*
X96790000Y-72000000D01*
X162590000Y-70200000D02*
X160793000Y-71997000D01*
X130590000Y-70200000D02*
X130390000Y-70200000D01*
X160793000Y-71997000D02*
X160793000Y-85097000D01*
X160793000Y-85097000D02*
X152590000Y-93300000D01*
X130390000Y-70200000D02*
X128790000Y-71800000D01*
X128790000Y-86900000D02*
X122390000Y-93300000D01*
X96790000Y-72000000D02*
X98590000Y-70200000D01*
%TO.N,Net-(Q109-D)*%
X162590000Y-66400000D02*
X160392000Y-68598000D01*
X96390000Y-68600000D02*
X96390000Y-87800000D01*
X160392000Y-68598000D02*
X160392000Y-84298000D01*
X160392000Y-84298000D02*
X152090000Y-92600000D01*
X98590000Y-66400000D02*
X96390000Y-68600000D01*
X96390000Y-87800000D02*
X91590000Y-92600000D01*
X128390000Y-68600000D02*
X128390000Y-86100000D01*
X128390000Y-86100000D02*
X121890000Y-92600000D01*
X130590000Y-66400000D02*
X128390000Y-68600000D01*
%TO.N,Net-(Q11-D)*%
X159991000Y-65099000D02*
X159991000Y-83499000D01*
X95990000Y-65100000D02*
X95990000Y-87000000D01*
X130590000Y-62500000D02*
X127990000Y-65100000D01*
X127990000Y-65100000D02*
X127990000Y-85300000D01*
X95990000Y-87000000D02*
X91090000Y-91900000D01*
X127990000Y-85300000D02*
X121390000Y-91900000D01*
X159991000Y-83499000D02*
X151590000Y-91900000D01*
X98590000Y-62500000D02*
X95990000Y-65100000D01*
X162590000Y-62500000D02*
X159991000Y-65099000D01*
%TO.N,Net-(Q111-D)*%
X127590000Y-84500000D02*
X127590000Y-62300000D01*
X120890000Y-91200000D02*
X127590000Y-84500000D01*
X95590000Y-62300000D02*
X98590000Y-59300000D01*
X159590000Y-62300000D02*
X159590000Y-82700000D01*
X95590000Y-86200000D02*
X95590000Y-62300000D01*
X162590000Y-59300000D02*
X159590000Y-62300000D01*
X127590000Y-62300000D02*
X130590000Y-59300000D01*
X159590000Y-82700000D02*
X151090000Y-91200000D01*
X90590000Y-91200000D02*
X95590000Y-86200000D01*
%TO.N,Net-(Q112-D)*%
X90090000Y-90500000D02*
X95190000Y-85400000D01*
X127190000Y-83700000D02*
X127190000Y-58300000D01*
X159190000Y-58300000D02*
X159190000Y-81900000D01*
X162590000Y-54900000D02*
X159190000Y-58300000D01*
X120390000Y-90500000D02*
X127190000Y-83700000D01*
X159190000Y-81900000D02*
X150590000Y-90500000D01*
X127190000Y-58300000D02*
X130590000Y-54900000D01*
X95190000Y-58300000D02*
X98590000Y-54900000D01*
X95190000Y-85400000D02*
X95190000Y-58300000D01*
%TO.N,Net-(Q121-D)*%
X190390000Y-81600000D02*
X184896000Y-87094000D01*
X184894000Y-93798600D02*
X184894000Y-93864400D01*
X125790000Y-101200000D02*
X150590000Y-101200000D01*
X122090000Y-102200000D02*
X123090000Y-101200000D01*
X184894000Y-93864400D02*
X178156400Y-100602000D01*
X177557100Y-101200000D02*
X150590000Y-101200000D01*
X184896000Y-87094000D02*
X184896000Y-93796600D01*
X122090000Y-102200000D02*
X122090000Y-106400000D01*
X178156400Y-100602000D02*
X178155100Y-100602000D01*
X178155100Y-100602000D02*
X177557100Y-101200000D01*
X184896000Y-93796600D02*
X184894000Y-93798600D01*
X123090000Y-101200000D02*
X125790000Y-101200000D01*
%TO.N,Net-(Q122-D)*%
X177989000Y-100201000D02*
X177690000Y-100500000D01*
X118190000Y-106300000D02*
X118290000Y-106400000D01*
X184495000Y-83695000D02*
X184495000Y-93630500D01*
X184493000Y-93698300D02*
X177990300Y-100201000D01*
X184495000Y-93630500D02*
X184493000Y-93632500D01*
X118190000Y-101700000D02*
X118190000Y-106300000D01*
X119415000Y-100500000D02*
X126390000Y-100500000D01*
X177690000Y-100500000D02*
X152390000Y-100500000D01*
X190390000Y-77800000D02*
X184495000Y-83695000D01*
X118290000Y-101600000D02*
X118315000Y-101600000D01*
X118290000Y-101600000D02*
X118190000Y-101700000D01*
X118315000Y-101600000D02*
X119415000Y-100500000D01*
X184493000Y-93632500D02*
X184493000Y-93698300D01*
X126390000Y-100500000D02*
X152390000Y-100500000D01*
X177990300Y-100201000D02*
X177989000Y-100201000D01*
%TO.N,Net-(Q123-D)*%
X115690000Y-99800000D02*
X126990000Y-99800000D01*
X184094000Y-93464400D02*
X184092000Y-93466400D01*
X190390000Y-76349943D02*
X184094000Y-82645943D01*
X184092000Y-93532200D02*
X177824200Y-99800000D01*
X184092000Y-93466400D02*
X184092000Y-93532200D01*
X177824200Y-99800000D02*
X153990000Y-99800000D01*
X114490000Y-101000000D02*
X114490000Y-106400000D01*
X114490000Y-101000000D02*
X115690000Y-99800000D01*
X190390000Y-74000000D02*
X190390000Y-76349943D01*
X126990000Y-99800000D02*
X153990000Y-99800000D01*
X184094000Y-82645943D02*
X184094000Y-93464400D01*
%TO.N,Net-(Q124-D)*%
X183693000Y-93298300D02*
X183691000Y-93300300D01*
X110690000Y-100400000D02*
X110790000Y-100400000D01*
X183691000Y-93366100D02*
X177957100Y-99100000D01*
X183693000Y-76897000D02*
X183693000Y-93298300D01*
X155590000Y-99100000D02*
X177957100Y-99100000D01*
X183691000Y-93300300D02*
X183691000Y-93366100D01*
X110790000Y-100400000D02*
X112090000Y-99100000D01*
X190390000Y-70200000D02*
X183693000Y-76897000D01*
X127590000Y-99100000D02*
X155590000Y-99100000D01*
X112090000Y-99100000D02*
X127590000Y-99100000D01*
X110690000Y-100400000D02*
X110690000Y-106400000D01*
%TO.N,Net-(Q125-D)*%
X183292000Y-93132200D02*
X183290000Y-93134200D01*
X106890000Y-99800000D02*
X108290000Y-98400000D01*
X183290000Y-93200000D02*
X178090000Y-98400000D01*
X183292000Y-72498000D02*
X183292000Y-93132200D01*
X183290000Y-93134200D02*
X183290000Y-93200000D01*
X108290000Y-98400000D02*
X128190000Y-98400000D01*
X178090000Y-98400000D02*
X157190000Y-98400000D01*
X128190000Y-98400000D02*
X157190000Y-98400000D01*
X189390000Y-66400000D02*
X183292000Y-72498000D01*
X106890000Y-99800000D02*
X106890000Y-106400000D01*
X190390000Y-66400000D02*
X189390000Y-66400000D01*
%TO.N,Net-(Q126-D)*%
X105890000Y-97700000D02*
X128790000Y-97700000D01*
X128790000Y-97700000D02*
X158790000Y-97700000D01*
X190390000Y-62600000D02*
X189590000Y-62600000D01*
X103090000Y-99200000D02*
X104590000Y-97700000D01*
X178190000Y-97700000D02*
X158790000Y-97700000D01*
X178190000Y-97700000D02*
X182891000Y-92999000D01*
X104590000Y-97700000D02*
X105890000Y-97700000D01*
X182891000Y-69299000D02*
X182891000Y-92999000D01*
X189590000Y-62600000D02*
X182891000Y-69299000D01*
X103090000Y-99200000D02*
X103090000Y-106400000D01*
%TO.N,Net-(Q127-D)*%
X178290000Y-97000000D02*
X129390000Y-97000000D01*
X99290000Y-98100000D02*
X100390000Y-97000000D01*
X190390000Y-58800000D02*
X189590000Y-58800000D01*
X99290000Y-98100000D02*
X99290000Y-106400000D01*
X100390000Y-97000000D02*
X129390000Y-97000000D01*
X189590000Y-58800000D02*
X182490000Y-65900000D01*
X182490000Y-65900000D02*
X182490000Y-92800000D01*
X182490000Y-92800000D02*
X178290000Y-97000000D01*
%TO.N,Net-(Q128-D)*%
X97290000Y-96300000D02*
X98090000Y-96300000D01*
X95490000Y-98100000D02*
X97290000Y-96300000D01*
X95490000Y-106400000D02*
X95490000Y-98100000D01*
X190390000Y-55000000D02*
X185190000Y-55000000D01*
X182090000Y-92600000D02*
X178390000Y-96300000D01*
X178390000Y-96300000D02*
X161990000Y-96300000D01*
X98090000Y-96300000D02*
X129990000Y-96300000D01*
X182090000Y-58100000D02*
X182090000Y-92600000D01*
X129990000Y-96300000D02*
X161990000Y-96300000D01*
X185190000Y-55000000D02*
X182090000Y-58100000D01*
%TD*%
M02*
