%TF.GenerationSoftware,KiCad,Pcbnew,9.0.7*%
%TF.CreationDate,2026-02-26T12:37:46+01:00*%
%TF.ProjectId,Register_Holder_V1.0,52656769-7374-4657-925f-486f6c646572,rev?*%
%TF.SameCoordinates,Original*%
%TF.FileFunction,Soldermask,Top*%
%TF.FilePolarity,Negative*%
%FSLAX46Y46*%
G04 Gerber Fmt 4.6, Leading zero omitted, Abs format (unit mm)*
G04 Created by KiCad (PCBNEW 9.0.7) date 2026-02-26 12:37:46*
%MOMM*%
%LPD*%
G01*
G04 APERTURE LIST*
G04 Aperture macros list*
%AMRoundRect*
0 Rectangle with rounded corners*
0 $1 Rounding radius*
0 $2 $3 $4 $5 $6 $7 $8 $9 X,Y pos of 4 corners*
0 Add a 4 corners polygon primitive as box body*
4,1,4,$2,$3,$4,$5,$6,$7,$8,$9,$2,$3,0*
0 Add four circle primitives for the rounded corners*
1,1,$1+$1,$2,$3*
1,1,$1+$1,$4,$5*
1,1,$1+$1,$6,$7*
1,1,$1+$1,$8,$9*
0 Add four rect primitives between the rounded corners*
20,1,$1+$1,$2,$3,$4,$5,0*
20,1,$1+$1,$4,$5,$6,$7,0*
20,1,$1+$1,$6,$7,$8,$9,0*
20,1,$1+$1,$8,$9,$2,$3,0*%
G04 Aperture macros list end*
%ADD10R,1.700000X1.700000*%
%ADD11C,1.700000*%
%ADD12RoundRect,0.159000X-0.189000X0.159000X-0.189000X-0.159000X0.189000X-0.159000X0.189000X0.159000X0*%
%ADD13RoundRect,0.150000X0.587500X0.150000X-0.587500X0.150000X-0.587500X-0.150000X0.587500X-0.150000X0*%
%ADD14RoundRect,0.150000X-0.587500X-0.150000X0.587500X-0.150000X0.587500X0.150000X-0.587500X0.150000X0*%
%ADD15RoundRect,0.219000X0.219000X0.294000X-0.219000X0.294000X-0.219000X-0.294000X0.219000X-0.294000X0*%
%ADD16RoundRect,0.150000X0.150000X-0.587500X0.150000X0.587500X-0.150000X0.587500X-0.150000X-0.587500X0*%
%ADD17RoundRect,0.239000X-0.239000X-0.274000X0.239000X-0.274000X0.239000X0.274000X-0.239000X0.274000X0*%
%ADD18RoundRect,0.269000X0.494000X-0.269000X0.494000X0.269000X-0.494000X0.269000X-0.494000X-0.269000X0*%
%ADD19RoundRect,0.219000X-0.219000X-0.294000X0.219000X-0.294000X0.219000X0.294000X-0.219000X0.294000X0*%
%ADD20RoundRect,0.269000X-0.494000X0.269000X-0.494000X-0.269000X0.494000X-0.269000X0.494000X0.269000X0*%
%ADD21RoundRect,0.159000X0.189000X-0.159000X0.189000X0.159000X-0.189000X0.159000X-0.189000X-0.159000X0*%
%ADD22RoundRect,0.239000X0.239000X0.274000X-0.239000X0.274000X-0.239000X-0.274000X0.239000X-0.274000X0*%
G04 APERTURE END LIST*
D10*
%TO.C,J6*%
X63460000Y-23700000D03*
D11*
X66000000Y-23700000D03*
%TD*%
D12*
%TO.C,R3*%
X69290000Y-104000000D03*
X69290000Y-105000000D03*
%TD*%
D13*
%TO.C,Q53*%
X138327500Y-67350000D03*
X138327500Y-65450000D03*
X136452500Y-66400000D03*
%TD*%
D14*
%TO.C,Q44*%
X123152500Y-69250000D03*
X123152500Y-71150000D03*
X125027500Y-70200000D03*
%TD*%
D13*
%TO.C,Q60*%
X134027500Y-71150000D03*
X134027500Y-69250000D03*
X132152500Y-70200000D03*
%TD*%
D10*
%TO.C,J3*%
X144590000Y-33100000D03*
D11*
X144590000Y-35640000D03*
X144590000Y-38180000D03*
X144590000Y-40720000D03*
X144590000Y-43260000D03*
X144590000Y-45800000D03*
X144590000Y-48340000D03*
X144590000Y-50880000D03*
X144590000Y-53420000D03*
X144590000Y-55960000D03*
X144590000Y-58500000D03*
X144590000Y-61040000D03*
X144590000Y-63580000D03*
X144590000Y-66120000D03*
X144590000Y-68660000D03*
X144590000Y-71200000D03*
X144590000Y-73740000D03*
X144590000Y-76280000D03*
X144590000Y-78820000D03*
X144590000Y-81360000D03*
X144590000Y-83900000D03*
%TD*%
D12*
%TO.C,R25*%
X96690000Y-104000000D03*
X96690000Y-105000000D03*
%TD*%
D14*
%TO.C,Q74*%
X91152500Y-76850000D03*
X91152500Y-78750000D03*
X93027500Y-77800000D03*
%TD*%
%TO.C,Q83*%
X150852500Y-73050000D03*
X150852500Y-74950000D03*
X152727500Y-74000000D03*
%TD*%
D10*
%TO.C,J14*%
X135712500Y-111712500D03*
D11*
X135712500Y-114252500D03*
%TD*%
D13*
%TO.C,Q24*%
X106327500Y-55950000D03*
X106327500Y-54050000D03*
X104452500Y-55000000D03*
%TD*%
%TO.C,Q12*%
X74327500Y-63550000D03*
X74327500Y-61650000D03*
X72452500Y-62600000D03*
%TD*%
D15*
%TO.C,R41*%
X206520000Y-79200000D03*
X204880000Y-79200000D03*
%TD*%
D16*
%TO.C,Q131*%
X68340000Y-108837500D03*
X70240000Y-108837500D03*
X69290000Y-106962500D03*
%TD*%
D14*
%TO.C,Q128*%
X187152500Y-54050000D03*
X187152500Y-55950000D03*
X189027500Y-55000000D03*
%TD*%
%TO.C,Q147*%
X100152500Y-30050000D03*
X100152500Y-31950000D03*
X102027500Y-31000000D03*
%TD*%
%TO.C,Q116*%
X182852500Y-69250000D03*
X182852500Y-71150000D03*
X184727500Y-70200000D03*
%TD*%
D13*
%TO.C,Q61*%
X134027500Y-67350000D03*
X134027500Y-65450000D03*
X132152500Y-66400000D03*
%TD*%
D17*
%TO.C,D6*%
X168200000Y-32000000D03*
X169780000Y-32000000D03*
%TD*%
D13*
%TO.C,Q99*%
X170327500Y-74950000D03*
X170327500Y-73050000D03*
X168452500Y-74000000D03*
%TD*%
%TO.C,Q62*%
X134027500Y-63550000D03*
X134027500Y-61650000D03*
X132152500Y-62600000D03*
%TD*%
D10*
%TO.C,J15*%
X57190000Y-102925000D03*
D11*
X57190000Y-105465000D03*
%TD*%
D18*
%TO.C,C10*%
X161550000Y-24750000D03*
X161550000Y-22850000D03*
%TD*%
D17*
%TO.C,D12*%
X204710000Y-73300000D03*
X206290000Y-73300000D03*
%TD*%
%TO.C,D9*%
X204710000Y-81300000D03*
X206290000Y-81300000D03*
%TD*%
D14*
%TO.C,Q80*%
X91152500Y-54050000D03*
X91152500Y-55950000D03*
X93027500Y-55000000D03*
%TD*%
D17*
%TO.C,D16*%
X204750000Y-57300000D03*
X206330000Y-57300000D03*
%TD*%
D13*
%TO.C,Q51*%
X138327500Y-74950000D03*
X138327500Y-73050000D03*
X136452500Y-74000000D03*
%TD*%
D19*
%TO.C,R40*%
X163792500Y-111887500D03*
X165432500Y-111887500D03*
%TD*%
D14*
%TO.C,Q117*%
X182852500Y-65450000D03*
X182852500Y-67350000D03*
X184727500Y-66400000D03*
%TD*%
D13*
%TO.C,Q28*%
X102027500Y-71150000D03*
X102027500Y-69250000D03*
X100152500Y-70200000D03*
%TD*%
D14*
%TO.C,Q35*%
X118852500Y-73050000D03*
X118852500Y-74950000D03*
X120727500Y-74000000D03*
%TD*%
D16*
%TO.C,Q132*%
X72140000Y-108837500D03*
X74040000Y-108837500D03*
X73090000Y-106962500D03*
%TD*%
D20*
%TO.C,C5*%
X148562500Y-111937500D03*
X148562500Y-113837500D03*
%TD*%
D14*
%TO.C,Q39*%
X118852500Y-57850000D03*
X118852500Y-59750000D03*
X120727500Y-58800000D03*
%TD*%
D13*
%TO.C,Q19*%
X106327500Y-74950000D03*
X106327500Y-73050000D03*
X104452500Y-74000000D03*
%TD*%
D14*
%TO.C,Q85*%
X150852500Y-65450000D03*
X150852500Y-67350000D03*
X152727500Y-66400000D03*
%TD*%
D13*
%TO.C,Q16*%
X74327500Y-55950000D03*
X74327500Y-54050000D03*
X72452500Y-55000000D03*
%TD*%
D14*
%TO.C,Q70*%
X86852500Y-61650000D03*
X86852500Y-63550000D03*
X88727500Y-62600000D03*
%TD*%
%TO.C,Q72*%
X86852500Y-54050000D03*
X86852500Y-55950000D03*
X88727500Y-55000000D03*
%TD*%
D12*
%TO.C,R24*%
X122090000Y-104000000D03*
X122090000Y-105000000D03*
%TD*%
D14*
%TO.C,Q156*%
X200662500Y-71350000D03*
X200662500Y-73250000D03*
X202537500Y-72300000D03*
%TD*%
%TO.C,Q33*%
X118852500Y-80650000D03*
X118852500Y-82550000D03*
X120727500Y-81600000D03*
%TD*%
D13*
%TO.C,Q18*%
X106327500Y-78750000D03*
X106327500Y-76850000D03*
X104452500Y-77800000D03*
%TD*%
D17*
%TO.C,D11*%
X204772500Y-77300000D03*
X206352500Y-77300000D03*
%TD*%
D14*
%TO.C,Q47*%
X123152500Y-57850000D03*
X123152500Y-59750000D03*
X125027500Y-58800000D03*
%TD*%
D13*
%TO.C,Q54*%
X138327500Y-63550000D03*
X138327500Y-61650000D03*
X136452500Y-62600000D03*
%TD*%
%TO.C,Q5*%
X70027500Y-74950000D03*
X70027500Y-73050000D03*
X68152500Y-74000000D03*
%TD*%
D14*
%TO.C,Q36*%
X118852500Y-69250000D03*
X118852500Y-71150000D03*
X120727500Y-70200000D03*
%TD*%
D13*
%TO.C,Q15*%
X70027500Y-55950000D03*
X70027500Y-54050000D03*
X68152500Y-55000000D03*
%TD*%
D15*
%TO.C,R44*%
X206520000Y-71200000D03*
X204880000Y-71200000D03*
%TD*%
%TO.C,R35*%
X121310000Y-29900000D03*
X119670000Y-29900000D03*
%TD*%
D14*
%TO.C,Q71*%
X86852500Y-57850000D03*
X86852500Y-59750000D03*
X88727500Y-58800000D03*
%TD*%
%TO.C,Q75*%
X91152500Y-73050000D03*
X91152500Y-74950000D03*
X93027500Y-74000000D03*
%TD*%
%TO.C,Q153*%
X200662500Y-79350000D03*
X200662500Y-81250000D03*
X202537500Y-80300000D03*
%TD*%
D13*
%TO.C,Q27*%
X102027500Y-74950000D03*
X102027500Y-73050000D03*
X100152500Y-74000000D03*
%TD*%
D14*
%TO.C,Q127*%
X187152500Y-57850000D03*
X187152500Y-59750000D03*
X189027500Y-58800000D03*
%TD*%
D12*
%TO.C,R32*%
X123290000Y-104000000D03*
X123290000Y-105000000D03*
%TD*%
D20*
%TO.C,C14*%
X157562500Y-111937500D03*
X157562500Y-113837500D03*
%TD*%
D14*
%TO.C,Q46*%
X123152500Y-61650000D03*
X123152500Y-63550000D03*
X125027500Y-62600000D03*
%TD*%
D12*
%TO.C,R8*%
X88290000Y-104000000D03*
X88290000Y-105000000D03*
%TD*%
D16*
%TO.C,Q143*%
X118540000Y-108837500D03*
X120440000Y-108837500D03*
X119490000Y-106962500D03*
%TD*%
D12*
%TO.C,R27*%
X104290000Y-104000000D03*
X104290000Y-105000000D03*
%TD*%
D16*
%TO.C,Q144*%
X122340000Y-108837500D03*
X124240000Y-108837500D03*
X123290000Y-106962500D03*
%TD*%
D12*
%TO.C,R2*%
X65490000Y-104000000D03*
X65490000Y-105000000D03*
%TD*%
D18*
%TO.C,C3*%
X136750000Y-24700000D03*
X136750000Y-22800000D03*
%TD*%
D13*
%TO.C,Q146*%
X93027500Y-31950000D03*
X93027500Y-30050000D03*
X91152500Y-31000000D03*
%TD*%
%TO.C,Q64*%
X134027500Y-55950000D03*
X134027500Y-54050000D03*
X132152500Y-55000000D03*
%TD*%
D18*
%TO.C,C11*%
X164600000Y-24750000D03*
X164600000Y-22850000D03*
%TD*%
D15*
%TO.C,R45*%
X206520000Y-67200000D03*
X204880000Y-67200000D03*
%TD*%
D14*
%TO.C,Q87*%
X150852500Y-57850000D03*
X150852500Y-59750000D03*
X152727500Y-58800000D03*
%TD*%
D12*
%TO.C,R4*%
X73090000Y-104000000D03*
X73090000Y-105000000D03*
%TD*%
D10*
%TO.C,J5*%
X57190000Y-63000000D03*
D11*
X57190000Y-65540000D03*
X57190000Y-68080000D03*
X57190000Y-70620000D03*
%TD*%
D14*
%TO.C,Q122*%
X187152500Y-76850000D03*
X187152500Y-78750000D03*
X189027500Y-77800000D03*
%TD*%
D13*
%TO.C,Q30*%
X102027500Y-63550000D03*
X102027500Y-61650000D03*
X100152500Y-62600000D03*
%TD*%
D21*
%TO.C,R14*%
X80690000Y-101700000D03*
X80690000Y-100700000D03*
%TD*%
D19*
%TO.C,R36*%
X135970000Y-29900000D03*
X137610000Y-29900000D03*
%TD*%
D21*
%TO.C,R16*%
X88290000Y-101700000D03*
X88290000Y-100700000D03*
%TD*%
D15*
%TO.C,R43*%
X206520000Y-75200000D03*
X204880000Y-75200000D03*
%TD*%
%TO.C,R46*%
X206520000Y-63200000D03*
X204880000Y-63200000D03*
%TD*%
D12*
%TO.C,R6*%
X80690000Y-104000000D03*
X80690000Y-105000000D03*
%TD*%
D13*
%TO.C,Q17*%
X106327500Y-82550000D03*
X106327500Y-80650000D03*
X104452500Y-81600000D03*
%TD*%
D20*
%TO.C,C16*%
X151612500Y-111937500D03*
X151612500Y-113837500D03*
%TD*%
D15*
%TO.C,R33*%
X89310000Y-29900000D03*
X87670000Y-29900000D03*
%TD*%
D14*
%TO.C,Q154*%
X200662500Y-83350000D03*
X200662500Y-85250000D03*
X202537500Y-84300000D03*
%TD*%
D12*
%TO.C,R20*%
X106890000Y-104000000D03*
X106890000Y-105000000D03*
%TD*%
D21*
%TO.C,R11*%
X69290000Y-101700000D03*
X69290000Y-100700000D03*
%TD*%
D10*
%TO.C,J9*%
X204200000Y-31100000D03*
D11*
X204200000Y-33640000D03*
X204200000Y-36180000D03*
X204200000Y-38720000D03*
X204200000Y-41260000D03*
X204200000Y-43800000D03*
X204200000Y-46340000D03*
X204200000Y-48880000D03*
%TD*%
D14*
%TO.C,Q37*%
X118852500Y-65450000D03*
X118852500Y-67350000D03*
X120727500Y-66400000D03*
%TD*%
D21*
%TO.C,R13*%
X76890000Y-101700000D03*
X76890000Y-100700000D03*
%TD*%
D13*
%TO.C,Q52*%
X138327500Y-71150000D03*
X138327500Y-69250000D03*
X136452500Y-70200000D03*
%TD*%
%TO.C,Q63*%
X134027500Y-59750000D03*
X134027500Y-57850000D03*
X132152500Y-58800000D03*
%TD*%
%TO.C,Q102*%
X170327500Y-63550000D03*
X170327500Y-61650000D03*
X168452500Y-62600000D03*
%TD*%
%TO.C,Q4*%
X74327500Y-78750000D03*
X74327500Y-76850000D03*
X72452500Y-77800000D03*
%TD*%
D10*
%TO.C,J10*%
X66100000Y-114000000D03*
D11*
X68640000Y-114000000D03*
X71180000Y-114000000D03*
X73720000Y-114000000D03*
X76260000Y-114000000D03*
X78800000Y-114000000D03*
X81340000Y-114000000D03*
X83880000Y-114000000D03*
%TD*%
D13*
%TO.C,Q11*%
X70027500Y-63550000D03*
X70027500Y-61650000D03*
X68152500Y-62600000D03*
%TD*%
%TO.C,Q31*%
X102027500Y-59750000D03*
X102027500Y-57850000D03*
X100152500Y-58800000D03*
%TD*%
D10*
%TO.C,J1*%
X80590000Y-33100000D03*
D11*
X80590000Y-35640000D03*
X80590000Y-38180000D03*
X80590000Y-40720000D03*
X80590000Y-43260000D03*
X80590000Y-45800000D03*
X80590000Y-48340000D03*
X80590000Y-50880000D03*
X80590000Y-53420000D03*
X80590000Y-55960000D03*
X80590000Y-58500000D03*
X80590000Y-61040000D03*
X80590000Y-63580000D03*
X80590000Y-66120000D03*
X80590000Y-68660000D03*
X80590000Y-71200000D03*
X80590000Y-73740000D03*
X80590000Y-76280000D03*
X80590000Y-78820000D03*
X80590000Y-81360000D03*
X80590000Y-83900000D03*
%TD*%
D13*
%TO.C,Q50*%
X138327500Y-78750000D03*
X138327500Y-76850000D03*
X136452500Y-77800000D03*
%TD*%
D14*
%TO.C,Q119*%
X182852500Y-57850000D03*
X182852500Y-59750000D03*
X184727500Y-58800000D03*
%TD*%
%TO.C,Q159*%
X200662500Y-59350000D03*
X200662500Y-61250000D03*
X202537500Y-60300000D03*
%TD*%
D13*
%TO.C,Q49*%
X138327500Y-82550000D03*
X138327500Y-80650000D03*
X136452500Y-81600000D03*
%TD*%
D17*
%TO.C,D24*%
X72200000Y-32000000D03*
X73780000Y-32000000D03*
%TD*%
D13*
%TO.C,Q59*%
X134027500Y-74950000D03*
X134027500Y-73050000D03*
X132152500Y-74000000D03*
%TD*%
D12*
%TO.C,R1*%
X61690000Y-104000000D03*
X61690000Y-105000000D03*
%TD*%
D13*
%TO.C,Q29*%
X102027500Y-67350000D03*
X102027500Y-65450000D03*
X100152500Y-66400000D03*
%TD*%
D10*
%TO.C,J4*%
X176590000Y-33100000D03*
D11*
X176590000Y-35640000D03*
X176590000Y-38180000D03*
X176590000Y-40720000D03*
X176590000Y-43260000D03*
X176590000Y-45800000D03*
X176590000Y-48340000D03*
X176590000Y-50880000D03*
X176590000Y-53420000D03*
X176590000Y-55960000D03*
X176590000Y-58500000D03*
X176590000Y-61040000D03*
X176590000Y-63580000D03*
X176590000Y-66120000D03*
X176590000Y-68660000D03*
X176590000Y-71200000D03*
X176590000Y-73740000D03*
X176590000Y-76280000D03*
X176590000Y-78820000D03*
X176590000Y-81360000D03*
X176590000Y-83900000D03*
%TD*%
D12*
%TO.C,R17*%
X95490000Y-104000000D03*
X95490000Y-105000000D03*
%TD*%
D10*
%TO.C,J8*%
X57190000Y-89380000D03*
D11*
X57190000Y-91920000D03*
X57190000Y-94460000D03*
X57190000Y-97000000D03*
%TD*%
D13*
%TO.C,Q101*%
X170327500Y-67350000D03*
X170327500Y-65450000D03*
X168452500Y-66400000D03*
%TD*%
D14*
%TO.C,Q96*%
X155152500Y-54050000D03*
X155152500Y-55950000D03*
X157027500Y-55000000D03*
%TD*%
D13*
%TO.C,Q6*%
X74327500Y-74950000D03*
X74327500Y-73050000D03*
X72452500Y-74000000D03*
%TD*%
D12*
%TO.C,R19*%
X103090000Y-104000000D03*
X103090000Y-105000000D03*
%TD*%
D14*
%TO.C,Q145*%
X68142500Y-30050000D03*
X68142500Y-31950000D03*
X70017500Y-31000000D03*
%TD*%
%TO.C,Q157*%
X200662500Y-67350000D03*
X200662500Y-69250000D03*
X202537500Y-68300000D03*
%TD*%
D13*
%TO.C,Q26*%
X102027500Y-78750000D03*
X102027500Y-76850000D03*
X100152500Y-77800000D03*
%TD*%
%TO.C,Q97*%
X170327500Y-82550000D03*
X170327500Y-80650000D03*
X168452500Y-81600000D03*
%TD*%
%TO.C,Q150*%
X157027500Y-31950000D03*
X157027500Y-30050000D03*
X155152500Y-31000000D03*
%TD*%
%TO.C,Q103*%
X170327500Y-59750000D03*
X170327500Y-57850000D03*
X168452500Y-58800000D03*
%TD*%
D14*
%TO.C,Q90*%
X155152500Y-76850000D03*
X155152500Y-78750000D03*
X157027500Y-77800000D03*
%TD*%
%TO.C,Q88*%
X150852500Y-54050000D03*
X150852500Y-55950000D03*
X152727500Y-55000000D03*
%TD*%
D12*
%TO.C,R21*%
X110690000Y-104000000D03*
X110690000Y-105000000D03*
%TD*%
D17*
%TO.C,D14*%
X204710000Y-65300000D03*
X206290000Y-65300000D03*
%TD*%
D10*
%TO.C,J11*%
X101100000Y-114000000D03*
D11*
X103640000Y-114000000D03*
X106180000Y-114000000D03*
X108720000Y-114000000D03*
X111260000Y-114000000D03*
X113800000Y-114000000D03*
X116340000Y-114000000D03*
X118880000Y-114000000D03*
%TD*%
D10*
%TO.C,J7*%
X57190000Y-76200000D03*
D11*
X57190000Y-78740000D03*
X57190000Y-81280000D03*
X57190000Y-83820000D03*
%TD*%
D13*
%TO.C,Q56*%
X138327500Y-55950000D03*
X138327500Y-54050000D03*
X136452500Y-55000000D03*
%TD*%
D15*
%TO.C,R48*%
X206520000Y-55200000D03*
X204880000Y-55200000D03*
%TD*%
D12*
%TO.C,R30*%
X115690000Y-104000000D03*
X115690000Y-105000000D03*
%TD*%
D21*
%TO.C,R9*%
X61690000Y-101700000D03*
X61690000Y-100700000D03*
%TD*%
D14*
%TO.C,Q91*%
X155152500Y-73050000D03*
X155152500Y-74950000D03*
X157027500Y-74000000D03*
%TD*%
D12*
%TO.C,R5*%
X76890000Y-104000000D03*
X76890000Y-105000000D03*
%TD*%
D14*
%TO.C,Q92*%
X155152500Y-69250000D03*
X155152500Y-71150000D03*
X157027500Y-70200000D03*
%TD*%
%TO.C,Q34*%
X118852500Y-76850000D03*
X118852500Y-78750000D03*
X120727500Y-77800000D03*
%TD*%
%TO.C,Q78*%
X91152500Y-61650000D03*
X91152500Y-63550000D03*
X93027500Y-62600000D03*
%TD*%
%TO.C,Q155*%
X200662500Y-75350000D03*
X200662500Y-77250000D03*
X202537500Y-76300000D03*
%TD*%
D13*
%TO.C,Q14*%
X74327500Y-59750000D03*
X74327500Y-57850000D03*
X72452500Y-58800000D03*
%TD*%
D14*
%TO.C,Q124*%
X187152500Y-69250000D03*
X187152500Y-71150000D03*
X189027500Y-70200000D03*
%TD*%
D13*
%TO.C,Q148*%
X125027500Y-31950000D03*
X125027500Y-30050000D03*
X123152500Y-31000000D03*
%TD*%
D14*
%TO.C,Q40*%
X118852500Y-54050000D03*
X118852500Y-55950000D03*
X120727500Y-55000000D03*
%TD*%
%TO.C,Q84*%
X150852500Y-69250000D03*
X150852500Y-71150000D03*
X152727500Y-70200000D03*
%TD*%
D12*
%TO.C,R7*%
X84490000Y-104000000D03*
X84490000Y-105000000D03*
%TD*%
D15*
%TO.C,R42*%
X206520000Y-83200000D03*
X204880000Y-83200000D03*
%TD*%
D14*
%TO.C,Q93*%
X155152500Y-65450000D03*
X155152500Y-67350000D03*
X157027500Y-66400000D03*
%TD*%
%TO.C,Q77*%
X91152500Y-65450000D03*
X91152500Y-67350000D03*
X93027500Y-66400000D03*
%TD*%
%TO.C,Q41*%
X123152500Y-80650000D03*
X123152500Y-82550000D03*
X125027500Y-81600000D03*
%TD*%
D18*
%TO.C,C4*%
X139800000Y-24700000D03*
X139800000Y-22800000D03*
%TD*%
D14*
%TO.C,Q68*%
X86852500Y-69250000D03*
X86852500Y-71150000D03*
X88727500Y-70200000D03*
%TD*%
%TO.C,Q151*%
X164152500Y-30050000D03*
X164152500Y-31950000D03*
X166027500Y-31000000D03*
%TD*%
%TO.C,Q120*%
X182852500Y-54050000D03*
X182852500Y-55950000D03*
X184727500Y-55000000D03*
%TD*%
D13*
%TO.C,Q108*%
X166027500Y-71150000D03*
X166027500Y-69250000D03*
X164152500Y-70200000D03*
%TD*%
D19*
%TO.C,R34*%
X103970000Y-29900000D03*
X105610000Y-29900000D03*
%TD*%
D17*
%TO.C,D10*%
X204710000Y-85300000D03*
X206290000Y-85300000D03*
%TD*%
D14*
%TO.C,Q48*%
X123152500Y-54050000D03*
X123152500Y-55950000D03*
X125027500Y-55000000D03*
%TD*%
D12*
%TO.C,R26*%
X100490000Y-104000000D03*
X100490000Y-105000000D03*
%TD*%
D13*
%TO.C,Q20*%
X106327500Y-71150000D03*
X106327500Y-69250000D03*
X104452500Y-70200000D03*
%TD*%
D12*
%TO.C,R29*%
X111890000Y-104000000D03*
X111890000Y-105000000D03*
%TD*%
D14*
%TO.C,Q126*%
X187152500Y-61650000D03*
X187152500Y-63550000D03*
X189027500Y-62600000D03*
%TD*%
D20*
%TO.C,C7*%
X142462500Y-111937500D03*
X142462500Y-113837500D03*
%TD*%
D14*
%TO.C,Q66*%
X86852500Y-76850000D03*
X86852500Y-78750000D03*
X88727500Y-77800000D03*
%TD*%
%TO.C,Q73*%
X91152500Y-80650000D03*
X91152500Y-82550000D03*
X93027500Y-81600000D03*
%TD*%
D15*
%TO.C,R37*%
X153310000Y-29900000D03*
X151670000Y-29900000D03*
%TD*%
D18*
%TO.C,C9*%
X158500000Y-24750000D03*
X158500000Y-22850000D03*
%TD*%
D16*
%TO.C,Q140*%
X107140000Y-108837500D03*
X109040000Y-108837500D03*
X108090000Y-106962500D03*
%TD*%
D14*
%TO.C,Q149*%
X132152500Y-30050000D03*
X132152500Y-31950000D03*
X134027500Y-31000000D03*
%TD*%
%TO.C,Q38*%
X118852500Y-61650000D03*
X118852500Y-63550000D03*
X120727500Y-62600000D03*
%TD*%
D13*
%TO.C,Q7*%
X70027500Y-71150000D03*
X70027500Y-69250000D03*
X68152500Y-70200000D03*
%TD*%
D14*
%TO.C,Q42*%
X123152500Y-76850000D03*
X123152500Y-78750000D03*
X125027500Y-77800000D03*
%TD*%
D13*
%TO.C,Q23*%
X106327500Y-59750000D03*
X106327500Y-57850000D03*
X104452500Y-58800000D03*
%TD*%
%TO.C,Q25*%
X102027500Y-82550000D03*
X102027500Y-80650000D03*
X100152500Y-81600000D03*
%TD*%
D18*
%TO.C,C12*%
X167650000Y-24750000D03*
X167650000Y-22850000D03*
%TD*%
D14*
%TO.C,Q79*%
X91152500Y-57850000D03*
X91152500Y-59750000D03*
X93027500Y-58800000D03*
%TD*%
D16*
%TO.C,Q135*%
X83540000Y-108837500D03*
X85440000Y-108837500D03*
X84490000Y-106962500D03*
%TD*%
%TO.C,Q130*%
X64540000Y-108837500D03*
X66440000Y-108837500D03*
X65490000Y-106962500D03*
%TD*%
%TO.C,Q134*%
X79740000Y-108837500D03*
X81640000Y-108837500D03*
X80690000Y-106962500D03*
%TD*%
D15*
%TO.C,R39*%
X185310000Y-29900000D03*
X183670000Y-29900000D03*
%TD*%
D14*
%TO.C,Q160*%
X200662500Y-55350000D03*
X200662500Y-57250000D03*
X202537500Y-56300000D03*
%TD*%
%TO.C,Q125*%
X187152500Y-65450000D03*
X187152500Y-67350000D03*
X189027500Y-66400000D03*
%TD*%
%TO.C,Q121*%
X187152500Y-80650000D03*
X187152500Y-82550000D03*
X189027500Y-81600000D03*
%TD*%
D13*
%TO.C,Q10*%
X74327500Y-67350000D03*
X74327500Y-65450000D03*
X72452500Y-66400000D03*
%TD*%
D15*
%TO.C,R47*%
X206520000Y-59200000D03*
X204880000Y-59200000D03*
%TD*%
D14*
%TO.C,Q45*%
X123152500Y-65450000D03*
X123152500Y-67350000D03*
X125027500Y-66400000D03*
%TD*%
D13*
%TO.C,Q9*%
X70027500Y-67350000D03*
X70027500Y-65450000D03*
X68152500Y-66400000D03*
%TD*%
D19*
%TO.C,R156*%
X71970000Y-29900000D03*
X73610000Y-29900000D03*
%TD*%
%TO.C,R38*%
X167970000Y-29900000D03*
X169610000Y-29900000D03*
%TD*%
D12*
%TO.C,R23*%
X118290000Y-104000000D03*
X118290000Y-105000000D03*
%TD*%
D13*
%TO.C,Q57*%
X134027500Y-82550000D03*
X134027500Y-80650000D03*
X132152500Y-81600000D03*
%TD*%
%TO.C,Q105*%
X166027500Y-82550000D03*
X166027500Y-80650000D03*
X164152500Y-81600000D03*
%TD*%
D14*
%TO.C,Q82*%
X150852500Y-76850000D03*
X150852500Y-78750000D03*
X152727500Y-77800000D03*
%TD*%
D13*
%TO.C,Q112*%
X166027500Y-55950000D03*
X166027500Y-54050000D03*
X164152500Y-55000000D03*
%TD*%
D17*
%TO.C,D4*%
X136200000Y-32000000D03*
X137780000Y-32000000D03*
%TD*%
D14*
%TO.C,Q65*%
X86852500Y-80650000D03*
X86852500Y-82550000D03*
X88727500Y-81600000D03*
%TD*%
D13*
%TO.C,Q1*%
X70027500Y-82550000D03*
X70027500Y-80650000D03*
X68152500Y-81600000D03*
%TD*%
D14*
%TO.C,Q81*%
X150852500Y-80650000D03*
X150852500Y-82550000D03*
X152727500Y-81600000D03*
%TD*%
D13*
%TO.C,Q3*%
X70027500Y-78750000D03*
X70027500Y-76850000D03*
X68152500Y-77800000D03*
%TD*%
%TO.C,Q55*%
X138327500Y-59750000D03*
X138327500Y-57850000D03*
X136452500Y-58800000D03*
%TD*%
D16*
%TO.C,Q139*%
X103340000Y-108837500D03*
X105240000Y-108837500D03*
X104290000Y-106962500D03*
%TD*%
D13*
%TO.C,Q22*%
X106327500Y-63550000D03*
X106327500Y-61650000D03*
X104452500Y-62600000D03*
%TD*%
D10*
%TO.C,J12*%
X57190000Y-31120000D03*
D11*
X57190000Y-33660000D03*
X57190000Y-36200000D03*
X57190000Y-38740000D03*
X57190000Y-41280000D03*
X57190000Y-43820000D03*
X57190000Y-46360000D03*
X57190000Y-48900000D03*
%TD*%
D20*
%TO.C,C13*%
X160612500Y-111937500D03*
X160612500Y-113837500D03*
%TD*%
D22*
%TO.C,D5*%
X152980000Y-32000000D03*
X151400000Y-32000000D03*
%TD*%
D17*
%TO.C,D8*%
X163812500Y-113887500D03*
X165392500Y-113887500D03*
%TD*%
D13*
%TO.C,Q104*%
X170327500Y-55950000D03*
X170327500Y-54050000D03*
X168452500Y-55000000D03*
%TD*%
D10*
%TO.C,J2*%
X112590000Y-33100000D03*
D11*
X112590000Y-35640000D03*
X112590000Y-38180000D03*
X112590000Y-40720000D03*
X112590000Y-43260000D03*
X112590000Y-45800000D03*
X112590000Y-48340000D03*
X112590000Y-50880000D03*
X112590000Y-53420000D03*
X112590000Y-55960000D03*
X112590000Y-58500000D03*
X112590000Y-61040000D03*
X112590000Y-63580000D03*
X112590000Y-66120000D03*
X112590000Y-68660000D03*
X112590000Y-71200000D03*
X112590000Y-73740000D03*
X112590000Y-76280000D03*
X112590000Y-78820000D03*
X112590000Y-81360000D03*
X112590000Y-83900000D03*
%TD*%
D20*
%TO.C,C15*%
X154662500Y-111937500D03*
X154662500Y-113837500D03*
%TD*%
D14*
%TO.C,Q86*%
X150852500Y-61650000D03*
X150852500Y-63550000D03*
X152727500Y-62600000D03*
%TD*%
D16*
%TO.C,Q141*%
X110940000Y-108837500D03*
X112840000Y-108837500D03*
X111890000Y-106962500D03*
%TD*%
%TO.C,Q136*%
X87340000Y-108837500D03*
X89240000Y-108837500D03*
X88290000Y-106962500D03*
%TD*%
%TO.C,Q137*%
X95740000Y-108837500D03*
X97640000Y-108837500D03*
X96690000Y-106962500D03*
%TD*%
%TO.C,Q138*%
X99540000Y-108837500D03*
X101440000Y-108837500D03*
X100490000Y-106962500D03*
%TD*%
D17*
%TO.C,D15*%
X204710000Y-61300000D03*
X206290000Y-61300000D03*
%TD*%
D13*
%TO.C,Q111*%
X166027500Y-59750000D03*
X166027500Y-57850000D03*
X164152500Y-58800000D03*
%TD*%
D16*
%TO.C,Q129*%
X60740000Y-108837500D03*
X62640000Y-108837500D03*
X61690000Y-106962500D03*
%TD*%
D14*
%TO.C,Q43*%
X123152500Y-73050000D03*
X123152500Y-74950000D03*
X125027500Y-74000000D03*
%TD*%
D13*
%TO.C,Q106*%
X166027500Y-78750000D03*
X166027500Y-76850000D03*
X164152500Y-77800000D03*
%TD*%
D20*
%TO.C,C6*%
X145512500Y-111937500D03*
X145512500Y-113837500D03*
%TD*%
D22*
%TO.C,D7*%
X184980000Y-32000000D03*
X183400000Y-32000000D03*
%TD*%
D12*
%TO.C,R18*%
X99290000Y-104000000D03*
X99290000Y-105000000D03*
%TD*%
D14*
%TO.C,Q69*%
X86852500Y-65450000D03*
X86852500Y-67350000D03*
X88727500Y-66400000D03*
%TD*%
%TO.C,Q115*%
X182852500Y-73050000D03*
X182852500Y-74950000D03*
X184727500Y-74000000D03*
%TD*%
D13*
%TO.C,Q21*%
X106327500Y-67350000D03*
X106327500Y-65450000D03*
X104452500Y-66400000D03*
%TD*%
D14*
%TO.C,Q67*%
X86852500Y-73050000D03*
X86852500Y-74950000D03*
X88727500Y-74000000D03*
%TD*%
D10*
%TO.C,J13*%
X123600000Y-23800000D03*
D11*
X126140000Y-23800000D03*
%TD*%
D13*
%TO.C,Q110*%
X166027500Y-63550000D03*
X166027500Y-61650000D03*
X164152500Y-62600000D03*
%TD*%
D21*
%TO.C,R12*%
X73090000Y-101700000D03*
X73090000Y-100700000D03*
%TD*%
D14*
%TO.C,Q118*%
X182852500Y-61650000D03*
X182852500Y-63550000D03*
X184727500Y-62600000D03*
%TD*%
%TO.C,Q158*%
X200662500Y-63350000D03*
X200662500Y-65250000D03*
X202537500Y-64300000D03*
%TD*%
D17*
%TO.C,D2*%
X104200000Y-32000000D03*
X105780000Y-32000000D03*
%TD*%
D20*
%TO.C,C8*%
X139412500Y-111937500D03*
X139412500Y-113837500D03*
%TD*%
D13*
%TO.C,Q8*%
X74327500Y-71150000D03*
X74327500Y-69250000D03*
X72452500Y-70200000D03*
%TD*%
D21*
%TO.C,R15*%
X84490000Y-101700000D03*
X84490000Y-100700000D03*
%TD*%
D14*
%TO.C,Q114*%
X182852500Y-76850000D03*
X182852500Y-78750000D03*
X184727500Y-77800000D03*
%TD*%
D17*
%TO.C,D13*%
X204710000Y-69300000D03*
X206290000Y-69300000D03*
%TD*%
D16*
%TO.C,Q133*%
X75940000Y-108837500D03*
X77840000Y-108837500D03*
X76890000Y-106962500D03*
%TD*%
D12*
%TO.C,R28*%
X108090000Y-104000000D03*
X108090000Y-105000000D03*
%TD*%
D13*
%TO.C,Q58*%
X134027500Y-78750000D03*
X134027500Y-76850000D03*
X132152500Y-77800000D03*
%TD*%
D12*
%TO.C,R22*%
X114490000Y-104000000D03*
X114490000Y-105000000D03*
%TD*%
D14*
%TO.C,Q123*%
X187152500Y-73050000D03*
X187152500Y-74950000D03*
X189027500Y-74000000D03*
%TD*%
D22*
%TO.C,D3*%
X121080000Y-32000000D03*
X119500000Y-32000000D03*
%TD*%
D14*
%TO.C,Q94*%
X155152500Y-61650000D03*
X155152500Y-63550000D03*
X157027500Y-62600000D03*
%TD*%
D13*
%TO.C,Q109*%
X166027500Y-67350000D03*
X166027500Y-65450000D03*
X164152500Y-66400000D03*
%TD*%
D14*
%TO.C,Q95*%
X155152500Y-57850000D03*
X155152500Y-59750000D03*
X157027500Y-58800000D03*
%TD*%
D13*
%TO.C,Q100*%
X170327500Y-71150000D03*
X170327500Y-69250000D03*
X168452500Y-70200000D03*
%TD*%
%TO.C,Q98*%
X170327500Y-78750000D03*
X170327500Y-76850000D03*
X168452500Y-77800000D03*
%TD*%
%TO.C,Q13*%
X70027500Y-59750000D03*
X70027500Y-57850000D03*
X68152500Y-58800000D03*
%TD*%
%TO.C,Q2*%
X74327500Y-82550000D03*
X74327500Y-80650000D03*
X72452500Y-81600000D03*
%TD*%
%TO.C,Q107*%
X166027500Y-74950000D03*
X166027500Y-73050000D03*
X164152500Y-74000000D03*
%TD*%
D22*
%TO.C,D1*%
X88980000Y-32000000D03*
X87400000Y-32000000D03*
%TD*%
D14*
%TO.C,Q89*%
X155152500Y-80650000D03*
X155152500Y-82550000D03*
X157027500Y-81600000D03*
%TD*%
D18*
%TO.C,C1*%
X130650000Y-24700000D03*
X130650000Y-22800000D03*
%TD*%
D13*
%TO.C,Q32*%
X102027500Y-55950000D03*
X102027500Y-54050000D03*
X100152500Y-55000000D03*
%TD*%
%TO.C,Q152*%
X189027500Y-31950000D03*
X189027500Y-30050000D03*
X187152500Y-31000000D03*
%TD*%
D12*
%TO.C,R31*%
X119490000Y-104000000D03*
X119490000Y-105000000D03*
%TD*%
D16*
%TO.C,Q142*%
X114740000Y-108837500D03*
X116640000Y-108837500D03*
X115690000Y-106962500D03*
%TD*%
D14*
%TO.C,Q76*%
X91152500Y-69250000D03*
X91152500Y-71150000D03*
X93027500Y-70200000D03*
%TD*%
D21*
%TO.C,R10*%
X65490000Y-101700000D03*
X65490000Y-100700000D03*
%TD*%
D14*
%TO.C,Q113*%
X182852500Y-80650000D03*
X182852500Y-82550000D03*
X184727500Y-81600000D03*
%TD*%
D18*
%TO.C,C2*%
X133700000Y-24700000D03*
X133700000Y-22800000D03*
%TD*%
M02*
