%TF.GenerationSoftware,KiCad,Pcbnew,9.0.7*%
%TF.CreationDate,2026-02-26T01:03:49+01:00*%
%TF.ProjectId,Register_Holder_V1.0,52656769-7374-4657-925f-486f6c646572,rev?*%
%TF.SameCoordinates,Original*%
%TF.FileFunction,Legend,Top*%
%TF.FilePolarity,Positive*%
%FSLAX46Y46*%
G04 Gerber Fmt 4.6, Leading zero omitted, Abs format (unit mm)*
G04 Created by KiCad (PCBNEW 9.0.7) date 2026-02-26 01:03:49*
%MOMM*%
%LPD*%
G01*
G04 APERTURE LIST*
G04 Aperture macros list*
%AMRoundRect*
0 Rectangle with rounded corners*
0 $1 Rounding radius*
0 $2 $3 $4 $5 $6 $7 $8 $9 X,Y pos of 4 corners*
0 Add a 4 corners polygon primitive as box body*
4,1,4,$2,$3,$4,$5,$6,$7,$8,$9,$2,$3,0*
0 Add four circle primitives for the rounded corners*
1,1,$1+$1,$2,$3*
1,1,$1+$1,$4,$5*
1,1,$1+$1,$6,$7*
1,1,$1+$1,$8,$9*
0 Add four rect primitives between the rounded corners*
20,1,$1+$1,$2,$3,$4,$5,0*
20,1,$1+$1,$4,$5,$6,$7,0*
20,1,$1+$1,$6,$7,$8,$9,0*
20,1,$1+$1,$8,$9,$2,$3,0*%
G04 Aperture macros list end*
%ADD10C,0.100000*%
%ADD11C,0.600000*%
%ADD12C,0.000000*%
%ADD13C,0.120000*%
%ADD14C,0.150000*%
%ADD15RoundRect,0.150000X-0.587500X-0.150000X0.587500X-0.150000X0.587500X0.150000X-0.587500X0.150000X0*%
%ADD16RoundRect,0.219000X0.219000X0.294000X-0.219000X0.294000X-0.219000X-0.294000X0.219000X-0.294000X0*%
%ADD17RoundRect,0.239000X-0.239000X-0.274000X0.239000X-0.274000X0.239000X0.274000X-0.239000X0.274000X0*%
%ADD18RoundRect,0.269000X-0.494000X0.269000X-0.494000X-0.269000X0.494000X-0.269000X0.494000X0.269000X0*%
%ADD19RoundRect,0.269000X0.494000X-0.269000X0.494000X0.269000X-0.494000X0.269000X-0.494000X-0.269000X0*%
%ADD20C,2.200000*%
%ADD21C,3.200000*%
%ADD22C,1.700000*%
%ADD23R,1.700000X1.700000*%
%ADD24RoundRect,0.159000X-0.189000X0.159000X-0.189000X-0.159000X0.189000X-0.159000X0.189000X0.159000X0*%
%ADD25RoundRect,0.150000X0.150000X-0.587500X0.150000X0.587500X-0.150000X0.587500X-0.150000X-0.587500X0*%
%ADD26RoundRect,0.150000X0.587500X0.150000X-0.587500X0.150000X-0.587500X-0.150000X0.587500X-0.150000X0*%
%ADD27RoundRect,0.219000X-0.219000X-0.294000X0.219000X-0.294000X0.219000X0.294000X-0.219000X0.294000X0*%
%ADD28RoundRect,0.239000X0.239000X0.274000X-0.239000X0.274000X-0.239000X-0.274000X0.239000X-0.274000X0*%
%ADD29RoundRect,0.159000X0.189000X-0.159000X0.189000X0.159000X-0.189000X0.159000X-0.189000X-0.159000X0*%
G04 APERTURE END LIST*
D10*
X64600000Y-94000000D02*
X192600000Y-94000000D01*
X160600000Y-29300000D02*
X163200000Y-29300000D01*
X128600000Y-29300000D02*
X131200000Y-29300000D01*
X96600000Y-29300000D02*
X99200000Y-29300000D01*
X64600000Y-22000000D02*
X64600000Y-94000000D01*
X64600000Y-29300000D02*
X67200000Y-29300000D01*
X192600000Y-22000000D02*
X192600000Y-94000000D01*
X190000000Y-29300000D02*
X192600000Y-29300000D01*
X158000000Y-29300000D02*
X160600000Y-29300000D01*
X160600000Y-22000000D02*
X160600000Y-94000000D01*
X126000000Y-29300000D02*
X128600000Y-29300000D01*
X128600000Y-22000000D02*
X128600000Y-94000000D01*
X96600000Y-22000000D02*
X96600000Y-94000000D01*
X96600000Y-29300000D02*
X96600000Y-22000000D01*
X94000000Y-29300000D02*
X96600000Y-29300000D01*
D11*
X175814285Y-25601657D02*
X175814285Y-22601657D01*
X175814285Y-22601657D02*
X176528571Y-22601657D01*
X176528571Y-22601657D02*
X176957142Y-22744514D01*
X176957142Y-22744514D02*
X177242857Y-23030228D01*
X177242857Y-23030228D02*
X177385714Y-23315942D01*
X177385714Y-23315942D02*
X177528571Y-23887371D01*
X177528571Y-23887371D02*
X177528571Y-24315942D01*
X177528571Y-24315942D02*
X177385714Y-24887371D01*
X177385714Y-24887371D02*
X177242857Y-25173085D01*
X177242857Y-25173085D02*
X176957142Y-25458800D01*
X176957142Y-25458800D02*
X176528571Y-25601657D01*
X176528571Y-25601657D02*
X175814285Y-25601657D01*
X145528571Y-25315942D02*
X145385714Y-25458800D01*
X145385714Y-25458800D02*
X144957142Y-25601657D01*
X144957142Y-25601657D02*
X144671428Y-25601657D01*
X144671428Y-25601657D02*
X144242857Y-25458800D01*
X144242857Y-25458800D02*
X143957142Y-25173085D01*
X143957142Y-25173085D02*
X143814285Y-24887371D01*
X143814285Y-24887371D02*
X143671428Y-24315942D01*
X143671428Y-24315942D02*
X143671428Y-23887371D01*
X143671428Y-23887371D02*
X143814285Y-23315942D01*
X143814285Y-23315942D02*
X143957142Y-23030228D01*
X143957142Y-23030228D02*
X144242857Y-22744514D01*
X144242857Y-22744514D02*
X144671428Y-22601657D01*
X144671428Y-22601657D02*
X144957142Y-22601657D01*
X144957142Y-22601657D02*
X145385714Y-22744514D01*
X145385714Y-22744514D02*
X145528571Y-22887371D01*
X112814285Y-24030228D02*
X113242857Y-24173085D01*
X113242857Y-24173085D02*
X113385714Y-24315942D01*
X113385714Y-24315942D02*
X113528571Y-24601657D01*
X113528571Y-24601657D02*
X113528571Y-25030228D01*
X113528571Y-25030228D02*
X113385714Y-25315942D01*
X113385714Y-25315942D02*
X113242857Y-25458800D01*
X113242857Y-25458800D02*
X112957142Y-25601657D01*
X112957142Y-25601657D02*
X111814285Y-25601657D01*
X111814285Y-25601657D02*
X111814285Y-22601657D01*
X111814285Y-22601657D02*
X112814285Y-22601657D01*
X112814285Y-22601657D02*
X113100000Y-22744514D01*
X113100000Y-22744514D02*
X113242857Y-22887371D01*
X113242857Y-22887371D02*
X113385714Y-23173085D01*
X113385714Y-23173085D02*
X113385714Y-23458800D01*
X113385714Y-23458800D02*
X113242857Y-23744514D01*
X113242857Y-23744514D02*
X113100000Y-23887371D01*
X113100000Y-23887371D02*
X112814285Y-24030228D01*
X112814285Y-24030228D02*
X111814285Y-24030228D01*
X79885714Y-24744514D02*
X81314286Y-24744514D01*
X79600000Y-25601657D02*
X80600000Y-22601657D01*
X80600000Y-22601657D02*
X81600000Y-25601657D01*
D10*
X107556265Y-117086704D02*
X108032455Y-117086704D01*
X107461027Y-117372419D02*
X107794360Y-116372419D01*
X107794360Y-116372419D02*
X108127693Y-117372419D01*
X108937217Y-117372419D02*
X108461027Y-117372419D01*
X108461027Y-117372419D02*
X108461027Y-116372419D01*
X109270551Y-116372419D02*
X109270551Y-117181942D01*
X109270551Y-117181942D02*
X109318170Y-117277180D01*
X109318170Y-117277180D02*
X109365789Y-117324800D01*
X109365789Y-117324800D02*
X109461027Y-117372419D01*
X109461027Y-117372419D02*
X109651503Y-117372419D01*
X109651503Y-117372419D02*
X109746741Y-117324800D01*
X109746741Y-117324800D02*
X109794360Y-117277180D01*
X109794360Y-117277180D02*
X109841979Y-117181942D01*
X109841979Y-117181942D02*
X109841979Y-116372419D01*
X111413408Y-116848609D02*
X111556265Y-116896228D01*
X111556265Y-116896228D02*
X111603884Y-116943847D01*
X111603884Y-116943847D02*
X111651503Y-117039085D01*
X111651503Y-117039085D02*
X111651503Y-117181942D01*
X111651503Y-117181942D02*
X111603884Y-117277180D01*
X111603884Y-117277180D02*
X111556265Y-117324800D01*
X111556265Y-117324800D02*
X111461027Y-117372419D01*
X111461027Y-117372419D02*
X111080075Y-117372419D01*
X111080075Y-117372419D02*
X111080075Y-116372419D01*
X111080075Y-116372419D02*
X111413408Y-116372419D01*
X111413408Y-116372419D02*
X111508646Y-116420038D01*
X111508646Y-116420038D02*
X111556265Y-116467657D01*
X111556265Y-116467657D02*
X111603884Y-116562895D01*
X111603884Y-116562895D02*
X111603884Y-116658133D01*
X111603884Y-116658133D02*
X111556265Y-116753371D01*
X111556265Y-116753371D02*
X111508646Y-116800990D01*
X111508646Y-116800990D02*
X111413408Y-116848609D01*
X111413408Y-116848609D02*
X111080075Y-116848609D01*
X90103295Y-34156265D02*
X90103295Y-34632455D01*
X89817580Y-34061027D02*
X90817580Y-34394360D01*
X90817580Y-34394360D02*
X89817580Y-34727693D01*
X90198533Y-35822932D02*
X90198533Y-36584837D01*
X90484247Y-37061027D02*
X90198533Y-37822932D01*
X90198533Y-37822932D02*
X89912819Y-37061027D01*
X90103295Y-39013408D02*
X90103295Y-39489598D01*
X89817580Y-38918170D02*
X90817580Y-39251503D01*
X90817580Y-39251503D02*
X89817580Y-39584836D01*
X89817580Y-40394360D02*
X89817580Y-39918170D01*
X89817580Y-39918170D02*
X90817580Y-39918170D01*
X90817580Y-40727694D02*
X90008057Y-40727694D01*
X90008057Y-40727694D02*
X89912819Y-40775313D01*
X89912819Y-40775313D02*
X89865200Y-40822932D01*
X89865200Y-40822932D02*
X89817580Y-40918170D01*
X89817580Y-40918170D02*
X89817580Y-41108646D01*
X89817580Y-41108646D02*
X89865200Y-41203884D01*
X89865200Y-41203884D02*
X89912819Y-41251503D01*
X89912819Y-41251503D02*
X90008057Y-41299122D01*
X90008057Y-41299122D02*
X90817580Y-41299122D01*
X90341390Y-42870551D02*
X90293771Y-43013408D01*
X90293771Y-43013408D02*
X90246152Y-43061027D01*
X90246152Y-43061027D02*
X90150914Y-43108646D01*
X90150914Y-43108646D02*
X90008057Y-43108646D01*
X90008057Y-43108646D02*
X89912819Y-43061027D01*
X89912819Y-43061027D02*
X89865200Y-43013408D01*
X89865200Y-43013408D02*
X89817580Y-42918170D01*
X89817580Y-42918170D02*
X89817580Y-42537218D01*
X89817580Y-42537218D02*
X90817580Y-42537218D01*
X90817580Y-42537218D02*
X90817580Y-42870551D01*
X90817580Y-42870551D02*
X90769961Y-42965789D01*
X90769961Y-42965789D02*
X90722342Y-43013408D01*
X90722342Y-43013408D02*
X90627104Y-43061027D01*
X90627104Y-43061027D02*
X90531866Y-43061027D01*
X90531866Y-43061027D02*
X90436628Y-43013408D01*
X90436628Y-43013408D02*
X90389009Y-42965789D01*
X90389009Y-42965789D02*
X90341390Y-42870551D01*
X90341390Y-42870551D02*
X90341390Y-42537218D01*
X102741390Y-34437217D02*
X102693771Y-34580074D01*
X102693771Y-34580074D02*
X102646152Y-34627693D01*
X102646152Y-34627693D02*
X102550914Y-34675312D01*
X102550914Y-34675312D02*
X102408057Y-34675312D01*
X102408057Y-34675312D02*
X102312819Y-34627693D01*
X102312819Y-34627693D02*
X102265200Y-34580074D01*
X102265200Y-34580074D02*
X102217580Y-34484836D01*
X102217580Y-34484836D02*
X102217580Y-34103884D01*
X102217580Y-34103884D02*
X103217580Y-34103884D01*
X103217580Y-34103884D02*
X103217580Y-34437217D01*
X103217580Y-34437217D02*
X103169961Y-34532455D01*
X103169961Y-34532455D02*
X103122342Y-34580074D01*
X103122342Y-34580074D02*
X103027104Y-34627693D01*
X103027104Y-34627693D02*
X102931866Y-34627693D01*
X102931866Y-34627693D02*
X102836628Y-34580074D01*
X102836628Y-34580074D02*
X102789009Y-34532455D01*
X102789009Y-34532455D02*
X102741390Y-34437217D01*
X102741390Y-34437217D02*
X102741390Y-34103884D01*
X102598533Y-35865789D02*
X102598533Y-36627694D01*
X102884247Y-37103884D02*
X102598533Y-37865789D01*
X102598533Y-37865789D02*
X102312819Y-37103884D01*
X102503295Y-39056265D02*
X102503295Y-39532455D01*
X102217580Y-38961027D02*
X103217580Y-39294360D01*
X103217580Y-39294360D02*
X102217580Y-39627693D01*
X102217580Y-40437217D02*
X102217580Y-39961027D01*
X102217580Y-39961027D02*
X103217580Y-39961027D01*
X103217580Y-40770551D02*
X102408057Y-40770551D01*
X102408057Y-40770551D02*
X102312819Y-40818170D01*
X102312819Y-40818170D02*
X102265200Y-40865789D01*
X102265200Y-40865789D02*
X102217580Y-40961027D01*
X102217580Y-40961027D02*
X102217580Y-41151503D01*
X102217580Y-41151503D02*
X102265200Y-41246741D01*
X102265200Y-41246741D02*
X102312819Y-41294360D01*
X102312819Y-41294360D02*
X102408057Y-41341979D01*
X102408057Y-41341979D02*
X103217580Y-41341979D01*
X102503295Y-42532456D02*
X102503295Y-43008646D01*
X102217580Y-42437218D02*
X103217580Y-42770551D01*
X103217580Y-42770551D02*
X102217580Y-43103884D01*
X122741390Y-34337217D02*
X122693771Y-34480074D01*
X122693771Y-34480074D02*
X122646152Y-34527693D01*
X122646152Y-34527693D02*
X122550914Y-34575312D01*
X122550914Y-34575312D02*
X122408057Y-34575312D01*
X122408057Y-34575312D02*
X122312819Y-34527693D01*
X122312819Y-34527693D02*
X122265200Y-34480074D01*
X122265200Y-34480074D02*
X122217580Y-34384836D01*
X122217580Y-34384836D02*
X122217580Y-34003884D01*
X122217580Y-34003884D02*
X123217580Y-34003884D01*
X123217580Y-34003884D02*
X123217580Y-34337217D01*
X123217580Y-34337217D02*
X123169961Y-34432455D01*
X123169961Y-34432455D02*
X123122342Y-34480074D01*
X123122342Y-34480074D02*
X123027104Y-34527693D01*
X123027104Y-34527693D02*
X122931866Y-34527693D01*
X122931866Y-34527693D02*
X122836628Y-34480074D01*
X122836628Y-34480074D02*
X122789009Y-34432455D01*
X122789009Y-34432455D02*
X122741390Y-34337217D01*
X122741390Y-34337217D02*
X122741390Y-34003884D01*
X122598533Y-35765789D02*
X122598533Y-36527694D01*
X122884247Y-37003884D02*
X122598533Y-37765789D01*
X122598533Y-37765789D02*
X122312819Y-37003884D01*
X122503295Y-38956265D02*
X122503295Y-39432455D01*
X122217580Y-38861027D02*
X123217580Y-39194360D01*
X123217580Y-39194360D02*
X122217580Y-39527693D01*
X122217580Y-40337217D02*
X122217580Y-39861027D01*
X122217580Y-39861027D02*
X123217580Y-39861027D01*
X123217580Y-40670551D02*
X122408057Y-40670551D01*
X122408057Y-40670551D02*
X122312819Y-40718170D01*
X122312819Y-40718170D02*
X122265200Y-40765789D01*
X122265200Y-40765789D02*
X122217580Y-40861027D01*
X122217580Y-40861027D02*
X122217580Y-41051503D01*
X122217580Y-41051503D02*
X122265200Y-41146741D01*
X122265200Y-41146741D02*
X122312819Y-41194360D01*
X122312819Y-41194360D02*
X122408057Y-41241979D01*
X122408057Y-41241979D02*
X123217580Y-41241979D01*
X122741390Y-42813408D02*
X122693771Y-42956265D01*
X122693771Y-42956265D02*
X122646152Y-43003884D01*
X122646152Y-43003884D02*
X122550914Y-43051503D01*
X122550914Y-43051503D02*
X122408057Y-43051503D01*
X122408057Y-43051503D02*
X122312819Y-43003884D01*
X122312819Y-43003884D02*
X122265200Y-42956265D01*
X122265200Y-42956265D02*
X122217580Y-42861027D01*
X122217580Y-42861027D02*
X122217580Y-42480075D01*
X122217580Y-42480075D02*
X123217580Y-42480075D01*
X123217580Y-42480075D02*
X123217580Y-42813408D01*
X123217580Y-42813408D02*
X123169961Y-42908646D01*
X123169961Y-42908646D02*
X123122342Y-42956265D01*
X123122342Y-42956265D02*
X123027104Y-43003884D01*
X123027104Y-43003884D02*
X122931866Y-43003884D01*
X122931866Y-43003884D02*
X122836628Y-42956265D01*
X122836628Y-42956265D02*
X122789009Y-42908646D01*
X122789009Y-42908646D02*
X122741390Y-42813408D01*
X122741390Y-42813408D02*
X122741390Y-42480075D01*
X72956265Y-117086704D02*
X73432455Y-117086704D01*
X72861027Y-117372419D02*
X73194360Y-116372419D01*
X73194360Y-116372419D02*
X73527693Y-117372419D01*
X74337217Y-117372419D02*
X73861027Y-117372419D01*
X73861027Y-117372419D02*
X73861027Y-116372419D01*
X74670551Y-116372419D02*
X74670551Y-117181942D01*
X74670551Y-117181942D02*
X74718170Y-117277180D01*
X74718170Y-117277180D02*
X74765789Y-117324800D01*
X74765789Y-117324800D02*
X74861027Y-117372419D01*
X74861027Y-117372419D02*
X75051503Y-117372419D01*
X75051503Y-117372419D02*
X75146741Y-117324800D01*
X75146741Y-117324800D02*
X75194360Y-117277180D01*
X75194360Y-117277180D02*
X75241979Y-117181942D01*
X75241979Y-117181942D02*
X75241979Y-116372419D01*
X76432456Y-117086704D02*
X76908646Y-117086704D01*
X76337218Y-117372419D02*
X76670551Y-116372419D01*
X76670551Y-116372419D02*
X77003884Y-117372419D01*
X204746741Y-112054800D02*
X205032455Y-112150038D01*
X205032455Y-112150038D02*
X205508646Y-112150038D01*
X205508646Y-112150038D02*
X205699122Y-112054800D01*
X205699122Y-112054800D02*
X205794360Y-111959561D01*
X205794360Y-111959561D02*
X205889598Y-111769085D01*
X205889598Y-111769085D02*
X205889598Y-111578609D01*
X205889598Y-111578609D02*
X205794360Y-111388133D01*
X205794360Y-111388133D02*
X205699122Y-111292895D01*
X205699122Y-111292895D02*
X205508646Y-111197657D01*
X205508646Y-111197657D02*
X205127693Y-111102419D01*
X205127693Y-111102419D02*
X204937217Y-111007180D01*
X204937217Y-111007180D02*
X204841979Y-110911942D01*
X204841979Y-110911942D02*
X204746741Y-110721466D01*
X204746741Y-110721466D02*
X204746741Y-110530990D01*
X204746741Y-110530990D02*
X204841979Y-110340514D01*
X204841979Y-110340514D02*
X204937217Y-110245276D01*
X204937217Y-110245276D02*
X205127693Y-110150038D01*
X205127693Y-110150038D02*
X205603884Y-110150038D01*
X205603884Y-110150038D02*
X205889598Y-110245276D01*
X207318170Y-110150038D02*
X207318170Y-111578609D01*
X207318170Y-111578609D02*
X207222931Y-111864323D01*
X207222931Y-111864323D02*
X207032455Y-112054800D01*
X207032455Y-112054800D02*
X206746741Y-112150038D01*
X206746741Y-112150038D02*
X206556265Y-112150038D01*
X201172419Y-50396115D02*
X200172419Y-50396115D01*
X200172419Y-50396115D02*
X200886704Y-50062782D01*
X200886704Y-50062782D02*
X200172419Y-49729449D01*
X200172419Y-49729449D02*
X201172419Y-49729449D01*
X201124800Y-49300877D02*
X201172419Y-49158020D01*
X201172419Y-49158020D02*
X201172419Y-48919925D01*
X201172419Y-48919925D02*
X201124800Y-48824687D01*
X201124800Y-48824687D02*
X201077180Y-48777068D01*
X201077180Y-48777068D02*
X200981942Y-48729449D01*
X200981942Y-48729449D02*
X200886704Y-48729449D01*
X200886704Y-48729449D02*
X200791466Y-48777068D01*
X200791466Y-48777068D02*
X200743847Y-48824687D01*
X200743847Y-48824687D02*
X200696228Y-48919925D01*
X200696228Y-48919925D02*
X200648609Y-49110401D01*
X200648609Y-49110401D02*
X200600990Y-49205639D01*
X200600990Y-49205639D02*
X200553371Y-49253258D01*
X200553371Y-49253258D02*
X200458133Y-49300877D01*
X200458133Y-49300877D02*
X200362895Y-49300877D01*
X200362895Y-49300877D02*
X200267657Y-49253258D01*
X200267657Y-49253258D02*
X200220038Y-49205639D01*
X200220038Y-49205639D02*
X200172419Y-49110401D01*
X200172419Y-49110401D02*
X200172419Y-48872306D01*
X200172419Y-48872306D02*
X200220038Y-48729449D01*
X200648609Y-47967544D02*
X200696228Y-47824687D01*
X200696228Y-47824687D02*
X200743847Y-47777068D01*
X200743847Y-47777068D02*
X200839085Y-47729449D01*
X200839085Y-47729449D02*
X200981942Y-47729449D01*
X200981942Y-47729449D02*
X201077180Y-47777068D01*
X201077180Y-47777068D02*
X201124800Y-47824687D01*
X201124800Y-47824687D02*
X201172419Y-47919925D01*
X201172419Y-47919925D02*
X201172419Y-48300877D01*
X201172419Y-48300877D02*
X200172419Y-48300877D01*
X200172419Y-48300877D02*
X200172419Y-47967544D01*
X200172419Y-47967544D02*
X200220038Y-47872306D01*
X200220038Y-47872306D02*
X200267657Y-47824687D01*
X200267657Y-47824687D02*
X200362895Y-47777068D01*
X200362895Y-47777068D02*
X200458133Y-47777068D01*
X200458133Y-47777068D02*
X200553371Y-47824687D01*
X200553371Y-47824687D02*
X200600990Y-47872306D01*
X200600990Y-47872306D02*
X200648609Y-47967544D01*
X200648609Y-47967544D02*
X200648609Y-48300877D01*
X56727580Y-51703884D02*
X57727580Y-51703884D01*
X57727580Y-51703884D02*
X57013295Y-52037217D01*
X57013295Y-52037217D02*
X57727580Y-52370550D01*
X57727580Y-52370550D02*
X56727580Y-52370550D01*
X56775200Y-52799122D02*
X56727580Y-52941979D01*
X56727580Y-52941979D02*
X56727580Y-53180074D01*
X56727580Y-53180074D02*
X56775200Y-53275312D01*
X56775200Y-53275312D02*
X56822819Y-53322931D01*
X56822819Y-53322931D02*
X56918057Y-53370550D01*
X56918057Y-53370550D02*
X57013295Y-53370550D01*
X57013295Y-53370550D02*
X57108533Y-53322931D01*
X57108533Y-53322931D02*
X57156152Y-53275312D01*
X57156152Y-53275312D02*
X57203771Y-53180074D01*
X57203771Y-53180074D02*
X57251390Y-52989598D01*
X57251390Y-52989598D02*
X57299009Y-52894360D01*
X57299009Y-52894360D02*
X57346628Y-52846741D01*
X57346628Y-52846741D02*
X57441866Y-52799122D01*
X57441866Y-52799122D02*
X57537104Y-52799122D01*
X57537104Y-52799122D02*
X57632342Y-52846741D01*
X57632342Y-52846741D02*
X57679961Y-52894360D01*
X57679961Y-52894360D02*
X57727580Y-52989598D01*
X57727580Y-52989598D02*
X57727580Y-53227693D01*
X57727580Y-53227693D02*
X57679961Y-53370550D01*
X57251390Y-54132455D02*
X57203771Y-54275312D01*
X57203771Y-54275312D02*
X57156152Y-54322931D01*
X57156152Y-54322931D02*
X57060914Y-54370550D01*
X57060914Y-54370550D02*
X56918057Y-54370550D01*
X56918057Y-54370550D02*
X56822819Y-54322931D01*
X56822819Y-54322931D02*
X56775200Y-54275312D01*
X56775200Y-54275312D02*
X56727580Y-54180074D01*
X56727580Y-54180074D02*
X56727580Y-53799122D01*
X56727580Y-53799122D02*
X57727580Y-53799122D01*
X57727580Y-53799122D02*
X57727580Y-54132455D01*
X57727580Y-54132455D02*
X57679961Y-54227693D01*
X57679961Y-54227693D02*
X57632342Y-54275312D01*
X57632342Y-54275312D02*
X57537104Y-54322931D01*
X57537104Y-54322931D02*
X57441866Y-54322931D01*
X57441866Y-54322931D02*
X57346628Y-54275312D01*
X57346628Y-54275312D02*
X57299009Y-54227693D01*
X57299009Y-54227693D02*
X57251390Y-54132455D01*
X57251390Y-54132455D02*
X57251390Y-53799122D01*
X86503884Y-114472419D02*
X86503884Y-113472419D01*
X86503884Y-113472419D02*
X86837217Y-114186704D01*
X86837217Y-114186704D02*
X87170550Y-113472419D01*
X87170550Y-113472419D02*
X87170550Y-114472419D01*
X87599122Y-114424800D02*
X87741979Y-114472419D01*
X87741979Y-114472419D02*
X87980074Y-114472419D01*
X87980074Y-114472419D02*
X88075312Y-114424800D01*
X88075312Y-114424800D02*
X88122931Y-114377180D01*
X88122931Y-114377180D02*
X88170550Y-114281942D01*
X88170550Y-114281942D02*
X88170550Y-114186704D01*
X88170550Y-114186704D02*
X88122931Y-114091466D01*
X88122931Y-114091466D02*
X88075312Y-114043847D01*
X88075312Y-114043847D02*
X87980074Y-113996228D01*
X87980074Y-113996228D02*
X87789598Y-113948609D01*
X87789598Y-113948609D02*
X87694360Y-113900990D01*
X87694360Y-113900990D02*
X87646741Y-113853371D01*
X87646741Y-113853371D02*
X87599122Y-113758133D01*
X87599122Y-113758133D02*
X87599122Y-113662895D01*
X87599122Y-113662895D02*
X87646741Y-113567657D01*
X87646741Y-113567657D02*
X87694360Y-113520038D01*
X87694360Y-113520038D02*
X87789598Y-113472419D01*
X87789598Y-113472419D02*
X88027693Y-113472419D01*
X88027693Y-113472419D02*
X88170550Y-113520038D01*
X88932455Y-113948609D02*
X89075312Y-113996228D01*
X89075312Y-113996228D02*
X89122931Y-114043847D01*
X89122931Y-114043847D02*
X89170550Y-114139085D01*
X89170550Y-114139085D02*
X89170550Y-114281942D01*
X89170550Y-114281942D02*
X89122931Y-114377180D01*
X89122931Y-114377180D02*
X89075312Y-114424800D01*
X89075312Y-114424800D02*
X88980074Y-114472419D01*
X88980074Y-114472419D02*
X88599122Y-114472419D01*
X88599122Y-114472419D02*
X88599122Y-113472419D01*
X88599122Y-113472419D02*
X88932455Y-113472419D01*
X88932455Y-113472419D02*
X89027693Y-113520038D01*
X89027693Y-113520038D02*
X89075312Y-113567657D01*
X89075312Y-113567657D02*
X89122931Y-113662895D01*
X89122931Y-113662895D02*
X89122931Y-113758133D01*
X89122931Y-113758133D02*
X89075312Y-113853371D01*
X89075312Y-113853371D02*
X89027693Y-113900990D01*
X89027693Y-113900990D02*
X88932455Y-113948609D01*
X88932455Y-113948609D02*
X88599122Y-113948609D01*
X121403884Y-114472419D02*
X121403884Y-113472419D01*
X121403884Y-113472419D02*
X121737217Y-114186704D01*
X121737217Y-114186704D02*
X122070550Y-113472419D01*
X122070550Y-113472419D02*
X122070550Y-114472419D01*
X122499122Y-114424800D02*
X122641979Y-114472419D01*
X122641979Y-114472419D02*
X122880074Y-114472419D01*
X122880074Y-114472419D02*
X122975312Y-114424800D01*
X122975312Y-114424800D02*
X123022931Y-114377180D01*
X123022931Y-114377180D02*
X123070550Y-114281942D01*
X123070550Y-114281942D02*
X123070550Y-114186704D01*
X123070550Y-114186704D02*
X123022931Y-114091466D01*
X123022931Y-114091466D02*
X122975312Y-114043847D01*
X122975312Y-114043847D02*
X122880074Y-113996228D01*
X122880074Y-113996228D02*
X122689598Y-113948609D01*
X122689598Y-113948609D02*
X122594360Y-113900990D01*
X122594360Y-113900990D02*
X122546741Y-113853371D01*
X122546741Y-113853371D02*
X122499122Y-113758133D01*
X122499122Y-113758133D02*
X122499122Y-113662895D01*
X122499122Y-113662895D02*
X122546741Y-113567657D01*
X122546741Y-113567657D02*
X122594360Y-113520038D01*
X122594360Y-113520038D02*
X122689598Y-113472419D01*
X122689598Y-113472419D02*
X122927693Y-113472419D01*
X122927693Y-113472419D02*
X123070550Y-113520038D01*
X123832455Y-113948609D02*
X123975312Y-113996228D01*
X123975312Y-113996228D02*
X124022931Y-114043847D01*
X124022931Y-114043847D02*
X124070550Y-114139085D01*
X124070550Y-114139085D02*
X124070550Y-114281942D01*
X124070550Y-114281942D02*
X124022931Y-114377180D01*
X124022931Y-114377180D02*
X123975312Y-114424800D01*
X123975312Y-114424800D02*
X123880074Y-114472419D01*
X123880074Y-114472419D02*
X123499122Y-114472419D01*
X123499122Y-114472419D02*
X123499122Y-113472419D01*
X123499122Y-113472419D02*
X123832455Y-113472419D01*
X123832455Y-113472419D02*
X123927693Y-113520038D01*
X123927693Y-113520038D02*
X123975312Y-113567657D01*
X123975312Y-113567657D02*
X124022931Y-113662895D01*
X124022931Y-113662895D02*
X124022931Y-113758133D01*
X124022931Y-113758133D02*
X123975312Y-113853371D01*
X123975312Y-113853371D02*
X123927693Y-113900990D01*
X123927693Y-113900990D02*
X123832455Y-113948609D01*
X123832455Y-113948609D02*
X123499122Y-113948609D01*
X200603884Y-88672419D02*
X200603884Y-87672419D01*
X200603884Y-87672419D02*
X200937217Y-88386704D01*
X200937217Y-88386704D02*
X201270550Y-87672419D01*
X201270550Y-87672419D02*
X201270550Y-88672419D01*
X201699122Y-88624800D02*
X201841979Y-88672419D01*
X201841979Y-88672419D02*
X202080074Y-88672419D01*
X202080074Y-88672419D02*
X202175312Y-88624800D01*
X202175312Y-88624800D02*
X202222931Y-88577180D01*
X202222931Y-88577180D02*
X202270550Y-88481942D01*
X202270550Y-88481942D02*
X202270550Y-88386704D01*
X202270550Y-88386704D02*
X202222931Y-88291466D01*
X202222931Y-88291466D02*
X202175312Y-88243847D01*
X202175312Y-88243847D02*
X202080074Y-88196228D01*
X202080074Y-88196228D02*
X201889598Y-88148609D01*
X201889598Y-88148609D02*
X201794360Y-88100990D01*
X201794360Y-88100990D02*
X201746741Y-88053371D01*
X201746741Y-88053371D02*
X201699122Y-87958133D01*
X201699122Y-87958133D02*
X201699122Y-87862895D01*
X201699122Y-87862895D02*
X201746741Y-87767657D01*
X201746741Y-87767657D02*
X201794360Y-87720038D01*
X201794360Y-87720038D02*
X201889598Y-87672419D01*
X201889598Y-87672419D02*
X202127693Y-87672419D01*
X202127693Y-87672419D02*
X202270550Y-87720038D01*
X203032455Y-88148609D02*
X203175312Y-88196228D01*
X203175312Y-88196228D02*
X203222931Y-88243847D01*
X203222931Y-88243847D02*
X203270550Y-88339085D01*
X203270550Y-88339085D02*
X203270550Y-88481942D01*
X203270550Y-88481942D02*
X203222931Y-88577180D01*
X203222931Y-88577180D02*
X203175312Y-88624800D01*
X203175312Y-88624800D02*
X203080074Y-88672419D01*
X203080074Y-88672419D02*
X202699122Y-88672419D01*
X202699122Y-88672419D02*
X202699122Y-87672419D01*
X202699122Y-87672419D02*
X203032455Y-87672419D01*
X203032455Y-87672419D02*
X203127693Y-87720038D01*
X203127693Y-87720038D02*
X203175312Y-87767657D01*
X203175312Y-87767657D02*
X203222931Y-87862895D01*
X203222931Y-87862895D02*
X203222931Y-87958133D01*
X203222931Y-87958133D02*
X203175312Y-88053371D01*
X203175312Y-88053371D02*
X203127693Y-88100990D01*
X203127693Y-88100990D02*
X203032455Y-88148609D01*
X203032455Y-88148609D02*
X202699122Y-88148609D01*
X186017580Y-33803884D02*
X187017580Y-33803884D01*
X187017580Y-33803884D02*
X187017580Y-34041979D01*
X187017580Y-34041979D02*
X186969961Y-34184836D01*
X186969961Y-34184836D02*
X186874723Y-34280074D01*
X186874723Y-34280074D02*
X186779485Y-34327693D01*
X186779485Y-34327693D02*
X186589009Y-34375312D01*
X186589009Y-34375312D02*
X186446152Y-34375312D01*
X186446152Y-34375312D02*
X186255676Y-34327693D01*
X186255676Y-34327693D02*
X186160438Y-34280074D01*
X186160438Y-34280074D02*
X186065200Y-34184836D01*
X186065200Y-34184836D02*
X186017580Y-34041979D01*
X186017580Y-34041979D02*
X186017580Y-33803884D01*
X186398533Y-35565789D02*
X186398533Y-36327694D01*
X186684247Y-36803884D02*
X186398533Y-37565789D01*
X186398533Y-37565789D02*
X186112819Y-36803884D01*
X186303295Y-38756265D02*
X186303295Y-39232455D01*
X186017580Y-38661027D02*
X187017580Y-38994360D01*
X187017580Y-38994360D02*
X186017580Y-39327693D01*
X186017580Y-40137217D02*
X186017580Y-39661027D01*
X186017580Y-39661027D02*
X187017580Y-39661027D01*
X187017580Y-40470551D02*
X186208057Y-40470551D01*
X186208057Y-40470551D02*
X186112819Y-40518170D01*
X186112819Y-40518170D02*
X186065200Y-40565789D01*
X186065200Y-40565789D02*
X186017580Y-40661027D01*
X186017580Y-40661027D02*
X186017580Y-40851503D01*
X186017580Y-40851503D02*
X186065200Y-40946741D01*
X186065200Y-40946741D02*
X186112819Y-40994360D01*
X186112819Y-40994360D02*
X186208057Y-41041979D01*
X186208057Y-41041979D02*
X187017580Y-41041979D01*
X186541390Y-42613408D02*
X186493771Y-42756265D01*
X186493771Y-42756265D02*
X186446152Y-42803884D01*
X186446152Y-42803884D02*
X186350914Y-42851503D01*
X186350914Y-42851503D02*
X186208057Y-42851503D01*
X186208057Y-42851503D02*
X186112819Y-42803884D01*
X186112819Y-42803884D02*
X186065200Y-42756265D01*
X186065200Y-42756265D02*
X186017580Y-42661027D01*
X186017580Y-42661027D02*
X186017580Y-42280075D01*
X186017580Y-42280075D02*
X187017580Y-42280075D01*
X187017580Y-42280075D02*
X187017580Y-42613408D01*
X187017580Y-42613408D02*
X186969961Y-42708646D01*
X186969961Y-42708646D02*
X186922342Y-42756265D01*
X186922342Y-42756265D02*
X186827104Y-42803884D01*
X186827104Y-42803884D02*
X186731866Y-42803884D01*
X186731866Y-42803884D02*
X186636628Y-42756265D01*
X186636628Y-42756265D02*
X186589009Y-42708646D01*
X186589009Y-42708646D02*
X186541390Y-42613408D01*
X186541390Y-42613408D02*
X186541390Y-42280075D01*
X166217580Y-33903884D02*
X167217580Y-33903884D01*
X167217580Y-33903884D02*
X167217580Y-34141979D01*
X167217580Y-34141979D02*
X167169961Y-34284836D01*
X167169961Y-34284836D02*
X167074723Y-34380074D01*
X167074723Y-34380074D02*
X166979485Y-34427693D01*
X166979485Y-34427693D02*
X166789009Y-34475312D01*
X166789009Y-34475312D02*
X166646152Y-34475312D01*
X166646152Y-34475312D02*
X166455676Y-34427693D01*
X166455676Y-34427693D02*
X166360438Y-34380074D01*
X166360438Y-34380074D02*
X166265200Y-34284836D01*
X166265200Y-34284836D02*
X166217580Y-34141979D01*
X166217580Y-34141979D02*
X166217580Y-33903884D01*
X166598533Y-35665789D02*
X166598533Y-36427694D01*
X166884247Y-36903884D02*
X166598533Y-37665789D01*
X166598533Y-37665789D02*
X166312819Y-36903884D01*
X166503295Y-38856265D02*
X166503295Y-39332455D01*
X166217580Y-38761027D02*
X167217580Y-39094360D01*
X167217580Y-39094360D02*
X166217580Y-39427693D01*
X166217580Y-40237217D02*
X166217580Y-39761027D01*
X166217580Y-39761027D02*
X167217580Y-39761027D01*
X167217580Y-40570551D02*
X166408057Y-40570551D01*
X166408057Y-40570551D02*
X166312819Y-40618170D01*
X166312819Y-40618170D02*
X166265200Y-40665789D01*
X166265200Y-40665789D02*
X166217580Y-40761027D01*
X166217580Y-40761027D02*
X166217580Y-40951503D01*
X166217580Y-40951503D02*
X166265200Y-41046741D01*
X166265200Y-41046741D02*
X166312819Y-41094360D01*
X166312819Y-41094360D02*
X166408057Y-41141979D01*
X166408057Y-41141979D02*
X167217580Y-41141979D01*
X166503295Y-42332456D02*
X166503295Y-42808646D01*
X166217580Y-42237218D02*
X167217580Y-42570551D01*
X167217580Y-42570551D02*
X166217580Y-42903884D01*
X154212819Y-34475312D02*
X154165200Y-34427693D01*
X154165200Y-34427693D02*
X154117580Y-34284836D01*
X154117580Y-34284836D02*
X154117580Y-34189598D01*
X154117580Y-34189598D02*
X154165200Y-34046741D01*
X154165200Y-34046741D02*
X154260438Y-33951503D01*
X154260438Y-33951503D02*
X154355676Y-33903884D01*
X154355676Y-33903884D02*
X154546152Y-33856265D01*
X154546152Y-33856265D02*
X154689009Y-33856265D01*
X154689009Y-33856265D02*
X154879485Y-33903884D01*
X154879485Y-33903884D02*
X154974723Y-33951503D01*
X154974723Y-33951503D02*
X155069961Y-34046741D01*
X155069961Y-34046741D02*
X155117580Y-34189598D01*
X155117580Y-34189598D02*
X155117580Y-34284836D01*
X155117580Y-34284836D02*
X155069961Y-34427693D01*
X155069961Y-34427693D02*
X155022342Y-34475312D01*
X154498533Y-35665789D02*
X154498533Y-36427694D01*
X154784247Y-36903884D02*
X154498533Y-37665789D01*
X154498533Y-37665789D02*
X154212819Y-36903884D01*
X154403295Y-38856265D02*
X154403295Y-39332455D01*
X154117580Y-38761027D02*
X155117580Y-39094360D01*
X155117580Y-39094360D02*
X154117580Y-39427693D01*
X154117580Y-40237217D02*
X154117580Y-39761027D01*
X154117580Y-39761027D02*
X155117580Y-39761027D01*
X155117580Y-40570551D02*
X154308057Y-40570551D01*
X154308057Y-40570551D02*
X154212819Y-40618170D01*
X154212819Y-40618170D02*
X154165200Y-40665789D01*
X154165200Y-40665789D02*
X154117580Y-40761027D01*
X154117580Y-40761027D02*
X154117580Y-40951503D01*
X154117580Y-40951503D02*
X154165200Y-41046741D01*
X154165200Y-41046741D02*
X154212819Y-41094360D01*
X154212819Y-41094360D02*
X154308057Y-41141979D01*
X154308057Y-41141979D02*
X155117580Y-41141979D01*
X154641390Y-42713408D02*
X154593771Y-42856265D01*
X154593771Y-42856265D02*
X154546152Y-42903884D01*
X154546152Y-42903884D02*
X154450914Y-42951503D01*
X154450914Y-42951503D02*
X154308057Y-42951503D01*
X154308057Y-42951503D02*
X154212819Y-42903884D01*
X154212819Y-42903884D02*
X154165200Y-42856265D01*
X154165200Y-42856265D02*
X154117580Y-42761027D01*
X154117580Y-42761027D02*
X154117580Y-42380075D01*
X154117580Y-42380075D02*
X155117580Y-42380075D01*
X155117580Y-42380075D02*
X155117580Y-42713408D01*
X155117580Y-42713408D02*
X155069961Y-42808646D01*
X155069961Y-42808646D02*
X155022342Y-42856265D01*
X155022342Y-42856265D02*
X154927104Y-42903884D01*
X154927104Y-42903884D02*
X154831866Y-42903884D01*
X154831866Y-42903884D02*
X154736628Y-42856265D01*
X154736628Y-42856265D02*
X154689009Y-42808646D01*
X154689009Y-42808646D02*
X154641390Y-42713408D01*
X154641390Y-42713408D02*
X154641390Y-42380075D01*
X134312819Y-34475312D02*
X134265200Y-34427693D01*
X134265200Y-34427693D02*
X134217580Y-34284836D01*
X134217580Y-34284836D02*
X134217580Y-34189598D01*
X134217580Y-34189598D02*
X134265200Y-34046741D01*
X134265200Y-34046741D02*
X134360438Y-33951503D01*
X134360438Y-33951503D02*
X134455676Y-33903884D01*
X134455676Y-33903884D02*
X134646152Y-33856265D01*
X134646152Y-33856265D02*
X134789009Y-33856265D01*
X134789009Y-33856265D02*
X134979485Y-33903884D01*
X134979485Y-33903884D02*
X135074723Y-33951503D01*
X135074723Y-33951503D02*
X135169961Y-34046741D01*
X135169961Y-34046741D02*
X135217580Y-34189598D01*
X135217580Y-34189598D02*
X135217580Y-34284836D01*
X135217580Y-34284836D02*
X135169961Y-34427693D01*
X135169961Y-34427693D02*
X135122342Y-34475312D01*
X134598533Y-35665789D02*
X134598533Y-36427694D01*
X134884247Y-36903884D02*
X134598533Y-37665789D01*
X134598533Y-37665789D02*
X134312819Y-36903884D01*
X134503295Y-38856265D02*
X134503295Y-39332455D01*
X134217580Y-38761027D02*
X135217580Y-39094360D01*
X135217580Y-39094360D02*
X134217580Y-39427693D01*
X134217580Y-40237217D02*
X134217580Y-39761027D01*
X134217580Y-39761027D02*
X135217580Y-39761027D01*
X135217580Y-40570551D02*
X134408057Y-40570551D01*
X134408057Y-40570551D02*
X134312819Y-40618170D01*
X134312819Y-40618170D02*
X134265200Y-40665789D01*
X134265200Y-40665789D02*
X134217580Y-40761027D01*
X134217580Y-40761027D02*
X134217580Y-40951503D01*
X134217580Y-40951503D02*
X134265200Y-41046741D01*
X134265200Y-41046741D02*
X134312819Y-41094360D01*
X134312819Y-41094360D02*
X134408057Y-41141979D01*
X134408057Y-41141979D02*
X135217580Y-41141979D01*
X134503295Y-42332456D02*
X134503295Y-42808646D01*
X134217580Y-42237218D02*
X135217580Y-42570551D01*
X135217580Y-42570551D02*
X134217580Y-42903884D01*
X70413295Y-34156265D02*
X70413295Y-34632455D01*
X70127580Y-34061027D02*
X71127580Y-34394360D01*
X71127580Y-34394360D02*
X70127580Y-34727693D01*
X70508533Y-35822932D02*
X70508533Y-36584837D01*
X70794247Y-37061027D02*
X70508533Y-37822932D01*
X70508533Y-37822932D02*
X70222819Y-37061027D01*
X70413295Y-39013408D02*
X70413295Y-39489598D01*
X70127580Y-38918170D02*
X71127580Y-39251503D01*
X71127580Y-39251503D02*
X70127580Y-39584836D01*
X70127580Y-40394360D02*
X70127580Y-39918170D01*
X70127580Y-39918170D02*
X71127580Y-39918170D01*
X71127580Y-40727694D02*
X70318057Y-40727694D01*
X70318057Y-40727694D02*
X70222819Y-40775313D01*
X70222819Y-40775313D02*
X70175200Y-40822932D01*
X70175200Y-40822932D02*
X70127580Y-40918170D01*
X70127580Y-40918170D02*
X70127580Y-41108646D01*
X70127580Y-41108646D02*
X70175200Y-41203884D01*
X70175200Y-41203884D02*
X70222819Y-41251503D01*
X70222819Y-41251503D02*
X70318057Y-41299122D01*
X70318057Y-41299122D02*
X71127580Y-41299122D01*
X70413295Y-42489599D02*
X70413295Y-42965789D01*
X70127580Y-42394361D02*
X71127580Y-42727694D01*
X71127580Y-42727694D02*
X70127580Y-43061027D01*
X207305752Y-44834211D02*
X207591466Y-45596115D01*
X207591466Y-45596115D02*
X207877180Y-44834211D01*
X207972419Y-43596115D02*
X206972419Y-43596115D01*
X206972419Y-43596115D02*
X207686704Y-43262782D01*
X207686704Y-43262782D02*
X206972419Y-42929449D01*
X206972419Y-42929449D02*
X207972419Y-42929449D01*
X207686704Y-42500877D02*
X207686704Y-42024687D01*
X207972419Y-42596115D02*
X206972419Y-42262782D01*
X206972419Y-42262782D02*
X207972419Y-41929449D01*
X207972419Y-41596115D02*
X206972419Y-41596115D01*
X207972419Y-41119925D02*
X206972419Y-41119925D01*
X206972419Y-41119925D02*
X207972419Y-40548497D01*
X207972419Y-40548497D02*
X206972419Y-40548497D01*
X207448609Y-38977068D02*
X207496228Y-38834211D01*
X207496228Y-38834211D02*
X207543847Y-38786592D01*
X207543847Y-38786592D02*
X207639085Y-38738973D01*
X207639085Y-38738973D02*
X207781942Y-38738973D01*
X207781942Y-38738973D02*
X207877180Y-38786592D01*
X207877180Y-38786592D02*
X207924800Y-38834211D01*
X207924800Y-38834211D02*
X207972419Y-38929449D01*
X207972419Y-38929449D02*
X207972419Y-39310401D01*
X207972419Y-39310401D02*
X206972419Y-39310401D01*
X206972419Y-39310401D02*
X206972419Y-38977068D01*
X206972419Y-38977068D02*
X207020038Y-38881830D01*
X207020038Y-38881830D02*
X207067657Y-38834211D01*
X207067657Y-38834211D02*
X207162895Y-38786592D01*
X207162895Y-38786592D02*
X207258133Y-38786592D01*
X207258133Y-38786592D02*
X207353371Y-38834211D01*
X207353371Y-38834211D02*
X207400990Y-38881830D01*
X207400990Y-38881830D02*
X207448609Y-38977068D01*
X207448609Y-38977068D02*
X207448609Y-39310401D01*
X206972419Y-38310401D02*
X207781942Y-38310401D01*
X207781942Y-38310401D02*
X207877180Y-38262782D01*
X207877180Y-38262782D02*
X207924800Y-38215163D01*
X207924800Y-38215163D02*
X207972419Y-38119925D01*
X207972419Y-38119925D02*
X207972419Y-37929449D01*
X207972419Y-37929449D02*
X207924800Y-37834211D01*
X207924800Y-37834211D02*
X207877180Y-37786592D01*
X207877180Y-37786592D02*
X207781942Y-37738973D01*
X207781942Y-37738973D02*
X206972419Y-37738973D01*
X207924800Y-37310401D02*
X207972419Y-37167544D01*
X207972419Y-37167544D02*
X207972419Y-36929449D01*
X207972419Y-36929449D02*
X207924800Y-36834211D01*
X207924800Y-36834211D02*
X207877180Y-36786592D01*
X207877180Y-36786592D02*
X207781942Y-36738973D01*
X207781942Y-36738973D02*
X207686704Y-36738973D01*
X207686704Y-36738973D02*
X207591466Y-36786592D01*
X207591466Y-36786592D02*
X207543847Y-36834211D01*
X207543847Y-36834211D02*
X207496228Y-36929449D01*
X207496228Y-36929449D02*
X207448609Y-37119925D01*
X207448609Y-37119925D02*
X207400990Y-37215163D01*
X207400990Y-37215163D02*
X207353371Y-37262782D01*
X207353371Y-37262782D02*
X207258133Y-37310401D01*
X207258133Y-37310401D02*
X207162895Y-37310401D01*
X207162895Y-37310401D02*
X207067657Y-37262782D01*
X207067657Y-37262782D02*
X207020038Y-37215163D01*
X207020038Y-37215163D02*
X206972419Y-37119925D01*
X206972419Y-37119925D02*
X206972419Y-36881830D01*
X206972419Y-36881830D02*
X207020038Y-36738973D01*
X207305752Y-35548496D02*
X207591466Y-34786592D01*
X207591466Y-34786592D02*
X207877180Y-35548496D01*
X54084247Y-36165789D02*
X53798533Y-35403884D01*
X53798533Y-35403884D02*
X53512819Y-36165789D01*
X53417580Y-37403884D02*
X54417580Y-37403884D01*
X54417580Y-37403884D02*
X53703295Y-37737217D01*
X53703295Y-37737217D02*
X54417580Y-38070550D01*
X54417580Y-38070550D02*
X53417580Y-38070550D01*
X53703295Y-38499122D02*
X53703295Y-38975312D01*
X53417580Y-38403884D02*
X54417580Y-38737217D01*
X54417580Y-38737217D02*
X53417580Y-39070550D01*
X53417580Y-39403884D02*
X54417580Y-39403884D01*
X53417580Y-39880074D02*
X54417580Y-39880074D01*
X54417580Y-39880074D02*
X53417580Y-40451502D01*
X53417580Y-40451502D02*
X54417580Y-40451502D01*
X53941390Y-42022931D02*
X53893771Y-42165788D01*
X53893771Y-42165788D02*
X53846152Y-42213407D01*
X53846152Y-42213407D02*
X53750914Y-42261026D01*
X53750914Y-42261026D02*
X53608057Y-42261026D01*
X53608057Y-42261026D02*
X53512819Y-42213407D01*
X53512819Y-42213407D02*
X53465200Y-42165788D01*
X53465200Y-42165788D02*
X53417580Y-42070550D01*
X53417580Y-42070550D02*
X53417580Y-41689598D01*
X53417580Y-41689598D02*
X54417580Y-41689598D01*
X54417580Y-41689598D02*
X54417580Y-42022931D01*
X54417580Y-42022931D02*
X54369961Y-42118169D01*
X54369961Y-42118169D02*
X54322342Y-42165788D01*
X54322342Y-42165788D02*
X54227104Y-42213407D01*
X54227104Y-42213407D02*
X54131866Y-42213407D01*
X54131866Y-42213407D02*
X54036628Y-42165788D01*
X54036628Y-42165788D02*
X53989009Y-42118169D01*
X53989009Y-42118169D02*
X53941390Y-42022931D01*
X53941390Y-42022931D02*
X53941390Y-41689598D01*
X54417580Y-42689598D02*
X53608057Y-42689598D01*
X53608057Y-42689598D02*
X53512819Y-42737217D01*
X53512819Y-42737217D02*
X53465200Y-42784836D01*
X53465200Y-42784836D02*
X53417580Y-42880074D01*
X53417580Y-42880074D02*
X53417580Y-43070550D01*
X53417580Y-43070550D02*
X53465200Y-43165788D01*
X53465200Y-43165788D02*
X53512819Y-43213407D01*
X53512819Y-43213407D02*
X53608057Y-43261026D01*
X53608057Y-43261026D02*
X54417580Y-43261026D01*
X53465200Y-43689598D02*
X53417580Y-43832455D01*
X53417580Y-43832455D02*
X53417580Y-44070550D01*
X53417580Y-44070550D02*
X53465200Y-44165788D01*
X53465200Y-44165788D02*
X53512819Y-44213407D01*
X53512819Y-44213407D02*
X53608057Y-44261026D01*
X53608057Y-44261026D02*
X53703295Y-44261026D01*
X53703295Y-44261026D02*
X53798533Y-44213407D01*
X53798533Y-44213407D02*
X53846152Y-44165788D01*
X53846152Y-44165788D02*
X53893771Y-44070550D01*
X53893771Y-44070550D02*
X53941390Y-43880074D01*
X53941390Y-43880074D02*
X53989009Y-43784836D01*
X53989009Y-43784836D02*
X54036628Y-43737217D01*
X54036628Y-43737217D02*
X54131866Y-43689598D01*
X54131866Y-43689598D02*
X54227104Y-43689598D01*
X54227104Y-43689598D02*
X54322342Y-43737217D01*
X54322342Y-43737217D02*
X54369961Y-43784836D01*
X54369961Y-43784836D02*
X54417580Y-43880074D01*
X54417580Y-43880074D02*
X54417580Y-44118169D01*
X54417580Y-44118169D02*
X54369961Y-44261026D01*
X54084247Y-45451503D02*
X53798533Y-46213408D01*
X53798533Y-46213408D02*
X53512819Y-45451503D01*
X126596115Y-21408533D02*
X125834211Y-21408533D01*
X123491466Y-21796115D02*
X123491466Y-21034211D01*
X123872419Y-21415163D02*
X123110514Y-21415163D01*
X54193884Y-105491466D02*
X54955789Y-105491466D01*
X54193884Y-102891466D02*
X54955789Y-102891466D01*
X54574836Y-103272419D02*
X54574836Y-102510514D01*
X53690000Y-87600000D02*
X53690000Y-98900000D01*
X53690000Y-74400000D02*
X53690000Y-85600000D01*
X53690000Y-61200000D02*
X53690000Y-72400000D01*
X52303295Y-90856265D02*
X52303295Y-91332455D01*
X52017580Y-90761027D02*
X53017580Y-91094360D01*
X53017580Y-91094360D02*
X52017580Y-91427693D01*
X52017580Y-92237217D02*
X52017580Y-91761027D01*
X52017580Y-91761027D02*
X53017580Y-91761027D01*
X53017580Y-92570551D02*
X52208057Y-92570551D01*
X52208057Y-92570551D02*
X52112819Y-92618170D01*
X52112819Y-92618170D02*
X52065200Y-92665789D01*
X52065200Y-92665789D02*
X52017580Y-92761027D01*
X52017580Y-92761027D02*
X52017580Y-92951503D01*
X52017580Y-92951503D02*
X52065200Y-93046741D01*
X52065200Y-93046741D02*
X52112819Y-93094360D01*
X52112819Y-93094360D02*
X52208057Y-93141979D01*
X52208057Y-93141979D02*
X53017580Y-93141979D01*
X52398533Y-94380075D02*
X52398533Y-95141980D01*
X52541390Y-96713408D02*
X52493771Y-96856265D01*
X52493771Y-96856265D02*
X52446152Y-96903884D01*
X52446152Y-96903884D02*
X52350914Y-96951503D01*
X52350914Y-96951503D02*
X52208057Y-96951503D01*
X52208057Y-96951503D02*
X52112819Y-96903884D01*
X52112819Y-96903884D02*
X52065200Y-96856265D01*
X52065200Y-96856265D02*
X52017580Y-96761027D01*
X52017580Y-96761027D02*
X52017580Y-96380075D01*
X52017580Y-96380075D02*
X53017580Y-96380075D01*
X53017580Y-96380075D02*
X53017580Y-96713408D01*
X53017580Y-96713408D02*
X52969961Y-96808646D01*
X52969961Y-96808646D02*
X52922342Y-96856265D01*
X52922342Y-96856265D02*
X52827104Y-96903884D01*
X52827104Y-96903884D02*
X52731866Y-96903884D01*
X52731866Y-96903884D02*
X52636628Y-96856265D01*
X52636628Y-96856265D02*
X52589009Y-96808646D01*
X52589009Y-96808646D02*
X52541390Y-96713408D01*
X52541390Y-96713408D02*
X52541390Y-96380075D01*
X52303295Y-77726265D02*
X52303295Y-78202455D01*
X52017580Y-77631027D02*
X53017580Y-77964360D01*
X53017580Y-77964360D02*
X52017580Y-78297693D01*
X52017580Y-79107217D02*
X52017580Y-78631027D01*
X52017580Y-78631027D02*
X53017580Y-78631027D01*
X53017580Y-79440551D02*
X52208057Y-79440551D01*
X52208057Y-79440551D02*
X52112819Y-79488170D01*
X52112819Y-79488170D02*
X52065200Y-79535789D01*
X52065200Y-79535789D02*
X52017580Y-79631027D01*
X52017580Y-79631027D02*
X52017580Y-79821503D01*
X52017580Y-79821503D02*
X52065200Y-79916741D01*
X52065200Y-79916741D02*
X52112819Y-79964360D01*
X52112819Y-79964360D02*
X52208057Y-80011979D01*
X52208057Y-80011979D02*
X53017580Y-80011979D01*
X52398533Y-81250075D02*
X52398533Y-82011980D01*
X52303295Y-83202456D02*
X52303295Y-83678646D01*
X52017580Y-83107218D02*
X53017580Y-83440551D01*
X53017580Y-83440551D02*
X52017580Y-83773884D01*
X54927217Y-91748609D02*
X55070074Y-91796228D01*
X55070074Y-91796228D02*
X55117693Y-91843847D01*
X55117693Y-91843847D02*
X55165312Y-91939085D01*
X55165312Y-91939085D02*
X55165312Y-92081942D01*
X55165312Y-92081942D02*
X55117693Y-92177180D01*
X55117693Y-92177180D02*
X55070074Y-92224800D01*
X55070074Y-92224800D02*
X54974836Y-92272419D01*
X54974836Y-92272419D02*
X54593884Y-92272419D01*
X54593884Y-92272419D02*
X54593884Y-91272419D01*
X54593884Y-91272419D02*
X54927217Y-91272419D01*
X54927217Y-91272419D02*
X55022455Y-91320038D01*
X55022455Y-91320038D02*
X55070074Y-91367657D01*
X55070074Y-91367657D02*
X55117693Y-91462895D01*
X55117693Y-91462895D02*
X55117693Y-91558133D01*
X55117693Y-91558133D02*
X55070074Y-91653371D01*
X55070074Y-91653371D02*
X55022455Y-91700990D01*
X55022455Y-91700990D02*
X54927217Y-91748609D01*
X54927217Y-91748609D02*
X54593884Y-91748609D01*
X55165312Y-94577180D02*
X55117693Y-94624800D01*
X55117693Y-94624800D02*
X54974836Y-94672419D01*
X54974836Y-94672419D02*
X54879598Y-94672419D01*
X54879598Y-94672419D02*
X54736741Y-94624800D01*
X54736741Y-94624800D02*
X54641503Y-94529561D01*
X54641503Y-94529561D02*
X54593884Y-94434323D01*
X54593884Y-94434323D02*
X54546265Y-94243847D01*
X54546265Y-94243847D02*
X54546265Y-94100990D01*
X54546265Y-94100990D02*
X54593884Y-93910514D01*
X54593884Y-93910514D02*
X54641503Y-93815276D01*
X54641503Y-93815276D02*
X54736741Y-93720038D01*
X54736741Y-93720038D02*
X54879598Y-93672419D01*
X54879598Y-93672419D02*
X54974836Y-93672419D01*
X54974836Y-93672419D02*
X55117693Y-93720038D01*
X55117693Y-93720038D02*
X55165312Y-93767657D01*
X54546265Y-89386704D02*
X55022455Y-89386704D01*
X54451027Y-89672419D02*
X54784360Y-88672419D01*
X54784360Y-88672419D02*
X55117693Y-89672419D01*
X54593884Y-97272419D02*
X54593884Y-96272419D01*
X54593884Y-96272419D02*
X54831979Y-96272419D01*
X54831979Y-96272419D02*
X54974836Y-96320038D01*
X54974836Y-96320038D02*
X55070074Y-96415276D01*
X55070074Y-96415276D02*
X55117693Y-96510514D01*
X55117693Y-96510514D02*
X55165312Y-96700990D01*
X55165312Y-96700990D02*
X55165312Y-96843847D01*
X55165312Y-96843847D02*
X55117693Y-97034323D01*
X55117693Y-97034323D02*
X55070074Y-97129561D01*
X55070074Y-97129561D02*
X54974836Y-97224800D01*
X54974836Y-97224800D02*
X54831979Y-97272419D01*
X54831979Y-97272419D02*
X54593884Y-97272419D01*
X54927217Y-78548609D02*
X55070074Y-78596228D01*
X55070074Y-78596228D02*
X55117693Y-78643847D01*
X55117693Y-78643847D02*
X55165312Y-78739085D01*
X55165312Y-78739085D02*
X55165312Y-78881942D01*
X55165312Y-78881942D02*
X55117693Y-78977180D01*
X55117693Y-78977180D02*
X55070074Y-79024800D01*
X55070074Y-79024800D02*
X54974836Y-79072419D01*
X54974836Y-79072419D02*
X54593884Y-79072419D01*
X54593884Y-79072419D02*
X54593884Y-78072419D01*
X54593884Y-78072419D02*
X54927217Y-78072419D01*
X54927217Y-78072419D02*
X55022455Y-78120038D01*
X55022455Y-78120038D02*
X55070074Y-78167657D01*
X55070074Y-78167657D02*
X55117693Y-78262895D01*
X55117693Y-78262895D02*
X55117693Y-78358133D01*
X55117693Y-78358133D02*
X55070074Y-78453371D01*
X55070074Y-78453371D02*
X55022455Y-78500990D01*
X55022455Y-78500990D02*
X54927217Y-78548609D01*
X54927217Y-78548609D02*
X54593884Y-78548609D01*
X55165312Y-81377180D02*
X55117693Y-81424800D01*
X55117693Y-81424800D02*
X54974836Y-81472419D01*
X54974836Y-81472419D02*
X54879598Y-81472419D01*
X54879598Y-81472419D02*
X54736741Y-81424800D01*
X54736741Y-81424800D02*
X54641503Y-81329561D01*
X54641503Y-81329561D02*
X54593884Y-81234323D01*
X54593884Y-81234323D02*
X54546265Y-81043847D01*
X54546265Y-81043847D02*
X54546265Y-80900990D01*
X54546265Y-80900990D02*
X54593884Y-80710514D01*
X54593884Y-80710514D02*
X54641503Y-80615276D01*
X54641503Y-80615276D02*
X54736741Y-80520038D01*
X54736741Y-80520038D02*
X54879598Y-80472419D01*
X54879598Y-80472419D02*
X54974836Y-80472419D01*
X54974836Y-80472419D02*
X55117693Y-80520038D01*
X55117693Y-80520038D02*
X55165312Y-80567657D01*
X54546265Y-76186704D02*
X55022455Y-76186704D01*
X54451027Y-76472419D02*
X54784360Y-75472419D01*
X54784360Y-75472419D02*
X55117693Y-76472419D01*
X54593884Y-84072419D02*
X54593884Y-83072419D01*
X54593884Y-83072419D02*
X54831979Y-83072419D01*
X54831979Y-83072419D02*
X54974836Y-83120038D01*
X54974836Y-83120038D02*
X55070074Y-83215276D01*
X55070074Y-83215276D02*
X55117693Y-83310514D01*
X55117693Y-83310514D02*
X55165312Y-83500990D01*
X55165312Y-83500990D02*
X55165312Y-83643847D01*
X55165312Y-83643847D02*
X55117693Y-83834323D01*
X55117693Y-83834323D02*
X55070074Y-83929561D01*
X55070074Y-83929561D02*
X54974836Y-84024800D01*
X54974836Y-84024800D02*
X54831979Y-84072419D01*
X54831979Y-84072419D02*
X54593884Y-84072419D01*
X54593884Y-70972419D02*
X54593884Y-69972419D01*
X54593884Y-69972419D02*
X54831979Y-69972419D01*
X54831979Y-69972419D02*
X54974836Y-70020038D01*
X54974836Y-70020038D02*
X55070074Y-70115276D01*
X55070074Y-70115276D02*
X55117693Y-70210514D01*
X55117693Y-70210514D02*
X55165312Y-70400990D01*
X55165312Y-70400990D02*
X55165312Y-70543847D01*
X55165312Y-70543847D02*
X55117693Y-70734323D01*
X55117693Y-70734323D02*
X55070074Y-70829561D01*
X55070074Y-70829561D02*
X54974836Y-70924800D01*
X54974836Y-70924800D02*
X54831979Y-70972419D01*
X54831979Y-70972419D02*
X54593884Y-70972419D01*
X55165312Y-68277180D02*
X55117693Y-68324800D01*
X55117693Y-68324800D02*
X54974836Y-68372419D01*
X54974836Y-68372419D02*
X54879598Y-68372419D01*
X54879598Y-68372419D02*
X54736741Y-68324800D01*
X54736741Y-68324800D02*
X54641503Y-68229561D01*
X54641503Y-68229561D02*
X54593884Y-68134323D01*
X54593884Y-68134323D02*
X54546265Y-67943847D01*
X54546265Y-67943847D02*
X54546265Y-67800990D01*
X54546265Y-67800990D02*
X54593884Y-67610514D01*
X54593884Y-67610514D02*
X54641503Y-67515276D01*
X54641503Y-67515276D02*
X54736741Y-67420038D01*
X54736741Y-67420038D02*
X54879598Y-67372419D01*
X54879598Y-67372419D02*
X54974836Y-67372419D01*
X54974836Y-67372419D02*
X55117693Y-67420038D01*
X55117693Y-67420038D02*
X55165312Y-67467657D01*
X54927217Y-65448609D02*
X55070074Y-65496228D01*
X55070074Y-65496228D02*
X55117693Y-65543847D01*
X55117693Y-65543847D02*
X55165312Y-65639085D01*
X55165312Y-65639085D02*
X55165312Y-65781942D01*
X55165312Y-65781942D02*
X55117693Y-65877180D01*
X55117693Y-65877180D02*
X55070074Y-65924800D01*
X55070074Y-65924800D02*
X54974836Y-65972419D01*
X54974836Y-65972419D02*
X54593884Y-65972419D01*
X54593884Y-65972419D02*
X54593884Y-64972419D01*
X54593884Y-64972419D02*
X54927217Y-64972419D01*
X54927217Y-64972419D02*
X55022455Y-65020038D01*
X55022455Y-65020038D02*
X55070074Y-65067657D01*
X55070074Y-65067657D02*
X55117693Y-65162895D01*
X55117693Y-65162895D02*
X55117693Y-65258133D01*
X55117693Y-65258133D02*
X55070074Y-65353371D01*
X55070074Y-65353371D02*
X55022455Y-65400990D01*
X55022455Y-65400990D02*
X54927217Y-65448609D01*
X54927217Y-65448609D02*
X54593884Y-65448609D01*
X54546265Y-63086704D02*
X55022455Y-63086704D01*
X54451027Y-63372419D02*
X54784360Y-62372419D01*
X54784360Y-62372419D02*
X55117693Y-63372419D01*
X52017580Y-65975312D02*
X52493771Y-65641979D01*
X52017580Y-65403884D02*
X53017580Y-65403884D01*
X53017580Y-65403884D02*
X53017580Y-65784836D01*
X53017580Y-65784836D02*
X52969961Y-65880074D01*
X52969961Y-65880074D02*
X52922342Y-65927693D01*
X52922342Y-65927693D02*
X52827104Y-65975312D01*
X52827104Y-65975312D02*
X52684247Y-65975312D01*
X52684247Y-65975312D02*
X52589009Y-65927693D01*
X52589009Y-65927693D02*
X52541390Y-65880074D01*
X52541390Y-65880074D02*
X52493771Y-65784836D01*
X52493771Y-65784836D02*
X52493771Y-65403884D01*
X52065200Y-66784836D02*
X52017580Y-66689598D01*
X52017580Y-66689598D02*
X52017580Y-66499122D01*
X52017580Y-66499122D02*
X52065200Y-66403884D01*
X52065200Y-66403884D02*
X52160438Y-66356265D01*
X52160438Y-66356265D02*
X52541390Y-66356265D01*
X52541390Y-66356265D02*
X52636628Y-66403884D01*
X52636628Y-66403884D02*
X52684247Y-66499122D01*
X52684247Y-66499122D02*
X52684247Y-66689598D01*
X52684247Y-66689598D02*
X52636628Y-66784836D01*
X52636628Y-66784836D02*
X52541390Y-66832455D01*
X52541390Y-66832455D02*
X52446152Y-66832455D01*
X52446152Y-66832455D02*
X52350914Y-66356265D01*
X52017580Y-67689598D02*
X52541390Y-67689598D01*
X52541390Y-67689598D02*
X52636628Y-67641979D01*
X52636628Y-67641979D02*
X52684247Y-67546741D01*
X52684247Y-67546741D02*
X52684247Y-67356265D01*
X52684247Y-67356265D02*
X52636628Y-67261027D01*
X52065200Y-67689598D02*
X52017580Y-67594360D01*
X52017580Y-67594360D02*
X52017580Y-67356265D01*
X52017580Y-67356265D02*
X52065200Y-67261027D01*
X52065200Y-67261027D02*
X52160438Y-67213408D01*
X52160438Y-67213408D02*
X52255676Y-67213408D01*
X52255676Y-67213408D02*
X52350914Y-67261027D01*
X52350914Y-67261027D02*
X52398533Y-67356265D01*
X52398533Y-67356265D02*
X52398533Y-67594360D01*
X52398533Y-67594360D02*
X52446152Y-67689598D01*
X52017580Y-68594360D02*
X53017580Y-68594360D01*
X52065200Y-68594360D02*
X52017580Y-68499122D01*
X52017580Y-68499122D02*
X52017580Y-68308646D01*
X52017580Y-68308646D02*
X52065200Y-68213408D01*
X52065200Y-68213408D02*
X52112819Y-68165789D01*
X52112819Y-68165789D02*
X52208057Y-68118170D01*
X52208057Y-68118170D02*
X52493771Y-68118170D01*
X52493771Y-68118170D02*
X52589009Y-68165789D01*
X52589009Y-68165789D02*
X52636628Y-68213408D01*
X52636628Y-68213408D02*
X52684247Y-68308646D01*
X52684247Y-68308646D02*
X52684247Y-68499122D01*
X52684247Y-68499122D02*
X52636628Y-68594360D01*
X132616384Y-114278966D02*
X133378289Y-114278966D01*
X132616384Y-111678966D02*
X133378289Y-111678966D01*
X132997336Y-112059919D02*
X132997336Y-111298014D01*
X167603884Y-113372419D02*
X167603884Y-112372419D01*
X167603884Y-112372419D02*
X167984836Y-112372419D01*
X167984836Y-112372419D02*
X168080074Y-112420038D01*
X168080074Y-112420038D02*
X168127693Y-112467657D01*
X168127693Y-112467657D02*
X168175312Y-112562895D01*
X168175312Y-112562895D02*
X168175312Y-112705752D01*
X168175312Y-112705752D02*
X168127693Y-112800990D01*
X168127693Y-112800990D02*
X168080074Y-112848609D01*
X168080074Y-112848609D02*
X167984836Y-112896228D01*
X167984836Y-112896228D02*
X167603884Y-112896228D01*
X168508646Y-112372419D02*
X168746741Y-113372419D01*
X168746741Y-113372419D02*
X168937217Y-112658133D01*
X168937217Y-112658133D02*
X169127693Y-113372419D01*
X169127693Y-113372419D02*
X169365789Y-112372419D01*
X170318169Y-113372419D02*
X169984836Y-112896228D01*
X169746741Y-113372419D02*
X169746741Y-112372419D01*
X169746741Y-112372419D02*
X170127693Y-112372419D01*
X170127693Y-112372419D02*
X170222931Y-112420038D01*
X170222931Y-112420038D02*
X170270550Y-112467657D01*
X170270550Y-112467657D02*
X170318169Y-112562895D01*
X170318169Y-112562895D02*
X170318169Y-112705752D01*
X170318169Y-112705752D02*
X170270550Y-112800990D01*
X170270550Y-112800990D02*
X170222931Y-112848609D01*
X170222931Y-112848609D02*
X170127693Y-112896228D01*
X170127693Y-112896228D02*
X169746741Y-112896228D01*
D12*
%TO.C,G\u002A\u002A\u002A*%
G36*
X194405307Y-101273536D02*
G01*
X194998258Y-101280347D01*
X195505589Y-101290934D01*
X195905344Y-101304670D01*
X196175568Y-101320931D01*
X196294305Y-101339089D01*
X196297769Y-101343799D01*
X196242420Y-101447340D01*
X196106184Y-101689153D01*
X195897115Y-102055388D01*
X195623273Y-102532194D01*
X195292711Y-103105719D01*
X194913488Y-103762113D01*
X194493659Y-104487526D01*
X194041282Y-105268105D01*
X193564411Y-106090000D01*
X193071105Y-106939360D01*
X192569419Y-107802335D01*
X192067410Y-108665072D01*
X191573133Y-109513723D01*
X191094647Y-110334435D01*
X190640007Y-111113357D01*
X190217269Y-111836639D01*
X189834491Y-112490430D01*
X189499728Y-113060879D01*
X189221036Y-113534135D01*
X189006474Y-113896347D01*
X188864096Y-114133664D01*
X188801959Y-114232235D01*
X188799999Y-114234206D01*
X188745430Y-114159673D01*
X188613945Y-113949762D01*
X188417429Y-113624368D01*
X188167770Y-113203386D01*
X187876851Y-112706712D01*
X187556558Y-112154240D01*
X187532377Y-112112312D01*
X187209768Y-111550782D01*
X186916928Y-111037301D01*
X186665733Y-110592995D01*
X186468058Y-110238993D01*
X186335779Y-109996421D01*
X186280771Y-109886406D01*
X186280264Y-109884772D01*
X186318362Y-109789481D01*
X186438513Y-109554069D01*
X186632684Y-109192945D01*
X186892844Y-108720522D01*
X187210960Y-108151210D01*
X187579000Y-107499419D01*
X187988932Y-106779560D01*
X188432723Y-106006045D01*
X188710428Y-105524737D01*
X191169801Y-101271126D01*
X193748691Y-101271126D01*
X194405307Y-101273536D01*
G37*
G36*
X183210211Y-101271956D02*
G01*
X184328168Y-103206330D01*
X184636675Y-103742837D01*
X184914838Y-104231747D01*
X185150149Y-104650653D01*
X185330101Y-104977149D01*
X185442184Y-105188827D01*
X185474395Y-105259593D01*
X185443292Y-105380217D01*
X185339837Y-105612897D01*
X185185295Y-105917268D01*
X185000929Y-106252965D01*
X184808005Y-106579623D01*
X184649590Y-106825279D01*
X184609275Y-106839559D01*
X184540741Y-106789375D01*
X184435862Y-106662196D01*
X184286514Y-106445489D01*
X184084571Y-106126722D01*
X183821907Y-105693364D01*
X183490398Y-105132882D01*
X183081917Y-104432745D01*
X182941901Y-104191444D01*
X182570178Y-103549662D01*
X182227118Y-102956320D01*
X181923012Y-102429299D01*
X181668154Y-101986479D01*
X181472833Y-101645740D01*
X181347341Y-101424962D01*
X181302230Y-101342749D01*
X181373020Y-101313892D01*
X181587765Y-101290676D01*
X181911570Y-101275745D01*
X182241314Y-101271541D01*
X183210211Y-101271956D01*
G37*
D13*
%TO.C,Q156*%
X200540000Y-72250000D02*
X200060000Y-72250000D01*
X200300000Y-71920000D01*
X200540000Y-72250000D01*
G36*
X200540000Y-72250000D02*
G01*
X200060000Y-72250000D01*
X200300000Y-71920000D01*
X200540000Y-72250000D01*
G37*
X202360000Y-73860000D02*
X200840000Y-73860000D01*
X202360000Y-72860000D02*
X202360000Y-73860000D01*
X202360000Y-70740000D02*
X202360000Y-71740000D01*
X200840000Y-73860000D02*
X200840000Y-73810000D01*
X200840000Y-72690000D02*
X200840000Y-71910000D01*
X200840000Y-70790000D02*
X200840000Y-70740000D01*
X200840000Y-70740000D02*
X202360000Y-70740000D01*
%TO.C,Q158*%
X200540000Y-64250000D02*
X200060000Y-64250000D01*
X200300000Y-63920000D01*
X200540000Y-64250000D01*
G36*
X200540000Y-64250000D02*
G01*
X200060000Y-64250000D01*
X200300000Y-63920000D01*
X200540000Y-64250000D01*
G37*
X202360000Y-65860000D02*
X200840000Y-65860000D01*
X202360000Y-64860000D02*
X202360000Y-65860000D01*
X202360000Y-62740000D02*
X202360000Y-63740000D01*
X200840000Y-65860000D02*
X200840000Y-65810000D01*
X200840000Y-64690000D02*
X200840000Y-63910000D01*
X200840000Y-62790000D02*
X200840000Y-62740000D01*
X200840000Y-62740000D02*
X202360000Y-62740000D01*
%TO.C,Q159*%
X200540000Y-60250000D02*
X200060000Y-60250000D01*
X200300000Y-59920000D01*
X200540000Y-60250000D01*
G36*
X200540000Y-60250000D02*
G01*
X200060000Y-60250000D01*
X200300000Y-59920000D01*
X200540000Y-60250000D01*
G37*
X202360000Y-61860000D02*
X200840000Y-61860000D01*
X202360000Y-60860000D02*
X202360000Y-61860000D01*
X202360000Y-58740000D02*
X202360000Y-59740000D01*
X200840000Y-61860000D02*
X200840000Y-61810000D01*
X200840000Y-60690000D02*
X200840000Y-59910000D01*
X200840000Y-58790000D02*
X200840000Y-58740000D01*
X200840000Y-58740000D02*
X202360000Y-58740000D01*
%TO.C,Q160*%
X200840000Y-54740000D02*
X202360000Y-54740000D01*
X200840000Y-54790000D02*
X200840000Y-54740000D01*
X200840000Y-56690000D02*
X200840000Y-55910000D01*
X200840000Y-57860000D02*
X200840000Y-57810000D01*
X202360000Y-54740000D02*
X202360000Y-55740000D01*
X202360000Y-56860000D02*
X202360000Y-57860000D01*
X202360000Y-57860000D02*
X200840000Y-57860000D01*
X200540000Y-56250000D02*
X200060000Y-56250000D01*
X200300000Y-55920000D01*
X200540000Y-56250000D01*
G36*
X200540000Y-56250000D02*
G01*
X200060000Y-56250000D01*
X200300000Y-55920000D01*
X200540000Y-56250000D01*
G37*
%TO.C,Q157*%
X200840000Y-66740000D02*
X202360000Y-66740000D01*
X200840000Y-66790000D02*
X200840000Y-66740000D01*
X200840000Y-68690000D02*
X200840000Y-67910000D01*
X200840000Y-69860000D02*
X200840000Y-69810000D01*
X202360000Y-66740000D02*
X202360000Y-67740000D01*
X202360000Y-68860000D02*
X202360000Y-69860000D01*
X202360000Y-69860000D02*
X200840000Y-69860000D01*
X200540000Y-68250000D02*
X200060000Y-68250000D01*
X200300000Y-67920000D01*
X200540000Y-68250000D01*
G36*
X200540000Y-68250000D02*
G01*
X200060000Y-68250000D01*
X200300000Y-67920000D01*
X200540000Y-68250000D01*
G37*
%TO.C,Q155*%
X200840000Y-74740000D02*
X202360000Y-74740000D01*
X200840000Y-74790000D02*
X200840000Y-74740000D01*
X200840000Y-76690000D02*
X200840000Y-75910000D01*
X200840000Y-77860000D02*
X200840000Y-77810000D01*
X202360000Y-74740000D02*
X202360000Y-75740000D01*
X202360000Y-76860000D02*
X202360000Y-77860000D01*
X202360000Y-77860000D02*
X200840000Y-77860000D01*
X200540000Y-76250000D02*
X200060000Y-76250000D01*
X200300000Y-75920000D01*
X200540000Y-76250000D01*
G36*
X200540000Y-76250000D02*
G01*
X200060000Y-76250000D01*
X200300000Y-75920000D01*
X200540000Y-76250000D01*
G37*
%TO.C,Q154*%
X200840000Y-82740000D02*
X202360000Y-82740000D01*
X200840000Y-82790000D02*
X200840000Y-82740000D01*
X200840000Y-84690000D02*
X200840000Y-83910000D01*
X200840000Y-85860000D02*
X200840000Y-85810000D01*
X202360000Y-82740000D02*
X202360000Y-83740000D01*
X202360000Y-84860000D02*
X202360000Y-85860000D01*
X202360000Y-85860000D02*
X200840000Y-85860000D01*
X200540000Y-84250000D02*
X200060000Y-84250000D01*
X200300000Y-83920000D01*
X200540000Y-84250000D01*
G36*
X200540000Y-84250000D02*
G01*
X200060000Y-84250000D01*
X200300000Y-83920000D01*
X200540000Y-84250000D01*
G37*
%TO.C,Q153*%
X200840000Y-78740000D02*
X202360000Y-78740000D01*
X200840000Y-78790000D02*
X200840000Y-78740000D01*
X200840000Y-80690000D02*
X200840000Y-79910000D01*
X200840000Y-81860000D02*
X200840000Y-81810000D01*
X202360000Y-78740000D02*
X202360000Y-79740000D01*
X202360000Y-80860000D02*
X202360000Y-81860000D01*
X202360000Y-81860000D02*
X200840000Y-81860000D01*
X200540000Y-80250000D02*
X200060000Y-80250000D01*
X200300000Y-79920000D01*
X200540000Y-80250000D01*
G36*
X200540000Y-80250000D02*
G01*
X200060000Y-80250000D01*
X200300000Y-79920000D01*
X200540000Y-80250000D01*
G37*
D14*
%TO.C,D16*%
X204050000Y-56570000D02*
X204050000Y-58030000D01*
X204050000Y-58030000D02*
X206340000Y-58030000D01*
X206340000Y-56570000D02*
X204050000Y-56570000D01*
%TO.C,D15*%
X204010000Y-60570000D02*
X204010000Y-62030000D01*
X204010000Y-62030000D02*
X206300000Y-62030000D01*
X206300000Y-60570000D02*
X204010000Y-60570000D01*
%TO.C,D14*%
X204010000Y-64570000D02*
X204010000Y-66030000D01*
X204010000Y-66030000D02*
X206300000Y-66030000D01*
X206300000Y-64570000D02*
X204010000Y-64570000D01*
%TO.C,D13*%
X204010000Y-68570000D02*
X204010000Y-70030000D01*
X204010000Y-70030000D02*
X206300000Y-70030000D01*
X206300000Y-68570000D02*
X204010000Y-68570000D01*
%TO.C,D12*%
X204010000Y-72570000D02*
X204010000Y-74030000D01*
X204010000Y-74030000D02*
X206300000Y-74030000D01*
X206300000Y-72570000D02*
X204010000Y-72570000D01*
%TO.C,D11*%
X204072500Y-76570000D02*
X204072500Y-78030000D01*
X204072500Y-78030000D02*
X206362500Y-78030000D01*
X206362500Y-76570000D02*
X204072500Y-76570000D01*
%TO.C,D10*%
X204010000Y-84570000D02*
X204010000Y-86030000D01*
X204010000Y-86030000D02*
X206300000Y-86030000D01*
X206300000Y-84570000D02*
X204010000Y-84570000D01*
%TO.C,D9*%
X204010000Y-80570000D02*
X204010000Y-82030000D01*
X204010000Y-82030000D02*
X206300000Y-82030000D01*
X206300000Y-80570000D02*
X204010000Y-80570000D01*
D13*
%TO.C,J12*%
X58570000Y-32390000D02*
X58570000Y-50280000D01*
X55810000Y-50280000D02*
X58570000Y-50280000D01*
X55810000Y-32390000D02*
X58570000Y-32390000D01*
X55810000Y-32390000D02*
X55810000Y-50280000D01*
X55810000Y-31120000D02*
X55810000Y-29740000D01*
X55810000Y-29740000D02*
X57190000Y-29740000D01*
%TO.C,J9*%
X205580000Y-32370000D02*
X205580000Y-50260000D01*
X202820000Y-50260000D02*
X205580000Y-50260000D01*
X202820000Y-32370000D02*
X205580000Y-32370000D01*
X202820000Y-32370000D02*
X202820000Y-50260000D01*
X202820000Y-31100000D02*
X202820000Y-29720000D01*
X202820000Y-29720000D02*
X204200000Y-29720000D01*
%TO.C,J7*%
X58570000Y-77470000D02*
X58570000Y-85200000D01*
X55810000Y-85200000D02*
X58570000Y-85200000D01*
X55810000Y-77470000D02*
X58570000Y-77470000D01*
X55810000Y-77470000D02*
X55810000Y-85200000D01*
X55810000Y-76200000D02*
X55810000Y-74820000D01*
X55810000Y-74820000D02*
X57190000Y-74820000D01*
%TO.C,J13*%
X124870000Y-22420000D02*
X127520000Y-22420000D01*
X127520000Y-25180000D02*
X127520000Y-22420000D01*
X124870000Y-25180000D02*
X124870000Y-22420000D01*
X124870000Y-25180000D02*
X127520000Y-25180000D01*
X123600000Y-25180000D02*
X122220000Y-25180000D01*
X122220000Y-25180000D02*
X122220000Y-23800000D01*
%TO.C,Q136*%
X88240000Y-109440000D02*
X87910000Y-109200000D01*
X88240000Y-108960000D01*
X88240000Y-109440000D01*
G36*
X88240000Y-109440000D02*
G01*
X87910000Y-109200000D01*
X88240000Y-108960000D01*
X88240000Y-109440000D01*
G37*
X89850000Y-107140000D02*
X89850000Y-108660000D01*
X88850000Y-107140000D02*
X89850000Y-107140000D01*
X86730000Y-107140000D02*
X87730000Y-107140000D01*
X89850000Y-108660000D02*
X89800000Y-108660000D01*
X88680000Y-108660000D02*
X87900000Y-108660000D01*
X86780000Y-108660000D02*
X86730000Y-108660000D01*
X86730000Y-108660000D02*
X86730000Y-107140000D01*
%TO.C,J10*%
X67370000Y-112620000D02*
X85260000Y-112620000D01*
X85260000Y-115380000D02*
X85260000Y-112620000D01*
X67370000Y-115380000D02*
X67370000Y-112620000D01*
X67370000Y-115380000D02*
X85260000Y-115380000D01*
X66100000Y-115380000D02*
X64720000Y-115380000D01*
X64720000Y-115380000D02*
X64720000Y-114000000D01*
%TO.C,Q142*%
X115640000Y-109440000D02*
X115310000Y-109200000D01*
X115640000Y-108960000D01*
X115640000Y-109440000D01*
G36*
X115640000Y-109440000D02*
G01*
X115310000Y-109200000D01*
X115640000Y-108960000D01*
X115640000Y-109440000D01*
G37*
X117250000Y-107140000D02*
X117250000Y-108660000D01*
X116250000Y-107140000D02*
X117250000Y-107140000D01*
X114130000Y-107140000D02*
X115130000Y-107140000D01*
X117250000Y-108660000D02*
X117200000Y-108660000D01*
X116080000Y-108660000D02*
X115300000Y-108660000D01*
X114180000Y-108660000D02*
X114130000Y-108660000D01*
X114130000Y-108660000D02*
X114130000Y-107140000D01*
%TO.C,Q144*%
X123240000Y-109440000D02*
X122910000Y-109200000D01*
X123240000Y-108960000D01*
X123240000Y-109440000D01*
G36*
X123240000Y-109440000D02*
G01*
X122910000Y-109200000D01*
X123240000Y-108960000D01*
X123240000Y-109440000D01*
G37*
X124850000Y-107140000D02*
X124850000Y-108660000D01*
X123850000Y-107140000D02*
X124850000Y-107140000D01*
X121730000Y-107140000D02*
X122730000Y-107140000D01*
X124850000Y-108660000D02*
X124800000Y-108660000D01*
X123680000Y-108660000D02*
X122900000Y-108660000D01*
X121780000Y-108660000D02*
X121730000Y-108660000D01*
X121730000Y-108660000D02*
X121730000Y-107140000D01*
%TO.C,Q137*%
X96640000Y-109440000D02*
X96310000Y-109200000D01*
X96640000Y-108960000D01*
X96640000Y-109440000D01*
G36*
X96640000Y-109440000D02*
G01*
X96310000Y-109200000D01*
X96640000Y-108960000D01*
X96640000Y-109440000D01*
G37*
X98250000Y-107140000D02*
X98250000Y-108660000D01*
X97250000Y-107140000D02*
X98250000Y-107140000D01*
X95130000Y-107140000D02*
X96130000Y-107140000D01*
X98250000Y-108660000D02*
X98200000Y-108660000D01*
X97080000Y-108660000D02*
X96300000Y-108660000D01*
X95180000Y-108660000D02*
X95130000Y-108660000D01*
X95130000Y-108660000D02*
X95130000Y-107140000D01*
%TO.C,Q139*%
X104240000Y-109440000D02*
X103910000Y-109200000D01*
X104240000Y-108960000D01*
X104240000Y-109440000D01*
G36*
X104240000Y-109440000D02*
G01*
X103910000Y-109200000D01*
X104240000Y-108960000D01*
X104240000Y-109440000D01*
G37*
X105850000Y-107140000D02*
X105850000Y-108660000D01*
X104850000Y-107140000D02*
X105850000Y-107140000D01*
X102730000Y-107140000D02*
X103730000Y-107140000D01*
X105850000Y-108660000D02*
X105800000Y-108660000D01*
X104680000Y-108660000D02*
X103900000Y-108660000D01*
X102780000Y-108660000D02*
X102730000Y-108660000D01*
X102730000Y-108660000D02*
X102730000Y-107140000D01*
%TO.C,Q138*%
X100440000Y-109440000D02*
X100110000Y-109200000D01*
X100440000Y-108960000D01*
X100440000Y-109440000D01*
G36*
X100440000Y-109440000D02*
G01*
X100110000Y-109200000D01*
X100440000Y-108960000D01*
X100440000Y-109440000D01*
G37*
X102050000Y-107140000D02*
X102050000Y-108660000D01*
X101050000Y-107140000D02*
X102050000Y-107140000D01*
X98930000Y-107140000D02*
X99930000Y-107140000D01*
X102050000Y-108660000D02*
X102000000Y-108660000D01*
X100880000Y-108660000D02*
X100100000Y-108660000D01*
X98980000Y-108660000D02*
X98930000Y-108660000D01*
X98930000Y-108660000D02*
X98930000Y-107140000D01*
%TO.C,Q141*%
X111840000Y-109440000D02*
X111510000Y-109200000D01*
X111840000Y-108960000D01*
X111840000Y-109440000D01*
G36*
X111840000Y-109440000D02*
G01*
X111510000Y-109200000D01*
X111840000Y-108960000D01*
X111840000Y-109440000D01*
G37*
X113450000Y-107140000D02*
X113450000Y-108660000D01*
X112450000Y-107140000D02*
X113450000Y-107140000D01*
X110330000Y-107140000D02*
X111330000Y-107140000D01*
X113450000Y-108660000D02*
X113400000Y-108660000D01*
X112280000Y-108660000D02*
X111500000Y-108660000D01*
X110380000Y-108660000D02*
X110330000Y-108660000D01*
X110330000Y-108660000D02*
X110330000Y-107140000D01*
%TO.C,Q140*%
X108040000Y-109440000D02*
X107710000Y-109200000D01*
X108040000Y-108960000D01*
X108040000Y-109440000D01*
G36*
X108040000Y-109440000D02*
G01*
X107710000Y-109200000D01*
X108040000Y-108960000D01*
X108040000Y-109440000D01*
G37*
X109650000Y-107140000D02*
X109650000Y-108660000D01*
X108650000Y-107140000D02*
X109650000Y-107140000D01*
X106530000Y-107140000D02*
X107530000Y-107140000D01*
X109650000Y-108660000D02*
X109600000Y-108660000D01*
X108480000Y-108660000D02*
X107700000Y-108660000D01*
X106580000Y-108660000D02*
X106530000Y-108660000D01*
X106530000Y-108660000D02*
X106530000Y-107140000D01*
%TO.C,Q143*%
X119440000Y-109440000D02*
X119110000Y-109200000D01*
X119440000Y-108960000D01*
X119440000Y-109440000D01*
G36*
X119440000Y-109440000D02*
G01*
X119110000Y-109200000D01*
X119440000Y-108960000D01*
X119440000Y-109440000D01*
G37*
X121050000Y-107140000D02*
X121050000Y-108660000D01*
X120050000Y-107140000D02*
X121050000Y-107140000D01*
X117930000Y-107140000D02*
X118930000Y-107140000D01*
X121050000Y-108660000D02*
X121000000Y-108660000D01*
X119880000Y-108660000D02*
X119100000Y-108660000D01*
X117980000Y-108660000D02*
X117930000Y-108660000D01*
X117930000Y-108660000D02*
X117930000Y-107140000D01*
%TO.C,J4*%
X177970000Y-34370000D02*
X177970000Y-85280000D01*
X175210000Y-85280000D02*
X177970000Y-85280000D01*
X175210000Y-34370000D02*
X177970000Y-34370000D01*
X175210000Y-34370000D02*
X175210000Y-85280000D01*
X175210000Y-33100000D02*
X175210000Y-31720000D01*
X175210000Y-31720000D02*
X176590000Y-31720000D01*
%TO.C,Q97*%
X170690000Y-81980000D02*
X170450000Y-81650000D01*
X170930000Y-81650000D01*
X170690000Y-81980000D01*
G36*
X170690000Y-81980000D02*
G01*
X170450000Y-81650000D01*
X170930000Y-81650000D01*
X170690000Y-81980000D01*
G37*
X168630000Y-80040000D02*
X170150000Y-80040000D01*
X168630000Y-81040000D02*
X168630000Y-80040000D01*
X168630000Y-83160000D02*
X168630000Y-82160000D01*
X170150000Y-80040000D02*
X170150000Y-80090000D01*
X170150000Y-81210000D02*
X170150000Y-81990000D01*
X170150000Y-83110000D02*
X170150000Y-83160000D01*
X170150000Y-83160000D02*
X168630000Y-83160000D01*
%TO.C,Q89*%
X155030000Y-81550000D02*
X154550000Y-81550000D01*
X154790000Y-81220000D01*
X155030000Y-81550000D01*
G36*
X155030000Y-81550000D02*
G01*
X154550000Y-81550000D01*
X154790000Y-81220000D01*
X155030000Y-81550000D01*
G37*
X156850000Y-83160000D02*
X155330000Y-83160000D01*
X156850000Y-82160000D02*
X156850000Y-83160000D01*
X156850000Y-80040000D02*
X156850000Y-81040000D01*
X155330000Y-83160000D02*
X155330000Y-83110000D01*
X155330000Y-81990000D02*
X155330000Y-81210000D01*
X155330000Y-80090000D02*
X155330000Y-80040000D01*
X155330000Y-80040000D02*
X156850000Y-80040000D01*
%TO.C,Q54*%
X138690000Y-62980000D02*
X138450000Y-62650000D01*
X138930000Y-62650000D01*
X138690000Y-62980000D01*
G36*
X138690000Y-62980000D02*
G01*
X138450000Y-62650000D01*
X138930000Y-62650000D01*
X138690000Y-62980000D01*
G37*
X136630000Y-61040000D02*
X138150000Y-61040000D01*
X136630000Y-62040000D02*
X136630000Y-61040000D01*
X136630000Y-64160000D02*
X136630000Y-63160000D01*
X138150000Y-61040000D02*
X138150000Y-61090000D01*
X138150000Y-62210000D02*
X138150000Y-62990000D01*
X138150000Y-64110000D02*
X138150000Y-64160000D01*
X138150000Y-64160000D02*
X136630000Y-64160000D01*
%TO.C,Q57*%
X134390000Y-81980000D02*
X134150000Y-81650000D01*
X134630000Y-81650000D01*
X134390000Y-81980000D01*
G36*
X134390000Y-81980000D02*
G01*
X134150000Y-81650000D01*
X134630000Y-81650000D01*
X134390000Y-81980000D01*
G37*
X132330000Y-80040000D02*
X133850000Y-80040000D01*
X132330000Y-81040000D02*
X132330000Y-80040000D01*
X132330000Y-83160000D02*
X132330000Y-82160000D01*
X133850000Y-80040000D02*
X133850000Y-80090000D01*
X133850000Y-81210000D02*
X133850000Y-81990000D01*
X133850000Y-83110000D02*
X133850000Y-83160000D01*
X133850000Y-83160000D02*
X132330000Y-83160000D01*
%TO.C,Q59*%
X134390000Y-74380000D02*
X134150000Y-74050000D01*
X134630000Y-74050000D01*
X134390000Y-74380000D01*
G36*
X134390000Y-74380000D02*
G01*
X134150000Y-74050000D01*
X134630000Y-74050000D01*
X134390000Y-74380000D01*
G37*
X132330000Y-72440000D02*
X133850000Y-72440000D01*
X132330000Y-73440000D02*
X132330000Y-72440000D01*
X132330000Y-75560000D02*
X132330000Y-74560000D01*
X133850000Y-72440000D02*
X133850000Y-72490000D01*
X133850000Y-73610000D02*
X133850000Y-74390000D01*
X133850000Y-75510000D02*
X133850000Y-75560000D01*
X133850000Y-75560000D02*
X132330000Y-75560000D01*
%TO.C,Q51*%
X138690000Y-74380000D02*
X138450000Y-74050000D01*
X138930000Y-74050000D01*
X138690000Y-74380000D01*
G36*
X138690000Y-74380000D02*
G01*
X138450000Y-74050000D01*
X138930000Y-74050000D01*
X138690000Y-74380000D01*
G37*
X136630000Y-72440000D02*
X138150000Y-72440000D01*
X136630000Y-73440000D02*
X136630000Y-72440000D01*
X136630000Y-75560000D02*
X136630000Y-74560000D01*
X138150000Y-72440000D02*
X138150000Y-72490000D01*
X138150000Y-73610000D02*
X138150000Y-74390000D01*
X138150000Y-75510000D02*
X138150000Y-75560000D01*
X138150000Y-75560000D02*
X136630000Y-75560000D01*
%TO.C,Q56*%
X138690000Y-55380000D02*
X138450000Y-55050000D01*
X138930000Y-55050000D01*
X138690000Y-55380000D01*
G36*
X138690000Y-55380000D02*
G01*
X138450000Y-55050000D01*
X138930000Y-55050000D01*
X138690000Y-55380000D01*
G37*
X136630000Y-53440000D02*
X138150000Y-53440000D01*
X136630000Y-54440000D02*
X136630000Y-53440000D01*
X136630000Y-56560000D02*
X136630000Y-55560000D01*
X138150000Y-53440000D02*
X138150000Y-53490000D01*
X138150000Y-54610000D02*
X138150000Y-55390000D01*
X138150000Y-56510000D02*
X138150000Y-56560000D01*
X138150000Y-56560000D02*
X136630000Y-56560000D01*
%TO.C,Q49*%
X138690000Y-81980000D02*
X138450000Y-81650000D01*
X138930000Y-81650000D01*
X138690000Y-81980000D01*
G36*
X138690000Y-81980000D02*
G01*
X138450000Y-81650000D01*
X138930000Y-81650000D01*
X138690000Y-81980000D01*
G37*
X136630000Y-80040000D02*
X138150000Y-80040000D01*
X136630000Y-81040000D02*
X136630000Y-80040000D01*
X136630000Y-83160000D02*
X136630000Y-82160000D01*
X138150000Y-80040000D02*
X138150000Y-80090000D01*
X138150000Y-81210000D02*
X138150000Y-81990000D01*
X138150000Y-83110000D02*
X138150000Y-83160000D01*
X138150000Y-83160000D02*
X136630000Y-83160000D01*
%TO.C,Q50*%
X138690000Y-78180000D02*
X138450000Y-77850000D01*
X138930000Y-77850000D01*
X138690000Y-78180000D01*
G36*
X138690000Y-78180000D02*
G01*
X138450000Y-77850000D01*
X138930000Y-77850000D01*
X138690000Y-78180000D01*
G37*
X136630000Y-76240000D02*
X138150000Y-76240000D01*
X136630000Y-77240000D02*
X136630000Y-76240000D01*
X136630000Y-79360000D02*
X136630000Y-78360000D01*
X138150000Y-76240000D02*
X138150000Y-76290000D01*
X138150000Y-77410000D02*
X138150000Y-78190000D01*
X138150000Y-79310000D02*
X138150000Y-79360000D01*
X138150000Y-79360000D02*
X136630000Y-79360000D01*
%TO.C,Q52*%
X138690000Y-70580000D02*
X138450000Y-70250000D01*
X138930000Y-70250000D01*
X138690000Y-70580000D01*
G36*
X138690000Y-70580000D02*
G01*
X138450000Y-70250000D01*
X138930000Y-70250000D01*
X138690000Y-70580000D01*
G37*
X136630000Y-68640000D02*
X138150000Y-68640000D01*
X136630000Y-69640000D02*
X136630000Y-68640000D01*
X136630000Y-71760000D02*
X136630000Y-70760000D01*
X138150000Y-68640000D02*
X138150000Y-68690000D01*
X138150000Y-69810000D02*
X138150000Y-70590000D01*
X138150000Y-71710000D02*
X138150000Y-71760000D01*
X138150000Y-71760000D02*
X136630000Y-71760000D01*
%TO.C,Q53*%
X138690000Y-66780000D02*
X138450000Y-66450000D01*
X138930000Y-66450000D01*
X138690000Y-66780000D01*
G36*
X138690000Y-66780000D02*
G01*
X138450000Y-66450000D01*
X138930000Y-66450000D01*
X138690000Y-66780000D01*
G37*
X136630000Y-64840000D02*
X138150000Y-64840000D01*
X136630000Y-65840000D02*
X136630000Y-64840000D01*
X136630000Y-67960000D02*
X136630000Y-66960000D01*
X138150000Y-64840000D02*
X138150000Y-64890000D01*
X138150000Y-66010000D02*
X138150000Y-66790000D01*
X138150000Y-67910000D02*
X138150000Y-67960000D01*
X138150000Y-67960000D02*
X136630000Y-67960000D01*
%TO.C,Q55*%
X138690000Y-59180000D02*
X138450000Y-58850000D01*
X138930000Y-58850000D01*
X138690000Y-59180000D01*
G36*
X138690000Y-59180000D02*
G01*
X138450000Y-58850000D01*
X138930000Y-58850000D01*
X138690000Y-59180000D01*
G37*
X136630000Y-57240000D02*
X138150000Y-57240000D01*
X136630000Y-58240000D02*
X136630000Y-57240000D01*
X136630000Y-60360000D02*
X136630000Y-59360000D01*
X138150000Y-57240000D02*
X138150000Y-57290000D01*
X138150000Y-58410000D02*
X138150000Y-59190000D01*
X138150000Y-60310000D02*
X138150000Y-60360000D01*
X138150000Y-60360000D02*
X136630000Y-60360000D01*
%TO.C,Q58*%
X134390000Y-78180000D02*
X134150000Y-77850000D01*
X134630000Y-77850000D01*
X134390000Y-78180000D01*
G36*
X134390000Y-78180000D02*
G01*
X134150000Y-77850000D01*
X134630000Y-77850000D01*
X134390000Y-78180000D01*
G37*
X132330000Y-76240000D02*
X133850000Y-76240000D01*
X132330000Y-77240000D02*
X132330000Y-76240000D01*
X132330000Y-79360000D02*
X132330000Y-78360000D01*
X133850000Y-76240000D02*
X133850000Y-76290000D01*
X133850000Y-77410000D02*
X133850000Y-78190000D01*
X133850000Y-79310000D02*
X133850000Y-79360000D01*
X133850000Y-79360000D02*
X132330000Y-79360000D01*
%TO.C,Q61*%
X134390000Y-66780000D02*
X134150000Y-66450000D01*
X134630000Y-66450000D01*
X134390000Y-66780000D01*
G36*
X134390000Y-66780000D02*
G01*
X134150000Y-66450000D01*
X134630000Y-66450000D01*
X134390000Y-66780000D01*
G37*
X132330000Y-64840000D02*
X133850000Y-64840000D01*
X132330000Y-65840000D02*
X132330000Y-64840000D01*
X132330000Y-67960000D02*
X132330000Y-66960000D01*
X133850000Y-64840000D02*
X133850000Y-64890000D01*
X133850000Y-66010000D02*
X133850000Y-66790000D01*
X133850000Y-67910000D02*
X133850000Y-67960000D01*
X133850000Y-67960000D02*
X132330000Y-67960000D01*
%TO.C,Q63*%
X134390000Y-59180000D02*
X134150000Y-58850000D01*
X134630000Y-58850000D01*
X134390000Y-59180000D01*
G36*
X134390000Y-59180000D02*
G01*
X134150000Y-58850000D01*
X134630000Y-58850000D01*
X134390000Y-59180000D01*
G37*
X132330000Y-57240000D02*
X133850000Y-57240000D01*
X132330000Y-58240000D02*
X132330000Y-57240000D01*
X132330000Y-60360000D02*
X132330000Y-59360000D01*
X133850000Y-57240000D02*
X133850000Y-57290000D01*
X133850000Y-58410000D02*
X133850000Y-59190000D01*
X133850000Y-60310000D02*
X133850000Y-60360000D01*
X133850000Y-60360000D02*
X132330000Y-60360000D01*
%TO.C,Q62*%
X134390000Y-62980000D02*
X134150000Y-62650000D01*
X134630000Y-62650000D01*
X134390000Y-62980000D01*
G36*
X134390000Y-62980000D02*
G01*
X134150000Y-62650000D01*
X134630000Y-62650000D01*
X134390000Y-62980000D01*
G37*
X132330000Y-61040000D02*
X133850000Y-61040000D01*
X132330000Y-62040000D02*
X132330000Y-61040000D01*
X132330000Y-64160000D02*
X132330000Y-63160000D01*
X133850000Y-61040000D02*
X133850000Y-61090000D01*
X133850000Y-62210000D02*
X133850000Y-62990000D01*
X133850000Y-64110000D02*
X133850000Y-64160000D01*
X133850000Y-64160000D02*
X132330000Y-64160000D01*
%TO.C,Q60*%
X134390000Y-70580000D02*
X134150000Y-70250000D01*
X134630000Y-70250000D01*
X134390000Y-70580000D01*
G36*
X134390000Y-70580000D02*
G01*
X134150000Y-70250000D01*
X134630000Y-70250000D01*
X134390000Y-70580000D01*
G37*
X132330000Y-68640000D02*
X133850000Y-68640000D01*
X132330000Y-69640000D02*
X132330000Y-68640000D01*
X132330000Y-71760000D02*
X132330000Y-70760000D01*
X133850000Y-68640000D02*
X133850000Y-68690000D01*
X133850000Y-69810000D02*
X133850000Y-70590000D01*
X133850000Y-71710000D02*
X133850000Y-71760000D01*
X133850000Y-71760000D02*
X132330000Y-71760000D01*
%TO.C,Q64*%
X134390000Y-55380000D02*
X134150000Y-55050000D01*
X134630000Y-55050000D01*
X134390000Y-55380000D01*
G36*
X134390000Y-55380000D02*
G01*
X134150000Y-55050000D01*
X134630000Y-55050000D01*
X134390000Y-55380000D01*
G37*
X132330000Y-53440000D02*
X133850000Y-53440000D01*
X132330000Y-54440000D02*
X132330000Y-53440000D01*
X132330000Y-56560000D02*
X132330000Y-55560000D01*
X133850000Y-53440000D02*
X133850000Y-53490000D01*
X133850000Y-54610000D02*
X133850000Y-55390000D01*
X133850000Y-56510000D02*
X133850000Y-56560000D01*
X133850000Y-56560000D02*
X132330000Y-56560000D01*
%TO.C,Q71*%
X87030000Y-57240000D02*
X88550000Y-57240000D01*
X87030000Y-57290000D02*
X87030000Y-57240000D01*
X87030000Y-59190000D02*
X87030000Y-58410000D01*
X87030000Y-60360000D02*
X87030000Y-60310000D01*
X88550000Y-57240000D02*
X88550000Y-58240000D01*
X88550000Y-59360000D02*
X88550000Y-60360000D01*
X88550000Y-60360000D02*
X87030000Y-60360000D01*
X86730000Y-58750000D02*
X86250000Y-58750000D01*
X86490000Y-58420000D01*
X86730000Y-58750000D01*
G36*
X86730000Y-58750000D02*
G01*
X86250000Y-58750000D01*
X86490000Y-58420000D01*
X86730000Y-58750000D01*
G37*
%TO.C,Q79*%
X91330000Y-57240000D02*
X92850000Y-57240000D01*
X91330000Y-57290000D02*
X91330000Y-57240000D01*
X91330000Y-59190000D02*
X91330000Y-58410000D01*
X91330000Y-60360000D02*
X91330000Y-60310000D01*
X92850000Y-57240000D02*
X92850000Y-58240000D01*
X92850000Y-59360000D02*
X92850000Y-60360000D01*
X92850000Y-60360000D02*
X91330000Y-60360000D01*
X91030000Y-58750000D02*
X90550000Y-58750000D01*
X90790000Y-58420000D01*
X91030000Y-58750000D01*
G36*
X91030000Y-58750000D02*
G01*
X90550000Y-58750000D01*
X90790000Y-58420000D01*
X91030000Y-58750000D01*
G37*
%TO.C,Q8*%
X74690000Y-70580000D02*
X74450000Y-70250000D01*
X74930000Y-70250000D01*
X74690000Y-70580000D01*
G36*
X74690000Y-70580000D02*
G01*
X74450000Y-70250000D01*
X74930000Y-70250000D01*
X74690000Y-70580000D01*
G37*
X72630000Y-68640000D02*
X74150000Y-68640000D01*
X72630000Y-69640000D02*
X72630000Y-68640000D01*
X72630000Y-71760000D02*
X72630000Y-70760000D01*
X74150000Y-68640000D02*
X74150000Y-68690000D01*
X74150000Y-69810000D02*
X74150000Y-70590000D01*
X74150000Y-71710000D02*
X74150000Y-71760000D01*
X74150000Y-71760000D02*
X72630000Y-71760000D01*
%TO.C,Q7*%
X70390000Y-70580000D02*
X70150000Y-70250000D01*
X70630000Y-70250000D01*
X70390000Y-70580000D01*
G36*
X70390000Y-70580000D02*
G01*
X70150000Y-70250000D01*
X70630000Y-70250000D01*
X70390000Y-70580000D01*
G37*
X68330000Y-68640000D02*
X69850000Y-68640000D01*
X68330000Y-69640000D02*
X68330000Y-68640000D01*
X68330000Y-71760000D02*
X68330000Y-70760000D01*
X69850000Y-68640000D02*
X69850000Y-68690000D01*
X69850000Y-69810000D02*
X69850000Y-70590000D01*
X69850000Y-71710000D02*
X69850000Y-71760000D01*
X69850000Y-71760000D02*
X68330000Y-71760000D01*
%TO.C,Q2*%
X74150000Y-83160000D02*
X72630000Y-83160000D01*
X74150000Y-83110000D02*
X74150000Y-83160000D01*
X74150000Y-81210000D02*
X74150000Y-81990000D01*
X74150000Y-80040000D02*
X74150000Y-80090000D01*
X72630000Y-83160000D02*
X72630000Y-82160000D01*
X72630000Y-81040000D02*
X72630000Y-80040000D01*
X72630000Y-80040000D02*
X74150000Y-80040000D01*
X74690000Y-81980000D02*
X74450000Y-81650000D01*
X74930000Y-81650000D01*
X74690000Y-81980000D01*
G36*
X74690000Y-81980000D02*
G01*
X74450000Y-81650000D01*
X74930000Y-81650000D01*
X74690000Y-81980000D01*
G37*
%TO.C,Q1*%
X70390000Y-81980000D02*
X70150000Y-81650000D01*
X70630000Y-81650000D01*
X70390000Y-81980000D01*
G36*
X70390000Y-81980000D02*
G01*
X70150000Y-81650000D01*
X70630000Y-81650000D01*
X70390000Y-81980000D01*
G37*
X68330000Y-80040000D02*
X69850000Y-80040000D01*
X68330000Y-81040000D02*
X68330000Y-80040000D01*
X68330000Y-83160000D02*
X68330000Y-82160000D01*
X69850000Y-80040000D02*
X69850000Y-80090000D01*
X69850000Y-81210000D02*
X69850000Y-81990000D01*
X69850000Y-83110000D02*
X69850000Y-83160000D01*
X69850000Y-83160000D02*
X68330000Y-83160000D01*
%TO.C,Q67*%
X86730000Y-73950000D02*
X86250000Y-73950000D01*
X86490000Y-73620000D01*
X86730000Y-73950000D01*
G36*
X86730000Y-73950000D02*
G01*
X86250000Y-73950000D01*
X86490000Y-73620000D01*
X86730000Y-73950000D01*
G37*
X88550000Y-75560000D02*
X87030000Y-75560000D01*
X88550000Y-74560000D02*
X88550000Y-75560000D01*
X88550000Y-72440000D02*
X88550000Y-73440000D01*
X87030000Y-75560000D02*
X87030000Y-75510000D01*
X87030000Y-74390000D02*
X87030000Y-73610000D01*
X87030000Y-72490000D02*
X87030000Y-72440000D01*
X87030000Y-72440000D02*
X88550000Y-72440000D01*
%TO.C,Q66*%
X86730000Y-77750000D02*
X86250000Y-77750000D01*
X86490000Y-77420000D01*
X86730000Y-77750000D01*
G36*
X86730000Y-77750000D02*
G01*
X86250000Y-77750000D01*
X86490000Y-77420000D01*
X86730000Y-77750000D01*
G37*
X88550000Y-79360000D02*
X87030000Y-79360000D01*
X88550000Y-78360000D02*
X88550000Y-79360000D01*
X88550000Y-76240000D02*
X88550000Y-77240000D01*
X87030000Y-79360000D02*
X87030000Y-79310000D01*
X87030000Y-78190000D02*
X87030000Y-77410000D01*
X87030000Y-76290000D02*
X87030000Y-76240000D01*
X87030000Y-76240000D02*
X88550000Y-76240000D01*
%TO.C,Q70*%
X86730000Y-62550000D02*
X86250000Y-62550000D01*
X86490000Y-62220000D01*
X86730000Y-62550000D01*
G36*
X86730000Y-62550000D02*
G01*
X86250000Y-62550000D01*
X86490000Y-62220000D01*
X86730000Y-62550000D01*
G37*
X88550000Y-64160000D02*
X87030000Y-64160000D01*
X88550000Y-63160000D02*
X88550000Y-64160000D01*
X88550000Y-61040000D02*
X88550000Y-62040000D01*
X87030000Y-64160000D02*
X87030000Y-64110000D01*
X87030000Y-62990000D02*
X87030000Y-62210000D01*
X87030000Y-61090000D02*
X87030000Y-61040000D01*
X87030000Y-61040000D02*
X88550000Y-61040000D01*
%TO.C,Q65*%
X86730000Y-81550000D02*
X86250000Y-81550000D01*
X86490000Y-81220000D01*
X86730000Y-81550000D01*
G36*
X86730000Y-81550000D02*
G01*
X86250000Y-81550000D01*
X86490000Y-81220000D01*
X86730000Y-81550000D01*
G37*
X88550000Y-83160000D02*
X87030000Y-83160000D01*
X88550000Y-82160000D02*
X88550000Y-83160000D01*
X88550000Y-80040000D02*
X88550000Y-81040000D01*
X87030000Y-83160000D02*
X87030000Y-83110000D01*
X87030000Y-81990000D02*
X87030000Y-81210000D01*
X87030000Y-80090000D02*
X87030000Y-80040000D01*
X87030000Y-80040000D02*
X88550000Y-80040000D01*
%TO.C,Q69*%
X86730000Y-66350000D02*
X86250000Y-66350000D01*
X86490000Y-66020000D01*
X86730000Y-66350000D01*
G36*
X86730000Y-66350000D02*
G01*
X86250000Y-66350000D01*
X86490000Y-66020000D01*
X86730000Y-66350000D01*
G37*
X88550000Y-67960000D02*
X87030000Y-67960000D01*
X88550000Y-66960000D02*
X88550000Y-67960000D01*
X88550000Y-64840000D02*
X88550000Y-65840000D01*
X87030000Y-67960000D02*
X87030000Y-67910000D01*
X87030000Y-66790000D02*
X87030000Y-66010000D01*
X87030000Y-64890000D02*
X87030000Y-64840000D01*
X87030000Y-64840000D02*
X88550000Y-64840000D01*
%TO.C,Q78*%
X91030000Y-62550000D02*
X90550000Y-62550000D01*
X90790000Y-62220000D01*
X91030000Y-62550000D01*
G36*
X91030000Y-62550000D02*
G01*
X90550000Y-62550000D01*
X90790000Y-62220000D01*
X91030000Y-62550000D01*
G37*
X92850000Y-64160000D02*
X91330000Y-64160000D01*
X92850000Y-63160000D02*
X92850000Y-64160000D01*
X92850000Y-61040000D02*
X92850000Y-62040000D01*
X91330000Y-64160000D02*
X91330000Y-64110000D01*
X91330000Y-62990000D02*
X91330000Y-62210000D01*
X91330000Y-61090000D02*
X91330000Y-61040000D01*
X91330000Y-61040000D02*
X92850000Y-61040000D01*
%TO.C,Q68*%
X86730000Y-70150000D02*
X86250000Y-70150000D01*
X86490000Y-69820000D01*
X86730000Y-70150000D01*
G36*
X86730000Y-70150000D02*
G01*
X86250000Y-70150000D01*
X86490000Y-69820000D01*
X86730000Y-70150000D01*
G37*
X88550000Y-71760000D02*
X87030000Y-71760000D01*
X88550000Y-70760000D02*
X88550000Y-71760000D01*
X88550000Y-68640000D02*
X88550000Y-69640000D01*
X87030000Y-71760000D02*
X87030000Y-71710000D01*
X87030000Y-70590000D02*
X87030000Y-69810000D01*
X87030000Y-68690000D02*
X87030000Y-68640000D01*
X87030000Y-68640000D02*
X88550000Y-68640000D01*
%TO.C,Q77*%
X91030000Y-66350000D02*
X90550000Y-66350000D01*
X90790000Y-66020000D01*
X91030000Y-66350000D01*
G36*
X91030000Y-66350000D02*
G01*
X90550000Y-66350000D01*
X90790000Y-66020000D01*
X91030000Y-66350000D01*
G37*
X92850000Y-67960000D02*
X91330000Y-67960000D01*
X92850000Y-66960000D02*
X92850000Y-67960000D01*
X92850000Y-64840000D02*
X92850000Y-65840000D01*
X91330000Y-67960000D02*
X91330000Y-67910000D01*
X91330000Y-66790000D02*
X91330000Y-66010000D01*
X91330000Y-64890000D02*
X91330000Y-64840000D01*
X91330000Y-64840000D02*
X92850000Y-64840000D01*
%TO.C,Q74*%
X91030000Y-77750000D02*
X90550000Y-77750000D01*
X90790000Y-77420000D01*
X91030000Y-77750000D01*
G36*
X91030000Y-77750000D02*
G01*
X90550000Y-77750000D01*
X90790000Y-77420000D01*
X91030000Y-77750000D01*
G37*
X92850000Y-79360000D02*
X91330000Y-79360000D01*
X92850000Y-78360000D02*
X92850000Y-79360000D01*
X92850000Y-76240000D02*
X92850000Y-77240000D01*
X91330000Y-79360000D02*
X91330000Y-79310000D01*
X91330000Y-78190000D02*
X91330000Y-77410000D01*
X91330000Y-76290000D02*
X91330000Y-76240000D01*
X91330000Y-76240000D02*
X92850000Y-76240000D01*
%TO.C,Q75*%
X91030000Y-73950000D02*
X90550000Y-73950000D01*
X90790000Y-73620000D01*
X91030000Y-73950000D01*
G36*
X91030000Y-73950000D02*
G01*
X90550000Y-73950000D01*
X90790000Y-73620000D01*
X91030000Y-73950000D01*
G37*
X92850000Y-75560000D02*
X91330000Y-75560000D01*
X92850000Y-74560000D02*
X92850000Y-75560000D01*
X92850000Y-72440000D02*
X92850000Y-73440000D01*
X91330000Y-75560000D02*
X91330000Y-75510000D01*
X91330000Y-74390000D02*
X91330000Y-73610000D01*
X91330000Y-72490000D02*
X91330000Y-72440000D01*
X91330000Y-72440000D02*
X92850000Y-72440000D01*
%TO.C,Q73*%
X91030000Y-81550000D02*
X90550000Y-81550000D01*
X90790000Y-81220000D01*
X91030000Y-81550000D01*
G36*
X91030000Y-81550000D02*
G01*
X90550000Y-81550000D01*
X90790000Y-81220000D01*
X91030000Y-81550000D01*
G37*
X92850000Y-83160000D02*
X91330000Y-83160000D01*
X92850000Y-82160000D02*
X92850000Y-83160000D01*
X92850000Y-80040000D02*
X92850000Y-81040000D01*
X91330000Y-83160000D02*
X91330000Y-83110000D01*
X91330000Y-81990000D02*
X91330000Y-81210000D01*
X91330000Y-80090000D02*
X91330000Y-80040000D01*
X91330000Y-80040000D02*
X92850000Y-80040000D01*
%TO.C,Q72*%
X86730000Y-54950000D02*
X86250000Y-54950000D01*
X86490000Y-54620000D01*
X86730000Y-54950000D01*
G36*
X86730000Y-54950000D02*
G01*
X86250000Y-54950000D01*
X86490000Y-54620000D01*
X86730000Y-54950000D01*
G37*
X88550000Y-56560000D02*
X87030000Y-56560000D01*
X88550000Y-55560000D02*
X88550000Y-56560000D01*
X88550000Y-53440000D02*
X88550000Y-54440000D01*
X87030000Y-56560000D02*
X87030000Y-56510000D01*
X87030000Y-55390000D02*
X87030000Y-54610000D01*
X87030000Y-53490000D02*
X87030000Y-53440000D01*
X87030000Y-53440000D02*
X88550000Y-53440000D01*
%TO.C,Q76*%
X91030000Y-70150000D02*
X90550000Y-70150000D01*
X90790000Y-69820000D01*
X91030000Y-70150000D01*
G36*
X91030000Y-70150000D02*
G01*
X90550000Y-70150000D01*
X90790000Y-69820000D01*
X91030000Y-70150000D01*
G37*
X92850000Y-71760000D02*
X91330000Y-71760000D01*
X92850000Y-70760000D02*
X92850000Y-71760000D01*
X92850000Y-68640000D02*
X92850000Y-69640000D01*
X91330000Y-71760000D02*
X91330000Y-71710000D01*
X91330000Y-70590000D02*
X91330000Y-69810000D01*
X91330000Y-68690000D02*
X91330000Y-68640000D01*
X91330000Y-68640000D02*
X92850000Y-68640000D01*
%TO.C,Q80*%
X91030000Y-54950000D02*
X90550000Y-54950000D01*
X90790000Y-54620000D01*
X91030000Y-54950000D01*
G36*
X91030000Y-54950000D02*
G01*
X90550000Y-54950000D01*
X90790000Y-54620000D01*
X91030000Y-54950000D01*
G37*
X92850000Y-56560000D02*
X91330000Y-56560000D01*
X92850000Y-55560000D02*
X92850000Y-56560000D01*
X92850000Y-53440000D02*
X92850000Y-54440000D01*
X91330000Y-56560000D02*
X91330000Y-56510000D01*
X91330000Y-55390000D02*
X91330000Y-54610000D01*
X91330000Y-53490000D02*
X91330000Y-53440000D01*
X91330000Y-53440000D02*
X92850000Y-53440000D01*
%TO.C,Q19*%
X106150000Y-75560000D02*
X104630000Y-75560000D01*
X106150000Y-75510000D02*
X106150000Y-75560000D01*
X106150000Y-73610000D02*
X106150000Y-74390000D01*
X106150000Y-72440000D02*
X106150000Y-72490000D01*
X104630000Y-75560000D02*
X104630000Y-74560000D01*
X104630000Y-73440000D02*
X104630000Y-72440000D01*
X104630000Y-72440000D02*
X106150000Y-72440000D01*
X106690000Y-74380000D02*
X106450000Y-74050000D01*
X106930000Y-74050000D01*
X106690000Y-74380000D01*
G36*
X106690000Y-74380000D02*
G01*
X106450000Y-74050000D01*
X106930000Y-74050000D01*
X106690000Y-74380000D01*
G37*
%TO.C,Q21*%
X106150000Y-67960000D02*
X104630000Y-67960000D01*
X106150000Y-67910000D02*
X106150000Y-67960000D01*
X106150000Y-66010000D02*
X106150000Y-66790000D01*
X106150000Y-64840000D02*
X106150000Y-64890000D01*
X104630000Y-67960000D02*
X104630000Y-66960000D01*
X104630000Y-65840000D02*
X104630000Y-64840000D01*
X104630000Y-64840000D02*
X106150000Y-64840000D01*
X106690000Y-66780000D02*
X106450000Y-66450000D01*
X106930000Y-66450000D01*
X106690000Y-66780000D01*
G36*
X106690000Y-66780000D02*
G01*
X106450000Y-66450000D01*
X106930000Y-66450000D01*
X106690000Y-66780000D01*
G37*
%TO.C,Q17*%
X106690000Y-81980000D02*
X106450000Y-81650000D01*
X106930000Y-81650000D01*
X106690000Y-81980000D01*
G36*
X106690000Y-81980000D02*
G01*
X106450000Y-81650000D01*
X106930000Y-81650000D01*
X106690000Y-81980000D01*
G37*
X104630000Y-80040000D02*
X106150000Y-80040000D01*
X104630000Y-81040000D02*
X104630000Y-80040000D01*
X104630000Y-83160000D02*
X104630000Y-82160000D01*
X106150000Y-80040000D02*
X106150000Y-80090000D01*
X106150000Y-81210000D02*
X106150000Y-81990000D01*
X106150000Y-83110000D02*
X106150000Y-83160000D01*
X106150000Y-83160000D02*
X104630000Y-83160000D01*
%TO.C,Q18*%
X106150000Y-79360000D02*
X104630000Y-79360000D01*
X106150000Y-79310000D02*
X106150000Y-79360000D01*
X106150000Y-77410000D02*
X106150000Y-78190000D01*
X106150000Y-76240000D02*
X106150000Y-76290000D01*
X104630000Y-79360000D02*
X104630000Y-78360000D01*
X104630000Y-77240000D02*
X104630000Y-76240000D01*
X104630000Y-76240000D02*
X106150000Y-76240000D01*
X106690000Y-78180000D02*
X106450000Y-77850000D01*
X106930000Y-77850000D01*
X106690000Y-78180000D01*
G36*
X106690000Y-78180000D02*
G01*
X106450000Y-77850000D01*
X106930000Y-77850000D01*
X106690000Y-78180000D01*
G37*
%TO.C,Q20*%
X106150000Y-71760000D02*
X104630000Y-71760000D01*
X106150000Y-71710000D02*
X106150000Y-71760000D01*
X106150000Y-69810000D02*
X106150000Y-70590000D01*
X106150000Y-68640000D02*
X106150000Y-68690000D01*
X104630000Y-71760000D02*
X104630000Y-70760000D01*
X104630000Y-69640000D02*
X104630000Y-68640000D01*
X104630000Y-68640000D02*
X106150000Y-68640000D01*
X106690000Y-70580000D02*
X106450000Y-70250000D01*
X106930000Y-70250000D01*
X106690000Y-70580000D01*
G36*
X106690000Y-70580000D02*
G01*
X106450000Y-70250000D01*
X106930000Y-70250000D01*
X106690000Y-70580000D01*
G37*
%TO.C,Q22*%
X106150000Y-64160000D02*
X104630000Y-64160000D01*
X106150000Y-64110000D02*
X106150000Y-64160000D01*
X106150000Y-62210000D02*
X106150000Y-62990000D01*
X106150000Y-61040000D02*
X106150000Y-61090000D01*
X104630000Y-64160000D02*
X104630000Y-63160000D01*
X104630000Y-62040000D02*
X104630000Y-61040000D01*
X104630000Y-61040000D02*
X106150000Y-61040000D01*
X106690000Y-62980000D02*
X106450000Y-62650000D01*
X106930000Y-62650000D01*
X106690000Y-62980000D01*
G36*
X106690000Y-62980000D02*
G01*
X106450000Y-62650000D01*
X106930000Y-62650000D01*
X106690000Y-62980000D01*
G37*
%TO.C,Q27*%
X101850000Y-75560000D02*
X100330000Y-75560000D01*
X101850000Y-75510000D02*
X101850000Y-75560000D01*
X101850000Y-73610000D02*
X101850000Y-74390000D01*
X101850000Y-72440000D02*
X101850000Y-72490000D01*
X100330000Y-75560000D02*
X100330000Y-74560000D01*
X100330000Y-73440000D02*
X100330000Y-72440000D01*
X100330000Y-72440000D02*
X101850000Y-72440000D01*
X102390000Y-74380000D02*
X102150000Y-74050000D01*
X102630000Y-74050000D01*
X102390000Y-74380000D01*
G36*
X102390000Y-74380000D02*
G01*
X102150000Y-74050000D01*
X102630000Y-74050000D01*
X102390000Y-74380000D01*
G37*
%TO.C,Q28*%
X101850000Y-71760000D02*
X100330000Y-71760000D01*
X101850000Y-71710000D02*
X101850000Y-71760000D01*
X101850000Y-69810000D02*
X101850000Y-70590000D01*
X101850000Y-68640000D02*
X101850000Y-68690000D01*
X100330000Y-71760000D02*
X100330000Y-70760000D01*
X100330000Y-69640000D02*
X100330000Y-68640000D01*
X100330000Y-68640000D02*
X101850000Y-68640000D01*
X102390000Y-70580000D02*
X102150000Y-70250000D01*
X102630000Y-70250000D01*
X102390000Y-70580000D01*
G36*
X102390000Y-70580000D02*
G01*
X102150000Y-70250000D01*
X102630000Y-70250000D01*
X102390000Y-70580000D01*
G37*
%TO.C,Q24*%
X106150000Y-56560000D02*
X104630000Y-56560000D01*
X106150000Y-56510000D02*
X106150000Y-56560000D01*
X106150000Y-54610000D02*
X106150000Y-55390000D01*
X106150000Y-53440000D02*
X106150000Y-53490000D01*
X104630000Y-56560000D02*
X104630000Y-55560000D01*
X104630000Y-54440000D02*
X104630000Y-53440000D01*
X104630000Y-53440000D02*
X106150000Y-53440000D01*
X106690000Y-55380000D02*
X106450000Y-55050000D01*
X106930000Y-55050000D01*
X106690000Y-55380000D01*
G36*
X106690000Y-55380000D02*
G01*
X106450000Y-55050000D01*
X106930000Y-55050000D01*
X106690000Y-55380000D01*
G37*
%TO.C,Q23*%
X106150000Y-60360000D02*
X104630000Y-60360000D01*
X106150000Y-60310000D02*
X106150000Y-60360000D01*
X106150000Y-58410000D02*
X106150000Y-59190000D01*
X106150000Y-57240000D02*
X106150000Y-57290000D01*
X104630000Y-60360000D02*
X104630000Y-59360000D01*
X104630000Y-58240000D02*
X104630000Y-57240000D01*
X104630000Y-57240000D02*
X106150000Y-57240000D01*
X106690000Y-59180000D02*
X106450000Y-58850000D01*
X106930000Y-58850000D01*
X106690000Y-59180000D01*
G36*
X106690000Y-59180000D02*
G01*
X106450000Y-58850000D01*
X106930000Y-58850000D01*
X106690000Y-59180000D01*
G37*
%TO.C,Q25*%
X101850000Y-83160000D02*
X100330000Y-83160000D01*
X101850000Y-83110000D02*
X101850000Y-83160000D01*
X101850000Y-81210000D02*
X101850000Y-81990000D01*
X101850000Y-80040000D02*
X101850000Y-80090000D01*
X100330000Y-83160000D02*
X100330000Y-82160000D01*
X100330000Y-81040000D02*
X100330000Y-80040000D01*
X100330000Y-80040000D02*
X101850000Y-80040000D01*
X102390000Y-81980000D02*
X102150000Y-81650000D01*
X102630000Y-81650000D01*
X102390000Y-81980000D01*
G36*
X102390000Y-81980000D02*
G01*
X102150000Y-81650000D01*
X102630000Y-81650000D01*
X102390000Y-81980000D01*
G37*
%TO.C,Q26*%
X101850000Y-79360000D02*
X100330000Y-79360000D01*
X101850000Y-79310000D02*
X101850000Y-79360000D01*
X101850000Y-77410000D02*
X101850000Y-78190000D01*
X101850000Y-76240000D02*
X101850000Y-76290000D01*
X100330000Y-79360000D02*
X100330000Y-78360000D01*
X100330000Y-77240000D02*
X100330000Y-76240000D01*
X100330000Y-76240000D02*
X101850000Y-76240000D01*
X102390000Y-78180000D02*
X102150000Y-77850000D01*
X102630000Y-77850000D01*
X102390000Y-78180000D01*
G36*
X102390000Y-78180000D02*
G01*
X102150000Y-77850000D01*
X102630000Y-77850000D01*
X102390000Y-78180000D01*
G37*
%TO.C,Q29*%
X101850000Y-67960000D02*
X100330000Y-67960000D01*
X101850000Y-67910000D02*
X101850000Y-67960000D01*
X101850000Y-66010000D02*
X101850000Y-66790000D01*
X101850000Y-64840000D02*
X101850000Y-64890000D01*
X100330000Y-67960000D02*
X100330000Y-66960000D01*
X100330000Y-65840000D02*
X100330000Y-64840000D01*
X100330000Y-64840000D02*
X101850000Y-64840000D01*
X102390000Y-66780000D02*
X102150000Y-66450000D01*
X102630000Y-66450000D01*
X102390000Y-66780000D01*
G36*
X102390000Y-66780000D02*
G01*
X102150000Y-66450000D01*
X102630000Y-66450000D01*
X102390000Y-66780000D01*
G37*
%TO.C,Q30*%
X101850000Y-64160000D02*
X100330000Y-64160000D01*
X101850000Y-64110000D02*
X101850000Y-64160000D01*
X101850000Y-62210000D02*
X101850000Y-62990000D01*
X101850000Y-61040000D02*
X101850000Y-61090000D01*
X100330000Y-64160000D02*
X100330000Y-63160000D01*
X100330000Y-62040000D02*
X100330000Y-61040000D01*
X100330000Y-61040000D02*
X101850000Y-61040000D01*
X102390000Y-62980000D02*
X102150000Y-62650000D01*
X102630000Y-62650000D01*
X102390000Y-62980000D01*
G36*
X102390000Y-62980000D02*
G01*
X102150000Y-62650000D01*
X102630000Y-62650000D01*
X102390000Y-62980000D01*
G37*
%TO.C,Q31*%
X101850000Y-60360000D02*
X100330000Y-60360000D01*
X101850000Y-60310000D02*
X101850000Y-60360000D01*
X101850000Y-58410000D02*
X101850000Y-59190000D01*
X101850000Y-57240000D02*
X101850000Y-57290000D01*
X100330000Y-60360000D02*
X100330000Y-59360000D01*
X100330000Y-58240000D02*
X100330000Y-57240000D01*
X100330000Y-57240000D02*
X101850000Y-57240000D01*
X102390000Y-59180000D02*
X102150000Y-58850000D01*
X102630000Y-58850000D01*
X102390000Y-59180000D01*
G36*
X102390000Y-59180000D02*
G01*
X102150000Y-58850000D01*
X102630000Y-58850000D01*
X102390000Y-59180000D01*
G37*
%TO.C,Q32*%
X101850000Y-56560000D02*
X100330000Y-56560000D01*
X101850000Y-56510000D02*
X101850000Y-56560000D01*
X101850000Y-54610000D02*
X101850000Y-55390000D01*
X101850000Y-53440000D02*
X101850000Y-53490000D01*
X100330000Y-56560000D02*
X100330000Y-55560000D01*
X100330000Y-54440000D02*
X100330000Y-53440000D01*
X100330000Y-53440000D02*
X101850000Y-53440000D01*
X102390000Y-55380000D02*
X102150000Y-55050000D01*
X102630000Y-55050000D01*
X102390000Y-55380000D01*
G36*
X102390000Y-55380000D02*
G01*
X102150000Y-55050000D01*
X102630000Y-55050000D01*
X102390000Y-55380000D01*
G37*
%TO.C,Q152*%
X188850000Y-32560000D02*
X187330000Y-32560000D01*
X188850000Y-32510000D02*
X188850000Y-32560000D01*
X188850000Y-30610000D02*
X188850000Y-31390000D01*
X188850000Y-29440000D02*
X188850000Y-29490000D01*
X187330000Y-32560000D02*
X187330000Y-31560000D01*
X187330000Y-30440000D02*
X187330000Y-29440000D01*
X187330000Y-29440000D02*
X188850000Y-29440000D01*
X189390000Y-31380000D02*
X189150000Y-31050000D01*
X189630000Y-31050000D01*
X189390000Y-31380000D01*
G36*
X189390000Y-31380000D02*
G01*
X189150000Y-31050000D01*
X189630000Y-31050000D01*
X189390000Y-31380000D01*
G37*
%TO.C,Q151*%
X164330000Y-29440000D02*
X165850000Y-29440000D01*
X164330000Y-29490000D02*
X164330000Y-29440000D01*
X164330000Y-31390000D02*
X164330000Y-30610000D01*
X164330000Y-32560000D02*
X164330000Y-32510000D01*
X165850000Y-29440000D02*
X165850000Y-30440000D01*
X165850000Y-31560000D02*
X165850000Y-32560000D01*
X165850000Y-32560000D02*
X164330000Y-32560000D01*
X164030000Y-30950000D02*
X163550000Y-30950000D01*
X163790000Y-30620000D01*
X164030000Y-30950000D01*
G36*
X164030000Y-30950000D02*
G01*
X163550000Y-30950000D01*
X163790000Y-30620000D01*
X164030000Y-30950000D01*
G37*
%TO.C,Q150*%
X156850000Y-32560000D02*
X155330000Y-32560000D01*
X156850000Y-32510000D02*
X156850000Y-32560000D01*
X156850000Y-30610000D02*
X156850000Y-31390000D01*
X156850000Y-29440000D02*
X156850000Y-29490000D01*
X155330000Y-32560000D02*
X155330000Y-31560000D01*
X155330000Y-30440000D02*
X155330000Y-29440000D01*
X155330000Y-29440000D02*
X156850000Y-29440000D01*
X157390000Y-31380000D02*
X157150000Y-31050000D01*
X157630000Y-31050000D01*
X157390000Y-31380000D01*
G36*
X157390000Y-31380000D02*
G01*
X157150000Y-31050000D01*
X157630000Y-31050000D01*
X157390000Y-31380000D01*
G37*
%TO.C,Q149*%
X132330000Y-29440000D02*
X133850000Y-29440000D01*
X132330000Y-29490000D02*
X132330000Y-29440000D01*
X132330000Y-31390000D02*
X132330000Y-30610000D01*
X132330000Y-32560000D02*
X132330000Y-32510000D01*
X133850000Y-29440000D02*
X133850000Y-30440000D01*
X133850000Y-31560000D02*
X133850000Y-32560000D01*
X133850000Y-32560000D02*
X132330000Y-32560000D01*
X132030000Y-30950000D02*
X131550000Y-30950000D01*
X131790000Y-30620000D01*
X132030000Y-30950000D01*
G36*
X132030000Y-30950000D02*
G01*
X131550000Y-30950000D01*
X131790000Y-30620000D01*
X132030000Y-30950000D01*
G37*
%TO.C,Q148*%
X124850000Y-32560000D02*
X123330000Y-32560000D01*
X124850000Y-32510000D02*
X124850000Y-32560000D01*
X124850000Y-30610000D02*
X124850000Y-31390000D01*
X124850000Y-29440000D02*
X124850000Y-29490000D01*
X123330000Y-32560000D02*
X123330000Y-31560000D01*
X123330000Y-30440000D02*
X123330000Y-29440000D01*
X123330000Y-29440000D02*
X124850000Y-29440000D01*
X125390000Y-31380000D02*
X125150000Y-31050000D01*
X125630000Y-31050000D01*
X125390000Y-31380000D01*
G36*
X125390000Y-31380000D02*
G01*
X125150000Y-31050000D01*
X125630000Y-31050000D01*
X125390000Y-31380000D01*
G37*
%TO.C,Q147*%
X100330000Y-29440000D02*
X101850000Y-29440000D01*
X100330000Y-29490000D02*
X100330000Y-29440000D01*
X100330000Y-31390000D02*
X100330000Y-30610000D01*
X100330000Y-32560000D02*
X100330000Y-32510000D01*
X101850000Y-29440000D02*
X101850000Y-30440000D01*
X101850000Y-31560000D02*
X101850000Y-32560000D01*
X101850000Y-32560000D02*
X100330000Y-32560000D01*
X100030000Y-30950000D02*
X99550000Y-30950000D01*
X99790000Y-30620000D01*
X100030000Y-30950000D01*
G36*
X100030000Y-30950000D02*
G01*
X99550000Y-30950000D01*
X99790000Y-30620000D01*
X100030000Y-30950000D01*
G37*
%TO.C,Q145*%
X68320000Y-29440000D02*
X69840000Y-29440000D01*
X68320000Y-29490000D02*
X68320000Y-29440000D01*
X68320000Y-31390000D02*
X68320000Y-30610000D01*
X68320000Y-32560000D02*
X68320000Y-32510000D01*
X69840000Y-29440000D02*
X69840000Y-30440000D01*
X69840000Y-31560000D02*
X69840000Y-32560000D01*
X69840000Y-32560000D02*
X68320000Y-32560000D01*
X68020000Y-30950000D02*
X67540000Y-30950000D01*
X67780000Y-30620000D01*
X68020000Y-30950000D01*
G36*
X68020000Y-30950000D02*
G01*
X67540000Y-30950000D01*
X67780000Y-30620000D01*
X68020000Y-30950000D01*
G37*
D14*
%TO.C,D24*%
X71500000Y-31270000D02*
X71500000Y-32730000D01*
X71500000Y-32730000D02*
X73790000Y-32730000D01*
X73790000Y-31270000D02*
X71500000Y-31270000D01*
%TO.C,D8*%
X163112500Y-113157500D02*
X163112500Y-114617500D01*
X163112500Y-114617500D02*
X165402500Y-114617500D01*
X165402500Y-113157500D02*
X163112500Y-113157500D01*
%TO.C,D7*%
X185680000Y-32730000D02*
X185680000Y-31270000D01*
X185680000Y-31270000D02*
X183390000Y-31270000D01*
X183390000Y-32730000D02*
X185680000Y-32730000D01*
%TO.C,D6*%
X167500000Y-31270000D02*
X167500000Y-32730000D01*
X167500000Y-32730000D02*
X169790000Y-32730000D01*
X169790000Y-31270000D02*
X167500000Y-31270000D01*
%TO.C,D5*%
X153680000Y-32730000D02*
X153680000Y-31270000D01*
X153680000Y-31270000D02*
X151390000Y-31270000D01*
X151390000Y-32730000D02*
X153680000Y-32730000D01*
%TO.C,D4*%
X135500000Y-31270000D02*
X135500000Y-32730000D01*
X135500000Y-32730000D02*
X137790000Y-32730000D01*
X137790000Y-31270000D02*
X135500000Y-31270000D01*
%TO.C,D3*%
X121780000Y-32730000D02*
X121780000Y-31270000D01*
X121780000Y-31270000D02*
X119490000Y-31270000D01*
X119490000Y-32730000D02*
X121780000Y-32730000D01*
%TO.C,D2*%
X103500000Y-31270000D02*
X103500000Y-32730000D01*
X103500000Y-32730000D02*
X105790000Y-32730000D01*
X105790000Y-31270000D02*
X103500000Y-31270000D01*
%TO.C,D1*%
X89680000Y-32730000D02*
X89680000Y-31270000D01*
X89680000Y-31270000D02*
X87390000Y-31270000D01*
X87390000Y-32730000D02*
X89680000Y-32730000D01*
D13*
%TO.C,Q135*%
X82930000Y-108660000D02*
X82930000Y-107140000D01*
X82980000Y-108660000D02*
X82930000Y-108660000D01*
X84880000Y-108660000D02*
X84100000Y-108660000D01*
X86050000Y-108660000D02*
X86000000Y-108660000D01*
X82930000Y-107140000D02*
X83930000Y-107140000D01*
X85050000Y-107140000D02*
X86050000Y-107140000D01*
X86050000Y-107140000D02*
X86050000Y-108660000D01*
X84440000Y-109440000D02*
X84110000Y-109200000D01*
X84440000Y-108960000D01*
X84440000Y-109440000D01*
G36*
X84440000Y-109440000D02*
G01*
X84110000Y-109200000D01*
X84440000Y-108960000D01*
X84440000Y-109440000D01*
G37*
%TO.C,Q134*%
X79130000Y-108660000D02*
X79130000Y-107140000D01*
X79180000Y-108660000D02*
X79130000Y-108660000D01*
X81080000Y-108660000D02*
X80300000Y-108660000D01*
X82250000Y-108660000D02*
X82200000Y-108660000D01*
X79130000Y-107140000D02*
X80130000Y-107140000D01*
X81250000Y-107140000D02*
X82250000Y-107140000D01*
X82250000Y-107140000D02*
X82250000Y-108660000D01*
X80640000Y-109440000D02*
X80310000Y-109200000D01*
X80640000Y-108960000D01*
X80640000Y-109440000D01*
G36*
X80640000Y-109440000D02*
G01*
X80310000Y-109200000D01*
X80640000Y-108960000D01*
X80640000Y-109440000D01*
G37*
%TO.C,Q133*%
X75330000Y-108660000D02*
X75330000Y-107140000D01*
X75380000Y-108660000D02*
X75330000Y-108660000D01*
X77280000Y-108660000D02*
X76500000Y-108660000D01*
X78450000Y-108660000D02*
X78400000Y-108660000D01*
X75330000Y-107140000D02*
X76330000Y-107140000D01*
X77450000Y-107140000D02*
X78450000Y-107140000D01*
X78450000Y-107140000D02*
X78450000Y-108660000D01*
X76840000Y-109440000D02*
X76510000Y-109200000D01*
X76840000Y-108960000D01*
X76840000Y-109440000D01*
G36*
X76840000Y-109440000D02*
G01*
X76510000Y-109200000D01*
X76840000Y-108960000D01*
X76840000Y-109440000D01*
G37*
%TO.C,Q132*%
X71530000Y-108660000D02*
X71530000Y-107140000D01*
X71580000Y-108660000D02*
X71530000Y-108660000D01*
X73480000Y-108660000D02*
X72700000Y-108660000D01*
X74650000Y-108660000D02*
X74600000Y-108660000D01*
X71530000Y-107140000D02*
X72530000Y-107140000D01*
X73650000Y-107140000D02*
X74650000Y-107140000D01*
X74650000Y-107140000D02*
X74650000Y-108660000D01*
X73040000Y-109440000D02*
X72710000Y-109200000D01*
X73040000Y-108960000D01*
X73040000Y-109440000D01*
G36*
X73040000Y-109440000D02*
G01*
X72710000Y-109200000D01*
X73040000Y-108960000D01*
X73040000Y-109440000D01*
G37*
%TO.C,Q131*%
X67730000Y-108660000D02*
X67730000Y-107140000D01*
X67780000Y-108660000D02*
X67730000Y-108660000D01*
X69680000Y-108660000D02*
X68900000Y-108660000D01*
X70850000Y-108660000D02*
X70800000Y-108660000D01*
X67730000Y-107140000D02*
X68730000Y-107140000D01*
X69850000Y-107140000D02*
X70850000Y-107140000D01*
X70850000Y-107140000D02*
X70850000Y-108660000D01*
X69240000Y-109440000D02*
X68910000Y-109200000D01*
X69240000Y-108960000D01*
X69240000Y-109440000D01*
G36*
X69240000Y-109440000D02*
G01*
X68910000Y-109200000D01*
X69240000Y-108960000D01*
X69240000Y-109440000D01*
G37*
%TO.C,Q130*%
X63930000Y-108660000D02*
X63930000Y-107140000D01*
X63980000Y-108660000D02*
X63930000Y-108660000D01*
X65880000Y-108660000D02*
X65100000Y-108660000D01*
X67050000Y-108660000D02*
X67000000Y-108660000D01*
X63930000Y-107140000D02*
X64930000Y-107140000D01*
X66050000Y-107140000D02*
X67050000Y-107140000D01*
X67050000Y-107140000D02*
X67050000Y-108660000D01*
X65440000Y-109440000D02*
X65110000Y-109200000D01*
X65440000Y-108960000D01*
X65440000Y-109440000D01*
G36*
X65440000Y-109440000D02*
G01*
X65110000Y-109200000D01*
X65440000Y-108960000D01*
X65440000Y-109440000D01*
G37*
%TO.C,Q129*%
X60130000Y-108660000D02*
X60130000Y-107140000D01*
X60180000Y-108660000D02*
X60130000Y-108660000D01*
X62080000Y-108660000D02*
X61300000Y-108660000D01*
X63250000Y-108660000D02*
X63200000Y-108660000D01*
X60130000Y-107140000D02*
X61130000Y-107140000D01*
X62250000Y-107140000D02*
X63250000Y-107140000D01*
X63250000Y-107140000D02*
X63250000Y-108660000D01*
X61640000Y-109440000D02*
X61310000Y-109200000D01*
X61640000Y-108960000D01*
X61640000Y-109440000D01*
G36*
X61640000Y-109440000D02*
G01*
X61310000Y-109200000D01*
X61640000Y-108960000D01*
X61640000Y-109440000D01*
G37*
%TO.C,Q128*%
X187330000Y-53440000D02*
X188850000Y-53440000D01*
X187330000Y-53490000D02*
X187330000Y-53440000D01*
X187330000Y-55390000D02*
X187330000Y-54610000D01*
X187330000Y-56560000D02*
X187330000Y-56510000D01*
X188850000Y-53440000D02*
X188850000Y-54440000D01*
X188850000Y-55560000D02*
X188850000Y-56560000D01*
X188850000Y-56560000D02*
X187330000Y-56560000D01*
X187030000Y-54950000D02*
X186550000Y-54950000D01*
X186790000Y-54620000D01*
X187030000Y-54950000D01*
G36*
X187030000Y-54950000D02*
G01*
X186550000Y-54950000D01*
X186790000Y-54620000D01*
X187030000Y-54950000D01*
G37*
%TO.C,Q127*%
X187330000Y-57240000D02*
X188850000Y-57240000D01*
X187330000Y-57290000D02*
X187330000Y-57240000D01*
X187330000Y-59190000D02*
X187330000Y-58410000D01*
X187330000Y-60360000D02*
X187330000Y-60310000D01*
X188850000Y-57240000D02*
X188850000Y-58240000D01*
X188850000Y-59360000D02*
X188850000Y-60360000D01*
X188850000Y-60360000D02*
X187330000Y-60360000D01*
X187030000Y-58750000D02*
X186550000Y-58750000D01*
X186790000Y-58420000D01*
X187030000Y-58750000D01*
G36*
X187030000Y-58750000D02*
G01*
X186550000Y-58750000D01*
X186790000Y-58420000D01*
X187030000Y-58750000D01*
G37*
%TO.C,Q126*%
X187330000Y-61040000D02*
X188850000Y-61040000D01*
X187330000Y-61090000D02*
X187330000Y-61040000D01*
X187330000Y-62990000D02*
X187330000Y-62210000D01*
X187330000Y-64160000D02*
X187330000Y-64110000D01*
X188850000Y-61040000D02*
X188850000Y-62040000D01*
X188850000Y-63160000D02*
X188850000Y-64160000D01*
X188850000Y-64160000D02*
X187330000Y-64160000D01*
X187030000Y-62550000D02*
X186550000Y-62550000D01*
X186790000Y-62220000D01*
X187030000Y-62550000D01*
G36*
X187030000Y-62550000D02*
G01*
X186550000Y-62550000D01*
X186790000Y-62220000D01*
X187030000Y-62550000D01*
G37*
%TO.C,Q125*%
X187330000Y-64840000D02*
X188850000Y-64840000D01*
X187330000Y-64890000D02*
X187330000Y-64840000D01*
X187330000Y-66790000D02*
X187330000Y-66010000D01*
X187330000Y-67960000D02*
X187330000Y-67910000D01*
X188850000Y-64840000D02*
X188850000Y-65840000D01*
X188850000Y-66960000D02*
X188850000Y-67960000D01*
X188850000Y-67960000D02*
X187330000Y-67960000D01*
X187030000Y-66350000D02*
X186550000Y-66350000D01*
X186790000Y-66020000D01*
X187030000Y-66350000D01*
G36*
X187030000Y-66350000D02*
G01*
X186550000Y-66350000D01*
X186790000Y-66020000D01*
X187030000Y-66350000D01*
G37*
%TO.C,Q124*%
X187330000Y-68640000D02*
X188850000Y-68640000D01*
X187330000Y-68690000D02*
X187330000Y-68640000D01*
X187330000Y-70590000D02*
X187330000Y-69810000D01*
X187330000Y-71760000D02*
X187330000Y-71710000D01*
X188850000Y-68640000D02*
X188850000Y-69640000D01*
X188850000Y-70760000D02*
X188850000Y-71760000D01*
X188850000Y-71760000D02*
X187330000Y-71760000D01*
X187030000Y-70150000D02*
X186550000Y-70150000D01*
X186790000Y-69820000D01*
X187030000Y-70150000D01*
G36*
X187030000Y-70150000D02*
G01*
X186550000Y-70150000D01*
X186790000Y-69820000D01*
X187030000Y-70150000D01*
G37*
%TO.C,Q123*%
X187330000Y-72440000D02*
X188850000Y-72440000D01*
X187330000Y-72490000D02*
X187330000Y-72440000D01*
X187330000Y-74390000D02*
X187330000Y-73610000D01*
X187330000Y-75560000D02*
X187330000Y-75510000D01*
X188850000Y-72440000D02*
X188850000Y-73440000D01*
X188850000Y-74560000D02*
X188850000Y-75560000D01*
X188850000Y-75560000D02*
X187330000Y-75560000D01*
X187030000Y-73950000D02*
X186550000Y-73950000D01*
X186790000Y-73620000D01*
X187030000Y-73950000D01*
G36*
X187030000Y-73950000D02*
G01*
X186550000Y-73950000D01*
X186790000Y-73620000D01*
X187030000Y-73950000D01*
G37*
%TO.C,Q122*%
X187330000Y-76240000D02*
X188850000Y-76240000D01*
X187330000Y-76290000D02*
X187330000Y-76240000D01*
X187330000Y-78190000D02*
X187330000Y-77410000D01*
X187330000Y-79360000D02*
X187330000Y-79310000D01*
X188850000Y-76240000D02*
X188850000Y-77240000D01*
X188850000Y-78360000D02*
X188850000Y-79360000D01*
X188850000Y-79360000D02*
X187330000Y-79360000D01*
X187030000Y-77750000D02*
X186550000Y-77750000D01*
X186790000Y-77420000D01*
X187030000Y-77750000D01*
G36*
X187030000Y-77750000D02*
G01*
X186550000Y-77750000D01*
X186790000Y-77420000D01*
X187030000Y-77750000D01*
G37*
%TO.C,Q121*%
X187330000Y-80040000D02*
X188850000Y-80040000D01*
X187330000Y-80090000D02*
X187330000Y-80040000D01*
X187330000Y-81990000D02*
X187330000Y-81210000D01*
X187330000Y-83160000D02*
X187330000Y-83110000D01*
X188850000Y-80040000D02*
X188850000Y-81040000D01*
X188850000Y-82160000D02*
X188850000Y-83160000D01*
X188850000Y-83160000D02*
X187330000Y-83160000D01*
X187030000Y-81550000D02*
X186550000Y-81550000D01*
X186790000Y-81220000D01*
X187030000Y-81550000D01*
G36*
X187030000Y-81550000D02*
G01*
X186550000Y-81550000D01*
X186790000Y-81220000D01*
X187030000Y-81550000D01*
G37*
%TO.C,Q120*%
X183030000Y-53440000D02*
X184550000Y-53440000D01*
X183030000Y-53490000D02*
X183030000Y-53440000D01*
X183030000Y-55390000D02*
X183030000Y-54610000D01*
X183030000Y-56560000D02*
X183030000Y-56510000D01*
X184550000Y-53440000D02*
X184550000Y-54440000D01*
X184550000Y-55560000D02*
X184550000Y-56560000D01*
X184550000Y-56560000D02*
X183030000Y-56560000D01*
X182730000Y-54950000D02*
X182250000Y-54950000D01*
X182490000Y-54620000D01*
X182730000Y-54950000D01*
G36*
X182730000Y-54950000D02*
G01*
X182250000Y-54950000D01*
X182490000Y-54620000D01*
X182730000Y-54950000D01*
G37*
%TO.C,Q119*%
X183030000Y-57240000D02*
X184550000Y-57240000D01*
X183030000Y-57290000D02*
X183030000Y-57240000D01*
X183030000Y-59190000D02*
X183030000Y-58410000D01*
X183030000Y-60360000D02*
X183030000Y-60310000D01*
X184550000Y-57240000D02*
X184550000Y-58240000D01*
X184550000Y-59360000D02*
X184550000Y-60360000D01*
X184550000Y-60360000D02*
X183030000Y-60360000D01*
X182730000Y-58750000D02*
X182250000Y-58750000D01*
X182490000Y-58420000D01*
X182730000Y-58750000D01*
G36*
X182730000Y-58750000D02*
G01*
X182250000Y-58750000D01*
X182490000Y-58420000D01*
X182730000Y-58750000D01*
G37*
%TO.C,Q118*%
X183030000Y-61040000D02*
X184550000Y-61040000D01*
X183030000Y-61090000D02*
X183030000Y-61040000D01*
X183030000Y-62990000D02*
X183030000Y-62210000D01*
X183030000Y-64160000D02*
X183030000Y-64110000D01*
X184550000Y-61040000D02*
X184550000Y-62040000D01*
X184550000Y-63160000D02*
X184550000Y-64160000D01*
X184550000Y-64160000D02*
X183030000Y-64160000D01*
X182730000Y-62550000D02*
X182250000Y-62550000D01*
X182490000Y-62220000D01*
X182730000Y-62550000D01*
G36*
X182730000Y-62550000D02*
G01*
X182250000Y-62550000D01*
X182490000Y-62220000D01*
X182730000Y-62550000D01*
G37*
%TO.C,Q117*%
X183030000Y-64840000D02*
X184550000Y-64840000D01*
X183030000Y-64890000D02*
X183030000Y-64840000D01*
X183030000Y-66790000D02*
X183030000Y-66010000D01*
X183030000Y-67960000D02*
X183030000Y-67910000D01*
X184550000Y-64840000D02*
X184550000Y-65840000D01*
X184550000Y-66960000D02*
X184550000Y-67960000D01*
X184550000Y-67960000D02*
X183030000Y-67960000D01*
X182730000Y-66350000D02*
X182250000Y-66350000D01*
X182490000Y-66020000D01*
X182730000Y-66350000D01*
G36*
X182730000Y-66350000D02*
G01*
X182250000Y-66350000D01*
X182490000Y-66020000D01*
X182730000Y-66350000D01*
G37*
%TO.C,Q116*%
X183030000Y-68640000D02*
X184550000Y-68640000D01*
X183030000Y-68690000D02*
X183030000Y-68640000D01*
X183030000Y-70590000D02*
X183030000Y-69810000D01*
X183030000Y-71760000D02*
X183030000Y-71710000D01*
X184550000Y-68640000D02*
X184550000Y-69640000D01*
X184550000Y-70760000D02*
X184550000Y-71760000D01*
X184550000Y-71760000D02*
X183030000Y-71760000D01*
X182730000Y-70150000D02*
X182250000Y-70150000D01*
X182490000Y-69820000D01*
X182730000Y-70150000D01*
G36*
X182730000Y-70150000D02*
G01*
X182250000Y-70150000D01*
X182490000Y-69820000D01*
X182730000Y-70150000D01*
G37*
%TO.C,Q115*%
X183030000Y-72440000D02*
X184550000Y-72440000D01*
X183030000Y-72490000D02*
X183030000Y-72440000D01*
X183030000Y-74390000D02*
X183030000Y-73610000D01*
X183030000Y-75560000D02*
X183030000Y-75510000D01*
X184550000Y-72440000D02*
X184550000Y-73440000D01*
X184550000Y-74560000D02*
X184550000Y-75560000D01*
X184550000Y-75560000D02*
X183030000Y-75560000D01*
X182730000Y-73950000D02*
X182250000Y-73950000D01*
X182490000Y-73620000D01*
X182730000Y-73950000D01*
G36*
X182730000Y-73950000D02*
G01*
X182250000Y-73950000D01*
X182490000Y-73620000D01*
X182730000Y-73950000D01*
G37*
%TO.C,Q114*%
X183030000Y-76240000D02*
X184550000Y-76240000D01*
X183030000Y-76290000D02*
X183030000Y-76240000D01*
X183030000Y-78190000D02*
X183030000Y-77410000D01*
X183030000Y-79360000D02*
X183030000Y-79310000D01*
X184550000Y-76240000D02*
X184550000Y-77240000D01*
X184550000Y-78360000D02*
X184550000Y-79360000D01*
X184550000Y-79360000D02*
X183030000Y-79360000D01*
X182730000Y-77750000D02*
X182250000Y-77750000D01*
X182490000Y-77420000D01*
X182730000Y-77750000D01*
G36*
X182730000Y-77750000D02*
G01*
X182250000Y-77750000D01*
X182490000Y-77420000D01*
X182730000Y-77750000D01*
G37*
%TO.C,Q113*%
X183030000Y-80040000D02*
X184550000Y-80040000D01*
X183030000Y-80090000D02*
X183030000Y-80040000D01*
X183030000Y-81990000D02*
X183030000Y-81210000D01*
X183030000Y-83160000D02*
X183030000Y-83110000D01*
X184550000Y-80040000D02*
X184550000Y-81040000D01*
X184550000Y-82160000D02*
X184550000Y-83160000D01*
X184550000Y-83160000D02*
X183030000Y-83160000D01*
X182730000Y-81550000D02*
X182250000Y-81550000D01*
X182490000Y-81220000D01*
X182730000Y-81550000D01*
G36*
X182730000Y-81550000D02*
G01*
X182250000Y-81550000D01*
X182490000Y-81220000D01*
X182730000Y-81550000D01*
G37*
%TO.C,Q112*%
X165850000Y-56560000D02*
X164330000Y-56560000D01*
X165850000Y-56510000D02*
X165850000Y-56560000D01*
X165850000Y-54610000D02*
X165850000Y-55390000D01*
X165850000Y-53440000D02*
X165850000Y-53490000D01*
X164330000Y-56560000D02*
X164330000Y-55560000D01*
X164330000Y-54440000D02*
X164330000Y-53440000D01*
X164330000Y-53440000D02*
X165850000Y-53440000D01*
X166390000Y-55380000D02*
X166150000Y-55050000D01*
X166630000Y-55050000D01*
X166390000Y-55380000D01*
G36*
X166390000Y-55380000D02*
G01*
X166150000Y-55050000D01*
X166630000Y-55050000D01*
X166390000Y-55380000D01*
G37*
%TO.C,Q111*%
X165850000Y-60360000D02*
X164330000Y-60360000D01*
X165850000Y-60310000D02*
X165850000Y-60360000D01*
X165850000Y-58410000D02*
X165850000Y-59190000D01*
X165850000Y-57240000D02*
X165850000Y-57290000D01*
X164330000Y-60360000D02*
X164330000Y-59360000D01*
X164330000Y-58240000D02*
X164330000Y-57240000D01*
X164330000Y-57240000D02*
X165850000Y-57240000D01*
X166390000Y-59180000D02*
X166150000Y-58850000D01*
X166630000Y-58850000D01*
X166390000Y-59180000D01*
G36*
X166390000Y-59180000D02*
G01*
X166150000Y-58850000D01*
X166630000Y-58850000D01*
X166390000Y-59180000D01*
G37*
%TO.C,Q110*%
X165850000Y-64160000D02*
X164330000Y-64160000D01*
X165850000Y-64110000D02*
X165850000Y-64160000D01*
X165850000Y-62210000D02*
X165850000Y-62990000D01*
X165850000Y-61040000D02*
X165850000Y-61090000D01*
X164330000Y-64160000D02*
X164330000Y-63160000D01*
X164330000Y-62040000D02*
X164330000Y-61040000D01*
X164330000Y-61040000D02*
X165850000Y-61040000D01*
X166390000Y-62980000D02*
X166150000Y-62650000D01*
X166630000Y-62650000D01*
X166390000Y-62980000D01*
G36*
X166390000Y-62980000D02*
G01*
X166150000Y-62650000D01*
X166630000Y-62650000D01*
X166390000Y-62980000D01*
G37*
%TO.C,Q109*%
X165850000Y-67960000D02*
X164330000Y-67960000D01*
X165850000Y-67910000D02*
X165850000Y-67960000D01*
X165850000Y-66010000D02*
X165850000Y-66790000D01*
X165850000Y-64840000D02*
X165850000Y-64890000D01*
X164330000Y-67960000D02*
X164330000Y-66960000D01*
X164330000Y-65840000D02*
X164330000Y-64840000D01*
X164330000Y-64840000D02*
X165850000Y-64840000D01*
X166390000Y-66780000D02*
X166150000Y-66450000D01*
X166630000Y-66450000D01*
X166390000Y-66780000D01*
G36*
X166390000Y-66780000D02*
G01*
X166150000Y-66450000D01*
X166630000Y-66450000D01*
X166390000Y-66780000D01*
G37*
%TO.C,Q108*%
X165850000Y-71760000D02*
X164330000Y-71760000D01*
X165850000Y-71710000D02*
X165850000Y-71760000D01*
X165850000Y-69810000D02*
X165850000Y-70590000D01*
X165850000Y-68640000D02*
X165850000Y-68690000D01*
X164330000Y-71760000D02*
X164330000Y-70760000D01*
X164330000Y-69640000D02*
X164330000Y-68640000D01*
X164330000Y-68640000D02*
X165850000Y-68640000D01*
X166390000Y-70580000D02*
X166150000Y-70250000D01*
X166630000Y-70250000D01*
X166390000Y-70580000D01*
G36*
X166390000Y-70580000D02*
G01*
X166150000Y-70250000D01*
X166630000Y-70250000D01*
X166390000Y-70580000D01*
G37*
%TO.C,Q107*%
X165850000Y-75560000D02*
X164330000Y-75560000D01*
X165850000Y-75510000D02*
X165850000Y-75560000D01*
X165850000Y-73610000D02*
X165850000Y-74390000D01*
X165850000Y-72440000D02*
X165850000Y-72490000D01*
X164330000Y-75560000D02*
X164330000Y-74560000D01*
X164330000Y-73440000D02*
X164330000Y-72440000D01*
X164330000Y-72440000D02*
X165850000Y-72440000D01*
X166390000Y-74380000D02*
X166150000Y-74050000D01*
X166630000Y-74050000D01*
X166390000Y-74380000D01*
G36*
X166390000Y-74380000D02*
G01*
X166150000Y-74050000D01*
X166630000Y-74050000D01*
X166390000Y-74380000D01*
G37*
%TO.C,Q106*%
X165850000Y-79360000D02*
X164330000Y-79360000D01*
X165850000Y-79310000D02*
X165850000Y-79360000D01*
X165850000Y-77410000D02*
X165850000Y-78190000D01*
X165850000Y-76240000D02*
X165850000Y-76290000D01*
X164330000Y-79360000D02*
X164330000Y-78360000D01*
X164330000Y-77240000D02*
X164330000Y-76240000D01*
X164330000Y-76240000D02*
X165850000Y-76240000D01*
X166390000Y-78180000D02*
X166150000Y-77850000D01*
X166630000Y-77850000D01*
X166390000Y-78180000D01*
G36*
X166390000Y-78180000D02*
G01*
X166150000Y-77850000D01*
X166630000Y-77850000D01*
X166390000Y-78180000D01*
G37*
%TO.C,Q105*%
X165850000Y-83160000D02*
X164330000Y-83160000D01*
X165850000Y-83110000D02*
X165850000Y-83160000D01*
X165850000Y-81210000D02*
X165850000Y-81990000D01*
X165850000Y-80040000D02*
X165850000Y-80090000D01*
X164330000Y-83160000D02*
X164330000Y-82160000D01*
X164330000Y-81040000D02*
X164330000Y-80040000D01*
X164330000Y-80040000D02*
X165850000Y-80040000D01*
X166390000Y-81980000D02*
X166150000Y-81650000D01*
X166630000Y-81650000D01*
X166390000Y-81980000D01*
G36*
X166390000Y-81980000D02*
G01*
X166150000Y-81650000D01*
X166630000Y-81650000D01*
X166390000Y-81980000D01*
G37*
%TO.C,Q104*%
X170150000Y-56560000D02*
X168630000Y-56560000D01*
X170150000Y-56510000D02*
X170150000Y-56560000D01*
X170150000Y-54610000D02*
X170150000Y-55390000D01*
X170150000Y-53440000D02*
X170150000Y-53490000D01*
X168630000Y-56560000D02*
X168630000Y-55560000D01*
X168630000Y-54440000D02*
X168630000Y-53440000D01*
X168630000Y-53440000D02*
X170150000Y-53440000D01*
X170690000Y-55380000D02*
X170450000Y-55050000D01*
X170930000Y-55050000D01*
X170690000Y-55380000D01*
G36*
X170690000Y-55380000D02*
G01*
X170450000Y-55050000D01*
X170930000Y-55050000D01*
X170690000Y-55380000D01*
G37*
%TO.C,Q103*%
X170150000Y-60360000D02*
X168630000Y-60360000D01*
X170150000Y-60310000D02*
X170150000Y-60360000D01*
X170150000Y-58410000D02*
X170150000Y-59190000D01*
X170150000Y-57240000D02*
X170150000Y-57290000D01*
X168630000Y-60360000D02*
X168630000Y-59360000D01*
X168630000Y-58240000D02*
X168630000Y-57240000D01*
X168630000Y-57240000D02*
X170150000Y-57240000D01*
X170690000Y-59180000D02*
X170450000Y-58850000D01*
X170930000Y-58850000D01*
X170690000Y-59180000D01*
G36*
X170690000Y-59180000D02*
G01*
X170450000Y-58850000D01*
X170930000Y-58850000D01*
X170690000Y-59180000D01*
G37*
%TO.C,Q102*%
X170150000Y-64160000D02*
X168630000Y-64160000D01*
X170150000Y-64110000D02*
X170150000Y-64160000D01*
X170150000Y-62210000D02*
X170150000Y-62990000D01*
X170150000Y-61040000D02*
X170150000Y-61090000D01*
X168630000Y-64160000D02*
X168630000Y-63160000D01*
X168630000Y-62040000D02*
X168630000Y-61040000D01*
X168630000Y-61040000D02*
X170150000Y-61040000D01*
X170690000Y-62980000D02*
X170450000Y-62650000D01*
X170930000Y-62650000D01*
X170690000Y-62980000D01*
G36*
X170690000Y-62980000D02*
G01*
X170450000Y-62650000D01*
X170930000Y-62650000D01*
X170690000Y-62980000D01*
G37*
%TO.C,Q101*%
X170150000Y-67960000D02*
X168630000Y-67960000D01*
X170150000Y-67910000D02*
X170150000Y-67960000D01*
X170150000Y-66010000D02*
X170150000Y-66790000D01*
X170150000Y-64840000D02*
X170150000Y-64890000D01*
X168630000Y-67960000D02*
X168630000Y-66960000D01*
X168630000Y-65840000D02*
X168630000Y-64840000D01*
X168630000Y-64840000D02*
X170150000Y-64840000D01*
X170690000Y-66780000D02*
X170450000Y-66450000D01*
X170930000Y-66450000D01*
X170690000Y-66780000D01*
G36*
X170690000Y-66780000D02*
G01*
X170450000Y-66450000D01*
X170930000Y-66450000D01*
X170690000Y-66780000D01*
G37*
%TO.C,Q100*%
X170150000Y-71760000D02*
X168630000Y-71760000D01*
X170150000Y-71710000D02*
X170150000Y-71760000D01*
X170150000Y-69810000D02*
X170150000Y-70590000D01*
X170150000Y-68640000D02*
X170150000Y-68690000D01*
X168630000Y-71760000D02*
X168630000Y-70760000D01*
X168630000Y-69640000D02*
X168630000Y-68640000D01*
X168630000Y-68640000D02*
X170150000Y-68640000D01*
X170690000Y-70580000D02*
X170450000Y-70250000D01*
X170930000Y-70250000D01*
X170690000Y-70580000D01*
G36*
X170690000Y-70580000D02*
G01*
X170450000Y-70250000D01*
X170930000Y-70250000D01*
X170690000Y-70580000D01*
G37*
%TO.C,Q99*%
X170150000Y-75560000D02*
X168630000Y-75560000D01*
X170150000Y-75510000D02*
X170150000Y-75560000D01*
X170150000Y-73610000D02*
X170150000Y-74390000D01*
X170150000Y-72440000D02*
X170150000Y-72490000D01*
X168630000Y-75560000D02*
X168630000Y-74560000D01*
X168630000Y-73440000D02*
X168630000Y-72440000D01*
X168630000Y-72440000D02*
X170150000Y-72440000D01*
X170690000Y-74380000D02*
X170450000Y-74050000D01*
X170930000Y-74050000D01*
X170690000Y-74380000D01*
G36*
X170690000Y-74380000D02*
G01*
X170450000Y-74050000D01*
X170930000Y-74050000D01*
X170690000Y-74380000D01*
G37*
%TO.C,Q98*%
X170150000Y-79360000D02*
X168630000Y-79360000D01*
X170150000Y-79310000D02*
X170150000Y-79360000D01*
X170150000Y-77410000D02*
X170150000Y-78190000D01*
X170150000Y-76240000D02*
X170150000Y-76290000D01*
X168630000Y-79360000D02*
X168630000Y-78360000D01*
X168630000Y-77240000D02*
X168630000Y-76240000D01*
X168630000Y-76240000D02*
X170150000Y-76240000D01*
X170690000Y-78180000D02*
X170450000Y-77850000D01*
X170930000Y-77850000D01*
X170690000Y-78180000D01*
G36*
X170690000Y-78180000D02*
G01*
X170450000Y-77850000D01*
X170930000Y-77850000D01*
X170690000Y-78180000D01*
G37*
%TO.C,Q96*%
X155330000Y-53440000D02*
X156850000Y-53440000D01*
X155330000Y-53490000D02*
X155330000Y-53440000D01*
X155330000Y-55390000D02*
X155330000Y-54610000D01*
X155330000Y-56560000D02*
X155330000Y-56510000D01*
X156850000Y-53440000D02*
X156850000Y-54440000D01*
X156850000Y-55560000D02*
X156850000Y-56560000D01*
X156850000Y-56560000D02*
X155330000Y-56560000D01*
X155030000Y-54950000D02*
X154550000Y-54950000D01*
X154790000Y-54620000D01*
X155030000Y-54950000D01*
G36*
X155030000Y-54950000D02*
G01*
X154550000Y-54950000D01*
X154790000Y-54620000D01*
X155030000Y-54950000D01*
G37*
%TO.C,Q95*%
X155330000Y-57240000D02*
X156850000Y-57240000D01*
X155330000Y-57290000D02*
X155330000Y-57240000D01*
X155330000Y-59190000D02*
X155330000Y-58410000D01*
X155330000Y-60360000D02*
X155330000Y-60310000D01*
X156850000Y-57240000D02*
X156850000Y-58240000D01*
X156850000Y-59360000D02*
X156850000Y-60360000D01*
X156850000Y-60360000D02*
X155330000Y-60360000D01*
X155030000Y-58750000D02*
X154550000Y-58750000D01*
X154790000Y-58420000D01*
X155030000Y-58750000D01*
G36*
X155030000Y-58750000D02*
G01*
X154550000Y-58750000D01*
X154790000Y-58420000D01*
X155030000Y-58750000D01*
G37*
%TO.C,Q94*%
X155330000Y-61040000D02*
X156850000Y-61040000D01*
X155330000Y-61090000D02*
X155330000Y-61040000D01*
X155330000Y-62990000D02*
X155330000Y-62210000D01*
X155330000Y-64160000D02*
X155330000Y-64110000D01*
X156850000Y-61040000D02*
X156850000Y-62040000D01*
X156850000Y-63160000D02*
X156850000Y-64160000D01*
X156850000Y-64160000D02*
X155330000Y-64160000D01*
X155030000Y-62550000D02*
X154550000Y-62550000D01*
X154790000Y-62220000D01*
X155030000Y-62550000D01*
G36*
X155030000Y-62550000D02*
G01*
X154550000Y-62550000D01*
X154790000Y-62220000D01*
X155030000Y-62550000D01*
G37*
%TO.C,Q93*%
X155330000Y-64840000D02*
X156850000Y-64840000D01*
X155330000Y-64890000D02*
X155330000Y-64840000D01*
X155330000Y-66790000D02*
X155330000Y-66010000D01*
X155330000Y-67960000D02*
X155330000Y-67910000D01*
X156850000Y-64840000D02*
X156850000Y-65840000D01*
X156850000Y-66960000D02*
X156850000Y-67960000D01*
X156850000Y-67960000D02*
X155330000Y-67960000D01*
X155030000Y-66350000D02*
X154550000Y-66350000D01*
X154790000Y-66020000D01*
X155030000Y-66350000D01*
G36*
X155030000Y-66350000D02*
G01*
X154550000Y-66350000D01*
X154790000Y-66020000D01*
X155030000Y-66350000D01*
G37*
%TO.C,Q92*%
X155330000Y-68640000D02*
X156850000Y-68640000D01*
X155330000Y-68690000D02*
X155330000Y-68640000D01*
X155330000Y-70590000D02*
X155330000Y-69810000D01*
X155330000Y-71760000D02*
X155330000Y-71710000D01*
X156850000Y-68640000D02*
X156850000Y-69640000D01*
X156850000Y-70760000D02*
X156850000Y-71760000D01*
X156850000Y-71760000D02*
X155330000Y-71760000D01*
X155030000Y-70150000D02*
X154550000Y-70150000D01*
X154790000Y-69820000D01*
X155030000Y-70150000D01*
G36*
X155030000Y-70150000D02*
G01*
X154550000Y-70150000D01*
X154790000Y-69820000D01*
X155030000Y-70150000D01*
G37*
%TO.C,Q91*%
X155330000Y-72440000D02*
X156850000Y-72440000D01*
X155330000Y-72490000D02*
X155330000Y-72440000D01*
X155330000Y-74390000D02*
X155330000Y-73610000D01*
X155330000Y-75560000D02*
X155330000Y-75510000D01*
X156850000Y-72440000D02*
X156850000Y-73440000D01*
X156850000Y-74560000D02*
X156850000Y-75560000D01*
X156850000Y-75560000D02*
X155330000Y-75560000D01*
X155030000Y-73950000D02*
X154550000Y-73950000D01*
X154790000Y-73620000D01*
X155030000Y-73950000D01*
G36*
X155030000Y-73950000D02*
G01*
X154550000Y-73950000D01*
X154790000Y-73620000D01*
X155030000Y-73950000D01*
G37*
%TO.C,Q90*%
X155330000Y-76240000D02*
X156850000Y-76240000D01*
X155330000Y-76290000D02*
X155330000Y-76240000D01*
X155330000Y-78190000D02*
X155330000Y-77410000D01*
X155330000Y-79360000D02*
X155330000Y-79310000D01*
X156850000Y-76240000D02*
X156850000Y-77240000D01*
X156850000Y-78360000D02*
X156850000Y-79360000D01*
X156850000Y-79360000D02*
X155330000Y-79360000D01*
X155030000Y-77750000D02*
X154550000Y-77750000D01*
X154790000Y-77420000D01*
X155030000Y-77750000D01*
G36*
X155030000Y-77750000D02*
G01*
X154550000Y-77750000D01*
X154790000Y-77420000D01*
X155030000Y-77750000D01*
G37*
%TO.C,Q88*%
X151030000Y-53440000D02*
X152550000Y-53440000D01*
X151030000Y-53490000D02*
X151030000Y-53440000D01*
X151030000Y-55390000D02*
X151030000Y-54610000D01*
X151030000Y-56560000D02*
X151030000Y-56510000D01*
X152550000Y-53440000D02*
X152550000Y-54440000D01*
X152550000Y-55560000D02*
X152550000Y-56560000D01*
X152550000Y-56560000D02*
X151030000Y-56560000D01*
X150730000Y-54950000D02*
X150250000Y-54950000D01*
X150490000Y-54620000D01*
X150730000Y-54950000D01*
G36*
X150730000Y-54950000D02*
G01*
X150250000Y-54950000D01*
X150490000Y-54620000D01*
X150730000Y-54950000D01*
G37*
%TO.C,Q87*%
X151030000Y-57240000D02*
X152550000Y-57240000D01*
X151030000Y-57290000D02*
X151030000Y-57240000D01*
X151030000Y-59190000D02*
X151030000Y-58410000D01*
X151030000Y-60360000D02*
X151030000Y-60310000D01*
X152550000Y-57240000D02*
X152550000Y-58240000D01*
X152550000Y-59360000D02*
X152550000Y-60360000D01*
X152550000Y-60360000D02*
X151030000Y-60360000D01*
X150730000Y-58750000D02*
X150250000Y-58750000D01*
X150490000Y-58420000D01*
X150730000Y-58750000D01*
G36*
X150730000Y-58750000D02*
G01*
X150250000Y-58750000D01*
X150490000Y-58420000D01*
X150730000Y-58750000D01*
G37*
%TO.C,Q86*%
X151030000Y-61040000D02*
X152550000Y-61040000D01*
X151030000Y-61090000D02*
X151030000Y-61040000D01*
X151030000Y-62990000D02*
X151030000Y-62210000D01*
X151030000Y-64160000D02*
X151030000Y-64110000D01*
X152550000Y-61040000D02*
X152550000Y-62040000D01*
X152550000Y-63160000D02*
X152550000Y-64160000D01*
X152550000Y-64160000D02*
X151030000Y-64160000D01*
X150730000Y-62550000D02*
X150250000Y-62550000D01*
X150490000Y-62220000D01*
X150730000Y-62550000D01*
G36*
X150730000Y-62550000D02*
G01*
X150250000Y-62550000D01*
X150490000Y-62220000D01*
X150730000Y-62550000D01*
G37*
%TO.C,Q85*%
X151030000Y-64840000D02*
X152550000Y-64840000D01*
X151030000Y-64890000D02*
X151030000Y-64840000D01*
X151030000Y-66790000D02*
X151030000Y-66010000D01*
X151030000Y-67960000D02*
X151030000Y-67910000D01*
X152550000Y-64840000D02*
X152550000Y-65840000D01*
X152550000Y-66960000D02*
X152550000Y-67960000D01*
X152550000Y-67960000D02*
X151030000Y-67960000D01*
X150730000Y-66350000D02*
X150250000Y-66350000D01*
X150490000Y-66020000D01*
X150730000Y-66350000D01*
G36*
X150730000Y-66350000D02*
G01*
X150250000Y-66350000D01*
X150490000Y-66020000D01*
X150730000Y-66350000D01*
G37*
%TO.C,Q84*%
X151030000Y-68640000D02*
X152550000Y-68640000D01*
X151030000Y-68690000D02*
X151030000Y-68640000D01*
X151030000Y-70590000D02*
X151030000Y-69810000D01*
X151030000Y-71760000D02*
X151030000Y-71710000D01*
X152550000Y-68640000D02*
X152550000Y-69640000D01*
X152550000Y-70760000D02*
X152550000Y-71760000D01*
X152550000Y-71760000D02*
X151030000Y-71760000D01*
X150730000Y-70150000D02*
X150250000Y-70150000D01*
X150490000Y-69820000D01*
X150730000Y-70150000D01*
G36*
X150730000Y-70150000D02*
G01*
X150250000Y-70150000D01*
X150490000Y-69820000D01*
X150730000Y-70150000D01*
G37*
%TO.C,Q83*%
X151030000Y-72440000D02*
X152550000Y-72440000D01*
X151030000Y-72490000D02*
X151030000Y-72440000D01*
X151030000Y-74390000D02*
X151030000Y-73610000D01*
X151030000Y-75560000D02*
X151030000Y-75510000D01*
X152550000Y-72440000D02*
X152550000Y-73440000D01*
X152550000Y-74560000D02*
X152550000Y-75560000D01*
X152550000Y-75560000D02*
X151030000Y-75560000D01*
X150730000Y-73950000D02*
X150250000Y-73950000D01*
X150490000Y-73620000D01*
X150730000Y-73950000D01*
G36*
X150730000Y-73950000D02*
G01*
X150250000Y-73950000D01*
X150490000Y-73620000D01*
X150730000Y-73950000D01*
G37*
%TO.C,Q82*%
X151030000Y-76240000D02*
X152550000Y-76240000D01*
X151030000Y-76290000D02*
X151030000Y-76240000D01*
X151030000Y-78190000D02*
X151030000Y-77410000D01*
X151030000Y-79360000D02*
X151030000Y-79310000D01*
X152550000Y-76240000D02*
X152550000Y-77240000D01*
X152550000Y-78360000D02*
X152550000Y-79360000D01*
X152550000Y-79360000D02*
X151030000Y-79360000D01*
X150730000Y-77750000D02*
X150250000Y-77750000D01*
X150490000Y-77420000D01*
X150730000Y-77750000D01*
G36*
X150730000Y-77750000D02*
G01*
X150250000Y-77750000D01*
X150490000Y-77420000D01*
X150730000Y-77750000D01*
G37*
%TO.C,Q81*%
X151030000Y-80040000D02*
X152550000Y-80040000D01*
X151030000Y-80090000D02*
X151030000Y-80040000D01*
X151030000Y-81990000D02*
X151030000Y-81210000D01*
X151030000Y-83160000D02*
X151030000Y-83110000D01*
X152550000Y-80040000D02*
X152550000Y-81040000D01*
X152550000Y-82160000D02*
X152550000Y-83160000D01*
X152550000Y-83160000D02*
X151030000Y-83160000D01*
X150730000Y-81550000D02*
X150250000Y-81550000D01*
X150490000Y-81220000D01*
X150730000Y-81550000D01*
G36*
X150730000Y-81550000D02*
G01*
X150250000Y-81550000D01*
X150490000Y-81220000D01*
X150730000Y-81550000D01*
G37*
%TO.C,Q48*%
X123330000Y-53440000D02*
X124850000Y-53440000D01*
X123330000Y-53490000D02*
X123330000Y-53440000D01*
X123330000Y-55390000D02*
X123330000Y-54610000D01*
X123330000Y-56560000D02*
X123330000Y-56510000D01*
X124850000Y-53440000D02*
X124850000Y-54440000D01*
X124850000Y-55560000D02*
X124850000Y-56560000D01*
X124850000Y-56560000D02*
X123330000Y-56560000D01*
X123030000Y-54950000D02*
X122550000Y-54950000D01*
X122790000Y-54620000D01*
X123030000Y-54950000D01*
G36*
X123030000Y-54950000D02*
G01*
X122550000Y-54950000D01*
X122790000Y-54620000D01*
X123030000Y-54950000D01*
G37*
%TO.C,Q47*%
X123330000Y-57240000D02*
X124850000Y-57240000D01*
X123330000Y-57290000D02*
X123330000Y-57240000D01*
X123330000Y-59190000D02*
X123330000Y-58410000D01*
X123330000Y-60360000D02*
X123330000Y-60310000D01*
X124850000Y-57240000D02*
X124850000Y-58240000D01*
X124850000Y-59360000D02*
X124850000Y-60360000D01*
X124850000Y-60360000D02*
X123330000Y-60360000D01*
X123030000Y-58750000D02*
X122550000Y-58750000D01*
X122790000Y-58420000D01*
X123030000Y-58750000D01*
G36*
X123030000Y-58750000D02*
G01*
X122550000Y-58750000D01*
X122790000Y-58420000D01*
X123030000Y-58750000D01*
G37*
%TO.C,Q46*%
X123330000Y-61040000D02*
X124850000Y-61040000D01*
X123330000Y-61090000D02*
X123330000Y-61040000D01*
X123330000Y-62990000D02*
X123330000Y-62210000D01*
X123330000Y-64160000D02*
X123330000Y-64110000D01*
X124850000Y-61040000D02*
X124850000Y-62040000D01*
X124850000Y-63160000D02*
X124850000Y-64160000D01*
X124850000Y-64160000D02*
X123330000Y-64160000D01*
X123030000Y-62550000D02*
X122550000Y-62550000D01*
X122790000Y-62220000D01*
X123030000Y-62550000D01*
G36*
X123030000Y-62550000D02*
G01*
X122550000Y-62550000D01*
X122790000Y-62220000D01*
X123030000Y-62550000D01*
G37*
%TO.C,Q45*%
X123330000Y-64840000D02*
X124850000Y-64840000D01*
X123330000Y-64890000D02*
X123330000Y-64840000D01*
X123330000Y-66790000D02*
X123330000Y-66010000D01*
X123330000Y-67960000D02*
X123330000Y-67910000D01*
X124850000Y-64840000D02*
X124850000Y-65840000D01*
X124850000Y-66960000D02*
X124850000Y-67960000D01*
X124850000Y-67960000D02*
X123330000Y-67960000D01*
X123030000Y-66350000D02*
X122550000Y-66350000D01*
X122790000Y-66020000D01*
X123030000Y-66350000D01*
G36*
X123030000Y-66350000D02*
G01*
X122550000Y-66350000D01*
X122790000Y-66020000D01*
X123030000Y-66350000D01*
G37*
%TO.C,Q44*%
X123330000Y-68640000D02*
X124850000Y-68640000D01*
X123330000Y-68690000D02*
X123330000Y-68640000D01*
X123330000Y-70590000D02*
X123330000Y-69810000D01*
X123330000Y-71760000D02*
X123330000Y-71710000D01*
X124850000Y-68640000D02*
X124850000Y-69640000D01*
X124850000Y-70760000D02*
X124850000Y-71760000D01*
X124850000Y-71760000D02*
X123330000Y-71760000D01*
X123030000Y-70150000D02*
X122550000Y-70150000D01*
X122790000Y-69820000D01*
X123030000Y-70150000D01*
G36*
X123030000Y-70150000D02*
G01*
X122550000Y-70150000D01*
X122790000Y-69820000D01*
X123030000Y-70150000D01*
G37*
%TO.C,Q43*%
X123330000Y-72440000D02*
X124850000Y-72440000D01*
X123330000Y-72490000D02*
X123330000Y-72440000D01*
X123330000Y-74390000D02*
X123330000Y-73610000D01*
X123330000Y-75560000D02*
X123330000Y-75510000D01*
X124850000Y-72440000D02*
X124850000Y-73440000D01*
X124850000Y-74560000D02*
X124850000Y-75560000D01*
X124850000Y-75560000D02*
X123330000Y-75560000D01*
X123030000Y-73950000D02*
X122550000Y-73950000D01*
X122790000Y-73620000D01*
X123030000Y-73950000D01*
G36*
X123030000Y-73950000D02*
G01*
X122550000Y-73950000D01*
X122790000Y-73620000D01*
X123030000Y-73950000D01*
G37*
%TO.C,Q42*%
X123330000Y-76240000D02*
X124850000Y-76240000D01*
X123330000Y-76290000D02*
X123330000Y-76240000D01*
X123330000Y-78190000D02*
X123330000Y-77410000D01*
X123330000Y-79360000D02*
X123330000Y-79310000D01*
X124850000Y-76240000D02*
X124850000Y-77240000D01*
X124850000Y-78360000D02*
X124850000Y-79360000D01*
X124850000Y-79360000D02*
X123330000Y-79360000D01*
X123030000Y-77750000D02*
X122550000Y-77750000D01*
X122790000Y-77420000D01*
X123030000Y-77750000D01*
G36*
X123030000Y-77750000D02*
G01*
X122550000Y-77750000D01*
X122790000Y-77420000D01*
X123030000Y-77750000D01*
G37*
%TO.C,Q41*%
X123330000Y-80040000D02*
X124850000Y-80040000D01*
X123330000Y-80090000D02*
X123330000Y-80040000D01*
X123330000Y-81990000D02*
X123330000Y-81210000D01*
X123330000Y-83160000D02*
X123330000Y-83110000D01*
X124850000Y-80040000D02*
X124850000Y-81040000D01*
X124850000Y-82160000D02*
X124850000Y-83160000D01*
X124850000Y-83160000D02*
X123330000Y-83160000D01*
X123030000Y-81550000D02*
X122550000Y-81550000D01*
X122790000Y-81220000D01*
X123030000Y-81550000D01*
G36*
X123030000Y-81550000D02*
G01*
X122550000Y-81550000D01*
X122790000Y-81220000D01*
X123030000Y-81550000D01*
G37*
%TO.C,Q40*%
X119030000Y-53440000D02*
X120550000Y-53440000D01*
X119030000Y-53490000D02*
X119030000Y-53440000D01*
X119030000Y-55390000D02*
X119030000Y-54610000D01*
X119030000Y-56560000D02*
X119030000Y-56510000D01*
X120550000Y-53440000D02*
X120550000Y-54440000D01*
X120550000Y-55560000D02*
X120550000Y-56560000D01*
X120550000Y-56560000D02*
X119030000Y-56560000D01*
X118730000Y-54950000D02*
X118250000Y-54950000D01*
X118490000Y-54620000D01*
X118730000Y-54950000D01*
G36*
X118730000Y-54950000D02*
G01*
X118250000Y-54950000D01*
X118490000Y-54620000D01*
X118730000Y-54950000D01*
G37*
%TO.C,Q39*%
X119030000Y-57240000D02*
X120550000Y-57240000D01*
X119030000Y-57290000D02*
X119030000Y-57240000D01*
X119030000Y-59190000D02*
X119030000Y-58410000D01*
X119030000Y-60360000D02*
X119030000Y-60310000D01*
X120550000Y-57240000D02*
X120550000Y-58240000D01*
X120550000Y-59360000D02*
X120550000Y-60360000D01*
X120550000Y-60360000D02*
X119030000Y-60360000D01*
X118730000Y-58750000D02*
X118250000Y-58750000D01*
X118490000Y-58420000D01*
X118730000Y-58750000D01*
G36*
X118730000Y-58750000D02*
G01*
X118250000Y-58750000D01*
X118490000Y-58420000D01*
X118730000Y-58750000D01*
G37*
%TO.C,Q38*%
X119030000Y-61040000D02*
X120550000Y-61040000D01*
X119030000Y-61090000D02*
X119030000Y-61040000D01*
X119030000Y-62990000D02*
X119030000Y-62210000D01*
X119030000Y-64160000D02*
X119030000Y-64110000D01*
X120550000Y-61040000D02*
X120550000Y-62040000D01*
X120550000Y-63160000D02*
X120550000Y-64160000D01*
X120550000Y-64160000D02*
X119030000Y-64160000D01*
X118730000Y-62550000D02*
X118250000Y-62550000D01*
X118490000Y-62220000D01*
X118730000Y-62550000D01*
G36*
X118730000Y-62550000D02*
G01*
X118250000Y-62550000D01*
X118490000Y-62220000D01*
X118730000Y-62550000D01*
G37*
%TO.C,Q37*%
X119030000Y-64840000D02*
X120550000Y-64840000D01*
X119030000Y-64890000D02*
X119030000Y-64840000D01*
X119030000Y-66790000D02*
X119030000Y-66010000D01*
X119030000Y-67960000D02*
X119030000Y-67910000D01*
X120550000Y-64840000D02*
X120550000Y-65840000D01*
X120550000Y-66960000D02*
X120550000Y-67960000D01*
X120550000Y-67960000D02*
X119030000Y-67960000D01*
X118730000Y-66350000D02*
X118250000Y-66350000D01*
X118490000Y-66020000D01*
X118730000Y-66350000D01*
G36*
X118730000Y-66350000D02*
G01*
X118250000Y-66350000D01*
X118490000Y-66020000D01*
X118730000Y-66350000D01*
G37*
%TO.C,Q36*%
X119030000Y-68640000D02*
X120550000Y-68640000D01*
X119030000Y-68690000D02*
X119030000Y-68640000D01*
X119030000Y-70590000D02*
X119030000Y-69810000D01*
X119030000Y-71760000D02*
X119030000Y-71710000D01*
X120550000Y-68640000D02*
X120550000Y-69640000D01*
X120550000Y-70760000D02*
X120550000Y-71760000D01*
X120550000Y-71760000D02*
X119030000Y-71760000D01*
X118730000Y-70150000D02*
X118250000Y-70150000D01*
X118490000Y-69820000D01*
X118730000Y-70150000D01*
G36*
X118730000Y-70150000D02*
G01*
X118250000Y-70150000D01*
X118490000Y-69820000D01*
X118730000Y-70150000D01*
G37*
%TO.C,Q35*%
X119030000Y-72440000D02*
X120550000Y-72440000D01*
X119030000Y-72490000D02*
X119030000Y-72440000D01*
X119030000Y-74390000D02*
X119030000Y-73610000D01*
X119030000Y-75560000D02*
X119030000Y-75510000D01*
X120550000Y-72440000D02*
X120550000Y-73440000D01*
X120550000Y-74560000D02*
X120550000Y-75560000D01*
X120550000Y-75560000D02*
X119030000Y-75560000D01*
X118730000Y-73950000D02*
X118250000Y-73950000D01*
X118490000Y-73620000D01*
X118730000Y-73950000D01*
G36*
X118730000Y-73950000D02*
G01*
X118250000Y-73950000D01*
X118490000Y-73620000D01*
X118730000Y-73950000D01*
G37*
%TO.C,Q34*%
X119030000Y-76240000D02*
X120550000Y-76240000D01*
X119030000Y-76290000D02*
X119030000Y-76240000D01*
X119030000Y-78190000D02*
X119030000Y-77410000D01*
X119030000Y-79360000D02*
X119030000Y-79310000D01*
X120550000Y-76240000D02*
X120550000Y-77240000D01*
X120550000Y-78360000D02*
X120550000Y-79360000D01*
X120550000Y-79360000D02*
X119030000Y-79360000D01*
X118730000Y-77750000D02*
X118250000Y-77750000D01*
X118490000Y-77420000D01*
X118730000Y-77750000D01*
G36*
X118730000Y-77750000D02*
G01*
X118250000Y-77750000D01*
X118490000Y-77420000D01*
X118730000Y-77750000D01*
G37*
%TO.C,Q33*%
X119030000Y-80040000D02*
X120550000Y-80040000D01*
X119030000Y-80090000D02*
X119030000Y-80040000D01*
X119030000Y-81990000D02*
X119030000Y-81210000D01*
X119030000Y-83160000D02*
X119030000Y-83110000D01*
X120550000Y-80040000D02*
X120550000Y-81040000D01*
X120550000Y-82160000D02*
X120550000Y-83160000D01*
X120550000Y-83160000D02*
X119030000Y-83160000D01*
X118730000Y-81550000D02*
X118250000Y-81550000D01*
X118490000Y-81220000D01*
X118730000Y-81550000D01*
G36*
X118730000Y-81550000D02*
G01*
X118250000Y-81550000D01*
X118490000Y-81220000D01*
X118730000Y-81550000D01*
G37*
%TO.C,Q16*%
X74150000Y-56560000D02*
X72630000Y-56560000D01*
X74150000Y-56510000D02*
X74150000Y-56560000D01*
X74150000Y-54610000D02*
X74150000Y-55390000D01*
X74150000Y-53440000D02*
X74150000Y-53490000D01*
X72630000Y-56560000D02*
X72630000Y-55560000D01*
X72630000Y-54440000D02*
X72630000Y-53440000D01*
X72630000Y-53440000D02*
X74150000Y-53440000D01*
X74690000Y-55380000D02*
X74450000Y-55050000D01*
X74930000Y-55050000D01*
X74690000Y-55380000D01*
G36*
X74690000Y-55380000D02*
G01*
X74450000Y-55050000D01*
X74930000Y-55050000D01*
X74690000Y-55380000D01*
G37*
%TO.C,Q15*%
X69850000Y-56560000D02*
X68330000Y-56560000D01*
X69850000Y-56510000D02*
X69850000Y-56560000D01*
X69850000Y-54610000D02*
X69850000Y-55390000D01*
X69850000Y-53440000D02*
X69850000Y-53490000D01*
X68330000Y-56560000D02*
X68330000Y-55560000D01*
X68330000Y-54440000D02*
X68330000Y-53440000D01*
X68330000Y-53440000D02*
X69850000Y-53440000D01*
X70390000Y-55380000D02*
X70150000Y-55050000D01*
X70630000Y-55050000D01*
X70390000Y-55380000D01*
G36*
X70390000Y-55380000D02*
G01*
X70150000Y-55050000D01*
X70630000Y-55050000D01*
X70390000Y-55380000D01*
G37*
%TO.C,Q14*%
X74150000Y-60360000D02*
X72630000Y-60360000D01*
X74150000Y-60310000D02*
X74150000Y-60360000D01*
X74150000Y-58410000D02*
X74150000Y-59190000D01*
X74150000Y-57240000D02*
X74150000Y-57290000D01*
X72630000Y-60360000D02*
X72630000Y-59360000D01*
X72630000Y-58240000D02*
X72630000Y-57240000D01*
X72630000Y-57240000D02*
X74150000Y-57240000D01*
X74690000Y-59180000D02*
X74450000Y-58850000D01*
X74930000Y-58850000D01*
X74690000Y-59180000D01*
G36*
X74690000Y-59180000D02*
G01*
X74450000Y-58850000D01*
X74930000Y-58850000D01*
X74690000Y-59180000D01*
G37*
%TO.C,Q13*%
X69850000Y-60360000D02*
X68330000Y-60360000D01*
X69850000Y-60310000D02*
X69850000Y-60360000D01*
X69850000Y-58410000D02*
X69850000Y-59190000D01*
X69850000Y-57240000D02*
X69850000Y-57290000D01*
X68330000Y-60360000D02*
X68330000Y-59360000D01*
X68330000Y-58240000D02*
X68330000Y-57240000D01*
X68330000Y-57240000D02*
X69850000Y-57240000D01*
X70390000Y-59180000D02*
X70150000Y-58850000D01*
X70630000Y-58850000D01*
X70390000Y-59180000D01*
G36*
X70390000Y-59180000D02*
G01*
X70150000Y-58850000D01*
X70630000Y-58850000D01*
X70390000Y-59180000D01*
G37*
%TO.C,Q12*%
X74150000Y-64160000D02*
X72630000Y-64160000D01*
X74150000Y-64110000D02*
X74150000Y-64160000D01*
X74150000Y-62210000D02*
X74150000Y-62990000D01*
X74150000Y-61040000D02*
X74150000Y-61090000D01*
X72630000Y-64160000D02*
X72630000Y-63160000D01*
X72630000Y-62040000D02*
X72630000Y-61040000D01*
X72630000Y-61040000D02*
X74150000Y-61040000D01*
X74690000Y-62980000D02*
X74450000Y-62650000D01*
X74930000Y-62650000D01*
X74690000Y-62980000D01*
G36*
X74690000Y-62980000D02*
G01*
X74450000Y-62650000D01*
X74930000Y-62650000D01*
X74690000Y-62980000D01*
G37*
%TO.C,Q11*%
X69850000Y-64160000D02*
X68330000Y-64160000D01*
X69850000Y-64110000D02*
X69850000Y-64160000D01*
X69850000Y-62210000D02*
X69850000Y-62990000D01*
X69850000Y-61040000D02*
X69850000Y-61090000D01*
X68330000Y-64160000D02*
X68330000Y-63160000D01*
X68330000Y-62040000D02*
X68330000Y-61040000D01*
X68330000Y-61040000D02*
X69850000Y-61040000D01*
X70390000Y-62980000D02*
X70150000Y-62650000D01*
X70630000Y-62650000D01*
X70390000Y-62980000D01*
G36*
X70390000Y-62980000D02*
G01*
X70150000Y-62650000D01*
X70630000Y-62650000D01*
X70390000Y-62980000D01*
G37*
%TO.C,Q10*%
X74150000Y-67960000D02*
X72630000Y-67960000D01*
X74150000Y-67910000D02*
X74150000Y-67960000D01*
X74150000Y-66010000D02*
X74150000Y-66790000D01*
X74150000Y-64840000D02*
X74150000Y-64890000D01*
X72630000Y-67960000D02*
X72630000Y-66960000D01*
X72630000Y-65840000D02*
X72630000Y-64840000D01*
X72630000Y-64840000D02*
X74150000Y-64840000D01*
X74690000Y-66780000D02*
X74450000Y-66450000D01*
X74930000Y-66450000D01*
X74690000Y-66780000D01*
G36*
X74690000Y-66780000D02*
G01*
X74450000Y-66450000D01*
X74930000Y-66450000D01*
X74690000Y-66780000D01*
G37*
%TO.C,Q9*%
X69850000Y-67960000D02*
X68330000Y-67960000D01*
X69850000Y-67910000D02*
X69850000Y-67960000D01*
X69850000Y-66010000D02*
X69850000Y-66790000D01*
X69850000Y-64840000D02*
X69850000Y-64890000D01*
X68330000Y-67960000D02*
X68330000Y-66960000D01*
X68330000Y-65840000D02*
X68330000Y-64840000D01*
X68330000Y-64840000D02*
X69850000Y-64840000D01*
X70390000Y-66780000D02*
X70150000Y-66450000D01*
X70630000Y-66450000D01*
X70390000Y-66780000D01*
G36*
X70390000Y-66780000D02*
G01*
X70150000Y-66450000D01*
X70630000Y-66450000D01*
X70390000Y-66780000D01*
G37*
%TO.C,Q6*%
X74150000Y-75560000D02*
X72630000Y-75560000D01*
X74150000Y-75510000D02*
X74150000Y-75560000D01*
X74150000Y-73610000D02*
X74150000Y-74390000D01*
X74150000Y-72440000D02*
X74150000Y-72490000D01*
X72630000Y-75560000D02*
X72630000Y-74560000D01*
X72630000Y-73440000D02*
X72630000Y-72440000D01*
X72630000Y-72440000D02*
X74150000Y-72440000D01*
X74690000Y-74380000D02*
X74450000Y-74050000D01*
X74930000Y-74050000D01*
X74690000Y-74380000D01*
G36*
X74690000Y-74380000D02*
G01*
X74450000Y-74050000D01*
X74930000Y-74050000D01*
X74690000Y-74380000D01*
G37*
%TO.C,Q5*%
X69850000Y-75560000D02*
X68330000Y-75560000D01*
X69850000Y-75510000D02*
X69850000Y-75560000D01*
X69850000Y-73610000D02*
X69850000Y-74390000D01*
X69850000Y-72440000D02*
X69850000Y-72490000D01*
X68330000Y-75560000D02*
X68330000Y-74560000D01*
X68330000Y-73440000D02*
X68330000Y-72440000D01*
X68330000Y-72440000D02*
X69850000Y-72440000D01*
X70390000Y-74380000D02*
X70150000Y-74050000D01*
X70630000Y-74050000D01*
X70390000Y-74380000D01*
G36*
X70390000Y-74380000D02*
G01*
X70150000Y-74050000D01*
X70630000Y-74050000D01*
X70390000Y-74380000D01*
G37*
%TO.C,Q4*%
X74150000Y-79360000D02*
X72630000Y-79360000D01*
X74150000Y-79310000D02*
X74150000Y-79360000D01*
X74150000Y-77410000D02*
X74150000Y-78190000D01*
X74150000Y-76240000D02*
X74150000Y-76290000D01*
X72630000Y-79360000D02*
X72630000Y-78360000D01*
X72630000Y-77240000D02*
X72630000Y-76240000D01*
X72630000Y-76240000D02*
X74150000Y-76240000D01*
X74690000Y-78180000D02*
X74450000Y-77850000D01*
X74930000Y-77850000D01*
X74690000Y-78180000D01*
G36*
X74690000Y-78180000D02*
G01*
X74450000Y-77850000D01*
X74930000Y-77850000D01*
X74690000Y-78180000D01*
G37*
%TO.C,Q3*%
X69850000Y-79360000D02*
X68330000Y-79360000D01*
X69850000Y-79310000D02*
X69850000Y-79360000D01*
X69850000Y-77410000D02*
X69850000Y-78190000D01*
X69850000Y-76240000D02*
X69850000Y-76290000D01*
X68330000Y-79360000D02*
X68330000Y-78360000D01*
X68330000Y-77240000D02*
X68330000Y-76240000D01*
X68330000Y-76240000D02*
X69850000Y-76240000D01*
X70390000Y-78180000D02*
X70150000Y-77850000D01*
X70630000Y-77850000D01*
X70390000Y-78180000D01*
G36*
X70390000Y-78180000D02*
G01*
X70150000Y-77850000D01*
X70630000Y-77850000D01*
X70390000Y-78180000D01*
G37*
%TO.C,J15*%
X55810000Y-101545000D02*
X57190000Y-101545000D01*
X55810000Y-102925000D02*
X55810000Y-101545000D01*
X55810000Y-104195000D02*
X55810000Y-106845000D01*
X55810000Y-104195000D02*
X58570000Y-104195000D01*
X55810000Y-106845000D02*
X58570000Y-106845000D01*
X58570000Y-104195000D02*
X58570000Y-106845000D01*
%TO.C,J14*%
X134332500Y-110332500D02*
X135712500Y-110332500D01*
X134332500Y-111712500D02*
X134332500Y-110332500D01*
X134332500Y-112982500D02*
X134332500Y-115632500D01*
X134332500Y-112982500D02*
X137092500Y-112982500D01*
X134332500Y-115632500D02*
X137092500Y-115632500D01*
X137092500Y-112982500D02*
X137092500Y-115632500D01*
%TO.C,J11*%
X99720000Y-115380000D02*
X99720000Y-114000000D01*
X101100000Y-115380000D02*
X99720000Y-115380000D01*
X102370000Y-115380000D02*
X120260000Y-115380000D01*
X102370000Y-115380000D02*
X102370000Y-112620000D01*
X120260000Y-115380000D02*
X120260000Y-112620000D01*
X102370000Y-112620000D02*
X120260000Y-112620000D01*
%TO.C,J8*%
X55810000Y-88000000D02*
X57190000Y-88000000D01*
X55810000Y-89380000D02*
X55810000Y-88000000D01*
X55810000Y-90650000D02*
X55810000Y-98380000D01*
X55810000Y-90650000D02*
X58570000Y-90650000D01*
X55810000Y-98380000D02*
X58570000Y-98380000D01*
X58570000Y-90650000D02*
X58570000Y-98380000D01*
%TO.C,J5*%
X55810000Y-61620000D02*
X57190000Y-61620000D01*
X55810000Y-63000000D02*
X55810000Y-61620000D01*
X55810000Y-64270000D02*
X55810000Y-72000000D01*
X55810000Y-64270000D02*
X58570000Y-64270000D01*
X55810000Y-72000000D02*
X58570000Y-72000000D01*
X58570000Y-64270000D02*
X58570000Y-72000000D01*
%TO.C,J3*%
X143210000Y-31720000D02*
X144590000Y-31720000D01*
X143210000Y-33100000D02*
X143210000Y-31720000D01*
X143210000Y-34370000D02*
X143210000Y-85280000D01*
X143210000Y-34370000D02*
X145970000Y-34370000D01*
X143210000Y-85280000D02*
X145970000Y-85280000D01*
X145970000Y-34370000D02*
X145970000Y-85280000D01*
%TO.C,J2*%
X111210000Y-31720000D02*
X112590000Y-31720000D01*
X111210000Y-33100000D02*
X111210000Y-31720000D01*
X111210000Y-34370000D02*
X111210000Y-85280000D01*
X111210000Y-34370000D02*
X113970000Y-34370000D01*
X111210000Y-85280000D02*
X113970000Y-85280000D01*
X113970000Y-34370000D02*
X113970000Y-85280000D01*
%TO.C,J1*%
X79210000Y-31720000D02*
X80590000Y-31720000D01*
X79210000Y-33100000D02*
X79210000Y-31720000D01*
X79210000Y-34370000D02*
X79210000Y-85280000D01*
X79210000Y-34370000D02*
X81970000Y-34370000D01*
X79210000Y-85280000D02*
X81970000Y-85280000D01*
X81970000Y-34370000D02*
X81970000Y-85280000D01*
%TO.C,Q146*%
X92850000Y-32560000D02*
X91330000Y-32560000D01*
X92850000Y-32510000D02*
X92850000Y-32560000D01*
X92850000Y-30610000D02*
X92850000Y-31390000D01*
X92850000Y-29440000D02*
X92850000Y-29490000D01*
X91330000Y-32560000D02*
X91330000Y-31560000D01*
X91330000Y-30440000D02*
X91330000Y-29440000D01*
X91330000Y-29440000D02*
X92850000Y-29440000D01*
X93390000Y-31380000D02*
X93150000Y-31050000D01*
X93630000Y-31050000D01*
X93390000Y-31380000D01*
G36*
X93390000Y-31380000D02*
G01*
X93150000Y-31050000D01*
X93630000Y-31050000D01*
X93390000Y-31380000D01*
G37*
%TD*%
%LPC*%
D15*
%TO.C,Q156*%
X202537500Y-72300000D03*
X200662500Y-73250000D03*
X200662500Y-71350000D03*
%TD*%
%TO.C,Q158*%
X202537500Y-64300000D03*
X200662500Y-65250000D03*
X200662500Y-63350000D03*
%TD*%
%TO.C,Q159*%
X202537500Y-60300000D03*
X200662500Y-61250000D03*
X200662500Y-59350000D03*
%TD*%
D16*
%TO.C,R48*%
X206520000Y-55200000D03*
X204880000Y-55200000D03*
%TD*%
%TO.C,R46*%
X206520000Y-63200000D03*
X204880000Y-63200000D03*
%TD*%
%TO.C,R45*%
X206520000Y-67200000D03*
X204880000Y-67200000D03*
%TD*%
%TO.C,R44*%
X206520000Y-71200000D03*
X204880000Y-71200000D03*
%TD*%
%TO.C,R43*%
X206520000Y-75200000D03*
X204880000Y-75200000D03*
%TD*%
%TO.C,R42*%
X206520000Y-83200000D03*
X204880000Y-83200000D03*
%TD*%
%TO.C,R41*%
X206520000Y-79200000D03*
X204880000Y-79200000D03*
%TD*%
D15*
%TO.C,Q160*%
X200662500Y-55350000D03*
X200662500Y-57250000D03*
X202537500Y-56300000D03*
%TD*%
%TO.C,Q157*%
X200662500Y-67350000D03*
X200662500Y-69250000D03*
X202537500Y-68300000D03*
%TD*%
%TO.C,Q155*%
X200662500Y-75350000D03*
X200662500Y-77250000D03*
X202537500Y-76300000D03*
%TD*%
%TO.C,Q154*%
X200662500Y-83350000D03*
X200662500Y-85250000D03*
X202537500Y-84300000D03*
%TD*%
%TO.C,Q153*%
X200662500Y-79350000D03*
X200662500Y-81250000D03*
X202537500Y-80300000D03*
%TD*%
D17*
%TO.C,D16*%
X204750000Y-57300000D03*
X206330000Y-57300000D03*
%TD*%
%TO.C,D15*%
X204710000Y-61300000D03*
X206290000Y-61300000D03*
%TD*%
%TO.C,D14*%
X204710000Y-65300000D03*
X206290000Y-65300000D03*
%TD*%
%TO.C,D13*%
X204710000Y-69300000D03*
X206290000Y-69300000D03*
%TD*%
%TO.C,D12*%
X204710000Y-73300000D03*
X206290000Y-73300000D03*
%TD*%
%TO.C,D11*%
X204772500Y-77300000D03*
X206352500Y-77300000D03*
%TD*%
%TO.C,D10*%
X204710000Y-85300000D03*
X206290000Y-85300000D03*
%TD*%
%TO.C,D9*%
X204710000Y-81300000D03*
X206290000Y-81300000D03*
%TD*%
D18*
%TO.C,C16*%
X151612500Y-111937500D03*
X151612500Y-113837500D03*
%TD*%
%TO.C,C15*%
X154662500Y-111937500D03*
X154662500Y-113837500D03*
%TD*%
%TO.C,C14*%
X157562500Y-111937500D03*
X157562500Y-113837500D03*
%TD*%
%TO.C,C13*%
X160612500Y-111937500D03*
X160612500Y-113837500D03*
%TD*%
D19*
%TO.C,C12*%
X167650000Y-24750000D03*
X167650000Y-22850000D03*
%TD*%
%TO.C,C11*%
X164600000Y-24750000D03*
X164600000Y-22850000D03*
%TD*%
%TO.C,C10*%
X161550000Y-24750000D03*
X161550000Y-22850000D03*
%TD*%
%TO.C,C9*%
X158500000Y-24750000D03*
X158500000Y-22850000D03*
%TD*%
D18*
%TO.C,C8*%
X139412500Y-111937500D03*
X139412500Y-113837500D03*
%TD*%
%TO.C,C7*%
X142462500Y-111937500D03*
X142462500Y-113837500D03*
%TD*%
%TO.C,C6*%
X145512500Y-111937500D03*
X145512500Y-113837500D03*
%TD*%
%TO.C,C5*%
X148562500Y-111937500D03*
X148562500Y-113837500D03*
%TD*%
D19*
%TO.C,C4*%
X139800000Y-24700000D03*
X139800000Y-22800000D03*
%TD*%
%TO.C,C3*%
X136750000Y-24700000D03*
X136750000Y-22800000D03*
%TD*%
%TO.C,C2*%
X133700000Y-24700000D03*
X133700000Y-22800000D03*
%TD*%
%TO.C,C1*%
X130650000Y-24700000D03*
X130650000Y-22800000D03*
%TD*%
D20*
%TO.C,H1*%
X77390000Y-29300000D03*
%TD*%
%TO.C,H2*%
X83790000Y-29300000D03*
%TD*%
%TO.C,H3*%
X77390000Y-87700000D03*
%TD*%
%TO.C,H4*%
X83790000Y-87700000D03*
%TD*%
%TO.C,H5*%
X109390000Y-29300000D03*
%TD*%
%TO.C,H6*%
X115790000Y-29300000D03*
%TD*%
%TO.C,H7*%
X109390000Y-87700000D03*
%TD*%
%TO.C,H8*%
X115790000Y-87700000D03*
%TD*%
%TO.C,H9*%
X141390000Y-29300000D03*
%TD*%
%TO.C,H10*%
X147790000Y-29300000D03*
%TD*%
%TO.C,H11*%
X141390000Y-87700000D03*
%TD*%
%TO.C,H12*%
X147790000Y-87700000D03*
%TD*%
%TO.C,H13*%
X173390000Y-29300000D03*
%TD*%
%TO.C,H14*%
X179790000Y-29300000D03*
%TD*%
%TO.C,H15*%
X173390000Y-87700000D03*
%TD*%
%TO.C,H16*%
X179790000Y-87700000D03*
%TD*%
D21*
%TO.C,H17*%
X53500000Y-23500000D03*
%TD*%
%TO.C,H18*%
X206600000Y-23500000D03*
%TD*%
%TO.C,H19*%
X53500000Y-116500000D03*
%TD*%
%TO.C,H20*%
X206600000Y-116500000D03*
%TD*%
D22*
%TO.C,J12*%
X57190000Y-48900000D03*
X57190000Y-46360000D03*
X57190000Y-43820000D03*
X57190000Y-41280000D03*
X57190000Y-38740000D03*
X57190000Y-36200000D03*
X57190000Y-33660000D03*
D23*
X57190000Y-31120000D03*
%TD*%
D22*
%TO.C,J9*%
X204200000Y-48880000D03*
X204200000Y-46340000D03*
X204200000Y-43800000D03*
X204200000Y-41260000D03*
X204200000Y-38720000D03*
X204200000Y-36180000D03*
X204200000Y-33640000D03*
D23*
X204200000Y-31100000D03*
%TD*%
D22*
%TO.C,J7*%
X57190000Y-83820000D03*
X57190000Y-81280000D03*
X57190000Y-78740000D03*
D23*
X57190000Y-76200000D03*
%TD*%
D22*
%TO.C,J13*%
X126140000Y-23800000D03*
D23*
X123600000Y-23800000D03*
%TD*%
D24*
%TO.C,R8*%
X88290000Y-105000000D03*
X88290000Y-104000000D03*
%TD*%
D25*
%TO.C,Q136*%
X88290000Y-106962500D03*
X89240000Y-108837500D03*
X87340000Y-108837500D03*
%TD*%
D22*
%TO.C,J10*%
X83880000Y-114000000D03*
X81340000Y-114000000D03*
X78800000Y-114000000D03*
X76260000Y-114000000D03*
X73720000Y-114000000D03*
X71180000Y-114000000D03*
X68640000Y-114000000D03*
D23*
X66100000Y-114000000D03*
%TD*%
D25*
%TO.C,Q142*%
X115690000Y-106962500D03*
X116640000Y-108837500D03*
X114740000Y-108837500D03*
%TD*%
%TO.C,Q144*%
X123290000Y-106962500D03*
X124240000Y-108837500D03*
X122340000Y-108837500D03*
%TD*%
%TO.C,Q137*%
X96690000Y-106962500D03*
X97640000Y-108837500D03*
X95740000Y-108837500D03*
%TD*%
%TO.C,Q139*%
X104290000Y-106962500D03*
X105240000Y-108837500D03*
X103340000Y-108837500D03*
%TD*%
%TO.C,Q138*%
X100490000Y-106962500D03*
X101440000Y-108837500D03*
X99540000Y-108837500D03*
%TD*%
%TO.C,Q141*%
X111890000Y-106962500D03*
X112840000Y-108837500D03*
X110940000Y-108837500D03*
%TD*%
%TO.C,Q140*%
X108090000Y-106962500D03*
X109040000Y-108837500D03*
X107140000Y-108837500D03*
%TD*%
%TO.C,Q143*%
X119490000Y-106962500D03*
X120440000Y-108837500D03*
X118540000Y-108837500D03*
%TD*%
D24*
%TO.C,R27*%
X104290000Y-105000000D03*
X104290000Y-104000000D03*
%TD*%
%TO.C,R29*%
X111890000Y-105000000D03*
X111890000Y-104000000D03*
%TD*%
%TO.C,R26*%
X100490000Y-105000000D03*
X100490000Y-104000000D03*
%TD*%
%TO.C,R25*%
X96690000Y-105000000D03*
X96690000Y-104000000D03*
%TD*%
%TO.C,R28*%
X108090000Y-105000000D03*
X108090000Y-104000000D03*
%TD*%
%TO.C,R30*%
X115690000Y-105000000D03*
X115690000Y-104000000D03*
%TD*%
%TO.C,R32*%
X123290000Y-105000000D03*
X123290000Y-104000000D03*
%TD*%
%TO.C,R31*%
X119490000Y-105000000D03*
X119490000Y-104000000D03*
%TD*%
D22*
%TO.C,J4*%
X176590000Y-83900000D03*
X176590000Y-81360000D03*
X176590000Y-78820000D03*
X176590000Y-76280000D03*
X176590000Y-73740000D03*
X176590000Y-71200000D03*
X176590000Y-68660000D03*
X176590000Y-66120000D03*
X176590000Y-63580000D03*
X176590000Y-61040000D03*
X176590000Y-58500000D03*
X176590000Y-55960000D03*
X176590000Y-53420000D03*
X176590000Y-50880000D03*
X176590000Y-48340000D03*
X176590000Y-45800000D03*
X176590000Y-43260000D03*
X176590000Y-40720000D03*
X176590000Y-38180000D03*
X176590000Y-35640000D03*
D23*
X176590000Y-33100000D03*
%TD*%
D26*
%TO.C,Q97*%
X168452500Y-81600000D03*
X170327500Y-80650000D03*
X170327500Y-82550000D03*
%TD*%
D15*
%TO.C,Q89*%
X157027500Y-81600000D03*
X155152500Y-82550000D03*
X155152500Y-80650000D03*
%TD*%
D26*
%TO.C,Q54*%
X136452500Y-62600000D03*
X138327500Y-61650000D03*
X138327500Y-63550000D03*
%TD*%
%TO.C,Q57*%
X132152500Y-81600000D03*
X134027500Y-80650000D03*
X134027500Y-82550000D03*
%TD*%
%TO.C,Q59*%
X132152500Y-74000000D03*
X134027500Y-73050000D03*
X134027500Y-74950000D03*
%TD*%
%TO.C,Q51*%
X136452500Y-74000000D03*
X138327500Y-73050000D03*
X138327500Y-74950000D03*
%TD*%
%TO.C,Q56*%
X136452500Y-55000000D03*
X138327500Y-54050000D03*
X138327500Y-55950000D03*
%TD*%
%TO.C,Q49*%
X136452500Y-81600000D03*
X138327500Y-80650000D03*
X138327500Y-82550000D03*
%TD*%
%TO.C,Q50*%
X136452500Y-77800000D03*
X138327500Y-76850000D03*
X138327500Y-78750000D03*
%TD*%
%TO.C,Q52*%
X136452500Y-70200000D03*
X138327500Y-69250000D03*
X138327500Y-71150000D03*
%TD*%
%TO.C,Q53*%
X136452500Y-66400000D03*
X138327500Y-65450000D03*
X138327500Y-67350000D03*
%TD*%
%TO.C,Q55*%
X136452500Y-58800000D03*
X138327500Y-57850000D03*
X138327500Y-59750000D03*
%TD*%
%TO.C,Q58*%
X132152500Y-77800000D03*
X134027500Y-76850000D03*
X134027500Y-78750000D03*
%TD*%
%TO.C,Q61*%
X132152500Y-66400000D03*
X134027500Y-65450000D03*
X134027500Y-67350000D03*
%TD*%
%TO.C,Q63*%
X132152500Y-58800000D03*
X134027500Y-57850000D03*
X134027500Y-59750000D03*
%TD*%
%TO.C,Q62*%
X132152500Y-62600000D03*
X134027500Y-61650000D03*
X134027500Y-63550000D03*
%TD*%
%TO.C,Q60*%
X132152500Y-70200000D03*
X134027500Y-69250000D03*
X134027500Y-71150000D03*
%TD*%
%TO.C,Q64*%
X132152500Y-55000000D03*
X134027500Y-54050000D03*
X134027500Y-55950000D03*
%TD*%
D15*
%TO.C,Q71*%
X86852500Y-57850000D03*
X86852500Y-59750000D03*
X88727500Y-58800000D03*
%TD*%
%TO.C,Q79*%
X91152500Y-57850000D03*
X91152500Y-59750000D03*
X93027500Y-58800000D03*
%TD*%
D26*
%TO.C,Q8*%
X72452500Y-70200000D03*
X74327500Y-69250000D03*
X74327500Y-71150000D03*
%TD*%
%TO.C,Q7*%
X68152500Y-70200000D03*
X70027500Y-69250000D03*
X70027500Y-71150000D03*
%TD*%
%TO.C,Q2*%
X74327500Y-82550000D03*
X74327500Y-80650000D03*
X72452500Y-81600000D03*
%TD*%
%TO.C,Q1*%
X68152500Y-81600000D03*
X70027500Y-80650000D03*
X70027500Y-82550000D03*
%TD*%
D15*
%TO.C,Q67*%
X88727500Y-74000000D03*
X86852500Y-74950000D03*
X86852500Y-73050000D03*
%TD*%
%TO.C,Q66*%
X88727500Y-77800000D03*
X86852500Y-78750000D03*
X86852500Y-76850000D03*
%TD*%
%TO.C,Q70*%
X88727500Y-62600000D03*
X86852500Y-63550000D03*
X86852500Y-61650000D03*
%TD*%
%TO.C,Q65*%
X88727500Y-81600000D03*
X86852500Y-82550000D03*
X86852500Y-80650000D03*
%TD*%
%TO.C,Q69*%
X88727500Y-66400000D03*
X86852500Y-67350000D03*
X86852500Y-65450000D03*
%TD*%
%TO.C,Q78*%
X93027500Y-62600000D03*
X91152500Y-63550000D03*
X91152500Y-61650000D03*
%TD*%
%TO.C,Q68*%
X88727500Y-70200000D03*
X86852500Y-71150000D03*
X86852500Y-69250000D03*
%TD*%
%TO.C,Q77*%
X93027500Y-66400000D03*
X91152500Y-67350000D03*
X91152500Y-65450000D03*
%TD*%
%TO.C,Q74*%
X93027500Y-77800000D03*
X91152500Y-78750000D03*
X91152500Y-76850000D03*
%TD*%
%TO.C,Q75*%
X93027500Y-74000000D03*
X91152500Y-74950000D03*
X91152500Y-73050000D03*
%TD*%
%TO.C,Q73*%
X93027500Y-81600000D03*
X91152500Y-82550000D03*
X91152500Y-80650000D03*
%TD*%
%TO.C,Q72*%
X88727500Y-55000000D03*
X86852500Y-55950000D03*
X86852500Y-54050000D03*
%TD*%
%TO.C,Q76*%
X93027500Y-70200000D03*
X91152500Y-71150000D03*
X91152500Y-69250000D03*
%TD*%
%TO.C,Q80*%
X93027500Y-55000000D03*
X91152500Y-55950000D03*
X91152500Y-54050000D03*
%TD*%
D26*
%TO.C,Q19*%
X106327500Y-74950000D03*
X106327500Y-73050000D03*
X104452500Y-74000000D03*
%TD*%
%TO.C,Q21*%
X106327500Y-67350000D03*
X106327500Y-65450000D03*
X104452500Y-66400000D03*
%TD*%
%TO.C,Q17*%
X104452500Y-81600000D03*
X106327500Y-80650000D03*
X106327500Y-82550000D03*
%TD*%
%TO.C,Q18*%
X106327500Y-78750000D03*
X106327500Y-76850000D03*
X104452500Y-77800000D03*
%TD*%
%TO.C,Q20*%
X106327500Y-71150000D03*
X106327500Y-69250000D03*
X104452500Y-70200000D03*
%TD*%
%TO.C,Q22*%
X106327500Y-63550000D03*
X106327500Y-61650000D03*
X104452500Y-62600000D03*
%TD*%
%TO.C,Q27*%
X102027500Y-74950000D03*
X102027500Y-73050000D03*
X100152500Y-74000000D03*
%TD*%
%TO.C,Q28*%
X102027500Y-71150000D03*
X102027500Y-69250000D03*
X100152500Y-70200000D03*
%TD*%
%TO.C,Q24*%
X106327500Y-55950000D03*
X106327500Y-54050000D03*
X104452500Y-55000000D03*
%TD*%
%TO.C,Q23*%
X106327500Y-59750000D03*
X106327500Y-57850000D03*
X104452500Y-58800000D03*
%TD*%
%TO.C,Q25*%
X102027500Y-82550000D03*
X102027500Y-80650000D03*
X100152500Y-81600000D03*
%TD*%
%TO.C,Q26*%
X102027500Y-78750000D03*
X102027500Y-76850000D03*
X100152500Y-77800000D03*
%TD*%
%TO.C,Q29*%
X102027500Y-67350000D03*
X102027500Y-65450000D03*
X100152500Y-66400000D03*
%TD*%
%TO.C,Q30*%
X102027500Y-63550000D03*
X102027500Y-61650000D03*
X100152500Y-62600000D03*
%TD*%
%TO.C,Q31*%
X102027500Y-59750000D03*
X102027500Y-57850000D03*
X100152500Y-58800000D03*
%TD*%
%TO.C,Q32*%
X102027500Y-55950000D03*
X102027500Y-54050000D03*
X100152500Y-55000000D03*
%TD*%
D27*
%TO.C,R156*%
X71970000Y-29900000D03*
X73610000Y-29900000D03*
%TD*%
%TO.C,R40*%
X163792500Y-111887500D03*
X165432500Y-111887500D03*
%TD*%
D16*
%TO.C,R39*%
X185310000Y-29900000D03*
X183670000Y-29900000D03*
%TD*%
D27*
%TO.C,R38*%
X167970000Y-29900000D03*
X169610000Y-29900000D03*
%TD*%
D16*
%TO.C,R37*%
X153310000Y-29900000D03*
X151670000Y-29900000D03*
%TD*%
D27*
%TO.C,R36*%
X135970000Y-29900000D03*
X137610000Y-29900000D03*
%TD*%
D16*
%TO.C,R35*%
X121310000Y-29900000D03*
X119670000Y-29900000D03*
%TD*%
D27*
%TO.C,R34*%
X103970000Y-29900000D03*
X105610000Y-29900000D03*
%TD*%
D16*
%TO.C,R33*%
X89310000Y-29900000D03*
X87670000Y-29900000D03*
%TD*%
D26*
%TO.C,Q152*%
X189027500Y-31950000D03*
X189027500Y-30050000D03*
X187152500Y-31000000D03*
%TD*%
D15*
%TO.C,Q151*%
X164152500Y-30050000D03*
X164152500Y-31950000D03*
X166027500Y-31000000D03*
%TD*%
D26*
%TO.C,Q150*%
X157027500Y-31950000D03*
X157027500Y-30050000D03*
X155152500Y-31000000D03*
%TD*%
D15*
%TO.C,Q149*%
X132152500Y-30050000D03*
X132152500Y-31950000D03*
X134027500Y-31000000D03*
%TD*%
D26*
%TO.C,Q148*%
X125027500Y-31950000D03*
X125027500Y-30050000D03*
X123152500Y-31000000D03*
%TD*%
D15*
%TO.C,Q147*%
X100152500Y-30050000D03*
X100152500Y-31950000D03*
X102027500Y-31000000D03*
%TD*%
%TO.C,Q145*%
X68142500Y-30050000D03*
X68142500Y-31950000D03*
X70017500Y-31000000D03*
%TD*%
D17*
%TO.C,D24*%
X72200000Y-32000000D03*
X73780000Y-32000000D03*
%TD*%
%TO.C,D8*%
X163812500Y-113887500D03*
X165392500Y-113887500D03*
%TD*%
D28*
%TO.C,D7*%
X184980000Y-32000000D03*
X183400000Y-32000000D03*
%TD*%
D17*
%TO.C,D6*%
X168200000Y-32000000D03*
X169780000Y-32000000D03*
%TD*%
D28*
%TO.C,D5*%
X152980000Y-32000000D03*
X151400000Y-32000000D03*
%TD*%
D17*
%TO.C,D4*%
X136200000Y-32000000D03*
X137780000Y-32000000D03*
%TD*%
D28*
%TO.C,D3*%
X121080000Y-32000000D03*
X119500000Y-32000000D03*
%TD*%
D17*
%TO.C,D2*%
X104200000Y-32000000D03*
X105780000Y-32000000D03*
%TD*%
D28*
%TO.C,D1*%
X88980000Y-32000000D03*
X87400000Y-32000000D03*
%TD*%
D24*
%TO.C,R24*%
X122090000Y-104000000D03*
X122090000Y-105000000D03*
%TD*%
%TO.C,R23*%
X118290000Y-104000000D03*
X118290000Y-105000000D03*
%TD*%
%TO.C,R22*%
X114490000Y-104000000D03*
X114490000Y-105000000D03*
%TD*%
%TO.C,R21*%
X110690000Y-104000000D03*
X110690000Y-105000000D03*
%TD*%
%TO.C,R20*%
X106890000Y-104000000D03*
X106890000Y-105000000D03*
%TD*%
%TO.C,R19*%
X103090000Y-104000000D03*
X103090000Y-105000000D03*
%TD*%
%TO.C,R18*%
X99290000Y-104000000D03*
X99290000Y-105000000D03*
%TD*%
%TO.C,R17*%
X95490000Y-104000000D03*
X95490000Y-105000000D03*
%TD*%
D29*
%TO.C,R16*%
X88290000Y-101700000D03*
X88290000Y-100700000D03*
%TD*%
%TO.C,R15*%
X84490000Y-101700000D03*
X84490000Y-100700000D03*
%TD*%
%TO.C,R14*%
X80690000Y-101700000D03*
X80690000Y-100700000D03*
%TD*%
%TO.C,R13*%
X76890000Y-101700000D03*
X76890000Y-100700000D03*
%TD*%
%TO.C,R12*%
X73090000Y-101700000D03*
X73090000Y-100700000D03*
%TD*%
%TO.C,R11*%
X69290000Y-101700000D03*
X69290000Y-100700000D03*
%TD*%
%TO.C,R10*%
X65490000Y-101700000D03*
X65490000Y-100700000D03*
%TD*%
%TO.C,R9*%
X61690000Y-101700000D03*
X61690000Y-100700000D03*
%TD*%
D24*
%TO.C,R7*%
X84490000Y-104000000D03*
X84490000Y-105000000D03*
%TD*%
%TO.C,R6*%
X80690000Y-104000000D03*
X80690000Y-105000000D03*
%TD*%
%TO.C,R5*%
X76890000Y-104000000D03*
X76890000Y-105000000D03*
%TD*%
%TO.C,R4*%
X73090000Y-104000000D03*
X73090000Y-105000000D03*
%TD*%
%TO.C,R3*%
X69290000Y-104000000D03*
X69290000Y-105000000D03*
%TD*%
%TO.C,R2*%
X65490000Y-104000000D03*
X65490000Y-105000000D03*
%TD*%
%TO.C,R1*%
X61690000Y-104000000D03*
X61690000Y-105000000D03*
%TD*%
D25*
%TO.C,Q135*%
X83540000Y-108837500D03*
X85440000Y-108837500D03*
X84490000Y-106962500D03*
%TD*%
%TO.C,Q134*%
X79740000Y-108837500D03*
X81640000Y-108837500D03*
X80690000Y-106962500D03*
%TD*%
%TO.C,Q133*%
X75940000Y-108837500D03*
X77840000Y-108837500D03*
X76890000Y-106962500D03*
%TD*%
%TO.C,Q132*%
X72140000Y-108837500D03*
X74040000Y-108837500D03*
X73090000Y-106962500D03*
%TD*%
%TO.C,Q131*%
X68340000Y-108837500D03*
X70240000Y-108837500D03*
X69290000Y-106962500D03*
%TD*%
%TO.C,Q130*%
X64540000Y-108837500D03*
X66440000Y-108837500D03*
X65490000Y-106962500D03*
%TD*%
%TO.C,Q129*%
X60740000Y-108837500D03*
X62640000Y-108837500D03*
X61690000Y-106962500D03*
%TD*%
D15*
%TO.C,Q128*%
X187152500Y-54050000D03*
X187152500Y-55950000D03*
X189027500Y-55000000D03*
%TD*%
%TO.C,Q127*%
X187152500Y-57850000D03*
X187152500Y-59750000D03*
X189027500Y-58800000D03*
%TD*%
%TO.C,Q126*%
X187152500Y-61650000D03*
X187152500Y-63550000D03*
X189027500Y-62600000D03*
%TD*%
%TO.C,Q125*%
X187152500Y-65450000D03*
X187152500Y-67350000D03*
X189027500Y-66400000D03*
%TD*%
%TO.C,Q124*%
X187152500Y-69250000D03*
X187152500Y-71150000D03*
X189027500Y-70200000D03*
%TD*%
%TO.C,Q123*%
X187152500Y-73050000D03*
X187152500Y-74950000D03*
X189027500Y-74000000D03*
%TD*%
%TO.C,Q122*%
X187152500Y-76850000D03*
X187152500Y-78750000D03*
X189027500Y-77800000D03*
%TD*%
%TO.C,Q121*%
X187152500Y-80650000D03*
X187152500Y-82550000D03*
X189027500Y-81600000D03*
%TD*%
%TO.C,Q120*%
X182852500Y-54050000D03*
X182852500Y-55950000D03*
X184727500Y-55000000D03*
%TD*%
%TO.C,Q119*%
X182852500Y-57850000D03*
X182852500Y-59750000D03*
X184727500Y-58800000D03*
%TD*%
%TO.C,Q118*%
X182852500Y-61650000D03*
X182852500Y-63550000D03*
X184727500Y-62600000D03*
%TD*%
%TO.C,Q117*%
X182852500Y-65450000D03*
X182852500Y-67350000D03*
X184727500Y-66400000D03*
%TD*%
%TO.C,Q116*%
X182852500Y-69250000D03*
X182852500Y-71150000D03*
X184727500Y-70200000D03*
%TD*%
%TO.C,Q115*%
X182852500Y-73050000D03*
X182852500Y-74950000D03*
X184727500Y-74000000D03*
%TD*%
%TO.C,Q114*%
X182852500Y-76850000D03*
X182852500Y-78750000D03*
X184727500Y-77800000D03*
%TD*%
%TO.C,Q113*%
X182852500Y-80650000D03*
X182852500Y-82550000D03*
X184727500Y-81600000D03*
%TD*%
D26*
%TO.C,Q112*%
X166027500Y-55950000D03*
X166027500Y-54050000D03*
X164152500Y-55000000D03*
%TD*%
%TO.C,Q111*%
X166027500Y-59750000D03*
X166027500Y-57850000D03*
X164152500Y-58800000D03*
%TD*%
%TO.C,Q110*%
X166027500Y-63550000D03*
X166027500Y-61650000D03*
X164152500Y-62600000D03*
%TD*%
%TO.C,Q109*%
X166027500Y-67350000D03*
X166027500Y-65450000D03*
X164152500Y-66400000D03*
%TD*%
%TO.C,Q108*%
X166027500Y-71150000D03*
X166027500Y-69250000D03*
X164152500Y-70200000D03*
%TD*%
%TO.C,Q107*%
X166027500Y-74950000D03*
X166027500Y-73050000D03*
X164152500Y-74000000D03*
%TD*%
%TO.C,Q106*%
X166027500Y-78750000D03*
X166027500Y-76850000D03*
X164152500Y-77800000D03*
%TD*%
%TO.C,Q105*%
X166027500Y-82550000D03*
X166027500Y-80650000D03*
X164152500Y-81600000D03*
%TD*%
%TO.C,Q104*%
X170327500Y-55950000D03*
X170327500Y-54050000D03*
X168452500Y-55000000D03*
%TD*%
%TO.C,Q103*%
X170327500Y-59750000D03*
X170327500Y-57850000D03*
X168452500Y-58800000D03*
%TD*%
%TO.C,Q102*%
X170327500Y-63550000D03*
X170327500Y-61650000D03*
X168452500Y-62600000D03*
%TD*%
%TO.C,Q101*%
X170327500Y-67350000D03*
X170327500Y-65450000D03*
X168452500Y-66400000D03*
%TD*%
%TO.C,Q100*%
X170327500Y-71150000D03*
X170327500Y-69250000D03*
X168452500Y-70200000D03*
%TD*%
%TO.C,Q99*%
X170327500Y-74950000D03*
X170327500Y-73050000D03*
X168452500Y-74000000D03*
%TD*%
%TO.C,Q98*%
X170327500Y-78750000D03*
X170327500Y-76850000D03*
X168452500Y-77800000D03*
%TD*%
D15*
%TO.C,Q96*%
X155152500Y-54050000D03*
X155152500Y-55950000D03*
X157027500Y-55000000D03*
%TD*%
%TO.C,Q95*%
X155152500Y-57850000D03*
X155152500Y-59750000D03*
X157027500Y-58800000D03*
%TD*%
%TO.C,Q94*%
X155152500Y-61650000D03*
X155152500Y-63550000D03*
X157027500Y-62600000D03*
%TD*%
%TO.C,Q93*%
X155152500Y-65450000D03*
X155152500Y-67350000D03*
X157027500Y-66400000D03*
%TD*%
%TO.C,Q92*%
X155152500Y-69250000D03*
X155152500Y-71150000D03*
X157027500Y-70200000D03*
%TD*%
%TO.C,Q91*%
X155152500Y-73050000D03*
X155152500Y-74950000D03*
X157027500Y-74000000D03*
%TD*%
%TO.C,Q90*%
X155152500Y-76850000D03*
X155152500Y-78750000D03*
X157027500Y-77800000D03*
%TD*%
%TO.C,Q88*%
X150852500Y-54050000D03*
X150852500Y-55950000D03*
X152727500Y-55000000D03*
%TD*%
%TO.C,Q87*%
X150852500Y-57850000D03*
X150852500Y-59750000D03*
X152727500Y-58800000D03*
%TD*%
%TO.C,Q86*%
X150852500Y-61650000D03*
X150852500Y-63550000D03*
X152727500Y-62600000D03*
%TD*%
%TO.C,Q85*%
X150852500Y-65450000D03*
X150852500Y-67350000D03*
X152727500Y-66400000D03*
%TD*%
%TO.C,Q84*%
X150852500Y-69250000D03*
X150852500Y-71150000D03*
X152727500Y-70200000D03*
%TD*%
%TO.C,Q83*%
X150852500Y-73050000D03*
X150852500Y-74950000D03*
X152727500Y-74000000D03*
%TD*%
%TO.C,Q82*%
X150852500Y-76850000D03*
X150852500Y-78750000D03*
X152727500Y-77800000D03*
%TD*%
%TO.C,Q81*%
X150852500Y-80650000D03*
X150852500Y-82550000D03*
X152727500Y-81600000D03*
%TD*%
%TO.C,Q48*%
X123152500Y-54050000D03*
X123152500Y-55950000D03*
X125027500Y-55000000D03*
%TD*%
%TO.C,Q47*%
X123152500Y-57850000D03*
X123152500Y-59750000D03*
X125027500Y-58800000D03*
%TD*%
%TO.C,Q46*%
X123152500Y-61650000D03*
X123152500Y-63550000D03*
X125027500Y-62600000D03*
%TD*%
%TO.C,Q45*%
X123152500Y-65450000D03*
X123152500Y-67350000D03*
X125027500Y-66400000D03*
%TD*%
%TO.C,Q44*%
X123152500Y-69250000D03*
X123152500Y-71150000D03*
X125027500Y-70200000D03*
%TD*%
%TO.C,Q43*%
X123152500Y-73050000D03*
X123152500Y-74950000D03*
X125027500Y-74000000D03*
%TD*%
%TO.C,Q42*%
X123152500Y-76850000D03*
X123152500Y-78750000D03*
X125027500Y-77800000D03*
%TD*%
%TO.C,Q41*%
X123152500Y-80650000D03*
X123152500Y-82550000D03*
X125027500Y-81600000D03*
%TD*%
%TO.C,Q40*%
X118852500Y-54050000D03*
X118852500Y-55950000D03*
X120727500Y-55000000D03*
%TD*%
%TO.C,Q39*%
X118852500Y-57850000D03*
X118852500Y-59750000D03*
X120727500Y-58800000D03*
%TD*%
%TO.C,Q38*%
X118852500Y-61650000D03*
X118852500Y-63550000D03*
X120727500Y-62600000D03*
%TD*%
%TO.C,Q37*%
X118852500Y-65450000D03*
X118852500Y-67350000D03*
X120727500Y-66400000D03*
%TD*%
%TO.C,Q36*%
X118852500Y-69250000D03*
X118852500Y-71150000D03*
X120727500Y-70200000D03*
%TD*%
%TO.C,Q35*%
X118852500Y-73050000D03*
X118852500Y-74950000D03*
X120727500Y-74000000D03*
%TD*%
%TO.C,Q34*%
X118852500Y-76850000D03*
X118852500Y-78750000D03*
X120727500Y-77800000D03*
%TD*%
%TO.C,Q33*%
X118852500Y-80650000D03*
X118852500Y-82550000D03*
X120727500Y-81600000D03*
%TD*%
D26*
%TO.C,Q16*%
X74327500Y-55950000D03*
X74327500Y-54050000D03*
X72452500Y-55000000D03*
%TD*%
%TO.C,Q15*%
X70027500Y-55950000D03*
X70027500Y-54050000D03*
X68152500Y-55000000D03*
%TD*%
%TO.C,Q14*%
X74327500Y-59750000D03*
X74327500Y-57850000D03*
X72452500Y-58800000D03*
%TD*%
%TO.C,Q13*%
X70027500Y-59750000D03*
X70027500Y-57850000D03*
X68152500Y-58800000D03*
%TD*%
%TO.C,Q12*%
X74327500Y-63550000D03*
X74327500Y-61650000D03*
X72452500Y-62600000D03*
%TD*%
%TO.C,Q11*%
X70027500Y-63550000D03*
X70027500Y-61650000D03*
X68152500Y-62600000D03*
%TD*%
%TO.C,Q10*%
X74327500Y-67350000D03*
X74327500Y-65450000D03*
X72452500Y-66400000D03*
%TD*%
%TO.C,Q9*%
X70027500Y-67350000D03*
X70027500Y-65450000D03*
X68152500Y-66400000D03*
%TD*%
%TO.C,Q6*%
X74327500Y-74950000D03*
X74327500Y-73050000D03*
X72452500Y-74000000D03*
%TD*%
%TO.C,Q5*%
X70027500Y-74950000D03*
X70027500Y-73050000D03*
X68152500Y-74000000D03*
%TD*%
%TO.C,Q4*%
X74327500Y-78750000D03*
X74327500Y-76850000D03*
X72452500Y-77800000D03*
%TD*%
%TO.C,Q3*%
X70027500Y-78750000D03*
X70027500Y-76850000D03*
X68152500Y-77800000D03*
%TD*%
D23*
%TO.C,J15*%
X57190000Y-102925000D03*
D22*
X57190000Y-105465000D03*
%TD*%
D23*
%TO.C,J14*%
X135712500Y-111712500D03*
D22*
X135712500Y-114252500D03*
%TD*%
D23*
%TO.C,J11*%
X101100000Y-114000000D03*
D22*
X103640000Y-114000000D03*
X106180000Y-114000000D03*
X108720000Y-114000000D03*
X111260000Y-114000000D03*
X113800000Y-114000000D03*
X116340000Y-114000000D03*
X118880000Y-114000000D03*
%TD*%
D23*
%TO.C,J8*%
X57190000Y-89380000D03*
D22*
X57190000Y-91920000D03*
X57190000Y-94460000D03*
X57190000Y-97000000D03*
%TD*%
D23*
%TO.C,J5*%
X57190000Y-63000000D03*
D22*
X57190000Y-65540000D03*
X57190000Y-68080000D03*
X57190000Y-70620000D03*
%TD*%
D23*
%TO.C,J3*%
X144590000Y-33100000D03*
D22*
X144590000Y-35640000D03*
X144590000Y-38180000D03*
X144590000Y-40720000D03*
X144590000Y-43260000D03*
X144590000Y-45800000D03*
X144590000Y-48340000D03*
X144590000Y-50880000D03*
X144590000Y-53420000D03*
X144590000Y-55960000D03*
X144590000Y-58500000D03*
X144590000Y-61040000D03*
X144590000Y-63580000D03*
X144590000Y-66120000D03*
X144590000Y-68660000D03*
X144590000Y-71200000D03*
X144590000Y-73740000D03*
X144590000Y-76280000D03*
X144590000Y-78820000D03*
X144590000Y-81360000D03*
X144590000Y-83900000D03*
%TD*%
D23*
%TO.C,J2*%
X112590000Y-33100000D03*
D22*
X112590000Y-35640000D03*
X112590000Y-38180000D03*
X112590000Y-40720000D03*
X112590000Y-43260000D03*
X112590000Y-45800000D03*
X112590000Y-48340000D03*
X112590000Y-50880000D03*
X112590000Y-53420000D03*
X112590000Y-55960000D03*
X112590000Y-58500000D03*
X112590000Y-61040000D03*
X112590000Y-63580000D03*
X112590000Y-66120000D03*
X112590000Y-68660000D03*
X112590000Y-71200000D03*
X112590000Y-73740000D03*
X112590000Y-76280000D03*
X112590000Y-78820000D03*
X112590000Y-81360000D03*
X112590000Y-83900000D03*
%TD*%
D23*
%TO.C,J1*%
X80590000Y-33100000D03*
D22*
X80590000Y-35640000D03*
X80590000Y-38180000D03*
X80590000Y-40720000D03*
X80590000Y-43260000D03*
X80590000Y-45800000D03*
X80590000Y-48340000D03*
X80590000Y-50880000D03*
X80590000Y-53420000D03*
X80590000Y-55960000D03*
X80590000Y-58500000D03*
X80590000Y-61040000D03*
X80590000Y-63580000D03*
X80590000Y-66120000D03*
X80590000Y-68660000D03*
X80590000Y-71200000D03*
X80590000Y-73740000D03*
X80590000Y-76280000D03*
X80590000Y-78820000D03*
X80590000Y-81360000D03*
X80590000Y-83900000D03*
%TD*%
D26*
%TO.C,Q146*%
X93027500Y-31950000D03*
X93027500Y-30050000D03*
X91152500Y-31000000D03*
%TD*%
D16*
%TO.C,R47*%
X206520000Y-59200000D03*
X204880000Y-59200000D03*
%TD*%
%LPD*%
M02*
