%TF.GenerationSoftware,KiCad,Pcbnew,9.0.7*%
%TF.CreationDate,2026-02-26T13:27:38+01:00*%
%TF.ProjectId,Register_Holder_V1.0,52656769-7374-4657-925f-486f6c646572,rev?*%
%TF.SameCoordinates,Original*%
%TF.FileFunction,Copper,L1,Top*%
%TF.FilePolarity,Positive*%
%FSLAX46Y46*%
G04 Gerber Fmt 4.6, Leading zero omitted, Abs format (unit mm)*
G04 Created by KiCad (PCBNEW 9.0.7) date 2026-02-26 13:27:38*
%MOMM*%
%LPD*%
G01*
G04 APERTURE LIST*
G04 Aperture macros list*
%AMRoundRect*
0 Rectangle with rounded corners*
0 $1 Rounding radius*
0 $2 $3 $4 $5 $6 $7 $8 $9 X,Y pos of 4 corners*
0 Add a 4 corners polygon primitive as box body*
4,1,4,$2,$3,$4,$5,$6,$7,$8,$9,$2,$3,0*
0 Add four circle primitives for the rounded corners*
1,1,$1+$1,$2,$3*
1,1,$1+$1,$4,$5*
1,1,$1+$1,$6,$7*
1,1,$1+$1,$8,$9*
0 Add four rect primitives between the rounded corners*
20,1,$1+$1,$2,$3,$4,$5,0*
20,1,$1+$1,$4,$5,$6,$7,0*
20,1,$1+$1,$6,$7,$8,$9,0*
20,1,$1+$1,$8,$9,$2,$3,0*%
G04 Aperture macros list end*
%TA.AperFunction,SMDPad,CuDef*%
%ADD10RoundRect,0.140000X-0.170000X0.140000X-0.170000X-0.140000X0.170000X-0.140000X0.170000X0.140000X0*%
%TD*%
%TA.AperFunction,SMDPad,CuDef*%
%ADD11RoundRect,0.150000X0.587500X0.150000X-0.587500X0.150000X-0.587500X-0.150000X0.587500X-0.150000X0*%
%TD*%
%TA.AperFunction,SMDPad,CuDef*%
%ADD12RoundRect,0.150000X-0.587500X-0.150000X0.587500X-0.150000X0.587500X0.150000X-0.587500X0.150000X0*%
%TD*%
%TA.AperFunction,ComponentPad*%
%ADD13R,1.700000X1.700000*%
%TD*%
%TA.AperFunction,ComponentPad*%
%ADD14C,1.700000*%
%TD*%
%TA.AperFunction,SMDPad,CuDef*%
%ADD15RoundRect,0.200000X0.200000X0.275000X-0.200000X0.275000X-0.200000X-0.275000X0.200000X-0.275000X0*%
%TD*%
%TA.AperFunction,SMDPad,CuDef*%
%ADD16RoundRect,0.150000X0.150000X-0.587500X0.150000X0.587500X-0.150000X0.587500X-0.150000X-0.587500X0*%
%TD*%
%TA.AperFunction,SMDPad,CuDef*%
%ADD17RoundRect,0.220000X-0.220000X-0.255000X0.220000X-0.255000X0.220000X0.255000X-0.220000X0.255000X0*%
%TD*%
%TA.AperFunction,SMDPad,CuDef*%
%ADD18RoundRect,0.250000X0.475000X-0.250000X0.475000X0.250000X-0.475000X0.250000X-0.475000X-0.250000X0*%
%TD*%
%TA.AperFunction,SMDPad,CuDef*%
%ADD19RoundRect,0.200000X-0.200000X-0.275000X0.200000X-0.275000X0.200000X0.275000X-0.200000X0.275000X0*%
%TD*%
%TA.AperFunction,SMDPad,CuDef*%
%ADD20RoundRect,0.250000X-0.475000X0.250000X-0.475000X-0.250000X0.475000X-0.250000X0.475000X0.250000X0*%
%TD*%
%TA.AperFunction,SMDPad,CuDef*%
%ADD21RoundRect,0.140000X0.170000X-0.140000X0.170000X0.140000X-0.170000X0.140000X-0.170000X-0.140000X0*%
%TD*%
%TA.AperFunction,SMDPad,CuDef*%
%ADD22RoundRect,0.220000X0.220000X0.255000X-0.220000X0.255000X-0.220000X-0.255000X0.220000X-0.255000X0*%
%TD*%
%TA.AperFunction,ViaPad*%
%ADD23C,0.600000*%
%TD*%
%TA.AperFunction,ViaPad*%
%ADD24C,1.000000*%
%TD*%
%TA.AperFunction,ViaPad*%
%ADD25C,1.500000*%
%TD*%
%TA.AperFunction,Conductor*%
%ADD26C,0.200000*%
%TD*%
%TA.AperFunction,Conductor*%
%ADD27C,0.500000*%
%TD*%
%TA.AperFunction,Conductor*%
%ADD28C,0.600000*%
%TD*%
%TA.AperFunction,Conductor*%
%ADD29C,1.000000*%
%TD*%
G04 APERTURE END LIST*
D10*
%TO.P,R3,1*%
%TO.N,VCC*%
X69290000Y-104000000D03*
%TO.P,R3,2*%
%TO.N,Net-(J10-Pin_3)*%
X69290000Y-105000000D03*
%TD*%
D11*
%TO.P,Q53,1,G*%
%TO.N,Net-(J7-Pin_3)*%
X138327500Y-67350000D03*
%TO.P,Q53,2,S*%
%TO.N,GND*%
X138327500Y-65450000D03*
%TO.P,Q53,3,D*%
%TO.N,Net-(Q53-D)*%
X136452500Y-66400000D03*
%TD*%
D12*
%TO.P,Q44,1,G*%
%TO.N,Net-(J2-Pin_18)*%
X123152500Y-69250000D03*
%TO.P,Q44,2,S*%
%TO.N,Net-(Q36-D)*%
X123152500Y-71150000D03*
%TO.P,Q44,3,D*%
%TO.N,Net-(Q124-D)*%
X125027500Y-70200000D03*
%TD*%
D11*
%TO.P,Q60,1,G*%
%TO.N,Net-(J3-Pin_18)*%
X134027500Y-71150000D03*
%TO.P,Q60,2,S*%
%TO.N,Net-(Q52-D)*%
X134027500Y-69250000D03*
%TO.P,Q60,3,D*%
%TO.N,Net-(Q108-D)*%
X132152500Y-70200000D03*
%TD*%
D13*
%TO.P,J3,1,Pin_1*%
%TO.N,VCC*%
X144590000Y-33100000D03*
D14*
%TO.P,J3,2,Pin_2*%
%TO.N,GND*%
X144590000Y-35640000D03*
%TO.P,J3,3,Pin_3*%
%TO.N,RST*%
X144590000Y-38180000D03*
%TO.P,J3,4,Pin_4*%
%TO.N,Net-(J3-Pin_4)*%
X144590000Y-40720000D03*
%TO.P,J3,5,Pin_5*%
%TO.N,Rising_Edge*%
X144590000Y-43260000D03*
%TO.P,J3,6,Pin_6*%
%TO.N,Net-(J1-Pin_6)*%
X144590000Y-45800000D03*
%TO.P,J3,7,Pin_7*%
%TO.N,Net-(J1-Pin_7)*%
X144590000Y-48340000D03*
%TO.P,J3,8,Pin_8*%
%TO.N,Net-(J1-Pin_8)*%
X144590000Y-50880000D03*
%TO.P,J3,9,Pin_9*%
%TO.N,Net-(J1-Pin_9)*%
X144590000Y-53420000D03*
%TO.P,J3,10,Pin_10*%
%TO.N,Net-(J1-Pin_10)*%
X144590000Y-55960000D03*
%TO.P,J3,11,Pin_11*%
%TO.N,Net-(J1-Pin_11)*%
X144590000Y-58500000D03*
%TO.P,J3,12,Pin_12*%
%TO.N,Net-(J1-Pin_12)*%
X144590000Y-61040000D03*
%TO.P,J3,13,Pin_13*%
%TO.N,Net-(J1-Pin_13)*%
X144590000Y-63580000D03*
%TO.P,J3,14,Pin_14*%
%TO.N,Net-(J3-Pin_14)*%
X144590000Y-66120000D03*
%TO.P,J3,15,Pin_15*%
%TO.N,Net-(J3-Pin_15)*%
X144590000Y-68660000D03*
%TO.P,J3,16,Pin_16*%
%TO.N,Net-(J3-Pin_16)*%
X144590000Y-71200000D03*
%TO.P,J3,17,Pin_17*%
%TO.N,Net-(J3-Pin_17)*%
X144590000Y-73740000D03*
%TO.P,J3,18,Pin_18*%
%TO.N,Net-(J3-Pin_18)*%
X144590000Y-76280000D03*
%TO.P,J3,19,Pin_19*%
%TO.N,Net-(J3-Pin_19)*%
X144590000Y-78820000D03*
%TO.P,J3,20,Pin_20*%
%TO.N,Net-(J3-Pin_20)*%
X144590000Y-81360000D03*
%TO.P,J3,21,Pin_21*%
%TO.N,Net-(J3-Pin_21)*%
X144590000Y-83900000D03*
%TD*%
D10*
%TO.P,R25,1*%
%TO.N,VCC*%
X96690000Y-104000000D03*
%TO.P,R25,2*%
%TO.N,Net-(J11-Pin_1)*%
X96690000Y-105000000D03*
%TD*%
D12*
%TO.P,Q74,1,G*%
%TO.N,Net-(J1-Pin_20)*%
X91152500Y-76850000D03*
%TO.P,Q74,2,S*%
%TO.N,Net-(Q66-D)*%
X91152500Y-78750000D03*
%TO.P,Q74,3,D*%
%TO.N,Net-(Q122-D)*%
X93027500Y-77800000D03*
%TD*%
%TO.P,Q83,1,G*%
%TO.N,Net-(J8-Pin_3)*%
X150852500Y-73050000D03*
%TO.P,Q83,2,S*%
%TO.N,GND*%
X150852500Y-74950000D03*
%TO.P,Q83,3,D*%
%TO.N,Net-(Q83-D)*%
X152727500Y-74000000D03*
%TD*%
D13*
%TO.P,J14,1,Pin_1*%
%TO.N,VCC*%
X135712500Y-111712500D03*
D14*
%TO.P,J14,2,Pin_2*%
%TO.N,GND*%
X135712500Y-114252500D03*
%TD*%
D11*
%TO.P,Q24,1,G*%
%TO.N,Net-(J7-Pin_2)*%
X106327500Y-55950000D03*
%TO.P,Q24,2,S*%
%TO.N,GND*%
X106327500Y-54050000D03*
%TO.P,Q24,3,D*%
%TO.N,Net-(Q24-D)*%
X104452500Y-55000000D03*
%TD*%
%TO.P,Q12,1,G*%
%TO.N,Net-(J7-Pin_1)*%
X74327500Y-63550000D03*
%TO.P,Q12,2,S*%
%TO.N,GND*%
X74327500Y-61650000D03*
%TO.P,Q12,3,D*%
%TO.N,Net-(Q11-S)*%
X72452500Y-62600000D03*
%TD*%
D15*
%TO.P,R41,1*%
%TO.N,VCC*%
X206520000Y-79200000D03*
%TO.P,R41,2*%
%TO.N,Net-(D9-Pad2)*%
X204880000Y-79200000D03*
%TD*%
D16*
%TO.P,Q131,1,G*%
%TO.N,Net-(Q11-D)*%
X68340000Y-108837500D03*
%TO.P,Q131,2,S*%
%TO.N,GND*%
X70240000Y-108837500D03*
%TO.P,Q131,3,D*%
%TO.N,Net-(J10-Pin_3)*%
X69290000Y-106962500D03*
%TD*%
D12*
%TO.P,Q128,1,G*%
%TO.N,Net-(J4-Pin_14)*%
X187152500Y-54050000D03*
%TO.P,Q128,2,S*%
%TO.N,Net-(Q120-D)*%
X187152500Y-55950000D03*
%TO.P,Q128,3,D*%
%TO.N,Net-(Q128-D)*%
X189027500Y-55000000D03*
%TD*%
%TO.P,Q147,1,G*%
%TO.N,Net-(J7-Pin_2)*%
X100152500Y-30050000D03*
%TO.P,Q147,2,S*%
%TO.N,GND*%
X100152500Y-31950000D03*
%TO.P,Q147,3,D*%
%TO.N,Net-(Q147-D)*%
X102027500Y-31000000D03*
%TD*%
%TO.P,Q116,1,G*%
%TO.N,Net-(J8-Pin_4)*%
X182852500Y-69250000D03*
%TO.P,Q116,2,S*%
%TO.N,GND*%
X182852500Y-71150000D03*
%TO.P,Q116,3,D*%
%TO.N,Net-(Q116-D)*%
X184727500Y-70200000D03*
%TD*%
D11*
%TO.P,Q61,1,G*%
%TO.N,Net-(J3-Pin_17)*%
X134027500Y-67350000D03*
%TO.P,Q61,2,S*%
%TO.N,Net-(Q53-D)*%
X134027500Y-65450000D03*
%TO.P,Q61,3,D*%
%TO.N,Net-(Q109-D)*%
X132152500Y-66400000D03*
%TD*%
D17*
%TO.P,D6,1*%
%TO.N,Net-(Q151-D)*%
X168200000Y-32000000D03*
%TO.P,D6,2*%
%TO.N,Net-(D6-Pad2)*%
X169780000Y-32000000D03*
%TD*%
D11*
%TO.P,Q99,1,G*%
%TO.N,Net-(J7-Pin_4)*%
X170327500Y-74950000D03*
%TO.P,Q99,2,S*%
%TO.N,GND*%
X170327500Y-73050000D03*
%TO.P,Q99,3,D*%
%TO.N,Net-(Q107-S)*%
X168452500Y-74000000D03*
%TD*%
%TO.P,Q62,1,G*%
%TO.N,Net-(J3-Pin_16)*%
X134027500Y-63550000D03*
%TO.P,Q62,2,S*%
%TO.N,Net-(Q54-D)*%
X134027500Y-61650000D03*
%TO.P,Q62,3,D*%
%TO.N,Net-(Q11-D)*%
X132152500Y-62600000D03*
%TD*%
D13*
%TO.P,J15,1,Pin_1*%
%TO.N,VCC*%
X57190000Y-105725000D03*
D14*
%TO.P,J15,2,Pin_2*%
%TO.N,GND*%
X57190000Y-108265000D03*
%TD*%
D18*
%TO.P,C10,1*%
%TO.N,VCC*%
X161550000Y-24750000D03*
%TO.P,C10,2*%
%TO.N,GND*%
X161550000Y-22850000D03*
%TD*%
D17*
%TO.P,D12,1*%
%TO.N,Net-(Q156-D)*%
X204710000Y-73300000D03*
%TO.P,D12,2*%
%TO.N,Net-(D12-Pad2)*%
X206290000Y-73300000D03*
%TD*%
%TO.P,D9,1*%
%TO.N,Net-(Q153-D)*%
X204710000Y-81300000D03*
%TO.P,D9,2*%
%TO.N,Net-(D9-Pad2)*%
X206290000Y-81300000D03*
%TD*%
D12*
%TO.P,Q80,1,G*%
%TO.N,Net-(J1-Pin_14)*%
X91152500Y-54050000D03*
%TO.P,Q80,2,S*%
%TO.N,Net-(Q72-D)*%
X91152500Y-55950000D03*
%TO.P,Q80,3,D*%
%TO.N,Net-(Q128-D)*%
X93027500Y-55000000D03*
%TD*%
D17*
%TO.P,D16,1*%
%TO.N,Net-(Q160-D)*%
X204750000Y-57300000D03*
%TO.P,D16,2*%
%TO.N,Net-(D16-Pad2)*%
X206330000Y-57300000D03*
%TD*%
D11*
%TO.P,Q51,1,G*%
%TO.N,Net-(J7-Pin_3)*%
X138327500Y-74950000D03*
%TO.P,Q51,2,S*%
%TO.N,GND*%
X138327500Y-73050000D03*
%TO.P,Q51,3,D*%
%TO.N,Net-(Q51-D)*%
X136452500Y-74000000D03*
%TD*%
D19*
%TO.P,R40,1*%
%TO.N,VCC*%
X163792500Y-111887500D03*
%TO.P,R40,2*%
%TO.N,Net-(D8-Pad2)*%
X165432500Y-111887500D03*
%TD*%
D12*
%TO.P,Q117,1,G*%
%TO.N,Net-(J8-Pin_4)*%
X182852500Y-65450000D03*
%TO.P,Q117,2,S*%
%TO.N,GND*%
X182852500Y-67350000D03*
%TO.P,Q117,3,D*%
%TO.N,Net-(Q117-D)*%
X184727500Y-66400000D03*
%TD*%
D11*
%TO.P,Q28,1,G*%
%TO.N,Net-(J2-Pin_18)*%
X102027500Y-71150000D03*
%TO.P,Q28,2,S*%
%TO.N,Net-(Q20-D)*%
X102027500Y-69250000D03*
%TO.P,Q28,3,D*%
%TO.N,Net-(Q108-D)*%
X100152500Y-70200000D03*
%TD*%
D12*
%TO.P,Q35,1,G*%
%TO.N,Net-(J8-Pin_2)*%
X118852500Y-73050000D03*
%TO.P,Q35,2,S*%
%TO.N,GND*%
X118852500Y-74950000D03*
%TO.P,Q35,3,D*%
%TO.N,Net-(Q35-D)*%
X120727500Y-74000000D03*
%TD*%
D16*
%TO.P,Q132,1,G*%
%TO.N,Net-(Q109-D)*%
X72140000Y-108837500D03*
%TO.P,Q132,2,S*%
%TO.N,GND*%
X74040000Y-108837500D03*
%TO.P,Q132,3,D*%
%TO.N,Net-(J10-Pin_4)*%
X73090000Y-106962500D03*
%TD*%
D20*
%TO.P,C5,1*%
%TO.N,VCC*%
X148562500Y-111937500D03*
%TO.P,C5,2*%
%TO.N,GND*%
X148562500Y-113837500D03*
%TD*%
D12*
%TO.P,Q39,1,G*%
%TO.N,Net-(J8-Pin_2)*%
X118852500Y-57850000D03*
%TO.P,Q39,2,S*%
%TO.N,GND*%
X118852500Y-59750000D03*
%TO.P,Q39,3,D*%
%TO.N,Net-(Q39-D)*%
X120727500Y-58800000D03*
%TD*%
D11*
%TO.P,Q19,1,G*%
%TO.N,Net-(J7-Pin_2)*%
X106327500Y-74950000D03*
%TO.P,Q19,2,S*%
%TO.N,GND*%
X106327500Y-73050000D03*
%TO.P,Q19,3,D*%
%TO.N,Net-(Q19-D)*%
X104452500Y-74000000D03*
%TD*%
D12*
%TO.P,Q85,1,G*%
%TO.N,Net-(J8-Pin_3)*%
X150852500Y-65450000D03*
%TO.P,Q85,2,S*%
%TO.N,GND*%
X150852500Y-67350000D03*
%TO.P,Q85,3,D*%
%TO.N,Net-(Q85-D)*%
X152727500Y-66400000D03*
%TD*%
D11*
%TO.P,Q16,1,G*%
%TO.N,Net-(J7-Pin_1)*%
X74327500Y-55950000D03*
%TO.P,Q16,2,S*%
%TO.N,GND*%
X74327500Y-54050000D03*
%TO.P,Q16,3,D*%
%TO.N,Net-(Q15-S)*%
X72452500Y-55000000D03*
%TD*%
D12*
%TO.P,Q70,1,G*%
%TO.N,Net-(J8-Pin_1)*%
X86852500Y-61650000D03*
%TO.P,Q70,2,S*%
%TO.N,GND*%
X86852500Y-63550000D03*
%TO.P,Q70,3,D*%
%TO.N,Net-(Q70-D)*%
X88727500Y-62600000D03*
%TD*%
%TO.P,Q72,1,G*%
%TO.N,Net-(J8-Pin_1)*%
X86852500Y-54050000D03*
%TO.P,Q72,2,S*%
%TO.N,GND*%
X86852500Y-55950000D03*
%TO.P,Q72,3,D*%
%TO.N,Net-(Q72-D)*%
X88727500Y-55000000D03*
%TD*%
D10*
%TO.P,R24,1*%
%TO.N,VCC*%
X122090000Y-104000000D03*
%TO.P,R24,2*%
%TO.N,Net-(Q121-D)*%
X122090000Y-105000000D03*
%TD*%
D12*
%TO.P,Q156,1,G*%
%TO.N,Net-(J1-Pin_10)*%
X200662500Y-71350000D03*
%TO.P,Q156,2,S*%
%TO.N,GND*%
X200662500Y-73250000D03*
%TO.P,Q156,3,D*%
%TO.N,Net-(Q156-D)*%
X202537500Y-72300000D03*
%TD*%
%TO.P,Q33,1,G*%
%TO.N,Net-(J8-Pin_2)*%
X118852500Y-80650000D03*
%TO.P,Q33,2,S*%
%TO.N,GND*%
X118852500Y-82550000D03*
%TO.P,Q33,3,D*%
%TO.N,Net-(Q33-D)*%
X120727500Y-81600000D03*
%TD*%
D11*
%TO.P,Q18,1,G*%
%TO.N,Net-(J7-Pin_2)*%
X106327500Y-78750000D03*
%TO.P,Q18,2,S*%
%TO.N,GND*%
X106327500Y-76850000D03*
%TO.P,Q18,3,D*%
%TO.N,Net-(Q18-D)*%
X104452500Y-77800000D03*
%TD*%
D17*
%TO.P,D11,1*%
%TO.N,Net-(Q155-D)*%
X204772500Y-77300000D03*
%TO.P,D11,2*%
%TO.N,Net-(D11-Pad2)*%
X206352500Y-77300000D03*
%TD*%
D12*
%TO.P,Q47,1,G*%
%TO.N,Net-(J2-Pin_15)*%
X123152500Y-57850000D03*
%TO.P,Q47,2,S*%
%TO.N,Net-(Q39-D)*%
X123152500Y-59750000D03*
%TO.P,Q47,3,D*%
%TO.N,Net-(Q127-D)*%
X125027500Y-58800000D03*
%TD*%
D11*
%TO.P,Q54,1,G*%
%TO.N,Net-(J7-Pin_3)*%
X138327500Y-63550000D03*
%TO.P,Q54,2,S*%
%TO.N,GND*%
X138327500Y-61650000D03*
%TO.P,Q54,3,D*%
%TO.N,Net-(Q54-D)*%
X136452500Y-62600000D03*
%TD*%
%TO.P,Q5,1,G*%
%TO.N,Net-(J1-Pin_19)*%
X70027500Y-74950000D03*
%TO.P,Q5,2,S*%
%TO.N,Net-(Q5-S)*%
X70027500Y-73050000D03*
%TO.P,Q5,3,D*%
%TO.N,Net-(Q107-D)*%
X68152500Y-74000000D03*
%TD*%
D12*
%TO.P,Q36,1,G*%
%TO.N,Net-(J8-Pin_2)*%
X118852500Y-69250000D03*
%TO.P,Q36,2,S*%
%TO.N,GND*%
X118852500Y-71150000D03*
%TO.P,Q36,3,D*%
%TO.N,Net-(Q36-D)*%
X120727500Y-70200000D03*
%TD*%
D11*
%TO.P,Q15,1,G*%
%TO.N,Net-(J1-Pin_14)*%
X70027500Y-55950000D03*
%TO.P,Q15,2,S*%
%TO.N,Net-(Q15-S)*%
X70027500Y-54050000D03*
%TO.P,Q15,3,D*%
%TO.N,Net-(Q112-D)*%
X68152500Y-55000000D03*
%TD*%
D15*
%TO.P,R44,1*%
%TO.N,VCC*%
X206520000Y-71200000D03*
%TO.P,R44,2*%
%TO.N,Net-(D12-Pad2)*%
X204880000Y-71200000D03*
%TD*%
%TO.P,R35,1*%
%TO.N,VCC*%
X121310000Y-29900000D03*
%TO.P,R35,2*%
%TO.N,Net-(D3-Pad2)*%
X119670000Y-29900000D03*
%TD*%
D12*
%TO.P,Q71,1,G*%
%TO.N,Net-(J8-Pin_1)*%
X86852500Y-57850000D03*
%TO.P,Q71,2,S*%
%TO.N,GND*%
X86852500Y-59750000D03*
%TO.P,Q71,3,D*%
%TO.N,Net-(Q71-D)*%
X88727500Y-58800000D03*
%TD*%
D13*
%TO.P,J6,1,Pin_1*%
%TO.N,Rising_Edge*%
X57200000Y-59240000D03*
D14*
%TO.P,J6,2,Pin_2*%
%TO.N,RST*%
X57200000Y-56700000D03*
%TD*%
D12*
%TO.P,Q75,1,G*%
%TO.N,Net-(J1-Pin_19)*%
X91152500Y-73050000D03*
%TO.P,Q75,2,S*%
%TO.N,Net-(Q67-D)*%
X91152500Y-74950000D03*
%TO.P,Q75,3,D*%
%TO.N,Net-(Q123-D)*%
X93027500Y-74000000D03*
%TD*%
%TO.P,Q153,1,G*%
%TO.N,Net-(J1-Pin_12)*%
X200662500Y-79350000D03*
%TO.P,Q153,2,S*%
%TO.N,GND*%
X200662500Y-81250000D03*
%TO.P,Q153,3,D*%
%TO.N,Net-(Q153-D)*%
X202537500Y-80300000D03*
%TD*%
D11*
%TO.P,Q27,1,G*%
%TO.N,Net-(J2-Pin_19)*%
X102027500Y-74950000D03*
%TO.P,Q27,2,S*%
%TO.N,Net-(Q19-D)*%
X102027500Y-73050000D03*
%TO.P,Q27,3,D*%
%TO.N,Net-(Q107-D)*%
X100152500Y-74000000D03*
%TD*%
D12*
%TO.P,Q127,1,G*%
%TO.N,Net-(J4-Pin_15)*%
X187152500Y-57850000D03*
%TO.P,Q127,2,S*%
%TO.N,Net-(Q119-D)*%
X187152500Y-59750000D03*
%TO.P,Q127,3,D*%
%TO.N,Net-(Q127-D)*%
X189027500Y-58800000D03*
%TD*%
D10*
%TO.P,R32,1*%
%TO.N,VCC*%
X123290000Y-104000000D03*
%TO.P,R32,2*%
%TO.N,Net-(J11-Pin_8)*%
X123290000Y-105000000D03*
%TD*%
D20*
%TO.P,C14,1*%
%TO.N,VCC*%
X157562500Y-111937500D03*
%TO.P,C14,2*%
%TO.N,GND*%
X157562500Y-113837500D03*
%TD*%
D12*
%TO.P,Q46,1,G*%
%TO.N,Net-(J2-Pin_16)*%
X123152500Y-61650000D03*
%TO.P,Q46,2,S*%
%TO.N,Net-(Q38-D)*%
X123152500Y-63550000D03*
%TO.P,Q46,3,D*%
%TO.N,Net-(Q126-D)*%
X125027500Y-62600000D03*
%TD*%
D10*
%TO.P,R8,1*%
%TO.N,VCC*%
X88290000Y-104000000D03*
%TO.P,R8,2*%
%TO.N,Net-(J10-Pin_8)*%
X88290000Y-105000000D03*
%TD*%
D16*
%TO.P,Q143,1,G*%
%TO.N,Net-(Q122-D)*%
X118540000Y-108837500D03*
%TO.P,Q143,2,S*%
%TO.N,GND*%
X120440000Y-108837500D03*
%TO.P,Q143,3,D*%
%TO.N,Net-(J11-Pin_7)*%
X119490000Y-106962500D03*
%TD*%
D10*
%TO.P,R27,1*%
%TO.N,VCC*%
X104290000Y-104000000D03*
%TO.P,R27,2*%
%TO.N,Net-(J11-Pin_3)*%
X104290000Y-105000000D03*
%TD*%
D16*
%TO.P,Q144,1,G*%
%TO.N,Net-(Q121-D)*%
X122340000Y-108837500D03*
%TO.P,Q144,2,S*%
%TO.N,GND*%
X124240000Y-108837500D03*
%TO.P,Q144,3,D*%
%TO.N,Net-(J11-Pin_8)*%
X123290000Y-106962500D03*
%TD*%
D10*
%TO.P,R2,1*%
%TO.N,VCC*%
X65490000Y-104000000D03*
%TO.P,R2,2*%
%TO.N,Net-(J10-Pin_2)*%
X65490000Y-105000000D03*
%TD*%
D18*
%TO.P,C3,1*%
%TO.N,VCC*%
X136750000Y-24700000D03*
%TO.P,C3,2*%
%TO.N,GND*%
X136750000Y-22800000D03*
%TD*%
D11*
%TO.P,Q146,1,G*%
%TO.N,Net-(J8-Pin_1)*%
X93027500Y-31950000D03*
%TO.P,Q146,2,S*%
%TO.N,GND*%
X93027500Y-30050000D03*
%TO.P,Q146,3,D*%
%TO.N,Net-(Q146-D)*%
X91152500Y-31000000D03*
%TD*%
%TO.P,Q64,1,G*%
%TO.N,Net-(J3-Pin_14)*%
X134027500Y-55950000D03*
%TO.P,Q64,2,S*%
%TO.N,Net-(Q56-D)*%
X134027500Y-54050000D03*
%TO.P,Q64,3,D*%
%TO.N,Net-(Q112-D)*%
X132152500Y-55000000D03*
%TD*%
D18*
%TO.P,C11,1*%
%TO.N,VCC*%
X164600000Y-24750000D03*
%TO.P,C11,2*%
%TO.N,GND*%
X164600000Y-22850000D03*
%TD*%
D15*
%TO.P,R45,1*%
%TO.N,VCC*%
X206520000Y-67200000D03*
%TO.P,R45,2*%
%TO.N,Net-(D13-Pad2)*%
X204880000Y-67200000D03*
%TD*%
D12*
%TO.P,Q87,1,G*%
%TO.N,Net-(J8-Pin_3)*%
X150852500Y-57850000D03*
%TO.P,Q87,2,S*%
%TO.N,GND*%
X150852500Y-59750000D03*
%TO.P,Q87,3,D*%
%TO.N,Net-(Q87-D)*%
X152727500Y-58800000D03*
%TD*%
D10*
%TO.P,R4,1*%
%TO.N,VCC*%
X73090000Y-104000000D03*
%TO.P,R4,2*%
%TO.N,Net-(J10-Pin_4)*%
X73090000Y-105000000D03*
%TD*%
D13*
%TO.P,J5,1,Pin_1*%
%TO.N,Net-(J1-Pin_4)*%
X57190000Y-66200000D03*
D14*
%TO.P,J5,2,Pin_2*%
%TO.N,Net-(J2-Pin_4)*%
X57190000Y-68740000D03*
%TO.P,J5,3,Pin_3*%
%TO.N,Net-(J3-Pin_4)*%
X57190000Y-71280000D03*
%TO.P,J5,4,Pin_4*%
%TO.N,Net-(J4-Pin_4)*%
X57190000Y-73820000D03*
%TD*%
D12*
%TO.P,Q122,1,G*%
%TO.N,Net-(J4-Pin_20)*%
X187152500Y-76850000D03*
%TO.P,Q122,2,S*%
%TO.N,Net-(Q114-D)*%
X187152500Y-78750000D03*
%TO.P,Q122,3,D*%
%TO.N,Net-(Q122-D)*%
X189027500Y-77800000D03*
%TD*%
D11*
%TO.P,Q30,1,G*%
%TO.N,Net-(J2-Pin_16)*%
X102027500Y-63550000D03*
%TO.P,Q30,2,S*%
%TO.N,Net-(Q22-D)*%
X102027500Y-61650000D03*
%TO.P,Q30,3,D*%
%TO.N,Net-(Q11-D)*%
X100152500Y-62600000D03*
%TD*%
D21*
%TO.P,R14,1*%
%TO.N,VCC*%
X80690000Y-101700000D03*
%TO.P,R14,2*%
%TO.N,Net-(Q107-D)*%
X80690000Y-100700000D03*
%TD*%
D19*
%TO.P,R36,1*%
%TO.N,VCC*%
X135970000Y-29900000D03*
%TO.P,R36,2*%
%TO.N,Net-(D4-Pad2)*%
X137610000Y-29900000D03*
%TD*%
D21*
%TO.P,R16,1*%
%TO.N,VCC*%
X88290000Y-101700000D03*
%TO.P,R16,2*%
%TO.N,Net-(Q1-D)*%
X88290000Y-100700000D03*
%TD*%
D15*
%TO.P,R43,1*%
%TO.N,VCC*%
X206520000Y-75200000D03*
%TO.P,R43,2*%
%TO.N,Net-(D11-Pad2)*%
X204880000Y-75200000D03*
%TD*%
%TO.P,R46,1*%
%TO.N,VCC*%
X206520000Y-63200000D03*
%TO.P,R46,2*%
%TO.N,Net-(D14-Pad2)*%
X204880000Y-63200000D03*
%TD*%
D10*
%TO.P,R6,1*%
%TO.N,VCC*%
X80690000Y-104000000D03*
%TO.P,R6,2*%
%TO.N,Net-(J10-Pin_6)*%
X80690000Y-105000000D03*
%TD*%
D11*
%TO.P,Q17,1,G*%
%TO.N,Net-(J7-Pin_2)*%
X106327500Y-82550000D03*
%TO.P,Q17,2,S*%
%TO.N,GND*%
X106327500Y-80650000D03*
%TO.P,Q17,3,D*%
%TO.N,Net-(Q17-D)*%
X104452500Y-81600000D03*
%TD*%
D20*
%TO.P,C16,1*%
%TO.N,VCC*%
X151612500Y-111937500D03*
%TO.P,C16,2*%
%TO.N,GND*%
X151612500Y-113837500D03*
%TD*%
D15*
%TO.P,R33,1*%
%TO.N,VCC*%
X89310000Y-29900000D03*
%TO.P,R33,2*%
%TO.N,Net-(D1-Pad2)*%
X87670000Y-29900000D03*
%TD*%
D12*
%TO.P,Q154,1,G*%
%TO.N,Net-(J1-Pin_13)*%
X200662500Y-83350000D03*
%TO.P,Q154,2,S*%
%TO.N,GND*%
X200662500Y-85250000D03*
%TO.P,Q154,3,D*%
%TO.N,Net-(Q154-D)*%
X202537500Y-84300000D03*
%TD*%
D10*
%TO.P,R20,1*%
%TO.N,VCC*%
X106890000Y-104000000D03*
%TO.P,R20,2*%
%TO.N,Net-(Q125-D)*%
X106890000Y-105000000D03*
%TD*%
D21*
%TO.P,R11,1*%
%TO.N,VCC*%
X69290000Y-101700000D03*
%TO.P,R11,2*%
%TO.N,Net-(Q11-D)*%
X69290000Y-100700000D03*
%TD*%
D13*
%TO.P,J9,1,Pin_1*%
%TO.N,Net-(J1-Pin_6)*%
X204200000Y-31100000D03*
D14*
%TO.P,J9,2,Pin_2*%
%TO.N,Net-(J1-Pin_7)*%
X204200000Y-33640000D03*
%TO.P,J9,3,Pin_3*%
%TO.N,Net-(J1-Pin_8)*%
X204200000Y-36180000D03*
%TO.P,J9,4,Pin_4*%
%TO.N,Net-(J1-Pin_9)*%
X204200000Y-38720000D03*
%TO.P,J9,5,Pin_5*%
%TO.N,Net-(J1-Pin_10)*%
X204200000Y-41260000D03*
%TO.P,J9,6,Pin_6*%
%TO.N,Net-(J1-Pin_11)*%
X204200000Y-43800000D03*
%TO.P,J9,7,Pin_7*%
%TO.N,Net-(J1-Pin_12)*%
X204200000Y-46340000D03*
%TO.P,J9,8,Pin_8*%
%TO.N,Net-(J1-Pin_13)*%
X204200000Y-48880000D03*
%TD*%
D12*
%TO.P,Q37,1,G*%
%TO.N,Net-(J8-Pin_2)*%
X118852500Y-65450000D03*
%TO.P,Q37,2,S*%
%TO.N,GND*%
X118852500Y-67350000D03*
%TO.P,Q37,3,D*%
%TO.N,Net-(Q37-D)*%
X120727500Y-66400000D03*
%TD*%
D21*
%TO.P,R13,1*%
%TO.N,VCC*%
X76890000Y-101700000D03*
%TO.P,R13,2*%
%TO.N,Net-(Q108-D)*%
X76890000Y-100700000D03*
%TD*%
D11*
%TO.P,Q52,1,G*%
%TO.N,Net-(J7-Pin_3)*%
X138327500Y-71150000D03*
%TO.P,Q52,2,S*%
%TO.N,GND*%
X138327500Y-69250000D03*
%TO.P,Q52,3,D*%
%TO.N,Net-(Q52-D)*%
X136452500Y-70200000D03*
%TD*%
%TO.P,Q63,1,G*%
%TO.N,Net-(J3-Pin_15)*%
X134027500Y-59750000D03*
%TO.P,Q63,2,S*%
%TO.N,Net-(Q55-D)*%
X134027500Y-57850000D03*
%TO.P,Q63,3,D*%
%TO.N,Net-(Q111-D)*%
X132152500Y-58800000D03*
%TD*%
%TO.P,Q102,1,G*%
%TO.N,Net-(J7-Pin_4)*%
X170327500Y-63550000D03*
%TO.P,Q102,2,S*%
%TO.N,GND*%
X170327500Y-61650000D03*
%TO.P,Q102,3,D*%
%TO.N,Net-(Q102-D)*%
X168452500Y-62600000D03*
%TD*%
%TO.P,Q4,1,G*%
%TO.N,Net-(J7-Pin_1)*%
X74327500Y-78750000D03*
%TO.P,Q4,2,S*%
%TO.N,GND*%
X74327500Y-76850000D03*
%TO.P,Q4,3,D*%
%TO.N,Net-(Q3-S)*%
X72452500Y-77800000D03*
%TD*%
D13*
%TO.P,J10,1,Pin_1*%
%TO.N,Net-(J10-Pin_1)*%
X66100000Y-114000000D03*
D14*
%TO.P,J10,2,Pin_2*%
%TO.N,Net-(J10-Pin_2)*%
X68640000Y-114000000D03*
%TO.P,J10,3,Pin_3*%
%TO.N,Net-(J10-Pin_3)*%
X71180000Y-114000000D03*
%TO.P,J10,4,Pin_4*%
%TO.N,Net-(J10-Pin_4)*%
X73720000Y-114000000D03*
%TO.P,J10,5,Pin_5*%
%TO.N,Net-(J10-Pin_5)*%
X76260000Y-114000000D03*
%TO.P,J10,6,Pin_6*%
%TO.N,Net-(J10-Pin_6)*%
X78800000Y-114000000D03*
%TO.P,J10,7,Pin_7*%
%TO.N,Net-(J10-Pin_7)*%
X81340000Y-114000000D03*
%TO.P,J10,8,Pin_8*%
%TO.N,Net-(J10-Pin_8)*%
X83880000Y-114000000D03*
%TD*%
D11*
%TO.P,Q11,1,G*%
%TO.N,Net-(J1-Pin_16)*%
X70027500Y-63550000D03*
%TO.P,Q11,2,S*%
%TO.N,Net-(Q11-S)*%
X70027500Y-61650000D03*
%TO.P,Q11,3,D*%
%TO.N,Net-(Q11-D)*%
X68152500Y-62600000D03*
%TD*%
%TO.P,Q31,1,G*%
%TO.N,Net-(J2-Pin_15)*%
X102027500Y-59750000D03*
%TO.P,Q31,2,S*%
%TO.N,Net-(Q23-D)*%
X102027500Y-57850000D03*
%TO.P,Q31,3,D*%
%TO.N,Net-(Q111-D)*%
X100152500Y-58800000D03*
%TD*%
D13*
%TO.P,J1,1,Pin_1*%
%TO.N,VCC*%
X80590000Y-33100000D03*
D14*
%TO.P,J1,2,Pin_2*%
%TO.N,GND*%
X80590000Y-35640000D03*
%TO.P,J1,3,Pin_3*%
%TO.N,RST*%
X80590000Y-38180000D03*
%TO.P,J1,4,Pin_4*%
%TO.N,Net-(J1-Pin_4)*%
X80590000Y-40720000D03*
%TO.P,J1,5,Pin_5*%
%TO.N,Rising_Edge*%
X80590000Y-43260000D03*
%TO.P,J1,6,Pin_6*%
%TO.N,Net-(J1-Pin_6)*%
X80590000Y-45800000D03*
%TO.P,J1,7,Pin_7*%
%TO.N,Net-(J1-Pin_7)*%
X80590000Y-48340000D03*
%TO.P,J1,8,Pin_8*%
%TO.N,Net-(J1-Pin_8)*%
X80590000Y-50880000D03*
%TO.P,J1,9,Pin_9*%
%TO.N,Net-(J1-Pin_9)*%
X80590000Y-53420000D03*
%TO.P,J1,10,Pin_10*%
%TO.N,Net-(J1-Pin_10)*%
X80590000Y-55960000D03*
%TO.P,J1,11,Pin_11*%
%TO.N,Net-(J1-Pin_11)*%
X80590000Y-58500000D03*
%TO.P,J1,12,Pin_12*%
%TO.N,Net-(J1-Pin_12)*%
X80590000Y-61040000D03*
%TO.P,J1,13,Pin_13*%
%TO.N,Net-(J1-Pin_13)*%
X80590000Y-63580000D03*
%TO.P,J1,14,Pin_14*%
%TO.N,Net-(J1-Pin_14)*%
X80590000Y-66120000D03*
%TO.P,J1,15,Pin_15*%
%TO.N,Net-(J1-Pin_15)*%
X80590000Y-68660000D03*
%TO.P,J1,16,Pin_16*%
%TO.N,Net-(J1-Pin_16)*%
X80590000Y-71200000D03*
%TO.P,J1,17,Pin_17*%
%TO.N,Net-(J1-Pin_17)*%
X80590000Y-73740000D03*
%TO.P,J1,18,Pin_18*%
%TO.N,Net-(J1-Pin_18)*%
X80590000Y-76280000D03*
%TO.P,J1,19,Pin_19*%
%TO.N,Net-(J1-Pin_19)*%
X80590000Y-78820000D03*
%TO.P,J1,20,Pin_20*%
%TO.N,Net-(J1-Pin_20)*%
X80590000Y-81360000D03*
%TO.P,J1,21,Pin_21*%
%TO.N,Net-(J1-Pin_21)*%
X80590000Y-83900000D03*
%TD*%
D11*
%TO.P,Q50,1,G*%
%TO.N,Net-(J7-Pin_3)*%
X138327500Y-78750000D03*
%TO.P,Q50,2,S*%
%TO.N,GND*%
X138327500Y-76850000D03*
%TO.P,Q50,3,D*%
%TO.N,Net-(Q50-D)*%
X136452500Y-77800000D03*
%TD*%
D12*
%TO.P,Q119,1,G*%
%TO.N,Net-(J8-Pin_4)*%
X182852500Y-57850000D03*
%TO.P,Q119,2,S*%
%TO.N,GND*%
X182852500Y-59750000D03*
%TO.P,Q119,3,D*%
%TO.N,Net-(Q119-D)*%
X184727500Y-58800000D03*
%TD*%
%TO.P,Q159,1,G*%
%TO.N,Net-(J1-Pin_7)*%
X200662500Y-59350000D03*
%TO.P,Q159,2,S*%
%TO.N,GND*%
X200662500Y-61250000D03*
%TO.P,Q159,3,D*%
%TO.N,Net-(Q159-D)*%
X202537500Y-60300000D03*
%TD*%
D11*
%TO.P,Q49,1,G*%
%TO.N,Net-(J7-Pin_3)*%
X138327500Y-82550000D03*
%TO.P,Q49,2,S*%
%TO.N,GND*%
X138327500Y-80650000D03*
%TO.P,Q49,3,D*%
%TO.N,Net-(Q49-D)*%
X136452500Y-81600000D03*
%TD*%
D17*
%TO.P,D24,1*%
%TO.N,Net-(Q145-D)*%
X72200000Y-32000000D03*
%TO.P,D24,2*%
%TO.N,Net-(D24-Pad2)*%
X73780000Y-32000000D03*
%TD*%
D11*
%TO.P,Q59,1,G*%
%TO.N,Net-(J3-Pin_19)*%
X134027500Y-74950000D03*
%TO.P,Q59,2,S*%
%TO.N,Net-(Q51-D)*%
X134027500Y-73050000D03*
%TO.P,Q59,3,D*%
%TO.N,Net-(Q107-D)*%
X132152500Y-74000000D03*
%TD*%
D10*
%TO.P,R1,1*%
%TO.N,VCC*%
X61690000Y-104000000D03*
%TO.P,R1,2*%
%TO.N,Net-(J10-Pin_1)*%
X61690000Y-105000000D03*
%TD*%
D11*
%TO.P,Q29,1,G*%
%TO.N,Net-(J2-Pin_17)*%
X102027500Y-67350000D03*
%TO.P,Q29,2,S*%
%TO.N,Net-(Q21-D)*%
X102027500Y-65450000D03*
%TO.P,Q29,3,D*%
%TO.N,Net-(Q109-D)*%
X100152500Y-66400000D03*
%TD*%
D13*
%TO.P,J4,1,Pin_1*%
%TO.N,VCC*%
X176590000Y-33100000D03*
D14*
%TO.P,J4,2,Pin_2*%
%TO.N,GND*%
X176590000Y-35640000D03*
%TO.P,J4,3,Pin_3*%
%TO.N,RST*%
X176590000Y-38180000D03*
%TO.P,J4,4,Pin_4*%
%TO.N,Net-(J4-Pin_4)*%
X176590000Y-40720000D03*
%TO.P,J4,5,Pin_5*%
%TO.N,Rising_Edge*%
X176590000Y-43260000D03*
%TO.P,J4,6,Pin_6*%
%TO.N,Net-(J1-Pin_6)*%
X176590000Y-45800000D03*
%TO.P,J4,7,Pin_7*%
%TO.N,Net-(J1-Pin_7)*%
X176590000Y-48340000D03*
%TO.P,J4,8,Pin_8*%
%TO.N,Net-(J1-Pin_8)*%
X176590000Y-50880000D03*
%TO.P,J4,9,Pin_9*%
%TO.N,Net-(J1-Pin_9)*%
X176590000Y-53420000D03*
%TO.P,J4,10,Pin_10*%
%TO.N,Net-(J1-Pin_10)*%
X176590000Y-55960000D03*
%TO.P,J4,11,Pin_11*%
%TO.N,Net-(J1-Pin_11)*%
X176590000Y-58500000D03*
%TO.P,J4,12,Pin_12*%
%TO.N,Net-(J1-Pin_12)*%
X176590000Y-61040000D03*
%TO.P,J4,13,Pin_13*%
%TO.N,Net-(J1-Pin_13)*%
X176590000Y-63580000D03*
%TO.P,J4,14,Pin_14*%
%TO.N,Net-(J4-Pin_14)*%
X176590000Y-66120000D03*
%TO.P,J4,15,Pin_15*%
%TO.N,Net-(J4-Pin_15)*%
X176590000Y-68660000D03*
%TO.P,J4,16,Pin_16*%
%TO.N,Net-(J4-Pin_16)*%
X176590000Y-71200000D03*
%TO.P,J4,17,Pin_17*%
%TO.N,Net-(J4-Pin_17)*%
X176590000Y-73740000D03*
%TO.P,J4,18,Pin_18*%
%TO.N,Net-(J4-Pin_18)*%
X176590000Y-76280000D03*
%TO.P,J4,19,Pin_19*%
%TO.N,Net-(J4-Pin_19)*%
X176590000Y-78820000D03*
%TO.P,J4,20,Pin_20*%
%TO.N,Net-(J4-Pin_20)*%
X176590000Y-81360000D03*
%TO.P,J4,21,Pin_21*%
%TO.N,Net-(J4-Pin_21)*%
X176590000Y-83900000D03*
%TD*%
D10*
%TO.P,R17,1*%
%TO.N,VCC*%
X95490000Y-104000000D03*
%TO.P,R17,2*%
%TO.N,Net-(Q128-D)*%
X95490000Y-105000000D03*
%TD*%
D13*
%TO.P,J8,1,Pin_1*%
%TO.N,Net-(J8-Pin_1)*%
X57190000Y-92580000D03*
D14*
%TO.P,J8,2,Pin_2*%
%TO.N,Net-(J8-Pin_2)*%
X57190000Y-95120000D03*
%TO.P,J8,3,Pin_3*%
%TO.N,Net-(J8-Pin_3)*%
X57190000Y-97660000D03*
%TO.P,J8,4,Pin_4*%
%TO.N,Net-(J8-Pin_4)*%
X57190000Y-100200000D03*
%TD*%
D11*
%TO.P,Q101,1,G*%
%TO.N,Net-(J7-Pin_4)*%
X170327500Y-67350000D03*
%TO.P,Q101,2,S*%
%TO.N,GND*%
X170327500Y-65450000D03*
%TO.P,Q101,3,D*%
%TO.N,Net-(Q101-D)*%
X168452500Y-66400000D03*
%TD*%
D12*
%TO.P,Q96,1,G*%
%TO.N,Net-(J3-Pin_14)*%
X155152500Y-54050000D03*
%TO.P,Q96,2,S*%
%TO.N,Net-(Q88-D)*%
X155152500Y-55950000D03*
%TO.P,Q96,3,D*%
%TO.N,Net-(Q128-D)*%
X157027500Y-55000000D03*
%TD*%
D11*
%TO.P,Q6,1,G*%
%TO.N,Net-(J7-Pin_1)*%
X74327500Y-74950000D03*
%TO.P,Q6,2,S*%
%TO.N,GND*%
X74327500Y-73050000D03*
%TO.P,Q6,3,D*%
%TO.N,Net-(Q5-S)*%
X72452500Y-74000000D03*
%TD*%
D10*
%TO.P,R19,1*%
%TO.N,VCC*%
X103090000Y-104000000D03*
%TO.P,R19,2*%
%TO.N,Net-(Q126-D)*%
X103090000Y-105000000D03*
%TD*%
D12*
%TO.P,Q145,1,G*%
%TO.N,Net-(J7-Pin_1)*%
X68142500Y-30050000D03*
%TO.P,Q145,2,S*%
%TO.N,GND*%
X68142500Y-31950000D03*
%TO.P,Q145,3,D*%
%TO.N,Net-(Q145-D)*%
X70017500Y-31000000D03*
%TD*%
%TO.P,Q157,1,G*%
%TO.N,Net-(J1-Pin_9)*%
X200662500Y-67350000D03*
%TO.P,Q157,2,S*%
%TO.N,GND*%
X200662500Y-69250000D03*
%TO.P,Q157,3,D*%
%TO.N,Net-(Q157-D)*%
X202537500Y-68300000D03*
%TD*%
D11*
%TO.P,Q26,1,G*%
%TO.N,Net-(J2-Pin_20)*%
X102027500Y-78750000D03*
%TO.P,Q26,2,S*%
%TO.N,Net-(Q18-D)*%
X102027500Y-76850000D03*
%TO.P,Q26,3,D*%
%TO.N,Net-(Q106-D)*%
X100152500Y-77800000D03*
%TD*%
%TO.P,Q97,1,G*%
%TO.N,Net-(J7-Pin_4)*%
X170327500Y-82550000D03*
%TO.P,Q97,2,S*%
%TO.N,GND*%
X170327500Y-80650000D03*
%TO.P,Q97,3,D*%
%TO.N,Net-(Q105-S)*%
X168452500Y-81600000D03*
%TD*%
%TO.P,Q150,1,G*%
%TO.N,Net-(J8-Pin_3)*%
X157027500Y-31950000D03*
%TO.P,Q150,2,S*%
%TO.N,GND*%
X157027500Y-30050000D03*
%TO.P,Q150,3,D*%
%TO.N,Net-(Q150-D)*%
X155152500Y-31000000D03*
%TD*%
%TO.P,Q103,1,G*%
%TO.N,Net-(J7-Pin_4)*%
X170327500Y-59750000D03*
%TO.P,Q103,2,S*%
%TO.N,GND*%
X170327500Y-57850000D03*
%TO.P,Q103,3,D*%
%TO.N,Net-(Q103-D)*%
X168452500Y-58800000D03*
%TD*%
D12*
%TO.P,Q90,1,G*%
%TO.N,Net-(J3-Pin_20)*%
X155152500Y-76850000D03*
%TO.P,Q90,2,S*%
%TO.N,Net-(Q82-D)*%
X155152500Y-78750000D03*
%TO.P,Q90,3,D*%
%TO.N,Net-(Q122-D)*%
X157027500Y-77800000D03*
%TD*%
%TO.P,Q88,1,G*%
%TO.N,Net-(J8-Pin_3)*%
X150852500Y-54050000D03*
%TO.P,Q88,2,S*%
%TO.N,GND*%
X150852500Y-55950000D03*
%TO.P,Q88,3,D*%
%TO.N,Net-(Q88-D)*%
X152727500Y-55000000D03*
%TD*%
D10*
%TO.P,R21,1*%
%TO.N,VCC*%
X110690000Y-104000000D03*
%TO.P,R21,2*%
%TO.N,Net-(Q124-D)*%
X110690000Y-105000000D03*
%TD*%
D17*
%TO.P,D14,1*%
%TO.N,Net-(Q158-D)*%
X204710000Y-65300000D03*
%TO.P,D14,2*%
%TO.N,Net-(D14-Pad2)*%
X206290000Y-65300000D03*
%TD*%
D13*
%TO.P,J11,1,Pin_1*%
%TO.N,Net-(J11-Pin_1)*%
X101100000Y-114000000D03*
D14*
%TO.P,J11,2,Pin_2*%
%TO.N,Net-(J11-Pin_2)*%
X103640000Y-114000000D03*
%TO.P,J11,3,Pin_3*%
%TO.N,Net-(J11-Pin_3)*%
X106180000Y-114000000D03*
%TO.P,J11,4,Pin_4*%
%TO.N,Net-(J11-Pin_4)*%
X108720000Y-114000000D03*
%TO.P,J11,5,Pin_5*%
%TO.N,Net-(J11-Pin_5)*%
X111260000Y-114000000D03*
%TO.P,J11,6,Pin_6*%
%TO.N,Net-(J11-Pin_6)*%
X113800000Y-114000000D03*
%TO.P,J11,7,Pin_7*%
%TO.N,Net-(J11-Pin_7)*%
X116340000Y-114000000D03*
%TO.P,J11,8,Pin_8*%
%TO.N,Net-(J11-Pin_8)*%
X118880000Y-114000000D03*
%TD*%
D13*
%TO.P,J7,1,Pin_1*%
%TO.N,Net-(J7-Pin_1)*%
X57190000Y-79400000D03*
D14*
%TO.P,J7,2,Pin_2*%
%TO.N,Net-(J7-Pin_2)*%
X57190000Y-81940000D03*
%TO.P,J7,3,Pin_3*%
%TO.N,Net-(J7-Pin_3)*%
X57190000Y-84480000D03*
%TO.P,J7,4,Pin_4*%
%TO.N,Net-(J7-Pin_4)*%
X57190000Y-87020000D03*
%TD*%
D11*
%TO.P,Q56,1,G*%
%TO.N,Net-(J7-Pin_3)*%
X138327500Y-55950000D03*
%TO.P,Q56,2,S*%
%TO.N,GND*%
X138327500Y-54050000D03*
%TO.P,Q56,3,D*%
%TO.N,Net-(Q56-D)*%
X136452500Y-55000000D03*
%TD*%
D15*
%TO.P,R48,1*%
%TO.N,VCC*%
X206520000Y-55200000D03*
%TO.P,R48,2*%
%TO.N,Net-(D16-Pad2)*%
X204880000Y-55200000D03*
%TD*%
D10*
%TO.P,R30,1*%
%TO.N,VCC*%
X115690000Y-104000000D03*
%TO.P,R30,2*%
%TO.N,Net-(J11-Pin_6)*%
X115690000Y-105000000D03*
%TD*%
D21*
%TO.P,R9,1*%
%TO.N,VCC*%
X61690000Y-101700000D03*
%TO.P,R9,2*%
%TO.N,Net-(Q112-D)*%
X61690000Y-100700000D03*
%TD*%
D12*
%TO.P,Q91,1,G*%
%TO.N,Net-(J3-Pin_19)*%
X155152500Y-73050000D03*
%TO.P,Q91,2,S*%
%TO.N,Net-(Q83-D)*%
X155152500Y-74950000D03*
%TO.P,Q91,3,D*%
%TO.N,Net-(Q123-D)*%
X157027500Y-74000000D03*
%TD*%
D10*
%TO.P,R5,1*%
%TO.N,VCC*%
X76890000Y-104000000D03*
%TO.P,R5,2*%
%TO.N,Net-(J10-Pin_5)*%
X76890000Y-105000000D03*
%TD*%
D12*
%TO.P,Q92,1,G*%
%TO.N,Net-(J3-Pin_18)*%
X155152500Y-69250000D03*
%TO.P,Q92,2,S*%
%TO.N,Net-(Q84-D)*%
X155152500Y-71150000D03*
%TO.P,Q92,3,D*%
%TO.N,Net-(Q124-D)*%
X157027500Y-70200000D03*
%TD*%
%TO.P,Q34,1,G*%
%TO.N,Net-(J8-Pin_2)*%
X118852500Y-76850000D03*
%TO.P,Q34,2,S*%
%TO.N,GND*%
X118852500Y-78750000D03*
%TO.P,Q34,3,D*%
%TO.N,Net-(Q34-D)*%
X120727500Y-77800000D03*
%TD*%
%TO.P,Q78,1,G*%
%TO.N,Net-(J1-Pin_16)*%
X91152500Y-61650000D03*
%TO.P,Q78,2,S*%
%TO.N,Net-(Q70-D)*%
X91152500Y-63550000D03*
%TO.P,Q78,3,D*%
%TO.N,Net-(Q126-D)*%
X93027500Y-62600000D03*
%TD*%
%TO.P,Q155,1,G*%
%TO.N,Net-(J1-Pin_11)*%
X200662500Y-75350000D03*
%TO.P,Q155,2,S*%
%TO.N,GND*%
X200662500Y-77250000D03*
%TO.P,Q155,3,D*%
%TO.N,Net-(Q155-D)*%
X202537500Y-76300000D03*
%TD*%
D11*
%TO.P,Q14,1,G*%
%TO.N,Net-(J7-Pin_1)*%
X74327500Y-59750000D03*
%TO.P,Q14,2,S*%
%TO.N,GND*%
X74327500Y-57850000D03*
%TO.P,Q14,3,D*%
%TO.N,Net-(Q13-S)*%
X72452500Y-58800000D03*
%TD*%
D12*
%TO.P,Q124,1,G*%
%TO.N,Net-(J4-Pin_18)*%
X187152500Y-69250000D03*
%TO.P,Q124,2,S*%
%TO.N,Net-(Q116-D)*%
X187152500Y-71150000D03*
%TO.P,Q124,3,D*%
%TO.N,Net-(Q124-D)*%
X189027500Y-70200000D03*
%TD*%
D11*
%TO.P,Q148,1,G*%
%TO.N,Net-(J8-Pin_2)*%
X125027500Y-31950000D03*
%TO.P,Q148,2,S*%
%TO.N,GND*%
X125027500Y-30050000D03*
%TO.P,Q148,3,D*%
%TO.N,Net-(Q148-D)*%
X123152500Y-31000000D03*
%TD*%
D12*
%TO.P,Q40,1,G*%
%TO.N,Net-(J8-Pin_2)*%
X118852500Y-54050000D03*
%TO.P,Q40,2,S*%
%TO.N,GND*%
X118852500Y-55950000D03*
%TO.P,Q40,3,D*%
%TO.N,Net-(Q40-D)*%
X120727500Y-55000000D03*
%TD*%
%TO.P,Q84,1,G*%
%TO.N,Net-(J8-Pin_3)*%
X150852500Y-69250000D03*
%TO.P,Q84,2,S*%
%TO.N,GND*%
X150852500Y-71150000D03*
%TO.P,Q84,3,D*%
%TO.N,Net-(Q84-D)*%
X152727500Y-70200000D03*
%TD*%
D10*
%TO.P,R7,1*%
%TO.N,VCC*%
X84490000Y-104000000D03*
%TO.P,R7,2*%
%TO.N,Net-(J10-Pin_7)*%
X84490000Y-105000000D03*
%TD*%
D15*
%TO.P,R42,1*%
%TO.N,VCC*%
X206520000Y-83200000D03*
%TO.P,R42,2*%
%TO.N,Net-(D10-Pad2)*%
X204880000Y-83200000D03*
%TD*%
D12*
%TO.P,Q93,1,G*%
%TO.N,Net-(J3-Pin_17)*%
X155152500Y-65450000D03*
%TO.P,Q93,2,S*%
%TO.N,Net-(Q85-D)*%
X155152500Y-67350000D03*
%TO.P,Q93,3,D*%
%TO.N,Net-(Q125-D)*%
X157027500Y-66400000D03*
%TD*%
%TO.P,Q77,1,G*%
%TO.N,Net-(J1-Pin_17)*%
X91152500Y-65450000D03*
%TO.P,Q77,2,S*%
%TO.N,Net-(Q69-D)*%
X91152500Y-67350000D03*
%TO.P,Q77,3,D*%
%TO.N,Net-(Q125-D)*%
X93027500Y-66400000D03*
%TD*%
%TO.P,Q41,1,G*%
%TO.N,Net-(J2-Pin_21)*%
X123152500Y-80650000D03*
%TO.P,Q41,2,S*%
%TO.N,Net-(Q33-D)*%
X123152500Y-82550000D03*
%TO.P,Q41,3,D*%
%TO.N,Net-(Q121-D)*%
X125027500Y-81600000D03*
%TD*%
D18*
%TO.P,C4,1*%
%TO.N,VCC*%
X139800000Y-24700000D03*
%TO.P,C4,2*%
%TO.N,GND*%
X139800000Y-22800000D03*
%TD*%
D12*
%TO.P,Q68,1,G*%
%TO.N,Net-(J8-Pin_1)*%
X86852500Y-69250000D03*
%TO.P,Q68,2,S*%
%TO.N,GND*%
X86852500Y-71150000D03*
%TO.P,Q68,3,D*%
%TO.N,Net-(Q68-D)*%
X88727500Y-70200000D03*
%TD*%
%TO.P,Q151,1,G*%
%TO.N,Net-(J7-Pin_4)*%
X164152500Y-30050000D03*
%TO.P,Q151,2,S*%
%TO.N,GND*%
X164152500Y-31950000D03*
%TO.P,Q151,3,D*%
%TO.N,Net-(Q151-D)*%
X166027500Y-31000000D03*
%TD*%
%TO.P,Q120,1,G*%
%TO.N,Net-(J8-Pin_4)*%
X182852500Y-54050000D03*
%TO.P,Q120,2,S*%
%TO.N,GND*%
X182852500Y-55950000D03*
%TO.P,Q120,3,D*%
%TO.N,Net-(Q120-D)*%
X184727500Y-55000000D03*
%TD*%
D11*
%TO.P,Q108,1,G*%
%TO.N,Net-(J4-Pin_18)*%
X166027500Y-71150000D03*
%TO.P,Q108,2,S*%
%TO.N,Net-(Q100-D)*%
X166027500Y-69250000D03*
%TO.P,Q108,3,D*%
%TO.N,Net-(Q108-D)*%
X164152500Y-70200000D03*
%TD*%
D19*
%TO.P,R34,1*%
%TO.N,VCC*%
X103970000Y-29900000D03*
%TO.P,R34,2*%
%TO.N,Net-(D2-Pad2)*%
X105610000Y-29900000D03*
%TD*%
D17*
%TO.P,D10,1*%
%TO.N,Net-(Q154-D)*%
X204710000Y-85300000D03*
%TO.P,D10,2*%
%TO.N,Net-(D10-Pad2)*%
X206290000Y-85300000D03*
%TD*%
D12*
%TO.P,Q48,1,G*%
%TO.N,Net-(J2-Pin_14)*%
X123152500Y-54050000D03*
%TO.P,Q48,2,S*%
%TO.N,Net-(Q40-D)*%
X123152500Y-55950000D03*
%TO.P,Q48,3,D*%
%TO.N,Net-(Q128-D)*%
X125027500Y-55000000D03*
%TD*%
D10*
%TO.P,R26,1*%
%TO.N,VCC*%
X100490000Y-104000000D03*
%TO.P,R26,2*%
%TO.N,Net-(J11-Pin_2)*%
X100490000Y-105000000D03*
%TD*%
D11*
%TO.P,Q20,1,G*%
%TO.N,Net-(J7-Pin_2)*%
X106327500Y-71150000D03*
%TO.P,Q20,2,S*%
%TO.N,GND*%
X106327500Y-69250000D03*
%TO.P,Q20,3,D*%
%TO.N,Net-(Q20-D)*%
X104452500Y-70200000D03*
%TD*%
D10*
%TO.P,R29,1*%
%TO.N,VCC*%
X111890000Y-104000000D03*
%TO.P,R29,2*%
%TO.N,Net-(J11-Pin_5)*%
X111890000Y-105000000D03*
%TD*%
D12*
%TO.P,Q126,1,G*%
%TO.N,Net-(J4-Pin_16)*%
X187152500Y-61650000D03*
%TO.P,Q126,2,S*%
%TO.N,Net-(Q118-D)*%
X187152500Y-63550000D03*
%TO.P,Q126,3,D*%
%TO.N,Net-(Q126-D)*%
X189027500Y-62600000D03*
%TD*%
D20*
%TO.P,C7,1*%
%TO.N,VCC*%
X142462500Y-111937500D03*
%TO.P,C7,2*%
%TO.N,GND*%
X142462500Y-113837500D03*
%TD*%
D12*
%TO.P,Q66,1,G*%
%TO.N,Net-(J8-Pin_1)*%
X86852500Y-76850000D03*
%TO.P,Q66,2,S*%
%TO.N,GND*%
X86852500Y-78750000D03*
%TO.P,Q66,3,D*%
%TO.N,Net-(Q66-D)*%
X88727500Y-77800000D03*
%TD*%
%TO.P,Q73,1,G*%
%TO.N,Net-(J1-Pin_21)*%
X91152500Y-80650000D03*
%TO.P,Q73,2,S*%
%TO.N,Net-(Q65-D)*%
X91152500Y-82550000D03*
%TO.P,Q73,3,D*%
%TO.N,Net-(Q121-D)*%
X93027500Y-81600000D03*
%TD*%
D15*
%TO.P,R37,1*%
%TO.N,VCC*%
X153310000Y-29900000D03*
%TO.P,R37,2*%
%TO.N,Net-(D5-Pad2)*%
X151670000Y-29900000D03*
%TD*%
D18*
%TO.P,C9,1*%
%TO.N,VCC*%
X158500000Y-24750000D03*
%TO.P,C9,2*%
%TO.N,GND*%
X158500000Y-22850000D03*
%TD*%
D16*
%TO.P,Q140,1,G*%
%TO.N,Net-(Q125-D)*%
X107140000Y-108837500D03*
%TO.P,Q140,2,S*%
%TO.N,GND*%
X109040000Y-108837500D03*
%TO.P,Q140,3,D*%
%TO.N,Net-(J11-Pin_4)*%
X108090000Y-106962500D03*
%TD*%
D12*
%TO.P,Q149,1,G*%
%TO.N,Net-(J7-Pin_3)*%
X132152500Y-30050000D03*
%TO.P,Q149,2,S*%
%TO.N,GND*%
X132152500Y-31950000D03*
%TO.P,Q149,3,D*%
%TO.N,Net-(Q149-D)*%
X134027500Y-31000000D03*
%TD*%
%TO.P,Q38,1,G*%
%TO.N,Net-(J8-Pin_2)*%
X118852500Y-61650000D03*
%TO.P,Q38,2,S*%
%TO.N,GND*%
X118852500Y-63550000D03*
%TO.P,Q38,3,D*%
%TO.N,Net-(Q38-D)*%
X120727500Y-62600000D03*
%TD*%
D11*
%TO.P,Q7,1,G*%
%TO.N,Net-(J1-Pin_18)*%
X70027500Y-71150000D03*
%TO.P,Q7,2,S*%
%TO.N,Net-(Q7-S)*%
X70027500Y-69250000D03*
%TO.P,Q7,3,D*%
%TO.N,Net-(Q108-D)*%
X68152500Y-70200000D03*
%TD*%
D12*
%TO.P,Q42,1,G*%
%TO.N,Net-(J2-Pin_20)*%
X123152500Y-76850000D03*
%TO.P,Q42,2,S*%
%TO.N,Net-(Q34-D)*%
X123152500Y-78750000D03*
%TO.P,Q42,3,D*%
%TO.N,Net-(Q122-D)*%
X125027500Y-77800000D03*
%TD*%
D11*
%TO.P,Q23,1,G*%
%TO.N,Net-(J7-Pin_2)*%
X106327500Y-59750000D03*
%TO.P,Q23,2,S*%
%TO.N,GND*%
X106327500Y-57850000D03*
%TO.P,Q23,3,D*%
%TO.N,Net-(Q23-D)*%
X104452500Y-58800000D03*
%TD*%
%TO.P,Q25,1,G*%
%TO.N,Net-(J2-Pin_21)*%
X102027500Y-82550000D03*
%TO.P,Q25,2,S*%
%TO.N,Net-(Q17-D)*%
X102027500Y-80650000D03*
%TO.P,Q25,3,D*%
%TO.N,Net-(Q1-D)*%
X100152500Y-81600000D03*
%TD*%
D18*
%TO.P,C12,1*%
%TO.N,VCC*%
X167650000Y-24750000D03*
%TO.P,C12,2*%
%TO.N,GND*%
X167650000Y-22850000D03*
%TD*%
D12*
%TO.P,Q79,1,G*%
%TO.N,Net-(J1-Pin_15)*%
X91152500Y-57850000D03*
%TO.P,Q79,2,S*%
%TO.N,Net-(Q71-D)*%
X91152500Y-59750000D03*
%TO.P,Q79,3,D*%
%TO.N,Net-(Q127-D)*%
X93027500Y-58800000D03*
%TD*%
D16*
%TO.P,Q135,1,G*%
%TO.N,Net-(Q106-D)*%
X83540000Y-108837500D03*
%TO.P,Q135,2,S*%
%TO.N,GND*%
X85440000Y-108837500D03*
%TO.P,Q135,3,D*%
%TO.N,Net-(J10-Pin_7)*%
X84490000Y-106962500D03*
%TD*%
%TO.P,Q130,1,G*%
%TO.N,Net-(Q111-D)*%
X64540000Y-108837500D03*
%TO.P,Q130,2,S*%
%TO.N,GND*%
X66440000Y-108837500D03*
%TO.P,Q130,3,D*%
%TO.N,Net-(J10-Pin_2)*%
X65490000Y-106962500D03*
%TD*%
%TO.P,Q134,1,G*%
%TO.N,Net-(Q107-D)*%
X79740000Y-108837500D03*
%TO.P,Q134,2,S*%
%TO.N,GND*%
X81640000Y-108837500D03*
%TO.P,Q134,3,D*%
%TO.N,Net-(J10-Pin_6)*%
X80690000Y-106962500D03*
%TD*%
D15*
%TO.P,R39,1*%
%TO.N,VCC*%
X185310000Y-29900000D03*
%TO.P,R39,2*%
%TO.N,Net-(D7-Pad2)*%
X183670000Y-29900000D03*
%TD*%
D12*
%TO.P,Q160,1,G*%
%TO.N,Net-(J1-Pin_6)*%
X200662500Y-55350000D03*
%TO.P,Q160,2,S*%
%TO.N,GND*%
X200662500Y-57250000D03*
%TO.P,Q160,3,D*%
%TO.N,Net-(Q160-D)*%
X202537500Y-56300000D03*
%TD*%
%TO.P,Q125,1,G*%
%TO.N,Net-(J4-Pin_17)*%
X187152500Y-65450000D03*
%TO.P,Q125,2,S*%
%TO.N,Net-(Q117-D)*%
X187152500Y-67350000D03*
%TO.P,Q125,3,D*%
%TO.N,Net-(Q125-D)*%
X189027500Y-66400000D03*
%TD*%
%TO.P,Q121,1,G*%
%TO.N,Net-(J4-Pin_21)*%
X187152500Y-80650000D03*
%TO.P,Q121,2,S*%
%TO.N,Net-(Q113-D)*%
X187152500Y-82550000D03*
%TO.P,Q121,3,D*%
%TO.N,Net-(Q121-D)*%
X189027500Y-81600000D03*
%TD*%
D11*
%TO.P,Q10,1,G*%
%TO.N,Net-(J7-Pin_1)*%
X74327500Y-67350000D03*
%TO.P,Q10,2,S*%
%TO.N,GND*%
X74327500Y-65450000D03*
%TO.P,Q10,3,D*%
%TO.N,Net-(Q10-D)*%
X72452500Y-66400000D03*
%TD*%
D15*
%TO.P,R47,1*%
%TO.N,VCC*%
X206520000Y-59200000D03*
%TO.P,R47,2*%
%TO.N,Net-(D15-Pad2)*%
X204880000Y-59200000D03*
%TD*%
D12*
%TO.P,Q45,1,G*%
%TO.N,Net-(J2-Pin_17)*%
X123152500Y-65450000D03*
%TO.P,Q45,2,S*%
%TO.N,Net-(Q37-D)*%
X123152500Y-67350000D03*
%TO.P,Q45,3,D*%
%TO.N,Net-(Q125-D)*%
X125027500Y-66400000D03*
%TD*%
D11*
%TO.P,Q9,1,G*%
%TO.N,Net-(J1-Pin_17)*%
X70027500Y-67350000D03*
%TO.P,Q9,2,S*%
%TO.N,Net-(Q10-D)*%
X70027500Y-65450000D03*
%TO.P,Q9,3,D*%
%TO.N,Net-(Q109-D)*%
X68152500Y-66400000D03*
%TD*%
D19*
%TO.P,R156,1*%
%TO.N,VCC*%
X71970000Y-29900000D03*
%TO.P,R156,2*%
%TO.N,Net-(D24-Pad2)*%
X73610000Y-29900000D03*
%TD*%
%TO.P,R38,1*%
%TO.N,VCC*%
X167970000Y-29900000D03*
%TO.P,R38,2*%
%TO.N,Net-(D6-Pad2)*%
X169610000Y-29900000D03*
%TD*%
D10*
%TO.P,R23,1*%
%TO.N,VCC*%
X118290000Y-104000000D03*
%TO.P,R23,2*%
%TO.N,Net-(Q122-D)*%
X118290000Y-105000000D03*
%TD*%
D11*
%TO.P,Q57,1,G*%
%TO.N,Net-(J3-Pin_21)*%
X134027500Y-82550000D03*
%TO.P,Q57,2,S*%
%TO.N,Net-(Q49-D)*%
X134027500Y-80650000D03*
%TO.P,Q57,3,D*%
%TO.N,Net-(Q1-D)*%
X132152500Y-81600000D03*
%TD*%
%TO.P,Q105,1,G*%
%TO.N,Net-(J4-Pin_21)*%
X166027500Y-82550000D03*
%TO.P,Q105,2,S*%
%TO.N,Net-(Q105-S)*%
X166027500Y-80650000D03*
%TO.P,Q105,3,D*%
%TO.N,Net-(Q1-D)*%
X164152500Y-81600000D03*
%TD*%
D12*
%TO.P,Q82,1,G*%
%TO.N,Net-(J8-Pin_3)*%
X150852500Y-76850000D03*
%TO.P,Q82,2,S*%
%TO.N,GND*%
X150852500Y-78750000D03*
%TO.P,Q82,3,D*%
%TO.N,Net-(Q82-D)*%
X152727500Y-77800000D03*
%TD*%
D11*
%TO.P,Q112,1,G*%
%TO.N,Net-(J4-Pin_14)*%
X166027500Y-55950000D03*
%TO.P,Q112,2,S*%
%TO.N,Net-(Q104-D)*%
X166027500Y-54050000D03*
%TO.P,Q112,3,D*%
%TO.N,Net-(Q112-D)*%
X164152500Y-55000000D03*
%TD*%
D17*
%TO.P,D4,1*%
%TO.N,Net-(Q149-D)*%
X136200000Y-32000000D03*
%TO.P,D4,2*%
%TO.N,Net-(D4-Pad2)*%
X137780000Y-32000000D03*
%TD*%
D12*
%TO.P,Q65,1,G*%
%TO.N,Net-(J8-Pin_1)*%
X86852500Y-80650000D03*
%TO.P,Q65,2,S*%
%TO.N,GND*%
X86852500Y-82550000D03*
%TO.P,Q65,3,D*%
%TO.N,Net-(Q65-D)*%
X88727500Y-81600000D03*
%TD*%
D11*
%TO.P,Q1,1,G*%
%TO.N,Net-(J1-Pin_21)*%
X70027500Y-82550000D03*
%TO.P,Q1,2,S*%
%TO.N,Net-(Q1-S)*%
X70027500Y-80650000D03*
%TO.P,Q1,3,D*%
%TO.N,Net-(Q1-D)*%
X68152500Y-81600000D03*
%TD*%
D12*
%TO.P,Q81,1,G*%
%TO.N,Net-(J8-Pin_3)*%
X150852500Y-80650000D03*
%TO.P,Q81,2,S*%
%TO.N,GND*%
X150852500Y-82550000D03*
%TO.P,Q81,3,D*%
%TO.N,Net-(Q81-D)*%
X152727500Y-81600000D03*
%TD*%
D11*
%TO.P,Q3,1,G*%
%TO.N,Net-(J1-Pin_20)*%
X70027500Y-78750000D03*
%TO.P,Q3,2,S*%
%TO.N,Net-(Q3-S)*%
X70027500Y-76850000D03*
%TO.P,Q3,3,D*%
%TO.N,Net-(Q106-D)*%
X68152500Y-77800000D03*
%TD*%
%TO.P,Q55,1,G*%
%TO.N,Net-(J7-Pin_3)*%
X138327500Y-59750000D03*
%TO.P,Q55,2,S*%
%TO.N,GND*%
X138327500Y-57850000D03*
%TO.P,Q55,3,D*%
%TO.N,Net-(Q55-D)*%
X136452500Y-58800000D03*
%TD*%
D16*
%TO.P,Q139,1,G*%
%TO.N,Net-(Q126-D)*%
X103340000Y-108837500D03*
%TO.P,Q139,2,S*%
%TO.N,GND*%
X105240000Y-108837500D03*
%TO.P,Q139,3,D*%
%TO.N,Net-(J11-Pin_3)*%
X104290000Y-106962500D03*
%TD*%
D11*
%TO.P,Q22,1,G*%
%TO.N,Net-(J7-Pin_2)*%
X106327500Y-63550000D03*
%TO.P,Q22,2,S*%
%TO.N,GND*%
X106327500Y-61650000D03*
%TO.P,Q22,3,D*%
%TO.N,Net-(Q22-D)*%
X104452500Y-62600000D03*
%TD*%
D13*
%TO.P,J12,1,Pin_1*%
%TO.N,Net-(J1-Pin_6)*%
X57190000Y-31120000D03*
D14*
%TO.P,J12,2,Pin_2*%
%TO.N,Net-(J1-Pin_7)*%
X57190000Y-33660000D03*
%TO.P,J12,3,Pin_3*%
%TO.N,Net-(J1-Pin_8)*%
X57190000Y-36200000D03*
%TO.P,J12,4,Pin_4*%
%TO.N,Net-(J1-Pin_9)*%
X57190000Y-38740000D03*
%TO.P,J12,5,Pin_5*%
%TO.N,Net-(J1-Pin_10)*%
X57190000Y-41280000D03*
%TO.P,J12,6,Pin_6*%
%TO.N,Net-(J1-Pin_11)*%
X57190000Y-43820000D03*
%TO.P,J12,7,Pin_7*%
%TO.N,Net-(J1-Pin_12)*%
X57190000Y-46360000D03*
%TO.P,J12,8,Pin_8*%
%TO.N,Net-(J1-Pin_13)*%
X57190000Y-48900000D03*
%TD*%
D20*
%TO.P,C13,1*%
%TO.N,VCC*%
X160612500Y-111937500D03*
%TO.P,C13,2*%
%TO.N,GND*%
X160612500Y-113837500D03*
%TD*%
D22*
%TO.P,D5,1*%
%TO.N,Net-(Q150-D)*%
X152980000Y-32000000D03*
%TO.P,D5,2*%
%TO.N,Net-(D5-Pad2)*%
X151400000Y-32000000D03*
%TD*%
D17*
%TO.P,D8,1*%
%TO.N,GND*%
X163812500Y-113887500D03*
%TO.P,D8,2*%
%TO.N,Net-(D8-Pad2)*%
X165392500Y-113887500D03*
%TD*%
D11*
%TO.P,Q104,1,G*%
%TO.N,Net-(J7-Pin_4)*%
X170327500Y-55950000D03*
%TO.P,Q104,2,S*%
%TO.N,GND*%
X170327500Y-54050000D03*
%TO.P,Q104,3,D*%
%TO.N,Net-(Q104-D)*%
X168452500Y-55000000D03*
%TD*%
D13*
%TO.P,J2,1,Pin_1*%
%TO.N,VCC*%
X112590000Y-33100000D03*
D14*
%TO.P,J2,2,Pin_2*%
%TO.N,GND*%
X112590000Y-35640000D03*
%TO.P,J2,3,Pin_3*%
%TO.N,RST*%
X112590000Y-38180000D03*
%TO.P,J2,4,Pin_4*%
%TO.N,Net-(J2-Pin_4)*%
X112590000Y-40720000D03*
%TO.P,J2,5,Pin_5*%
%TO.N,Rising_Edge*%
X112590000Y-43260000D03*
%TO.P,J2,6,Pin_6*%
%TO.N,Net-(J1-Pin_6)*%
X112590000Y-45800000D03*
%TO.P,J2,7,Pin_7*%
%TO.N,Net-(J1-Pin_7)*%
X112590000Y-48340000D03*
%TO.P,J2,8,Pin_8*%
%TO.N,Net-(J1-Pin_8)*%
X112590000Y-50880000D03*
%TO.P,J2,9,Pin_9*%
%TO.N,Net-(J1-Pin_9)*%
X112590000Y-53420000D03*
%TO.P,J2,10,Pin_10*%
%TO.N,Net-(J1-Pin_10)*%
X112590000Y-55960000D03*
%TO.P,J2,11,Pin_11*%
%TO.N,Net-(J1-Pin_11)*%
X112590000Y-58500000D03*
%TO.P,J2,12,Pin_12*%
%TO.N,Net-(J1-Pin_12)*%
X112590000Y-61040000D03*
%TO.P,J2,13,Pin_13*%
%TO.N,Net-(J1-Pin_13)*%
X112590000Y-63580000D03*
%TO.P,J2,14,Pin_14*%
%TO.N,Net-(J2-Pin_14)*%
X112590000Y-66120000D03*
%TO.P,J2,15,Pin_15*%
%TO.N,Net-(J2-Pin_15)*%
X112590000Y-68660000D03*
%TO.P,J2,16,Pin_16*%
%TO.N,Net-(J2-Pin_16)*%
X112590000Y-71200000D03*
%TO.P,J2,17,Pin_17*%
%TO.N,Net-(J2-Pin_17)*%
X112590000Y-73740000D03*
%TO.P,J2,18,Pin_18*%
%TO.N,Net-(J2-Pin_18)*%
X112590000Y-76280000D03*
%TO.P,J2,19,Pin_19*%
%TO.N,Net-(J2-Pin_19)*%
X112590000Y-78820000D03*
%TO.P,J2,20,Pin_20*%
%TO.N,Net-(J2-Pin_20)*%
X112590000Y-81360000D03*
%TO.P,J2,21,Pin_21*%
%TO.N,Net-(J2-Pin_21)*%
X112590000Y-83900000D03*
%TD*%
D20*
%TO.P,C15,1*%
%TO.N,VCC*%
X154662500Y-111937500D03*
%TO.P,C15,2*%
%TO.N,GND*%
X154662500Y-113837500D03*
%TD*%
D12*
%TO.P,Q86,1,G*%
%TO.N,Net-(J8-Pin_3)*%
X150852500Y-61650000D03*
%TO.P,Q86,2,S*%
%TO.N,GND*%
X150852500Y-63550000D03*
%TO.P,Q86,3,D*%
%TO.N,Net-(Q86-D)*%
X152727500Y-62600000D03*
%TD*%
D16*
%TO.P,Q141,1,G*%
%TO.N,Net-(Q124-D)*%
X110940000Y-108837500D03*
%TO.P,Q141,2,S*%
%TO.N,GND*%
X112840000Y-108837500D03*
%TO.P,Q141,3,D*%
%TO.N,Net-(J11-Pin_5)*%
X111890000Y-106962500D03*
%TD*%
%TO.P,Q136,1,G*%
%TO.N,Net-(Q1-D)*%
X87340000Y-108837500D03*
%TO.P,Q136,2,S*%
%TO.N,GND*%
X89240000Y-108837500D03*
%TO.P,Q136,3,D*%
%TO.N,Net-(J10-Pin_8)*%
X88290000Y-106962500D03*
%TD*%
%TO.P,Q137,1,G*%
%TO.N,Net-(Q128-D)*%
X95740000Y-108837500D03*
%TO.P,Q137,2,S*%
%TO.N,GND*%
X97640000Y-108837500D03*
%TO.P,Q137,3,D*%
%TO.N,Net-(J11-Pin_1)*%
X96690000Y-106962500D03*
%TD*%
%TO.P,Q138,1,G*%
%TO.N,Net-(Q127-D)*%
X99540000Y-108837500D03*
%TO.P,Q138,2,S*%
%TO.N,GND*%
X101440000Y-108837500D03*
%TO.P,Q138,3,D*%
%TO.N,Net-(J11-Pin_2)*%
X100490000Y-106962500D03*
%TD*%
D17*
%TO.P,D15,1*%
%TO.N,Net-(Q159-D)*%
X204710000Y-61300000D03*
%TO.P,D15,2*%
%TO.N,Net-(D15-Pad2)*%
X206290000Y-61300000D03*
%TD*%
D11*
%TO.P,Q111,1,G*%
%TO.N,Net-(J4-Pin_15)*%
X166027500Y-59750000D03*
%TO.P,Q111,2,S*%
%TO.N,Net-(Q103-D)*%
X166027500Y-57850000D03*
%TO.P,Q111,3,D*%
%TO.N,Net-(Q111-D)*%
X164152500Y-58800000D03*
%TD*%
D16*
%TO.P,Q129,1,G*%
%TO.N,Net-(Q112-D)*%
X60740000Y-108837500D03*
%TO.P,Q129,2,S*%
%TO.N,GND*%
X62640000Y-108837500D03*
%TO.P,Q129,3,D*%
%TO.N,Net-(J10-Pin_1)*%
X61690000Y-106962500D03*
%TD*%
D12*
%TO.P,Q43,1,G*%
%TO.N,Net-(J2-Pin_19)*%
X123152500Y-73050000D03*
%TO.P,Q43,2,S*%
%TO.N,Net-(Q35-D)*%
X123152500Y-74950000D03*
%TO.P,Q43,3,D*%
%TO.N,Net-(Q123-D)*%
X125027500Y-74000000D03*
%TD*%
D11*
%TO.P,Q106,1,G*%
%TO.N,Net-(J4-Pin_20)*%
X166027500Y-78750000D03*
%TO.P,Q106,2,S*%
%TO.N,Net-(Q106-S)*%
X166027500Y-76850000D03*
%TO.P,Q106,3,D*%
%TO.N,Net-(Q106-D)*%
X164152500Y-77800000D03*
%TD*%
D20*
%TO.P,C6,1*%
%TO.N,VCC*%
X145512500Y-111937500D03*
%TO.P,C6,2*%
%TO.N,GND*%
X145512500Y-113837500D03*
%TD*%
D22*
%TO.P,D7,1*%
%TO.N,Net-(Q152-D)*%
X184980000Y-32000000D03*
%TO.P,D7,2*%
%TO.N,Net-(D7-Pad2)*%
X183400000Y-32000000D03*
%TD*%
D10*
%TO.P,R18,1*%
%TO.N,VCC*%
X99290000Y-104000000D03*
%TO.P,R18,2*%
%TO.N,Net-(Q127-D)*%
X99290000Y-105000000D03*
%TD*%
D12*
%TO.P,Q69,1,G*%
%TO.N,Net-(J8-Pin_1)*%
X86852500Y-65450000D03*
%TO.P,Q69,2,S*%
%TO.N,GND*%
X86852500Y-67350000D03*
%TO.P,Q69,3,D*%
%TO.N,Net-(Q69-D)*%
X88727500Y-66400000D03*
%TD*%
%TO.P,Q115,1,G*%
%TO.N,Net-(J8-Pin_4)*%
X182852500Y-73050000D03*
%TO.P,Q115,2,S*%
%TO.N,GND*%
X182852500Y-74950000D03*
%TO.P,Q115,3,D*%
%TO.N,Net-(Q115-D)*%
X184727500Y-74000000D03*
%TD*%
D11*
%TO.P,Q21,1,G*%
%TO.N,Net-(J7-Pin_2)*%
X106327500Y-67350000D03*
%TO.P,Q21,2,S*%
%TO.N,GND*%
X106327500Y-65450000D03*
%TO.P,Q21,3,D*%
%TO.N,Net-(Q21-D)*%
X104452500Y-66400000D03*
%TD*%
D12*
%TO.P,Q67,1,G*%
%TO.N,Net-(J8-Pin_1)*%
X86852500Y-73050000D03*
%TO.P,Q67,2,S*%
%TO.N,GND*%
X86852500Y-74950000D03*
%TO.P,Q67,3,D*%
%TO.N,Net-(Q67-D)*%
X88727500Y-74000000D03*
%TD*%
D13*
%TO.P,J13,1,Pin_1*%
%TO.N,VCC*%
X123600000Y-23800000D03*
D14*
%TO.P,J13,2,Pin_2*%
%TO.N,GND*%
X126140000Y-23800000D03*
%TD*%
D11*
%TO.P,Q110,1,G*%
%TO.N,Net-(J4-Pin_16)*%
X166027500Y-63550000D03*
%TO.P,Q110,2,S*%
%TO.N,Net-(Q102-D)*%
X166027500Y-61650000D03*
%TO.P,Q110,3,D*%
%TO.N,Net-(Q11-D)*%
X164152500Y-62600000D03*
%TD*%
D21*
%TO.P,R12,1*%
%TO.N,VCC*%
X73090000Y-101700000D03*
%TO.P,R12,2*%
%TO.N,Net-(Q109-D)*%
X73090000Y-100700000D03*
%TD*%
D12*
%TO.P,Q118,1,G*%
%TO.N,Net-(J8-Pin_4)*%
X182852500Y-61650000D03*
%TO.P,Q118,2,S*%
%TO.N,GND*%
X182852500Y-63550000D03*
%TO.P,Q118,3,D*%
%TO.N,Net-(Q118-D)*%
X184727500Y-62600000D03*
%TD*%
%TO.P,Q158,1,G*%
%TO.N,Net-(J1-Pin_8)*%
X200662500Y-63350000D03*
%TO.P,Q158,2,S*%
%TO.N,GND*%
X200662500Y-65250000D03*
%TO.P,Q158,3,D*%
%TO.N,Net-(Q158-D)*%
X202537500Y-64300000D03*
%TD*%
D17*
%TO.P,D2,1*%
%TO.N,Net-(Q147-D)*%
X104200000Y-32000000D03*
%TO.P,D2,2*%
%TO.N,Net-(D2-Pad2)*%
X105780000Y-32000000D03*
%TD*%
D20*
%TO.P,C8,1*%
%TO.N,VCC*%
X139412500Y-111937500D03*
%TO.P,C8,2*%
%TO.N,GND*%
X139412500Y-113837500D03*
%TD*%
D11*
%TO.P,Q8,1,G*%
%TO.N,Net-(J7-Pin_1)*%
X74327500Y-71150000D03*
%TO.P,Q8,2,S*%
%TO.N,GND*%
X74327500Y-69250000D03*
%TO.P,Q8,3,D*%
%TO.N,Net-(Q7-S)*%
X72452500Y-70200000D03*
%TD*%
D21*
%TO.P,R15,1*%
%TO.N,VCC*%
X84490000Y-101700000D03*
%TO.P,R15,2*%
%TO.N,Net-(Q106-D)*%
X84490000Y-100700000D03*
%TD*%
D12*
%TO.P,Q114,1,G*%
%TO.N,Net-(J8-Pin_4)*%
X182852500Y-76850000D03*
%TO.P,Q114,2,S*%
%TO.N,GND*%
X182852500Y-78750000D03*
%TO.P,Q114,3,D*%
%TO.N,Net-(Q114-D)*%
X184727500Y-77800000D03*
%TD*%
D17*
%TO.P,D13,1*%
%TO.N,Net-(Q157-D)*%
X204710000Y-69300000D03*
%TO.P,D13,2*%
%TO.N,Net-(D13-Pad2)*%
X206290000Y-69300000D03*
%TD*%
D16*
%TO.P,Q133,1,G*%
%TO.N,Net-(Q108-D)*%
X75940000Y-108837500D03*
%TO.P,Q133,2,S*%
%TO.N,GND*%
X77840000Y-108837500D03*
%TO.P,Q133,3,D*%
%TO.N,Net-(J10-Pin_5)*%
X76890000Y-106962500D03*
%TD*%
D10*
%TO.P,R28,1*%
%TO.N,VCC*%
X108090000Y-104000000D03*
%TO.P,R28,2*%
%TO.N,Net-(J11-Pin_4)*%
X108090000Y-105000000D03*
%TD*%
D11*
%TO.P,Q58,1,G*%
%TO.N,Net-(J3-Pin_20)*%
X134027500Y-78750000D03*
%TO.P,Q58,2,S*%
%TO.N,Net-(Q50-D)*%
X134027500Y-76850000D03*
%TO.P,Q58,3,D*%
%TO.N,Net-(Q106-D)*%
X132152500Y-77800000D03*
%TD*%
D10*
%TO.P,R22,1*%
%TO.N,VCC*%
X114490000Y-104000000D03*
%TO.P,R22,2*%
%TO.N,Net-(Q123-D)*%
X114490000Y-105000000D03*
%TD*%
D12*
%TO.P,Q123,1,G*%
%TO.N,Net-(J4-Pin_19)*%
X187152500Y-73050000D03*
%TO.P,Q123,2,S*%
%TO.N,Net-(Q115-D)*%
X187152500Y-74950000D03*
%TO.P,Q123,3,D*%
%TO.N,Net-(Q123-D)*%
X189027500Y-74000000D03*
%TD*%
D22*
%TO.P,D3,1*%
%TO.N,Net-(Q148-D)*%
X121080000Y-32000000D03*
%TO.P,D3,2*%
%TO.N,Net-(D3-Pad2)*%
X119500000Y-32000000D03*
%TD*%
D12*
%TO.P,Q94,1,G*%
%TO.N,Net-(J3-Pin_16)*%
X155152500Y-61650000D03*
%TO.P,Q94,2,S*%
%TO.N,Net-(Q86-D)*%
X155152500Y-63550000D03*
%TO.P,Q94,3,D*%
%TO.N,Net-(Q126-D)*%
X157027500Y-62600000D03*
%TD*%
D11*
%TO.P,Q109,1,G*%
%TO.N,Net-(J4-Pin_17)*%
X166027500Y-67350000D03*
%TO.P,Q109,2,S*%
%TO.N,Net-(Q101-D)*%
X166027500Y-65450000D03*
%TO.P,Q109,3,D*%
%TO.N,Net-(Q109-D)*%
X164152500Y-66400000D03*
%TD*%
D12*
%TO.P,Q95,1,G*%
%TO.N,Net-(J3-Pin_15)*%
X155152500Y-57850000D03*
%TO.P,Q95,2,S*%
%TO.N,Net-(Q87-D)*%
X155152500Y-59750000D03*
%TO.P,Q95,3,D*%
%TO.N,Net-(Q127-D)*%
X157027500Y-58800000D03*
%TD*%
D11*
%TO.P,Q100,1,G*%
%TO.N,Net-(J7-Pin_4)*%
X170327500Y-71150000D03*
%TO.P,Q100,2,S*%
%TO.N,GND*%
X170327500Y-69250000D03*
%TO.P,Q100,3,D*%
%TO.N,Net-(Q100-D)*%
X168452500Y-70200000D03*
%TD*%
%TO.P,Q98,1,G*%
%TO.N,Net-(J7-Pin_4)*%
X170327500Y-78750000D03*
%TO.P,Q98,2,S*%
%TO.N,GND*%
X170327500Y-76850000D03*
%TO.P,Q98,3,D*%
%TO.N,Net-(Q106-S)*%
X168452500Y-77800000D03*
%TD*%
%TO.P,Q13,1,G*%
%TO.N,Net-(J1-Pin_15)*%
X70027500Y-59750000D03*
%TO.P,Q13,2,S*%
%TO.N,Net-(Q13-S)*%
X70027500Y-57850000D03*
%TO.P,Q13,3,D*%
%TO.N,Net-(Q111-D)*%
X68152500Y-58800000D03*
%TD*%
%TO.P,Q2,1,G*%
%TO.N,Net-(J7-Pin_1)*%
X74327500Y-82550000D03*
%TO.P,Q2,2,S*%
%TO.N,GND*%
X74327500Y-80650000D03*
%TO.P,Q2,3,D*%
%TO.N,Net-(Q1-S)*%
X72452500Y-81600000D03*
%TD*%
%TO.P,Q107,1,G*%
%TO.N,Net-(J4-Pin_19)*%
X166027500Y-74950000D03*
%TO.P,Q107,2,S*%
%TO.N,Net-(Q107-S)*%
X166027500Y-73050000D03*
%TO.P,Q107,3,D*%
%TO.N,Net-(Q107-D)*%
X164152500Y-74000000D03*
%TD*%
D22*
%TO.P,D1,1*%
%TO.N,Net-(Q146-D)*%
X88980000Y-32000000D03*
%TO.P,D1,2*%
%TO.N,Net-(D1-Pad2)*%
X87400000Y-32000000D03*
%TD*%
D12*
%TO.P,Q89,1,G*%
%TO.N,Net-(J3-Pin_21)*%
X155152500Y-80650000D03*
%TO.P,Q89,2,S*%
%TO.N,Net-(Q81-D)*%
X155152500Y-82550000D03*
%TO.P,Q89,3,D*%
%TO.N,Net-(Q121-D)*%
X157027500Y-81600000D03*
%TD*%
D18*
%TO.P,C1,1*%
%TO.N,VCC*%
X130650000Y-24700000D03*
%TO.P,C1,2*%
%TO.N,GND*%
X130650000Y-22800000D03*
%TD*%
D11*
%TO.P,Q32,1,G*%
%TO.N,Net-(J2-Pin_14)*%
X102027500Y-55950000D03*
%TO.P,Q32,2,S*%
%TO.N,Net-(Q24-D)*%
X102027500Y-54050000D03*
%TO.P,Q32,3,D*%
%TO.N,Net-(Q112-D)*%
X100152500Y-55000000D03*
%TD*%
%TO.P,Q152,1,G*%
%TO.N,Net-(J8-Pin_4)*%
X189027500Y-31950000D03*
%TO.P,Q152,2,S*%
%TO.N,GND*%
X189027500Y-30050000D03*
%TO.P,Q152,3,D*%
%TO.N,Net-(Q152-D)*%
X187152500Y-31000000D03*
%TD*%
D10*
%TO.P,R31,1*%
%TO.N,VCC*%
X119490000Y-104000000D03*
%TO.P,R31,2*%
%TO.N,Net-(J11-Pin_7)*%
X119490000Y-105000000D03*
%TD*%
D16*
%TO.P,Q142,1,G*%
%TO.N,Net-(Q123-D)*%
X114740000Y-108837500D03*
%TO.P,Q142,2,S*%
%TO.N,GND*%
X116640000Y-108837500D03*
%TO.P,Q142,3,D*%
%TO.N,Net-(J11-Pin_6)*%
X115690000Y-106962500D03*
%TD*%
D12*
%TO.P,Q76,1,G*%
%TO.N,Net-(J1-Pin_18)*%
X91152500Y-69250000D03*
%TO.P,Q76,2,S*%
%TO.N,Net-(Q68-D)*%
X91152500Y-71150000D03*
%TO.P,Q76,3,D*%
%TO.N,Net-(Q124-D)*%
X93027500Y-70200000D03*
%TD*%
D21*
%TO.P,R10,1*%
%TO.N,VCC*%
X65490000Y-101700000D03*
%TO.P,R10,2*%
%TO.N,Net-(Q111-D)*%
X65490000Y-100700000D03*
%TD*%
D12*
%TO.P,Q113,1,G*%
%TO.N,Net-(J8-Pin_4)*%
X182852500Y-80650000D03*
%TO.P,Q113,2,S*%
%TO.N,GND*%
X182852500Y-82550000D03*
%TO.P,Q113,3,D*%
%TO.N,Net-(Q113-D)*%
X184727500Y-81600000D03*
%TD*%
D18*
%TO.P,C2,1*%
%TO.N,VCC*%
X133700000Y-24700000D03*
%TO.P,C2,2*%
%TO.N,GND*%
X133700000Y-22800000D03*
%TD*%
D23*
%TO.N,Net-(J1-Pin_16)*%
X71690000Y-63800000D03*
X89290000Y-60400000D03*
%TO.N,Net-(J1-Pin_15)*%
X71690000Y-60000000D03*
X89490000Y-57700000D03*
%TO.N,Net-(J1-Pin_20)*%
X89490000Y-76600000D03*
X71690000Y-79000000D03*
%TO.N,Net-(J1-Pin_11)*%
X193900000Y-75300000D03*
D24*
%TO.N,GND*%
X199000000Y-84300000D03*
D23*
X121390000Y-110200000D03*
X117590000Y-110200000D03*
X63590000Y-110200000D03*
D24*
X156990000Y-28300000D03*
D23*
X102390000Y-110200000D03*
D24*
X139890000Y-79500000D03*
D23*
X67390000Y-110200000D03*
X71190000Y-110200000D03*
D24*
X75890000Y-79500000D03*
D23*
X106190000Y-110200000D03*
D24*
X188990000Y-28300000D03*
X199000000Y-68300000D03*
X100190000Y-33300000D03*
D23*
X82590000Y-110200000D03*
D24*
X124990000Y-28300000D03*
X199000000Y-76300000D03*
X171890000Y-79500000D03*
X199000000Y-64300000D03*
X199000000Y-60300000D03*
D23*
X78790000Y-110200000D03*
X90190000Y-110200000D03*
X109990000Y-110200000D03*
D24*
X199000000Y-72300000D03*
X199000000Y-56300000D03*
D23*
X125190000Y-110200000D03*
D24*
X85290000Y-81400000D03*
X117290000Y-81400000D03*
D23*
X86390000Y-110200000D03*
D24*
X68190000Y-33300000D03*
X181290000Y-81400000D03*
D23*
X74990000Y-110200000D03*
D24*
X132190000Y-33300000D03*
D23*
X113790000Y-110200000D03*
D24*
X164190000Y-33300000D03*
X149290000Y-81400000D03*
D23*
X98590000Y-110200000D03*
D24*
X199000000Y-80300000D03*
X92990000Y-28300000D03*
X107890000Y-79500000D03*
D23*
%TO.N,Net-(J1-Pin_10)*%
X193500000Y-71300000D03*
%TO.N,Net-(J1-Pin_18)*%
X89490000Y-69000000D03*
X71690000Y-71400000D03*
%TO.N,Net-(J1-Pin_14)*%
X89490000Y-53900000D03*
X71690000Y-56200000D03*
%TO.N,Net-(J1-Pin_21)*%
X71690000Y-82800000D03*
X89490000Y-80400000D03*
%TO.N,VCC*%
X115690000Y-102900000D03*
X111890000Y-102900000D03*
D24*
X167990000Y-28200000D03*
D23*
X96690000Y-102900000D03*
X100490000Y-102900000D03*
D24*
X135990000Y-28200000D03*
D23*
X80690000Y-102900000D03*
X65490000Y-102900000D03*
D24*
X121290000Y-28400000D03*
X103990000Y-28200000D03*
D23*
X104290000Y-102900000D03*
X76890000Y-102900000D03*
D25*
X205600000Y-89000000D03*
D24*
X71990000Y-28200000D03*
D23*
X119490000Y-102900000D03*
D24*
X89290000Y-28400000D03*
D23*
X123290000Y-102900000D03*
X88290000Y-102900000D03*
D25*
X204500000Y-52600000D03*
D23*
X61690000Y-102900000D03*
X84490000Y-102900000D03*
D24*
X185290000Y-28400000D03*
D23*
X69290000Y-102900000D03*
X73090000Y-102900000D03*
X108090000Y-102900000D03*
D24*
X153290000Y-28400000D03*
D23*
%TO.N,Net-(J1-Pin_19)*%
X71690000Y-75200000D03*
X89490000Y-72800000D03*
%TO.N,Net-(J1-Pin_13)*%
X194700000Y-83300000D03*
%TO.N,Net-(J1-Pin_12)*%
X194300000Y-79300000D03*
%TO.N,Net-(J1-Pin_9)*%
X193100000Y-67300000D03*
%TO.N,Net-(J1-Pin_17)*%
X89490000Y-65200000D03*
X71690000Y-67600000D03*
%TO.N,Net-(J1-Pin_7)*%
X192200000Y-59300000D03*
%TO.N,Net-(J1-Pin_6)*%
X191900000Y-55300000D03*
%TO.N,Net-(J1-Pin_8)*%
X192700000Y-63300000D03*
%TO.N,Net-(J2-Pin_17)*%
X103790000Y-67600000D03*
X121390000Y-65200000D03*
%TO.N,Net-(J2-Pin_15)*%
X121490000Y-57600000D03*
X103790000Y-60100000D03*
%TO.N,Net-(J2-Pin_20)*%
X121490000Y-76600000D03*
X103790000Y-79000000D03*
%TO.N,Net-(J2-Pin_14)*%
X121490000Y-53800000D03*
X103790000Y-56500000D03*
%TO.N,Net-(J2-Pin_18)*%
X121490000Y-69000000D03*
X103690000Y-71500000D03*
%TO.N,Net-(J2-Pin_21)*%
X103790000Y-82800000D03*
X121390000Y-80400000D03*
%TO.N,Net-(J2-Pin_19)*%
X121490000Y-72800000D03*
X103790000Y-75200000D03*
%TO.N,Net-(J2-Pin_16)*%
X103690000Y-64100000D03*
X122190000Y-62400000D03*
%TO.N,Net-(J3-Pin_18)*%
X135690000Y-71400000D03*
X153490000Y-69000000D03*
%TO.N,Net-(J3-Pin_16)*%
X154190000Y-62500000D03*
X135790000Y-64100000D03*
%TO.N,Net-(J3-Pin_19)*%
X153490000Y-72800000D03*
X135690000Y-75200000D03*
%TO.N,Net-(J3-Pin_20)*%
X153390000Y-76600000D03*
X135690000Y-79000000D03*
%TO.N,Net-(J3-Pin_17)*%
X135690000Y-67600000D03*
X153490000Y-65200000D03*
%TO.N,Net-(J3-Pin_14)*%
X135690000Y-56500000D03*
X153490000Y-53800000D03*
%TO.N,Net-(J3-Pin_21)*%
X153390000Y-80400000D03*
X135690000Y-82800000D03*
%TO.N,Net-(J3-Pin_15)*%
X135690000Y-60000000D03*
X153490000Y-57600000D03*
%TO.N,Net-(J4-Pin_17)*%
X167690000Y-67600000D03*
X185490000Y-65200000D03*
%TO.N,Net-(J4-Pin_21)*%
X185490000Y-80400000D03*
X167690000Y-82800000D03*
%TO.N,Net-(J4-Pin_20)*%
X185490000Y-76600000D03*
X167690000Y-79000000D03*
%TO.N,Net-(J4-Pin_14)*%
X185490000Y-53800000D03*
X167690000Y-56500000D03*
%TO.N,Net-(J4-Pin_18)*%
X167690000Y-71400000D03*
X185490000Y-69000000D03*
%TO.N,Net-(J4-Pin_19)*%
X185490000Y-72800000D03*
X167690000Y-75200000D03*
%TO.N,Net-(J4-Pin_16)*%
X167690000Y-64100000D03*
X185490000Y-61400000D03*
%TO.N,Net-(J4-Pin_15)*%
X185490000Y-57600000D03*
X167690000Y-60000000D03*
%TO.N,Net-(J7-Pin_4)*%
X166790000Y-51900000D03*
%TO.N,Net-(J7-Pin_2)*%
X100060984Y-49229016D03*
%TO.N,Net-(J7-Pin_3)*%
X137190000Y-49600000D03*
%TO.N,Net-(J7-Pin_1)*%
X69239032Y-50407064D03*
%TO.N,Net-(J8-Pin_1)*%
X86690000Y-79700000D03*
%TO.N,Net-(J8-Pin_2)*%
X118490000Y-79700000D03*
%TO.N,Net-(J8-Pin_3)*%
X150590000Y-79700000D03*
%TO.N,Net-(J8-Pin_4)*%
X185090000Y-79100000D03*
%TO.N,Net-(Q1-D)*%
X154090000Y-95400000D03*
X130590000Y-81600000D03*
X66790000Y-81600000D03*
X123890000Y-95400000D03*
X93590000Y-95400000D03*
X98590000Y-81600000D03*
X162590000Y-81600000D03*
X87290000Y-98200000D03*
%TO.N,Net-(Q106-D)*%
X83540000Y-98200000D03*
X123390000Y-94700000D03*
X93090000Y-94700000D03*
X66790000Y-77800000D03*
X130590000Y-77800000D03*
X153590000Y-94700000D03*
X162590000Y-77800000D03*
X98590000Y-77800000D03*
%TO.N,Net-(Q107-D)*%
X130590000Y-74000000D03*
X79740000Y-98200000D03*
X162590000Y-74000000D03*
X92590000Y-94000000D03*
X98590000Y-74000000D03*
X153090000Y-94000000D03*
X66790000Y-74000000D03*
X122890000Y-94000000D03*
%TO.N,Net-(Q108-D)*%
X130590000Y-70200000D03*
X75940000Y-98200000D03*
X98590000Y-70200000D03*
X162590000Y-70200000D03*
X122390000Y-93300000D03*
X152590000Y-93300000D03*
X92090000Y-93300000D03*
X66790000Y-70200000D03*
%TO.N,Net-(Q109-D)*%
X66790000Y-66400000D03*
X130590000Y-66400000D03*
X152090000Y-92600000D03*
X72140000Y-98200000D03*
X121890000Y-92600000D03*
X98590000Y-66400000D03*
X91590000Y-92600000D03*
X162590000Y-66400000D03*
%TO.N,Net-(Q11-D)*%
X121390000Y-91900000D03*
X91090000Y-91900000D03*
X162590000Y-62500000D03*
X66790000Y-62600000D03*
X130590000Y-62500000D03*
X151590000Y-91900000D03*
X68340000Y-98200000D03*
X98590000Y-62500000D03*
%TO.N,Net-(Q111-D)*%
X66790000Y-58800000D03*
X98590000Y-59300000D03*
X90590000Y-91200000D03*
X162590000Y-59300000D03*
X64540000Y-98200000D03*
X120890000Y-91200000D03*
X151090000Y-91200000D03*
X130590000Y-59300000D03*
%TO.N,Net-(Q112-D)*%
X98590000Y-54900000D03*
X150590000Y-90500000D03*
X130590000Y-54900000D03*
X162590000Y-54900000D03*
X90090000Y-90500000D03*
X120390000Y-90500000D03*
X60740000Y-98200000D03*
X66790000Y-55000000D03*
%TO.N,Net-(Q121-D)*%
X122090000Y-102200000D03*
X125790000Y-101200000D03*
X150590000Y-101200000D03*
X94590000Y-81600000D03*
X122090000Y-106400000D03*
X158590000Y-81600000D03*
X190390000Y-81600000D03*
X126590000Y-81600000D03*
%TO.N,Net-(Q122-D)*%
X152390000Y-100500000D03*
X94590000Y-77800000D03*
X118290000Y-106400000D03*
X158590000Y-77800000D03*
X126390000Y-100500000D03*
X118290000Y-101600000D03*
X190390000Y-77800000D03*
X126590000Y-77800000D03*
%TO.N,Net-(Q123-D)*%
X114490000Y-101000000D03*
X126590000Y-74000000D03*
X158590000Y-74000000D03*
X114490000Y-106400000D03*
X153990000Y-99800000D03*
X190390000Y-74000000D03*
X94590000Y-74000000D03*
X126990000Y-99800000D03*
%TO.N,Net-(Q124-D)*%
X110690000Y-100400000D03*
X110690000Y-106400000D03*
X126590000Y-70200000D03*
X158590000Y-70200000D03*
X127590000Y-99100000D03*
X94590000Y-70200000D03*
X190390000Y-70200000D03*
X155590000Y-99100000D03*
%TO.N,Net-(Q125-D)*%
X190390000Y-66400000D03*
X158590000Y-66400000D03*
X128190000Y-98400000D03*
X94590000Y-66400000D03*
X106890000Y-99800000D03*
X157190000Y-98400000D03*
X106890000Y-106400000D03*
X126590000Y-66400000D03*
%TO.N,Net-(Q126-D)*%
X103090000Y-106400000D03*
X190390000Y-62600000D03*
X103090000Y-99200000D03*
X128790000Y-97700000D03*
X126590000Y-62500000D03*
X94590000Y-62500000D03*
X158790000Y-97700000D03*
X158590000Y-62500000D03*
%TO.N,Net-(Q127-D)*%
X126590000Y-59300000D03*
X94590000Y-59300000D03*
X129390000Y-97000000D03*
X99290000Y-98100000D03*
X190390000Y-58800000D03*
X158590000Y-59300000D03*
X160490000Y-97000000D03*
X99290000Y-106400000D03*
%TO.N,Net-(Q128-D)*%
X190390000Y-55000000D03*
X126590000Y-54900000D03*
X161990000Y-96300000D03*
X95490000Y-106400000D03*
X94590000Y-55000000D03*
X158590000Y-54900000D03*
X98090000Y-96300000D03*
X129990000Y-96300000D03*
%TD*%
D26*
%TO.N,Net-(J1-Pin_16)*%
X70277500Y-63800000D02*
X70027500Y-63550000D01*
X89290000Y-60400000D02*
X89902500Y-60400000D01*
X71690000Y-63800000D02*
X70277500Y-63800000D01*
X89902500Y-60400000D02*
X91152500Y-61650000D01*
%TO.N,Net-(J1-Pin_15)*%
X71690000Y-60000000D02*
X70277500Y-60000000D01*
X70277500Y-60000000D02*
X70027500Y-59750000D01*
X89490000Y-57700000D02*
X91002500Y-57700000D01*
X91002500Y-57700000D02*
X91152500Y-57850000D01*
%TO.N,Net-(J1-Pin_20)*%
X70277500Y-79000000D02*
X70027500Y-78750000D01*
X89490000Y-76600000D02*
X90902500Y-76600000D01*
X71690000Y-79000000D02*
X70277500Y-79000000D01*
X90902500Y-76600000D02*
X91152500Y-76850000D01*
%TO.N,Net-(J1-Pin_11)*%
X193900000Y-75300000D02*
X193950000Y-75350000D01*
X193950000Y-75350000D02*
X200662500Y-75350000D01*
%TO.N,GND*%
X105240000Y-109250000D02*
X106190000Y-110200000D01*
X107202500Y-76912500D02*
X107740000Y-77450000D01*
X106290000Y-69300000D02*
X107202500Y-69300000D01*
X107202500Y-57900000D02*
X107752500Y-57350000D01*
X117940000Y-78750000D02*
X117390000Y-79300000D01*
X75202500Y-69300000D02*
X75752500Y-69850000D01*
X170290000Y-65500000D02*
X171202500Y-65500000D01*
X62640000Y-108837500D02*
X62640000Y-109250000D01*
X150852500Y-59750000D02*
X149940000Y-59750000D01*
X109040000Y-109250000D02*
X109990000Y-110200000D01*
X107202500Y-61712500D02*
X107740000Y-62250000D01*
X139202500Y-76912500D02*
X139740000Y-77450000D01*
X171202500Y-76912500D02*
X171740000Y-77450000D01*
X107202500Y-69300000D02*
X107752500Y-68750000D01*
X150852500Y-74950000D02*
X149940000Y-74950000D01*
X171202500Y-76900000D02*
X171752500Y-76350000D01*
X124240000Y-108837500D02*
X124240000Y-109250000D01*
D27*
X181490000Y-79000000D02*
X181490000Y-78800000D01*
D26*
X74040000Y-108837500D02*
X74040000Y-109250000D01*
D27*
X170340000Y-80650000D02*
X170327500Y-80650000D01*
D26*
X75202500Y-69300000D02*
X75752500Y-68750000D01*
X75202500Y-61712500D02*
X75740000Y-62250000D01*
X182852500Y-67350000D02*
X181940000Y-67350000D01*
X138290000Y-61700000D02*
X139202500Y-61700000D01*
X181940000Y-78750000D02*
X181390000Y-78200000D01*
X171202500Y-57900000D02*
X171752500Y-57350000D01*
X171202500Y-69300000D02*
X171752500Y-69850000D01*
X86852500Y-63550000D02*
X85940000Y-63550000D01*
X77840000Y-108837500D02*
X77840000Y-109250000D01*
X74290000Y-69300000D02*
X75202500Y-69300000D01*
D27*
X182852500Y-55950000D02*
X181490000Y-57312500D01*
X181290000Y-81400000D02*
X181490000Y-81200000D01*
X75652500Y-55375000D02*
X74327500Y-54050000D01*
D26*
X181940000Y-71150000D02*
X181390000Y-70600000D01*
X181940000Y-59750000D02*
X181390000Y-59200000D01*
X170290000Y-76900000D02*
X171202500Y-76900000D01*
X105240000Y-108837500D02*
X105240000Y-109250000D01*
X139202500Y-69300000D02*
X139752500Y-69850000D01*
X107202500Y-61700000D02*
X107752500Y-61150000D01*
X181940000Y-78750000D02*
X181390000Y-79300000D01*
D27*
X181490000Y-81187500D02*
X182852500Y-82550000D01*
X117490000Y-79000000D02*
X117490000Y-81187500D01*
D26*
X106290000Y-73100000D02*
X107202500Y-73100000D01*
X149940000Y-74950000D02*
X149390000Y-75500000D01*
D27*
X139652500Y-79337500D02*
X138340000Y-80650000D01*
D26*
X150852500Y-63550000D02*
X149940000Y-63550000D01*
X139202500Y-73112500D02*
X139740000Y-73650000D01*
X89240000Y-108837500D02*
X89240000Y-109250000D01*
X74290000Y-65500000D02*
X75202500Y-65500000D01*
X107202500Y-65500000D02*
X107752500Y-64950000D01*
X182852500Y-74950000D02*
X181940000Y-74950000D01*
X117940000Y-71150000D02*
X117390000Y-71700000D01*
X182852500Y-78750000D02*
X181940000Y-78750000D01*
D27*
X149490000Y-81187500D02*
X150852500Y-82550000D01*
D26*
X107202500Y-73112500D02*
X107740000Y-73650000D01*
X66440000Y-109250000D02*
X67240000Y-110050000D01*
X106290000Y-76900000D02*
X107202500Y-76900000D01*
D28*
X68152500Y-33262500D02*
X68152500Y-31950000D01*
D26*
X75202500Y-76900000D02*
X75752500Y-76350000D01*
X149940000Y-71150000D02*
X149390000Y-70600000D01*
D28*
X164152500Y-33262500D02*
X164152500Y-31950000D01*
D26*
X150852500Y-71150000D02*
X149940000Y-71150000D01*
X75202500Y-73112500D02*
X75740000Y-73650000D01*
X117940000Y-78750000D02*
X117390000Y-78200000D01*
X181940000Y-63550000D02*
X181390000Y-63000000D01*
X118852500Y-74950000D02*
X117940000Y-74950000D01*
X181940000Y-67350000D02*
X181390000Y-67900000D01*
X139202500Y-65500000D02*
X139752500Y-66050000D01*
X90040000Y-110050000D02*
X90190000Y-110200000D01*
X117940000Y-74950000D02*
X117390000Y-75500000D01*
X85940000Y-63550000D02*
X85390000Y-64100000D01*
D28*
X200662500Y-85250000D02*
X199712500Y-84300000D01*
D26*
X75202500Y-57900000D02*
X75752500Y-57350000D01*
X86852500Y-59750000D02*
X85940000Y-59750000D01*
X74040000Y-109250000D02*
X74990000Y-110200000D01*
X107202500Y-73100000D02*
X107752500Y-72550000D01*
X75202500Y-73100000D02*
X75752500Y-72550000D01*
X117940000Y-63550000D02*
X117390000Y-64100000D01*
X171202500Y-69300000D02*
X171752500Y-68750000D01*
D28*
X200662500Y-65250000D02*
X199712500Y-64300000D01*
D27*
X171652500Y-79262500D02*
X171652500Y-79337500D01*
D28*
X199712500Y-76300000D02*
X199000000Y-76300000D01*
D26*
X101440000Y-109250000D02*
X102390000Y-110200000D01*
D27*
X85490000Y-81187500D02*
X86852500Y-82550000D01*
X171652500Y-55375000D02*
X170327500Y-54050000D01*
D26*
X118852500Y-63550000D02*
X117940000Y-63550000D01*
D29*
X130650000Y-22800000D02*
X139800000Y-22800000D01*
D26*
X149940000Y-63550000D02*
X149390000Y-63000000D01*
X74290000Y-76900000D02*
X75202500Y-76900000D01*
D27*
X181490000Y-81200000D02*
X181490000Y-81187500D01*
X139652500Y-79262500D02*
X139652500Y-55375000D01*
D26*
X181940000Y-71150000D02*
X181390000Y-71700000D01*
X86852500Y-71150000D02*
X85940000Y-71150000D01*
X75202500Y-65500000D02*
X75752500Y-66050000D01*
X117940000Y-71150000D02*
X117390000Y-70600000D01*
X75202500Y-65500000D02*
X75752500Y-64950000D01*
X150852500Y-78750000D02*
X149940000Y-78750000D01*
D27*
X86852500Y-55950000D02*
X85490000Y-57312500D01*
D26*
X170290000Y-69300000D02*
X171202500Y-69300000D01*
D27*
X149490000Y-79000000D02*
X149490000Y-78800000D01*
D28*
X199712500Y-68300000D02*
X199000000Y-68300000D01*
D26*
X67240000Y-110050000D02*
X67390000Y-110200000D01*
X170290000Y-57900000D02*
X171202500Y-57900000D01*
X120440000Y-108837500D02*
X120440000Y-109250000D01*
D29*
X127140000Y-22800000D02*
X126140000Y-23800000D01*
D26*
X85940000Y-74950000D02*
X85390000Y-75500000D01*
X138290000Y-65500000D02*
X139202500Y-65500000D01*
X66440000Y-108837500D02*
X66440000Y-109250000D01*
X86290000Y-110100000D02*
X86390000Y-110200000D01*
X139202500Y-76900000D02*
X139752500Y-76350000D01*
X118852500Y-59750000D02*
X117940000Y-59750000D01*
D28*
X200662500Y-61250000D02*
X199712500Y-60300000D01*
D26*
X85940000Y-78750000D02*
X85390000Y-79300000D01*
X117940000Y-74950000D02*
X117390000Y-74400000D01*
X118852500Y-71150000D02*
X117940000Y-71150000D01*
X181940000Y-59750000D02*
X181390000Y-60300000D01*
D28*
X100152500Y-33262500D02*
X100152500Y-31950000D01*
D26*
X107202500Y-76900000D02*
X107752500Y-76350000D01*
X171202500Y-61700000D02*
X171752500Y-61150000D01*
X171202500Y-76900000D02*
X171202500Y-76912500D01*
X120440000Y-109250000D02*
X121390000Y-110200000D01*
X75202500Y-61700000D02*
X75752500Y-61150000D01*
D27*
X75652500Y-79262500D02*
X75652500Y-55375000D01*
X85490000Y-79000000D02*
X85490000Y-81187500D01*
D28*
X199712500Y-84300000D02*
X199000000Y-84300000D01*
D26*
X117940000Y-63550000D02*
X117390000Y-63000000D01*
D28*
X164190000Y-33300000D02*
X164152500Y-33262500D01*
D26*
X139202500Y-69300000D02*
X139752500Y-68750000D01*
X62640000Y-109250000D02*
X63590000Y-110200000D01*
X85940000Y-78750000D02*
X85390000Y-78200000D01*
D27*
X117490000Y-79000000D02*
X117490000Y-78800000D01*
D26*
X149940000Y-71150000D02*
X149390000Y-71700000D01*
X181940000Y-74950000D02*
X181390000Y-75500000D01*
X97640000Y-109250000D02*
X98590000Y-110200000D01*
D28*
X189027500Y-30050000D02*
X188990000Y-30012500D01*
D26*
X138290000Y-57900000D02*
X139202500Y-57900000D01*
X170290000Y-61700000D02*
X171202500Y-61700000D01*
X138290000Y-76900000D02*
X139202500Y-76900000D01*
X149940000Y-63550000D02*
X149390000Y-64100000D01*
X138290000Y-73100000D02*
X139202500Y-73100000D01*
D28*
X200662500Y-81250000D02*
X199712500Y-80300000D01*
D26*
X182852500Y-63550000D02*
X181940000Y-63550000D01*
X86852500Y-74950000D02*
X85940000Y-74950000D01*
X118852500Y-78750000D02*
X117940000Y-78750000D01*
D28*
X199712500Y-56300000D02*
X199000000Y-56300000D01*
D26*
X75202500Y-57912500D02*
X75740000Y-58450000D01*
D29*
X136077500Y-113887500D02*
X163812500Y-113887500D01*
D28*
X199712500Y-64300000D02*
X199000000Y-64300000D01*
D26*
X171202500Y-57912500D02*
X171740000Y-58450000D01*
D27*
X117490000Y-81187500D02*
X118852500Y-82550000D01*
D26*
X101440000Y-108837500D02*
X101440000Y-109250000D01*
X81640000Y-108837500D02*
X81640000Y-109250000D01*
X70240000Y-108837500D02*
X70240000Y-109250000D01*
X97640000Y-108837500D02*
X97640000Y-109250000D01*
D27*
X150852500Y-55950000D02*
X149490000Y-57312500D01*
X107652500Y-79262500D02*
X107652500Y-55375000D01*
D26*
X106290000Y-61700000D02*
X107202500Y-61700000D01*
X77840000Y-109250000D02*
X78790000Y-110200000D01*
X117940000Y-59750000D02*
X117390000Y-59200000D01*
X85940000Y-59750000D02*
X85390000Y-60300000D01*
X85940000Y-71150000D02*
X85390000Y-71700000D01*
D28*
X132152500Y-33262500D02*
X132152500Y-31950000D01*
X124990000Y-30012500D02*
X124990000Y-28300000D01*
D26*
X139202500Y-61712500D02*
X139740000Y-62250000D01*
X171202500Y-65500000D02*
X171752500Y-64950000D01*
X139202500Y-73100000D02*
X139752500Y-72550000D01*
X85940000Y-67350000D02*
X85390000Y-67900000D01*
D29*
X139800000Y-22800000D02*
X167600000Y-22800000D01*
D26*
X70240000Y-109250000D02*
X71190000Y-110200000D01*
D27*
X139652500Y-55375000D02*
X138327500Y-54050000D01*
D26*
X116640000Y-108837500D02*
X116640000Y-109250000D01*
X139202500Y-57912500D02*
X139740000Y-58450000D01*
X149940000Y-67350000D02*
X149390000Y-66800000D01*
X109040000Y-108837500D02*
X109040000Y-109250000D01*
D27*
X181490000Y-57312500D02*
X181490000Y-78800000D01*
D26*
X149940000Y-74950000D02*
X149390000Y-74400000D01*
X149940000Y-67350000D02*
X149390000Y-67900000D01*
X181940000Y-63550000D02*
X181390000Y-64100000D01*
X82290000Y-109900000D02*
X82340000Y-109950000D01*
X117940000Y-67350000D02*
X117390000Y-67900000D01*
X171202500Y-65500000D02*
X171752500Y-66050000D01*
X171202500Y-61700000D02*
X171202500Y-61712500D01*
X85440000Y-108837500D02*
X85440000Y-109250000D01*
X171202500Y-73100000D02*
X171202500Y-73112500D01*
X171202500Y-61712500D02*
X171740000Y-62250000D01*
X85940000Y-59750000D02*
X85390000Y-59200000D01*
X138290000Y-69300000D02*
X139202500Y-69300000D01*
D27*
X171652500Y-79337500D02*
X170340000Y-80650000D01*
D26*
X107202500Y-69300000D02*
X107752500Y-69850000D01*
D28*
X200662500Y-73250000D02*
X199712500Y-72300000D01*
X92990000Y-30012500D02*
X92990000Y-28300000D01*
D26*
X82290000Y-109900000D02*
X82590000Y-110200000D01*
X89240000Y-109250000D02*
X90040000Y-110050000D01*
D28*
X199712500Y-72300000D02*
X199000000Y-72300000D01*
D26*
X139202500Y-57900000D02*
X139752500Y-57350000D01*
D29*
X130650000Y-22800000D02*
X127140000Y-22800000D01*
D26*
X170290000Y-73100000D02*
X171202500Y-73100000D01*
X85940000Y-71150000D02*
X85390000Y-70600000D01*
X182852500Y-71150000D02*
X181940000Y-71150000D01*
X85940000Y-67350000D02*
X85390000Y-66800000D01*
D28*
X199712500Y-60300000D02*
X199000000Y-60300000D01*
D26*
X116640000Y-109250000D02*
X117590000Y-110200000D01*
D29*
X167600000Y-22800000D02*
X167650000Y-22850000D01*
D27*
X149490000Y-57312500D02*
X149490000Y-78800000D01*
X107652500Y-55375000D02*
X106327500Y-54050000D01*
D26*
X74290000Y-73100000D02*
X75202500Y-73100000D01*
X139202500Y-61700000D02*
X139752500Y-61150000D01*
X85440000Y-109250000D02*
X86290000Y-110100000D01*
X112840000Y-108837500D02*
X112840000Y-109250000D01*
X118852500Y-67350000D02*
X117940000Y-67350000D01*
X106290000Y-65500000D02*
X107202500Y-65500000D01*
D27*
X118852500Y-55950000D02*
X117490000Y-57312500D01*
D26*
X150852500Y-67350000D02*
X149940000Y-67350000D01*
X106290000Y-57900000D02*
X107202500Y-57900000D01*
X149940000Y-78750000D02*
X149390000Y-78200000D01*
X149940000Y-59750000D02*
X149390000Y-60300000D01*
X107202500Y-65500000D02*
X107752500Y-66050000D01*
X74290000Y-61700000D02*
X75202500Y-61700000D01*
X112840000Y-109250000D02*
X113790000Y-110200000D01*
X117940000Y-59750000D02*
X117390000Y-60300000D01*
X86290000Y-110100000D02*
X86340000Y-110150000D01*
D29*
X135712500Y-114252500D02*
X136077500Y-113887500D01*
D26*
X124240000Y-109250000D02*
X125190000Y-110200000D01*
X74290000Y-57900000D02*
X75202500Y-57900000D01*
D27*
X75652500Y-79337500D02*
X74340000Y-80650000D01*
D26*
X117940000Y-67350000D02*
X117390000Y-66800000D01*
D27*
X117490000Y-57312500D02*
X117490000Y-78800000D01*
D28*
X188990000Y-30012500D02*
X188990000Y-28300000D01*
D27*
X181490000Y-79000000D02*
X181490000Y-81187500D01*
D26*
X139202500Y-65500000D02*
X139752500Y-64950000D01*
D27*
X107652500Y-79337500D02*
X106340000Y-80650000D01*
D26*
X85940000Y-74950000D02*
X85390000Y-74400000D01*
X85940000Y-63550000D02*
X85390000Y-63000000D01*
X81640000Y-109250000D02*
X82290000Y-109900000D01*
X181940000Y-67350000D02*
X181390000Y-66800000D01*
D27*
X149490000Y-79000000D02*
X149490000Y-81187500D01*
D26*
X86852500Y-78750000D02*
X85940000Y-78750000D01*
X171202500Y-57900000D02*
X171202500Y-57912500D01*
X86852500Y-67350000D02*
X85940000Y-67350000D01*
D28*
X199712500Y-80300000D02*
X199000000Y-80300000D01*
X200662500Y-57250000D02*
X199712500Y-56300000D01*
D26*
X171202500Y-73112500D02*
X171740000Y-73650000D01*
D28*
X200662500Y-77250000D02*
X199712500Y-76300000D01*
X200662500Y-69250000D02*
X199712500Y-68300000D01*
D27*
X171890000Y-79500000D02*
X171652500Y-79262500D01*
D26*
X149940000Y-59750000D02*
X149390000Y-59200000D01*
X181940000Y-74950000D02*
X181390000Y-74400000D01*
D27*
X171652500Y-79262500D02*
X171652500Y-55375000D01*
D26*
X171202500Y-73100000D02*
X171752500Y-72550000D01*
X75202500Y-76912500D02*
X75740000Y-77450000D01*
X107202500Y-57912500D02*
X107740000Y-58450000D01*
D27*
X85490000Y-57312500D02*
X85490000Y-78800000D01*
D26*
X182852500Y-59750000D02*
X181940000Y-59750000D01*
D27*
X85490000Y-79000000D02*
X85490000Y-78800000D01*
D26*
X149940000Y-78750000D02*
X149390000Y-79300000D01*
D28*
X156990000Y-30012500D02*
X156990000Y-28300000D01*
D26*
%TO.N,Net-(J1-Pin_10)*%
X193500000Y-71300000D02*
X193550000Y-71350000D01*
X193550000Y-71350000D02*
X200662500Y-71350000D01*
%TO.N,Net-(J1-Pin_18)*%
X89490000Y-69000000D02*
X90902500Y-69000000D01*
X71690000Y-71400000D02*
X70277500Y-71400000D01*
X70277500Y-71400000D02*
X70027500Y-71150000D01*
X90902500Y-69000000D02*
X91152500Y-69250000D01*
%TO.N,Net-(J1-Pin_14)*%
X71690000Y-56200000D02*
X70277500Y-56200000D01*
X70277500Y-56200000D02*
X70027500Y-55950000D01*
X89490000Y-53900000D02*
X91002500Y-53900000D01*
X91002500Y-53900000D02*
X91152500Y-54050000D01*
%TO.N,Net-(J1-Pin_21)*%
X89490000Y-80400000D02*
X90902500Y-80400000D01*
X70277500Y-82800000D02*
X70027500Y-82550000D01*
X71690000Y-82800000D02*
X70277500Y-82800000D01*
X90902500Y-80400000D02*
X91152500Y-80650000D01*
D29*
%TO.N,VCC*%
X207600000Y-56280000D02*
X206520000Y-55200000D01*
D28*
X135970000Y-29900000D02*
X135970000Y-28320000D01*
D26*
X73090000Y-102900000D02*
X73090000Y-101700000D01*
D28*
X71970000Y-29900000D02*
X71970000Y-28320000D01*
X153390000Y-29800000D02*
X153310000Y-29880000D01*
D26*
X119490000Y-104000000D02*
X119490000Y-102900000D01*
D29*
X124500000Y-26100000D02*
X128100000Y-26100000D01*
X206520000Y-53220000D02*
X205900000Y-52600000D01*
D26*
X61690000Y-101700000D02*
X61690000Y-102400000D01*
D29*
X206520000Y-83200000D02*
X207431000Y-84111000D01*
X123600000Y-25200000D02*
X124500000Y-26100000D01*
X207600000Y-57100000D02*
X207600000Y-59200000D01*
X207600000Y-82120000D02*
X206520000Y-83200000D01*
X207600000Y-75200000D02*
X207600000Y-79100000D01*
D26*
X76890000Y-102900000D02*
X76890000Y-101700000D01*
X167990000Y-28300000D02*
X167990000Y-28200000D01*
X88290000Y-101700000D02*
X88290000Y-102900000D01*
X115690000Y-102900000D02*
X115590000Y-102900000D01*
X65490000Y-101700000D02*
X65490000Y-102900000D01*
X100490000Y-102900000D02*
X100390000Y-102900000D01*
D29*
X207600000Y-71200000D02*
X206520000Y-71200000D01*
D26*
X185210000Y-29900000D02*
X185210000Y-29880000D01*
X104190000Y-102900000D02*
X103090000Y-104000000D01*
D29*
X206520000Y-55200000D02*
X206520000Y-53220000D01*
X207600000Y-79100000D02*
X207500000Y-79200000D01*
D26*
X108090000Y-104000000D02*
X108090000Y-102900000D01*
D29*
X207600000Y-75200000D02*
X206520000Y-75200000D01*
D28*
X167970000Y-29900000D02*
X167970000Y-28320000D01*
D26*
X61690000Y-104000000D02*
X61690000Y-102900000D01*
D29*
X129500000Y-24700000D02*
X130650000Y-24700000D01*
X207600000Y-59200000D02*
X207600000Y-63200000D01*
X207600000Y-63200000D02*
X207600000Y-67200000D01*
D26*
X84490000Y-101700000D02*
X84490000Y-102900000D01*
X80690000Y-101700000D02*
X80690000Y-102900000D01*
X61690000Y-102400000D02*
X61690000Y-102900000D01*
X88290000Y-104000000D02*
X88290000Y-102900000D01*
X96690000Y-102900000D02*
X96590000Y-102900000D01*
X123290000Y-104000000D02*
X123290000Y-102900000D01*
D29*
X167600000Y-24700000D02*
X167650000Y-24750000D01*
X207500000Y-79200000D02*
X206520000Y-79200000D01*
D28*
X185290000Y-28400000D02*
X185290000Y-29800000D01*
D26*
X104290000Y-104000000D02*
X104290000Y-102900000D01*
X76890000Y-104000000D02*
X76890000Y-102900000D01*
D29*
X207600000Y-79100000D02*
X207600000Y-82120000D01*
D26*
X167970000Y-28320000D02*
X167990000Y-28300000D01*
D29*
X207600000Y-67200000D02*
X206520000Y-67200000D01*
D26*
X115690000Y-104000000D02*
X115690000Y-102900000D01*
X111890000Y-102900000D02*
X111790000Y-102900000D01*
D29*
X130650000Y-24700000D02*
X167600000Y-24700000D01*
D26*
X73090000Y-104000000D02*
X73090000Y-102900000D01*
D28*
X103970000Y-29900000D02*
X103970000Y-28320000D01*
D29*
X207600000Y-75000000D02*
X207600000Y-75200000D01*
D26*
X80690000Y-104000000D02*
X80690000Y-102900000D01*
D29*
X207600000Y-57100000D02*
X207600000Y-56280000D01*
X207600000Y-71200000D02*
X207600000Y-75000000D01*
D26*
X96590000Y-102900000D02*
X95490000Y-104000000D01*
D28*
X89290000Y-28400000D02*
X89290000Y-29800000D01*
D26*
X107990000Y-102900000D02*
X106890000Y-104000000D01*
X100490000Y-104000000D02*
X100490000Y-102900000D01*
X69290000Y-101700000D02*
X69290000Y-102900000D01*
D29*
X128100000Y-26100000D02*
X129500000Y-24700000D01*
D26*
X119490000Y-102900000D02*
X119390000Y-102900000D01*
D29*
X207431000Y-87169000D02*
X205600000Y-89000000D01*
D28*
X153290000Y-28400000D02*
X153290000Y-29800000D01*
D26*
X108090000Y-102900000D02*
X107990000Y-102900000D01*
D29*
X135887500Y-111887500D02*
X163792500Y-111887500D01*
X207431000Y-84111000D02*
X207431000Y-87169000D01*
D26*
X100390000Y-102900000D02*
X99290000Y-104000000D01*
X119390000Y-102900000D02*
X118290000Y-104000000D01*
X123290000Y-102900000D02*
X123190000Y-102900000D01*
X111890000Y-104000000D02*
X111890000Y-102900000D01*
X111790000Y-102900000D02*
X110690000Y-104000000D01*
X123190000Y-102900000D02*
X122090000Y-104000000D01*
D28*
X121290000Y-28400000D02*
X121290000Y-29800000D01*
D26*
X65490000Y-104000000D02*
X65490000Y-102900000D01*
D29*
X135712500Y-111712500D02*
X135887500Y-111887500D01*
X207600000Y-67200000D02*
X207600000Y-71200000D01*
D26*
X104290000Y-102900000D02*
X104190000Y-102900000D01*
X115590000Y-102900000D02*
X114490000Y-104000000D01*
X84490000Y-104000000D02*
X84490000Y-102900000D01*
D29*
X205900000Y-52600000D02*
X204500000Y-52600000D01*
X207600000Y-59200000D02*
X206520000Y-59200000D01*
D26*
X69290000Y-104000000D02*
X69290000Y-102900000D01*
X96690000Y-104000000D02*
X96690000Y-102900000D01*
D29*
X123600000Y-23800000D02*
X123600000Y-25200000D01*
X207600000Y-63200000D02*
X206520000Y-63200000D01*
D26*
%TO.N,Net-(J1-Pin_19)*%
X90902500Y-72800000D02*
X91152500Y-73050000D01*
X70277500Y-75200000D02*
X70027500Y-74950000D01*
X89490000Y-72800000D02*
X90902500Y-72800000D01*
X71690000Y-75200000D02*
X70277500Y-75200000D01*
%TO.N,Net-(J1-Pin_13)*%
X194800000Y-83300000D02*
X194850000Y-83350000D01*
X194850000Y-83350000D02*
X200662500Y-83350000D01*
X194700000Y-83300000D02*
X194800000Y-83300000D01*
%TO.N,Net-(J1-Pin_12)*%
X194300000Y-79300000D02*
X194350000Y-79350000D01*
X194350000Y-79350000D02*
X200662500Y-79350000D01*
%TO.N,Net-(J1-Pin_9)*%
X193150000Y-67350000D02*
X200662500Y-67350000D01*
X193100000Y-67300000D02*
X193150000Y-67350000D01*
%TO.N,Net-(J1-Pin_17)*%
X71690000Y-67600000D02*
X70277500Y-67600000D01*
X89490000Y-65200000D02*
X90902500Y-65200000D01*
X90902500Y-65200000D02*
X91152500Y-65450000D01*
X70277500Y-67600000D02*
X70027500Y-67350000D01*
%TO.N,Net-(J1-Pin_7)*%
X192250000Y-59350000D02*
X200662500Y-59350000D01*
X192200000Y-59300000D02*
X192250000Y-59350000D01*
%TO.N,Net-(J1-Pin_6)*%
X191950000Y-55350000D02*
X200662500Y-55350000D01*
X191900000Y-55300000D02*
X191950000Y-55350000D01*
%TO.N,Net-(J1-Pin_8)*%
X192750000Y-63350000D02*
X200662500Y-63350000D01*
X192700000Y-63300000D02*
X192750000Y-63350000D01*
%TO.N,Net-(J2-Pin_17)*%
X121390000Y-65200000D02*
X122902500Y-65200000D01*
X102277500Y-67600000D02*
X102027500Y-67350000D01*
X103790000Y-67600000D02*
X102277500Y-67600000D01*
X122902500Y-65200000D02*
X123152500Y-65450000D01*
%TO.N,Net-(J2-Pin_15)*%
X121490000Y-57600000D02*
X122902500Y-57600000D01*
X103690000Y-60000000D02*
X102277500Y-60000000D01*
X103790000Y-60100000D02*
X103690000Y-60000000D01*
X122902500Y-57600000D02*
X123152500Y-57850000D01*
X102277500Y-60000000D02*
X102027500Y-59750000D01*
%TO.N,Net-(J2-Pin_20)*%
X121490000Y-76600000D02*
X122902500Y-76600000D01*
X103790000Y-79000000D02*
X102277500Y-79000000D01*
X122902500Y-76600000D02*
X123152500Y-76850000D01*
X102277500Y-79000000D02*
X102027500Y-78750000D01*
%TO.N,Net-(J2-Pin_14)*%
X102577500Y-56500000D02*
X102027500Y-55950000D01*
X103790000Y-56500000D02*
X102577500Y-56500000D01*
X121490000Y-53800000D02*
X122902500Y-53800000D01*
X122902500Y-53800000D02*
X123152500Y-54050000D01*
%TO.N,Net-(J2-Pin_18)*%
X122902500Y-69000000D02*
X123152500Y-69250000D01*
X121490000Y-69000000D02*
X122902500Y-69000000D01*
X103690000Y-71500000D02*
X102377500Y-71500000D01*
X102377500Y-71500000D02*
X102027500Y-71150000D01*
%TO.N,Net-(J2-Pin_21)*%
X121390000Y-80400000D02*
X122902500Y-80400000D01*
X103790000Y-82800000D02*
X102277500Y-82800000D01*
X122902500Y-80400000D02*
X123152500Y-80650000D01*
X102277500Y-82800000D02*
X102027500Y-82550000D01*
%TO.N,Net-(J2-Pin_19)*%
X103790000Y-75200000D02*
X102277500Y-75200000D01*
X122902500Y-72800000D02*
X123152500Y-73050000D01*
X121490000Y-72800000D02*
X122902500Y-72800000D01*
X102277500Y-75200000D02*
X102027500Y-74950000D01*
%TO.N,Net-(J2-Pin_16)*%
X103690000Y-64100000D02*
X102577500Y-64100000D01*
X122402500Y-62400000D02*
X123152500Y-61650000D01*
X122190000Y-62400000D02*
X122402500Y-62400000D01*
X102577500Y-64100000D02*
X102027500Y-63550000D01*
%TO.N,Net-(J3-Pin_18)*%
X153490000Y-69000000D02*
X154902500Y-69000000D01*
X154902500Y-69000000D02*
X155152500Y-69250000D01*
X134277500Y-71400000D02*
X134027500Y-71150000D01*
X135690000Y-71400000D02*
X134277500Y-71400000D01*
%TO.N,Net-(J3-Pin_16)*%
X154302500Y-62500000D02*
X155152500Y-61650000D01*
X135790000Y-64100000D02*
X134577500Y-64100000D01*
X134577500Y-64100000D02*
X134027500Y-63550000D01*
X154190000Y-62500000D02*
X154302500Y-62500000D01*
%TO.N,Net-(J3-Pin_19)*%
X135690000Y-75200000D02*
X134277500Y-75200000D01*
X154902500Y-72800000D02*
X155152500Y-73050000D01*
X153490000Y-72800000D02*
X154902500Y-72800000D01*
X134277500Y-75200000D02*
X134027500Y-74950000D01*
%TO.N,Net-(J3-Pin_20)*%
X154902500Y-76600000D02*
X155152500Y-76850000D01*
X153390000Y-76600000D02*
X154902500Y-76600000D01*
X135690000Y-79000000D02*
X134277500Y-79000000D01*
X134277500Y-79000000D02*
X134027500Y-78750000D01*
%TO.N,Net-(J3-Pin_17)*%
X135690000Y-67600000D02*
X134277500Y-67600000D01*
X153490000Y-65200000D02*
X154902500Y-65200000D01*
X154902500Y-65200000D02*
X155152500Y-65450000D01*
X134277500Y-67600000D02*
X134027500Y-67350000D01*
%TO.N,Net-(J3-Pin_14)*%
X154902500Y-53800000D02*
X155152500Y-54050000D01*
X134577500Y-56500000D02*
X134027500Y-55950000D01*
X153490000Y-53800000D02*
X154902500Y-53800000D01*
X135690000Y-56500000D02*
X134577500Y-56500000D01*
%TO.N,Net-(J3-Pin_21)*%
X135690000Y-82800000D02*
X134277500Y-82800000D01*
X134277500Y-82800000D02*
X134027500Y-82550000D01*
X154902500Y-80400000D02*
X155152500Y-80650000D01*
X153390000Y-80400000D02*
X154902500Y-80400000D01*
%TO.N,Net-(J3-Pin_15)*%
X153490000Y-57600000D02*
X154902500Y-57600000D01*
X154902500Y-57600000D02*
X155152500Y-57850000D01*
X135690000Y-60000000D02*
X134277500Y-60000000D01*
X134277500Y-60000000D02*
X134027500Y-59750000D01*
%TO.N,Net-(J4-Pin_17)*%
X185490000Y-65200000D02*
X186902500Y-65200000D01*
X167690000Y-67600000D02*
X166277500Y-67600000D01*
X166277500Y-67600000D02*
X166027500Y-67350000D01*
X186902500Y-65200000D02*
X187152500Y-65450000D01*
%TO.N,Net-(J4-Pin_21)*%
X185490000Y-80400000D02*
X186902500Y-80400000D01*
X186902500Y-80400000D02*
X187152500Y-80650000D01*
X167690000Y-82800000D02*
X166277500Y-82800000D01*
X166277500Y-82800000D02*
X166027500Y-82550000D01*
%TO.N,Net-(J4-Pin_20)*%
X166277500Y-79000000D02*
X166027500Y-78750000D01*
X167690000Y-79000000D02*
X166277500Y-79000000D01*
X186902500Y-76600000D02*
X187152500Y-76850000D01*
X185490000Y-76600000D02*
X186902500Y-76600000D01*
%TO.N,Net-(J4-Pin_14)*%
X186902500Y-53800000D02*
X187152500Y-54050000D01*
X185490000Y-53800000D02*
X186902500Y-53800000D01*
X167690000Y-56500000D02*
X166577500Y-56500000D01*
X166577500Y-56500000D02*
X166027500Y-55950000D01*
%TO.N,Net-(J4-Pin_18)*%
X185490000Y-69000000D02*
X186902500Y-69000000D01*
X166277500Y-71400000D02*
X166027500Y-71150000D01*
X186902500Y-69000000D02*
X187152500Y-69250000D01*
X167690000Y-71400000D02*
X166277500Y-71400000D01*
%TO.N,Net-(J4-Pin_19)*%
X185490000Y-72800000D02*
X186902500Y-72800000D01*
X166277500Y-75200000D02*
X166027500Y-74950000D01*
X186902500Y-72800000D02*
X187152500Y-73050000D01*
X167690000Y-75200000D02*
X166277500Y-75200000D01*
%TO.N,Net-(J4-Pin_16)*%
X185490000Y-61400000D02*
X186902500Y-61400000D01*
X167690000Y-64100000D02*
X166577500Y-64100000D01*
X186902500Y-61400000D02*
X187152500Y-61650000D01*
X166577500Y-64100000D02*
X166027500Y-63550000D01*
%TO.N,Net-(J4-Pin_15)*%
X166277500Y-60000000D02*
X166027500Y-59750000D01*
X167690000Y-60000000D02*
X166277500Y-60000000D01*
X185490000Y-57600000D02*
X186902500Y-57600000D01*
X186902500Y-57600000D02*
X187152500Y-57850000D01*
%TO.N,Net-(J7-Pin_4)*%
X166798032Y-51900000D02*
X170327500Y-55429468D01*
X169289000Y-69590968D02*
X169289000Y-68901000D01*
X170327500Y-59229468D02*
X169289000Y-58190968D01*
X169230968Y-65159032D02*
X170327500Y-64062500D01*
X169289000Y-68901000D02*
X170327500Y-67862500D01*
X170327500Y-63029468D02*
X169260984Y-61962952D01*
X170327500Y-82550000D02*
X170327500Y-82029468D01*
X170327500Y-82029468D02*
X169289000Y-80990968D01*
X170327500Y-66895532D02*
X169230968Y-65799000D01*
X170327500Y-70629468D02*
X169289000Y-69590968D01*
X163090000Y-31112500D02*
X164152500Y-30050000D01*
X169230968Y-65799000D02*
X169230968Y-65159032D01*
X170327500Y-71662500D02*
X170327500Y-70629468D01*
X166790000Y-51900000D02*
X163090000Y-48200000D01*
X170327500Y-64062500D02*
X170327500Y-63029468D01*
X169260984Y-61962952D02*
X169260984Y-61200000D01*
X169289000Y-80990968D02*
X169289000Y-80301000D01*
X169289000Y-76509032D02*
X170327500Y-75470532D01*
X170327500Y-78229468D02*
X169289000Y-77190968D01*
X170327500Y-74429468D02*
X169289000Y-73390968D01*
X169289000Y-73390968D02*
X169289000Y-72701000D01*
X169289000Y-77190968D02*
X169289000Y-76509032D01*
X169289000Y-56988500D02*
X170327500Y-55950000D01*
X169289000Y-72701000D02*
X170327500Y-71662500D01*
X169289000Y-58190968D02*
X169289000Y-56988500D01*
X169289000Y-80301000D02*
X170327500Y-79262500D01*
X170327500Y-67862500D02*
X170327500Y-66895532D01*
X169260984Y-61200000D02*
X170327500Y-60133484D01*
X170327500Y-55429468D02*
X170327500Y-55950000D01*
X170327500Y-75470532D02*
X170327500Y-74429468D01*
X170327500Y-79262500D02*
X170327500Y-78229468D01*
X170327500Y-60133484D02*
X170327500Y-59229468D01*
X163090000Y-48200000D02*
X163090000Y-31112500D01*
X166790000Y-51900000D02*
X166798032Y-51900000D01*
%TO.N,Net-(J7-Pin_2)*%
X106327500Y-64070532D02*
X105289000Y-65109032D01*
X106327500Y-82095532D02*
X106327500Y-82550000D01*
X105289000Y-61309032D02*
X105289000Y-61999000D01*
X106327500Y-70695532D02*
X106327500Y-71670532D01*
X106327500Y-60270532D02*
X105289000Y-61309032D01*
X105289000Y-56988500D02*
X105289000Y-58199000D01*
X106327500Y-71670532D02*
X105289000Y-72709032D01*
X106327500Y-67862500D02*
X105290000Y-68900000D01*
X105289000Y-65857032D02*
X106327500Y-66895532D01*
X106327500Y-78295532D02*
X106327500Y-78750000D01*
X105290000Y-68900000D02*
X105290000Y-69658032D01*
X106327500Y-75470532D02*
X105289000Y-76509032D01*
X105289000Y-77257032D02*
X106327500Y-78295532D01*
X106327500Y-79162500D02*
X105230968Y-80259032D01*
X106327500Y-59237500D02*
X106327500Y-60270532D01*
X106327500Y-66895532D02*
X106327500Y-67862500D01*
X106327500Y-55495532D02*
X100060984Y-49229016D01*
X100060984Y-49229016D02*
X98790000Y-47958032D01*
X106327500Y-63037500D02*
X106327500Y-64070532D01*
X98790000Y-31412500D02*
X100152500Y-30050000D01*
X98790000Y-47958032D02*
X98790000Y-31412500D01*
X105289000Y-72709032D02*
X105289000Y-73457032D01*
X105290000Y-69658032D02*
X106327500Y-70695532D01*
X106327500Y-74495532D02*
X106327500Y-75470532D01*
X105289000Y-76509032D02*
X105289000Y-77257032D01*
X105289000Y-65109032D02*
X105289000Y-65857032D01*
X105230968Y-80259032D02*
X105230968Y-80999000D01*
X105289000Y-61999000D02*
X106327500Y-63037500D01*
X105289000Y-73457032D02*
X106327500Y-74495532D01*
X105289000Y-58199000D02*
X106327500Y-59237500D01*
X106327500Y-78750000D02*
X106327500Y-79162500D01*
X106327500Y-55950000D02*
X106327500Y-55495532D01*
X105230968Y-80999000D02*
X106327500Y-82095532D01*
X106327500Y-55950000D02*
X105289000Y-56988500D01*
%TO.N,Net-(J7-Pin_3)*%
X131114000Y-31088500D02*
X131114000Y-33524000D01*
X138327500Y-55437500D02*
X138327500Y-55950000D01*
X137289000Y-73390968D02*
X137289000Y-72709032D01*
X137289000Y-69590968D02*
X137289000Y-68901000D01*
X138327500Y-67862500D02*
X138327500Y-66829468D01*
X138327500Y-71670532D02*
X138327500Y-70629468D01*
X137549032Y-80049000D02*
X137551492Y-80049000D01*
X138327500Y-70629468D02*
X137289000Y-69590968D01*
X137190000Y-54300000D02*
X138327500Y-55437500D01*
X137289000Y-72709032D02*
X138327500Y-71670532D01*
X132152500Y-30050000D02*
X131114000Y-31088500D01*
X138327500Y-74429468D02*
X137289000Y-73390968D01*
X138327500Y-59233484D02*
X137289000Y-58194984D01*
X138327500Y-66829468D02*
X137289000Y-65790968D01*
X137289000Y-58194984D02*
X137289000Y-56988500D01*
X137289000Y-61301000D02*
X138327500Y-60262500D01*
X138327500Y-82550000D02*
X138327500Y-82029468D01*
X137289000Y-76501000D02*
X138327500Y-75462500D01*
X137289000Y-61990968D02*
X137289000Y-61301000D01*
X137289000Y-80990968D02*
X137289000Y-80309032D01*
X137289000Y-68901000D02*
X138327500Y-67862500D01*
X138327500Y-63029468D02*
X137289000Y-61990968D01*
X138327500Y-78229468D02*
X137289000Y-77190968D01*
X137289000Y-65101000D02*
X138327500Y-64062500D01*
X138327500Y-60262500D02*
X138327500Y-59233484D01*
X137190000Y-39600000D02*
X137190000Y-49600000D01*
X138327500Y-64062500D02*
X138327500Y-63029468D01*
X138327500Y-75462500D02*
X138327500Y-74429468D01*
X137289000Y-65790968D02*
X137289000Y-65101000D01*
X131114000Y-33524000D02*
X137190000Y-39600000D01*
X138327500Y-79272992D02*
X138327500Y-78229468D01*
X137190000Y-49600000D02*
X137190000Y-54300000D01*
X138327500Y-82029468D02*
X137289000Y-80990968D01*
X137289000Y-77190968D02*
X137289000Y-76501000D01*
X137289000Y-56988500D02*
X138327500Y-55950000D01*
X137289000Y-80309032D02*
X137549032Y-80049000D01*
X137551492Y-80049000D02*
X138327500Y-79272992D01*
%TO.N,Net-(J7-Pin_1)*%
X74327500Y-64070532D02*
X73289000Y-65109032D01*
X74327500Y-66837500D02*
X74327500Y-67762500D01*
X74327500Y-55950000D02*
X74327500Y-55495532D01*
X74327500Y-55950000D02*
X73289000Y-56988500D01*
X73289000Y-65799000D02*
X74327500Y-66837500D01*
X74327500Y-82095532D02*
X74327500Y-82550000D01*
X74327500Y-78295532D02*
X74327500Y-79270532D01*
X74327500Y-71670532D02*
X73230968Y-72767064D01*
X74327500Y-59229468D02*
X74327500Y-60270532D01*
X73230968Y-72767064D02*
X73230968Y-73399000D01*
X73230968Y-77199000D02*
X74327500Y-78295532D01*
X74327500Y-70695532D02*
X74327500Y-71670532D01*
X73230968Y-73399000D02*
X74327500Y-74495532D01*
X68142500Y-30504468D02*
X68142500Y-30050000D01*
X73289000Y-56988500D02*
X73289000Y-58190968D01*
X74327500Y-75470532D02*
X73230968Y-76567064D01*
X74327500Y-55495532D02*
X69239032Y-50407064D01*
X69239032Y-31601000D02*
X68142500Y-30504468D01*
X73289000Y-58190968D02*
X74327500Y-59229468D01*
X74327500Y-63029468D02*
X74327500Y-64070532D01*
X73230968Y-69599000D02*
X74327500Y-70695532D01*
X74327500Y-60270532D02*
X73289000Y-61309032D01*
X73230968Y-80999000D02*
X74327500Y-82095532D01*
X73289000Y-65109032D02*
X73289000Y-65799000D01*
X74327500Y-74495532D02*
X74327500Y-75470532D01*
X69239032Y-50407064D02*
X69239032Y-31601000D01*
X73230968Y-80367064D02*
X73230968Y-80999000D01*
X74327500Y-79270532D02*
X73230968Y-80367064D01*
X73289000Y-61990968D02*
X74327500Y-63029468D01*
X73230968Y-68859032D02*
X73230968Y-69599000D01*
X74327500Y-67762500D02*
X73230968Y-68859032D01*
X73289000Y-61309032D02*
X73289000Y-61990968D01*
X73230968Y-76567064D02*
X73230968Y-77199000D01*
%TO.N,Net-(J8-Pin_1)*%
X86852500Y-76329468D02*
X87949032Y-75232936D01*
X86852500Y-62104468D02*
X86852500Y-61129468D01*
X86852500Y-73504468D02*
X86852500Y-72529468D01*
X86852500Y-64938500D02*
X87949032Y-63841968D01*
X86852500Y-54504468D02*
X86852500Y-54050000D01*
X87949032Y-75232936D02*
X87949032Y-74601000D01*
X87949032Y-59401000D02*
X86852500Y-58304468D01*
X86852500Y-65904468D02*
X86852500Y-64938500D01*
X86852500Y-72529468D02*
X87891000Y-71490968D01*
X87891000Y-70742968D02*
X86852500Y-69704468D01*
X87949032Y-67001000D02*
X86852500Y-65904468D01*
X87949032Y-79553468D02*
X87949032Y-78401000D01*
X86690000Y-80487500D02*
X86852500Y-80650000D01*
X86852500Y-68738500D02*
X87949032Y-67641968D01*
X86852500Y-69704468D02*
X86852500Y-68738500D01*
X87919016Y-56262952D02*
X87919016Y-55570984D01*
X87949032Y-78401000D02*
X86852500Y-77304468D01*
X87949032Y-67641968D02*
X87949032Y-67001000D01*
X86852500Y-58304468D02*
X86852500Y-57329468D01*
X86690000Y-79700000D02*
X86690000Y-80487500D01*
X86852500Y-77304468D02*
X86852500Y-76329468D01*
X86852500Y-61129468D02*
X87949032Y-60032936D01*
X86852500Y-80650000D02*
X87949032Y-79553468D01*
X87891000Y-71490968D02*
X87891000Y-70742968D01*
X86852500Y-54050000D02*
X86852500Y-38125000D01*
X86852500Y-57329468D02*
X87919016Y-56262952D01*
X87949032Y-60032936D02*
X87949032Y-59401000D01*
X87949032Y-63841968D02*
X87949032Y-63201000D01*
X87949032Y-74601000D02*
X86852500Y-73504468D01*
X86852500Y-38125000D02*
X93027500Y-31950000D01*
X87919016Y-55570984D02*
X86852500Y-54504468D01*
X87949032Y-63201000D02*
X86852500Y-62104468D01*
%TO.N,Net-(J8-Pin_2)*%
X119891000Y-79611500D02*
X119891000Y-78342968D01*
X118852500Y-65904468D02*
X118852500Y-64937500D01*
X119891000Y-59401000D02*
X118852500Y-58362500D01*
X120090000Y-63341968D02*
X118852500Y-62104468D01*
X118852500Y-58362500D02*
X118852500Y-57329468D01*
X119949032Y-67001000D02*
X118852500Y-65904468D01*
X119891000Y-55601000D02*
X118852500Y-54562500D01*
X119891000Y-70742968D02*
X118852500Y-69704468D01*
X119891000Y-74542968D02*
X118852500Y-73504468D01*
X119891000Y-60090968D02*
X119891000Y-59401000D01*
X119891000Y-56290968D02*
X119891000Y-55601000D01*
X118852500Y-73504468D02*
X118852500Y-72529468D01*
X118852500Y-72529468D02*
X119891000Y-71490968D01*
X119949032Y-67640968D02*
X119949032Y-67001000D01*
X118852500Y-77304468D02*
X118852500Y-76329468D01*
X119891000Y-71490968D02*
X119891000Y-70742968D01*
X118852500Y-57329468D02*
X119891000Y-56290968D01*
X118852500Y-64937500D02*
X120090000Y-63700000D01*
X118852500Y-54562500D02*
X118852500Y-54050000D01*
X118852500Y-69704468D02*
X118852500Y-68737500D01*
X119891000Y-78342968D02*
X118852500Y-77304468D01*
X118852500Y-38125000D02*
X125027500Y-31950000D01*
X120090000Y-63700000D02*
X120090000Y-63341968D01*
X118852500Y-80650000D02*
X119891000Y-79611500D01*
X118852500Y-62104468D02*
X118852500Y-61129468D01*
X119891000Y-75290968D02*
X119891000Y-74542968D01*
X118852500Y-76329468D02*
X119891000Y-75290968D01*
X118490000Y-80287500D02*
X118852500Y-80650000D01*
X118852500Y-61129468D02*
X119891000Y-60090968D01*
X118490000Y-79700000D02*
X118490000Y-80287500D01*
X118852500Y-68737500D02*
X119949032Y-67640968D01*
X118852500Y-54050000D02*
X118852500Y-38125000D01*
%TO.N,Net-(J8-Pin_3)*%
X151949032Y-63832936D02*
X151949032Y-63201000D01*
X150852500Y-72529468D02*
X151949032Y-71432936D01*
X150852500Y-62104468D02*
X150852500Y-61129468D01*
X150852500Y-68729468D02*
X151919016Y-67662952D01*
X150852500Y-61129468D02*
X151949032Y-60032936D01*
X150852500Y-76337500D02*
X151949032Y-75240968D01*
X150590000Y-80387500D02*
X150852500Y-80650000D01*
X151949032Y-78401000D02*
X150852500Y-77304468D01*
X151949032Y-59401000D02*
X150852500Y-58304468D01*
X151949032Y-63201000D02*
X150852500Y-62104468D01*
X151949032Y-60032936D02*
X151949032Y-59401000D01*
X157027500Y-32062500D02*
X157027500Y-31950000D01*
X150852500Y-54050000D02*
X150852500Y-38237500D01*
X151949032Y-71432936D02*
X151949032Y-70801000D01*
X150852500Y-54504468D02*
X150852500Y-54050000D01*
X150590000Y-79700000D02*
X150590000Y-80387500D01*
X150852500Y-64929468D02*
X151949032Y-63832936D01*
X151949032Y-79553468D02*
X151949032Y-78401000D01*
X151949032Y-55601000D02*
X150852500Y-54504468D01*
X150852500Y-57329468D02*
X151949032Y-56232936D01*
X150852500Y-38237500D02*
X157027500Y-32062500D01*
X151949032Y-56232936D02*
X151949032Y-55601000D01*
X151949032Y-75240968D02*
X151949032Y-74601000D01*
X150852500Y-73504468D02*
X150852500Y-72529468D01*
X150852500Y-58304468D02*
X150852500Y-57329468D01*
X150852500Y-69704468D02*
X150852500Y-68729468D01*
X150852500Y-65904468D02*
X150852500Y-64929468D01*
X151919016Y-67662952D02*
X151919016Y-66970984D01*
X151949032Y-74601000D02*
X150852500Y-73504468D01*
X151949032Y-70801000D02*
X150852500Y-69704468D01*
X151919016Y-66970984D02*
X150852500Y-65904468D01*
X150852500Y-80650000D02*
X151949032Y-79553468D01*
X150852500Y-77304468D02*
X150852500Y-76337500D01*
%TO.N,Net-(J8-Pin_4)*%
X182852500Y-62170532D02*
X183891000Y-63209032D01*
X183891000Y-60099000D02*
X182852500Y-61137500D01*
X183891000Y-71499000D02*
X182852500Y-72537500D01*
X182852500Y-72537500D02*
X182852500Y-73570532D01*
X182852500Y-77370532D02*
X183891000Y-78409032D01*
X183891000Y-78409032D02*
X183891000Y-79611500D01*
X183891000Y-75299000D02*
X182852500Y-76337500D01*
X182852500Y-69770532D02*
X183891000Y-70809032D01*
X183891000Y-74609032D02*
X183891000Y-75299000D01*
X183891000Y-70809032D02*
X183891000Y-71499000D01*
X183891000Y-55609032D02*
X183891000Y-56299000D01*
X182852500Y-61137500D02*
X182852500Y-62170532D01*
X183891000Y-63899000D02*
X182852500Y-64937500D01*
X183891000Y-56299000D02*
X182852500Y-57337500D01*
X182852500Y-54050000D02*
X182852500Y-54570532D01*
X183891000Y-67009032D02*
X183891000Y-67699000D01*
X182852500Y-73570532D02*
X183891000Y-74609032D01*
X182852500Y-57337500D02*
X182852500Y-58370532D01*
X185090000Y-79100000D02*
X184402500Y-79100000D01*
X182852500Y-54050000D02*
X189027500Y-47875000D01*
X182852500Y-54570532D02*
X183891000Y-55609032D01*
X182852500Y-65970532D02*
X183891000Y-67009032D01*
X182852500Y-76337500D02*
X182852500Y-76850000D01*
X183891000Y-67699000D02*
X182852500Y-68737500D01*
X189027500Y-47875000D02*
X189027500Y-31950000D01*
X182852500Y-58370532D02*
X183891000Y-59409032D01*
X183891000Y-59409032D02*
X183891000Y-60099000D01*
X182852500Y-76850000D02*
X182852500Y-77370532D01*
X182852500Y-68737500D02*
X182852500Y-69770532D01*
X182852500Y-64937500D02*
X182852500Y-65970532D01*
X184402500Y-79100000D02*
X182852500Y-80650000D01*
X183891000Y-63209032D02*
X183891000Y-63899000D01*
X183891000Y-79611500D02*
X182852500Y-80650000D01*
%TO.N,Net-(J10-Pin_2)*%
X65490000Y-105000000D02*
X65490000Y-106962500D01*
X65490000Y-110850000D02*
X65490000Y-106962500D01*
X68640000Y-114000000D02*
X65490000Y-110850000D01*
%TO.N,Net-(J10-Pin_7)*%
X84490000Y-105000000D02*
X84490000Y-106962500D01*
X81340000Y-114000000D02*
X84490000Y-110850000D01*
X84490000Y-110850000D02*
X84490000Y-106962500D01*
%TO.N,Net-(J10-Pin_6)*%
X80690000Y-112110000D02*
X80690000Y-106962500D01*
X80690000Y-105000000D02*
X80690000Y-106962500D01*
X78800000Y-114000000D02*
X80690000Y-112110000D01*
%TO.N,Net-(J10-Pin_4)*%
X73090000Y-113370000D02*
X73090000Y-106962500D01*
X73720000Y-114000000D02*
X73090000Y-113370000D01*
X73090000Y-105000000D02*
X73090000Y-106962500D01*
%TO.N,Net-(J10-Pin_5)*%
X76260000Y-114000000D02*
X76890000Y-113370000D01*
X76890000Y-113370000D02*
X76890000Y-106962500D01*
X76890000Y-105000000D02*
X76890000Y-106962500D01*
%TO.N,Net-(J10-Pin_3)*%
X69290000Y-105000000D02*
X69290000Y-106962500D01*
X71180000Y-114000000D02*
X69290000Y-112110000D01*
X69290000Y-112110000D02*
X69290000Y-106962500D01*
%TO.N,Net-(J10-Pin_1)*%
X61690000Y-105000000D02*
X61690000Y-106962500D01*
X61690000Y-109590000D02*
X61690000Y-106962500D01*
X66100000Y-114000000D02*
X61690000Y-109590000D01*
%TO.N,Net-(J11-Pin_8)*%
X123290000Y-105000000D02*
X123290000Y-106962500D01*
X118880000Y-114000000D02*
X123290000Y-109590000D01*
X123290000Y-109590000D02*
X123290000Y-106962500D01*
%TO.N,Net-(J11-Pin_2)*%
X103640000Y-114000000D02*
X100490000Y-110850000D01*
X100490000Y-105000000D02*
X100490000Y-106962500D01*
X100490000Y-110850000D02*
X100490000Y-106962500D01*
%TO.N,Net-(J11-Pin_1)*%
X101100000Y-114000000D02*
X96690000Y-109590000D01*
X96690000Y-109590000D02*
X96690000Y-106962500D01*
X96690000Y-105000000D02*
X96690000Y-106962500D01*
%TO.N,Net-(J11-Pin_6)*%
X113800000Y-114000000D02*
X115690000Y-112110000D01*
X115690000Y-112110000D02*
X115690000Y-106962500D01*
X115690000Y-105000000D02*
X115690000Y-106962500D01*
%TO.N,Net-(J11-Pin_3)*%
X104290000Y-105000000D02*
X104290000Y-106962500D01*
X106180000Y-114000000D02*
X104290000Y-112110000D01*
X104290000Y-112110000D02*
X104290000Y-106962500D01*
%TO.N,Net-(J11-Pin_7)*%
X116340000Y-114000000D02*
X119490000Y-110850000D01*
X119490000Y-110850000D02*
X119490000Y-106962500D01*
X119490000Y-105000000D02*
X119490000Y-106962500D01*
%TO.N,Net-(J11-Pin_4)*%
X108090000Y-113370000D02*
X108090000Y-106962500D01*
X108720000Y-114000000D02*
X108090000Y-113370000D01*
X108090000Y-105000000D02*
X108090000Y-106962500D01*
%TO.N,Net-(J11-Pin_5)*%
X111260000Y-114000000D02*
X111890000Y-113370000D01*
X111890000Y-113370000D02*
X111890000Y-106962500D01*
X111890000Y-105000000D02*
X111890000Y-106962500D01*
%TO.N,Net-(Q1-S)*%
X71502500Y-80650000D02*
X72452500Y-81600000D01*
X70027500Y-80650000D02*
X71502500Y-80650000D01*
%TO.N,Net-(Q1-D)*%
X90090000Y-95400000D02*
X93590000Y-95400000D01*
X93590000Y-95400000D02*
X123890000Y-95400000D01*
X123890000Y-95400000D02*
X154090000Y-95400000D01*
X87340000Y-100900000D02*
X87340000Y-99750000D01*
X87340000Y-98250000D02*
X87290000Y-98200000D01*
X88290000Y-100700000D02*
X87340000Y-101650000D01*
X87340000Y-100900000D02*
X87340000Y-98250000D01*
X100152500Y-81600000D02*
X98590000Y-81600000D01*
X164152500Y-81600000D02*
X162590000Y-81600000D01*
X87340000Y-101650000D02*
X87340000Y-100900000D01*
X88290000Y-100700000D02*
X87340000Y-99750000D01*
X68152500Y-81600000D02*
X66790000Y-81600000D01*
X87290000Y-98200000D02*
X90090000Y-95400000D01*
X130590000Y-81600000D02*
X132152500Y-81600000D01*
X87340000Y-108837500D02*
X87340000Y-101650000D01*
%TO.N,Net-(Q106-D)*%
X83540000Y-98200000D02*
X83590000Y-98200000D01*
X83540000Y-108837500D02*
X83540000Y-101650000D01*
X83540000Y-101650000D02*
X83540000Y-100700000D01*
X83590000Y-98200000D02*
X87090000Y-94700000D01*
X93090000Y-94700000D02*
X123390000Y-94700000D01*
X100152500Y-77800000D02*
X98590000Y-77800000D01*
X83540000Y-100700000D02*
X83540000Y-99750000D01*
X68152500Y-77800000D02*
X66790000Y-77800000D01*
X87090000Y-94700000D02*
X93090000Y-94700000D01*
X84490000Y-100700000D02*
X83540000Y-99750000D01*
X123390000Y-94700000D02*
X153590000Y-94700000D01*
X83540000Y-100700000D02*
X83540000Y-98200000D01*
X164152500Y-77800000D02*
X162590000Y-77800000D01*
X132152500Y-77800000D02*
X130590000Y-77800000D01*
X84490000Y-100700000D02*
X83540000Y-101650000D01*
%TO.N,Net-(Q3-S)*%
X71502500Y-76850000D02*
X72452500Y-77800000D01*
X70027500Y-76850000D02*
X71502500Y-76850000D01*
%TO.N,Net-(Q107-D)*%
X68152500Y-74000000D02*
X66790000Y-74000000D01*
X80690000Y-100700000D02*
X79740000Y-99750000D01*
X79740000Y-98200000D02*
X79740000Y-98150000D01*
X122890000Y-94000000D02*
X153090000Y-94000000D01*
X164152500Y-74000000D02*
X162590000Y-74000000D01*
X79740000Y-98150000D02*
X83890000Y-94000000D01*
X130590000Y-74000000D02*
X132152500Y-74000000D01*
X92590000Y-94000000D02*
X122890000Y-94000000D01*
X83890000Y-94000000D02*
X92590000Y-94000000D01*
X100152500Y-74000000D02*
X98590000Y-74000000D01*
X79740000Y-100300000D02*
X79740000Y-99750000D01*
X79740000Y-108837500D02*
X79740000Y-101650000D01*
X79740000Y-100300000D02*
X79740000Y-98200000D01*
X79740000Y-101650000D02*
X79740000Y-100300000D01*
X80690000Y-100700000D02*
X79740000Y-101650000D01*
%TO.N,Net-(Q5-S)*%
X71502500Y-73050000D02*
X72452500Y-74000000D01*
X70027500Y-73050000D02*
X71502500Y-73050000D01*
%TO.N,Net-(Q108-D)*%
X80890000Y-93300000D02*
X75990000Y-98200000D01*
X75990000Y-98200000D02*
X75940000Y-98200000D01*
X75940000Y-101650000D02*
X75940000Y-99900000D01*
X75940000Y-99900000D02*
X75940000Y-98200000D01*
X92090000Y-93300000D02*
X122390000Y-93300000D01*
X92090000Y-93300000D02*
X80890000Y-93300000D01*
X132152500Y-70200000D02*
X130590000Y-70200000D01*
X68152500Y-70200000D02*
X66790000Y-70200000D01*
X100152500Y-70200000D02*
X98590000Y-70200000D01*
X76890000Y-100700000D02*
X75940000Y-101650000D01*
X75940000Y-99900000D02*
X75940000Y-99750000D01*
X75940000Y-108837500D02*
X75940000Y-101650000D01*
X122390000Y-93300000D02*
X152590000Y-93300000D01*
X76890000Y-100700000D02*
X75940000Y-99750000D01*
X164152500Y-70200000D02*
X162590000Y-70200000D01*
%TO.N,Net-(Q7-S)*%
X71502500Y-69250000D02*
X72452500Y-70200000D01*
X70027500Y-69250000D02*
X71502500Y-69250000D01*
%TO.N,Net-(Q10-D)*%
X71502500Y-65450000D02*
X72452500Y-66400000D01*
X70027500Y-65450000D02*
X71502500Y-65450000D01*
%TO.N,Net-(Q109-D)*%
X100152500Y-66400000D02*
X98590000Y-66400000D01*
X121890000Y-92600000D02*
X152090000Y-92600000D01*
X91590000Y-92600000D02*
X121890000Y-92600000D01*
X73090000Y-100700000D02*
X72140000Y-99750000D01*
X132152500Y-66400000D02*
X130590000Y-66400000D01*
X72140000Y-98200000D02*
X72140000Y-99750000D01*
X73090000Y-100700000D02*
X72140000Y-101650000D01*
X164152500Y-66400000D02*
X162590000Y-66400000D01*
X72140000Y-98200000D02*
X72190000Y-98200000D01*
X72190000Y-98200000D02*
X77790000Y-92600000D01*
X72140000Y-108837500D02*
X72140000Y-101650000D01*
X77790000Y-92600000D02*
X91590000Y-92600000D01*
X68152500Y-66400000D02*
X66790000Y-66400000D01*
X72140000Y-101650000D02*
X72140000Y-99750000D01*
%TO.N,Net-(Q11-S)*%
X71502500Y-61650000D02*
X72452500Y-62600000D01*
X70027500Y-61650000D02*
X71502500Y-61650000D01*
%TO.N,Net-(Q11-D)*%
X100152500Y-62600000D02*
X98690000Y-62600000D01*
X132152500Y-62600000D02*
X130690000Y-62600000D01*
X68340000Y-108837500D02*
X68340000Y-101650000D01*
X69290000Y-100700000D02*
X68340000Y-99750000D01*
X68340000Y-101650000D02*
X68340000Y-99900000D01*
X68340000Y-99900000D02*
X68340000Y-99750000D01*
X98690000Y-62600000D02*
X98590000Y-62500000D01*
X91090000Y-91900000D02*
X151590000Y-91900000D01*
X68340000Y-98200000D02*
X68390000Y-98200000D01*
X69290000Y-100700000D02*
X68340000Y-101650000D01*
X68340000Y-99900000D02*
X68340000Y-98200000D01*
X130690000Y-62600000D02*
X130590000Y-62500000D01*
X74690000Y-91900000D02*
X91090000Y-91900000D01*
X162690000Y-62600000D02*
X162590000Y-62500000D01*
X68390000Y-98200000D02*
X74690000Y-91900000D01*
X68152500Y-62600000D02*
X66790000Y-62600000D01*
X164152500Y-62600000D02*
X162690000Y-62600000D01*
%TO.N,Net-(Q13-S)*%
X71502500Y-57850000D02*
X72452500Y-58800000D01*
X70027500Y-57850000D02*
X71502500Y-57850000D01*
%TO.N,Net-(Q111-D)*%
X162590000Y-59300000D02*
X163090000Y-58800000D01*
X64540000Y-108837500D02*
X64540000Y-101650000D01*
X120890000Y-91200000D02*
X151090000Y-91200000D01*
X99090000Y-58800000D02*
X98590000Y-59300000D01*
X64540000Y-101650000D02*
X64540000Y-99900000D01*
X90590000Y-91200000D02*
X71590000Y-91200000D01*
X64540000Y-99900000D02*
X64540000Y-98200000D01*
X65490000Y-100700000D02*
X64540000Y-99750000D01*
X163090000Y-58800000D02*
X164152500Y-58800000D01*
X64540000Y-99900000D02*
X64540000Y-99750000D01*
X132152500Y-58800000D02*
X131090000Y-58800000D01*
X131090000Y-58800000D02*
X130590000Y-59300000D01*
X71590000Y-91200000D02*
X64590000Y-98200000D01*
X68152500Y-58800000D02*
X66790000Y-58800000D01*
X65490000Y-100700000D02*
X64540000Y-101650000D01*
X64590000Y-98200000D02*
X64540000Y-98200000D01*
X90590000Y-91200000D02*
X120890000Y-91200000D01*
X100152500Y-58800000D02*
X99090000Y-58800000D01*
%TO.N,Net-(Q15-S)*%
X71502500Y-54050000D02*
X72452500Y-55000000D01*
X70027500Y-54050000D02*
X71502500Y-54050000D01*
%TO.N,Net-(Q112-D)*%
X120390000Y-90500000D02*
X150590000Y-90500000D01*
X164152500Y-55000000D02*
X162690000Y-55000000D01*
X130690000Y-55000000D02*
X130590000Y-54900000D01*
X60740000Y-101600000D02*
X60790000Y-101600000D01*
X61690000Y-100700000D02*
X60740000Y-99750000D01*
X90090000Y-90500000D02*
X68490000Y-90500000D01*
X60790000Y-98200000D02*
X60740000Y-98200000D01*
X60740000Y-108837500D02*
X60740000Y-101600000D01*
X60740000Y-99900000D02*
X60740000Y-98200000D01*
X68490000Y-90500000D02*
X60790000Y-98200000D01*
X162690000Y-55000000D02*
X162590000Y-54900000D01*
X68152500Y-55000000D02*
X66790000Y-55000000D01*
X120390000Y-90500000D02*
X90090000Y-90500000D01*
X60740000Y-99900000D02*
X60740000Y-99750000D01*
X60790000Y-101600000D02*
X61690000Y-100700000D01*
X60740000Y-101600000D02*
X60740000Y-99900000D01*
X100152500Y-55000000D02*
X98690000Y-55000000D01*
X98690000Y-55000000D02*
X98590000Y-54900000D01*
X132152500Y-55000000D02*
X130690000Y-55000000D01*
%TO.N,Net-(Q17-D)*%
X103502500Y-80650000D02*
X104452500Y-81600000D01*
X102027500Y-80650000D02*
X103502500Y-80650000D01*
%TO.N,Net-(Q18-D)*%
X103502500Y-76850000D02*
X104452500Y-77800000D01*
X102027500Y-76850000D02*
X103502500Y-76850000D01*
%TO.N,Net-(Q19-D)*%
X102027500Y-73050000D02*
X103502500Y-73050000D01*
X103502500Y-73050000D02*
X104452500Y-74000000D01*
%TO.N,Net-(Q20-D)*%
X102027500Y-69250000D02*
X103502500Y-69250000D01*
X103502500Y-69250000D02*
X104452500Y-70200000D01*
%TO.N,Net-(Q21-D)*%
X102027500Y-65450000D02*
X103502500Y-65450000D01*
X103502500Y-65450000D02*
X104452500Y-66400000D01*
%TO.N,Net-(Q22-D)*%
X103502500Y-61650000D02*
X104452500Y-62600000D01*
X102027500Y-61650000D02*
X103502500Y-61650000D01*
%TO.N,Net-(Q23-D)*%
X103502500Y-57850000D02*
X104452500Y-58800000D01*
X102027500Y-57850000D02*
X103502500Y-57850000D01*
%TO.N,Net-(Q24-D)*%
X103502500Y-54050000D02*
X104452500Y-55000000D01*
X102027500Y-54050000D02*
X103502500Y-54050000D01*
%TO.N,Net-(Q33-D)*%
X123152500Y-82550000D02*
X121677500Y-82550000D01*
X121677500Y-82550000D02*
X120727500Y-81600000D01*
%TO.N,Net-(Q34-D)*%
X121677500Y-78750000D02*
X120727500Y-77800000D01*
X123152500Y-78750000D02*
X121677500Y-78750000D01*
%TO.N,Net-(Q35-D)*%
X123152500Y-74950000D02*
X121677500Y-74950000D01*
X121677500Y-74950000D02*
X120727500Y-74000000D01*
%TO.N,Net-(Q36-D)*%
X121677500Y-71150000D02*
X120727500Y-70200000D01*
X123152500Y-71150000D02*
X121677500Y-71150000D01*
%TO.N,Net-(Q37-D)*%
X123152500Y-67350000D02*
X121677500Y-67350000D01*
X121677500Y-67350000D02*
X120727500Y-66400000D01*
%TO.N,Net-(Q38-D)*%
X123152500Y-63550000D02*
X121677500Y-63550000D01*
X121677500Y-63550000D02*
X120727500Y-62600000D01*
%TO.N,Net-(Q39-D)*%
X123152500Y-59750000D02*
X121677500Y-59750000D01*
X121677500Y-59750000D02*
X120727500Y-58800000D01*
%TO.N,Net-(Q40-D)*%
X123152500Y-55950000D02*
X121677500Y-55950000D01*
X121677500Y-55950000D02*
X120727500Y-55000000D01*
%TO.N,Net-(Q121-D)*%
X122340000Y-108837500D02*
X122340000Y-106650000D01*
X125027500Y-81600000D02*
X126590000Y-81600000D01*
X122340000Y-106650000D02*
X122090000Y-106400000D01*
X157027500Y-81600000D02*
X158590000Y-81600000D01*
X122090000Y-105000000D02*
X122090000Y-106400000D01*
X93027500Y-81600000D02*
X94590000Y-81600000D01*
X189027500Y-81600000D02*
X190390000Y-81600000D01*
%TO.N,Net-(Q122-D)*%
X125027500Y-77800000D02*
X126590000Y-77800000D01*
X118540000Y-106650000D02*
X118290000Y-106400000D01*
X189027500Y-77800000D02*
X190390000Y-77800000D01*
X118290000Y-105000000D02*
X118290000Y-106400000D01*
X118540000Y-108837500D02*
X118540000Y-106650000D01*
X157027500Y-77800000D02*
X158590000Y-77800000D01*
X93027500Y-77800000D02*
X94590000Y-77800000D01*
%TO.N,Net-(Q123-D)*%
X114740000Y-106650000D02*
X114490000Y-106400000D01*
X157027500Y-74000000D02*
X158590000Y-74000000D01*
X93027500Y-74000000D02*
X94590000Y-74000000D01*
X125027500Y-74000000D02*
X126590000Y-74000000D01*
X114490000Y-105000000D02*
X114490000Y-106400000D01*
X189027500Y-74000000D02*
X190390000Y-74000000D01*
X114740000Y-108837500D02*
X114740000Y-106650000D01*
%TO.N,Net-(Q124-D)*%
X125027500Y-70200000D02*
X126590000Y-70200000D01*
X110690000Y-105000000D02*
X110690000Y-106400000D01*
X157027500Y-70200000D02*
X158590000Y-70200000D01*
X110940000Y-108837500D02*
X110940000Y-106650000D01*
X110940000Y-106650000D02*
X110690000Y-106400000D01*
X189027500Y-70200000D02*
X190390000Y-70200000D01*
X93027500Y-70200000D02*
X94590000Y-70200000D01*
%TO.N,Net-(Q125-D)*%
X107140000Y-106650000D02*
X106890000Y-106400000D01*
X106890000Y-105000000D02*
X106890000Y-106400000D01*
X157027500Y-66400000D02*
X158590000Y-66400000D01*
X107140000Y-108837500D02*
X107140000Y-106650000D01*
X189027500Y-66400000D02*
X190390000Y-66400000D01*
X93027500Y-66400000D02*
X94590000Y-66400000D01*
X125027500Y-66400000D02*
X126590000Y-66400000D01*
%TO.N,Net-(Q126-D)*%
X125027500Y-62600000D02*
X126490000Y-62600000D01*
X93027500Y-62600000D02*
X94490000Y-62600000D01*
X103340000Y-108837500D02*
X103340000Y-106650000D01*
X103340000Y-106650000D02*
X103090000Y-106400000D01*
X126490000Y-62600000D02*
X126590000Y-62500000D01*
X158490000Y-62600000D02*
X158590000Y-62500000D01*
X94490000Y-62600000D02*
X94590000Y-62500000D01*
X103090000Y-105000000D02*
X103090000Y-106400000D01*
X189027500Y-62600000D02*
X190390000Y-62600000D01*
X157027500Y-62600000D02*
X158490000Y-62600000D01*
%TO.N,Net-(Q127-D)*%
X99540000Y-106650000D02*
X99290000Y-106400000D01*
X158090000Y-58800000D02*
X158590000Y-59300000D01*
X125027500Y-58800000D02*
X126090000Y-58800000D01*
X99540000Y-108837500D02*
X99540000Y-106650000D01*
X126090000Y-58800000D02*
X126590000Y-59300000D01*
X99290000Y-105000000D02*
X99290000Y-106400000D01*
X157027500Y-58800000D02*
X158090000Y-58800000D01*
X189027500Y-58800000D02*
X190390000Y-58800000D01*
X94090000Y-58800000D02*
X94590000Y-59300000D01*
X93027500Y-58800000D02*
X94090000Y-58800000D01*
%TO.N,Net-(Q128-D)*%
X189027500Y-55000000D02*
X190390000Y-55000000D01*
X158490000Y-55000000D02*
X158590000Y-54900000D01*
X95490000Y-105000000D02*
X95490000Y-106400000D01*
X126490000Y-55000000D02*
X126590000Y-54900000D01*
X95740000Y-108837500D02*
X95740000Y-106650000D01*
X125027500Y-55000000D02*
X126490000Y-55000000D01*
X95740000Y-106650000D02*
X95490000Y-106400000D01*
X93027500Y-55000000D02*
X94590000Y-55000000D01*
X157027500Y-55000000D02*
X158490000Y-55000000D01*
%TO.N,Net-(Q49-D)*%
X134027500Y-80650000D02*
X135502500Y-80650000D01*
X135502500Y-80650000D02*
X136452500Y-81600000D01*
%TO.N,Net-(Q50-D)*%
X134027500Y-76850000D02*
X135502500Y-76850000D01*
X135502500Y-76850000D02*
X136452500Y-77800000D01*
%TO.N,Net-(Q51-D)*%
X135502500Y-73050000D02*
X136452500Y-74000000D01*
X134027500Y-73050000D02*
X135502500Y-73050000D01*
%TO.N,Net-(Q52-D)*%
X135502500Y-69250000D02*
X136452500Y-70200000D01*
X134027500Y-69250000D02*
X135502500Y-69250000D01*
%TO.N,Net-(Q53-D)*%
X135502500Y-65450000D02*
X136452500Y-66400000D01*
X134027500Y-65450000D02*
X135502500Y-65450000D01*
%TO.N,Net-(Q54-D)*%
X135502500Y-61650000D02*
X136452500Y-62600000D01*
X134027500Y-61650000D02*
X135502500Y-61650000D01*
%TO.N,Net-(Q55-D)*%
X134027500Y-57850000D02*
X135502500Y-57850000D01*
X135502500Y-57850000D02*
X136452500Y-58800000D01*
%TO.N,Net-(Q56-D)*%
X135502500Y-54050000D02*
X136452500Y-55000000D01*
X134027500Y-54050000D02*
X135502500Y-54050000D01*
%TO.N,Net-(Q65-D)*%
X89677500Y-82550000D02*
X88727500Y-81600000D01*
X91152500Y-82550000D02*
X89677500Y-82550000D01*
%TO.N,Net-(Q66-D)*%
X89677500Y-78750000D02*
X88727500Y-77800000D01*
X91152500Y-78750000D02*
X89677500Y-78750000D01*
%TO.N,Net-(Q67-D)*%
X89677500Y-74950000D02*
X88727500Y-74000000D01*
X91152500Y-74950000D02*
X89677500Y-74950000D01*
%TO.N,Net-(Q68-D)*%
X89677500Y-71150000D02*
X88727500Y-70200000D01*
X91152500Y-71150000D02*
X89677500Y-71150000D01*
%TO.N,Net-(Q69-D)*%
X91152500Y-67350000D02*
X89677500Y-67350000D01*
X89677500Y-67350000D02*
X88727500Y-66400000D01*
%TO.N,Net-(Q70-D)*%
X89677500Y-63550000D02*
X88727500Y-62600000D01*
X91152500Y-63550000D02*
X89677500Y-63550000D01*
%TO.N,Net-(Q71-D)*%
X89677500Y-59750000D02*
X88727500Y-58800000D01*
X91152500Y-59750000D02*
X89677500Y-59750000D01*
%TO.N,Net-(Q72-D)*%
X91152500Y-55950000D02*
X89677500Y-55950000D01*
X89677500Y-55950000D02*
X88727500Y-55000000D01*
%TO.N,Net-(Q81-D)*%
X155152500Y-82550000D02*
X153677500Y-82550000D01*
X153677500Y-82550000D02*
X152727500Y-81600000D01*
%TO.N,Net-(Q82-D)*%
X153677500Y-78750000D02*
X152727500Y-77800000D01*
X155152500Y-78750000D02*
X153677500Y-78750000D01*
%TO.N,Net-(Q83-D)*%
X153677500Y-74950000D02*
X152727500Y-74000000D01*
X155152500Y-74950000D02*
X153677500Y-74950000D01*
%TO.N,Net-(Q84-D)*%
X155152500Y-71150000D02*
X153677500Y-71150000D01*
X153677500Y-71150000D02*
X152727500Y-70200000D01*
%TO.N,Net-(Q85-D)*%
X155152500Y-67350000D02*
X153677500Y-67350000D01*
X153677500Y-67350000D02*
X152727500Y-66400000D01*
%TO.N,Net-(Q86-D)*%
X155152500Y-63550000D02*
X153677500Y-63550000D01*
X153677500Y-63550000D02*
X152727500Y-62600000D01*
%TO.N,Net-(Q87-D)*%
X153677500Y-59750000D02*
X152727500Y-58800000D01*
X155152500Y-59750000D02*
X153677500Y-59750000D01*
%TO.N,Net-(Q88-D)*%
X153677500Y-55950000D02*
X152727500Y-55000000D01*
X155152500Y-55950000D02*
X153677500Y-55950000D01*
%TO.N,Net-(Q105-S)*%
X167502500Y-80650000D02*
X168452500Y-81600000D01*
X166027500Y-80650000D02*
X167502500Y-80650000D01*
%TO.N,Net-(Q106-S)*%
X167502500Y-76850000D02*
X168452500Y-77800000D01*
X166027500Y-76850000D02*
X167502500Y-76850000D01*
%TO.N,Net-(Q107-S)*%
X166027500Y-73050000D02*
X167502500Y-73050000D01*
X167502500Y-73050000D02*
X168452500Y-74000000D01*
%TO.N,Net-(Q100-D)*%
X166027500Y-69250000D02*
X167502500Y-69250000D01*
X167502500Y-69250000D02*
X168452500Y-70200000D01*
%TO.N,Net-(Q101-D)*%
X166027500Y-65450000D02*
X167502500Y-65450000D01*
X167502500Y-65450000D02*
X168452500Y-66400000D01*
%TO.N,Net-(Q102-D)*%
X166027500Y-61650000D02*
X167502500Y-61650000D01*
X167502500Y-61650000D02*
X168452500Y-62600000D01*
%TO.N,Net-(Q103-D)*%
X166027500Y-57850000D02*
X167502500Y-57850000D01*
X167502500Y-57850000D02*
X168452500Y-58800000D01*
%TO.N,Net-(Q104-D)*%
X166027500Y-54050000D02*
X167502500Y-54050000D01*
X167502500Y-54050000D02*
X168452500Y-55000000D01*
%TO.N,Net-(Q113-D)*%
X185677500Y-82550000D02*
X184727500Y-81600000D01*
X187152500Y-82550000D02*
X185677500Y-82550000D01*
%TO.N,Net-(Q114-D)*%
X187152500Y-78750000D02*
X185677500Y-78750000D01*
X185677500Y-78750000D02*
X184727500Y-77800000D01*
%TO.N,Net-(Q115-D)*%
X187152500Y-74950000D02*
X185677500Y-74950000D01*
X185677500Y-74950000D02*
X184727500Y-74000000D01*
%TO.N,Net-(Q116-D)*%
X187152500Y-71150000D02*
X185677500Y-71150000D01*
X185677500Y-71150000D02*
X184727500Y-70200000D01*
%TO.N,Net-(Q117-D)*%
X185677500Y-67350000D02*
X184727500Y-66400000D01*
X187152500Y-67350000D02*
X185677500Y-67350000D01*
%TO.N,Net-(Q118-D)*%
X185677500Y-63550000D02*
X184727500Y-62600000D01*
X187152500Y-63550000D02*
X185677500Y-63550000D01*
%TO.N,Net-(Q119-D)*%
X187152500Y-59750000D02*
X185677500Y-59750000D01*
X185677500Y-59750000D02*
X184727500Y-58800000D01*
%TO.N,Net-(Q120-D)*%
X187152500Y-55950000D02*
X185677500Y-55950000D01*
X185677500Y-55950000D02*
X184727500Y-55000000D01*
D28*
%TO.N,Net-(Q146-D)*%
X90152500Y-32000000D02*
X91152500Y-31000000D01*
X88980000Y-32000000D02*
X90152500Y-32000000D01*
%TO.N,Net-(D1-Pad2)*%
X87400000Y-30170000D02*
X87670000Y-29900000D01*
X87400000Y-32000000D02*
X87400000Y-30170000D01*
D26*
%TO.N,Net-(D2-Pad2)*%
X105780000Y-30070000D02*
X105610000Y-29900000D01*
D28*
X105780000Y-32000000D02*
X105780000Y-30070000D01*
%TO.N,Net-(Q147-D)*%
X103027500Y-32000000D02*
X102027500Y-31000000D01*
X104200000Y-32000000D02*
X103027500Y-32000000D01*
D26*
%TO.N,Net-(D3-Pad2)*%
X119500000Y-30070000D02*
X119670000Y-29900000D01*
D28*
X119500000Y-32000000D02*
X119500000Y-30070000D01*
%TO.N,Net-(Q148-D)*%
X121080000Y-32000000D02*
X122152500Y-32000000D01*
X122152500Y-32000000D02*
X123152500Y-31000000D01*
D26*
%TO.N,Net-(D4-Pad2)*%
X137780000Y-30070000D02*
X137610000Y-29900000D01*
D28*
X137780000Y-32000000D02*
X137780000Y-30070000D01*
%TO.N,Net-(Q149-D)*%
X135027500Y-32000000D02*
X134027500Y-31000000D01*
X136200000Y-32000000D02*
X135027500Y-32000000D01*
%TO.N,Net-(Q150-D)*%
X152980000Y-32000000D02*
X154152500Y-32000000D01*
X154152500Y-32000000D02*
X155152500Y-31000000D01*
D26*
%TO.N,Net-(D5-Pad2)*%
X151400000Y-30170000D02*
X151670000Y-29900000D01*
D28*
X151400000Y-32000000D02*
X151400000Y-30170000D01*
D26*
%TO.N,Net-(D6-Pad2)*%
X169780000Y-30070000D02*
X169610000Y-29900000D01*
D28*
X169780000Y-32000000D02*
X169780000Y-30070000D01*
%TO.N,Net-(Q151-D)*%
X167027500Y-32000000D02*
X166027500Y-31000000D01*
X168200000Y-32000000D02*
X167027500Y-32000000D01*
%TO.N,Net-(Q152-D)*%
X186152500Y-32000000D02*
X187152500Y-31000000D01*
X184980000Y-32000000D02*
X186152500Y-32000000D01*
%TO.N,Net-(D7-Pad2)*%
X183400000Y-32000000D02*
X183400000Y-30170000D01*
X183400000Y-30170000D02*
X183670000Y-29900000D01*
D26*
%TO.N,Net-(D8-Pad2)*%
X165392500Y-111927500D02*
X165432500Y-111887500D01*
D28*
X165392500Y-113887500D02*
X165392500Y-111927500D01*
%TO.N,Net-(D24-Pad2)*%
X73780000Y-30070000D02*
X73610000Y-29900000D01*
X73780000Y-32000000D02*
X73780000Y-30070000D01*
%TO.N,Net-(Q145-D)*%
X71017500Y-32000000D02*
X70017500Y-31000000D01*
X72200000Y-32000000D02*
X71017500Y-32000000D01*
D26*
%TO.N,Net-(J10-Pin_8)*%
X83880000Y-114000000D02*
X88290000Y-109590000D01*
X88290000Y-109590000D02*
X88290000Y-106962500D01*
X88290000Y-105000000D02*
X88290000Y-106962500D01*
D28*
%TO.N,Net-(Q153-D)*%
X204710000Y-81300000D02*
X203537500Y-81300000D01*
X203537500Y-81300000D02*
X202537500Y-80300000D01*
%TO.N,Net-(D9-Pad2)*%
X206290000Y-81300000D02*
X206290000Y-80610000D01*
X206290000Y-80610000D02*
X204880000Y-79200000D01*
%TO.N,Net-(Q154-D)*%
X203537500Y-85300000D02*
X202537500Y-84300000D01*
X204710000Y-85300000D02*
X203537500Y-85300000D01*
%TO.N,Net-(D10-Pad2)*%
X206290000Y-84610000D02*
X204880000Y-83200000D01*
X206290000Y-85300000D02*
X206290000Y-84610000D01*
%TO.N,Net-(Q155-D)*%
X204772500Y-77300000D02*
X203537500Y-77300000D01*
X203537500Y-77300000D02*
X202537500Y-76300000D01*
%TO.N,Net-(D11-Pad2)*%
X206352500Y-76672500D02*
X204880000Y-75200000D01*
X206352500Y-77300000D02*
X206352500Y-76672500D01*
%TO.N,Net-(D12-Pad2)*%
X206290000Y-73300000D02*
X206290000Y-72610000D01*
X206290000Y-72610000D02*
X204880000Y-71200000D01*
%TO.N,Net-(Q156-D)*%
X204710000Y-73300000D02*
X203537500Y-73300000D01*
X203537500Y-73300000D02*
X202537500Y-72300000D01*
%TO.N,Net-(Q157-D)*%
X204710000Y-69300000D02*
X203537500Y-69300000D01*
X203537500Y-69300000D02*
X202537500Y-68300000D01*
%TO.N,Net-(D13-Pad2)*%
X206290000Y-69300000D02*
X206290000Y-68610000D01*
X206290000Y-68610000D02*
X204880000Y-67200000D01*
%TO.N,Net-(Q158-D)*%
X203537500Y-65300000D02*
X202537500Y-64300000D01*
X204710000Y-65300000D02*
X203537500Y-65300000D01*
%TO.N,Net-(D14-Pad2)*%
X206290000Y-64610000D02*
X204880000Y-63200000D01*
X206290000Y-65300000D02*
X206290000Y-64610000D01*
%TO.N,Net-(D15-Pad2)*%
X206290000Y-61300000D02*
X206290000Y-60610000D01*
X206290000Y-60610000D02*
X204880000Y-59200000D01*
%TO.N,Net-(Q159-D)*%
X203537500Y-61300000D02*
X202537500Y-60300000D01*
X204710000Y-61300000D02*
X203537500Y-61300000D01*
%TO.N,Net-(D16-Pad2)*%
X206330000Y-57300000D02*
X206330000Y-56650000D01*
X206330000Y-56650000D02*
X204880000Y-55200000D01*
%TO.N,Net-(Q160-D)*%
X204750000Y-57300000D02*
X203537500Y-57300000D01*
X203537500Y-57300000D02*
X202537500Y-56300000D01*
%TD*%
M02*
