%TF.GenerationSoftware,KiCad,Pcbnew,9.0.7*%
%TF.CreationDate,2026-02-26T13:27:38+01:00*%
%TF.ProjectId,Register_Holder_V1.0,52656769-7374-4657-925f-486f6c646572,rev?*%
%TF.SameCoordinates,Original*%
%TF.FileFunction,Copper,L5,Inr*%
%TF.FilePolarity,Positive*%
%FSLAX46Y46*%
G04 Gerber Fmt 4.6, Leading zero omitted, Abs format (unit mm)*
G04 Created by KiCad (PCBNEW 9.0.7) date 2026-02-26 13:27:38*
%MOMM*%
%LPD*%
G01*
G04 APERTURE LIST*
%TA.AperFunction,ComponentPad*%
%ADD10R,1.700000X1.700000*%
%TD*%
%TA.AperFunction,ComponentPad*%
%ADD11C,1.700000*%
%TD*%
%TA.AperFunction,ViaPad*%
%ADD12C,0.600000*%
%TD*%
%TA.AperFunction,ViaPad*%
%ADD13C,1.000000*%
%TD*%
%TA.AperFunction,ViaPad*%
%ADD14C,1.500000*%
%TD*%
%TA.AperFunction,Conductor*%
%ADD15C,0.200000*%
%TD*%
G04 APERTURE END LIST*
D10*
%TO.N,VCC*%
%TO.C,J3*%
X144590000Y-33100000D03*
D11*
%TO.N,GND*%
X144590000Y-35640000D03*
%TO.N,RST*%
X144590000Y-38180000D03*
%TO.N,Net-(J3-Pin_4)*%
X144590000Y-40720000D03*
%TO.N,Rising_Edge*%
X144590000Y-43260000D03*
%TO.N,Net-(J1-Pin_6)*%
X144590000Y-45800000D03*
%TO.N,Net-(J1-Pin_7)*%
X144590000Y-48340000D03*
%TO.N,Net-(J1-Pin_8)*%
X144590000Y-50880000D03*
%TO.N,Net-(J1-Pin_9)*%
X144590000Y-53420000D03*
%TO.N,Net-(J1-Pin_10)*%
X144590000Y-55960000D03*
%TO.N,Net-(J1-Pin_11)*%
X144590000Y-58500000D03*
%TO.N,Net-(J1-Pin_12)*%
X144590000Y-61040000D03*
%TO.N,Net-(J1-Pin_13)*%
X144590000Y-63580000D03*
%TO.N,Net-(J3-Pin_14)*%
X144590000Y-66120000D03*
%TO.N,Net-(J3-Pin_15)*%
X144590000Y-68660000D03*
%TO.N,Net-(J3-Pin_16)*%
X144590000Y-71200000D03*
%TO.N,Net-(J3-Pin_17)*%
X144590000Y-73740000D03*
%TO.N,Net-(J3-Pin_18)*%
X144590000Y-76280000D03*
%TO.N,Net-(J3-Pin_19)*%
X144590000Y-78820000D03*
%TO.N,Net-(J3-Pin_20)*%
X144590000Y-81360000D03*
%TO.N,Net-(J3-Pin_21)*%
X144590000Y-83900000D03*
%TD*%
D10*
%TO.N,VCC*%
%TO.C,J14*%
X135712500Y-111712500D03*
D11*
%TO.N,GND*%
X135712500Y-114252500D03*
%TD*%
D10*
%TO.N,VCC*%
%TO.C,J15*%
X57190000Y-105725000D03*
D11*
%TO.N,GND*%
X57190000Y-108265000D03*
%TD*%
D10*
%TO.N,Rising_Edge*%
%TO.C,J6*%
X57200000Y-59240000D03*
D11*
%TO.N,RST*%
X57200000Y-56700000D03*
%TD*%
D10*
%TO.N,Net-(J1-Pin_4)*%
%TO.C,J5*%
X57190000Y-66200000D03*
D11*
%TO.N,Net-(J2-Pin_4)*%
X57190000Y-68740000D03*
%TO.N,Net-(J3-Pin_4)*%
X57190000Y-71280000D03*
%TO.N,Net-(J4-Pin_4)*%
X57190000Y-73820000D03*
%TD*%
D10*
%TO.N,Net-(J1-Pin_6)*%
%TO.C,J9*%
X204200000Y-31100000D03*
D11*
%TO.N,Net-(J1-Pin_7)*%
X204200000Y-33640000D03*
%TO.N,Net-(J1-Pin_8)*%
X204200000Y-36180000D03*
%TO.N,Net-(J1-Pin_9)*%
X204200000Y-38720000D03*
%TO.N,Net-(J1-Pin_10)*%
X204200000Y-41260000D03*
%TO.N,Net-(J1-Pin_11)*%
X204200000Y-43800000D03*
%TO.N,Net-(J1-Pin_12)*%
X204200000Y-46340000D03*
%TO.N,Net-(J1-Pin_13)*%
X204200000Y-48880000D03*
%TD*%
D10*
%TO.N,Net-(J10-Pin_1)*%
%TO.C,J10*%
X66100000Y-114000000D03*
D11*
%TO.N,Net-(J10-Pin_2)*%
X68640000Y-114000000D03*
%TO.N,Net-(J10-Pin_3)*%
X71180000Y-114000000D03*
%TO.N,Net-(J10-Pin_4)*%
X73720000Y-114000000D03*
%TO.N,Net-(J10-Pin_5)*%
X76260000Y-114000000D03*
%TO.N,Net-(J10-Pin_6)*%
X78800000Y-114000000D03*
%TO.N,Net-(J10-Pin_7)*%
X81340000Y-114000000D03*
%TO.N,Net-(J10-Pin_8)*%
X83880000Y-114000000D03*
%TD*%
D10*
%TO.N,VCC*%
%TO.C,J1*%
X80590000Y-33100000D03*
D11*
%TO.N,GND*%
X80590000Y-35640000D03*
%TO.N,RST*%
X80590000Y-38180000D03*
%TO.N,Net-(J1-Pin_4)*%
X80590000Y-40720000D03*
%TO.N,Rising_Edge*%
X80590000Y-43260000D03*
%TO.N,Net-(J1-Pin_6)*%
X80590000Y-45800000D03*
%TO.N,Net-(J1-Pin_7)*%
X80590000Y-48340000D03*
%TO.N,Net-(J1-Pin_8)*%
X80590000Y-50880000D03*
%TO.N,Net-(J1-Pin_9)*%
X80590000Y-53420000D03*
%TO.N,Net-(J1-Pin_10)*%
X80590000Y-55960000D03*
%TO.N,Net-(J1-Pin_11)*%
X80590000Y-58500000D03*
%TO.N,Net-(J1-Pin_12)*%
X80590000Y-61040000D03*
%TO.N,Net-(J1-Pin_13)*%
X80590000Y-63580000D03*
%TO.N,Net-(J1-Pin_14)*%
X80590000Y-66120000D03*
%TO.N,Net-(J1-Pin_15)*%
X80590000Y-68660000D03*
%TO.N,Net-(J1-Pin_16)*%
X80590000Y-71200000D03*
%TO.N,Net-(J1-Pin_17)*%
X80590000Y-73740000D03*
%TO.N,Net-(J1-Pin_18)*%
X80590000Y-76280000D03*
%TO.N,Net-(J1-Pin_19)*%
X80590000Y-78820000D03*
%TO.N,Net-(J1-Pin_20)*%
X80590000Y-81360000D03*
%TO.N,Net-(J1-Pin_21)*%
X80590000Y-83900000D03*
%TD*%
D10*
%TO.N,VCC*%
%TO.C,J4*%
X176590000Y-33100000D03*
D11*
%TO.N,GND*%
X176590000Y-35640000D03*
%TO.N,RST*%
X176590000Y-38180000D03*
%TO.N,Net-(J4-Pin_4)*%
X176590000Y-40720000D03*
%TO.N,Rising_Edge*%
X176590000Y-43260000D03*
%TO.N,Net-(J1-Pin_6)*%
X176590000Y-45800000D03*
%TO.N,Net-(J1-Pin_7)*%
X176590000Y-48340000D03*
%TO.N,Net-(J1-Pin_8)*%
X176590000Y-50880000D03*
%TO.N,Net-(J1-Pin_9)*%
X176590000Y-53420000D03*
%TO.N,Net-(J1-Pin_10)*%
X176590000Y-55960000D03*
%TO.N,Net-(J1-Pin_11)*%
X176590000Y-58500000D03*
%TO.N,Net-(J1-Pin_12)*%
X176590000Y-61040000D03*
%TO.N,Net-(J1-Pin_13)*%
X176590000Y-63580000D03*
%TO.N,Net-(J4-Pin_14)*%
X176590000Y-66120000D03*
%TO.N,Net-(J4-Pin_15)*%
X176590000Y-68660000D03*
%TO.N,Net-(J4-Pin_16)*%
X176590000Y-71200000D03*
%TO.N,Net-(J4-Pin_17)*%
X176590000Y-73740000D03*
%TO.N,Net-(J4-Pin_18)*%
X176590000Y-76280000D03*
%TO.N,Net-(J4-Pin_19)*%
X176590000Y-78820000D03*
%TO.N,Net-(J4-Pin_20)*%
X176590000Y-81360000D03*
%TO.N,Net-(J4-Pin_21)*%
X176590000Y-83900000D03*
%TD*%
D10*
%TO.N,Net-(J8-Pin_1)*%
%TO.C,J8*%
X57190000Y-92580000D03*
D11*
%TO.N,Net-(J8-Pin_2)*%
X57190000Y-95120000D03*
%TO.N,Net-(J8-Pin_3)*%
X57190000Y-97660000D03*
%TO.N,Net-(J8-Pin_4)*%
X57190000Y-100200000D03*
%TD*%
D10*
%TO.N,Net-(J11-Pin_1)*%
%TO.C,J11*%
X101100000Y-114000000D03*
D11*
%TO.N,Net-(J11-Pin_2)*%
X103640000Y-114000000D03*
%TO.N,Net-(J11-Pin_3)*%
X106180000Y-114000000D03*
%TO.N,Net-(J11-Pin_4)*%
X108720000Y-114000000D03*
%TO.N,Net-(J11-Pin_5)*%
X111260000Y-114000000D03*
%TO.N,Net-(J11-Pin_6)*%
X113800000Y-114000000D03*
%TO.N,Net-(J11-Pin_7)*%
X116340000Y-114000000D03*
%TO.N,Net-(J11-Pin_8)*%
X118880000Y-114000000D03*
%TD*%
D10*
%TO.N,Net-(J7-Pin_1)*%
%TO.C,J7*%
X57190000Y-79400000D03*
D11*
%TO.N,Net-(J7-Pin_2)*%
X57190000Y-81940000D03*
%TO.N,Net-(J7-Pin_3)*%
X57190000Y-84480000D03*
%TO.N,Net-(J7-Pin_4)*%
X57190000Y-87020000D03*
%TD*%
D10*
%TO.N,Net-(J1-Pin_6)*%
%TO.C,J12*%
X57190000Y-31120000D03*
D11*
%TO.N,Net-(J1-Pin_7)*%
X57190000Y-33660000D03*
%TO.N,Net-(J1-Pin_8)*%
X57190000Y-36200000D03*
%TO.N,Net-(J1-Pin_9)*%
X57190000Y-38740000D03*
%TO.N,Net-(J1-Pin_10)*%
X57190000Y-41280000D03*
%TO.N,Net-(J1-Pin_11)*%
X57190000Y-43820000D03*
%TO.N,Net-(J1-Pin_12)*%
X57190000Y-46360000D03*
%TO.N,Net-(J1-Pin_13)*%
X57190000Y-48900000D03*
%TD*%
D10*
%TO.N,VCC*%
%TO.C,J2*%
X112590000Y-33100000D03*
D11*
%TO.N,GND*%
X112590000Y-35640000D03*
%TO.N,RST*%
X112590000Y-38180000D03*
%TO.N,Net-(J2-Pin_4)*%
X112590000Y-40720000D03*
%TO.N,Rising_Edge*%
X112590000Y-43260000D03*
%TO.N,Net-(J1-Pin_6)*%
X112590000Y-45800000D03*
%TO.N,Net-(J1-Pin_7)*%
X112590000Y-48340000D03*
%TO.N,Net-(J1-Pin_8)*%
X112590000Y-50880000D03*
%TO.N,Net-(J1-Pin_9)*%
X112590000Y-53420000D03*
%TO.N,Net-(J1-Pin_10)*%
X112590000Y-55960000D03*
%TO.N,Net-(J1-Pin_11)*%
X112590000Y-58500000D03*
%TO.N,Net-(J1-Pin_12)*%
X112590000Y-61040000D03*
%TO.N,Net-(J1-Pin_13)*%
X112590000Y-63580000D03*
%TO.N,Net-(J2-Pin_14)*%
X112590000Y-66120000D03*
%TO.N,Net-(J2-Pin_15)*%
X112590000Y-68660000D03*
%TO.N,Net-(J2-Pin_16)*%
X112590000Y-71200000D03*
%TO.N,Net-(J2-Pin_17)*%
X112590000Y-73740000D03*
%TO.N,Net-(J2-Pin_18)*%
X112590000Y-76280000D03*
%TO.N,Net-(J2-Pin_19)*%
X112590000Y-78820000D03*
%TO.N,Net-(J2-Pin_20)*%
X112590000Y-81360000D03*
%TO.N,Net-(J2-Pin_21)*%
X112590000Y-83900000D03*
%TD*%
D10*
%TO.N,VCC*%
%TO.C,J13*%
X123600000Y-23800000D03*
D11*
%TO.N,GND*%
X126140000Y-23800000D03*
%TD*%
D12*
%TO.N,Net-(J1-Pin_16)*%
X71690000Y-63800000D03*
X89290000Y-60400000D03*
%TO.N,Net-(J1-Pin_15)*%
X71690000Y-60000000D03*
X89490000Y-57700000D03*
%TO.N,Net-(J1-Pin_20)*%
X89490000Y-76600000D03*
X71690000Y-79000000D03*
%TO.N,Net-(J1-Pin_11)*%
X193900000Y-75300000D03*
D13*
%TO.N,GND*%
X199000000Y-84300000D03*
D12*
X121390000Y-110200000D03*
X117590000Y-110200000D03*
X63590000Y-110200000D03*
D13*
X156990000Y-28300000D03*
D12*
X102390000Y-110200000D03*
D13*
X139890000Y-79500000D03*
D12*
X67390000Y-110200000D03*
X71190000Y-110200000D03*
D13*
X75890000Y-79500000D03*
D12*
X106190000Y-110200000D03*
D13*
X188990000Y-28300000D03*
X199000000Y-68300000D03*
X100190000Y-33300000D03*
D12*
X82590000Y-110200000D03*
D13*
X124990000Y-28300000D03*
X199000000Y-76300000D03*
X171890000Y-79500000D03*
X199000000Y-64300000D03*
X199000000Y-60300000D03*
D12*
X78790000Y-110200000D03*
X90190000Y-110200000D03*
X109990000Y-110200000D03*
D13*
X199000000Y-72300000D03*
X199000000Y-56300000D03*
D12*
X125190000Y-110200000D03*
D13*
X85290000Y-81400000D03*
X117290000Y-81400000D03*
D12*
X86390000Y-110200000D03*
D13*
X68190000Y-33300000D03*
X181290000Y-81400000D03*
D12*
X74990000Y-110200000D03*
D13*
X132190000Y-33300000D03*
D12*
X113790000Y-110200000D03*
D13*
X164190000Y-33300000D03*
X149290000Y-81400000D03*
D12*
X98590000Y-110200000D03*
D13*
X199000000Y-80300000D03*
X92990000Y-28300000D03*
X107890000Y-79500000D03*
D12*
%TO.N,Net-(J1-Pin_10)*%
X193500000Y-71300000D03*
%TO.N,Net-(J1-Pin_18)*%
X89490000Y-69000000D03*
X71690000Y-71400000D03*
%TO.N,Net-(J1-Pin_14)*%
X89490000Y-53900000D03*
X71690000Y-56200000D03*
%TO.N,Net-(J1-Pin_21)*%
X71690000Y-82800000D03*
X89490000Y-80400000D03*
%TO.N,VCC*%
X115690000Y-102900000D03*
X111890000Y-102900000D03*
D13*
X167990000Y-28200000D03*
D12*
X96690000Y-102900000D03*
X100490000Y-102900000D03*
D13*
X135990000Y-28200000D03*
D12*
X80690000Y-102900000D03*
X65490000Y-102900000D03*
D13*
X121290000Y-28400000D03*
X103990000Y-28200000D03*
D12*
X104290000Y-102900000D03*
X76890000Y-102900000D03*
D14*
X205600000Y-89000000D03*
D13*
X71990000Y-28200000D03*
D12*
X119490000Y-102900000D03*
D13*
X89290000Y-28400000D03*
D12*
X123290000Y-102900000D03*
X88290000Y-102900000D03*
D14*
X204500000Y-52600000D03*
D12*
X61690000Y-102900000D03*
X84490000Y-102900000D03*
D13*
X185290000Y-28400000D03*
D12*
X69290000Y-102900000D03*
X73090000Y-102900000D03*
X108090000Y-102900000D03*
D13*
X153290000Y-28400000D03*
D12*
%TO.N,Net-(J1-Pin_19)*%
X71690000Y-75200000D03*
X89490000Y-72800000D03*
%TO.N,Net-(J1-Pin_13)*%
X194700000Y-83300000D03*
%TO.N,Net-(J1-Pin_12)*%
X194300000Y-79300000D03*
%TO.N,Net-(J1-Pin_9)*%
X193100000Y-67300000D03*
%TO.N,Net-(J1-Pin_17)*%
X89490000Y-65200000D03*
X71690000Y-67600000D03*
%TO.N,Net-(J1-Pin_7)*%
X192200000Y-59300000D03*
%TO.N,Net-(J1-Pin_6)*%
X191900000Y-55300000D03*
%TO.N,Net-(J1-Pin_8)*%
X192700000Y-63300000D03*
%TO.N,Net-(J2-Pin_17)*%
X103790000Y-67600000D03*
X121390000Y-65200000D03*
%TO.N,Net-(J2-Pin_15)*%
X121490000Y-57600000D03*
X103790000Y-60100000D03*
%TO.N,Net-(J2-Pin_20)*%
X121490000Y-76600000D03*
X103790000Y-79000000D03*
%TO.N,Net-(J2-Pin_14)*%
X121490000Y-53800000D03*
X103790000Y-56500000D03*
%TO.N,Net-(J2-Pin_18)*%
X121490000Y-69000000D03*
X103690000Y-71500000D03*
%TO.N,Net-(J2-Pin_21)*%
X103790000Y-82800000D03*
X121390000Y-80400000D03*
%TO.N,Net-(J2-Pin_19)*%
X121490000Y-72800000D03*
X103790000Y-75200000D03*
%TO.N,Net-(J2-Pin_16)*%
X103690000Y-64100000D03*
X122190000Y-62400000D03*
%TO.N,Net-(J3-Pin_18)*%
X135690000Y-71400000D03*
X153490000Y-69000000D03*
%TO.N,Net-(J3-Pin_16)*%
X154190000Y-62500000D03*
X135790000Y-64100000D03*
%TO.N,Net-(J3-Pin_19)*%
X153490000Y-72800000D03*
X135690000Y-75200000D03*
%TO.N,Net-(J3-Pin_20)*%
X153390000Y-76600000D03*
X135690000Y-79000000D03*
%TO.N,Net-(J3-Pin_17)*%
X135690000Y-67600000D03*
X153490000Y-65200000D03*
%TO.N,Net-(J3-Pin_14)*%
X135690000Y-56500000D03*
X153490000Y-53800000D03*
%TO.N,Net-(J3-Pin_21)*%
X153390000Y-80400000D03*
X135690000Y-82800000D03*
%TO.N,Net-(J3-Pin_15)*%
X135690000Y-60000000D03*
X153490000Y-57600000D03*
%TO.N,Net-(J4-Pin_17)*%
X167690000Y-67600000D03*
X185490000Y-65200000D03*
%TO.N,Net-(J4-Pin_21)*%
X185490000Y-80400000D03*
X167690000Y-82800000D03*
%TO.N,Net-(J4-Pin_20)*%
X185490000Y-76600000D03*
X167690000Y-79000000D03*
%TO.N,Net-(J4-Pin_14)*%
X185490000Y-53800000D03*
X167690000Y-56500000D03*
%TO.N,Net-(J4-Pin_18)*%
X167690000Y-71400000D03*
X185490000Y-69000000D03*
%TO.N,Net-(J4-Pin_19)*%
X185490000Y-72800000D03*
X167690000Y-75200000D03*
%TO.N,Net-(J4-Pin_16)*%
X167690000Y-64100000D03*
X185490000Y-61400000D03*
%TO.N,Net-(J4-Pin_15)*%
X185490000Y-57600000D03*
X167690000Y-60000000D03*
%TO.N,Net-(J7-Pin_4)*%
X166790000Y-51900000D03*
%TO.N,Net-(J7-Pin_2)*%
X100060984Y-49229016D03*
%TO.N,Net-(J7-Pin_3)*%
X137190000Y-49600000D03*
%TO.N,Net-(J7-Pin_1)*%
X69239032Y-50407064D03*
%TO.N,Net-(J8-Pin_1)*%
X86690000Y-79700000D03*
%TO.N,Net-(J8-Pin_2)*%
X118490000Y-79700000D03*
%TO.N,Net-(J8-Pin_3)*%
X150590000Y-79700000D03*
%TO.N,Net-(J8-Pin_4)*%
X185090000Y-79100000D03*
%TO.N,Net-(Q1-D)*%
X154090000Y-95400000D03*
X130590000Y-81600000D03*
X66790000Y-81600000D03*
X123890000Y-95400000D03*
X93590000Y-95400000D03*
X98590000Y-81600000D03*
X162590000Y-81600000D03*
X87290000Y-98200000D03*
%TO.N,Net-(Q106-D)*%
X83540000Y-98200000D03*
X123390000Y-94700000D03*
X93090000Y-94700000D03*
X66790000Y-77800000D03*
X130590000Y-77800000D03*
X153590000Y-94700000D03*
X162590000Y-77800000D03*
X98590000Y-77800000D03*
%TO.N,Net-(Q107-D)*%
X130590000Y-74000000D03*
X79740000Y-98200000D03*
X162590000Y-74000000D03*
X92590000Y-94000000D03*
X98590000Y-74000000D03*
X153090000Y-94000000D03*
X66790000Y-74000000D03*
X122890000Y-94000000D03*
%TO.N,Net-(Q108-D)*%
X130590000Y-70200000D03*
X75940000Y-98200000D03*
X98590000Y-70200000D03*
X162590000Y-70200000D03*
X122390000Y-93300000D03*
X152590000Y-93300000D03*
X92090000Y-93300000D03*
X66790000Y-70200000D03*
%TO.N,Net-(Q109-D)*%
X66790000Y-66400000D03*
X130590000Y-66400000D03*
X152090000Y-92600000D03*
X72140000Y-98200000D03*
X121890000Y-92600000D03*
X98590000Y-66400000D03*
X91590000Y-92600000D03*
X162590000Y-66400000D03*
%TO.N,Net-(Q11-D)*%
X121390000Y-91900000D03*
X91090000Y-91900000D03*
X162590000Y-62500000D03*
X66790000Y-62600000D03*
X130590000Y-62500000D03*
X151590000Y-91900000D03*
X68340000Y-98200000D03*
X98590000Y-62500000D03*
%TO.N,Net-(Q111-D)*%
X66790000Y-58800000D03*
X98590000Y-59300000D03*
X90590000Y-91200000D03*
X162590000Y-59300000D03*
X64540000Y-98200000D03*
X120890000Y-91200000D03*
X151090000Y-91200000D03*
X130590000Y-59300000D03*
%TO.N,Net-(Q112-D)*%
X98590000Y-54900000D03*
X150590000Y-90500000D03*
X130590000Y-54900000D03*
X162590000Y-54900000D03*
X90090000Y-90500000D03*
X120390000Y-90500000D03*
X60740000Y-98200000D03*
X66790000Y-55000000D03*
%TO.N,Net-(Q121-D)*%
X122090000Y-102200000D03*
X125790000Y-101200000D03*
X150590000Y-101200000D03*
X94590000Y-81600000D03*
X122090000Y-106400000D03*
X158590000Y-81600000D03*
X190390000Y-81600000D03*
X126590000Y-81600000D03*
%TO.N,Net-(Q122-D)*%
X152390000Y-100500000D03*
X94590000Y-77800000D03*
X118290000Y-106400000D03*
X158590000Y-77800000D03*
X126390000Y-100500000D03*
X118290000Y-101600000D03*
X190390000Y-77800000D03*
X126590000Y-77800000D03*
%TO.N,Net-(Q123-D)*%
X114490000Y-101000000D03*
X126590000Y-74000000D03*
X158590000Y-74000000D03*
X114490000Y-106400000D03*
X153990000Y-99800000D03*
X190390000Y-74000000D03*
X94590000Y-74000000D03*
X126990000Y-99800000D03*
%TO.N,Net-(Q124-D)*%
X110690000Y-100400000D03*
X110690000Y-106400000D03*
X126590000Y-70200000D03*
X158590000Y-70200000D03*
X127590000Y-99100000D03*
X94590000Y-70200000D03*
X190390000Y-70200000D03*
X155590000Y-99100000D03*
%TO.N,Net-(Q125-D)*%
X190390000Y-66400000D03*
X158590000Y-66400000D03*
X128190000Y-98400000D03*
X94590000Y-66400000D03*
X106890000Y-99800000D03*
X157190000Y-98400000D03*
X106890000Y-106400000D03*
X126590000Y-66400000D03*
%TO.N,Net-(Q126-D)*%
X103090000Y-106400000D03*
X190390000Y-62600000D03*
X103090000Y-99200000D03*
X128790000Y-97700000D03*
X126590000Y-62500000D03*
X94590000Y-62500000D03*
X158790000Y-97700000D03*
X158590000Y-62500000D03*
%TO.N,Net-(Q127-D)*%
X126590000Y-59300000D03*
X94590000Y-59300000D03*
X129390000Y-97000000D03*
X99290000Y-98100000D03*
X190390000Y-58800000D03*
X158590000Y-59300000D03*
X160490000Y-97000000D03*
X99290000Y-106400000D03*
%TO.N,Net-(Q128-D)*%
X190390000Y-55000000D03*
X126590000Y-54900000D03*
X161990000Y-96300000D03*
X95490000Y-106400000D03*
X94590000Y-55000000D03*
X158590000Y-54900000D03*
X98090000Y-96300000D03*
X129990000Y-96300000D03*
%TD*%
D15*
%TO.N,Net-(J1-Pin_4)*%
X61490000Y-48465800D02*
X69235800Y-40720000D01*
X61490000Y-48498700D02*
X61490000Y-48465800D01*
X61487000Y-61513000D02*
X61487000Y-48501700D01*
X61487000Y-48501700D02*
X61490000Y-48498700D01*
X57190000Y-65810000D02*
X61487000Y-61513000D01*
X57190000Y-66200000D02*
X57190000Y-65810000D01*
X69235800Y-40720000D02*
X80590000Y-40720000D01*
%TO.N,Net-(J2-Pin_4)*%
X111201000Y-42109000D02*
X112590000Y-40720000D01*
X68413900Y-42109000D02*
X111201000Y-42109000D01*
X61891000Y-48631900D02*
X68413900Y-42109000D01*
X61888000Y-64112000D02*
X61888000Y-48667800D01*
X61888000Y-48667800D02*
X61891000Y-48664800D01*
X61891000Y-48664800D02*
X61891000Y-48631900D01*
X57260000Y-68740000D02*
X61888000Y-64112000D01*
X57190000Y-68740000D02*
X57260000Y-68740000D01*
%TO.N,Net-(J3-Pin_4)*%
X140899000Y-44411000D02*
X144590000Y-40720000D01*
X62289000Y-48801000D02*
X66679000Y-44411000D01*
X57420000Y-71280000D02*
X62289000Y-66411000D01*
X62289000Y-66411000D02*
X62289000Y-48801000D01*
X66679000Y-44411000D02*
X140899000Y-44411000D01*
X57190000Y-71280000D02*
X57420000Y-71280000D01*
%TO.N,Net-(J4-Pin_4)*%
X64739000Y-46951000D02*
X170359000Y-46951000D01*
X62690000Y-49000000D02*
X64739000Y-46951000D01*
X170359000Y-46951000D02*
X176590000Y-40720000D01*
X62690000Y-68610000D02*
X62690000Y-49000000D01*
X57480000Y-73820000D02*
X62690000Y-68610000D01*
X57190000Y-73820000D02*
X57480000Y-73820000D01*
%TO.N,Net-(J1-Pin_16)*%
X73190000Y-63800000D02*
X71690000Y-63800000D01*
X80590000Y-71200000D02*
X73190000Y-63800000D01*
X80590000Y-71200000D02*
X89290000Y-62500000D01*
X89290000Y-62500000D02*
X89290000Y-60400000D01*
%TO.N,Net-(J1-Pin_15)*%
X80590000Y-68660000D02*
X71930000Y-60000000D01*
X71930000Y-60000000D02*
X71690000Y-60000000D01*
X80590000Y-68660000D02*
X87090000Y-62160000D01*
X87090000Y-62160000D02*
X87090000Y-60100000D01*
X87090000Y-60100000D02*
X89490000Y-57700000D01*
%TO.N,Net-(J1-Pin_20)*%
X85350000Y-76600000D02*
X89490000Y-76600000D01*
X74050000Y-81360000D02*
X71690000Y-79000000D01*
X80590000Y-81360000D02*
X74050000Y-81360000D01*
X80590000Y-81360000D02*
X85350000Y-76600000D01*
%TO.N,Net-(J1-Pin_18)*%
X80590000Y-76280000D02*
X87870000Y-69000000D01*
X87870000Y-69000000D02*
X89490000Y-69000000D01*
X80590000Y-76280000D02*
X75710000Y-71400000D01*
X75710000Y-71400000D02*
X71690000Y-71400000D01*
%TO.N,Net-(J1-Pin_14)*%
X86090000Y-57300000D02*
X89490000Y-53900000D01*
X80590000Y-66120000D02*
X71690000Y-57220000D01*
X71690000Y-57220000D02*
X71690000Y-56200000D01*
X86090000Y-60620000D02*
X86090000Y-57300000D01*
X80590000Y-66120000D02*
X86090000Y-60620000D01*
%TO.N,Net-(J1-Pin_21)*%
X79490000Y-82800000D02*
X71690000Y-82800000D01*
X80590000Y-83900000D02*
X84090000Y-80400000D01*
X84090000Y-80400000D02*
X89490000Y-80400000D01*
X80590000Y-83900000D02*
X79490000Y-82800000D01*
%TO.N,Net-(J1-Pin_19)*%
X76970000Y-75200000D02*
X71690000Y-75200000D01*
X89490000Y-72800000D02*
X86610000Y-72800000D01*
X86610000Y-72800000D02*
X80590000Y-78820000D01*
X80590000Y-78820000D02*
X76970000Y-75200000D01*
%TO.N,Net-(J1-Pin_17)*%
X80590000Y-73740000D02*
X89130000Y-65200000D01*
X89130000Y-65200000D02*
X89490000Y-65200000D01*
X80590000Y-73740000D02*
X74450000Y-67600000D01*
X74450000Y-67600000D02*
X71690000Y-67600000D01*
%TO.N,Net-(J2-Pin_17)*%
X106450000Y-67600000D02*
X103790000Y-67600000D01*
X121130000Y-65200000D02*
X121390000Y-65200000D01*
X112590000Y-73740000D02*
X121130000Y-65200000D01*
X112590000Y-73740000D02*
X106450000Y-67600000D01*
%TO.N,Net-(J2-Pin_15)*%
X104030000Y-60100000D02*
X103790000Y-60100000D01*
X121490000Y-59760000D02*
X121490000Y-57600000D01*
X112590000Y-68660000D02*
X104030000Y-60100000D01*
X112590000Y-68660000D02*
X121490000Y-59760000D01*
%TO.N,Net-(J2-Pin_20)*%
X117350000Y-76600000D02*
X121490000Y-76600000D01*
X106150000Y-81360000D02*
X103790000Y-79000000D01*
X112590000Y-81360000D02*
X117350000Y-76600000D01*
X112590000Y-81360000D02*
X106150000Y-81360000D01*
%TO.N,Net-(J2-Pin_14)*%
X121490000Y-54000000D02*
X121490000Y-53800000D01*
X112590000Y-66120000D02*
X112590000Y-66100000D01*
X112590000Y-66100000D02*
X103790000Y-57300000D01*
X117890000Y-57600000D02*
X121490000Y-54000000D01*
X117890000Y-60800000D02*
X117890000Y-57600000D01*
X112590000Y-66100000D02*
X117890000Y-60800000D01*
X103790000Y-57300000D02*
X103790000Y-56500000D01*
%TO.N,Net-(J2-Pin_18)*%
X119870000Y-69000000D02*
X121490000Y-69000000D01*
X112590000Y-76280000D02*
X119870000Y-69000000D01*
X107810000Y-71500000D02*
X103690000Y-71500000D01*
X112590000Y-76280000D02*
X107810000Y-71500000D01*
%TO.N,Net-(J2-Pin_21)*%
X112590000Y-83900000D02*
X111490000Y-82800000D01*
X112590000Y-83900000D02*
X116090000Y-80400000D01*
X116090000Y-80400000D02*
X121390000Y-80400000D01*
X111490000Y-82800000D02*
X103790000Y-82800000D01*
%TO.N,Net-(J2-Pin_19)*%
X112590000Y-78820000D02*
X118610000Y-72800000D01*
X112590000Y-78820000D02*
X108970000Y-75200000D01*
X118610000Y-72800000D02*
X121490000Y-72800000D01*
X108970000Y-75200000D02*
X103790000Y-75200000D01*
%TO.N,Net-(J2-Pin_16)*%
X112590000Y-71200000D02*
X105490000Y-64100000D01*
X112590000Y-71200000D02*
X121390000Y-62400000D01*
X121390000Y-62400000D02*
X122190000Y-62400000D01*
X105490000Y-64100000D02*
X103690000Y-64100000D01*
%TO.N,Net-(J3-Pin_18)*%
X144590000Y-76280000D02*
X139710000Y-71400000D01*
X151870000Y-69000000D02*
X153490000Y-69000000D01*
X144590000Y-76280000D02*
X151870000Y-69000000D01*
X139710000Y-71400000D02*
X135690000Y-71400000D01*
%TO.N,Net-(J3-Pin_16)*%
X153290000Y-62500000D02*
X154190000Y-62500000D01*
X144590000Y-71200000D02*
X137490000Y-64100000D01*
X144590000Y-71200000D02*
X153290000Y-62500000D01*
X137490000Y-64100000D02*
X135790000Y-64100000D01*
%TO.N,Net-(J3-Pin_19)*%
X144590000Y-78820000D02*
X140970000Y-75200000D01*
X150610000Y-72800000D02*
X153490000Y-72800000D01*
X144590000Y-78820000D02*
X150610000Y-72800000D01*
X140970000Y-75200000D02*
X135690000Y-75200000D01*
%TO.N,Net-(J3-Pin_20)*%
X149350000Y-76600000D02*
X153390000Y-76600000D01*
X144590000Y-81360000D02*
X138050000Y-81360000D01*
X138050000Y-81360000D02*
X135690000Y-79000000D01*
X144590000Y-81360000D02*
X149350000Y-76600000D01*
%TO.N,Net-(J3-Pin_17)*%
X144590000Y-73740000D02*
X153130000Y-65200000D01*
X144590000Y-73740000D02*
X138450000Y-67600000D01*
X138450000Y-67600000D02*
X135690000Y-67600000D01*
X153130000Y-65200000D02*
X153490000Y-65200000D01*
%TO.N,Net-(J3-Pin_14)*%
X144590000Y-66120000D02*
X149990000Y-60720000D01*
X149990000Y-57300000D02*
X153490000Y-53800000D01*
X144590000Y-66120000D02*
X135690000Y-57220000D01*
X135690000Y-57220000D02*
X135690000Y-56500000D01*
X149990000Y-60720000D02*
X149990000Y-57300000D01*
%TO.N,Net-(J3-Pin_21)*%
X148090000Y-80400000D02*
X153390000Y-80400000D01*
X144590000Y-83900000D02*
X148090000Y-80400000D01*
X143490000Y-82800000D02*
X135690000Y-82800000D01*
X144590000Y-83900000D02*
X143490000Y-82800000D01*
%TO.N,Net-(J3-Pin_15)*%
X144590000Y-68660000D02*
X153490000Y-59760000D01*
X135930000Y-60000000D02*
X135690000Y-60000000D01*
X144590000Y-68660000D02*
X135930000Y-60000000D01*
X153490000Y-59760000D02*
X153490000Y-57600000D01*
%TO.N,Net-(J4-Pin_17)*%
X176590000Y-73740000D02*
X170450000Y-67600000D01*
X170450000Y-67600000D02*
X167690000Y-67600000D01*
X176590000Y-73740000D02*
X185130000Y-65200000D01*
X185130000Y-65200000D02*
X185490000Y-65200000D01*
%TO.N,Net-(J4-Pin_21)*%
X175490000Y-82800000D02*
X167690000Y-82800000D01*
X176590000Y-83900000D02*
X175490000Y-82800000D01*
X180090000Y-80400000D02*
X185490000Y-80400000D01*
X176590000Y-83900000D02*
X180090000Y-80400000D01*
%TO.N,Net-(J4-Pin_20)*%
X176590000Y-81360000D02*
X181350000Y-76600000D01*
X176590000Y-81360000D02*
X170050000Y-81360000D01*
X181350000Y-76600000D02*
X185490000Y-76600000D01*
X170050000Y-81360000D02*
X167690000Y-79000000D01*
%TO.N,Net-(J4-Pin_14)*%
X176590000Y-66120000D02*
X167690000Y-57220000D01*
X181990000Y-57300000D02*
X185490000Y-53800000D01*
X181990000Y-60720000D02*
X181990000Y-57300000D01*
X176590000Y-66120000D02*
X181990000Y-60720000D01*
X167690000Y-57220000D02*
X167690000Y-56500000D01*
%TO.N,Net-(J4-Pin_18)*%
X176590000Y-76280000D02*
X171710000Y-71400000D01*
X171710000Y-71400000D02*
X167690000Y-71400000D01*
X183870000Y-69000000D02*
X185490000Y-69000000D01*
X176590000Y-76280000D02*
X183870000Y-69000000D01*
%TO.N,Net-(J4-Pin_19)*%
X182610000Y-72800000D02*
X185490000Y-72800000D01*
X172970000Y-75200000D02*
X167690000Y-75200000D01*
X176590000Y-78820000D02*
X182610000Y-72800000D01*
X176590000Y-78820000D02*
X172970000Y-75200000D01*
%TO.N,Net-(J4-Pin_16)*%
X176590000Y-71200000D02*
X185490000Y-62300000D01*
X185490000Y-62300000D02*
X185490000Y-61400000D01*
X176590000Y-71200000D02*
X169490000Y-64100000D01*
X169490000Y-64100000D02*
X167690000Y-64100000D01*
%TO.N,Net-(J4-Pin_15)*%
X176590000Y-68660000D02*
X167930000Y-60000000D01*
X176590000Y-68660000D02*
X185490000Y-59760000D01*
X185490000Y-59760000D02*
X185490000Y-57600000D01*
X167930000Y-60000000D02*
X167690000Y-60000000D01*
%TO.N,Net-(Q1-D)*%
X67786000Y-95996000D02*
X66790000Y-95000000D01*
X87290000Y-98200000D02*
X85088000Y-95998000D01*
X85088000Y-95998000D02*
X75389300Y-95998000D01*
X75388300Y-95997000D02*
X72255400Y-95997000D01*
X72254400Y-95996000D02*
X67786000Y-95996000D01*
X75389300Y-95998000D02*
X75388300Y-95997000D01*
X66790000Y-95000000D02*
X66790000Y-81600000D01*
X72255400Y-95997000D02*
X72254400Y-95996000D01*
%TO.N,Net-(Q106-D)*%
X72089300Y-96398000D02*
X72088300Y-96397000D01*
X81789000Y-96399000D02*
X75223200Y-96399000D01*
X75223200Y-96399000D02*
X75222200Y-96398000D01*
X83540000Y-98150000D02*
X81789000Y-96399000D01*
X67619900Y-96397000D02*
X66189000Y-94966100D01*
X66189000Y-94966100D02*
X66189000Y-78401000D01*
X83540000Y-98200000D02*
X83540000Y-98150000D01*
X72088300Y-96397000D02*
X67619900Y-96397000D01*
X75222200Y-96398000D02*
X72089300Y-96398000D01*
X66189000Y-78401000D02*
X66790000Y-77800000D01*
%TO.N,Net-(Q107-D)*%
X65790000Y-78232900D02*
X65790000Y-75000000D01*
X75056100Y-96799000D02*
X71923200Y-96799000D01*
X75057100Y-96800000D02*
X75056100Y-96799000D01*
X65788000Y-95132200D02*
X65788000Y-78234900D01*
X71923200Y-96799000D02*
X71922200Y-96798000D01*
X79740000Y-98200000D02*
X79690000Y-98200000D01*
X65790000Y-75000000D02*
X66790000Y-74000000D01*
X67453800Y-96798000D02*
X65788000Y-95132200D01*
X65788000Y-78234900D02*
X65790000Y-78232900D01*
X78290000Y-96800000D02*
X75057100Y-96800000D01*
X79690000Y-98200000D02*
X78290000Y-96800000D01*
X71922200Y-96798000D02*
X67453800Y-96798000D01*
%TO.N,Net-(Q108-D)*%
X71756100Y-97199000D02*
X67287700Y-97199000D01*
X65389000Y-78066800D02*
X65389000Y-74833900D01*
X65387000Y-95298300D02*
X65387000Y-78068800D01*
X67287700Y-97199000D02*
X65387000Y-95298300D01*
X65390000Y-74832900D02*
X65390000Y-71600000D01*
X71757100Y-97200000D02*
X71756100Y-97199000D01*
X75890000Y-98200000D02*
X74890000Y-97200000D01*
X74890000Y-97200000D02*
X71757100Y-97200000D01*
X65387000Y-78068800D02*
X65389000Y-78066800D01*
X75940000Y-98200000D02*
X75890000Y-98200000D01*
X65389000Y-74833900D02*
X65390000Y-74832900D01*
X65390000Y-71600000D02*
X66790000Y-70200000D01*
%TO.N,Net-(Q109-D)*%
X72140000Y-98150000D02*
X71590000Y-97600000D01*
X64986000Y-95464400D02*
X64986000Y-77902700D01*
X64989000Y-68201000D02*
X66790000Y-66400000D01*
X71590000Y-97600000D02*
X67121600Y-97600000D01*
X72140000Y-98200000D02*
X72140000Y-98150000D01*
X67121600Y-97600000D02*
X64986000Y-95464400D01*
X64988000Y-77900700D02*
X64988000Y-74667800D01*
X64989000Y-74666800D02*
X64989000Y-68201000D01*
X64986000Y-77902700D02*
X64988000Y-77900700D01*
X64988000Y-74667800D02*
X64989000Y-74666800D01*
%TO.N,Net-(Q11-D)*%
X64588000Y-68034900D02*
X64590000Y-68032900D01*
X68340000Y-98200000D02*
X67154500Y-98200000D01*
X64587000Y-77734600D02*
X64587000Y-74501700D01*
X64588000Y-74500700D02*
X64588000Y-68034900D01*
X67154500Y-98200000D02*
X64585000Y-95630500D01*
X64590000Y-64800000D02*
X66790000Y-62600000D01*
X64587000Y-74501700D02*
X64588000Y-74500700D01*
X64585000Y-95630500D02*
X64585000Y-77736600D01*
X64585000Y-77736600D02*
X64587000Y-77734600D01*
X64590000Y-68032900D02*
X64590000Y-64800000D01*
%TO.N,Net-(Q111-D)*%
X64189000Y-67866800D02*
X64189000Y-64633900D01*
X64190000Y-61400000D02*
X66790000Y-58800000D01*
X64184000Y-95796600D02*
X64184000Y-77570500D01*
X64187000Y-67868800D02*
X64189000Y-67866800D01*
X64190000Y-95802600D02*
X64184000Y-95796600D01*
X64189000Y-64633900D02*
X64190000Y-64632900D01*
X64187000Y-74334600D02*
X64187000Y-67868800D01*
X64184000Y-77570500D02*
X64186000Y-77568500D01*
X64540000Y-98200000D02*
X64490000Y-98200000D01*
X64186000Y-74335600D02*
X64187000Y-74334600D01*
X64190000Y-64632900D02*
X64190000Y-61400000D01*
X64190000Y-97900000D02*
X64190000Y-95802600D01*
X64186000Y-77568500D02*
X64186000Y-74335600D01*
X64490000Y-98200000D02*
X64190000Y-97900000D01*
%TO.N,Net-(Q112-D)*%
X60740000Y-98200000D02*
X63783000Y-95157000D01*
X63788000Y-67700700D02*
X63788000Y-64467800D01*
X63785000Y-77402400D02*
X63785000Y-74169500D01*
X63788000Y-64467800D02*
X63789000Y-64466800D01*
X63783000Y-95157000D02*
X63783000Y-77404400D01*
X63785000Y-74169500D02*
X63786000Y-74168500D01*
X63789000Y-58001000D02*
X66790000Y-55000000D01*
X63786000Y-74168500D02*
X63786000Y-67702700D01*
X63789000Y-64466800D02*
X63789000Y-58001000D01*
X63783000Y-77404400D02*
X63785000Y-77402400D01*
X63786000Y-67702700D02*
X63788000Y-67700700D01*
%TO.N,Net-(Q121-D)*%
X125988000Y-99384957D02*
X125988000Y-100052057D01*
X126784000Y-96587657D02*
X126585000Y-96786657D01*
X95083000Y-82093000D02*
X95083000Y-97578443D01*
X126784000Y-95920557D02*
X126784000Y-96587657D01*
X126590000Y-81600000D02*
X127183000Y-82193000D01*
X126187000Y-98518857D02*
X126187000Y-99185957D01*
X95083000Y-97578443D02*
X99704557Y-102200000D01*
X127183000Y-94854457D02*
X126983000Y-95054457D01*
X126585000Y-97453757D02*
X126386000Y-97652757D01*
X118040057Y-102200000D02*
X118041057Y-102201000D01*
X159184000Y-82194000D02*
X159184000Y-92606000D01*
X125988000Y-100052057D02*
X125789000Y-100251057D01*
X126386000Y-98319857D02*
X126187000Y-98518857D01*
X94590000Y-81600000D02*
X95083000Y-82093000D01*
X125789000Y-100251057D02*
X125789000Y-100748943D01*
X126585000Y-96786657D02*
X126585000Y-97453757D01*
X126187000Y-99185957D02*
X125988000Y-99384957D01*
X125789000Y-100748943D02*
X125790000Y-100749943D01*
X158590000Y-81600000D02*
X159184000Y-82194000D01*
X118538943Y-102201000D02*
X118539943Y-102200000D01*
X159184000Y-92606000D02*
X150590000Y-101200000D01*
X125790000Y-100749943D02*
X125790000Y-101200000D01*
X126983000Y-95054457D02*
X126983000Y-95721557D01*
X118539943Y-102200000D02*
X122090000Y-102200000D01*
X127183000Y-82193000D02*
X127183000Y-94854457D01*
X126386000Y-97652757D02*
X126386000Y-98319857D01*
X99704557Y-102200000D02*
X118040057Y-102200000D01*
X118041057Y-102201000D02*
X118538943Y-102201000D01*
X126983000Y-95721557D02*
X126784000Y-95920557D01*
%TO.N,Net-(Q122-D)*%
X126588000Y-99352057D02*
X126389000Y-99551057D01*
X159585000Y-78795000D02*
X159585000Y-93305000D01*
X99671657Y-101600000D02*
X95484000Y-97412343D01*
X127185000Y-96086657D02*
X127185000Y-96753757D01*
X126986000Y-97619857D02*
X126787000Y-97818857D01*
X126389000Y-99551057D02*
X126389000Y-100501000D01*
X159585000Y-93305000D02*
X152390000Y-100500000D01*
X127185000Y-96753757D02*
X126986000Y-96952757D01*
X126986000Y-96952757D02*
X126986000Y-97619857D01*
X127384000Y-95887657D02*
X127185000Y-96086657D01*
X127584000Y-78794000D02*
X127584000Y-95020557D01*
X126389000Y-100501000D02*
X126390000Y-100500000D01*
X95484000Y-97412343D02*
X95484000Y-78694000D01*
X126787000Y-97818857D02*
X126787000Y-98485957D01*
X126787000Y-98485957D02*
X126588000Y-98684957D01*
X126588000Y-98684957D02*
X126588000Y-99352057D01*
X127584000Y-95020557D02*
X127384000Y-95220557D01*
X126590000Y-77800000D02*
X127584000Y-78794000D01*
X95484000Y-78694000D02*
X94590000Y-77800000D01*
X127384000Y-95220557D02*
X127384000Y-95887657D01*
X158590000Y-77800000D02*
X159585000Y-78795000D01*
X118290000Y-101600000D02*
X99671657Y-101600000D01*
%TO.N,Net-(Q123-D)*%
X114490000Y-101000000D02*
X99638757Y-101000000D01*
X127387000Y-97118857D02*
X127387000Y-97785957D01*
X127785000Y-95386657D02*
X127785000Y-96053757D01*
X126989000Y-99348943D02*
X126990000Y-99349943D01*
X127188000Y-98652057D02*
X126989000Y-98851057D01*
X126990000Y-99349943D02*
X126990000Y-99800000D01*
X127985000Y-95186657D02*
X127785000Y-95386657D01*
X159986000Y-93804000D02*
X153990000Y-99800000D01*
X127586000Y-96919857D02*
X127387000Y-97118857D01*
X158590000Y-74000000D02*
X159986000Y-75396000D01*
X126989000Y-98851057D02*
X126989000Y-99348943D01*
X127785000Y-96053757D02*
X127586000Y-96252757D01*
X95885000Y-97246243D02*
X95885000Y-75295000D01*
X127586000Y-96252757D02*
X127586000Y-96919857D01*
X126590000Y-74000000D02*
X127985000Y-75395000D01*
X127188000Y-97984957D02*
X127188000Y-98652057D01*
X95885000Y-75295000D02*
X94590000Y-74000000D01*
X127387000Y-97785957D02*
X127188000Y-97984957D01*
X99638757Y-101000000D02*
X95885000Y-97246243D01*
X127985000Y-75395000D02*
X127985000Y-95186657D01*
X159986000Y-75396000D02*
X159986000Y-93804000D01*
%TO.N,Net-(Q124-D)*%
X126590000Y-70200000D02*
X128386000Y-71996000D01*
X127589000Y-98151057D02*
X127589000Y-99099000D01*
X160387000Y-94303000D02*
X155590000Y-99100000D01*
X128186000Y-95552757D02*
X128186000Y-96219857D01*
X94590000Y-70200000D02*
X96286000Y-71896000D01*
X127987000Y-96418857D02*
X127987000Y-97085957D01*
X96286000Y-97080143D02*
X99605857Y-100400000D01*
X127788000Y-97284957D02*
X127788000Y-97952057D01*
X128386000Y-71996000D02*
X128386000Y-95352757D01*
X158590000Y-70200000D02*
X160387000Y-71997000D01*
X160387000Y-71997000D02*
X160387000Y-94303000D01*
X128386000Y-95352757D02*
X128186000Y-95552757D01*
X127589000Y-99099000D02*
X127590000Y-99100000D01*
X96286000Y-71896000D02*
X96286000Y-97080143D01*
X99605857Y-100400000D02*
X110690000Y-100400000D01*
X127788000Y-97952057D02*
X127589000Y-98151057D01*
X128186000Y-96219857D02*
X127987000Y-96418857D01*
X127987000Y-97085957D02*
X127788000Y-97284957D01*
%TO.N,Net-(Q125-D)*%
X106890000Y-99800000D02*
X106792000Y-99800000D01*
X128189000Y-97451057D02*
X128189000Y-98399000D01*
X128587000Y-95718857D02*
X128587000Y-96385957D01*
X99573957Y-99801000D02*
X96687000Y-96914043D01*
X128189000Y-98399000D02*
X128190000Y-98400000D01*
X96687000Y-68497000D02*
X94590000Y-66400000D01*
X128787000Y-95518857D02*
X128587000Y-95718857D01*
X158590000Y-66400000D02*
X160788000Y-68598000D01*
X160788000Y-68598000D02*
X160788000Y-94802000D01*
X126590000Y-66400000D02*
X128787000Y-68597000D01*
X128587000Y-96385957D02*
X128388000Y-96584957D01*
X106792000Y-99800000D02*
X106791000Y-99801000D01*
X96687000Y-96914043D02*
X96687000Y-68497000D01*
X128388000Y-96584957D02*
X128388000Y-97252057D01*
X160788000Y-94802000D02*
X157190000Y-98400000D01*
X128388000Y-97252057D02*
X128189000Y-97451057D01*
X128787000Y-68597000D02*
X128787000Y-95518857D01*
X106791000Y-99801000D02*
X99573957Y-99801000D01*
%TO.N,Net-(Q126-D)*%
X128988000Y-96552057D02*
X128789000Y-96751057D01*
X128789000Y-97699000D02*
X128790000Y-97700000D01*
X129188000Y-95684957D02*
X128988000Y-95884957D01*
X161189000Y-95301000D02*
X158790000Y-97700000D01*
X126590000Y-62500000D02*
X129188000Y-65098000D01*
X97088000Y-64998000D02*
X97088000Y-96747943D01*
X97088000Y-96747943D02*
X99540057Y-99200000D01*
X94590000Y-62500000D02*
X97088000Y-64998000D01*
X128988000Y-95884957D02*
X128988000Y-96552057D01*
X161189000Y-65099000D02*
X161189000Y-95301000D01*
X129188000Y-65098000D02*
X129188000Y-95684957D01*
X99540057Y-99200000D02*
X103090000Y-99200000D01*
X128789000Y-96751057D02*
X128789000Y-97699000D01*
X158590000Y-62500000D02*
X161189000Y-65099000D01*
%TO.N,Net-(Q127-D)*%
X126590000Y-59300000D02*
X129589000Y-62299000D01*
X97490000Y-62200000D02*
X97490000Y-68299000D01*
X129589000Y-62299000D02*
X129589000Y-95851057D01*
X161590000Y-95500000D02*
X161590000Y-62300000D01*
X97489000Y-68300000D02*
X97489000Y-96548943D01*
X99040057Y-98100000D02*
X99290000Y-98100000D01*
X161390000Y-95950000D02*
X161390000Y-95700000D01*
X97489000Y-96548943D02*
X99040057Y-98100000D01*
X129389000Y-96051057D02*
X129389000Y-97001000D01*
X160490000Y-97000000D02*
X160490000Y-96850000D01*
X94590000Y-59300000D02*
X97490000Y-62200000D01*
X160490000Y-96850000D02*
X161390000Y-95950000D01*
X161390000Y-95700000D02*
X161590000Y-95500000D01*
X161590000Y-62300000D02*
X158590000Y-59300000D01*
X129589000Y-95851057D02*
X129389000Y-96051057D01*
X97490000Y-68299000D02*
X97489000Y-68300000D01*
X129389000Y-97001000D02*
X129390000Y-97000000D01*
%TO.N,Net-(Q128-D)*%
X158590000Y-54900000D02*
X161990000Y-58300000D01*
X129990000Y-58300000D02*
X129990000Y-96300000D01*
X97890000Y-58300000D02*
X97890000Y-96100000D01*
X97890000Y-96100000D02*
X98090000Y-96300000D01*
X94590000Y-55000000D02*
X97890000Y-58300000D01*
X126590000Y-54900000D02*
X129990000Y-58300000D01*
X161990000Y-58300000D02*
X161990000Y-96300000D01*
%TD*%
M02*
