M48
; DRILL file {KiCad 9.0.7} date 2026-02-26T13:27:39+0100
; FORMAT={-:-/ absolute / inch / decimal}
; #@! TF.CreationDate,2026-02-26T13:27:39+01:00
; #@! TF.GenerationSoftware,Kicad,Pcbnew,9.0.7
; #@! TF.FileFunction,Plated,1,6,PTH
FMAT,2
INCH
; #@! TA.AperFunction,Plated,PTH,ViaDrill
T1C0.0118
; #@! TA.AperFunction,Plated,PTH,ViaDrill
T2C0.0197
; #@! TA.AperFunction,Plated,PTH,ComponentDrill
T3C0.0394
%
G90
G05
T1
X2.3913Y-3.8661
X2.4287Y-4.0512
X2.5035Y-4.3386
X2.5409Y-3.8661
X2.5783Y-4.0512
X2.6295Y-2.1654
X2.6295Y-2.315
X2.6295Y-2.4646
X2.6295Y-2.6142
X2.6295Y-2.7638
X2.6295Y-2.9134
X2.6295Y-3.063
X2.6295Y-3.2126
X2.6531Y-4.3386
X2.6906Y-3.8661
X2.7259Y-1.9845
X2.728Y-4.0512
X2.8028Y-4.3386
X2.8224Y-2.2126
X2.8224Y-2.3622
X2.8224Y-2.5118
X2.8224Y-2.6614
X2.8224Y-2.811
X2.8224Y-2.9606
X2.8224Y-3.1102
X2.8224Y-3.2598
X2.8402Y-3.8661
X2.8776Y-4.0512
X2.9524Y-4.3386
X2.9898Y-3.8661
X3.0272Y-4.0512
X3.102Y-4.3386
X3.1394Y-3.8661
X3.1768Y-4.0512
X3.2516Y-4.3386
X3.289Y-3.8661
X3.3264Y-4.0512
X3.4012Y-4.3386
X3.413Y-3.1378
X3.4366Y-3.8661
X3.476Y-4.0512
X3.5154Y-2.378
X3.5232Y-2.122
X3.5232Y-2.2717
X3.5232Y-2.5669
X3.5232Y-2.7165
X3.5232Y-2.8661
X3.5232Y-3.0157
X3.5232Y-3.1654
X3.5469Y-3.563
X3.5508Y-4.3386
X3.5665Y-3.5906
X3.5862Y-3.6181
X3.6059Y-3.6457
X3.6256Y-3.6732
X3.6453Y-3.7008
X3.665Y-3.7283
X3.6846Y-3.7559
X3.724Y-2.1654
X3.724Y-2.3346
X3.724Y-2.4606
X3.724Y-2.6142
X3.724Y-2.7638
X3.724Y-2.9134
X3.724Y-3.063
X3.724Y-3.2126
X3.7594Y-4.189
X3.8067Y-4.0512
X3.8618Y-3.7913
X3.8815Y-2.1614
X3.8815Y-2.3346
X3.8815Y-2.4606
X3.8815Y-2.6142
X3.8815Y-2.7638
X3.8815Y-2.9134
X3.8815Y-3.063
X3.8815Y-3.2126
X3.8815Y-4.3386
X3.9091Y-3.8622
X3.9091Y-4.189
X3.9394Y-1.9382
X3.9563Y-4.0512
X4.0311Y-4.3386
X4.0587Y-3.9055
X4.0587Y-4.189
X4.0823Y-2.5236
X4.0823Y-2.815
X4.0862Y-2.2244
X4.0862Y-2.3661
X4.0862Y-2.6614
X4.0862Y-2.9606
X4.0862Y-3.1102
X4.0862Y-3.2598
X4.1059Y-4.0512
X4.1807Y-4.3386
X4.2083Y-3.9291
X4.2083Y-4.189
X4.2555Y-4.0512
X4.3303Y-4.3386
X4.3579Y-3.9528
X4.3579Y-4.189
X4.4051Y-4.0512
X4.4799Y-4.3386
X4.5075Y-3.9764
X4.5075Y-4.189
X4.5547Y-4.0512
X4.6295Y-4.3386
X4.6571Y-4.0
X4.6571Y-4.189
X4.665Y-3.1378
X4.7043Y-4.0512
X4.7398Y-3.563
X4.7594Y-3.5906
X4.7791Y-2.5669
X4.7791Y-3.1654
X4.7791Y-3.6181
X4.7791Y-4.3386
X4.7831Y-2.1181
X4.7831Y-2.2677
X4.7831Y-2.7165
X4.7831Y-2.8661
X4.7831Y-3.0157
X4.7988Y-3.6457
X4.8067Y-4.0236
X4.8067Y-4.189
X4.8106Y-2.4567
X4.8185Y-3.6732
X4.8382Y-3.7008
X4.8539Y-4.0512
X4.8579Y-3.7283
X4.8776Y-3.7559
X4.9287Y-4.3386
X4.9524Y-3.9843
X4.976Y-3.9567
X4.9839Y-2.1614
X4.9839Y-2.3346
X4.9839Y-2.4606
X4.9839Y-2.6142
X4.9839Y-2.7638
X4.9839Y-2.9134
X4.9839Y-3.063
X4.9839Y-3.2126
X4.9996Y-3.9291
X5.0232Y-3.9016
X5.0469Y-3.874
X5.0705Y-3.8465
X5.0941Y-3.8189
X5.1177Y-3.7913
X5.1413Y-2.1614
X5.1413Y-2.3346
X5.1413Y-2.4606
X5.1413Y-2.6142
X5.1413Y-2.7638
X5.1413Y-2.9134
X5.1413Y-3.063
X5.1413Y-3.2126
X5.3421Y-2.2244
X5.3421Y-2.3622
X5.3421Y-2.6614
X5.3421Y-2.811
X5.3421Y-2.9606
X5.3421Y-3.1102
X5.3421Y-3.2598
X5.3461Y-2.5236
X5.4012Y-1.9528
X5.9287Y-3.1378
X5.9287Y-3.563
X5.9287Y-3.9843
X5.9484Y-3.5906
X5.9681Y-3.6181
X5.9878Y-3.6457
X5.9996Y-3.9567
X6.0075Y-3.6732
X6.0272Y-3.7008
X6.039Y-3.0157
X6.039Y-3.1654
X6.0429Y-2.1181
X6.0429Y-2.2677
X6.0429Y-2.5669
X6.0429Y-2.7165
X6.0429Y-2.8661
X6.0469Y-3.7283
X6.0626Y-3.9291
X6.0665Y-3.7559
X6.0705Y-2.4606
X6.1256Y-3.9016
X6.1886Y-3.874
X6.2437Y-2.1614
X6.2437Y-2.3346
X6.2437Y-2.4606
X6.2437Y-2.6142
X6.2437Y-2.7638
X6.2437Y-2.9134
X6.2437Y-3.063
X6.2437Y-3.2126
X6.2516Y-3.8465
X6.3185Y-3.8189
X6.3776Y-3.7913
X6.4012Y-2.1614
X6.4012Y-2.3346
X6.4012Y-2.4606
X6.4012Y-2.6142
X6.4012Y-2.7638
X6.4012Y-2.9134
X6.4012Y-3.063
X6.4012Y-3.2126
X6.5665Y-2.0433
X6.602Y-2.2244
X6.602Y-2.3622
X6.602Y-2.5236
X6.602Y-2.6614
X6.602Y-2.811
X6.602Y-2.9606
X6.602Y-3.1102
X6.602Y-3.2598
X7.287Y-3.1142
X7.3028Y-2.1181
X7.3028Y-2.2677
X7.3028Y-2.4173
X7.3028Y-2.5669
X7.3028Y-2.7165
X7.3028Y-2.8661
X7.3028Y-3.0157
X7.3028Y-3.1654
X7.4957Y-2.1654
X7.4957Y-2.315
X7.4957Y-2.4646
X7.4957Y-2.6142
X7.4957Y-2.7638
X7.4957Y-2.9134
X7.4957Y-3.063
X7.4957Y-3.2126
X7.5551Y-2.1772
X7.5669Y-2.3346
X7.5866Y-2.4921
X7.6024Y-2.6496
X7.6181Y-2.8071
X7.6339Y-2.9646
X7.6496Y-3.122
X7.6654Y-3.2795
T2
X2.6846Y-1.311
X2.8343Y-1.1102
X2.9878Y-3.1299
X3.3579Y-3.2047
X3.5154Y-1.1181
X3.661Y-1.1142
X3.9445Y-1.311
X4.0941Y-1.1102
X4.2476Y-3.1299
X4.6177Y-3.2047
X4.7752Y-1.1181
X4.9209Y-1.1142
X5.2043Y-1.311
X5.3539Y-1.1102
X5.5075Y-3.1299
X5.8776Y-3.2047
X6.035Y-1.1181
X6.1807Y-1.1142
X6.4642Y-1.311
X6.6138Y-1.1102
X6.7673Y-3.1299
X7.1374Y-3.2047
X7.2949Y-1.1181
X7.4406Y-1.1142
X7.8346Y-2.2165
X7.8346Y-2.374
X7.8346Y-2.5315
X7.8346Y-2.689
X7.8346Y-2.8465
X7.8346Y-3.0039
X7.8346Y-3.1614
X7.8346Y-3.3189
X8.0512Y-2.0709
X8.0945Y-3.5039
T3
X2.2516Y-1.2252
X2.2516Y-1.3252
X2.2516Y-1.4252
X2.2516Y-1.5252
X2.2516Y-1.6252
X2.2516Y-1.7252
X2.2516Y-1.8252
X2.2516Y-1.9252
X2.2516Y-2.6063
X2.2516Y-2.7063
X2.2516Y-2.8063
X2.2516Y-2.9063
X2.2516Y-3.126
X2.2516Y-3.226
X2.2516Y-3.326
X2.2516Y-3.426
X2.2516Y-3.6449
X2.2516Y-3.7449
X2.2516Y-3.8449
X2.2516Y-3.9449
X2.2516Y-4.1624
X2.2516Y-4.2624
X2.252Y-2.2323
X2.252Y-2.3323
X2.6024Y-4.4882
X2.7024Y-4.4882
X2.8024Y-4.4882
X2.9024Y-4.4882
X3.0024Y-4.4882
X3.1024Y-4.4882
X3.1728Y-1.3031
X3.1728Y-1.4031
X3.1728Y-1.5031
X3.1728Y-1.6031
X3.1728Y-1.7031
X3.1728Y-1.8031
X3.1728Y-1.9031
X3.1728Y-2.0031
X3.1728Y-2.1031
X3.1728Y-2.2031
X3.1728Y-2.3031
X3.1728Y-2.4031
X3.1728Y-2.5031
X3.1728Y-2.6031
X3.1728Y-2.7031
X3.1728Y-2.8031
X3.1728Y-2.9031
X3.1728Y-3.0031
X3.1728Y-3.1031
X3.1728Y-3.2031
X3.1728Y-3.3031
X3.2024Y-4.4882
X3.3024Y-4.4882
X3.9803Y-4.4882
X4.0803Y-4.4882
X4.1803Y-4.4882
X4.2803Y-4.4882
X4.3803Y-4.4882
X4.4327Y-1.3031
X4.4327Y-1.4031
X4.4327Y-1.5031
X4.4327Y-1.6031
X4.4327Y-1.7031
X4.4327Y-1.8031
X4.4327Y-1.9031
X4.4327Y-2.0031
X4.4327Y-2.1031
X4.4327Y-2.2031
X4.4327Y-2.3031
X4.4327Y-2.4031
X4.4327Y-2.5031
X4.4327Y-2.6031
X4.4327Y-2.7031
X4.4327Y-2.8031
X4.4327Y-2.9031
X4.4327Y-3.0031
X4.4327Y-3.1031
X4.4327Y-3.2031
X4.4327Y-3.3031
X4.4803Y-4.4882
X4.5803Y-4.4882
X4.6803Y-4.4882
X4.8661Y-0.937
X4.9661Y-0.937
X5.343Y-4.3981
X5.343Y-4.4981
X5.6925Y-1.3031
X5.6925Y-1.4031
X5.6925Y-1.5031
X5.6925Y-1.6031
X5.6925Y-1.7031
X5.6925Y-1.8031
X5.6925Y-1.9031
X5.6925Y-2.0031
X5.6925Y-2.1031
X5.6925Y-2.2031
X5.6925Y-2.3031
X5.6925Y-2.4031
X5.6925Y-2.5031
X5.6925Y-2.6031
X5.6925Y-2.7031
X5.6925Y-2.8031
X5.6925Y-2.9031
X5.6925Y-3.0031
X5.6925Y-3.1031
X5.6925Y-3.2031
X5.6925Y-3.3031
X6.9524Y-1.3031
X6.9524Y-1.4031
X6.9524Y-1.5031
X6.9524Y-1.6031
X6.9524Y-1.7031
X6.9524Y-1.8031
X6.9524Y-1.9031
X6.9524Y-2.0031
X6.9524Y-2.1031
X6.9524Y-2.2031
X6.9524Y-2.3031
X6.9524Y-2.4031
X6.9524Y-2.5031
X6.9524Y-2.6031
X6.9524Y-2.7031
X6.9524Y-2.8031
X6.9524Y-2.9031
X6.9524Y-3.0031
X6.9524Y-3.1031
X6.9524Y-3.2031
X6.9524Y-3.3031
X8.0394Y-1.2244
X8.0394Y-1.3244
X8.0394Y-1.4244
X8.0394Y-1.5244
X8.0394Y-1.6244
X8.0394Y-1.7244
X8.0394Y-1.8244
X8.0394Y-1.9244
M30
