%TF.GenerationSoftware,KiCad,Pcbnew,9.0.7*%
%TF.CreationDate,2026-02-26T13:27:38+01:00*%
%TF.ProjectId,Register_Holder_V1.0,52656769-7374-4657-925f-486f6c646572,rev?*%
%TF.SameCoordinates,Original*%
%TF.FileFunction,Soldermask,Bot*%
%TF.FilePolarity,Negative*%
%FSLAX46Y46*%
G04 Gerber Fmt 4.6, Leading zero omitted, Abs format (unit mm)*
G04 Created by KiCad (PCBNEW 9.0.7) date 2026-02-26 13:27:38*
%MOMM*%
%LPD*%
G01*
G04 APERTURE LIST*
%ADD10R,1.700000X1.700000*%
%ADD11C,1.700000*%
%ADD12C,2.200000*%
%ADD13C,3.200000*%
G04 APERTURE END LIST*
D10*
%TO.C,J3*%
X144590000Y-33100000D03*
D11*
X144590000Y-35640000D03*
X144590000Y-38180000D03*
X144590000Y-40720000D03*
X144590000Y-43260000D03*
X144590000Y-45800000D03*
X144590000Y-48340000D03*
X144590000Y-50880000D03*
X144590000Y-53420000D03*
X144590000Y-55960000D03*
X144590000Y-58500000D03*
X144590000Y-61040000D03*
X144590000Y-63580000D03*
X144590000Y-66120000D03*
X144590000Y-68660000D03*
X144590000Y-71200000D03*
X144590000Y-73740000D03*
X144590000Y-76280000D03*
X144590000Y-78820000D03*
X144590000Y-81360000D03*
X144590000Y-83900000D03*
%TD*%
D10*
%TO.C,J14*%
X135712500Y-111712500D03*
D11*
X135712500Y-114252500D03*
%TD*%
D10*
%TO.C,J15*%
X57190000Y-105725000D03*
D11*
X57190000Y-108265000D03*
%TD*%
D12*
%TO.C,H1*%
X77390000Y-29300000D03*
%TD*%
%TO.C,H4*%
X83790000Y-87700000D03*
%TD*%
%TO.C,H3*%
X77390000Y-87700000D03*
%TD*%
D10*
%TO.C,J6*%
X57200000Y-59240000D03*
D11*
X57200000Y-56700000D03*
%TD*%
D12*
%TO.C,H7*%
X109390000Y-87700000D03*
%TD*%
D10*
%TO.C,J5*%
X57190000Y-66200000D03*
D11*
X57190000Y-68740000D03*
X57190000Y-71280000D03*
X57190000Y-73820000D03*
%TD*%
D13*
%TO.C,H20*%
X206600000Y-116500000D03*
%TD*%
%TO.C,H18*%
X206600000Y-23500000D03*
%TD*%
D12*
%TO.C,H14*%
X179790000Y-29300000D03*
%TD*%
D10*
%TO.C,J9*%
X204200000Y-31100000D03*
D11*
X204200000Y-33640000D03*
X204200000Y-36180000D03*
X204200000Y-38720000D03*
X204200000Y-41260000D03*
X204200000Y-43800000D03*
X204200000Y-46340000D03*
X204200000Y-48880000D03*
%TD*%
D10*
%TO.C,J10*%
X66100000Y-114000000D03*
D11*
X68640000Y-114000000D03*
X71180000Y-114000000D03*
X73720000Y-114000000D03*
X76260000Y-114000000D03*
X78800000Y-114000000D03*
X81340000Y-114000000D03*
X83880000Y-114000000D03*
%TD*%
D10*
%TO.C,J1*%
X80590000Y-33100000D03*
D11*
X80590000Y-35640000D03*
X80590000Y-38180000D03*
X80590000Y-40720000D03*
X80590000Y-43260000D03*
X80590000Y-45800000D03*
X80590000Y-48340000D03*
X80590000Y-50880000D03*
X80590000Y-53420000D03*
X80590000Y-55960000D03*
X80590000Y-58500000D03*
X80590000Y-61040000D03*
X80590000Y-63580000D03*
X80590000Y-66120000D03*
X80590000Y-68660000D03*
X80590000Y-71200000D03*
X80590000Y-73740000D03*
X80590000Y-76280000D03*
X80590000Y-78820000D03*
X80590000Y-81360000D03*
X80590000Y-83900000D03*
%TD*%
D10*
%TO.C,J4*%
X176590000Y-33100000D03*
D11*
X176590000Y-35640000D03*
X176590000Y-38180000D03*
X176590000Y-40720000D03*
X176590000Y-43260000D03*
X176590000Y-45800000D03*
X176590000Y-48340000D03*
X176590000Y-50880000D03*
X176590000Y-53420000D03*
X176590000Y-55960000D03*
X176590000Y-58500000D03*
X176590000Y-61040000D03*
X176590000Y-63580000D03*
X176590000Y-66120000D03*
X176590000Y-68660000D03*
X176590000Y-71200000D03*
X176590000Y-73740000D03*
X176590000Y-76280000D03*
X176590000Y-78820000D03*
X176590000Y-81360000D03*
X176590000Y-83900000D03*
%TD*%
D12*
%TO.C,H2*%
X83790000Y-29300000D03*
%TD*%
D10*
%TO.C,J8*%
X57190000Y-92580000D03*
D11*
X57190000Y-95120000D03*
X57190000Y-97660000D03*
X57190000Y-100200000D03*
%TD*%
D12*
%TO.C,H15*%
X173390000Y-87700000D03*
%TD*%
D10*
%TO.C,J11*%
X101100000Y-114000000D03*
D11*
X103640000Y-114000000D03*
X106180000Y-114000000D03*
X108720000Y-114000000D03*
X111260000Y-114000000D03*
X113800000Y-114000000D03*
X116340000Y-114000000D03*
X118880000Y-114000000D03*
%TD*%
D12*
%TO.C,H12*%
X147790000Y-87700000D03*
%TD*%
D10*
%TO.C,J7*%
X57190000Y-79400000D03*
D11*
X57190000Y-81940000D03*
X57190000Y-84480000D03*
X57190000Y-87020000D03*
%TD*%
D12*
%TO.C,H8*%
X115790000Y-87700000D03*
%TD*%
%TO.C,H5*%
X109390000Y-29300000D03*
%TD*%
%TO.C,H9*%
X141390000Y-29300000D03*
%TD*%
D13*
%TO.C,H19*%
X53500000Y-116500000D03*
%TD*%
D12*
%TO.C,H6*%
X115790000Y-29300000D03*
%TD*%
D13*
%TO.C,H17*%
X53500000Y-23500000D03*
%TD*%
D10*
%TO.C,J12*%
X57190000Y-31120000D03*
D11*
X57190000Y-33660000D03*
X57190000Y-36200000D03*
X57190000Y-38740000D03*
X57190000Y-41280000D03*
X57190000Y-43820000D03*
X57190000Y-46360000D03*
X57190000Y-48900000D03*
%TD*%
D10*
%TO.C,J2*%
X112590000Y-33100000D03*
D11*
X112590000Y-35640000D03*
X112590000Y-38180000D03*
X112590000Y-40720000D03*
X112590000Y-43260000D03*
X112590000Y-45800000D03*
X112590000Y-48340000D03*
X112590000Y-50880000D03*
X112590000Y-53420000D03*
X112590000Y-55960000D03*
X112590000Y-58500000D03*
X112590000Y-61040000D03*
X112590000Y-63580000D03*
X112590000Y-66120000D03*
X112590000Y-68660000D03*
X112590000Y-71200000D03*
X112590000Y-73740000D03*
X112590000Y-76280000D03*
X112590000Y-78820000D03*
X112590000Y-81360000D03*
X112590000Y-83900000D03*
%TD*%
D10*
%TO.C,J13*%
X123600000Y-23800000D03*
D11*
X126140000Y-23800000D03*
%TD*%
D12*
%TO.C,H10*%
X147790000Y-29300000D03*
%TD*%
%TO.C,H16*%
X179790000Y-87700000D03*
%TD*%
%TO.C,H13*%
X173390000Y-29300000D03*
%TD*%
%TO.C,H11*%
X141390000Y-87700000D03*
%TD*%
M02*
