%TF.GenerationSoftware,KiCad,Pcbnew,9.0.7*%
%TF.CreationDate,2026-03-01T19:51:29+01:00*%
%TF.ProjectId,ALU_V2.0,414c555f-5632-42e3-902e-6b696361645f,rev?*%
%TF.SameCoordinates,Original*%
%TF.FileFunction,Soldermask,Bot*%
%TF.FilePolarity,Negative*%
%FSLAX46Y46*%
G04 Gerber Fmt 4.6, Leading zero omitted, Abs format (unit mm)*
G04 Created by KiCad (PCBNEW 9.0.7) date 2026-03-01 19:51:29*
%MOMM*%
%LPD*%
G01*
G04 APERTURE LIST*
%ADD10C,3.200000*%
%ADD11R,1.700000X1.700000*%
%ADD12C,1.700000*%
G04 APERTURE END LIST*
D10*
%TO.C,H3*%
X35500000Y-123500000D03*
%TD*%
%TO.C,H2*%
X169500000Y-30500000D03*
%TD*%
%TO.C,H1*%
X35500000Y-30500000D03*
%TD*%
D11*
%TO.C,J6*%
X165800000Y-112200000D03*
D12*
X168340000Y-112200000D03*
%TD*%
D11*
%TO.C,J1*%
X168340000Y-39800000D03*
D12*
X165800000Y-39800000D03*
X168340000Y-42340000D03*
X165800000Y-42340000D03*
X168340000Y-44880000D03*
X165800000Y-44880000D03*
X168340000Y-47420000D03*
X165800000Y-47420000D03*
X168340000Y-49960000D03*
X165800000Y-49960000D03*
X168340000Y-52500000D03*
X165800000Y-52500000D03*
X168340000Y-55040000D03*
X165800000Y-55040000D03*
X168340000Y-57580000D03*
X165800000Y-57580000D03*
%TD*%
D11*
%TO.C,J2*%
X41951000Y-94891000D03*
D12*
X39411000Y-94891000D03*
X41951000Y-97431000D03*
X39411000Y-97431000D03*
X41951000Y-99971000D03*
X39411000Y-99971000D03*
X41951000Y-102511000D03*
X39411000Y-102511000D03*
X41951000Y-105051000D03*
X39411000Y-105051000D03*
X41951000Y-107591000D03*
X39411000Y-107591000D03*
X41951000Y-110131000D03*
X39411000Y-110131000D03*
X41951000Y-112671000D03*
X39411000Y-112671000D03*
%TD*%
D10*
%TO.C,H4*%
X169500000Y-123300000D03*
%TD*%
D11*
%TO.C,J4*%
X56500000Y-121675000D03*
D12*
X56500000Y-119135000D03*
%TD*%
D11*
%TO.C,J3*%
X59475000Y-33990000D03*
D12*
X59475000Y-31450000D03*
X56935000Y-33990000D03*
X56935000Y-31450000D03*
X54395000Y-33990000D03*
X54395000Y-31450000D03*
X51855000Y-33990000D03*
X51855000Y-31450000D03*
X49315000Y-33990000D03*
X49315000Y-31450000D03*
X46775000Y-33990000D03*
X46775000Y-31450000D03*
X44235000Y-33990000D03*
X44235000Y-31450000D03*
X41695000Y-33990000D03*
X41695000Y-31450000D03*
%TD*%
M02*
