M48
; DRILL file {KiCad 9.0.7} date 2026-03-02T14:35:30+0100
; FORMAT={-:-/ absolute / inch / decimal}
; #@! TF.CreationDate,2026-03-02T14:35:30+01:00
; #@! TF.GenerationSoftware,Kicad,Pcbnew,9.0.7
; #@! TF.FileFunction,Plated,1,6,PTH
FMAT,2
INCH
; #@! TA.AperFunction,Plated,PTH,ViaDrill
T1C0.0118
; #@! TA.AperFunction,Plated,PTH,ViaDrill
T2C0.0197
; #@! TA.AperFunction,Plated,PTH,ComponentDrill
T3C0.0394
%
G90
G05
T1
X1.5512Y-1.8268
X1.5512Y-1.9724
X1.5512Y-2.1181
X1.5512Y-2.2638
X1.5512Y-2.4094
X1.5512Y-2.5551
X1.5571Y-1.687
X1.6535Y-1.5118
X2.5591Y-1.7441
X2.5591Y-2.1772
X2.5591Y-2.6102
X2.5591Y-3.0433
X2.5591Y-3.4764
X2.5591Y-3.9094
X2.563Y-4.3425
X2.6732Y-1.4213
X2.6732Y-1.8543
X2.6732Y-2.2874
X2.6732Y-2.7205
X2.6732Y-3.1535
X2.6732Y-3.5866
X2.6732Y-4.0197
X2.6732Y-4.4528
X2.6772Y-1.311
X2.7362Y-1.3356
X2.7362Y-1.7687
X2.7362Y-2.2017
X2.7362Y-2.6348
X2.7362Y-3.0679
X2.7362Y-3.5009
X2.7362Y-3.934
X2.7362Y-4.3671
X2.7397Y-1.5354
X2.7397Y-1.9685
X2.7397Y-2.4015
X2.7397Y-2.8346
X2.7397Y-3.2677
X2.7397Y-3.7007
X2.7397Y-4.1338
X2.7397Y-4.5669
X2.7402Y-1.6339
X2.7402Y-2.0669
X2.7402Y-2.5
X2.7402Y-2.9331
X2.7402Y-3.3661
X2.7402Y-3.7992
X2.7402Y-4.2323
X2.7402Y-4.6732
X2.7756Y-1.4409
X2.7835Y-1.874
X2.7835Y-2.3071
X2.7835Y-2.7441
X2.7835Y-3.1772
X2.7835Y-3.6102
X2.7835Y-4.0394
X2.7835Y-4.4764
X2.8406Y-1.6791
X2.9803Y-1.4331
X2.9803Y-1.4803
X2.9803Y-1.8661
X2.9803Y-1.9134
X2.9803Y-2.2992
X2.9803Y-2.3465
X2.9803Y-2.7323
X2.9803Y-2.7795
X2.9803Y-3.1654
X2.9803Y-3.2126
X2.9803Y-3.5984
X2.9803Y-3.6457
X2.9803Y-4.0315
X2.9803Y-4.0787
X2.9803Y-4.4646
X2.9803Y-4.5118
X3.0591Y-1.563
X3.0591Y-1.9961
X3.0591Y-2.4291
X3.0591Y-2.8622
X3.0591Y-3.2953
X3.0591Y-3.7283
X3.0591Y-4.1614
X3.0591Y-4.5945
X3.0748Y-1.3937
X3.0748Y-1.8268
X3.0748Y-2.2598
X3.0748Y-2.6929
X3.0748Y-3.126
X3.0748Y-3.5591
X3.0748Y-3.9921
X3.0748Y-4.4252
X3.1392Y-1.7033
X3.1392Y-2.1364
X3.1392Y-2.5695
X3.1392Y-3.0025
X3.1392Y-3.4356
X3.1392Y-3.8687
X3.1392Y-4.3017
X3.1392Y-4.7348
X3.1772Y-1.5591
X3.1772Y-1.9921
X3.1772Y-2.4252
X3.1772Y-2.8583
X3.1772Y-3.2913
X3.1772Y-3.7244
X3.1772Y-4.1575
X3.1772Y-4.5906
X3.3189Y-1.3701
X3.3228Y-1.5512
X3.3228Y-1.7923
X3.3228Y-1.9843
X3.3228Y-2.2254
X3.3228Y-2.4173
X3.3228Y-2.6614
X3.3228Y-2.8504
X3.3228Y-3.0945
X3.3228Y-3.2835
X3.3228Y-3.7165
X3.3228Y-3.9606
X3.3228Y-4.1496
X3.3228Y-4.3937
X3.3228Y-4.5827
X3.3268Y-3.5246
X3.3425Y-1.4488
X3.3425Y-1.8425
X3.3425Y-1.8819
X3.3425Y-2.315
X3.3425Y-2.748
X3.3425Y-3.1811
X3.3425Y-3.6142
X3.3425Y-4.0472
X3.3425Y-4.4803
X3.3465Y-1.4094
X3.3465Y-2.2756
X3.3465Y-2.7087
X3.3465Y-3.1417
X3.3465Y-3.5748
X3.3465Y-4.0079
X3.3465Y-4.4409
X3.3701Y-1.5945
X3.374Y-2.0354
X3.374Y-2.4646
X3.378Y-2.8976
X3.378Y-3.3307
X3.378Y-3.7638
X3.378Y-4.1969
X3.378Y-4.6299
X3.4213Y-1.6535
X3.4213Y-2.0866
X3.4213Y-2.5197
X3.4213Y-2.9528
X3.4213Y-3.3858
X3.4213Y-3.8189
X3.4213Y-4.252
X3.4213Y-4.685
X3.5236Y-1.5551
X3.5236Y-1.9882
X3.5236Y-2.4213
X3.5236Y-2.8543
X3.5236Y-3.2874
X3.5236Y-3.7205
X3.5236Y-4.1535
X3.5236Y-4.5866
X3.6063Y-1.5551
X3.6063Y-1.9882
X3.6063Y-2.4213
X3.6063Y-2.8543
X3.6063Y-3.2874
X3.6063Y-3.7205
X3.6063Y-4.1535
X3.6063Y-4.5866
X3.7441Y-1.5827
X3.7441Y-2.0157
X3.7441Y-2.4488
X3.7441Y-2.8819
X3.7441Y-3.315
X3.7441Y-3.748
X3.7441Y-4.1811
X3.7441Y-4.6142
X3.7795Y-1.4488
X3.7795Y-1.8819
X3.7795Y-2.315
X3.7795Y-2.748
X3.7795Y-3.1811
X3.7795Y-3.6142
X3.7795Y-4.0472
X3.7795Y-4.4803
X3.7815Y-2.0531
X3.7835Y-1.626
X3.7835Y-2.4803
X3.7835Y-2.9213
X3.7835Y-3.3504
X3.7835Y-3.7913
X3.7835Y-4.2205
X3.7835Y-4.6535
X3.7874Y-1.3307
X3.7874Y-2.2047
X3.7874Y-2.6339
X3.7874Y-3.937
X3.7874Y-4.3701
X3.7913Y-3.0669
X3.7913Y-3.5039
X3.7953Y-1.7992
X3.8031Y-1.5551
X3.8031Y-1.9882
X3.8031Y-2.4213
X3.8031Y-2.8543
X3.8031Y-3.2874
X3.8031Y-3.7205
X3.8031Y-4.1535
X3.8031Y-4.5866
X3.8583Y-1.6535
X3.8583Y-2.0866
X3.8583Y-2.5197
X3.8583Y-2.9528
X3.8583Y-3.3858
X3.8583Y-3.8189
X3.8583Y-4.252
X3.8583Y-4.685
X3.9685Y-1.4803
X3.9685Y-1.9134
X3.9685Y-2.3465
X3.9685Y-2.7795
X3.9685Y-3.2126
X3.9685Y-3.6457
X3.9685Y-4.0787
X3.9685Y-4.5118
X4.0394Y-4.5472
X4.0433Y-1.9961
X4.0433Y-2.4291
X4.0433Y-2.8622
X4.0433Y-3.2953
X4.0472Y-3.685
X4.0472Y-4.1142
X4.0945Y-1.9961
X4.1102Y-2.4488
X4.126Y-2.8622
X4.1417Y-3.2953
X4.1537Y-3.622
X4.1826Y-3.6096
X4.2165Y-3.5984
X4.2244Y-3.4409
X4.2323Y-3.0315
X4.2402Y-3.9134
X4.248Y-2.5787
X4.25Y-1.6358
X4.2795Y-1.3189
X4.2992Y-4.7244
X4.3504Y-1.4449
X4.3504Y-1.9173
X4.3504Y-2.3898
X4.3504Y-2.8622
X4.3504Y-3.3346
X4.3504Y-3.811
X4.3504Y-4.0079
X4.3504Y-4.122
X4.3583Y-4.6024
X4.378Y-2.437
X4.3819Y-2.9213
X4.3819Y-4.2126
X4.4094Y-1.6575
X4.4134Y-3.0591
X4.4173Y-2.6024
X4.4449Y-1.3189
X4.4685Y-3.0591
X4.5079Y-4.6024
X4.5157Y-1.4449
X4.5157Y-1.9173
X4.5157Y-2.3898
X4.5157Y-2.8622
X4.5157Y-3.3386
X4.5157Y-3.8071
X4.5157Y-4.0079
X4.5236Y-4.126
X4.5472Y-4.2126
X4.5709Y-1.6772
X4.5787Y-3.0827
X4.5826Y-2.626
X4.6102Y-1.3189
X4.6181Y-4.0906
X4.6575Y-4.6024
X4.6693Y-4.2047
X4.6811Y-1.4449
X4.6811Y-1.9173
X4.6811Y-2.3898
X4.6811Y-2.8622
X4.6811Y-3.3346
X4.6811Y-3.8071
X4.6811Y-4.0079
X4.7126Y-4.2126
X4.7244Y-1.6929
X4.7402Y-3.1063
X4.752Y-2.6496
X4.7756Y-1.3189
X4.8071Y-4.6024
X4.8346Y-4.2087
X4.8465Y-1.4449
X4.8465Y-1.9173
X4.8465Y-2.3898
X4.8465Y-2.8622
X4.8465Y-3.3346
X4.8465Y-3.8071
X4.8465Y-4.0472
X4.878Y-4.2126
X4.8976Y-1.7087
X4.9094Y-3.1299
X4.9291Y-2.6732
X4.9409Y-1.3189
X4.9567Y-4.6024
X5.0Y-4.2126
X5.0118Y-1.4449
X5.0118Y-1.9173
X5.0118Y-2.3898
X5.0118Y-2.8622
X5.0118Y-3.3346
X5.0118Y-3.8071
X5.0118Y-4.0472
X5.0433Y-4.2126
X5.0512Y-1.7244
X5.0709Y-3.1535
X5.0945Y-2.6969
X5.1063Y-1.3189
X5.1063Y-4.6024
X5.1654Y-4.2087
X5.1772Y-1.4449
X5.1772Y-1.9173
X5.1772Y-2.3898
X5.1772Y-2.8622
X5.1772Y-3.3346
X5.1772Y-3.8071
X5.1811Y-4.0472
X5.2087Y-4.2126
X5.2165Y-1.7441
X5.2362Y-3.1772
X5.2559Y-4.6024
X5.2638Y-2.7205
X5.2717Y-1.3189
X5.3346Y-4.2126
X5.3425Y-1.4449
X5.3425Y-1.9173
X5.3425Y-2.3898
X5.3425Y-2.8622
X5.3425Y-3.3346
X5.3425Y-3.8071
X5.3425Y-4.0472
X5.374Y-4.2126
X5.3937Y-1.7717
X5.4055Y-4.6024
X5.4173Y-3.2008
X5.4213Y-2.7402
X5.437Y-1.3189
X5.4764Y-4.5315
X5.4961Y-4.2126
X5.5079Y-1.4449
X5.5079Y-1.9173
X5.5079Y-2.8622
X5.5079Y-3.3346
X5.5079Y-3.8071
X5.5079Y-4.0472
X5.5394Y-4.2126
X5.5551Y-2.3228
X5.6693Y-1.6378
X5.6693Y-2.1142
X5.6693Y-2.5827
X5.6693Y-3.0551
X5.6693Y-3.5315
X5.6693Y-4.0039
X5.8425Y-4.122
X5.9488Y-3.5669
X5.9528Y-3.7165
X5.9843Y-3.9764
X6.0118Y-4.8661
X6.0157Y-4.5354
X6.0394Y-4.1575
X6.0394Y-4.3071
X6.1102Y-3.8346
X6.1133Y-2.7315
X6.1181Y-2.5945
X6.1181Y-2.685
X6.1181Y-3.2323
X6.1181Y-3.4016
X6.1181Y-3.4449
X6.122Y-2.8858
X6.122Y-4.5551
X6.1378Y-4.3071
X6.1496Y-4.0
X6.185Y-3.8661
X6.2362Y-4.1575
X6.2362Y-4.3071
X6.2441Y-3.7362
X6.2441Y-4.7283
X6.2559Y-3.2008
X6.2795Y-2.8858
X6.3071Y-3.1732
X6.4764Y-3.2008
T2
X1.689Y-1.6457
X1.689Y-1.7913
X1.689Y-1.937
X1.689Y-2.0827
X1.689Y-2.2283
X1.689Y-2.374
X1.689Y-2.5197
X1.689Y-2.6654
X1.7205Y-1.7047
X1.7213Y-1.5598
X1.7213Y-1.8512
X1.7213Y-1.9969
X1.7213Y-2.1425
X1.7213Y-2.2882
X1.7213Y-2.4339
X1.7213Y-2.5795
X2.2283Y-1.6457
X2.2283Y-1.7913
X2.2283Y-1.937
X2.2283Y-2.0827
X2.2283Y-2.2283
X2.2283Y-2.374
X2.2283Y-2.5197
X2.2283Y-2.6654
X2.2606Y-1.5598
X2.2606Y-1.7055
X2.2606Y-1.8512
X2.2606Y-1.9969
X2.2606Y-2.1425
X2.2606Y-2.2882
X2.2606Y-2.4339
X2.2606Y-2.5795
X2.2613Y-4.1142
X2.263Y-3.8142
X2.2638Y-4.4134
X2.2653Y-3.9621
X2.275Y-4.2671
X2.2961Y-3.7213
X2.2961Y-3.8709
X2.2961Y-4.0205
X2.2961Y-4.1701
X2.315Y-4.3197
X4.9331Y-4.7913
X4.9385Y-2.5925
X4.9409Y-4.0079
X4.9424Y-1.6476
X4.9424Y-2.1201
X4.9424Y-3.065
X4.9424Y-3.5374
X4.9424Y-4.5217
X5.5925Y-1.4705
X5.5925Y-1.9429
X5.5925Y-2.4154
X5.5925Y-2.8878
X5.5925Y-3.3602
X5.5925Y-3.8327
X5.7441Y-1.4843
X5.7441Y-1.9567
X5.7441Y-2.4291
X5.7441Y-2.9016
X5.7441Y-3.374
X5.7441Y-3.8465
X6.1587Y-1.2531
X6.1587Y-1.4028
X6.1587Y-1.5524
X6.1587Y-1.702
X6.1587Y-1.8516
X6.1587Y-2.0012
X6.1587Y-2.1508
X6.1587Y-2.3004
X6.1969Y-1.1614
X6.1969Y-1.311
X6.1969Y-1.4606
X6.1969Y-1.9094
X6.1969Y-2.0591
X6.1969Y-2.2087
X6.2008Y-1.6102
X6.2008Y-1.7598
T3
X1.5516Y-3.7359
X1.5516Y-3.8359
X1.5516Y-3.9359
X1.5516Y-4.0359
X1.5516Y-4.1359
X1.5516Y-4.2359
X1.5516Y-4.3359
X1.5516Y-4.4359
X1.6415Y-1.2382
X1.6415Y-1.3382
X1.6516Y-3.7359
X1.6516Y-3.8359
X1.6516Y-3.9359
X1.6516Y-4.0359
X1.6516Y-4.1359
X1.6516Y-4.2359
X1.6516Y-4.3359
X1.6516Y-4.4359
X1.7415Y-1.2382
X1.7415Y-1.3382
X1.8415Y-1.2382
X1.8415Y-1.3382
X1.9415Y-1.2382
X1.9415Y-1.3382
X2.0415Y-1.2382
X2.0415Y-1.3382
X2.1415Y-1.2382
X2.1415Y-1.3382
X2.2244Y-4.6904
X2.2244Y-4.7904
X2.2415Y-1.2382
X2.2415Y-1.3382
X2.3415Y-1.2382
X2.3415Y-1.3382
X6.5276Y-1.5669
X6.5276Y-1.6669
X6.5276Y-1.7669
X6.5276Y-1.8669
X6.5276Y-1.9669
X6.5276Y-2.0669
X6.5276Y-2.1669
X6.5276Y-2.2669
X6.5276Y-4.4173
X6.6276Y-1.5669
X6.6276Y-1.6669
X6.6276Y-1.7669
X6.6276Y-1.8669
X6.6276Y-1.9669
X6.6276Y-2.0669
X6.6276Y-2.1669
X6.6276Y-2.2669
X6.6276Y-4.4173
M30
