%TF.GenerationSoftware,KiCad,Pcbnew,9.0.7*%
%TF.CreationDate,2026-03-02T14:35:30+01:00*%
%TF.ProjectId,ALU_V2.0,414c555f-5632-42e3-902e-6b696361645f,rev?*%
%TF.SameCoordinates,Original*%
%TF.FileFunction,Copper,L2,Inr*%
%TF.FilePolarity,Positive*%
%FSLAX46Y46*%
G04 Gerber Fmt 4.6, Leading zero omitted, Abs format (unit mm)*
G04 Created by KiCad (PCBNEW 9.0.7) date 2026-03-02 14:35:30*
%MOMM*%
%LPD*%
G01*
G04 APERTURE LIST*
%TA.AperFunction,ComponentPad*%
%ADD10R,1.700000X1.700000*%
%TD*%
%TA.AperFunction,ComponentPad*%
%ADD11C,1.700000*%
%TD*%
%TA.AperFunction,ViaPad*%
%ADD12C,1.000000*%
%TD*%
%TA.AperFunction,ViaPad*%
%ADD13C,0.600000*%
%TD*%
%TA.AperFunction,Conductor*%
%ADD14C,0.200000*%
%TD*%
G04 APERTURE END LIST*
D10*
%TO.N,VCC*%
%TO.C,J6*%
X165800000Y-112200000D03*
D11*
%TO.N,GND*%
X168340000Y-112200000D03*
%TD*%
D10*
%TO.N,Net-(J1-Pin_1)*%
%TO.C,J1*%
X168340000Y-39800000D03*
D11*
%TO.N,VCC*%
X165800000Y-39800000D03*
%TO.N,Net-(J1-Pin_3)*%
X168340000Y-42340000D03*
%TO.N,GND*%
X165800000Y-42340000D03*
%TO.N,Net-(J1-Pin_5)*%
X168340000Y-44880000D03*
%TO.N,VCC*%
X165800000Y-44880000D03*
%TO.N,Net-(J1-Pin_7)*%
X168340000Y-47420000D03*
%TO.N,GND*%
X165800000Y-47420000D03*
%TO.N,Net-(J1-Pin_9)*%
X168340000Y-49960000D03*
%TO.N,VCC*%
X165800000Y-49960000D03*
%TO.N,Net-(J1-Pin_11)*%
X168340000Y-52500000D03*
%TO.N,GND*%
X165800000Y-52500000D03*
%TO.N,Net-(J1-Pin_13)*%
X168340000Y-55040000D03*
%TO.N,VCC*%
X165800000Y-55040000D03*
%TO.N,/N*%
X168340000Y-57580000D03*
%TO.N,GND*%
X165800000Y-57580000D03*
%TD*%
D10*
%TO.N,VCC*%
%TO.C,J2*%
X41951000Y-94891000D03*
D11*
%TO.N,GND*%
X39411000Y-94891000D03*
%TO.N,Net-(J2-Pin_3)*%
X41951000Y-97431000D03*
%TO.N,/N*%
X39411000Y-97431000D03*
%TO.N,Net-(J2-Pin_5)*%
X41951000Y-99971000D03*
%TO.N,/Z*%
X39411000Y-99971000D03*
%TO.N,Net-(J2-Pin_7)*%
X41951000Y-102511000D03*
%TO.N,/U*%
X39411000Y-102511000D03*
%TO.N,Net-(J2-Pin_9)*%
X41951000Y-105051000D03*
%TO.N,/O*%
X39411000Y-105051000D03*
%TO.N,Net-(J2-Pin_11)*%
X41951000Y-107591000D03*
%TO.N,/C_out*%
X39411000Y-107591000D03*
%TO.N,Net-(J2-Pin_13)*%
X41951000Y-110131000D03*
%TO.N,/C_in*%
X39411000Y-110131000D03*
%TO.N,VCC*%
X41951000Y-112671000D03*
%TO.N,GND*%
X39411000Y-112671000D03*
%TD*%
D10*
%TO.N,VCC*%
%TO.C,J4*%
X56500000Y-121675000D03*
D11*
%TO.N,GND*%
X56500000Y-119135000D03*
%TD*%
D10*
%TO.N,Net-(J3-Pin_1)*%
%TO.C,J3*%
X59475000Y-33990000D03*
D11*
%TO.N,Net-(J3-Pin_2)*%
X59475000Y-31450000D03*
%TO.N,Net-(J3-Pin_3)*%
X56935000Y-33990000D03*
%TO.N,Net-(J3-Pin_4)*%
X56935000Y-31450000D03*
%TO.N,Net-(J3-Pin_5)*%
X54395000Y-33990000D03*
%TO.N,Net-(J3-Pin_6)*%
X54395000Y-31450000D03*
%TO.N,Net-(J3-Pin_7)*%
X51855000Y-33990000D03*
%TO.N,Net-(J3-Pin_8)*%
X51855000Y-31450000D03*
%TO.N,Net-(J3-Pin_9)*%
X49315000Y-33990000D03*
%TO.N,Net-(J3-Pin_10)*%
X49315000Y-31450000D03*
%TO.N,Net-(J3-Pin_11)*%
X46775000Y-33990000D03*
%TO.N,Net-(J3-Pin_12)*%
X46775000Y-31450000D03*
%TO.N,Net-(J3-Pin_13)*%
X44235000Y-33990000D03*
%TO.N,Net-(J3-Pin_14)*%
X44235000Y-31450000D03*
%TO.N,Net-(J3-Pin_15)*%
X41695000Y-33990000D03*
%TO.N,Net-(J3-Pin_16)*%
X41695000Y-31450000D03*
%TD*%
D12*
%TO.N,VCC*%
X57420000Y-65520000D03*
D13*
X109200000Y-120000000D03*
X139600000Y-107000000D03*
X122800000Y-106900000D03*
X80700000Y-50600000D03*
X69500000Y-110924000D03*
X131200000Y-106900000D03*
X80700000Y-61600000D03*
D12*
X58800000Y-109720000D03*
X43720000Y-58120000D03*
D13*
X84400000Y-61400000D03*
X91600000Y-39500000D03*
D12*
X156430000Y-47030000D03*
D13*
X69500000Y-99924000D03*
X80700000Y-39600000D03*
D12*
X43720000Y-39620000D03*
X43720000Y-65520000D03*
D13*
X84400000Y-83400000D03*
D12*
X58320000Y-102120000D03*
D13*
X100800000Y-92600000D03*
X100800000Y-59600000D03*
X75700000Y-48600000D03*
X96600000Y-39500000D03*
X91600000Y-50500000D03*
X157100000Y-98200000D03*
X96600000Y-72500000D03*
X80700000Y-72600000D03*
X100800000Y-114600000D03*
D12*
X58320000Y-98320000D03*
X57420000Y-50720000D03*
X43700000Y-43300000D03*
D13*
X96600000Y-50500000D03*
X80700000Y-116600000D03*
D12*
X57420000Y-58120000D03*
D13*
X96600000Y-61500000D03*
D12*
X58320000Y-94520000D03*
X43720000Y-61820000D03*
D13*
X84400000Y-105400000D03*
X158600000Y-94900000D03*
X75700000Y-70600000D03*
X118600000Y-106800000D03*
X100800000Y-37600000D03*
D12*
X142050000Y-97350000D03*
X57420000Y-39620000D03*
D13*
X84400000Y-72400000D03*
X96600000Y-83500000D03*
D12*
X58320000Y-105920000D03*
D13*
X96600000Y-116500000D03*
X69500000Y-55924000D03*
X127000000Y-107000000D03*
X80700000Y-83600000D03*
X75700000Y-81600000D03*
X91600000Y-61500000D03*
D12*
X156430000Y-31830000D03*
D13*
X91600000Y-105500000D03*
X100800000Y-103600000D03*
D12*
X57420000Y-43320000D03*
D13*
X80700000Y-105600000D03*
D12*
X156430000Y-50830000D03*
X142050000Y-73350000D03*
D13*
X69500000Y-66924000D03*
X80700000Y-94600000D03*
X84400000Y-50400000D03*
X84400000Y-94400000D03*
X96600000Y-105500000D03*
D12*
X142050000Y-37350000D03*
D13*
X110500000Y-104700000D03*
X75700000Y-103600000D03*
X91600000Y-83500000D03*
D12*
X156430000Y-39430000D03*
X57420000Y-54420000D03*
D13*
X91600000Y-72500000D03*
X100800000Y-81600000D03*
X96600000Y-94500000D03*
X91600000Y-116500000D03*
D12*
X156430000Y-35630000D03*
D13*
X69500000Y-88924000D03*
D12*
X142050000Y-61350000D03*
D13*
X155400000Y-87500000D03*
X91600000Y-94500000D03*
D12*
X57420000Y-61820000D03*
D13*
X69500000Y-77924000D03*
X114900000Y-104800000D03*
D12*
X57420000Y-47020000D03*
X156430000Y-54630000D03*
X142050000Y-49350000D03*
D13*
X84400000Y-116400000D03*
X160200000Y-80600000D03*
D12*
X156430000Y-58430000D03*
D13*
X135500000Y-107000000D03*
X158600000Y-120100000D03*
D12*
X43720000Y-54420000D03*
X156430000Y-43230000D03*
D13*
X100800000Y-48600000D03*
D12*
X43720000Y-47020000D03*
D13*
X100800000Y-70600000D03*
X75700000Y-92600000D03*
X69500000Y-44924000D03*
D12*
X43720000Y-50720000D03*
D13*
X75700000Y-59600000D03*
X159500000Y-73300000D03*
X75700000Y-37600000D03*
X69500000Y-33924000D03*
X75700000Y-114600000D03*
D12*
X142050000Y-85350000D03*
D13*
X84400000Y-39400000D03*
%TO.N,/C_in*%
X85600000Y-40500000D03*
X72150000Y-42650000D03*
%TO.N,GND*%
X155500000Y-73300000D03*
D12*
X42900000Y-56600000D03*
D13*
X98000000Y-86000000D03*
D12*
X125537500Y-114850000D03*
D13*
X69588500Y-104999000D03*
X79735765Y-76264235D03*
D12*
X42900000Y-52900000D03*
D13*
X75700000Y-91400000D03*
X75700000Y-58400000D03*
D12*
X125300000Y-121700000D03*
X56600000Y-67700000D03*
X145900000Y-37700000D03*
D13*
X69588500Y-82999000D03*
X79735765Y-98264235D03*
X98000000Y-97000000D03*
X75700000Y-47400000D03*
X84900000Y-80800000D03*
X69588500Y-49999000D03*
D12*
X57537921Y-100637921D03*
X56600000Y-56600000D03*
X56600000Y-60300000D03*
D13*
X98000000Y-53000000D03*
D12*
X125500000Y-101800000D03*
X157400000Y-33300000D03*
X42900000Y-64000000D03*
X125537500Y-89850000D03*
X56600000Y-49200000D03*
D13*
X84900000Y-69800000D03*
X75700000Y-102400000D03*
X79735765Y-87264235D03*
X69588500Y-60999000D03*
X96000000Y-69800000D03*
X67900000Y-91100000D03*
X84900000Y-113800000D03*
X79735765Y-54264235D03*
X67900000Y-58100000D03*
D12*
X57480000Y-96880000D03*
D13*
X155400000Y-86400000D03*
D12*
X57437635Y-104500000D03*
D13*
X98000000Y-42000000D03*
D12*
X125437500Y-65850000D03*
X157400000Y-48500000D03*
D13*
X67900000Y-36100000D03*
X84900000Y-91800000D03*
X96000000Y-102800000D03*
X155900000Y-109400000D03*
D12*
X57500000Y-112100000D03*
X157400000Y-56100000D03*
D13*
X69588500Y-38999000D03*
X86900000Y-53000000D03*
X96000000Y-58800000D03*
X69588500Y-71999000D03*
D12*
X157400000Y-37100000D03*
D13*
X84900000Y-58800000D03*
X96000000Y-36800000D03*
X86900000Y-97000000D03*
X79735765Y-65264235D03*
D12*
X157400000Y-52300000D03*
X145900000Y-73700000D03*
D13*
X96000000Y-80800000D03*
X69588500Y-115999000D03*
X75700000Y-69400000D03*
D12*
X125537500Y-53850000D03*
D13*
X98000000Y-64000000D03*
X98000000Y-108000000D03*
D12*
X42900000Y-60300000D03*
X145900000Y-49700000D03*
D13*
X67900000Y-80100000D03*
X86900000Y-86000000D03*
D12*
X57784314Y-108384314D03*
D13*
X69588500Y-93999000D03*
X79735765Y-120264235D03*
D12*
X56600000Y-64000000D03*
D13*
X86900000Y-64000000D03*
X86900000Y-108000000D03*
D12*
X125537500Y-77850000D03*
X42900000Y-45500000D03*
D13*
X86900000Y-42000000D03*
D12*
X145900000Y-97700000D03*
D13*
X75700000Y-36400000D03*
X96000000Y-91800000D03*
D12*
X42900000Y-67700000D03*
D13*
X79735765Y-109264235D03*
D12*
X145900000Y-85700000D03*
D13*
X84900000Y-102800000D03*
X155200000Y-97400000D03*
X98000000Y-119000000D03*
X96000000Y-113800000D03*
D12*
X42900000Y-49200000D03*
D13*
X86900000Y-119000000D03*
X67900000Y-47100000D03*
X67900000Y-69100000D03*
X67900000Y-102100000D03*
D12*
X42900000Y-41800000D03*
D13*
X79735765Y-43264235D03*
X98000000Y-75000000D03*
D12*
X145900000Y-61700000D03*
X56600000Y-41800000D03*
D13*
X67900000Y-113100000D03*
X75700000Y-80400000D03*
D12*
X125537500Y-41850000D03*
D13*
X86900000Y-75000000D03*
X155400000Y-68200000D03*
X84900000Y-36800000D03*
D12*
X56600000Y-52900000D03*
D13*
X84900000Y-47800000D03*
X152700000Y-123600000D03*
X96000000Y-47800000D03*
D12*
X56600000Y-45500000D03*
X157500000Y-44700000D03*
X157500000Y-40900000D03*
X157400000Y-29500000D03*
D13*
X75700000Y-113400000D03*
%TO.N,Net-(Q154-G)*%
X70500000Y-36600000D03*
X108700000Y-33500000D03*
%TO.N,Net-(Q153-G)*%
X112900000Y-33500000D03*
X70700000Y-47600000D03*
%TO.N,Net-(Q152-G)*%
X70700000Y-58600000D03*
X117100000Y-33500000D03*
%TO.N,Net-(Q12-D)*%
X121300000Y-33500000D03*
X70700000Y-69700000D03*
%TO.N,Net-(Q15-D)*%
X70700000Y-80700000D03*
X125500000Y-33500000D03*
%TO.N,Net-(Q149-G)*%
X70700000Y-91700000D03*
X129700000Y-33500000D03*
%TO.N,Net-(Q148-G)*%
X133900000Y-33500000D03*
X70700000Y-102600000D03*
%TO.N,Net-(Q147-G)*%
X138100000Y-33500000D03*
X70700000Y-113700000D03*
%TO.N,Net-(Q177-G)*%
X107900000Y-65500000D03*
X77700000Y-39700000D03*
%TO.N,Net-(Q179-G)*%
X107500000Y-77000000D03*
X96200000Y-33800000D03*
%TO.N,Net-(Q29-D)*%
X96100000Y-41300000D03*
X89500000Y-39500000D03*
%TO.N,Net-(Q30-D)*%
X95100000Y-40200000D03*
X85700000Y-51700000D03*
%TO.N,Net-(Q145-G)*%
X107950000Y-41550000D03*
X84300000Y-34800000D03*
%TO.N,Net-(Q181-G)*%
X77700000Y-50700000D03*
X112200000Y-66100000D03*
%TO.N,Net-(Q183-G)*%
X112100000Y-77700000D03*
X96400000Y-45700000D03*
%TO.N,Net-(Q44-D)*%
X96050000Y-52150000D03*
X89500000Y-50500000D03*
%TO.N,Net-(Q45-D)*%
X85700000Y-62600000D03*
X95100000Y-51200000D03*
%TO.N,Net-(Q211-G)*%
X102700000Y-50700000D03*
X104000000Y-50700000D03*
%TO.N,Net-(Q163-G)*%
X84400000Y-45524000D03*
X112000000Y-42100000D03*
%TO.N,Net-(Q185-G)*%
X116398000Y-66700000D03*
X77700000Y-61700000D03*
%TO.N,Net-(Q187-G)*%
X116300000Y-78300000D03*
X96200000Y-56000000D03*
%TO.N,Net-(Q59-D)*%
X89500000Y-61500000D03*
X96100000Y-63000000D03*
%TO.N,Net-(Q60-D)*%
X85800000Y-73600000D03*
X95100000Y-62200000D03*
%TO.N,Net-(Q165-G)*%
X84400000Y-56524000D03*
X116100000Y-42600000D03*
%TO.N,Net-(Q189-G)*%
X120700000Y-67300000D03*
X77700000Y-72700000D03*
%TO.N,Net-(Q191-G)*%
X96200000Y-66900000D03*
X120400000Y-78900000D03*
%TO.N,Net-(Q74-D)*%
X89500000Y-72500000D03*
X96100000Y-74200000D03*
%TO.N,Net-(Q75-D)*%
X85800000Y-84600000D03*
X95100000Y-73200000D03*
%TO.N,Net-(Q215-G)*%
X102700000Y-72700000D03*
X104800000Y-72700000D03*
%TO.N,Net-(Q167-G)*%
X120000000Y-43000000D03*
X84400000Y-67600000D03*
%TO.N,Net-(Q193-G)*%
X77700000Y-83700000D03*
X125200000Y-67900000D03*
%TO.N,Net-(Q195-G)*%
X96300000Y-77900000D03*
X124700000Y-79500000D03*
%TO.N,Net-(Q89-D)*%
X96100000Y-85100000D03*
X89500000Y-83500000D03*
%TO.N,Net-(Q103-G)*%
X95100000Y-84200000D03*
X85800000Y-95600000D03*
%TO.N,Net-(Q217-G)*%
X105200000Y-83700000D03*
X102700000Y-83700000D03*
%TO.N,Net-(Q169-G)*%
X124400000Y-43400000D03*
X84400000Y-78600000D03*
%TO.N,Net-(Q100-S)*%
X77700000Y-94700000D03*
X129400000Y-68500000D03*
%TO.N,Net-(Q102-D)*%
X96300000Y-89000000D03*
X128800000Y-80100000D03*
%TO.N,Net-(Q104-D)*%
X96100000Y-96300000D03*
X89500000Y-94500000D03*
%TO.N,Net-(Q105-D)*%
X95100000Y-95200000D03*
X85800000Y-106600000D03*
%TO.N,Net-(Q107-D)*%
X102800000Y-93600000D03*
X105504000Y-92000000D03*
%TO.N,Net-(Q110-D)*%
X84500000Y-89524000D03*
X128300000Y-43800000D03*
%TO.N,Net-(Q115-S)*%
X133700000Y-69100000D03*
X77700000Y-105700000D03*
%TO.N,Net-(Q117-D)*%
X133000000Y-80700000D03*
X96200000Y-100000000D03*
%TO.N,Net-(Q119-D)*%
X89500000Y-105500000D03*
X96100000Y-107200000D03*
%TO.N,Net-(Q120-D)*%
X85800000Y-117600000D03*
X95100000Y-106200000D03*
%TO.N,Net-(Q122-D)*%
X102800000Y-104500000D03*
X106238661Y-91683336D03*
%TO.N,Net-(Q125-D)*%
X132500000Y-44300000D03*
X84400000Y-100600000D03*
%TO.N,Net-(Q130-S)*%
X137700000Y-69600000D03*
X77700000Y-116700000D03*
%TO.N,Net-(Q132-D)*%
X137600000Y-81300000D03*
X96200000Y-111000000D03*
%TO.N,Net-(Q134-D)*%
X89500000Y-116500000D03*
X96100000Y-118200000D03*
%TO.N,Net-(Q135-D)*%
X95100000Y-117200000D03*
X155500000Y-115700000D03*
%TO.N,Net-(Q137-D)*%
X107100000Y-91400000D03*
X102600000Y-115500000D03*
%TO.N,Net-(Q140-D)*%
X84400000Y-111600000D03*
X137000000Y-45000000D03*
%TO.N,Net-(Q145-D)*%
X110500000Y-36700000D03*
X110500000Y-60700000D03*
X110500000Y-101800000D03*
X110500000Y-48700000D03*
X110500000Y-84700000D03*
X110500000Y-96800000D03*
X110500000Y-72700000D03*
%TO.N,Net-(Q147-D)*%
X139900000Y-36700000D03*
X139900000Y-96700000D03*
X139900000Y-84700000D03*
X139900000Y-48700000D03*
X139900000Y-72700000D03*
X139900000Y-102800000D03*
%TO.N,Net-(Q148-D)*%
X135700000Y-72700000D03*
X135700000Y-60700000D03*
X135700000Y-96700000D03*
X135700000Y-102800000D03*
X135700000Y-84700000D03*
X135700000Y-36700000D03*
X135700000Y-48700000D03*
%TO.N,Net-(Q149-D)*%
X131600000Y-102800000D03*
X131500000Y-96700000D03*
X131500000Y-84700000D03*
X131500000Y-60700000D03*
X131500000Y-72700000D03*
X131500000Y-36700000D03*
X131500000Y-48700000D03*
%TO.N,Net-(Q150-D)*%
X127300000Y-60700000D03*
X127300000Y-72700000D03*
X127300000Y-84700000D03*
X127300000Y-96700000D03*
X127300000Y-36700000D03*
X127300000Y-102800000D03*
X127300000Y-48700000D03*
%TO.N,Net-(Q151-D)*%
X123100000Y-84700000D03*
X123100000Y-96700000D03*
X123100000Y-102800000D03*
X123100000Y-72700000D03*
X123100000Y-36700000D03*
X123100000Y-48700000D03*
X123100000Y-60700000D03*
%TO.N,Net-(Q152-D)*%
X118900000Y-36700000D03*
X118900000Y-84700000D03*
X118900000Y-101800000D03*
X118900000Y-60700000D03*
X118900000Y-48700000D03*
X118900000Y-72700000D03*
X118900000Y-96700000D03*
%TO.N,Net-(Q153-D)*%
X114700000Y-72700000D03*
X114700000Y-101800000D03*
X114700000Y-36700000D03*
X114700000Y-48700000D03*
X114700000Y-84800000D03*
X114700000Y-96700000D03*
X114700000Y-60700000D03*
%TO.N,Net-(Q240-G)*%
X148400000Y-104700000D03*
X152000000Y-101000000D03*
%TO.N,Net-(Q213-G)*%
X102700000Y-61700000D03*
X104400000Y-62200000D03*
%TO.N,Net-(J2-Pin_5)*%
X144000000Y-89700000D03*
X107300000Y-87400000D03*
X158400000Y-105600000D03*
%TO.N,Net-(J2-Pin_7)*%
X144000000Y-77600000D03*
X111300000Y-74200000D03*
X158400000Y-109400000D03*
%TO.N,Net-(J2-Pin_13)*%
X153400000Y-105600000D03*
X144000000Y-41600000D03*
X117300000Y-103900000D03*
%TO.N,Net-(J2-Pin_9)*%
X151200000Y-94400000D03*
X111200000Y-61900000D03*
X144000000Y-65600000D03*
%TO.N,Net-(J2-Pin_3)*%
X144000000Y-101700000D03*
X152800000Y-115200000D03*
X156200000Y-101600000D03*
X107700000Y-99400000D03*
%TO.N,Net-(J2-Pin_11)*%
X144000000Y-53700000D03*
X153400000Y-109400000D03*
%TO.N,Net-(J3-Pin_8)*%
X65000000Y-66300000D03*
X39400000Y-50100000D03*
%TO.N,Net-(J3-Pin_6)*%
X65000000Y-55300000D03*
X39400000Y-46400000D03*
%TO.N,Net-(J3-Pin_7)*%
X69600000Y-74500000D03*
X78100000Y-68400000D03*
X85000000Y-68800000D03*
%TO.N,Net-(J3-Pin_3)*%
X78100000Y-46400000D03*
X84900000Y-46800000D03*
X69600000Y-52500000D03*
%TO.N,Net-(J3-Pin_13)*%
X85000000Y-101800000D03*
X78100000Y-101400000D03*
X69600000Y-107500000D03*
%TO.N,Net-(J3-Pin_4)*%
X39550000Y-42850000D03*
X65000000Y-44300000D03*
%TO.N,Net-(J3-Pin_15)*%
X113500000Y-77700000D03*
X85000000Y-112800000D03*
X155400000Y-65900000D03*
X69600000Y-118700000D03*
X78100000Y-112400000D03*
%TO.N,Net-(J3-Pin_1)*%
X85000000Y-35800000D03*
X78100000Y-35400000D03*
X69600000Y-41500000D03*
%TO.N,Net-(J3-Pin_2)*%
X151100000Y-90600000D03*
X42000000Y-38400000D03*
X68000000Y-33300000D03*
%TO.N,Net-(J3-Pin_5)*%
X69600000Y-63500000D03*
X85000000Y-57800000D03*
X78100000Y-57400000D03*
%TO.N,Net-(J3-Pin_14)*%
X65000000Y-99300000D03*
X39400000Y-61200000D03*
%TO.N,Net-(J3-Pin_16)*%
X39400000Y-64900000D03*
X65100000Y-110300000D03*
X155279016Y-69379016D03*
X141100000Y-59000000D03*
%TO.N,Net-(J3-Pin_12)*%
X39400000Y-57500000D03*
X65000000Y-88300000D03*
%TO.N,Net-(J3-Pin_11)*%
X85000000Y-90800000D03*
X69600000Y-96500000D03*
X78100000Y-90400000D03*
%TO.N,Net-(J1-Pin_5)*%
X119700000Y-107000000D03*
X118300000Y-116900000D03*
%TO.N,Net-(J1-Pin_9)*%
X125900000Y-116900000D03*
X128100000Y-107000000D03*
%TO.N,Net-(J1-Pin_7)*%
X122100000Y-116900000D03*
X123900000Y-107000000D03*
%TO.N,Net-(J1-Pin_3)*%
X115500000Y-107000000D03*
X114500000Y-116900000D03*
%TO.N,Net-(J1-Pin_1)*%
X111300000Y-107000000D03*
X110700000Y-116900000D03*
%TO.N,Net-(J1-Pin_13)*%
X136500000Y-107000000D03*
X133500000Y-116900000D03*
%TO.N,Net-(J1-Pin_11)*%
X132300000Y-107000000D03*
X129700000Y-116900000D03*
%TO.N,Net-(J3-Pin_10)*%
X39400000Y-53800000D03*
X65000000Y-77300000D03*
%TO.N,Net-(J3-Pin_9)*%
X78100000Y-79400000D03*
X85000000Y-79800000D03*
X69600000Y-85500000D03*
%TO.N,/N*%
X139100000Y-115100000D03*
X137300000Y-116900000D03*
X164500000Y-81300000D03*
X155400000Y-82100000D03*
X158900000Y-81300000D03*
X140700000Y-107000000D03*
%TD*%
D14*
%TO.N,/C_in*%
X74300000Y-40500000D02*
X85600000Y-40500000D01*
X72150000Y-42650000D02*
X74300000Y-40500000D01*
%TO.N,Net-(Q154-G)*%
X70500000Y-35400000D02*
X73600000Y-32300000D01*
X73600000Y-32300000D02*
X107500000Y-32300000D01*
X107500000Y-32300000D02*
X108700000Y-33500000D01*
X70500000Y-36600000D02*
X70500000Y-35400000D01*
%TO.N,Net-(Q153-G)*%
X66601300Y-31900000D02*
X111300000Y-31900000D01*
X70700000Y-47600000D02*
X63600000Y-40500000D01*
X111300000Y-31900000D02*
X112900000Y-33500000D01*
X63600000Y-34901300D02*
X66601300Y-31900000D01*
X63600000Y-40500000D02*
X63600000Y-34901300D01*
%TO.N,Net-(Q152-G)*%
X66434200Y-31500000D02*
X63200000Y-34734200D01*
X63200000Y-51100000D02*
X70700000Y-58600000D01*
X115100000Y-31500000D02*
X66434200Y-31500000D01*
X117100000Y-33500000D02*
X115100000Y-31500000D01*
X63200000Y-34734200D02*
X63200000Y-51100000D01*
%TO.N,Net-(Q12-D)*%
X62800000Y-61800000D02*
X62800000Y-34567100D01*
X70700000Y-69700000D02*
X62800000Y-61800000D01*
X62800000Y-34567100D02*
X66267100Y-31100000D01*
X118900000Y-31100000D02*
X121300000Y-33500000D01*
X66267100Y-31100000D02*
X118900000Y-31100000D01*
%TO.N,Net-(Q15-D)*%
X62303000Y-72303000D02*
X70700000Y-80700000D01*
X62303000Y-34497000D02*
X62303000Y-72303000D01*
X66100000Y-30700000D02*
X62303000Y-34497000D01*
X125500000Y-33500000D02*
X122700000Y-30700000D01*
X122700000Y-30700000D02*
X66100000Y-30700000D01*
%TO.N,Net-(Q149-G)*%
X61902000Y-34332200D02*
X65934200Y-30300000D01*
X61902000Y-82902000D02*
X61902000Y-34332200D01*
X65934200Y-30300000D02*
X126500000Y-30300000D01*
X126500000Y-30300000D02*
X129700000Y-33500000D01*
X70700000Y-91700000D02*
X61902000Y-82902000D01*
%TO.N,Net-(Q148-G)*%
X126666100Y-29899000D02*
X65768100Y-29899000D01*
X65768100Y-29899000D02*
X61501000Y-34166100D01*
X61501000Y-93401000D02*
X70700000Y-102600000D01*
X61501000Y-34166100D02*
X61501000Y-93401000D01*
X130300000Y-29900000D02*
X126667100Y-29900000D01*
X126667100Y-29900000D02*
X126666100Y-29899000D01*
X133900000Y-33500000D02*
X130300000Y-29900000D01*
%TO.N,Net-(Q147-G)*%
X138100000Y-33500000D02*
X134100000Y-29500000D01*
X126832200Y-29498000D02*
X65602000Y-29498000D01*
X65602000Y-29498000D02*
X61100000Y-34000000D01*
X61100000Y-34000000D02*
X61100000Y-104100000D01*
X126833200Y-29499000D02*
X126832200Y-29498000D01*
X130467100Y-29500000D02*
X130466100Y-29499000D01*
X134100000Y-29500000D02*
X130467100Y-29500000D01*
X61100000Y-104100000D02*
X70700000Y-113700000D01*
X130466100Y-29499000D02*
X126833200Y-29499000D01*
%TO.N,Net-(Q163-G)*%
X111499000Y-42601000D02*
X112000000Y-42100000D01*
X84450000Y-45450000D02*
X87299000Y-42601000D01*
X87299000Y-42601000D02*
X111499000Y-42601000D01*
X84400000Y-45524000D02*
X84450000Y-45474000D01*
X84450000Y-45474000D02*
X84450000Y-45450000D01*
%TO.N,Net-(Q165-G)*%
X85800000Y-46000000D02*
X88798000Y-43002000D01*
X84900000Y-56000000D02*
X84900000Y-51650057D01*
X88798000Y-43002000D02*
X115598000Y-43002000D01*
X115598000Y-43002000D02*
X116000000Y-42600000D01*
X84400000Y-56524000D02*
X84400000Y-56500000D01*
X84900000Y-51650057D02*
X85800000Y-50750057D01*
X116000000Y-42600000D02*
X116100000Y-42600000D01*
X85800000Y-50750057D02*
X85800000Y-46000000D01*
X84400000Y-56500000D02*
X84900000Y-56000000D01*
%TO.N,Net-(Q167-G)*%
X84400000Y-67600000D02*
X86300000Y-65700000D01*
X119597000Y-43403000D02*
X120000000Y-43000000D01*
X86300000Y-65700000D02*
X86300000Y-46500000D01*
X89397000Y-43403000D02*
X119597000Y-43403000D01*
X86300000Y-46500000D02*
X89397000Y-43403000D01*
%TO.N,Net-(Q169-G)*%
X84400000Y-78600000D02*
X87600000Y-75400000D01*
X87600000Y-46000000D02*
X89796000Y-43804000D01*
X123996000Y-43804000D02*
X124400000Y-43400000D01*
X89796000Y-43804000D02*
X123996000Y-43804000D01*
X87600000Y-75400000D02*
X87600000Y-46000000D01*
%TO.N,Net-(Q110-D)*%
X84500000Y-89524000D02*
X84576000Y-89524000D01*
X88100000Y-46300000D02*
X90195000Y-44205000D01*
X84576000Y-89524000D02*
X88100000Y-86000000D01*
X90195000Y-44205000D02*
X127895000Y-44205000D01*
X127895000Y-44205000D02*
X128300000Y-43800000D01*
X88100000Y-86000000D02*
X88100000Y-46300000D01*
%TO.N,Net-(Q125-D)*%
X88600000Y-96400000D02*
X84400000Y-100600000D01*
X132500000Y-44300000D02*
X132194000Y-44606000D01*
X90694000Y-44606000D02*
X88600000Y-46700000D01*
X132194000Y-44606000D02*
X90694000Y-44606000D01*
X88600000Y-46700000D02*
X88600000Y-96400000D01*
%TO.N,Net-(Q140-D)*%
X137000000Y-45000000D02*
X136993000Y-45007000D01*
X91293000Y-45007000D02*
X90200000Y-46100000D01*
X90200000Y-105800000D02*
X84400000Y-111600000D01*
X90200000Y-46100000D02*
X90200000Y-105800000D01*
X136993000Y-45007000D02*
X91293000Y-45007000D01*
%TO.N,Net-(Q145-D)*%
X110500000Y-84700000D02*
X110500000Y-72700000D01*
X110500000Y-96800000D02*
X110500000Y-84700000D01*
%TO.N,Net-(Q147-D)*%
X139900000Y-72700000D02*
X139900000Y-84700000D01*
X139900000Y-96700000D02*
X139900000Y-84700000D01*
%TO.N,Net-(Q148-D)*%
X135700000Y-84700000D02*
X135700000Y-96700000D01*
X135700000Y-84700000D02*
X135700000Y-72700000D01*
%TO.N,Net-(Q149-D)*%
X131500000Y-84700000D02*
X131500000Y-96700000D01*
X131500000Y-72700000D02*
X131500000Y-84700000D01*
%TO.N,Net-(Q150-D)*%
X127300000Y-96700000D02*
X127300000Y-84700000D01*
X127300000Y-84700000D02*
X127300000Y-72700000D01*
%TO.N,Net-(Q151-D)*%
X123100000Y-84700000D02*
X123100000Y-96700000D01*
X123100000Y-72700000D02*
X123100000Y-84700000D01*
%TO.N,Net-(Q152-D)*%
X118900000Y-84700000D02*
X118900000Y-72700000D01*
X118900000Y-96700000D02*
X118900000Y-84700000D01*
%TO.N,Net-(Q153-D)*%
X114700000Y-84800000D02*
X114700000Y-96700000D01*
X114700000Y-72700000D02*
X114700000Y-84800000D01*
%TO.N,Net-(J2-Pin_5)*%
X57851900Y-113899000D02*
X59350900Y-115398000D01*
X108301000Y-88401000D02*
X107300000Y-87400000D01*
X74532900Y-115600000D02*
X74533900Y-115601000D01*
X70635443Y-115398000D02*
X70837443Y-115600000D01*
X108301000Y-104866100D02*
X108301000Y-88401000D01*
X74533900Y-115601000D02*
X97566100Y-115601000D01*
X70837443Y-115600000D02*
X74532900Y-115600000D01*
X41971000Y-99971000D02*
X55899000Y-113899000D01*
X59350900Y-115398000D02*
X70635443Y-115398000D01*
X55899000Y-113899000D02*
X57851900Y-113899000D01*
X97566100Y-115601000D02*
X108301000Y-104866100D01*
X41951000Y-99971000D02*
X41971000Y-99971000D01*
%TO.N,Net-(J2-Pin_7)*%
X111300000Y-74200000D02*
X111300000Y-102500000D01*
X97201000Y-116599000D02*
X97201000Y-116748943D01*
X53740000Y-114300000D02*
X41951000Y-102511000D01*
X61085800Y-117700000D02*
X57685800Y-114300000D01*
X70200000Y-117700000D02*
X61085800Y-117700000D01*
X96449943Y-117500000D02*
X95950057Y-117500000D01*
X70701000Y-118201000D02*
X70200000Y-117700000D01*
X95249057Y-118201000D02*
X70701000Y-118201000D01*
X95950057Y-117500000D02*
X95249057Y-118201000D01*
X57685800Y-114300000D02*
X53740000Y-114300000D01*
X111300000Y-102500000D02*
X97201000Y-116599000D01*
X97201000Y-116748943D02*
X96449943Y-117500000D01*
%TO.N,Net-(J2-Pin_13)*%
X53500000Y-114700000D02*
X45200000Y-106400000D01*
X126999000Y-97301000D02*
X131748943Y-97301000D01*
X117300000Y-103900000D02*
X118799000Y-102401000D01*
X115100000Y-103900000D02*
X114801000Y-104199000D01*
X114299000Y-104551057D02*
X114299000Y-104701000D01*
X114801000Y-104199000D02*
X114651057Y-104199000D01*
X45200000Y-106400000D02*
X41514240Y-106400000D01*
X110750057Y-106700000D02*
X107667100Y-106700000D01*
X135099000Y-93950943D02*
X135099000Y-65668100D01*
X118799000Y-102401000D02*
X121899000Y-102401000D01*
X111350057Y-106100000D02*
X110750057Y-106700000D01*
X135099000Y-65668100D02*
X138898000Y-61869100D01*
X107667100Y-106700000D02*
X97751057Y-116616043D01*
X117300000Y-103900000D02*
X115100000Y-103900000D01*
X114299000Y-104701000D02*
X112900000Y-106100000D01*
X138898000Y-61869100D02*
X138898000Y-46702000D01*
X97751057Y-117448943D02*
X94334765Y-120865235D01*
X40800000Y-107114240D02*
X40800000Y-108980000D01*
X40800000Y-108980000D02*
X41951000Y-110131000D01*
X121899000Y-102401000D02*
X126999000Y-97301000D01*
X112900000Y-106100000D02*
X111350057Y-106100000D01*
X114651057Y-104199000D02*
X114299000Y-104551057D01*
X94334765Y-120865235D02*
X63665235Y-120865235D01*
X63665235Y-120865235D02*
X57500000Y-114700000D01*
X41514240Y-106400000D02*
X40800000Y-107114240D01*
X138898000Y-46702000D02*
X144000000Y-41600000D01*
X131748943Y-97301000D02*
X135099000Y-93950943D01*
X57500000Y-114700000D02*
X53500000Y-114700000D01*
X97751057Y-116616043D02*
X97751057Y-117448943D01*
%TO.N,Net-(J2-Pin_9)*%
X74747943Y-114000000D02*
X82950057Y-114000000D01*
X82950057Y-114000000D02*
X86050057Y-110900000D01*
X40700000Y-96977120D02*
X41477120Y-96200000D01*
X103798000Y-68752057D02*
X110650057Y-61900000D01*
X64499000Y-110548943D02*
X68251057Y-114301000D01*
X103798000Y-96102000D02*
X103798000Y-68752057D01*
X64499000Y-110299000D02*
X64499000Y-110548943D01*
X74446943Y-114301000D02*
X74747943Y-114000000D01*
X41477120Y-96200000D02*
X50400000Y-96200000D01*
X89000000Y-110900000D02*
X103798000Y-96102000D01*
X86050057Y-110900000D02*
X89000000Y-110900000D01*
X40700000Y-103800000D02*
X40700000Y-96977120D01*
X50400000Y-96200000D02*
X64499000Y-110299000D01*
X41951000Y-105051000D02*
X40700000Y-103800000D01*
X110650057Y-61900000D02*
X111200000Y-61900000D01*
X68251057Y-114301000D02*
X74446943Y-114301000D01*
%TO.N,Net-(J2-Pin_3)*%
X156100000Y-101700000D02*
X156200000Y-101600000D01*
X74700000Y-115200000D02*
X97400000Y-115200000D01*
X107700000Y-104900000D02*
X107700000Y-99400000D01*
X74202000Y-114702000D02*
X74700000Y-115200000D01*
X97400000Y-115200000D02*
X107700000Y-104900000D01*
X58018000Y-113498000D02*
X59222000Y-114702000D01*
X41951000Y-97431000D02*
X41951000Y-97951000D01*
X59222000Y-114702000D02*
X74202000Y-114702000D01*
X144000000Y-101700000D02*
X156100000Y-101700000D01*
X41951000Y-97951000D02*
X57498000Y-113498000D01*
X57498000Y-113498000D02*
X58018000Y-113498000D01*
%TO.N,Net-(J2-Pin_11)*%
X153400000Y-109400000D02*
X127250058Y-109400000D01*
X101048943Y-115201000D02*
X100599000Y-115201000D01*
X105624914Y-110625029D02*
X101048943Y-115201000D01*
X45791000Y-107591000D02*
X41951000Y-107591000D01*
X100599000Y-115201000D02*
X93800000Y-122000000D01*
X93800000Y-122000000D02*
X64232900Y-122000000D01*
X126025029Y-110625029D02*
X105624914Y-110625029D01*
X57432900Y-115200000D02*
X53400000Y-115200000D01*
X127250058Y-109400000D02*
X126025029Y-110625029D01*
X139299000Y-58401000D02*
X144000000Y-53700000D01*
X53400000Y-115200000D02*
X45791000Y-107591000D01*
X126025029Y-110625029D02*
X139299000Y-97351057D01*
X139299000Y-97351057D02*
X139299000Y-58401000D01*
X64232900Y-122000000D02*
X57432900Y-115200000D01*
%TO.N,Net-(J3-Pin_16)*%
X155279016Y-69379016D02*
X152700000Y-69379016D01*
X151479016Y-69379016D02*
X141100000Y-59000000D01*
X152700000Y-69379016D02*
X151479016Y-69379016D01*
%TO.N,Net-(J1-Pin_5)*%
X118300000Y-116900000D02*
X123371971Y-111828029D01*
X161801000Y-108299000D02*
X161801000Y-51800000D01*
X161801000Y-51800000D02*
X161801000Y-49791240D01*
X123371971Y-111828029D02*
X158271971Y-111828029D01*
X167189000Y-46031000D02*
X168340000Y-44880000D01*
X165561240Y-46031000D02*
X167189000Y-46031000D01*
X161801000Y-49791240D02*
X165561240Y-46031000D01*
X158271971Y-111828029D02*
X161801000Y-108299000D01*
%TO.N,Net-(J1-Pin_9)*%
X125900000Y-116900000D02*
X130169971Y-112630029D01*
X167189000Y-51111000D02*
X168340000Y-49960000D01*
X158604171Y-112630029D02*
X162603000Y-108631200D01*
X162603000Y-54069240D02*
X165561240Y-51111000D01*
X162603000Y-108631200D02*
X162603000Y-54069240D01*
X130169971Y-112630029D02*
X158604171Y-112630029D01*
X165561240Y-51111000D02*
X167189000Y-51111000D01*
%TO.N,Net-(J1-Pin_7)*%
X165561240Y-48571000D02*
X167189000Y-48571000D01*
X126770971Y-112229029D02*
X158438071Y-112229029D01*
X122100000Y-116900000D02*
X126770971Y-112229029D01*
X167189000Y-48571000D02*
X168340000Y-47420000D01*
X162202000Y-108465100D02*
X162202000Y-51930240D01*
X158438071Y-112229029D02*
X162202000Y-108465100D01*
X162202000Y-51930240D02*
X165561240Y-48571000D01*
%TO.N,Net-(J1-Pin_3)*%
X165323240Y-43729000D02*
X166951000Y-43729000D01*
X161400000Y-47652240D02*
X165323240Y-43729000D01*
X158072971Y-111427029D02*
X161400000Y-108100000D01*
X161400000Y-108100000D02*
X161400000Y-47652240D01*
X166951000Y-43729000D02*
X168340000Y-42340000D01*
X119972971Y-111427029D02*
X158072971Y-111427029D01*
X114500000Y-116900000D02*
X119972971Y-111427029D01*
%TO.N,Net-(J1-Pin_1)*%
X165561240Y-40951000D02*
X167189000Y-40951000D01*
X161000000Y-107900000D02*
X158500000Y-110400000D01*
X158500000Y-110400000D02*
X127200000Y-110400000D01*
X161000000Y-45512240D02*
X165561240Y-40951000D01*
X116573971Y-111026029D02*
X110700000Y-116900000D01*
X127200000Y-110400000D02*
X126573971Y-111026029D01*
X126573971Y-111026029D02*
X116573971Y-111026029D01*
X161000000Y-47400000D02*
X161000000Y-45512240D01*
X161000000Y-47400000D02*
X161000000Y-107900000D01*
X167189000Y-40951000D02*
X168340000Y-39800000D01*
%TO.N,Net-(J1-Pin_13)*%
X168340000Y-55040000D02*
X166951000Y-56429000D01*
X158936371Y-113432029D02*
X136967971Y-113432029D01*
X163405000Y-108963400D02*
X158936371Y-113432029D01*
X166951000Y-56429000D02*
X165323240Y-56429000D01*
X163405000Y-58347240D02*
X163405000Y-108963400D01*
X165323240Y-56429000D02*
X163405000Y-58347240D01*
X136967971Y-113432029D02*
X133500000Y-116900000D01*
%TO.N,Net-(J1-Pin_11)*%
X133568971Y-113031029D02*
X158770271Y-113031029D01*
X165561240Y-53651000D02*
X167189000Y-53651000D01*
X158770271Y-113031029D02*
X163004000Y-108797300D01*
X167189000Y-53651000D02*
X168340000Y-52500000D01*
X163004000Y-56208240D02*
X165561240Y-53651000D01*
X129700000Y-116900000D02*
X133568971Y-113031029D01*
X163004000Y-108797300D02*
X163004000Y-56208240D01*
%TO.N,/N*%
X164500000Y-108435500D02*
X164500000Y-61420000D01*
X164500000Y-61420000D02*
X168340000Y-57580000D01*
X159102471Y-113833029D02*
X164500000Y-108435500D01*
X140366971Y-113833029D02*
X159102471Y-113833029D01*
X155400000Y-82100000D02*
X158100000Y-82100000D01*
X139100000Y-115100000D02*
X140366971Y-113833029D01*
X158100000Y-82100000D02*
X158900000Y-81300000D01*
%TD*%
M02*
