%TF.GenerationSoftware,KiCad,Pcbnew,9.0.7*%
%TF.CreationDate,2026-03-02T14:35:30+01:00*%
%TF.ProjectId,ALU_V2.0,414c555f-5632-42e3-902e-6b696361645f,rev?*%
%TF.SameCoordinates,Original*%
%TF.FileFunction,Soldermask,Top*%
%TF.FilePolarity,Negative*%
%FSLAX46Y46*%
G04 Gerber Fmt 4.6, Leading zero omitted, Abs format (unit mm)*
G04 Created by KiCad (PCBNEW 9.0.7) date 2026-03-02 14:35:30*
%MOMM*%
%LPD*%
G01*
G04 APERTURE LIST*
G04 Aperture macros list*
%AMRoundRect*
0 Rectangle with rounded corners*
0 $1 Rounding radius*
0 $2 $3 $4 $5 $6 $7 $8 $9 X,Y pos of 4 corners*
0 Add a 4 corners polygon primitive as box body*
4,1,4,$2,$3,$4,$5,$6,$7,$8,$9,$2,$3,0*
0 Add four circle primitives for the rounded corners*
1,1,$1+$1,$2,$3*
1,1,$1+$1,$4,$5*
1,1,$1+$1,$6,$7*
1,1,$1+$1,$8,$9*
0 Add four rect primitives between the rounded corners*
20,1,$1+$1,$2,$3,$4,$5,0*
20,1,$1+$1,$4,$5,$6,$7,0*
20,1,$1+$1,$6,$7,$8,$9,0*
20,1,$1+$1,$8,$9,$2,$3,0*%
G04 Aperture macros list end*
%ADD10RoundRect,0.150000X0.150000X-0.587500X0.150000X0.587500X-0.150000X0.587500X-0.150000X-0.587500X0*%
%ADD11RoundRect,0.159000X-0.159000X-0.189000X0.159000X-0.189000X0.159000X0.189000X-0.159000X0.189000X0*%
%ADD12RoundRect,0.150000X-0.587500X-0.150000X0.587500X-0.150000X0.587500X0.150000X-0.587500X0.150000X0*%
%ADD13RoundRect,0.159000X0.159000X0.189000X-0.159000X0.189000X-0.159000X-0.189000X0.159000X-0.189000X0*%
%ADD14RoundRect,0.269000X0.494000X-0.269000X0.494000X0.269000X-0.494000X0.269000X-0.494000X-0.269000X0*%
%ADD15RoundRect,0.239000X0.239000X0.274000X-0.239000X0.274000X-0.239000X-0.274000X0.239000X-0.274000X0*%
%ADD16RoundRect,0.159000X-0.189000X0.159000X-0.189000X-0.159000X0.189000X-0.159000X0.189000X0.159000X0*%
%ADD17RoundRect,0.239000X-0.239000X-0.274000X0.239000X-0.274000X0.239000X0.274000X-0.239000X0.274000X0*%
%ADD18RoundRect,0.159000X0.189000X-0.159000X0.189000X0.159000X-0.189000X0.159000X-0.189000X-0.159000X0*%
%ADD19RoundRect,0.150000X-0.150000X0.587500X-0.150000X-0.587500X0.150000X-0.587500X0.150000X0.587500X0*%
%ADD20RoundRect,0.150000X0.587500X0.150000X-0.587500X0.150000X-0.587500X-0.150000X0.587500X-0.150000X0*%
%ADD21R,1.700000X1.700000*%
%ADD22C,1.700000*%
%ADD23RoundRect,0.269000X-0.269000X-0.494000X0.269000X-0.494000X0.269000X0.494000X-0.269000X0.494000X0*%
%ADD24RoundRect,0.239000X0.274000X-0.239000X0.274000X0.239000X-0.274000X0.239000X-0.274000X-0.239000X0*%
G04 APERTURE END LIST*
D10*
%TO.C,Q118*%
X85850000Y-108037500D03*
X87750000Y-108037500D03*
X86800000Y-106162500D03*
%TD*%
D11*
%TO.C,R22*%
X76500000Y-38500000D03*
X77500000Y-38500000D03*
%TD*%
%TO.C,R33*%
X76500000Y-49500000D03*
X77500000Y-49500000D03*
%TD*%
D12*
%TO.C,Q236*%
X129662500Y-62450000D03*
X129662500Y-64350000D03*
X131537500Y-63400000D03*
%TD*%
D10*
%TO.C,Q48*%
X74750000Y-47837500D03*
X76650000Y-47837500D03*
X75700000Y-45962500D03*
%TD*%
%TO.C,Q94*%
X78450000Y-80837500D03*
X80350000Y-80837500D03*
X79400000Y-78962500D03*
%TD*%
D13*
%TO.C,R20*%
X96000000Y-38500000D03*
X95000000Y-38500000D03*
%TD*%
D12*
%TO.C,Q303*%
X41062500Y-43450000D03*
X41062500Y-45350000D03*
X42937500Y-44400000D03*
%TD*%
D14*
%TO.C,C3*%
X50200000Y-121350000D03*
X50200000Y-119450000D03*
%TD*%
D10*
%TO.C,Q107*%
X100650000Y-97037500D03*
X102550000Y-97037500D03*
X101600000Y-95162500D03*
%TD*%
D15*
%TO.C,D3*%
X155290000Y-37400000D03*
X153710000Y-37400000D03*
%TD*%
D11*
%TO.C,R73*%
X80700000Y-93500000D03*
X81700000Y-93500000D03*
%TD*%
%TO.C,R159*%
X142500000Y-34300000D03*
X143500000Y-34300000D03*
%TD*%
%TO.C,R80*%
X85500000Y-93500000D03*
X86500000Y-93500000D03*
%TD*%
D10*
%TO.C,Q125*%
X82150000Y-102837500D03*
X84050000Y-102837500D03*
X83100000Y-100962500D03*
%TD*%
D16*
%TO.C,R148*%
X60400000Y-50400000D03*
X60400000Y-51400000D03*
%TD*%
D13*
%TO.C,R30*%
X90200000Y-49500000D03*
X89200000Y-49500000D03*
%TD*%
D12*
%TO.C,Q174*%
X133862500Y-50450000D03*
X133862500Y-52350000D03*
X135737500Y-51400000D03*
%TD*%
D11*
%TO.C,R88*%
X76500000Y-104500000D03*
X77500000Y-104500000D03*
%TD*%
D12*
%TO.C,Q192*%
X121262500Y-86450000D03*
X121262500Y-88350000D03*
X123137500Y-87400000D03*
%TD*%
%TO.C,Q215*%
X121262500Y-94750000D03*
X121262500Y-96650000D03*
X123137500Y-95700000D03*
%TD*%
D13*
%TO.C,R75*%
X96000000Y-93500000D03*
X95000000Y-93500000D03*
%TD*%
D12*
%TO.C,Q149*%
X129662500Y-34750000D03*
X129662500Y-36650000D03*
X131537500Y-35700000D03*
%TD*%
%TO.C,Q198*%
X129662500Y-74450000D03*
X129662500Y-76350000D03*
X131537500Y-75400000D03*
%TD*%
D10*
%TO.C,Q73*%
X85850000Y-75037500D03*
X87750000Y-75037500D03*
X86800000Y-73162500D03*
%TD*%
D16*
%TO.C,R193*%
X59300000Y-61500000D03*
X59300000Y-62500000D03*
%TD*%
D12*
%TO.C,Q249*%
X129662500Y-107750000D03*
X129662500Y-109650000D03*
X131537500Y-108700000D03*
%TD*%
D10*
%TO.C,Q104*%
X89550000Y-97037500D03*
X91450000Y-97037500D03*
X90500000Y-95162500D03*
%TD*%
D16*
%TO.C,R152*%
X46600000Y-43000000D03*
X46600000Y-44000000D03*
%TD*%
D11*
%TO.C,R29*%
X80700000Y-49500000D03*
X81700000Y-49500000D03*
%TD*%
D17*
%TO.C,D14*%
X58710000Y-60100000D03*
X60290000Y-60100000D03*
%TD*%
D10*
%TO.C,Q312*%
X143050000Y-40137500D03*
X144950000Y-40137500D03*
X144000000Y-38262500D03*
%TD*%
D12*
%TO.C,Q162*%
X138062500Y-38450000D03*
X138062500Y-40350000D03*
X139937500Y-39400000D03*
%TD*%
D16*
%TO.C,R16*%
X72000000Y-112400000D03*
X72000000Y-113400000D03*
%TD*%
D13*
%TO.C,R54*%
X101300000Y-71500000D03*
X100300000Y-71500000D03*
%TD*%
D10*
%TO.C,Q2*%
X70350000Y-40037500D03*
X72250000Y-40037500D03*
X71300000Y-38162500D03*
%TD*%
D13*
%TO.C,R42*%
X96000000Y-60500000D03*
X95000000Y-60500000D03*
%TD*%
D10*
%TO.C,Q39*%
X96950000Y-36837500D03*
X98850000Y-36837500D03*
X97900000Y-34962500D03*
%TD*%
D12*
%TO.C,Q167*%
X121262500Y-46750000D03*
X121262500Y-48650000D03*
X123137500Y-47700000D03*
%TD*%
D18*
%TO.C,R130*%
X160200000Y-78500000D03*
X160200000Y-77500000D03*
%TD*%
D12*
%TO.C,Q239*%
X108662500Y-107750000D03*
X108662500Y-109650000D03*
X110537500Y-108700000D03*
%TD*%
D10*
%TO.C,Q138*%
X74750000Y-113837500D03*
X76650000Y-113837500D03*
X75700000Y-111962500D03*
%TD*%
D17*
%TO.C,D11*%
X58710000Y-49000000D03*
X60290000Y-49000000D03*
%TD*%
D10*
%TO.C,Q116*%
X78450000Y-108037500D03*
X80350000Y-108037500D03*
X79400000Y-106162500D03*
%TD*%
%TO.C,Q26*%
X78450000Y-42037500D03*
X80350000Y-42037500D03*
X79400000Y-40162500D03*
%TD*%
D16*
%TO.C,R9*%
X67000000Y-79400000D03*
X67000000Y-80400000D03*
%TD*%
%TO.C,R2*%
X72000000Y-35400000D03*
X72000000Y-36400000D03*
%TD*%
D19*
%TO.C,Q277*%
X158250000Y-66862500D03*
X156350000Y-66862500D03*
X157300000Y-68737500D03*
%TD*%
D11*
%TO.C,R91*%
X85500000Y-104500000D03*
X86500000Y-104500000D03*
%TD*%
D20*
%TO.C,Q275*%
X159237500Y-43050000D03*
X159237500Y-41150000D03*
X157362500Y-42100000D03*
%TD*%
D13*
%TO.C,R125*%
X157600000Y-121500000D03*
X156600000Y-121500000D03*
%TD*%
%TO.C,R56*%
X79600000Y-71500000D03*
X78600000Y-71500000D03*
%TD*%
D21*
%TO.C,J6*%
X165800000Y-112200000D03*
D22*
X168340000Y-112200000D03*
%TD*%
D17*
%TO.C,D13*%
X58710000Y-56400000D03*
X60290000Y-56400000D03*
%TD*%
D16*
%TO.C,R171*%
X60200000Y-98000000D03*
X60200000Y-99000000D03*
%TD*%
D10*
%TO.C,Q61*%
X96950000Y-64037500D03*
X98850000Y-64037500D03*
X97900000Y-62162500D03*
%TD*%
D17*
%TO.C,D34*%
X59710000Y-108000000D03*
X61290000Y-108000000D03*
%TD*%
D13*
%TO.C,R86*%
X96000000Y-104500000D03*
X95000000Y-104500000D03*
%TD*%
D10*
%TO.C,Q7*%
X66650000Y-62037500D03*
X68550000Y-62037500D03*
X67600000Y-60162500D03*
%TD*%
%TO.C,Q66*%
X85850000Y-58837500D03*
X87750000Y-58837500D03*
X86800000Y-56962500D03*
%TD*%
D16*
%TO.C,R146*%
X60400000Y-46700000D03*
X60400000Y-47700000D03*
%TD*%
D12*
%TO.C,Q175*%
X138062500Y-46750000D03*
X138062500Y-48650000D03*
X139937500Y-47700000D03*
%TD*%
D16*
%TO.C,R14*%
X72000000Y-101400000D03*
X72000000Y-102400000D03*
%TD*%
D17*
%TO.C,D21*%
X45010000Y-56400000D03*
X46590000Y-56400000D03*
%TD*%
D21*
%TO.C,J1*%
X168340000Y-39800000D03*
D22*
X165800000Y-39800000D03*
X168340000Y-42340000D03*
X165800000Y-42340000D03*
X168340000Y-44880000D03*
X165800000Y-44880000D03*
X168340000Y-47420000D03*
X165800000Y-47420000D03*
X168340000Y-49960000D03*
X165800000Y-49960000D03*
X168340000Y-52500000D03*
X165800000Y-52500000D03*
X168340000Y-55040000D03*
X165800000Y-55040000D03*
X168340000Y-57580000D03*
X165800000Y-57580000D03*
%TD*%
D12*
%TO.C,Q243*%
X117062500Y-107750000D03*
X117062500Y-109650000D03*
X118937500Y-108700000D03*
%TD*%
D10*
%TO.C,Q35*%
X82150000Y-36837500D03*
X84050000Y-36837500D03*
X83100000Y-34962500D03*
%TD*%
D11*
%TO.C,R163*%
X142500000Y-58300000D03*
X143500000Y-58300000D03*
%TD*%
%TO.C,R116*%
X122900000Y-105800000D03*
X123900000Y-105800000D03*
%TD*%
D12*
%TO.C,Q311*%
X55662500Y-98550000D03*
X55662500Y-100450000D03*
X57537500Y-99500000D03*
%TD*%
D17*
%TO.C,D15*%
X58710000Y-63800000D03*
X60290000Y-63800000D03*
%TD*%
D10*
%TO.C,Q129*%
X96950000Y-102837500D03*
X98850000Y-102837500D03*
X97900000Y-100962500D03*
%TD*%
D12*
%TO.C,Q240*%
X108662500Y-111450000D03*
X108662500Y-113350000D03*
X110537500Y-112400000D03*
%TD*%
D11*
%TO.C,R62*%
X80700000Y-82500000D03*
X81700000Y-82500000D03*
%TD*%
D10*
%TO.C,Q133*%
X85875000Y-119037500D03*
X87775000Y-119037500D03*
X86825000Y-117162500D03*
%TD*%
D13*
%TO.C,R68*%
X84400000Y-82500000D03*
X83400000Y-82500000D03*
%TD*%
D10*
%TO.C,Q8*%
X70350000Y-62037500D03*
X72250000Y-62037500D03*
X71300000Y-60162500D03*
%TD*%
%TO.C,Q88*%
X85850000Y-86037500D03*
X87750000Y-86037500D03*
X86800000Y-84162500D03*
%TD*%
D17*
%TO.C,D22*%
X45010000Y-60100000D03*
X46590000Y-60100000D03*
%TD*%
D10*
%TO.C,Q97*%
X89550000Y-80837500D03*
X91450000Y-80837500D03*
X90500000Y-78962500D03*
%TD*%
D16*
%TO.C,R149*%
X45600000Y-39300000D03*
X45600000Y-40300000D03*
%TD*%
D13*
%TO.C,R23*%
X79600000Y-38500000D03*
X78600000Y-38500000D03*
%TD*%
D15*
%TO.C,D8*%
X155290000Y-56400000D03*
X153710000Y-56400000D03*
%TD*%
D10*
%TO.C,Q81*%
X85850000Y-69837500D03*
X87750000Y-69837500D03*
X86800000Y-67962500D03*
%TD*%
D12*
%TO.C,Q219*%
X129662500Y-94750000D03*
X129662500Y-96650000D03*
X131537500Y-95700000D03*
%TD*%
%TO.C,Q295*%
X54762500Y-43450000D03*
X54762500Y-45350000D03*
X56637500Y-44400000D03*
%TD*%
D18*
%TO.C,R138*%
X154800000Y-39800000D03*
X154800000Y-38800000D03*
%TD*%
D12*
%TO.C,Q168*%
X121262500Y-50475000D03*
X121262500Y-52375000D03*
X123137500Y-51425000D03*
%TD*%
D11*
%TO.C,R18*%
X80700000Y-38500000D03*
X81700000Y-38500000D03*
%TD*%
D23*
%TO.C,C7*%
X166125000Y-106200000D03*
X168025000Y-106200000D03*
%TD*%
D10*
%TO.C,Q4*%
X66650000Y-51037500D03*
X68550000Y-51037500D03*
X67600000Y-49162500D03*
%TD*%
%TO.C,Q128*%
X93250000Y-102837500D03*
X95150000Y-102837500D03*
X94200000Y-100962500D03*
%TD*%
%TO.C,Q98*%
X93250000Y-80837500D03*
X95150000Y-80837500D03*
X94200000Y-78962500D03*
%TD*%
D17*
%TO.C,D25*%
X59610000Y-96600000D03*
X61190000Y-96600000D03*
%TD*%
D12*
%TO.C,Q155*%
X108662500Y-38450000D03*
X108662500Y-40350000D03*
X110537500Y-39400000D03*
%TD*%
%TO.C,Q190*%
X121262500Y-74450000D03*
X121262500Y-76350000D03*
X123137500Y-75400000D03*
%TD*%
D10*
%TO.C,Q86*%
X78450000Y-86037500D03*
X80350000Y-86037500D03*
X79400000Y-84162500D03*
%TD*%
D18*
%TO.C,R182*%
X154800000Y-58800000D03*
X154800000Y-57800000D03*
%TD*%
%TO.C,R128*%
X153700000Y-32200000D03*
X153700000Y-31200000D03*
%TD*%
D10*
%TO.C,Q53*%
X93250000Y-47837500D03*
X95150000Y-47837500D03*
X94200000Y-45962500D03*
%TD*%
D23*
%TO.C,C5*%
X166125000Y-101400000D03*
X168025000Y-101400000D03*
%TD*%
D13*
%TO.C,R21*%
X101300000Y-38500000D03*
X100300000Y-38500000D03*
%TD*%
D12*
%TO.C,Q245*%
X121262500Y-107750000D03*
X121262500Y-109650000D03*
X123137500Y-108700000D03*
%TD*%
D10*
%TO.C,Q122*%
X100650000Y-108037500D03*
X102550000Y-108037500D03*
X101600000Y-106162500D03*
%TD*%
D11*
%TO.C,R25*%
X85500000Y-38500000D03*
X86500000Y-38500000D03*
%TD*%
D12*
%TO.C,Q258*%
X157200000Y-110350000D03*
X157200000Y-112250000D03*
X159075000Y-111300000D03*
%TD*%
D11*
%TO.C,R93*%
X97100000Y-104500000D03*
X98100000Y-104500000D03*
%TD*%
D14*
%TO.C,C2*%
X47800000Y-121350000D03*
X47800000Y-119450000D03*
%TD*%
D16*
%TO.C,R154*%
X46600000Y-46700000D03*
X46600000Y-47700000D03*
%TD*%
D10*
%TO.C,Q54*%
X96950000Y-47837500D03*
X98850000Y-47837500D03*
X97900000Y-45962500D03*
%TD*%
D12*
%TO.C,Q266*%
X157062500Y-116550000D03*
X157062500Y-118450000D03*
X158937500Y-117500000D03*
%TD*%
D16*
%TO.C,R191*%
X59300000Y-57800000D03*
X59300000Y-58800000D03*
%TD*%
D20*
%TO.C,Q257*%
X154537500Y-112250000D03*
X154537500Y-110350000D03*
X152662500Y-111300000D03*
%TD*%
D12*
%TO.C,Q232*%
X121262500Y-62450000D03*
X121262500Y-64350000D03*
X123137500Y-63400000D03*
%TD*%
D15*
%TO.C,D6*%
X155290000Y-48800000D03*
X153710000Y-48800000D03*
%TD*%
D16*
%TO.C,R4*%
X72000000Y-46400000D03*
X72000000Y-47400000D03*
%TD*%
D11*
%TO.C,R95*%
X80700000Y-115500000D03*
X81700000Y-115500000D03*
%TD*%
D10*
%TO.C,Q119*%
X89550000Y-108037500D03*
X91450000Y-108037500D03*
X90500000Y-106162500D03*
%TD*%
D12*
%TO.C,Q209*%
X108662500Y-94750000D03*
X108662500Y-96650000D03*
X110537500Y-95700000D03*
%TD*%
D10*
%TO.C,Q314*%
X143050000Y-64137500D03*
X144950000Y-64137500D03*
X144000000Y-62262500D03*
%TD*%
D11*
%TO.C,R188*%
X142500000Y-95400000D03*
X143500000Y-95400000D03*
%TD*%
D10*
%TO.C,Q80*%
X82150000Y-69837500D03*
X84050000Y-69837500D03*
X83100000Y-67962500D03*
%TD*%
D12*
%TO.C,Q252*%
X133862500Y-111450000D03*
X133862500Y-113350000D03*
X135737500Y-112400000D03*
%TD*%
D10*
%TO.C,Q115*%
X74750000Y-108037500D03*
X76650000Y-108037500D03*
X75700000Y-106162500D03*
%TD*%
D12*
%TO.C,Q234*%
X125462500Y-62450000D03*
X125462500Y-64350000D03*
X127337500Y-63400000D03*
%TD*%
D10*
%TO.C,Q142*%
X89550000Y-113837500D03*
X91450000Y-113837500D03*
X90500000Y-111962500D03*
%TD*%
D12*
%TO.C,Q241*%
X112862500Y-107750000D03*
X112862500Y-109650000D03*
X114737500Y-108700000D03*
%TD*%
D17*
%TO.C,D35*%
X59647500Y-111800000D03*
X61227500Y-111800000D03*
%TD*%
D16*
%TO.C,R10*%
X72000000Y-79400000D03*
X72000000Y-80400000D03*
%TD*%
D11*
%TO.C,R186*%
X142500000Y-83400000D03*
X143500000Y-83400000D03*
%TD*%
D12*
%TO.C,Q204*%
X133862500Y-86450000D03*
X133862500Y-88350000D03*
X135737500Y-87400000D03*
%TD*%
D23*
%TO.C,C8*%
X166125000Y-108550000D03*
X168025000Y-108550000D03*
%TD*%
D13*
%TO.C,R32*%
X101300000Y-49500000D03*
X100300000Y-49500000D03*
%TD*%
D16*
%TO.C,R170*%
X61300000Y-101800000D03*
X61300000Y-102800000D03*
%TD*%
D10*
%TO.C,Q16*%
X66650000Y-95037500D03*
X68550000Y-95037500D03*
X67600000Y-93162500D03*
%TD*%
D12*
%TO.C,Q263*%
X152762500Y-94350000D03*
X152762500Y-96250000D03*
X154637500Y-95300000D03*
%TD*%
%TO.C,Q310*%
X55662500Y-94750000D03*
X55662500Y-96650000D03*
X57537500Y-95700000D03*
%TD*%
D16*
%TO.C,R143*%
X59300000Y-43000000D03*
X59300000Y-44000000D03*
%TD*%
D11*
%TO.C,R183*%
X142500000Y-70300000D03*
X143500000Y-70300000D03*
%TD*%
D10*
%TO.C,Q71*%
X78450000Y-75037500D03*
X80350000Y-75037500D03*
X79400000Y-73162500D03*
%TD*%
D16*
%TO.C,R155*%
X45500000Y-50400000D03*
X45500000Y-51400000D03*
%TD*%
D11*
%TO.C,R36*%
X85500000Y-49500000D03*
X86500000Y-49500000D03*
%TD*%
D12*
%TO.C,Q188*%
X117062500Y-86450000D03*
X117062500Y-88350000D03*
X118937500Y-87400000D03*
%TD*%
D13*
%TO.C,R61*%
X75400000Y-82500000D03*
X74400000Y-82500000D03*
%TD*%
%TO.C,R123*%
X157600000Y-95600000D03*
X156600000Y-95600000D03*
%TD*%
D10*
%TO.C,Q288*%
X129950000Y-119337500D03*
X131850000Y-119337500D03*
X130900000Y-117462500D03*
%TD*%
%TO.C,Q30*%
X93250000Y-42037500D03*
X95150000Y-42037500D03*
X94200000Y-40162500D03*
%TD*%
%TO.C,Q120*%
X93250000Y-108037500D03*
X95150000Y-108037500D03*
X94200000Y-106162500D03*
%TD*%
%TO.C,Q117*%
X82150000Y-108037500D03*
X84050000Y-108037500D03*
X83100000Y-106162500D03*
%TD*%
%TO.C,Q46*%
X96950000Y-53037500D03*
X98850000Y-53037500D03*
X97900000Y-51162500D03*
%TD*%
%TO.C,Q79*%
X78450000Y-69837500D03*
X80350000Y-69837500D03*
X79400000Y-67962500D03*
%TD*%
D16*
%TO.C,R197*%
X45500000Y-54100000D03*
X45500000Y-55100000D03*
%TD*%
D11*
%TO.C,R77*%
X76500000Y-93500000D03*
X77500000Y-93500000D03*
%TD*%
D16*
%TO.C,R204*%
X46600000Y-65200000D03*
X46600000Y-66200000D03*
%TD*%
D11*
%TO.C,R66*%
X76500000Y-82500000D03*
X77500000Y-82500000D03*
%TD*%
D15*
%TO.C,D1*%
X155290000Y-29800000D03*
X153710000Y-29800000D03*
%TD*%
D17*
%TO.C,D16*%
X58710000Y-67500000D03*
X60290000Y-67500000D03*
%TD*%
D18*
%TO.C,R134*%
X154800000Y-32200000D03*
X154800000Y-31200000D03*
%TD*%
D12*
%TO.C,Q206*%
X138062500Y-74450000D03*
X138062500Y-76350000D03*
X139937500Y-75400000D03*
%TD*%
D16*
%TO.C,R190*%
X60400000Y-54100000D03*
X60400000Y-55100000D03*
%TD*%
D19*
%TO.C,Q283*%
X154450000Y-79462500D03*
X152550000Y-79462500D03*
X153500000Y-81337500D03*
%TD*%
D10*
%TO.C,Q10*%
X66650000Y-73037500D03*
X68550000Y-73037500D03*
X67600000Y-71162500D03*
%TD*%
D15*
%TO.C,D36*%
X42690000Y-119400000D03*
X41110000Y-119400000D03*
%TD*%
D11*
%TO.C,R114*%
X114500000Y-105800000D03*
X115500000Y-105800000D03*
%TD*%
D12*
%TO.C,Q199*%
X129662500Y-82750000D03*
X129662500Y-84650000D03*
X131537500Y-83700000D03*
%TD*%
D11*
%TO.C,R70*%
X91300000Y-82500000D03*
X92300000Y-82500000D03*
%TD*%
D12*
%TO.C,Q214*%
X117062500Y-98450000D03*
X117062500Y-100350000D03*
X118937500Y-99400000D03*
%TD*%
%TO.C,Q223*%
X138062500Y-94750000D03*
X138062500Y-96650000D03*
X139937500Y-95700000D03*
%TD*%
D10*
%TO.C,Q77*%
X100650000Y-75037500D03*
X102550000Y-75037500D03*
X101600000Y-73162500D03*
%TD*%
D16*
%TO.C,R142*%
X60400000Y-39300000D03*
X60400000Y-40300000D03*
%TD*%
D10*
%TO.C,Q28*%
X85850000Y-42037500D03*
X87750000Y-42037500D03*
X86800000Y-40162500D03*
%TD*%
D11*
%TO.C,R115*%
X118700000Y-105800000D03*
X119700000Y-105800000D03*
%TD*%
D12*
%TO.C,Q177*%
X108662500Y-70750000D03*
X108662500Y-72650000D03*
X110537500Y-71700000D03*
%TD*%
%TO.C,Q185*%
X117062500Y-70750000D03*
X117062500Y-72650000D03*
X118937500Y-71700000D03*
%TD*%
D10*
%TO.C,Q14*%
X70350000Y-84037500D03*
X72250000Y-84037500D03*
X71300000Y-82162500D03*
%TD*%
D18*
%TO.C,R127*%
X109100000Y-118900000D03*
X109100000Y-117900000D03*
%TD*%
D16*
%TO.C,R156*%
X46600000Y-50400000D03*
X46600000Y-51400000D03*
%TD*%
D12*
%TO.C,Q218*%
X125462500Y-98450000D03*
X125462500Y-100350000D03*
X127337500Y-99400000D03*
%TD*%
D13*
%TO.C,R34*%
X79600000Y-49500000D03*
X78600000Y-49500000D03*
%TD*%
D10*
%TO.C,Q85*%
X74750000Y-86037500D03*
X76650000Y-86037500D03*
X75700000Y-84162500D03*
%TD*%
D11*
%TO.C,R48*%
X91300000Y-60500000D03*
X92300000Y-60500000D03*
%TD*%
D18*
%TO.C,R169*%
X41800000Y-122200000D03*
X41800000Y-121200000D03*
%TD*%
D10*
%TO.C,Q137*%
X100650000Y-119037500D03*
X102550000Y-119037500D03*
X101600000Y-117162500D03*
%TD*%
%TO.C,Q33*%
X74750000Y-36837500D03*
X76650000Y-36837500D03*
X75700000Y-34962500D03*
%TD*%
D13*
%TO.C,R109*%
X126000000Y-105800000D03*
X125000000Y-105800000D03*
%TD*%
D12*
%TO.C,Q308*%
X41062500Y-61950000D03*
X41062500Y-63850000D03*
X42937500Y-62900000D03*
%TD*%
D13*
%TO.C,R50*%
X75400000Y-71500000D03*
X74400000Y-71500000D03*
%TD*%
D10*
%TO.C,Q313*%
X143050000Y-52137500D03*
X144950000Y-52137500D03*
X144000000Y-50262500D03*
%TD*%
%TO.C,Q109*%
X78450000Y-91837500D03*
X80350000Y-91837500D03*
X79400000Y-89962500D03*
%TD*%
D16*
%TO.C,R147*%
X59300000Y-50400000D03*
X59300000Y-51400000D03*
%TD*%
D12*
%TO.C,Q182*%
X112862500Y-74450000D03*
X112862500Y-76350000D03*
X114737500Y-75400000D03*
%TD*%
%TO.C,Q216*%
X121262500Y-98450000D03*
X121262500Y-100350000D03*
X123137500Y-99400000D03*
%TD*%
D11*
%TO.C,R82*%
X97100000Y-93500000D03*
X98100000Y-93500000D03*
%TD*%
D16*
%TO.C,R15*%
X67000000Y-112400000D03*
X67000000Y-113400000D03*
%TD*%
D10*
%TO.C,Q268*%
X110950000Y-119337500D03*
X112850000Y-119337500D03*
X111900000Y-117462500D03*
%TD*%
D12*
%TO.C,Q300*%
X54762500Y-61950000D03*
X54762500Y-63850000D03*
X56637500Y-62900000D03*
%TD*%
%TO.C,Q233*%
X125462500Y-58750000D03*
X125462500Y-60650000D03*
X127337500Y-59700000D03*
%TD*%
D11*
%TO.C,R118*%
X131300000Y-105800000D03*
X132300000Y-105800000D03*
%TD*%
D18*
%TO.C,R179*%
X153700000Y-55000000D03*
X153700000Y-54000000D03*
%TD*%
D19*
%TO.C,Q18*%
X70450000Y-89962500D03*
X68550000Y-89962500D03*
X69500000Y-91837500D03*
%TD*%
D11*
%TO.C,R185*%
X142500000Y-82300000D03*
X143500000Y-82300000D03*
%TD*%
D12*
%TO.C,Q296*%
X54762500Y-47150000D03*
X54762500Y-49050000D03*
X56637500Y-48100000D03*
%TD*%
D20*
%TO.C,Q261*%
X154537500Y-100850000D03*
X154537500Y-98950000D03*
X152662500Y-99900000D03*
%TD*%
D17*
%TO.C,D17*%
X45010000Y-41600000D03*
X46590000Y-41600000D03*
%TD*%
D12*
%TO.C,Q247*%
X125462500Y-107750000D03*
X125462500Y-109650000D03*
X127337500Y-108700000D03*
%TD*%
D13*
%TO.C,R39*%
X75400000Y-60500000D03*
X74400000Y-60500000D03*
%TD*%
D10*
%TO.C,Q51*%
X85850000Y-47837500D03*
X87750000Y-47837500D03*
X86800000Y-45962500D03*
%TD*%
D16*
%TO.C,R145*%
X59300000Y-46700000D03*
X59300000Y-47700000D03*
%TD*%
D12*
%TO.C,Q264*%
X157062500Y-90650000D03*
X157062500Y-92550000D03*
X158937500Y-91600000D03*
%TD*%
D13*
%TO.C,R19*%
X90200000Y-38500000D03*
X89200000Y-38500000D03*
%TD*%
D11*
%TO.C,R71*%
X97100000Y-82500000D03*
X98100000Y-82500000D03*
%TD*%
%TO.C,R117*%
X127100000Y-105800000D03*
X128100000Y-105800000D03*
%TD*%
D10*
%TO.C,Q69*%
X96950000Y-58837500D03*
X98850000Y-58837500D03*
X97900000Y-56962500D03*
%TD*%
D16*
%TO.C,R173*%
X60200000Y-94200000D03*
X60200000Y-95200000D03*
%TD*%
D10*
%TO.C,Q34*%
X78450000Y-36837500D03*
X80350000Y-36837500D03*
X79400000Y-34962500D03*
%TD*%
D12*
%TO.C,Q205*%
X138062500Y-70750000D03*
X138062500Y-72650000D03*
X139937500Y-71700000D03*
%TD*%
%TO.C,Q221*%
X133862500Y-94750000D03*
X133862500Y-96650000D03*
X135737500Y-95700000D03*
%TD*%
D13*
%TO.C,R31*%
X96000000Y-49500000D03*
X95000000Y-49500000D03*
%TD*%
D10*
%TO.C,Q102*%
X82150000Y-97037500D03*
X84050000Y-97037500D03*
X83100000Y-95162500D03*
%TD*%
D24*
%TO.C,D27*%
X144900000Y-36190000D03*
X144900000Y-34610000D03*
%TD*%
D16*
%TO.C,R167*%
X60200000Y-101800000D03*
X60200000Y-102800000D03*
%TD*%
D10*
%TO.C,Q41*%
X78450000Y-53037500D03*
X80350000Y-53037500D03*
X79400000Y-51162500D03*
%TD*%
D12*
%TO.C,Q154*%
X108662500Y-34750000D03*
X108662500Y-36650000D03*
X110537500Y-35700000D03*
%TD*%
%TO.C,Q158*%
X121262500Y-38450000D03*
X121262500Y-40350000D03*
X123137500Y-39400000D03*
%TD*%
%TO.C,Q262*%
X152762500Y-90650000D03*
X152762500Y-92550000D03*
X154637500Y-91600000D03*
%TD*%
D10*
%TO.C,Q95*%
X82150000Y-80837500D03*
X84050000Y-80837500D03*
X83100000Y-78962500D03*
%TD*%
D16*
%TO.C,R203*%
X45500000Y-65200000D03*
X45500000Y-66200000D03*
%TD*%
D10*
%TO.C,Q22*%
X66650000Y-117037500D03*
X68550000Y-117037500D03*
X67600000Y-115162500D03*
%TD*%
%TO.C,Q106*%
X96950000Y-97037500D03*
X98850000Y-97037500D03*
X97900000Y-95162500D03*
%TD*%
D16*
%TO.C,R3*%
X67000000Y-46400000D03*
X67000000Y-47400000D03*
%TD*%
D12*
%TO.C,Q260*%
X157200000Y-102750000D03*
X157200000Y-104650000D03*
X159075000Y-103700000D03*
%TD*%
D18*
%TO.C,R175*%
X153700000Y-47400000D03*
X153700000Y-46400000D03*
%TD*%
D10*
%TO.C,Q126*%
X85850000Y-102837500D03*
X87750000Y-102837500D03*
X86800000Y-100962500D03*
%TD*%
%TO.C,Q67*%
X89550000Y-58837500D03*
X91450000Y-58837500D03*
X90500000Y-56962500D03*
%TD*%
D13*
%TO.C,R97*%
X96000000Y-115500000D03*
X95000000Y-115500000D03*
%TD*%
D18*
%TO.C,R135*%
X153700000Y-36000000D03*
X153700000Y-35000000D03*
%TD*%
D24*
%TO.C,D28*%
X144900000Y-48190000D03*
X144900000Y-46610000D03*
%TD*%
D10*
%TO.C,Q89*%
X89550000Y-86037500D03*
X91450000Y-86037500D03*
X90500000Y-84162500D03*
%TD*%
D11*
%TO.C,R26*%
X91300000Y-38500000D03*
X92300000Y-38500000D03*
%TD*%
D12*
%TO.C,Q170*%
X125462500Y-50450000D03*
X125462500Y-52350000D03*
X127337500Y-51400000D03*
%TD*%
D11*
%TO.C,R38*%
X97100000Y-49500000D03*
X98100000Y-49500000D03*
%TD*%
D12*
%TO.C,Q217*%
X125462500Y-94750000D03*
X125462500Y-96650000D03*
X127337500Y-95700000D03*
%TD*%
D10*
%TO.C,Q63*%
X74750000Y-58837500D03*
X76650000Y-58837500D03*
X75700000Y-56962500D03*
%TD*%
%TO.C,Q78*%
X74750000Y-69837500D03*
X76650000Y-69837500D03*
X75700000Y-67962500D03*
%TD*%
%TO.C,Q92*%
X100650000Y-86037500D03*
X102550000Y-86037500D03*
X101600000Y-84162500D03*
%TD*%
D12*
%TO.C,Q304*%
X41062500Y-47150000D03*
X41062500Y-49050000D03*
X42937500Y-48100000D03*
%TD*%
%TO.C,Q213*%
X117062500Y-94750000D03*
X117062500Y-96650000D03*
X118937500Y-95700000D03*
%TD*%
D11*
%TO.C,R120*%
X139700000Y-105800000D03*
X140700000Y-105800000D03*
%TD*%
D12*
%TO.C,Q244*%
X117062500Y-111450000D03*
X117062500Y-113350000D03*
X118937500Y-112400000D03*
%TD*%
%TO.C,Q161*%
X133862500Y-38450000D03*
X133862500Y-40350000D03*
X135737500Y-39400000D03*
%TD*%
D10*
%TO.C,Q13*%
X66650000Y-84037500D03*
X68550000Y-84037500D03*
X67600000Y-82162500D03*
%TD*%
D12*
%TO.C,Q159*%
X125462500Y-38450000D03*
X125462500Y-40350000D03*
X127337500Y-39400000D03*
%TD*%
D11*
%TO.C,R40*%
X80700000Y-60500000D03*
X81700000Y-60500000D03*
%TD*%
D12*
%TO.C,Q225*%
X108662500Y-58750000D03*
X108662500Y-60650000D03*
X110537500Y-59700000D03*
%TD*%
D10*
%TO.C,Q45*%
X93250000Y-53037500D03*
X95150000Y-53037500D03*
X94200000Y-51162500D03*
%TD*%
%TO.C,Q25*%
X74750000Y-42037500D03*
X76650000Y-42037500D03*
X75700000Y-40162500D03*
%TD*%
D16*
%TO.C,R121*%
X156437500Y-99200000D03*
X156437500Y-100200000D03*
%TD*%
D10*
%TO.C,Q105*%
X93250000Y-97037500D03*
X95150000Y-97037500D03*
X94200000Y-95162500D03*
%TD*%
D18*
%TO.C,R140*%
X154800000Y-43600000D03*
X154800000Y-42600000D03*
%TD*%
%TO.C,R129*%
X160200000Y-72100000D03*
X160200000Y-71100000D03*
%TD*%
D17*
%TO.C,D33*%
X59647500Y-104200000D03*
X61227500Y-104200000D03*
%TD*%
D12*
%TO.C,Q227*%
X112862500Y-58750000D03*
X112862500Y-60650000D03*
X114737500Y-59700000D03*
%TD*%
D19*
%TO.C,Q15*%
X70450000Y-78962500D03*
X68550000Y-78962500D03*
X69500000Y-80837500D03*
%TD*%
D11*
%TO.C,R81*%
X91300000Y-93500000D03*
X92300000Y-93500000D03*
%TD*%
D16*
%TO.C,R200*%
X46600000Y-57800000D03*
X46600000Y-58800000D03*
%TD*%
D13*
%TO.C,R124*%
X157600000Y-94200000D03*
X156600000Y-94200000D03*
%TD*%
%TO.C,R28*%
X75400000Y-49500000D03*
X74400000Y-49500000D03*
%TD*%
D12*
%TO.C,Q231*%
X121262500Y-58750000D03*
X121262500Y-60650000D03*
X123137500Y-59700000D03*
%TD*%
D13*
%TO.C,R94*%
X75400000Y-115500000D03*
X74400000Y-115500000D03*
%TD*%
D10*
%TO.C,Q83*%
X93250000Y-69837500D03*
X95150000Y-69837500D03*
X94200000Y-67962500D03*
%TD*%
D12*
%TO.C,Q147*%
X138062500Y-34750000D03*
X138062500Y-36650000D03*
X139937500Y-35700000D03*
%TD*%
D10*
%TO.C,Q1*%
X66650000Y-40037500D03*
X68550000Y-40037500D03*
X67600000Y-38162500D03*
%TD*%
%TO.C,Q59*%
X89550000Y-64037500D03*
X91450000Y-64037500D03*
X90500000Y-62162500D03*
%TD*%
D12*
%TO.C,Q299*%
X54762500Y-58250000D03*
X54762500Y-60150000D03*
X56637500Y-59200000D03*
%TD*%
D10*
%TO.C,Q32*%
X100650000Y-42037500D03*
X102550000Y-42037500D03*
X101600000Y-40162500D03*
%TD*%
D18*
%TO.C,R139*%
X153700000Y-43600000D03*
X153700000Y-42600000D03*
%TD*%
D11*
%TO.C,R102*%
X85500000Y-115500000D03*
X86500000Y-115500000D03*
%TD*%
D12*
%TO.C,Q145*%
X108662500Y-46750000D03*
X108662500Y-48650000D03*
X110537500Y-47700000D03*
%TD*%
D10*
%TO.C,Q287*%
X126150000Y-119337500D03*
X128050000Y-119337500D03*
X127100000Y-117462500D03*
%TD*%
D12*
%TO.C,Q200*%
X129662500Y-86450000D03*
X129662500Y-88350000D03*
X131537500Y-87400000D03*
%TD*%
%TO.C,Q226*%
X108662500Y-62450000D03*
X108662500Y-64350000D03*
X110537500Y-63400000D03*
%TD*%
D10*
%TO.C,Q20*%
X70350000Y-106037500D03*
X72250000Y-106037500D03*
X71300000Y-104162500D03*
%TD*%
D18*
%TO.C,R180*%
X154800000Y-55000000D03*
X154800000Y-54000000D03*
%TD*%
D11*
%TO.C,R160*%
X142500000Y-35400000D03*
X143500000Y-35400000D03*
%TD*%
%TO.C,R184*%
X142500000Y-71400000D03*
X143500000Y-71400000D03*
%TD*%
D12*
%TO.C,Q184*%
X112862500Y-86450000D03*
X112862500Y-88350000D03*
X114737500Y-87400000D03*
%TD*%
D10*
%TO.C,Q58*%
X85850000Y-64037500D03*
X87750000Y-64037500D03*
X86800000Y-62162500D03*
%TD*%
%TO.C,Q50*%
X82150000Y-47837500D03*
X84050000Y-47837500D03*
X83100000Y-45962500D03*
%TD*%
D16*
%TO.C,R132*%
X160200000Y-82700000D03*
X160200000Y-83700000D03*
%TD*%
%TO.C,R122*%
X157737500Y-99200000D03*
X157737500Y-100200000D03*
%TD*%
D10*
%TO.C,Q114*%
X96950000Y-91837500D03*
X98850000Y-91837500D03*
X97900000Y-89962500D03*
%TD*%
D12*
%TO.C,Q165*%
X117062500Y-46750000D03*
X117062500Y-48650000D03*
X118937500Y-47700000D03*
%TD*%
D10*
%TO.C,Q70*%
X74750000Y-75037500D03*
X76650000Y-75037500D03*
X75700000Y-73162500D03*
%TD*%
D11*
%TO.C,R104*%
X97100000Y-115500000D03*
X98100000Y-115500000D03*
%TD*%
D10*
%TO.C,Q271*%
X122350000Y-119337500D03*
X124250000Y-119337500D03*
X123300000Y-117462500D03*
%TD*%
%TO.C,Q57*%
X82150000Y-64037500D03*
X84050000Y-64037500D03*
X83100000Y-62162500D03*
%TD*%
%TO.C,Q317*%
X143050000Y-100137500D03*
X144950000Y-100137500D03*
X144000000Y-98262500D03*
%TD*%
D19*
%TO.C,Q21*%
X70450000Y-100962500D03*
X68550000Y-100962500D03*
X69500000Y-102837500D03*
%TD*%
D18*
%TO.C,R178*%
X154800000Y-51200000D03*
X154800000Y-50200000D03*
%TD*%
D12*
%TO.C,Q166*%
X117062500Y-50450000D03*
X117062500Y-52350000D03*
X118937500Y-51400000D03*
%TD*%
D10*
%TO.C,Q140*%
X82150000Y-113837500D03*
X84050000Y-113837500D03*
X83100000Y-111962500D03*
%TD*%
D17*
%TO.C,D19*%
X45010000Y-49000000D03*
X46590000Y-49000000D03*
%TD*%
D13*
%TO.C,R43*%
X101300000Y-60500000D03*
X100300000Y-60500000D03*
%TD*%
D10*
%TO.C,Q141*%
X85850000Y-113837500D03*
X87750000Y-113837500D03*
X86800000Y-111962500D03*
%TD*%
D13*
%TO.C,R74*%
X90200000Y-93500000D03*
X89200000Y-93500000D03*
%TD*%
D12*
%TO.C,Q164*%
X112862500Y-50450000D03*
X112862500Y-52350000D03*
X114737500Y-51400000D03*
%TD*%
D11*
%TO.C,R164*%
X142500000Y-59400000D03*
X143500000Y-59400000D03*
%TD*%
D10*
%TO.C,Q17*%
X70350000Y-95037500D03*
X72250000Y-95037500D03*
X71300000Y-93162500D03*
%TD*%
D13*
%TO.C,R108*%
X121800000Y-105800000D03*
X120800000Y-105800000D03*
%TD*%
D11*
%TO.C,R84*%
X80700000Y-104500000D03*
X81700000Y-104500000D03*
%TD*%
D17*
%TO.C,D24*%
X45010000Y-67500000D03*
X46590000Y-67500000D03*
%TD*%
D12*
%TO.C,Q238*%
X133862500Y-62450000D03*
X133862500Y-64350000D03*
X135737500Y-63400000D03*
%TD*%
%TO.C,Q229*%
X117062500Y-58750000D03*
X117062500Y-60650000D03*
X118937500Y-59700000D03*
%TD*%
%TO.C,Q208*%
X138062500Y-86450000D03*
X138062500Y-88350000D03*
X139937500Y-87400000D03*
%TD*%
%TO.C,Q194*%
X125462500Y-74450000D03*
X125462500Y-76350000D03*
X127337500Y-75400000D03*
%TD*%
D21*
%TO.C,J2*%
X41951000Y-94891000D03*
D22*
X39411000Y-94891000D03*
X41951000Y-97431000D03*
X39411000Y-97431000D03*
X41951000Y-99971000D03*
X39411000Y-99971000D03*
X41951000Y-102511000D03*
X39411000Y-102511000D03*
X41951000Y-105051000D03*
X39411000Y-105051000D03*
X41951000Y-107591000D03*
X39411000Y-107591000D03*
X41951000Y-110131000D03*
X39411000Y-110131000D03*
X41951000Y-112671000D03*
X39411000Y-112671000D03*
%TD*%
D13*
%TO.C,R85*%
X90200000Y-104500000D03*
X89200000Y-104500000D03*
%TD*%
%TO.C,R64*%
X96000000Y-82500000D03*
X95000000Y-82500000D03*
%TD*%
D19*
%TO.C,Q6*%
X70450000Y-45962500D03*
X68550000Y-45962500D03*
X69500000Y-47837500D03*
%TD*%
D10*
%TO.C,Q76*%
X96950000Y-75037500D03*
X98850000Y-75037500D03*
X97900000Y-73162500D03*
%TD*%
%TO.C,Q60*%
X93250000Y-64037500D03*
X95150000Y-64037500D03*
X94200000Y-62162500D03*
%TD*%
%TO.C,Q91*%
X96950000Y-86037500D03*
X98850000Y-86037500D03*
X97900000Y-84162500D03*
%TD*%
D11*
%TO.C,R55*%
X76500000Y-71500000D03*
X77500000Y-71500000D03*
%TD*%
D15*
%TO.C,D4*%
X155290000Y-41200000D03*
X153710000Y-41200000D03*
%TD*%
D12*
%TO.C,Q157*%
X117062500Y-38450000D03*
X117062500Y-40350000D03*
X118937500Y-39400000D03*
%TD*%
D13*
%TO.C,R41*%
X90200000Y-60500000D03*
X89200000Y-60500000D03*
%TD*%
%TO.C,R17*%
X75400000Y-38500000D03*
X74400000Y-38500000D03*
%TD*%
D12*
%TO.C,Q183*%
X112862500Y-82750000D03*
X112862500Y-84650000D03*
X114737500Y-83700000D03*
%TD*%
%TO.C,Q254*%
X138062500Y-111450000D03*
X138062500Y-113350000D03*
X139937500Y-112400000D03*
%TD*%
%TO.C,Q171*%
X129662500Y-46750000D03*
X129662500Y-48650000D03*
X131537500Y-47700000D03*
%TD*%
D10*
%TO.C,Q135*%
X93250000Y-119037500D03*
X95150000Y-119037500D03*
X94200000Y-117162500D03*
%TD*%
D13*
%TO.C,R112*%
X138600000Y-105800000D03*
X137600000Y-105800000D03*
%TD*%
%TO.C,R107*%
X117600000Y-105800000D03*
X116600000Y-105800000D03*
%TD*%
D16*
%TO.C,R153*%
X45500000Y-46700000D03*
X45500000Y-47700000D03*
%TD*%
D11*
%TO.C,R113*%
X110300000Y-105800000D03*
X111300000Y-105800000D03*
%TD*%
D12*
%TO.C,Q298*%
X54762500Y-54550000D03*
X54762500Y-56450000D03*
X56637500Y-55500000D03*
%TD*%
%TO.C,Q248*%
X125462500Y-111450000D03*
X125462500Y-113350000D03*
X127337500Y-112400000D03*
%TD*%
D20*
%TO.C,Q272*%
X159237500Y-35450000D03*
X159237500Y-33550000D03*
X157362500Y-34500000D03*
%TD*%
D10*
%TO.C,Q44*%
X89550000Y-53037500D03*
X91450000Y-53037500D03*
X90500000Y-51162500D03*
%TD*%
%TO.C,Q144*%
X96950000Y-113837500D03*
X98850000Y-113837500D03*
X97900000Y-111962500D03*
%TD*%
D12*
%TO.C,Q222*%
X133862500Y-98450000D03*
X133862500Y-100350000D03*
X135737500Y-99400000D03*
%TD*%
D10*
%TO.C,Q96*%
X85850000Y-80837500D03*
X87750000Y-80837500D03*
X86800000Y-78962500D03*
%TD*%
%TO.C,Q40*%
X74750000Y-53037500D03*
X76650000Y-53037500D03*
X75700000Y-51162500D03*
%TD*%
D12*
%TO.C,Q196*%
X125462500Y-86450000D03*
X125462500Y-88350000D03*
X127337500Y-87400000D03*
%TD*%
D18*
%TO.C,R168*%
X42900000Y-122200000D03*
X42900000Y-121200000D03*
%TD*%
D10*
%TO.C,Q23*%
X70350000Y-117037500D03*
X72250000Y-117037500D03*
X71300000Y-115162500D03*
%TD*%
D12*
%TO.C,Q265*%
X152762500Y-120250000D03*
X152762500Y-122150000D03*
X154637500Y-121200000D03*
%TD*%
D16*
%TO.C,R196*%
X60400000Y-65200000D03*
X60400000Y-66200000D03*
%TD*%
D12*
%TO.C,Q146*%
X108662500Y-50475000D03*
X108662500Y-52375000D03*
X110537500Y-51425000D03*
%TD*%
D19*
%TO.C,Q281*%
X158250000Y-71062500D03*
X156350000Y-71062500D03*
X157300000Y-72937500D03*
%TD*%
D10*
%TO.C,Q47*%
X100650000Y-53037500D03*
X102550000Y-53037500D03*
X101600000Y-51162500D03*
%TD*%
%TO.C,Q108*%
X74750000Y-91837500D03*
X76650000Y-91837500D03*
X75700000Y-89962500D03*
%TD*%
D12*
%TO.C,Q302*%
X41062500Y-39750000D03*
X41062500Y-41650000D03*
X42937500Y-40700000D03*
%TD*%
D13*
%TO.C,R76*%
X101300000Y-93500000D03*
X100300000Y-93500000D03*
%TD*%
D12*
%TO.C,Q307*%
X41062500Y-58250000D03*
X41062500Y-60150000D03*
X42937500Y-59200000D03*
%TD*%
D19*
%TO.C,Q278*%
X154450000Y-66862500D03*
X152550000Y-66862500D03*
X153500000Y-68737500D03*
%TD*%
D24*
%TO.C,D32*%
X144900000Y-96190000D03*
X144900000Y-94610000D03*
%TD*%
D23*
%TO.C,C6*%
X166125000Y-103800000D03*
X168025000Y-103800000D03*
%TD*%
D16*
%TO.C,R7*%
X67000000Y-68400000D03*
X67000000Y-69400000D03*
%TD*%
D17*
%TO.C,D10*%
X58710000Y-45300000D03*
X60290000Y-45300000D03*
%TD*%
D13*
%TO.C,R110*%
X130200000Y-105800000D03*
X129200000Y-105800000D03*
%TD*%
D10*
%TO.C,Q5*%
X70350000Y-51037500D03*
X72250000Y-51037500D03*
X71300000Y-49162500D03*
%TD*%
D11*
%TO.C,R161*%
X142500000Y-46300000D03*
X143500000Y-46300000D03*
%TD*%
D10*
%TO.C,Q123*%
X74750000Y-102837500D03*
X76650000Y-102837500D03*
X75700000Y-100962500D03*
%TD*%
D19*
%TO.C,Q284*%
X154450000Y-75262500D03*
X152550000Y-75262500D03*
X153500000Y-77137500D03*
%TD*%
D10*
%TO.C,Q90*%
X93250000Y-86037500D03*
X95150000Y-86037500D03*
X94200000Y-84162500D03*
%TD*%
%TO.C,Q11*%
X70350000Y-73037500D03*
X72250000Y-73037500D03*
X71300000Y-71162500D03*
%TD*%
%TO.C,Q143*%
X93250000Y-113837500D03*
X95150000Y-113837500D03*
X94200000Y-111962500D03*
%TD*%
D13*
%TO.C,R100*%
X79600000Y-115500000D03*
X78600000Y-115500000D03*
%TD*%
D16*
%TO.C,R12*%
X72000000Y-90400000D03*
X72000000Y-91400000D03*
%TD*%
D18*
%TO.C,R136*%
X154800000Y-36000000D03*
X154800000Y-35000000D03*
%TD*%
D12*
%TO.C,Q319*%
X55762500Y-106250000D03*
X55762500Y-108150000D03*
X57637500Y-107200000D03*
%TD*%
D13*
%TO.C,R53*%
X96000000Y-71500000D03*
X95000000Y-71500000D03*
%TD*%
D24*
%TO.C,D31*%
X144900000Y-84190000D03*
X144900000Y-82610000D03*
%TD*%
D11*
%TO.C,R47*%
X85500000Y-60500000D03*
X86500000Y-60500000D03*
%TD*%
D12*
%TO.C,Q151*%
X121262500Y-34750000D03*
X121262500Y-36650000D03*
X123137500Y-35700000D03*
%TD*%
D10*
%TO.C,Q74*%
X89550000Y-75037500D03*
X91450000Y-75037500D03*
X90500000Y-73162500D03*
%TD*%
%TO.C,Q139*%
X78450000Y-113837500D03*
X80350000Y-113837500D03*
X79400000Y-111962500D03*
%TD*%
%TO.C,Q37*%
X89550000Y-36837500D03*
X91450000Y-36837500D03*
X90500000Y-34962500D03*
%TD*%
D16*
%TO.C,R199*%
X45500000Y-57800000D03*
X45500000Y-58800000D03*
%TD*%
D19*
%TO.C,Q285*%
X154450000Y-71062500D03*
X152550000Y-71062500D03*
X153500000Y-72937500D03*
%TD*%
D12*
%TO.C,Q211*%
X112862500Y-94750000D03*
X112862500Y-96650000D03*
X114737500Y-95700000D03*
%TD*%
D10*
%TO.C,Q82*%
X89550000Y-69837500D03*
X91450000Y-69837500D03*
X90500000Y-67962500D03*
%TD*%
D12*
%TO.C,Q189*%
X121262500Y-70750000D03*
X121262500Y-72650000D03*
X123137500Y-71700000D03*
%TD*%
%TO.C,Q201*%
X133862500Y-70750000D03*
X133862500Y-72650000D03*
X135737500Y-71700000D03*
%TD*%
%TO.C,Q207*%
X138062500Y-82750000D03*
X138062500Y-84650000D03*
X139937500Y-83700000D03*
%TD*%
D13*
%TO.C,R96*%
X90200000Y-115500000D03*
X89200000Y-115500000D03*
%TD*%
D16*
%TO.C,R141*%
X59300000Y-39300000D03*
X59300000Y-40300000D03*
%TD*%
D12*
%TO.C,Q163*%
X112862500Y-46750000D03*
X112862500Y-48650000D03*
X114737500Y-47700000D03*
%TD*%
%TO.C,Q242*%
X112862500Y-111450000D03*
X112862500Y-113350000D03*
X114737500Y-112400000D03*
%TD*%
D16*
%TO.C,R172*%
X61300000Y-98000000D03*
X61300000Y-99000000D03*
%TD*%
D12*
%TO.C,Q305*%
X41062500Y-50850000D03*
X41062500Y-52750000D03*
X42937500Y-51800000D03*
%TD*%
D20*
%TO.C,Q292*%
X159237500Y-54450000D03*
X159237500Y-52550000D03*
X157362500Y-53500000D03*
%TD*%
D10*
%TO.C,Q269*%
X114750000Y-119337500D03*
X116650000Y-119337500D03*
X115700000Y-117462500D03*
%TD*%
D12*
%TO.C,Q259*%
X157200000Y-106550000D03*
X157200000Y-108450000D03*
X159075000Y-107500000D03*
%TD*%
D20*
%TO.C,Q276*%
X159237500Y-46850000D03*
X159237500Y-44950000D03*
X157362500Y-45900000D03*
%TD*%
D12*
%TO.C,Q210*%
X108662500Y-98450000D03*
X108662500Y-100350000D03*
X110537500Y-99400000D03*
%TD*%
%TO.C,Q191*%
X121262500Y-82750000D03*
X121262500Y-84650000D03*
X123137500Y-83700000D03*
%TD*%
%TO.C,Q203*%
X133762500Y-82750000D03*
X133762500Y-84650000D03*
X135637500Y-83700000D03*
%TD*%
D20*
%TO.C,Q256*%
X154537500Y-108450000D03*
X154537500Y-106550000D03*
X152662500Y-107500000D03*
%TD*%
D11*
%TO.C,R187*%
X142500000Y-94300000D03*
X143500000Y-94300000D03*
%TD*%
D10*
%TO.C,Q65*%
X82150000Y-58837500D03*
X84050000Y-58837500D03*
X83100000Y-56962500D03*
%TD*%
D13*
%TO.C,R46*%
X84400000Y-60500000D03*
X83400000Y-60500000D03*
%TD*%
D12*
%TO.C,Q297*%
X54762500Y-50850000D03*
X54762500Y-52750000D03*
X56637500Y-51800000D03*
%TD*%
D13*
%TO.C,R126*%
X157600000Y-120100000D03*
X156600000Y-120100000D03*
%TD*%
D11*
%TO.C,R69*%
X85500000Y-82500000D03*
X86500000Y-82500000D03*
%TD*%
D10*
%TO.C,Q49*%
X78450000Y-47837500D03*
X80350000Y-47837500D03*
X79400000Y-45962500D03*
%TD*%
%TO.C,Q121*%
X96950000Y-108037500D03*
X98850000Y-108037500D03*
X97900000Y-106162500D03*
%TD*%
D17*
%TO.C,D9*%
X58710000Y-41600000D03*
X60290000Y-41600000D03*
%TD*%
D18*
%TO.C,R176*%
X154800000Y-47400000D03*
X154800000Y-46400000D03*
%TD*%
D15*
%TO.C,D5*%
X155290000Y-45000000D03*
X153710000Y-45000000D03*
%TD*%
D13*
%TO.C,R87*%
X101300000Y-104500000D03*
X100300000Y-104500000D03*
%TD*%
D12*
%TO.C,Q152*%
X117062500Y-34750000D03*
X117062500Y-36650000D03*
X118937500Y-35700000D03*
%TD*%
D10*
%TO.C,Q87*%
X82150000Y-86037500D03*
X84050000Y-86037500D03*
X83100000Y-84162500D03*
%TD*%
D12*
%TO.C,Q180*%
X108662500Y-86450000D03*
X108662500Y-88350000D03*
X110537500Y-87400000D03*
%TD*%
D13*
%TO.C,R111*%
X134400000Y-105800000D03*
X133400000Y-105800000D03*
%TD*%
D16*
%TO.C,R195*%
X59300000Y-65200000D03*
X59300000Y-66200000D03*
%TD*%
D13*
%TO.C,R35*%
X84400000Y-49500000D03*
X83400000Y-49500000D03*
%TD*%
D12*
%TO.C,Q212*%
X112862500Y-98450000D03*
X112862500Y-100350000D03*
X114737500Y-99400000D03*
%TD*%
%TO.C,Q237*%
X133862500Y-58750000D03*
X133862500Y-60650000D03*
X135737500Y-59700000D03*
%TD*%
D19*
%TO.C,Q12*%
X70450000Y-67962500D03*
X68550000Y-67962500D03*
X69500000Y-69837500D03*
%TD*%
D13*
%TO.C,R63*%
X90200000Y-82500000D03*
X89200000Y-82500000D03*
%TD*%
D20*
%TO.C,Q274*%
X159237500Y-39250000D03*
X159237500Y-37350000D03*
X157362500Y-38300000D03*
%TD*%
D10*
%TO.C,Q38*%
X93250000Y-36837500D03*
X95150000Y-36837500D03*
X94200000Y-34962500D03*
%TD*%
D15*
%TO.C,D7*%
X155290000Y-52600000D03*
X153710000Y-52600000D03*
%TD*%
D12*
%TO.C,Q309*%
X41062500Y-65650000D03*
X41062500Y-67550000D03*
X42937500Y-66600000D03*
%TD*%
%TO.C,Q250*%
X129662500Y-111450000D03*
X129662500Y-113350000D03*
X131537500Y-112400000D03*
%TD*%
D16*
%TO.C,R8*%
X72000000Y-68400000D03*
X72000000Y-69400000D03*
%TD*%
D17*
%TO.C,D18*%
X45010000Y-45300000D03*
X46590000Y-45300000D03*
%TD*%
D10*
%TO.C,Q75*%
X93250000Y-75037500D03*
X95150000Y-75037500D03*
X94200000Y-73162500D03*
%TD*%
%TO.C,Q64*%
X78450000Y-58837500D03*
X80350000Y-58837500D03*
X79400000Y-56962500D03*
%TD*%
D19*
%TO.C,Q3*%
X70450000Y-34962500D03*
X68550000Y-34962500D03*
X69500000Y-36837500D03*
%TD*%
D10*
%TO.C,Q111*%
X85850000Y-91837500D03*
X87750000Y-91837500D03*
X86800000Y-89962500D03*
%TD*%
D21*
%TO.C,J4*%
X56500000Y-121675000D03*
D22*
X56500000Y-119135000D03*
%TD*%
D16*
%TO.C,R202*%
X46600000Y-61500000D03*
X46600000Y-62500000D03*
%TD*%
D10*
%TO.C,Q113*%
X93250000Y-91837500D03*
X95150000Y-91837500D03*
X94200000Y-89962500D03*
%TD*%
D12*
%TO.C,Q235*%
X129662500Y-58750000D03*
X129662500Y-60650000D03*
X131537500Y-59700000D03*
%TD*%
D10*
%TO.C,Q43*%
X85850000Y-53037500D03*
X87750000Y-53037500D03*
X86800000Y-51162500D03*
%TD*%
%TO.C,Q110*%
X82150000Y-91837500D03*
X84050000Y-91837500D03*
X83100000Y-89962500D03*
%TD*%
D13*
%TO.C,R131*%
X154500000Y-87500000D03*
X153500000Y-87500000D03*
%TD*%
D12*
%TO.C,Q267*%
X152762500Y-116550000D03*
X152762500Y-118450000D03*
X154637500Y-117500000D03*
%TD*%
D16*
%TO.C,R201*%
X45500000Y-61500000D03*
X45500000Y-62500000D03*
%TD*%
D10*
%TO.C,Q31*%
X96950000Y-42037500D03*
X98850000Y-42037500D03*
X97900000Y-40162500D03*
%TD*%
D12*
%TO.C,Q228*%
X112862500Y-62450000D03*
X112862500Y-64350000D03*
X114737500Y-63400000D03*
%TD*%
D13*
%TO.C,R83*%
X75400000Y-104500000D03*
X74400000Y-104500000D03*
%TD*%
D11*
%TO.C,R58*%
X85500000Y-71500000D03*
X86500000Y-71500000D03*
%TD*%
D10*
%TO.C,Q100*%
X74750000Y-97037500D03*
X76650000Y-97037500D03*
X75700000Y-95162500D03*
%TD*%
D13*
%TO.C,R67*%
X79600000Y-82500000D03*
X78600000Y-82500000D03*
%TD*%
D12*
%TO.C,Q318*%
X55662500Y-102350000D03*
X55662500Y-104250000D03*
X57537500Y-103300000D03*
%TD*%
D19*
%TO.C,Q282*%
X154450000Y-83662500D03*
X152550000Y-83662500D03*
X153500000Y-85537500D03*
%TD*%
D11*
%TO.C,R49*%
X97100000Y-60500000D03*
X98100000Y-60500000D03*
%TD*%
D12*
%TO.C,Q160*%
X129662500Y-38450000D03*
X129662500Y-40350000D03*
X131537500Y-39400000D03*
%TD*%
D10*
%TO.C,Q55*%
X74750000Y-64037500D03*
X76650000Y-64037500D03*
X75700000Y-62162500D03*
%TD*%
D13*
%TO.C,R105*%
X109200000Y-105800000D03*
X108200000Y-105800000D03*
%TD*%
D12*
%TO.C,Q230*%
X117062500Y-62450000D03*
X117062500Y-64350000D03*
X118937500Y-63400000D03*
%TD*%
D13*
%TO.C,R24*%
X84400000Y-38500000D03*
X83400000Y-38500000D03*
%TD*%
D10*
%TO.C,Q131*%
X78450000Y-119037500D03*
X80350000Y-119037500D03*
X79400000Y-117162500D03*
%TD*%
D16*
%TO.C,R6*%
X72000000Y-57400000D03*
X72000000Y-58400000D03*
%TD*%
%TO.C,R194*%
X60400000Y-61500000D03*
X60400000Y-62500000D03*
%TD*%
D11*
%TO.C,R60*%
X97100000Y-71500000D03*
X98100000Y-71500000D03*
%TD*%
%TO.C,R44*%
X76500000Y-60500000D03*
X77500000Y-60500000D03*
%TD*%
D13*
%TO.C,R57*%
X84400000Y-71500000D03*
X83400000Y-71500000D03*
%TD*%
D11*
%TO.C,R37*%
X91300000Y-49500000D03*
X92300000Y-49500000D03*
%TD*%
D12*
%TO.C,Q294*%
X54762500Y-39750000D03*
X54762500Y-41650000D03*
X56637500Y-40700000D03*
%TD*%
%TO.C,Q153*%
X112862500Y-34750000D03*
X112862500Y-36650000D03*
X114737500Y-35700000D03*
%TD*%
D10*
%TO.C,Q52*%
X89550000Y-47837500D03*
X91450000Y-47837500D03*
X90500000Y-45962500D03*
%TD*%
D19*
%TO.C,Q286*%
X158250000Y-83662500D03*
X156350000Y-83662500D03*
X157300000Y-85537500D03*
%TD*%
D15*
%TO.C,D2*%
X155290000Y-33600000D03*
X153710000Y-33600000D03*
%TD*%
D18*
%TO.C,R181*%
X153700000Y-58800000D03*
X153700000Y-57800000D03*
%TD*%
D20*
%TO.C,Q255*%
X154537500Y-104650000D03*
X154537500Y-102750000D03*
X152662500Y-103700000D03*
%TD*%
D10*
%TO.C,Q72*%
X82150000Y-75037500D03*
X84050000Y-75037500D03*
X83100000Y-73162500D03*
%TD*%
D16*
%TO.C,R158*%
X61300000Y-109400000D03*
X61300000Y-110400000D03*
%TD*%
D17*
%TO.C,D20*%
X45010000Y-52700000D03*
X46590000Y-52700000D03*
%TD*%
D11*
%TO.C,R27*%
X97100000Y-38500000D03*
X98100000Y-38500000D03*
%TD*%
D14*
%TO.C,C4*%
X52600000Y-121350000D03*
X52600000Y-119450000D03*
%TD*%
D12*
%TO.C,Q195*%
X125462500Y-82750000D03*
X125462500Y-84650000D03*
X127337500Y-83700000D03*
%TD*%
%TO.C,Q156*%
X112862500Y-38450000D03*
X112862500Y-40350000D03*
X114737500Y-39400000D03*
%TD*%
%TO.C,Q187*%
X117062500Y-82750000D03*
X117062500Y-84650000D03*
X118937500Y-83700000D03*
%TD*%
D16*
%TO.C,R174*%
X61300000Y-94200000D03*
X61300000Y-95200000D03*
%TD*%
D21*
%TO.C,J3*%
X59475000Y-33990000D03*
D22*
X59475000Y-31450000D03*
X56935000Y-33990000D03*
X56935000Y-31450000D03*
X54395000Y-33990000D03*
X54395000Y-31450000D03*
X51855000Y-33990000D03*
X51855000Y-31450000D03*
X49315000Y-33990000D03*
X49315000Y-31450000D03*
X46775000Y-33990000D03*
X46775000Y-31450000D03*
X44235000Y-33990000D03*
X44235000Y-31450000D03*
X41695000Y-33990000D03*
X41695000Y-31450000D03*
%TD*%
D10*
%TO.C,Q27*%
X82150000Y-42037500D03*
X84050000Y-42037500D03*
X83100000Y-40162500D03*
%TD*%
%TO.C,Q103*%
X85850000Y-97037500D03*
X87750000Y-97037500D03*
X86800000Y-95162500D03*
%TD*%
D11*
%TO.C,R92*%
X91300000Y-104500000D03*
X92300000Y-104500000D03*
%TD*%
D16*
%TO.C,R189*%
X59300000Y-54100000D03*
X59300000Y-55100000D03*
%TD*%
D12*
%TO.C,Q173*%
X133862500Y-46750000D03*
X133862500Y-48650000D03*
X135737500Y-47700000D03*
%TD*%
D10*
%TO.C,Q130*%
X74750000Y-119037500D03*
X76650000Y-119037500D03*
X75700000Y-117162500D03*
%TD*%
D12*
%TO.C,Q301*%
X54762500Y-65650000D03*
X54762500Y-67550000D03*
X56637500Y-66600000D03*
%TD*%
D13*
%TO.C,R65*%
X101300000Y-82500000D03*
X100300000Y-82500000D03*
%TD*%
D12*
%TO.C,Q193*%
X125462500Y-70750000D03*
X125462500Y-72650000D03*
X127337500Y-71700000D03*
%TD*%
D17*
%TO.C,D23*%
X45010000Y-63800000D03*
X46590000Y-63800000D03*
%TD*%
D19*
%TO.C,Q9*%
X70450000Y-56962500D03*
X68550000Y-56962500D03*
X69500000Y-58837500D03*
%TD*%
D10*
%TO.C,Q289*%
X133750000Y-119337500D03*
X135650000Y-119337500D03*
X134700000Y-117462500D03*
%TD*%
%TO.C,Q93*%
X74750000Y-80837500D03*
X76650000Y-80837500D03*
X75700000Y-78962500D03*
%TD*%
D11*
%TO.C,R119*%
X135500000Y-105800000D03*
X136500000Y-105800000D03*
%TD*%
D16*
%TO.C,R144*%
X60400000Y-43000000D03*
X60400000Y-44000000D03*
%TD*%
D12*
%TO.C,Q148*%
X133862500Y-34750000D03*
X133862500Y-36650000D03*
X135737500Y-35700000D03*
%TD*%
D10*
%TO.C,Q270*%
X118550000Y-119337500D03*
X120450000Y-119337500D03*
X119500000Y-117462500D03*
%TD*%
D16*
%TO.C,R13*%
X67000000Y-101400000D03*
X67000000Y-102400000D03*
%TD*%
%TO.C,R166*%
X61300000Y-105600000D03*
X61300000Y-106600000D03*
%TD*%
D11*
%TO.C,R99*%
X76500000Y-115500000D03*
X77500000Y-115500000D03*
%TD*%
D16*
%TO.C,R11*%
X67000000Y-90400000D03*
X67000000Y-91400000D03*
%TD*%
%TO.C,R1*%
X67000000Y-35400000D03*
X67000000Y-36400000D03*
%TD*%
D10*
%TO.C,Q68*%
X93250000Y-58837500D03*
X95150000Y-58837500D03*
X94200000Y-56962500D03*
%TD*%
D19*
%TO.C,Q279*%
X158250000Y-79462500D03*
X156350000Y-79462500D03*
X157300000Y-81337500D03*
%TD*%
D13*
%TO.C,R52*%
X90200000Y-71500000D03*
X89200000Y-71500000D03*
%TD*%
D12*
%TO.C,Q150*%
X125462500Y-34750000D03*
X125462500Y-36650000D03*
X127337500Y-35700000D03*
%TD*%
D13*
%TO.C,R45*%
X79600000Y-60500000D03*
X78600000Y-60500000D03*
%TD*%
D16*
%TO.C,R165*%
X60200000Y-105600000D03*
X60200000Y-106600000D03*
%TD*%
%TO.C,R5*%
X67000000Y-57400000D03*
X67000000Y-58400000D03*
%TD*%
D13*
%TO.C,R79*%
X84400000Y-93500000D03*
X83400000Y-93500000D03*
%TD*%
%TO.C,R98*%
X101300000Y-115500000D03*
X100300000Y-115500000D03*
%TD*%
D10*
%TO.C,Q316*%
X143050000Y-88137500D03*
X144950000Y-88137500D03*
X144000000Y-86262500D03*
%TD*%
D19*
%TO.C,Q24*%
X70450000Y-111962500D03*
X68550000Y-111962500D03*
X69500000Y-113837500D03*
%TD*%
D14*
%TO.C,C1*%
X45700000Y-121350000D03*
X45700000Y-119450000D03*
%TD*%
D12*
%TO.C,Q179*%
X108662500Y-82750000D03*
X108662500Y-84650000D03*
X110537500Y-83700000D03*
%TD*%
D13*
%TO.C,R106*%
X113400000Y-105800000D03*
X112400000Y-105800000D03*
%TD*%
D12*
%TO.C,Q169*%
X125462500Y-46750000D03*
X125462500Y-48650000D03*
X127337500Y-47700000D03*
%TD*%
D10*
%TO.C,Q134*%
X89550000Y-119037500D03*
X91450000Y-119037500D03*
X90500000Y-117162500D03*
%TD*%
%TO.C,Q36*%
X85850000Y-36837500D03*
X87750000Y-36837500D03*
X86800000Y-34962500D03*
%TD*%
D12*
%TO.C,Q320*%
X55662500Y-109950000D03*
X55662500Y-111850000D03*
X57537500Y-110900000D03*
%TD*%
D10*
%TO.C,Q127*%
X89550000Y-102837500D03*
X91450000Y-102837500D03*
X90500000Y-100962500D03*
%TD*%
%TO.C,Q84*%
X96950000Y-69837500D03*
X98850000Y-69837500D03*
X97900000Y-67962500D03*
%TD*%
D12*
%TO.C,Q181*%
X112862500Y-70750000D03*
X112862500Y-72650000D03*
X114737500Y-71700000D03*
%TD*%
%TO.C,Q224*%
X138062500Y-98450000D03*
X138062500Y-100350000D03*
X139937500Y-99400000D03*
%TD*%
D17*
%TO.C,D26*%
X59610000Y-100400000D03*
X61190000Y-100400000D03*
%TD*%
D19*
%TO.C,Q280*%
X158250000Y-75262500D03*
X156350000Y-75262500D03*
X157300000Y-77137500D03*
%TD*%
D12*
%TO.C,Q172*%
X129662500Y-50450000D03*
X129662500Y-52350000D03*
X131537500Y-51400000D03*
%TD*%
D10*
%TO.C,Q290*%
X137550000Y-119337500D03*
X139450000Y-119337500D03*
X138500000Y-117462500D03*
%TD*%
%TO.C,Q101*%
X78450000Y-97037500D03*
X80350000Y-97037500D03*
X79400000Y-95162500D03*
%TD*%
D11*
%TO.C,R103*%
X91300000Y-115500000D03*
X92300000Y-115500000D03*
%TD*%
D13*
%TO.C,R72*%
X75400000Y-93500000D03*
X74400000Y-93500000D03*
%TD*%
D11*
%TO.C,R162*%
X142500000Y-47400000D03*
X143500000Y-47400000D03*
%TD*%
D16*
%TO.C,R151*%
X45500000Y-43000000D03*
X45500000Y-44000000D03*
%TD*%
D18*
%TO.C,R177*%
X153700000Y-51200000D03*
X153700000Y-50200000D03*
%TD*%
D11*
%TO.C,R51*%
X80700000Y-71500000D03*
X81700000Y-71500000D03*
%TD*%
D12*
%TO.C,Q186*%
X117062500Y-74450000D03*
X117062500Y-76350000D03*
X118937500Y-75400000D03*
%TD*%
%TO.C,Q202*%
X133862500Y-74450000D03*
X133862500Y-76350000D03*
X135737500Y-75400000D03*
%TD*%
D10*
%TO.C,Q56*%
X78450000Y-64037500D03*
X80350000Y-64037500D03*
X79400000Y-62162500D03*
%TD*%
D12*
%TO.C,Q253*%
X138062500Y-107750000D03*
X138062500Y-109650000D03*
X139937500Y-108700000D03*
%TD*%
D13*
%TO.C,R89*%
X79600000Y-104500000D03*
X78600000Y-104500000D03*
%TD*%
D10*
%TO.C,Q136*%
X96950000Y-119037500D03*
X98850000Y-119037500D03*
X97900000Y-117162500D03*
%TD*%
D16*
%TO.C,R150*%
X46600000Y-39300000D03*
X46600000Y-40300000D03*
%TD*%
D24*
%TO.C,D30*%
X144900000Y-72190000D03*
X144900000Y-70610000D03*
%TD*%
D11*
%TO.C,R59*%
X91300000Y-71500000D03*
X92300000Y-71500000D03*
%TD*%
D16*
%TO.C,R192*%
X60400000Y-57800000D03*
X60400000Y-58800000D03*
%TD*%
D12*
%TO.C,Q176*%
X138062500Y-50450000D03*
X138062500Y-52350000D03*
X139937500Y-51400000D03*
%TD*%
D10*
%TO.C,Q124*%
X78425000Y-102837500D03*
X80325000Y-102837500D03*
X79375000Y-100962500D03*
%TD*%
%TO.C,Q42*%
X82150000Y-53037500D03*
X84050000Y-53037500D03*
X83100000Y-51162500D03*
%TD*%
D13*
%TO.C,R78*%
X79600000Y-93500000D03*
X78600000Y-93500000D03*
%TD*%
D12*
%TO.C,Q178*%
X108662500Y-74450000D03*
X108662500Y-76350000D03*
X110537500Y-75400000D03*
%TD*%
D10*
%TO.C,Q112*%
X89550000Y-91837500D03*
X91450000Y-91837500D03*
X90500000Y-89962500D03*
%TD*%
D20*
%TO.C,Q293*%
X159237500Y-58250000D03*
X159237500Y-56350000D03*
X157362500Y-57300000D03*
%TD*%
D12*
%TO.C,Q197*%
X129662500Y-70750000D03*
X129662500Y-72650000D03*
X131537500Y-71700000D03*
%TD*%
D10*
%TO.C,Q315*%
X143050000Y-76137500D03*
X144950000Y-76137500D03*
X144000000Y-74262500D03*
%TD*%
%TO.C,Q99*%
X96950000Y-80837500D03*
X98850000Y-80837500D03*
X97900000Y-78962500D03*
%TD*%
D12*
%TO.C,Q251*%
X133862500Y-107750000D03*
X133862500Y-109650000D03*
X135737500Y-108700000D03*
%TD*%
D18*
%TO.C,R137*%
X153700000Y-39800000D03*
X153700000Y-38800000D03*
%TD*%
D10*
%TO.C,Q62*%
X100650000Y-64037500D03*
X102550000Y-64037500D03*
X101600000Y-62162500D03*
%TD*%
%TO.C,Q29*%
X89550000Y-42037500D03*
X91450000Y-42037500D03*
X90500000Y-40162500D03*
%TD*%
D17*
%TO.C,D12*%
X58710000Y-52700000D03*
X60290000Y-52700000D03*
%TD*%
D16*
%TO.C,R198*%
X46600000Y-54100000D03*
X46600000Y-55100000D03*
%TD*%
D10*
%TO.C,Q132*%
X82150000Y-119037500D03*
X84050000Y-119037500D03*
X83100000Y-117162500D03*
%TD*%
%TO.C,Q19*%
X66650000Y-106037500D03*
X68550000Y-106037500D03*
X67600000Y-104162500D03*
%TD*%
D12*
%TO.C,Q220*%
X129662500Y-98450000D03*
X129662500Y-100350000D03*
X131537500Y-99400000D03*
%TD*%
D13*
%TO.C,R101*%
X84400000Y-115500000D03*
X83400000Y-115500000D03*
%TD*%
D20*
%TO.C,Q273*%
X159237500Y-31650000D03*
X159237500Y-29750000D03*
X157362500Y-30700000D03*
%TD*%
D11*
%TO.C,R133*%
X156300000Y-87500000D03*
X157300000Y-87500000D03*
%TD*%
D16*
%TO.C,R157*%
X60200000Y-109400000D03*
X60200000Y-110400000D03*
%TD*%
D12*
%TO.C,Q246*%
X121262500Y-111450000D03*
X121262500Y-113350000D03*
X123137500Y-112400000D03*
%TD*%
D13*
%TO.C,R90*%
X84400000Y-104500000D03*
X83400000Y-104500000D03*
%TD*%
D20*
%TO.C,Q291*%
X159237500Y-50650000D03*
X159237500Y-48750000D03*
X157362500Y-49700000D03*
%TD*%
D12*
%TO.C,Q306*%
X41062500Y-54550000D03*
X41062500Y-56450000D03*
X42937500Y-55500000D03*
%TD*%
D24*
%TO.C,D29*%
X144900000Y-60190000D03*
X144900000Y-58610000D03*
%TD*%
M02*
