%TF.GenerationSoftware,KiCad,Pcbnew,9.0.7*%
%TF.CreationDate,2026-02-12T15:24:35+01:00*%
%TF.ProjectId,REG8bit-SMD-V4.2,52454738-6269-4742-9d53-4d442d56342e,rev?*%
%TF.SameCoordinates,Original*%
%TF.FileFunction,Legend,Top*%
%TF.FilePolarity,Positive*%
%FSLAX46Y46*%
G04 Gerber Fmt 4.6, Leading zero omitted, Abs format (unit mm)*
G04 Created by KiCad (PCBNEW 9.0.7) date 2026-02-12 15:24:35*
%MOMM*%
%LPD*%
G01*
G04 APERTURE LIST*
G04 Aperture macros list*
%AMRoundRect*
0 Rectangle with rounded corners*
0 $1 Rounding radius*
0 $2 $3 $4 $5 $6 $7 $8 $9 X,Y pos of 4 corners*
0 Add a 4 corners polygon primitive as box body*
4,1,4,$2,$3,$4,$5,$6,$7,$8,$9,$2,$3,0*
0 Add four circle primitives for the rounded corners*
1,1,$1+$1,$2,$3*
1,1,$1+$1,$4,$5*
1,1,$1+$1,$6,$7*
1,1,$1+$1,$8,$9*
0 Add four rect primitives between the rounded corners*
20,1,$1+$1,$2,$3,$4,$5,0*
20,1,$1+$1,$4,$5,$6,$7,0*
20,1,$1+$1,$6,$7,$8,$9,0*
20,1,$1+$1,$8,$9,$2,$3,0*%
G04 Aperture macros list end*
%ADD10C,0.100000*%
%ADD11C,0.300000*%
%ADD12C,0.200000*%
%ADD13C,0.125000*%
%ADD14C,0.150000*%
%ADD15C,0.250000*%
%ADD16C,0.120000*%
%ADD17C,0.000000*%
%ADD18RoundRect,0.150000X0.587500X0.150000X-0.587500X0.150000X-0.587500X-0.150000X0.587500X-0.150000X0*%
%ADD19RoundRect,0.159000X-0.159000X-0.189000X0.159000X-0.189000X0.159000X0.189000X-0.159000X0.189000X0*%
%ADD20RoundRect,0.219000X0.294000X-0.219000X0.294000X0.219000X-0.294000X0.219000X-0.294000X-0.219000X0*%
%ADD21RoundRect,0.159000X0.159000X0.189000X-0.159000X0.189000X-0.159000X-0.189000X0.159000X-0.189000X0*%
%ADD22RoundRect,0.269000X0.494000X-0.269000X0.494000X0.269000X-0.494000X0.269000X-0.494000X-0.269000X0*%
%ADD23RoundRect,0.150000X0.150000X-0.587500X0.150000X0.587500X-0.150000X0.587500X-0.150000X-0.587500X0*%
%ADD24RoundRect,0.239000X0.274000X-0.239000X0.274000X0.239000X-0.274000X0.239000X-0.274000X-0.239000X0*%
%ADD25RoundRect,0.159000X0.189000X-0.159000X0.189000X0.159000X-0.189000X0.159000X-0.189000X-0.159000X0*%
%ADD26R,1.700000X1.700000*%
%ADD27C,1.700000*%
%ADD28RoundRect,0.219000X-0.294000X0.219000X-0.294000X-0.219000X0.294000X-0.219000X0.294000X0.219000X0*%
%ADD29RoundRect,0.239000X0.239000X0.274000X-0.239000X0.274000X-0.239000X-0.274000X0.239000X-0.274000X0*%
%ADD30RoundRect,0.219000X-0.219000X-0.294000X0.219000X-0.294000X0.219000X0.294000X-0.219000X0.294000X0*%
G04 APERTURE END LIST*
D10*
X111300000Y-130000000D02*
X120300000Y-130000000D01*
X75300000Y-134000000D02*
X66300000Y-134000000D01*
X120300000Y-134000000D02*
X111300000Y-134000000D01*
D11*
X111300000Y-124700000D02*
X120300000Y-124700000D01*
X120300000Y-146000000D01*
X111300000Y-146000000D01*
X111300000Y-124700000D01*
X84300000Y-124700000D02*
X93300000Y-124700000D01*
X93300000Y-146000000D01*
X84300000Y-146000000D01*
X84300000Y-124700000D01*
X110900000Y-153650000D02*
X110900000Y-149350000D01*
X93300000Y-124700000D02*
X102300000Y-124700000D01*
X102300000Y-146000000D01*
X93300000Y-146000000D01*
X93300000Y-124700000D01*
D10*
X48300000Y-141900000D02*
X57300000Y-141900000D01*
X70800000Y-153500000D02*
X70800000Y-150900000D01*
D11*
X70700000Y-153500000D02*
X70700000Y-149200000D01*
D10*
X48300000Y-130000000D02*
X57300000Y-130000000D01*
D11*
X57300000Y-124700000D02*
X66300000Y-124700000D01*
X66300000Y-146000000D01*
X57300000Y-146000000D01*
X57300000Y-124700000D01*
D10*
X97800000Y-141900000D02*
X97800000Y-134000000D01*
X75300000Y-130000000D02*
X84300000Y-130000000D01*
X115800000Y-141900000D02*
X115800000Y-134000000D01*
D11*
X90700000Y-153700000D02*
X90700000Y-149400000D01*
D10*
X106800000Y-141900000D02*
X106800000Y-134000000D01*
X75300000Y-141900000D02*
X84300000Y-141900000D01*
X84300000Y-134000000D02*
X75300000Y-134000000D01*
X52800000Y-141900000D02*
X52800000Y-134000000D01*
X93300000Y-130000000D02*
X102300000Y-130000000D01*
X88800000Y-141900000D02*
X88800000Y-134000000D01*
X111300000Y-134000000D02*
X102300000Y-134000000D01*
D11*
X75300000Y-124700000D02*
X84300000Y-124700000D01*
X84300000Y-146000000D01*
X75300000Y-146000000D01*
X75300000Y-124700000D01*
D10*
X57300000Y-130000000D02*
X66300000Y-130000000D01*
X66300000Y-130000000D02*
X75300000Y-130000000D01*
X90800000Y-153750000D02*
X90800000Y-150450000D01*
X102300000Y-130000000D02*
X111300000Y-130000000D01*
X111300000Y-141900000D02*
X120300000Y-141900000D01*
X57300000Y-134000000D02*
X48300000Y-134000000D01*
X102300000Y-141900000D02*
X111300000Y-141900000D01*
X70800000Y-141900000D02*
X70800000Y-134000000D01*
X61800000Y-141900000D02*
X61800000Y-134000000D01*
X66300000Y-134000000D02*
X57300000Y-134000000D01*
X93300000Y-134000000D02*
X84300000Y-134000000D01*
X93300000Y-141900000D02*
X102300000Y-141900000D01*
X84300000Y-130000000D02*
X93300000Y-130000000D01*
D11*
X48300000Y-124700000D02*
X57300000Y-124700000D01*
X57300000Y-146000000D01*
X48300000Y-146000000D01*
X48300000Y-124700000D01*
D10*
X57300000Y-141900000D02*
X66300000Y-141900000D01*
D11*
X102300000Y-124700000D02*
X111300000Y-124700000D01*
X111300000Y-146000000D01*
X102300000Y-146000000D01*
X102300000Y-124700000D01*
D10*
X84300000Y-141900000D02*
X93300000Y-141900000D01*
X102300000Y-134000000D02*
X93300000Y-134000000D01*
X66300000Y-141900000D02*
X75300000Y-141900000D01*
D11*
X66300000Y-124700000D02*
X75300000Y-124700000D01*
X75300000Y-146000000D01*
X66300000Y-146000000D01*
X66300000Y-124700000D01*
D10*
X79800000Y-141900000D02*
X79800000Y-134000000D01*
D12*
X79775863Y-125251028D02*
X80704435Y-125251028D01*
X80704435Y-125251028D02*
X80204435Y-125822457D01*
X80204435Y-125822457D02*
X80418720Y-125822457D01*
X80418720Y-125822457D02*
X80561578Y-125893885D01*
X80561578Y-125893885D02*
X80633006Y-125965314D01*
X80633006Y-125965314D02*
X80704435Y-126108171D01*
X80704435Y-126108171D02*
X80704435Y-126465314D01*
X80704435Y-126465314D02*
X80633006Y-126608171D01*
X80633006Y-126608171D02*
X80561578Y-126679600D01*
X80561578Y-126679600D02*
X80418720Y-126751028D01*
X80418720Y-126751028D02*
X79990149Y-126751028D01*
X79990149Y-126751028D02*
X79847292Y-126679600D01*
X79847292Y-126679600D02*
X79775863Y-126608171D01*
D10*
X103233609Y-138615163D02*
X102733609Y-138615163D01*
X102733609Y-138615163D02*
X103233609Y-138329449D01*
X103233609Y-138329449D02*
X102733609Y-138329449D01*
X102733609Y-137996115D02*
X102733609Y-137900877D01*
X102733609Y-137900877D02*
X102757419Y-137853258D01*
X102757419Y-137853258D02*
X102805038Y-137805639D01*
X102805038Y-137805639D02*
X102900276Y-137781829D01*
X102900276Y-137781829D02*
X103066942Y-137781829D01*
X103066942Y-137781829D02*
X103162180Y-137805639D01*
X103162180Y-137805639D02*
X103209800Y-137853258D01*
X103209800Y-137853258D02*
X103233609Y-137900877D01*
X103233609Y-137900877D02*
X103233609Y-137996115D01*
X103233609Y-137996115D02*
X103209800Y-138043734D01*
X103209800Y-138043734D02*
X103162180Y-138091353D01*
X103162180Y-138091353D02*
X103066942Y-138115162D01*
X103066942Y-138115162D02*
X102900276Y-138115162D01*
X102900276Y-138115162D02*
X102805038Y-138091353D01*
X102805038Y-138091353D02*
X102757419Y-138043734D01*
X102757419Y-138043734D02*
X102733609Y-137996115D01*
X103233609Y-137281829D02*
X102995514Y-137448495D01*
X103233609Y-137567543D02*
X102733609Y-137567543D01*
X102733609Y-137567543D02*
X102733609Y-137377067D01*
X102733609Y-137377067D02*
X102757419Y-137329448D01*
X102757419Y-137329448D02*
X102781228Y-137305638D01*
X102781228Y-137305638D02*
X102828847Y-137281829D01*
X102828847Y-137281829D02*
X102900276Y-137281829D01*
X102900276Y-137281829D02*
X102947895Y-137305638D01*
X102947895Y-137305638D02*
X102971704Y-137329448D01*
X102971704Y-137329448D02*
X102995514Y-137377067D01*
X102995514Y-137377067D02*
X102995514Y-137567543D01*
X71733609Y-138815163D02*
X71233609Y-138815163D01*
X71233609Y-138815163D02*
X71733609Y-138529449D01*
X71733609Y-138529449D02*
X71233609Y-138529449D01*
X71590752Y-138315162D02*
X71590752Y-138077067D01*
X71733609Y-138362781D02*
X71233609Y-138196115D01*
X71233609Y-138196115D02*
X71733609Y-138029448D01*
X71733609Y-137862782D02*
X71233609Y-137862782D01*
X71233609Y-137862782D02*
X71733609Y-137577068D01*
X71733609Y-137577068D02*
X71233609Y-137577068D01*
X71733609Y-137338972D02*
X71233609Y-137338972D01*
X71233609Y-137338972D02*
X71233609Y-137219924D01*
X71233609Y-137219924D02*
X71257419Y-137148496D01*
X71257419Y-137148496D02*
X71305038Y-137100877D01*
X71305038Y-137100877D02*
X71352657Y-137077067D01*
X71352657Y-137077067D02*
X71447895Y-137053258D01*
X71447895Y-137053258D02*
X71519323Y-137053258D01*
X71519323Y-137053258D02*
X71614561Y-137077067D01*
X71614561Y-137077067D02*
X71662180Y-137100877D01*
X71662180Y-137100877D02*
X71709800Y-137148496D01*
X71709800Y-137148496D02*
X71733609Y-137219924D01*
X71733609Y-137219924D02*
X71733609Y-137338972D01*
D13*
X91916521Y-151771119D02*
X92057474Y-151771119D01*
X92057474Y-151771119D02*
X92198426Y-151818738D01*
X92198426Y-151818738D02*
X92268902Y-151866357D01*
X92268902Y-151866357D02*
X92339378Y-151961595D01*
X92339378Y-151961595D02*
X92409855Y-152152071D01*
X92409855Y-152152071D02*
X92409855Y-152390166D01*
X92409855Y-152390166D02*
X92339378Y-152580642D01*
X92339378Y-152580642D02*
X92268902Y-152675880D01*
X92268902Y-152675880D02*
X92198426Y-152723500D01*
X92198426Y-152723500D02*
X92057474Y-152771119D01*
X92057474Y-152771119D02*
X91916521Y-152771119D01*
X91916521Y-152771119D02*
X91775569Y-152723500D01*
X91775569Y-152723500D02*
X91705093Y-152675880D01*
X91705093Y-152675880D02*
X91634616Y-152580642D01*
X91634616Y-152580642D02*
X91564140Y-152390166D01*
X91564140Y-152390166D02*
X91564140Y-152152071D01*
X91564140Y-152152071D02*
X91634616Y-151961595D01*
X91634616Y-151961595D02*
X91705093Y-151866357D01*
X91705093Y-151866357D02*
X91775569Y-151818738D01*
X91775569Y-151818738D02*
X91916521Y-151771119D01*
X94946998Y-152771119D02*
X94101283Y-152771119D01*
X94524140Y-152771119D02*
X94524140Y-151771119D01*
X94524140Y-151771119D02*
X94383188Y-151913976D01*
X94383188Y-151913976D02*
X94242236Y-152009214D01*
X94242236Y-152009214D02*
X94101283Y-152056833D01*
X96638426Y-151866357D02*
X96708902Y-151818738D01*
X96708902Y-151818738D02*
X96849855Y-151771119D01*
X96849855Y-151771119D02*
X97202236Y-151771119D01*
X97202236Y-151771119D02*
X97343188Y-151818738D01*
X97343188Y-151818738D02*
X97413664Y-151866357D01*
X97413664Y-151866357D02*
X97484141Y-151961595D01*
X97484141Y-151961595D02*
X97484141Y-152056833D01*
X97484141Y-152056833D02*
X97413664Y-152199690D01*
X97413664Y-152199690D02*
X96567950Y-152771119D01*
X96567950Y-152771119D02*
X97484141Y-152771119D01*
X99105093Y-151771119D02*
X100021284Y-151771119D01*
X100021284Y-151771119D02*
X99527950Y-152152071D01*
X99527950Y-152152071D02*
X99739379Y-152152071D01*
X99739379Y-152152071D02*
X99880331Y-152199690D01*
X99880331Y-152199690D02*
X99950807Y-152247309D01*
X99950807Y-152247309D02*
X100021284Y-152342547D01*
X100021284Y-152342547D02*
X100021284Y-152580642D01*
X100021284Y-152580642D02*
X99950807Y-152675880D01*
X99950807Y-152675880D02*
X99880331Y-152723500D01*
X99880331Y-152723500D02*
X99739379Y-152771119D01*
X99739379Y-152771119D02*
X99316522Y-152771119D01*
X99316522Y-152771119D02*
X99175569Y-152723500D01*
X99175569Y-152723500D02*
X99105093Y-152675880D01*
X102417474Y-152104452D02*
X102417474Y-152771119D01*
X102065093Y-151723500D02*
X101712712Y-152437785D01*
X101712712Y-152437785D02*
X102628903Y-152437785D01*
X105025093Y-151771119D02*
X104320331Y-151771119D01*
X104320331Y-151771119D02*
X104249855Y-152247309D01*
X104249855Y-152247309D02*
X104320331Y-152199690D01*
X104320331Y-152199690D02*
X104461284Y-152152071D01*
X104461284Y-152152071D02*
X104813665Y-152152071D01*
X104813665Y-152152071D02*
X104954617Y-152199690D01*
X104954617Y-152199690D02*
X105025093Y-152247309D01*
X105025093Y-152247309D02*
X105095570Y-152342547D01*
X105095570Y-152342547D02*
X105095570Y-152580642D01*
X105095570Y-152580642D02*
X105025093Y-152675880D01*
X105025093Y-152675880D02*
X104954617Y-152723500D01*
X104954617Y-152723500D02*
X104813665Y-152771119D01*
X104813665Y-152771119D02*
X104461284Y-152771119D01*
X104461284Y-152771119D02*
X104320331Y-152723500D01*
X104320331Y-152723500D02*
X104249855Y-152675880D01*
X107491760Y-151771119D02*
X107209855Y-151771119D01*
X107209855Y-151771119D02*
X107068903Y-151818738D01*
X107068903Y-151818738D02*
X106998427Y-151866357D01*
X106998427Y-151866357D02*
X106857474Y-152009214D01*
X106857474Y-152009214D02*
X106786998Y-152199690D01*
X106786998Y-152199690D02*
X106786998Y-152580642D01*
X106786998Y-152580642D02*
X106857474Y-152675880D01*
X106857474Y-152675880D02*
X106927951Y-152723500D01*
X106927951Y-152723500D02*
X107068903Y-152771119D01*
X107068903Y-152771119D02*
X107350808Y-152771119D01*
X107350808Y-152771119D02*
X107491760Y-152723500D01*
X107491760Y-152723500D02*
X107562236Y-152675880D01*
X107562236Y-152675880D02*
X107632713Y-152580642D01*
X107632713Y-152580642D02*
X107632713Y-152342547D01*
X107632713Y-152342547D02*
X107562236Y-152247309D01*
X107562236Y-152247309D02*
X107491760Y-152199690D01*
X107491760Y-152199690D02*
X107350808Y-152152071D01*
X107350808Y-152152071D02*
X107068903Y-152152071D01*
X107068903Y-152152071D02*
X106927951Y-152199690D01*
X106927951Y-152199690D02*
X106857474Y-152247309D01*
X106857474Y-152247309D02*
X106786998Y-152342547D01*
X109253665Y-151771119D02*
X110240332Y-151771119D01*
X110240332Y-151771119D02*
X109606046Y-152771119D01*
D12*
X86012530Y-150249600D02*
X86298244Y-150344838D01*
X86298244Y-150344838D02*
X86774435Y-150344838D01*
X86774435Y-150344838D02*
X86964911Y-150249600D01*
X86964911Y-150249600D02*
X87060149Y-150154361D01*
X87060149Y-150154361D02*
X87155387Y-149963885D01*
X87155387Y-149963885D02*
X87155387Y-149773409D01*
X87155387Y-149773409D02*
X87060149Y-149582933D01*
X87060149Y-149582933D02*
X86964911Y-149487695D01*
X86964911Y-149487695D02*
X86774435Y-149392457D01*
X86774435Y-149392457D02*
X86393482Y-149297219D01*
X86393482Y-149297219D02*
X86203006Y-149201980D01*
X86203006Y-149201980D02*
X86107768Y-149106742D01*
X86107768Y-149106742D02*
X86012530Y-148916266D01*
X86012530Y-148916266D02*
X86012530Y-148725790D01*
X86012530Y-148725790D02*
X86107768Y-148535314D01*
X86107768Y-148535314D02*
X86203006Y-148440076D01*
X86203006Y-148440076D02*
X86393482Y-148344838D01*
X86393482Y-148344838D02*
X86869673Y-148344838D01*
X86869673Y-148344838D02*
X87155387Y-148440076D01*
X88583959Y-148344838D02*
X88583959Y-149773409D01*
X88583959Y-149773409D02*
X88488720Y-150059123D01*
X88488720Y-150059123D02*
X88298244Y-150249600D01*
X88298244Y-150249600D02*
X88012530Y-150344838D01*
X88012530Y-150344838D02*
X87822054Y-150344838D01*
D10*
X79484836Y-143033609D02*
X79484836Y-142533609D01*
X79484836Y-142533609D02*
X79770550Y-143033609D01*
X79770550Y-143033609D02*
X79770550Y-142533609D01*
X80103884Y-142533609D02*
X80199122Y-142533609D01*
X80199122Y-142533609D02*
X80246741Y-142557419D01*
X80246741Y-142557419D02*
X80294360Y-142605038D01*
X80294360Y-142605038D02*
X80318170Y-142700276D01*
X80318170Y-142700276D02*
X80318170Y-142866942D01*
X80318170Y-142866942D02*
X80294360Y-142962180D01*
X80294360Y-142962180D02*
X80246741Y-143009800D01*
X80246741Y-143009800D02*
X80199122Y-143033609D01*
X80199122Y-143033609D02*
X80103884Y-143033609D01*
X80103884Y-143033609D02*
X80056265Y-143009800D01*
X80056265Y-143009800D02*
X80008646Y-142962180D01*
X80008646Y-142962180D02*
X79984837Y-142866942D01*
X79984837Y-142866942D02*
X79984837Y-142700276D01*
X79984837Y-142700276D02*
X80008646Y-142605038D01*
X80008646Y-142605038D02*
X80056265Y-142557419D01*
X80056265Y-142557419D02*
X80103884Y-142533609D01*
X80818170Y-143033609D02*
X80651504Y-142795514D01*
X80532456Y-143033609D02*
X80532456Y-142533609D01*
X80532456Y-142533609D02*
X80722932Y-142533609D01*
X80722932Y-142533609D02*
X80770551Y-142557419D01*
X80770551Y-142557419D02*
X80794361Y-142581228D01*
X80794361Y-142581228D02*
X80818170Y-142628847D01*
X80818170Y-142628847D02*
X80818170Y-142700276D01*
X80818170Y-142700276D02*
X80794361Y-142747895D01*
X80794361Y-142747895D02*
X80770551Y-142771704D01*
X80770551Y-142771704D02*
X80722932Y-142795514D01*
X80722932Y-142795514D02*
X80532456Y-142795514D01*
X70584836Y-133333609D02*
X70584836Y-132833609D01*
X70584836Y-132833609D02*
X70751503Y-133190752D01*
X70751503Y-133190752D02*
X70918169Y-132833609D01*
X70918169Y-132833609D02*
X70918169Y-133333609D01*
X71156265Y-133071704D02*
X71322932Y-133071704D01*
X71394360Y-133333609D02*
X71156265Y-133333609D01*
X71156265Y-133333609D02*
X71156265Y-132833609D01*
X71156265Y-132833609D02*
X71394360Y-132833609D01*
X71608646Y-133333609D02*
X71608646Y-132833609D01*
X71608646Y-132833609D02*
X71775313Y-133190752D01*
X71775313Y-133190752D02*
X71941979Y-132833609D01*
X71941979Y-132833609D02*
X71941979Y-133333609D01*
X116733609Y-138815163D02*
X116233609Y-138815163D01*
X116233609Y-138815163D02*
X116733609Y-138529449D01*
X116733609Y-138529449D02*
X116233609Y-138529449D01*
X116590752Y-138315162D02*
X116590752Y-138077067D01*
X116733609Y-138362781D02*
X116233609Y-138196115D01*
X116233609Y-138196115D02*
X116733609Y-138029448D01*
X116733609Y-137862782D02*
X116233609Y-137862782D01*
X116233609Y-137862782D02*
X116733609Y-137577068D01*
X116733609Y-137577068D02*
X116233609Y-137577068D01*
X116733609Y-137338972D02*
X116233609Y-137338972D01*
X116233609Y-137338972D02*
X116233609Y-137219924D01*
X116233609Y-137219924D02*
X116257419Y-137148496D01*
X116257419Y-137148496D02*
X116305038Y-137100877D01*
X116305038Y-137100877D02*
X116352657Y-137077067D01*
X116352657Y-137077067D02*
X116447895Y-137053258D01*
X116447895Y-137053258D02*
X116519323Y-137053258D01*
X116519323Y-137053258D02*
X116614561Y-137077067D01*
X116614561Y-137077067D02*
X116662180Y-137100877D01*
X116662180Y-137100877D02*
X116709800Y-137148496D01*
X116709800Y-137148496D02*
X116733609Y-137219924D01*
X116733609Y-137219924D02*
X116733609Y-137338972D01*
X112233609Y-138615163D02*
X111733609Y-138615163D01*
X111733609Y-138615163D02*
X112233609Y-138329449D01*
X112233609Y-138329449D02*
X111733609Y-138329449D01*
X111733609Y-137996115D02*
X111733609Y-137900877D01*
X111733609Y-137900877D02*
X111757419Y-137853258D01*
X111757419Y-137853258D02*
X111805038Y-137805639D01*
X111805038Y-137805639D02*
X111900276Y-137781829D01*
X111900276Y-137781829D02*
X112066942Y-137781829D01*
X112066942Y-137781829D02*
X112162180Y-137805639D01*
X112162180Y-137805639D02*
X112209800Y-137853258D01*
X112209800Y-137853258D02*
X112233609Y-137900877D01*
X112233609Y-137900877D02*
X112233609Y-137996115D01*
X112233609Y-137996115D02*
X112209800Y-138043734D01*
X112209800Y-138043734D02*
X112162180Y-138091353D01*
X112162180Y-138091353D02*
X112066942Y-138115162D01*
X112066942Y-138115162D02*
X111900276Y-138115162D01*
X111900276Y-138115162D02*
X111805038Y-138091353D01*
X111805038Y-138091353D02*
X111757419Y-138043734D01*
X111757419Y-138043734D02*
X111733609Y-137996115D01*
X112233609Y-137281829D02*
X111995514Y-137448495D01*
X112233609Y-137567543D02*
X111733609Y-137567543D01*
X111733609Y-137567543D02*
X111733609Y-137377067D01*
X111733609Y-137377067D02*
X111757419Y-137329448D01*
X111757419Y-137329448D02*
X111781228Y-137305638D01*
X111781228Y-137305638D02*
X111828847Y-137281829D01*
X111828847Y-137281829D02*
X111900276Y-137281829D01*
X111900276Y-137281829D02*
X111947895Y-137305638D01*
X111947895Y-137305638D02*
X111971704Y-137329448D01*
X111971704Y-137329448D02*
X111995514Y-137377067D01*
X111995514Y-137377067D02*
X111995514Y-137567543D01*
D13*
X71516521Y-151771119D02*
X71657474Y-151771119D01*
X71657474Y-151771119D02*
X71798426Y-151818738D01*
X71798426Y-151818738D02*
X71868902Y-151866357D01*
X71868902Y-151866357D02*
X71939378Y-151961595D01*
X71939378Y-151961595D02*
X72009855Y-152152071D01*
X72009855Y-152152071D02*
X72009855Y-152390166D01*
X72009855Y-152390166D02*
X71939378Y-152580642D01*
X71939378Y-152580642D02*
X71868902Y-152675880D01*
X71868902Y-152675880D02*
X71798426Y-152723500D01*
X71798426Y-152723500D02*
X71657474Y-152771119D01*
X71657474Y-152771119D02*
X71516521Y-152771119D01*
X71516521Y-152771119D02*
X71375569Y-152723500D01*
X71375569Y-152723500D02*
X71305093Y-152675880D01*
X71305093Y-152675880D02*
X71234616Y-152580642D01*
X71234616Y-152580642D02*
X71164140Y-152390166D01*
X71164140Y-152390166D02*
X71164140Y-152152071D01*
X71164140Y-152152071D02*
X71234616Y-151961595D01*
X71234616Y-151961595D02*
X71305093Y-151866357D01*
X71305093Y-151866357D02*
X71375569Y-151818738D01*
X71375569Y-151818738D02*
X71516521Y-151771119D01*
X74546998Y-152771119D02*
X73701283Y-152771119D01*
X74124140Y-152771119D02*
X74124140Y-151771119D01*
X74124140Y-151771119D02*
X73983188Y-151913976D01*
X73983188Y-151913976D02*
X73842236Y-152009214D01*
X73842236Y-152009214D02*
X73701283Y-152056833D01*
X76238426Y-151866357D02*
X76308902Y-151818738D01*
X76308902Y-151818738D02*
X76449855Y-151771119D01*
X76449855Y-151771119D02*
X76802236Y-151771119D01*
X76802236Y-151771119D02*
X76943188Y-151818738D01*
X76943188Y-151818738D02*
X77013664Y-151866357D01*
X77013664Y-151866357D02*
X77084141Y-151961595D01*
X77084141Y-151961595D02*
X77084141Y-152056833D01*
X77084141Y-152056833D02*
X77013664Y-152199690D01*
X77013664Y-152199690D02*
X76167950Y-152771119D01*
X76167950Y-152771119D02*
X77084141Y-152771119D01*
X78705093Y-151771119D02*
X79621284Y-151771119D01*
X79621284Y-151771119D02*
X79127950Y-152152071D01*
X79127950Y-152152071D02*
X79339379Y-152152071D01*
X79339379Y-152152071D02*
X79480331Y-152199690D01*
X79480331Y-152199690D02*
X79550807Y-152247309D01*
X79550807Y-152247309D02*
X79621284Y-152342547D01*
X79621284Y-152342547D02*
X79621284Y-152580642D01*
X79621284Y-152580642D02*
X79550807Y-152675880D01*
X79550807Y-152675880D02*
X79480331Y-152723500D01*
X79480331Y-152723500D02*
X79339379Y-152771119D01*
X79339379Y-152771119D02*
X78916522Y-152771119D01*
X78916522Y-152771119D02*
X78775569Y-152723500D01*
X78775569Y-152723500D02*
X78705093Y-152675880D01*
X82017474Y-152104452D02*
X82017474Y-152771119D01*
X81665093Y-151723500D02*
X81312712Y-152437785D01*
X81312712Y-152437785D02*
X82228903Y-152437785D01*
X84625093Y-151771119D02*
X83920331Y-151771119D01*
X83920331Y-151771119D02*
X83849855Y-152247309D01*
X83849855Y-152247309D02*
X83920331Y-152199690D01*
X83920331Y-152199690D02*
X84061284Y-152152071D01*
X84061284Y-152152071D02*
X84413665Y-152152071D01*
X84413665Y-152152071D02*
X84554617Y-152199690D01*
X84554617Y-152199690D02*
X84625093Y-152247309D01*
X84625093Y-152247309D02*
X84695570Y-152342547D01*
X84695570Y-152342547D02*
X84695570Y-152580642D01*
X84695570Y-152580642D02*
X84625093Y-152675880D01*
X84625093Y-152675880D02*
X84554617Y-152723500D01*
X84554617Y-152723500D02*
X84413665Y-152771119D01*
X84413665Y-152771119D02*
X84061284Y-152771119D01*
X84061284Y-152771119D02*
X83920331Y-152723500D01*
X83920331Y-152723500D02*
X83849855Y-152675880D01*
X87091760Y-151771119D02*
X86809855Y-151771119D01*
X86809855Y-151771119D02*
X86668903Y-151818738D01*
X86668903Y-151818738D02*
X86598427Y-151866357D01*
X86598427Y-151866357D02*
X86457474Y-152009214D01*
X86457474Y-152009214D02*
X86386998Y-152199690D01*
X86386998Y-152199690D02*
X86386998Y-152580642D01*
X86386998Y-152580642D02*
X86457474Y-152675880D01*
X86457474Y-152675880D02*
X86527951Y-152723500D01*
X86527951Y-152723500D02*
X86668903Y-152771119D01*
X86668903Y-152771119D02*
X86950808Y-152771119D01*
X86950808Y-152771119D02*
X87091760Y-152723500D01*
X87091760Y-152723500D02*
X87162236Y-152675880D01*
X87162236Y-152675880D02*
X87232713Y-152580642D01*
X87232713Y-152580642D02*
X87232713Y-152342547D01*
X87232713Y-152342547D02*
X87162236Y-152247309D01*
X87162236Y-152247309D02*
X87091760Y-152199690D01*
X87091760Y-152199690D02*
X86950808Y-152152071D01*
X86950808Y-152152071D02*
X86668903Y-152152071D01*
X86668903Y-152152071D02*
X86527951Y-152199690D01*
X86527951Y-152199690D02*
X86457474Y-152247309D01*
X86457474Y-152247309D02*
X86386998Y-152342547D01*
X88853665Y-151771119D02*
X89840332Y-151771119D01*
X89840332Y-151771119D02*
X89206046Y-152771119D01*
D10*
X98132455Y-151072419D02*
X98132455Y-150072419D01*
X98132455Y-151024800D02*
X98037217Y-151072419D01*
X98037217Y-151072419D02*
X97846741Y-151072419D01*
X97846741Y-151072419D02*
X97751503Y-151024800D01*
X97751503Y-151024800D02*
X97703884Y-150977180D01*
X97703884Y-150977180D02*
X97656265Y-150881942D01*
X97656265Y-150881942D02*
X97656265Y-150596228D01*
X97656265Y-150596228D02*
X97703884Y-150500990D01*
X97703884Y-150500990D02*
X97751503Y-150453371D01*
X97751503Y-150453371D02*
X97846741Y-150405752D01*
X97846741Y-150405752D02*
X98037217Y-150405752D01*
X98037217Y-150405752D02*
X98132455Y-150453371D01*
X99037217Y-151072419D02*
X99037217Y-150548609D01*
X99037217Y-150548609D02*
X98989598Y-150453371D01*
X98989598Y-150453371D02*
X98894360Y-150405752D01*
X98894360Y-150405752D02*
X98703884Y-150405752D01*
X98703884Y-150405752D02*
X98608646Y-150453371D01*
X99037217Y-151024800D02*
X98941979Y-151072419D01*
X98941979Y-151072419D02*
X98703884Y-151072419D01*
X98703884Y-151072419D02*
X98608646Y-151024800D01*
X98608646Y-151024800D02*
X98561027Y-150929561D01*
X98561027Y-150929561D02*
X98561027Y-150834323D01*
X98561027Y-150834323D02*
X98608646Y-150739085D01*
X98608646Y-150739085D02*
X98703884Y-150691466D01*
X98703884Y-150691466D02*
X98941979Y-150691466D01*
X98941979Y-150691466D02*
X99037217Y-150643847D01*
X99370551Y-150405752D02*
X99751503Y-150405752D01*
X99513408Y-150072419D02*
X99513408Y-150929561D01*
X99513408Y-150929561D02*
X99561027Y-151024800D01*
X99561027Y-151024800D02*
X99656265Y-151072419D01*
X99656265Y-151072419D02*
X99751503Y-151072419D01*
X100513408Y-151072419D02*
X100513408Y-150548609D01*
X100513408Y-150548609D02*
X100465789Y-150453371D01*
X100465789Y-150453371D02*
X100370551Y-150405752D01*
X100370551Y-150405752D02*
X100180075Y-150405752D01*
X100180075Y-150405752D02*
X100084837Y-150453371D01*
X100513408Y-151024800D02*
X100418170Y-151072419D01*
X100418170Y-151072419D02*
X100180075Y-151072419D01*
X100180075Y-151072419D02*
X100084837Y-151024800D01*
X100084837Y-151024800D02*
X100037218Y-150929561D01*
X100037218Y-150929561D02*
X100037218Y-150834323D01*
X100037218Y-150834323D02*
X100084837Y-150739085D01*
X100084837Y-150739085D02*
X100180075Y-150691466D01*
X100180075Y-150691466D02*
X100418170Y-150691466D01*
X100418170Y-150691466D02*
X100513408Y-150643847D01*
X101894361Y-151072419D02*
X101799123Y-151024800D01*
X101799123Y-151024800D02*
X101751504Y-150977180D01*
X101751504Y-150977180D02*
X101703885Y-150881942D01*
X101703885Y-150881942D02*
X101703885Y-150596228D01*
X101703885Y-150596228D02*
X101751504Y-150500990D01*
X101751504Y-150500990D02*
X101799123Y-150453371D01*
X101799123Y-150453371D02*
X101894361Y-150405752D01*
X101894361Y-150405752D02*
X102037218Y-150405752D01*
X102037218Y-150405752D02*
X102132456Y-150453371D01*
X102132456Y-150453371D02*
X102180075Y-150500990D01*
X102180075Y-150500990D02*
X102227694Y-150596228D01*
X102227694Y-150596228D02*
X102227694Y-150881942D01*
X102227694Y-150881942D02*
X102180075Y-150977180D01*
X102180075Y-150977180D02*
X102132456Y-151024800D01*
X102132456Y-151024800D02*
X102037218Y-151072419D01*
X102037218Y-151072419D02*
X101894361Y-151072419D01*
X103084837Y-150405752D02*
X103084837Y-151072419D01*
X102656266Y-150405752D02*
X102656266Y-150929561D01*
X102656266Y-150929561D02*
X102703885Y-151024800D01*
X102703885Y-151024800D02*
X102799123Y-151072419D01*
X102799123Y-151072419D02*
X102941980Y-151072419D01*
X102941980Y-151072419D02*
X103037218Y-151024800D01*
X103037218Y-151024800D02*
X103084837Y-150977180D01*
X103418171Y-150405752D02*
X103799123Y-150405752D01*
X103561028Y-150072419D02*
X103561028Y-150929561D01*
X103561028Y-150929561D02*
X103608647Y-151024800D01*
X103608647Y-151024800D02*
X103703885Y-151072419D01*
X103703885Y-151072419D02*
X103799123Y-151072419D01*
D12*
X89561578Y-125751028D02*
X89561578Y-126751028D01*
X89204435Y-125179600D02*
X88847292Y-126251028D01*
X88847292Y-126251028D02*
X89775863Y-126251028D01*
D10*
X115484836Y-143033609D02*
X115484836Y-142533609D01*
X115484836Y-142533609D02*
X115770550Y-143033609D01*
X115770550Y-143033609D02*
X115770550Y-142533609D01*
X116103884Y-142533609D02*
X116199122Y-142533609D01*
X116199122Y-142533609D02*
X116246741Y-142557419D01*
X116246741Y-142557419D02*
X116294360Y-142605038D01*
X116294360Y-142605038D02*
X116318170Y-142700276D01*
X116318170Y-142700276D02*
X116318170Y-142866942D01*
X116318170Y-142866942D02*
X116294360Y-142962180D01*
X116294360Y-142962180D02*
X116246741Y-143009800D01*
X116246741Y-143009800D02*
X116199122Y-143033609D01*
X116199122Y-143033609D02*
X116103884Y-143033609D01*
X116103884Y-143033609D02*
X116056265Y-143009800D01*
X116056265Y-143009800D02*
X116008646Y-142962180D01*
X116008646Y-142962180D02*
X115984837Y-142866942D01*
X115984837Y-142866942D02*
X115984837Y-142700276D01*
X115984837Y-142700276D02*
X116008646Y-142605038D01*
X116008646Y-142605038D02*
X116056265Y-142557419D01*
X116056265Y-142557419D02*
X116103884Y-142533609D01*
X116818170Y-143033609D02*
X116651504Y-142795514D01*
X116532456Y-143033609D02*
X116532456Y-142533609D01*
X116532456Y-142533609D02*
X116722932Y-142533609D01*
X116722932Y-142533609D02*
X116770551Y-142557419D01*
X116770551Y-142557419D02*
X116794361Y-142581228D01*
X116794361Y-142581228D02*
X116818170Y-142628847D01*
X116818170Y-142628847D02*
X116818170Y-142700276D01*
X116818170Y-142700276D02*
X116794361Y-142747895D01*
X116794361Y-142747895D02*
X116770551Y-142771704D01*
X116770551Y-142771704D02*
X116722932Y-142795514D01*
X116722932Y-142795514D02*
X116532456Y-142795514D01*
X94233609Y-138615163D02*
X93733609Y-138615163D01*
X93733609Y-138615163D02*
X94233609Y-138329449D01*
X94233609Y-138329449D02*
X93733609Y-138329449D01*
X93733609Y-137996115D02*
X93733609Y-137900877D01*
X93733609Y-137900877D02*
X93757419Y-137853258D01*
X93757419Y-137853258D02*
X93805038Y-137805639D01*
X93805038Y-137805639D02*
X93900276Y-137781829D01*
X93900276Y-137781829D02*
X94066942Y-137781829D01*
X94066942Y-137781829D02*
X94162180Y-137805639D01*
X94162180Y-137805639D02*
X94209800Y-137853258D01*
X94209800Y-137853258D02*
X94233609Y-137900877D01*
X94233609Y-137900877D02*
X94233609Y-137996115D01*
X94233609Y-137996115D02*
X94209800Y-138043734D01*
X94209800Y-138043734D02*
X94162180Y-138091353D01*
X94162180Y-138091353D02*
X94066942Y-138115162D01*
X94066942Y-138115162D02*
X93900276Y-138115162D01*
X93900276Y-138115162D02*
X93805038Y-138091353D01*
X93805038Y-138091353D02*
X93757419Y-138043734D01*
X93757419Y-138043734D02*
X93733609Y-137996115D01*
X94233609Y-137281829D02*
X93995514Y-137448495D01*
X94233609Y-137567543D02*
X93733609Y-137567543D01*
X93733609Y-137567543D02*
X93733609Y-137377067D01*
X93733609Y-137377067D02*
X93757419Y-137329448D01*
X93757419Y-137329448D02*
X93781228Y-137305638D01*
X93781228Y-137305638D02*
X93828847Y-137281829D01*
X93828847Y-137281829D02*
X93900276Y-137281829D01*
X93900276Y-137281829D02*
X93947895Y-137305638D01*
X93947895Y-137305638D02*
X93971704Y-137329448D01*
X93971704Y-137329448D02*
X93995514Y-137377067D01*
X93995514Y-137377067D02*
X93995514Y-137567543D01*
X107733609Y-138815163D02*
X107233609Y-138815163D01*
X107233609Y-138815163D02*
X107733609Y-138529449D01*
X107733609Y-138529449D02*
X107233609Y-138529449D01*
X107590752Y-138315162D02*
X107590752Y-138077067D01*
X107733609Y-138362781D02*
X107233609Y-138196115D01*
X107233609Y-138196115D02*
X107733609Y-138029448D01*
X107733609Y-137862782D02*
X107233609Y-137862782D01*
X107233609Y-137862782D02*
X107733609Y-137577068D01*
X107733609Y-137577068D02*
X107233609Y-137577068D01*
X107733609Y-137338972D02*
X107233609Y-137338972D01*
X107233609Y-137338972D02*
X107233609Y-137219924D01*
X107233609Y-137219924D02*
X107257419Y-137148496D01*
X107257419Y-137148496D02*
X107305038Y-137100877D01*
X107305038Y-137100877D02*
X107352657Y-137077067D01*
X107352657Y-137077067D02*
X107447895Y-137053258D01*
X107447895Y-137053258D02*
X107519323Y-137053258D01*
X107519323Y-137053258D02*
X107614561Y-137077067D01*
X107614561Y-137077067D02*
X107662180Y-137100877D01*
X107662180Y-137100877D02*
X107709800Y-137148496D01*
X107709800Y-137148496D02*
X107733609Y-137219924D01*
X107733609Y-137219924D02*
X107733609Y-137338972D01*
X58233609Y-138615163D02*
X57733609Y-138615163D01*
X57733609Y-138615163D02*
X58233609Y-138329449D01*
X58233609Y-138329449D02*
X57733609Y-138329449D01*
X57733609Y-137996115D02*
X57733609Y-137900877D01*
X57733609Y-137900877D02*
X57757419Y-137853258D01*
X57757419Y-137853258D02*
X57805038Y-137805639D01*
X57805038Y-137805639D02*
X57900276Y-137781829D01*
X57900276Y-137781829D02*
X58066942Y-137781829D01*
X58066942Y-137781829D02*
X58162180Y-137805639D01*
X58162180Y-137805639D02*
X58209800Y-137853258D01*
X58209800Y-137853258D02*
X58233609Y-137900877D01*
X58233609Y-137900877D02*
X58233609Y-137996115D01*
X58233609Y-137996115D02*
X58209800Y-138043734D01*
X58209800Y-138043734D02*
X58162180Y-138091353D01*
X58162180Y-138091353D02*
X58066942Y-138115162D01*
X58066942Y-138115162D02*
X57900276Y-138115162D01*
X57900276Y-138115162D02*
X57805038Y-138091353D01*
X57805038Y-138091353D02*
X57757419Y-138043734D01*
X57757419Y-138043734D02*
X57733609Y-137996115D01*
X58233609Y-137281829D02*
X57995514Y-137448495D01*
X58233609Y-137567543D02*
X57733609Y-137567543D01*
X57733609Y-137567543D02*
X57733609Y-137377067D01*
X57733609Y-137377067D02*
X57757419Y-137329448D01*
X57757419Y-137329448D02*
X57781228Y-137305638D01*
X57781228Y-137305638D02*
X57828847Y-137281829D01*
X57828847Y-137281829D02*
X57900276Y-137281829D01*
X57900276Y-137281829D02*
X57947895Y-137305638D01*
X57947895Y-137305638D02*
X57971704Y-137329448D01*
X57971704Y-137329448D02*
X57995514Y-137377067D01*
X57995514Y-137377067D02*
X57995514Y-137567543D01*
D14*
X63236779Y-153200414D02*
X63236779Y-152700414D01*
X63236779Y-152843271D02*
X63284398Y-152771842D01*
X63284398Y-152771842D02*
X63332017Y-152736128D01*
X63332017Y-152736128D02*
X63427255Y-152700414D01*
X63427255Y-152700414D02*
X63522493Y-152700414D01*
X63808208Y-153164700D02*
X63903446Y-153200414D01*
X63903446Y-153200414D02*
X64093922Y-153200414D01*
X64093922Y-153200414D02*
X64189160Y-153164700D01*
X64189160Y-153164700D02*
X64236779Y-153093271D01*
X64236779Y-153093271D02*
X64236779Y-153057557D01*
X64236779Y-153057557D02*
X64189160Y-152986128D01*
X64189160Y-152986128D02*
X64093922Y-152950414D01*
X64093922Y-152950414D02*
X63951065Y-152950414D01*
X63951065Y-152950414D02*
X63855827Y-152914700D01*
X63855827Y-152914700D02*
X63808208Y-152843271D01*
X63808208Y-152843271D02*
X63808208Y-152807557D01*
X63808208Y-152807557D02*
X63855827Y-152736128D01*
X63855827Y-152736128D02*
X63951065Y-152700414D01*
X63951065Y-152700414D02*
X64093922Y-152700414D01*
X64093922Y-152700414D02*
X64189160Y-152736128D01*
X64522494Y-152700414D02*
X64903446Y-152700414D01*
X64665351Y-152450414D02*
X64665351Y-153093271D01*
X64665351Y-153093271D02*
X64712970Y-153164700D01*
X64712970Y-153164700D02*
X64808208Y-153200414D01*
X64808208Y-153200414D02*
X64903446Y-153200414D01*
D10*
X49233609Y-138615163D02*
X48733609Y-138615163D01*
X48733609Y-138615163D02*
X49233609Y-138329449D01*
X49233609Y-138329449D02*
X48733609Y-138329449D01*
X48733609Y-137996115D02*
X48733609Y-137900877D01*
X48733609Y-137900877D02*
X48757419Y-137853258D01*
X48757419Y-137853258D02*
X48805038Y-137805639D01*
X48805038Y-137805639D02*
X48900276Y-137781829D01*
X48900276Y-137781829D02*
X49066942Y-137781829D01*
X49066942Y-137781829D02*
X49162180Y-137805639D01*
X49162180Y-137805639D02*
X49209800Y-137853258D01*
X49209800Y-137853258D02*
X49233609Y-137900877D01*
X49233609Y-137900877D02*
X49233609Y-137996115D01*
X49233609Y-137996115D02*
X49209800Y-138043734D01*
X49209800Y-138043734D02*
X49162180Y-138091353D01*
X49162180Y-138091353D02*
X49066942Y-138115162D01*
X49066942Y-138115162D02*
X48900276Y-138115162D01*
X48900276Y-138115162D02*
X48805038Y-138091353D01*
X48805038Y-138091353D02*
X48757419Y-138043734D01*
X48757419Y-138043734D02*
X48733609Y-137996115D01*
X49233609Y-137281829D02*
X48995514Y-137448495D01*
X49233609Y-137567543D02*
X48733609Y-137567543D01*
X48733609Y-137567543D02*
X48733609Y-137377067D01*
X48733609Y-137377067D02*
X48757419Y-137329448D01*
X48757419Y-137329448D02*
X48781228Y-137305638D01*
X48781228Y-137305638D02*
X48828847Y-137281829D01*
X48828847Y-137281829D02*
X48900276Y-137281829D01*
X48900276Y-137281829D02*
X48947895Y-137305638D01*
X48947895Y-137305638D02*
X48971704Y-137329448D01*
X48971704Y-137329448D02*
X48995514Y-137377067D01*
X48995514Y-137377067D02*
X48995514Y-137567543D01*
D12*
X107561578Y-125251028D02*
X107275863Y-125251028D01*
X107275863Y-125251028D02*
X107133006Y-125322457D01*
X107133006Y-125322457D02*
X107061578Y-125393885D01*
X107061578Y-125393885D02*
X106918720Y-125608171D01*
X106918720Y-125608171D02*
X106847292Y-125893885D01*
X106847292Y-125893885D02*
X106847292Y-126465314D01*
X106847292Y-126465314D02*
X106918720Y-126608171D01*
X106918720Y-126608171D02*
X106990149Y-126679600D01*
X106990149Y-126679600D02*
X107133006Y-126751028D01*
X107133006Y-126751028D02*
X107418720Y-126751028D01*
X107418720Y-126751028D02*
X107561578Y-126679600D01*
X107561578Y-126679600D02*
X107633006Y-126608171D01*
X107633006Y-126608171D02*
X107704435Y-126465314D01*
X107704435Y-126465314D02*
X107704435Y-126108171D01*
X107704435Y-126108171D02*
X107633006Y-125965314D01*
X107633006Y-125965314D02*
X107561578Y-125893885D01*
X107561578Y-125893885D02*
X107418720Y-125822457D01*
X107418720Y-125822457D02*
X107133006Y-125822457D01*
X107133006Y-125822457D02*
X106990149Y-125893885D01*
X106990149Y-125893885D02*
X106918720Y-125965314D01*
X106918720Y-125965314D02*
X106847292Y-126108171D01*
D10*
X106584836Y-133333609D02*
X106584836Y-132833609D01*
X106584836Y-132833609D02*
X106751503Y-133190752D01*
X106751503Y-133190752D02*
X106918169Y-132833609D01*
X106918169Y-132833609D02*
X106918169Y-133333609D01*
X107156265Y-133071704D02*
X107322932Y-133071704D01*
X107394360Y-133333609D02*
X107156265Y-133333609D01*
X107156265Y-133333609D02*
X107156265Y-132833609D01*
X107156265Y-132833609D02*
X107394360Y-132833609D01*
X107608646Y-133333609D02*
X107608646Y-132833609D01*
X107608646Y-132833609D02*
X107775313Y-133190752D01*
X107775313Y-133190752D02*
X107941979Y-132833609D01*
X107941979Y-132833609D02*
X107941979Y-133333609D01*
D12*
X53204435Y-125251028D02*
X53347292Y-125251028D01*
X53347292Y-125251028D02*
X53490149Y-125322457D01*
X53490149Y-125322457D02*
X53561578Y-125393885D01*
X53561578Y-125393885D02*
X53633006Y-125536742D01*
X53633006Y-125536742D02*
X53704435Y-125822457D01*
X53704435Y-125822457D02*
X53704435Y-126179600D01*
X53704435Y-126179600D02*
X53633006Y-126465314D01*
X53633006Y-126465314D02*
X53561578Y-126608171D01*
X53561578Y-126608171D02*
X53490149Y-126679600D01*
X53490149Y-126679600D02*
X53347292Y-126751028D01*
X53347292Y-126751028D02*
X53204435Y-126751028D01*
X53204435Y-126751028D02*
X53061578Y-126679600D01*
X53061578Y-126679600D02*
X52990149Y-126608171D01*
X52990149Y-126608171D02*
X52918720Y-126465314D01*
X52918720Y-126465314D02*
X52847292Y-126179600D01*
X52847292Y-126179600D02*
X52847292Y-125822457D01*
X52847292Y-125822457D02*
X52918720Y-125536742D01*
X52918720Y-125536742D02*
X52990149Y-125393885D01*
X52990149Y-125393885D02*
X53061578Y-125322457D01*
X53061578Y-125322457D02*
X53204435Y-125251028D01*
D14*
X68908207Y-153200414D02*
X68574874Y-152843271D01*
X68336779Y-153200414D02*
X68336779Y-152450414D01*
X68336779Y-152450414D02*
X68717731Y-152450414D01*
X68717731Y-152450414D02*
X68812969Y-152486128D01*
X68812969Y-152486128D02*
X68860588Y-152521842D01*
X68860588Y-152521842D02*
X68908207Y-152593271D01*
X68908207Y-152593271D02*
X68908207Y-152700414D01*
X68908207Y-152700414D02*
X68860588Y-152771842D01*
X68860588Y-152771842D02*
X68812969Y-152807557D01*
X68812969Y-152807557D02*
X68717731Y-152843271D01*
X68717731Y-152843271D02*
X68336779Y-152843271D01*
X69336779Y-152807557D02*
X69670112Y-152807557D01*
X69812969Y-153200414D02*
X69336779Y-153200414D01*
X69336779Y-153200414D02*
X69336779Y-152450414D01*
X69336779Y-152450414D02*
X69812969Y-152450414D01*
D10*
X97584836Y-133333609D02*
X97584836Y-132833609D01*
X97584836Y-132833609D02*
X97751503Y-133190752D01*
X97751503Y-133190752D02*
X97918169Y-132833609D01*
X97918169Y-132833609D02*
X97918169Y-133333609D01*
X98156265Y-133071704D02*
X98322932Y-133071704D01*
X98394360Y-133333609D02*
X98156265Y-133333609D01*
X98156265Y-133333609D02*
X98156265Y-132833609D01*
X98156265Y-132833609D02*
X98394360Y-132833609D01*
X98608646Y-133333609D02*
X98608646Y-132833609D01*
X98608646Y-132833609D02*
X98775313Y-133190752D01*
X98775313Y-133190752D02*
X98941979Y-132833609D01*
X98941979Y-132833609D02*
X98941979Y-133333609D01*
X85233609Y-138615163D02*
X84733609Y-138615163D01*
X84733609Y-138615163D02*
X85233609Y-138329449D01*
X85233609Y-138329449D02*
X84733609Y-138329449D01*
X84733609Y-137996115D02*
X84733609Y-137900877D01*
X84733609Y-137900877D02*
X84757419Y-137853258D01*
X84757419Y-137853258D02*
X84805038Y-137805639D01*
X84805038Y-137805639D02*
X84900276Y-137781829D01*
X84900276Y-137781829D02*
X85066942Y-137781829D01*
X85066942Y-137781829D02*
X85162180Y-137805639D01*
X85162180Y-137805639D02*
X85209800Y-137853258D01*
X85209800Y-137853258D02*
X85233609Y-137900877D01*
X85233609Y-137900877D02*
X85233609Y-137996115D01*
X85233609Y-137996115D02*
X85209800Y-138043734D01*
X85209800Y-138043734D02*
X85162180Y-138091353D01*
X85162180Y-138091353D02*
X85066942Y-138115162D01*
X85066942Y-138115162D02*
X84900276Y-138115162D01*
X84900276Y-138115162D02*
X84805038Y-138091353D01*
X84805038Y-138091353D02*
X84757419Y-138043734D01*
X84757419Y-138043734D02*
X84733609Y-137996115D01*
X85233609Y-137281829D02*
X84995514Y-137448495D01*
X85233609Y-137567543D02*
X84733609Y-137567543D01*
X84733609Y-137567543D02*
X84733609Y-137377067D01*
X84733609Y-137377067D02*
X84757419Y-137329448D01*
X84757419Y-137329448D02*
X84781228Y-137305638D01*
X84781228Y-137305638D02*
X84828847Y-137281829D01*
X84828847Y-137281829D02*
X84900276Y-137281829D01*
X84900276Y-137281829D02*
X84947895Y-137305638D01*
X84947895Y-137305638D02*
X84971704Y-137329448D01*
X84971704Y-137329448D02*
X84995514Y-137377067D01*
X84995514Y-137377067D02*
X84995514Y-137567543D01*
X67233609Y-138615163D02*
X66733609Y-138615163D01*
X66733609Y-138615163D02*
X67233609Y-138329449D01*
X67233609Y-138329449D02*
X66733609Y-138329449D01*
X66733609Y-137996115D02*
X66733609Y-137900877D01*
X66733609Y-137900877D02*
X66757419Y-137853258D01*
X66757419Y-137853258D02*
X66805038Y-137805639D01*
X66805038Y-137805639D02*
X66900276Y-137781829D01*
X66900276Y-137781829D02*
X67066942Y-137781829D01*
X67066942Y-137781829D02*
X67162180Y-137805639D01*
X67162180Y-137805639D02*
X67209800Y-137853258D01*
X67209800Y-137853258D02*
X67233609Y-137900877D01*
X67233609Y-137900877D02*
X67233609Y-137996115D01*
X67233609Y-137996115D02*
X67209800Y-138043734D01*
X67209800Y-138043734D02*
X67162180Y-138091353D01*
X67162180Y-138091353D02*
X67066942Y-138115162D01*
X67066942Y-138115162D02*
X66900276Y-138115162D01*
X66900276Y-138115162D02*
X66805038Y-138091353D01*
X66805038Y-138091353D02*
X66757419Y-138043734D01*
X66757419Y-138043734D02*
X66733609Y-137996115D01*
X67233609Y-137281829D02*
X66995514Y-137448495D01*
X67233609Y-137567543D02*
X66733609Y-137567543D01*
X66733609Y-137567543D02*
X66733609Y-137377067D01*
X66733609Y-137377067D02*
X66757419Y-137329448D01*
X66757419Y-137329448D02*
X66781228Y-137305638D01*
X66781228Y-137305638D02*
X66828847Y-137281829D01*
X66828847Y-137281829D02*
X66900276Y-137281829D01*
X66900276Y-137281829D02*
X66947895Y-137305638D01*
X66947895Y-137305638D02*
X66971704Y-137329448D01*
X66971704Y-137329448D02*
X66995514Y-137377067D01*
X66995514Y-137377067D02*
X66995514Y-137567543D01*
X98733609Y-138815163D02*
X98233609Y-138815163D01*
X98233609Y-138815163D02*
X98733609Y-138529449D01*
X98733609Y-138529449D02*
X98233609Y-138529449D01*
X98590752Y-138315162D02*
X98590752Y-138077067D01*
X98733609Y-138362781D02*
X98233609Y-138196115D01*
X98233609Y-138196115D02*
X98733609Y-138029448D01*
X98733609Y-137862782D02*
X98233609Y-137862782D01*
X98233609Y-137862782D02*
X98733609Y-137577068D01*
X98733609Y-137577068D02*
X98233609Y-137577068D01*
X98733609Y-137338972D02*
X98233609Y-137338972D01*
X98233609Y-137338972D02*
X98233609Y-137219924D01*
X98233609Y-137219924D02*
X98257419Y-137148496D01*
X98257419Y-137148496D02*
X98305038Y-137100877D01*
X98305038Y-137100877D02*
X98352657Y-137077067D01*
X98352657Y-137077067D02*
X98447895Y-137053258D01*
X98447895Y-137053258D02*
X98519323Y-137053258D01*
X98519323Y-137053258D02*
X98614561Y-137077067D01*
X98614561Y-137077067D02*
X98662180Y-137100877D01*
X98662180Y-137100877D02*
X98709800Y-137148496D01*
X98709800Y-137148496D02*
X98733609Y-137219924D01*
X98733609Y-137219924D02*
X98733609Y-137338972D01*
X61584836Y-133333609D02*
X61584836Y-132833609D01*
X61584836Y-132833609D02*
X61751503Y-133190752D01*
X61751503Y-133190752D02*
X61918169Y-132833609D01*
X61918169Y-132833609D02*
X61918169Y-133333609D01*
X62156265Y-133071704D02*
X62322932Y-133071704D01*
X62394360Y-133333609D02*
X62156265Y-133333609D01*
X62156265Y-133333609D02*
X62156265Y-132833609D01*
X62156265Y-132833609D02*
X62394360Y-132833609D01*
X62608646Y-133333609D02*
X62608646Y-132833609D01*
X62608646Y-132833609D02*
X62775313Y-133190752D01*
X62775313Y-133190752D02*
X62941979Y-132833609D01*
X62941979Y-132833609D02*
X62941979Y-133333609D01*
X80733609Y-138815163D02*
X80233609Y-138815163D01*
X80233609Y-138815163D02*
X80733609Y-138529449D01*
X80733609Y-138529449D02*
X80233609Y-138529449D01*
X80590752Y-138315162D02*
X80590752Y-138077067D01*
X80733609Y-138362781D02*
X80233609Y-138196115D01*
X80233609Y-138196115D02*
X80733609Y-138029448D01*
X80733609Y-137862782D02*
X80233609Y-137862782D01*
X80233609Y-137862782D02*
X80733609Y-137577068D01*
X80733609Y-137577068D02*
X80233609Y-137577068D01*
X80733609Y-137338972D02*
X80233609Y-137338972D01*
X80233609Y-137338972D02*
X80233609Y-137219924D01*
X80233609Y-137219924D02*
X80257419Y-137148496D01*
X80257419Y-137148496D02*
X80305038Y-137100877D01*
X80305038Y-137100877D02*
X80352657Y-137077067D01*
X80352657Y-137077067D02*
X80447895Y-137053258D01*
X80447895Y-137053258D02*
X80519323Y-137053258D01*
X80519323Y-137053258D02*
X80614561Y-137077067D01*
X80614561Y-137077067D02*
X80662180Y-137100877D01*
X80662180Y-137100877D02*
X80709800Y-137148496D01*
X80709800Y-137148496D02*
X80733609Y-137219924D01*
X80733609Y-137219924D02*
X80733609Y-137338972D01*
X52584836Y-133333609D02*
X52584836Y-132833609D01*
X52584836Y-132833609D02*
X52751503Y-133190752D01*
X52751503Y-133190752D02*
X52918169Y-132833609D01*
X52918169Y-132833609D02*
X52918169Y-133333609D01*
X53156265Y-133071704D02*
X53322932Y-133071704D01*
X53394360Y-133333609D02*
X53156265Y-133333609D01*
X53156265Y-133333609D02*
X53156265Y-132833609D01*
X53156265Y-132833609D02*
X53394360Y-132833609D01*
X53608646Y-133333609D02*
X53608646Y-132833609D01*
X53608646Y-132833609D02*
X53775313Y-133190752D01*
X53775313Y-133190752D02*
X53941979Y-132833609D01*
X53941979Y-132833609D02*
X53941979Y-133333609D01*
X62733609Y-138815163D02*
X62233609Y-138815163D01*
X62233609Y-138815163D02*
X62733609Y-138529449D01*
X62733609Y-138529449D02*
X62233609Y-138529449D01*
X62590752Y-138315162D02*
X62590752Y-138077067D01*
X62733609Y-138362781D02*
X62233609Y-138196115D01*
X62233609Y-138196115D02*
X62733609Y-138029448D01*
X62733609Y-137862782D02*
X62233609Y-137862782D01*
X62233609Y-137862782D02*
X62733609Y-137577068D01*
X62733609Y-137577068D02*
X62233609Y-137577068D01*
X62733609Y-137338972D02*
X62233609Y-137338972D01*
X62233609Y-137338972D02*
X62233609Y-137219924D01*
X62233609Y-137219924D02*
X62257419Y-137148496D01*
X62257419Y-137148496D02*
X62305038Y-137100877D01*
X62305038Y-137100877D02*
X62352657Y-137077067D01*
X62352657Y-137077067D02*
X62447895Y-137053258D01*
X62447895Y-137053258D02*
X62519323Y-137053258D01*
X62519323Y-137053258D02*
X62614561Y-137077067D01*
X62614561Y-137077067D02*
X62662180Y-137100877D01*
X62662180Y-137100877D02*
X62709800Y-137148496D01*
X62709800Y-137148496D02*
X62733609Y-137219924D01*
X62733609Y-137219924D02*
X62733609Y-137338972D01*
X79332455Y-150972419D02*
X79332455Y-149972419D01*
X79332455Y-150924800D02*
X79237217Y-150972419D01*
X79237217Y-150972419D02*
X79046741Y-150972419D01*
X79046741Y-150972419D02*
X78951503Y-150924800D01*
X78951503Y-150924800D02*
X78903884Y-150877180D01*
X78903884Y-150877180D02*
X78856265Y-150781942D01*
X78856265Y-150781942D02*
X78856265Y-150496228D01*
X78856265Y-150496228D02*
X78903884Y-150400990D01*
X78903884Y-150400990D02*
X78951503Y-150353371D01*
X78951503Y-150353371D02*
X79046741Y-150305752D01*
X79046741Y-150305752D02*
X79237217Y-150305752D01*
X79237217Y-150305752D02*
X79332455Y-150353371D01*
X80237217Y-150972419D02*
X80237217Y-150448609D01*
X80237217Y-150448609D02*
X80189598Y-150353371D01*
X80189598Y-150353371D02*
X80094360Y-150305752D01*
X80094360Y-150305752D02*
X79903884Y-150305752D01*
X79903884Y-150305752D02*
X79808646Y-150353371D01*
X80237217Y-150924800D02*
X80141979Y-150972419D01*
X80141979Y-150972419D02*
X79903884Y-150972419D01*
X79903884Y-150972419D02*
X79808646Y-150924800D01*
X79808646Y-150924800D02*
X79761027Y-150829561D01*
X79761027Y-150829561D02*
X79761027Y-150734323D01*
X79761027Y-150734323D02*
X79808646Y-150639085D01*
X79808646Y-150639085D02*
X79903884Y-150591466D01*
X79903884Y-150591466D02*
X80141979Y-150591466D01*
X80141979Y-150591466D02*
X80237217Y-150543847D01*
X80570551Y-150305752D02*
X80951503Y-150305752D01*
X80713408Y-149972419D02*
X80713408Y-150829561D01*
X80713408Y-150829561D02*
X80761027Y-150924800D01*
X80761027Y-150924800D02*
X80856265Y-150972419D01*
X80856265Y-150972419D02*
X80951503Y-150972419D01*
X81713408Y-150972419D02*
X81713408Y-150448609D01*
X81713408Y-150448609D02*
X81665789Y-150353371D01*
X81665789Y-150353371D02*
X81570551Y-150305752D01*
X81570551Y-150305752D02*
X81380075Y-150305752D01*
X81380075Y-150305752D02*
X81284837Y-150353371D01*
X81713408Y-150924800D02*
X81618170Y-150972419D01*
X81618170Y-150972419D02*
X81380075Y-150972419D01*
X81380075Y-150972419D02*
X81284837Y-150924800D01*
X81284837Y-150924800D02*
X81237218Y-150829561D01*
X81237218Y-150829561D02*
X81237218Y-150734323D01*
X81237218Y-150734323D02*
X81284837Y-150639085D01*
X81284837Y-150639085D02*
X81380075Y-150591466D01*
X81380075Y-150591466D02*
X81618170Y-150591466D01*
X81618170Y-150591466D02*
X81713408Y-150543847D01*
X82951504Y-150972419D02*
X82951504Y-150305752D01*
X82951504Y-149972419D02*
X82903885Y-150020038D01*
X82903885Y-150020038D02*
X82951504Y-150067657D01*
X82951504Y-150067657D02*
X82999123Y-150020038D01*
X82999123Y-150020038D02*
X82951504Y-149972419D01*
X82951504Y-149972419D02*
X82951504Y-150067657D01*
X83427694Y-150305752D02*
X83427694Y-150972419D01*
X83427694Y-150400990D02*
X83475313Y-150353371D01*
X83475313Y-150353371D02*
X83570551Y-150305752D01*
X83570551Y-150305752D02*
X83713408Y-150305752D01*
X83713408Y-150305752D02*
X83808646Y-150353371D01*
X83808646Y-150353371D02*
X83856265Y-150448609D01*
X83856265Y-150448609D02*
X83856265Y-150972419D01*
D12*
X62704435Y-126751028D02*
X61847292Y-126751028D01*
X62275863Y-126751028D02*
X62275863Y-125251028D01*
X62275863Y-125251028D02*
X62133006Y-125465314D01*
X62133006Y-125465314D02*
X61990149Y-125608171D01*
X61990149Y-125608171D02*
X61847292Y-125679600D01*
D10*
X88584836Y-133333609D02*
X88584836Y-132833609D01*
X88584836Y-132833609D02*
X88751503Y-133190752D01*
X88751503Y-133190752D02*
X88918169Y-132833609D01*
X88918169Y-132833609D02*
X88918169Y-133333609D01*
X89156265Y-133071704D02*
X89322932Y-133071704D01*
X89394360Y-133333609D02*
X89156265Y-133333609D01*
X89156265Y-133333609D02*
X89156265Y-132833609D01*
X89156265Y-132833609D02*
X89394360Y-132833609D01*
X89608646Y-133333609D02*
X89608646Y-132833609D01*
X89608646Y-132833609D02*
X89775313Y-133190752D01*
X89775313Y-133190752D02*
X89941979Y-132833609D01*
X89941979Y-132833609D02*
X89941979Y-133333609D01*
X76233609Y-138615163D02*
X75733609Y-138615163D01*
X75733609Y-138615163D02*
X76233609Y-138329449D01*
X76233609Y-138329449D02*
X75733609Y-138329449D01*
X75733609Y-137996115D02*
X75733609Y-137900877D01*
X75733609Y-137900877D02*
X75757419Y-137853258D01*
X75757419Y-137853258D02*
X75805038Y-137805639D01*
X75805038Y-137805639D02*
X75900276Y-137781829D01*
X75900276Y-137781829D02*
X76066942Y-137781829D01*
X76066942Y-137781829D02*
X76162180Y-137805639D01*
X76162180Y-137805639D02*
X76209800Y-137853258D01*
X76209800Y-137853258D02*
X76233609Y-137900877D01*
X76233609Y-137900877D02*
X76233609Y-137996115D01*
X76233609Y-137996115D02*
X76209800Y-138043734D01*
X76209800Y-138043734D02*
X76162180Y-138091353D01*
X76162180Y-138091353D02*
X76066942Y-138115162D01*
X76066942Y-138115162D02*
X75900276Y-138115162D01*
X75900276Y-138115162D02*
X75805038Y-138091353D01*
X75805038Y-138091353D02*
X75757419Y-138043734D01*
X75757419Y-138043734D02*
X75733609Y-137996115D01*
X76233609Y-137281829D02*
X75995514Y-137448495D01*
X76233609Y-137567543D02*
X75733609Y-137567543D01*
X75733609Y-137567543D02*
X75733609Y-137377067D01*
X75733609Y-137377067D02*
X75757419Y-137329448D01*
X75757419Y-137329448D02*
X75781228Y-137305638D01*
X75781228Y-137305638D02*
X75828847Y-137281829D01*
X75828847Y-137281829D02*
X75900276Y-137281829D01*
X75900276Y-137281829D02*
X75947895Y-137305638D01*
X75947895Y-137305638D02*
X75971704Y-137329448D01*
X75971704Y-137329448D02*
X75995514Y-137377067D01*
X75995514Y-137377067D02*
X75995514Y-137567543D01*
D11*
X58354510Y-152129400D02*
X59497368Y-152129400D01*
X58925939Y-152700828D02*
X58925939Y-151557971D01*
D10*
X53733609Y-138815163D02*
X53233609Y-138815163D01*
X53233609Y-138815163D02*
X53733609Y-138529449D01*
X53733609Y-138529449D02*
X53233609Y-138529449D01*
X53590752Y-138315162D02*
X53590752Y-138077067D01*
X53733609Y-138362781D02*
X53233609Y-138196115D01*
X53233609Y-138196115D02*
X53733609Y-138029448D01*
X53733609Y-137862782D02*
X53233609Y-137862782D01*
X53233609Y-137862782D02*
X53733609Y-137577068D01*
X53733609Y-137577068D02*
X53233609Y-137577068D01*
X53733609Y-137338972D02*
X53233609Y-137338972D01*
X53233609Y-137338972D02*
X53233609Y-137219924D01*
X53233609Y-137219924D02*
X53257419Y-137148496D01*
X53257419Y-137148496D02*
X53305038Y-137100877D01*
X53305038Y-137100877D02*
X53352657Y-137077067D01*
X53352657Y-137077067D02*
X53447895Y-137053258D01*
X53447895Y-137053258D02*
X53519323Y-137053258D01*
X53519323Y-137053258D02*
X53614561Y-137077067D01*
X53614561Y-137077067D02*
X53662180Y-137100877D01*
X53662180Y-137100877D02*
X53709800Y-137148496D01*
X53709800Y-137148496D02*
X53733609Y-137219924D01*
X53733609Y-137219924D02*
X53733609Y-137338972D01*
X52484836Y-143033609D02*
X52484836Y-142533609D01*
X52484836Y-142533609D02*
X52770550Y-143033609D01*
X52770550Y-143033609D02*
X52770550Y-142533609D01*
X53103884Y-142533609D02*
X53199122Y-142533609D01*
X53199122Y-142533609D02*
X53246741Y-142557419D01*
X53246741Y-142557419D02*
X53294360Y-142605038D01*
X53294360Y-142605038D02*
X53318170Y-142700276D01*
X53318170Y-142700276D02*
X53318170Y-142866942D01*
X53318170Y-142866942D02*
X53294360Y-142962180D01*
X53294360Y-142962180D02*
X53246741Y-143009800D01*
X53246741Y-143009800D02*
X53199122Y-143033609D01*
X53199122Y-143033609D02*
X53103884Y-143033609D01*
X53103884Y-143033609D02*
X53056265Y-143009800D01*
X53056265Y-143009800D02*
X53008646Y-142962180D01*
X53008646Y-142962180D02*
X52984837Y-142866942D01*
X52984837Y-142866942D02*
X52984837Y-142700276D01*
X52984837Y-142700276D02*
X53008646Y-142605038D01*
X53008646Y-142605038D02*
X53056265Y-142557419D01*
X53056265Y-142557419D02*
X53103884Y-142533609D01*
X53818170Y-143033609D02*
X53651504Y-142795514D01*
X53532456Y-143033609D02*
X53532456Y-142533609D01*
X53532456Y-142533609D02*
X53722932Y-142533609D01*
X53722932Y-142533609D02*
X53770551Y-142557419D01*
X53770551Y-142557419D02*
X53794361Y-142581228D01*
X53794361Y-142581228D02*
X53818170Y-142628847D01*
X53818170Y-142628847D02*
X53818170Y-142700276D01*
X53818170Y-142700276D02*
X53794361Y-142747895D01*
X53794361Y-142747895D02*
X53770551Y-142771704D01*
X53770551Y-142771704D02*
X53722932Y-142795514D01*
X53722932Y-142795514D02*
X53532456Y-142795514D01*
X115584836Y-133333609D02*
X115584836Y-132833609D01*
X115584836Y-132833609D02*
X115751503Y-133190752D01*
X115751503Y-133190752D02*
X115918169Y-132833609D01*
X115918169Y-132833609D02*
X115918169Y-133333609D01*
X116156265Y-133071704D02*
X116322932Y-133071704D01*
X116394360Y-133333609D02*
X116156265Y-133333609D01*
X116156265Y-133333609D02*
X116156265Y-132833609D01*
X116156265Y-132833609D02*
X116394360Y-132833609D01*
X116608646Y-133333609D02*
X116608646Y-132833609D01*
X116608646Y-132833609D02*
X116775313Y-133190752D01*
X116775313Y-133190752D02*
X116941979Y-132833609D01*
X116941979Y-132833609D02*
X116941979Y-133333609D01*
X106484836Y-143033609D02*
X106484836Y-142533609D01*
X106484836Y-142533609D02*
X106770550Y-143033609D01*
X106770550Y-143033609D02*
X106770550Y-142533609D01*
X107103884Y-142533609D02*
X107199122Y-142533609D01*
X107199122Y-142533609D02*
X107246741Y-142557419D01*
X107246741Y-142557419D02*
X107294360Y-142605038D01*
X107294360Y-142605038D02*
X107318170Y-142700276D01*
X107318170Y-142700276D02*
X107318170Y-142866942D01*
X107318170Y-142866942D02*
X107294360Y-142962180D01*
X107294360Y-142962180D02*
X107246741Y-143009800D01*
X107246741Y-143009800D02*
X107199122Y-143033609D01*
X107199122Y-143033609D02*
X107103884Y-143033609D01*
X107103884Y-143033609D02*
X107056265Y-143009800D01*
X107056265Y-143009800D02*
X107008646Y-142962180D01*
X107008646Y-142962180D02*
X106984837Y-142866942D01*
X106984837Y-142866942D02*
X106984837Y-142700276D01*
X106984837Y-142700276D02*
X107008646Y-142605038D01*
X107008646Y-142605038D02*
X107056265Y-142557419D01*
X107056265Y-142557419D02*
X107103884Y-142533609D01*
X107818170Y-143033609D02*
X107651504Y-142795514D01*
X107532456Y-143033609D02*
X107532456Y-142533609D01*
X107532456Y-142533609D02*
X107722932Y-142533609D01*
X107722932Y-142533609D02*
X107770551Y-142557419D01*
X107770551Y-142557419D02*
X107794361Y-142581228D01*
X107794361Y-142581228D02*
X107818170Y-142628847D01*
X107818170Y-142628847D02*
X107818170Y-142700276D01*
X107818170Y-142700276D02*
X107794361Y-142747895D01*
X107794361Y-142747895D02*
X107770551Y-142771704D01*
X107770551Y-142771704D02*
X107722932Y-142795514D01*
X107722932Y-142795514D02*
X107532456Y-142795514D01*
X97484836Y-143033609D02*
X97484836Y-142533609D01*
X97484836Y-142533609D02*
X97770550Y-143033609D01*
X97770550Y-143033609D02*
X97770550Y-142533609D01*
X98103884Y-142533609D02*
X98199122Y-142533609D01*
X98199122Y-142533609D02*
X98246741Y-142557419D01*
X98246741Y-142557419D02*
X98294360Y-142605038D01*
X98294360Y-142605038D02*
X98318170Y-142700276D01*
X98318170Y-142700276D02*
X98318170Y-142866942D01*
X98318170Y-142866942D02*
X98294360Y-142962180D01*
X98294360Y-142962180D02*
X98246741Y-143009800D01*
X98246741Y-143009800D02*
X98199122Y-143033609D01*
X98199122Y-143033609D02*
X98103884Y-143033609D01*
X98103884Y-143033609D02*
X98056265Y-143009800D01*
X98056265Y-143009800D02*
X98008646Y-142962180D01*
X98008646Y-142962180D02*
X97984837Y-142866942D01*
X97984837Y-142866942D02*
X97984837Y-142700276D01*
X97984837Y-142700276D02*
X98008646Y-142605038D01*
X98008646Y-142605038D02*
X98056265Y-142557419D01*
X98056265Y-142557419D02*
X98103884Y-142533609D01*
X98818170Y-143033609D02*
X98651504Y-142795514D01*
X98532456Y-143033609D02*
X98532456Y-142533609D01*
X98532456Y-142533609D02*
X98722932Y-142533609D01*
X98722932Y-142533609D02*
X98770551Y-142557419D01*
X98770551Y-142557419D02*
X98794361Y-142581228D01*
X98794361Y-142581228D02*
X98818170Y-142628847D01*
X98818170Y-142628847D02*
X98818170Y-142700276D01*
X98818170Y-142700276D02*
X98794361Y-142747895D01*
X98794361Y-142747895D02*
X98770551Y-142771704D01*
X98770551Y-142771704D02*
X98722932Y-142795514D01*
X98722932Y-142795514D02*
X98532456Y-142795514D01*
D14*
X66189160Y-153164700D02*
X66332017Y-153200414D01*
X66332017Y-153200414D02*
X66570112Y-153200414D01*
X66570112Y-153200414D02*
X66665350Y-153164700D01*
X66665350Y-153164700D02*
X66712969Y-153128985D01*
X66712969Y-153128985D02*
X66760588Y-153057557D01*
X66760588Y-153057557D02*
X66760588Y-152986128D01*
X66760588Y-152986128D02*
X66712969Y-152914700D01*
X66712969Y-152914700D02*
X66665350Y-152878985D01*
X66665350Y-152878985D02*
X66570112Y-152843271D01*
X66570112Y-152843271D02*
X66379636Y-152807557D01*
X66379636Y-152807557D02*
X66284398Y-152771842D01*
X66284398Y-152771842D02*
X66236779Y-152736128D01*
X66236779Y-152736128D02*
X66189160Y-152664700D01*
X66189160Y-152664700D02*
X66189160Y-152593271D01*
X66189160Y-152593271D02*
X66236779Y-152521842D01*
X66236779Y-152521842D02*
X66284398Y-152486128D01*
X66284398Y-152486128D02*
X66379636Y-152450414D01*
X66379636Y-152450414D02*
X66617731Y-152450414D01*
X66617731Y-152450414D02*
X66760588Y-152486128D01*
D10*
X88484836Y-143033609D02*
X88484836Y-142533609D01*
X88484836Y-142533609D02*
X88770550Y-143033609D01*
X88770550Y-143033609D02*
X88770550Y-142533609D01*
X89103884Y-142533609D02*
X89199122Y-142533609D01*
X89199122Y-142533609D02*
X89246741Y-142557419D01*
X89246741Y-142557419D02*
X89294360Y-142605038D01*
X89294360Y-142605038D02*
X89318170Y-142700276D01*
X89318170Y-142700276D02*
X89318170Y-142866942D01*
X89318170Y-142866942D02*
X89294360Y-142962180D01*
X89294360Y-142962180D02*
X89246741Y-143009800D01*
X89246741Y-143009800D02*
X89199122Y-143033609D01*
X89199122Y-143033609D02*
X89103884Y-143033609D01*
X89103884Y-143033609D02*
X89056265Y-143009800D01*
X89056265Y-143009800D02*
X89008646Y-142962180D01*
X89008646Y-142962180D02*
X88984837Y-142866942D01*
X88984837Y-142866942D02*
X88984837Y-142700276D01*
X88984837Y-142700276D02*
X89008646Y-142605038D01*
X89008646Y-142605038D02*
X89056265Y-142557419D01*
X89056265Y-142557419D02*
X89103884Y-142533609D01*
X89818170Y-143033609D02*
X89651504Y-142795514D01*
X89532456Y-143033609D02*
X89532456Y-142533609D01*
X89532456Y-142533609D02*
X89722932Y-142533609D01*
X89722932Y-142533609D02*
X89770551Y-142557419D01*
X89770551Y-142557419D02*
X89794361Y-142581228D01*
X89794361Y-142581228D02*
X89818170Y-142628847D01*
X89818170Y-142628847D02*
X89818170Y-142700276D01*
X89818170Y-142700276D02*
X89794361Y-142747895D01*
X89794361Y-142747895D02*
X89770551Y-142771704D01*
X89770551Y-142771704D02*
X89722932Y-142795514D01*
X89722932Y-142795514D02*
X89532456Y-142795514D01*
D12*
X70847292Y-125393885D02*
X70918720Y-125322457D01*
X70918720Y-125322457D02*
X71061578Y-125251028D01*
X71061578Y-125251028D02*
X71418720Y-125251028D01*
X71418720Y-125251028D02*
X71561578Y-125322457D01*
X71561578Y-125322457D02*
X71633006Y-125393885D01*
X71633006Y-125393885D02*
X71704435Y-125536742D01*
X71704435Y-125536742D02*
X71704435Y-125679600D01*
X71704435Y-125679600D02*
X71633006Y-125893885D01*
X71633006Y-125893885D02*
X70775863Y-126751028D01*
X70775863Y-126751028D02*
X71704435Y-126751028D01*
D10*
X61484836Y-143033609D02*
X61484836Y-142533609D01*
X61484836Y-142533609D02*
X61770550Y-143033609D01*
X61770550Y-143033609D02*
X61770550Y-142533609D01*
X62103884Y-142533609D02*
X62199122Y-142533609D01*
X62199122Y-142533609D02*
X62246741Y-142557419D01*
X62246741Y-142557419D02*
X62294360Y-142605038D01*
X62294360Y-142605038D02*
X62318170Y-142700276D01*
X62318170Y-142700276D02*
X62318170Y-142866942D01*
X62318170Y-142866942D02*
X62294360Y-142962180D01*
X62294360Y-142962180D02*
X62246741Y-143009800D01*
X62246741Y-143009800D02*
X62199122Y-143033609D01*
X62199122Y-143033609D02*
X62103884Y-143033609D01*
X62103884Y-143033609D02*
X62056265Y-143009800D01*
X62056265Y-143009800D02*
X62008646Y-142962180D01*
X62008646Y-142962180D02*
X61984837Y-142866942D01*
X61984837Y-142866942D02*
X61984837Y-142700276D01*
X61984837Y-142700276D02*
X62008646Y-142605038D01*
X62008646Y-142605038D02*
X62056265Y-142557419D01*
X62056265Y-142557419D02*
X62103884Y-142533609D01*
X62818170Y-143033609D02*
X62651504Y-142795514D01*
X62532456Y-143033609D02*
X62532456Y-142533609D01*
X62532456Y-142533609D02*
X62722932Y-142533609D01*
X62722932Y-142533609D02*
X62770551Y-142557419D01*
X62770551Y-142557419D02*
X62794361Y-142581228D01*
X62794361Y-142581228D02*
X62818170Y-142628847D01*
X62818170Y-142628847D02*
X62818170Y-142700276D01*
X62818170Y-142700276D02*
X62794361Y-142747895D01*
X62794361Y-142747895D02*
X62770551Y-142771704D01*
X62770551Y-142771704D02*
X62722932Y-142795514D01*
X62722932Y-142795514D02*
X62532456Y-142795514D01*
X79584836Y-133333609D02*
X79584836Y-132833609D01*
X79584836Y-132833609D02*
X79751503Y-133190752D01*
X79751503Y-133190752D02*
X79918169Y-132833609D01*
X79918169Y-132833609D02*
X79918169Y-133333609D01*
X80156265Y-133071704D02*
X80322932Y-133071704D01*
X80394360Y-133333609D02*
X80156265Y-133333609D01*
X80156265Y-133333609D02*
X80156265Y-132833609D01*
X80156265Y-132833609D02*
X80394360Y-132833609D01*
X80608646Y-133333609D02*
X80608646Y-132833609D01*
X80608646Y-132833609D02*
X80775313Y-133190752D01*
X80775313Y-133190752D02*
X80941979Y-132833609D01*
X80941979Y-132833609D02*
X80941979Y-133333609D01*
X70484836Y-143033609D02*
X70484836Y-142533609D01*
X70484836Y-142533609D02*
X70770550Y-143033609D01*
X70770550Y-143033609D02*
X70770550Y-142533609D01*
X71103884Y-142533609D02*
X71199122Y-142533609D01*
X71199122Y-142533609D02*
X71246741Y-142557419D01*
X71246741Y-142557419D02*
X71294360Y-142605038D01*
X71294360Y-142605038D02*
X71318170Y-142700276D01*
X71318170Y-142700276D02*
X71318170Y-142866942D01*
X71318170Y-142866942D02*
X71294360Y-142962180D01*
X71294360Y-142962180D02*
X71246741Y-143009800D01*
X71246741Y-143009800D02*
X71199122Y-143033609D01*
X71199122Y-143033609D02*
X71103884Y-143033609D01*
X71103884Y-143033609D02*
X71056265Y-143009800D01*
X71056265Y-143009800D02*
X71008646Y-142962180D01*
X71008646Y-142962180D02*
X70984837Y-142866942D01*
X70984837Y-142866942D02*
X70984837Y-142700276D01*
X70984837Y-142700276D02*
X71008646Y-142605038D01*
X71008646Y-142605038D02*
X71056265Y-142557419D01*
X71056265Y-142557419D02*
X71103884Y-142533609D01*
X71818170Y-143033609D02*
X71651504Y-142795514D01*
X71532456Y-143033609D02*
X71532456Y-142533609D01*
X71532456Y-142533609D02*
X71722932Y-142533609D01*
X71722932Y-142533609D02*
X71770551Y-142557419D01*
X71770551Y-142557419D02*
X71794361Y-142581228D01*
X71794361Y-142581228D02*
X71818170Y-142628847D01*
X71818170Y-142628847D02*
X71818170Y-142700276D01*
X71818170Y-142700276D02*
X71794361Y-142747895D01*
X71794361Y-142747895D02*
X71770551Y-142771704D01*
X71770551Y-142771704D02*
X71722932Y-142795514D01*
X71722932Y-142795514D02*
X71532456Y-142795514D01*
D11*
X60854510Y-152129400D02*
X61997368Y-152129400D01*
D10*
X89733609Y-138815163D02*
X89233609Y-138815163D01*
X89233609Y-138815163D02*
X89733609Y-138529449D01*
X89733609Y-138529449D02*
X89233609Y-138529449D01*
X89590752Y-138315162D02*
X89590752Y-138077067D01*
X89733609Y-138362781D02*
X89233609Y-138196115D01*
X89233609Y-138196115D02*
X89733609Y-138029448D01*
X89733609Y-137862782D02*
X89233609Y-137862782D01*
X89233609Y-137862782D02*
X89733609Y-137577068D01*
X89733609Y-137577068D02*
X89233609Y-137577068D01*
X89733609Y-137338972D02*
X89233609Y-137338972D01*
X89233609Y-137338972D02*
X89233609Y-137219924D01*
X89233609Y-137219924D02*
X89257419Y-137148496D01*
X89257419Y-137148496D02*
X89305038Y-137100877D01*
X89305038Y-137100877D02*
X89352657Y-137077067D01*
X89352657Y-137077067D02*
X89447895Y-137053258D01*
X89447895Y-137053258D02*
X89519323Y-137053258D01*
X89519323Y-137053258D02*
X89614561Y-137077067D01*
X89614561Y-137077067D02*
X89662180Y-137100877D01*
X89662180Y-137100877D02*
X89709800Y-137148496D01*
X89709800Y-137148496D02*
X89733609Y-137219924D01*
X89733609Y-137219924D02*
X89733609Y-137338972D01*
X49175312Y-154672419D02*
X48841979Y-154196228D01*
X48603884Y-154672419D02*
X48603884Y-153672419D01*
X48603884Y-153672419D02*
X48984836Y-153672419D01*
X48984836Y-153672419D02*
X49080074Y-153720038D01*
X49080074Y-153720038D02*
X49127693Y-153767657D01*
X49127693Y-153767657D02*
X49175312Y-153862895D01*
X49175312Y-153862895D02*
X49175312Y-154005752D01*
X49175312Y-154005752D02*
X49127693Y-154100990D01*
X49127693Y-154100990D02*
X49080074Y-154148609D01*
X49080074Y-154148609D02*
X48984836Y-154196228D01*
X48984836Y-154196228D02*
X48603884Y-154196228D01*
X49984836Y-154624800D02*
X49889598Y-154672419D01*
X49889598Y-154672419D02*
X49699122Y-154672419D01*
X49699122Y-154672419D02*
X49603884Y-154624800D01*
X49603884Y-154624800D02*
X49556265Y-154529561D01*
X49556265Y-154529561D02*
X49556265Y-154148609D01*
X49556265Y-154148609D02*
X49603884Y-154053371D01*
X49603884Y-154053371D02*
X49699122Y-154005752D01*
X49699122Y-154005752D02*
X49889598Y-154005752D01*
X49889598Y-154005752D02*
X49984836Y-154053371D01*
X49984836Y-154053371D02*
X50032455Y-154148609D01*
X50032455Y-154148609D02*
X50032455Y-154243847D01*
X50032455Y-154243847D02*
X49556265Y-154339085D01*
X50889598Y-154672419D02*
X50889598Y-154148609D01*
X50889598Y-154148609D02*
X50841979Y-154053371D01*
X50841979Y-154053371D02*
X50746741Y-154005752D01*
X50746741Y-154005752D02*
X50556265Y-154005752D01*
X50556265Y-154005752D02*
X50461027Y-154053371D01*
X50889598Y-154624800D02*
X50794360Y-154672419D01*
X50794360Y-154672419D02*
X50556265Y-154672419D01*
X50556265Y-154672419D02*
X50461027Y-154624800D01*
X50461027Y-154624800D02*
X50413408Y-154529561D01*
X50413408Y-154529561D02*
X50413408Y-154434323D01*
X50413408Y-154434323D02*
X50461027Y-154339085D01*
X50461027Y-154339085D02*
X50556265Y-154291466D01*
X50556265Y-154291466D02*
X50794360Y-154291466D01*
X50794360Y-154291466D02*
X50889598Y-154243847D01*
X51794360Y-154672419D02*
X51794360Y-153672419D01*
X51794360Y-154624800D02*
X51699122Y-154672419D01*
X51699122Y-154672419D02*
X51508646Y-154672419D01*
X51508646Y-154672419D02*
X51413408Y-154624800D01*
X51413408Y-154624800D02*
X51365789Y-154577180D01*
X51365789Y-154577180D02*
X51318170Y-154481942D01*
X51318170Y-154481942D02*
X51318170Y-154196228D01*
X51318170Y-154196228D02*
X51365789Y-154100990D01*
X51365789Y-154100990D02*
X51413408Y-154053371D01*
X51413408Y-154053371D02*
X51508646Y-154005752D01*
X51508646Y-154005752D02*
X51699122Y-154005752D01*
X51699122Y-154005752D02*
X51794360Y-154053371D01*
D12*
X98633006Y-125251028D02*
X97918720Y-125251028D01*
X97918720Y-125251028D02*
X97847292Y-125965314D01*
X97847292Y-125965314D02*
X97918720Y-125893885D01*
X97918720Y-125893885D02*
X98061578Y-125822457D01*
X98061578Y-125822457D02*
X98418720Y-125822457D01*
X98418720Y-125822457D02*
X98561578Y-125893885D01*
X98561578Y-125893885D02*
X98633006Y-125965314D01*
X98633006Y-125965314D02*
X98704435Y-126108171D01*
X98704435Y-126108171D02*
X98704435Y-126465314D01*
X98704435Y-126465314D02*
X98633006Y-126608171D01*
X98633006Y-126608171D02*
X98561578Y-126679600D01*
X98561578Y-126679600D02*
X98418720Y-126751028D01*
X98418720Y-126751028D02*
X98061578Y-126751028D01*
X98061578Y-126751028D02*
X97918720Y-126679600D01*
X97918720Y-126679600D02*
X97847292Y-126608171D01*
X115775863Y-125251028D02*
X116775863Y-125251028D01*
X116775863Y-125251028D02*
X116133006Y-126751028D01*
D10*
X116303884Y-147003014D02*
X116303884Y-146253014D01*
X116303884Y-146253014D02*
X116684836Y-146253014D01*
X116684836Y-146253014D02*
X116780074Y-146288728D01*
X116780074Y-146288728D02*
X116827693Y-146324442D01*
X116827693Y-146324442D02*
X116875312Y-146395871D01*
X116875312Y-146395871D02*
X116875312Y-146503014D01*
X116875312Y-146503014D02*
X116827693Y-146574442D01*
X116827693Y-146574442D02*
X116780074Y-146610157D01*
X116780074Y-146610157D02*
X116684836Y-146645871D01*
X116684836Y-146645871D02*
X116303884Y-146645871D01*
X117446741Y-147003014D02*
X117351503Y-146967300D01*
X117351503Y-146967300D02*
X117303884Y-146931585D01*
X117303884Y-146931585D02*
X117256265Y-146860157D01*
X117256265Y-146860157D02*
X117256265Y-146645871D01*
X117256265Y-146645871D02*
X117303884Y-146574442D01*
X117303884Y-146574442D02*
X117351503Y-146538728D01*
X117351503Y-146538728D02*
X117446741Y-146503014D01*
X117446741Y-146503014D02*
X117589598Y-146503014D01*
X117589598Y-146503014D02*
X117684836Y-146538728D01*
X117684836Y-146538728D02*
X117732455Y-146574442D01*
X117732455Y-146574442D02*
X117780074Y-146645871D01*
X117780074Y-146645871D02*
X117780074Y-146860157D01*
X117780074Y-146860157D02*
X117732455Y-146931585D01*
X117732455Y-146931585D02*
X117684836Y-146967300D01*
X117684836Y-146967300D02*
X117589598Y-147003014D01*
X117589598Y-147003014D02*
X117446741Y-147003014D01*
X118113408Y-146503014D02*
X118303884Y-147003014D01*
X118303884Y-147003014D02*
X118494360Y-146645871D01*
X118494360Y-146645871D02*
X118684836Y-147003014D01*
X118684836Y-147003014D02*
X118875312Y-146503014D01*
X119637217Y-146967300D02*
X119541979Y-147003014D01*
X119541979Y-147003014D02*
X119351503Y-147003014D01*
X119351503Y-147003014D02*
X119256265Y-146967300D01*
X119256265Y-146967300D02*
X119208646Y-146895871D01*
X119208646Y-146895871D02*
X119208646Y-146610157D01*
X119208646Y-146610157D02*
X119256265Y-146538728D01*
X119256265Y-146538728D02*
X119351503Y-146503014D01*
X119351503Y-146503014D02*
X119541979Y-146503014D01*
X119541979Y-146503014D02*
X119637217Y-146538728D01*
X119637217Y-146538728D02*
X119684836Y-146610157D01*
X119684836Y-146610157D02*
X119684836Y-146681585D01*
X119684836Y-146681585D02*
X119208646Y-146753014D01*
X120113408Y-147003014D02*
X120113408Y-146503014D01*
X120113408Y-146645871D02*
X120161027Y-146574442D01*
X120161027Y-146574442D02*
X120208646Y-146538728D01*
X120208646Y-146538728D02*
X120303884Y-146503014D01*
X120303884Y-146503014D02*
X120399122Y-146503014D01*
D15*
X32973996Y-146164619D02*
X32640663Y-145688428D01*
X32402568Y-146164619D02*
X32402568Y-145164619D01*
X32402568Y-145164619D02*
X32783520Y-145164619D01*
X32783520Y-145164619D02*
X32878758Y-145212238D01*
X32878758Y-145212238D02*
X32926377Y-145259857D01*
X32926377Y-145259857D02*
X32973996Y-145355095D01*
X32973996Y-145355095D02*
X32973996Y-145497952D01*
X32973996Y-145497952D02*
X32926377Y-145593190D01*
X32926377Y-145593190D02*
X32878758Y-145640809D01*
X32878758Y-145640809D02*
X32783520Y-145688428D01*
X32783520Y-145688428D02*
X32402568Y-145688428D01*
X33783520Y-146117000D02*
X33688282Y-146164619D01*
X33688282Y-146164619D02*
X33497806Y-146164619D01*
X33497806Y-146164619D02*
X33402568Y-146117000D01*
X33402568Y-146117000D02*
X33354949Y-146021761D01*
X33354949Y-146021761D02*
X33354949Y-145640809D01*
X33354949Y-145640809D02*
X33402568Y-145545571D01*
X33402568Y-145545571D02*
X33497806Y-145497952D01*
X33497806Y-145497952D02*
X33688282Y-145497952D01*
X33688282Y-145497952D02*
X33783520Y-145545571D01*
X33783520Y-145545571D02*
X33831139Y-145640809D01*
X33831139Y-145640809D02*
X33831139Y-145736047D01*
X33831139Y-145736047D02*
X33354949Y-145831285D01*
X34688282Y-145497952D02*
X34688282Y-146307476D01*
X34688282Y-146307476D02*
X34640663Y-146402714D01*
X34640663Y-146402714D02*
X34593044Y-146450333D01*
X34593044Y-146450333D02*
X34497806Y-146497952D01*
X34497806Y-146497952D02*
X34354949Y-146497952D01*
X34354949Y-146497952D02*
X34259711Y-146450333D01*
X34688282Y-146117000D02*
X34593044Y-146164619D01*
X34593044Y-146164619D02*
X34402568Y-146164619D01*
X34402568Y-146164619D02*
X34307330Y-146117000D01*
X34307330Y-146117000D02*
X34259711Y-146069380D01*
X34259711Y-146069380D02*
X34212092Y-145974142D01*
X34212092Y-145974142D02*
X34212092Y-145688428D01*
X34212092Y-145688428D02*
X34259711Y-145593190D01*
X34259711Y-145593190D02*
X34307330Y-145545571D01*
X34307330Y-145545571D02*
X34402568Y-145497952D01*
X34402568Y-145497952D02*
X34593044Y-145497952D01*
X34593044Y-145497952D02*
X34688282Y-145545571D01*
X35783521Y-145164619D02*
X36116854Y-146164619D01*
X36116854Y-146164619D02*
X36450187Y-145164619D01*
X37212092Y-145497952D02*
X37212092Y-146164619D01*
X36973997Y-145117000D02*
X36735902Y-145831285D01*
X36735902Y-145831285D02*
X37354949Y-145831285D01*
D14*
X111424819Y-159018333D02*
X112139104Y-159018333D01*
X112139104Y-159018333D02*
X112281961Y-159065952D01*
X112281961Y-159065952D02*
X112377200Y-159161190D01*
X112377200Y-159161190D02*
X112424819Y-159304047D01*
X112424819Y-159304047D02*
X112424819Y-159399285D01*
X112424819Y-158018333D02*
X112424819Y-158589761D01*
X112424819Y-158304047D02*
X111424819Y-158304047D01*
X111424819Y-158304047D02*
X111567676Y-158399285D01*
X111567676Y-158399285D02*
X111662914Y-158494523D01*
X111662914Y-158494523D02*
X111710533Y-158589761D01*
D16*
%TO.C,Q70*%
X108240000Y-134440000D02*
X109760000Y-134440000D01*
X108240000Y-135440000D02*
X108240000Y-134440000D01*
X108240000Y-137560000D02*
X108240000Y-136560000D01*
X109760000Y-134440000D02*
X109760000Y-134490000D01*
X109760000Y-135610000D02*
X109760000Y-136390000D01*
X109760000Y-137510000D02*
X109760000Y-137560000D01*
X109760000Y-137560000D02*
X108240000Y-137560000D01*
X110300000Y-136380000D02*
X110060000Y-136050000D01*
X110540000Y-136050000D01*
X110300000Y-136380000D01*
G36*
X110300000Y-136380000D02*
G01*
X110060000Y-136050000D01*
X110540000Y-136050000D01*
X110300000Y-136380000D01*
G37*
%TO.C,Q65*%
X103740000Y-138440000D02*
X105260000Y-138440000D01*
X103740000Y-139440000D02*
X103740000Y-138440000D01*
X103740000Y-141560000D02*
X103740000Y-140560000D01*
X105260000Y-138440000D02*
X105260000Y-138490000D01*
X105260000Y-139610000D02*
X105260000Y-140390000D01*
X105260000Y-141510000D02*
X105260000Y-141560000D01*
X105260000Y-141560000D02*
X103740000Y-141560000D01*
X105800000Y-140380000D02*
X105560000Y-140050000D01*
X106040000Y-140050000D01*
X105800000Y-140380000D01*
G36*
X105800000Y-140380000D02*
G01*
X105560000Y-140050000D01*
X106040000Y-140050000D01*
X105800000Y-140380000D01*
G37*
%TO.C,Q82*%
X54240000Y-126440000D02*
X55760000Y-126440000D01*
X54240000Y-127440000D02*
X54240000Y-126440000D01*
X54240000Y-129560000D02*
X54240000Y-128560000D01*
X55760000Y-126440000D02*
X55760000Y-126490000D01*
X55760000Y-127610000D02*
X55760000Y-128390000D01*
X55760000Y-129510000D02*
X55760000Y-129560000D01*
X55760000Y-129560000D02*
X54240000Y-129560000D01*
X56300000Y-128380000D02*
X56060000Y-128050000D01*
X56540000Y-128050000D01*
X56300000Y-128380000D01*
G36*
X56300000Y-128380000D02*
G01*
X56060000Y-128050000D01*
X56540000Y-128050000D01*
X56300000Y-128380000D01*
G37*
%TO.C,Q74*%
X112740000Y-134440000D02*
X114260000Y-134440000D01*
X112740000Y-135440000D02*
X112740000Y-134440000D01*
X112740000Y-137560000D02*
X112740000Y-136560000D01*
X114260000Y-134440000D02*
X114260000Y-134490000D01*
X114260000Y-135610000D02*
X114260000Y-136390000D01*
X114260000Y-137510000D02*
X114260000Y-137560000D01*
X114260000Y-137560000D02*
X112740000Y-137560000D01*
X114800000Y-136380000D02*
X114560000Y-136050000D01*
X115040000Y-136050000D01*
X114800000Y-136380000D01*
G36*
X114800000Y-136380000D02*
G01*
X114560000Y-136050000D01*
X115040000Y-136050000D01*
X114800000Y-136380000D01*
G37*
%TO.C,Q59*%
X99240000Y-130440000D02*
X100760000Y-130440000D01*
X99240000Y-131440000D02*
X99240000Y-130440000D01*
X99240000Y-133560000D02*
X99240000Y-132560000D01*
X100760000Y-130440000D02*
X100760000Y-130490000D01*
X100760000Y-131610000D02*
X100760000Y-132390000D01*
X100760000Y-133510000D02*
X100760000Y-133560000D01*
X100760000Y-133560000D02*
X99240000Y-133560000D01*
X101300000Y-132380000D02*
X101060000Y-132050000D01*
X101540000Y-132050000D01*
X101300000Y-132380000D01*
G36*
X101300000Y-132380000D02*
G01*
X101060000Y-132050000D01*
X101540000Y-132050000D01*
X101300000Y-132380000D01*
G37*
%TO.C,Q16*%
X67440000Y-149840000D02*
X68440000Y-149840000D01*
X67440000Y-151360000D02*
X67440000Y-149840000D01*
X67490000Y-151360000D02*
X67440000Y-151360000D01*
X69390000Y-151360000D02*
X68610000Y-151360000D01*
X69560000Y-149840000D02*
X70560000Y-149840000D01*
X70560000Y-149840000D02*
X70560000Y-151360000D01*
X70560000Y-151360000D02*
X70510000Y-151360000D01*
X68950000Y-152140000D02*
X68620000Y-151900000D01*
X68950000Y-151660000D01*
X68950000Y-152140000D01*
G36*
X68950000Y-152140000D02*
G01*
X68620000Y-151900000D01*
X68950000Y-151660000D01*
X68950000Y-152140000D01*
G37*
%TO.C,Q7*%
X50840000Y-149740000D02*
X51840000Y-149740000D01*
X50840000Y-151260000D02*
X50840000Y-149740000D01*
X50890000Y-151260000D02*
X50840000Y-151260000D01*
X52790000Y-151260000D02*
X52010000Y-151260000D01*
X52960000Y-149740000D02*
X53960000Y-149740000D01*
X53960000Y-149740000D02*
X53960000Y-151260000D01*
X53960000Y-151260000D02*
X53910000Y-151260000D01*
X52350000Y-152040000D02*
X52020000Y-151800000D01*
X52350000Y-151560000D01*
X52350000Y-152040000D01*
G36*
X52350000Y-152040000D02*
G01*
X52020000Y-151800000D01*
X52350000Y-151560000D01*
X52350000Y-152040000D01*
G37*
D14*
%TO.C,D3*%
X68970000Y-125800000D02*
X68970000Y-128090000D01*
X68970000Y-128090000D02*
X70430000Y-128090000D01*
X70430000Y-128090000D02*
X70430000Y-125800000D01*
D16*
%TO.C,Q44*%
X85740000Y-134440000D02*
X87260000Y-134440000D01*
X85740000Y-135440000D02*
X85740000Y-134440000D01*
X85740000Y-137560000D02*
X85740000Y-136560000D01*
X87260000Y-134440000D02*
X87260000Y-134490000D01*
X87260000Y-135610000D02*
X87260000Y-136390000D01*
X87260000Y-137510000D02*
X87260000Y-137560000D01*
X87260000Y-137560000D02*
X85740000Y-137560000D01*
X87800000Y-136380000D02*
X87560000Y-136050000D01*
X88040000Y-136050000D01*
X87800000Y-136380000D01*
G36*
X87800000Y-136380000D02*
G01*
X87560000Y-136050000D01*
X88040000Y-136050000D01*
X87800000Y-136380000D01*
G37*
%TO.C,Q67*%
X103740000Y-130440000D02*
X105260000Y-130440000D01*
X103740000Y-131440000D02*
X103740000Y-130440000D01*
X103740000Y-133560000D02*
X103740000Y-132560000D01*
X105260000Y-130440000D02*
X105260000Y-130490000D01*
X105260000Y-131610000D02*
X105260000Y-132390000D01*
X105260000Y-133510000D02*
X105260000Y-133560000D01*
X105260000Y-133560000D02*
X103740000Y-133560000D01*
X105800000Y-132380000D02*
X105560000Y-132050000D01*
X106040000Y-132050000D01*
X105800000Y-132380000D01*
G36*
X105800000Y-132380000D02*
G01*
X105560000Y-132050000D01*
X106040000Y-132050000D01*
X105800000Y-132380000D01*
G37*
%TO.C,Q61*%
X99240000Y-138440000D02*
X100760000Y-138440000D01*
X99240000Y-139440000D02*
X99240000Y-138440000D01*
X99240000Y-141560000D02*
X99240000Y-140560000D01*
X100760000Y-138440000D02*
X100760000Y-138490000D01*
X100760000Y-139610000D02*
X100760000Y-140390000D01*
X100760000Y-141510000D02*
X100760000Y-141560000D01*
X100760000Y-141560000D02*
X99240000Y-141560000D01*
X101300000Y-140380000D02*
X101060000Y-140050000D01*
X101540000Y-140050000D01*
X101300000Y-140380000D01*
G36*
X101300000Y-140380000D02*
G01*
X101060000Y-140050000D01*
X101540000Y-140050000D01*
X101300000Y-140380000D01*
G37*
%TO.C,Q77*%
X112740000Y-130440000D02*
X114260000Y-130440000D01*
X112740000Y-131440000D02*
X112740000Y-130440000D01*
X112740000Y-133560000D02*
X112740000Y-132560000D01*
X114260000Y-130440000D02*
X114260000Y-130490000D01*
X114260000Y-131610000D02*
X114260000Y-132390000D01*
X114260000Y-133510000D02*
X114260000Y-133560000D01*
X114260000Y-133560000D02*
X112740000Y-133560000D01*
X114800000Y-132380000D02*
X114560000Y-132050000D01*
X115040000Y-132050000D01*
X114800000Y-132380000D01*
G36*
X114800000Y-132380000D02*
G01*
X114560000Y-132050000D01*
X115040000Y-132050000D01*
X114800000Y-132380000D01*
G37*
%TO.C,Q22*%
X67740000Y-142440000D02*
X69260000Y-142440000D01*
X67740000Y-143440000D02*
X67740000Y-142440000D01*
X67740000Y-145560000D02*
X67740000Y-144560000D01*
X69260000Y-142440000D02*
X69260000Y-142490000D01*
X69260000Y-143610000D02*
X69260000Y-144390000D01*
X69260000Y-145510000D02*
X69260000Y-145560000D01*
X69260000Y-145560000D02*
X67740000Y-145560000D01*
X69800000Y-144380000D02*
X69560000Y-144050000D01*
X70040000Y-144050000D01*
X69800000Y-144380000D01*
G36*
X69800000Y-144380000D02*
G01*
X69560000Y-144050000D01*
X70040000Y-144050000D01*
X69800000Y-144380000D01*
G37*
%TO.C,Q3*%
X54240000Y-142440000D02*
X55760000Y-142440000D01*
X54240000Y-143440000D02*
X54240000Y-142440000D01*
X54240000Y-145560000D02*
X54240000Y-144560000D01*
X55760000Y-142440000D02*
X55760000Y-142490000D01*
X55760000Y-143610000D02*
X55760000Y-144390000D01*
X55760000Y-145510000D02*
X55760000Y-145560000D01*
X55760000Y-145560000D02*
X54240000Y-145560000D01*
X56300000Y-144380000D02*
X56060000Y-144050000D01*
X56540000Y-144050000D01*
X56300000Y-144380000D01*
G36*
X56300000Y-144380000D02*
G01*
X56060000Y-144050000D01*
X56540000Y-144050000D01*
X56300000Y-144380000D01*
G37*
%TO.C,Q79*%
X117240000Y-130440000D02*
X118760000Y-130440000D01*
X117240000Y-131440000D02*
X117240000Y-130440000D01*
X117240000Y-133560000D02*
X117240000Y-132560000D01*
X118760000Y-130440000D02*
X118760000Y-130490000D01*
X118760000Y-131610000D02*
X118760000Y-132390000D01*
X118760000Y-133510000D02*
X118760000Y-133560000D01*
X118760000Y-133560000D02*
X117240000Y-133560000D01*
X119300000Y-132380000D02*
X119060000Y-132050000D01*
X119540000Y-132050000D01*
X119300000Y-132380000D01*
G36*
X119300000Y-132380000D02*
G01*
X119060000Y-132050000D01*
X119540000Y-132050000D01*
X119300000Y-132380000D01*
G37*
%TO.C,Q49*%
X90240000Y-130440000D02*
X91760000Y-130440000D01*
X90240000Y-131440000D02*
X90240000Y-130440000D01*
X90240000Y-133560000D02*
X90240000Y-132560000D01*
X91760000Y-130440000D02*
X91760000Y-130490000D01*
X91760000Y-131610000D02*
X91760000Y-132390000D01*
X91760000Y-133510000D02*
X91760000Y-133560000D01*
X91760000Y-133560000D02*
X90240000Y-133560000D01*
X92300000Y-132380000D02*
X92060000Y-132050000D01*
X92540000Y-132050000D01*
X92300000Y-132380000D01*
G36*
X92300000Y-132380000D02*
G01*
X92060000Y-132050000D01*
X92540000Y-132050000D01*
X92300000Y-132380000D01*
G37*
%TO.C,Q89*%
X117240000Y-126440000D02*
X118760000Y-126440000D01*
X117240000Y-127440000D02*
X117240000Y-126440000D01*
X117240000Y-129560000D02*
X117240000Y-128560000D01*
X118760000Y-126440000D02*
X118760000Y-126490000D01*
X118760000Y-127610000D02*
X118760000Y-128390000D01*
X118760000Y-129510000D02*
X118760000Y-129560000D01*
X118760000Y-129560000D02*
X117240000Y-129560000D01*
X119300000Y-128380000D02*
X119060000Y-128050000D01*
X119540000Y-128050000D01*
X119300000Y-128380000D01*
G36*
X119300000Y-128380000D02*
G01*
X119060000Y-128050000D01*
X119540000Y-128050000D01*
X119300000Y-128380000D01*
G37*
%TO.C,Q31*%
X72240000Y-138440000D02*
X73760000Y-138440000D01*
X72240000Y-139440000D02*
X72240000Y-138440000D01*
X72240000Y-141560000D02*
X72240000Y-140560000D01*
X73760000Y-138440000D02*
X73760000Y-138490000D01*
X73760000Y-139610000D02*
X73760000Y-140390000D01*
X73760000Y-141510000D02*
X73760000Y-141560000D01*
X73760000Y-141560000D02*
X72240000Y-141560000D01*
X74300000Y-140380000D02*
X74060000Y-140050000D01*
X74540000Y-140050000D01*
X74300000Y-140380000D01*
G36*
X74300000Y-140380000D02*
G01*
X74060000Y-140050000D01*
X74540000Y-140050000D01*
X74300000Y-140380000D01*
G37*
%TO.C,Q55*%
X94740000Y-138440000D02*
X96260000Y-138440000D01*
X94740000Y-139440000D02*
X94740000Y-138440000D01*
X94740000Y-141560000D02*
X94740000Y-140560000D01*
X96260000Y-138440000D02*
X96260000Y-138490000D01*
X96260000Y-139610000D02*
X96260000Y-140390000D01*
X96260000Y-141510000D02*
X96260000Y-141560000D01*
X96260000Y-141560000D02*
X94740000Y-141560000D01*
X96800000Y-140380000D02*
X96560000Y-140050000D01*
X97040000Y-140050000D01*
X96800000Y-140380000D01*
G36*
X96800000Y-140380000D02*
G01*
X96560000Y-140050000D01*
X97040000Y-140050000D01*
X96800000Y-140380000D01*
G37*
%TO.C,J1*%
X58470000Y-155377358D02*
X58470000Y-155690000D01*
X58470000Y-164450000D02*
X58470000Y-158450000D01*
X59330000Y-155377358D02*
X59330000Y-155690000D01*
X59330000Y-158450000D02*
X59330000Y-164450000D01*
X59330000Y-164450000D02*
X58470000Y-164450000D01*
X60170000Y-155690000D02*
X60170000Y-158450000D01*
X61010000Y-155377358D02*
X61010000Y-155690000D01*
X61010000Y-164450000D02*
X61010000Y-158450000D01*
X61870000Y-155377358D02*
X61870000Y-155690000D01*
X61870000Y-158450000D02*
X61870000Y-164450000D01*
X61870000Y-164450000D02*
X61010000Y-164450000D01*
X62710000Y-155690000D02*
X62710000Y-158450000D01*
X63550000Y-155377358D02*
X63550000Y-155690000D01*
X63550000Y-164450000D02*
X63550000Y-158450000D01*
X64410000Y-155377358D02*
X64410000Y-155690000D01*
X64410000Y-158450000D02*
X64410000Y-164450000D01*
X64410000Y-164450000D02*
X63550000Y-164450000D01*
X65250000Y-155690000D02*
X65250000Y-158450000D01*
X66090000Y-155377358D02*
X66090000Y-155690000D01*
X66090000Y-164450000D02*
X66090000Y-158450000D01*
X66950000Y-155377358D02*
X66950000Y-155690000D01*
X66950000Y-158450000D02*
X66950000Y-164450000D01*
X66950000Y-164450000D02*
X66090000Y-164450000D01*
X67790000Y-155690000D02*
X67790000Y-158450000D01*
X68630000Y-155377358D02*
X68630000Y-155690000D01*
X68630000Y-164450000D02*
X68630000Y-158450000D01*
X69490000Y-155377358D02*
X69490000Y-155690000D01*
X69490000Y-158450000D02*
X69490000Y-164450000D01*
X69490000Y-164450000D02*
X68630000Y-164450000D01*
X70330000Y-155690000D02*
X70330000Y-158450000D01*
X71170000Y-155377358D02*
X71170000Y-155690000D01*
X71170000Y-164450000D02*
X71170000Y-158450000D01*
X72030000Y-155377358D02*
X72030000Y-155690000D01*
X72030000Y-158450000D02*
X72030000Y-164450000D01*
X72030000Y-164450000D02*
X71170000Y-164450000D01*
X72870000Y-155690000D02*
X72870000Y-158450000D01*
X73710000Y-155377358D02*
X73710000Y-155690000D01*
X73710000Y-164450000D02*
X73710000Y-158450000D01*
X74570000Y-155377358D02*
X74570000Y-155690000D01*
X74570000Y-158450000D02*
X74570000Y-164450000D01*
X74570000Y-164450000D02*
X73710000Y-164450000D01*
X75410000Y-155690000D02*
X75410000Y-158450000D01*
X76250000Y-155377358D02*
X76250000Y-155690000D01*
X76250000Y-164450000D02*
X76250000Y-158450000D01*
X77110000Y-155377358D02*
X77110000Y-155690000D01*
X77110000Y-158450000D02*
X77110000Y-164450000D01*
X77110000Y-164450000D02*
X76250000Y-164450000D01*
X77950000Y-155690000D02*
X77950000Y-158450000D01*
X78790000Y-155377358D02*
X78790000Y-155690000D01*
X78790000Y-164450000D02*
X78790000Y-158450000D01*
X79650000Y-155377358D02*
X79650000Y-155690000D01*
X79650000Y-158450000D02*
X79650000Y-164450000D01*
X79650000Y-164450000D02*
X78790000Y-164450000D01*
X80490000Y-155690000D02*
X80490000Y-158450000D01*
X81330000Y-155377358D02*
X81330000Y-155690000D01*
X81330000Y-164450000D02*
X81330000Y-158450000D01*
X82190000Y-155377358D02*
X82190000Y-155690000D01*
X82190000Y-158450000D02*
X82190000Y-164450000D01*
X82190000Y-164450000D02*
X81330000Y-164450000D01*
X83030000Y-155690000D02*
X83030000Y-158450000D01*
X83870000Y-155377358D02*
X83870000Y-155690000D01*
X83870000Y-164450000D02*
X83870000Y-158450000D01*
X84730000Y-155377358D02*
X84730000Y-155690000D01*
X84730000Y-158450000D02*
X84730000Y-164450000D01*
X84730000Y-164450000D02*
X83870000Y-164450000D01*
X85570000Y-155690000D02*
X85570000Y-158450000D01*
X86410000Y-155377358D02*
X86410000Y-155690000D01*
X86410000Y-164450000D02*
X86410000Y-158450000D01*
X87270000Y-155377358D02*
X87270000Y-155690000D01*
X87270000Y-158450000D02*
X87270000Y-164450000D01*
X87270000Y-164450000D02*
X86410000Y-164450000D01*
X88110000Y-155690000D02*
X88110000Y-158450000D01*
X88950000Y-155377358D02*
X88950000Y-155690000D01*
X88950000Y-164450000D02*
X88950000Y-158450000D01*
X89810000Y-155377358D02*
X89810000Y-155690000D01*
X89810000Y-158450000D02*
X89810000Y-164450000D01*
X89810000Y-164450000D02*
X88950000Y-164450000D01*
X90650000Y-155690000D02*
X90650000Y-158450000D01*
X91490000Y-155377358D02*
X91490000Y-155690000D01*
X91490000Y-164450000D02*
X91490000Y-158450000D01*
X92350000Y-155377358D02*
X92350000Y-155690000D01*
X92350000Y-158450000D02*
X92350000Y-164450000D01*
X92350000Y-164450000D02*
X91490000Y-164450000D01*
X93190000Y-155690000D02*
X93190000Y-158450000D01*
X94030000Y-155377358D02*
X94030000Y-155690000D01*
X94030000Y-164450000D02*
X94030000Y-158450000D01*
X94890000Y-155377358D02*
X94890000Y-155690000D01*
X94890000Y-158450000D02*
X94890000Y-164450000D01*
X94890000Y-164450000D02*
X94030000Y-164450000D01*
X95730000Y-155690000D02*
X95730000Y-158450000D01*
X96570000Y-155377358D02*
X96570000Y-155690000D01*
X96570000Y-164450000D02*
X96570000Y-158450000D01*
X97430000Y-155377358D02*
X97430000Y-155690000D01*
X97430000Y-158450000D02*
X97430000Y-164450000D01*
X97430000Y-164450000D02*
X96570000Y-164450000D01*
X98270000Y-155690000D02*
X98270000Y-158450000D01*
X99110000Y-155377358D02*
X99110000Y-155690000D01*
X99110000Y-164450000D02*
X99110000Y-158450000D01*
X99970000Y-155377358D02*
X99970000Y-155690000D01*
X99970000Y-158450000D02*
X99970000Y-164450000D01*
X99970000Y-164450000D02*
X99110000Y-164450000D01*
X100810000Y-155690000D02*
X100810000Y-158450000D01*
X101650000Y-155377358D02*
X101650000Y-155690000D01*
X101650000Y-164450000D02*
X101650000Y-158450000D01*
X102510000Y-155377358D02*
X102510000Y-155690000D01*
X102510000Y-158450000D02*
X102510000Y-164450000D01*
X102510000Y-164450000D02*
X101650000Y-164450000D01*
X103350000Y-155690000D02*
X103350000Y-158450000D01*
X104190000Y-155377358D02*
X104190000Y-155690000D01*
X104190000Y-164450000D02*
X104190000Y-158450000D01*
X105050000Y-155377358D02*
X105050000Y-155690000D01*
X105050000Y-158450000D02*
X105050000Y-164450000D01*
X105050000Y-164450000D02*
X104190000Y-164450000D01*
X105890000Y-155690000D02*
X105890000Y-158450000D01*
X106730000Y-155377358D02*
X106730000Y-155690000D01*
X106730000Y-164450000D02*
X106730000Y-158450000D01*
X107590000Y-155377358D02*
X107590000Y-155690000D01*
X107590000Y-158450000D02*
X107590000Y-164450000D01*
X107590000Y-164450000D02*
X106730000Y-164450000D01*
X108430000Y-155690000D02*
X108430000Y-158450000D01*
X109270000Y-155460000D02*
X109270000Y-155690000D01*
X109700000Y-153030000D02*
X110970000Y-153030000D01*
X110130000Y-155460000D02*
X110130000Y-155690000D01*
X110970000Y-153030000D02*
X110970000Y-154300000D01*
X110130000Y-158450000D02*
X109270000Y-158450000D01*
X109270000Y-164450000D01*
X110130000Y-164450000D01*
X110130000Y-158450000D01*
G36*
X110130000Y-158450000D02*
G01*
X109270000Y-158450000D01*
X109270000Y-164450000D01*
X110130000Y-164450000D01*
X110130000Y-158450000D01*
G37*
X111080000Y-155690000D02*
X57520000Y-155690000D01*
X57520000Y-158450000D01*
X111080000Y-158450000D01*
X111080000Y-155690000D01*
%TO.C,Q27*%
X67740000Y-130440000D02*
X69260000Y-130440000D01*
X67740000Y-131440000D02*
X67740000Y-130440000D01*
X67740000Y-133560000D02*
X67740000Y-132560000D01*
X69260000Y-130440000D02*
X69260000Y-130490000D01*
X69260000Y-131610000D02*
X69260000Y-132390000D01*
X69260000Y-133510000D02*
X69260000Y-133560000D01*
X69260000Y-133560000D02*
X67740000Y-133560000D01*
X69800000Y-132380000D02*
X69560000Y-132050000D01*
X70040000Y-132050000D01*
X69800000Y-132380000D01*
G36*
X69800000Y-132380000D02*
G01*
X69560000Y-132050000D01*
X70040000Y-132050000D01*
X69800000Y-132380000D01*
G37*
D14*
%TO.C,D4*%
X77970000Y-125800000D02*
X77970000Y-128090000D01*
X77970000Y-128090000D02*
X79430000Y-128090000D01*
X79430000Y-128090000D02*
X79430000Y-125800000D01*
D16*
%TO.C,Q9*%
X54240000Y-130440000D02*
X55760000Y-130440000D01*
X54240000Y-131440000D02*
X54240000Y-130440000D01*
X54240000Y-133560000D02*
X54240000Y-132560000D01*
X55760000Y-130440000D02*
X55760000Y-130490000D01*
X55760000Y-131610000D02*
X55760000Y-132390000D01*
X55760000Y-133510000D02*
X55760000Y-133560000D01*
X55760000Y-133560000D02*
X54240000Y-133560000D01*
X56300000Y-132380000D02*
X56060000Y-132050000D01*
X56540000Y-132050000D01*
X56300000Y-132380000D01*
G36*
X56300000Y-132380000D02*
G01*
X56060000Y-132050000D01*
X56540000Y-132050000D01*
X56300000Y-132380000D01*
G37*
%TO.C,Q64*%
X103740000Y-134440000D02*
X105260000Y-134440000D01*
X103740000Y-135440000D02*
X103740000Y-134440000D01*
X103740000Y-137560000D02*
X103740000Y-136560000D01*
X105260000Y-134440000D02*
X105260000Y-134490000D01*
X105260000Y-135610000D02*
X105260000Y-136390000D01*
X105260000Y-137510000D02*
X105260000Y-137560000D01*
X105260000Y-137560000D02*
X103740000Y-137560000D01*
X105800000Y-136380000D02*
X105560000Y-136050000D01*
X106040000Y-136050000D01*
X105800000Y-136380000D01*
G36*
X105800000Y-136380000D02*
G01*
X105560000Y-136050000D01*
X106040000Y-136050000D01*
X105800000Y-136380000D01*
G37*
%TO.C,Q4*%
X49740000Y-134440000D02*
X51260000Y-134440000D01*
X49740000Y-135440000D02*
X49740000Y-134440000D01*
X49740000Y-137560000D02*
X49740000Y-136560000D01*
X51260000Y-134440000D02*
X51260000Y-134490000D01*
X51260000Y-135610000D02*
X51260000Y-136390000D01*
X51260000Y-137510000D02*
X51260000Y-137560000D01*
X51260000Y-137560000D02*
X49740000Y-137560000D01*
X51800000Y-136380000D02*
X51560000Y-136050000D01*
X52040000Y-136050000D01*
X51800000Y-136380000D01*
G36*
X51800000Y-136380000D02*
G01*
X51560000Y-136050000D01*
X52040000Y-136050000D01*
X51800000Y-136380000D01*
G37*
%TO.C,Q6*%
X49740000Y-130440000D02*
X51260000Y-130440000D01*
X49740000Y-131440000D02*
X49740000Y-130440000D01*
X49740000Y-133560000D02*
X49740000Y-132560000D01*
X51260000Y-130440000D02*
X51260000Y-130490000D01*
X51260000Y-131610000D02*
X51260000Y-132390000D01*
X51260000Y-133510000D02*
X51260000Y-133560000D01*
X51260000Y-133560000D02*
X49740000Y-133560000D01*
X51800000Y-132380000D02*
X51560000Y-132050000D01*
X52040000Y-132050000D01*
X51800000Y-132380000D01*
G36*
X51800000Y-132380000D02*
G01*
X51560000Y-132050000D01*
X52040000Y-132050000D01*
X51800000Y-132380000D01*
G37*
%TO.C,Q63*%
X108240000Y-142440000D02*
X109760000Y-142440000D01*
X108240000Y-143440000D02*
X108240000Y-142440000D01*
X108240000Y-145560000D02*
X108240000Y-144560000D01*
X109760000Y-142440000D02*
X109760000Y-142490000D01*
X109760000Y-143610000D02*
X109760000Y-144390000D01*
X109760000Y-145510000D02*
X109760000Y-145560000D01*
X109760000Y-145560000D02*
X108240000Y-145560000D01*
X110300000Y-144380000D02*
X110060000Y-144050000D01*
X110540000Y-144050000D01*
X110300000Y-144380000D01*
G36*
X110300000Y-144380000D02*
G01*
X110060000Y-144050000D01*
X110540000Y-144050000D01*
X110300000Y-144380000D01*
G37*
%TO.C,Q81*%
X117240000Y-138440000D02*
X118760000Y-138440000D01*
X117240000Y-139440000D02*
X117240000Y-138440000D01*
X117240000Y-141560000D02*
X117240000Y-140560000D01*
X118760000Y-138440000D02*
X118760000Y-138490000D01*
X118760000Y-139610000D02*
X118760000Y-140390000D01*
X118760000Y-141510000D02*
X118760000Y-141560000D01*
X118760000Y-141560000D02*
X117240000Y-141560000D01*
X119300000Y-140380000D02*
X119060000Y-140050000D01*
X119540000Y-140050000D01*
X119300000Y-140380000D01*
G36*
X119300000Y-140380000D02*
G01*
X119060000Y-140050000D01*
X119540000Y-140050000D01*
X119300000Y-140380000D01*
G37*
%TO.C,Q13*%
X63240000Y-142440000D02*
X64760000Y-142440000D01*
X63240000Y-143440000D02*
X63240000Y-142440000D01*
X63240000Y-145560000D02*
X63240000Y-144560000D01*
X64760000Y-142440000D02*
X64760000Y-142490000D01*
X64760000Y-143610000D02*
X64760000Y-144390000D01*
X64760000Y-145510000D02*
X64760000Y-145560000D01*
X64760000Y-145560000D02*
X63240000Y-145560000D01*
X65300000Y-144380000D02*
X65060000Y-144050000D01*
X65540000Y-144050000D01*
X65300000Y-144380000D01*
G36*
X65300000Y-144380000D02*
G01*
X65060000Y-144050000D01*
X65540000Y-144050000D01*
X65300000Y-144380000D01*
G37*
%TO.C,Q24*%
X67740000Y-134440000D02*
X69260000Y-134440000D01*
X67740000Y-135440000D02*
X67740000Y-134440000D01*
X67740000Y-137560000D02*
X67740000Y-136560000D01*
X69260000Y-134440000D02*
X69260000Y-134490000D01*
X69260000Y-135610000D02*
X69260000Y-136390000D01*
X69260000Y-137510000D02*
X69260000Y-137560000D01*
X69260000Y-137560000D02*
X67740000Y-137560000D01*
X69800000Y-136380000D02*
X69560000Y-136050000D01*
X70040000Y-136050000D01*
X69800000Y-136380000D01*
G36*
X69800000Y-136380000D02*
G01*
X69560000Y-136050000D01*
X70040000Y-136050000D01*
X69800000Y-136380000D01*
G37*
%TO.C,Q29*%
X72240000Y-130440000D02*
X73760000Y-130440000D01*
X72240000Y-131440000D02*
X72240000Y-130440000D01*
X72240000Y-133560000D02*
X72240000Y-132560000D01*
X73760000Y-130440000D02*
X73760000Y-130490000D01*
X73760000Y-131610000D02*
X73760000Y-132390000D01*
X73760000Y-133510000D02*
X73760000Y-133560000D01*
X73760000Y-133560000D02*
X72240000Y-133560000D01*
X74300000Y-132380000D02*
X74060000Y-132050000D01*
X74540000Y-132050000D01*
X74300000Y-132380000D01*
G36*
X74300000Y-132380000D02*
G01*
X74060000Y-132050000D01*
X74540000Y-132050000D01*
X74300000Y-132380000D01*
G37*
D14*
%TO.C,D1*%
X50970000Y-125800000D02*
X50970000Y-128090000D01*
X50970000Y-128090000D02*
X52430000Y-128090000D01*
X52430000Y-128090000D02*
X52430000Y-125800000D01*
D16*
%TO.C,Q30*%
X72240000Y-134440000D02*
X73760000Y-134440000D01*
X72240000Y-135440000D02*
X72240000Y-134440000D01*
X72240000Y-137560000D02*
X72240000Y-136560000D01*
X73760000Y-134440000D02*
X73760000Y-134490000D01*
X73760000Y-135610000D02*
X73760000Y-136390000D01*
X73760000Y-137510000D02*
X73760000Y-137560000D01*
X73760000Y-137560000D02*
X72240000Y-137560000D01*
X74300000Y-136380000D02*
X74060000Y-136050000D01*
X74540000Y-136050000D01*
X74300000Y-136380000D01*
G36*
X74300000Y-136380000D02*
G01*
X74060000Y-136050000D01*
X74540000Y-136050000D01*
X74300000Y-136380000D01*
G37*
D14*
%TO.C,D6*%
X95970000Y-125800000D02*
X95970000Y-128090000D01*
X95970000Y-128090000D02*
X97430000Y-128090000D01*
X97430000Y-128090000D02*
X97430000Y-125800000D01*
D16*
%TO.C,Q72*%
X112740000Y-142440000D02*
X114260000Y-142440000D01*
X112740000Y-143440000D02*
X112740000Y-142440000D01*
X112740000Y-145560000D02*
X112740000Y-144560000D01*
X114260000Y-142440000D02*
X114260000Y-142490000D01*
X114260000Y-143610000D02*
X114260000Y-144390000D01*
X114260000Y-145510000D02*
X114260000Y-145560000D01*
X114260000Y-145560000D02*
X112740000Y-145560000D01*
X114800000Y-144380000D02*
X114560000Y-144050000D01*
X115040000Y-144050000D01*
X114800000Y-144380000D01*
G36*
X114800000Y-144380000D02*
G01*
X114560000Y-144050000D01*
X115040000Y-144050000D01*
X114800000Y-144380000D01*
G37*
%TO.C,Q32*%
X76740000Y-142440000D02*
X78260000Y-142440000D01*
X76740000Y-143440000D02*
X76740000Y-142440000D01*
X76740000Y-145560000D02*
X76740000Y-144560000D01*
X78260000Y-142440000D02*
X78260000Y-142490000D01*
X78260000Y-143610000D02*
X78260000Y-144390000D01*
X78260000Y-145510000D02*
X78260000Y-145560000D01*
X78260000Y-145560000D02*
X76740000Y-145560000D01*
X78800000Y-144380000D02*
X78560000Y-144050000D01*
X79040000Y-144050000D01*
X78800000Y-144380000D01*
G36*
X78800000Y-144380000D02*
G01*
X78560000Y-144050000D01*
X79040000Y-144050000D01*
X78800000Y-144380000D01*
G37*
D14*
%TO.C,D8*%
X113970000Y-125800000D02*
X113970000Y-128090000D01*
X113970000Y-128090000D02*
X115430000Y-128090000D01*
X115430000Y-128090000D02*
X115430000Y-125800000D01*
D16*
%TO.C,Q10*%
X54240000Y-134440000D02*
X55760000Y-134440000D01*
X54240000Y-135440000D02*
X54240000Y-134440000D01*
X54240000Y-137560000D02*
X54240000Y-136560000D01*
X55760000Y-134440000D02*
X55760000Y-134490000D01*
X55760000Y-135610000D02*
X55760000Y-136390000D01*
X55760000Y-137510000D02*
X55760000Y-137560000D01*
X55760000Y-137560000D02*
X54240000Y-137560000D01*
X56300000Y-136380000D02*
X56060000Y-136050000D01*
X56540000Y-136050000D01*
X56300000Y-136380000D01*
G36*
X56300000Y-136380000D02*
G01*
X56060000Y-136050000D01*
X56540000Y-136050000D01*
X56300000Y-136380000D01*
G37*
%TO.C,Q73*%
X117240000Y-142440000D02*
X118760000Y-142440000D01*
X117240000Y-143440000D02*
X117240000Y-142440000D01*
X117240000Y-145560000D02*
X117240000Y-144560000D01*
X118760000Y-142440000D02*
X118760000Y-142490000D01*
X118760000Y-143610000D02*
X118760000Y-144390000D01*
X118760000Y-145510000D02*
X118760000Y-145560000D01*
X118760000Y-145560000D02*
X117240000Y-145560000D01*
X119300000Y-144380000D02*
X119060000Y-144050000D01*
X119540000Y-144050000D01*
X119300000Y-144380000D01*
G36*
X119300000Y-144380000D02*
G01*
X119060000Y-144050000D01*
X119540000Y-144050000D01*
X119300000Y-144380000D01*
G37*
%TO.C,Q69*%
X108240000Y-130440000D02*
X109760000Y-130440000D01*
X108240000Y-131440000D02*
X108240000Y-130440000D01*
X108240000Y-133560000D02*
X108240000Y-132560000D01*
X109760000Y-130440000D02*
X109760000Y-130490000D01*
X109760000Y-131610000D02*
X109760000Y-132390000D01*
X109760000Y-133510000D02*
X109760000Y-133560000D01*
X109760000Y-133560000D02*
X108240000Y-133560000D01*
X110300000Y-132380000D02*
X110060000Y-132050000D01*
X110540000Y-132050000D01*
X110300000Y-132380000D01*
G36*
X110300000Y-132380000D02*
G01*
X110060000Y-132050000D01*
X110540000Y-132050000D01*
X110300000Y-132380000D01*
G37*
%TO.C,Q8*%
X63140000Y-149840000D02*
X64140000Y-149840000D01*
X63140000Y-151360000D02*
X63140000Y-149840000D01*
X63190000Y-151360000D02*
X63140000Y-151360000D01*
X65090000Y-151360000D02*
X64310000Y-151360000D01*
X65260000Y-149840000D02*
X66260000Y-149840000D01*
X66260000Y-149840000D02*
X66260000Y-151360000D01*
X66260000Y-151360000D02*
X66210000Y-151360000D01*
X64650000Y-152140000D02*
X64320000Y-151900000D01*
X64650000Y-151660000D01*
X64650000Y-152140000D01*
G36*
X64650000Y-152140000D02*
G01*
X64320000Y-151900000D01*
X64650000Y-151660000D01*
X64650000Y-152140000D01*
G37*
%TO.C,Q84*%
X72240000Y-126440000D02*
X73760000Y-126440000D01*
X72240000Y-127440000D02*
X72240000Y-126440000D01*
X72240000Y-129560000D02*
X72240000Y-128560000D01*
X73760000Y-126440000D02*
X73760000Y-126490000D01*
X73760000Y-127610000D02*
X73760000Y-128390000D01*
X73760000Y-129510000D02*
X73760000Y-129560000D01*
X73760000Y-129560000D02*
X72240000Y-129560000D01*
X74300000Y-128380000D02*
X74060000Y-128050000D01*
X74540000Y-128050000D01*
X74300000Y-128380000D01*
G36*
X74300000Y-128380000D02*
G01*
X74060000Y-128050000D01*
X74540000Y-128050000D01*
X74300000Y-128380000D01*
G37*
%TO.C,Q75*%
X112740000Y-138440000D02*
X114260000Y-138440000D01*
X112740000Y-139440000D02*
X112740000Y-138440000D01*
X112740000Y-141560000D02*
X112740000Y-140560000D01*
X114260000Y-138440000D02*
X114260000Y-138490000D01*
X114260000Y-139610000D02*
X114260000Y-140390000D01*
X114260000Y-141510000D02*
X114260000Y-141560000D01*
X114260000Y-141560000D02*
X112740000Y-141560000D01*
X114800000Y-140380000D02*
X114560000Y-140050000D01*
X115040000Y-140050000D01*
X114800000Y-140380000D01*
G36*
X114800000Y-140380000D02*
G01*
X114560000Y-140050000D01*
X115040000Y-140050000D01*
X114800000Y-140380000D01*
G37*
D17*
%TO.C,G\u002A\u002A\u002A*%
G36*
X74553641Y-151030002D02*
G01*
X74553641Y-151195935D01*
X74529058Y-151195935D01*
X74504476Y-151195935D01*
X74504476Y-151030002D01*
X74504476Y-150864070D01*
X74529058Y-150864070D01*
X74553641Y-150864070D01*
X74553641Y-151030002D01*
G37*
G36*
X74953109Y-150507621D02*
G01*
X74953109Y-150673554D01*
X74928526Y-150673554D01*
X74903943Y-150673554D01*
X74903943Y-150507621D01*
X74903943Y-150341689D01*
X74928526Y-150341689D01*
X74953109Y-150341689D01*
X74953109Y-150507621D01*
G37*
G36*
X73299927Y-150409291D02*
G01*
X73299927Y-150476893D01*
X73373675Y-150476893D01*
X73447423Y-150476893D01*
X73447423Y-150409291D01*
X73447423Y-150341689D01*
X73472005Y-150341689D01*
X73496588Y-150341689D01*
X73496588Y-150507621D01*
X73496588Y-150673554D01*
X73472005Y-150673554D01*
X73447423Y-150673554D01*
X73447423Y-150596538D01*
X73447423Y-150519523D01*
X73375211Y-150521254D01*
X73303000Y-150522986D01*
X73301274Y-150598270D01*
X73299549Y-150673554D01*
X73275155Y-150673554D01*
X73250762Y-150673554D01*
X73250762Y-150507621D01*
X73250762Y-150341689D01*
X73275344Y-150341689D01*
X73299927Y-150341689D01*
X73299927Y-150409291D01*
G37*
G36*
X73339363Y-150855002D02*
G01*
X73353157Y-150868472D01*
X73360014Y-150886405D01*
X73357612Y-150906252D01*
X73355035Y-150911679D01*
X73340150Y-150926994D01*
X73320131Y-150933384D01*
X73299370Y-150929471D01*
X73298963Y-150929271D01*
X73281723Y-150915143D01*
X73273846Y-150896825D01*
X73274331Y-150890320D01*
X73294479Y-150890320D01*
X73300172Y-150904312D01*
X73313200Y-150912379D01*
X73327268Y-150910704D01*
X73336346Y-150901792D01*
X73338511Y-150887431D01*
X73331184Y-150875970D01*
X73317147Y-150870904D01*
X73311937Y-150871168D01*
X73298857Y-150877848D01*
X73294479Y-150890320D01*
X73274331Y-150890320D01*
X73275278Y-150877612D01*
X73285962Y-150860798D01*
X73300265Y-150851638D01*
X73320958Y-150848541D01*
X73339363Y-150855002D01*
G37*
G36*
X74676554Y-150517313D02*
G01*
X74676554Y-150600752D01*
X74694518Y-150618716D01*
X74714917Y-150633133D01*
X74736387Y-150635595D01*
X74756448Y-150628747D01*
X74768201Y-150619422D01*
X74776738Y-150604040D01*
X74782436Y-150581073D01*
X74785673Y-150548994D01*
X74786828Y-150506276D01*
X74786829Y-150506085D01*
X74787176Y-150433874D01*
X74811758Y-150433874D01*
X74836341Y-150433874D01*
X74836341Y-150553714D01*
X74836341Y-150673554D01*
X74811758Y-150673554D01*
X74795663Y-150672515D01*
X74788552Y-150668337D01*
X74787176Y-150661353D01*
X74786644Y-150653737D01*
X74782980Y-150652542D01*
X74773082Y-150657763D01*
X74767202Y-150661330D01*
X74743212Y-150670698D01*
X74715046Y-150674025D01*
X74687370Y-150671357D01*
X74664853Y-150662745D01*
X74661274Y-150660231D01*
X74648812Y-150648578D01*
X74639736Y-150634783D01*
X74633551Y-150616798D01*
X74629762Y-150592578D01*
X74627873Y-150560073D01*
X74627389Y-150520110D01*
X74627389Y-150433874D01*
X74651971Y-150433874D01*
X74676554Y-150433874D01*
X74676554Y-150517313D01*
G37*
G36*
X73600648Y-150936281D02*
G01*
X73612876Y-150970955D01*
X73625931Y-151007929D01*
X73638024Y-151042138D01*
X73645324Y-151062759D01*
X73654870Y-151087726D01*
X73662522Y-151103759D01*
X73667668Y-151109662D01*
X73668925Y-151108851D01*
X73672220Y-151100771D01*
X73678875Y-151082967D01*
X73688209Y-151057322D01*
X73699536Y-151025720D01*
X73712172Y-150990043D01*
X73714870Y-150982373D01*
X73756444Y-150864070D01*
X73783743Y-150864070D01*
X73799595Y-150865115D01*
X73808339Y-150867762D01*
X73808992Y-150869350D01*
X73806444Y-150876303D01*
X73800276Y-150893283D01*
X73791045Y-150918759D01*
X73779305Y-150951196D01*
X73765611Y-150989062D01*
X73750518Y-151030824D01*
X73748907Y-151035283D01*
X73690871Y-151195935D01*
X73665899Y-151195935D01*
X73640927Y-151195935D01*
X73598745Y-151077631D01*
X73584583Y-151037993D01*
X73570540Y-150998829D01*
X73557612Y-150962909D01*
X73546795Y-150933001D01*
X73539087Y-150911875D01*
X73539021Y-150911698D01*
X73521480Y-150864070D01*
X73548341Y-150864070D01*
X73575203Y-150864070D01*
X73600648Y-150936281D01*
G37*
G36*
X75042272Y-150956948D02*
G01*
X75055814Y-150961520D01*
X75071664Y-150970759D01*
X75083511Y-150984351D01*
X75091841Y-151003896D01*
X75097141Y-151030993D01*
X75099897Y-151067243D01*
X75100604Y-151108763D01*
X75100604Y-151195935D01*
X75076022Y-151195935D01*
X75051439Y-151195935D01*
X75051439Y-151115736D01*
X75050720Y-151073380D01*
X75048121Y-151041779D01*
X75042978Y-151019459D01*
X75034628Y-151004945D01*
X75022408Y-150996762D01*
X75005655Y-150993435D01*
X74996306Y-150993128D01*
X74977538Y-150996095D01*
X74963180Y-151005726D01*
X74952787Y-151023119D01*
X74945916Y-151049372D01*
X74942122Y-151085583D01*
X74940964Y-151129869D01*
X74940817Y-151195935D01*
X74916235Y-151195935D01*
X74891652Y-151195935D01*
X74891652Y-151076095D01*
X74891652Y-150956254D01*
X74916235Y-150956254D01*
X74932293Y-150957269D01*
X74939396Y-150961412D01*
X74940817Y-150968730D01*
X74941409Y-150976376D01*
X74945103Y-150977164D01*
X74954782Y-150970861D01*
X74959769Y-150967193D01*
X74983141Y-150956588D01*
X75012164Y-150953083D01*
X75042272Y-150956948D01*
G37*
G36*
X75445383Y-150436534D02*
G01*
X75471608Y-150452737D01*
X75484271Y-150466573D01*
X75489223Y-150474488D01*
X75492807Y-150484057D01*
X75495307Y-150497442D01*
X75497009Y-150516804D01*
X75498198Y-150544304D01*
X75499087Y-150578732D01*
X75501175Y-150673554D01*
X75476041Y-150673554D01*
X75450907Y-150673554D01*
X75450907Y-150593355D01*
X75450159Y-150550880D01*
X75447494Y-150519174D01*
X75442283Y-150496782D01*
X75433895Y-150482252D01*
X75421699Y-150474129D01*
X75405066Y-150470957D01*
X75397762Y-150470747D01*
X75377829Y-150473433D01*
X75362753Y-150482292D01*
X75351996Y-150498525D01*
X75345025Y-150523334D01*
X75341302Y-150557921D01*
X75340285Y-150599609D01*
X75340285Y-150673554D01*
X75315702Y-150673554D01*
X75291120Y-150673554D01*
X75291120Y-150553714D01*
X75291120Y-150433874D01*
X75315702Y-150433874D01*
X75331760Y-150434888D01*
X75338863Y-150439032D01*
X75340285Y-150446349D01*
X75340823Y-150454218D01*
X75344432Y-150455005D01*
X75354108Y-150448596D01*
X75358082Y-150445666D01*
X75385510Y-150432483D01*
X75415647Y-150429611D01*
X75445383Y-150436534D01*
G37*
G36*
X74418436Y-150427365D02*
G01*
X74418781Y-150458548D01*
X74419728Y-150485118D01*
X74421143Y-150504764D01*
X74422897Y-150515173D01*
X74423509Y-150516177D01*
X74429702Y-150513438D01*
X74442274Y-150503533D01*
X74459138Y-150488201D01*
X74470973Y-150476593D01*
X74513364Y-150433874D01*
X74547330Y-150434116D01*
X74581296Y-150434358D01*
X74530618Y-150482913D01*
X74479940Y-150531467D01*
X74535227Y-150599168D01*
X74555013Y-150623618D01*
X74571666Y-150644622D01*
X74583792Y-150660386D01*
X74589998Y-150669122D01*
X74590515Y-150670211D01*
X74585019Y-150672210D01*
X74571122Y-150673404D01*
X74562990Y-150673554D01*
X74550938Y-150673238D01*
X74541478Y-150671200D01*
X74532484Y-150665803D01*
X74521832Y-150655411D01*
X74507397Y-150638387D01*
X74491177Y-150618241D01*
X74446888Y-150562929D01*
X74432662Y-150576293D01*
X74424846Y-150585434D01*
X74420514Y-150596780D01*
X74418710Y-150614057D01*
X74418436Y-150631606D01*
X74418436Y-150673554D01*
X74393854Y-150673554D01*
X74369271Y-150673554D01*
X74369271Y-150507621D01*
X74369271Y-150341689D01*
X74393854Y-150341689D01*
X74418436Y-150341689D01*
X74418436Y-150427365D01*
G37*
G36*
X75782772Y-150922453D02*
G01*
X75782772Y-150956254D01*
X75807355Y-150956254D01*
X75823117Y-150956982D01*
X75830125Y-150960928D01*
X75831899Y-150970732D01*
X75831938Y-150974691D01*
X75830967Y-150986513D01*
X75825706Y-150991769D01*
X75812634Y-150993099D01*
X75807355Y-150993128D01*
X75782772Y-150993128D01*
X75782772Y-151069197D01*
X75783288Y-151105685D01*
X75785181Y-151131400D01*
X75788969Y-151147833D01*
X75795173Y-151156470D01*
X75804309Y-151158801D01*
X75813468Y-151157289D01*
X75821835Y-151156868D01*
X75825255Y-151163566D01*
X75825792Y-151175001D01*
X75825792Y-151195935D01*
X75794784Y-151195935D01*
X75773156Y-151194459D01*
X75758466Y-151188915D01*
X75748692Y-151180850D01*
X75742720Y-151174340D01*
X75738575Y-151167310D01*
X75735926Y-151157520D01*
X75734437Y-151142728D01*
X75733777Y-151120693D01*
X75733610Y-151089174D01*
X75733607Y-151079447D01*
X75733607Y-150993128D01*
X75712097Y-150993128D01*
X75697646Y-150992101D01*
X75691718Y-150986887D01*
X75690587Y-150974691D01*
X75691787Y-150962304D01*
X75697869Y-150957224D01*
X75712097Y-150956254D01*
X75733607Y-150956254D01*
X75733607Y-150922453D01*
X75733607Y-150888652D01*
X75758190Y-150888652D01*
X75782772Y-150888652D01*
X75782772Y-150922453D01*
G37*
G36*
X74393854Y-150922453D02*
G01*
X74393854Y-150956254D01*
X74418436Y-150956254D01*
X74434199Y-150956982D01*
X74441206Y-150960928D01*
X74442980Y-150970732D01*
X74443019Y-150974691D01*
X74442048Y-150986513D01*
X74436788Y-150991769D01*
X74423715Y-150993099D01*
X74418436Y-150993128D01*
X74393854Y-150993128D01*
X74393854Y-151066437D01*
X74394398Y-151102419D01*
X74396458Y-151127871D01*
X74400671Y-151144522D01*
X74407679Y-151154103D01*
X74418121Y-151158344D01*
X74428094Y-151159061D01*
X74438783Y-151161137D01*
X74442684Y-151169816D01*
X74443019Y-151177498D01*
X74442414Y-151188176D01*
X74438548Y-151193648D01*
X74428341Y-151195655D01*
X74410393Y-151195935D01*
X74389856Y-151194539D01*
X74373357Y-151190973D01*
X74367650Y-151188253D01*
X74358477Y-151178300D01*
X74351943Y-151163353D01*
X74347699Y-151141612D01*
X74345397Y-151111278D01*
X74344689Y-151070553D01*
X74344689Y-151069549D01*
X74344689Y-150993128D01*
X74326252Y-150993128D01*
X74313193Y-150991605D01*
X74308379Y-150984422D01*
X74307815Y-150974691D01*
X74309337Y-150961632D01*
X74316521Y-150956819D01*
X74326252Y-150956254D01*
X74336792Y-150955687D01*
X74342278Y-150951967D01*
X74344360Y-150942070D01*
X74344689Y-150922970D01*
X74344689Y-150922453D01*
X74344689Y-150888652D01*
X74369271Y-150888652D01*
X74393854Y-150888652D01*
X74393854Y-150922453D01*
G37*
G36*
X75377159Y-151030002D02*
G01*
X75377159Y-151195935D01*
X75356366Y-151195935D01*
X75340413Y-151193703D01*
X75333074Y-151186012D01*
X75332484Y-151184125D01*
X75330031Y-151177652D01*
X75325286Y-151176077D01*
X75315250Y-151179683D01*
X75299998Y-151187197D01*
X75278891Y-151197008D01*
X75263022Y-151200902D01*
X75247090Y-151199285D01*
X75226590Y-151192850D01*
X75198659Y-151177277D01*
X75177809Y-151154236D01*
X75163917Y-151125820D01*
X75156857Y-151094122D01*
X75156665Y-151076095D01*
X75205081Y-151076095D01*
X75209335Y-151107727D01*
X75221076Y-151132758D01*
X75238770Y-151149871D01*
X75260880Y-151157750D01*
X75285874Y-151155076D01*
X75293607Y-151152064D01*
X75310308Y-151138228D01*
X75321449Y-151116559D01*
X75327031Y-151090184D01*
X75327054Y-151062232D01*
X75321517Y-151035832D01*
X75310422Y-151014111D01*
X75293767Y-151000199D01*
X75293607Y-151000125D01*
X75268054Y-150994073D01*
X75244930Y-150998962D01*
X75225768Y-151013476D01*
X75212103Y-151036298D01*
X75205470Y-151066112D01*
X75205081Y-151076095D01*
X75156665Y-151076095D01*
X75156506Y-151061235D01*
X75162740Y-151029251D01*
X75175434Y-151000264D01*
X75194465Y-150976366D01*
X75219707Y-150959649D01*
X75240800Y-150953377D01*
X75260008Y-150951782D01*
X75277502Y-150955207D01*
X75297631Y-150963931D01*
X75327994Y-150978958D01*
X75327994Y-150921514D01*
X75327994Y-150864070D01*
X75352576Y-150864070D01*
X75377159Y-150864070D01*
X75377159Y-151030002D01*
G37*
G36*
X73269901Y-147319475D02*
G01*
X73295280Y-147320293D01*
X73312717Y-147321577D01*
X73323298Y-147323361D01*
X73328051Y-147325616D01*
X73332175Y-147332025D01*
X73341805Y-147348041D01*
X73356330Y-147372608D01*
X73375141Y-147404669D01*
X73397628Y-147443170D01*
X73423181Y-147487055D01*
X73451190Y-147535267D01*
X73481044Y-147586751D01*
X73512135Y-147640452D01*
X73543853Y-147695313D01*
X73575586Y-147750280D01*
X73606726Y-147804296D01*
X73636663Y-147856306D01*
X73664786Y-147905254D01*
X73690486Y-147950085D01*
X73713153Y-147989742D01*
X73732176Y-148023170D01*
X73746947Y-148049313D01*
X73756855Y-148067116D01*
X73761248Y-148075432D01*
X73762611Y-148080603D01*
X73762029Y-148087554D01*
X73758910Y-148097503D01*
X73752659Y-148111667D01*
X73742680Y-148131264D01*
X73728381Y-148157512D01*
X73709165Y-148191628D01*
X73684440Y-148234831D01*
X73677826Y-148246329D01*
X73654818Y-148286203D01*
X73633690Y-148322631D01*
X73615245Y-148354243D01*
X73600286Y-148379671D01*
X73589614Y-148397546D01*
X73584033Y-148406500D01*
X73583500Y-148407213D01*
X73579904Y-148402628D01*
X73570598Y-148388083D01*
X73555992Y-148364276D01*
X73536499Y-148331902D01*
X73512530Y-148291662D01*
X73484497Y-148244251D01*
X73452810Y-148190367D01*
X73417883Y-148130709D01*
X73380125Y-148065973D01*
X73339949Y-147996858D01*
X73297766Y-147924060D01*
X73264442Y-147866395D01*
X72949685Y-147321098D01*
X73135249Y-147319470D01*
X73190972Y-147319098D01*
X73235494Y-147319088D01*
X73269901Y-147319475D01*
G37*
G36*
X75596656Y-150963116D02*
G01*
X75622323Y-150982828D01*
X75641092Y-151010694D01*
X75651559Y-151045433D01*
X75653246Y-151065340D01*
X75653713Y-151091459D01*
X75570081Y-151091459D01*
X75486448Y-151091459D01*
X75490407Y-151108359D01*
X75497554Y-151123666D01*
X75510063Y-151139614D01*
X75512680Y-151142160D01*
X75535207Y-151156000D01*
X75558945Y-151157978D01*
X75582579Y-151148263D01*
X75601780Y-151130734D01*
X75613622Y-151120376D01*
X75627398Y-151118708D01*
X75634045Y-151119790D01*
X75648522Y-151124946D01*
X75652714Y-151133513D01*
X75646752Y-151146939D01*
X75637617Y-151158810D01*
X75610598Y-151181848D01*
X75577598Y-151195733D01*
X75541876Y-151199416D01*
X75520750Y-151196358D01*
X75488560Y-151182636D01*
X75463809Y-151159638D01*
X75447168Y-151128348D01*
X75439304Y-151089750D01*
X75438750Y-151075860D01*
X75442926Y-151040757D01*
X75494122Y-151040757D01*
X75494701Y-151047459D01*
X75498281Y-151051550D01*
X75507281Y-151053673D01*
X75524117Y-151054470D01*
X75546164Y-151054585D01*
X75571459Y-151054450D01*
X75586897Y-151053561D01*
X75594910Y-151051187D01*
X75597934Y-151046601D01*
X75598403Y-151039074D01*
X75598403Y-151038941D01*
X75593054Y-151021375D01*
X75579709Y-151005390D01*
X75562419Y-150995004D01*
X75552185Y-150993128D01*
X75528095Y-150997802D01*
X75508580Y-151010232D01*
X75496548Y-151028033D01*
X75494122Y-151040757D01*
X75442926Y-151040757D01*
X75443507Y-151035869D01*
X75457474Y-151002219D01*
X75479728Y-150976145D01*
X75509348Y-150958884D01*
X75530251Y-150953274D01*
X75565497Y-150952838D01*
X75596656Y-150963116D01*
G37*
G36*
X73951934Y-150956854D02*
G01*
X73979936Y-150972270D01*
X74002467Y-150996082D01*
X74017965Y-151026998D01*
X74024868Y-151063729D01*
X74025080Y-151071485D01*
X74025114Y-151091459D01*
X73941482Y-151091459D01*
X73857849Y-151091459D01*
X73861808Y-151108359D01*
X73868955Y-151123666D01*
X73881464Y-151139614D01*
X73884081Y-151142160D01*
X73906566Y-151155983D01*
X73930200Y-151157938D01*
X73953667Y-151148199D01*
X73972876Y-151130409D01*
X73984263Y-151120216D01*
X73997576Y-151118451D01*
X74005141Y-151119675D01*
X74019783Y-151124873D01*
X74024115Y-151133406D01*
X74018282Y-151146749D01*
X74009018Y-151158810D01*
X73982212Y-151181779D01*
X73949714Y-151195717D01*
X73914770Y-151199742D01*
X73881821Y-151193418D01*
X73850552Y-151176359D01*
X73828301Y-151151290D01*
X73814896Y-151117922D01*
X73810162Y-151075966D01*
X73810151Y-151074361D01*
X73813622Y-151041576D01*
X73862565Y-151041576D01*
X73863583Y-151050777D01*
X73863781Y-151050990D01*
X73871188Y-151052641D01*
X73887762Y-151053892D01*
X73910381Y-151054539D01*
X73918590Y-151054585D01*
X73943583Y-151054443D01*
X73958743Y-151053518D01*
X73966528Y-151051059D01*
X73969395Y-151046314D01*
X73969803Y-151038941D01*
X73964435Y-151019162D01*
X73950402Y-151004270D01*
X73930816Y-150995626D01*
X73908788Y-150994591D01*
X73887428Y-151002527D01*
X73887081Y-151002752D01*
X73876391Y-151013265D01*
X73867527Y-151027639D01*
X73862565Y-151041576D01*
X73813622Y-151041576D01*
X73814553Y-151032784D01*
X73828058Y-150999425D01*
X73850640Y-150974328D01*
X73882272Y-150957534D01*
X73885762Y-150956367D01*
X73920022Y-150951122D01*
X73951934Y-150956854D01*
G37*
G36*
X73102517Y-150960413D02*
G01*
X73129133Y-150977553D01*
X73146285Y-150997188D01*
X73154591Y-151011691D01*
X73159658Y-151027630D01*
X73162443Y-151049014D01*
X73163552Y-151069490D01*
X73163993Y-151096769D01*
X73162348Y-151116204D01*
X73157922Y-151132161D01*
X73151260Y-151146629D01*
X73136845Y-151167824D01*
X73119458Y-151184056D01*
X73116039Y-151186221D01*
X73089254Y-151196086D01*
X73059843Y-151198236D01*
X73032429Y-151192735D01*
X73017511Y-151184826D01*
X73004765Y-151176005D01*
X72996661Y-151171502D01*
X72995966Y-151171352D01*
X72994503Y-151177040D01*
X72993369Y-151192276D01*
X72992728Y-151214318D01*
X72992644Y-151226663D01*
X72992644Y-151281974D01*
X72968061Y-151281974D01*
X72943479Y-151281974D01*
X72943479Y-151119114D01*
X72943479Y-151068214D01*
X72995383Y-151068214D01*
X72996695Y-151097445D01*
X73005188Y-151125702D01*
X73020248Y-151145659D01*
X73039921Y-151156424D01*
X73062253Y-151157107D01*
X73085291Y-151146815D01*
X73092414Y-151141128D01*
X73102600Y-151131353D01*
X73108585Y-151122240D01*
X73111484Y-151110179D01*
X73112411Y-151091562D01*
X73112484Y-151076095D01*
X73112197Y-151051934D01*
X73110593Y-151036454D01*
X73106557Y-151026045D01*
X73098977Y-151017096D01*
X73092414Y-151011061D01*
X73069906Y-150996953D01*
X73048145Y-150993912D01*
X73028471Y-151000728D01*
X73012226Y-151016190D01*
X73000750Y-151039089D01*
X72995383Y-151068214D01*
X72943479Y-151068214D01*
X72943479Y-150956254D01*
X72968061Y-150956254D01*
X72984144Y-150957285D01*
X72991252Y-150961451D01*
X72992644Y-150968546D01*
X72993687Y-150978051D01*
X72998395Y-150979691D01*
X73009134Y-150973448D01*
X73016142Y-150968376D01*
X73043423Y-150955249D01*
X73073081Y-150952786D01*
X73102517Y-150960413D01*
G37*
G36*
X74187826Y-150953014D02*
G01*
X74216936Y-150960682D01*
X74241711Y-150974998D01*
X74259361Y-150995437D01*
X74263849Y-151005349D01*
X74267336Y-151018298D01*
X74263990Y-151024326D01*
X74253709Y-151027409D01*
X74238512Y-151030968D01*
X74229457Y-151033395D01*
X74222480Y-151031913D01*
X74221775Y-151029530D01*
X74216785Y-151018722D01*
X74204671Y-151006768D01*
X74189720Y-150997095D01*
X74176252Y-150993128D01*
X74154494Y-150996473D01*
X74138027Y-151005273D01*
X74129941Y-151017682D01*
X74129591Y-151021018D01*
X74132307Y-151034048D01*
X74141865Y-151042769D01*
X74160377Y-151048559D01*
X74175683Y-151051067D01*
X74214124Y-151058480D01*
X74241692Y-151069279D01*
X74259550Y-151084364D01*
X74268862Y-151104635D01*
X74270941Y-151124721D01*
X74266058Y-151153303D01*
X74251285Y-151174928D01*
X74226438Y-151189761D01*
X74191331Y-151197964D01*
X74187399Y-151198410D01*
X74164532Y-151199019D01*
X74142859Y-151196805D01*
X74136471Y-151195293D01*
X74107059Y-151182843D01*
X74087059Y-151165336D01*
X74078286Y-151151080D01*
X74072483Y-151136230D01*
X74074529Y-151127618D01*
X74086145Y-151122463D01*
X74097511Y-151120044D01*
X74112231Y-151118814D01*
X74120409Y-151123850D01*
X74124427Y-151131107D01*
X74137621Y-151146523D01*
X74158116Y-151155868D01*
X74181708Y-151157390D01*
X74185889Y-151156713D01*
X74207973Y-151149259D01*
X74219436Y-151137323D01*
X74221775Y-151125260D01*
X74219656Y-151113202D01*
X74211923Y-151104570D01*
X74196512Y-151098161D01*
X74171361Y-151092774D01*
X74163919Y-151091543D01*
X74129964Y-151084703D01*
X74106369Y-151076187D01*
X74091217Y-151064940D01*
X74082593Y-151049908D01*
X74081418Y-151046120D01*
X74078042Y-151018076D01*
X74085550Y-150994552D01*
X74102390Y-150975116D01*
X74127763Y-150959708D01*
X74157172Y-150952515D01*
X74187826Y-150953014D01*
G37*
G36*
X74233812Y-150430496D02*
G01*
X74265662Y-150440504D01*
X74270842Y-150443041D01*
X74285654Y-150454139D01*
X74297446Y-150468964D01*
X74304516Y-150484252D01*
X74305164Y-150496741D01*
X74301444Y-150501745D01*
X74287947Y-150506675D01*
X74273256Y-150507323D01*
X74262023Y-150504015D01*
X74258649Y-150498751D01*
X74253184Y-150487387D01*
X74239436Y-150477506D01*
X74221382Y-150471525D01*
X74212557Y-150470747D01*
X74194402Y-150473937D01*
X74178197Y-150481908D01*
X74168020Y-150492267D01*
X74166465Y-150497799D01*
X74172262Y-150510423D01*
X74188361Y-150520805D01*
X74212819Y-150527798D01*
X74218703Y-150528710D01*
X74241501Y-150532533D01*
X74262777Y-150537275D01*
X74269308Y-150539125D01*
X74292773Y-150551830D01*
X74307557Y-150570781D01*
X74313635Y-150593495D01*
X74310977Y-150617487D01*
X74299557Y-150640273D01*
X74279346Y-150659369D01*
X74270703Y-150664458D01*
X74249521Y-150670871D01*
X74221653Y-150673416D01*
X74192057Y-150672164D01*
X74165691Y-150667185D01*
X74154173Y-150662790D01*
X74141713Y-150653744D01*
X74128856Y-150640202D01*
X74117918Y-150625335D01*
X74111214Y-150612312D01*
X74111057Y-150604306D01*
X74111301Y-150604060D01*
X74118758Y-150601328D01*
X74133222Y-150598060D01*
X74135736Y-150597596D01*
X74151089Y-150596238D01*
X74160317Y-150601045D01*
X74167353Y-150611515D01*
X74181065Y-150625498D01*
X74200317Y-150633153D01*
X74221639Y-150634606D01*
X74241560Y-150629985D01*
X74256609Y-150619417D01*
X74262522Y-150608027D01*
X74262988Y-150593620D01*
X74255232Y-150582878D01*
X74237969Y-150574914D01*
X74209916Y-150568838D01*
X74204830Y-150568054D01*
X74169103Y-150560757D01*
X74144064Y-150550617D01*
X74128267Y-150536755D01*
X74120266Y-150518293D01*
X74119893Y-150516449D01*
X74120160Y-150489378D01*
X74130457Y-150466168D01*
X74148877Y-150447749D01*
X74173513Y-150435045D01*
X74202461Y-150428985D01*
X74233812Y-150430496D01*
G37*
G36*
X75812312Y-147341959D02*
G01*
X75807957Y-147349453D01*
X75797740Y-147367111D01*
X75781941Y-147394451D01*
X75760839Y-147430989D01*
X75734713Y-147476243D01*
X75703841Y-147529729D01*
X75668502Y-147590963D01*
X75628975Y-147659464D01*
X75585539Y-147734746D01*
X75538472Y-147816328D01*
X75488054Y-147903726D01*
X75434562Y-147996457D01*
X75378277Y-148094037D01*
X75319477Y-148195983D01*
X75258440Y-148301813D01*
X75195445Y-148411043D01*
X75130771Y-148523189D01*
X75094459Y-148586159D01*
X75029159Y-148699375D01*
X74965470Y-148809756D01*
X74903664Y-148916831D01*
X74844015Y-149020127D01*
X74786795Y-149119174D01*
X74732278Y-149213502D01*
X74680734Y-149302638D01*
X74632439Y-149386112D01*
X74587664Y-149463453D01*
X74546682Y-149534190D01*
X74509766Y-149597851D01*
X74477188Y-149653965D01*
X74449222Y-149702062D01*
X74426141Y-149741670D01*
X74408216Y-149772318D01*
X74395722Y-149793535D01*
X74388930Y-149804850D01*
X74387708Y-149806690D01*
X74384231Y-149801539D01*
X74375092Y-149786535D01*
X74360758Y-149762477D01*
X74341697Y-149730166D01*
X74318378Y-149690402D01*
X74291268Y-149643985D01*
X74260835Y-149591715D01*
X74227547Y-149534392D01*
X74191871Y-149472816D01*
X74154276Y-149407788D01*
X74140815Y-149384472D01*
X74102628Y-149318262D01*
X74066226Y-149255070D01*
X74032079Y-149195715D01*
X74000653Y-149141012D01*
X73972417Y-149091778D01*
X73947837Y-149048829D01*
X73927382Y-149012982D01*
X73911519Y-148985052D01*
X73900716Y-148965858D01*
X73895439Y-148956214D01*
X73894989Y-148955261D01*
X73897780Y-148949265D01*
X73906394Y-148933211D01*
X73920499Y-148907681D01*
X73939763Y-148873257D01*
X73963856Y-148830519D01*
X73992446Y-148780050D01*
X74025202Y-148722432D01*
X74061792Y-148658246D01*
X74101884Y-148588074D01*
X74145149Y-148512497D01*
X74191253Y-148432099D01*
X74239866Y-148347459D01*
X74290657Y-148259161D01*
X74343294Y-148167785D01*
X74363126Y-148133392D01*
X74833268Y-147318251D01*
X75329878Y-147318138D01*
X75826489Y-147318025D01*
X75812312Y-147341959D01*
G37*
G36*
X75130971Y-150429953D02*
G01*
X75166235Y-150438950D01*
X75194621Y-150457744D01*
X75215071Y-150485305D01*
X75226526Y-150520602D01*
X75226968Y-150523360D01*
X75229337Y-150541089D01*
X75229096Y-150553515D01*
X75224530Y-150561581D01*
X75213926Y-150566229D01*
X75195571Y-150568401D01*
X75167750Y-150569039D01*
X75143817Y-150569078D01*
X75111184Y-150569168D01*
X75088881Y-150569650D01*
X75074946Y-150570839D01*
X75067417Y-150573051D01*
X75064332Y-150576604D01*
X75063731Y-150581812D01*
X75063730Y-150581984D01*
X75067893Y-150593729D01*
X75078463Y-150608940D01*
X75085403Y-150616563D01*
X75099794Y-150629640D01*
X75111282Y-150635234D01*
X75124791Y-150635338D01*
X75129959Y-150634598D01*
X75155248Y-150624624D01*
X75169882Y-150612059D01*
X75182561Y-150599919D01*
X75193948Y-150595768D01*
X75208292Y-150597165D01*
X75222425Y-150601430D01*
X75229481Y-150606722D01*
X75229663Y-150607592D01*
X75225132Y-150619442D01*
X75213680Y-150634764D01*
X75198516Y-150650071D01*
X75182853Y-150661877D01*
X75176812Y-150664988D01*
X75149205Y-150672208D01*
X75118150Y-150673718D01*
X75088401Y-150669747D01*
X75064713Y-150660526D01*
X75063103Y-150659489D01*
X75038368Y-150636107D01*
X75021718Y-150606415D01*
X75013074Y-150572885D01*
X75012359Y-150537992D01*
X75014943Y-150525753D01*
X75063730Y-150525753D01*
X75069641Y-150529042D01*
X75086502Y-150531234D01*
X75113010Y-150532178D01*
X75119041Y-150532204D01*
X75145880Y-150531868D01*
X75162594Y-150530611D01*
X75171340Y-150528063D01*
X75174273Y-150523852D01*
X75174352Y-150522680D01*
X75170804Y-150507559D01*
X75162224Y-150490892D01*
X75151714Y-150478021D01*
X75146421Y-150474565D01*
X75124902Y-150470911D01*
X75102413Y-150473765D01*
X75094118Y-150477075D01*
X75083093Y-150487145D01*
X75072197Y-150502998D01*
X75064923Y-150519042D01*
X75063730Y-150525753D01*
X75014943Y-150525753D01*
X75019492Y-150504210D01*
X75034396Y-150474014D01*
X75056992Y-150449876D01*
X75070027Y-150441447D01*
X75090216Y-150432307D01*
X75108906Y-150428979D01*
X75130971Y-150429953D01*
G37*
G36*
X73337520Y-150953280D02*
G01*
X73366293Y-150960003D01*
X73387670Y-150972091D01*
X73402512Y-150990943D01*
X73411680Y-151017957D01*
X73416034Y-151054529D01*
X73416694Y-151081883D01*
X73416917Y-151111199D01*
X73417859Y-151130671D01*
X73419937Y-151142741D01*
X73423564Y-151149852D01*
X73428986Y-151154342D01*
X73439118Y-151167241D01*
X73441277Y-151178976D01*
X73440122Y-151189940D01*
X73434308Y-151194763D01*
X73420307Y-151195924D01*
X73417140Y-151195935D01*
X73397662Y-151193450D01*
X73384216Y-151184419D01*
X73380756Y-151180365D01*
X73371066Y-151171059D01*
X73364765Y-151170887D01*
X73364557Y-151171190D01*
X73350331Y-151184014D01*
X73328094Y-151193105D01*
X73301778Y-151197643D01*
X73275312Y-151196806D01*
X73259980Y-151193024D01*
X73233593Y-151178138D01*
X73216561Y-151157501D01*
X73209260Y-151133467D01*
X73210878Y-151119005D01*
X73259712Y-151119005D01*
X73260286Y-151130184D01*
X73271151Y-151148054D01*
X73289245Y-151157590D01*
X73312253Y-151158200D01*
X73336924Y-151149779D01*
X73357242Y-151133677D01*
X73366843Y-151112426D01*
X73367529Y-151104154D01*
X73366463Y-151097492D01*
X73361504Y-151093676D01*
X73350012Y-151091927D01*
X73329344Y-151091465D01*
X73324510Y-151091459D01*
X73299923Y-151092153D01*
X73284058Y-151094766D01*
X73273399Y-151100095D01*
X73268884Y-151104064D01*
X73259712Y-151119005D01*
X73210878Y-151119005D01*
X73212065Y-151108389D01*
X73225351Y-151084624D01*
X73240447Y-151070502D01*
X73252120Y-151063771D01*
X73267272Y-151059419D01*
X73289070Y-151056788D01*
X73312658Y-151055510D01*
X73367529Y-151053362D01*
X73367529Y-151035982D01*
X73362465Y-151017803D01*
X73349331Y-151004418D01*
X73331217Y-150996309D01*
X73311211Y-150993953D01*
X73292401Y-150997831D01*
X73277877Y-151008421D01*
X73271643Y-151021100D01*
X73267753Y-151031544D01*
X73260592Y-151034922D01*
X73245915Y-151033165D01*
X73245352Y-151033061D01*
X73228555Y-151029521D01*
X73221161Y-151025317D01*
X73220490Y-151017525D01*
X73222617Y-151008255D01*
X73234227Y-150985810D01*
X73255186Y-150968192D01*
X73283118Y-150956537D01*
X73315649Y-150951982D01*
X73337520Y-150953280D01*
G37*
G36*
X73955136Y-150431420D02*
G01*
X73984062Y-150443321D01*
X73987679Y-150445765D01*
X74000055Y-150454238D01*
X74005392Y-150455695D01*
X74006651Y-150450266D01*
X74006677Y-150446583D01*
X74008603Y-150438296D01*
X74016565Y-150434627D01*
X74031260Y-150433874D01*
X74055843Y-150433874D01*
X74055708Y-150561396D01*
X74055347Y-150611557D01*
X74054128Y-150651056D01*
X74051669Y-150681513D01*
X74047589Y-150704546D01*
X74041507Y-150721777D01*
X74033041Y-150734824D01*
X74021808Y-150745308D01*
X74010587Y-150752931D01*
X73982081Y-150764631D01*
X73948405Y-150769599D01*
X73914975Y-150767343D01*
X73899128Y-150763021D01*
X73882665Y-150754614D01*
X73866189Y-150742562D01*
X73852440Y-150729432D01*
X73844161Y-150717791D01*
X73843511Y-150710925D01*
X73851180Y-150706323D01*
X73865468Y-150702107D01*
X73866274Y-150701942D01*
X73884056Y-150701412D01*
X73898278Y-150709648D01*
X73899322Y-150710610D01*
X73920008Y-150722635D01*
X73945609Y-150727315D01*
X73970523Y-150723669D01*
X73971637Y-150723255D01*
X73986518Y-150711993D01*
X73998799Y-150693021D01*
X74005880Y-150670918D01*
X74006677Y-150661551D01*
X74006156Y-150653798D01*
X74002522Y-150652529D01*
X73992671Y-150657710D01*
X73986704Y-150661330D01*
X73959719Y-150671485D01*
X73928825Y-150673539D01*
X73899085Y-150667573D01*
X73883137Y-150659677D01*
X73860749Y-150637891D01*
X73844720Y-150608254D01*
X73835632Y-150573768D01*
X73834664Y-150551276D01*
X73884021Y-150551276D01*
X73886273Y-150578076D01*
X73892556Y-150600977D01*
X73899504Y-150612593D01*
X73920911Y-150628828D01*
X73944598Y-150634460D01*
X73967806Y-150629401D01*
X73986310Y-150615292D01*
X73997917Y-150594507D01*
X74004291Y-150567109D01*
X74004680Y-150537929D01*
X74001173Y-150519631D01*
X73988753Y-150494830D01*
X73970566Y-150478699D01*
X73949145Y-150471597D01*
X73927020Y-150473886D01*
X73906723Y-150485925D01*
X73892745Y-150504193D01*
X73886083Y-150525130D01*
X73884021Y-150551276D01*
X73834664Y-150551276D01*
X73834069Y-150537433D01*
X73840613Y-150502248D01*
X73848751Y-150482793D01*
X73868730Y-150456494D01*
X73894861Y-150438702D01*
X73924533Y-150430112D01*
X73955136Y-150431420D01*
G37*
G36*
X74741941Y-150953947D02*
G01*
X74770756Y-150963223D01*
X74792632Y-150977970D01*
X74814831Y-150998300D01*
X74816889Y-151072808D01*
X74817979Y-151104754D01*
X74819414Y-151126623D01*
X74821569Y-151140625D01*
X74824818Y-151148974D01*
X74829533Y-151153884D01*
X74830716Y-151154667D01*
X74840212Y-151166964D01*
X74842487Y-151178976D01*
X74841332Y-151189940D01*
X74835518Y-151194763D01*
X74821517Y-151195924D01*
X74818350Y-151195935D01*
X74798872Y-151193450D01*
X74785426Y-151184419D01*
X74781966Y-151180365D01*
X74772276Y-151171059D01*
X74765975Y-151170887D01*
X74765766Y-151171190D01*
X74751743Y-151183793D01*
X74729736Y-151192900D01*
X74703768Y-151197642D01*
X74677862Y-151197146D01*
X74662668Y-151193497D01*
X74640033Y-151183522D01*
X74626033Y-151171879D01*
X74617139Y-151155148D01*
X74614333Y-151146641D01*
X74610642Y-151129007D01*
X74611097Y-151125864D01*
X74664263Y-151125864D01*
X74669752Y-151140787D01*
X74683602Y-151152828D01*
X74701883Y-151158853D01*
X74705882Y-151159061D01*
X74721636Y-151156224D01*
X74738134Y-151149779D01*
X74758452Y-151133677D01*
X74768052Y-151112426D01*
X74768739Y-151104154D01*
X74767621Y-151097365D01*
X74762468Y-151093543D01*
X74750579Y-151091853D01*
X74729256Y-151091459D01*
X74727740Y-151091459D01*
X74697144Y-151093645D01*
X74677084Y-151100570D01*
X74666540Y-151112789D01*
X74664263Y-151125864D01*
X74611097Y-151125864D01*
X74612816Y-151113992D01*
X74618914Y-151099741D01*
X74632973Y-151079086D01*
X74652648Y-151065243D01*
X74679850Y-151057369D01*
X74716488Y-151054620D01*
X74721110Y-151054594D01*
X74768739Y-151054585D01*
X74768645Y-151037684D01*
X74765888Y-151018694D01*
X74755852Y-151006174D01*
X74746097Y-151000194D01*
X74724767Y-150994085D01*
X74703080Y-150995974D01*
X74684755Y-151004739D01*
X74673512Y-151019259D01*
X74672534Y-151022371D01*
X74668700Y-151031970D01*
X74661199Y-151034920D01*
X74646562Y-151033061D01*
X74629767Y-151029519D01*
X74622344Y-151025426D01*
X74621572Y-151018034D01*
X74623453Y-151009741D01*
X74635093Y-150986583D01*
X74655355Y-150968938D01*
X74681647Y-150957292D01*
X74711374Y-150952133D01*
X74741941Y-150953947D01*
G37*
G36*
X73706523Y-150433856D02*
G01*
X73730932Y-150444548D01*
X73743269Y-150450833D01*
X73751826Y-150450007D01*
X73762577Y-150441282D01*
X73763694Y-150440235D01*
X73774574Y-150430881D01*
X73781712Y-150429548D01*
X73790148Y-150435657D01*
X73791665Y-150437024D01*
X73804172Y-150448342D01*
X73785956Y-150467227D01*
X73773779Y-150482938D01*
X73772173Y-150494190D01*
X73772693Y-150495330D01*
X73779266Y-150515845D01*
X73782191Y-150543192D01*
X73781137Y-150572370D01*
X73778754Y-150587327D01*
X73766213Y-150621295D01*
X73745434Y-150648747D01*
X73723550Y-150664556D01*
X73701785Y-150671089D01*
X73673788Y-150673244D01*
X73644788Y-150671088D01*
X73620014Y-150664685D01*
X73616684Y-150663220D01*
X73602159Y-150656980D01*
X73593155Y-150656773D01*
X73584238Y-150663052D01*
X73580833Y-150666207D01*
X73570417Y-150674867D01*
X73563501Y-150675250D01*
X73556260Y-150669136D01*
X73550172Y-150661591D01*
X73551062Y-150654691D01*
X73559816Y-150644195D01*
X73561922Y-150641986D01*
X73572220Y-150629571D01*
X73574033Y-150621733D01*
X73641117Y-150621733D01*
X73644685Y-150626168D01*
X73646795Y-150627810D01*
X73665723Y-150635870D01*
X73687120Y-150632896D01*
X73703627Y-150624686D01*
X73722211Y-150606634D01*
X73729711Y-150589371D01*
X73734688Y-150565645D01*
X73735974Y-150545594D01*
X73733486Y-150532497D01*
X73731203Y-150529799D01*
X73725082Y-150532601D01*
X73712485Y-150542623D01*
X73695403Y-150558176D01*
X73680501Y-150572804D01*
X73660353Y-150593392D01*
X73647824Y-150607184D01*
X73641788Y-150616018D01*
X73641117Y-150621733D01*
X73574033Y-150621733D01*
X73574650Y-150619066D01*
X73571083Y-150605455D01*
X73565859Y-150580120D01*
X73564644Y-150552710D01*
X73613404Y-150552710D01*
X73613683Y-150569421D01*
X73615990Y-150579750D01*
X73618118Y-150581369D01*
X73624144Y-150577254D01*
X73636718Y-150566126D01*
X73653848Y-150549809D01*
X73668820Y-150534929D01*
X73689049Y-150514260D01*
X73701658Y-150500397D01*
X73707773Y-150491508D01*
X73708520Y-150485763D01*
X73705023Y-150481330D01*
X73702829Y-150479618D01*
X73684221Y-150472184D01*
X73661702Y-150471631D01*
X73643743Y-150477075D01*
X73632545Y-150486956D01*
X73622637Y-150501353D01*
X73618091Y-150514968D01*
X73614943Y-150533323D01*
X73613404Y-150552710D01*
X73564644Y-150552710D01*
X73564490Y-150549239D01*
X73566972Y-150518935D01*
X73571160Y-150500856D01*
X73587036Y-150471100D01*
X73610937Y-150448667D01*
X73640437Y-150434412D01*
X73673108Y-150429190D01*
X73706523Y-150433856D01*
G37*
D16*
%TO.C,Q40*%
X81240000Y-134440000D02*
X82760000Y-134440000D01*
X81240000Y-135440000D02*
X81240000Y-134440000D01*
X81240000Y-137560000D02*
X81240000Y-136560000D01*
X82760000Y-134440000D02*
X82760000Y-134490000D01*
X82760000Y-135610000D02*
X82760000Y-136390000D01*
X82760000Y-137510000D02*
X82760000Y-137560000D01*
X82760000Y-137560000D02*
X81240000Y-137560000D01*
X83300000Y-136380000D02*
X83060000Y-136050000D01*
X83540000Y-136050000D01*
X83300000Y-136380000D01*
G36*
X83300000Y-136380000D02*
G01*
X83060000Y-136050000D01*
X83540000Y-136050000D01*
X83300000Y-136380000D01*
G37*
%TO.C,Q50*%
X90240000Y-134440000D02*
X91760000Y-134440000D01*
X90240000Y-135440000D02*
X90240000Y-134440000D01*
X90240000Y-137560000D02*
X90240000Y-136560000D01*
X91760000Y-134440000D02*
X91760000Y-134490000D01*
X91760000Y-135610000D02*
X91760000Y-136390000D01*
X91760000Y-137510000D02*
X91760000Y-137560000D01*
X91760000Y-137560000D02*
X90240000Y-137560000D01*
X92300000Y-136380000D02*
X92060000Y-136050000D01*
X92540000Y-136050000D01*
X92300000Y-136380000D01*
G36*
X92300000Y-136380000D02*
G01*
X92060000Y-136050000D01*
X92540000Y-136050000D01*
X92300000Y-136380000D01*
G37*
%TO.C,Q54*%
X94740000Y-134440000D02*
X96260000Y-134440000D01*
X94740000Y-135440000D02*
X94740000Y-134440000D01*
X94740000Y-137560000D02*
X94740000Y-136560000D01*
X96260000Y-134440000D02*
X96260000Y-134490000D01*
X96260000Y-135610000D02*
X96260000Y-136390000D01*
X96260000Y-137510000D02*
X96260000Y-137560000D01*
X96260000Y-137560000D02*
X94740000Y-137560000D01*
X96800000Y-136380000D02*
X96560000Y-136050000D01*
X97040000Y-136050000D01*
X96800000Y-136380000D01*
G36*
X96800000Y-136380000D02*
G01*
X96560000Y-136050000D01*
X97040000Y-136050000D01*
X96800000Y-136380000D01*
G37*
%TO.C,Q52*%
X94740000Y-142440000D02*
X96260000Y-142440000D01*
X94740000Y-143440000D02*
X94740000Y-142440000D01*
X94740000Y-145560000D02*
X94740000Y-144560000D01*
X96260000Y-142440000D02*
X96260000Y-142490000D01*
X96260000Y-143610000D02*
X96260000Y-144390000D01*
X96260000Y-145510000D02*
X96260000Y-145560000D01*
X96260000Y-145560000D02*
X94740000Y-145560000D01*
X96800000Y-144380000D02*
X96560000Y-144050000D01*
X97040000Y-144050000D01*
X96800000Y-144380000D01*
G36*
X96800000Y-144380000D02*
G01*
X96560000Y-144050000D01*
X97040000Y-144050000D01*
X96800000Y-144380000D01*
G37*
%TO.C,Q41*%
X81240000Y-138440000D02*
X82760000Y-138440000D01*
X81240000Y-139440000D02*
X81240000Y-138440000D01*
X81240000Y-141560000D02*
X81240000Y-140560000D01*
X82760000Y-138440000D02*
X82760000Y-138490000D01*
X82760000Y-139610000D02*
X82760000Y-140390000D01*
X82760000Y-141510000D02*
X82760000Y-141560000D01*
X82760000Y-141560000D02*
X81240000Y-141560000D01*
X83300000Y-140380000D02*
X83060000Y-140050000D01*
X83540000Y-140050000D01*
X83300000Y-140380000D01*
G36*
X83300000Y-140380000D02*
G01*
X83060000Y-140050000D01*
X83540000Y-140050000D01*
X83300000Y-140380000D01*
G37*
%TO.C,Q86*%
X90240000Y-126440000D02*
X91760000Y-126440000D01*
X90240000Y-127440000D02*
X90240000Y-126440000D01*
X90240000Y-129560000D02*
X90240000Y-128560000D01*
X91760000Y-126440000D02*
X91760000Y-126490000D01*
X91760000Y-127610000D02*
X91760000Y-128390000D01*
X91760000Y-129510000D02*
X91760000Y-129560000D01*
X91760000Y-129560000D02*
X90240000Y-129560000D01*
X92300000Y-128380000D02*
X92060000Y-128050000D01*
X92540000Y-128050000D01*
X92300000Y-128380000D01*
G36*
X92300000Y-128380000D02*
G01*
X92060000Y-128050000D01*
X92540000Y-128050000D01*
X92300000Y-128380000D01*
G37*
%TO.C,Q60*%
X99240000Y-134540000D02*
X100760000Y-134540000D01*
X99240000Y-135540000D02*
X99240000Y-134540000D01*
X99240000Y-137660000D02*
X99240000Y-136660000D01*
X100760000Y-134540000D02*
X100760000Y-134590000D01*
X100760000Y-135710000D02*
X100760000Y-136490000D01*
X100760000Y-137610000D02*
X100760000Y-137660000D01*
X100760000Y-137660000D02*
X99240000Y-137660000D01*
X101300000Y-136480000D02*
X101060000Y-136150000D01*
X101540000Y-136150000D01*
X101300000Y-136480000D01*
G36*
X101300000Y-136480000D02*
G01*
X101060000Y-136150000D01*
X101540000Y-136150000D01*
X101300000Y-136480000D01*
G37*
%TO.C,Q5*%
X49740000Y-138440000D02*
X51260000Y-138440000D01*
X49740000Y-139440000D02*
X49740000Y-138440000D01*
X49740000Y-141560000D02*
X49740000Y-140560000D01*
X51260000Y-138440000D02*
X51260000Y-138490000D01*
X51260000Y-139610000D02*
X51260000Y-140390000D01*
X51260000Y-141510000D02*
X51260000Y-141560000D01*
X51260000Y-141560000D02*
X49740000Y-141560000D01*
X51800000Y-140380000D02*
X51560000Y-140050000D01*
X52040000Y-140050000D01*
X51800000Y-140380000D01*
G36*
X51800000Y-140380000D02*
G01*
X51560000Y-140050000D01*
X52040000Y-140050000D01*
X51800000Y-140380000D01*
G37*
%TO.C,Q57*%
X94740000Y-130440000D02*
X96260000Y-130440000D01*
X94740000Y-131440000D02*
X94740000Y-130440000D01*
X94740000Y-133560000D02*
X94740000Y-132560000D01*
X96260000Y-130440000D02*
X96260000Y-130490000D01*
X96260000Y-131610000D02*
X96260000Y-132390000D01*
X96260000Y-133510000D02*
X96260000Y-133560000D01*
X96260000Y-133560000D02*
X94740000Y-133560000D01*
X96800000Y-132380000D02*
X96560000Y-132050000D01*
X97040000Y-132050000D01*
X96800000Y-132380000D01*
G36*
X96800000Y-132380000D02*
G01*
X96560000Y-132050000D01*
X97040000Y-132050000D01*
X96800000Y-132380000D01*
G37*
%TO.C,Q20*%
X63240000Y-134440000D02*
X64760000Y-134440000D01*
X63240000Y-135440000D02*
X63240000Y-134440000D01*
X63240000Y-137560000D02*
X63240000Y-136560000D01*
X64760000Y-134440000D02*
X64760000Y-134490000D01*
X64760000Y-135610000D02*
X64760000Y-136390000D01*
X64760000Y-137510000D02*
X64760000Y-137560000D01*
X64760000Y-137560000D02*
X63240000Y-137560000D01*
X65300000Y-136380000D02*
X65060000Y-136050000D01*
X65540000Y-136050000D01*
X65300000Y-136380000D01*
G36*
X65300000Y-136380000D02*
G01*
X65060000Y-136050000D01*
X65540000Y-136050000D01*
X65300000Y-136380000D01*
G37*
%TO.C,Q87*%
X99240000Y-126440000D02*
X100760000Y-126440000D01*
X99240000Y-127440000D02*
X99240000Y-126440000D01*
X99240000Y-129560000D02*
X99240000Y-128560000D01*
X100760000Y-126440000D02*
X100760000Y-126490000D01*
X100760000Y-127610000D02*
X100760000Y-128390000D01*
X100760000Y-129510000D02*
X100760000Y-129560000D01*
X100760000Y-129560000D02*
X99240000Y-129560000D01*
X101300000Y-128380000D02*
X101060000Y-128050000D01*
X101540000Y-128050000D01*
X101300000Y-128380000D01*
G36*
X101300000Y-128380000D02*
G01*
X101060000Y-128050000D01*
X101540000Y-128050000D01*
X101300000Y-128380000D01*
G37*
%TO.C,Q45*%
X85740000Y-138440000D02*
X87260000Y-138440000D01*
X85740000Y-139440000D02*
X85740000Y-138440000D01*
X85740000Y-141560000D02*
X85740000Y-140560000D01*
X87260000Y-138440000D02*
X87260000Y-138490000D01*
X87260000Y-139610000D02*
X87260000Y-140390000D01*
X87260000Y-141510000D02*
X87260000Y-141560000D01*
X87260000Y-141560000D02*
X85740000Y-141560000D01*
X87800000Y-140380000D02*
X87560000Y-140050000D01*
X88040000Y-140050000D01*
X87800000Y-140380000D01*
G36*
X87800000Y-140380000D02*
G01*
X87560000Y-140050000D01*
X88040000Y-140050000D01*
X87800000Y-140380000D01*
G37*
%TO.C,Q88*%
X108240000Y-126440000D02*
X109760000Y-126440000D01*
X108240000Y-127440000D02*
X108240000Y-126440000D01*
X108240000Y-129560000D02*
X108240000Y-128560000D01*
X109760000Y-126440000D02*
X109760000Y-126490000D01*
X109760000Y-127610000D02*
X109760000Y-128390000D01*
X109760000Y-129510000D02*
X109760000Y-129560000D01*
X109760000Y-129560000D02*
X108240000Y-129560000D01*
X110300000Y-128380000D02*
X110060000Y-128050000D01*
X110540000Y-128050000D01*
X110300000Y-128380000D01*
G36*
X110300000Y-128380000D02*
G01*
X110060000Y-128050000D01*
X110540000Y-128050000D01*
X110300000Y-128380000D01*
G37*
%TO.C,Q1*%
X54940000Y-149740000D02*
X55940000Y-149740000D01*
X54940000Y-151260000D02*
X54940000Y-149740000D01*
X54990000Y-151260000D02*
X54940000Y-151260000D01*
X56890000Y-151260000D02*
X56110000Y-151260000D01*
X57060000Y-149740000D02*
X58060000Y-149740000D01*
X58060000Y-149740000D02*
X58060000Y-151260000D01*
X58060000Y-151260000D02*
X58010000Y-151260000D01*
X56450000Y-152040000D02*
X56120000Y-151800000D01*
X56450000Y-151560000D01*
X56450000Y-152040000D01*
G36*
X56450000Y-152040000D02*
G01*
X56120000Y-151800000D01*
X56450000Y-151560000D01*
X56450000Y-152040000D01*
G37*
%TO.C,Q62*%
X103740000Y-142440000D02*
X105260000Y-142440000D01*
X103740000Y-143440000D02*
X103740000Y-142440000D01*
X103740000Y-145560000D02*
X103740000Y-144560000D01*
X105260000Y-142440000D02*
X105260000Y-142490000D01*
X105260000Y-143610000D02*
X105260000Y-144390000D01*
X105260000Y-145510000D02*
X105260000Y-145560000D01*
X105260000Y-145560000D02*
X103740000Y-145560000D01*
X105800000Y-144380000D02*
X105560000Y-144050000D01*
X106040000Y-144050000D01*
X105800000Y-144380000D01*
G36*
X105800000Y-144380000D02*
G01*
X105560000Y-144050000D01*
X106040000Y-144050000D01*
X105800000Y-144380000D01*
G37*
%TO.C,Q23*%
X72240000Y-142440000D02*
X73760000Y-142440000D01*
X72240000Y-143440000D02*
X72240000Y-142440000D01*
X72240000Y-145560000D02*
X72240000Y-144560000D01*
X73760000Y-142440000D02*
X73760000Y-142490000D01*
X73760000Y-143610000D02*
X73760000Y-144390000D01*
X73760000Y-145510000D02*
X73760000Y-145560000D01*
X73760000Y-145560000D02*
X72240000Y-145560000D01*
X74300000Y-144380000D02*
X74060000Y-144050000D01*
X74540000Y-144050000D01*
X74300000Y-144380000D01*
G36*
X74300000Y-144380000D02*
G01*
X74060000Y-144050000D01*
X74540000Y-144050000D01*
X74300000Y-144380000D01*
G37*
D14*
%TO.C,D2*%
X59970000Y-125800000D02*
X59970000Y-128090000D01*
X59970000Y-128090000D02*
X61430000Y-128090000D01*
X61430000Y-128090000D02*
X61430000Y-125800000D01*
%TO.C,D7*%
X104970000Y-125800000D02*
X104970000Y-128090000D01*
X104970000Y-128090000D02*
X106430000Y-128090000D01*
X106430000Y-128090000D02*
X106430000Y-125800000D01*
D16*
%TO.C,Q80*%
X117240000Y-134440000D02*
X118760000Y-134440000D01*
X117240000Y-135440000D02*
X117240000Y-134440000D01*
X117240000Y-137560000D02*
X117240000Y-136560000D01*
X118760000Y-134440000D02*
X118760000Y-134490000D01*
X118760000Y-135610000D02*
X118760000Y-136390000D01*
X118760000Y-137510000D02*
X118760000Y-137560000D01*
X118760000Y-137560000D02*
X117240000Y-137560000D01*
X119300000Y-136380000D02*
X119060000Y-136050000D01*
X119540000Y-136050000D01*
X119300000Y-136380000D01*
G36*
X119300000Y-136380000D02*
G01*
X119060000Y-136050000D01*
X119540000Y-136050000D01*
X119300000Y-136380000D01*
G37*
%TO.C,Q34*%
X76740000Y-134440000D02*
X78260000Y-134440000D01*
X76740000Y-135440000D02*
X76740000Y-134440000D01*
X76740000Y-137560000D02*
X76740000Y-136560000D01*
X78260000Y-134440000D02*
X78260000Y-134490000D01*
X78260000Y-135610000D02*
X78260000Y-136390000D01*
X78260000Y-137510000D02*
X78260000Y-137560000D01*
X78260000Y-137560000D02*
X76740000Y-137560000D01*
X78800000Y-136380000D02*
X78560000Y-136050000D01*
X79040000Y-136050000D01*
X78800000Y-136380000D01*
G36*
X78800000Y-136380000D02*
G01*
X78560000Y-136050000D01*
X79040000Y-136050000D01*
X78800000Y-136380000D01*
G37*
%TO.C,Q37*%
X76740000Y-130440000D02*
X78260000Y-130440000D01*
X76740000Y-131440000D02*
X76740000Y-130440000D01*
X76740000Y-133560000D02*
X76740000Y-132560000D01*
X78260000Y-130440000D02*
X78260000Y-130490000D01*
X78260000Y-131610000D02*
X78260000Y-132390000D01*
X78260000Y-133510000D02*
X78260000Y-133560000D01*
X78260000Y-133560000D02*
X76740000Y-133560000D01*
X78800000Y-132380000D02*
X78560000Y-132050000D01*
X79040000Y-132050000D01*
X78800000Y-132380000D01*
G36*
X78800000Y-132380000D02*
G01*
X78560000Y-132050000D01*
X79040000Y-132050000D01*
X78800000Y-132380000D01*
G37*
%TO.C,Q51*%
X90240000Y-138440000D02*
X91760000Y-138440000D01*
X90240000Y-139440000D02*
X90240000Y-138440000D01*
X90240000Y-141560000D02*
X90240000Y-140560000D01*
X91760000Y-138440000D02*
X91760000Y-138490000D01*
X91760000Y-139610000D02*
X91760000Y-140390000D01*
X91760000Y-141510000D02*
X91760000Y-141560000D01*
X91760000Y-141560000D02*
X90240000Y-141560000D01*
X92300000Y-140380000D02*
X92060000Y-140050000D01*
X92540000Y-140050000D01*
X92300000Y-140380000D01*
G36*
X92300000Y-140380000D02*
G01*
X92060000Y-140050000D01*
X92540000Y-140050000D01*
X92300000Y-140380000D01*
G37*
%TO.C,Q33*%
X81240000Y-142440000D02*
X82760000Y-142440000D01*
X81240000Y-143440000D02*
X81240000Y-142440000D01*
X81240000Y-145560000D02*
X81240000Y-144560000D01*
X82760000Y-142440000D02*
X82760000Y-142490000D01*
X82760000Y-143610000D02*
X82760000Y-144390000D01*
X82760000Y-145510000D02*
X82760000Y-145560000D01*
X82760000Y-145560000D02*
X81240000Y-145560000D01*
X83300000Y-144380000D02*
X83060000Y-144050000D01*
X83540000Y-144050000D01*
X83300000Y-144380000D01*
G36*
X83300000Y-144380000D02*
G01*
X83060000Y-144050000D01*
X83540000Y-144050000D01*
X83300000Y-144380000D01*
G37*
D14*
%TO.C,D10*%
X48470000Y-151000000D02*
X48470000Y-153290000D01*
X48470000Y-153290000D02*
X49930000Y-153290000D01*
X49930000Y-153290000D02*
X49930000Y-151000000D01*
D16*
%TO.C,Q39*%
X81240000Y-130440000D02*
X82760000Y-130440000D01*
X81240000Y-131440000D02*
X81240000Y-130440000D01*
X81240000Y-133560000D02*
X81240000Y-132560000D01*
X82760000Y-130440000D02*
X82760000Y-130490000D01*
X82760000Y-131610000D02*
X82760000Y-132390000D01*
X82760000Y-133510000D02*
X82760000Y-133560000D01*
X82760000Y-133560000D02*
X81240000Y-133560000D01*
X83300000Y-132380000D02*
X83060000Y-132050000D01*
X83540000Y-132050000D01*
X83300000Y-132380000D01*
G36*
X83300000Y-132380000D02*
G01*
X83060000Y-132050000D01*
X83540000Y-132050000D01*
X83300000Y-132380000D01*
G37*
%TO.C,Q17*%
X58740000Y-130440000D02*
X60260000Y-130440000D01*
X58740000Y-131440000D02*
X58740000Y-130440000D01*
X58740000Y-133560000D02*
X58740000Y-132560000D01*
X60260000Y-130440000D02*
X60260000Y-130490000D01*
X60260000Y-131610000D02*
X60260000Y-132390000D01*
X60260000Y-133510000D02*
X60260000Y-133560000D01*
X60260000Y-133560000D02*
X58740000Y-133560000D01*
X60800000Y-132380000D02*
X60560000Y-132050000D01*
X61040000Y-132050000D01*
X60800000Y-132380000D01*
G36*
X60800000Y-132380000D02*
G01*
X60560000Y-132050000D01*
X61040000Y-132050000D01*
X60800000Y-132380000D01*
G37*
%TO.C,Q15*%
X58740000Y-138440000D02*
X60260000Y-138440000D01*
X58740000Y-139440000D02*
X58740000Y-138440000D01*
X58740000Y-141560000D02*
X58740000Y-140560000D01*
X60260000Y-138440000D02*
X60260000Y-138490000D01*
X60260000Y-139610000D02*
X60260000Y-140390000D01*
X60260000Y-141510000D02*
X60260000Y-141560000D01*
X60260000Y-141560000D02*
X58740000Y-141560000D01*
X60800000Y-140380000D02*
X60560000Y-140050000D01*
X61040000Y-140050000D01*
X60800000Y-140380000D01*
G36*
X60800000Y-140380000D02*
G01*
X60560000Y-140050000D01*
X61040000Y-140050000D01*
X60800000Y-140380000D01*
G37*
%TO.C,Q85*%
X81240000Y-126440000D02*
X82760000Y-126440000D01*
X81240000Y-127440000D02*
X81240000Y-126440000D01*
X81240000Y-129560000D02*
X81240000Y-128560000D01*
X82760000Y-126440000D02*
X82760000Y-126490000D01*
X82760000Y-127610000D02*
X82760000Y-128390000D01*
X82760000Y-129510000D02*
X82760000Y-129560000D01*
X82760000Y-129560000D02*
X81240000Y-129560000D01*
X83300000Y-128380000D02*
X83060000Y-128050000D01*
X83540000Y-128050000D01*
X83300000Y-128380000D01*
G36*
X83300000Y-128380000D02*
G01*
X83060000Y-128050000D01*
X83540000Y-128050000D01*
X83300000Y-128380000D01*
G37*
D14*
%TO.C,D5*%
X86970000Y-125800000D02*
X86970000Y-128090000D01*
X86970000Y-128090000D02*
X88430000Y-128090000D01*
X88430000Y-128090000D02*
X88430000Y-125800000D01*
D16*
%TO.C,Q11*%
X54240000Y-138440000D02*
X55760000Y-138440000D01*
X54240000Y-139440000D02*
X54240000Y-138440000D01*
X54240000Y-141560000D02*
X54240000Y-140560000D01*
X55760000Y-138440000D02*
X55760000Y-138490000D01*
X55760000Y-139610000D02*
X55760000Y-140390000D01*
X55760000Y-141510000D02*
X55760000Y-141560000D01*
X55760000Y-141560000D02*
X54240000Y-141560000D01*
X56300000Y-140380000D02*
X56060000Y-140050000D01*
X56540000Y-140050000D01*
X56300000Y-140380000D01*
G36*
X56300000Y-140380000D02*
G01*
X56060000Y-140050000D01*
X56540000Y-140050000D01*
X56300000Y-140380000D01*
G37*
%TO.C,Q14*%
X58740000Y-134440000D02*
X60260000Y-134440000D01*
X58740000Y-135440000D02*
X58740000Y-134440000D01*
X58740000Y-137560000D02*
X58740000Y-136560000D01*
X60260000Y-134440000D02*
X60260000Y-134490000D01*
X60260000Y-135610000D02*
X60260000Y-136390000D01*
X60260000Y-137510000D02*
X60260000Y-137560000D01*
X60260000Y-137560000D02*
X58740000Y-137560000D01*
X60800000Y-136380000D02*
X60560000Y-136050000D01*
X61040000Y-136050000D01*
X60800000Y-136380000D01*
G36*
X60800000Y-136380000D02*
G01*
X60560000Y-136050000D01*
X61040000Y-136050000D01*
X60800000Y-136380000D01*
G37*
%TO.C,Q19*%
X63240000Y-130440000D02*
X64760000Y-130440000D01*
X63240000Y-131440000D02*
X63240000Y-130440000D01*
X63240000Y-133560000D02*
X63240000Y-132560000D01*
X64760000Y-130440000D02*
X64760000Y-130490000D01*
X64760000Y-131610000D02*
X64760000Y-132390000D01*
X64760000Y-133510000D02*
X64760000Y-133560000D01*
X64760000Y-133560000D02*
X63240000Y-133560000D01*
X65300000Y-132380000D02*
X65060000Y-132050000D01*
X65540000Y-132050000D01*
X65300000Y-132380000D01*
G36*
X65300000Y-132380000D02*
G01*
X65060000Y-132050000D01*
X65540000Y-132050000D01*
X65300000Y-132380000D01*
G37*
%TO.C,Q47*%
X85740000Y-130440000D02*
X87260000Y-130440000D01*
X85740000Y-131440000D02*
X85740000Y-130440000D01*
X85740000Y-133560000D02*
X85740000Y-132560000D01*
X87260000Y-130440000D02*
X87260000Y-130490000D01*
X87260000Y-131610000D02*
X87260000Y-132390000D01*
X87260000Y-133510000D02*
X87260000Y-133560000D01*
X87260000Y-133560000D02*
X85740000Y-133560000D01*
X87800000Y-132380000D02*
X87560000Y-132050000D01*
X88040000Y-132050000D01*
X87800000Y-132380000D01*
G36*
X87800000Y-132380000D02*
G01*
X87560000Y-132050000D01*
X88040000Y-132050000D01*
X87800000Y-132380000D01*
G37*
%TO.C,Q43*%
X90240000Y-142440000D02*
X91760000Y-142440000D01*
X90240000Y-143440000D02*
X90240000Y-142440000D01*
X90240000Y-145560000D02*
X90240000Y-144560000D01*
X91760000Y-142440000D02*
X91760000Y-142490000D01*
X91760000Y-143610000D02*
X91760000Y-144390000D01*
X91760000Y-145510000D02*
X91760000Y-145560000D01*
X91760000Y-145560000D02*
X90240000Y-145560000D01*
X92300000Y-144380000D02*
X92060000Y-144050000D01*
X92540000Y-144050000D01*
X92300000Y-144380000D01*
G36*
X92300000Y-144380000D02*
G01*
X92060000Y-144050000D01*
X92540000Y-144050000D01*
X92300000Y-144380000D01*
G37*
%TO.C,Q83*%
X63240000Y-126440000D02*
X64760000Y-126440000D01*
X63240000Y-127440000D02*
X63240000Y-126440000D01*
X63240000Y-129560000D02*
X63240000Y-128560000D01*
X64760000Y-126440000D02*
X64760000Y-126490000D01*
X64760000Y-127610000D02*
X64760000Y-128390000D01*
X64760000Y-129510000D02*
X64760000Y-129560000D01*
X64760000Y-129560000D02*
X63240000Y-129560000D01*
X65300000Y-128380000D02*
X65060000Y-128050000D01*
X65540000Y-128050000D01*
X65300000Y-128380000D01*
G36*
X65300000Y-128380000D02*
G01*
X65060000Y-128050000D01*
X65540000Y-128050000D01*
X65300000Y-128380000D01*
G37*
D14*
%TO.C,D9*%
X117200000Y-148630000D02*
X119490000Y-148630000D01*
X119490000Y-147170000D02*
X117200000Y-147170000D01*
X119490000Y-148630000D02*
X119490000Y-147170000D01*
D16*
%TO.C,Q35*%
X76740000Y-138440000D02*
X78260000Y-138440000D01*
X76740000Y-139440000D02*
X76740000Y-138440000D01*
X76740000Y-141560000D02*
X76740000Y-140560000D01*
X78260000Y-138440000D02*
X78260000Y-138490000D01*
X78260000Y-139610000D02*
X78260000Y-140390000D01*
X78260000Y-141510000D02*
X78260000Y-141560000D01*
X78260000Y-141560000D02*
X76740000Y-141560000D01*
X78800000Y-140380000D02*
X78560000Y-140050000D01*
X79040000Y-140050000D01*
X78800000Y-140380000D01*
G36*
X78800000Y-140380000D02*
G01*
X78560000Y-140050000D01*
X79040000Y-140050000D01*
X78800000Y-140380000D01*
G37*
%TO.C,Q25*%
X67740000Y-138440000D02*
X69260000Y-138440000D01*
X67740000Y-139440000D02*
X67740000Y-138440000D01*
X67740000Y-141560000D02*
X67740000Y-140560000D01*
X69260000Y-138440000D02*
X69260000Y-138490000D01*
X69260000Y-139610000D02*
X69260000Y-140390000D01*
X69260000Y-141510000D02*
X69260000Y-141560000D01*
X69260000Y-141560000D02*
X67740000Y-141560000D01*
X69800000Y-140380000D02*
X69560000Y-140050000D01*
X70040000Y-140050000D01*
X69800000Y-140380000D01*
G36*
X69800000Y-140380000D02*
G01*
X69560000Y-140050000D01*
X70040000Y-140050000D01*
X69800000Y-140380000D01*
G37*
%TO.C,Q71*%
X108240000Y-138440000D02*
X109760000Y-138440000D01*
X108240000Y-139440000D02*
X108240000Y-138440000D01*
X108240000Y-141560000D02*
X108240000Y-140560000D01*
X109760000Y-138440000D02*
X109760000Y-138490000D01*
X109760000Y-139610000D02*
X109760000Y-140390000D01*
X109760000Y-141510000D02*
X109760000Y-141560000D01*
X109760000Y-141560000D02*
X108240000Y-141560000D01*
X110300000Y-140380000D02*
X110060000Y-140050000D01*
X110540000Y-140050000D01*
X110300000Y-140380000D01*
G36*
X110300000Y-140380000D02*
G01*
X110060000Y-140050000D01*
X110540000Y-140050000D01*
X110300000Y-140380000D01*
G37*
%TO.C,Q42*%
X85740000Y-142440000D02*
X87260000Y-142440000D01*
X85740000Y-143440000D02*
X85740000Y-142440000D01*
X85740000Y-145560000D02*
X85740000Y-144560000D01*
X87260000Y-142440000D02*
X87260000Y-142490000D01*
X87260000Y-143610000D02*
X87260000Y-144390000D01*
X87260000Y-145510000D02*
X87260000Y-145560000D01*
X87260000Y-145560000D02*
X85740000Y-145560000D01*
X87800000Y-144380000D02*
X87560000Y-144050000D01*
X88040000Y-144050000D01*
X87800000Y-144380000D01*
G36*
X87800000Y-144380000D02*
G01*
X87560000Y-144050000D01*
X88040000Y-144050000D01*
X87800000Y-144380000D01*
G37*
%TO.C,Q12*%
X58740000Y-142440000D02*
X60260000Y-142440000D01*
X58740000Y-143440000D02*
X58740000Y-142440000D01*
X58740000Y-145560000D02*
X58740000Y-144560000D01*
X60260000Y-142440000D02*
X60260000Y-142490000D01*
X60260000Y-143610000D02*
X60260000Y-144390000D01*
X60260000Y-145510000D02*
X60260000Y-145560000D01*
X60260000Y-145560000D02*
X58740000Y-145560000D01*
X60800000Y-144380000D02*
X60560000Y-144050000D01*
X61040000Y-144050000D01*
X60800000Y-144380000D01*
G36*
X60800000Y-144380000D02*
G01*
X60560000Y-144050000D01*
X61040000Y-144050000D01*
X60800000Y-144380000D01*
G37*
%TO.C,Q53*%
X99240000Y-142440000D02*
X100760000Y-142440000D01*
X99240000Y-143440000D02*
X99240000Y-142440000D01*
X99240000Y-145560000D02*
X99240000Y-144560000D01*
X100760000Y-142440000D02*
X100760000Y-142490000D01*
X100760000Y-143610000D02*
X100760000Y-144390000D01*
X100760000Y-145510000D02*
X100760000Y-145560000D01*
X100760000Y-145560000D02*
X99240000Y-145560000D01*
X101300000Y-144380000D02*
X101060000Y-144050000D01*
X101540000Y-144050000D01*
X101300000Y-144380000D01*
G36*
X101300000Y-144380000D02*
G01*
X101060000Y-144050000D01*
X101540000Y-144050000D01*
X101300000Y-144380000D01*
G37*
%TO.C,Q2*%
X49740000Y-142440000D02*
X51260000Y-142440000D01*
X49740000Y-143440000D02*
X49740000Y-142440000D01*
X49740000Y-145560000D02*
X49740000Y-144560000D01*
X51260000Y-142440000D02*
X51260000Y-142490000D01*
X51260000Y-143610000D02*
X51260000Y-144390000D01*
X51260000Y-145510000D02*
X51260000Y-145560000D01*
X51260000Y-145560000D02*
X49740000Y-145560000D01*
X51800000Y-144380000D02*
X51560000Y-144050000D01*
X52040000Y-144050000D01*
X51800000Y-144380000D01*
G36*
X51800000Y-144380000D02*
G01*
X51560000Y-144050000D01*
X52040000Y-144050000D01*
X51800000Y-144380000D01*
G37*
%TO.C,Q21*%
X63240000Y-138440000D02*
X64760000Y-138440000D01*
X63240000Y-139440000D02*
X63240000Y-138440000D01*
X63240000Y-141560000D02*
X63240000Y-140560000D01*
X64760000Y-138440000D02*
X64760000Y-138490000D01*
X64760000Y-139610000D02*
X64760000Y-140390000D01*
X64760000Y-141510000D02*
X64760000Y-141560000D01*
X64760000Y-141560000D02*
X63240000Y-141560000D01*
X65300000Y-140380000D02*
X65060000Y-140050000D01*
X65540000Y-140050000D01*
X65300000Y-140380000D01*
G36*
X65300000Y-140380000D02*
G01*
X65060000Y-140050000D01*
X65540000Y-140050000D01*
X65300000Y-140380000D01*
G37*
%TD*%
%LPC*%
D18*
%TO.C,Q70*%
X109937500Y-136950000D03*
X109937500Y-135050000D03*
X108062500Y-136000000D03*
%TD*%
D19*
%TO.C,R40*%
X114100000Y-129300000D03*
X115100000Y-129300000D03*
%TD*%
D18*
%TO.C,Q65*%
X105437500Y-140950000D03*
X105437500Y-139050000D03*
X103562500Y-140000000D03*
%TD*%
%TO.C,Q82*%
X55937500Y-128950000D03*
X55937500Y-127050000D03*
X54062500Y-128000000D03*
%TD*%
D20*
%TO.C,R23*%
X112400000Y-127620000D03*
X112400000Y-125980000D03*
%TD*%
D18*
%TO.C,Q74*%
X114437500Y-136950000D03*
X114437500Y-135050000D03*
X112562500Y-136000000D03*
%TD*%
D21*
%TO.C,R7*%
X60900000Y-146700000D03*
X59900000Y-146700000D03*
%TD*%
D22*
%TO.C,C2*%
X114700000Y-152650000D03*
X114700000Y-150750000D03*
%TD*%
%TO.C,C1*%
X112600000Y-152650000D03*
X112600000Y-150750000D03*
%TD*%
D18*
%TO.C,Q59*%
X100937500Y-132950000D03*
X100937500Y-131050000D03*
X99062500Y-132000000D03*
%TD*%
D20*
%TO.C,R6*%
X49400000Y-127620000D03*
X49400000Y-125980000D03*
%TD*%
D23*
%TO.C,Q16*%
X68050000Y-151537500D03*
X69950000Y-151537500D03*
X69000000Y-149662500D03*
%TD*%
D21*
%TO.C,R9*%
X58900000Y-129300000D03*
X57900000Y-129300000D03*
%TD*%
D23*
%TO.C,Q7*%
X51450000Y-151437500D03*
X53350000Y-151437500D03*
X52400000Y-149562500D03*
%TD*%
D24*
%TO.C,D3*%
X69700000Y-127390000D03*
X69700000Y-125810000D03*
%TD*%
D18*
%TO.C,Q44*%
X87437500Y-136950000D03*
X87437500Y-135050000D03*
X85562500Y-136000000D03*
%TD*%
%TO.C,Q67*%
X105437500Y-132950000D03*
X105437500Y-131050000D03*
X103562500Y-132000000D03*
%TD*%
D20*
%TO.C,R8*%
X58400000Y-127620000D03*
X58400000Y-125980000D03*
%TD*%
D18*
%TO.C,Q61*%
X100937500Y-140950000D03*
X100937500Y-139050000D03*
X99062500Y-140000000D03*
%TD*%
D25*
%TO.C,R28*%
X62200000Y-149300000D03*
X62200000Y-148300000D03*
%TD*%
D18*
%TO.C,Q77*%
X114437500Y-132950000D03*
X114437500Y-131050000D03*
X112562500Y-132000000D03*
%TD*%
%TO.C,Q22*%
X69437500Y-144950000D03*
X69437500Y-143050000D03*
X67562500Y-144000000D03*
%TD*%
%TO.C,Q3*%
X55937500Y-144950000D03*
X55937500Y-143050000D03*
X54062500Y-144000000D03*
%TD*%
%TO.C,Q79*%
X118937500Y-132950000D03*
X118937500Y-131050000D03*
X117062500Y-132000000D03*
%TD*%
%TO.C,Q49*%
X91937500Y-132950000D03*
X91937500Y-131050000D03*
X90062500Y-132000000D03*
%TD*%
D21*
%TO.C,R17*%
X77500000Y-146700000D03*
X76500000Y-146700000D03*
%TD*%
D18*
%TO.C,Q89*%
X118937500Y-128950000D03*
X118937500Y-127050000D03*
X117062500Y-128000000D03*
%TD*%
%TO.C,Q31*%
X73937500Y-140950000D03*
X73937500Y-139050000D03*
X72062500Y-140000000D03*
%TD*%
%TO.C,Q55*%
X96437500Y-140950000D03*
X96437500Y-139050000D03*
X94562500Y-140000000D03*
%TD*%
D26*
%TO.C,J1*%
X109700000Y-154300000D03*
D27*
X107160000Y-154300000D03*
X104620000Y-154300000D03*
X102080000Y-154300000D03*
X99540000Y-154300000D03*
X97000000Y-154300000D03*
X94460000Y-154300000D03*
X91920000Y-154300000D03*
X89380000Y-154300000D03*
X86840000Y-154300000D03*
X84300000Y-154300000D03*
X81760000Y-154300000D03*
X79220000Y-154300000D03*
X76680000Y-154300000D03*
X74140000Y-154300000D03*
X71600000Y-154300000D03*
X69060000Y-154300000D03*
X66520000Y-154300000D03*
X63980000Y-154300000D03*
X61440000Y-154300000D03*
X58900000Y-154300000D03*
%TD*%
D19*
%TO.C,R5*%
X51100000Y-129300000D03*
X52100000Y-129300000D03*
%TD*%
D18*
%TO.C,Q27*%
X69437500Y-132950000D03*
X69437500Y-131050000D03*
X67562500Y-132000000D03*
%TD*%
D24*
%TO.C,D4*%
X78700000Y-127390000D03*
X78700000Y-125810000D03*
%TD*%
D18*
%TO.C,Q9*%
X55937500Y-132950000D03*
X55937500Y-131050000D03*
X54062500Y-132000000D03*
%TD*%
D20*
%TO.C,R18*%
X94400000Y-127620000D03*
X94400000Y-125980000D03*
%TD*%
D18*
%TO.C,Q64*%
X105437500Y-136950000D03*
X105437500Y-135050000D03*
X103562500Y-136000000D03*
%TD*%
D21*
%TO.C,R4*%
X49900000Y-129300000D03*
X48900000Y-129300000D03*
%TD*%
D18*
%TO.C,Q4*%
X51437500Y-136950000D03*
X51437500Y-135050000D03*
X49562500Y-136000000D03*
%TD*%
%TO.C,Q6*%
X51437500Y-132950000D03*
X51437500Y-131050000D03*
X49562500Y-132000000D03*
%TD*%
%TO.C,Q63*%
X109937500Y-144950000D03*
X109937500Y-143050000D03*
X108062500Y-144000000D03*
%TD*%
%TO.C,Q81*%
X118937500Y-140950000D03*
X118937500Y-139050000D03*
X117062500Y-140000000D03*
%TD*%
%TO.C,Q13*%
X64937500Y-144950000D03*
X64937500Y-143050000D03*
X63062500Y-144000000D03*
%TD*%
%TO.C,Q24*%
X69437500Y-136950000D03*
X69437500Y-135050000D03*
X67562500Y-136000000D03*
%TD*%
D19*
%TO.C,R30*%
X96100000Y-129300000D03*
X97100000Y-129300000D03*
%TD*%
D18*
%TO.C,Q29*%
X73937500Y-132950000D03*
X73937500Y-131050000D03*
X72062500Y-132000000D03*
%TD*%
D24*
%TO.C,D1*%
X51700000Y-127390000D03*
X51700000Y-125810000D03*
%TD*%
D18*
%TO.C,Q30*%
X73937500Y-136950000D03*
X73937500Y-135050000D03*
X72062500Y-136000000D03*
%TD*%
D19*
%TO.C,R15*%
X69100000Y-129300000D03*
X70100000Y-129300000D03*
%TD*%
D24*
%TO.C,D6*%
X96700000Y-127390000D03*
X96700000Y-125810000D03*
%TD*%
D18*
%TO.C,Q72*%
X114437500Y-144950000D03*
X114437500Y-143050000D03*
X112562500Y-144000000D03*
%TD*%
%TO.C,Q32*%
X78437500Y-144950000D03*
X78437500Y-143050000D03*
X76562500Y-144000000D03*
%TD*%
D24*
%TO.C,D8*%
X114700000Y-127390000D03*
X114700000Y-125810000D03*
%TD*%
D20*
%TO.C,R16*%
X85400000Y-127620000D03*
X85400000Y-125980000D03*
%TD*%
D21*
%TO.C,R29*%
X94900000Y-129300000D03*
X93900000Y-129300000D03*
%TD*%
D18*
%TO.C,Q10*%
X55937500Y-136950000D03*
X55937500Y-135050000D03*
X54062500Y-136000000D03*
%TD*%
D19*
%TO.C,R1*%
X54200000Y-146900000D03*
X55200000Y-146900000D03*
%TD*%
D18*
%TO.C,Q73*%
X118937500Y-144950000D03*
X118937500Y-143050000D03*
X117062500Y-144000000D03*
%TD*%
%TO.C,Q69*%
X109937500Y-132950000D03*
X109937500Y-131050000D03*
X108062500Y-132000000D03*
%TD*%
D23*
%TO.C,Q8*%
X63750000Y-151537500D03*
X65650000Y-151537500D03*
X64700000Y-149662500D03*
%TD*%
D18*
%TO.C,Q84*%
X73937500Y-128950000D03*
X73937500Y-127050000D03*
X72062500Y-128000000D03*
%TD*%
%TO.C,Q75*%
X114437500Y-140950000D03*
X114437500Y-139050000D03*
X112562500Y-140000000D03*
%TD*%
D20*
%TO.C,R11*%
X67400000Y-127720000D03*
X67400000Y-126080000D03*
%TD*%
D18*
%TO.C,Q40*%
X82937500Y-136950000D03*
X82937500Y-135050000D03*
X81062500Y-136000000D03*
%TD*%
%TO.C,Q50*%
X91937500Y-136950000D03*
X91937500Y-135050000D03*
X90062500Y-136000000D03*
%TD*%
%TO.C,Q54*%
X96437500Y-136950000D03*
X96437500Y-135050000D03*
X94562500Y-136000000D03*
%TD*%
%TO.C,Q52*%
X96437500Y-144950000D03*
X96437500Y-143050000D03*
X94562500Y-144000000D03*
%TD*%
%TO.C,Q41*%
X82937500Y-140950000D03*
X82937500Y-139050000D03*
X81062500Y-140000000D03*
%TD*%
%TO.C,Q86*%
X91937500Y-128950000D03*
X91937500Y-127050000D03*
X90062500Y-128000000D03*
%TD*%
D21*
%TO.C,R32*%
X105000000Y-146700000D03*
X104000000Y-146700000D03*
%TD*%
D28*
%TO.C,R26*%
X49200000Y-147380000D03*
X49200000Y-149020000D03*
%TD*%
D18*
%TO.C,Q60*%
X100937500Y-137050000D03*
X100937500Y-135150000D03*
X99062500Y-136100000D03*
%TD*%
%TO.C,Q5*%
X51437500Y-140950000D03*
X51437500Y-139050000D03*
X49562500Y-140000000D03*
%TD*%
D21*
%TO.C,R2*%
X52100000Y-146900000D03*
X51100000Y-146900000D03*
%TD*%
D19*
%TO.C,R25*%
X87100000Y-129300000D03*
X88100000Y-129300000D03*
%TD*%
D21*
%TO.C,R14*%
X67900000Y-129300000D03*
X66900000Y-129300000D03*
%TD*%
%TO.C,R22*%
X87000000Y-146700000D03*
X86000000Y-146700000D03*
%TD*%
D19*
%TO.C,R10*%
X60100000Y-129300000D03*
X61100000Y-129300000D03*
%TD*%
D21*
%TO.C,R24*%
X86000000Y-129300000D03*
X85000000Y-129300000D03*
%TD*%
D18*
%TO.C,Q57*%
X96437500Y-132950000D03*
X96437500Y-131050000D03*
X94562500Y-132000000D03*
%TD*%
%TO.C,Q20*%
X64937500Y-136950000D03*
X64937500Y-135050000D03*
X63062500Y-136000000D03*
%TD*%
D21*
%TO.C,R34*%
X103900000Y-129300000D03*
X102900000Y-129300000D03*
%TD*%
D18*
%TO.C,Q87*%
X100937500Y-128950000D03*
X100937500Y-127050000D03*
X99062500Y-128000000D03*
%TD*%
D20*
%TO.C,R21*%
X103400000Y-127620000D03*
X103400000Y-125980000D03*
%TD*%
D21*
%TO.C,R27*%
X96000000Y-146700000D03*
X95000000Y-146700000D03*
%TD*%
%TO.C,R39*%
X112900000Y-129300000D03*
X111900000Y-129300000D03*
%TD*%
D18*
%TO.C,Q45*%
X87437500Y-140950000D03*
X87437500Y-139050000D03*
X85562500Y-140000000D03*
%TD*%
%TO.C,Q88*%
X109937500Y-128950000D03*
X109937500Y-127050000D03*
X108062500Y-128000000D03*
%TD*%
D23*
%TO.C,Q1*%
X55550000Y-151437500D03*
X57450000Y-151437500D03*
X56500000Y-149562500D03*
%TD*%
D18*
%TO.C,Q62*%
X105437500Y-144950000D03*
X105437500Y-143050000D03*
X103562500Y-144000000D03*
%TD*%
%TO.C,Q23*%
X73937500Y-144950000D03*
X73937500Y-143050000D03*
X72062500Y-144000000D03*
%TD*%
D24*
%TO.C,D2*%
X60700000Y-127390000D03*
X60700000Y-125810000D03*
%TD*%
%TO.C,D7*%
X105700000Y-127390000D03*
X105700000Y-125810000D03*
%TD*%
D18*
%TO.C,Q80*%
X118937500Y-136950000D03*
X118937500Y-135050000D03*
X117062500Y-136000000D03*
%TD*%
%TO.C,Q34*%
X78437500Y-136950000D03*
X78437500Y-135050000D03*
X76562500Y-136000000D03*
%TD*%
D22*
%TO.C,C3*%
X116800000Y-152650000D03*
X116800000Y-150750000D03*
%TD*%
D18*
%TO.C,Q37*%
X78437500Y-132950000D03*
X78437500Y-131050000D03*
X76562500Y-132000000D03*
%TD*%
%TO.C,Q51*%
X91937500Y-140950000D03*
X91937500Y-139050000D03*
X90062500Y-140000000D03*
%TD*%
%TO.C,Q33*%
X82937500Y-144950000D03*
X82937500Y-143050000D03*
X81062500Y-144000000D03*
%TD*%
D24*
%TO.C,D10*%
X49200000Y-152590000D03*
X49200000Y-151010000D03*
%TD*%
D18*
%TO.C,Q39*%
X82937500Y-132950000D03*
X82937500Y-131050000D03*
X81062500Y-132000000D03*
%TD*%
D19*
%TO.C,R20*%
X78100000Y-129300000D03*
X79100000Y-129300000D03*
%TD*%
D18*
%TO.C,Q17*%
X60437500Y-132950000D03*
X60437500Y-131050000D03*
X58562500Y-132000000D03*
%TD*%
%TO.C,Q15*%
X60437500Y-140950000D03*
X60437500Y-139050000D03*
X58562500Y-140000000D03*
%TD*%
%TO.C,Q85*%
X82937500Y-128950000D03*
X82937500Y-127050000D03*
X81062500Y-128000000D03*
%TD*%
D24*
%TO.C,D5*%
X87700000Y-127390000D03*
X87700000Y-125810000D03*
%TD*%
D18*
%TO.C,Q11*%
X55937500Y-140950000D03*
X55937500Y-139050000D03*
X54062500Y-140000000D03*
%TD*%
%TO.C,Q14*%
X60437500Y-136950000D03*
X60437500Y-135050000D03*
X58562500Y-136000000D03*
%TD*%
D21*
%TO.C,R12*%
X69000000Y-146700000D03*
X68000000Y-146700000D03*
%TD*%
D18*
%TO.C,Q19*%
X64937500Y-132950000D03*
X64937500Y-131050000D03*
X63062500Y-132000000D03*
%TD*%
%TO.C,Q47*%
X87437500Y-132950000D03*
X87437500Y-131050000D03*
X85562500Y-132000000D03*
%TD*%
%TO.C,Q43*%
X91937500Y-144950000D03*
X91937500Y-143050000D03*
X90062500Y-144000000D03*
%TD*%
%TO.C,Q83*%
X64937500Y-128950000D03*
X64937500Y-127050000D03*
X63062500Y-128000000D03*
%TD*%
D29*
%TO.C,D9*%
X118790000Y-147900000D03*
X117210000Y-147900000D03*
%TD*%
D18*
%TO.C,Q35*%
X78437500Y-140950000D03*
X78437500Y-139050000D03*
X76562500Y-140000000D03*
%TD*%
%TO.C,Q25*%
X69437500Y-140950000D03*
X69437500Y-139050000D03*
X67562500Y-140000000D03*
%TD*%
%TO.C,Q71*%
X109937500Y-140950000D03*
X109937500Y-139050000D03*
X108062500Y-140000000D03*
%TD*%
D21*
%TO.C,R19*%
X76900000Y-129300000D03*
X75900000Y-129300000D03*
%TD*%
D18*
%TO.C,Q42*%
X87437500Y-144950000D03*
X87437500Y-143050000D03*
X85562500Y-144000000D03*
%TD*%
D30*
%TO.C,R3*%
X114280000Y-148100000D03*
X115920000Y-148100000D03*
%TD*%
D19*
%TO.C,R35*%
X105100000Y-129300000D03*
X106100000Y-129300000D03*
%TD*%
D18*
%TO.C,Q12*%
X60437500Y-144950000D03*
X60437500Y-143050000D03*
X58562500Y-144000000D03*
%TD*%
D20*
%TO.C,R13*%
X76400000Y-127620000D03*
X76400000Y-125980000D03*
%TD*%
D18*
%TO.C,Q53*%
X100937500Y-144950000D03*
X100937500Y-143050000D03*
X99062500Y-144000000D03*
%TD*%
D21*
%TO.C,R37*%
X114000000Y-146800000D03*
X113000000Y-146800000D03*
%TD*%
D18*
%TO.C,Q2*%
X51437500Y-144950000D03*
X51437500Y-143050000D03*
X49562500Y-144000000D03*
%TD*%
%TO.C,Q21*%
X64937500Y-140950000D03*
X64937500Y-139050000D03*
X63062500Y-140000000D03*
%TD*%
D22*
%TO.C,C4*%
X118900000Y-152650000D03*
X118900000Y-150750000D03*
%TD*%
%LPD*%
M02*
