%TF.GenerationSoftware,KiCad,Pcbnew,9.0.7*%
%TF.CreationDate,2026-02-06T21:26:18+01:00*%
%TF.ProjectId,REG8bit-SMD-V4.2,52454738-6269-4742-9d53-4d442d56342e,rev?*%
%TF.SameCoordinates,Original*%
%TF.FileFunction,Copper,L4,Bot*%
%TF.FilePolarity,Positive*%
%FSLAX46Y46*%
G04 Gerber Fmt 4.6, Leading zero omitted, Abs format (unit mm)*
G04 Created by KiCad (PCBNEW 9.0.7) date 2026-02-06 21:26:18*
%MOMM*%
%LPD*%
G01*
G04 APERTURE LIST*
%TA.AperFunction,ComponentPad*%
%ADD10R,1.700000X1.700000*%
%TD*%
%TA.AperFunction,ComponentPad*%
%ADD11C,1.700000*%
%TD*%
%TA.AperFunction,ViaPad*%
%ADD12C,1.000000*%
%TD*%
%TA.AperFunction,ViaPad*%
%ADD13C,0.600000*%
%TD*%
%TA.AperFunction,ViaPad*%
%ADD14C,1.500000*%
%TD*%
%TA.AperFunction,Conductor*%
%ADD15C,0.200000*%
%TD*%
%TA.AperFunction,Conductor*%
%ADD16C,0.400000*%
%TD*%
G04 APERTURE END LIST*
D10*
%TO.P,J1,1,Pin_1*%
%TO.N,Net-(J1-Pin_1)*%
X109700000Y-154300000D03*
D11*
%TO.P,J1,2,Pin_2*%
%TO.N,Net-(J1-Pin_2)*%
X107160000Y-154300000D03*
%TO.P,J1,3,Pin_3*%
%TO.N,Net-(J1-Pin_3)*%
X104620000Y-154300000D03*
%TO.P,J1,4,Pin_4*%
%TO.N,Net-(J1-Pin_4)*%
X102080000Y-154300000D03*
%TO.P,J1,5,Pin_5*%
%TO.N,Net-(J1-Pin_5)*%
X99540000Y-154300000D03*
%TO.P,J1,6,Pin_6*%
%TO.N,Net-(J1-Pin_6)*%
X97000000Y-154300000D03*
%TO.P,J1,7,Pin_7*%
%TO.N,Net-(J1-Pin_7)*%
X94460000Y-154300000D03*
%TO.P,J1,8,Pin_8*%
%TO.N,Net-(J1-Pin_8)*%
X91920000Y-154300000D03*
%TO.P,J1,9,Pin_9*%
%TO.N,Net-(J1-Pin_9)*%
X89380000Y-154300000D03*
%TO.P,J1,10,Pin_10*%
%TO.N,Net-(J1-Pin_10)*%
X86840000Y-154300000D03*
%TO.P,J1,11,Pin_11*%
%TO.N,Net-(J1-Pin_11)*%
X84300000Y-154300000D03*
%TO.P,J1,12,Pin_12*%
%TO.N,Net-(J1-Pin_12)*%
X81760000Y-154300000D03*
%TO.P,J1,13,Pin_13*%
%TO.N,Net-(J1-Pin_13)*%
X79220000Y-154300000D03*
%TO.P,J1,14,Pin_14*%
%TO.N,Net-(J1-Pin_14)*%
X76680000Y-154300000D03*
%TO.P,J1,15,Pin_15*%
%TO.N,Net-(J1-Pin_15)*%
X74140000Y-154300000D03*
%TO.P,J1,16,Pin_16*%
%TO.N,Net-(J1-Pin_16)*%
X71600000Y-154300000D03*
%TO.P,J1,17,Pin_17*%
%TO.N,/Rise_egde*%
X69060000Y-154300000D03*
%TO.P,J1,18,Pin_18*%
%TO.N,/R*%
X66520000Y-154300000D03*
%TO.P,J1,19,Pin_19*%
%TO.N,/RST*%
X63980000Y-154300000D03*
%TO.P,J1,20,Pin_20*%
%TO.N,Earth*%
X61440000Y-154300000D03*
%TO.P,J1,21,Pin_21*%
%TO.N,VCC*%
X58900000Y-154300000D03*
%TD*%
D12*
%TO.N,VCC*%
X86600000Y-128300000D03*
X112700000Y-148200000D03*
D13*
X88600000Y-146700000D03*
X97300000Y-146700000D03*
X70400000Y-146600000D03*
D12*
X50900000Y-148400000D03*
X59600000Y-128300000D03*
D13*
X106100000Y-146700000D03*
D14*
X112600000Y-154400000D03*
D12*
X104600000Y-128300000D03*
D13*
X61700000Y-146300000D03*
D14*
X115800000Y-154400000D03*
D13*
X78700000Y-146800000D03*
D12*
X113600000Y-128300000D03*
X50400000Y-128400000D03*
X77600000Y-128300000D03*
X68600000Y-128300000D03*
X61000000Y-149300000D03*
D14*
X118800000Y-154400000D03*
D12*
X95600000Y-128300000D03*
D13*
%TO.N,Earth*%
X83900000Y-144000000D03*
X110900000Y-144000000D03*
D12*
X66900000Y-152000000D03*
D13*
X85800000Y-143000000D03*
D14*
X118900000Y-149300000D03*
D13*
X68000000Y-143000000D03*
X94900000Y-142900000D03*
D12*
X65000000Y-125500000D03*
X119000000Y-125500000D03*
D13*
X113000000Y-142900000D03*
X120000000Y-144100000D03*
X92924000Y-144000000D03*
D12*
X110000000Y-125500000D03*
X74000000Y-125500000D03*
D13*
X104000000Y-143000000D03*
X76900000Y-143000000D03*
D12*
X92000000Y-125600000D03*
D13*
X52994485Y-130605515D03*
X74800000Y-144000000D03*
D14*
X111000000Y-148800000D03*
D12*
X83000000Y-125500000D03*
D13*
X116700000Y-149300000D03*
D12*
X56000000Y-125500000D03*
D13*
X101900000Y-144000000D03*
D12*
X54500000Y-153500000D03*
X101000000Y-125500000D03*
D13*
X113700000Y-149300000D03*
%TO.N,Net-(Q1-D)*%
X64900000Y-137900000D03*
X55900000Y-137900000D03*
X53200000Y-147700000D03*
X118500000Y-137900000D03*
X109700000Y-137900000D03*
X82700000Y-137900000D03*
X91700000Y-137900000D03*
X73600000Y-137900000D03*
X100700000Y-137900000D03*
%TO.N,/RST*%
X58900000Y-142000000D03*
X66100000Y-147300000D03*
X85900000Y-142000000D03*
X76900000Y-142000000D03*
X69300000Y-142000000D03*
X104000000Y-142000000D03*
X113000000Y-142000000D03*
X95000000Y-142000000D03*
X67200000Y-142000000D03*
X52000000Y-142000000D03*
%TO.N,Net-(Q10-D)*%
X48900000Y-131000000D03*
X54062500Y-134825000D03*
%TO.N,Net-(Q17-D)*%
X58700000Y-133000000D03*
X63062500Y-134825000D03*
%TO.N,Net-(Q27-D)*%
X67600000Y-133000000D03*
X72062500Y-134825000D03*
%TO.N,Net-(Q37-D)*%
X81062500Y-134825000D03*
X76600000Y-133000000D03*
%TO.N,Net-(Q47-D)*%
X85700000Y-133000000D03*
X90062500Y-134825000D03*
%TO.N,Net-(Q57-D)*%
X94600000Y-133000000D03*
X99062500Y-134825000D03*
%TO.N,Net-(Q67-D)*%
X108062500Y-134825000D03*
X103600000Y-133000000D03*
%TO.N,Net-(Q77-D)*%
X112600000Y-133000000D03*
X117062500Y-134825000D03*
%TO.N,Net-(J1-Pin_16)*%
X54500000Y-145000000D03*
%TO.N,Net-(J1-Pin_10)*%
X108500000Y-146800000D03*
%TO.N,Net-(J1-Pin_8)*%
X49000000Y-141600000D03*
X91900000Y-149300000D03*
X53400764Y-145200000D03*
%TO.N,Net-(J1-Pin_11)*%
X99500000Y-146711000D03*
%TO.N,Net-(J1-Pin_12)*%
X90500000Y-146800000D03*
%TO.N,Net-(J1-Pin_7)*%
X94400000Y-149114000D03*
%TO.N,Net-(J1-Pin_9)*%
X115200000Y-146300000D03*
%TO.N,Net-(J1-Pin_14)*%
X72500000Y-146800000D03*
%TO.N,Net-(J1-Pin_13)*%
X81400000Y-146800000D03*
%TO.N,Net-(J1-Pin_15)*%
X63500000Y-146300000D03*
%TO.N,Net-(J1-Pin_5)*%
X99500000Y-148600000D03*
%TO.N,Net-(J1-Pin_6)*%
X97000000Y-148800000D03*
%TO.N,Net-(J1-Pin_4)*%
X102000000Y-148500000D03*
%TO.N,Net-(J1-Pin_3)*%
X104620000Y-148521000D03*
%TO.N,Net-(J1-Pin_1)*%
X109700000Y-147700000D03*
%TO.N,Net-(J1-Pin_2)*%
X107100000Y-148500000D03*
%TO.N,Net-(Q1-G)*%
X118600000Y-146000000D03*
X73900000Y-146000000D03*
X91900000Y-146000000D03*
X109900000Y-146000000D03*
X100900000Y-146000000D03*
X64900000Y-146000000D03*
X63100000Y-148200000D03*
X56924000Y-145700000D03*
X82900000Y-146000000D03*
%TD*%
D15*
%TO.N,Net-(Q1-D)*%
X48399000Y-141351057D02*
X51850057Y-137900000D01*
X109700000Y-137900000D02*
X117800000Y-137900000D01*
X82700000Y-137900000D02*
X91700000Y-137900000D01*
X48399000Y-142899000D02*
X48399000Y-141351057D01*
X91700000Y-137900000D02*
X100700000Y-137900000D01*
X64900000Y-137900000D02*
X73600000Y-137900000D01*
X100700000Y-137900000D02*
X109700000Y-137900000D01*
X117800000Y-137900000D02*
X118500000Y-137900000D01*
X53200000Y-147700000D02*
X48399000Y-142899000D01*
X73600000Y-137900000D02*
X82700000Y-137900000D01*
X51850057Y-137900000D02*
X55900000Y-137900000D01*
X55900000Y-137900000D02*
X64900000Y-137900000D01*
%TO.N,/RST*%
X85900000Y-142000000D02*
X95000000Y-142000000D01*
X69300000Y-142000000D02*
X76900000Y-142000000D01*
X52000000Y-142000000D02*
X58900000Y-142000000D01*
X67200000Y-142000000D02*
X69300000Y-142000000D01*
X66100000Y-147300000D02*
X63980000Y-149420000D01*
X58900000Y-142000000D02*
X67200000Y-142000000D01*
X76900000Y-142000000D02*
X85900000Y-142000000D01*
X95000000Y-142000000D02*
X104000000Y-142000000D01*
X104000000Y-142000000D02*
X113000000Y-142000000D01*
X63980000Y-154300000D02*
X63980000Y-149420000D01*
%TO.N,Net-(Q10-D)*%
X54062500Y-134825000D02*
X52725000Y-134825000D01*
X52725000Y-134825000D02*
X48900000Y-131000000D01*
%TO.N,Net-(Q17-D)*%
X60525000Y-134825000D02*
X58700000Y-133000000D01*
X63062500Y-134825000D02*
X60525000Y-134825000D01*
%TO.N,Net-(Q27-D)*%
X67600000Y-133000000D02*
X69425000Y-134825000D01*
X69425000Y-134825000D02*
X72062500Y-134825000D01*
%TO.N,Net-(Q37-D)*%
X78425000Y-134825000D02*
X81062500Y-134825000D01*
X76600000Y-133000000D02*
X78425000Y-134825000D01*
%TO.N,Net-(Q47-D)*%
X85700000Y-133000000D02*
X87525000Y-134825000D01*
X87525000Y-134825000D02*
X90062500Y-134825000D01*
%TO.N,Net-(Q57-D)*%
X94600000Y-133000000D02*
X96425000Y-134825000D01*
X96425000Y-134825000D02*
X99062500Y-134825000D01*
%TO.N,Net-(Q67-D)*%
X103600000Y-133000000D02*
X105425000Y-134825000D01*
X105425000Y-134825000D02*
X108062500Y-134825000D01*
%TO.N,Net-(Q77-D)*%
X112600000Y-133000000D02*
X114425000Y-134825000D01*
X114425000Y-134825000D02*
X117062500Y-134825000D01*
%TO.N,Net-(J1-Pin_16)*%
X56600000Y-146600000D02*
X55701764Y-145701764D01*
X55701764Y-145701764D02*
X55201764Y-145701764D01*
X71500000Y-149300000D02*
X69900000Y-147700000D01*
X55201764Y-145701764D02*
X54500000Y-145000000D01*
X71500000Y-149303000D02*
X71500000Y-149300000D01*
X62700000Y-148800000D02*
X60500000Y-146600000D01*
X71600000Y-149400000D02*
X71500000Y-149300000D01*
X60500000Y-146600000D02*
X56600000Y-146600000D01*
X68700000Y-147700000D02*
X67700000Y-146700000D01*
X65700000Y-146700000D02*
X63600000Y-148800000D01*
X71600000Y-154300000D02*
X71600000Y-149400000D01*
X63600000Y-148800000D02*
X62700000Y-148800000D01*
X67700000Y-146700000D02*
X65700000Y-146700000D01*
X69900000Y-147700000D02*
X68700000Y-147700000D01*
%TO.N,Net-(J1-Pin_10)*%
X86840000Y-154300000D02*
X86840000Y-149664000D01*
X86840000Y-149664000D02*
X87502000Y-149002000D01*
X91467100Y-147400000D02*
X107700000Y-147400000D01*
X108300000Y-146800000D02*
X108500000Y-146800000D01*
X107700000Y-147400000D02*
X108300000Y-146800000D01*
X89865100Y-149002000D02*
X91133550Y-147733550D01*
X87502000Y-149002000D02*
X89865100Y-149002000D01*
X91065100Y-147802000D02*
X91467100Y-147400000D01*
%TO.N,Net-(J1-Pin_8)*%
X91920000Y-149320000D02*
X91900000Y-149300000D01*
X53400764Y-145099236D02*
X51501528Y-143200000D01*
X91920000Y-154300000D02*
X91920000Y-149320000D01*
X51501528Y-143200000D02*
X50600000Y-143200000D01*
X50600000Y-143200000D02*
X49000000Y-141600000D01*
X53400764Y-145200000D02*
X53400764Y-145099236D01*
%TO.N,Net-(J1-Pin_11)*%
X85002000Y-148601000D02*
X89699000Y-148601000D01*
X98889000Y-146100000D02*
X99500000Y-146711000D01*
X92900000Y-146100000D02*
X98889000Y-146100000D01*
X91300000Y-147000000D02*
X92000000Y-147000000D01*
X84300000Y-154300000D02*
X84300000Y-149303000D01*
X92000000Y-147000000D02*
X92900000Y-146100000D01*
X84300000Y-149303000D02*
X85002000Y-148601000D01*
X89699000Y-148601000D02*
X91300000Y-147000000D01*
%TO.N,Net-(J1-Pin_12)*%
X89800000Y-146100000D02*
X90500000Y-146800000D01*
X81760000Y-154300000D02*
X81760000Y-149240000D01*
X89100000Y-148200000D02*
X90500000Y-146800000D01*
X81760000Y-149240000D02*
X82800000Y-148200000D01*
X82800000Y-148200000D02*
X89100000Y-148200000D01*
X83800000Y-146100000D02*
X89800000Y-146100000D01*
%TO.N,Net-(J1-Pin_7)*%
X94460000Y-149174000D02*
X94400000Y-149114000D01*
X94460000Y-154300000D02*
X94460000Y-149174000D01*
%TO.N,Net-(J1-Pin_9)*%
X89380000Y-150054200D02*
X89380000Y-154300000D01*
X109349943Y-146800000D02*
X108348943Y-147801000D01*
X108348943Y-147801000D02*
X91633200Y-147801000D01*
X91633200Y-147801000D02*
X89380000Y-150054200D01*
X114700000Y-146800000D02*
X109349943Y-146800000D01*
X115200000Y-146300000D02*
X114700000Y-146800000D01*
%TO.N,Net-(J1-Pin_14)*%
X76680000Y-148680000D02*
X74800000Y-146800000D01*
X74800000Y-146800000D02*
X72500000Y-146800000D01*
X76680000Y-154300000D02*
X76680000Y-148680000D01*
%TO.N,Net-(J1-Pin_13)*%
X79220000Y-148880000D02*
X81300000Y-146800000D01*
X81300000Y-146800000D02*
X81400000Y-146800000D01*
X79220000Y-154300000D02*
X79220000Y-148880000D01*
%TO.N,Net-(J1-Pin_15)*%
X65148943Y-146601000D02*
X64651057Y-146601000D01*
X65449943Y-146300000D02*
X65148943Y-146601000D01*
X67867100Y-146300000D02*
X65449943Y-146300000D01*
X74140000Y-149417264D02*
X73711368Y-148988632D01*
X74140000Y-149417264D02*
X73811368Y-149088632D01*
X72022735Y-147300000D02*
X68867100Y-147300000D01*
X64350057Y-146300000D02*
X63500000Y-146300000D01*
X74140000Y-154300000D02*
X74140000Y-149417264D01*
X73811368Y-149088632D02*
X73711368Y-148988632D01*
X68867100Y-147300000D02*
X67867100Y-146300000D01*
X73711368Y-148988632D02*
X72022735Y-147300000D01*
X64651057Y-146601000D02*
X64350057Y-146300000D01*
X74025735Y-149303000D02*
X73811368Y-149088632D01*
%TO.N,Net-(J1-Pin_5)*%
X99540000Y-148640000D02*
X99500000Y-148600000D01*
X99540000Y-154300000D02*
X99540000Y-148640000D01*
%TO.N,Net-(J1-Pin_6)*%
X97000000Y-148800000D02*
X97000000Y-154300000D01*
%TO.N,Net-(J1-Pin_4)*%
X102080000Y-148780000D02*
X102080000Y-154300000D01*
X102080000Y-148580000D02*
X102000000Y-148500000D01*
X102000000Y-148500000D02*
X102000000Y-148700000D01*
X102000000Y-148700000D02*
X102080000Y-148780000D01*
%TO.N,Net-(J1-Pin_3)*%
X104620000Y-154300000D02*
X104620000Y-148521000D01*
%TO.N,Net-(J1-Pin_1)*%
X109700000Y-154300000D02*
X109700000Y-147700000D01*
%TO.N,Net-(J1-Pin_2)*%
X107160000Y-154300000D02*
X107160000Y-148560000D01*
X107160000Y-148560000D02*
X107100000Y-148500000D01*
D16*
%TO.N,Net-(Q1-G)*%
X90008520Y-145600000D02*
X90007521Y-145599000D01*
X81800000Y-145600000D02*
X82700000Y-145600000D01*
X62800000Y-146000000D02*
X63200000Y-145600000D01*
X73800000Y-145600000D02*
X74700000Y-145600000D01*
D15*
X73900000Y-146000000D02*
X73900000Y-145700000D01*
D16*
X109500000Y-145600000D02*
X109900000Y-145600000D01*
D15*
X64599000Y-145700000D02*
X64899000Y-146000000D01*
D16*
X100500000Y-145600000D02*
X100900000Y-145600000D01*
X74700000Y-145600000D02*
X81800000Y-145600000D01*
D15*
X65200000Y-145700000D02*
X65300000Y-145600000D01*
X109900000Y-146000000D02*
X109900000Y-145600000D01*
D16*
X61991364Y-145600000D02*
X62300000Y-145600000D01*
X63100000Y-148100000D02*
X62800000Y-147800000D01*
D15*
X63100000Y-148200000D02*
X63100000Y-148100000D01*
D16*
X109900000Y-145600000D02*
X117100000Y-145600000D01*
X91500000Y-145600000D02*
X91900000Y-146000000D01*
X100900000Y-145600000D02*
X108700000Y-145600000D01*
X83591480Y-145600000D02*
X83300000Y-145600000D01*
D15*
X82900000Y-146000000D02*
X83300000Y-145600000D01*
D16*
X100000000Y-145600000D02*
X100500000Y-145600000D01*
X73100000Y-145600000D02*
X73500000Y-145600000D01*
D15*
X74300000Y-145600000D02*
X74700000Y-145600000D01*
D16*
X108700000Y-145600000D02*
X109500000Y-145600000D01*
D15*
X91400000Y-145600000D02*
X91500000Y-145600000D01*
D16*
X81800000Y-145600000D02*
X82500000Y-145600000D01*
X73500000Y-145600000D02*
X73900000Y-146000000D01*
X62700000Y-146000000D02*
X62300000Y-145600000D01*
X62800000Y-147800000D02*
X62800000Y-146000000D01*
X92300000Y-145600000D02*
X100000000Y-145600000D01*
X73900000Y-145700000D02*
X73800000Y-145600000D01*
X73800000Y-145600000D02*
X73100000Y-145600000D01*
X109500000Y-145600000D02*
X109900000Y-146000000D01*
X57025000Y-145599000D02*
X61990364Y-145599000D01*
D15*
X56900000Y-145724000D02*
X56924000Y-145700000D01*
X62800000Y-146800000D02*
X62899000Y-146701000D01*
X82500000Y-145600000D02*
X82100000Y-145600000D01*
D16*
X90800000Y-145600000D02*
X91500000Y-145600000D01*
X62300000Y-145600000D02*
X65300000Y-145600000D01*
D15*
X64899000Y-146000000D02*
X64900000Y-146000000D01*
D16*
X83592480Y-145599000D02*
X83591480Y-145600000D01*
X118200000Y-145600000D02*
X118600000Y-146000000D01*
X90800000Y-145600000D02*
X90008520Y-145600000D01*
X117100000Y-145600000D02*
X118200000Y-145600000D01*
D15*
X64900000Y-146000000D02*
X65200000Y-145700000D01*
D16*
X56924000Y-145700000D02*
X57025000Y-145599000D01*
X90007521Y-145599000D02*
X83592480Y-145599000D01*
X91400000Y-145600000D02*
X90800000Y-145600000D01*
X62800000Y-146000000D02*
X62700000Y-146000000D01*
X91400000Y-145600000D02*
X92300000Y-145600000D01*
X73100000Y-145600000D02*
X65300000Y-145600000D01*
D15*
X91900000Y-146000000D02*
X92300000Y-145600000D01*
X100900000Y-146000000D02*
X100900000Y-145600000D01*
D16*
X82100000Y-145600000D02*
X83300000Y-145600000D01*
X100500000Y-145600000D02*
X100900000Y-146000000D01*
X61990364Y-145599000D02*
X61991364Y-145600000D01*
X82500000Y-145600000D02*
X82900000Y-146000000D01*
%TD*%
M02*
