M48
; DRILL file {KiCad 9.0.7} date 2026-02-12T15:24:35+0100
; FORMAT={-:-/ absolute / inch / decimal}
; #@! TF.CreationDate,2026-02-12T15:24:35+01:00
; #@! TF.GenerationSoftware,Kicad,Pcbnew,9.0.7
; #@! TF.FileFunction,Plated,1,4,PTH
FMAT,2
INCH
; #@! TA.AperFunction,Plated,PTH,ViaDrill
T1C0.0118
; #@! TA.AperFunction,Plated,PTH,ViaDrill
T2C0.0197
; #@! TA.AperFunction,Plated,PTH,ViaDrill
T3C0.0236
; #@! TA.AperFunction,Plated,PTH,ComponentDrill
T4C0.0394
%
G90
G05
T1
X1.9252Y-5.1575
X1.9291Y-5.5748
X2.0472Y-5.5906
X2.0864Y-5.1419
X2.0945Y-5.815
X2.1024Y-5.7165
X2.1284Y-5.3081
X2.1457Y-5.7087
X2.2008Y-5.4291
X2.2411Y-5.7362
X2.311Y-5.2362
X2.3189Y-5.5906
X2.4291Y-5.7598
X2.4828Y-5.3081
X2.4843Y-5.8346
X2.5Y-5.7598
X2.5551Y-5.4291
X2.5551Y-5.748
X2.6024Y-5.7992
X2.6457Y-5.5906
X2.6614Y-5.2362
X2.6772Y-5.6299
X2.7283Y-5.5906
X2.7717Y-5.7717
X2.8371Y-5.3081
X2.8543Y-5.7795
X2.8976Y-5.4291
X2.9094Y-5.748
X2.9449Y-5.6693
X3.0157Y-5.2362
X3.0276Y-5.5906
X3.0276Y-5.6299
X3.0984Y-5.7795
X3.1914Y-5.3081
X3.2047Y-5.7795
X3.2559Y-5.4291
X3.2638Y-5.748
X3.3031Y-5.6693
X3.374Y-5.2362
X3.378Y-5.6299
X3.3819Y-5.5906
X3.4882Y-5.7756
X3.5458Y-5.3081
X3.563Y-5.7795
X3.6102Y-5.4291
X3.6181Y-5.748
X3.6181Y-5.878
X3.6584Y-5.6693
X3.7165Y-5.8706
X3.7244Y-5.2362
X3.7362Y-5.626
X3.7402Y-5.5906
X3.8189Y-5.8583
X3.8307Y-5.7756
X3.9001Y-5.3081
X3.9173Y-5.776
X3.9173Y-5.8504
X3.9646Y-5.4291
X3.9724Y-5.748
X4.0118Y-5.6693
X4.0157Y-5.8465
X4.0787Y-5.2362
X4.0945Y-5.5906
X4.0945Y-5.6299
X4.1189Y-5.8473
X4.1772Y-5.7756
X4.2165Y-5.8465
X4.2544Y-5.3081
X4.2717Y-5.7795
X4.3189Y-5.4291
X4.3189Y-5.815
X4.3268Y-5.748
X4.3661Y-5.6693
X4.4331Y-5.2362
X4.4488Y-5.5906
X4.4488Y-5.626
X4.4764Y-5.878
X4.5354Y-5.7598
X4.5945Y-5.878
X4.6088Y-5.3081
X4.6654Y-5.4291
X4.6693Y-5.748
X4.7244Y-5.6732
T2
X1.9843Y-5.0551
X2.0039Y-5.8425
X2.2047Y-4.9409
X2.3465Y-5.0512
X2.4016Y-5.878
X2.5591Y-4.9409
X2.7008Y-5.0512
X2.9134Y-4.9409
X3.0551Y-5.0512
X3.2677Y-4.9409
X3.4094Y-5.0512
X3.622Y-4.9449
X3.7638Y-5.0512
X3.9764Y-4.9409
X4.1181Y-5.0512
X4.3307Y-4.9409
X4.3701Y-5.8583
X4.437Y-5.8346
X4.4724Y-5.0512
X4.5591Y-6.0787
X4.6772Y-6.0787
X4.6811Y-5.878
X4.685Y-4.9409
T3
X2.1457Y-6.0433
X2.6339Y-5.9843
X4.4331Y-6.0787
T4
X2.3189Y-6.0748
X2.4189Y-6.0748
X2.5189Y-6.0748
X2.6189Y-6.0748
X2.7189Y-6.0748
X2.8189Y-6.0748
X2.9189Y-6.0748
X3.0189Y-6.0748
X3.1189Y-6.0748
X3.2189Y-6.0748
X3.3189Y-6.0748
X3.4189Y-6.0748
X3.5189Y-6.0748
X3.6189Y-6.0748
X3.7189Y-6.0748
X3.8189Y-6.0748
X3.9189Y-6.0748
X4.0189Y-6.0748
X4.1189Y-6.0748
X4.2189Y-6.0748
X4.3189Y-6.0748
M30
