%TF.GenerationSoftware,KiCad,Pcbnew,9.0.7*%
%TF.CreationDate,2026-03-02T14:33:34+01:00*%
%TF.ProjectId,Register_Holder_V2.0,52656769-7374-4657-925f-486f6c646572,rev?*%
%TF.SameCoordinates,Original*%
%TF.FileFunction,Legend,Bot*%
%TF.FilePolarity,Positive*%
%FSLAX46Y46*%
G04 Gerber Fmt 4.6, Leading zero omitted, Abs format (unit mm)*
G04 Created by KiCad (PCBNEW 9.0.7) date 2026-03-02 14:33:34*
%MOMM*%
%LPD*%
G01*
G04 APERTURE LIST*
%ADD10R,1.700000X1.700000*%
%ADD11C,1.700000*%
%ADD12C,2.200000*%
%ADD13C,3.200000*%
G04 APERTURE END LIST*
%LPC*%
D10*
%TO.C,J12*%
X195800000Y-108480000D03*
D11*
X198340000Y-108480000D03*
X195800000Y-105940000D03*
X198340000Y-105940000D03*
X195800000Y-103400000D03*
X198340000Y-103400000D03*
X195800000Y-100860000D03*
X198340000Y-100860000D03*
X195800000Y-98320000D03*
X198340000Y-98320000D03*
X195800000Y-95780000D03*
X198340000Y-95780000D03*
X195800000Y-93240000D03*
X198340000Y-93240000D03*
X195800000Y-90700000D03*
X198340000Y-90700000D03*
%TD*%
D10*
%TO.C,J3*%
X144590000Y-33100000D03*
D11*
X144590000Y-35640000D03*
X144590000Y-38180000D03*
X144590000Y-40720000D03*
X144590000Y-43260000D03*
X144590000Y-45800000D03*
X144590000Y-48340000D03*
X144590000Y-50880000D03*
X144590000Y-53420000D03*
X144590000Y-55960000D03*
X144590000Y-58500000D03*
X144590000Y-61040000D03*
X144590000Y-63580000D03*
X144590000Y-66120000D03*
X144590000Y-68660000D03*
X144590000Y-71200000D03*
X144590000Y-73740000D03*
X144590000Y-76280000D03*
X144590000Y-78820000D03*
X144590000Y-81360000D03*
X144590000Y-83900000D03*
%TD*%
D10*
%TO.C,J14*%
X141800000Y-111800000D03*
D11*
X141800000Y-114340000D03*
%TD*%
D10*
%TO.C,J15*%
X57190000Y-102925000D03*
D11*
X57190000Y-105465000D03*
%TD*%
D12*
%TO.C,H1*%
X77390000Y-29300000D03*
%TD*%
%TO.C,H4*%
X83790000Y-87700000D03*
%TD*%
D10*
%TO.C,J7*%
X79480000Y-115100000D03*
D11*
X79480000Y-112560000D03*
X76940000Y-115100000D03*
X76940000Y-112560000D03*
X74400000Y-115100000D03*
X74400000Y-112560000D03*
X71860000Y-115100000D03*
X71860000Y-112560000D03*
X69320000Y-115100000D03*
X69320000Y-112560000D03*
X66780000Y-115100000D03*
X66780000Y-112560000D03*
X64240000Y-115100000D03*
X64240000Y-112560000D03*
X61700000Y-115100000D03*
X61700000Y-112560000D03*
%TD*%
D12*
%TO.C,H3*%
X77390000Y-87700000D03*
%TD*%
%TO.C,H7*%
X109390000Y-87700000D03*
%TD*%
D13*
%TO.C,H20*%
X200500000Y-116500000D03*
%TD*%
%TO.C,H18*%
X200500000Y-23700000D03*
%TD*%
D10*
%TO.C,J9*%
X58340000Y-31800000D03*
D11*
X55800000Y-31800000D03*
X58340000Y-34340000D03*
X55800000Y-34340000D03*
X58340000Y-36880000D03*
X55800000Y-36880000D03*
X58340000Y-39420000D03*
X55800000Y-39420000D03*
X58340000Y-41960000D03*
X55800000Y-41960000D03*
X58340000Y-44500000D03*
X55800000Y-44500000D03*
X58340000Y-47040000D03*
X55800000Y-47040000D03*
X58340000Y-49580000D03*
X55800000Y-49580000D03*
%TD*%
D12*
%TO.C,H14*%
X179790000Y-29300000D03*
%TD*%
D10*
%TO.C,J1*%
X80590000Y-33100000D03*
D11*
X80590000Y-35640000D03*
X80590000Y-38180000D03*
X80590000Y-40720000D03*
X80590000Y-43260000D03*
X80590000Y-45800000D03*
X80590000Y-48340000D03*
X80590000Y-50880000D03*
X80590000Y-53420000D03*
X80590000Y-55960000D03*
X80590000Y-58500000D03*
X80590000Y-61040000D03*
X80590000Y-63580000D03*
X80590000Y-66120000D03*
X80590000Y-68660000D03*
X80590000Y-71200000D03*
X80590000Y-73740000D03*
X80590000Y-76280000D03*
X80590000Y-78820000D03*
X80590000Y-81360000D03*
X80590000Y-83900000D03*
%TD*%
D10*
%TO.C,J4*%
X176590000Y-33100000D03*
D11*
X176590000Y-35640000D03*
X176590000Y-38180000D03*
X176590000Y-40720000D03*
X176590000Y-43260000D03*
X176590000Y-45800000D03*
X176590000Y-48340000D03*
X176590000Y-50880000D03*
X176590000Y-53420000D03*
X176590000Y-55960000D03*
X176590000Y-58500000D03*
X176590000Y-61040000D03*
X176590000Y-63580000D03*
X176590000Y-66120000D03*
X176590000Y-68660000D03*
X176590000Y-71200000D03*
X176590000Y-73740000D03*
X176590000Y-76280000D03*
X176590000Y-78820000D03*
X176590000Y-81360000D03*
X176590000Y-83900000D03*
%TD*%
D12*
%TO.C,H2*%
X83790000Y-29300000D03*
%TD*%
%TO.C,H15*%
X173390000Y-87700000D03*
%TD*%
%TO.C,H12*%
X147790000Y-87700000D03*
%TD*%
%TO.C,H8*%
X115790000Y-87700000D03*
%TD*%
%TO.C,H5*%
X109390000Y-29300000D03*
%TD*%
%TO.C,H9*%
X141390000Y-29300000D03*
%TD*%
D13*
%TO.C,H19*%
X53500000Y-116500000D03*
%TD*%
D12*
%TO.C,H6*%
X115790000Y-29300000D03*
%TD*%
D13*
%TO.C,H17*%
X53500000Y-23700000D03*
%TD*%
D10*
%TO.C,J2*%
X112590000Y-33100000D03*
D11*
X112590000Y-35640000D03*
X112590000Y-38180000D03*
X112590000Y-40720000D03*
X112590000Y-43260000D03*
X112590000Y-45800000D03*
X112590000Y-48340000D03*
X112590000Y-50880000D03*
X112590000Y-53420000D03*
X112590000Y-55960000D03*
X112590000Y-58500000D03*
X112590000Y-61040000D03*
X112590000Y-63580000D03*
X112590000Y-66120000D03*
X112590000Y-68660000D03*
X112590000Y-71200000D03*
X112590000Y-73740000D03*
X112590000Y-76280000D03*
X112590000Y-78820000D03*
X112590000Y-81360000D03*
X112590000Y-83900000D03*
%TD*%
D10*
%TO.C,J13*%
X123600000Y-23800000D03*
D11*
X126140000Y-23800000D03*
%TD*%
D12*
%TO.C,H10*%
X147790000Y-29300000D03*
%TD*%
%TO.C,H16*%
X179790000Y-87700000D03*
%TD*%
%TO.C,H13*%
X173390000Y-29300000D03*
%TD*%
%TO.C,H11*%
X141390000Y-87700000D03*
%TD*%
D10*
%TO.C,J5*%
X55800000Y-81580000D03*
D11*
X58340000Y-81580000D03*
X55800000Y-79040000D03*
X58340000Y-79040000D03*
X55800000Y-76500000D03*
X58340000Y-76500000D03*
X55800000Y-73960000D03*
X58340000Y-73960000D03*
X55800000Y-71420000D03*
X58340000Y-71420000D03*
X55800000Y-68880000D03*
X58340000Y-68880000D03*
X55800000Y-66340000D03*
X58340000Y-66340000D03*
X55800000Y-63800000D03*
X58340000Y-63800000D03*
%TD*%
%LPD*%
M02*
