%TF.GenerationSoftware,KiCad,Pcbnew,9.0.7*%
%TF.CreationDate,2026-03-01T22:26:29+01:00*%
%TF.ProjectId,Register_Holder_V2.0,52656769-7374-4657-925f-486f6c646572,rev?*%
%TF.SameCoordinates,Original*%
%TF.FileFunction,Soldermask,Top*%
%TF.FilePolarity,Negative*%
%FSLAX46Y46*%
G04 Gerber Fmt 4.6, Leading zero omitted, Abs format (unit mm)*
G04 Created by KiCad (PCBNEW 9.0.7) date 2026-03-01 22:26:29*
%MOMM*%
%LPD*%
G01*
G04 APERTURE LIST*
G04 Aperture macros list*
%AMRoundRect*
0 Rectangle with rounded corners*
0 $1 Rounding radius*
0 $2 $3 $4 $5 $6 $7 $8 $9 X,Y pos of 4 corners*
0 Add a 4 corners polygon primitive as box body*
4,1,4,$2,$3,$4,$5,$6,$7,$8,$9,$2,$3,0*
0 Add four circle primitives for the rounded corners*
1,1,$1+$1,$2,$3*
1,1,$1+$1,$4,$5*
1,1,$1+$1,$6,$7*
1,1,$1+$1,$8,$9*
0 Add four rect primitives between the rounded corners*
20,1,$1+$1,$2,$3,$4,$5,0*
20,1,$1+$1,$4,$5,$6,$7,0*
20,1,$1+$1,$6,$7,$8,$9,0*
20,1,$1+$1,$8,$9,$2,$3,0*%
G04 Aperture macros list end*
%ADD10RoundRect,0.150000X0.150000X-0.587500X0.150000X0.587500X-0.150000X0.587500X-0.150000X-0.587500X0*%
%ADD11RoundRect,0.159000X-0.189000X0.159000X-0.189000X-0.159000X0.189000X-0.159000X0.189000X0.159000X0*%
%ADD12RoundRect,0.239000X-0.239000X-0.274000X0.239000X-0.274000X0.239000X0.274000X-0.239000X0.274000X0*%
%ADD13RoundRect,0.159000X0.159000X0.189000X-0.159000X0.189000X-0.159000X-0.189000X0.159000X-0.189000X0*%
%ADD14RoundRect,0.159000X-0.159000X-0.189000X0.159000X-0.189000X0.159000X0.189000X-0.159000X0.189000X0*%
%ADD15RoundRect,0.150000X-0.587500X-0.150000X0.587500X-0.150000X0.587500X0.150000X-0.587500X0.150000X0*%
%ADD16R,1.700000X1.700000*%
%ADD17C,1.700000*%
%ADD18RoundRect,0.150000X0.587500X0.150000X-0.587500X0.150000X-0.587500X-0.150000X0.587500X-0.150000X0*%
%ADD19RoundRect,0.269000X0.494000X-0.269000X0.494000X0.269000X-0.494000X0.269000X-0.494000X-0.269000X0*%
%ADD20RoundRect,0.269000X-0.494000X0.269000X-0.494000X-0.269000X0.494000X-0.269000X0.494000X0.269000X0*%
%ADD21RoundRect,0.239000X0.239000X0.274000X-0.239000X0.274000X-0.239000X-0.274000X0.239000X-0.274000X0*%
G04 APERTURE END LIST*
D10*
%TO.C,Q132*%
X76900000Y-102762500D03*
X77850000Y-104637500D03*
X75950000Y-104637500D03*
%TD*%
D11*
%TO.C,R4*%
X77910000Y-101000000D03*
X77910000Y-100000000D03*
%TD*%
%TO.C,R12*%
X76710000Y-101000000D03*
X76710000Y-100000000D03*
%TD*%
D12*
%TO.C,D15*%
X199590000Y-37500000D03*
X198010000Y-37500000D03*
%TD*%
D13*
%TO.C,R46*%
X198400000Y-39000000D03*
X199400000Y-39000000D03*
%TD*%
D12*
%TO.C,D16*%
X198010000Y-33500000D03*
X199590000Y-33500000D03*
%TD*%
%TO.C,D11*%
X199580000Y-53500000D03*
X198000000Y-53500000D03*
%TD*%
D13*
%TO.C,R48*%
X199400000Y-35000000D03*
X198400000Y-35000000D03*
%TD*%
%TO.C,R47*%
X199400000Y-36000000D03*
X198400000Y-36000000D03*
%TD*%
%TO.C,R50*%
X199400000Y-30900000D03*
X198400000Y-30900000D03*
%TD*%
%TO.C,R37*%
X199400000Y-55000000D03*
X198400000Y-55000000D03*
%TD*%
%TO.C,R39*%
X199400000Y-51000000D03*
X198400000Y-51000000D03*
%TD*%
%TO.C,R38*%
X199400000Y-56000000D03*
X198400000Y-56000000D03*
%TD*%
%TO.C,R36*%
X198400000Y-60000000D03*
X199400000Y-60000000D03*
%TD*%
%TO.C,R35*%
X198400000Y-59000000D03*
X199400000Y-59000000D03*
%TD*%
%TO.C,R41*%
X198400000Y-48000000D03*
X199400000Y-48000000D03*
%TD*%
%TO.C,R49*%
X198400000Y-31900000D03*
X199400000Y-31900000D03*
%TD*%
%TO.C,R44*%
X198400000Y-43000000D03*
X199400000Y-43000000D03*
%TD*%
%TO.C,R40*%
X198400000Y-52000000D03*
X199400000Y-52000000D03*
%TD*%
%TO.C,R42*%
X198400000Y-47000000D03*
X199400000Y-47000000D03*
%TD*%
%TO.C,R43*%
X198400000Y-44000000D03*
X199400000Y-44000000D03*
%TD*%
%TO.C,R45*%
X198400000Y-40000000D03*
X199400000Y-40000000D03*
%TD*%
%TO.C,R66*%
X184100000Y-30400000D03*
X183100000Y-30400000D03*
%TD*%
%TO.C,R65*%
X184100000Y-29300000D03*
X183100000Y-29300000D03*
%TD*%
D14*
%TO.C,R64*%
X169100000Y-30400000D03*
X170100000Y-30400000D03*
%TD*%
%TO.C,R63*%
X169100000Y-29300000D03*
X170100000Y-29300000D03*
%TD*%
D13*
%TO.C,R62*%
X152100000Y-30400000D03*
X151100000Y-30400000D03*
%TD*%
%TO.C,R61*%
X152100000Y-29300000D03*
X151100000Y-29300000D03*
%TD*%
D14*
%TO.C,R60*%
X137100000Y-30400000D03*
X138100000Y-30400000D03*
%TD*%
%TO.C,R59*%
X137100000Y-29300000D03*
X138100000Y-29300000D03*
%TD*%
D13*
%TO.C,R58*%
X120200000Y-30400000D03*
X119200000Y-30400000D03*
%TD*%
%TO.C,R57*%
X120200000Y-29300000D03*
X119200000Y-29300000D03*
%TD*%
D14*
%TO.C,R56*%
X105100000Y-30400000D03*
X106100000Y-30400000D03*
%TD*%
%TO.C,R55*%
X105100000Y-29300000D03*
X106100000Y-29300000D03*
%TD*%
D13*
%TO.C,R54*%
X88100000Y-30400000D03*
X87100000Y-30400000D03*
%TD*%
%TO.C,R53*%
X88100000Y-29300000D03*
X87100000Y-29300000D03*
%TD*%
D14*
%TO.C,R52*%
X73100000Y-29300000D03*
X74100000Y-29300000D03*
%TD*%
%TO.C,R51*%
X73100000Y-30400000D03*
X74100000Y-30400000D03*
%TD*%
%TO.C,R34*%
X170800000Y-112475000D03*
X171800000Y-112475000D03*
%TD*%
%TO.C,R33*%
X170800000Y-111375000D03*
X171800000Y-111375000D03*
%TD*%
D15*
%TO.C,Q168*%
X140262500Y-104750000D03*
X140262500Y-106650000D03*
X142137500Y-105700000D03*
%TD*%
%TO.C,Q167*%
X144462500Y-104750000D03*
X144462500Y-106650000D03*
X146337500Y-105700000D03*
%TD*%
%TO.C,Q166*%
X148662500Y-104750000D03*
X148662500Y-106650000D03*
X150537500Y-105700000D03*
%TD*%
%TO.C,Q165*%
X152862500Y-104750000D03*
X152862500Y-106650000D03*
X154737500Y-105700000D03*
%TD*%
%TO.C,Q164*%
X157062500Y-104750000D03*
X157062500Y-106650000D03*
X158937500Y-105700000D03*
%TD*%
%TO.C,Q163*%
X161262500Y-104750000D03*
X161262500Y-106650000D03*
X163137500Y-105700000D03*
%TD*%
%TO.C,Q162*%
X165462500Y-104750000D03*
X165462500Y-106650000D03*
X167337500Y-105700000D03*
%TD*%
%TO.C,Q161*%
X169662500Y-104750000D03*
X169662500Y-106650000D03*
X171537500Y-105700000D03*
%TD*%
D16*
%TO.C,J12*%
X195800000Y-108480000D03*
D17*
X198340000Y-108480000D03*
X195800000Y-105940000D03*
X198340000Y-105940000D03*
X195800000Y-103400000D03*
X198340000Y-103400000D03*
X195800000Y-100860000D03*
X198340000Y-100860000D03*
X195800000Y-98320000D03*
X198340000Y-98320000D03*
X195800000Y-95780000D03*
X198340000Y-95780000D03*
X195800000Y-93240000D03*
X198340000Y-93240000D03*
X195800000Y-90700000D03*
X198340000Y-90700000D03*
%TD*%
D16*
%TO.C,J9*%
X58340000Y-31800000D03*
D17*
X55800000Y-31800000D03*
X58340000Y-34340000D03*
X55800000Y-34340000D03*
X58340000Y-36880000D03*
X55800000Y-36880000D03*
X58340000Y-39420000D03*
X55800000Y-39420000D03*
X58340000Y-41960000D03*
X55800000Y-41960000D03*
X58340000Y-44500000D03*
X55800000Y-44500000D03*
X58340000Y-47040000D03*
X55800000Y-47040000D03*
X58340000Y-49580000D03*
X55800000Y-49580000D03*
%TD*%
D16*
%TO.C,J7*%
X79480000Y-115100000D03*
D17*
X79480000Y-112560000D03*
X76940000Y-115100000D03*
X76940000Y-112560000D03*
X74400000Y-115100000D03*
X74400000Y-112560000D03*
X71860000Y-115100000D03*
X71860000Y-112560000D03*
X69320000Y-115100000D03*
X69320000Y-112560000D03*
X66780000Y-115100000D03*
X66780000Y-112560000D03*
X64240000Y-115100000D03*
X64240000Y-112560000D03*
X61700000Y-115100000D03*
X61700000Y-112560000D03*
%TD*%
D16*
%TO.C,J5*%
X55800000Y-81580000D03*
D17*
X58340000Y-81580000D03*
X55800000Y-79040000D03*
X58340000Y-79040000D03*
X55800000Y-76500000D03*
X58340000Y-76500000D03*
X55800000Y-73960000D03*
X58340000Y-73960000D03*
X55800000Y-71420000D03*
X58340000Y-71420000D03*
X55800000Y-68880000D03*
X58340000Y-68880000D03*
X55800000Y-66340000D03*
X58340000Y-66340000D03*
X55800000Y-63800000D03*
X58340000Y-63800000D03*
%TD*%
D11*
%TO.C,R3*%
X81710000Y-100000000D03*
X81710000Y-101000000D03*
%TD*%
D18*
%TO.C,Q53*%
X138327500Y-67350000D03*
X138327500Y-65450000D03*
X136452500Y-66400000D03*
%TD*%
D15*
%TO.C,Q44*%
X123152500Y-69250000D03*
X123152500Y-71150000D03*
X125027500Y-70200000D03*
%TD*%
D18*
%TO.C,Q60*%
X134027500Y-71150000D03*
X134027500Y-69250000D03*
X132152500Y-70200000D03*
%TD*%
D16*
%TO.C,J3*%
X144590000Y-33100000D03*
D17*
X144590000Y-35640000D03*
X144590000Y-38180000D03*
X144590000Y-40720000D03*
X144590000Y-43260000D03*
X144590000Y-45800000D03*
X144590000Y-48340000D03*
X144590000Y-50880000D03*
X144590000Y-53420000D03*
X144590000Y-55960000D03*
X144590000Y-58500000D03*
X144590000Y-61040000D03*
X144590000Y-63580000D03*
X144590000Y-66120000D03*
X144590000Y-68660000D03*
X144590000Y-71200000D03*
X144590000Y-73740000D03*
X144590000Y-76280000D03*
X144590000Y-78820000D03*
X144590000Y-81360000D03*
X144590000Y-83900000D03*
%TD*%
D11*
%TO.C,R25*%
X97700000Y-102000000D03*
X97700000Y-103000000D03*
%TD*%
D15*
%TO.C,Q74*%
X91152500Y-76850000D03*
X91152500Y-78750000D03*
X93027500Y-77800000D03*
%TD*%
%TO.C,Q83*%
X150852500Y-73050000D03*
X150852500Y-74950000D03*
X152727500Y-74000000D03*
%TD*%
D16*
%TO.C,J14*%
X141800000Y-111800000D03*
D17*
X141800000Y-114340000D03*
%TD*%
D18*
%TO.C,Q24*%
X106327500Y-55950000D03*
X106327500Y-54050000D03*
X104452500Y-55000000D03*
%TD*%
%TO.C,Q12*%
X74327500Y-63550000D03*
X74327500Y-61650000D03*
X72452500Y-62600000D03*
%TD*%
D10*
%TO.C,Q131*%
X79750000Y-104637500D03*
X81650000Y-104637500D03*
X80700000Y-102762500D03*
%TD*%
D15*
%TO.C,Q128*%
X187152500Y-54050000D03*
X187152500Y-55950000D03*
X189027500Y-55000000D03*
%TD*%
%TO.C,Q147*%
X100152500Y-30050000D03*
X100152500Y-31950000D03*
X102027500Y-31000000D03*
%TD*%
%TO.C,Q116*%
X182852500Y-69250000D03*
X182852500Y-71150000D03*
X184727500Y-70200000D03*
%TD*%
D18*
%TO.C,Q61*%
X134027500Y-67350000D03*
X134027500Y-65450000D03*
X132152500Y-66400000D03*
%TD*%
D12*
%TO.C,D6*%
X168200000Y-32000000D03*
X169780000Y-32000000D03*
%TD*%
D18*
%TO.C,Q99*%
X170327500Y-74950000D03*
X170327500Y-73050000D03*
X168452500Y-74000000D03*
%TD*%
%TO.C,Q62*%
X134027500Y-63550000D03*
X134027500Y-61650000D03*
X132152500Y-62600000D03*
%TD*%
D16*
%TO.C,J15*%
X57190000Y-102925000D03*
D17*
X57190000Y-105465000D03*
%TD*%
D19*
%TO.C,C10*%
X161550000Y-24750000D03*
X161550000Y-22850000D03*
%TD*%
D12*
%TO.C,D12*%
X198010000Y-49500000D03*
X199590000Y-49500000D03*
%TD*%
%TO.C,D9*%
X198010000Y-57500000D03*
X199590000Y-57500000D03*
%TD*%
D15*
%TO.C,Q80*%
X91152500Y-54050000D03*
X91152500Y-55950000D03*
X93027500Y-55000000D03*
%TD*%
D18*
%TO.C,Q51*%
X138327500Y-74950000D03*
X138327500Y-73050000D03*
X136452500Y-74000000D03*
%TD*%
D15*
%TO.C,Q117*%
X182852500Y-65450000D03*
X182852500Y-67350000D03*
X184727500Y-66400000D03*
%TD*%
D18*
%TO.C,Q28*%
X102027500Y-71150000D03*
X102027500Y-69250000D03*
X100152500Y-70200000D03*
%TD*%
D15*
%TO.C,Q35*%
X118852500Y-73050000D03*
X118852500Y-74950000D03*
X120727500Y-74000000D03*
%TD*%
D20*
%TO.C,C5*%
X154650000Y-112025000D03*
X154650000Y-113925000D03*
%TD*%
D15*
%TO.C,Q39*%
X118852500Y-57850000D03*
X118852500Y-59750000D03*
X120727500Y-58800000D03*
%TD*%
D18*
%TO.C,Q19*%
X106327500Y-74950000D03*
X106327500Y-73050000D03*
X104452500Y-74000000D03*
%TD*%
D15*
%TO.C,Q85*%
X150852500Y-65450000D03*
X150852500Y-67350000D03*
X152727500Y-66400000D03*
%TD*%
D18*
%TO.C,Q16*%
X74327500Y-55950000D03*
X74327500Y-54050000D03*
X72452500Y-55000000D03*
%TD*%
D15*
%TO.C,Q70*%
X86852500Y-61650000D03*
X86852500Y-63550000D03*
X88727500Y-62600000D03*
%TD*%
%TO.C,Q72*%
X86852500Y-54050000D03*
X86852500Y-55950000D03*
X88727500Y-55000000D03*
%TD*%
D11*
%TO.C,R24*%
X123100000Y-102000000D03*
X123100000Y-103000000D03*
%TD*%
D15*
%TO.C,Q156*%
X193962500Y-47550000D03*
X193962500Y-49450000D03*
X195837500Y-48500000D03*
%TD*%
%TO.C,Q33*%
X118852500Y-80650000D03*
X118852500Y-82550000D03*
X120727500Y-81600000D03*
%TD*%
D18*
%TO.C,Q18*%
X106327500Y-78750000D03*
X106327500Y-76850000D03*
X104452500Y-77800000D03*
%TD*%
D15*
%TO.C,Q47*%
X123152500Y-57850000D03*
X123152500Y-59750000D03*
X125027500Y-58800000D03*
%TD*%
D18*
%TO.C,Q54*%
X138327500Y-63550000D03*
X138327500Y-61650000D03*
X136452500Y-62600000D03*
%TD*%
%TO.C,Q5*%
X70027500Y-74950000D03*
X70027500Y-73050000D03*
X68152500Y-74000000D03*
%TD*%
D15*
%TO.C,Q36*%
X118852500Y-69250000D03*
X118852500Y-71150000D03*
X120727500Y-70200000D03*
%TD*%
D18*
%TO.C,Q15*%
X70027500Y-55950000D03*
X70027500Y-54050000D03*
X68152500Y-55000000D03*
%TD*%
D15*
%TO.C,Q71*%
X86852500Y-57850000D03*
X86852500Y-59750000D03*
X88727500Y-58800000D03*
%TD*%
%TO.C,Q75*%
X91152500Y-73050000D03*
X91152500Y-74950000D03*
X93027500Y-74000000D03*
%TD*%
%TO.C,Q153*%
X193962500Y-55550000D03*
X193962500Y-57450000D03*
X195837500Y-56500000D03*
%TD*%
D18*
%TO.C,Q27*%
X102027500Y-74950000D03*
X102027500Y-73050000D03*
X100152500Y-74000000D03*
%TD*%
D15*
%TO.C,Q127*%
X187152500Y-57850000D03*
X187152500Y-59750000D03*
X189027500Y-58800000D03*
%TD*%
D11*
%TO.C,R32*%
X124300000Y-102000000D03*
X124300000Y-103000000D03*
%TD*%
D20*
%TO.C,C14*%
X163650000Y-112025000D03*
X163650000Y-113925000D03*
%TD*%
D15*
%TO.C,Q46*%
X123152500Y-61650000D03*
X123152500Y-63550000D03*
X125027500Y-62600000D03*
%TD*%
D11*
%TO.C,R8*%
X62910000Y-100000000D03*
X62910000Y-101000000D03*
%TD*%
D10*
%TO.C,Q143*%
X118540000Y-106637500D03*
X120440000Y-106637500D03*
X119490000Y-104762500D03*
%TD*%
D11*
%TO.C,R27*%
X105300000Y-102000000D03*
X105300000Y-103000000D03*
%TD*%
D10*
%TO.C,Q144*%
X122340000Y-106637500D03*
X124240000Y-106637500D03*
X123290000Y-104762500D03*
%TD*%
D19*
%TO.C,C3*%
X136750000Y-24700000D03*
X136750000Y-22800000D03*
%TD*%
D18*
%TO.C,Q146*%
X93027500Y-31950000D03*
X93027500Y-30050000D03*
X91152500Y-31000000D03*
%TD*%
%TO.C,Q64*%
X134027500Y-55950000D03*
X134027500Y-54050000D03*
X132152500Y-55000000D03*
%TD*%
D19*
%TO.C,C11*%
X164600000Y-24750000D03*
X164600000Y-22850000D03*
%TD*%
D15*
%TO.C,Q87*%
X150852500Y-57850000D03*
X150852500Y-59750000D03*
X152727500Y-58800000D03*
%TD*%
%TO.C,Q122*%
X187152500Y-76850000D03*
X187152500Y-78750000D03*
X189027500Y-77800000D03*
%TD*%
D18*
%TO.C,Q30*%
X102027500Y-63550000D03*
X102027500Y-61650000D03*
X100152500Y-62600000D03*
%TD*%
D11*
%TO.C,R14*%
X69110000Y-100000000D03*
X69110000Y-101000000D03*
%TD*%
%TO.C,R16*%
X61710000Y-100000000D03*
X61710000Y-101000000D03*
%TD*%
%TO.C,R6*%
X70310000Y-100000000D03*
X70310000Y-101000000D03*
%TD*%
D18*
%TO.C,Q17*%
X106327500Y-82550000D03*
X106327500Y-80650000D03*
X104452500Y-81600000D03*
%TD*%
D20*
%TO.C,C16*%
X157700000Y-112025000D03*
X157700000Y-113925000D03*
%TD*%
D15*
%TO.C,Q154*%
X193962500Y-59550000D03*
X193962500Y-61450000D03*
X195837500Y-60500000D03*
%TD*%
D11*
%TO.C,R20*%
X107900000Y-102000000D03*
X107900000Y-103000000D03*
%TD*%
D15*
%TO.C,Q37*%
X118852500Y-65450000D03*
X118852500Y-67350000D03*
X120727500Y-66400000D03*
%TD*%
D11*
%TO.C,R13*%
X72910000Y-100000000D03*
X72910000Y-101000000D03*
%TD*%
D18*
%TO.C,Q52*%
X138327500Y-71150000D03*
X138327500Y-69250000D03*
X136452500Y-70200000D03*
%TD*%
%TO.C,Q63*%
X134027500Y-59750000D03*
X134027500Y-57850000D03*
X132152500Y-58800000D03*
%TD*%
%TO.C,Q102*%
X170327500Y-63550000D03*
X170327500Y-61650000D03*
X168452500Y-62600000D03*
%TD*%
%TO.C,Q4*%
X74327500Y-78750000D03*
X74327500Y-76850000D03*
X72452500Y-77800000D03*
%TD*%
%TO.C,Q11*%
X70027500Y-63550000D03*
X70027500Y-61650000D03*
X68152500Y-62600000D03*
%TD*%
%TO.C,Q31*%
X102027500Y-59750000D03*
X102027500Y-57850000D03*
X100152500Y-58800000D03*
%TD*%
D16*
%TO.C,J1*%
X80590000Y-33100000D03*
D17*
X80590000Y-35640000D03*
X80590000Y-38180000D03*
X80590000Y-40720000D03*
X80590000Y-43260000D03*
X80590000Y-45800000D03*
X80590000Y-48340000D03*
X80590000Y-50880000D03*
X80590000Y-53420000D03*
X80590000Y-55960000D03*
X80590000Y-58500000D03*
X80590000Y-61040000D03*
X80590000Y-63580000D03*
X80590000Y-66120000D03*
X80590000Y-68660000D03*
X80590000Y-71200000D03*
X80590000Y-73740000D03*
X80590000Y-76280000D03*
X80590000Y-78820000D03*
X80590000Y-81360000D03*
X80590000Y-83900000D03*
%TD*%
D18*
%TO.C,Q50*%
X138327500Y-78750000D03*
X138327500Y-76850000D03*
X136452500Y-77800000D03*
%TD*%
D15*
%TO.C,Q119*%
X182852500Y-57850000D03*
X182852500Y-59750000D03*
X184727500Y-58800000D03*
%TD*%
%TO.C,Q159*%
X193962500Y-35550000D03*
X193962500Y-37450000D03*
X195837500Y-36500000D03*
%TD*%
D18*
%TO.C,Q49*%
X138327500Y-82550000D03*
X138327500Y-80650000D03*
X136452500Y-81600000D03*
%TD*%
D12*
%TO.C,D24*%
X72200000Y-32000000D03*
X73780000Y-32000000D03*
%TD*%
D18*
%TO.C,Q59*%
X134027500Y-74950000D03*
X134027500Y-73050000D03*
X132152500Y-74000000D03*
%TD*%
D11*
%TO.C,R1*%
X89310000Y-100000000D03*
X89310000Y-101000000D03*
%TD*%
D18*
%TO.C,Q29*%
X102027500Y-67350000D03*
X102027500Y-65450000D03*
X100152500Y-66400000D03*
%TD*%
D16*
%TO.C,J4*%
X176590000Y-33100000D03*
D17*
X176590000Y-35640000D03*
X176590000Y-38180000D03*
X176590000Y-40720000D03*
X176590000Y-43260000D03*
X176590000Y-45800000D03*
X176590000Y-48340000D03*
X176590000Y-50880000D03*
X176590000Y-53420000D03*
X176590000Y-55960000D03*
X176590000Y-58500000D03*
X176590000Y-61040000D03*
X176590000Y-63580000D03*
X176590000Y-66120000D03*
X176590000Y-68660000D03*
X176590000Y-71200000D03*
X176590000Y-73740000D03*
X176590000Y-76280000D03*
X176590000Y-78820000D03*
X176590000Y-81360000D03*
X176590000Y-83900000D03*
%TD*%
D11*
%TO.C,R17*%
X96500000Y-102000000D03*
X96500000Y-103000000D03*
%TD*%
D18*
%TO.C,Q101*%
X170327500Y-67350000D03*
X170327500Y-65450000D03*
X168452500Y-66400000D03*
%TD*%
D15*
%TO.C,Q96*%
X155152500Y-54050000D03*
X155152500Y-55950000D03*
X157027500Y-55000000D03*
%TD*%
D18*
%TO.C,Q6*%
X74327500Y-74950000D03*
X74327500Y-73050000D03*
X72452500Y-74000000D03*
%TD*%
D11*
%TO.C,R19*%
X104100000Y-102000000D03*
X104100000Y-103000000D03*
%TD*%
D15*
%TO.C,Q145*%
X68142500Y-30050000D03*
X68142500Y-31950000D03*
X70017500Y-31000000D03*
%TD*%
%TO.C,Q157*%
X193962500Y-43550000D03*
X193962500Y-45450000D03*
X195837500Y-44500000D03*
%TD*%
D18*
%TO.C,Q26*%
X102027500Y-78750000D03*
X102027500Y-76850000D03*
X100152500Y-77800000D03*
%TD*%
%TO.C,Q97*%
X170327500Y-82550000D03*
X170327500Y-80650000D03*
X168452500Y-81600000D03*
%TD*%
%TO.C,Q150*%
X157027500Y-31950000D03*
X157027500Y-30050000D03*
X155152500Y-31000000D03*
%TD*%
%TO.C,Q103*%
X170327500Y-59750000D03*
X170327500Y-57850000D03*
X168452500Y-58800000D03*
%TD*%
D15*
%TO.C,Q90*%
X155152500Y-76850000D03*
X155152500Y-78750000D03*
X157027500Y-77800000D03*
%TD*%
%TO.C,Q88*%
X150852500Y-54050000D03*
X150852500Y-55950000D03*
X152727500Y-55000000D03*
%TD*%
D11*
%TO.C,R21*%
X111700000Y-102000000D03*
X111700000Y-103000000D03*
%TD*%
D12*
%TO.C,D14*%
X198010000Y-41500000D03*
X199590000Y-41500000D03*
%TD*%
D18*
%TO.C,Q56*%
X138327500Y-55950000D03*
X138327500Y-54050000D03*
X136452500Y-55000000D03*
%TD*%
D11*
%TO.C,R30*%
X116700000Y-102000000D03*
X116700000Y-103000000D03*
%TD*%
%TO.C,R9*%
X88110000Y-100000000D03*
X88110000Y-101000000D03*
%TD*%
D15*
%TO.C,Q91*%
X155152500Y-73050000D03*
X155152500Y-74950000D03*
X157027500Y-74000000D03*
%TD*%
D11*
%TO.C,R5*%
X74110000Y-100000000D03*
X74110000Y-101000000D03*
%TD*%
D15*
%TO.C,Q92*%
X155152500Y-69250000D03*
X155152500Y-71150000D03*
X157027500Y-70200000D03*
%TD*%
%TO.C,Q34*%
X118852500Y-76850000D03*
X118852500Y-78750000D03*
X120727500Y-77800000D03*
%TD*%
%TO.C,Q78*%
X91152500Y-61650000D03*
X91152500Y-63550000D03*
X93027500Y-62600000D03*
%TD*%
%TO.C,Q155*%
X193962500Y-51550000D03*
X193962500Y-53450000D03*
X195837500Y-52500000D03*
%TD*%
D18*
%TO.C,Q14*%
X74327500Y-59750000D03*
X74327500Y-57850000D03*
X72452500Y-58800000D03*
%TD*%
D15*
%TO.C,Q124*%
X187152500Y-69250000D03*
X187152500Y-71150000D03*
X189027500Y-70200000D03*
%TD*%
D18*
%TO.C,Q148*%
X125027500Y-31950000D03*
X125027500Y-30050000D03*
X123152500Y-31000000D03*
%TD*%
D15*
%TO.C,Q40*%
X118852500Y-54050000D03*
X118852500Y-55950000D03*
X120727500Y-55000000D03*
%TD*%
%TO.C,Q84*%
X150852500Y-69250000D03*
X150852500Y-71150000D03*
X152727500Y-70200000D03*
%TD*%
D11*
%TO.C,R7*%
X66510000Y-100000000D03*
X66510000Y-101000000D03*
%TD*%
D15*
%TO.C,Q93*%
X155152500Y-65450000D03*
X155152500Y-67350000D03*
X157027500Y-66400000D03*
%TD*%
%TO.C,Q77*%
X91152500Y-65450000D03*
X91152500Y-67350000D03*
X93027500Y-66400000D03*
%TD*%
%TO.C,Q41*%
X123152500Y-80650000D03*
X123152500Y-82550000D03*
X125027500Y-81600000D03*
%TD*%
D19*
%TO.C,C4*%
X139800000Y-24700000D03*
X139800000Y-22800000D03*
%TD*%
D15*
%TO.C,Q68*%
X86852500Y-69250000D03*
X86852500Y-71150000D03*
X88727500Y-70200000D03*
%TD*%
%TO.C,Q151*%
X164152500Y-30050000D03*
X164152500Y-31950000D03*
X166027500Y-31000000D03*
%TD*%
%TO.C,Q120*%
X182852500Y-54050000D03*
X182852500Y-55950000D03*
X184727500Y-55000000D03*
%TD*%
D18*
%TO.C,Q108*%
X166027500Y-71150000D03*
X166027500Y-69250000D03*
X164152500Y-70200000D03*
%TD*%
D12*
%TO.C,D10*%
X198010000Y-61500000D03*
X199590000Y-61500000D03*
%TD*%
D15*
%TO.C,Q48*%
X123152500Y-54050000D03*
X123152500Y-55950000D03*
X125027500Y-55000000D03*
%TD*%
D11*
%TO.C,R26*%
X101500000Y-102000000D03*
X101500000Y-103000000D03*
%TD*%
D18*
%TO.C,Q20*%
X106327500Y-71150000D03*
X106327500Y-69250000D03*
X104452500Y-70200000D03*
%TD*%
D11*
%TO.C,R29*%
X112900000Y-102000000D03*
X112900000Y-103000000D03*
%TD*%
D15*
%TO.C,Q126*%
X187152500Y-61650000D03*
X187152500Y-63550000D03*
X189027500Y-62600000D03*
%TD*%
D20*
%TO.C,C7*%
X148550000Y-112025000D03*
X148550000Y-113925000D03*
%TD*%
D15*
%TO.C,Q66*%
X86852500Y-76850000D03*
X86852500Y-78750000D03*
X88727500Y-77800000D03*
%TD*%
%TO.C,Q73*%
X91152500Y-80650000D03*
X91152500Y-82550000D03*
X93027500Y-81600000D03*
%TD*%
D19*
%TO.C,C9*%
X158500000Y-24750000D03*
X158500000Y-22850000D03*
%TD*%
D10*
%TO.C,Q140*%
X107140000Y-106637500D03*
X109040000Y-106637500D03*
X108090000Y-104762500D03*
%TD*%
D15*
%TO.C,Q149*%
X132152500Y-30050000D03*
X132152500Y-31950000D03*
X134027500Y-31000000D03*
%TD*%
%TO.C,Q38*%
X118852500Y-61650000D03*
X118852500Y-63550000D03*
X120727500Y-62600000D03*
%TD*%
D18*
%TO.C,Q7*%
X70027500Y-71150000D03*
X70027500Y-69250000D03*
X68152500Y-70200000D03*
%TD*%
D15*
%TO.C,Q42*%
X123152500Y-76850000D03*
X123152500Y-78750000D03*
X125027500Y-77800000D03*
%TD*%
D18*
%TO.C,Q23*%
X106327500Y-59750000D03*
X106327500Y-57850000D03*
X104452500Y-58800000D03*
%TD*%
%TO.C,Q25*%
X102027500Y-82550000D03*
X102027500Y-80650000D03*
X100152500Y-81600000D03*
%TD*%
D19*
%TO.C,C12*%
X167650000Y-24750000D03*
X167650000Y-22850000D03*
%TD*%
D15*
%TO.C,Q79*%
X91152500Y-57850000D03*
X91152500Y-59750000D03*
X93027500Y-58800000D03*
%TD*%
D10*
%TO.C,Q135*%
X64550000Y-104637500D03*
X66450000Y-104637500D03*
X65500000Y-102762500D03*
%TD*%
%TO.C,Q130*%
X83550000Y-104637500D03*
X85450000Y-104637500D03*
X84500000Y-102762500D03*
%TD*%
%TO.C,Q134*%
X68350000Y-104637500D03*
X70250000Y-104637500D03*
X69300000Y-102762500D03*
%TD*%
D15*
%TO.C,Q160*%
X193962500Y-31550000D03*
X193962500Y-33450000D03*
X195837500Y-32500000D03*
%TD*%
%TO.C,Q125*%
X187152500Y-65450000D03*
X187152500Y-67350000D03*
X189027500Y-66400000D03*
%TD*%
%TO.C,Q121*%
X187152500Y-80650000D03*
X187152500Y-82550000D03*
X189027500Y-81600000D03*
%TD*%
D18*
%TO.C,Q10*%
X74327500Y-67350000D03*
X74327500Y-65450000D03*
X72452500Y-66400000D03*
%TD*%
D15*
%TO.C,Q45*%
X123152500Y-65450000D03*
X123152500Y-67350000D03*
X125027500Y-66400000D03*
%TD*%
D18*
%TO.C,Q9*%
X70027500Y-67350000D03*
X70027500Y-65450000D03*
X68152500Y-66400000D03*
%TD*%
D11*
%TO.C,R23*%
X119300000Y-102000000D03*
X119300000Y-103000000D03*
%TD*%
D18*
%TO.C,Q57*%
X134027500Y-82550000D03*
X134027500Y-80650000D03*
X132152500Y-81600000D03*
%TD*%
%TO.C,Q105*%
X166027500Y-82550000D03*
X166027500Y-80650000D03*
X164152500Y-81600000D03*
%TD*%
D15*
%TO.C,Q82*%
X150852500Y-76850000D03*
X150852500Y-78750000D03*
X152727500Y-77800000D03*
%TD*%
D18*
%TO.C,Q112*%
X166027500Y-55950000D03*
X166027500Y-54050000D03*
X164152500Y-55000000D03*
%TD*%
D12*
%TO.C,D4*%
X136200000Y-32000000D03*
X137780000Y-32000000D03*
%TD*%
D15*
%TO.C,Q65*%
X86852500Y-80650000D03*
X86852500Y-82550000D03*
X88727500Y-81600000D03*
%TD*%
D18*
%TO.C,Q1*%
X70027500Y-82550000D03*
X70027500Y-80650000D03*
X68152500Y-81600000D03*
%TD*%
D15*
%TO.C,Q81*%
X150852500Y-80650000D03*
X150852500Y-82550000D03*
X152727500Y-81600000D03*
%TD*%
D18*
%TO.C,Q3*%
X70027500Y-78750000D03*
X70027500Y-76850000D03*
X68152500Y-77800000D03*
%TD*%
%TO.C,Q55*%
X138327500Y-59750000D03*
X138327500Y-57850000D03*
X136452500Y-58800000D03*
%TD*%
D10*
%TO.C,Q139*%
X103340000Y-106637500D03*
X105240000Y-106637500D03*
X104290000Y-104762500D03*
%TD*%
D18*
%TO.C,Q22*%
X106327500Y-63550000D03*
X106327500Y-61650000D03*
X104452500Y-62600000D03*
%TD*%
D20*
%TO.C,C13*%
X166700000Y-112025000D03*
X166700000Y-113925000D03*
%TD*%
D21*
%TO.C,D5*%
X152980000Y-32000000D03*
X151400000Y-32000000D03*
%TD*%
D12*
%TO.C,D8*%
X169900000Y-113975000D03*
X171480000Y-113975000D03*
%TD*%
D18*
%TO.C,Q104*%
X170327500Y-55950000D03*
X170327500Y-54050000D03*
X168452500Y-55000000D03*
%TD*%
D16*
%TO.C,J2*%
X112590000Y-33100000D03*
D17*
X112590000Y-35640000D03*
X112590000Y-38180000D03*
X112590000Y-40720000D03*
X112590000Y-43260000D03*
X112590000Y-45800000D03*
X112590000Y-48340000D03*
X112590000Y-50880000D03*
X112590000Y-53420000D03*
X112590000Y-55960000D03*
X112590000Y-58500000D03*
X112590000Y-61040000D03*
X112590000Y-63580000D03*
X112590000Y-66120000D03*
X112590000Y-68660000D03*
X112590000Y-71200000D03*
X112590000Y-73740000D03*
X112590000Y-76280000D03*
X112590000Y-78820000D03*
X112590000Y-81360000D03*
X112590000Y-83900000D03*
%TD*%
D20*
%TO.C,C15*%
X160750000Y-112025000D03*
X160750000Y-113925000D03*
%TD*%
D15*
%TO.C,Q86*%
X150852500Y-61650000D03*
X150852500Y-63550000D03*
X152727500Y-62600000D03*
%TD*%
D10*
%TO.C,Q136*%
X60750000Y-104637500D03*
X62650000Y-104637500D03*
X61700000Y-102762500D03*
%TD*%
%TO.C,Q137*%
X95740000Y-106637500D03*
X97640000Y-106637500D03*
X96690000Y-104762500D03*
%TD*%
%TO.C,Q138*%
X99540000Y-106637500D03*
X101440000Y-106637500D03*
X100490000Y-104762500D03*
%TD*%
D18*
%TO.C,Q111*%
X166027500Y-59750000D03*
X166027500Y-57850000D03*
X164152500Y-58800000D03*
%TD*%
D10*
%TO.C,Q129*%
X87350000Y-104637500D03*
X89250000Y-104637500D03*
X88300000Y-102762500D03*
%TD*%
D15*
%TO.C,Q43*%
X123152500Y-73050000D03*
X123152500Y-74950000D03*
X125027500Y-74000000D03*
%TD*%
D18*
%TO.C,Q106*%
X166027500Y-78750000D03*
X166027500Y-76850000D03*
X164152500Y-77800000D03*
%TD*%
D20*
%TO.C,C6*%
X151600000Y-112025000D03*
X151600000Y-113925000D03*
%TD*%
D21*
%TO.C,D7*%
X184980000Y-32000000D03*
X183400000Y-32000000D03*
%TD*%
D11*
%TO.C,R18*%
X100300000Y-102000000D03*
X100300000Y-103000000D03*
%TD*%
D15*
%TO.C,Q69*%
X86852500Y-65450000D03*
X86852500Y-67350000D03*
X88727500Y-66400000D03*
%TD*%
%TO.C,Q115*%
X182852500Y-73050000D03*
X182852500Y-74950000D03*
X184727500Y-74000000D03*
%TD*%
D18*
%TO.C,Q21*%
X106327500Y-67350000D03*
X106327500Y-65450000D03*
X104452500Y-66400000D03*
%TD*%
D15*
%TO.C,Q67*%
X86852500Y-73050000D03*
X86852500Y-74950000D03*
X88727500Y-74000000D03*
%TD*%
D16*
%TO.C,J13*%
X123600000Y-23800000D03*
D17*
X126140000Y-23800000D03*
%TD*%
D18*
%TO.C,Q110*%
X166027500Y-63550000D03*
X166027500Y-61650000D03*
X164152500Y-62600000D03*
%TD*%
D15*
%TO.C,Q118*%
X182852500Y-61650000D03*
X182852500Y-63550000D03*
X184727500Y-62600000D03*
%TD*%
%TO.C,Q158*%
X193962500Y-39550000D03*
X193962500Y-41450000D03*
X195837500Y-40500000D03*
%TD*%
D12*
%TO.C,D2*%
X104200000Y-32000000D03*
X105780000Y-32000000D03*
%TD*%
D20*
%TO.C,C8*%
X145500000Y-112025000D03*
X145500000Y-113925000D03*
%TD*%
D18*
%TO.C,Q8*%
X74327500Y-71150000D03*
X74327500Y-69250000D03*
X72452500Y-70200000D03*
%TD*%
D11*
%TO.C,R15*%
X65310000Y-100000000D03*
X65310000Y-101000000D03*
%TD*%
D15*
%TO.C,Q114*%
X182852500Y-76850000D03*
X182852500Y-78750000D03*
X184727500Y-77800000D03*
%TD*%
D12*
%TO.C,D13*%
X198010000Y-45500000D03*
X199590000Y-45500000D03*
%TD*%
D10*
%TO.C,Q133*%
X72150000Y-104637500D03*
X74050000Y-104637500D03*
X73100000Y-102762500D03*
%TD*%
D11*
%TO.C,R28*%
X109100000Y-102000000D03*
X109100000Y-103000000D03*
%TD*%
D18*
%TO.C,Q58*%
X134027500Y-78750000D03*
X134027500Y-76850000D03*
X132152500Y-77800000D03*
%TD*%
D11*
%TO.C,R22*%
X115500000Y-102000000D03*
X115500000Y-103000000D03*
%TD*%
D15*
%TO.C,Q123*%
X187152500Y-73050000D03*
X187152500Y-74950000D03*
X189027500Y-74000000D03*
%TD*%
D21*
%TO.C,D3*%
X121080000Y-32000000D03*
X119500000Y-32000000D03*
%TD*%
D15*
%TO.C,Q94*%
X155152500Y-61650000D03*
X155152500Y-63550000D03*
X157027500Y-62600000D03*
%TD*%
D18*
%TO.C,Q109*%
X166027500Y-67350000D03*
X166027500Y-65450000D03*
X164152500Y-66400000D03*
%TD*%
D15*
%TO.C,Q95*%
X155152500Y-57850000D03*
X155152500Y-59750000D03*
X157027500Y-58800000D03*
%TD*%
D18*
%TO.C,Q100*%
X170327500Y-71150000D03*
X170327500Y-69250000D03*
X168452500Y-70200000D03*
%TD*%
%TO.C,Q98*%
X170327500Y-78750000D03*
X170327500Y-76850000D03*
X168452500Y-77800000D03*
%TD*%
%TO.C,Q13*%
X70027500Y-59750000D03*
X70027500Y-57850000D03*
X68152500Y-58800000D03*
%TD*%
%TO.C,Q2*%
X74327500Y-82550000D03*
X74327500Y-80650000D03*
X72452500Y-81600000D03*
%TD*%
%TO.C,Q107*%
X166027500Y-74950000D03*
X166027500Y-73050000D03*
X164152500Y-74000000D03*
%TD*%
D21*
%TO.C,D1*%
X88980000Y-32000000D03*
X87400000Y-32000000D03*
%TD*%
D15*
%TO.C,Q89*%
X155152500Y-80650000D03*
X155152500Y-82550000D03*
X157027500Y-81600000D03*
%TD*%
D19*
%TO.C,C1*%
X130650000Y-24700000D03*
X130650000Y-22800000D03*
%TD*%
D18*
%TO.C,Q32*%
X102027500Y-55950000D03*
X102027500Y-54050000D03*
X100152500Y-55000000D03*
%TD*%
%TO.C,Q152*%
X189027500Y-31950000D03*
X189027500Y-30050000D03*
X187152500Y-31000000D03*
%TD*%
D11*
%TO.C,R31*%
X120500000Y-102000000D03*
X120500000Y-103000000D03*
%TD*%
D10*
%TO.C,Q142*%
X114740000Y-106637500D03*
X116640000Y-106637500D03*
X115690000Y-104762500D03*
%TD*%
D15*
%TO.C,Q76*%
X91152500Y-69250000D03*
X91152500Y-71150000D03*
X93027500Y-70200000D03*
%TD*%
D11*
%TO.C,R10*%
X84310000Y-100000000D03*
X84310000Y-101000000D03*
%TD*%
D15*
%TO.C,Q113*%
X182852500Y-80650000D03*
X182852500Y-82550000D03*
X184727500Y-81600000D03*
%TD*%
D19*
%TO.C,C2*%
X133700000Y-24700000D03*
X133700000Y-22800000D03*
%TD*%
D11*
%TO.C,R11*%
X80510000Y-101000000D03*
X80510000Y-100000000D03*
%TD*%
%TO.C,R2*%
X85510000Y-100000000D03*
X85510000Y-101000000D03*
%TD*%
D10*
%TO.C,Q141*%
X110940000Y-106637500D03*
X112840000Y-106637500D03*
X111890000Y-104762500D03*
%TD*%
M02*
