%TF.GenerationSoftware,KiCad,Pcbnew,9.0.7*%
%TF.CreationDate,2026-03-01T22:26:29+01:00*%
%TF.ProjectId,Register_Holder_V2.0,52656769-7374-4657-925f-486f6c646572,rev?*%
%TF.SameCoordinates,Original*%
%TF.FileFunction,Copper,L2,Inr*%
%TF.FilePolarity,Positive*%
%FSLAX46Y46*%
G04 Gerber Fmt 4.6, Leading zero omitted, Abs format (unit mm)*
G04 Created by KiCad (PCBNEW 9.0.7) date 2026-03-01 22:26:29*
%MOMM*%
%LPD*%
G01*
G04 APERTURE LIST*
%TA.AperFunction,ComponentPad*%
%ADD10R,1.700000X1.700000*%
%TD*%
%TA.AperFunction,ComponentPad*%
%ADD11C,1.700000*%
%TD*%
%TA.AperFunction,ViaPad*%
%ADD12C,0.600000*%
%TD*%
%TA.AperFunction,ViaPad*%
%ADD13C,1.000000*%
%TD*%
%TA.AperFunction,ViaPad*%
%ADD14C,1.500000*%
%TD*%
%TA.AperFunction,Conductor*%
%ADD15C,0.200000*%
%TD*%
%TA.AperFunction,Conductor*%
%ADD16C,0.400000*%
%TD*%
G04 APERTURE END LIST*
D10*
%TO.N,GND*%
%TO.C,J12*%
X195800000Y-108480000D03*
D11*
%TO.N,Net-(J1-Pin_13)*%
X198340000Y-108480000D03*
%TO.N,VCC*%
X195800000Y-105940000D03*
%TO.N,Net-(J1-Pin_12)*%
X198340000Y-105940000D03*
%TO.N,GND*%
X195800000Y-103400000D03*
%TO.N,Net-(J1-Pin_11)*%
X198340000Y-103400000D03*
%TO.N,VCC*%
X195800000Y-100860000D03*
%TO.N,Net-(J1-Pin_10)*%
X198340000Y-100860000D03*
%TO.N,GND*%
X195800000Y-98320000D03*
%TO.N,Net-(J1-Pin_9)*%
X198340000Y-98320000D03*
%TO.N,VCC*%
X195800000Y-95780000D03*
%TO.N,Net-(J1-Pin_8)*%
X198340000Y-95780000D03*
%TO.N,GND*%
X195800000Y-93240000D03*
%TO.N,Net-(J1-Pin_7)*%
X198340000Y-93240000D03*
%TO.N,VCC*%
X195800000Y-90700000D03*
%TO.N,Net-(J1-Pin_6)*%
X198340000Y-90700000D03*
%TD*%
D10*
%TO.N,VCC*%
%TO.C,J9*%
X58340000Y-31800000D03*
D11*
%TO.N,Net-(J1-Pin_6)*%
X55800000Y-31800000D03*
%TO.N,GND*%
X58340000Y-34340000D03*
%TO.N,Net-(J1-Pin_7)*%
X55800000Y-34340000D03*
%TO.N,VCC*%
X58340000Y-36880000D03*
%TO.N,Net-(J1-Pin_8)*%
X55800000Y-36880000D03*
%TO.N,GND*%
X58340000Y-39420000D03*
%TO.N,Net-(J1-Pin_9)*%
X55800000Y-39420000D03*
%TO.N,VCC*%
X58340000Y-41960000D03*
%TO.N,Net-(J1-Pin_10)*%
X55800000Y-41960000D03*
%TO.N,GND*%
X58340000Y-44500000D03*
%TO.N,Net-(J1-Pin_11)*%
X55800000Y-44500000D03*
%TO.N,VCC*%
X58340000Y-47040000D03*
%TO.N,Net-(J1-Pin_12)*%
X55800000Y-47040000D03*
%TO.N,GND*%
X58340000Y-49580000D03*
%TO.N,Net-(J1-Pin_13)*%
X55800000Y-49580000D03*
%TD*%
D10*
%TO.N,Net-(J7-Pin_1)*%
%TO.C,J7*%
X79480000Y-115100000D03*
D11*
%TO.N,Net-(J7-Pin_2)*%
X79480000Y-112560000D03*
%TO.N,Net-(J7-Pin_3)*%
X76940000Y-115100000D03*
%TO.N,Net-(J7-Pin_4)*%
X76940000Y-112560000D03*
%TO.N,Net-(J7-Pin_5)*%
X74400000Y-115100000D03*
%TO.N,Net-(J7-Pin_6)*%
X74400000Y-112560000D03*
%TO.N,Net-(J7-Pin_7)*%
X71860000Y-115100000D03*
%TO.N,Net-(J7-Pin_8)*%
X71860000Y-112560000D03*
%TO.N,Net-(J7-Pin_9)*%
X69320000Y-115100000D03*
%TO.N,Net-(J7-Pin_10)*%
X69320000Y-112560000D03*
%TO.N,Net-(J7-Pin_11)*%
X66780000Y-115100000D03*
%TO.N,Net-(J7-Pin_12)*%
X66780000Y-112560000D03*
%TO.N,Net-(J7-Pin_13)*%
X64240000Y-115100000D03*
%TO.N,Net-(J7-Pin_14)*%
X64240000Y-112560000D03*
%TO.N,Net-(J7-Pin_15)*%
X61700000Y-115100000D03*
%TO.N,Net-(J7-Pin_16)*%
X61700000Y-112560000D03*
%TD*%
D10*
%TO.N,GND*%
%TO.C,J5*%
X55800000Y-81580000D03*
D11*
%TO.N,Net-(J5-Pin_2)*%
X58340000Y-81580000D03*
%TO.N,RST*%
X55800000Y-79040000D03*
%TO.N,Net-(J5-Pin_4)*%
X58340000Y-79040000D03*
%TO.N,Rising_Edge*%
X55800000Y-76500000D03*
%TO.N,Net-(J5-Pin_6)*%
X58340000Y-76500000D03*
%TO.N,/ALU B -> FF*%
X55800000Y-73960000D03*
%TO.N,Net-(J5-Pin_8)*%
X58340000Y-73960000D03*
%TO.N,Net-(J4-Pin_4)*%
X55800000Y-71420000D03*
%TO.N,Net-(J5-Pin_10)*%
X58340000Y-71420000D03*
%TO.N,Net-(J3-Pin_4)*%
X55800000Y-68880000D03*
%TO.N,Net-(J5-Pin_12)*%
X58340000Y-68880000D03*
%TO.N,Net-(J2-Pin_4)*%
X55800000Y-66340000D03*
%TO.N,Net-(J5-Pin_14)*%
X58340000Y-66340000D03*
%TO.N,Net-(J1-Pin_4)*%
X55800000Y-63800000D03*
%TO.N,Net-(J5-Pin_16)*%
X58340000Y-63800000D03*
%TD*%
D10*
%TO.N,VCC*%
%TO.C,J3*%
X144590000Y-33100000D03*
D11*
%TO.N,GND*%
X144590000Y-35640000D03*
%TO.N,RST*%
X144590000Y-38180000D03*
%TO.N,Net-(J3-Pin_4)*%
X144590000Y-40720000D03*
%TO.N,Rising_Edge*%
X144590000Y-43260000D03*
%TO.N,Net-(J1-Pin_6)*%
X144590000Y-45800000D03*
%TO.N,Net-(J1-Pin_7)*%
X144590000Y-48340000D03*
%TO.N,Net-(J1-Pin_8)*%
X144590000Y-50880000D03*
%TO.N,Net-(J1-Pin_9)*%
X144590000Y-53420000D03*
%TO.N,Net-(J1-Pin_10)*%
X144590000Y-55960000D03*
%TO.N,Net-(J1-Pin_11)*%
X144590000Y-58500000D03*
%TO.N,Net-(J1-Pin_12)*%
X144590000Y-61040000D03*
%TO.N,Net-(J1-Pin_13)*%
X144590000Y-63580000D03*
%TO.N,Net-(J3-Pin_14)*%
X144590000Y-66120000D03*
%TO.N,Net-(J3-Pin_15)*%
X144590000Y-68660000D03*
%TO.N,Net-(J3-Pin_16)*%
X144590000Y-71200000D03*
%TO.N,Net-(J3-Pin_17)*%
X144590000Y-73740000D03*
%TO.N,Net-(J3-Pin_18)*%
X144590000Y-76280000D03*
%TO.N,Net-(J3-Pin_19)*%
X144590000Y-78820000D03*
%TO.N,Net-(J3-Pin_20)*%
X144590000Y-81360000D03*
%TO.N,Net-(J3-Pin_21)*%
X144590000Y-83900000D03*
%TD*%
D10*
%TO.N,VCC*%
%TO.C,J14*%
X141800000Y-111800000D03*
D11*
%TO.N,GND*%
X141800000Y-114340000D03*
%TD*%
D10*
%TO.N,VCC*%
%TO.C,J15*%
X57190000Y-102925000D03*
D11*
%TO.N,GND*%
X57190000Y-105465000D03*
%TD*%
D10*
%TO.N,VCC*%
%TO.C,J1*%
X80590000Y-33100000D03*
D11*
%TO.N,GND*%
X80590000Y-35640000D03*
%TO.N,RST*%
X80590000Y-38180000D03*
%TO.N,Net-(J1-Pin_4)*%
X80590000Y-40720000D03*
%TO.N,Rising_Edge*%
X80590000Y-43260000D03*
%TO.N,Net-(J1-Pin_6)*%
X80590000Y-45800000D03*
%TO.N,Net-(J1-Pin_7)*%
X80590000Y-48340000D03*
%TO.N,Net-(J1-Pin_8)*%
X80590000Y-50880000D03*
%TO.N,Net-(J1-Pin_9)*%
X80590000Y-53420000D03*
%TO.N,Net-(J1-Pin_10)*%
X80590000Y-55960000D03*
%TO.N,Net-(J1-Pin_11)*%
X80590000Y-58500000D03*
%TO.N,Net-(J1-Pin_12)*%
X80590000Y-61040000D03*
%TO.N,Net-(J1-Pin_13)*%
X80590000Y-63580000D03*
%TO.N,Net-(J1-Pin_14)*%
X80590000Y-66120000D03*
%TO.N,Net-(J1-Pin_15)*%
X80590000Y-68660000D03*
%TO.N,Net-(J1-Pin_16)*%
X80590000Y-71200000D03*
%TO.N,Net-(J1-Pin_17)*%
X80590000Y-73740000D03*
%TO.N,Net-(J1-Pin_18)*%
X80590000Y-76280000D03*
%TO.N,Net-(J1-Pin_19)*%
X80590000Y-78820000D03*
%TO.N,Net-(J1-Pin_20)*%
X80590000Y-81360000D03*
%TO.N,Net-(J1-Pin_21)*%
X80590000Y-83900000D03*
%TD*%
D10*
%TO.N,VCC*%
%TO.C,J4*%
X176590000Y-33100000D03*
D11*
%TO.N,GND*%
X176590000Y-35640000D03*
%TO.N,RST*%
X176590000Y-38180000D03*
%TO.N,Net-(J4-Pin_4)*%
X176590000Y-40720000D03*
%TO.N,Rising_Edge*%
X176590000Y-43260000D03*
%TO.N,Net-(J1-Pin_6)*%
X176590000Y-45800000D03*
%TO.N,Net-(J1-Pin_7)*%
X176590000Y-48340000D03*
%TO.N,Net-(J1-Pin_8)*%
X176590000Y-50880000D03*
%TO.N,Net-(J1-Pin_9)*%
X176590000Y-53420000D03*
%TO.N,Net-(J1-Pin_10)*%
X176590000Y-55960000D03*
%TO.N,Net-(J1-Pin_11)*%
X176590000Y-58500000D03*
%TO.N,Net-(J1-Pin_12)*%
X176590000Y-61040000D03*
%TO.N,Net-(J1-Pin_13)*%
X176590000Y-63580000D03*
%TO.N,Net-(J4-Pin_14)*%
X176590000Y-66120000D03*
%TO.N,Net-(J4-Pin_15)*%
X176590000Y-68660000D03*
%TO.N,Net-(J4-Pin_16)*%
X176590000Y-71200000D03*
%TO.N,Net-(J4-Pin_17)*%
X176590000Y-73740000D03*
%TO.N,Net-(J4-Pin_18)*%
X176590000Y-76280000D03*
%TO.N,Net-(J4-Pin_19)*%
X176590000Y-78820000D03*
%TO.N,Net-(J4-Pin_20)*%
X176590000Y-81360000D03*
%TO.N,Net-(J4-Pin_21)*%
X176590000Y-83900000D03*
%TD*%
D10*
%TO.N,VCC*%
%TO.C,J2*%
X112590000Y-33100000D03*
D11*
%TO.N,GND*%
X112590000Y-35640000D03*
%TO.N,RST*%
X112590000Y-38180000D03*
%TO.N,Net-(J2-Pin_4)*%
X112590000Y-40720000D03*
%TO.N,Rising_Edge*%
X112590000Y-43260000D03*
%TO.N,Net-(J1-Pin_6)*%
X112590000Y-45800000D03*
%TO.N,Net-(J1-Pin_7)*%
X112590000Y-48340000D03*
%TO.N,Net-(J1-Pin_8)*%
X112590000Y-50880000D03*
%TO.N,Net-(J1-Pin_9)*%
X112590000Y-53420000D03*
%TO.N,Net-(J1-Pin_10)*%
X112590000Y-55960000D03*
%TO.N,Net-(J1-Pin_11)*%
X112590000Y-58500000D03*
%TO.N,Net-(J1-Pin_12)*%
X112590000Y-61040000D03*
%TO.N,Net-(J1-Pin_13)*%
X112590000Y-63580000D03*
%TO.N,Net-(J2-Pin_14)*%
X112590000Y-66120000D03*
%TO.N,Net-(J2-Pin_15)*%
X112590000Y-68660000D03*
%TO.N,Net-(J2-Pin_16)*%
X112590000Y-71200000D03*
%TO.N,Net-(J2-Pin_17)*%
X112590000Y-73740000D03*
%TO.N,Net-(J2-Pin_18)*%
X112590000Y-76280000D03*
%TO.N,Net-(J2-Pin_19)*%
X112590000Y-78820000D03*
%TO.N,Net-(J2-Pin_20)*%
X112590000Y-81360000D03*
%TO.N,Net-(J2-Pin_21)*%
X112590000Y-83900000D03*
%TD*%
D10*
%TO.N,VCC*%
%TO.C,J13*%
X123600000Y-23800000D03*
D11*
%TO.N,GND*%
X126140000Y-23800000D03*
%TD*%
D12*
%TO.N,/ALU B -> FF*%
X136800000Y-104700000D03*
D13*
%TO.N,GND*%
X157100000Y-108200000D03*
D12*
%TO.N,Net-(Q1-D)*%
X62819265Y-81619265D03*
%TO.N,Net-(Q106-D)*%
X63300000Y-77800000D03*
%TO.N,Net-(Q111-D)*%
X83600000Y-91200000D03*
%TO.N,Net-(Q11-D)*%
X79800000Y-91900000D03*
%TO.N,Net-(Q109-D)*%
X76000000Y-92600000D03*
%TO.N,Net-(Q108-D)*%
X72200000Y-93300000D03*
%TO.N,Net-(Q107-D)*%
X68400000Y-94000000D03*
%TO.N,Net-(Q1-D)*%
X93590000Y-95400000D03*
%TO.N,Net-(Q106-D)*%
X93100000Y-94700000D03*
X64600000Y-94800000D03*
%TO.N,Net-(Q1-D)*%
X60750000Y-95400000D03*
%TO.N,GND*%
X78800000Y-106000000D03*
%TO.N,VCC*%
X77310000Y-99100000D03*
X123700000Y-101100000D03*
X119900000Y-101100000D03*
X116100000Y-101100000D03*
X112300000Y-101100000D03*
X108500000Y-101100000D03*
X104700000Y-101100000D03*
X100900000Y-101100000D03*
X97100000Y-101100000D03*
X62310000Y-98900000D03*
X65910000Y-99100000D03*
X69710000Y-99100000D03*
X73510000Y-99100000D03*
X88710000Y-99100000D03*
D13*
X89290000Y-28400000D03*
D12*
%TO.N,Net-(J5-Pin_2)*%
X189100000Y-33200000D03*
X182800000Y-52700000D03*
%TO.N,Net-(J1-Pin_16)*%
X71690000Y-63800000D03*
X89290000Y-60400000D03*
%TO.N,Net-(J1-Pin_15)*%
X71690000Y-60000000D03*
X89490000Y-57700000D03*
%TO.N,Net-(J1-Pin_20)*%
X89490000Y-76600000D03*
X71690000Y-79000000D03*
D13*
%TO.N,GND*%
X192300000Y-60500000D03*
D12*
X121390000Y-108000000D03*
X117590000Y-108000000D03*
X90200000Y-106000000D03*
D13*
X156990000Y-28300000D03*
D12*
X102390000Y-108000000D03*
D13*
X139890000Y-79500000D03*
D12*
X86400000Y-106000000D03*
X82600000Y-106000000D03*
D13*
X75890000Y-79500000D03*
D12*
X106190000Y-108000000D03*
D13*
X188990000Y-28300000D03*
X192300000Y-44500000D03*
X100190000Y-33300000D03*
D12*
X71200000Y-106000000D03*
D13*
X124990000Y-28300000D03*
X192300000Y-52500000D03*
X171890000Y-79500000D03*
X192300000Y-40500000D03*
X192300000Y-36500000D03*
D12*
X75000000Y-106000000D03*
X63600000Y-106000000D03*
X109990000Y-108000000D03*
D13*
X192300000Y-48500000D03*
X192300000Y-32500000D03*
D12*
X125190000Y-108000000D03*
D13*
X85290000Y-81400000D03*
X117290000Y-81400000D03*
D12*
X67400000Y-106000000D03*
D13*
X68190000Y-33300000D03*
X181290000Y-81400000D03*
X132190000Y-33300000D03*
D12*
X113790000Y-108000000D03*
D13*
X164190000Y-33300000D03*
X149290000Y-81400000D03*
D12*
X98590000Y-108000000D03*
D13*
X192300000Y-56500000D03*
X92990000Y-28300000D03*
X107890000Y-79500000D03*
D12*
%TO.N,Net-(J1-Pin_18)*%
X89490000Y-69000000D03*
X71690000Y-71400000D03*
%TO.N,Net-(J1-Pin_14)*%
X89490000Y-53900000D03*
X71690000Y-56200000D03*
%TO.N,Net-(J1-Pin_21)*%
X71690000Y-82800000D03*
X89490000Y-80400000D03*
%TO.N,VCC*%
X84910000Y-99100000D03*
D14*
X199650000Y-64450000D03*
D13*
X71990000Y-28200000D03*
D14*
X200400000Y-29400000D03*
D13*
X185290000Y-28400000D03*
D12*
X81110000Y-98900000D03*
%TO.N,Net-(J1-Pin_19)*%
X71690000Y-75200000D03*
X89490000Y-72800000D03*
%TO.N,Net-(J1-Pin_17)*%
X89490000Y-65200000D03*
X71690000Y-67600000D03*
%TO.N,Net-(J2-Pin_17)*%
X103790000Y-67600000D03*
X121390000Y-65200000D03*
%TO.N,Net-(J2-Pin_15)*%
X121490000Y-57600000D03*
X103790000Y-60100000D03*
%TO.N,Net-(J2-Pin_20)*%
X121490000Y-76600000D03*
X103790000Y-79000000D03*
%TO.N,Net-(J2-Pin_14)*%
X121490000Y-53800000D03*
X103790000Y-56500000D03*
%TO.N,Net-(J2-Pin_18)*%
X121490000Y-69000000D03*
X103690000Y-71500000D03*
%TO.N,Net-(J2-Pin_21)*%
X103790000Y-82800000D03*
X121390000Y-80400000D03*
%TO.N,Net-(J2-Pin_19)*%
X121490000Y-72800000D03*
X103790000Y-75200000D03*
%TO.N,Net-(J2-Pin_16)*%
X103690000Y-64100000D03*
X122190000Y-62400000D03*
%TO.N,Net-(J3-Pin_18)*%
X135690000Y-71400000D03*
X153490000Y-69000000D03*
%TO.N,Net-(J3-Pin_16)*%
X154190000Y-62500000D03*
X135790000Y-64100000D03*
%TO.N,Net-(J3-Pin_19)*%
X153490000Y-72800000D03*
X135690000Y-75200000D03*
%TO.N,Net-(J3-Pin_20)*%
X153390000Y-76600000D03*
X135690000Y-79000000D03*
%TO.N,Net-(J3-Pin_17)*%
X135690000Y-67600000D03*
X153490000Y-65200000D03*
%TO.N,Net-(J3-Pin_14)*%
X135690000Y-56500000D03*
X153490000Y-53800000D03*
%TO.N,Net-(J3-Pin_21)*%
X153390000Y-80400000D03*
X135690000Y-82800000D03*
%TO.N,Net-(J3-Pin_15)*%
X135690000Y-60000000D03*
X153490000Y-57600000D03*
%TO.N,Net-(J4-Pin_17)*%
X167690000Y-67600000D03*
X185490000Y-65200000D03*
%TO.N,Net-(J4-Pin_21)*%
X185490000Y-80400000D03*
X167690000Y-82800000D03*
%TO.N,Net-(J4-Pin_20)*%
X185490000Y-76600000D03*
X167690000Y-79000000D03*
%TO.N,Net-(J4-Pin_14)*%
X185490000Y-53800000D03*
X167690000Y-56500000D03*
%TO.N,Net-(J4-Pin_18)*%
X167690000Y-71400000D03*
X185490000Y-69000000D03*
%TO.N,Net-(J4-Pin_19)*%
X185490000Y-72800000D03*
X167690000Y-75200000D03*
%TO.N,Net-(J4-Pin_16)*%
X167690000Y-64100000D03*
X185490000Y-61400000D03*
%TO.N,Net-(J4-Pin_15)*%
X185490000Y-57600000D03*
X167690000Y-60000000D03*
%TO.N,Net-(J5-Pin_10)*%
X166790000Y-51900000D03*
%TO.N,Net-(J5-Pin_14)*%
X100060984Y-49229016D03*
%TO.N,Net-(J5-Pin_12)*%
X137190000Y-49600000D03*
%TO.N,Net-(J5-Pin_16)*%
X69239032Y-50407064D03*
%TO.N,Net-(J5-Pin_8)*%
X86690000Y-79700000D03*
%TO.N,Net-(J5-Pin_6)*%
X118490000Y-79700000D03*
%TO.N,Net-(J5-Pin_4)*%
X150590000Y-79700000D03*
%TO.N,Net-(J5-Pin_2)*%
X185090000Y-79100000D03*
%TO.N,Net-(Q1-D)*%
X154090000Y-95400000D03*
X130590000Y-81600000D03*
X123890000Y-95400000D03*
X98590000Y-81600000D03*
X162590000Y-81600000D03*
%TO.N,Net-(Q106-D)*%
X123390000Y-94700000D03*
X130590000Y-77800000D03*
X153590000Y-94700000D03*
X162590000Y-77800000D03*
X98590000Y-77800000D03*
%TO.N,Net-(Q107-D)*%
X130590000Y-74000000D03*
X162590000Y-74000000D03*
X92590000Y-94000000D03*
X98590000Y-74000000D03*
X153090000Y-94000000D03*
X63800000Y-74000000D03*
X122890000Y-94000000D03*
%TO.N,Net-(Q108-D)*%
X130590000Y-70200000D03*
X98590000Y-70200000D03*
X162590000Y-70200000D03*
X122390000Y-93300000D03*
X152590000Y-93300000D03*
X92090000Y-93300000D03*
X64200000Y-70200000D03*
%TO.N,Net-(Q109-D)*%
X64700000Y-66400000D03*
X130590000Y-66400000D03*
X152090000Y-92600000D03*
X121890000Y-92600000D03*
X98590000Y-66400000D03*
X91590000Y-92600000D03*
X162590000Y-66400000D03*
%TO.N,Net-(Q11-D)*%
X121390000Y-91900000D03*
X91090000Y-91900000D03*
X162590000Y-62500000D03*
X65200000Y-62600000D03*
X130590000Y-62500000D03*
X151590000Y-91900000D03*
X98590000Y-62500000D03*
%TO.N,Net-(Q111-D)*%
X65600000Y-58800000D03*
X98590000Y-59300000D03*
X90590000Y-91200000D03*
X162590000Y-59300000D03*
X120890000Y-91200000D03*
X151090000Y-91200000D03*
X130590000Y-59300000D03*
%TO.N,Net-(Q112-D)*%
X98590000Y-54900000D03*
X150590000Y-90500000D03*
X130590000Y-54900000D03*
X162590000Y-54900000D03*
X90090000Y-90500000D03*
X120390000Y-90500000D03*
X66100000Y-55000000D03*
%TO.N,Net-(Q121-D)*%
X122090000Y-100300000D03*
X125790000Y-101200000D03*
X150590000Y-101200000D03*
X94590000Y-81600000D03*
X158590000Y-81600000D03*
X190390000Y-81600000D03*
X126590000Y-81600000D03*
%TO.N,Net-(Q122-D)*%
X152390000Y-100500000D03*
X94590000Y-77800000D03*
X158590000Y-77800000D03*
X126390000Y-100500000D03*
X118200000Y-99700000D03*
X190390000Y-77800000D03*
X126590000Y-77800000D03*
%TO.N,Net-(Q123-D)*%
X114500000Y-99100000D03*
X126590000Y-74000000D03*
X158590000Y-74000000D03*
X153990000Y-99800000D03*
X190390000Y-74000000D03*
X94590000Y-74000000D03*
X126990000Y-99800000D03*
%TO.N,Net-(Q124-D)*%
X110690000Y-98500000D03*
X126590000Y-70200000D03*
X158590000Y-70200000D03*
X127590000Y-99100000D03*
X94590000Y-70200000D03*
X190390000Y-70200000D03*
X155590000Y-99100000D03*
%TO.N,Net-(Q125-D)*%
X190390000Y-66400000D03*
X158590000Y-66400000D03*
X128190000Y-98400000D03*
X94590000Y-66400000D03*
X106890000Y-97900000D03*
X157190000Y-98400000D03*
X126590000Y-66400000D03*
%TO.N,Net-(Q126-D)*%
X190390000Y-62600000D03*
X103100000Y-97300000D03*
X128790000Y-97700000D03*
X126590000Y-62500000D03*
X94590000Y-62500000D03*
X158790000Y-97700000D03*
X158590000Y-62500000D03*
%TO.N,Net-(Q127-D)*%
X126590000Y-59300000D03*
X94590000Y-59300000D03*
X129390000Y-97000000D03*
X99200000Y-96600000D03*
X190390000Y-58800000D03*
X158590000Y-59300000D03*
X160490000Y-97000000D03*
%TO.N,Net-(Q128-D)*%
X190390000Y-55000000D03*
X126590000Y-54900000D03*
X162200000Y-96300000D03*
X94590000Y-55000000D03*
X158590000Y-54900000D03*
X98090000Y-96300000D03*
X129990000Y-96300000D03*
D13*
%TO.N,VCC*%
X103600000Y-29100000D03*
%TD*%
D15*
%TO.N,Net-(J1-Pin_13)*%
X191164971Y-76952889D02*
X177792081Y-63580000D01*
X177792081Y-63580000D02*
X176590000Y-63580000D01*
X195323240Y-104551000D02*
X191164971Y-100392731D01*
X191164971Y-100392731D02*
X191164971Y-76952889D01*
X197000000Y-105274240D02*
X196276760Y-104551000D01*
X197000000Y-107140000D02*
X197000000Y-105274240D01*
X198340000Y-108480000D02*
X197000000Y-107140000D01*
X196276760Y-104551000D02*
X195323240Y-104551000D01*
%TO.N,Net-(J1-Pin_6)*%
X176749943Y-45800000D02*
X176590000Y-45800000D01*
X183401000Y-52451057D02*
X176749943Y-45800000D01*
X183401000Y-53933900D02*
X183401000Y-52451057D01*
X194002000Y-64534900D02*
X183401000Y-53933900D01*
X194002000Y-86362000D02*
X194002000Y-64534900D01*
X198340000Y-90700000D02*
X194002000Y-86362000D01*
%TO.N,Net-(J1-Pin_7)*%
X193601000Y-64701000D02*
X177240000Y-48340000D01*
X193601000Y-86873240D02*
X193601000Y-64701000D01*
X197189000Y-90461240D02*
X193601000Y-86873240D01*
X177240000Y-48340000D02*
X176590000Y-48340000D01*
X198340000Y-93240000D02*
X197189000Y-92089000D01*
X197189000Y-92089000D02*
X197189000Y-90461240D01*
%TO.N,Net-(J1-Pin_8)*%
X193200000Y-67490000D02*
X176590000Y-50880000D01*
X193200000Y-89727760D02*
X193200000Y-67490000D01*
X195323240Y-91851000D02*
X193200000Y-89727760D01*
X196383900Y-91851000D02*
X195323240Y-91851000D01*
X197189000Y-94629000D02*
X197189000Y-92656100D01*
X198340000Y-95780000D02*
X197189000Y-94629000D01*
X197189000Y-92656100D02*
X196383900Y-91851000D01*
%TO.N,Net-(J1-Pin_9)*%
X176590000Y-53449943D02*
X176590000Y-53420000D01*
X192768971Y-69628914D02*
X176590000Y-53449943D01*
X192768971Y-91836731D02*
X192768971Y-69628914D01*
%TO.N,Net-(J1-Pin_10)*%
X177792081Y-55960000D02*
X176590000Y-55960000D01*
X192367971Y-70535890D02*
X177792081Y-55960000D01*
X196038760Y-96931000D02*
X195323240Y-96931000D01*
X197100000Y-97992240D02*
X196038760Y-96931000D01*
X195323240Y-96931000D02*
X192367971Y-93975731D01*
X197100000Y-99620000D02*
X197100000Y-97992240D01*
X192367971Y-93975731D02*
X192367971Y-70535890D01*
X198340000Y-100860000D02*
X197100000Y-99620000D01*
%TO.N,Net-(J1-Pin_11)*%
X191966971Y-73876971D02*
X176590000Y-58500000D01*
X195323240Y-99471000D02*
X191966971Y-96114731D01*
X197000000Y-100432240D02*
X196038760Y-99471000D01*
X196038760Y-99471000D02*
X195323240Y-99471000D01*
X197000000Y-102060000D02*
X197000000Y-100432240D01*
X191966971Y-96114731D02*
X191966971Y-73876971D01*
X198340000Y-103400000D02*
X197000000Y-102060000D01*
%TO.N,Net-(J1-Pin_12)*%
X176590000Y-61049943D02*
X176590000Y-61040000D01*
X191565971Y-76025914D02*
X176590000Y-61049943D01*
X191565971Y-98265971D02*
X191565971Y-76025914D01*
D16*
%TO.N,/ALU B -> FF*%
X57051000Y-75211000D02*
X55800000Y-73960000D01*
X57051000Y-83751000D02*
X57051000Y-75211000D01*
X57400000Y-84100000D02*
X57051000Y-83751000D01*
X78000000Y-104700000D02*
X57400000Y-84100000D01*
X136800000Y-104700000D02*
X78000000Y-104700000D01*
D15*
%TO.N,Net-(J5-Pin_6)*%
X118490000Y-81332786D02*
X118490000Y-79700000D01*
X104990000Y-83400000D02*
X105690000Y-82700000D01*
X117122786Y-82700000D02*
X118490000Y-81332786D01*
X67151000Y-85051000D02*
X81066760Y-85051000D01*
X58600000Y-76500000D02*
X67151000Y-85051000D01*
X81066760Y-85051000D02*
X82717760Y-83400000D01*
X58340000Y-76500000D02*
X58600000Y-76500000D01*
X82717760Y-83400000D02*
X104990000Y-83400000D01*
X105690000Y-82700000D02*
X117122786Y-82700000D01*
%TO.N,Net-(J5-Pin_2)*%
X62613000Y-85853000D02*
X58340000Y-81580000D01*
X81766100Y-85501000D02*
X81414100Y-85853000D01*
X81414100Y-85853000D02*
X62613000Y-85853000D01*
X171490000Y-82600000D02*
X168589000Y-85501000D01*
X168589000Y-85501000D02*
X81766100Y-85501000D01*
X182090000Y-82600000D02*
X171490000Y-82600000D01*
X185090000Y-79600000D02*
X182090000Y-82600000D01*
X185090000Y-79100000D02*
X185090000Y-79600000D01*
%TO.N,Net-(J5-Pin_4)*%
X150590000Y-81232786D02*
X150590000Y-79700000D01*
X137690000Y-85100000D02*
X140090000Y-82700000D01*
X149122786Y-82700000D02*
X150590000Y-81232786D01*
X81600000Y-85100000D02*
X137690000Y-85100000D01*
X64752000Y-85452000D02*
X81248000Y-85452000D01*
X58340000Y-79040000D02*
X64752000Y-85452000D01*
X81248000Y-85452000D02*
X81600000Y-85100000D01*
X140090000Y-82700000D02*
X149122786Y-82700000D01*
%TO.N,Net-(J5-Pin_8)*%
X75695000Y-83995000D02*
X79719000Y-79971000D01*
X67740000Y-83360000D02*
X58340000Y-73960000D01*
X68375000Y-83995000D02*
X75695000Y-83995000D01*
X67740000Y-83360000D02*
X68375000Y-83995000D01*
D16*
%TO.N,Net-(J1-Pin_13)*%
X57089000Y-48291000D02*
X55800000Y-49580000D01*
X76886000Y-51425710D02*
X73751290Y-48291000D01*
X76886000Y-53115768D02*
X76886000Y-51425710D01*
X73751290Y-48291000D02*
X57089000Y-48291000D01*
X77487000Y-53716768D02*
X76886000Y-53115768D01*
X78088000Y-56007826D02*
X77487000Y-55406826D01*
X78689000Y-58298884D02*
X78088000Y-57697884D01*
X78689000Y-59988942D02*
X78689000Y-58298884D01*
X79290000Y-62280000D02*
X79290000Y-60589942D01*
X79290000Y-60589942D02*
X78689000Y-59988942D01*
X80590000Y-63580000D02*
X79290000Y-62280000D01*
X78088000Y-57697884D02*
X78088000Y-56007826D01*
X77487000Y-55406826D02*
X77487000Y-53716768D01*
%TO.N,Net-(J1-Pin_12)*%
X57051000Y-45789000D02*
X55800000Y-47040000D01*
X73779000Y-45789000D02*
X57051000Y-45789000D01*
X76886000Y-50575768D02*
X76886000Y-48896000D01*
X76886000Y-48896000D02*
X73779000Y-45789000D01*
X77487000Y-51176768D02*
X76886000Y-50575768D01*
X77487000Y-52866826D02*
X77487000Y-51176768D01*
X78689000Y-57448942D02*
X78689000Y-55758884D01*
X78088000Y-53467826D02*
X77487000Y-52866826D01*
X79290000Y-58049942D02*
X78689000Y-57448942D01*
X78689000Y-55758884D02*
X78088000Y-55157884D01*
X79290000Y-59740000D02*
X79290000Y-58049942D01*
X78088000Y-55157884D02*
X78088000Y-53467826D01*
X80590000Y-61040000D02*
X79290000Y-59740000D01*
%TO.N,Net-(J1-Pin_11)*%
X57089000Y-43211000D02*
X55800000Y-44500000D01*
X73751058Y-43211000D02*
X57089000Y-43211000D01*
X76887000Y-46346942D02*
X73751058Y-43211000D01*
X76887000Y-48046826D02*
X76887000Y-46346942D01*
X77487000Y-48646826D02*
X76887000Y-48046826D01*
X78689000Y-54908942D02*
X78689000Y-53218884D01*
X77487000Y-50326826D02*
X77487000Y-48646826D01*
X79290000Y-55509942D02*
X78689000Y-54908942D01*
X78088000Y-52617884D02*
X78088000Y-50927826D01*
X80590000Y-58500000D02*
X79290000Y-57200000D01*
X78689000Y-53218884D02*
X78088000Y-52617884D01*
X79290000Y-57200000D02*
X79290000Y-55509942D01*
X78088000Y-50927826D02*
X77487000Y-50326826D01*
%TO.N,Net-(J1-Pin_10)*%
X57089000Y-40671000D02*
X55800000Y-41960000D01*
X77488000Y-46098000D02*
X72061000Y-40671000D01*
X77488000Y-47797884D02*
X77488000Y-46098000D01*
X72061000Y-40671000D02*
X57089000Y-40671000D01*
X78088000Y-50077884D02*
X78088000Y-48397884D01*
X78689000Y-50678884D02*
X78088000Y-50077884D01*
X78689000Y-52368942D02*
X78689000Y-50678884D01*
X79290000Y-54660000D02*
X79290000Y-52969942D01*
X78088000Y-48397884D02*
X77488000Y-47797884D01*
X80590000Y-55960000D02*
X79290000Y-54660000D01*
X79290000Y-52969942D02*
X78689000Y-52368942D01*
%TO.N,Net-(J1-Pin_9)*%
X57089000Y-38131000D02*
X55800000Y-39420000D01*
X70371058Y-38131000D02*
X57089000Y-38131000D01*
X78089000Y-47548942D02*
X78089000Y-45848942D01*
X78689000Y-48148942D02*
X78089000Y-47548942D01*
X79290000Y-50429942D02*
X78689000Y-49828942D01*
X78089000Y-45848942D02*
X70371058Y-38131000D01*
X79290000Y-52120000D02*
X79290000Y-50429942D01*
X78689000Y-49828942D02*
X78689000Y-48148942D01*
X80590000Y-53420000D02*
X79290000Y-52120000D01*
%TO.N,Net-(J1-Pin_8)*%
X57051000Y-35629000D02*
X55800000Y-36880000D01*
X69290000Y-36200000D02*
X59467182Y-36200000D01*
X59467182Y-36200000D02*
X58896182Y-35629000D01*
X58896182Y-35629000D02*
X57051000Y-35629000D01*
%TO.N,Net-(J1-Pin_7)*%
X65290000Y-35400000D02*
X62979000Y-33089000D01*
X69340058Y-35400000D02*
X65290000Y-35400000D01*
X57051000Y-33089000D02*
X55800000Y-34340000D01*
X79290000Y-45349942D02*
X69340058Y-35400000D01*
X79290000Y-47040000D02*
X79290000Y-45349942D01*
X62979000Y-33089000D02*
X57051000Y-33089000D01*
X80590000Y-48340000D02*
X79290000Y-47040000D01*
%TO.N,Net-(J1-Pin_6)*%
X57051000Y-30549000D02*
X55800000Y-31800000D01*
X61639000Y-30549000D02*
X57051000Y-30549000D01*
X65690000Y-34600000D02*
X61639000Y-30549000D01*
X69390000Y-34600000D02*
X65690000Y-34600000D01*
X79891000Y-45101000D02*
X69390000Y-34600000D01*
X79891000Y-45800000D02*
X79891000Y-45101000D01*
X80590000Y-45800000D02*
X79891000Y-45800000D01*
D15*
%TO.N,Net-(J1-Pin_12)*%
X176590000Y-61377760D02*
X176590000Y-61040000D01*
X195311000Y-102011000D02*
X191565971Y-98265971D01*
X197189000Y-102816100D02*
X196383900Y-102011000D01*
X196383900Y-102011000D02*
X195311000Y-102011000D01*
X198340000Y-105940000D02*
X197189000Y-104789000D01*
X197189000Y-104789000D02*
X197189000Y-102816100D01*
%TO.N,Net-(J1-Pin_11)*%
X176590000Y-59250057D02*
X176590000Y-58500000D01*
%TO.N,Net-(J1-Pin_9)*%
X176590000Y-53757760D02*
X176590000Y-53420000D01*
X196091000Y-94391000D02*
X195323240Y-94391000D01*
X197189000Y-95489000D02*
X196091000Y-94391000D01*
X195323240Y-94391000D02*
X192768971Y-91836731D01*
X197189000Y-97169000D02*
X197189000Y-95489000D01*
X198340000Y-98320000D02*
X197189000Y-97169000D01*
%TO.N,Net-(J1-Pin_8)*%
X176590000Y-51650057D02*
X176590000Y-50880000D01*
D16*
%TO.N,Net-(J1-Pin_11)*%
X80590000Y-58500000D02*
X176590000Y-58500000D01*
%TO.N,Net-(J1-Pin_10)*%
X176330000Y-55700000D02*
X80850000Y-55700000D01*
X176590000Y-55960000D02*
X176630000Y-55960000D01*
X80850000Y-55700000D02*
X80590000Y-55960000D01*
X176590000Y-55960000D02*
X176330000Y-55700000D01*
%TO.N,Rising_Edge*%
X80590000Y-43260000D02*
X176590000Y-43260000D01*
%TO.N,Net-(J1-Pin_13)*%
X80590000Y-63580000D02*
X80870000Y-63300000D01*
X176310000Y-63300000D02*
X176590000Y-63580000D01*
X80870000Y-63300000D02*
X176310000Y-63300000D01*
X176590000Y-63580000D02*
X176610000Y-63580000D01*
%TO.N,Net-(J1-Pin_12)*%
X176590000Y-61040000D02*
X176330000Y-61300000D01*
X80850000Y-61300000D02*
X80590000Y-61040000D01*
X176330000Y-61300000D02*
X80850000Y-61300000D01*
%TO.N,Net-(J1-Pin_9)*%
X80590000Y-53420000D02*
X80910000Y-53100000D01*
X176270000Y-53100000D02*
X176590000Y-53420000D01*
X176590000Y-53420000D02*
X176590000Y-53400000D01*
X80910000Y-53100000D02*
X176270000Y-53100000D01*
%TO.N,Net-(J1-Pin_7)*%
X80590000Y-48340000D02*
X176590000Y-48340000D01*
%TO.N,Net-(J1-Pin_6)*%
X176590000Y-45800000D02*
X80590000Y-45800000D01*
X176590000Y-45300000D02*
X176590000Y-45800000D01*
%TO.N,Net-(J1-Pin_8)*%
X78690000Y-47300000D02*
X78690000Y-45600000D01*
X78690000Y-45600000D02*
X69290000Y-36200000D01*
X80590000Y-50880000D02*
X79290000Y-49580000D01*
X79290000Y-49580000D02*
X79290000Y-47900000D01*
X176590000Y-50880000D02*
X80590000Y-50880000D01*
X79290000Y-47900000D02*
X78690000Y-47300000D01*
D15*
%TO.N,Net-(J5-Pin_8)*%
X79719000Y-79971000D02*
X86419000Y-79971000D01*
X86419000Y-79971000D02*
X86690000Y-79700000D01*
D16*
%TO.N,RST*%
X80590000Y-38180000D02*
X176590000Y-38180000D01*
%TD*%
M02*
