M48
; DRILL file {KiCad 9.0.7} date 2026-03-02T14:33:34+0100
; FORMAT={-:-/ absolute / inch / decimal}
; #@! TF.CreationDate,2026-03-02T14:33:34+01:00
; #@! TF.GenerationSoftware,Kicad,Pcbnew,9.0.7
; #@! TF.FileFunction,NonPlated,1,6,NPTH
FMAT,2
INCH
; #@! TA.AperFunction,NonPlated,NPTH,ComponentDrill
T1C0.0866
; #@! TA.AperFunction,NonPlated,NPTH,ComponentDrill
T2C0.1260
%
G90
G05
T1
X3.0469Y-1.1535
X3.0469Y-3.4528
X3.2988Y-1.1535
X3.2988Y-3.4528
X4.3067Y-1.1535
X4.3067Y-3.4528
X4.5587Y-1.1535
X4.5587Y-3.4528
X5.5665Y-1.1535
X5.5665Y-3.4528
X5.8185Y-1.1535
X5.8185Y-3.4528
X6.8264Y-1.1535
X6.8264Y-3.4528
X7.0783Y-1.1535
X7.0783Y-3.4528
T2
X2.1063Y-0.9331
X2.1063Y-4.5866
X7.8937Y-0.9331
X7.8937Y-4.5866
M30
