%TF.GenerationSoftware,KiCad,Pcbnew,8.0.8*%
%TF.CreationDate,2025-10-03T14:44:34+02:00*%
%TF.ProjectId,REG8bit-SMD-V3.0,52454738-6269-4742-9d53-4d442d56332e,rev?*%
%TF.SameCoordinates,Original*%
%TF.FileFunction,Soldermask,Top*%
%TF.FilePolarity,Negative*%
%FSLAX46Y46*%
G04 Gerber Fmt 4.6, Leading zero omitted, Abs format (unit mm)*
G04 Created by KiCad (PCBNEW 8.0.8) date 2025-10-03 14:44:34*
%MOMM*%
%LPD*%
G01*
G04 APERTURE LIST*
G04 Aperture macros list*
%AMRoundRect*
0 Rectangle with rounded corners*
0 $1 Rounding radius*
0 $2 $3 $4 $5 $6 $7 $8 $9 X,Y pos of 4 corners*
0 Add a 4 corners polygon primitive as box body*
4,1,4,$2,$3,$4,$5,$6,$7,$8,$9,$2,$3,0*
0 Add four circle primitives for the rounded corners*
1,1,$1+$1,$2,$3*
1,1,$1+$1,$4,$5*
1,1,$1+$1,$6,$7*
1,1,$1+$1,$8,$9*
0 Add four rect primitives between the rounded corners*
20,1,$1+$1,$2,$3,$4,$5,0*
20,1,$1+$1,$4,$5,$6,$7,0*
20,1,$1+$1,$6,$7,$8,$9,0*
20,1,$1+$1,$8,$9,$2,$3,0*%
G04 Aperture macros list end*
%ADD10RoundRect,0.159000X-0.159000X-0.189000X0.159000X-0.189000X0.159000X0.189000X-0.159000X0.189000X0*%
%ADD11RoundRect,0.150000X0.587500X0.150000X-0.587500X0.150000X-0.587500X-0.150000X0.587500X-0.150000X0*%
%ADD12RoundRect,0.159000X0.189000X-0.159000X0.189000X0.159000X-0.189000X0.159000X-0.189000X-0.159000X0*%
%ADD13RoundRect,0.239000X0.274000X-0.239000X0.274000X0.239000X-0.274000X0.239000X-0.274000X-0.239000X0*%
%ADD14RoundRect,0.269000X0.494000X-0.269000X0.494000X0.269000X-0.494000X0.269000X-0.494000X-0.269000X0*%
%ADD15O,1.700000X1.700000*%
%ADD16R,1.700000X1.700000*%
G04 APERTURE END LIST*
D10*
%TO.C,R2*%
X51300000Y-124100000D03*
X52300000Y-124100000D03*
%TD*%
D11*
%TO.C,Q70*%
X110037500Y-114850000D03*
X110037500Y-112950000D03*
X108162500Y-113900000D03*
%TD*%
D12*
%TO.C,R1*%
X54800000Y-129300000D03*
X54800000Y-130300000D03*
%TD*%
D11*
%TO.C,Q1*%
X52837500Y-131550000D03*
X52837500Y-129650000D03*
X50962500Y-130600000D03*
%TD*%
%TO.C,Q40*%
X83637500Y-114850000D03*
X83637500Y-112950000D03*
X81762500Y-113900000D03*
%TD*%
%TO.C,Q25*%
X70437500Y-118750000D03*
X70437500Y-116850000D03*
X68562500Y-117800000D03*
%TD*%
%TO.C,Q82*%
X57237500Y-107050000D03*
X57237500Y-105150000D03*
X55362500Y-106100000D03*
%TD*%
%TO.C,Q78*%
X118837500Y-127550000D03*
X118837500Y-125650000D03*
X116962500Y-126600000D03*
%TD*%
D10*
%TO.C,R22*%
X86500000Y-124100000D03*
X87500000Y-124100000D03*
%TD*%
D13*
%TO.C,D3*%
X70700000Y-106690000D03*
X70700000Y-105110000D03*
%TD*%
D11*
%TO.C,Q13*%
X66037500Y-122650000D03*
X66037500Y-120750000D03*
X64162500Y-121700000D03*
%TD*%
%TO.C,Q68*%
X110037500Y-127550000D03*
X110037500Y-125650000D03*
X108162500Y-126600000D03*
%TD*%
D13*
%TO.C,D4*%
X79500000Y-106690000D03*
X79500000Y-105110000D03*
%TD*%
D11*
%TO.C,Q86*%
X92437500Y-107050000D03*
X92437500Y-105150000D03*
X90562500Y-106100000D03*
%TD*%
D10*
%TO.C,R29*%
X94400000Y-107400000D03*
X95400000Y-107400000D03*
%TD*%
%TO.C,R4*%
X50400000Y-107400000D03*
X51400000Y-107400000D03*
%TD*%
D11*
%TO.C,Q52*%
X96837500Y-122650000D03*
X96837500Y-120750000D03*
X94962500Y-121700000D03*
%TD*%
%TO.C,Q6*%
X52837500Y-110950000D03*
X52837500Y-109050000D03*
X50962500Y-110000000D03*
%TD*%
D10*
%TO.C,R7*%
X60100000Y-124100000D03*
X61100000Y-124100000D03*
%TD*%
D11*
%TO.C,Q59*%
X101237500Y-110950000D03*
X101237500Y-109050000D03*
X99362500Y-110000000D03*
%TD*%
D14*
%TO.C,C1*%
X118700000Y-131950000D03*
X118700000Y-130050000D03*
%TD*%
D11*
%TO.C,Q58*%
X101237500Y-127550000D03*
X101237500Y-125650000D03*
X99362500Y-126600000D03*
%TD*%
%TO.C,Q88*%
X110037500Y-107050000D03*
X110037500Y-105150000D03*
X108162500Y-106100000D03*
%TD*%
%TO.C,Q10*%
X57237500Y-114850000D03*
X57237500Y-112950000D03*
X55362500Y-113900000D03*
%TD*%
%TO.C,Q79*%
X118837500Y-110950000D03*
X118837500Y-109050000D03*
X116962500Y-110000000D03*
%TD*%
%TO.C,Q47*%
X88037500Y-110950000D03*
X88037500Y-109050000D03*
X86162500Y-110000000D03*
%TD*%
D10*
%TO.C,R37*%
X112900000Y-124100000D03*
X113900000Y-124100000D03*
%TD*%
D11*
%TO.C,Q75*%
X114437500Y-118750000D03*
X114437500Y-116850000D03*
X112562500Y-117800000D03*
%TD*%
D10*
%TO.C,R32*%
X104100000Y-124100000D03*
X105100000Y-124100000D03*
%TD*%
D11*
%TO.C,Q8*%
X52837500Y-127550000D03*
X52837500Y-125650000D03*
X50962500Y-126600000D03*
%TD*%
D10*
%TO.C,R14*%
X68000000Y-107400000D03*
X69000000Y-107400000D03*
%TD*%
D11*
%TO.C,Q4*%
X52837500Y-114850000D03*
X52837500Y-112950000D03*
X50962500Y-113900000D03*
%TD*%
%TO.C,Q7*%
X57237500Y-127550000D03*
X57237500Y-125650000D03*
X55362500Y-126600000D03*
%TD*%
%TO.C,Q12*%
X61637500Y-122650000D03*
X61637500Y-120750000D03*
X59762500Y-121700000D03*
%TD*%
D10*
%TO.C,R24*%
X85600000Y-107400000D03*
X86600000Y-107400000D03*
%TD*%
D11*
%TO.C,Q48*%
X92437500Y-127550000D03*
X92437500Y-125650000D03*
X90562500Y-126600000D03*
%TD*%
%TO.C,Q28*%
X74837500Y-127550000D03*
X74837500Y-125650000D03*
X72962500Y-126600000D03*
%TD*%
%TO.C,Q27*%
X70437500Y-110950000D03*
X70437500Y-109050000D03*
X68562500Y-110000000D03*
%TD*%
D13*
%TO.C,D8*%
X114700000Y-106690000D03*
X114700000Y-105110000D03*
%TD*%
D11*
%TO.C,Q77*%
X114437500Y-110950000D03*
X114437500Y-109050000D03*
X112562500Y-110000000D03*
%TD*%
%TO.C,Q55*%
X96837500Y-118750000D03*
X96837500Y-116850000D03*
X94962500Y-117800000D03*
%TD*%
%TO.C,Q62*%
X105637500Y-122650000D03*
X105637500Y-120750000D03*
X103762500Y-121700000D03*
%TD*%
%TO.C,Q66*%
X105637500Y-127550000D03*
X105637500Y-125650000D03*
X103762500Y-126600000D03*
%TD*%
D10*
%TO.C,R10*%
X59200000Y-106100000D03*
X60200000Y-106100000D03*
%TD*%
D11*
%TO.C,Q34*%
X79237500Y-114850000D03*
X79237500Y-112950000D03*
X77362500Y-113900000D03*
%TD*%
D13*
%TO.C,D9*%
X116500000Y-131490000D03*
X116500000Y-129910000D03*
%TD*%
D11*
%TO.C,Q74*%
X114437500Y-114850000D03*
X114437500Y-112950000D03*
X112562500Y-113900000D03*
%TD*%
%TO.C,Q84*%
X74837500Y-107050000D03*
X74837500Y-105150000D03*
X72962500Y-106100000D03*
%TD*%
%TO.C,Q11*%
X57237500Y-118750000D03*
X57237500Y-116850000D03*
X55362500Y-117800000D03*
%TD*%
%TO.C,Q24*%
X70437500Y-114850000D03*
X70437500Y-112950000D03*
X68562500Y-113900000D03*
%TD*%
%TO.C,Q14*%
X61637500Y-114850000D03*
X61637500Y-112950000D03*
X59762500Y-113900000D03*
%TD*%
%TO.C,Q83*%
X66037500Y-107050000D03*
X66037500Y-105150000D03*
X64162500Y-106100000D03*
%TD*%
%TO.C,Q3*%
X57237500Y-122650000D03*
X57237500Y-120750000D03*
X55362500Y-121700000D03*
%TD*%
%TO.C,Q23*%
X74837500Y-122650000D03*
X74837500Y-120750000D03*
X72962500Y-121700000D03*
%TD*%
%TO.C,Q61*%
X101237500Y-118750000D03*
X101237500Y-116850000D03*
X99362500Y-117800000D03*
%TD*%
D10*
%TO.C,R49*%
X112000000Y-104800000D03*
X113000000Y-104800000D03*
%TD*%
D11*
%TO.C,Q81*%
X118837500Y-118750000D03*
X118837500Y-116850000D03*
X116962500Y-117800000D03*
%TD*%
%TO.C,Q67*%
X105637500Y-110950000D03*
X105637500Y-109050000D03*
X103762500Y-110000000D03*
%TD*%
%TO.C,Q46*%
X88037500Y-127550000D03*
X88037500Y-125650000D03*
X86162500Y-126600000D03*
%TD*%
D10*
%TO.C,R9*%
X59200000Y-107400000D03*
X60200000Y-107400000D03*
%TD*%
D11*
%TO.C,Q2*%
X52837500Y-122650000D03*
X52837500Y-120750000D03*
X50962500Y-121700000D03*
%TD*%
D10*
%TO.C,R25*%
X85600000Y-106100000D03*
X86600000Y-106100000D03*
%TD*%
D11*
%TO.C,Q17*%
X61637500Y-110950000D03*
X61637500Y-109050000D03*
X59762500Y-110000000D03*
%TD*%
%TO.C,Q30*%
X74837500Y-114850000D03*
X74837500Y-112950000D03*
X72962500Y-113900000D03*
%TD*%
D10*
%TO.C,R5*%
X50400000Y-106100000D03*
X51400000Y-106100000D03*
%TD*%
%TO.C,R40*%
X112000000Y-106100000D03*
X113000000Y-106100000D03*
%TD*%
D11*
%TO.C,Q16*%
X61637500Y-127550000D03*
X61637500Y-125650000D03*
X59762500Y-126600000D03*
%TD*%
%TO.C,Q43*%
X92437500Y-122650000D03*
X92437500Y-120750000D03*
X90562500Y-121700000D03*
%TD*%
%TO.C,Q49*%
X92437500Y-110950000D03*
X92437500Y-109050000D03*
X90562500Y-110000000D03*
%TD*%
%TO.C,Q73*%
X118837500Y-122650000D03*
X118837500Y-120750000D03*
X116962500Y-121700000D03*
%TD*%
%TO.C,Q87*%
X101237500Y-107050000D03*
X101237500Y-105150000D03*
X99362500Y-106100000D03*
%TD*%
%TO.C,Q31*%
X74837500Y-118750000D03*
X74837500Y-116850000D03*
X72962500Y-117800000D03*
%TD*%
%TO.C,Q35*%
X79237500Y-118750000D03*
X79237500Y-116850000D03*
X77362500Y-117800000D03*
%TD*%
%TO.C,Q9*%
X57237500Y-110950000D03*
X57237500Y-109050000D03*
X55362500Y-110000000D03*
%TD*%
D10*
%TO.C,R42*%
X50400000Y-104800000D03*
X51400000Y-104800000D03*
%TD*%
%TO.C,R47*%
X94400000Y-104800000D03*
X95400000Y-104800000D03*
%TD*%
D11*
%TO.C,Q57*%
X96837500Y-110950000D03*
X96837500Y-109050000D03*
X94962500Y-110000000D03*
%TD*%
D13*
%TO.C,D1*%
X53100000Y-106690000D03*
X53100000Y-105110000D03*
%TD*%
%TO.C,D6*%
X97100000Y-106690000D03*
X97100000Y-105110000D03*
%TD*%
D11*
%TO.C,Q54*%
X96837500Y-114850000D03*
X96837500Y-112950000D03*
X94962500Y-113900000D03*
%TD*%
%TO.C,Q65*%
X105637500Y-118750000D03*
X105637500Y-116850000D03*
X103762500Y-117800000D03*
%TD*%
D10*
%TO.C,R48*%
X103200000Y-104800000D03*
X104200000Y-104800000D03*
%TD*%
D11*
%TO.C,Q69*%
X110037500Y-110950000D03*
X110037500Y-109050000D03*
X108162500Y-110000000D03*
%TD*%
%TO.C,Q53*%
X101237500Y-122650000D03*
X101237500Y-120750000D03*
X99362500Y-121700000D03*
%TD*%
%TO.C,Q44*%
X88037500Y-114850000D03*
X88037500Y-112950000D03*
X86162500Y-113900000D03*
%TD*%
%TO.C,Q76*%
X114437500Y-127550000D03*
X114437500Y-125650000D03*
X112562500Y-126600000D03*
%TD*%
D10*
%TO.C,R27*%
X95000000Y-124100000D03*
X96000000Y-124100000D03*
%TD*%
%TO.C,R44*%
X68000000Y-104800000D03*
X69000000Y-104800000D03*
%TD*%
D11*
%TO.C,Q19*%
X66037500Y-110950000D03*
X66037500Y-109050000D03*
X64162500Y-110000000D03*
%TD*%
D13*
%TO.C,D5*%
X88300000Y-106690000D03*
X88300000Y-105110000D03*
%TD*%
D11*
%TO.C,Q37*%
X79237500Y-110950000D03*
X79237500Y-109050000D03*
X77362500Y-110000000D03*
%TD*%
D13*
%TO.C,D7*%
X105900000Y-106690000D03*
X105900000Y-105110000D03*
%TD*%
D10*
%TO.C,R17*%
X77800000Y-124100000D03*
X78800000Y-124100000D03*
%TD*%
%TO.C,R46*%
X85600000Y-104800000D03*
X86600000Y-104800000D03*
%TD*%
D13*
%TO.C,D2*%
X61900000Y-106690000D03*
X61900000Y-105110000D03*
%TD*%
D10*
%TO.C,R43*%
X59200000Y-104800000D03*
X60200000Y-104800000D03*
%TD*%
D11*
%TO.C,Q15*%
X61637500Y-118750000D03*
X61637500Y-116850000D03*
X59762500Y-117800000D03*
%TD*%
%TO.C,Q80*%
X118837500Y-114850000D03*
X118837500Y-112950000D03*
X116962500Y-113900000D03*
%TD*%
D10*
%TO.C,R12*%
X69000000Y-124100000D03*
X70000000Y-124100000D03*
%TD*%
D11*
%TO.C,Q51*%
X92437500Y-118750000D03*
X92437500Y-116850000D03*
X90562500Y-117800000D03*
%TD*%
%TO.C,Q63*%
X110037500Y-122650000D03*
X110037500Y-120750000D03*
X108162500Y-121700000D03*
%TD*%
D12*
%TO.C,R50*%
X114900000Y-130600000D03*
X114900000Y-129600000D03*
%TD*%
D10*
%TO.C,R30*%
X94400000Y-106100000D03*
X95400000Y-106100000D03*
%TD*%
D11*
%TO.C,Q41*%
X83637500Y-118750000D03*
X83637500Y-116850000D03*
X81762500Y-117800000D03*
%TD*%
%TO.C,Q36*%
X79237500Y-127550000D03*
X79237500Y-125650000D03*
X77362500Y-126600000D03*
%TD*%
%TO.C,Q89*%
X118837500Y-107050000D03*
X118837500Y-105150000D03*
X116962500Y-106100000D03*
%TD*%
%TO.C,Q71*%
X110037500Y-118750000D03*
X110037500Y-116850000D03*
X108162500Y-117800000D03*
%TD*%
D15*
%TO.C,J2*%
X59500000Y-131700000D03*
X62040000Y-131700000D03*
X64580000Y-131700000D03*
X67120000Y-131700000D03*
X69660000Y-131700000D03*
X72200000Y-131700000D03*
X74740000Y-131700000D03*
X77280000Y-131700000D03*
X79820000Y-131700000D03*
X82360000Y-131700000D03*
X84900000Y-131700000D03*
X87440000Y-131700000D03*
X89980000Y-131700000D03*
X92520000Y-131700000D03*
X95060000Y-131700000D03*
X97600000Y-131700000D03*
X100140000Y-131700000D03*
X102680000Y-131700000D03*
X105220000Y-131700000D03*
X107760000Y-131700000D03*
D16*
X110300000Y-131700000D03*
%TD*%
D10*
%TO.C,R15*%
X68000000Y-106100000D03*
X69000000Y-106100000D03*
%TD*%
D11*
%TO.C,Q50*%
X92437500Y-114850000D03*
X92437500Y-112950000D03*
X90562500Y-113900000D03*
%TD*%
%TO.C,Q29*%
X74837500Y-110950000D03*
X74837500Y-109050000D03*
X72962500Y-110000000D03*
%TD*%
D10*
%TO.C,R35*%
X103200000Y-106100000D03*
X104200000Y-106100000D03*
%TD*%
D11*
%TO.C,Q38*%
X83637500Y-127550000D03*
X83637500Y-125650000D03*
X81762500Y-126600000D03*
%TD*%
D10*
%TO.C,R45*%
X76800000Y-104800000D03*
X77800000Y-104800000D03*
%TD*%
%TO.C,R19*%
X76800000Y-107400000D03*
X77800000Y-107400000D03*
%TD*%
%TO.C,R34*%
X103200000Y-107400000D03*
X104200000Y-107400000D03*
%TD*%
D11*
%TO.C,Q26*%
X70437500Y-127550000D03*
X70437500Y-125650000D03*
X68562500Y-126600000D03*
%TD*%
%TO.C,Q5*%
X52837500Y-118750000D03*
X52837500Y-116850000D03*
X50962500Y-117800000D03*
%TD*%
%TO.C,Q60*%
X101237500Y-114850000D03*
X101237500Y-112950000D03*
X99362500Y-113900000D03*
%TD*%
D10*
%TO.C,R39*%
X112000000Y-107400000D03*
X113000000Y-107400000D03*
%TD*%
D11*
%TO.C,Q18*%
X66037500Y-127550000D03*
X66037500Y-125650000D03*
X64162500Y-126600000D03*
%TD*%
%TO.C,Q39*%
X83637500Y-110950000D03*
X83637500Y-109050000D03*
X81762500Y-110000000D03*
%TD*%
%TO.C,Q56*%
X96837500Y-127550000D03*
X96837500Y-125650000D03*
X94962500Y-126600000D03*
%TD*%
%TO.C,Q72*%
X114437500Y-122650000D03*
X114437500Y-120750000D03*
X112562500Y-121700000D03*
%TD*%
D10*
%TO.C,R20*%
X76800000Y-106100000D03*
X77800000Y-106100000D03*
%TD*%
D11*
%TO.C,Q64*%
X105637500Y-114850000D03*
X105637500Y-112950000D03*
X103762500Y-113900000D03*
%TD*%
%TO.C,Q85*%
X83637500Y-107050000D03*
X83637500Y-105150000D03*
X81762500Y-106100000D03*
%TD*%
%TO.C,Q45*%
X88037500Y-118750000D03*
X88037500Y-116850000D03*
X86162500Y-117800000D03*
%TD*%
%TO.C,Q20*%
X66037500Y-114850000D03*
X66037500Y-112950000D03*
X64162500Y-113900000D03*
%TD*%
%TO.C,Q21*%
X66037500Y-118750000D03*
X66037500Y-116850000D03*
X64162500Y-117800000D03*
%TD*%
%TO.C,Q42*%
X88037500Y-122650000D03*
X88037500Y-120750000D03*
X86162500Y-121700000D03*
%TD*%
%TO.C,Q33*%
X83637500Y-122650000D03*
X83637500Y-120750000D03*
X81762500Y-121700000D03*
%TD*%
%TO.C,Q32*%
X79237500Y-122650000D03*
X79237500Y-120750000D03*
X77362500Y-121700000D03*
%TD*%
%TO.C,Q22*%
X70437500Y-122650000D03*
X70437500Y-120750000D03*
X68562500Y-121700000D03*
%TD*%
M02*
