%TF.GenerationSoftware,KiCad,Pcbnew,8.0.8*%
%TF.CreationDate,2025-10-03T14:44:35+02:00*%
%TF.ProjectId,REG8bit-SMD-V3.0,52454738-6269-4742-9d53-4d442d56332e,rev?*%
%TF.SameCoordinates,Original*%
%TF.FileFunction,Copper,L3,Inr*%
%TF.FilePolarity,Positive*%
%FSLAX46Y46*%
G04 Gerber Fmt 4.6, Leading zero omitted, Abs format (unit mm)*
G04 Created by KiCad (PCBNEW 8.0.8) date 2025-10-03 14:44:35*
%MOMM*%
%LPD*%
G01*
G04 APERTURE LIST*
%TA.AperFunction,ComponentPad*%
%ADD10O,1.700000X1.700000*%
%TD*%
%TA.AperFunction,ComponentPad*%
%ADD11R,1.700000X1.700000*%
%TD*%
%TA.AperFunction,ViaPad*%
%ADD12C,0.600000*%
%TD*%
%TA.AperFunction,Conductor*%
%ADD13C,0.500000*%
%TD*%
%TA.AperFunction,Conductor*%
%ADD14C,0.200000*%
%TD*%
G04 APERTURE END LIST*
D10*
%TO.N,VCC*%
%TO.C,J2*%
X59500000Y-131700000D03*
%TO.N,Earth*%
X62040000Y-131700000D03*
%TO.N,/RST*%
X64580000Y-131700000D03*
%TO.N,/R*%
X67120000Y-131700000D03*
%TO.N,/W*%
X69660000Y-131700000D03*
%TO.N,Net-(J2-Pin_16)*%
X72200000Y-131700000D03*
%TO.N,Net-(J2-Pin_15)*%
X74740000Y-131700000D03*
%TO.N,Net-(J2-Pin_14)*%
X77280000Y-131700000D03*
%TO.N,Net-(J2-Pin_13)*%
X79820000Y-131700000D03*
%TO.N,Net-(J2-Pin_12)*%
X82360000Y-131700000D03*
%TO.N,Net-(J2-Pin_11)*%
X84900000Y-131700000D03*
%TO.N,Net-(J2-Pin_10)*%
X87440000Y-131700000D03*
%TO.N,Net-(J2-Pin_9)*%
X89980000Y-131700000D03*
%TO.N,Net-(J2-Pin_8)*%
X92520000Y-131700000D03*
%TO.N,Net-(J2-Pin_7)*%
X95060000Y-131700000D03*
%TO.N,Net-(J2-Pin_6)*%
X97600000Y-131700000D03*
%TO.N,Net-(J2-Pin_5)*%
X100140000Y-131700000D03*
%TO.N,Net-(J2-Pin_4)*%
X102680000Y-131700000D03*
%TO.N,Net-(J2-Pin_3)*%
X105220000Y-131700000D03*
%TO.N,Net-(J2-Pin_2)*%
X107760000Y-131700000D03*
D11*
%TO.N,Net-(J2-Pin_1)*%
X110300000Y-131700000D03*
%TD*%
D12*
%TO.N,VCC*%
X112169541Y-123980459D03*
X50500000Y-108600000D03*
X85819541Y-124030459D03*
X77034541Y-124045459D03*
X68127015Y-124114892D03*
X106100000Y-124150000D03*
X96900000Y-124150000D03*
X115000000Y-131800000D03*
X120100000Y-130900000D03*
X59432041Y-124042959D03*
X51500000Y-124900000D03*
X55700000Y-129700000D03*
X53100000Y-126449999D03*
%TO.N,Earth*%
X117843750Y-119756250D03*
X109000000Y-119700000D03*
X100200000Y-119712500D03*
X91100000Y-104700000D03*
X65093750Y-119806250D03*
X51600000Y-129100000D03*
X113340552Y-115753052D03*
X104600000Y-115812500D03*
X95800000Y-115812500D03*
X87000000Y-115812500D03*
X91393750Y-119706250D03*
X73800000Y-119712500D03*
X117500000Y-130900000D03*
X118900000Y-126600000D03*
X110100000Y-126600000D03*
X101300000Y-126600000D03*
X92400000Y-126600000D03*
X83600000Y-126700000D03*
X74800000Y-126600000D03*
X66000000Y-126700000D03*
X57300000Y-126600000D03*
X60600000Y-115812500D03*
X69400000Y-115812500D03*
X78200000Y-115812500D03*
X82600000Y-119712500D03*
X61900000Y-117800000D03*
X62200000Y-121700000D03*
X53875000Y-115812500D03*
X56200000Y-119712500D03*
X53800000Y-112200000D03*
X52400000Y-108100000D03*
X58400000Y-108100000D03*
X61100000Y-108100000D03*
X67600000Y-108800000D03*
X69800000Y-108100000D03*
X74400000Y-108100000D03*
X78922492Y-108177508D03*
X87700000Y-108300000D03*
X85000000Y-108600000D03*
X93600000Y-108400000D03*
X96200000Y-108300000D03*
X102300000Y-108400000D03*
X105300000Y-108400000D03*
X111000000Y-108300000D03*
X114000000Y-108200000D03*
X119600000Y-108300000D03*
X117100000Y-104500000D03*
X108700000Y-104500000D03*
X99700000Y-104600000D03*
X82100000Y-104600000D03*
X73300000Y-104600000D03*
X64400000Y-104800000D03*
X55700000Y-104900000D03*
%TO.N,/R*%
X67600000Y-114900000D03*
X76400000Y-114900000D03*
X85200000Y-114900000D03*
X94000000Y-114900000D03*
X102700000Y-114900000D03*
X111400000Y-114900000D03*
X117800000Y-115500000D03*
X58500000Y-114900000D03*
X53800000Y-131000000D03*
%TO.N,Net-(Q1-D)*%
X56200000Y-124900000D03*
X64500000Y-122700000D03*
X73300000Y-122700000D03*
X82100000Y-122700000D03*
X90900000Y-122700000D03*
X99900000Y-122700000D03*
X108700000Y-122700000D03*
X117600000Y-122700000D03*
X56000000Y-122700000D03*
%TO.N,Net-(Q77-D)*%
X114200000Y-110000000D03*
X116962500Y-112825000D03*
%TO.N,Net-(Q67-D)*%
X108162500Y-112825000D03*
X105300000Y-110100000D03*
%TO.N,Net-(Q57-D)*%
X99362500Y-112825000D03*
X96600000Y-110100000D03*
%TO.N,Net-(Q47-D)*%
X90562500Y-112825000D03*
X87700000Y-110000000D03*
%TO.N,Net-(Q37-D)*%
X81762500Y-112825000D03*
X78900000Y-110000000D03*
%TO.N,Net-(Q27-D)*%
X72962500Y-112825000D03*
X70300000Y-110100000D03*
%TO.N,Net-(Q17-D)*%
X64162500Y-112825000D03*
X61100000Y-110000000D03*
%TO.N,/RST*%
X104300000Y-118800000D03*
X68900000Y-118800000D03*
X77700000Y-118800000D03*
X54300000Y-118800000D03*
X60400000Y-118800000D03*
X113100000Y-118800000D03*
X95600000Y-118800000D03*
X86600000Y-118800000D03*
%TO.N,Net-(Q10-D)*%
X52300000Y-110000000D03*
X55200000Y-112700000D03*
%TO.N,Net-(J2-Pin_1)*%
X112600000Y-127700000D03*
%TO.N,Net-(J2-Pin_3)*%
X95100000Y-127500000D03*
%TO.N,/W*%
X73900000Y-128500000D03*
X109100000Y-128500000D03*
X117800000Y-128400000D03*
X65100000Y-128500000D03*
X91500000Y-128500000D03*
X57800000Y-128500000D03*
X82700000Y-128500000D03*
X100300000Y-128500000D03*
%TO.N,Net-(J2-Pin_2)*%
X103800000Y-127500000D03*
%TO.N,Net-(J2-Pin_4)*%
X86200000Y-127500000D03*
%TO.N,Net-(J2-Pin_8)*%
X51300000Y-127400000D03*
%TO.N,Net-(J2-Pin_7)*%
X60000000Y-127500000D03*
%TO.N,Net-(J2-Pin_6)*%
X68600000Y-127400000D03*
%TO.N,Net-(J2-Pin_5)*%
X77400000Y-127500000D03*
%TD*%
D13*
%TO.N,VCC*%
X79800000Y-124150000D02*
X88400000Y-124150000D01*
X55399999Y-124150000D02*
X79800000Y-124150000D01*
X88400000Y-124150000D02*
X96900000Y-124150000D01*
X96900000Y-124150000D02*
X114850000Y-124150000D01*
X115200000Y-132000000D02*
X115000000Y-131800000D01*
X120100000Y-130900000D02*
X120100000Y-131200000D01*
X120100000Y-129400000D02*
X120100000Y-130900000D01*
X120100000Y-131200000D02*
X119300000Y-132000000D01*
X119300000Y-132000000D02*
X115200000Y-132000000D01*
X114850000Y-124150000D02*
X120100000Y-129400000D01*
X53100000Y-126449999D02*
X55399999Y-124150000D01*
D14*
%TO.N,Net-(J2-Pin_8)*%
X51300000Y-127500000D02*
X51300000Y-127400000D01*
X90880000Y-130300000D02*
X54100000Y-130300000D01*
X54100000Y-130300000D02*
X51300000Y-127500000D01*
X92380000Y-131800000D02*
X90880000Y-130300000D01*
%TO.N,Net-(J2-Pin_7)*%
X62400000Y-129900000D02*
X60000000Y-127500000D01*
X93020000Y-129900000D02*
X62400000Y-129900000D01*
X94920000Y-131800000D02*
X93020000Y-129900000D01*
%TO.N,Net-(J2-Pin_6)*%
X95160000Y-129500000D02*
X70700000Y-129500000D01*
X70700000Y-129500000D02*
X68600000Y-127400000D01*
X97460000Y-131800000D02*
X95160000Y-129500000D01*
%TO.N,Net-(J2-Pin_5)*%
X79000000Y-129100000D02*
X77400000Y-127500000D01*
X97300000Y-129100000D02*
X79000000Y-129100000D01*
X100000000Y-131800000D02*
X97300000Y-129100000D01*
%TO.N,Net-(J2-Pin_4)*%
X94851471Y-128100000D02*
X94251471Y-127500000D01*
X94251471Y-127500000D02*
X86200000Y-127500000D01*
X98840000Y-128100000D02*
X94851471Y-128100000D01*
X102540000Y-131800000D02*
X98840000Y-128100000D01*
%TO.N,Net-(J2-Pin_3)*%
X100780000Y-127500000D02*
X95100000Y-127500000D01*
X105080000Y-131800000D02*
X100780000Y-127500000D01*
%TO.N,Net-(J2-Pin_2)*%
X107620000Y-130320000D02*
X104800000Y-127500000D01*
X107620000Y-131800000D02*
X107620000Y-130320000D01*
X104800000Y-127500000D02*
X103800000Y-127500000D01*
%TO.N,Net-(J2-Pin_1)*%
X110160000Y-131800000D02*
X110160000Y-130140000D01*
X110160000Y-130140000D02*
X112600000Y-127700000D01*
%TO.N,/RST*%
X86600000Y-118800000D02*
X95600000Y-118800000D01*
X104300000Y-118800000D02*
X113100000Y-118800000D01*
X68900000Y-118800000D02*
X77700000Y-118800000D01*
X60400000Y-118800000D02*
X68900000Y-118800000D01*
X95600000Y-118800000D02*
X104300000Y-118800000D01*
X54300000Y-118800000D02*
X60400000Y-118800000D01*
X77700000Y-118800000D02*
X86600000Y-118800000D01*
%TD*%
M02*
