M48
; DRILL file {KiCad 8.0.8} date 2025-10-03T14:44:35+0200
; FORMAT={-:-/ absolute / inch / decimal}
; #@! TF.CreationDate,2025-10-03T14:44:35+02:00
; #@! TF.GenerationSoftware,Kicad,Pcbnew,8.0.8
; #@! TF.FileFunction,Plated,1,4,PTH
FMAT,2
INCH
; #@! TA.AperFunction,Plated,PTH,ViaDrill
T1C0.0118
; #@! TA.AperFunction,Plated,PTH,ComponentDrill
T2C0.0394
%
G90
G05
T1
X1.9882Y-4.2756
X2.0197Y-5.0157
X2.0276Y-4.9173
X2.0315Y-5.0827
X2.0591Y-4.3307
X2.063Y-4.2559
X2.0906Y-4.9783
X2.1181Y-4.4173
X2.1181Y-5.1575
X2.1211Y-4.5595
X2.1378Y-4.6772
X2.1732Y-4.437
X2.1929Y-4.1299
X2.1929Y-5.1063
X2.2047Y-4.8307
X2.2126Y-4.7131
X2.2126Y-4.9173
X2.2559Y-4.9843
X2.2756Y-5.0591
X2.2992Y-4.2559
X2.3031Y-4.5236
X2.3398Y-4.8836
X2.3622Y-5.0197
X2.378Y-4.6772
X2.3858Y-4.5595
X2.4055Y-4.2559
X2.4055Y-4.3307
X2.437Y-4.6378
X2.4488Y-4.7913
X2.5261Y-4.4419
X2.5354Y-4.126
X2.5394Y-4.8307
X2.5627Y-4.7168
X2.563Y-5.0591
X2.5984Y-4.9882
X2.6614Y-4.2835
X2.6614Y-4.5236
X2.6822Y-4.8864
X2.7008Y-5.0157
X2.7126Y-4.6772
X2.7323Y-4.5595
X2.748Y-4.2559
X2.7677Y-4.3346
X2.8725Y-4.4419
X2.8858Y-4.1181
X2.8858Y-4.8307
X2.9055Y-4.7131
X2.9094Y-5.0591
X2.9291Y-4.2559
X2.9449Y-4.9843
X3.0079Y-4.5236
X3.0329Y-4.8837
X3.0472Y-5.0197
X3.0591Y-4.6772
X3.0787Y-4.5595
X3.1063Y-4.3307
X3.1072Y-4.259
X3.219Y-4.4419
X3.2323Y-4.1181
X3.2323Y-4.8307
X3.252Y-4.7131
X3.2559Y-5.0591
X3.2913Y-4.9882
X3.3465Y-4.2756
X3.3543Y-4.5236
X3.3787Y-4.8831
X3.3937Y-5.0197
X3.4094Y-4.6772
X3.4252Y-4.5595
X3.4528Y-4.2638
X3.4528Y-4.3307
X3.5655Y-4.4419
X3.5787Y-4.8307
X3.5866Y-4.122
X3.5982Y-4.7128
X3.6024Y-5.0591
X3.6378Y-4.9843
X3.685Y-4.2677
X3.7008Y-4.5236
X3.7441Y-5.0197
X3.7638Y-4.6772
X3.7717Y-4.5595
X3.7874Y-4.2638
X3.8031Y-4.3346
X3.815Y-4.8878
X3.9119Y-4.4419
X3.9252Y-4.1181
X3.9331Y-4.8307
X3.9449Y-4.7131
X3.9488Y-5.0591
X3.9882Y-4.9843
X4.0276Y-4.2677
X4.0433Y-4.5236
X4.0866Y-5.0197
X4.1063Y-4.6772
X4.1181Y-4.5595
X4.1457Y-4.2677
X4.1457Y-4.3346
X4.1772Y-4.8878
X4.2584Y-4.4419
X4.2795Y-4.1142
X4.2795Y-4.8307
X4.2913Y-4.7126
X4.2953Y-5.0591
X4.3346Y-4.9843
X4.3701Y-4.2638
X4.3858Y-4.5236
X4.4161Y-4.8811
X4.4331Y-5.0276
X4.4528Y-4.6772
X4.4622Y-4.5572
X4.4882Y-4.2598
X4.4961Y-4.3307
X4.5276Y-5.189
X4.6048Y-4.4419
X4.6102Y-4.1142
X4.626Y-5.1535
X4.6299Y-4.8307
X4.6378Y-4.5472
X4.6378Y-5.0551
X4.6395Y-4.7148
X4.6811Y-4.9843
X4.7087Y-4.2638
X4.7283Y-5.1535
T2
X2.3425Y-5.185
X2.4425Y-5.185
X2.5425Y-5.185
X2.6425Y-5.185
X2.7425Y-5.185
X2.8425Y-5.185
X2.9425Y-5.185
X3.0425Y-5.185
X3.1425Y-5.185
X3.2425Y-5.185
X3.3425Y-5.185
X3.4425Y-5.185
X3.5425Y-5.185
X3.6425Y-5.185
X3.7425Y-5.185
X3.8425Y-5.185
X3.9425Y-5.185
X4.0425Y-5.185
X4.1425Y-5.185
X4.2425Y-5.185
X4.3425Y-5.185
M30
