%TF.GenerationSoftware,KiCad,Pcbnew,9.0.7*%
%TF.CreationDate,2026-03-02T14:34:11+01:00*%
%TF.ProjectId,REG8bit-SMD-V5.0,52454738-6269-4742-9d53-4d442d56352e,rev?*%
%TF.SameCoordinates,Original*%
%TF.FileFunction,Copper,L3,Inr*%
%TF.FilePolarity,Positive*%
%FSLAX46Y46*%
G04 Gerber Fmt 4.6, Leading zero omitted, Abs format (unit mm)*
G04 Created by KiCad (PCBNEW 9.0.7) date 2026-03-02 14:34:11*
%MOMM*%
%LPD*%
G01*
G04 APERTURE LIST*
%TA.AperFunction,ComponentPad*%
%ADD10R,1.700000X1.700000*%
%TD*%
%TA.AperFunction,ComponentPad*%
%ADD11C,1.700000*%
%TD*%
%TA.AperFunction,ViaPad*%
%ADD12C,1.000000*%
%TD*%
%TA.AperFunction,ViaPad*%
%ADD13C,0.600000*%
%TD*%
%TA.AperFunction,ViaPad*%
%ADD14C,1.500000*%
%TD*%
%TA.AperFunction,Conductor*%
%ADD15C,0.200000*%
%TD*%
G04 APERTURE END LIST*
D10*
%TO.N,Net-(J1-Pin_1)*%
%TO.C,J1*%
X109700000Y-154300000D03*
D11*
%TO.N,Net-(J1-Pin_2)*%
X107160000Y-154300000D03*
%TO.N,Net-(J1-Pin_3)*%
X104620000Y-154300000D03*
%TO.N,Net-(J1-Pin_4)*%
X102080000Y-154300000D03*
%TO.N,Net-(J1-Pin_5)*%
X99540000Y-154300000D03*
%TO.N,Net-(J1-Pin_6)*%
X97000000Y-154300000D03*
%TO.N,Net-(J1-Pin_7)*%
X94460000Y-154300000D03*
%TO.N,Net-(J1-Pin_8)*%
X91920000Y-154300000D03*
%TO.N,Net-(J1-Pin_9)*%
X89380000Y-154300000D03*
%TO.N,Net-(J1-Pin_10)*%
X86840000Y-154300000D03*
%TO.N,Net-(J1-Pin_11)*%
X84300000Y-154300000D03*
%TO.N,Net-(J1-Pin_12)*%
X81760000Y-154300000D03*
%TO.N,Net-(J1-Pin_13)*%
X79220000Y-154300000D03*
%TO.N,Net-(J1-Pin_14)*%
X76680000Y-154300000D03*
%TO.N,Net-(J1-Pin_15)*%
X74140000Y-154300000D03*
%TO.N,Net-(J1-Pin_16)*%
X71600000Y-154300000D03*
%TO.N,/Rise_egde*%
X69060000Y-154300000D03*
%TO.N,/R*%
X66520000Y-154300000D03*
%TO.N,/RST*%
X63980000Y-154300000D03*
%TO.N,Earth*%
X61440000Y-154300000D03*
%TO.N,VCC*%
X58900000Y-154300000D03*
%TD*%
D12*
%TO.N,VCC*%
X86600000Y-128300000D03*
X112700000Y-148200000D03*
D13*
X88600000Y-146700000D03*
X97300000Y-146700000D03*
X70400000Y-146600000D03*
D12*
X59600000Y-128300000D03*
D13*
X106100000Y-146700000D03*
D14*
X112600000Y-154400000D03*
D12*
X104600000Y-128300000D03*
D13*
X61700000Y-146300000D03*
D14*
X115800000Y-154400000D03*
D13*
X53100000Y-148000000D03*
X78700000Y-146800000D03*
D12*
X113600000Y-128300000D03*
X50400000Y-128400000D03*
X77600000Y-128300000D03*
X68600000Y-128300000D03*
X61000000Y-149300000D03*
D14*
X118800000Y-154400000D03*
D12*
X95600000Y-128300000D03*
D13*
%TO.N,Earth*%
X83900000Y-144000000D03*
X60900000Y-151000000D03*
X110900000Y-144000000D03*
D12*
X66900000Y-152000000D03*
D13*
X85800000Y-143000000D03*
D14*
X118900000Y-149300000D03*
D13*
X68000000Y-143000000D03*
X94900000Y-142900000D03*
D12*
X65000000Y-125500000D03*
X119000000Y-125500000D03*
D13*
X113000000Y-142900000D03*
X120000000Y-144100000D03*
X92924000Y-144000000D03*
D12*
X110000000Y-125500000D03*
X74000000Y-125500000D03*
D13*
X104000000Y-143000000D03*
X76900000Y-143000000D03*
D12*
X92000000Y-125600000D03*
D13*
X52994485Y-130605515D03*
X74800000Y-144000000D03*
D14*
X111000000Y-148800000D03*
D12*
X83000000Y-125500000D03*
X56000000Y-125500000D03*
D13*
X101900000Y-144000000D03*
D12*
X101000000Y-125500000D03*
D13*
%TO.N,Net-(Q1-D)*%
X64900000Y-137900000D03*
X55900000Y-137900000D03*
X52900000Y-146000000D03*
X118500000Y-137900000D03*
X109700000Y-137900000D03*
X82700000Y-137900000D03*
X91700000Y-137900000D03*
X73600000Y-137900000D03*
X100700000Y-137900000D03*
%TO.N,/RST*%
X58900000Y-142000000D03*
X66100000Y-147300000D03*
X85900000Y-142000000D03*
X76900000Y-142000000D03*
X69300000Y-142000000D03*
X104000000Y-142000000D03*
X113000000Y-142000000D03*
X95000000Y-142000000D03*
X67200000Y-142000000D03*
X52000000Y-142000000D03*
%TO.N,Net-(Q10-D)*%
X48900000Y-131000000D03*
X54062500Y-134825000D03*
%TO.N,Net-(Q17-D)*%
X58700000Y-133000000D03*
X63062500Y-134825000D03*
%TO.N,Net-(Q27-D)*%
X67600000Y-133000000D03*
X72062500Y-134825000D03*
%TO.N,Net-(Q37-D)*%
X81062500Y-134825000D03*
X76600000Y-133000000D03*
%TO.N,Net-(Q47-D)*%
X85700000Y-133000000D03*
X90062500Y-134825000D03*
%TO.N,Net-(Q57-D)*%
X94600000Y-133000000D03*
X99062500Y-134825000D03*
%TO.N,Net-(Q67-D)*%
X108062500Y-134825000D03*
X103600000Y-133000000D03*
%TO.N,Net-(Q77-D)*%
X112600000Y-133000000D03*
X117062500Y-134825000D03*
%TO.N,Net-(J1-Pin_16)*%
X54500000Y-145000000D03*
%TO.N,Net-(J1-Pin_10)*%
X108500000Y-146800000D03*
%TO.N,Net-(J1-Pin_8)*%
X49000000Y-141600000D03*
X91900000Y-149300000D03*
X53400764Y-145200000D03*
%TO.N,Net-(J1-Pin_11)*%
X99500000Y-146711000D03*
%TO.N,Net-(J1-Pin_12)*%
X90500000Y-146800000D03*
%TO.N,Net-(J1-Pin_7)*%
X94400000Y-149114000D03*
%TO.N,Net-(J1-Pin_9)*%
X115200000Y-146300000D03*
%TO.N,Net-(J1-Pin_14)*%
X72500000Y-146800000D03*
%TO.N,Net-(J1-Pin_13)*%
X81400000Y-146800000D03*
%TO.N,Net-(J1-Pin_15)*%
X63500000Y-146300000D03*
%TO.N,Net-(J1-Pin_5)*%
X99500000Y-148600000D03*
%TO.N,Net-(J1-Pin_6)*%
X97000000Y-148800000D03*
%TO.N,Net-(J1-Pin_4)*%
X102000000Y-148500000D03*
%TO.N,Net-(J1-Pin_3)*%
X104620000Y-148521000D03*
%TO.N,Net-(J1-Pin_1)*%
X109700000Y-147700000D03*
%TO.N,Net-(J1-Pin_2)*%
X107100000Y-148500000D03*
%TO.N,Net-(Q1-G)*%
X118600000Y-146000000D03*
X73900000Y-146000000D03*
X91900000Y-146000000D03*
X109900000Y-146000000D03*
X100900000Y-146000000D03*
X64900000Y-146000000D03*
X63100000Y-148200000D03*
X56924000Y-145700000D03*
X82900000Y-146000000D03*
%TD*%
D15*
%TO.N,Earth*%
X61440000Y-151460000D02*
X61700000Y-151200000D01*
X61440000Y-154300000D02*
X61440000Y-151460000D01*
%TD*%
%TA.AperFunction,Conductor*%
%TO.N,Earth*%
G36*
X120442539Y-124520185D02*
G01*
X120488294Y-124572989D01*
X120499500Y-124624500D01*
X120499500Y-146065892D01*
X120503060Y-146079179D01*
X120533608Y-146193187D01*
X120556884Y-146233501D01*
X120599500Y-146307314D01*
X120692686Y-146400500D01*
X120806814Y-146466392D01*
X120934108Y-146500500D01*
X121065892Y-146500500D01*
X122375500Y-146500500D01*
X122442539Y-146520185D01*
X122488294Y-146572989D01*
X122499500Y-146624500D01*
X122499500Y-155175500D01*
X122479815Y-155242539D01*
X122427011Y-155288294D01*
X122375500Y-155299500D01*
X119935542Y-155299500D01*
X119868503Y-155279815D01*
X119822748Y-155227011D01*
X119812804Y-155157853D01*
X119835224Y-155102614D01*
X119869524Y-155055405D01*
X119958884Y-154880025D01*
X120019709Y-154692826D01*
X120050500Y-154498422D01*
X120050500Y-154301577D01*
X120019709Y-154107173D01*
X119958882Y-153919970D01*
X119897754Y-153800000D01*
X119869524Y-153744595D01*
X119753828Y-153585354D01*
X119614646Y-153446172D01*
X119455405Y-153330476D01*
X119280029Y-153241117D01*
X119092826Y-153180290D01*
X118898422Y-153149500D01*
X118898417Y-153149500D01*
X118701583Y-153149500D01*
X118701578Y-153149500D01*
X118507173Y-153180290D01*
X118319970Y-153241117D01*
X118144594Y-153330476D01*
X118071710Y-153383430D01*
X117985354Y-153446172D01*
X117985352Y-153446174D01*
X117985351Y-153446174D01*
X117846174Y-153585351D01*
X117846174Y-153585352D01*
X117846172Y-153585354D01*
X117841015Y-153592452D01*
X117730476Y-153744594D01*
X117641117Y-153919970D01*
X117580290Y-154107173D01*
X117549500Y-154301577D01*
X117549500Y-154498422D01*
X117580290Y-154692826D01*
X117641117Y-154880029D01*
X117730476Y-155055405D01*
X117764776Y-155102614D01*
X117788256Y-155168420D01*
X117772431Y-155236474D01*
X117722326Y-155285169D01*
X117664458Y-155299500D01*
X116935542Y-155299500D01*
X116868503Y-155279815D01*
X116822748Y-155227011D01*
X116812804Y-155157853D01*
X116835224Y-155102614D01*
X116869524Y-155055405D01*
X116958884Y-154880025D01*
X117019709Y-154692826D01*
X117050500Y-154498422D01*
X117050500Y-154301577D01*
X117019709Y-154107173D01*
X116958882Y-153919970D01*
X116897754Y-153800000D01*
X116869524Y-153744595D01*
X116753828Y-153585354D01*
X116614646Y-153446172D01*
X116455405Y-153330476D01*
X116280029Y-153241117D01*
X116092826Y-153180290D01*
X115898422Y-153149500D01*
X115898417Y-153149500D01*
X115701583Y-153149500D01*
X115701578Y-153149500D01*
X115507173Y-153180290D01*
X115319970Y-153241117D01*
X115144594Y-153330476D01*
X115071710Y-153383430D01*
X114985354Y-153446172D01*
X114985352Y-153446174D01*
X114985351Y-153446174D01*
X114846174Y-153585351D01*
X114846174Y-153585352D01*
X114846172Y-153585354D01*
X114841015Y-153592452D01*
X114730476Y-153744594D01*
X114641117Y-153919970D01*
X114580290Y-154107173D01*
X114549500Y-154301577D01*
X114549500Y-154498422D01*
X114580290Y-154692826D01*
X114641117Y-154880029D01*
X114730476Y-155055405D01*
X114764776Y-155102614D01*
X114788256Y-155168420D01*
X114772431Y-155236474D01*
X114722326Y-155285169D01*
X114664458Y-155299500D01*
X113735542Y-155299500D01*
X113668503Y-155279815D01*
X113622748Y-155227011D01*
X113612804Y-155157853D01*
X113635224Y-155102614D01*
X113669524Y-155055405D01*
X113758884Y-154880025D01*
X113819709Y-154692826D01*
X113850500Y-154498422D01*
X113850500Y-154301577D01*
X113819709Y-154107173D01*
X113758882Y-153919970D01*
X113697754Y-153800000D01*
X113669524Y-153744595D01*
X113553828Y-153585354D01*
X113414646Y-153446172D01*
X113255405Y-153330476D01*
X113080029Y-153241117D01*
X112892826Y-153180290D01*
X112698422Y-153149500D01*
X112698417Y-153149500D01*
X112501583Y-153149500D01*
X112501578Y-153149500D01*
X112307173Y-153180290D01*
X112119970Y-153241117D01*
X111944594Y-153330476D01*
X111871710Y-153383430D01*
X111785354Y-153446172D01*
X111785352Y-153446174D01*
X111785351Y-153446174D01*
X111646174Y-153585351D01*
X111646174Y-153585352D01*
X111646172Y-153585354D01*
X111641015Y-153592452D01*
X111530476Y-153744594D01*
X111441117Y-153919970D01*
X111380290Y-154107173D01*
X111349500Y-154301577D01*
X111349500Y-154498422D01*
X111380290Y-154692826D01*
X111441117Y-154880029D01*
X111530476Y-155055405D01*
X111564776Y-155102614D01*
X111588256Y-155168420D01*
X111572431Y-155236474D01*
X111522326Y-155285169D01*
X111464458Y-155299500D01*
X111174500Y-155299500D01*
X111107461Y-155279815D01*
X111061706Y-155227011D01*
X111050500Y-155175500D01*
X111050499Y-153402129D01*
X111050498Y-153402123D01*
X111044091Y-153342516D01*
X110993797Y-153207671D01*
X110993793Y-153207664D01*
X110907547Y-153092455D01*
X110907544Y-153092452D01*
X110792335Y-153006206D01*
X110792328Y-153006202D01*
X110657482Y-152955908D01*
X110657483Y-152955908D01*
X110597883Y-152949501D01*
X110597881Y-152949500D01*
X110597873Y-152949500D01*
X110597864Y-152949500D01*
X108802129Y-152949500D01*
X108802123Y-152949501D01*
X108742516Y-152955908D01*
X108607671Y-153006202D01*
X108607664Y-153006206D01*
X108492455Y-153092452D01*
X108492452Y-153092455D01*
X108406206Y-153207664D01*
X108406203Y-153207669D01*
X108357189Y-153339083D01*
X108315317Y-153395016D01*
X108249853Y-153419433D01*
X108181580Y-153404581D01*
X108153326Y-153383430D01*
X108039786Y-153269890D01*
X107867820Y-153144951D01*
X107678414Y-153048444D01*
X107678413Y-153048443D01*
X107678412Y-153048443D01*
X107476243Y-152982754D01*
X107476241Y-152982753D01*
X107476240Y-152982753D01*
X107314957Y-152957208D01*
X107266287Y-152949500D01*
X107053713Y-152949500D01*
X107005042Y-152957208D01*
X106843760Y-152982753D01*
X106641585Y-153048444D01*
X106452179Y-153144951D01*
X106280213Y-153269890D01*
X106129890Y-153420213D01*
X106004949Y-153592182D01*
X106000484Y-153600946D01*
X105952509Y-153651742D01*
X105884688Y-153668536D01*
X105818553Y-153645998D01*
X105779516Y-153600946D01*
X105775050Y-153592182D01*
X105650109Y-153420213D01*
X105499786Y-153269890D01*
X105327820Y-153144951D01*
X105138414Y-153048444D01*
X105138413Y-153048443D01*
X105138412Y-153048443D01*
X104936243Y-152982754D01*
X104936241Y-152982753D01*
X104936240Y-152982753D01*
X104774957Y-152957208D01*
X104726287Y-152949500D01*
X104513713Y-152949500D01*
X104465042Y-152957208D01*
X104303760Y-152982753D01*
X104101585Y-153048444D01*
X103912179Y-153144951D01*
X103740213Y-153269890D01*
X103589890Y-153420213D01*
X103464949Y-153592182D01*
X103460484Y-153600946D01*
X103412509Y-153651742D01*
X103344688Y-153668536D01*
X103278553Y-153645998D01*
X103239516Y-153600946D01*
X103235050Y-153592182D01*
X103110109Y-153420213D01*
X102959786Y-153269890D01*
X102787820Y-153144951D01*
X102598414Y-153048444D01*
X102598413Y-153048443D01*
X102598412Y-153048443D01*
X102396243Y-152982754D01*
X102396241Y-152982753D01*
X102396240Y-152982753D01*
X102234957Y-152957208D01*
X102186287Y-152949500D01*
X101973713Y-152949500D01*
X101925042Y-152957208D01*
X101763760Y-152982753D01*
X101561585Y-153048444D01*
X101372179Y-153144951D01*
X101200213Y-153269890D01*
X101049890Y-153420213D01*
X100924949Y-153592182D01*
X100920484Y-153600946D01*
X100872509Y-153651742D01*
X100804688Y-153668536D01*
X100738553Y-153645998D01*
X100699516Y-153600946D01*
X100695050Y-153592182D01*
X100570109Y-153420213D01*
X100419786Y-153269890D01*
X100247820Y-153144951D01*
X100058414Y-153048444D01*
X100058413Y-153048443D01*
X100058412Y-153048443D01*
X99856243Y-152982754D01*
X99856241Y-152982753D01*
X99856240Y-152982753D01*
X99694957Y-152957208D01*
X99646287Y-152949500D01*
X99433713Y-152949500D01*
X99385042Y-152957208D01*
X99223760Y-152982753D01*
X99021585Y-153048444D01*
X98832179Y-153144951D01*
X98660213Y-153269890D01*
X98509890Y-153420213D01*
X98384949Y-153592182D01*
X98380484Y-153600946D01*
X98332509Y-153651742D01*
X98264688Y-153668536D01*
X98198553Y-153645998D01*
X98159516Y-153600946D01*
X98155050Y-153592182D01*
X98030109Y-153420213D01*
X97879786Y-153269890D01*
X97707820Y-153144951D01*
X97518414Y-153048444D01*
X97518413Y-153048443D01*
X97518412Y-153048443D01*
X97316243Y-152982754D01*
X97316241Y-152982753D01*
X97316240Y-152982753D01*
X97154957Y-152957208D01*
X97106287Y-152949500D01*
X96893713Y-152949500D01*
X96845042Y-152957208D01*
X96683760Y-152982753D01*
X96481585Y-153048444D01*
X96292179Y-153144951D01*
X96120213Y-153269890D01*
X95969890Y-153420213D01*
X95844949Y-153592182D01*
X95840484Y-153600946D01*
X95792509Y-153651742D01*
X95724688Y-153668536D01*
X95658553Y-153645998D01*
X95619516Y-153600946D01*
X95615050Y-153592182D01*
X95490109Y-153420213D01*
X95339786Y-153269890D01*
X95167820Y-153144951D01*
X94978414Y-153048444D01*
X94978413Y-153048443D01*
X94978412Y-153048443D01*
X94776243Y-152982754D01*
X94776241Y-152982753D01*
X94776240Y-152982753D01*
X94614957Y-152957208D01*
X94566287Y-152949500D01*
X94353713Y-152949500D01*
X94305042Y-152957208D01*
X94143760Y-152982753D01*
X93941585Y-153048444D01*
X93752179Y-153144951D01*
X93580213Y-153269890D01*
X93429890Y-153420213D01*
X93304949Y-153592182D01*
X93300484Y-153600946D01*
X93252509Y-153651742D01*
X93184688Y-153668536D01*
X93118553Y-153645998D01*
X93079516Y-153600946D01*
X93075050Y-153592182D01*
X92950109Y-153420213D01*
X92799786Y-153269890D01*
X92627820Y-153144951D01*
X92438414Y-153048444D01*
X92438413Y-153048443D01*
X92438412Y-153048443D01*
X92236243Y-152982754D01*
X92236241Y-152982753D01*
X92236240Y-152982753D01*
X92074957Y-152957208D01*
X92026287Y-152949500D01*
X91813713Y-152949500D01*
X91765042Y-152957208D01*
X91603760Y-152982753D01*
X91401585Y-153048444D01*
X91212179Y-153144951D01*
X91040213Y-153269890D01*
X90889890Y-153420213D01*
X90764949Y-153592182D01*
X90760484Y-153600946D01*
X90712509Y-153651742D01*
X90644688Y-153668536D01*
X90578553Y-153645998D01*
X90539516Y-153600946D01*
X90535050Y-153592182D01*
X90410109Y-153420213D01*
X90259786Y-153269890D01*
X90087820Y-153144951D01*
X89898414Y-153048444D01*
X89898413Y-153048443D01*
X89898412Y-153048443D01*
X89696243Y-152982754D01*
X89696241Y-152982753D01*
X89696240Y-152982753D01*
X89534957Y-152957208D01*
X89486287Y-152949500D01*
X89273713Y-152949500D01*
X89225042Y-152957208D01*
X89063760Y-152982753D01*
X88861585Y-153048444D01*
X88672179Y-153144951D01*
X88500213Y-153269890D01*
X88349890Y-153420213D01*
X88224949Y-153592182D01*
X88220484Y-153600946D01*
X88172509Y-153651742D01*
X88104688Y-153668536D01*
X88038553Y-153645998D01*
X87999516Y-153600946D01*
X87995050Y-153592182D01*
X87870109Y-153420213D01*
X87719786Y-153269890D01*
X87547820Y-153144951D01*
X87358414Y-153048444D01*
X87358413Y-153048443D01*
X87358412Y-153048443D01*
X87156243Y-152982754D01*
X87156241Y-152982753D01*
X87156240Y-152982753D01*
X86994957Y-152957208D01*
X86946287Y-152949500D01*
X86733713Y-152949500D01*
X86685042Y-152957208D01*
X86523760Y-152982753D01*
X86321585Y-153048444D01*
X86132179Y-153144951D01*
X85960213Y-153269890D01*
X85809890Y-153420213D01*
X85684949Y-153592182D01*
X85680484Y-153600946D01*
X85632509Y-153651742D01*
X85564688Y-153668536D01*
X85498553Y-153645998D01*
X85459516Y-153600946D01*
X85455050Y-153592182D01*
X85330109Y-153420213D01*
X85179786Y-153269890D01*
X85007820Y-153144951D01*
X84818414Y-153048444D01*
X84818413Y-153048443D01*
X84818412Y-153048443D01*
X84616243Y-152982754D01*
X84616241Y-152982753D01*
X84616240Y-152982753D01*
X84454957Y-152957208D01*
X84406287Y-152949500D01*
X84193713Y-152949500D01*
X84145042Y-152957208D01*
X83983760Y-152982753D01*
X83781585Y-153048444D01*
X83592179Y-153144951D01*
X83420213Y-153269890D01*
X83269890Y-153420213D01*
X83144949Y-153592182D01*
X83140484Y-153600946D01*
X83092509Y-153651742D01*
X83024688Y-153668536D01*
X82958553Y-153645998D01*
X82919516Y-153600946D01*
X82915050Y-153592182D01*
X82790109Y-153420213D01*
X82639786Y-153269890D01*
X82467820Y-153144951D01*
X82278414Y-153048444D01*
X82278413Y-153048443D01*
X82278412Y-153048443D01*
X82076243Y-152982754D01*
X82076241Y-152982753D01*
X82076240Y-152982753D01*
X81914957Y-152957208D01*
X81866287Y-152949500D01*
X81653713Y-152949500D01*
X81605042Y-152957208D01*
X81443760Y-152982753D01*
X81241585Y-153048444D01*
X81052179Y-153144951D01*
X80880213Y-153269890D01*
X80729890Y-153420213D01*
X80604949Y-153592182D01*
X80600484Y-153600946D01*
X80552509Y-153651742D01*
X80484688Y-153668536D01*
X80418553Y-153645998D01*
X80379516Y-153600946D01*
X80375050Y-153592182D01*
X80250109Y-153420213D01*
X80099786Y-153269890D01*
X79927820Y-153144951D01*
X79738414Y-153048444D01*
X79738413Y-153048443D01*
X79738412Y-153048443D01*
X79536243Y-152982754D01*
X79536241Y-152982753D01*
X79536240Y-152982753D01*
X79374957Y-152957208D01*
X79326287Y-152949500D01*
X79113713Y-152949500D01*
X79065042Y-152957208D01*
X78903760Y-152982753D01*
X78701585Y-153048444D01*
X78512179Y-153144951D01*
X78340213Y-153269890D01*
X78189890Y-153420213D01*
X78064949Y-153592182D01*
X78060484Y-153600946D01*
X78012509Y-153651742D01*
X77944688Y-153668536D01*
X77878553Y-153645998D01*
X77839516Y-153600946D01*
X77835050Y-153592182D01*
X77710109Y-153420213D01*
X77559786Y-153269890D01*
X77387820Y-153144951D01*
X77198414Y-153048444D01*
X77198413Y-153048443D01*
X77198412Y-153048443D01*
X76996243Y-152982754D01*
X76996241Y-152982753D01*
X76996240Y-152982753D01*
X76834957Y-152957208D01*
X76786287Y-152949500D01*
X76573713Y-152949500D01*
X76525042Y-152957208D01*
X76363760Y-152982753D01*
X76161585Y-153048444D01*
X75972179Y-153144951D01*
X75800213Y-153269890D01*
X75649890Y-153420213D01*
X75524949Y-153592182D01*
X75520484Y-153600946D01*
X75472509Y-153651742D01*
X75404688Y-153668536D01*
X75338553Y-153645998D01*
X75299516Y-153600946D01*
X75295050Y-153592182D01*
X75170109Y-153420213D01*
X75019786Y-153269890D01*
X74847820Y-153144951D01*
X74658414Y-153048444D01*
X74658413Y-153048443D01*
X74658412Y-153048443D01*
X74456243Y-152982754D01*
X74456241Y-152982753D01*
X74456240Y-152982753D01*
X74294957Y-152957208D01*
X74246287Y-152949500D01*
X74033713Y-152949500D01*
X73985042Y-152957208D01*
X73823760Y-152982753D01*
X73621585Y-153048444D01*
X73432179Y-153144951D01*
X73260213Y-153269890D01*
X73109890Y-153420213D01*
X72984949Y-153592182D01*
X72980484Y-153600946D01*
X72932509Y-153651742D01*
X72864688Y-153668536D01*
X72798553Y-153645998D01*
X72759516Y-153600946D01*
X72755050Y-153592182D01*
X72630109Y-153420213D01*
X72479786Y-153269890D01*
X72307820Y-153144951D01*
X72118414Y-153048444D01*
X72118413Y-153048443D01*
X72118412Y-153048443D01*
X71916243Y-152982754D01*
X71916241Y-152982753D01*
X71916240Y-152982753D01*
X71754957Y-152957208D01*
X71706287Y-152949500D01*
X71493713Y-152949500D01*
X71445042Y-152957208D01*
X71283760Y-152982753D01*
X71081585Y-153048444D01*
X70892179Y-153144951D01*
X70720213Y-153269890D01*
X70569890Y-153420213D01*
X70444949Y-153592182D01*
X70440484Y-153600946D01*
X70392509Y-153651742D01*
X70324688Y-153668536D01*
X70258553Y-153645998D01*
X70219516Y-153600946D01*
X70215050Y-153592182D01*
X70090109Y-153420213D01*
X69939786Y-153269890D01*
X69767820Y-153144951D01*
X69578414Y-153048444D01*
X69578413Y-153048443D01*
X69578412Y-153048443D01*
X69376243Y-152982754D01*
X69376241Y-152982753D01*
X69376240Y-152982753D01*
X69214957Y-152957208D01*
X69166287Y-152949500D01*
X68953713Y-152949500D01*
X68905042Y-152957208D01*
X68743760Y-152982753D01*
X68541585Y-153048444D01*
X68352179Y-153144951D01*
X68180213Y-153269890D01*
X68029890Y-153420213D01*
X67904949Y-153592182D01*
X67900484Y-153600946D01*
X67852509Y-153651742D01*
X67784688Y-153668536D01*
X67718553Y-153645998D01*
X67679516Y-153600946D01*
X67675050Y-153592182D01*
X67550109Y-153420213D01*
X67399786Y-153269890D01*
X67227820Y-153144951D01*
X67038414Y-153048444D01*
X67038413Y-153048443D01*
X67038412Y-153048443D01*
X66836243Y-152982754D01*
X66836241Y-152982753D01*
X66836240Y-152982753D01*
X66674957Y-152957208D01*
X66626287Y-152949500D01*
X66413713Y-152949500D01*
X66365042Y-152957208D01*
X66203760Y-152982753D01*
X66001585Y-153048444D01*
X65812179Y-153144951D01*
X65640213Y-153269890D01*
X65489890Y-153420213D01*
X65364949Y-153592182D01*
X65360484Y-153600946D01*
X65312509Y-153651742D01*
X65244688Y-153668536D01*
X65178553Y-153645998D01*
X65139516Y-153600946D01*
X65135050Y-153592182D01*
X65010109Y-153420213D01*
X64859786Y-153269890D01*
X64687820Y-153144951D01*
X64498414Y-153048444D01*
X64498413Y-153048443D01*
X64498412Y-153048443D01*
X64296243Y-152982754D01*
X64296241Y-152982753D01*
X64296240Y-152982753D01*
X64134957Y-152957208D01*
X64086287Y-152949500D01*
X63873713Y-152949500D01*
X63825042Y-152957208D01*
X63663760Y-152982753D01*
X63461585Y-153048444D01*
X63272179Y-153144951D01*
X63100213Y-153269890D01*
X62949890Y-153420213D01*
X62824949Y-153592182D01*
X62820202Y-153601499D01*
X62772227Y-153652293D01*
X62704405Y-153669087D01*
X62638271Y-153646548D01*
X62599234Y-153601495D01*
X62594626Y-153592452D01*
X62555270Y-153538282D01*
X62555269Y-153538282D01*
X61922962Y-154170589D01*
X61905925Y-154107007D01*
X61840099Y-153992993D01*
X61747007Y-153899901D01*
X61632993Y-153834075D01*
X61569409Y-153817037D01*
X62201716Y-153184728D01*
X62147550Y-153145375D01*
X61958217Y-153048904D01*
X61756129Y-152983242D01*
X61546246Y-152950000D01*
X61333754Y-152950000D01*
X61123872Y-152983242D01*
X61123869Y-152983242D01*
X60921782Y-153048904D01*
X60732439Y-153145380D01*
X60678282Y-153184727D01*
X60678282Y-153184728D01*
X61310591Y-153817037D01*
X61247007Y-153834075D01*
X61132993Y-153899901D01*
X61039901Y-153992993D01*
X60974075Y-154107007D01*
X60957037Y-154170591D01*
X60324728Y-153538282D01*
X60324727Y-153538282D01*
X60285380Y-153592440D01*
X60285376Y-153592446D01*
X60280760Y-153601505D01*
X60232781Y-153652297D01*
X60164959Y-153669087D01*
X60098826Y-153646543D01*
X60059794Y-153601493D01*
X60055051Y-153592184D01*
X60055049Y-153592181D01*
X60055048Y-153592179D01*
X59930109Y-153420213D01*
X59779786Y-153269890D01*
X59607820Y-153144951D01*
X59418414Y-153048444D01*
X59418413Y-153048443D01*
X59418412Y-153048443D01*
X59216243Y-152982754D01*
X59216241Y-152982753D01*
X59216240Y-152982753D01*
X59054957Y-152957208D01*
X59006287Y-152949500D01*
X58793713Y-152949500D01*
X58745042Y-152957208D01*
X58583760Y-152982753D01*
X58381585Y-153048444D01*
X58192179Y-153144951D01*
X58020213Y-153269890D01*
X57869890Y-153420213D01*
X57744951Y-153592179D01*
X57648444Y-153781585D01*
X57582753Y-153983760D01*
X57549500Y-154193713D01*
X57549500Y-154406287D01*
X57582754Y-154616243D01*
X57607637Y-154692826D01*
X57648444Y-154818414D01*
X57744951Y-155007820D01*
X57813823Y-155102615D01*
X57837303Y-155168422D01*
X57821477Y-155236475D01*
X57771371Y-155285170D01*
X57713505Y-155299500D01*
X46224500Y-155299500D01*
X46157461Y-155279815D01*
X46111706Y-155227011D01*
X46100500Y-155175500D01*
X46100500Y-149398543D01*
X59999499Y-149398543D01*
X60037947Y-149591829D01*
X60037950Y-149591839D01*
X60113364Y-149773907D01*
X60113371Y-149773920D01*
X60222860Y-149937781D01*
X60222863Y-149937785D01*
X60362214Y-150077136D01*
X60362218Y-150077139D01*
X60526079Y-150186628D01*
X60526092Y-150186635D01*
X60708160Y-150262049D01*
X60708165Y-150262051D01*
X60708169Y-150262051D01*
X60708170Y-150262052D01*
X60901456Y-150300500D01*
X60901459Y-150300500D01*
X61098543Y-150300500D01*
X61228582Y-150274632D01*
X61291835Y-150262051D01*
X61473914Y-150186632D01*
X61637782Y-150077139D01*
X61777139Y-149937782D01*
X61886632Y-149773914D01*
X61962051Y-149591835D01*
X61995876Y-149421789D01*
X62000500Y-149398543D01*
X62000500Y-149221153D01*
X91099500Y-149221153D01*
X91099500Y-149378846D01*
X91130261Y-149533489D01*
X91130264Y-149533501D01*
X91190602Y-149679172D01*
X91190609Y-149679185D01*
X91278210Y-149810288D01*
X91278213Y-149810292D01*
X91389707Y-149921786D01*
X91389711Y-149921789D01*
X91520814Y-150009390D01*
X91520827Y-150009397D01*
X91666498Y-150069735D01*
X91666503Y-150069737D01*
X91821153Y-150100499D01*
X91821156Y-150100500D01*
X91821158Y-150100500D01*
X91978844Y-150100500D01*
X91978845Y-150100499D01*
X92133497Y-150069737D01*
X92279179Y-150009394D01*
X92410289Y-149921789D01*
X92521789Y-149810289D01*
X92609394Y-149679179D01*
X92669737Y-149533497D01*
X92700500Y-149378842D01*
X92700500Y-149221158D01*
X92700500Y-149221155D01*
X92700499Y-149221153D01*
X92669739Y-149066511D01*
X92669735Y-149066497D01*
X92656752Y-149035153D01*
X93599500Y-149035153D01*
X93599500Y-149192846D01*
X93630261Y-149347489D01*
X93630264Y-149347501D01*
X93690602Y-149493172D01*
X93690609Y-149493185D01*
X93778210Y-149624288D01*
X93778213Y-149624292D01*
X93889707Y-149735786D01*
X93889711Y-149735789D01*
X94020814Y-149823390D01*
X94020827Y-149823397D01*
X94166498Y-149883735D01*
X94166503Y-149883737D01*
X94321153Y-149914499D01*
X94321156Y-149914500D01*
X94321158Y-149914500D01*
X94478844Y-149914500D01*
X94478845Y-149914499D01*
X94633497Y-149883737D01*
X94779179Y-149823394D01*
X94910289Y-149735789D01*
X95021789Y-149624289D01*
X95109394Y-149493179D01*
X95169737Y-149347497D01*
X95200500Y-149192842D01*
X95200500Y-149035158D01*
X95200500Y-149035155D01*
X95200499Y-149035153D01*
X95189365Y-148979179D01*
X95169737Y-148880503D01*
X95152041Y-148837781D01*
X95120867Y-148762518D01*
X95109395Y-148734823D01*
X95109390Y-148734814D01*
X95100262Y-148721153D01*
X96199500Y-148721153D01*
X96199500Y-148878846D01*
X96230261Y-149033489D01*
X96230264Y-149033501D01*
X96290602Y-149179172D01*
X96290609Y-149179185D01*
X96378210Y-149310288D01*
X96378213Y-149310292D01*
X96489707Y-149421786D01*
X96489711Y-149421789D01*
X96620814Y-149509390D01*
X96620827Y-149509397D01*
X96766498Y-149569735D01*
X96766503Y-149569737D01*
X96877617Y-149591839D01*
X96921153Y-149600499D01*
X96921156Y-149600500D01*
X96921158Y-149600500D01*
X97078844Y-149600500D01*
X97078845Y-149600499D01*
X97233497Y-149569737D01*
X97379179Y-149509394D01*
X97510289Y-149421789D01*
X97621789Y-149310289D01*
X97709394Y-149179179D01*
X97769737Y-149033497D01*
X97800500Y-148878842D01*
X97800500Y-148721158D01*
X97800500Y-148721155D01*
X97800499Y-148721153D01*
X97798159Y-148709390D01*
X97769737Y-148566503D01*
X97768084Y-148562512D01*
X97750953Y-148521153D01*
X98699500Y-148521153D01*
X98699500Y-148678846D01*
X98730261Y-148833489D01*
X98730264Y-148833501D01*
X98790602Y-148979172D01*
X98790609Y-148979185D01*
X98878210Y-149110288D01*
X98878213Y-149110292D01*
X98989707Y-149221786D01*
X98989711Y-149221789D01*
X99120814Y-149309390D01*
X99120827Y-149309397D01*
X99212791Y-149347489D01*
X99266503Y-149369737D01*
X99411310Y-149398541D01*
X99421153Y-149400499D01*
X99421156Y-149400500D01*
X99421158Y-149400500D01*
X99578844Y-149400500D01*
X99578845Y-149400499D01*
X99733497Y-149369737D01*
X99879179Y-149309394D01*
X100010289Y-149221789D01*
X100121789Y-149110289D01*
X100209394Y-148979179D01*
X100269737Y-148833497D01*
X100300500Y-148678842D01*
X100300500Y-148521158D01*
X100300500Y-148521155D01*
X100284209Y-148439258D01*
X100284209Y-148439257D01*
X100280608Y-148421153D01*
X101199500Y-148421153D01*
X101199500Y-148578844D01*
X101230261Y-148733489D01*
X101230264Y-148733501D01*
X101290602Y-148879172D01*
X101290609Y-148879185D01*
X101378210Y-149010288D01*
X101378213Y-149010292D01*
X101489707Y-149121786D01*
X101489711Y-149121789D01*
X101620814Y-149209390D01*
X101620827Y-149209397D01*
X101766498Y-149269735D01*
X101766503Y-149269737D01*
X101921153Y-149300499D01*
X101921156Y-149300500D01*
X101921158Y-149300500D01*
X102078844Y-149300500D01*
X102078845Y-149300499D01*
X102233497Y-149269737D01*
X102379179Y-149209394D01*
X102510289Y-149121789D01*
X102621789Y-149010289D01*
X102709394Y-148879179D01*
X102769737Y-148733497D01*
X102796322Y-148599846D01*
X102800500Y-148578844D01*
X102800500Y-148442153D01*
X103819500Y-148442153D01*
X103819500Y-148599846D01*
X103850261Y-148754489D01*
X103850264Y-148754501D01*
X103910602Y-148900172D01*
X103910609Y-148900185D01*
X103998210Y-149031288D01*
X103998213Y-149031292D01*
X104109707Y-149142786D01*
X104109711Y-149142789D01*
X104240814Y-149230390D01*
X104240827Y-149230397D01*
X104386498Y-149290735D01*
X104386503Y-149290737D01*
X104541153Y-149321499D01*
X104541156Y-149321500D01*
X104541158Y-149321500D01*
X104698844Y-149321500D01*
X104698845Y-149321499D01*
X104853497Y-149290737D01*
X104999179Y-149230394D01*
X105130289Y-149142789D01*
X105241789Y-149031289D01*
X105329394Y-148900179D01*
X105389737Y-148754497D01*
X105420500Y-148599842D01*
X105420500Y-148442158D01*
X105420500Y-148442155D01*
X105420499Y-148442153D01*
X105419923Y-148439253D01*
X105419923Y-148439252D01*
X105416323Y-148421153D01*
X106299500Y-148421153D01*
X106299500Y-148578844D01*
X106330261Y-148733489D01*
X106330264Y-148733501D01*
X106390602Y-148879172D01*
X106390609Y-148879185D01*
X106478210Y-149010288D01*
X106478213Y-149010292D01*
X106589707Y-149121786D01*
X106589711Y-149121789D01*
X106720814Y-149209390D01*
X106720827Y-149209397D01*
X106866498Y-149269735D01*
X106866503Y-149269737D01*
X107021153Y-149300499D01*
X107021156Y-149300500D01*
X107021158Y-149300500D01*
X107178844Y-149300500D01*
X107178845Y-149300499D01*
X107333497Y-149269737D01*
X107479179Y-149209394D01*
X107610289Y-149121789D01*
X107721789Y-149010289D01*
X107809394Y-148879179D01*
X107869737Y-148733497D01*
X107896322Y-148599846D01*
X107900500Y-148578844D01*
X107900500Y-148421155D01*
X107900499Y-148421153D01*
X107885205Y-148344264D01*
X107869737Y-148266503D01*
X107846452Y-148210288D01*
X107809397Y-148120827D01*
X107809390Y-148120814D01*
X107721789Y-147989711D01*
X107721786Y-147989707D01*
X107610292Y-147878213D01*
X107610288Y-147878210D01*
X107479185Y-147790609D01*
X107479172Y-147790602D01*
X107333501Y-147730264D01*
X107333489Y-147730261D01*
X107178845Y-147699500D01*
X107178842Y-147699500D01*
X107021158Y-147699500D01*
X107021155Y-147699500D01*
X106866510Y-147730261D01*
X106866498Y-147730264D01*
X106720827Y-147790602D01*
X106720814Y-147790609D01*
X106589711Y-147878210D01*
X106589707Y-147878213D01*
X106478213Y-147989707D01*
X106478210Y-147989711D01*
X106390609Y-148120814D01*
X106390602Y-148120827D01*
X106330264Y-148266498D01*
X106330261Y-148266510D01*
X106299500Y-148421153D01*
X105416323Y-148421153D01*
X105389738Y-148287508D01*
X105389737Y-148287507D01*
X105389737Y-148287503D01*
X105386150Y-148278842D01*
X105329397Y-148141827D01*
X105329390Y-148141814D01*
X105241789Y-148010711D01*
X105241786Y-148010707D01*
X105130292Y-147899213D01*
X105130288Y-147899210D01*
X104999185Y-147811609D01*
X104999172Y-147811602D01*
X104853501Y-147751264D01*
X104853489Y-147751261D01*
X104698845Y-147720500D01*
X104698842Y-147720500D01*
X104541158Y-147720500D01*
X104541155Y-147720500D01*
X104386510Y-147751261D01*
X104386498Y-147751264D01*
X104240827Y-147811602D01*
X104240814Y-147811609D01*
X104109711Y-147899210D01*
X104109707Y-147899213D01*
X103998213Y-148010707D01*
X103998210Y-148010711D01*
X103910609Y-148141814D01*
X103910602Y-148141827D01*
X103850264Y-148287498D01*
X103850261Y-148287510D01*
X103819500Y-148442153D01*
X102800500Y-148442153D01*
X102800500Y-148421155D01*
X102800499Y-148421153D01*
X102785205Y-148344264D01*
X102769737Y-148266503D01*
X102746452Y-148210288D01*
X102709397Y-148120827D01*
X102709390Y-148120814D01*
X102621789Y-147989711D01*
X102621786Y-147989707D01*
X102510292Y-147878213D01*
X102510288Y-147878210D01*
X102379185Y-147790609D01*
X102379172Y-147790602D01*
X102233501Y-147730264D01*
X102233489Y-147730261D01*
X102078845Y-147699500D01*
X102078842Y-147699500D01*
X101921158Y-147699500D01*
X101921155Y-147699500D01*
X101766510Y-147730261D01*
X101766498Y-147730264D01*
X101620827Y-147790602D01*
X101620814Y-147790609D01*
X101489711Y-147878210D01*
X101489707Y-147878213D01*
X101378213Y-147989707D01*
X101378210Y-147989711D01*
X101290609Y-148120814D01*
X101290602Y-148120827D01*
X101230264Y-148266498D01*
X101230261Y-148266510D01*
X101199500Y-148421153D01*
X100280608Y-148421153D01*
X100277315Y-148404602D01*
X100269737Y-148366503D01*
X100269735Y-148366498D01*
X100209397Y-148220827D01*
X100209390Y-148220814D01*
X100121789Y-148089711D01*
X100121786Y-148089707D01*
X100010292Y-147978213D01*
X100010288Y-147978210D01*
X99879185Y-147890609D01*
X99879172Y-147890602D01*
X99733501Y-147830264D01*
X99733489Y-147830261D01*
X99578845Y-147799500D01*
X99578842Y-147799500D01*
X99421158Y-147799500D01*
X99421155Y-147799500D01*
X99266510Y-147830261D01*
X99266498Y-147830264D01*
X99120827Y-147890602D01*
X99120814Y-147890609D01*
X98989711Y-147978210D01*
X98989707Y-147978213D01*
X98878213Y-148089707D01*
X98878210Y-148089711D01*
X98790609Y-148220814D01*
X98790602Y-148220827D01*
X98730264Y-148366498D01*
X98730261Y-148366510D01*
X98699500Y-148521153D01*
X97750953Y-148521153D01*
X97709397Y-148420827D01*
X97709390Y-148420814D01*
X97621789Y-148289711D01*
X97621786Y-148289707D01*
X97510292Y-148178213D01*
X97510288Y-148178210D01*
X97379185Y-148090609D01*
X97379172Y-148090602D01*
X97233501Y-148030264D01*
X97233489Y-148030261D01*
X97078845Y-147999500D01*
X97078842Y-147999500D01*
X96921158Y-147999500D01*
X96921155Y-147999500D01*
X96766510Y-148030261D01*
X96766498Y-148030264D01*
X96620827Y-148090602D01*
X96620814Y-148090609D01*
X96489711Y-148178210D01*
X96489707Y-148178213D01*
X96378213Y-148289707D01*
X96378210Y-148289711D01*
X96290609Y-148420814D01*
X96290602Y-148420827D01*
X96230264Y-148566498D01*
X96230261Y-148566510D01*
X96199500Y-148721153D01*
X95100262Y-148721153D01*
X95021789Y-148603711D01*
X95021786Y-148603707D01*
X94910292Y-148492213D01*
X94910288Y-148492210D01*
X94779185Y-148404609D01*
X94779172Y-148404602D01*
X94633501Y-148344264D01*
X94633489Y-148344261D01*
X94478845Y-148313500D01*
X94478842Y-148313500D01*
X94321158Y-148313500D01*
X94321155Y-148313500D01*
X94166510Y-148344261D01*
X94166498Y-148344264D01*
X94020827Y-148404602D01*
X94020814Y-148404609D01*
X93889711Y-148492210D01*
X93889707Y-148492213D01*
X93778213Y-148603707D01*
X93778210Y-148603711D01*
X93690609Y-148734814D01*
X93690602Y-148734827D01*
X93630264Y-148880498D01*
X93630261Y-148880510D01*
X93599500Y-149035153D01*
X92656752Y-149035153D01*
X92609397Y-148920827D01*
X92609390Y-148920814D01*
X92521789Y-148789711D01*
X92521786Y-148789707D01*
X92410292Y-148678213D01*
X92410288Y-148678210D01*
X92279185Y-148590609D01*
X92279172Y-148590602D01*
X92133501Y-148530264D01*
X92133489Y-148530261D01*
X91978845Y-148499500D01*
X91978842Y-148499500D01*
X91821158Y-148499500D01*
X91821155Y-148499500D01*
X91666510Y-148530261D01*
X91666498Y-148530264D01*
X91520827Y-148590602D01*
X91520814Y-148590609D01*
X91389711Y-148678210D01*
X91389707Y-148678213D01*
X91278213Y-148789707D01*
X91278210Y-148789711D01*
X91190609Y-148920814D01*
X91190602Y-148920827D01*
X91130264Y-149066498D01*
X91130261Y-149066510D01*
X91099500Y-149221153D01*
X62000500Y-149221153D01*
X62000500Y-149201456D01*
X61962052Y-149008170D01*
X61962051Y-149008169D01*
X61962051Y-149008165D01*
X61949200Y-148977139D01*
X61886635Y-148826092D01*
X61886628Y-148826079D01*
X61777139Y-148662218D01*
X61777136Y-148662214D01*
X61637785Y-148522863D01*
X61637781Y-148522860D01*
X61473920Y-148413371D01*
X61473907Y-148413364D01*
X61291839Y-148337950D01*
X61291829Y-148337947D01*
X61098543Y-148299500D01*
X61098541Y-148299500D01*
X60901459Y-148299500D01*
X60901457Y-148299500D01*
X60708170Y-148337947D01*
X60708160Y-148337950D01*
X60526092Y-148413364D01*
X60526079Y-148413371D01*
X60362218Y-148522860D01*
X60362214Y-148522863D01*
X60222863Y-148662214D01*
X60222860Y-148662218D01*
X60113371Y-148826079D01*
X60113364Y-148826092D01*
X60037950Y-149008160D01*
X60037947Y-149008170D01*
X59999500Y-149201456D01*
X59999500Y-149201459D01*
X59999500Y-149398541D01*
X59999500Y-149398543D01*
X59999499Y-149398543D01*
X46100500Y-149398543D01*
X46100500Y-147921153D01*
X52299500Y-147921153D01*
X52299500Y-148078846D01*
X52330261Y-148233489D01*
X52330264Y-148233501D01*
X52390602Y-148379172D01*
X52390609Y-148379185D01*
X52478210Y-148510288D01*
X52478213Y-148510292D01*
X52589707Y-148621786D01*
X52589711Y-148621789D01*
X52720814Y-148709390D01*
X52720827Y-148709397D01*
X52866498Y-148769735D01*
X52866503Y-148769737D01*
X53021153Y-148800499D01*
X53021156Y-148800500D01*
X53021158Y-148800500D01*
X53178844Y-148800500D01*
X53178845Y-148800499D01*
X53333497Y-148769737D01*
X53479179Y-148709394D01*
X53610289Y-148621789D01*
X53721789Y-148510289D01*
X53809394Y-148379179D01*
X53869737Y-148233497D01*
X53884715Y-148158194D01*
X53892084Y-148121153D01*
X62299500Y-148121153D01*
X62299500Y-148278846D01*
X62330261Y-148433489D01*
X62330264Y-148433501D01*
X62390602Y-148579172D01*
X62390609Y-148579185D01*
X62478210Y-148710288D01*
X62478213Y-148710292D01*
X62589707Y-148821786D01*
X62589711Y-148821789D01*
X62720814Y-148909390D01*
X62720827Y-148909397D01*
X62866498Y-148969735D01*
X62866503Y-148969737D01*
X63021153Y-149000499D01*
X63021156Y-149000500D01*
X63021158Y-149000500D01*
X63178844Y-149000500D01*
X63178845Y-149000499D01*
X63333497Y-148969737D01*
X63451592Y-148920821D01*
X63479172Y-148909397D01*
X63479172Y-148909396D01*
X63479179Y-148909394D01*
X63610289Y-148821789D01*
X63721789Y-148710289D01*
X63809394Y-148579179D01*
X63869737Y-148433497D01*
X63900500Y-148278842D01*
X63900500Y-148121158D01*
X63900500Y-148121155D01*
X63900499Y-148121153D01*
X63892150Y-148079179D01*
X63869737Y-147966503D01*
X63850955Y-147921158D01*
X63809397Y-147820827D01*
X63809390Y-147820814D01*
X63721789Y-147689711D01*
X63721786Y-147689707D01*
X63610292Y-147578213D01*
X63610288Y-147578210D01*
X63479185Y-147490609D01*
X63479172Y-147490602D01*
X63333501Y-147430264D01*
X63333489Y-147430261D01*
X63178845Y-147399500D01*
X63178842Y-147399500D01*
X63021158Y-147399500D01*
X63021155Y-147399500D01*
X62866510Y-147430261D01*
X62866498Y-147430264D01*
X62720827Y-147490602D01*
X62720814Y-147490609D01*
X62589711Y-147578210D01*
X62589707Y-147578213D01*
X62478213Y-147689707D01*
X62478210Y-147689711D01*
X62390609Y-147820814D01*
X62390602Y-147820827D01*
X62330264Y-147966498D01*
X62330261Y-147966510D01*
X62299500Y-148121153D01*
X53892084Y-148121153D01*
X53898107Y-148090875D01*
X53898107Y-148090874D01*
X53900500Y-148078844D01*
X53900500Y-147921155D01*
X53900499Y-147921153D01*
X53869737Y-147766503D01*
X53863425Y-147751264D01*
X53809397Y-147620827D01*
X53809390Y-147620814D01*
X53721789Y-147489711D01*
X53721786Y-147489707D01*
X53610292Y-147378213D01*
X53610288Y-147378210D01*
X53479185Y-147290609D01*
X53479172Y-147290602D01*
X53333501Y-147230264D01*
X53333489Y-147230261D01*
X53178845Y-147199500D01*
X53178842Y-147199500D01*
X53021158Y-147199500D01*
X53021155Y-147199500D01*
X52866510Y-147230261D01*
X52866498Y-147230264D01*
X52720827Y-147290602D01*
X52720814Y-147290609D01*
X52589711Y-147378210D01*
X52589707Y-147378213D01*
X52478213Y-147489707D01*
X52478210Y-147489711D01*
X52390609Y-147620814D01*
X52390602Y-147620827D01*
X52330264Y-147766498D01*
X52330261Y-147766510D01*
X52299500Y-147921153D01*
X46100500Y-147921153D01*
X46100500Y-146624500D01*
X46120185Y-146557461D01*
X46172989Y-146511706D01*
X46224500Y-146500500D01*
X47665890Y-146500500D01*
X47665892Y-146500500D01*
X47793186Y-146466392D01*
X47907314Y-146400500D01*
X48000500Y-146307314D01*
X48066392Y-146193186D01*
X48100500Y-146065892D01*
X48100500Y-145921153D01*
X52099500Y-145921153D01*
X52099500Y-146078846D01*
X52130261Y-146233489D01*
X52130264Y-146233501D01*
X52190602Y-146379172D01*
X52190609Y-146379185D01*
X52278210Y-146510288D01*
X52278213Y-146510292D01*
X52389707Y-146621786D01*
X52389711Y-146621789D01*
X52520814Y-146709390D01*
X52520827Y-146709397D01*
X52606550Y-146744904D01*
X52666503Y-146769737D01*
X52821153Y-146800499D01*
X52821156Y-146800500D01*
X52821158Y-146800500D01*
X52978844Y-146800500D01*
X52978845Y-146800499D01*
X53133497Y-146769737D01*
X53279179Y-146709394D01*
X53410289Y-146621789D01*
X53521789Y-146510289D01*
X53609394Y-146379179D01*
X53669737Y-146233497D01*
X53700500Y-146078842D01*
X53700500Y-146025154D01*
X53720185Y-145958115D01*
X53772989Y-145912360D01*
X53777009Y-145910609D01*
X53779943Y-145909394D01*
X53911053Y-145821789D01*
X53993382Y-145739459D01*
X54054703Y-145705976D01*
X54124395Y-145710960D01*
X54128514Y-145712581D01*
X54258683Y-145766498D01*
X54266503Y-145769737D01*
X54389280Y-145794159D01*
X54421153Y-145800499D01*
X54421156Y-145800500D01*
X54421158Y-145800500D01*
X54578844Y-145800500D01*
X54578845Y-145800499D01*
X54733497Y-145769737D01*
X54871485Y-145712581D01*
X54879172Y-145709397D01*
X54879172Y-145709396D01*
X54879179Y-145709394D01*
X55010289Y-145621789D01*
X55010925Y-145621153D01*
X56123500Y-145621153D01*
X56123500Y-145778846D01*
X56154261Y-145933489D01*
X56154264Y-145933501D01*
X56214602Y-146079172D01*
X56214609Y-146079185D01*
X56302210Y-146210288D01*
X56302213Y-146210292D01*
X56413707Y-146321786D01*
X56413711Y-146321789D01*
X56544814Y-146409390D01*
X56544827Y-146409397D01*
X56614254Y-146438154D01*
X56690503Y-146469737D01*
X56817533Y-146495005D01*
X56845153Y-146500499D01*
X56845156Y-146500500D01*
X56845158Y-146500500D01*
X57002844Y-146500500D01*
X57002845Y-146500499D01*
X57157497Y-146469737D01*
X57275592Y-146420821D01*
X57303172Y-146409397D01*
X57303172Y-146409396D01*
X57303179Y-146409394D01*
X57434289Y-146321789D01*
X57534925Y-146221153D01*
X60899500Y-146221153D01*
X60899500Y-146378846D01*
X60930261Y-146533489D01*
X60930264Y-146533501D01*
X60990602Y-146679172D01*
X60990609Y-146679185D01*
X61078210Y-146810288D01*
X61078213Y-146810292D01*
X61189707Y-146921786D01*
X61189711Y-146921789D01*
X61320814Y-147009390D01*
X61320827Y-147009397D01*
X61458683Y-147066498D01*
X61466503Y-147069737D01*
X61621153Y-147100499D01*
X61621156Y-147100500D01*
X61621158Y-147100500D01*
X61778844Y-147100500D01*
X61778845Y-147100499D01*
X61933497Y-147069737D01*
X62079179Y-147009394D01*
X62210289Y-146921789D01*
X62321789Y-146810289D01*
X62409394Y-146679179D01*
X62469737Y-146533497D01*
X62476301Y-146500499D01*
X62478383Y-146490033D01*
X62510768Y-146428122D01*
X62571483Y-146393548D01*
X62641253Y-146397287D01*
X62697925Y-146438154D01*
X62721617Y-146490033D01*
X62730261Y-146533489D01*
X62730264Y-146533501D01*
X62790602Y-146679172D01*
X62790609Y-146679185D01*
X62878210Y-146810288D01*
X62878213Y-146810292D01*
X62989707Y-146921786D01*
X62989711Y-146921789D01*
X63120814Y-147009390D01*
X63120827Y-147009397D01*
X63258683Y-147066498D01*
X63266503Y-147069737D01*
X63421153Y-147100499D01*
X63421156Y-147100500D01*
X63421158Y-147100500D01*
X63578844Y-147100500D01*
X63578845Y-147100499D01*
X63733497Y-147069737D01*
X63879179Y-147009394D01*
X64010289Y-146921789D01*
X64121789Y-146810289D01*
X64209394Y-146679179D01*
X64209396Y-146679172D01*
X64212264Y-146673809D01*
X64213360Y-146674394D01*
X64253113Y-146625058D01*
X64319405Y-146602988D01*
X64387106Y-146620263D01*
X64392731Y-146623807D01*
X64520814Y-146709390D01*
X64520827Y-146709397D01*
X64606550Y-146744904D01*
X64666503Y-146769737D01*
X64821153Y-146800499D01*
X64821156Y-146800500D01*
X64821158Y-146800500D01*
X64978844Y-146800500D01*
X64978845Y-146800499D01*
X65133497Y-146769737D01*
X65250923Y-146721097D01*
X65320392Y-146713629D01*
X65382871Y-146744904D01*
X65418523Y-146804993D01*
X65416029Y-146874818D01*
X65401478Y-146904549D01*
X65390608Y-146920816D01*
X65390602Y-146920827D01*
X65330264Y-147066498D01*
X65330261Y-147066510D01*
X65299500Y-147221153D01*
X65299500Y-147378846D01*
X65330261Y-147533489D01*
X65330264Y-147533501D01*
X65390602Y-147679172D01*
X65390609Y-147679185D01*
X65478210Y-147810288D01*
X65478213Y-147810292D01*
X65589707Y-147921786D01*
X65589711Y-147921789D01*
X65720814Y-148009390D01*
X65720827Y-148009397D01*
X65866498Y-148069735D01*
X65866503Y-148069737D01*
X66021153Y-148100499D01*
X66021156Y-148100500D01*
X66021158Y-148100500D01*
X66178844Y-148100500D01*
X66178845Y-148100499D01*
X66333497Y-148069737D01*
X66446166Y-148023067D01*
X66479172Y-148009397D01*
X66479172Y-148009396D01*
X66479179Y-148009394D01*
X66610289Y-147921789D01*
X66721789Y-147810289D01*
X66809394Y-147679179D01*
X66869737Y-147533497D01*
X66900500Y-147378842D01*
X66900500Y-147221158D01*
X66900500Y-147221155D01*
X66900499Y-147221153D01*
X66878447Y-147110292D01*
X66869737Y-147066503D01*
X66833569Y-146979185D01*
X66809397Y-146920827D01*
X66809390Y-146920814D01*
X66721789Y-146789711D01*
X66721786Y-146789707D01*
X66610292Y-146678213D01*
X66610288Y-146678210D01*
X66520429Y-146618168D01*
X66479185Y-146590609D01*
X66479172Y-146590602D01*
X66333501Y-146530264D01*
X66333489Y-146530261D01*
X66287701Y-146521153D01*
X69599500Y-146521153D01*
X69599500Y-146678846D01*
X69630261Y-146833489D01*
X69630264Y-146833501D01*
X69690602Y-146979172D01*
X69690609Y-146979185D01*
X69778210Y-147110288D01*
X69778213Y-147110292D01*
X69889707Y-147221786D01*
X69889711Y-147221789D01*
X70020814Y-147309390D01*
X70020827Y-147309397D01*
X70166498Y-147369735D01*
X70166503Y-147369737D01*
X70316131Y-147399500D01*
X70321153Y-147400499D01*
X70321156Y-147400500D01*
X70321158Y-147400500D01*
X70478844Y-147400500D01*
X70478845Y-147400499D01*
X70633497Y-147369737D01*
X70751592Y-147320821D01*
X70779172Y-147309397D01*
X70779172Y-147309396D01*
X70779179Y-147309394D01*
X70910289Y-147221789D01*
X71021789Y-147110289D01*
X71109394Y-146979179D01*
X71169737Y-146833497D01*
X71192083Y-146721158D01*
X71192084Y-146721153D01*
X71699500Y-146721153D01*
X71699500Y-146878846D01*
X71730261Y-147033489D01*
X71730264Y-147033501D01*
X71790602Y-147179172D01*
X71790609Y-147179185D01*
X71878210Y-147310288D01*
X71878213Y-147310292D01*
X71989707Y-147421786D01*
X71989711Y-147421789D01*
X72120814Y-147509390D01*
X72120827Y-147509397D01*
X72266498Y-147569735D01*
X72266503Y-147569737D01*
X72396982Y-147595691D01*
X72421153Y-147600499D01*
X72421156Y-147600500D01*
X72421158Y-147600500D01*
X72578844Y-147600500D01*
X72578845Y-147600499D01*
X72733497Y-147569737D01*
X72879179Y-147509394D01*
X73010289Y-147421789D01*
X73121789Y-147310289D01*
X73209394Y-147179179D01*
X73269737Y-147033497D01*
X73300500Y-146878842D01*
X73300500Y-146794168D01*
X73320185Y-146727129D01*
X73372989Y-146681374D01*
X73442147Y-146671430D01*
X73493392Y-146691067D01*
X73520812Y-146709389D01*
X73520827Y-146709397D01*
X73606550Y-146744904D01*
X73666503Y-146769737D01*
X73821153Y-146800499D01*
X73821156Y-146800500D01*
X73821158Y-146800500D01*
X73978844Y-146800500D01*
X73978845Y-146800499D01*
X74133497Y-146769737D01*
X74250790Y-146721153D01*
X77899500Y-146721153D01*
X77899500Y-146878846D01*
X77930261Y-147033489D01*
X77930264Y-147033501D01*
X77990602Y-147179172D01*
X77990609Y-147179185D01*
X78078210Y-147310288D01*
X78078213Y-147310292D01*
X78189707Y-147421786D01*
X78189711Y-147421789D01*
X78320814Y-147509390D01*
X78320827Y-147509397D01*
X78466498Y-147569735D01*
X78466503Y-147569737D01*
X78596982Y-147595691D01*
X78621153Y-147600499D01*
X78621156Y-147600500D01*
X78621158Y-147600500D01*
X78778844Y-147600500D01*
X78778845Y-147600499D01*
X78933497Y-147569737D01*
X79079179Y-147509394D01*
X79210289Y-147421789D01*
X79321789Y-147310289D01*
X79409394Y-147179179D01*
X79469737Y-147033497D01*
X79500500Y-146878842D01*
X79500500Y-146721158D01*
X79500500Y-146721155D01*
X79500499Y-146721153D01*
X80599500Y-146721153D01*
X80599500Y-146878846D01*
X80630261Y-147033489D01*
X80630264Y-147033501D01*
X80690602Y-147179172D01*
X80690609Y-147179185D01*
X80778210Y-147310288D01*
X80778213Y-147310292D01*
X80889707Y-147421786D01*
X80889711Y-147421789D01*
X81020814Y-147509390D01*
X81020827Y-147509397D01*
X81166498Y-147569735D01*
X81166503Y-147569737D01*
X81296982Y-147595691D01*
X81321153Y-147600499D01*
X81321156Y-147600500D01*
X81321158Y-147600500D01*
X81478844Y-147600500D01*
X81478845Y-147600499D01*
X81633497Y-147569737D01*
X81779179Y-147509394D01*
X81910289Y-147421789D01*
X82021789Y-147310289D01*
X82109394Y-147179179D01*
X82169737Y-147033497D01*
X82200500Y-146878842D01*
X82200500Y-146727350D01*
X82220185Y-146660311D01*
X82272989Y-146614556D01*
X82342147Y-146604612D01*
X82393391Y-146624248D01*
X82520814Y-146709390D01*
X82520827Y-146709397D01*
X82606550Y-146744904D01*
X82666503Y-146769737D01*
X82821153Y-146800499D01*
X82821156Y-146800500D01*
X82821158Y-146800500D01*
X82978844Y-146800500D01*
X82978845Y-146800499D01*
X83133497Y-146769737D01*
X83279179Y-146709394D01*
X83410289Y-146621789D01*
X83410925Y-146621153D01*
X87799500Y-146621153D01*
X87799500Y-146778846D01*
X87830261Y-146933489D01*
X87830264Y-146933501D01*
X87890602Y-147079172D01*
X87890609Y-147079185D01*
X87978210Y-147210288D01*
X87978213Y-147210292D01*
X88089707Y-147321786D01*
X88089711Y-147321789D01*
X88220814Y-147409390D01*
X88220827Y-147409397D01*
X88358683Y-147466498D01*
X88366503Y-147469737D01*
X88521153Y-147500499D01*
X88521156Y-147500500D01*
X88521158Y-147500500D01*
X88678844Y-147500500D01*
X88678845Y-147500499D01*
X88833497Y-147469737D01*
X88979179Y-147409394D01*
X89110289Y-147321789D01*
X89221789Y-147210289D01*
X89309394Y-147079179D01*
X89369737Y-146933497D01*
X89400500Y-146778842D01*
X89400500Y-146721153D01*
X89699500Y-146721153D01*
X89699500Y-146878846D01*
X89730261Y-147033489D01*
X89730264Y-147033501D01*
X89790602Y-147179172D01*
X89790609Y-147179185D01*
X89878210Y-147310288D01*
X89878213Y-147310292D01*
X89989707Y-147421786D01*
X89989711Y-147421789D01*
X90120814Y-147509390D01*
X90120827Y-147509397D01*
X90266498Y-147569735D01*
X90266503Y-147569737D01*
X90396982Y-147595691D01*
X90421153Y-147600499D01*
X90421156Y-147600500D01*
X90421158Y-147600500D01*
X90578844Y-147600500D01*
X90578845Y-147600499D01*
X90733497Y-147569737D01*
X90879179Y-147509394D01*
X91010289Y-147421789D01*
X91121789Y-147310289D01*
X91209394Y-147179179D01*
X91269737Y-147033497D01*
X91300500Y-146878842D01*
X91300500Y-146794168D01*
X91320185Y-146727129D01*
X91372989Y-146681374D01*
X91442147Y-146671430D01*
X91493392Y-146691067D01*
X91520812Y-146709389D01*
X91520827Y-146709397D01*
X91606550Y-146744904D01*
X91666503Y-146769737D01*
X91821153Y-146800499D01*
X91821156Y-146800500D01*
X91821158Y-146800500D01*
X91978844Y-146800500D01*
X91978845Y-146800499D01*
X92133497Y-146769737D01*
X92279179Y-146709394D01*
X92410289Y-146621789D01*
X92410925Y-146621153D01*
X96499500Y-146621153D01*
X96499500Y-146778846D01*
X96530261Y-146933489D01*
X96530264Y-146933501D01*
X96590602Y-147079172D01*
X96590609Y-147079185D01*
X96678210Y-147210288D01*
X96678213Y-147210292D01*
X96789707Y-147321786D01*
X96789711Y-147321789D01*
X96920814Y-147409390D01*
X96920827Y-147409397D01*
X97058683Y-147466498D01*
X97066503Y-147469737D01*
X97221153Y-147500499D01*
X97221156Y-147500500D01*
X97221158Y-147500500D01*
X97378844Y-147500500D01*
X97378845Y-147500499D01*
X97533497Y-147469737D01*
X97679179Y-147409394D01*
X97810289Y-147321789D01*
X97921789Y-147210289D01*
X98009394Y-147079179D01*
X98069737Y-146933497D01*
X98100500Y-146778842D01*
X98100500Y-146632153D01*
X98699500Y-146632153D01*
X98699500Y-146789846D01*
X98730261Y-146944489D01*
X98730264Y-146944501D01*
X98790602Y-147090172D01*
X98790609Y-147090185D01*
X98878210Y-147221288D01*
X98878213Y-147221292D01*
X98989707Y-147332786D01*
X98989711Y-147332789D01*
X99120814Y-147420390D01*
X99120827Y-147420397D01*
X99266498Y-147480735D01*
X99266503Y-147480737D01*
X99410586Y-147509397D01*
X99421153Y-147511499D01*
X99421156Y-147511500D01*
X99421158Y-147511500D01*
X99578844Y-147511500D01*
X99578845Y-147511499D01*
X99733497Y-147480737D01*
X99875811Y-147421789D01*
X99879172Y-147420397D01*
X99879172Y-147420396D01*
X99879179Y-147420394D01*
X100010289Y-147332789D01*
X100121789Y-147221289D01*
X100209394Y-147090179D01*
X100214351Y-147078213D01*
X100242856Y-147009394D01*
X100269737Y-146944497D01*
X100300500Y-146789842D01*
X100300500Y-146789835D01*
X100301097Y-146783782D01*
X100303480Y-146784016D01*
X100320185Y-146727129D01*
X100372989Y-146681374D01*
X100442147Y-146671430D01*
X100493392Y-146691067D01*
X100520812Y-146709389D01*
X100520827Y-146709397D01*
X100606550Y-146744904D01*
X100666503Y-146769737D01*
X100821153Y-146800499D01*
X100821156Y-146800500D01*
X100821158Y-146800500D01*
X100978844Y-146800500D01*
X100978845Y-146800499D01*
X101133497Y-146769737D01*
X101279179Y-146709394D01*
X101410289Y-146621789D01*
X101410925Y-146621153D01*
X105299500Y-146621153D01*
X105299500Y-146778846D01*
X105330261Y-146933489D01*
X105330264Y-146933501D01*
X105390602Y-147079172D01*
X105390609Y-147079185D01*
X105478210Y-147210288D01*
X105478213Y-147210292D01*
X105589707Y-147321786D01*
X105589711Y-147321789D01*
X105720814Y-147409390D01*
X105720827Y-147409397D01*
X105858683Y-147466498D01*
X105866503Y-147469737D01*
X106021153Y-147500499D01*
X106021156Y-147500500D01*
X106021158Y-147500500D01*
X106178844Y-147500500D01*
X106178845Y-147500499D01*
X106333497Y-147469737D01*
X106479179Y-147409394D01*
X106610289Y-147321789D01*
X106721789Y-147210289D01*
X106809394Y-147079179D01*
X106869737Y-146933497D01*
X106900500Y-146778842D01*
X106900500Y-146721153D01*
X107699500Y-146721153D01*
X107699500Y-146878846D01*
X107730261Y-147033489D01*
X107730264Y-147033501D01*
X107790602Y-147179172D01*
X107790609Y-147179185D01*
X107878210Y-147310288D01*
X107878213Y-147310292D01*
X107989707Y-147421786D01*
X107989711Y-147421789D01*
X108120814Y-147509390D01*
X108120827Y-147509397D01*
X108266498Y-147569735D01*
X108266503Y-147569737D01*
X108396982Y-147595691D01*
X108421153Y-147600499D01*
X108421156Y-147600500D01*
X108421158Y-147600500D01*
X108578844Y-147600500D01*
X108578845Y-147600499D01*
X108733497Y-147569737D01*
X108733509Y-147569731D01*
X108739324Y-147567969D01*
X108740158Y-147570720D01*
X108797359Y-147564497D01*
X108859878Y-147595691D01*
X108895608Y-147655734D01*
X108899500Y-147686555D01*
X108899500Y-147778846D01*
X108930261Y-147933489D01*
X108930264Y-147933501D01*
X108990602Y-148079172D01*
X108990609Y-148079185D01*
X109078210Y-148210288D01*
X109078213Y-148210292D01*
X109189707Y-148321786D01*
X109189711Y-148321789D01*
X109320814Y-148409390D01*
X109320827Y-148409397D01*
X109466498Y-148469735D01*
X109466503Y-148469737D01*
X109577617Y-148491839D01*
X109621153Y-148500499D01*
X109621156Y-148500500D01*
X109621158Y-148500500D01*
X109778844Y-148500500D01*
X109778845Y-148500499D01*
X109933497Y-148469737D01*
X110051592Y-148420821D01*
X110079172Y-148409397D01*
X110079172Y-148409396D01*
X110079179Y-148409394D01*
X110210289Y-148321789D01*
X110233535Y-148298543D01*
X111699499Y-148298543D01*
X111737947Y-148491829D01*
X111737950Y-148491839D01*
X111813364Y-148673907D01*
X111813371Y-148673920D01*
X111922860Y-148837781D01*
X111922863Y-148837785D01*
X112062214Y-148977136D01*
X112062218Y-148977139D01*
X112226079Y-149086628D01*
X112226092Y-149086635D01*
X112361662Y-149142789D01*
X112408165Y-149162051D01*
X112408169Y-149162051D01*
X112408170Y-149162052D01*
X112601456Y-149200500D01*
X112601459Y-149200500D01*
X112798543Y-149200500D01*
X112928582Y-149174632D01*
X112991835Y-149162051D01*
X113173914Y-149086632D01*
X113337782Y-148977139D01*
X113477139Y-148837782D01*
X113586632Y-148673914D01*
X113662051Y-148491835D01*
X113686980Y-148366510D01*
X113700500Y-148298543D01*
X113700500Y-148101456D01*
X113662052Y-147908170D01*
X113662051Y-147908169D01*
X113662051Y-147908165D01*
X113629783Y-147830263D01*
X113586635Y-147726092D01*
X113586628Y-147726079D01*
X113477139Y-147562218D01*
X113477136Y-147562214D01*
X113337785Y-147422863D01*
X113337781Y-147422860D01*
X113173920Y-147313371D01*
X113173907Y-147313364D01*
X112991839Y-147237950D01*
X112991829Y-147237947D01*
X112798543Y-147199500D01*
X112798541Y-147199500D01*
X112601459Y-147199500D01*
X112601457Y-147199500D01*
X112408170Y-147237947D01*
X112408160Y-147237950D01*
X112226092Y-147313364D01*
X112226079Y-147313371D01*
X112062218Y-147422860D01*
X112062214Y-147422863D01*
X111922863Y-147562214D01*
X111922860Y-147562218D01*
X111813371Y-147726079D01*
X111813364Y-147726092D01*
X111737950Y-147908160D01*
X111737947Y-147908170D01*
X111699500Y-148101456D01*
X111699500Y-148101459D01*
X111699500Y-148298541D01*
X111699500Y-148298543D01*
X111699499Y-148298543D01*
X110233535Y-148298543D01*
X110321789Y-148210289D01*
X110409394Y-148079179D01*
X110469737Y-147933497D01*
X110500500Y-147778842D01*
X110500500Y-147621158D01*
X110500500Y-147621155D01*
X110500499Y-147621153D01*
X110483061Y-147533489D01*
X110469737Y-147466503D01*
X110469735Y-147466498D01*
X110409397Y-147320827D01*
X110409390Y-147320814D01*
X110321789Y-147189711D01*
X110321786Y-147189707D01*
X110210292Y-147078213D01*
X110210288Y-147078210D01*
X110085826Y-146995047D01*
X110041021Y-146941435D01*
X110032314Y-146872110D01*
X110062468Y-146809082D01*
X110121911Y-146772363D01*
X110130511Y-146770330D01*
X110133497Y-146769737D01*
X110279179Y-146709394D01*
X110410289Y-146621789D01*
X110521789Y-146510289D01*
X110609394Y-146379179D01*
X110669737Y-146233497D01*
X110672192Y-146221153D01*
X114399500Y-146221153D01*
X114399500Y-146378846D01*
X114430261Y-146533489D01*
X114430264Y-146533501D01*
X114490602Y-146679172D01*
X114490609Y-146679185D01*
X114578210Y-146810288D01*
X114578213Y-146810292D01*
X114689707Y-146921786D01*
X114689711Y-146921789D01*
X114820814Y-147009390D01*
X114820827Y-147009397D01*
X114958683Y-147066498D01*
X114966503Y-147069737D01*
X115121153Y-147100499D01*
X115121156Y-147100500D01*
X115121158Y-147100500D01*
X115278844Y-147100500D01*
X115278845Y-147100499D01*
X115433497Y-147069737D01*
X115579179Y-147009394D01*
X115710289Y-146921789D01*
X115821789Y-146810289D01*
X115909394Y-146679179D01*
X115969737Y-146533497D01*
X116000500Y-146378842D01*
X116000500Y-146221158D01*
X116000500Y-146221155D01*
X116000499Y-146221153D01*
X115991468Y-146175751D01*
X115969737Y-146066503D01*
X115958581Y-146039569D01*
X115926666Y-145962518D01*
X115909532Y-145921153D01*
X117799500Y-145921153D01*
X117799500Y-146078846D01*
X117830261Y-146233489D01*
X117830264Y-146233501D01*
X117890602Y-146379172D01*
X117890609Y-146379185D01*
X117978210Y-146510288D01*
X117978213Y-146510292D01*
X118089707Y-146621786D01*
X118089711Y-146621789D01*
X118220814Y-146709390D01*
X118220827Y-146709397D01*
X118306550Y-146744904D01*
X118366503Y-146769737D01*
X118521153Y-146800499D01*
X118521156Y-146800500D01*
X118521158Y-146800500D01*
X118678844Y-146800500D01*
X118678845Y-146800499D01*
X118833497Y-146769737D01*
X118979179Y-146709394D01*
X119110289Y-146621789D01*
X119221789Y-146510289D01*
X119309394Y-146379179D01*
X119369737Y-146233497D01*
X119400500Y-146078842D01*
X119400500Y-145921158D01*
X119400500Y-145921155D01*
X119400499Y-145921153D01*
X119376499Y-145800499D01*
X119369737Y-145766503D01*
X119340953Y-145697012D01*
X119309397Y-145620827D01*
X119309390Y-145620814D01*
X119221789Y-145489711D01*
X119221786Y-145489707D01*
X119110292Y-145378213D01*
X119110288Y-145378210D01*
X118979185Y-145290609D01*
X118979172Y-145290602D01*
X118833501Y-145230264D01*
X118833489Y-145230261D01*
X118678845Y-145199500D01*
X118678842Y-145199500D01*
X118521158Y-145199500D01*
X118521155Y-145199500D01*
X118366510Y-145230261D01*
X118366498Y-145230264D01*
X118220827Y-145290602D01*
X118220814Y-145290609D01*
X118089711Y-145378210D01*
X118089707Y-145378213D01*
X117978213Y-145489707D01*
X117978210Y-145489711D01*
X117890609Y-145620814D01*
X117890602Y-145620827D01*
X117830264Y-145766498D01*
X117830261Y-145766510D01*
X117799500Y-145921153D01*
X115909532Y-145921153D01*
X115909395Y-145920823D01*
X115909390Y-145920814D01*
X115821789Y-145789711D01*
X115821786Y-145789707D01*
X115710292Y-145678213D01*
X115710288Y-145678210D01*
X115579185Y-145590609D01*
X115579172Y-145590602D01*
X115433501Y-145530264D01*
X115433489Y-145530261D01*
X115278845Y-145499500D01*
X115278842Y-145499500D01*
X115121158Y-145499500D01*
X115121155Y-145499500D01*
X114966510Y-145530261D01*
X114966498Y-145530264D01*
X114820827Y-145590602D01*
X114820814Y-145590609D01*
X114689711Y-145678210D01*
X114689707Y-145678213D01*
X114578213Y-145789707D01*
X114578210Y-145789711D01*
X114490609Y-145920814D01*
X114490602Y-145920827D01*
X114430264Y-146066498D01*
X114430261Y-146066510D01*
X114399500Y-146221153D01*
X110672192Y-146221153D01*
X110672257Y-146220827D01*
X110678216Y-146190874D01*
X110678216Y-146190873D01*
X110698159Y-146090609D01*
X110700500Y-146078842D01*
X110700500Y-145921158D01*
X110700500Y-145921155D01*
X110700499Y-145921153D01*
X110676499Y-145800499D01*
X110669737Y-145766503D01*
X110640953Y-145697012D01*
X110609397Y-145620827D01*
X110609390Y-145620814D01*
X110521789Y-145489711D01*
X110521786Y-145489707D01*
X110410292Y-145378213D01*
X110410288Y-145378210D01*
X110279185Y-145290609D01*
X110279172Y-145290602D01*
X110133501Y-145230264D01*
X110133489Y-145230261D01*
X109978845Y-145199500D01*
X109978842Y-145199500D01*
X109821158Y-145199500D01*
X109821155Y-145199500D01*
X109666510Y-145230261D01*
X109666498Y-145230264D01*
X109520827Y-145290602D01*
X109520814Y-145290609D01*
X109389711Y-145378210D01*
X109389707Y-145378213D01*
X109278213Y-145489707D01*
X109278210Y-145489711D01*
X109190609Y-145620814D01*
X109190602Y-145620827D01*
X109130264Y-145766498D01*
X109130261Y-145766510D01*
X109099500Y-145921153D01*
X109099500Y-146005831D01*
X109079815Y-146072870D01*
X109027011Y-146118625D01*
X108957853Y-146128569D01*
X108906610Y-146108934D01*
X108879183Y-146090608D01*
X108879172Y-146090602D01*
X108733501Y-146030264D01*
X108733489Y-146030261D01*
X108578845Y-145999500D01*
X108578842Y-145999500D01*
X108421158Y-145999500D01*
X108421155Y-145999500D01*
X108266510Y-146030261D01*
X108266498Y-146030264D01*
X108120827Y-146090602D01*
X108120814Y-146090609D01*
X107989711Y-146178210D01*
X107989707Y-146178213D01*
X107878213Y-146289707D01*
X107878210Y-146289711D01*
X107790609Y-146420814D01*
X107790602Y-146420827D01*
X107730264Y-146566498D01*
X107730261Y-146566510D01*
X107699500Y-146721153D01*
X106900500Y-146721153D01*
X106900500Y-146621158D01*
X106900500Y-146621155D01*
X106900499Y-146621153D01*
X106892095Y-146578902D01*
X106869737Y-146466503D01*
X106842398Y-146400500D01*
X106809397Y-146320827D01*
X106809390Y-146320814D01*
X106721789Y-146189711D01*
X106721786Y-146189707D01*
X106610292Y-146078213D01*
X106610288Y-146078210D01*
X106479185Y-145990609D01*
X106479172Y-145990602D01*
X106333501Y-145930264D01*
X106333489Y-145930261D01*
X106178845Y-145899500D01*
X106178842Y-145899500D01*
X106021158Y-145899500D01*
X106021155Y-145899500D01*
X105866510Y-145930261D01*
X105866498Y-145930264D01*
X105720827Y-145990602D01*
X105720814Y-145990609D01*
X105589711Y-146078210D01*
X105589707Y-146078213D01*
X105478213Y-146189707D01*
X105478210Y-146189711D01*
X105390609Y-146320814D01*
X105390602Y-146320827D01*
X105330264Y-146466498D01*
X105330261Y-146466510D01*
X105299500Y-146621153D01*
X101410925Y-146621153D01*
X101453176Y-146578902D01*
X101504694Y-146527385D01*
X101521786Y-146510292D01*
X101521789Y-146510289D01*
X101609394Y-146379179D01*
X101669737Y-146233497D01*
X101700500Y-146078842D01*
X101700500Y-145921158D01*
X101700500Y-145921155D01*
X101700499Y-145921153D01*
X101676499Y-145800499D01*
X101669737Y-145766503D01*
X101640953Y-145697012D01*
X101609397Y-145620827D01*
X101609390Y-145620814D01*
X101521789Y-145489711D01*
X101521786Y-145489707D01*
X101410292Y-145378213D01*
X101410288Y-145378210D01*
X101279185Y-145290609D01*
X101279172Y-145290602D01*
X101133501Y-145230264D01*
X101133489Y-145230261D01*
X100978845Y-145199500D01*
X100978842Y-145199500D01*
X100821158Y-145199500D01*
X100821155Y-145199500D01*
X100666510Y-145230261D01*
X100666498Y-145230264D01*
X100520827Y-145290602D01*
X100520814Y-145290609D01*
X100389711Y-145378210D01*
X100389707Y-145378213D01*
X100278213Y-145489707D01*
X100278210Y-145489711D01*
X100190609Y-145620814D01*
X100190602Y-145620827D01*
X100130264Y-145766498D01*
X100130261Y-145766510D01*
X100099500Y-145921153D01*
X100098903Y-145927218D01*
X100096518Y-145926983D01*
X100079815Y-145983870D01*
X100027011Y-146029625D01*
X99957853Y-146039569D01*
X99906610Y-146019934D01*
X99879183Y-146001608D01*
X99879172Y-146001602D01*
X99733501Y-145941264D01*
X99733489Y-145941261D01*
X99578845Y-145910500D01*
X99578842Y-145910500D01*
X99421158Y-145910500D01*
X99421155Y-145910500D01*
X99266510Y-145941261D01*
X99266498Y-145941264D01*
X99120827Y-146001602D01*
X99120814Y-146001609D01*
X98989711Y-146089210D01*
X98989707Y-146089213D01*
X98878213Y-146200707D01*
X98878210Y-146200711D01*
X98790609Y-146331814D01*
X98790602Y-146331827D01*
X98730264Y-146477498D01*
X98730261Y-146477510D01*
X98699500Y-146632153D01*
X98100500Y-146632153D01*
X98100500Y-146621158D01*
X98100500Y-146621155D01*
X98100499Y-146621153D01*
X98092095Y-146578902D01*
X98069737Y-146466503D01*
X98042398Y-146400500D01*
X98009397Y-146320827D01*
X98009390Y-146320814D01*
X97921789Y-146189711D01*
X97921786Y-146189707D01*
X97810292Y-146078213D01*
X97810288Y-146078210D01*
X97679185Y-145990609D01*
X97679172Y-145990602D01*
X97533501Y-145930264D01*
X97533489Y-145930261D01*
X97378845Y-145899500D01*
X97378842Y-145899500D01*
X97221158Y-145899500D01*
X97221155Y-145899500D01*
X97066510Y-145930261D01*
X97066498Y-145930264D01*
X96920827Y-145990602D01*
X96920814Y-145990609D01*
X96789711Y-146078210D01*
X96789707Y-146078213D01*
X96678213Y-146189707D01*
X96678210Y-146189711D01*
X96590609Y-146320814D01*
X96590602Y-146320827D01*
X96530264Y-146466498D01*
X96530261Y-146466510D01*
X96499500Y-146621153D01*
X92410925Y-146621153D01*
X92453176Y-146578902D01*
X92504694Y-146527385D01*
X92521786Y-146510292D01*
X92521789Y-146510289D01*
X92609394Y-146379179D01*
X92669737Y-146233497D01*
X92700500Y-146078842D01*
X92700500Y-145921158D01*
X92700500Y-145921155D01*
X92700499Y-145921153D01*
X92676499Y-145800499D01*
X92669737Y-145766503D01*
X92640953Y-145697012D01*
X92609397Y-145620827D01*
X92609390Y-145620814D01*
X92521789Y-145489711D01*
X92521786Y-145489707D01*
X92410292Y-145378213D01*
X92410288Y-145378210D01*
X92279185Y-145290609D01*
X92279172Y-145290602D01*
X92133501Y-145230264D01*
X92133489Y-145230261D01*
X91978845Y-145199500D01*
X91978842Y-145199500D01*
X91821158Y-145199500D01*
X91821155Y-145199500D01*
X91666510Y-145230261D01*
X91666498Y-145230264D01*
X91520827Y-145290602D01*
X91520814Y-145290609D01*
X91389711Y-145378210D01*
X91389707Y-145378213D01*
X91278213Y-145489707D01*
X91278210Y-145489711D01*
X91190609Y-145620814D01*
X91190602Y-145620827D01*
X91130264Y-145766498D01*
X91130261Y-145766510D01*
X91099500Y-145921153D01*
X91099500Y-146005831D01*
X91079815Y-146072870D01*
X91027011Y-146118625D01*
X90957853Y-146128569D01*
X90906610Y-146108934D01*
X90879183Y-146090608D01*
X90879172Y-146090602D01*
X90733501Y-146030264D01*
X90733489Y-146030261D01*
X90578845Y-145999500D01*
X90578842Y-145999500D01*
X90421158Y-145999500D01*
X90421155Y-145999500D01*
X90266510Y-146030261D01*
X90266498Y-146030264D01*
X90120827Y-146090602D01*
X90120814Y-146090609D01*
X89989711Y-146178210D01*
X89989707Y-146178213D01*
X89878213Y-146289707D01*
X89878210Y-146289711D01*
X89790609Y-146420814D01*
X89790602Y-146420827D01*
X89730264Y-146566498D01*
X89730261Y-146566510D01*
X89699500Y-146721153D01*
X89400500Y-146721153D01*
X89400500Y-146621158D01*
X89400500Y-146621155D01*
X89400499Y-146621153D01*
X89392095Y-146578902D01*
X89369737Y-146466503D01*
X89342398Y-146400500D01*
X89309397Y-146320827D01*
X89309390Y-146320814D01*
X89221789Y-146189711D01*
X89221786Y-146189707D01*
X89110292Y-146078213D01*
X89110288Y-146078210D01*
X88979185Y-145990609D01*
X88979172Y-145990602D01*
X88833501Y-145930264D01*
X88833489Y-145930261D01*
X88678845Y-145899500D01*
X88678842Y-145899500D01*
X88521158Y-145899500D01*
X88521155Y-145899500D01*
X88366510Y-145930261D01*
X88366498Y-145930264D01*
X88220827Y-145990602D01*
X88220814Y-145990609D01*
X88089711Y-146078210D01*
X88089707Y-146078213D01*
X87978213Y-146189707D01*
X87978210Y-146189711D01*
X87890609Y-146320814D01*
X87890602Y-146320827D01*
X87830264Y-146466498D01*
X87830261Y-146466510D01*
X87799500Y-146621153D01*
X83410925Y-146621153D01*
X83453176Y-146578902D01*
X83504694Y-146527385D01*
X83521786Y-146510292D01*
X83521789Y-146510289D01*
X83609394Y-146379179D01*
X83669737Y-146233497D01*
X83700500Y-146078842D01*
X83700500Y-145921158D01*
X83700500Y-145921155D01*
X83700499Y-145921153D01*
X83676499Y-145800499D01*
X83669737Y-145766503D01*
X83640953Y-145697012D01*
X83609397Y-145620827D01*
X83609390Y-145620814D01*
X83521789Y-145489711D01*
X83521786Y-145489707D01*
X83410292Y-145378213D01*
X83410288Y-145378210D01*
X83279185Y-145290609D01*
X83279172Y-145290602D01*
X83133501Y-145230264D01*
X83133489Y-145230261D01*
X82978845Y-145199500D01*
X82978842Y-145199500D01*
X82821158Y-145199500D01*
X82821155Y-145199500D01*
X82666510Y-145230261D01*
X82666498Y-145230264D01*
X82520827Y-145290602D01*
X82520814Y-145290609D01*
X82389711Y-145378210D01*
X82389707Y-145378213D01*
X82278213Y-145489707D01*
X82278210Y-145489711D01*
X82190609Y-145620814D01*
X82190602Y-145620827D01*
X82130264Y-145766498D01*
X82130261Y-145766510D01*
X82099500Y-145921153D01*
X82099500Y-146072649D01*
X82079815Y-146139688D01*
X82027011Y-146185443D01*
X81957853Y-146195387D01*
X81906609Y-146175751D01*
X81779185Y-146090609D01*
X81779172Y-146090602D01*
X81633501Y-146030264D01*
X81633489Y-146030261D01*
X81478845Y-145999500D01*
X81478842Y-145999500D01*
X81321158Y-145999500D01*
X81321155Y-145999500D01*
X81166510Y-146030261D01*
X81166498Y-146030264D01*
X81020827Y-146090602D01*
X81020814Y-146090609D01*
X80889711Y-146178210D01*
X80889707Y-146178213D01*
X80778213Y-146289707D01*
X80778210Y-146289711D01*
X80690609Y-146420814D01*
X80690602Y-146420827D01*
X80630264Y-146566498D01*
X80630261Y-146566510D01*
X80599500Y-146721153D01*
X79500499Y-146721153D01*
X79492148Y-146679172D01*
X79469737Y-146566503D01*
X79456062Y-146533489D01*
X79409397Y-146420827D01*
X79409390Y-146420814D01*
X79321789Y-146289711D01*
X79321786Y-146289707D01*
X79210292Y-146178213D01*
X79210288Y-146178210D01*
X79079185Y-146090609D01*
X79079172Y-146090602D01*
X78933501Y-146030264D01*
X78933489Y-146030261D01*
X78778845Y-145999500D01*
X78778842Y-145999500D01*
X78621158Y-145999500D01*
X78621155Y-145999500D01*
X78466510Y-146030261D01*
X78466498Y-146030264D01*
X78320827Y-146090602D01*
X78320814Y-146090609D01*
X78189711Y-146178210D01*
X78189707Y-146178213D01*
X78078213Y-146289707D01*
X78078210Y-146289711D01*
X77990609Y-146420814D01*
X77990602Y-146420827D01*
X77930264Y-146566498D01*
X77930261Y-146566510D01*
X77899500Y-146721153D01*
X74250790Y-146721153D01*
X74279179Y-146709394D01*
X74410289Y-146621789D01*
X74521789Y-146510289D01*
X74609394Y-146379179D01*
X74669737Y-146233497D01*
X74700500Y-146078842D01*
X74700500Y-145921158D01*
X74700500Y-145921155D01*
X74700499Y-145921153D01*
X74676499Y-145800499D01*
X74669737Y-145766503D01*
X74640953Y-145697012D01*
X74609397Y-145620827D01*
X74609390Y-145620814D01*
X74521789Y-145489711D01*
X74521786Y-145489707D01*
X74410292Y-145378213D01*
X74410288Y-145378210D01*
X74279185Y-145290609D01*
X74279172Y-145290602D01*
X74133501Y-145230264D01*
X74133489Y-145230261D01*
X73978845Y-145199500D01*
X73978842Y-145199500D01*
X73821158Y-145199500D01*
X73821155Y-145199500D01*
X73666510Y-145230261D01*
X73666498Y-145230264D01*
X73520827Y-145290602D01*
X73520814Y-145290609D01*
X73389711Y-145378210D01*
X73389707Y-145378213D01*
X73278213Y-145489707D01*
X73278210Y-145489711D01*
X73190609Y-145620814D01*
X73190602Y-145620827D01*
X73130264Y-145766498D01*
X73130261Y-145766510D01*
X73099500Y-145921153D01*
X73099500Y-146005831D01*
X73079815Y-146072870D01*
X73027011Y-146118625D01*
X72957853Y-146128569D01*
X72906610Y-146108934D01*
X72879183Y-146090608D01*
X72879172Y-146090602D01*
X72733501Y-146030264D01*
X72733489Y-146030261D01*
X72578845Y-145999500D01*
X72578842Y-145999500D01*
X72421158Y-145999500D01*
X72421155Y-145999500D01*
X72266510Y-146030261D01*
X72266498Y-146030264D01*
X72120827Y-146090602D01*
X72120814Y-146090609D01*
X71989711Y-146178210D01*
X71989707Y-146178213D01*
X71878213Y-146289707D01*
X71878210Y-146289711D01*
X71790609Y-146420814D01*
X71790602Y-146420827D01*
X71730264Y-146566498D01*
X71730261Y-146566510D01*
X71699500Y-146721153D01*
X71192084Y-146721153D01*
X71198107Y-146690875D01*
X71198107Y-146690874D01*
X71200500Y-146678844D01*
X71200500Y-146521155D01*
X71200499Y-146521153D01*
X71181994Y-146428122D01*
X71169737Y-146366503D01*
X71155374Y-146331827D01*
X71109397Y-146220827D01*
X71109390Y-146220814D01*
X71021789Y-146089711D01*
X71021786Y-146089707D01*
X70910292Y-145978213D01*
X70910288Y-145978210D01*
X70779185Y-145890609D01*
X70779172Y-145890602D01*
X70633501Y-145830264D01*
X70633489Y-145830261D01*
X70478845Y-145799500D01*
X70478842Y-145799500D01*
X70321158Y-145799500D01*
X70321155Y-145799500D01*
X70166510Y-145830261D01*
X70166498Y-145830264D01*
X70020827Y-145890602D01*
X70020814Y-145890609D01*
X69889711Y-145978210D01*
X69889707Y-145978213D01*
X69778213Y-146089707D01*
X69778210Y-146089711D01*
X69690609Y-146220814D01*
X69690602Y-146220827D01*
X69630264Y-146366498D01*
X69630261Y-146366510D01*
X69599500Y-146521153D01*
X66287701Y-146521153D01*
X66178845Y-146499500D01*
X66178842Y-146499500D01*
X66021158Y-146499500D01*
X66021155Y-146499500D01*
X65866510Y-146530261D01*
X65866503Y-146530263D01*
X65749075Y-146578902D01*
X65679606Y-146586370D01*
X65617127Y-146555094D01*
X65581475Y-146495005D01*
X65583970Y-146425180D01*
X65598525Y-146395445D01*
X65609390Y-146379185D01*
X65609390Y-146379184D01*
X65609394Y-146379179D01*
X65669737Y-146233497D01*
X65700500Y-146078842D01*
X65700500Y-145921158D01*
X65700500Y-145921155D01*
X65700499Y-145921153D01*
X65676499Y-145800499D01*
X65669737Y-145766503D01*
X65640953Y-145697012D01*
X65609397Y-145620827D01*
X65609390Y-145620814D01*
X65521789Y-145489711D01*
X65521786Y-145489707D01*
X65410292Y-145378213D01*
X65410288Y-145378210D01*
X65279185Y-145290609D01*
X65279172Y-145290602D01*
X65133501Y-145230264D01*
X65133489Y-145230261D01*
X64978845Y-145199500D01*
X64978842Y-145199500D01*
X64821158Y-145199500D01*
X64821155Y-145199500D01*
X64666510Y-145230261D01*
X64666498Y-145230264D01*
X64520827Y-145290602D01*
X64520814Y-145290609D01*
X64389711Y-145378210D01*
X64389707Y-145378213D01*
X64278213Y-145489707D01*
X64278210Y-145489711D01*
X64190609Y-145620814D01*
X64187736Y-145626191D01*
X64186644Y-145625607D01*
X64146863Y-145674957D01*
X64080566Y-145697012D01*
X64012869Y-145679722D01*
X64007268Y-145676192D01*
X63879185Y-145590609D01*
X63879172Y-145590602D01*
X63733501Y-145530264D01*
X63733489Y-145530261D01*
X63578845Y-145499500D01*
X63578842Y-145499500D01*
X63421158Y-145499500D01*
X63421155Y-145499500D01*
X63266510Y-145530261D01*
X63266498Y-145530264D01*
X63120827Y-145590602D01*
X63120814Y-145590609D01*
X62989711Y-145678210D01*
X62989707Y-145678213D01*
X62878213Y-145789707D01*
X62878210Y-145789711D01*
X62790609Y-145920814D01*
X62790602Y-145920827D01*
X62730264Y-146066498D01*
X62730261Y-146066508D01*
X62721617Y-146109967D01*
X62689232Y-146171878D01*
X62628516Y-146206452D01*
X62558747Y-146202712D01*
X62502075Y-146161845D01*
X62478383Y-146109967D01*
X62469738Y-146066508D01*
X62469737Y-146066507D01*
X62469737Y-146066503D01*
X62458581Y-146039569D01*
X62409397Y-145920827D01*
X62409390Y-145920814D01*
X62321789Y-145789711D01*
X62321786Y-145789707D01*
X62210292Y-145678213D01*
X62210288Y-145678210D01*
X62079185Y-145590609D01*
X62079172Y-145590602D01*
X61933501Y-145530264D01*
X61933489Y-145530261D01*
X61778845Y-145499500D01*
X61778842Y-145499500D01*
X61621158Y-145499500D01*
X61621155Y-145499500D01*
X61466510Y-145530261D01*
X61466498Y-145530264D01*
X61320827Y-145590602D01*
X61320814Y-145590609D01*
X61189711Y-145678210D01*
X61189707Y-145678213D01*
X61078213Y-145789707D01*
X61078210Y-145789711D01*
X60990609Y-145920814D01*
X60990602Y-145920827D01*
X60930264Y-146066498D01*
X60930261Y-146066510D01*
X60899500Y-146221153D01*
X57534925Y-146221153D01*
X57545789Y-146210289D01*
X57626690Y-146089213D01*
X57633390Y-146079185D01*
X57633390Y-146079184D01*
X57633394Y-146079179D01*
X57638643Y-146066508D01*
X57653655Y-146030264D01*
X57693737Y-145933497D01*
X57724500Y-145778842D01*
X57724500Y-145621158D01*
X57724500Y-145621155D01*
X57724499Y-145621153D01*
X57702447Y-145510292D01*
X57693737Y-145466503D01*
X57657569Y-145379185D01*
X57633397Y-145320827D01*
X57633390Y-145320814D01*
X57545789Y-145189711D01*
X57545786Y-145189707D01*
X57434292Y-145078213D01*
X57434288Y-145078210D01*
X57303185Y-144990609D01*
X57303172Y-144990602D01*
X57157501Y-144930264D01*
X57157489Y-144930261D01*
X57002845Y-144899500D01*
X57002842Y-144899500D01*
X56845158Y-144899500D01*
X56845155Y-144899500D01*
X56690510Y-144930261D01*
X56690498Y-144930264D01*
X56544827Y-144990602D01*
X56544814Y-144990609D01*
X56413711Y-145078210D01*
X56413707Y-145078213D01*
X56302213Y-145189707D01*
X56302210Y-145189711D01*
X56214609Y-145320814D01*
X56214602Y-145320827D01*
X56154264Y-145466498D01*
X56154261Y-145466510D01*
X56123500Y-145621153D01*
X55010925Y-145621153D01*
X55041476Y-145590602D01*
X55104694Y-145527385D01*
X55121786Y-145510292D01*
X55121789Y-145510289D01*
X55209394Y-145379179D01*
X55269737Y-145233497D01*
X55300500Y-145078842D01*
X55300500Y-144921158D01*
X55300500Y-144921155D01*
X55300499Y-144921153D01*
X55280543Y-144820827D01*
X55269737Y-144766503D01*
X55237929Y-144689711D01*
X55209397Y-144620827D01*
X55209390Y-144620814D01*
X55121789Y-144489711D01*
X55121786Y-144489707D01*
X55010292Y-144378213D01*
X55010288Y-144378210D01*
X54879185Y-144290609D01*
X54879172Y-144290602D01*
X54733501Y-144230264D01*
X54733489Y-144230261D01*
X54578845Y-144199500D01*
X54578842Y-144199500D01*
X54421158Y-144199500D01*
X54421155Y-144199500D01*
X54266510Y-144230261D01*
X54266498Y-144230264D01*
X54120827Y-144290602D01*
X54120814Y-144290609D01*
X53989711Y-144378210D01*
X53989707Y-144378213D01*
X53907382Y-144460539D01*
X53846059Y-144494024D01*
X53776367Y-144489040D01*
X53772264Y-144487425D01*
X53634261Y-144430263D01*
X53634253Y-144430261D01*
X53479609Y-144399500D01*
X53479606Y-144399500D01*
X53321922Y-144399500D01*
X53321919Y-144399500D01*
X53167274Y-144430261D01*
X53167262Y-144430264D01*
X53021591Y-144490602D01*
X53021578Y-144490609D01*
X52890475Y-144578210D01*
X52890471Y-144578213D01*
X52778977Y-144689707D01*
X52778974Y-144689711D01*
X52691373Y-144820814D01*
X52691366Y-144820827D01*
X52631028Y-144966498D01*
X52631025Y-144966510D01*
X52600264Y-145121153D01*
X52600264Y-145174845D01*
X52580579Y-145241884D01*
X52527775Y-145287639D01*
X52523720Y-145289405D01*
X52520821Y-145290605D01*
X52520818Y-145290607D01*
X52389715Y-145378207D01*
X52389707Y-145378213D01*
X52278213Y-145489707D01*
X52278210Y-145489711D01*
X52190609Y-145620814D01*
X52190602Y-145620827D01*
X52130264Y-145766498D01*
X52130261Y-145766510D01*
X52099500Y-145921153D01*
X48100500Y-145921153D01*
X48100500Y-142103439D01*
X48120185Y-142036400D01*
X48172989Y-141990645D01*
X48242147Y-141980701D01*
X48305703Y-142009726D01*
X48327602Y-142034548D01*
X48378210Y-142110288D01*
X48378213Y-142110292D01*
X48489707Y-142221786D01*
X48489711Y-142221789D01*
X48620814Y-142309390D01*
X48620827Y-142309397D01*
X48766498Y-142369735D01*
X48766503Y-142369737D01*
X48921153Y-142400499D01*
X48921156Y-142400500D01*
X48921158Y-142400500D01*
X49078844Y-142400500D01*
X49078845Y-142400499D01*
X49233497Y-142369737D01*
X49379179Y-142309394D01*
X49510289Y-142221789D01*
X49621789Y-142110289D01*
X49709394Y-141979179D01*
X49733429Y-141921153D01*
X51199500Y-141921153D01*
X51199500Y-142078846D01*
X51230261Y-142233489D01*
X51230264Y-142233501D01*
X51290602Y-142379172D01*
X51290609Y-142379185D01*
X51378210Y-142510288D01*
X51378213Y-142510292D01*
X51489707Y-142621786D01*
X51489711Y-142621789D01*
X51620814Y-142709390D01*
X51620827Y-142709397D01*
X51766498Y-142769735D01*
X51766503Y-142769737D01*
X51921153Y-142800499D01*
X51921156Y-142800500D01*
X51921158Y-142800500D01*
X52078844Y-142800500D01*
X52078845Y-142800499D01*
X52233497Y-142769737D01*
X52379179Y-142709394D01*
X52510289Y-142621789D01*
X52621789Y-142510289D01*
X52709394Y-142379179D01*
X52769737Y-142233497D01*
X52800500Y-142078842D01*
X52800500Y-141921158D01*
X52800500Y-141921155D01*
X52800499Y-141921153D01*
X58099500Y-141921153D01*
X58099500Y-142078846D01*
X58130261Y-142233489D01*
X58130264Y-142233501D01*
X58190602Y-142379172D01*
X58190609Y-142379185D01*
X58278210Y-142510288D01*
X58278213Y-142510292D01*
X58389707Y-142621786D01*
X58389711Y-142621789D01*
X58520814Y-142709390D01*
X58520827Y-142709397D01*
X58666498Y-142769735D01*
X58666503Y-142769737D01*
X58821153Y-142800499D01*
X58821156Y-142800500D01*
X58821158Y-142800500D01*
X58978844Y-142800500D01*
X58978845Y-142800499D01*
X59133497Y-142769737D01*
X59279179Y-142709394D01*
X59410289Y-142621789D01*
X59521789Y-142510289D01*
X59609394Y-142379179D01*
X59669737Y-142233497D01*
X59700500Y-142078842D01*
X59700500Y-141921158D01*
X59700500Y-141921155D01*
X59700499Y-141921153D01*
X66399500Y-141921153D01*
X66399500Y-142078846D01*
X66430261Y-142233489D01*
X66430264Y-142233501D01*
X66490602Y-142379172D01*
X66490609Y-142379185D01*
X66578210Y-142510288D01*
X66578213Y-142510292D01*
X66689707Y-142621786D01*
X66689711Y-142621789D01*
X66820814Y-142709390D01*
X66820827Y-142709397D01*
X66966498Y-142769735D01*
X66966503Y-142769737D01*
X67121153Y-142800499D01*
X67121156Y-142800500D01*
X67121158Y-142800500D01*
X67278844Y-142800500D01*
X67278845Y-142800499D01*
X67433497Y-142769737D01*
X67579179Y-142709394D01*
X67710289Y-142621789D01*
X67821789Y-142510289D01*
X67909394Y-142379179D01*
X67969737Y-142233497D01*
X68000500Y-142078842D01*
X68000500Y-141921158D01*
X68000500Y-141921155D01*
X68000499Y-141921153D01*
X68499500Y-141921153D01*
X68499500Y-142078846D01*
X68530261Y-142233489D01*
X68530264Y-142233501D01*
X68590602Y-142379172D01*
X68590609Y-142379185D01*
X68678210Y-142510288D01*
X68678213Y-142510292D01*
X68789707Y-142621786D01*
X68789711Y-142621789D01*
X68920814Y-142709390D01*
X68920827Y-142709397D01*
X69066498Y-142769735D01*
X69066503Y-142769737D01*
X69221153Y-142800499D01*
X69221156Y-142800500D01*
X69221158Y-142800500D01*
X69378844Y-142800500D01*
X69378845Y-142800499D01*
X69533497Y-142769737D01*
X69679179Y-142709394D01*
X69810289Y-142621789D01*
X69921789Y-142510289D01*
X70009394Y-142379179D01*
X70069737Y-142233497D01*
X70100500Y-142078842D01*
X70100500Y-141921158D01*
X70100500Y-141921155D01*
X70100499Y-141921153D01*
X76099500Y-141921153D01*
X76099500Y-142078846D01*
X76130261Y-142233489D01*
X76130264Y-142233501D01*
X76190602Y-142379172D01*
X76190609Y-142379185D01*
X76278210Y-142510288D01*
X76278213Y-142510292D01*
X76389707Y-142621786D01*
X76389711Y-142621789D01*
X76520814Y-142709390D01*
X76520827Y-142709397D01*
X76666498Y-142769735D01*
X76666503Y-142769737D01*
X76821153Y-142800499D01*
X76821156Y-142800500D01*
X76821158Y-142800500D01*
X76978844Y-142800500D01*
X76978845Y-142800499D01*
X77133497Y-142769737D01*
X77279179Y-142709394D01*
X77410289Y-142621789D01*
X77521789Y-142510289D01*
X77609394Y-142379179D01*
X77669737Y-142233497D01*
X77700500Y-142078842D01*
X77700500Y-141921158D01*
X77700500Y-141921155D01*
X77700499Y-141921153D01*
X85099500Y-141921153D01*
X85099500Y-142078846D01*
X85130261Y-142233489D01*
X85130264Y-142233501D01*
X85190602Y-142379172D01*
X85190609Y-142379185D01*
X85278210Y-142510288D01*
X85278213Y-142510292D01*
X85389707Y-142621786D01*
X85389711Y-142621789D01*
X85520814Y-142709390D01*
X85520827Y-142709397D01*
X85666498Y-142769735D01*
X85666503Y-142769737D01*
X85821153Y-142800499D01*
X85821156Y-142800500D01*
X85821158Y-142800500D01*
X85978844Y-142800500D01*
X85978845Y-142800499D01*
X86133497Y-142769737D01*
X86279179Y-142709394D01*
X86410289Y-142621789D01*
X86521789Y-142510289D01*
X86609394Y-142379179D01*
X86669737Y-142233497D01*
X86700500Y-142078842D01*
X86700500Y-141921158D01*
X86700500Y-141921155D01*
X86700499Y-141921153D01*
X94199500Y-141921153D01*
X94199500Y-142078846D01*
X94230261Y-142233489D01*
X94230264Y-142233501D01*
X94290602Y-142379172D01*
X94290609Y-142379185D01*
X94378210Y-142510288D01*
X94378213Y-142510292D01*
X94489707Y-142621786D01*
X94489711Y-142621789D01*
X94620814Y-142709390D01*
X94620827Y-142709397D01*
X94766498Y-142769735D01*
X94766503Y-142769737D01*
X94921153Y-142800499D01*
X94921156Y-142800500D01*
X94921158Y-142800500D01*
X95078844Y-142800500D01*
X95078845Y-142800499D01*
X95233497Y-142769737D01*
X95379179Y-142709394D01*
X95510289Y-142621789D01*
X95621789Y-142510289D01*
X95709394Y-142379179D01*
X95769737Y-142233497D01*
X95800500Y-142078842D01*
X95800500Y-141921158D01*
X95800500Y-141921155D01*
X95800499Y-141921153D01*
X103199500Y-141921153D01*
X103199500Y-142078846D01*
X103230261Y-142233489D01*
X103230264Y-142233501D01*
X103290602Y-142379172D01*
X103290609Y-142379185D01*
X103378210Y-142510288D01*
X103378213Y-142510292D01*
X103489707Y-142621786D01*
X103489711Y-142621789D01*
X103620814Y-142709390D01*
X103620827Y-142709397D01*
X103766498Y-142769735D01*
X103766503Y-142769737D01*
X103921153Y-142800499D01*
X103921156Y-142800500D01*
X103921158Y-142800500D01*
X104078844Y-142800500D01*
X104078845Y-142800499D01*
X104233497Y-142769737D01*
X104379179Y-142709394D01*
X104510289Y-142621789D01*
X104621789Y-142510289D01*
X104709394Y-142379179D01*
X104769737Y-142233497D01*
X104800500Y-142078842D01*
X104800500Y-141921158D01*
X104800500Y-141921155D01*
X104800499Y-141921153D01*
X112199500Y-141921153D01*
X112199500Y-142078846D01*
X112230261Y-142233489D01*
X112230264Y-142233501D01*
X112290602Y-142379172D01*
X112290609Y-142379185D01*
X112378210Y-142510288D01*
X112378213Y-142510292D01*
X112489707Y-142621786D01*
X112489711Y-142621789D01*
X112620814Y-142709390D01*
X112620827Y-142709397D01*
X112766498Y-142769735D01*
X112766503Y-142769737D01*
X112921153Y-142800499D01*
X112921156Y-142800500D01*
X112921158Y-142800500D01*
X113078844Y-142800500D01*
X113078845Y-142800499D01*
X113233497Y-142769737D01*
X113379179Y-142709394D01*
X113510289Y-142621789D01*
X113621789Y-142510289D01*
X113709394Y-142379179D01*
X113769737Y-142233497D01*
X113800500Y-142078842D01*
X113800500Y-141921158D01*
X113800500Y-141921155D01*
X113800499Y-141921153D01*
X113769738Y-141766510D01*
X113769737Y-141766503D01*
X113733427Y-141678842D01*
X113709397Y-141620827D01*
X113709390Y-141620814D01*
X113621789Y-141489711D01*
X113621786Y-141489707D01*
X113510292Y-141378213D01*
X113510288Y-141378210D01*
X113379185Y-141290609D01*
X113379172Y-141290602D01*
X113233501Y-141230264D01*
X113233489Y-141230261D01*
X113078845Y-141199500D01*
X113078842Y-141199500D01*
X112921158Y-141199500D01*
X112921155Y-141199500D01*
X112766510Y-141230261D01*
X112766498Y-141230264D01*
X112620827Y-141290602D01*
X112620814Y-141290609D01*
X112489711Y-141378210D01*
X112489707Y-141378213D01*
X112378213Y-141489707D01*
X112378210Y-141489711D01*
X112290609Y-141620814D01*
X112290602Y-141620827D01*
X112230264Y-141766498D01*
X112230261Y-141766510D01*
X112199500Y-141921153D01*
X104800499Y-141921153D01*
X104769738Y-141766510D01*
X104769737Y-141766503D01*
X104733427Y-141678842D01*
X104709397Y-141620827D01*
X104709390Y-141620814D01*
X104621789Y-141489711D01*
X104621786Y-141489707D01*
X104510292Y-141378213D01*
X104510288Y-141378210D01*
X104379185Y-141290609D01*
X104379172Y-141290602D01*
X104233501Y-141230264D01*
X104233489Y-141230261D01*
X104078845Y-141199500D01*
X104078842Y-141199500D01*
X103921158Y-141199500D01*
X103921155Y-141199500D01*
X103766510Y-141230261D01*
X103766498Y-141230264D01*
X103620827Y-141290602D01*
X103620814Y-141290609D01*
X103489711Y-141378210D01*
X103489707Y-141378213D01*
X103378213Y-141489707D01*
X103378210Y-141489711D01*
X103290609Y-141620814D01*
X103290602Y-141620827D01*
X103230264Y-141766498D01*
X103230261Y-141766510D01*
X103199500Y-141921153D01*
X95800499Y-141921153D01*
X95769738Y-141766510D01*
X95769737Y-141766503D01*
X95733427Y-141678842D01*
X95709397Y-141620827D01*
X95709390Y-141620814D01*
X95621789Y-141489711D01*
X95621786Y-141489707D01*
X95510292Y-141378213D01*
X95510288Y-141378210D01*
X95379185Y-141290609D01*
X95379172Y-141290602D01*
X95233501Y-141230264D01*
X95233489Y-141230261D01*
X95078845Y-141199500D01*
X95078842Y-141199500D01*
X94921158Y-141199500D01*
X94921155Y-141199500D01*
X94766510Y-141230261D01*
X94766498Y-141230264D01*
X94620827Y-141290602D01*
X94620814Y-141290609D01*
X94489711Y-141378210D01*
X94489707Y-141378213D01*
X94378213Y-141489707D01*
X94378210Y-141489711D01*
X94290609Y-141620814D01*
X94290602Y-141620827D01*
X94230264Y-141766498D01*
X94230261Y-141766510D01*
X94199500Y-141921153D01*
X86700499Y-141921153D01*
X86669738Y-141766510D01*
X86669737Y-141766503D01*
X86633427Y-141678842D01*
X86609397Y-141620827D01*
X86609390Y-141620814D01*
X86521789Y-141489711D01*
X86521786Y-141489707D01*
X86410292Y-141378213D01*
X86410288Y-141378210D01*
X86279185Y-141290609D01*
X86279172Y-141290602D01*
X86133501Y-141230264D01*
X86133489Y-141230261D01*
X85978845Y-141199500D01*
X85978842Y-141199500D01*
X85821158Y-141199500D01*
X85821155Y-141199500D01*
X85666510Y-141230261D01*
X85666498Y-141230264D01*
X85520827Y-141290602D01*
X85520814Y-141290609D01*
X85389711Y-141378210D01*
X85389707Y-141378213D01*
X85278213Y-141489707D01*
X85278210Y-141489711D01*
X85190609Y-141620814D01*
X85190602Y-141620827D01*
X85130264Y-141766498D01*
X85130261Y-141766510D01*
X85099500Y-141921153D01*
X77700499Y-141921153D01*
X77669738Y-141766510D01*
X77669737Y-141766503D01*
X77633427Y-141678842D01*
X77609397Y-141620827D01*
X77609390Y-141620814D01*
X77521789Y-141489711D01*
X77521786Y-141489707D01*
X77410292Y-141378213D01*
X77410288Y-141378210D01*
X77279185Y-141290609D01*
X77279172Y-141290602D01*
X77133501Y-141230264D01*
X77133489Y-141230261D01*
X76978845Y-141199500D01*
X76978842Y-141199500D01*
X76821158Y-141199500D01*
X76821155Y-141199500D01*
X76666510Y-141230261D01*
X76666498Y-141230264D01*
X76520827Y-141290602D01*
X76520814Y-141290609D01*
X76389711Y-141378210D01*
X76389707Y-141378213D01*
X76278213Y-141489707D01*
X76278210Y-141489711D01*
X76190609Y-141620814D01*
X76190602Y-141620827D01*
X76130264Y-141766498D01*
X76130261Y-141766510D01*
X76099500Y-141921153D01*
X70100499Y-141921153D01*
X70069738Y-141766510D01*
X70069737Y-141766503D01*
X70033427Y-141678842D01*
X70009397Y-141620827D01*
X70009390Y-141620814D01*
X69921789Y-141489711D01*
X69921786Y-141489707D01*
X69810292Y-141378213D01*
X69810288Y-141378210D01*
X69679185Y-141290609D01*
X69679172Y-141290602D01*
X69533501Y-141230264D01*
X69533489Y-141230261D01*
X69378845Y-141199500D01*
X69378842Y-141199500D01*
X69221158Y-141199500D01*
X69221155Y-141199500D01*
X69066510Y-141230261D01*
X69066498Y-141230264D01*
X68920827Y-141290602D01*
X68920814Y-141290609D01*
X68789711Y-141378210D01*
X68789707Y-141378213D01*
X68678213Y-141489707D01*
X68678210Y-141489711D01*
X68590609Y-141620814D01*
X68590602Y-141620827D01*
X68530264Y-141766498D01*
X68530261Y-141766510D01*
X68499500Y-141921153D01*
X68000499Y-141921153D01*
X67969738Y-141766510D01*
X67969737Y-141766503D01*
X67933427Y-141678842D01*
X67909397Y-141620827D01*
X67909390Y-141620814D01*
X67821789Y-141489711D01*
X67821786Y-141489707D01*
X67710292Y-141378213D01*
X67710288Y-141378210D01*
X67579185Y-141290609D01*
X67579172Y-141290602D01*
X67433501Y-141230264D01*
X67433489Y-141230261D01*
X67278845Y-141199500D01*
X67278842Y-141199500D01*
X67121158Y-141199500D01*
X67121155Y-141199500D01*
X66966510Y-141230261D01*
X66966498Y-141230264D01*
X66820827Y-141290602D01*
X66820814Y-141290609D01*
X66689711Y-141378210D01*
X66689707Y-141378213D01*
X66578213Y-141489707D01*
X66578210Y-141489711D01*
X66490609Y-141620814D01*
X66490602Y-141620827D01*
X66430264Y-141766498D01*
X66430261Y-141766510D01*
X66399500Y-141921153D01*
X59700499Y-141921153D01*
X59669738Y-141766510D01*
X59669737Y-141766503D01*
X59633427Y-141678842D01*
X59609397Y-141620827D01*
X59609390Y-141620814D01*
X59521789Y-141489711D01*
X59521786Y-141489707D01*
X59410292Y-141378213D01*
X59410288Y-141378210D01*
X59279185Y-141290609D01*
X59279172Y-141290602D01*
X59133501Y-141230264D01*
X59133489Y-141230261D01*
X58978845Y-141199500D01*
X58978842Y-141199500D01*
X58821158Y-141199500D01*
X58821155Y-141199500D01*
X58666510Y-141230261D01*
X58666498Y-141230264D01*
X58520827Y-141290602D01*
X58520814Y-141290609D01*
X58389711Y-141378210D01*
X58389707Y-141378213D01*
X58278213Y-141489707D01*
X58278210Y-141489711D01*
X58190609Y-141620814D01*
X58190602Y-141620827D01*
X58130264Y-141766498D01*
X58130261Y-141766510D01*
X58099500Y-141921153D01*
X52800499Y-141921153D01*
X52769738Y-141766510D01*
X52769737Y-141766503D01*
X52733427Y-141678842D01*
X52709397Y-141620827D01*
X52709390Y-141620814D01*
X52621789Y-141489711D01*
X52621786Y-141489707D01*
X52510292Y-141378213D01*
X52510288Y-141378210D01*
X52379185Y-141290609D01*
X52379172Y-141290602D01*
X52233501Y-141230264D01*
X52233489Y-141230261D01*
X52078845Y-141199500D01*
X52078842Y-141199500D01*
X51921158Y-141199500D01*
X51921155Y-141199500D01*
X51766510Y-141230261D01*
X51766498Y-141230264D01*
X51620827Y-141290602D01*
X51620814Y-141290609D01*
X51489711Y-141378210D01*
X51489707Y-141378213D01*
X51378213Y-141489707D01*
X51378210Y-141489711D01*
X51290609Y-141620814D01*
X51290602Y-141620827D01*
X51230264Y-141766498D01*
X51230261Y-141766510D01*
X51199500Y-141921153D01*
X49733429Y-141921153D01*
X49755603Y-141867621D01*
X49755605Y-141867614D01*
X49769737Y-141833497D01*
X49800500Y-141678842D01*
X49800500Y-141521158D01*
X49800500Y-141521155D01*
X49800499Y-141521153D01*
X49772066Y-141378211D01*
X49769737Y-141366503D01*
X49738298Y-141290602D01*
X49709397Y-141220827D01*
X49709390Y-141220814D01*
X49621789Y-141089711D01*
X49621786Y-141089707D01*
X49510292Y-140978213D01*
X49510288Y-140978210D01*
X49379185Y-140890609D01*
X49379172Y-140890602D01*
X49233501Y-140830264D01*
X49233489Y-140830261D01*
X49078845Y-140799500D01*
X49078842Y-140799500D01*
X48921158Y-140799500D01*
X48921155Y-140799500D01*
X48766510Y-140830261D01*
X48766498Y-140830264D01*
X48620827Y-140890602D01*
X48620814Y-140890609D01*
X48489711Y-140978210D01*
X48489707Y-140978213D01*
X48378213Y-141089707D01*
X48378210Y-141089711D01*
X48327602Y-141165451D01*
X48273989Y-141210256D01*
X48204664Y-141218963D01*
X48141637Y-141188808D01*
X48104918Y-141129365D01*
X48100500Y-141096560D01*
X48100500Y-137821153D01*
X55099500Y-137821153D01*
X55099500Y-137978846D01*
X55130261Y-138133489D01*
X55130264Y-138133501D01*
X55190602Y-138279172D01*
X55190609Y-138279185D01*
X55278210Y-138410288D01*
X55278213Y-138410292D01*
X55389707Y-138521786D01*
X55389711Y-138521789D01*
X55520814Y-138609390D01*
X55520827Y-138609397D01*
X55666498Y-138669735D01*
X55666503Y-138669737D01*
X55821153Y-138700499D01*
X55821156Y-138700500D01*
X55821158Y-138700500D01*
X55978844Y-138700500D01*
X55978845Y-138700499D01*
X56133497Y-138669737D01*
X56279179Y-138609394D01*
X56410289Y-138521789D01*
X56521789Y-138410289D01*
X56609394Y-138279179D01*
X56669737Y-138133497D01*
X56700500Y-137978842D01*
X56700500Y-137821158D01*
X56700500Y-137821155D01*
X56700499Y-137821153D01*
X64099500Y-137821153D01*
X64099500Y-137978846D01*
X64130261Y-138133489D01*
X64130264Y-138133501D01*
X64190602Y-138279172D01*
X64190609Y-138279185D01*
X64278210Y-138410288D01*
X64278213Y-138410292D01*
X64389707Y-138521786D01*
X64389711Y-138521789D01*
X64520814Y-138609390D01*
X64520827Y-138609397D01*
X64666498Y-138669735D01*
X64666503Y-138669737D01*
X64821153Y-138700499D01*
X64821156Y-138700500D01*
X64821158Y-138700500D01*
X64978844Y-138700500D01*
X64978845Y-138700499D01*
X65133497Y-138669737D01*
X65279179Y-138609394D01*
X65410289Y-138521789D01*
X65521789Y-138410289D01*
X65609394Y-138279179D01*
X65669737Y-138133497D01*
X65700500Y-137978842D01*
X65700500Y-137821158D01*
X65700500Y-137821155D01*
X65700499Y-137821153D01*
X72799500Y-137821153D01*
X72799500Y-137978846D01*
X72830261Y-138133489D01*
X72830264Y-138133501D01*
X72890602Y-138279172D01*
X72890609Y-138279185D01*
X72978210Y-138410288D01*
X72978213Y-138410292D01*
X73089707Y-138521786D01*
X73089711Y-138521789D01*
X73220814Y-138609390D01*
X73220827Y-138609397D01*
X73366498Y-138669735D01*
X73366503Y-138669737D01*
X73521153Y-138700499D01*
X73521156Y-138700500D01*
X73521158Y-138700500D01*
X73678844Y-138700500D01*
X73678845Y-138700499D01*
X73833497Y-138669737D01*
X73979179Y-138609394D01*
X74110289Y-138521789D01*
X74221789Y-138410289D01*
X74309394Y-138279179D01*
X74369737Y-138133497D01*
X74400500Y-137978842D01*
X74400500Y-137821158D01*
X74400500Y-137821155D01*
X74400499Y-137821153D01*
X81899500Y-137821153D01*
X81899500Y-137978846D01*
X81930261Y-138133489D01*
X81930264Y-138133501D01*
X81990602Y-138279172D01*
X81990609Y-138279185D01*
X82078210Y-138410288D01*
X82078213Y-138410292D01*
X82189707Y-138521786D01*
X82189711Y-138521789D01*
X82320814Y-138609390D01*
X82320827Y-138609397D01*
X82466498Y-138669735D01*
X82466503Y-138669737D01*
X82621153Y-138700499D01*
X82621156Y-138700500D01*
X82621158Y-138700500D01*
X82778844Y-138700500D01*
X82778845Y-138700499D01*
X82933497Y-138669737D01*
X83079179Y-138609394D01*
X83210289Y-138521789D01*
X83321789Y-138410289D01*
X83409394Y-138279179D01*
X83469737Y-138133497D01*
X83500500Y-137978842D01*
X83500500Y-137821158D01*
X83500500Y-137821155D01*
X83500499Y-137821153D01*
X90899500Y-137821153D01*
X90899500Y-137978846D01*
X90930261Y-138133489D01*
X90930264Y-138133501D01*
X90990602Y-138279172D01*
X90990609Y-138279185D01*
X91078210Y-138410288D01*
X91078213Y-138410292D01*
X91189707Y-138521786D01*
X91189711Y-138521789D01*
X91320814Y-138609390D01*
X91320827Y-138609397D01*
X91466498Y-138669735D01*
X91466503Y-138669737D01*
X91621153Y-138700499D01*
X91621156Y-138700500D01*
X91621158Y-138700500D01*
X91778844Y-138700500D01*
X91778845Y-138700499D01*
X91933497Y-138669737D01*
X92079179Y-138609394D01*
X92210289Y-138521789D01*
X92321789Y-138410289D01*
X92409394Y-138279179D01*
X92469737Y-138133497D01*
X92500500Y-137978842D01*
X92500500Y-137821158D01*
X92500500Y-137821155D01*
X92500499Y-137821153D01*
X99899500Y-137821153D01*
X99899500Y-137978846D01*
X99930261Y-138133489D01*
X99930264Y-138133501D01*
X99990602Y-138279172D01*
X99990609Y-138279185D01*
X100078210Y-138410288D01*
X100078213Y-138410292D01*
X100189707Y-138521786D01*
X100189711Y-138521789D01*
X100320814Y-138609390D01*
X100320827Y-138609397D01*
X100466498Y-138669735D01*
X100466503Y-138669737D01*
X100621153Y-138700499D01*
X100621156Y-138700500D01*
X100621158Y-138700500D01*
X100778844Y-138700500D01*
X100778845Y-138700499D01*
X100933497Y-138669737D01*
X101079179Y-138609394D01*
X101210289Y-138521789D01*
X101321789Y-138410289D01*
X101409394Y-138279179D01*
X101469737Y-138133497D01*
X101500500Y-137978842D01*
X101500500Y-137821158D01*
X101500500Y-137821155D01*
X101500499Y-137821153D01*
X108899500Y-137821153D01*
X108899500Y-137978846D01*
X108930261Y-138133489D01*
X108930264Y-138133501D01*
X108990602Y-138279172D01*
X108990609Y-138279185D01*
X109078210Y-138410288D01*
X109078213Y-138410292D01*
X109189707Y-138521786D01*
X109189711Y-138521789D01*
X109320814Y-138609390D01*
X109320827Y-138609397D01*
X109466498Y-138669735D01*
X109466503Y-138669737D01*
X109621153Y-138700499D01*
X109621156Y-138700500D01*
X109621158Y-138700500D01*
X109778844Y-138700500D01*
X109778845Y-138700499D01*
X109933497Y-138669737D01*
X110079179Y-138609394D01*
X110210289Y-138521789D01*
X110321789Y-138410289D01*
X110409394Y-138279179D01*
X110469737Y-138133497D01*
X110500500Y-137978842D01*
X110500500Y-137821158D01*
X110500500Y-137821155D01*
X110500499Y-137821153D01*
X117699500Y-137821153D01*
X117699500Y-137978846D01*
X117730261Y-138133489D01*
X117730264Y-138133501D01*
X117790602Y-138279172D01*
X117790609Y-138279185D01*
X117878210Y-138410288D01*
X117878213Y-138410292D01*
X117989707Y-138521786D01*
X117989711Y-138521789D01*
X118120814Y-138609390D01*
X118120827Y-138609397D01*
X118266498Y-138669735D01*
X118266503Y-138669737D01*
X118421153Y-138700499D01*
X118421156Y-138700500D01*
X118421158Y-138700500D01*
X118578844Y-138700500D01*
X118578845Y-138700499D01*
X118733497Y-138669737D01*
X118879179Y-138609394D01*
X119010289Y-138521789D01*
X119121789Y-138410289D01*
X119209394Y-138279179D01*
X119269737Y-138133497D01*
X119300500Y-137978842D01*
X119300500Y-137821158D01*
X119300500Y-137821155D01*
X119300499Y-137821153D01*
X119269738Y-137666510D01*
X119269737Y-137666503D01*
X119269735Y-137666498D01*
X119209397Y-137520827D01*
X119209390Y-137520814D01*
X119121789Y-137389711D01*
X119121786Y-137389707D01*
X119010292Y-137278213D01*
X119010288Y-137278210D01*
X118879185Y-137190609D01*
X118879172Y-137190602D01*
X118733501Y-137130264D01*
X118733489Y-137130261D01*
X118578845Y-137099500D01*
X118578842Y-137099500D01*
X118421158Y-137099500D01*
X118421155Y-137099500D01*
X118266510Y-137130261D01*
X118266498Y-137130264D01*
X118120827Y-137190602D01*
X118120814Y-137190609D01*
X117989711Y-137278210D01*
X117989707Y-137278213D01*
X117878213Y-137389707D01*
X117878210Y-137389711D01*
X117790609Y-137520814D01*
X117790602Y-137520827D01*
X117730264Y-137666498D01*
X117730261Y-137666510D01*
X117699500Y-137821153D01*
X110500499Y-137821153D01*
X110469738Y-137666510D01*
X110469737Y-137666503D01*
X110469735Y-137666498D01*
X110409397Y-137520827D01*
X110409390Y-137520814D01*
X110321789Y-137389711D01*
X110321786Y-137389707D01*
X110210292Y-137278213D01*
X110210288Y-137278210D01*
X110079185Y-137190609D01*
X110079172Y-137190602D01*
X109933501Y-137130264D01*
X109933489Y-137130261D01*
X109778845Y-137099500D01*
X109778842Y-137099500D01*
X109621158Y-137099500D01*
X109621155Y-137099500D01*
X109466510Y-137130261D01*
X109466498Y-137130264D01*
X109320827Y-137190602D01*
X109320814Y-137190609D01*
X109189711Y-137278210D01*
X109189707Y-137278213D01*
X109078213Y-137389707D01*
X109078210Y-137389711D01*
X108990609Y-137520814D01*
X108990602Y-137520827D01*
X108930264Y-137666498D01*
X108930261Y-137666510D01*
X108899500Y-137821153D01*
X101500499Y-137821153D01*
X101469738Y-137666510D01*
X101469737Y-137666503D01*
X101469735Y-137666498D01*
X101409397Y-137520827D01*
X101409390Y-137520814D01*
X101321789Y-137389711D01*
X101321786Y-137389707D01*
X101210292Y-137278213D01*
X101210288Y-137278210D01*
X101079185Y-137190609D01*
X101079172Y-137190602D01*
X100933501Y-137130264D01*
X100933489Y-137130261D01*
X100778845Y-137099500D01*
X100778842Y-137099500D01*
X100621158Y-137099500D01*
X100621155Y-137099500D01*
X100466510Y-137130261D01*
X100466498Y-137130264D01*
X100320827Y-137190602D01*
X100320814Y-137190609D01*
X100189711Y-137278210D01*
X100189707Y-137278213D01*
X100078213Y-137389707D01*
X100078210Y-137389711D01*
X99990609Y-137520814D01*
X99990602Y-137520827D01*
X99930264Y-137666498D01*
X99930261Y-137666510D01*
X99899500Y-137821153D01*
X92500499Y-137821153D01*
X92469738Y-137666510D01*
X92469737Y-137666503D01*
X92469735Y-137666498D01*
X92409397Y-137520827D01*
X92409390Y-137520814D01*
X92321789Y-137389711D01*
X92321786Y-137389707D01*
X92210292Y-137278213D01*
X92210288Y-137278210D01*
X92079185Y-137190609D01*
X92079172Y-137190602D01*
X91933501Y-137130264D01*
X91933489Y-137130261D01*
X91778845Y-137099500D01*
X91778842Y-137099500D01*
X91621158Y-137099500D01*
X91621155Y-137099500D01*
X91466510Y-137130261D01*
X91466498Y-137130264D01*
X91320827Y-137190602D01*
X91320814Y-137190609D01*
X91189711Y-137278210D01*
X91189707Y-137278213D01*
X91078213Y-137389707D01*
X91078210Y-137389711D01*
X90990609Y-137520814D01*
X90990602Y-137520827D01*
X90930264Y-137666498D01*
X90930261Y-137666510D01*
X90899500Y-137821153D01*
X83500499Y-137821153D01*
X83469738Y-137666510D01*
X83469737Y-137666503D01*
X83469735Y-137666498D01*
X83409397Y-137520827D01*
X83409390Y-137520814D01*
X83321789Y-137389711D01*
X83321786Y-137389707D01*
X83210292Y-137278213D01*
X83210288Y-137278210D01*
X83079185Y-137190609D01*
X83079172Y-137190602D01*
X82933501Y-137130264D01*
X82933489Y-137130261D01*
X82778845Y-137099500D01*
X82778842Y-137099500D01*
X82621158Y-137099500D01*
X82621155Y-137099500D01*
X82466510Y-137130261D01*
X82466498Y-137130264D01*
X82320827Y-137190602D01*
X82320814Y-137190609D01*
X82189711Y-137278210D01*
X82189707Y-137278213D01*
X82078213Y-137389707D01*
X82078210Y-137389711D01*
X81990609Y-137520814D01*
X81990602Y-137520827D01*
X81930264Y-137666498D01*
X81930261Y-137666510D01*
X81899500Y-137821153D01*
X74400499Y-137821153D01*
X74369738Y-137666510D01*
X74369737Y-137666503D01*
X74369735Y-137666498D01*
X74309397Y-137520827D01*
X74309390Y-137520814D01*
X74221789Y-137389711D01*
X74221786Y-137389707D01*
X74110292Y-137278213D01*
X74110288Y-137278210D01*
X73979185Y-137190609D01*
X73979172Y-137190602D01*
X73833501Y-137130264D01*
X73833489Y-137130261D01*
X73678845Y-137099500D01*
X73678842Y-137099500D01*
X73521158Y-137099500D01*
X73521155Y-137099500D01*
X73366510Y-137130261D01*
X73366498Y-137130264D01*
X73220827Y-137190602D01*
X73220814Y-137190609D01*
X73089711Y-137278210D01*
X73089707Y-137278213D01*
X72978213Y-137389707D01*
X72978210Y-137389711D01*
X72890609Y-137520814D01*
X72890602Y-137520827D01*
X72830264Y-137666498D01*
X72830261Y-137666510D01*
X72799500Y-137821153D01*
X65700499Y-137821153D01*
X65669738Y-137666510D01*
X65669737Y-137666503D01*
X65669735Y-137666498D01*
X65609397Y-137520827D01*
X65609390Y-137520814D01*
X65521789Y-137389711D01*
X65521786Y-137389707D01*
X65410292Y-137278213D01*
X65410288Y-137278210D01*
X65279185Y-137190609D01*
X65279172Y-137190602D01*
X65133501Y-137130264D01*
X65133489Y-137130261D01*
X64978845Y-137099500D01*
X64978842Y-137099500D01*
X64821158Y-137099500D01*
X64821155Y-137099500D01*
X64666510Y-137130261D01*
X64666498Y-137130264D01*
X64520827Y-137190602D01*
X64520814Y-137190609D01*
X64389711Y-137278210D01*
X64389707Y-137278213D01*
X64278213Y-137389707D01*
X64278210Y-137389711D01*
X64190609Y-137520814D01*
X64190602Y-137520827D01*
X64130264Y-137666498D01*
X64130261Y-137666510D01*
X64099500Y-137821153D01*
X56700499Y-137821153D01*
X56669738Y-137666510D01*
X56669737Y-137666503D01*
X56669735Y-137666498D01*
X56609397Y-137520827D01*
X56609390Y-137520814D01*
X56521789Y-137389711D01*
X56521786Y-137389707D01*
X56410292Y-137278213D01*
X56410288Y-137278210D01*
X56279185Y-137190609D01*
X56279172Y-137190602D01*
X56133501Y-137130264D01*
X56133489Y-137130261D01*
X55978845Y-137099500D01*
X55978842Y-137099500D01*
X55821158Y-137099500D01*
X55821155Y-137099500D01*
X55666510Y-137130261D01*
X55666498Y-137130264D01*
X55520827Y-137190602D01*
X55520814Y-137190609D01*
X55389711Y-137278210D01*
X55389707Y-137278213D01*
X55278213Y-137389707D01*
X55278210Y-137389711D01*
X55190609Y-137520814D01*
X55190602Y-137520827D01*
X55130264Y-137666498D01*
X55130261Y-137666510D01*
X55099500Y-137821153D01*
X48100500Y-137821153D01*
X48100500Y-134746153D01*
X53262000Y-134746153D01*
X53262000Y-134903846D01*
X53292761Y-135058489D01*
X53292764Y-135058501D01*
X53353102Y-135204172D01*
X53353109Y-135204185D01*
X53440710Y-135335288D01*
X53440713Y-135335292D01*
X53552207Y-135446786D01*
X53552211Y-135446789D01*
X53683314Y-135534390D01*
X53683327Y-135534397D01*
X53828998Y-135594735D01*
X53829003Y-135594737D01*
X53983653Y-135625499D01*
X53983656Y-135625500D01*
X53983658Y-135625500D01*
X54141344Y-135625500D01*
X54141345Y-135625499D01*
X54295997Y-135594737D01*
X54441679Y-135534394D01*
X54572789Y-135446789D01*
X54684289Y-135335289D01*
X54771894Y-135204179D01*
X54832237Y-135058497D01*
X54863000Y-134903842D01*
X54863000Y-134746158D01*
X54863000Y-134746155D01*
X54862999Y-134746153D01*
X62262000Y-134746153D01*
X62262000Y-134903846D01*
X62292761Y-135058489D01*
X62292764Y-135058501D01*
X62353102Y-135204172D01*
X62353109Y-135204185D01*
X62440710Y-135335288D01*
X62440713Y-135335292D01*
X62552207Y-135446786D01*
X62552211Y-135446789D01*
X62683314Y-135534390D01*
X62683327Y-135534397D01*
X62828998Y-135594735D01*
X62829003Y-135594737D01*
X62983653Y-135625499D01*
X62983656Y-135625500D01*
X62983658Y-135625500D01*
X63141344Y-135625500D01*
X63141345Y-135625499D01*
X63295997Y-135594737D01*
X63441679Y-135534394D01*
X63572789Y-135446789D01*
X63684289Y-135335289D01*
X63771894Y-135204179D01*
X63832237Y-135058497D01*
X63863000Y-134903842D01*
X63863000Y-134746158D01*
X63863000Y-134746155D01*
X63862999Y-134746153D01*
X71262000Y-134746153D01*
X71262000Y-134903846D01*
X71292761Y-135058489D01*
X71292764Y-135058501D01*
X71353102Y-135204172D01*
X71353109Y-135204185D01*
X71440710Y-135335288D01*
X71440713Y-135335292D01*
X71552207Y-135446786D01*
X71552211Y-135446789D01*
X71683314Y-135534390D01*
X71683327Y-135534397D01*
X71828998Y-135594735D01*
X71829003Y-135594737D01*
X71983653Y-135625499D01*
X71983656Y-135625500D01*
X71983658Y-135625500D01*
X72141344Y-135625500D01*
X72141345Y-135625499D01*
X72295997Y-135594737D01*
X72441679Y-135534394D01*
X72572789Y-135446789D01*
X72684289Y-135335289D01*
X72771894Y-135204179D01*
X72832237Y-135058497D01*
X72863000Y-134903842D01*
X72863000Y-134746158D01*
X72863000Y-134746155D01*
X72862999Y-134746153D01*
X80262000Y-134746153D01*
X80262000Y-134903846D01*
X80292761Y-135058489D01*
X80292764Y-135058501D01*
X80353102Y-135204172D01*
X80353109Y-135204185D01*
X80440710Y-135335288D01*
X80440713Y-135335292D01*
X80552207Y-135446786D01*
X80552211Y-135446789D01*
X80683314Y-135534390D01*
X80683327Y-135534397D01*
X80828998Y-135594735D01*
X80829003Y-135594737D01*
X80983653Y-135625499D01*
X80983656Y-135625500D01*
X80983658Y-135625500D01*
X81141344Y-135625500D01*
X81141345Y-135625499D01*
X81295997Y-135594737D01*
X81441679Y-135534394D01*
X81572789Y-135446789D01*
X81684289Y-135335289D01*
X81771894Y-135204179D01*
X81832237Y-135058497D01*
X81863000Y-134903842D01*
X81863000Y-134746158D01*
X81863000Y-134746155D01*
X81862999Y-134746153D01*
X89262000Y-134746153D01*
X89262000Y-134903846D01*
X89292761Y-135058489D01*
X89292764Y-135058501D01*
X89353102Y-135204172D01*
X89353109Y-135204185D01*
X89440710Y-135335288D01*
X89440713Y-135335292D01*
X89552207Y-135446786D01*
X89552211Y-135446789D01*
X89683314Y-135534390D01*
X89683327Y-135534397D01*
X89828998Y-135594735D01*
X89829003Y-135594737D01*
X89983653Y-135625499D01*
X89983656Y-135625500D01*
X89983658Y-135625500D01*
X90141344Y-135625500D01*
X90141345Y-135625499D01*
X90295997Y-135594737D01*
X90441679Y-135534394D01*
X90572789Y-135446789D01*
X90684289Y-135335289D01*
X90771894Y-135204179D01*
X90832237Y-135058497D01*
X90863000Y-134903842D01*
X90863000Y-134746158D01*
X90863000Y-134746155D01*
X90862999Y-134746153D01*
X98262000Y-134746153D01*
X98262000Y-134903846D01*
X98292761Y-135058489D01*
X98292764Y-135058501D01*
X98353102Y-135204172D01*
X98353109Y-135204185D01*
X98440710Y-135335288D01*
X98440713Y-135335292D01*
X98552207Y-135446786D01*
X98552211Y-135446789D01*
X98683314Y-135534390D01*
X98683327Y-135534397D01*
X98828998Y-135594735D01*
X98829003Y-135594737D01*
X98983653Y-135625499D01*
X98983656Y-135625500D01*
X98983658Y-135625500D01*
X99141344Y-135625500D01*
X99141345Y-135625499D01*
X99295997Y-135594737D01*
X99441679Y-135534394D01*
X99572789Y-135446789D01*
X99684289Y-135335289D01*
X99771894Y-135204179D01*
X99832237Y-135058497D01*
X99863000Y-134903842D01*
X99863000Y-134746158D01*
X99863000Y-134746155D01*
X99862999Y-134746153D01*
X107262000Y-134746153D01*
X107262000Y-134903846D01*
X107292761Y-135058489D01*
X107292764Y-135058501D01*
X107353102Y-135204172D01*
X107353109Y-135204185D01*
X107440710Y-135335288D01*
X107440713Y-135335292D01*
X107552207Y-135446786D01*
X107552211Y-135446789D01*
X107683314Y-135534390D01*
X107683327Y-135534397D01*
X107828998Y-135594735D01*
X107829003Y-135594737D01*
X107983653Y-135625499D01*
X107983656Y-135625500D01*
X107983658Y-135625500D01*
X108141344Y-135625500D01*
X108141345Y-135625499D01*
X108295997Y-135594737D01*
X108441679Y-135534394D01*
X108572789Y-135446789D01*
X108684289Y-135335289D01*
X108771894Y-135204179D01*
X108832237Y-135058497D01*
X108863000Y-134903842D01*
X108863000Y-134746158D01*
X108863000Y-134746155D01*
X108862999Y-134746153D01*
X116262000Y-134746153D01*
X116262000Y-134903846D01*
X116292761Y-135058489D01*
X116292764Y-135058501D01*
X116353102Y-135204172D01*
X116353109Y-135204185D01*
X116440710Y-135335288D01*
X116440713Y-135335292D01*
X116552207Y-135446786D01*
X116552211Y-135446789D01*
X116683314Y-135534390D01*
X116683327Y-135534397D01*
X116828998Y-135594735D01*
X116829003Y-135594737D01*
X116983653Y-135625499D01*
X116983656Y-135625500D01*
X116983658Y-135625500D01*
X117141344Y-135625500D01*
X117141345Y-135625499D01*
X117295997Y-135594737D01*
X117441679Y-135534394D01*
X117572789Y-135446789D01*
X117684289Y-135335289D01*
X117771894Y-135204179D01*
X117832237Y-135058497D01*
X117863000Y-134903842D01*
X117863000Y-134746158D01*
X117863000Y-134746155D01*
X117862999Y-134746153D01*
X117832238Y-134591510D01*
X117832237Y-134591503D01*
X117832235Y-134591498D01*
X117771897Y-134445827D01*
X117771890Y-134445814D01*
X117684289Y-134314711D01*
X117684286Y-134314707D01*
X117572792Y-134203213D01*
X117572788Y-134203210D01*
X117441685Y-134115609D01*
X117441672Y-134115602D01*
X117296001Y-134055264D01*
X117295989Y-134055261D01*
X117141345Y-134024500D01*
X117141342Y-134024500D01*
X116983658Y-134024500D01*
X116983655Y-134024500D01*
X116829010Y-134055261D01*
X116828998Y-134055264D01*
X116683327Y-134115602D01*
X116683314Y-134115609D01*
X116552211Y-134203210D01*
X116552207Y-134203213D01*
X116440713Y-134314707D01*
X116440710Y-134314711D01*
X116353109Y-134445814D01*
X116353102Y-134445827D01*
X116292764Y-134591498D01*
X116292761Y-134591510D01*
X116262000Y-134746153D01*
X108862999Y-134746153D01*
X108832238Y-134591510D01*
X108832237Y-134591503D01*
X108832235Y-134591498D01*
X108771897Y-134445827D01*
X108771890Y-134445814D01*
X108684289Y-134314711D01*
X108684286Y-134314707D01*
X108572792Y-134203213D01*
X108572788Y-134203210D01*
X108441685Y-134115609D01*
X108441672Y-134115602D01*
X108296001Y-134055264D01*
X108295989Y-134055261D01*
X108141345Y-134024500D01*
X108141342Y-134024500D01*
X107983658Y-134024500D01*
X107983655Y-134024500D01*
X107829010Y-134055261D01*
X107828998Y-134055264D01*
X107683327Y-134115602D01*
X107683314Y-134115609D01*
X107552211Y-134203210D01*
X107552207Y-134203213D01*
X107440713Y-134314707D01*
X107440710Y-134314711D01*
X107353109Y-134445814D01*
X107353102Y-134445827D01*
X107292764Y-134591498D01*
X107292761Y-134591510D01*
X107262000Y-134746153D01*
X99862999Y-134746153D01*
X99832238Y-134591510D01*
X99832237Y-134591503D01*
X99832235Y-134591498D01*
X99771897Y-134445827D01*
X99771890Y-134445814D01*
X99684289Y-134314711D01*
X99684286Y-134314707D01*
X99572792Y-134203213D01*
X99572788Y-134203210D01*
X99441685Y-134115609D01*
X99441672Y-134115602D01*
X99296001Y-134055264D01*
X99295989Y-134055261D01*
X99141345Y-134024500D01*
X99141342Y-134024500D01*
X98983658Y-134024500D01*
X98983655Y-134024500D01*
X98829010Y-134055261D01*
X98828998Y-134055264D01*
X98683327Y-134115602D01*
X98683314Y-134115609D01*
X98552211Y-134203210D01*
X98552207Y-134203213D01*
X98440713Y-134314707D01*
X98440710Y-134314711D01*
X98353109Y-134445814D01*
X98353102Y-134445827D01*
X98292764Y-134591498D01*
X98292761Y-134591510D01*
X98262000Y-134746153D01*
X90862999Y-134746153D01*
X90832238Y-134591510D01*
X90832237Y-134591503D01*
X90832235Y-134591498D01*
X90771897Y-134445827D01*
X90771890Y-134445814D01*
X90684289Y-134314711D01*
X90684286Y-134314707D01*
X90572792Y-134203213D01*
X90572788Y-134203210D01*
X90441685Y-134115609D01*
X90441672Y-134115602D01*
X90296001Y-134055264D01*
X90295989Y-134055261D01*
X90141345Y-134024500D01*
X90141342Y-134024500D01*
X89983658Y-134024500D01*
X89983655Y-134024500D01*
X89829010Y-134055261D01*
X89828998Y-134055264D01*
X89683327Y-134115602D01*
X89683314Y-134115609D01*
X89552211Y-134203210D01*
X89552207Y-134203213D01*
X89440713Y-134314707D01*
X89440710Y-134314711D01*
X89353109Y-134445814D01*
X89353102Y-134445827D01*
X89292764Y-134591498D01*
X89292761Y-134591510D01*
X89262000Y-134746153D01*
X81862999Y-134746153D01*
X81832238Y-134591510D01*
X81832237Y-134591503D01*
X81832235Y-134591498D01*
X81771897Y-134445827D01*
X81771890Y-134445814D01*
X81684289Y-134314711D01*
X81684286Y-134314707D01*
X81572792Y-134203213D01*
X81572788Y-134203210D01*
X81441685Y-134115609D01*
X81441672Y-134115602D01*
X81296001Y-134055264D01*
X81295989Y-134055261D01*
X81141345Y-134024500D01*
X81141342Y-134024500D01*
X80983658Y-134024500D01*
X80983655Y-134024500D01*
X80829010Y-134055261D01*
X80828998Y-134055264D01*
X80683327Y-134115602D01*
X80683314Y-134115609D01*
X80552211Y-134203210D01*
X80552207Y-134203213D01*
X80440713Y-134314707D01*
X80440710Y-134314711D01*
X80353109Y-134445814D01*
X80353102Y-134445827D01*
X80292764Y-134591498D01*
X80292761Y-134591510D01*
X80262000Y-134746153D01*
X72862999Y-134746153D01*
X72832238Y-134591510D01*
X72832237Y-134591503D01*
X72832235Y-134591498D01*
X72771897Y-134445827D01*
X72771890Y-134445814D01*
X72684289Y-134314711D01*
X72684286Y-134314707D01*
X72572792Y-134203213D01*
X72572788Y-134203210D01*
X72441685Y-134115609D01*
X72441672Y-134115602D01*
X72296001Y-134055264D01*
X72295989Y-134055261D01*
X72141345Y-134024500D01*
X72141342Y-134024500D01*
X71983658Y-134024500D01*
X71983655Y-134024500D01*
X71829010Y-134055261D01*
X71828998Y-134055264D01*
X71683327Y-134115602D01*
X71683314Y-134115609D01*
X71552211Y-134203210D01*
X71552207Y-134203213D01*
X71440713Y-134314707D01*
X71440710Y-134314711D01*
X71353109Y-134445814D01*
X71353102Y-134445827D01*
X71292764Y-134591498D01*
X71292761Y-134591510D01*
X71262000Y-134746153D01*
X63862999Y-134746153D01*
X63832238Y-134591510D01*
X63832237Y-134591503D01*
X63832235Y-134591498D01*
X63771897Y-134445827D01*
X63771890Y-134445814D01*
X63684289Y-134314711D01*
X63684286Y-134314707D01*
X63572792Y-134203213D01*
X63572788Y-134203210D01*
X63441685Y-134115609D01*
X63441672Y-134115602D01*
X63296001Y-134055264D01*
X63295989Y-134055261D01*
X63141345Y-134024500D01*
X63141342Y-134024500D01*
X62983658Y-134024500D01*
X62983655Y-134024500D01*
X62829010Y-134055261D01*
X62828998Y-134055264D01*
X62683327Y-134115602D01*
X62683314Y-134115609D01*
X62552211Y-134203210D01*
X62552207Y-134203213D01*
X62440713Y-134314707D01*
X62440710Y-134314711D01*
X62353109Y-134445814D01*
X62353102Y-134445827D01*
X62292764Y-134591498D01*
X62292761Y-134591510D01*
X62262000Y-134746153D01*
X54862999Y-134746153D01*
X54832238Y-134591510D01*
X54832237Y-134591503D01*
X54832235Y-134591498D01*
X54771897Y-134445827D01*
X54771890Y-134445814D01*
X54684289Y-134314711D01*
X54684286Y-134314707D01*
X54572792Y-134203213D01*
X54572788Y-134203210D01*
X54441685Y-134115609D01*
X54441672Y-134115602D01*
X54296001Y-134055264D01*
X54295989Y-134055261D01*
X54141345Y-134024500D01*
X54141342Y-134024500D01*
X53983658Y-134024500D01*
X53983655Y-134024500D01*
X53829010Y-134055261D01*
X53828998Y-134055264D01*
X53683327Y-134115602D01*
X53683314Y-134115609D01*
X53552211Y-134203210D01*
X53552207Y-134203213D01*
X53440713Y-134314707D01*
X53440710Y-134314711D01*
X53353109Y-134445814D01*
X53353102Y-134445827D01*
X53292764Y-134591498D01*
X53292761Y-134591510D01*
X53262000Y-134746153D01*
X48100500Y-134746153D01*
X48100500Y-132921153D01*
X57899500Y-132921153D01*
X57899500Y-133078846D01*
X57930261Y-133233489D01*
X57930264Y-133233501D01*
X57990602Y-133379172D01*
X57990609Y-133379185D01*
X58078210Y-133510288D01*
X58078213Y-133510292D01*
X58189707Y-133621786D01*
X58189711Y-133621789D01*
X58320814Y-133709390D01*
X58320827Y-133709397D01*
X58466498Y-133769735D01*
X58466503Y-133769737D01*
X58621153Y-133800499D01*
X58621156Y-133800500D01*
X58621158Y-133800500D01*
X58778844Y-133800500D01*
X58778845Y-133800499D01*
X58933497Y-133769737D01*
X59079179Y-133709394D01*
X59210289Y-133621789D01*
X59321789Y-133510289D01*
X59409394Y-133379179D01*
X59469737Y-133233497D01*
X59500500Y-133078842D01*
X59500500Y-132921158D01*
X59500500Y-132921155D01*
X59500499Y-132921153D01*
X66799500Y-132921153D01*
X66799500Y-133078846D01*
X66830261Y-133233489D01*
X66830264Y-133233501D01*
X66890602Y-133379172D01*
X66890609Y-133379185D01*
X66978210Y-133510288D01*
X66978213Y-133510292D01*
X67089707Y-133621786D01*
X67089711Y-133621789D01*
X67220814Y-133709390D01*
X67220827Y-133709397D01*
X67366498Y-133769735D01*
X67366503Y-133769737D01*
X67521153Y-133800499D01*
X67521156Y-133800500D01*
X67521158Y-133800500D01*
X67678844Y-133800500D01*
X67678845Y-133800499D01*
X67833497Y-133769737D01*
X67979179Y-133709394D01*
X68110289Y-133621789D01*
X68221789Y-133510289D01*
X68309394Y-133379179D01*
X68369737Y-133233497D01*
X68400500Y-133078842D01*
X68400500Y-132921158D01*
X68400500Y-132921155D01*
X68400499Y-132921153D01*
X75799500Y-132921153D01*
X75799500Y-133078846D01*
X75830261Y-133233489D01*
X75830264Y-133233501D01*
X75890602Y-133379172D01*
X75890609Y-133379185D01*
X75978210Y-133510288D01*
X75978213Y-133510292D01*
X76089707Y-133621786D01*
X76089711Y-133621789D01*
X76220814Y-133709390D01*
X76220827Y-133709397D01*
X76366498Y-133769735D01*
X76366503Y-133769737D01*
X76521153Y-133800499D01*
X76521156Y-133800500D01*
X76521158Y-133800500D01*
X76678844Y-133800500D01*
X76678845Y-133800499D01*
X76833497Y-133769737D01*
X76979179Y-133709394D01*
X77110289Y-133621789D01*
X77221789Y-133510289D01*
X77309394Y-133379179D01*
X77369737Y-133233497D01*
X77400500Y-133078842D01*
X77400500Y-132921158D01*
X77400500Y-132921155D01*
X77400499Y-132921153D01*
X84899500Y-132921153D01*
X84899500Y-133078846D01*
X84930261Y-133233489D01*
X84930264Y-133233501D01*
X84990602Y-133379172D01*
X84990609Y-133379185D01*
X85078210Y-133510288D01*
X85078213Y-133510292D01*
X85189707Y-133621786D01*
X85189711Y-133621789D01*
X85320814Y-133709390D01*
X85320827Y-133709397D01*
X85466498Y-133769735D01*
X85466503Y-133769737D01*
X85621153Y-133800499D01*
X85621156Y-133800500D01*
X85621158Y-133800500D01*
X85778844Y-133800500D01*
X85778845Y-133800499D01*
X85933497Y-133769737D01*
X86079179Y-133709394D01*
X86210289Y-133621789D01*
X86321789Y-133510289D01*
X86409394Y-133379179D01*
X86469737Y-133233497D01*
X86500500Y-133078842D01*
X86500500Y-132921158D01*
X86500500Y-132921155D01*
X86500499Y-132921153D01*
X93799500Y-132921153D01*
X93799500Y-133078846D01*
X93830261Y-133233489D01*
X93830264Y-133233501D01*
X93890602Y-133379172D01*
X93890609Y-133379185D01*
X93978210Y-133510288D01*
X93978213Y-133510292D01*
X94089707Y-133621786D01*
X94089711Y-133621789D01*
X94220814Y-133709390D01*
X94220827Y-133709397D01*
X94366498Y-133769735D01*
X94366503Y-133769737D01*
X94521153Y-133800499D01*
X94521156Y-133800500D01*
X94521158Y-133800500D01*
X94678844Y-133800500D01*
X94678845Y-133800499D01*
X94833497Y-133769737D01*
X94979179Y-133709394D01*
X95110289Y-133621789D01*
X95221789Y-133510289D01*
X95309394Y-133379179D01*
X95369737Y-133233497D01*
X95400500Y-133078842D01*
X95400500Y-132921158D01*
X95400500Y-132921155D01*
X95400499Y-132921153D01*
X102799500Y-132921153D01*
X102799500Y-133078846D01*
X102830261Y-133233489D01*
X102830264Y-133233501D01*
X102890602Y-133379172D01*
X102890609Y-133379185D01*
X102978210Y-133510288D01*
X102978213Y-133510292D01*
X103089707Y-133621786D01*
X103089711Y-133621789D01*
X103220814Y-133709390D01*
X103220827Y-133709397D01*
X103366498Y-133769735D01*
X103366503Y-133769737D01*
X103521153Y-133800499D01*
X103521156Y-133800500D01*
X103521158Y-133800500D01*
X103678844Y-133800500D01*
X103678845Y-133800499D01*
X103833497Y-133769737D01*
X103979179Y-133709394D01*
X104110289Y-133621789D01*
X104221789Y-133510289D01*
X104309394Y-133379179D01*
X104369737Y-133233497D01*
X104400500Y-133078842D01*
X104400500Y-132921158D01*
X104400500Y-132921155D01*
X104400499Y-132921153D01*
X111799500Y-132921153D01*
X111799500Y-133078846D01*
X111830261Y-133233489D01*
X111830264Y-133233501D01*
X111890602Y-133379172D01*
X111890609Y-133379185D01*
X111978210Y-133510288D01*
X111978213Y-133510292D01*
X112089707Y-133621786D01*
X112089711Y-133621789D01*
X112220814Y-133709390D01*
X112220827Y-133709397D01*
X112366498Y-133769735D01*
X112366503Y-133769737D01*
X112521153Y-133800499D01*
X112521156Y-133800500D01*
X112521158Y-133800500D01*
X112678844Y-133800500D01*
X112678845Y-133800499D01*
X112833497Y-133769737D01*
X112979179Y-133709394D01*
X113110289Y-133621789D01*
X113221789Y-133510289D01*
X113309394Y-133379179D01*
X113369737Y-133233497D01*
X113400500Y-133078842D01*
X113400500Y-132921158D01*
X113400500Y-132921155D01*
X113400499Y-132921153D01*
X113369738Y-132766510D01*
X113369737Y-132766503D01*
X113369735Y-132766498D01*
X113309397Y-132620827D01*
X113309390Y-132620814D01*
X113221789Y-132489711D01*
X113221786Y-132489707D01*
X113110292Y-132378213D01*
X113110288Y-132378210D01*
X112979185Y-132290609D01*
X112979172Y-132290602D01*
X112833501Y-132230264D01*
X112833489Y-132230261D01*
X112678845Y-132199500D01*
X112678842Y-132199500D01*
X112521158Y-132199500D01*
X112521155Y-132199500D01*
X112366510Y-132230261D01*
X112366498Y-132230264D01*
X112220827Y-132290602D01*
X112220814Y-132290609D01*
X112089711Y-132378210D01*
X112089707Y-132378213D01*
X111978213Y-132489707D01*
X111978210Y-132489711D01*
X111890609Y-132620814D01*
X111890602Y-132620827D01*
X111830264Y-132766498D01*
X111830261Y-132766510D01*
X111799500Y-132921153D01*
X104400499Y-132921153D01*
X104369738Y-132766510D01*
X104369737Y-132766503D01*
X104369735Y-132766498D01*
X104309397Y-132620827D01*
X104309390Y-132620814D01*
X104221789Y-132489711D01*
X104221786Y-132489707D01*
X104110292Y-132378213D01*
X104110288Y-132378210D01*
X103979185Y-132290609D01*
X103979172Y-132290602D01*
X103833501Y-132230264D01*
X103833489Y-132230261D01*
X103678845Y-132199500D01*
X103678842Y-132199500D01*
X103521158Y-132199500D01*
X103521155Y-132199500D01*
X103366510Y-132230261D01*
X103366498Y-132230264D01*
X103220827Y-132290602D01*
X103220814Y-132290609D01*
X103089711Y-132378210D01*
X103089707Y-132378213D01*
X102978213Y-132489707D01*
X102978210Y-132489711D01*
X102890609Y-132620814D01*
X102890602Y-132620827D01*
X102830264Y-132766498D01*
X102830261Y-132766510D01*
X102799500Y-132921153D01*
X95400499Y-132921153D01*
X95369738Y-132766510D01*
X95369737Y-132766503D01*
X95369735Y-132766498D01*
X95309397Y-132620827D01*
X95309390Y-132620814D01*
X95221789Y-132489711D01*
X95221786Y-132489707D01*
X95110292Y-132378213D01*
X95110288Y-132378210D01*
X94979185Y-132290609D01*
X94979172Y-132290602D01*
X94833501Y-132230264D01*
X94833489Y-132230261D01*
X94678845Y-132199500D01*
X94678842Y-132199500D01*
X94521158Y-132199500D01*
X94521155Y-132199500D01*
X94366510Y-132230261D01*
X94366498Y-132230264D01*
X94220827Y-132290602D01*
X94220814Y-132290609D01*
X94089711Y-132378210D01*
X94089707Y-132378213D01*
X93978213Y-132489707D01*
X93978210Y-132489711D01*
X93890609Y-132620814D01*
X93890602Y-132620827D01*
X93830264Y-132766498D01*
X93830261Y-132766510D01*
X93799500Y-132921153D01*
X86500499Y-132921153D01*
X86469738Y-132766510D01*
X86469737Y-132766503D01*
X86469735Y-132766498D01*
X86409397Y-132620827D01*
X86409390Y-132620814D01*
X86321789Y-132489711D01*
X86321786Y-132489707D01*
X86210292Y-132378213D01*
X86210288Y-132378210D01*
X86079185Y-132290609D01*
X86079172Y-132290602D01*
X85933501Y-132230264D01*
X85933489Y-132230261D01*
X85778845Y-132199500D01*
X85778842Y-132199500D01*
X85621158Y-132199500D01*
X85621155Y-132199500D01*
X85466510Y-132230261D01*
X85466498Y-132230264D01*
X85320827Y-132290602D01*
X85320814Y-132290609D01*
X85189711Y-132378210D01*
X85189707Y-132378213D01*
X85078213Y-132489707D01*
X85078210Y-132489711D01*
X84990609Y-132620814D01*
X84990602Y-132620827D01*
X84930264Y-132766498D01*
X84930261Y-132766510D01*
X84899500Y-132921153D01*
X77400499Y-132921153D01*
X77369738Y-132766510D01*
X77369737Y-132766503D01*
X77369735Y-132766498D01*
X77309397Y-132620827D01*
X77309390Y-132620814D01*
X77221789Y-132489711D01*
X77221786Y-132489707D01*
X77110292Y-132378213D01*
X77110288Y-132378210D01*
X76979185Y-132290609D01*
X76979172Y-132290602D01*
X76833501Y-132230264D01*
X76833489Y-132230261D01*
X76678845Y-132199500D01*
X76678842Y-132199500D01*
X76521158Y-132199500D01*
X76521155Y-132199500D01*
X76366510Y-132230261D01*
X76366498Y-132230264D01*
X76220827Y-132290602D01*
X76220814Y-132290609D01*
X76089711Y-132378210D01*
X76089707Y-132378213D01*
X75978213Y-132489707D01*
X75978210Y-132489711D01*
X75890609Y-132620814D01*
X75890602Y-132620827D01*
X75830264Y-132766498D01*
X75830261Y-132766510D01*
X75799500Y-132921153D01*
X68400499Y-132921153D01*
X68369738Y-132766510D01*
X68369737Y-132766503D01*
X68369735Y-132766498D01*
X68309397Y-132620827D01*
X68309390Y-132620814D01*
X68221789Y-132489711D01*
X68221786Y-132489707D01*
X68110292Y-132378213D01*
X68110288Y-132378210D01*
X67979185Y-132290609D01*
X67979172Y-132290602D01*
X67833501Y-132230264D01*
X67833489Y-132230261D01*
X67678845Y-132199500D01*
X67678842Y-132199500D01*
X67521158Y-132199500D01*
X67521155Y-132199500D01*
X67366510Y-132230261D01*
X67366498Y-132230264D01*
X67220827Y-132290602D01*
X67220814Y-132290609D01*
X67089711Y-132378210D01*
X67089707Y-132378213D01*
X66978213Y-132489707D01*
X66978210Y-132489711D01*
X66890609Y-132620814D01*
X66890602Y-132620827D01*
X66830264Y-132766498D01*
X66830261Y-132766510D01*
X66799500Y-132921153D01*
X59500499Y-132921153D01*
X59469738Y-132766510D01*
X59469737Y-132766503D01*
X59469735Y-132766498D01*
X59409397Y-132620827D01*
X59409390Y-132620814D01*
X59321789Y-132489711D01*
X59321786Y-132489707D01*
X59210292Y-132378213D01*
X59210288Y-132378210D01*
X59079185Y-132290609D01*
X59079172Y-132290602D01*
X58933501Y-132230264D01*
X58933489Y-132230261D01*
X58778845Y-132199500D01*
X58778842Y-132199500D01*
X58621158Y-132199500D01*
X58621155Y-132199500D01*
X58466510Y-132230261D01*
X58466498Y-132230264D01*
X58320827Y-132290602D01*
X58320814Y-132290609D01*
X58189711Y-132378210D01*
X58189707Y-132378213D01*
X58078213Y-132489707D01*
X58078210Y-132489711D01*
X57990609Y-132620814D01*
X57990602Y-132620827D01*
X57930264Y-132766498D01*
X57930261Y-132766510D01*
X57899500Y-132921153D01*
X48100500Y-132921153D01*
X48100500Y-131631941D01*
X48120185Y-131564902D01*
X48172989Y-131519147D01*
X48242147Y-131509203D01*
X48305703Y-131538228D01*
X48312181Y-131544260D01*
X48389707Y-131621786D01*
X48389711Y-131621789D01*
X48520814Y-131709390D01*
X48520827Y-131709397D01*
X48666498Y-131769735D01*
X48666503Y-131769737D01*
X48821153Y-131800499D01*
X48821156Y-131800500D01*
X48821158Y-131800500D01*
X48978844Y-131800500D01*
X48978845Y-131800499D01*
X49133497Y-131769737D01*
X49279179Y-131709394D01*
X49410289Y-131621789D01*
X49521789Y-131510289D01*
X49609394Y-131379179D01*
X49669737Y-131233497D01*
X49700500Y-131078842D01*
X49700500Y-130921158D01*
X49700500Y-130921155D01*
X49700499Y-130921153D01*
X49669738Y-130766510D01*
X49669737Y-130766503D01*
X49669735Y-130766498D01*
X49609397Y-130620827D01*
X49609390Y-130620814D01*
X49521789Y-130489711D01*
X49521786Y-130489707D01*
X49410292Y-130378213D01*
X49410288Y-130378210D01*
X49279185Y-130290609D01*
X49279172Y-130290602D01*
X49133501Y-130230264D01*
X49133489Y-130230261D01*
X48978845Y-130199500D01*
X48978842Y-130199500D01*
X48821158Y-130199500D01*
X48821155Y-130199500D01*
X48666510Y-130230261D01*
X48666498Y-130230264D01*
X48520827Y-130290602D01*
X48520814Y-130290609D01*
X48389711Y-130378210D01*
X48389707Y-130378213D01*
X48312181Y-130455740D01*
X48250858Y-130489225D01*
X48181166Y-130484241D01*
X48125233Y-130442369D01*
X48100816Y-130376905D01*
X48100500Y-130368059D01*
X48100500Y-128498543D01*
X49399499Y-128498543D01*
X49437947Y-128691829D01*
X49437950Y-128691839D01*
X49513364Y-128873907D01*
X49513371Y-128873920D01*
X49622860Y-129037781D01*
X49622863Y-129037785D01*
X49762214Y-129177136D01*
X49762218Y-129177139D01*
X49926079Y-129286628D01*
X49926092Y-129286635D01*
X50108160Y-129362049D01*
X50108165Y-129362051D01*
X50108169Y-129362051D01*
X50108170Y-129362052D01*
X50301456Y-129400500D01*
X50301459Y-129400500D01*
X50498543Y-129400500D01*
X50628582Y-129374632D01*
X50691835Y-129362051D01*
X50873914Y-129286632D01*
X51037782Y-129177139D01*
X51177139Y-129037782D01*
X51286632Y-128873914D01*
X51362051Y-128691835D01*
X51381942Y-128591839D01*
X51400500Y-128498543D01*
X51400500Y-128398543D01*
X58599499Y-128398543D01*
X58637947Y-128591829D01*
X58637950Y-128591839D01*
X58713364Y-128773907D01*
X58713371Y-128773920D01*
X58822860Y-128937781D01*
X58822863Y-128937785D01*
X58962214Y-129077136D01*
X58962218Y-129077139D01*
X59126079Y-129186628D01*
X59126092Y-129186635D01*
X59308160Y-129262049D01*
X59308165Y-129262051D01*
X59308169Y-129262051D01*
X59308170Y-129262052D01*
X59501456Y-129300500D01*
X59501459Y-129300500D01*
X59698543Y-129300500D01*
X59828582Y-129274632D01*
X59891835Y-129262051D01*
X60073914Y-129186632D01*
X60237782Y-129077139D01*
X60377139Y-128937782D01*
X60486632Y-128773914D01*
X60562051Y-128591835D01*
X60600500Y-128398543D01*
X67599499Y-128398543D01*
X67637947Y-128591829D01*
X67637950Y-128591839D01*
X67713364Y-128773907D01*
X67713371Y-128773920D01*
X67822860Y-128937781D01*
X67822863Y-128937785D01*
X67962214Y-129077136D01*
X67962218Y-129077139D01*
X68126079Y-129186628D01*
X68126092Y-129186635D01*
X68308160Y-129262049D01*
X68308165Y-129262051D01*
X68308169Y-129262051D01*
X68308170Y-129262052D01*
X68501456Y-129300500D01*
X68501459Y-129300500D01*
X68698543Y-129300500D01*
X68828582Y-129274632D01*
X68891835Y-129262051D01*
X69073914Y-129186632D01*
X69237782Y-129077139D01*
X69377139Y-128937782D01*
X69486632Y-128773914D01*
X69562051Y-128591835D01*
X69600500Y-128398543D01*
X76599499Y-128398543D01*
X76637947Y-128591829D01*
X76637950Y-128591839D01*
X76713364Y-128773907D01*
X76713371Y-128773920D01*
X76822860Y-128937781D01*
X76822863Y-128937785D01*
X76962214Y-129077136D01*
X76962218Y-129077139D01*
X77126079Y-129186628D01*
X77126092Y-129186635D01*
X77308160Y-129262049D01*
X77308165Y-129262051D01*
X77308169Y-129262051D01*
X77308170Y-129262052D01*
X77501456Y-129300500D01*
X77501459Y-129300500D01*
X77698543Y-129300500D01*
X77828582Y-129274632D01*
X77891835Y-129262051D01*
X78073914Y-129186632D01*
X78237782Y-129077139D01*
X78377139Y-128937782D01*
X78486632Y-128773914D01*
X78562051Y-128591835D01*
X78600500Y-128398543D01*
X85599499Y-128398543D01*
X85637947Y-128591829D01*
X85637950Y-128591839D01*
X85713364Y-128773907D01*
X85713371Y-128773920D01*
X85822860Y-128937781D01*
X85822863Y-128937785D01*
X85962214Y-129077136D01*
X85962218Y-129077139D01*
X86126079Y-129186628D01*
X86126092Y-129186635D01*
X86308160Y-129262049D01*
X86308165Y-129262051D01*
X86308169Y-129262051D01*
X86308170Y-129262052D01*
X86501456Y-129300500D01*
X86501459Y-129300500D01*
X86698543Y-129300500D01*
X86828582Y-129274632D01*
X86891835Y-129262051D01*
X87073914Y-129186632D01*
X87237782Y-129077139D01*
X87377139Y-128937782D01*
X87486632Y-128773914D01*
X87562051Y-128591835D01*
X87600500Y-128398543D01*
X94599499Y-128398543D01*
X94637947Y-128591829D01*
X94637950Y-128591839D01*
X94713364Y-128773907D01*
X94713371Y-128773920D01*
X94822860Y-128937781D01*
X94822863Y-128937785D01*
X94962214Y-129077136D01*
X94962218Y-129077139D01*
X95126079Y-129186628D01*
X95126092Y-129186635D01*
X95308160Y-129262049D01*
X95308165Y-129262051D01*
X95308169Y-129262051D01*
X95308170Y-129262052D01*
X95501456Y-129300500D01*
X95501459Y-129300500D01*
X95698543Y-129300500D01*
X95828582Y-129274632D01*
X95891835Y-129262051D01*
X96073914Y-129186632D01*
X96237782Y-129077139D01*
X96377139Y-128937782D01*
X96486632Y-128773914D01*
X96562051Y-128591835D01*
X96600500Y-128398543D01*
X103599499Y-128398543D01*
X103637947Y-128591829D01*
X103637950Y-128591839D01*
X103713364Y-128773907D01*
X103713371Y-128773920D01*
X103822860Y-128937781D01*
X103822863Y-128937785D01*
X103962214Y-129077136D01*
X103962218Y-129077139D01*
X104126079Y-129186628D01*
X104126092Y-129186635D01*
X104308160Y-129262049D01*
X104308165Y-129262051D01*
X104308169Y-129262051D01*
X104308170Y-129262052D01*
X104501456Y-129300500D01*
X104501459Y-129300500D01*
X104698543Y-129300500D01*
X104828582Y-129274632D01*
X104891835Y-129262051D01*
X105073914Y-129186632D01*
X105237782Y-129077139D01*
X105377139Y-128937782D01*
X105486632Y-128773914D01*
X105562051Y-128591835D01*
X105600500Y-128398543D01*
X112599499Y-128398543D01*
X112637947Y-128591829D01*
X112637950Y-128591839D01*
X112713364Y-128773907D01*
X112713371Y-128773920D01*
X112822860Y-128937781D01*
X112822863Y-128937785D01*
X112962214Y-129077136D01*
X112962218Y-129077139D01*
X113126079Y-129186628D01*
X113126092Y-129186635D01*
X113308160Y-129262049D01*
X113308165Y-129262051D01*
X113308169Y-129262051D01*
X113308170Y-129262052D01*
X113501456Y-129300500D01*
X113501459Y-129300500D01*
X113698543Y-129300500D01*
X113828582Y-129274632D01*
X113891835Y-129262051D01*
X114073914Y-129186632D01*
X114237782Y-129077139D01*
X114377139Y-128937782D01*
X114486632Y-128773914D01*
X114562051Y-128591835D01*
X114600500Y-128398541D01*
X114600500Y-128201459D01*
X114600500Y-128201456D01*
X114562052Y-128008170D01*
X114562051Y-128008169D01*
X114562051Y-128008165D01*
X114528050Y-127926079D01*
X114486635Y-127826092D01*
X114486628Y-127826079D01*
X114377139Y-127662218D01*
X114377136Y-127662214D01*
X114237785Y-127522863D01*
X114237781Y-127522860D01*
X114073920Y-127413371D01*
X114073907Y-127413364D01*
X113891839Y-127337950D01*
X113891829Y-127337947D01*
X113698543Y-127299500D01*
X113698541Y-127299500D01*
X113501459Y-127299500D01*
X113501457Y-127299500D01*
X113308170Y-127337947D01*
X113308160Y-127337950D01*
X113126092Y-127413364D01*
X113126079Y-127413371D01*
X112962218Y-127522860D01*
X112962214Y-127522863D01*
X112822863Y-127662214D01*
X112822860Y-127662218D01*
X112713371Y-127826079D01*
X112713364Y-127826092D01*
X112637950Y-128008160D01*
X112637947Y-128008170D01*
X112599500Y-128201456D01*
X112599500Y-128201459D01*
X112599500Y-128398541D01*
X112599500Y-128398543D01*
X112599499Y-128398543D01*
X105600500Y-128398543D01*
X105600500Y-128398541D01*
X105600500Y-128201459D01*
X105600500Y-128201456D01*
X105562052Y-128008170D01*
X105562051Y-128008169D01*
X105562051Y-128008165D01*
X105528050Y-127926079D01*
X105486635Y-127826092D01*
X105486628Y-127826079D01*
X105377139Y-127662218D01*
X105377136Y-127662214D01*
X105237785Y-127522863D01*
X105237781Y-127522860D01*
X105073920Y-127413371D01*
X105073907Y-127413364D01*
X104891839Y-127337950D01*
X104891829Y-127337947D01*
X104698543Y-127299500D01*
X104698541Y-127299500D01*
X104501459Y-127299500D01*
X104501457Y-127299500D01*
X104308170Y-127337947D01*
X104308160Y-127337950D01*
X104126092Y-127413364D01*
X104126079Y-127413371D01*
X103962218Y-127522860D01*
X103962214Y-127522863D01*
X103822863Y-127662214D01*
X103822860Y-127662218D01*
X103713371Y-127826079D01*
X103713364Y-127826092D01*
X103637950Y-128008160D01*
X103637947Y-128008170D01*
X103599500Y-128201456D01*
X103599500Y-128201459D01*
X103599500Y-128398541D01*
X103599500Y-128398543D01*
X103599499Y-128398543D01*
X96600500Y-128398543D01*
X96600500Y-128398541D01*
X96600500Y-128201459D01*
X96600500Y-128201456D01*
X96562052Y-128008170D01*
X96562051Y-128008169D01*
X96562051Y-128008165D01*
X96528050Y-127926079D01*
X96486635Y-127826092D01*
X96486628Y-127826079D01*
X96377139Y-127662218D01*
X96377136Y-127662214D01*
X96237785Y-127522863D01*
X96237781Y-127522860D01*
X96073920Y-127413371D01*
X96073907Y-127413364D01*
X95891839Y-127337950D01*
X95891829Y-127337947D01*
X95698543Y-127299500D01*
X95698541Y-127299500D01*
X95501459Y-127299500D01*
X95501457Y-127299500D01*
X95308170Y-127337947D01*
X95308160Y-127337950D01*
X95126092Y-127413364D01*
X95126079Y-127413371D01*
X94962218Y-127522860D01*
X94962214Y-127522863D01*
X94822863Y-127662214D01*
X94822860Y-127662218D01*
X94713371Y-127826079D01*
X94713364Y-127826092D01*
X94637950Y-128008160D01*
X94637947Y-128008170D01*
X94599500Y-128201456D01*
X94599500Y-128201459D01*
X94599500Y-128398541D01*
X94599500Y-128398543D01*
X94599499Y-128398543D01*
X87600500Y-128398543D01*
X87600500Y-128398541D01*
X87600500Y-128201459D01*
X87600500Y-128201456D01*
X87562052Y-128008170D01*
X87562051Y-128008169D01*
X87562051Y-128008165D01*
X87528050Y-127926079D01*
X87486635Y-127826092D01*
X87486628Y-127826079D01*
X87377139Y-127662218D01*
X87377136Y-127662214D01*
X87237785Y-127522863D01*
X87237781Y-127522860D01*
X87073920Y-127413371D01*
X87073907Y-127413364D01*
X86891839Y-127337950D01*
X86891829Y-127337947D01*
X86698543Y-127299500D01*
X86698541Y-127299500D01*
X86501459Y-127299500D01*
X86501457Y-127299500D01*
X86308170Y-127337947D01*
X86308160Y-127337950D01*
X86126092Y-127413364D01*
X86126079Y-127413371D01*
X85962218Y-127522860D01*
X85962214Y-127522863D01*
X85822863Y-127662214D01*
X85822860Y-127662218D01*
X85713371Y-127826079D01*
X85713364Y-127826092D01*
X85637950Y-128008160D01*
X85637947Y-128008170D01*
X85599500Y-128201456D01*
X85599500Y-128201459D01*
X85599500Y-128398541D01*
X85599500Y-128398543D01*
X85599499Y-128398543D01*
X78600500Y-128398543D01*
X78600500Y-128398541D01*
X78600500Y-128201459D01*
X78600500Y-128201456D01*
X78562052Y-128008170D01*
X78562051Y-128008169D01*
X78562051Y-128008165D01*
X78528050Y-127926079D01*
X78486635Y-127826092D01*
X78486628Y-127826079D01*
X78377139Y-127662218D01*
X78377136Y-127662214D01*
X78237785Y-127522863D01*
X78237781Y-127522860D01*
X78073920Y-127413371D01*
X78073907Y-127413364D01*
X77891839Y-127337950D01*
X77891829Y-127337947D01*
X77698543Y-127299500D01*
X77698541Y-127299500D01*
X77501459Y-127299500D01*
X77501457Y-127299500D01*
X77308170Y-127337947D01*
X77308160Y-127337950D01*
X77126092Y-127413364D01*
X77126079Y-127413371D01*
X76962218Y-127522860D01*
X76962214Y-127522863D01*
X76822863Y-127662214D01*
X76822860Y-127662218D01*
X76713371Y-127826079D01*
X76713364Y-127826092D01*
X76637950Y-128008160D01*
X76637947Y-128008170D01*
X76599500Y-128201456D01*
X76599500Y-128201459D01*
X76599500Y-128398541D01*
X76599500Y-128398543D01*
X76599499Y-128398543D01*
X69600500Y-128398543D01*
X69600500Y-128398541D01*
X69600500Y-128201459D01*
X69600500Y-128201456D01*
X69562052Y-128008170D01*
X69562051Y-128008169D01*
X69562051Y-128008165D01*
X69528050Y-127926079D01*
X69486635Y-127826092D01*
X69486628Y-127826079D01*
X69377139Y-127662218D01*
X69377136Y-127662214D01*
X69237785Y-127522863D01*
X69237781Y-127522860D01*
X69073920Y-127413371D01*
X69073907Y-127413364D01*
X68891839Y-127337950D01*
X68891829Y-127337947D01*
X68698543Y-127299500D01*
X68698541Y-127299500D01*
X68501459Y-127299500D01*
X68501457Y-127299500D01*
X68308170Y-127337947D01*
X68308160Y-127337950D01*
X68126092Y-127413364D01*
X68126079Y-127413371D01*
X67962218Y-127522860D01*
X67962214Y-127522863D01*
X67822863Y-127662214D01*
X67822860Y-127662218D01*
X67713371Y-127826079D01*
X67713364Y-127826092D01*
X67637950Y-128008160D01*
X67637947Y-128008170D01*
X67599500Y-128201456D01*
X67599500Y-128201459D01*
X67599500Y-128398541D01*
X67599500Y-128398543D01*
X67599499Y-128398543D01*
X60600500Y-128398543D01*
X60600500Y-128398541D01*
X60600500Y-128201459D01*
X60600500Y-128201456D01*
X60562052Y-128008170D01*
X60562051Y-128008169D01*
X60562051Y-128008165D01*
X60528050Y-127926079D01*
X60486635Y-127826092D01*
X60486628Y-127826079D01*
X60377139Y-127662218D01*
X60377136Y-127662214D01*
X60237785Y-127522863D01*
X60237781Y-127522860D01*
X60073920Y-127413371D01*
X60073907Y-127413364D01*
X59891839Y-127337950D01*
X59891829Y-127337947D01*
X59698543Y-127299500D01*
X59698541Y-127299500D01*
X59501459Y-127299500D01*
X59501457Y-127299500D01*
X59308170Y-127337947D01*
X59308160Y-127337950D01*
X59126092Y-127413364D01*
X59126079Y-127413371D01*
X58962218Y-127522860D01*
X58962214Y-127522863D01*
X58822863Y-127662214D01*
X58822860Y-127662218D01*
X58713371Y-127826079D01*
X58713364Y-127826092D01*
X58637950Y-128008160D01*
X58637947Y-128008170D01*
X58599500Y-128201456D01*
X58599500Y-128201459D01*
X58599500Y-128398541D01*
X58599500Y-128398543D01*
X58599499Y-128398543D01*
X51400500Y-128398543D01*
X51400500Y-128301456D01*
X51384209Y-128219559D01*
X51384209Y-128219558D01*
X51362052Y-128108172D01*
X51362052Y-128108170D01*
X51362051Y-128108165D01*
X51320628Y-128008160D01*
X51286635Y-127926092D01*
X51286628Y-127926079D01*
X51177139Y-127762218D01*
X51177136Y-127762214D01*
X51037785Y-127622863D01*
X51037781Y-127622860D01*
X50873920Y-127513371D01*
X50873907Y-127513364D01*
X50691839Y-127437950D01*
X50691829Y-127437947D01*
X50498543Y-127399500D01*
X50498541Y-127399500D01*
X50301459Y-127399500D01*
X50301457Y-127399500D01*
X50108170Y-127437947D01*
X50108160Y-127437950D01*
X49926092Y-127513364D01*
X49926079Y-127513371D01*
X49762218Y-127622860D01*
X49762214Y-127622863D01*
X49622863Y-127762214D01*
X49622860Y-127762218D01*
X49513371Y-127926079D01*
X49513364Y-127926092D01*
X49437950Y-128108160D01*
X49437947Y-128108170D01*
X49399500Y-128301456D01*
X49399500Y-128301459D01*
X49399500Y-128498541D01*
X49399500Y-128498543D01*
X49399499Y-128498543D01*
X48100500Y-128498543D01*
X48100500Y-124624500D01*
X48120185Y-124557461D01*
X48172989Y-124511706D01*
X48224500Y-124500500D01*
X120375500Y-124500500D01*
X120442539Y-124520185D01*
G37*
%TD.AperFunction*%
%TD*%
M02*
