%TF.GenerationSoftware,KiCad,Pcbnew,9.0.7*%
%TF.CreationDate,2026-03-02T14:34:11+01:00*%
%TF.ProjectId,REG8bit-SMD-V5.0,52454738-6269-4742-9d53-4d442d56352e,rev?*%
%TF.SameCoordinates,Original*%
%TF.FileFunction,Copper,L2,Inr*%
%TF.FilePolarity,Positive*%
%FSLAX46Y46*%
G04 Gerber Fmt 4.6, Leading zero omitted, Abs format (unit mm)*
G04 Created by KiCad (PCBNEW 9.0.7) date 2026-03-02 14:34:11*
%MOMM*%
%LPD*%
G01*
G04 APERTURE LIST*
%TA.AperFunction,ComponentPad*%
%ADD10R,1.700000X1.700000*%
%TD*%
%TA.AperFunction,ComponentPad*%
%ADD11C,1.700000*%
%TD*%
%TA.AperFunction,ViaPad*%
%ADD12C,1.000000*%
%TD*%
%TA.AperFunction,ViaPad*%
%ADD13C,0.600000*%
%TD*%
%TA.AperFunction,ViaPad*%
%ADD14C,1.500000*%
%TD*%
%TA.AperFunction,Conductor*%
%ADD15C,0.200000*%
%TD*%
G04 APERTURE END LIST*
D10*
%TO.N,Net-(J1-Pin_1)*%
%TO.C,J1*%
X109700000Y-154300000D03*
D11*
%TO.N,Net-(J1-Pin_2)*%
X107160000Y-154300000D03*
%TO.N,Net-(J1-Pin_3)*%
X104620000Y-154300000D03*
%TO.N,Net-(J1-Pin_4)*%
X102080000Y-154300000D03*
%TO.N,Net-(J1-Pin_5)*%
X99540000Y-154300000D03*
%TO.N,Net-(J1-Pin_6)*%
X97000000Y-154300000D03*
%TO.N,Net-(J1-Pin_7)*%
X94460000Y-154300000D03*
%TO.N,Net-(J1-Pin_8)*%
X91920000Y-154300000D03*
%TO.N,Net-(J1-Pin_9)*%
X89380000Y-154300000D03*
%TO.N,Net-(J1-Pin_10)*%
X86840000Y-154300000D03*
%TO.N,Net-(J1-Pin_11)*%
X84300000Y-154300000D03*
%TO.N,Net-(J1-Pin_12)*%
X81760000Y-154300000D03*
%TO.N,Net-(J1-Pin_13)*%
X79220000Y-154300000D03*
%TO.N,Net-(J1-Pin_14)*%
X76680000Y-154300000D03*
%TO.N,Net-(J1-Pin_15)*%
X74140000Y-154300000D03*
%TO.N,Net-(J1-Pin_16)*%
X71600000Y-154300000D03*
%TO.N,/Rise_egde*%
X69060000Y-154300000D03*
%TO.N,/R*%
X66520000Y-154300000D03*
%TO.N,/RST*%
X63980000Y-154300000D03*
%TO.N,Earth*%
X61440000Y-154300000D03*
%TO.N,VCC*%
X58900000Y-154300000D03*
%TD*%
D12*
%TO.N,VCC*%
X86600000Y-128300000D03*
X112700000Y-148200000D03*
D13*
X88600000Y-146700000D03*
X97300000Y-146700000D03*
X70400000Y-146600000D03*
D12*
X59600000Y-128300000D03*
D13*
X106100000Y-146700000D03*
D14*
X112600000Y-154400000D03*
D12*
X104600000Y-128300000D03*
D13*
X61700000Y-146300000D03*
D14*
X115800000Y-154400000D03*
D13*
X53100000Y-148000000D03*
X78700000Y-146800000D03*
D12*
X113600000Y-128300000D03*
X50400000Y-128400000D03*
X77600000Y-128300000D03*
X68600000Y-128300000D03*
X61000000Y-149300000D03*
D14*
X118800000Y-154400000D03*
D12*
X95600000Y-128300000D03*
D13*
%TO.N,Earth*%
X83900000Y-144000000D03*
X60900000Y-151000000D03*
X110900000Y-144000000D03*
D12*
X66900000Y-152000000D03*
D13*
X85800000Y-143000000D03*
D14*
X118900000Y-149300000D03*
D13*
X68000000Y-143000000D03*
X94900000Y-142900000D03*
D12*
X65000000Y-125500000D03*
X119000000Y-125500000D03*
D13*
X113000000Y-142900000D03*
X120000000Y-144100000D03*
X92924000Y-144000000D03*
D12*
X110000000Y-125500000D03*
X74000000Y-125500000D03*
D13*
X104000000Y-143000000D03*
X76900000Y-143000000D03*
D12*
X92000000Y-125600000D03*
D13*
X52994485Y-130605515D03*
X74800000Y-144000000D03*
D14*
X111000000Y-148800000D03*
D12*
X83000000Y-125500000D03*
X56000000Y-125500000D03*
D13*
X101900000Y-144000000D03*
D12*
X101000000Y-125500000D03*
D13*
%TO.N,Net-(Q1-D)*%
X64900000Y-137900000D03*
X55900000Y-137900000D03*
X52900000Y-146000000D03*
X118500000Y-137900000D03*
X109700000Y-137900000D03*
X82700000Y-137900000D03*
X91700000Y-137900000D03*
X73600000Y-137900000D03*
X100700000Y-137900000D03*
%TO.N,/RST*%
X58900000Y-142000000D03*
X66100000Y-147300000D03*
X85900000Y-142000000D03*
X76900000Y-142000000D03*
X69300000Y-142000000D03*
X104000000Y-142000000D03*
X113000000Y-142000000D03*
X95000000Y-142000000D03*
X67200000Y-142000000D03*
X52000000Y-142000000D03*
%TO.N,Net-(Q10-D)*%
X48900000Y-131000000D03*
X54062500Y-134825000D03*
%TO.N,Net-(Q17-D)*%
X58700000Y-133000000D03*
X63062500Y-134825000D03*
%TO.N,Net-(Q27-D)*%
X67600000Y-133000000D03*
X72062500Y-134825000D03*
%TO.N,Net-(Q37-D)*%
X81062500Y-134825000D03*
X76600000Y-133000000D03*
%TO.N,Net-(Q47-D)*%
X85700000Y-133000000D03*
X90062500Y-134825000D03*
%TO.N,Net-(Q57-D)*%
X94600000Y-133000000D03*
X99062500Y-134825000D03*
%TO.N,Net-(Q67-D)*%
X108062500Y-134825000D03*
X103600000Y-133000000D03*
%TO.N,Net-(Q77-D)*%
X112600000Y-133000000D03*
X117062500Y-134825000D03*
%TO.N,Net-(J1-Pin_16)*%
X54500000Y-145000000D03*
%TO.N,Net-(J1-Pin_10)*%
X108500000Y-146800000D03*
%TO.N,Net-(J1-Pin_8)*%
X49000000Y-141600000D03*
X91900000Y-149300000D03*
X53400764Y-145200000D03*
%TO.N,Net-(J1-Pin_11)*%
X99500000Y-146711000D03*
%TO.N,Net-(J1-Pin_12)*%
X90500000Y-146800000D03*
%TO.N,Net-(J1-Pin_7)*%
X94400000Y-149114000D03*
%TO.N,Net-(J1-Pin_9)*%
X115200000Y-146300000D03*
%TO.N,Net-(J1-Pin_14)*%
X72500000Y-146800000D03*
%TO.N,Net-(J1-Pin_13)*%
X81400000Y-146800000D03*
%TO.N,Net-(J1-Pin_15)*%
X63500000Y-146300000D03*
%TO.N,Net-(J1-Pin_5)*%
X99500000Y-148600000D03*
%TO.N,Net-(J1-Pin_6)*%
X97000000Y-148800000D03*
%TO.N,Net-(J1-Pin_4)*%
X102000000Y-148500000D03*
%TO.N,Net-(J1-Pin_3)*%
X104620000Y-148521000D03*
%TO.N,Net-(J1-Pin_1)*%
X109700000Y-147700000D03*
%TO.N,Net-(J1-Pin_2)*%
X107100000Y-148500000D03*
%TO.N,Net-(Q1-G)*%
X118600000Y-146000000D03*
X73900000Y-146000000D03*
X91900000Y-146000000D03*
X109900000Y-146000000D03*
X100900000Y-146000000D03*
X64900000Y-146000000D03*
X63100000Y-148200000D03*
X56924000Y-145700000D03*
X82900000Y-146000000D03*
%TD*%
D15*
%TO.N,VCC*%
X58900000Y-154300000D02*
X58900000Y-151500000D01*
X58900000Y-154300000D02*
X58200000Y-154300000D01*
X58200000Y-154300000D02*
X57500000Y-155000000D01*
X58900000Y-154300000D02*
X56300000Y-154300000D01*
%TD*%
%TA.AperFunction,Conductor*%
%TO.N,VCC*%
G36*
X55353647Y-124520185D02*
G01*
X55399402Y-124572989D01*
X55409346Y-124642147D01*
X55380321Y-124705703D01*
X55365275Y-124720352D01*
X55362212Y-124722865D01*
X55222863Y-124862214D01*
X55222860Y-124862218D01*
X55113371Y-125026079D01*
X55113364Y-125026092D01*
X55037950Y-125208160D01*
X55037947Y-125208170D01*
X54999500Y-125401456D01*
X54999500Y-125401459D01*
X54999500Y-125598541D01*
X54999500Y-125598543D01*
X54999499Y-125598543D01*
X55037947Y-125791829D01*
X55037950Y-125791839D01*
X55113364Y-125973907D01*
X55113371Y-125973920D01*
X55222860Y-126137781D01*
X55222863Y-126137785D01*
X55362214Y-126277136D01*
X55362218Y-126277139D01*
X55526079Y-126386628D01*
X55526092Y-126386635D01*
X55708160Y-126462049D01*
X55708165Y-126462051D01*
X55708169Y-126462051D01*
X55708170Y-126462052D01*
X55901456Y-126500500D01*
X55901459Y-126500500D01*
X56098543Y-126500500D01*
X56228582Y-126474632D01*
X56291835Y-126462051D01*
X56473914Y-126386632D01*
X56637782Y-126277139D01*
X56777139Y-126137782D01*
X56886632Y-125973914D01*
X56962051Y-125791835D01*
X57000500Y-125598541D01*
X57000500Y-125401459D01*
X57000500Y-125401456D01*
X56962052Y-125208170D01*
X56962051Y-125208169D01*
X56962051Y-125208165D01*
X56928050Y-125126079D01*
X56886635Y-125026092D01*
X56886628Y-125026079D01*
X56777139Y-124862218D01*
X56777136Y-124862214D01*
X56637787Y-124722865D01*
X56634725Y-124720352D01*
X56633552Y-124718630D01*
X56633475Y-124718553D01*
X56633489Y-124718538D01*
X56595392Y-124662605D01*
X56593523Y-124592761D01*
X56629711Y-124532993D01*
X56692468Y-124502278D01*
X56713392Y-124500500D01*
X64286608Y-124500500D01*
X64353647Y-124520185D01*
X64399402Y-124572989D01*
X64409346Y-124642147D01*
X64380321Y-124705703D01*
X64365275Y-124720352D01*
X64362212Y-124722865D01*
X64222863Y-124862214D01*
X64222860Y-124862218D01*
X64113371Y-125026079D01*
X64113364Y-125026092D01*
X64037950Y-125208160D01*
X64037947Y-125208170D01*
X63999500Y-125401456D01*
X63999500Y-125401459D01*
X63999500Y-125598541D01*
X63999500Y-125598543D01*
X63999499Y-125598543D01*
X64037947Y-125791829D01*
X64037950Y-125791839D01*
X64113364Y-125973907D01*
X64113371Y-125973920D01*
X64222860Y-126137781D01*
X64222863Y-126137785D01*
X64362214Y-126277136D01*
X64362218Y-126277139D01*
X64526079Y-126386628D01*
X64526092Y-126386635D01*
X64708160Y-126462049D01*
X64708165Y-126462051D01*
X64708169Y-126462051D01*
X64708170Y-126462052D01*
X64901456Y-126500500D01*
X64901459Y-126500500D01*
X65098543Y-126500500D01*
X65228582Y-126474632D01*
X65291835Y-126462051D01*
X65473914Y-126386632D01*
X65637782Y-126277139D01*
X65777139Y-126137782D01*
X65886632Y-125973914D01*
X65962051Y-125791835D01*
X66000500Y-125598541D01*
X66000500Y-125401459D01*
X66000500Y-125401456D01*
X65962052Y-125208170D01*
X65962051Y-125208169D01*
X65962051Y-125208165D01*
X65928050Y-125126079D01*
X65886635Y-125026092D01*
X65886628Y-125026079D01*
X65777139Y-124862218D01*
X65777136Y-124862214D01*
X65637787Y-124722865D01*
X65634725Y-124720352D01*
X65633552Y-124718630D01*
X65633475Y-124718553D01*
X65633489Y-124718538D01*
X65595392Y-124662605D01*
X65593523Y-124592761D01*
X65629711Y-124532993D01*
X65692468Y-124502278D01*
X65713392Y-124500500D01*
X73286608Y-124500500D01*
X73353647Y-124520185D01*
X73399402Y-124572989D01*
X73409346Y-124642147D01*
X73380321Y-124705703D01*
X73365275Y-124720352D01*
X73362212Y-124722865D01*
X73222863Y-124862214D01*
X73222860Y-124862218D01*
X73113371Y-125026079D01*
X73113364Y-125026092D01*
X73037950Y-125208160D01*
X73037947Y-125208170D01*
X72999500Y-125401456D01*
X72999500Y-125401459D01*
X72999500Y-125598541D01*
X72999500Y-125598543D01*
X72999499Y-125598543D01*
X73037947Y-125791829D01*
X73037950Y-125791839D01*
X73113364Y-125973907D01*
X73113371Y-125973920D01*
X73222860Y-126137781D01*
X73222863Y-126137785D01*
X73362214Y-126277136D01*
X73362218Y-126277139D01*
X73526079Y-126386628D01*
X73526092Y-126386635D01*
X73708160Y-126462049D01*
X73708165Y-126462051D01*
X73708169Y-126462051D01*
X73708170Y-126462052D01*
X73901456Y-126500500D01*
X73901459Y-126500500D01*
X74098543Y-126500500D01*
X74228582Y-126474632D01*
X74291835Y-126462051D01*
X74473914Y-126386632D01*
X74637782Y-126277139D01*
X74777139Y-126137782D01*
X74886632Y-125973914D01*
X74962051Y-125791835D01*
X75000500Y-125598541D01*
X75000500Y-125401459D01*
X75000500Y-125401456D01*
X74962052Y-125208170D01*
X74962051Y-125208169D01*
X74962051Y-125208165D01*
X74928050Y-125126079D01*
X74886635Y-125026092D01*
X74886628Y-125026079D01*
X74777139Y-124862218D01*
X74777136Y-124862214D01*
X74637787Y-124722865D01*
X74634725Y-124720352D01*
X74633552Y-124718630D01*
X74633475Y-124718553D01*
X74633489Y-124718538D01*
X74595392Y-124662605D01*
X74593523Y-124592761D01*
X74629711Y-124532993D01*
X74692468Y-124502278D01*
X74713392Y-124500500D01*
X82286608Y-124500500D01*
X82353647Y-124520185D01*
X82399402Y-124572989D01*
X82409346Y-124642147D01*
X82380321Y-124705703D01*
X82365275Y-124720352D01*
X82362212Y-124722865D01*
X82222863Y-124862214D01*
X82222860Y-124862218D01*
X82113371Y-125026079D01*
X82113364Y-125026092D01*
X82037950Y-125208160D01*
X82037947Y-125208170D01*
X81999500Y-125401456D01*
X81999500Y-125401459D01*
X81999500Y-125598541D01*
X81999500Y-125598543D01*
X81999499Y-125598543D01*
X82037947Y-125791829D01*
X82037950Y-125791839D01*
X82113364Y-125973907D01*
X82113371Y-125973920D01*
X82222860Y-126137781D01*
X82222863Y-126137785D01*
X82362214Y-126277136D01*
X82362218Y-126277139D01*
X82526079Y-126386628D01*
X82526092Y-126386635D01*
X82708160Y-126462049D01*
X82708165Y-126462051D01*
X82708169Y-126462051D01*
X82708170Y-126462052D01*
X82901456Y-126500500D01*
X82901459Y-126500500D01*
X83098543Y-126500500D01*
X83228582Y-126474632D01*
X83291835Y-126462051D01*
X83473914Y-126386632D01*
X83637782Y-126277139D01*
X83777139Y-126137782D01*
X83886632Y-125973914D01*
X83962051Y-125791835D01*
X84000500Y-125598541D01*
X84000500Y-125401459D01*
X84000500Y-125401456D01*
X83962052Y-125208170D01*
X83962051Y-125208169D01*
X83962051Y-125208165D01*
X83928050Y-125126079D01*
X83886635Y-125026092D01*
X83886628Y-125026079D01*
X83777139Y-124862218D01*
X83777136Y-124862214D01*
X83637787Y-124722865D01*
X83634725Y-124720352D01*
X83633552Y-124718630D01*
X83633475Y-124718553D01*
X83633489Y-124718538D01*
X83595392Y-124662605D01*
X83593523Y-124592761D01*
X83629711Y-124532993D01*
X83692468Y-124502278D01*
X83713392Y-124500500D01*
X91435891Y-124500500D01*
X91502930Y-124520185D01*
X91548685Y-124572989D01*
X91558629Y-124642147D01*
X91529604Y-124705703D01*
X91504782Y-124727602D01*
X91362218Y-124822860D01*
X91362214Y-124822863D01*
X91222863Y-124962214D01*
X91222860Y-124962218D01*
X91113371Y-125126079D01*
X91113364Y-125126092D01*
X91037950Y-125308160D01*
X91037947Y-125308170D01*
X90999500Y-125501456D01*
X90999500Y-125501459D01*
X90999500Y-125698541D01*
X90999500Y-125698543D01*
X90999499Y-125698543D01*
X91037947Y-125891829D01*
X91037950Y-125891839D01*
X91113364Y-126073907D01*
X91113371Y-126073920D01*
X91222860Y-126237781D01*
X91222863Y-126237785D01*
X91362214Y-126377136D01*
X91362218Y-126377139D01*
X91526079Y-126486628D01*
X91526092Y-126486635D01*
X91708160Y-126562049D01*
X91708165Y-126562051D01*
X91708169Y-126562051D01*
X91708170Y-126562052D01*
X91901456Y-126600500D01*
X91901459Y-126600500D01*
X92098543Y-126600500D01*
X92228582Y-126574632D01*
X92291835Y-126562051D01*
X92473914Y-126486632D01*
X92637782Y-126377139D01*
X92777139Y-126237782D01*
X92886632Y-126073914D01*
X92962051Y-125891835D01*
X92981942Y-125791839D01*
X93000500Y-125698543D01*
X93000500Y-125501456D01*
X92962052Y-125308170D01*
X92962051Y-125308169D01*
X92962051Y-125308165D01*
X92920628Y-125208160D01*
X92886635Y-125126092D01*
X92886628Y-125126079D01*
X92777139Y-124962218D01*
X92777136Y-124962214D01*
X92637785Y-124822863D01*
X92637781Y-124822860D01*
X92495218Y-124727602D01*
X92450413Y-124673990D01*
X92441706Y-124604665D01*
X92471861Y-124541637D01*
X92531304Y-124504918D01*
X92564109Y-124500500D01*
X100286608Y-124500500D01*
X100353647Y-124520185D01*
X100399402Y-124572989D01*
X100409346Y-124642147D01*
X100380321Y-124705703D01*
X100365275Y-124720352D01*
X100362212Y-124722865D01*
X100222863Y-124862214D01*
X100222860Y-124862218D01*
X100113371Y-125026079D01*
X100113364Y-125026092D01*
X100037950Y-125208160D01*
X100037947Y-125208170D01*
X99999500Y-125401456D01*
X99999500Y-125401459D01*
X99999500Y-125598541D01*
X99999500Y-125598543D01*
X99999499Y-125598543D01*
X100037947Y-125791829D01*
X100037950Y-125791839D01*
X100113364Y-125973907D01*
X100113371Y-125973920D01*
X100222860Y-126137781D01*
X100222863Y-126137785D01*
X100362214Y-126277136D01*
X100362218Y-126277139D01*
X100526079Y-126386628D01*
X100526092Y-126386635D01*
X100708160Y-126462049D01*
X100708165Y-126462051D01*
X100708169Y-126462051D01*
X100708170Y-126462052D01*
X100901456Y-126500500D01*
X100901459Y-126500500D01*
X101098543Y-126500500D01*
X101228582Y-126474632D01*
X101291835Y-126462051D01*
X101473914Y-126386632D01*
X101637782Y-126277139D01*
X101777139Y-126137782D01*
X101886632Y-125973914D01*
X101962051Y-125791835D01*
X102000500Y-125598541D01*
X102000500Y-125401459D01*
X102000500Y-125401456D01*
X101962052Y-125208170D01*
X101962051Y-125208169D01*
X101962051Y-125208165D01*
X101928050Y-125126079D01*
X101886635Y-125026092D01*
X101886628Y-125026079D01*
X101777139Y-124862218D01*
X101777136Y-124862214D01*
X101637787Y-124722865D01*
X101634725Y-124720352D01*
X101633552Y-124718630D01*
X101633475Y-124718553D01*
X101633489Y-124718538D01*
X101595392Y-124662605D01*
X101593523Y-124592761D01*
X101629711Y-124532993D01*
X101692468Y-124502278D01*
X101713392Y-124500500D01*
X109286608Y-124500500D01*
X109353647Y-124520185D01*
X109399402Y-124572989D01*
X109409346Y-124642147D01*
X109380321Y-124705703D01*
X109365275Y-124720352D01*
X109362212Y-124722865D01*
X109222863Y-124862214D01*
X109222860Y-124862218D01*
X109113371Y-125026079D01*
X109113364Y-125026092D01*
X109037950Y-125208160D01*
X109037947Y-125208170D01*
X108999500Y-125401456D01*
X108999500Y-125401459D01*
X108999500Y-125598541D01*
X108999500Y-125598543D01*
X108999499Y-125598543D01*
X109037947Y-125791829D01*
X109037950Y-125791839D01*
X109113364Y-125973907D01*
X109113371Y-125973920D01*
X109222860Y-126137781D01*
X109222863Y-126137785D01*
X109362214Y-126277136D01*
X109362218Y-126277139D01*
X109526079Y-126386628D01*
X109526092Y-126386635D01*
X109708160Y-126462049D01*
X109708165Y-126462051D01*
X109708169Y-126462051D01*
X109708170Y-126462052D01*
X109901456Y-126500500D01*
X109901459Y-126500500D01*
X110098543Y-126500500D01*
X110228582Y-126474632D01*
X110291835Y-126462051D01*
X110473914Y-126386632D01*
X110637782Y-126277139D01*
X110777139Y-126137782D01*
X110886632Y-125973914D01*
X110962051Y-125791835D01*
X111000500Y-125598541D01*
X111000500Y-125401459D01*
X111000500Y-125401456D01*
X110962052Y-125208170D01*
X110962051Y-125208169D01*
X110962051Y-125208165D01*
X110928050Y-125126079D01*
X110886635Y-125026092D01*
X110886628Y-125026079D01*
X110777139Y-124862218D01*
X110777136Y-124862214D01*
X110637787Y-124722865D01*
X110634725Y-124720352D01*
X110633552Y-124718630D01*
X110633475Y-124718553D01*
X110633489Y-124718538D01*
X110595392Y-124662605D01*
X110593523Y-124592761D01*
X110629711Y-124532993D01*
X110692468Y-124502278D01*
X110713392Y-124500500D01*
X118286608Y-124500500D01*
X118353647Y-124520185D01*
X118399402Y-124572989D01*
X118409346Y-124642147D01*
X118380321Y-124705703D01*
X118365275Y-124720352D01*
X118362212Y-124722865D01*
X118222863Y-124862214D01*
X118222860Y-124862218D01*
X118113371Y-125026079D01*
X118113364Y-125026092D01*
X118037950Y-125208160D01*
X118037947Y-125208170D01*
X117999500Y-125401456D01*
X117999500Y-125401459D01*
X117999500Y-125598541D01*
X117999500Y-125598543D01*
X117999499Y-125598543D01*
X118037947Y-125791829D01*
X118037950Y-125791839D01*
X118113364Y-125973907D01*
X118113371Y-125973920D01*
X118222860Y-126137781D01*
X118222863Y-126137785D01*
X118362214Y-126277136D01*
X118362218Y-126277139D01*
X118526079Y-126386628D01*
X118526092Y-126386635D01*
X118708160Y-126462049D01*
X118708165Y-126462051D01*
X118708169Y-126462051D01*
X118708170Y-126462052D01*
X118901456Y-126500500D01*
X118901459Y-126500500D01*
X119098543Y-126500500D01*
X119228582Y-126474632D01*
X119291835Y-126462051D01*
X119473914Y-126386632D01*
X119637782Y-126277139D01*
X119777139Y-126137782D01*
X119886632Y-125973914D01*
X119962051Y-125791835D01*
X120000500Y-125598541D01*
X120000500Y-125401459D01*
X120000500Y-125401456D01*
X119962052Y-125208170D01*
X119962051Y-125208169D01*
X119962051Y-125208165D01*
X119928050Y-125126079D01*
X119886635Y-125026092D01*
X119886628Y-125026079D01*
X119777139Y-124862218D01*
X119777136Y-124862214D01*
X119637787Y-124722865D01*
X119634725Y-124720352D01*
X119633552Y-124718630D01*
X119633475Y-124718553D01*
X119633489Y-124718538D01*
X119595392Y-124662605D01*
X119593523Y-124592761D01*
X119629711Y-124532993D01*
X119692468Y-124502278D01*
X119713392Y-124500500D01*
X120375500Y-124500500D01*
X120442539Y-124520185D01*
X120488294Y-124572989D01*
X120499500Y-124624500D01*
X120499500Y-143254865D01*
X120479815Y-143321904D01*
X120427011Y-143367659D01*
X120357853Y-143377603D01*
X120328048Y-143369427D01*
X120323780Y-143367659D01*
X120233497Y-143330263D01*
X120233494Y-143330262D01*
X120233491Y-143330261D01*
X120078845Y-143299500D01*
X120078842Y-143299500D01*
X119921158Y-143299500D01*
X119921155Y-143299500D01*
X119766510Y-143330261D01*
X119766498Y-143330264D01*
X119620827Y-143390602D01*
X119620814Y-143390609D01*
X119489711Y-143478210D01*
X119489707Y-143478213D01*
X119378213Y-143589707D01*
X119378210Y-143589711D01*
X119290609Y-143720814D01*
X119290602Y-143720827D01*
X119230264Y-143866498D01*
X119230261Y-143866510D01*
X119199500Y-144021153D01*
X119199500Y-144178846D01*
X119230261Y-144333489D01*
X119230264Y-144333501D01*
X119290602Y-144479172D01*
X119290609Y-144479185D01*
X119378210Y-144610288D01*
X119378213Y-144610292D01*
X119489707Y-144721786D01*
X119489711Y-144721789D01*
X119620814Y-144809390D01*
X119620827Y-144809397D01*
X119729425Y-144854379D01*
X119766503Y-144869737D01*
X119916131Y-144899500D01*
X119921153Y-144900499D01*
X119921156Y-144900500D01*
X119921158Y-144900500D01*
X120078844Y-144900500D01*
X120078845Y-144900499D01*
X120233497Y-144869737D01*
X120328048Y-144830572D01*
X120397517Y-144823104D01*
X120459996Y-144854379D01*
X120495648Y-144914468D01*
X120499500Y-144945134D01*
X120499500Y-146065892D01*
X120503060Y-146079179D01*
X120533608Y-146193187D01*
X120556884Y-146233501D01*
X120599500Y-146307314D01*
X120692686Y-146400500D01*
X120806814Y-146466392D01*
X120934108Y-146500500D01*
X121065892Y-146500500D01*
X122375500Y-146500500D01*
X122442539Y-146520185D01*
X122488294Y-146572989D01*
X122499500Y-146624500D01*
X122499500Y-155175500D01*
X122479815Y-155242539D01*
X122427011Y-155288294D01*
X122375500Y-155299500D01*
X111174500Y-155299500D01*
X111107461Y-155279815D01*
X111061706Y-155227011D01*
X111050500Y-155175500D01*
X111050499Y-153402129D01*
X111050498Y-153402123D01*
X111044091Y-153342516D01*
X110993797Y-153207671D01*
X110993793Y-153207664D01*
X110907547Y-153092455D01*
X110907544Y-153092452D01*
X110792335Y-153006206D01*
X110792328Y-153006202D01*
X110657482Y-152955908D01*
X110657483Y-152955908D01*
X110597883Y-152949501D01*
X110597881Y-152949500D01*
X110597873Y-152949500D01*
X110597864Y-152949500D01*
X108802129Y-152949500D01*
X108802123Y-152949501D01*
X108742516Y-152955908D01*
X108607671Y-153006202D01*
X108607664Y-153006206D01*
X108492455Y-153092452D01*
X108492452Y-153092455D01*
X108406206Y-153207664D01*
X108406203Y-153207669D01*
X108357189Y-153339083D01*
X108315317Y-153395016D01*
X108249853Y-153419433D01*
X108181580Y-153404581D01*
X108153326Y-153383430D01*
X108039786Y-153269890D01*
X107867820Y-153144951D01*
X107678414Y-153048444D01*
X107678413Y-153048443D01*
X107678412Y-153048443D01*
X107476243Y-152982754D01*
X107476241Y-152982753D01*
X107476240Y-152982753D01*
X107314957Y-152957208D01*
X107266287Y-152949500D01*
X107053713Y-152949500D01*
X107005042Y-152957208D01*
X106843760Y-152982753D01*
X106641585Y-153048444D01*
X106452179Y-153144951D01*
X106280213Y-153269890D01*
X106129890Y-153420213D01*
X106004949Y-153592182D01*
X106000484Y-153600946D01*
X105952509Y-153651742D01*
X105884688Y-153668536D01*
X105818553Y-153645998D01*
X105779516Y-153600946D01*
X105775050Y-153592182D01*
X105650109Y-153420213D01*
X105499786Y-153269890D01*
X105327820Y-153144951D01*
X105138414Y-153048444D01*
X105138413Y-153048443D01*
X105138412Y-153048443D01*
X104936243Y-152982754D01*
X104936241Y-152982753D01*
X104936240Y-152982753D01*
X104774957Y-152957208D01*
X104726287Y-152949500D01*
X104513713Y-152949500D01*
X104465042Y-152957208D01*
X104303760Y-152982753D01*
X104101585Y-153048444D01*
X103912179Y-153144951D01*
X103740213Y-153269890D01*
X103589890Y-153420213D01*
X103464949Y-153592182D01*
X103460484Y-153600946D01*
X103412509Y-153651742D01*
X103344688Y-153668536D01*
X103278553Y-153645998D01*
X103239516Y-153600946D01*
X103235050Y-153592182D01*
X103110109Y-153420213D01*
X102959786Y-153269890D01*
X102787820Y-153144951D01*
X102598414Y-153048444D01*
X102598413Y-153048443D01*
X102598412Y-153048443D01*
X102396243Y-152982754D01*
X102396241Y-152982753D01*
X102396240Y-152982753D01*
X102234957Y-152957208D01*
X102186287Y-152949500D01*
X101973713Y-152949500D01*
X101925042Y-152957208D01*
X101763760Y-152982753D01*
X101561585Y-153048444D01*
X101372179Y-153144951D01*
X101200213Y-153269890D01*
X101049890Y-153420213D01*
X100924949Y-153592182D01*
X100920484Y-153600946D01*
X100872509Y-153651742D01*
X100804688Y-153668536D01*
X100738553Y-153645998D01*
X100699516Y-153600946D01*
X100695050Y-153592182D01*
X100570109Y-153420213D01*
X100419786Y-153269890D01*
X100247820Y-153144951D01*
X100058414Y-153048444D01*
X100058413Y-153048443D01*
X100058412Y-153048443D01*
X99856243Y-152982754D01*
X99856241Y-152982753D01*
X99856240Y-152982753D01*
X99694957Y-152957208D01*
X99646287Y-152949500D01*
X99433713Y-152949500D01*
X99385042Y-152957208D01*
X99223760Y-152982753D01*
X99021585Y-153048444D01*
X98832179Y-153144951D01*
X98660213Y-153269890D01*
X98509890Y-153420213D01*
X98384949Y-153592182D01*
X98380484Y-153600946D01*
X98332509Y-153651742D01*
X98264688Y-153668536D01*
X98198553Y-153645998D01*
X98159516Y-153600946D01*
X98155050Y-153592182D01*
X98030109Y-153420213D01*
X97879786Y-153269890D01*
X97707820Y-153144951D01*
X97518414Y-153048444D01*
X97518413Y-153048443D01*
X97518412Y-153048443D01*
X97316243Y-152982754D01*
X97316241Y-152982753D01*
X97316240Y-152982753D01*
X97154957Y-152957208D01*
X97106287Y-152949500D01*
X96893713Y-152949500D01*
X96845042Y-152957208D01*
X96683760Y-152982753D01*
X96481585Y-153048444D01*
X96292179Y-153144951D01*
X96120213Y-153269890D01*
X95969890Y-153420213D01*
X95844949Y-153592182D01*
X95840484Y-153600946D01*
X95792509Y-153651742D01*
X95724688Y-153668536D01*
X95658553Y-153645998D01*
X95619516Y-153600946D01*
X95615050Y-153592182D01*
X95490109Y-153420213D01*
X95339786Y-153269890D01*
X95167820Y-153144951D01*
X94978414Y-153048444D01*
X94978413Y-153048443D01*
X94978412Y-153048443D01*
X94776243Y-152982754D01*
X94776241Y-152982753D01*
X94776240Y-152982753D01*
X94614957Y-152957208D01*
X94566287Y-152949500D01*
X94353713Y-152949500D01*
X94305042Y-152957208D01*
X94143760Y-152982753D01*
X93941585Y-153048444D01*
X93752179Y-153144951D01*
X93580213Y-153269890D01*
X93429890Y-153420213D01*
X93304949Y-153592182D01*
X93300484Y-153600946D01*
X93252509Y-153651742D01*
X93184688Y-153668536D01*
X93118553Y-153645998D01*
X93079516Y-153600946D01*
X93075050Y-153592182D01*
X92950109Y-153420213D01*
X92799786Y-153269890D01*
X92627820Y-153144951D01*
X92438414Y-153048444D01*
X92438413Y-153048443D01*
X92438412Y-153048443D01*
X92236243Y-152982754D01*
X92236241Y-152982753D01*
X92236240Y-152982753D01*
X92074957Y-152957208D01*
X92026287Y-152949500D01*
X91813713Y-152949500D01*
X91765042Y-152957208D01*
X91603760Y-152982753D01*
X91401585Y-153048444D01*
X91212179Y-153144951D01*
X91040213Y-153269890D01*
X90889890Y-153420213D01*
X90764949Y-153592182D01*
X90760484Y-153600946D01*
X90712509Y-153651742D01*
X90644688Y-153668536D01*
X90578553Y-153645998D01*
X90539516Y-153600946D01*
X90535050Y-153592182D01*
X90410109Y-153420213D01*
X90259786Y-153269890D01*
X90087820Y-153144951D01*
X89898414Y-153048444D01*
X89898413Y-153048443D01*
X89898412Y-153048443D01*
X89696243Y-152982754D01*
X89696241Y-152982753D01*
X89696240Y-152982753D01*
X89534957Y-152957208D01*
X89486287Y-152949500D01*
X89273713Y-152949500D01*
X89225042Y-152957208D01*
X89063760Y-152982753D01*
X88861585Y-153048444D01*
X88672179Y-153144951D01*
X88500213Y-153269890D01*
X88349890Y-153420213D01*
X88224949Y-153592182D01*
X88220484Y-153600946D01*
X88172509Y-153651742D01*
X88104688Y-153668536D01*
X88038553Y-153645998D01*
X87999516Y-153600946D01*
X87995050Y-153592182D01*
X87870109Y-153420213D01*
X87719786Y-153269890D01*
X87547820Y-153144951D01*
X87358414Y-153048444D01*
X87358413Y-153048443D01*
X87358412Y-153048443D01*
X87156243Y-152982754D01*
X87156241Y-152982753D01*
X87156240Y-152982753D01*
X86994957Y-152957208D01*
X86946287Y-152949500D01*
X86733713Y-152949500D01*
X86685042Y-152957208D01*
X86523760Y-152982753D01*
X86321585Y-153048444D01*
X86132179Y-153144951D01*
X85960213Y-153269890D01*
X85809890Y-153420213D01*
X85684949Y-153592182D01*
X85680484Y-153600946D01*
X85632509Y-153651742D01*
X85564688Y-153668536D01*
X85498553Y-153645998D01*
X85459516Y-153600946D01*
X85455050Y-153592182D01*
X85330109Y-153420213D01*
X85179786Y-153269890D01*
X85007820Y-153144951D01*
X84818414Y-153048444D01*
X84818413Y-153048443D01*
X84818412Y-153048443D01*
X84616243Y-152982754D01*
X84616241Y-152982753D01*
X84616240Y-152982753D01*
X84454957Y-152957208D01*
X84406287Y-152949500D01*
X84193713Y-152949500D01*
X84145042Y-152957208D01*
X83983760Y-152982753D01*
X83781585Y-153048444D01*
X83592179Y-153144951D01*
X83420213Y-153269890D01*
X83269890Y-153420213D01*
X83144949Y-153592182D01*
X83140484Y-153600946D01*
X83092509Y-153651742D01*
X83024688Y-153668536D01*
X82958553Y-153645998D01*
X82919516Y-153600946D01*
X82915050Y-153592182D01*
X82790109Y-153420213D01*
X82639786Y-153269890D01*
X82467820Y-153144951D01*
X82278414Y-153048444D01*
X82278413Y-153048443D01*
X82278412Y-153048443D01*
X82076243Y-152982754D01*
X82076241Y-152982753D01*
X82076240Y-152982753D01*
X81914957Y-152957208D01*
X81866287Y-152949500D01*
X81653713Y-152949500D01*
X81605042Y-152957208D01*
X81443760Y-152982753D01*
X81241585Y-153048444D01*
X81052179Y-153144951D01*
X80880213Y-153269890D01*
X80729890Y-153420213D01*
X80604949Y-153592182D01*
X80600484Y-153600946D01*
X80552509Y-153651742D01*
X80484688Y-153668536D01*
X80418553Y-153645998D01*
X80379516Y-153600946D01*
X80375050Y-153592182D01*
X80250109Y-153420213D01*
X80099786Y-153269890D01*
X79927820Y-153144951D01*
X79738414Y-153048444D01*
X79738413Y-153048443D01*
X79738412Y-153048443D01*
X79536243Y-152982754D01*
X79536241Y-152982753D01*
X79536240Y-152982753D01*
X79374957Y-152957208D01*
X79326287Y-152949500D01*
X79113713Y-152949500D01*
X79065042Y-152957208D01*
X78903760Y-152982753D01*
X78701585Y-153048444D01*
X78512179Y-153144951D01*
X78340213Y-153269890D01*
X78189890Y-153420213D01*
X78064949Y-153592182D01*
X78060484Y-153600946D01*
X78012509Y-153651742D01*
X77944688Y-153668536D01*
X77878553Y-153645998D01*
X77839516Y-153600946D01*
X77835050Y-153592182D01*
X77710109Y-153420213D01*
X77559786Y-153269890D01*
X77387820Y-153144951D01*
X77198414Y-153048444D01*
X77198413Y-153048443D01*
X77198412Y-153048443D01*
X76996243Y-152982754D01*
X76996241Y-152982753D01*
X76996240Y-152982753D01*
X76834957Y-152957208D01*
X76786287Y-152949500D01*
X76573713Y-152949500D01*
X76525042Y-152957208D01*
X76363760Y-152982753D01*
X76161585Y-153048444D01*
X75972179Y-153144951D01*
X75800213Y-153269890D01*
X75649890Y-153420213D01*
X75524949Y-153592182D01*
X75520484Y-153600946D01*
X75472509Y-153651742D01*
X75404688Y-153668536D01*
X75338553Y-153645998D01*
X75299516Y-153600946D01*
X75295050Y-153592182D01*
X75170109Y-153420213D01*
X75019786Y-153269890D01*
X74847820Y-153144951D01*
X74658414Y-153048444D01*
X74658413Y-153048443D01*
X74658412Y-153048443D01*
X74456243Y-152982754D01*
X74456241Y-152982753D01*
X74456240Y-152982753D01*
X74294957Y-152957208D01*
X74246287Y-152949500D01*
X74033713Y-152949500D01*
X73985042Y-152957208D01*
X73823760Y-152982753D01*
X73621585Y-153048444D01*
X73432179Y-153144951D01*
X73260213Y-153269890D01*
X73109890Y-153420213D01*
X72984949Y-153592182D01*
X72980484Y-153600946D01*
X72932509Y-153651742D01*
X72864688Y-153668536D01*
X72798553Y-153645998D01*
X72759516Y-153600946D01*
X72755050Y-153592182D01*
X72630109Y-153420213D01*
X72479786Y-153269890D01*
X72307820Y-153144951D01*
X72118414Y-153048444D01*
X72118413Y-153048443D01*
X72118412Y-153048443D01*
X71916243Y-152982754D01*
X71916241Y-152982753D01*
X71916240Y-152982753D01*
X71754957Y-152957208D01*
X71706287Y-152949500D01*
X71493713Y-152949500D01*
X71445042Y-152957208D01*
X71283760Y-152982753D01*
X71081585Y-153048444D01*
X70892179Y-153144951D01*
X70720213Y-153269890D01*
X70569890Y-153420213D01*
X70444949Y-153592182D01*
X70440484Y-153600946D01*
X70392509Y-153651742D01*
X70324688Y-153668536D01*
X70258553Y-153645998D01*
X70219516Y-153600946D01*
X70215050Y-153592182D01*
X70090109Y-153420213D01*
X69939786Y-153269890D01*
X69767820Y-153144951D01*
X69578414Y-153048444D01*
X69578413Y-153048443D01*
X69578412Y-153048443D01*
X69376243Y-152982754D01*
X69376241Y-152982753D01*
X69376240Y-152982753D01*
X69214957Y-152957208D01*
X69166287Y-152949500D01*
X68953713Y-152949500D01*
X68905042Y-152957208D01*
X68743760Y-152982753D01*
X68541585Y-153048444D01*
X68352179Y-153144951D01*
X68180213Y-153269890D01*
X68029890Y-153420213D01*
X67904949Y-153592182D01*
X67900484Y-153600946D01*
X67852509Y-153651742D01*
X67784688Y-153668536D01*
X67718553Y-153645998D01*
X67679516Y-153600946D01*
X67675050Y-153592182D01*
X67550109Y-153420213D01*
X67399790Y-153269894D01*
X67399785Y-153269890D01*
X67233552Y-153149115D01*
X67190886Y-153093785D01*
X67184907Y-153024172D01*
X67217513Y-152962377D01*
X67258980Y-152934238D01*
X67373914Y-152886632D01*
X67537782Y-152777139D01*
X67677139Y-152637782D01*
X67786632Y-152473914D01*
X67862051Y-152291835D01*
X67900500Y-152098541D01*
X67900500Y-151901459D01*
X67900500Y-151901456D01*
X67862052Y-151708170D01*
X67862051Y-151708169D01*
X67862051Y-151708165D01*
X67826272Y-151621786D01*
X67786635Y-151526092D01*
X67786628Y-151526079D01*
X67677139Y-151362218D01*
X67677136Y-151362214D01*
X67537785Y-151222863D01*
X67537781Y-151222860D01*
X67373920Y-151113371D01*
X67373907Y-151113364D01*
X67191839Y-151037950D01*
X67191829Y-151037947D01*
X66998543Y-150999500D01*
X66998541Y-150999500D01*
X66801459Y-150999500D01*
X66801457Y-150999500D01*
X66608170Y-151037947D01*
X66608160Y-151037950D01*
X66426092Y-151113364D01*
X66426079Y-151113371D01*
X66262218Y-151222860D01*
X66262214Y-151222863D01*
X66122863Y-151362214D01*
X66122860Y-151362218D01*
X66013371Y-151526079D01*
X66013364Y-151526092D01*
X65937950Y-151708160D01*
X65937947Y-151708170D01*
X65899500Y-151901456D01*
X65899500Y-151901459D01*
X65899500Y-152098541D01*
X65899500Y-152098543D01*
X65899499Y-152098543D01*
X65937947Y-152291829D01*
X65937950Y-152291839D01*
X66013364Y-152473907D01*
X66013371Y-152473920D01*
X66122860Y-152637781D01*
X66122863Y-152637785D01*
X66260141Y-152775063D01*
X66293626Y-152836386D01*
X66288642Y-152906078D01*
X66246770Y-152962011D01*
X66208050Y-152980203D01*
X66208390Y-152981249D01*
X66203759Y-152982753D01*
X66203757Y-152982754D01*
X66001588Y-153048443D01*
X66001585Y-153048444D01*
X65812179Y-153144951D01*
X65640213Y-153269890D01*
X65489890Y-153420213D01*
X65364949Y-153592182D01*
X65360484Y-153600946D01*
X65312509Y-153651742D01*
X65244688Y-153668536D01*
X65178553Y-153645998D01*
X65139516Y-153600946D01*
X65135050Y-153592182D01*
X65010109Y-153420213D01*
X64859786Y-153269890D01*
X64687820Y-153144951D01*
X64498414Y-153048444D01*
X64498413Y-153048443D01*
X64498412Y-153048443D01*
X64296243Y-152982754D01*
X64296241Y-152982753D01*
X64296240Y-152982753D01*
X64134957Y-152957208D01*
X64086287Y-152949500D01*
X63873713Y-152949500D01*
X63825042Y-152957208D01*
X63663760Y-152982753D01*
X63461585Y-153048444D01*
X63272179Y-153144951D01*
X63100213Y-153269890D01*
X62949890Y-153420213D01*
X62824949Y-153592182D01*
X62820484Y-153600946D01*
X62772509Y-153651742D01*
X62704688Y-153668536D01*
X62638553Y-153645998D01*
X62599516Y-153600946D01*
X62595050Y-153592182D01*
X62470109Y-153420213D01*
X62319786Y-153269890D01*
X62147820Y-153144951D01*
X61958414Y-153048444D01*
X61958413Y-153048443D01*
X61958412Y-153048443D01*
X61756243Y-152982754D01*
X61756241Y-152982753D01*
X61756240Y-152982753D01*
X61594957Y-152957208D01*
X61546287Y-152949500D01*
X61333713Y-152949500D01*
X61285042Y-152957208D01*
X61123760Y-152982753D01*
X60921585Y-153048444D01*
X60732179Y-153144951D01*
X60560213Y-153269890D01*
X60409890Y-153420213D01*
X60284949Y-153592182D01*
X60280202Y-153601499D01*
X60232227Y-153652293D01*
X60164405Y-153669087D01*
X60098271Y-153646548D01*
X60059234Y-153601495D01*
X60054626Y-153592452D01*
X60015270Y-153538282D01*
X60015269Y-153538282D01*
X59382962Y-154170589D01*
X59365925Y-154107007D01*
X59300099Y-153992993D01*
X59207007Y-153899901D01*
X59092993Y-153834075D01*
X59029409Y-153817037D01*
X59661716Y-153184728D01*
X59607550Y-153145375D01*
X59418217Y-153048904D01*
X59216129Y-152983242D01*
X59006246Y-152950000D01*
X58793754Y-152950000D01*
X58583872Y-152983242D01*
X58583869Y-152983242D01*
X58381782Y-153048904D01*
X58192439Y-153145380D01*
X58138282Y-153184727D01*
X58138282Y-153184728D01*
X58770591Y-153817037D01*
X58707007Y-153834075D01*
X58592993Y-153899901D01*
X58499901Y-153992993D01*
X58434075Y-154107007D01*
X58417037Y-154170591D01*
X57784728Y-153538282D01*
X57784727Y-153538282D01*
X57745380Y-153592439D01*
X57648904Y-153781782D01*
X57583242Y-153983869D01*
X57583242Y-153983872D01*
X57550000Y-154193753D01*
X57550000Y-154406246D01*
X57583242Y-154616127D01*
X57583242Y-154616130D01*
X57648904Y-154818217D01*
X57745379Y-155007557D01*
X57814442Y-155102615D01*
X57837922Y-155168421D01*
X57822096Y-155236475D01*
X57771991Y-155285170D01*
X57714124Y-155299500D01*
X46224500Y-155299500D01*
X46157461Y-155279815D01*
X46111706Y-155227011D01*
X46100500Y-155175500D01*
X46100500Y-150921153D01*
X60099500Y-150921153D01*
X60099500Y-151078846D01*
X60130261Y-151233489D01*
X60130264Y-151233501D01*
X60190602Y-151379172D01*
X60190609Y-151379185D01*
X60278210Y-151510288D01*
X60278213Y-151510292D01*
X60389707Y-151621786D01*
X60389711Y-151621789D01*
X60520814Y-151709390D01*
X60520827Y-151709397D01*
X60666498Y-151769735D01*
X60666503Y-151769737D01*
X60821153Y-151800499D01*
X60821156Y-151800500D01*
X60821158Y-151800500D01*
X60978844Y-151800500D01*
X60978845Y-151800499D01*
X61133497Y-151769737D01*
X61279179Y-151709394D01*
X61410289Y-151621789D01*
X61521789Y-151510289D01*
X61609394Y-151379179D01*
X61669737Y-151233497D01*
X61700500Y-151078842D01*
X61700500Y-150921158D01*
X61700500Y-150921155D01*
X61700499Y-150921153D01*
X61669738Y-150766510D01*
X61669737Y-150766503D01*
X61669735Y-150766498D01*
X61609397Y-150620827D01*
X61609390Y-150620814D01*
X61521789Y-150489711D01*
X61521786Y-150489707D01*
X61410292Y-150378213D01*
X61410288Y-150378210D01*
X61279185Y-150290609D01*
X61279172Y-150290602D01*
X61133501Y-150230264D01*
X61133489Y-150230261D01*
X60978845Y-150199500D01*
X60978842Y-150199500D01*
X60821158Y-150199500D01*
X60821155Y-150199500D01*
X60666510Y-150230261D01*
X60666498Y-150230264D01*
X60520827Y-150290602D01*
X60520814Y-150290609D01*
X60389711Y-150378210D01*
X60389707Y-150378213D01*
X60278213Y-150489707D01*
X60278210Y-150489711D01*
X60190609Y-150620814D01*
X60190602Y-150620827D01*
X60130264Y-150766498D01*
X60130261Y-150766510D01*
X60099500Y-150921153D01*
X46100500Y-150921153D01*
X46100500Y-149221153D01*
X91099500Y-149221153D01*
X91099500Y-149378846D01*
X91130261Y-149533489D01*
X91130264Y-149533501D01*
X91190602Y-149679172D01*
X91190609Y-149679185D01*
X91278210Y-149810288D01*
X91278213Y-149810292D01*
X91389707Y-149921786D01*
X91389711Y-149921789D01*
X91520814Y-150009390D01*
X91520827Y-150009397D01*
X91620060Y-150050500D01*
X91666503Y-150069737D01*
X91821153Y-150100499D01*
X91821156Y-150100500D01*
X91821158Y-150100500D01*
X91978844Y-150100500D01*
X91978845Y-150100499D01*
X92133497Y-150069737D01*
X92279179Y-150009394D01*
X92410289Y-149921789D01*
X92521789Y-149810289D01*
X92609394Y-149679179D01*
X92669737Y-149533497D01*
X92700500Y-149378842D01*
X92700500Y-149221158D01*
X92700500Y-149221155D01*
X92700499Y-149221153D01*
X92669739Y-149066511D01*
X92669735Y-149066497D01*
X92656752Y-149035153D01*
X93599500Y-149035153D01*
X93599500Y-149192846D01*
X93630261Y-149347489D01*
X93630264Y-149347501D01*
X93690602Y-149493172D01*
X93690609Y-149493185D01*
X93778210Y-149624288D01*
X93778213Y-149624292D01*
X93889707Y-149735786D01*
X93889711Y-149735789D01*
X94020814Y-149823390D01*
X94020827Y-149823397D01*
X94166498Y-149883735D01*
X94166503Y-149883737D01*
X94321153Y-149914499D01*
X94321156Y-149914500D01*
X94321158Y-149914500D01*
X94478844Y-149914500D01*
X94478845Y-149914499D01*
X94633497Y-149883737D01*
X94779179Y-149823394D01*
X94910289Y-149735789D01*
X95021789Y-149624289D01*
X95109394Y-149493179D01*
X95169737Y-149347497D01*
X95200500Y-149192842D01*
X95200500Y-149035158D01*
X95200500Y-149035155D01*
X95200499Y-149035153D01*
X95189365Y-148979179D01*
X95169737Y-148880503D01*
X95169049Y-148878842D01*
X95120867Y-148762518D01*
X95109395Y-148734823D01*
X95109390Y-148734814D01*
X95100262Y-148721153D01*
X96199500Y-148721153D01*
X96199500Y-148878846D01*
X96230261Y-149033489D01*
X96230264Y-149033501D01*
X96290602Y-149179172D01*
X96290609Y-149179185D01*
X96378210Y-149310288D01*
X96378213Y-149310292D01*
X96489707Y-149421786D01*
X96489711Y-149421789D01*
X96620814Y-149509390D01*
X96620827Y-149509397D01*
X96766498Y-149569735D01*
X96766503Y-149569737D01*
X96921153Y-149600499D01*
X96921156Y-149600500D01*
X96921158Y-149600500D01*
X97078844Y-149600500D01*
X97078845Y-149600499D01*
X97233497Y-149569737D01*
X97379179Y-149509394D01*
X97510289Y-149421789D01*
X97621789Y-149310289D01*
X97709394Y-149179179D01*
X97769737Y-149033497D01*
X97800500Y-148878842D01*
X97800500Y-148721158D01*
X97800500Y-148721155D01*
X97800499Y-148721153D01*
X97796605Y-148701577D01*
X97769737Y-148566503D01*
X97768084Y-148562512D01*
X97750953Y-148521153D01*
X98699500Y-148521153D01*
X98699500Y-148678846D01*
X98730261Y-148833489D01*
X98730264Y-148833501D01*
X98790602Y-148979172D01*
X98790609Y-148979185D01*
X98878210Y-149110288D01*
X98878213Y-149110292D01*
X98989707Y-149221786D01*
X98989711Y-149221789D01*
X99120814Y-149309390D01*
X99120827Y-149309397D01*
X99212791Y-149347489D01*
X99266503Y-149369737D01*
X99410686Y-149398417D01*
X99421153Y-149400499D01*
X99421156Y-149400500D01*
X99421158Y-149400500D01*
X99578844Y-149400500D01*
X99578845Y-149400499D01*
X99733497Y-149369737D01*
X99879179Y-149309394D01*
X100010289Y-149221789D01*
X100121789Y-149110289D01*
X100209394Y-148979179D01*
X100269737Y-148833497D01*
X100300500Y-148678842D01*
X100300500Y-148521158D01*
X100300500Y-148521155D01*
X100284209Y-148439258D01*
X100284209Y-148439257D01*
X100280608Y-148421153D01*
X101199500Y-148421153D01*
X101199500Y-148578846D01*
X101230261Y-148733489D01*
X101230264Y-148733501D01*
X101290602Y-148879172D01*
X101290609Y-148879185D01*
X101378210Y-149010288D01*
X101378213Y-149010292D01*
X101489707Y-149121786D01*
X101489711Y-149121789D01*
X101620814Y-149209390D01*
X101620827Y-149209397D01*
X101766498Y-149269735D01*
X101766503Y-149269737D01*
X101921153Y-149300499D01*
X101921156Y-149300500D01*
X101921158Y-149300500D01*
X102078844Y-149300500D01*
X102078845Y-149300499D01*
X102233497Y-149269737D01*
X102379179Y-149209394D01*
X102510289Y-149121789D01*
X102621789Y-149010289D01*
X102709394Y-148879179D01*
X102769737Y-148733497D01*
X102800500Y-148578842D01*
X102800500Y-148442153D01*
X103819500Y-148442153D01*
X103819500Y-148599846D01*
X103850261Y-148754489D01*
X103850264Y-148754501D01*
X103910602Y-148900172D01*
X103910609Y-148900185D01*
X103998210Y-149031288D01*
X103998213Y-149031292D01*
X104109707Y-149142786D01*
X104109711Y-149142789D01*
X104240814Y-149230390D01*
X104240827Y-149230397D01*
X104360651Y-149280029D01*
X104386503Y-149290737D01*
X104541153Y-149321499D01*
X104541156Y-149321500D01*
X104541158Y-149321500D01*
X104698844Y-149321500D01*
X104698845Y-149321499D01*
X104853497Y-149290737D01*
X104999179Y-149230394D01*
X105130289Y-149142789D01*
X105241789Y-149031289D01*
X105329394Y-148900179D01*
X105389737Y-148754497D01*
X105420500Y-148599842D01*
X105420500Y-148442158D01*
X105420500Y-148442155D01*
X105420499Y-148442153D01*
X105419923Y-148439253D01*
X105419923Y-148439252D01*
X105416323Y-148421153D01*
X106299500Y-148421153D01*
X106299500Y-148578846D01*
X106330261Y-148733489D01*
X106330264Y-148733501D01*
X106390602Y-148879172D01*
X106390609Y-148879185D01*
X106478210Y-149010288D01*
X106478213Y-149010292D01*
X106589707Y-149121786D01*
X106589711Y-149121789D01*
X106720814Y-149209390D01*
X106720827Y-149209397D01*
X106866498Y-149269735D01*
X106866503Y-149269737D01*
X107021153Y-149300499D01*
X107021156Y-149300500D01*
X107021158Y-149300500D01*
X107178844Y-149300500D01*
X107178845Y-149300499D01*
X107333497Y-149269737D01*
X107479179Y-149209394D01*
X107610289Y-149121789D01*
X107721789Y-149010289D01*
X107809394Y-148879179D01*
X107869737Y-148733497D01*
X107900500Y-148578842D01*
X107900500Y-148421158D01*
X107900500Y-148421155D01*
X107900499Y-148421153D01*
X107889627Y-148366498D01*
X107869737Y-148266503D01*
X107846452Y-148210288D01*
X107809397Y-148120827D01*
X107809390Y-148120814D01*
X107721789Y-147989711D01*
X107721786Y-147989707D01*
X107610292Y-147878213D01*
X107610288Y-147878210D01*
X107479185Y-147790609D01*
X107479172Y-147790602D01*
X107333501Y-147730264D01*
X107333489Y-147730261D01*
X107178845Y-147699500D01*
X107178842Y-147699500D01*
X107021158Y-147699500D01*
X107021155Y-147699500D01*
X106866510Y-147730261D01*
X106866498Y-147730264D01*
X106720827Y-147790602D01*
X106720814Y-147790609D01*
X106589711Y-147878210D01*
X106589707Y-147878213D01*
X106478213Y-147989707D01*
X106478210Y-147989711D01*
X106390609Y-148120814D01*
X106390602Y-148120827D01*
X106330264Y-148266498D01*
X106330261Y-148266510D01*
X106299500Y-148421153D01*
X105416323Y-148421153D01*
X105389738Y-148287508D01*
X105389737Y-148287507D01*
X105389737Y-148287503D01*
X105386150Y-148278842D01*
X105329397Y-148141827D01*
X105329390Y-148141814D01*
X105241789Y-148010711D01*
X105241786Y-148010707D01*
X105130292Y-147899213D01*
X105130288Y-147899210D01*
X104999185Y-147811609D01*
X104999172Y-147811602D01*
X104853501Y-147751264D01*
X104853489Y-147751261D01*
X104698845Y-147720500D01*
X104698842Y-147720500D01*
X104541158Y-147720500D01*
X104541155Y-147720500D01*
X104386510Y-147751261D01*
X104386498Y-147751264D01*
X104240827Y-147811602D01*
X104240814Y-147811609D01*
X104109711Y-147899210D01*
X104109707Y-147899213D01*
X103998213Y-148010707D01*
X103998210Y-148010711D01*
X103910609Y-148141814D01*
X103910602Y-148141827D01*
X103850264Y-148287498D01*
X103850261Y-148287510D01*
X103819500Y-148442153D01*
X102800500Y-148442153D01*
X102800500Y-148421158D01*
X102800500Y-148421155D01*
X102800499Y-148421153D01*
X102789627Y-148366498D01*
X102769737Y-148266503D01*
X102746452Y-148210288D01*
X102709397Y-148120827D01*
X102709390Y-148120814D01*
X102621789Y-147989711D01*
X102621786Y-147989707D01*
X102510292Y-147878213D01*
X102510288Y-147878210D01*
X102379185Y-147790609D01*
X102379172Y-147790602D01*
X102233501Y-147730264D01*
X102233489Y-147730261D01*
X102078845Y-147699500D01*
X102078842Y-147699500D01*
X101921158Y-147699500D01*
X101921155Y-147699500D01*
X101766510Y-147730261D01*
X101766498Y-147730264D01*
X101620827Y-147790602D01*
X101620814Y-147790609D01*
X101489711Y-147878210D01*
X101489707Y-147878213D01*
X101378213Y-147989707D01*
X101378210Y-147989711D01*
X101290609Y-148120814D01*
X101290602Y-148120827D01*
X101230264Y-148266498D01*
X101230261Y-148266510D01*
X101199500Y-148421153D01*
X100280608Y-148421153D01*
X100269738Y-148366510D01*
X100269737Y-148366503D01*
X100261316Y-148346172D01*
X100209397Y-148220827D01*
X100209390Y-148220814D01*
X100121789Y-148089711D01*
X100121786Y-148089707D01*
X100010292Y-147978213D01*
X100010288Y-147978210D01*
X99879185Y-147890609D01*
X99879172Y-147890602D01*
X99733501Y-147830264D01*
X99733489Y-147830261D01*
X99578845Y-147799500D01*
X99578842Y-147799500D01*
X99421158Y-147799500D01*
X99421155Y-147799500D01*
X99266510Y-147830261D01*
X99266498Y-147830264D01*
X99120827Y-147890602D01*
X99120814Y-147890609D01*
X98989711Y-147978210D01*
X98989707Y-147978213D01*
X98878213Y-148089707D01*
X98878210Y-148089711D01*
X98790609Y-148220814D01*
X98790602Y-148220827D01*
X98730264Y-148366498D01*
X98730261Y-148366510D01*
X98699500Y-148521153D01*
X97750953Y-148521153D01*
X97709397Y-148420827D01*
X97709390Y-148420814D01*
X97621789Y-148289711D01*
X97621786Y-148289707D01*
X97510292Y-148178213D01*
X97510288Y-148178210D01*
X97379185Y-148090609D01*
X97379172Y-148090602D01*
X97233501Y-148030264D01*
X97233489Y-148030261D01*
X97078845Y-147999500D01*
X97078842Y-147999500D01*
X96921158Y-147999500D01*
X96921155Y-147999500D01*
X96766510Y-148030261D01*
X96766498Y-148030264D01*
X96620827Y-148090602D01*
X96620814Y-148090609D01*
X96489711Y-148178210D01*
X96489707Y-148178213D01*
X96378213Y-148289707D01*
X96378210Y-148289711D01*
X96290609Y-148420814D01*
X96290602Y-148420827D01*
X96230264Y-148566498D01*
X96230261Y-148566510D01*
X96199500Y-148721153D01*
X95100262Y-148721153D01*
X95021789Y-148603711D01*
X95021786Y-148603707D01*
X94910292Y-148492213D01*
X94910288Y-148492210D01*
X94779185Y-148404609D01*
X94779172Y-148404602D01*
X94633501Y-148344264D01*
X94633489Y-148344261D01*
X94478845Y-148313500D01*
X94478842Y-148313500D01*
X94321158Y-148313500D01*
X94321155Y-148313500D01*
X94166510Y-148344261D01*
X94166498Y-148344264D01*
X94020827Y-148404602D01*
X94020814Y-148404609D01*
X93889711Y-148492210D01*
X93889707Y-148492213D01*
X93778213Y-148603707D01*
X93778210Y-148603711D01*
X93690609Y-148734814D01*
X93690602Y-148734827D01*
X93630264Y-148880498D01*
X93630261Y-148880510D01*
X93599500Y-149035153D01*
X92656752Y-149035153D01*
X92609397Y-148920827D01*
X92609390Y-148920814D01*
X92521789Y-148789711D01*
X92521786Y-148789707D01*
X92410292Y-148678213D01*
X92410288Y-148678210D01*
X92279185Y-148590609D01*
X92279172Y-148590602D01*
X92133501Y-148530264D01*
X92133489Y-148530261D01*
X91978845Y-148499500D01*
X91978842Y-148499500D01*
X91821158Y-148499500D01*
X91821155Y-148499500D01*
X91666510Y-148530261D01*
X91666498Y-148530264D01*
X91520827Y-148590602D01*
X91520814Y-148590609D01*
X91389711Y-148678210D01*
X91389707Y-148678213D01*
X91278213Y-148789707D01*
X91278210Y-148789711D01*
X91190609Y-148920814D01*
X91190602Y-148920827D01*
X91130264Y-149066498D01*
X91130261Y-149066510D01*
X91099500Y-149221153D01*
X46100500Y-149221153D01*
X46100500Y-148121153D01*
X62299500Y-148121153D01*
X62299500Y-148278846D01*
X62330261Y-148433489D01*
X62330264Y-148433501D01*
X62390602Y-148579172D01*
X62390609Y-148579185D01*
X62478210Y-148710288D01*
X62478213Y-148710292D01*
X62589707Y-148821786D01*
X62589711Y-148821789D01*
X62720814Y-148909390D01*
X62720827Y-148909397D01*
X62866498Y-148969735D01*
X62866503Y-148969737D01*
X63021153Y-149000499D01*
X63021156Y-149000500D01*
X63021158Y-149000500D01*
X63178844Y-149000500D01*
X63178845Y-149000499D01*
X63333497Y-148969737D01*
X63451592Y-148920821D01*
X63479172Y-148909397D01*
X63479172Y-148909396D01*
X63479179Y-148909394D01*
X63610289Y-148821789D01*
X63721789Y-148710289D01*
X63809394Y-148579179D01*
X63869737Y-148433497D01*
X63900500Y-148278842D01*
X63900500Y-148121158D01*
X63900500Y-148121155D01*
X63900499Y-148121153D01*
X63882419Y-148030261D01*
X63869737Y-147966503D01*
X63838298Y-147890602D01*
X63809397Y-147820827D01*
X63809390Y-147820814D01*
X63721789Y-147689711D01*
X63721786Y-147689707D01*
X63610292Y-147578213D01*
X63610288Y-147578210D01*
X63479185Y-147490609D01*
X63479172Y-147490602D01*
X63333501Y-147430264D01*
X63333489Y-147430261D01*
X63178845Y-147399500D01*
X63178842Y-147399500D01*
X63021158Y-147399500D01*
X63021155Y-147399500D01*
X62866510Y-147430261D01*
X62866498Y-147430264D01*
X62720827Y-147490602D01*
X62720814Y-147490609D01*
X62589711Y-147578210D01*
X62589707Y-147578213D01*
X62478213Y-147689707D01*
X62478210Y-147689711D01*
X62390609Y-147820814D01*
X62390602Y-147820827D01*
X62330264Y-147966498D01*
X62330261Y-147966510D01*
X62299500Y-148121153D01*
X46100500Y-148121153D01*
X46100500Y-146624500D01*
X46120185Y-146557461D01*
X46172989Y-146511706D01*
X46224500Y-146500500D01*
X47665890Y-146500500D01*
X47665892Y-146500500D01*
X47793186Y-146466392D01*
X47907314Y-146400500D01*
X48000500Y-146307314D01*
X48066392Y-146193186D01*
X48100500Y-146065892D01*
X48100500Y-145921153D01*
X52099500Y-145921153D01*
X52099500Y-146078846D01*
X52130261Y-146233489D01*
X52130264Y-146233501D01*
X52190602Y-146379172D01*
X52190609Y-146379185D01*
X52278210Y-146510288D01*
X52278213Y-146510292D01*
X52389707Y-146621786D01*
X52389711Y-146621789D01*
X52520814Y-146709390D01*
X52520827Y-146709397D01*
X52606550Y-146744904D01*
X52666503Y-146769737D01*
X52821153Y-146800499D01*
X52821156Y-146800500D01*
X52821158Y-146800500D01*
X52978844Y-146800500D01*
X52978845Y-146800499D01*
X53133497Y-146769737D01*
X53279179Y-146709394D01*
X53410289Y-146621789D01*
X53521789Y-146510289D01*
X53609394Y-146379179D01*
X53669737Y-146233497D01*
X53700500Y-146078842D01*
X53700500Y-146025154D01*
X53720185Y-145958115D01*
X53772989Y-145912360D01*
X53777009Y-145910609D01*
X53779943Y-145909394D01*
X53911053Y-145821789D01*
X53993382Y-145739459D01*
X54054703Y-145705976D01*
X54124395Y-145710960D01*
X54128514Y-145712581D01*
X54258683Y-145766498D01*
X54266503Y-145769737D01*
X54389280Y-145794159D01*
X54421153Y-145800499D01*
X54421156Y-145800500D01*
X54421158Y-145800500D01*
X54578844Y-145800500D01*
X54578845Y-145800499D01*
X54733497Y-145769737D01*
X54871485Y-145712581D01*
X54879172Y-145709397D01*
X54879172Y-145709396D01*
X54879179Y-145709394D01*
X55010289Y-145621789D01*
X55010925Y-145621153D01*
X56123500Y-145621153D01*
X56123500Y-145778846D01*
X56154261Y-145933489D01*
X56154264Y-145933501D01*
X56214602Y-146079172D01*
X56214609Y-146079185D01*
X56302210Y-146210288D01*
X56302213Y-146210292D01*
X56413707Y-146321786D01*
X56413711Y-146321789D01*
X56544814Y-146409390D01*
X56544827Y-146409397D01*
X56682425Y-146466391D01*
X56690503Y-146469737D01*
X56817533Y-146495005D01*
X56845153Y-146500499D01*
X56845156Y-146500500D01*
X56845158Y-146500500D01*
X57002844Y-146500500D01*
X57002845Y-146500499D01*
X57157497Y-146469737D01*
X57275592Y-146420821D01*
X57303172Y-146409397D01*
X57303172Y-146409396D01*
X57303179Y-146409394D01*
X57434289Y-146321789D01*
X57534925Y-146221153D01*
X62699500Y-146221153D01*
X62699500Y-146378846D01*
X62730261Y-146533489D01*
X62730264Y-146533501D01*
X62790602Y-146679172D01*
X62790609Y-146679185D01*
X62878210Y-146810288D01*
X62878213Y-146810292D01*
X62989707Y-146921786D01*
X62989711Y-146921789D01*
X63120814Y-147009390D01*
X63120827Y-147009397D01*
X63258683Y-147066498D01*
X63266503Y-147069737D01*
X63421153Y-147100499D01*
X63421156Y-147100500D01*
X63421158Y-147100500D01*
X63578844Y-147100500D01*
X63578845Y-147100499D01*
X63733497Y-147069737D01*
X63879179Y-147009394D01*
X64010289Y-146921789D01*
X64121789Y-146810289D01*
X64209394Y-146679179D01*
X64209396Y-146679172D01*
X64212264Y-146673809D01*
X64213360Y-146674394D01*
X64253113Y-146625058D01*
X64319405Y-146602988D01*
X64387106Y-146620263D01*
X64392731Y-146623807D01*
X64520814Y-146709390D01*
X64520827Y-146709397D01*
X64606550Y-146744904D01*
X64666503Y-146769737D01*
X64821153Y-146800499D01*
X64821156Y-146800500D01*
X64821158Y-146800500D01*
X64978844Y-146800500D01*
X64978845Y-146800499D01*
X65133497Y-146769737D01*
X65250923Y-146721097D01*
X65320392Y-146713629D01*
X65382871Y-146744904D01*
X65418523Y-146804993D01*
X65416029Y-146874818D01*
X65401478Y-146904549D01*
X65390608Y-146920816D01*
X65390602Y-146920827D01*
X65330264Y-147066498D01*
X65330261Y-147066510D01*
X65299500Y-147221153D01*
X65299500Y-147378846D01*
X65330261Y-147533489D01*
X65330264Y-147533501D01*
X65390602Y-147679172D01*
X65390609Y-147679185D01*
X65478210Y-147810288D01*
X65478213Y-147810292D01*
X65589707Y-147921786D01*
X65589711Y-147921789D01*
X65720814Y-148009390D01*
X65720827Y-148009397D01*
X65817646Y-148049500D01*
X65866503Y-148069737D01*
X66021153Y-148100499D01*
X66021156Y-148100500D01*
X66021158Y-148100500D01*
X66178844Y-148100500D01*
X66178845Y-148100499D01*
X66333497Y-148069737D01*
X66446166Y-148023067D01*
X66479172Y-148009397D01*
X66479172Y-148009396D01*
X66479179Y-148009394D01*
X66610289Y-147921789D01*
X66721789Y-147810289D01*
X66809394Y-147679179D01*
X66869737Y-147533497D01*
X66900500Y-147378842D01*
X66900500Y-147221158D01*
X66900500Y-147221155D01*
X66900499Y-147221153D01*
X66876499Y-147100499D01*
X66869737Y-147066503D01*
X66809794Y-146921786D01*
X66809397Y-146920827D01*
X66809390Y-146920814D01*
X66721790Y-146789712D01*
X66721784Y-146789705D01*
X66653232Y-146721153D01*
X71699500Y-146721153D01*
X71699500Y-146878846D01*
X71730261Y-147033489D01*
X71730264Y-147033501D01*
X71790602Y-147179172D01*
X71790609Y-147179185D01*
X71878210Y-147310288D01*
X71878213Y-147310292D01*
X71989707Y-147421786D01*
X71989711Y-147421789D01*
X72120814Y-147509390D01*
X72120827Y-147509397D01*
X72266498Y-147569735D01*
X72266503Y-147569737D01*
X72396982Y-147595691D01*
X72421153Y-147600499D01*
X72421156Y-147600500D01*
X72421158Y-147600500D01*
X72578844Y-147600500D01*
X72578845Y-147600499D01*
X72733497Y-147569737D01*
X72879179Y-147509394D01*
X73010289Y-147421789D01*
X73121789Y-147310289D01*
X73209394Y-147179179D01*
X73269737Y-147033497D01*
X73300500Y-146878842D01*
X73300500Y-146794168D01*
X73320185Y-146727129D01*
X73372989Y-146681374D01*
X73442147Y-146671430D01*
X73493392Y-146691067D01*
X73520812Y-146709389D01*
X73520827Y-146709397D01*
X73606550Y-146744904D01*
X73666503Y-146769737D01*
X73821153Y-146800499D01*
X73821156Y-146800500D01*
X73821158Y-146800500D01*
X73978844Y-146800500D01*
X73978845Y-146800499D01*
X74133497Y-146769737D01*
X74250790Y-146721153D01*
X80599500Y-146721153D01*
X80599500Y-146878846D01*
X80630261Y-147033489D01*
X80630264Y-147033501D01*
X80690602Y-147179172D01*
X80690609Y-147179185D01*
X80778210Y-147310288D01*
X80778213Y-147310292D01*
X80889707Y-147421786D01*
X80889711Y-147421789D01*
X81020814Y-147509390D01*
X81020827Y-147509397D01*
X81166498Y-147569735D01*
X81166503Y-147569737D01*
X81296982Y-147595691D01*
X81321153Y-147600499D01*
X81321156Y-147600500D01*
X81321158Y-147600500D01*
X81478844Y-147600500D01*
X81478845Y-147600499D01*
X81633497Y-147569737D01*
X81779179Y-147509394D01*
X81910289Y-147421789D01*
X82021789Y-147310289D01*
X82109394Y-147179179D01*
X82169737Y-147033497D01*
X82200500Y-146878842D01*
X82200500Y-146727350D01*
X82220185Y-146660311D01*
X82272989Y-146614556D01*
X82342147Y-146604612D01*
X82393391Y-146624248D01*
X82520814Y-146709390D01*
X82520827Y-146709397D01*
X82606550Y-146744904D01*
X82666503Y-146769737D01*
X82821153Y-146800499D01*
X82821156Y-146800500D01*
X82821158Y-146800500D01*
X82978844Y-146800500D01*
X82978845Y-146800499D01*
X83133497Y-146769737D01*
X83250790Y-146721153D01*
X89699500Y-146721153D01*
X89699500Y-146878846D01*
X89730261Y-147033489D01*
X89730264Y-147033501D01*
X89790602Y-147179172D01*
X89790609Y-147179185D01*
X89878210Y-147310288D01*
X89878213Y-147310292D01*
X89989707Y-147421786D01*
X89989711Y-147421789D01*
X90120814Y-147509390D01*
X90120827Y-147509397D01*
X90266498Y-147569735D01*
X90266503Y-147569737D01*
X90396982Y-147595691D01*
X90421153Y-147600499D01*
X90421156Y-147600500D01*
X90421158Y-147600500D01*
X90578844Y-147600500D01*
X90578845Y-147600499D01*
X90733497Y-147569737D01*
X90879179Y-147509394D01*
X91010289Y-147421789D01*
X91121789Y-147310289D01*
X91209394Y-147179179D01*
X91269737Y-147033497D01*
X91300500Y-146878842D01*
X91300500Y-146794168D01*
X91320185Y-146727129D01*
X91372989Y-146681374D01*
X91442147Y-146671430D01*
X91493392Y-146691067D01*
X91520812Y-146709389D01*
X91520827Y-146709397D01*
X91606550Y-146744904D01*
X91666503Y-146769737D01*
X91821153Y-146800499D01*
X91821156Y-146800500D01*
X91821158Y-146800500D01*
X91978844Y-146800500D01*
X91978845Y-146800499D01*
X92133497Y-146769737D01*
X92279179Y-146709394D01*
X92394778Y-146632153D01*
X98699500Y-146632153D01*
X98699500Y-146789846D01*
X98730261Y-146944489D01*
X98730264Y-146944501D01*
X98790602Y-147090172D01*
X98790609Y-147090185D01*
X98878210Y-147221288D01*
X98878213Y-147221292D01*
X98989707Y-147332786D01*
X98989711Y-147332789D01*
X99120814Y-147420390D01*
X99120827Y-147420397D01*
X99266498Y-147480735D01*
X99266503Y-147480737D01*
X99410586Y-147509397D01*
X99421153Y-147511499D01*
X99421156Y-147511500D01*
X99421158Y-147511500D01*
X99578844Y-147511500D01*
X99578845Y-147511499D01*
X99733497Y-147480737D01*
X99875811Y-147421789D01*
X99879172Y-147420397D01*
X99879172Y-147420396D01*
X99879179Y-147420394D01*
X100010289Y-147332789D01*
X100121789Y-147221289D01*
X100209394Y-147090179D01*
X100214351Y-147078213D01*
X100242856Y-147009394D01*
X100269737Y-146944497D01*
X100300500Y-146789842D01*
X100300500Y-146789835D01*
X100301097Y-146783782D01*
X100303480Y-146784016D01*
X100320185Y-146727129D01*
X100372989Y-146681374D01*
X100442147Y-146671430D01*
X100493392Y-146691067D01*
X100520812Y-146709389D01*
X100520827Y-146709397D01*
X100606550Y-146744904D01*
X100666503Y-146769737D01*
X100821153Y-146800499D01*
X100821156Y-146800500D01*
X100821158Y-146800500D01*
X100978844Y-146800500D01*
X100978845Y-146800499D01*
X101133497Y-146769737D01*
X101250790Y-146721153D01*
X107699500Y-146721153D01*
X107699500Y-146878846D01*
X107730261Y-147033489D01*
X107730264Y-147033501D01*
X107790602Y-147179172D01*
X107790609Y-147179185D01*
X107878210Y-147310288D01*
X107878213Y-147310292D01*
X107989707Y-147421786D01*
X107989711Y-147421789D01*
X108120814Y-147509390D01*
X108120827Y-147509397D01*
X108266498Y-147569735D01*
X108266503Y-147569737D01*
X108396982Y-147595691D01*
X108421153Y-147600499D01*
X108421156Y-147600500D01*
X108421158Y-147600500D01*
X108578844Y-147600500D01*
X108578845Y-147600499D01*
X108733497Y-147569737D01*
X108733509Y-147569731D01*
X108739324Y-147567969D01*
X108740158Y-147570720D01*
X108797359Y-147564497D01*
X108859878Y-147595691D01*
X108895608Y-147655734D01*
X108899500Y-147686555D01*
X108899500Y-147778846D01*
X108930261Y-147933489D01*
X108930264Y-147933501D01*
X108990602Y-148079172D01*
X108990609Y-148079185D01*
X109078210Y-148210288D01*
X109078213Y-148210292D01*
X109189707Y-148321786D01*
X109189711Y-148321789D01*
X109320814Y-148409390D01*
X109320827Y-148409397D01*
X109466498Y-148469735D01*
X109466503Y-148469737D01*
X109579482Y-148492210D01*
X109621153Y-148500499D01*
X109621156Y-148500500D01*
X109636162Y-148500500D01*
X109703201Y-148520185D01*
X109748956Y-148572989D01*
X109758900Y-148642147D01*
X109758636Y-148643897D01*
X109749500Y-148701582D01*
X109749500Y-148898422D01*
X109780290Y-149092826D01*
X109841117Y-149280029D01*
X109913346Y-149421786D01*
X109930476Y-149455405D01*
X110046172Y-149614646D01*
X110185354Y-149753828D01*
X110344595Y-149869524D01*
X110372486Y-149883735D01*
X110519970Y-149958882D01*
X110519972Y-149958882D01*
X110519975Y-149958884D01*
X110620317Y-149991487D01*
X110707173Y-150019709D01*
X110901578Y-150050500D01*
X110901583Y-150050500D01*
X111098422Y-150050500D01*
X111292826Y-150019709D01*
X111324584Y-150009390D01*
X111480025Y-149958884D01*
X111655405Y-149869524D01*
X111814646Y-149753828D01*
X111953828Y-149614646D01*
X112069524Y-149455405D01*
X112158884Y-149280025D01*
X112184373Y-149201577D01*
X117649500Y-149201577D01*
X117649500Y-149398422D01*
X117680290Y-149592826D01*
X117741117Y-149780029D01*
X117793960Y-149883738D01*
X117830476Y-149955405D01*
X117946172Y-150114646D01*
X118085354Y-150253828D01*
X118244595Y-150369524D01*
X118327455Y-150411743D01*
X118419970Y-150458882D01*
X118419972Y-150458882D01*
X118419975Y-150458884D01*
X118514838Y-150489707D01*
X118607173Y-150519709D01*
X118801578Y-150550500D01*
X118801583Y-150550500D01*
X118998422Y-150550500D01*
X119192826Y-150519709D01*
X119380025Y-150458884D01*
X119555405Y-150369524D01*
X119714646Y-150253828D01*
X119853828Y-150114646D01*
X119969524Y-149955405D01*
X120058884Y-149780025D01*
X120119709Y-149592826D01*
X120132923Y-149509397D01*
X120150500Y-149398422D01*
X120150500Y-149201577D01*
X120119709Y-149007173D01*
X120084373Y-148898422D01*
X120058884Y-148819975D01*
X120058882Y-148819972D01*
X120058882Y-148819970D01*
X120002998Y-148710292D01*
X119969524Y-148644595D01*
X119853828Y-148485354D01*
X119714646Y-148346172D01*
X119555405Y-148230476D01*
X119536442Y-148220814D01*
X119380029Y-148141117D01*
X119192826Y-148080290D01*
X118998422Y-148049500D01*
X118998417Y-148049500D01*
X118801583Y-148049500D01*
X118801578Y-148049500D01*
X118607173Y-148080290D01*
X118419970Y-148141117D01*
X118244594Y-148230476D01*
X118166095Y-148287510D01*
X118085354Y-148346172D01*
X118085352Y-148346174D01*
X118085351Y-148346174D01*
X117946174Y-148485351D01*
X117946174Y-148485352D01*
X117946172Y-148485354D01*
X117920161Y-148521155D01*
X117830476Y-148644594D01*
X117741117Y-148819970D01*
X117680290Y-149007173D01*
X117649500Y-149201577D01*
X112184373Y-149201577D01*
X112219709Y-149092826D01*
X112228843Y-149035155D01*
X112250500Y-148898422D01*
X112250500Y-148701577D01*
X112219709Y-148507173D01*
X112174000Y-148366498D01*
X112158884Y-148319975D01*
X112158882Y-148319972D01*
X112158882Y-148319970D01*
X112102998Y-148210292D01*
X112069524Y-148144595D01*
X111953828Y-147985354D01*
X111814646Y-147846172D01*
X111655405Y-147730476D01*
X111594611Y-147699500D01*
X111480029Y-147641117D01*
X111292826Y-147580290D01*
X111098422Y-147549500D01*
X111098417Y-147549500D01*
X110901583Y-147549500D01*
X110901578Y-147549500D01*
X110707172Y-147580291D01*
X110707169Y-147580291D01*
X110638123Y-147602726D01*
X110568281Y-147604721D01*
X110508449Y-147568640D01*
X110478188Y-147508986D01*
X110473260Y-147484218D01*
X110469737Y-147466503D01*
X110469735Y-147466498D01*
X110409397Y-147320827D01*
X110409390Y-147320814D01*
X110321789Y-147189711D01*
X110321786Y-147189707D01*
X110210292Y-147078213D01*
X110210288Y-147078210D01*
X110085826Y-146995047D01*
X110041021Y-146941435D01*
X110032314Y-146872110D01*
X110062468Y-146809082D01*
X110121911Y-146772363D01*
X110130511Y-146770330D01*
X110133497Y-146769737D01*
X110279179Y-146709394D01*
X110410289Y-146621789D01*
X110521789Y-146510289D01*
X110609394Y-146379179D01*
X110669737Y-146233497D01*
X110672193Y-146221153D01*
X114399500Y-146221153D01*
X114399500Y-146378846D01*
X114430261Y-146533489D01*
X114430264Y-146533501D01*
X114490602Y-146679172D01*
X114490609Y-146679185D01*
X114578210Y-146810288D01*
X114578213Y-146810292D01*
X114689707Y-146921786D01*
X114689711Y-146921789D01*
X114820814Y-147009390D01*
X114820827Y-147009397D01*
X114958683Y-147066498D01*
X114966503Y-147069737D01*
X115121153Y-147100499D01*
X115121156Y-147100500D01*
X115121158Y-147100500D01*
X115278844Y-147100500D01*
X115278845Y-147100499D01*
X115433497Y-147069737D01*
X115579179Y-147009394D01*
X115710289Y-146921789D01*
X115821789Y-146810289D01*
X115909394Y-146679179D01*
X115969737Y-146533497D01*
X116000500Y-146378842D01*
X116000500Y-146221158D01*
X116000500Y-146221155D01*
X116000499Y-146221153D01*
X115974532Y-146090609D01*
X115969737Y-146066503D01*
X115958581Y-146039569D01*
X115926666Y-145962518D01*
X115909532Y-145921153D01*
X117799500Y-145921153D01*
X117799500Y-146078846D01*
X117830261Y-146233489D01*
X117830264Y-146233501D01*
X117890602Y-146379172D01*
X117890609Y-146379185D01*
X117978210Y-146510288D01*
X117978213Y-146510292D01*
X118089707Y-146621786D01*
X118089711Y-146621789D01*
X118220814Y-146709390D01*
X118220827Y-146709397D01*
X118306550Y-146744904D01*
X118366503Y-146769737D01*
X118521153Y-146800499D01*
X118521156Y-146800500D01*
X118521158Y-146800500D01*
X118678844Y-146800500D01*
X118678845Y-146800499D01*
X118833497Y-146769737D01*
X118979179Y-146709394D01*
X119110289Y-146621789D01*
X119221789Y-146510289D01*
X119309394Y-146379179D01*
X119369737Y-146233497D01*
X119400500Y-146078842D01*
X119400500Y-145921158D01*
X119400500Y-145921155D01*
X119400499Y-145921153D01*
X119374353Y-145789711D01*
X119369737Y-145766503D01*
X119340953Y-145697012D01*
X119309397Y-145620827D01*
X119309390Y-145620814D01*
X119221789Y-145489711D01*
X119221786Y-145489707D01*
X119110292Y-145378213D01*
X119110288Y-145378210D01*
X118979185Y-145290609D01*
X118979172Y-145290602D01*
X118833501Y-145230264D01*
X118833489Y-145230261D01*
X118678845Y-145199500D01*
X118678842Y-145199500D01*
X118521158Y-145199500D01*
X118521155Y-145199500D01*
X118366510Y-145230261D01*
X118366498Y-145230264D01*
X118220827Y-145290602D01*
X118220814Y-145290609D01*
X118089711Y-145378210D01*
X118089707Y-145378213D01*
X117978213Y-145489707D01*
X117978210Y-145489711D01*
X117890609Y-145620814D01*
X117890602Y-145620827D01*
X117830264Y-145766498D01*
X117830261Y-145766510D01*
X117799500Y-145921153D01*
X115909532Y-145921153D01*
X115909395Y-145920823D01*
X115909390Y-145920814D01*
X115821789Y-145789711D01*
X115821786Y-145789707D01*
X115710292Y-145678213D01*
X115710288Y-145678210D01*
X115579185Y-145590609D01*
X115579172Y-145590602D01*
X115433501Y-145530264D01*
X115433489Y-145530261D01*
X115278845Y-145499500D01*
X115278842Y-145499500D01*
X115121158Y-145499500D01*
X115121155Y-145499500D01*
X114966510Y-145530261D01*
X114966498Y-145530264D01*
X114820827Y-145590602D01*
X114820814Y-145590609D01*
X114689711Y-145678210D01*
X114689707Y-145678213D01*
X114578213Y-145789707D01*
X114578210Y-145789711D01*
X114490609Y-145920814D01*
X114490602Y-145920827D01*
X114430264Y-146066498D01*
X114430261Y-146066510D01*
X114399500Y-146221153D01*
X110672193Y-146221153D01*
X110674353Y-146210292D01*
X110678216Y-146190874D01*
X110678216Y-146190873D01*
X110698159Y-146090609D01*
X110700500Y-146078842D01*
X110700500Y-145921158D01*
X110700500Y-145921155D01*
X110700499Y-145921153D01*
X110674353Y-145789711D01*
X110669737Y-145766503D01*
X110640953Y-145697012D01*
X110609397Y-145620827D01*
X110609390Y-145620814D01*
X110521789Y-145489711D01*
X110521786Y-145489707D01*
X110410292Y-145378213D01*
X110410288Y-145378210D01*
X110279185Y-145290609D01*
X110279172Y-145290602D01*
X110133501Y-145230264D01*
X110133489Y-145230261D01*
X109978845Y-145199500D01*
X109978842Y-145199500D01*
X109821158Y-145199500D01*
X109821155Y-145199500D01*
X109666510Y-145230261D01*
X109666498Y-145230264D01*
X109520827Y-145290602D01*
X109520814Y-145290609D01*
X109389711Y-145378210D01*
X109389707Y-145378213D01*
X109278213Y-145489707D01*
X109278210Y-145489711D01*
X109190609Y-145620814D01*
X109190602Y-145620827D01*
X109130264Y-145766498D01*
X109130261Y-145766510D01*
X109099500Y-145921153D01*
X109099500Y-146005831D01*
X109079815Y-146072870D01*
X109027011Y-146118625D01*
X108957853Y-146128569D01*
X108906610Y-146108934D01*
X108879183Y-146090608D01*
X108879172Y-146090602D01*
X108733501Y-146030264D01*
X108733489Y-146030261D01*
X108578845Y-145999500D01*
X108578842Y-145999500D01*
X108421158Y-145999500D01*
X108421155Y-145999500D01*
X108266510Y-146030261D01*
X108266498Y-146030264D01*
X108120827Y-146090602D01*
X108120814Y-146090609D01*
X107989711Y-146178210D01*
X107989707Y-146178213D01*
X107878213Y-146289707D01*
X107878210Y-146289711D01*
X107790609Y-146420814D01*
X107790602Y-146420827D01*
X107730264Y-146566498D01*
X107730261Y-146566510D01*
X107699500Y-146721153D01*
X101250790Y-146721153D01*
X101279179Y-146709394D01*
X101410289Y-146621789D01*
X101521789Y-146510289D01*
X101609394Y-146379179D01*
X101669737Y-146233497D01*
X101700500Y-146078842D01*
X101700500Y-145921158D01*
X101700500Y-145921155D01*
X101700499Y-145921153D01*
X101674353Y-145789711D01*
X101669737Y-145766503D01*
X101640953Y-145697012D01*
X101609397Y-145620827D01*
X101609390Y-145620814D01*
X101521789Y-145489711D01*
X101521786Y-145489707D01*
X101410292Y-145378213D01*
X101410288Y-145378210D01*
X101279185Y-145290609D01*
X101279172Y-145290602D01*
X101133501Y-145230264D01*
X101133489Y-145230261D01*
X100978845Y-145199500D01*
X100978842Y-145199500D01*
X100821158Y-145199500D01*
X100821155Y-145199500D01*
X100666510Y-145230261D01*
X100666498Y-145230264D01*
X100520827Y-145290602D01*
X100520814Y-145290609D01*
X100389711Y-145378210D01*
X100389707Y-145378213D01*
X100278213Y-145489707D01*
X100278210Y-145489711D01*
X100190609Y-145620814D01*
X100190602Y-145620827D01*
X100130264Y-145766498D01*
X100130261Y-145766510D01*
X100099500Y-145921153D01*
X100098903Y-145927218D01*
X100096518Y-145926983D01*
X100079815Y-145983870D01*
X100027011Y-146029625D01*
X99957853Y-146039569D01*
X99906610Y-146019934D01*
X99879183Y-146001608D01*
X99879172Y-146001602D01*
X99733501Y-145941264D01*
X99733489Y-145941261D01*
X99578845Y-145910500D01*
X99578842Y-145910500D01*
X99421158Y-145910500D01*
X99421155Y-145910500D01*
X99266510Y-145941261D01*
X99266498Y-145941264D01*
X99120827Y-146001602D01*
X99120814Y-146001609D01*
X98989711Y-146089210D01*
X98989707Y-146089213D01*
X98878213Y-146200707D01*
X98878210Y-146200711D01*
X98790609Y-146331814D01*
X98790602Y-146331827D01*
X98730264Y-146477498D01*
X98730261Y-146477510D01*
X98699500Y-146632153D01*
X92394778Y-146632153D01*
X92410289Y-146621789D01*
X92445708Y-146586370D01*
X92493694Y-146538385D01*
X92521786Y-146510292D01*
X92521789Y-146510289D01*
X92609394Y-146379179D01*
X92669737Y-146233497D01*
X92700500Y-146078842D01*
X92700500Y-145921158D01*
X92700500Y-145921155D01*
X92700499Y-145921153D01*
X92674353Y-145789711D01*
X92669737Y-145766503D01*
X92640953Y-145697012D01*
X92609397Y-145620827D01*
X92609390Y-145620814D01*
X92521789Y-145489711D01*
X92521786Y-145489707D01*
X92410292Y-145378213D01*
X92410288Y-145378210D01*
X92279185Y-145290609D01*
X92279172Y-145290602D01*
X92133501Y-145230264D01*
X92133489Y-145230261D01*
X91978845Y-145199500D01*
X91978842Y-145199500D01*
X91821158Y-145199500D01*
X91821155Y-145199500D01*
X91666510Y-145230261D01*
X91666498Y-145230264D01*
X91520827Y-145290602D01*
X91520814Y-145290609D01*
X91389711Y-145378210D01*
X91389707Y-145378213D01*
X91278213Y-145489707D01*
X91278210Y-145489711D01*
X91190609Y-145620814D01*
X91190602Y-145620827D01*
X91130264Y-145766498D01*
X91130261Y-145766510D01*
X91099500Y-145921153D01*
X91099500Y-146005831D01*
X91079815Y-146072870D01*
X91027011Y-146118625D01*
X90957853Y-146128569D01*
X90906610Y-146108934D01*
X90879183Y-146090608D01*
X90879172Y-146090602D01*
X90733501Y-146030264D01*
X90733489Y-146030261D01*
X90578845Y-145999500D01*
X90578842Y-145999500D01*
X90421158Y-145999500D01*
X90421155Y-145999500D01*
X90266510Y-146030261D01*
X90266498Y-146030264D01*
X90120827Y-146090602D01*
X90120814Y-146090609D01*
X89989711Y-146178210D01*
X89989707Y-146178213D01*
X89878213Y-146289707D01*
X89878210Y-146289711D01*
X89790609Y-146420814D01*
X89790602Y-146420827D01*
X89730264Y-146566498D01*
X89730261Y-146566510D01*
X89699500Y-146721153D01*
X83250790Y-146721153D01*
X83279179Y-146709394D01*
X83410289Y-146621789D01*
X83521789Y-146510289D01*
X83609394Y-146379179D01*
X83669737Y-146233497D01*
X83700500Y-146078842D01*
X83700500Y-145921158D01*
X83700500Y-145921155D01*
X83700499Y-145921153D01*
X83674353Y-145789711D01*
X83669737Y-145766503D01*
X83640953Y-145697012D01*
X83609397Y-145620827D01*
X83609390Y-145620814D01*
X83521789Y-145489711D01*
X83521786Y-145489707D01*
X83410292Y-145378213D01*
X83410288Y-145378210D01*
X83279185Y-145290609D01*
X83279172Y-145290602D01*
X83133501Y-145230264D01*
X83133489Y-145230261D01*
X82978845Y-145199500D01*
X82978842Y-145199500D01*
X82821158Y-145199500D01*
X82821155Y-145199500D01*
X82666510Y-145230261D01*
X82666498Y-145230264D01*
X82520827Y-145290602D01*
X82520814Y-145290609D01*
X82389711Y-145378210D01*
X82389707Y-145378213D01*
X82278213Y-145489707D01*
X82278210Y-145489711D01*
X82190609Y-145620814D01*
X82190602Y-145620827D01*
X82130264Y-145766498D01*
X82130261Y-145766510D01*
X82099500Y-145921153D01*
X82099500Y-146072649D01*
X82079815Y-146139688D01*
X82027011Y-146185443D01*
X81957853Y-146195387D01*
X81906609Y-146175751D01*
X81779185Y-146090609D01*
X81779172Y-146090602D01*
X81633501Y-146030264D01*
X81633489Y-146030261D01*
X81478845Y-145999500D01*
X81478842Y-145999500D01*
X81321158Y-145999500D01*
X81321155Y-145999500D01*
X81166510Y-146030261D01*
X81166498Y-146030264D01*
X81020827Y-146090602D01*
X81020814Y-146090609D01*
X80889711Y-146178210D01*
X80889707Y-146178213D01*
X80778213Y-146289707D01*
X80778210Y-146289711D01*
X80690609Y-146420814D01*
X80690602Y-146420827D01*
X80630264Y-146566498D01*
X80630261Y-146566510D01*
X80599500Y-146721153D01*
X74250790Y-146721153D01*
X74279179Y-146709394D01*
X74410289Y-146621789D01*
X74521789Y-146510289D01*
X74609394Y-146379179D01*
X74669737Y-146233497D01*
X74700500Y-146078842D01*
X74700500Y-145921158D01*
X74700500Y-145921155D01*
X74700499Y-145921153D01*
X74674353Y-145789711D01*
X74669737Y-145766503D01*
X74640953Y-145697012D01*
X74609397Y-145620827D01*
X74609390Y-145620814D01*
X74521789Y-145489711D01*
X74521786Y-145489707D01*
X74410292Y-145378213D01*
X74410288Y-145378210D01*
X74279185Y-145290609D01*
X74279172Y-145290602D01*
X74133501Y-145230264D01*
X74133489Y-145230261D01*
X73978845Y-145199500D01*
X73978842Y-145199500D01*
X73821158Y-145199500D01*
X73821155Y-145199500D01*
X73666510Y-145230261D01*
X73666498Y-145230264D01*
X73520827Y-145290602D01*
X73520814Y-145290609D01*
X73389711Y-145378210D01*
X73389707Y-145378213D01*
X73278213Y-145489707D01*
X73278210Y-145489711D01*
X73190609Y-145620814D01*
X73190602Y-145620827D01*
X73130264Y-145766498D01*
X73130261Y-145766510D01*
X73099500Y-145921153D01*
X73099500Y-146005831D01*
X73079815Y-146072870D01*
X73027011Y-146118625D01*
X72957853Y-146128569D01*
X72906610Y-146108934D01*
X72879183Y-146090608D01*
X72879172Y-146090602D01*
X72733501Y-146030264D01*
X72733489Y-146030261D01*
X72578845Y-145999500D01*
X72578842Y-145999500D01*
X72421158Y-145999500D01*
X72421155Y-145999500D01*
X72266510Y-146030261D01*
X72266498Y-146030264D01*
X72120827Y-146090602D01*
X72120814Y-146090609D01*
X71989711Y-146178210D01*
X71989707Y-146178213D01*
X71878213Y-146289707D01*
X71878210Y-146289711D01*
X71790609Y-146420814D01*
X71790602Y-146420827D01*
X71730264Y-146566498D01*
X71730261Y-146566510D01*
X71699500Y-146721153D01*
X66653232Y-146721153D01*
X66610292Y-146678213D01*
X66610288Y-146678210D01*
X66479185Y-146590609D01*
X66479172Y-146590602D01*
X66333501Y-146530264D01*
X66333489Y-146530261D01*
X66178845Y-146499500D01*
X66178842Y-146499500D01*
X66021158Y-146499500D01*
X66021155Y-146499500D01*
X65866510Y-146530261D01*
X65866503Y-146530263D01*
X65749075Y-146578902D01*
X65679606Y-146586370D01*
X65617127Y-146555094D01*
X65581475Y-146495005D01*
X65583970Y-146425180D01*
X65598525Y-146395445D01*
X65609390Y-146379185D01*
X65609390Y-146379184D01*
X65609394Y-146379179D01*
X65669737Y-146233497D01*
X65700500Y-146078842D01*
X65700500Y-145921158D01*
X65700500Y-145921155D01*
X65700499Y-145921153D01*
X65674353Y-145789711D01*
X65669737Y-145766503D01*
X65640953Y-145697012D01*
X65609397Y-145620827D01*
X65609390Y-145620814D01*
X65521789Y-145489711D01*
X65521786Y-145489707D01*
X65410292Y-145378213D01*
X65410288Y-145378210D01*
X65279185Y-145290609D01*
X65279172Y-145290602D01*
X65133501Y-145230264D01*
X65133489Y-145230261D01*
X64978845Y-145199500D01*
X64978842Y-145199500D01*
X64821158Y-145199500D01*
X64821155Y-145199500D01*
X64666510Y-145230261D01*
X64666498Y-145230264D01*
X64520827Y-145290602D01*
X64520814Y-145290609D01*
X64389711Y-145378210D01*
X64389707Y-145378213D01*
X64278213Y-145489707D01*
X64278210Y-145489711D01*
X64190609Y-145620814D01*
X64187736Y-145626191D01*
X64186644Y-145625607D01*
X64146863Y-145674957D01*
X64080566Y-145697012D01*
X64012869Y-145679722D01*
X64007268Y-145676192D01*
X63879185Y-145590609D01*
X63879172Y-145590602D01*
X63733501Y-145530264D01*
X63733489Y-145530261D01*
X63578845Y-145499500D01*
X63578842Y-145499500D01*
X63421158Y-145499500D01*
X63421155Y-145499500D01*
X63266510Y-145530261D01*
X63266498Y-145530264D01*
X63120827Y-145590602D01*
X63120814Y-145590609D01*
X62989711Y-145678210D01*
X62989707Y-145678213D01*
X62878213Y-145789707D01*
X62878210Y-145789711D01*
X62790609Y-145920814D01*
X62790602Y-145920827D01*
X62730264Y-146066498D01*
X62730261Y-146066510D01*
X62699500Y-146221153D01*
X57534925Y-146221153D01*
X57545789Y-146210289D01*
X57626690Y-146089213D01*
X57633390Y-146079185D01*
X57633390Y-146079184D01*
X57633394Y-146079179D01*
X57638899Y-146065890D01*
X57653655Y-146030264D01*
X57693737Y-145933497D01*
X57724500Y-145778842D01*
X57724500Y-145621158D01*
X57724500Y-145621155D01*
X57724499Y-145621153D01*
X57702447Y-145510292D01*
X57693737Y-145466503D01*
X57657569Y-145379185D01*
X57633397Y-145320827D01*
X57633390Y-145320814D01*
X57545789Y-145189711D01*
X57545786Y-145189707D01*
X57434292Y-145078213D01*
X57434288Y-145078210D01*
X57303185Y-144990609D01*
X57303172Y-144990602D01*
X57157501Y-144930264D01*
X57157489Y-144930261D01*
X57002845Y-144899500D01*
X57002842Y-144899500D01*
X56845158Y-144899500D01*
X56845155Y-144899500D01*
X56690510Y-144930261D01*
X56690498Y-144930264D01*
X56544827Y-144990602D01*
X56544814Y-144990609D01*
X56413711Y-145078210D01*
X56413707Y-145078213D01*
X56302213Y-145189707D01*
X56302210Y-145189711D01*
X56214609Y-145320814D01*
X56214602Y-145320827D01*
X56154264Y-145466498D01*
X56154261Y-145466510D01*
X56123500Y-145621153D01*
X55010925Y-145621153D01*
X55041476Y-145590602D01*
X55104694Y-145527385D01*
X55121786Y-145510292D01*
X55121789Y-145510289D01*
X55209394Y-145379179D01*
X55269737Y-145233497D01*
X55300500Y-145078842D01*
X55300500Y-144921158D01*
X55300500Y-144921155D01*
X55300499Y-144921153D01*
X55282481Y-144830573D01*
X55269737Y-144766503D01*
X55237929Y-144689711D01*
X55209397Y-144620827D01*
X55209390Y-144620814D01*
X55121789Y-144489711D01*
X55121786Y-144489707D01*
X55010292Y-144378213D01*
X55010288Y-144378210D01*
X54879185Y-144290609D01*
X54879172Y-144290602D01*
X54733501Y-144230264D01*
X54733489Y-144230261D01*
X54578845Y-144199500D01*
X54578842Y-144199500D01*
X54421158Y-144199500D01*
X54421155Y-144199500D01*
X54266510Y-144230261D01*
X54266498Y-144230264D01*
X54120827Y-144290602D01*
X54120814Y-144290609D01*
X53989711Y-144378210D01*
X53989707Y-144378213D01*
X53907382Y-144460539D01*
X53846059Y-144494024D01*
X53776367Y-144489040D01*
X53772264Y-144487425D01*
X53634261Y-144430263D01*
X53634253Y-144430261D01*
X53479609Y-144399500D01*
X53479606Y-144399500D01*
X53321922Y-144399500D01*
X53321919Y-144399500D01*
X53167274Y-144430261D01*
X53167262Y-144430264D01*
X53021591Y-144490602D01*
X53021578Y-144490609D01*
X52890475Y-144578210D01*
X52890471Y-144578213D01*
X52778977Y-144689707D01*
X52778974Y-144689711D01*
X52691373Y-144820814D01*
X52691366Y-144820827D01*
X52631028Y-144966498D01*
X52631025Y-144966510D01*
X52600264Y-145121153D01*
X52600264Y-145174845D01*
X52580579Y-145241884D01*
X52527775Y-145287639D01*
X52523720Y-145289405D01*
X52520821Y-145290605D01*
X52520818Y-145290607D01*
X52389715Y-145378207D01*
X52389707Y-145378213D01*
X52278213Y-145489707D01*
X52278210Y-145489711D01*
X52190609Y-145620814D01*
X52190602Y-145620827D01*
X52130264Y-145766498D01*
X52130261Y-145766510D01*
X52099500Y-145921153D01*
X48100500Y-145921153D01*
X48100500Y-143921153D01*
X73999500Y-143921153D01*
X73999500Y-144078846D01*
X74030261Y-144233489D01*
X74030264Y-144233501D01*
X74090602Y-144379172D01*
X74090609Y-144379185D01*
X74178210Y-144510288D01*
X74178213Y-144510292D01*
X74289707Y-144621786D01*
X74289711Y-144621789D01*
X74420814Y-144709390D01*
X74420827Y-144709397D01*
X74558683Y-144766498D01*
X74566503Y-144769737D01*
X74721153Y-144800499D01*
X74721156Y-144800500D01*
X74721158Y-144800500D01*
X74878844Y-144800500D01*
X74878845Y-144800499D01*
X75033497Y-144769737D01*
X75179179Y-144709394D01*
X75310289Y-144621789D01*
X75421789Y-144510289D01*
X75509394Y-144379179D01*
X75569737Y-144233497D01*
X75600500Y-144078842D01*
X75600500Y-143921158D01*
X75600500Y-143921155D01*
X75600499Y-143921153D01*
X83099500Y-143921153D01*
X83099500Y-144078846D01*
X83130261Y-144233489D01*
X83130264Y-144233501D01*
X83190602Y-144379172D01*
X83190609Y-144379185D01*
X83278210Y-144510288D01*
X83278213Y-144510292D01*
X83389707Y-144621786D01*
X83389711Y-144621789D01*
X83520814Y-144709390D01*
X83520827Y-144709397D01*
X83658683Y-144766498D01*
X83666503Y-144769737D01*
X83821153Y-144800499D01*
X83821156Y-144800500D01*
X83821158Y-144800500D01*
X83978844Y-144800500D01*
X83978845Y-144800499D01*
X84133497Y-144769737D01*
X84279179Y-144709394D01*
X84410289Y-144621789D01*
X84521789Y-144510289D01*
X84609394Y-144379179D01*
X84669737Y-144233497D01*
X84700500Y-144078842D01*
X84700500Y-143921158D01*
X84700500Y-143921155D01*
X84700499Y-143921153D01*
X92123500Y-143921153D01*
X92123500Y-144078846D01*
X92154261Y-144233489D01*
X92154264Y-144233501D01*
X92214602Y-144379172D01*
X92214609Y-144379185D01*
X92302210Y-144510288D01*
X92302213Y-144510292D01*
X92413707Y-144621786D01*
X92413711Y-144621789D01*
X92544814Y-144709390D01*
X92544827Y-144709397D01*
X92682683Y-144766498D01*
X92690503Y-144769737D01*
X92845153Y-144800499D01*
X92845156Y-144800500D01*
X92845158Y-144800500D01*
X93002844Y-144800500D01*
X93002845Y-144800499D01*
X93157497Y-144769737D01*
X93303179Y-144709394D01*
X93434289Y-144621789D01*
X93545789Y-144510289D01*
X93633394Y-144379179D01*
X93693737Y-144233497D01*
X93724500Y-144078842D01*
X93724500Y-143921158D01*
X93724500Y-143921155D01*
X93724499Y-143921153D01*
X101099500Y-143921153D01*
X101099500Y-144078846D01*
X101130261Y-144233489D01*
X101130264Y-144233501D01*
X101190602Y-144379172D01*
X101190609Y-144379185D01*
X101278210Y-144510288D01*
X101278213Y-144510292D01*
X101389707Y-144621786D01*
X101389711Y-144621789D01*
X101520814Y-144709390D01*
X101520827Y-144709397D01*
X101658683Y-144766498D01*
X101666503Y-144769737D01*
X101821153Y-144800499D01*
X101821156Y-144800500D01*
X101821158Y-144800500D01*
X101978844Y-144800500D01*
X101978845Y-144800499D01*
X102133497Y-144769737D01*
X102279179Y-144709394D01*
X102410289Y-144621789D01*
X102521789Y-144510289D01*
X102609394Y-144379179D01*
X102669737Y-144233497D01*
X102700500Y-144078842D01*
X102700500Y-143921158D01*
X102700500Y-143921155D01*
X102700499Y-143921153D01*
X110099500Y-143921153D01*
X110099500Y-144078846D01*
X110130261Y-144233489D01*
X110130264Y-144233501D01*
X110190602Y-144379172D01*
X110190609Y-144379185D01*
X110278210Y-144510288D01*
X110278213Y-144510292D01*
X110389707Y-144621786D01*
X110389711Y-144621789D01*
X110520814Y-144709390D01*
X110520827Y-144709397D01*
X110658683Y-144766498D01*
X110666503Y-144769737D01*
X110821153Y-144800499D01*
X110821156Y-144800500D01*
X110821158Y-144800500D01*
X110978844Y-144800500D01*
X110978845Y-144800499D01*
X111133497Y-144769737D01*
X111279179Y-144709394D01*
X111410289Y-144621789D01*
X111521789Y-144510289D01*
X111609394Y-144379179D01*
X111669737Y-144233497D01*
X111700500Y-144078842D01*
X111700500Y-143921158D01*
X111700500Y-143921155D01*
X111700499Y-143921153D01*
X111669738Y-143766510D01*
X111669737Y-143766503D01*
X111642398Y-143700500D01*
X111609397Y-143620827D01*
X111609390Y-143620814D01*
X111521789Y-143489711D01*
X111521786Y-143489707D01*
X111410292Y-143378213D01*
X111410288Y-143378210D01*
X111279185Y-143290609D01*
X111279172Y-143290602D01*
X111133501Y-143230264D01*
X111133489Y-143230261D01*
X110978845Y-143199500D01*
X110978842Y-143199500D01*
X110821158Y-143199500D01*
X110821155Y-143199500D01*
X110666510Y-143230261D01*
X110666498Y-143230264D01*
X110520827Y-143290602D01*
X110520814Y-143290609D01*
X110389711Y-143378210D01*
X110389707Y-143378213D01*
X110278213Y-143489707D01*
X110278210Y-143489711D01*
X110190609Y-143620814D01*
X110190602Y-143620827D01*
X110130264Y-143766498D01*
X110130261Y-143766510D01*
X110099500Y-143921153D01*
X102700499Y-143921153D01*
X102669738Y-143766510D01*
X102669737Y-143766503D01*
X102642398Y-143700500D01*
X102609397Y-143620827D01*
X102609390Y-143620814D01*
X102521789Y-143489711D01*
X102521786Y-143489707D01*
X102410292Y-143378213D01*
X102410288Y-143378210D01*
X102279185Y-143290609D01*
X102279172Y-143290602D01*
X102133501Y-143230264D01*
X102133489Y-143230261D01*
X101978845Y-143199500D01*
X101978842Y-143199500D01*
X101821158Y-143199500D01*
X101821155Y-143199500D01*
X101666510Y-143230261D01*
X101666498Y-143230264D01*
X101520827Y-143290602D01*
X101520814Y-143290609D01*
X101389711Y-143378210D01*
X101389707Y-143378213D01*
X101278213Y-143489707D01*
X101278210Y-143489711D01*
X101190609Y-143620814D01*
X101190602Y-143620827D01*
X101130264Y-143766498D01*
X101130261Y-143766510D01*
X101099500Y-143921153D01*
X93724499Y-143921153D01*
X93693738Y-143766510D01*
X93693737Y-143766503D01*
X93666398Y-143700500D01*
X93633397Y-143620827D01*
X93633390Y-143620814D01*
X93545789Y-143489711D01*
X93545786Y-143489707D01*
X93434292Y-143378213D01*
X93434288Y-143378210D01*
X93303185Y-143290609D01*
X93303172Y-143290602D01*
X93157501Y-143230264D01*
X93157489Y-143230261D01*
X93002845Y-143199500D01*
X93002842Y-143199500D01*
X92845158Y-143199500D01*
X92845155Y-143199500D01*
X92690510Y-143230261D01*
X92690498Y-143230264D01*
X92544827Y-143290602D01*
X92544814Y-143290609D01*
X92413711Y-143378210D01*
X92413707Y-143378213D01*
X92302213Y-143489707D01*
X92302210Y-143489711D01*
X92214609Y-143620814D01*
X92214602Y-143620827D01*
X92154264Y-143766498D01*
X92154261Y-143766510D01*
X92123500Y-143921153D01*
X84700499Y-143921153D01*
X84669738Y-143766510D01*
X84669737Y-143766503D01*
X84642398Y-143700500D01*
X84609397Y-143620827D01*
X84609390Y-143620814D01*
X84521789Y-143489711D01*
X84521786Y-143489707D01*
X84410292Y-143378213D01*
X84410288Y-143378210D01*
X84279185Y-143290609D01*
X84279172Y-143290602D01*
X84133501Y-143230264D01*
X84133489Y-143230261D01*
X83978845Y-143199500D01*
X83978842Y-143199500D01*
X83821158Y-143199500D01*
X83821155Y-143199500D01*
X83666510Y-143230261D01*
X83666498Y-143230264D01*
X83520827Y-143290602D01*
X83520814Y-143290609D01*
X83389711Y-143378210D01*
X83389707Y-143378213D01*
X83278213Y-143489707D01*
X83278210Y-143489711D01*
X83190609Y-143620814D01*
X83190602Y-143620827D01*
X83130264Y-143766498D01*
X83130261Y-143766510D01*
X83099500Y-143921153D01*
X75600499Y-143921153D01*
X75569738Y-143766510D01*
X75569737Y-143766503D01*
X75542398Y-143700500D01*
X75509397Y-143620827D01*
X75509390Y-143620814D01*
X75421789Y-143489711D01*
X75421786Y-143489707D01*
X75310292Y-143378213D01*
X75310288Y-143378210D01*
X75179185Y-143290609D01*
X75179172Y-143290602D01*
X75033501Y-143230264D01*
X75033489Y-143230261D01*
X74878845Y-143199500D01*
X74878842Y-143199500D01*
X74721158Y-143199500D01*
X74721155Y-143199500D01*
X74566510Y-143230261D01*
X74566498Y-143230264D01*
X74420827Y-143290602D01*
X74420814Y-143290609D01*
X74289711Y-143378210D01*
X74289707Y-143378213D01*
X74178213Y-143489707D01*
X74178210Y-143489711D01*
X74090609Y-143620814D01*
X74090602Y-143620827D01*
X74030264Y-143766498D01*
X74030261Y-143766510D01*
X73999500Y-143921153D01*
X48100500Y-143921153D01*
X48100500Y-142103439D01*
X48120185Y-142036400D01*
X48172989Y-141990645D01*
X48242147Y-141980701D01*
X48305703Y-142009726D01*
X48327602Y-142034548D01*
X48378210Y-142110288D01*
X48378213Y-142110292D01*
X48489707Y-142221786D01*
X48489711Y-142221789D01*
X48620814Y-142309390D01*
X48620827Y-142309397D01*
X48766498Y-142369735D01*
X48766503Y-142369737D01*
X48921153Y-142400499D01*
X48921156Y-142400500D01*
X48921158Y-142400500D01*
X49078844Y-142400500D01*
X49078845Y-142400499D01*
X49233497Y-142369737D01*
X49379179Y-142309394D01*
X49510289Y-142221789D01*
X49621789Y-142110289D01*
X49709394Y-141979179D01*
X49733429Y-141921153D01*
X51199500Y-141921153D01*
X51199500Y-142078846D01*
X51230261Y-142233489D01*
X51230264Y-142233501D01*
X51290602Y-142379172D01*
X51290609Y-142379185D01*
X51378210Y-142510288D01*
X51378213Y-142510292D01*
X51489707Y-142621786D01*
X51489711Y-142621789D01*
X51620814Y-142709390D01*
X51620827Y-142709397D01*
X51758683Y-142766498D01*
X51766503Y-142769737D01*
X51921153Y-142800499D01*
X51921156Y-142800500D01*
X51921158Y-142800500D01*
X52078844Y-142800500D01*
X52078845Y-142800499D01*
X52233497Y-142769737D01*
X52379179Y-142709394D01*
X52510289Y-142621789D01*
X52621789Y-142510289D01*
X52709394Y-142379179D01*
X52769737Y-142233497D01*
X52800500Y-142078842D01*
X52800500Y-141921158D01*
X52800500Y-141921155D01*
X52800499Y-141921153D01*
X58099500Y-141921153D01*
X58099500Y-142078846D01*
X58130261Y-142233489D01*
X58130264Y-142233501D01*
X58190602Y-142379172D01*
X58190609Y-142379185D01*
X58278210Y-142510288D01*
X58278213Y-142510292D01*
X58389707Y-142621786D01*
X58389711Y-142621789D01*
X58520814Y-142709390D01*
X58520827Y-142709397D01*
X58658683Y-142766498D01*
X58666503Y-142769737D01*
X58821153Y-142800499D01*
X58821156Y-142800500D01*
X58821158Y-142800500D01*
X58978844Y-142800500D01*
X58978845Y-142800499D01*
X59133497Y-142769737D01*
X59279179Y-142709394D01*
X59410289Y-142621789D01*
X59521789Y-142510289D01*
X59609394Y-142379179D01*
X59669737Y-142233497D01*
X59700500Y-142078842D01*
X59700500Y-141921158D01*
X59700500Y-141921155D01*
X59700499Y-141921153D01*
X66399500Y-141921153D01*
X66399500Y-142078846D01*
X66430261Y-142233489D01*
X66430264Y-142233501D01*
X66490602Y-142379172D01*
X66490609Y-142379185D01*
X66578210Y-142510288D01*
X66578213Y-142510292D01*
X66689707Y-142621786D01*
X66689711Y-142621789D01*
X66820814Y-142709390D01*
X66820827Y-142709397D01*
X66958683Y-142766498D01*
X66966503Y-142769737D01*
X67076987Y-142791713D01*
X67099691Y-142796230D01*
X67161602Y-142828615D01*
X67196176Y-142889330D01*
X67199500Y-142917847D01*
X67199500Y-143078846D01*
X67230261Y-143233489D01*
X67230264Y-143233501D01*
X67290602Y-143379172D01*
X67290609Y-143379185D01*
X67378210Y-143510288D01*
X67378213Y-143510292D01*
X67489707Y-143621786D01*
X67489711Y-143621789D01*
X67620814Y-143709390D01*
X67620827Y-143709397D01*
X67758683Y-143766498D01*
X67766503Y-143769737D01*
X67921153Y-143800499D01*
X67921156Y-143800500D01*
X67921158Y-143800500D01*
X68078844Y-143800500D01*
X68078845Y-143800499D01*
X68089179Y-143798443D01*
X68114287Y-143793450D01*
X68114292Y-143793449D01*
X68199800Y-143776439D01*
X68233497Y-143769737D01*
X68351592Y-143720821D01*
X68379172Y-143709397D01*
X68379172Y-143709396D01*
X68379179Y-143709394D01*
X68510289Y-143621789D01*
X68621789Y-143510289D01*
X68709394Y-143379179D01*
X68769737Y-143233497D01*
X68800500Y-143078842D01*
X68800500Y-142921158D01*
X68800499Y-142921155D01*
X68794169Y-142889330D01*
X68789050Y-142863596D01*
X68795277Y-142794006D01*
X68838139Y-142738828D01*
X68904028Y-142715583D01*
X68958119Y-142724844D01*
X69058683Y-142766498D01*
X69066503Y-142769737D01*
X69221153Y-142800499D01*
X69221156Y-142800500D01*
X69221158Y-142800500D01*
X69378844Y-142800500D01*
X69378845Y-142800499D01*
X69533497Y-142769737D01*
X69679179Y-142709394D01*
X69810289Y-142621789D01*
X69921789Y-142510289D01*
X70009394Y-142379179D01*
X70069737Y-142233497D01*
X70100500Y-142078842D01*
X70100500Y-141921158D01*
X70100500Y-141921155D01*
X70100499Y-141921153D01*
X76099500Y-141921153D01*
X76099500Y-142078846D01*
X76130261Y-142233489D01*
X76130264Y-142233501D01*
X76190602Y-142379172D01*
X76190609Y-142379185D01*
X76225304Y-142431109D01*
X76246182Y-142497786D01*
X76227698Y-142565167D01*
X76225304Y-142568891D01*
X76190609Y-142620814D01*
X76190602Y-142620827D01*
X76130264Y-142766498D01*
X76130261Y-142766510D01*
X76099500Y-142921153D01*
X76099500Y-143078846D01*
X76130261Y-143233489D01*
X76130264Y-143233501D01*
X76190602Y-143379172D01*
X76190609Y-143379185D01*
X76278210Y-143510288D01*
X76278213Y-143510292D01*
X76389707Y-143621786D01*
X76389711Y-143621789D01*
X76520814Y-143709390D01*
X76520827Y-143709397D01*
X76658683Y-143766498D01*
X76666503Y-143769737D01*
X76821153Y-143800499D01*
X76821156Y-143800500D01*
X76821158Y-143800500D01*
X76978844Y-143800500D01*
X76978845Y-143800499D01*
X76989179Y-143798443D01*
X77014287Y-143793450D01*
X77014292Y-143793449D01*
X77099800Y-143776439D01*
X77133497Y-143769737D01*
X77251592Y-143720821D01*
X77279172Y-143709397D01*
X77279172Y-143709396D01*
X77279179Y-143709394D01*
X77410289Y-143621789D01*
X77521789Y-143510289D01*
X77609394Y-143379179D01*
X77669737Y-143233497D01*
X77700500Y-143078842D01*
X77700500Y-142921158D01*
X77700500Y-142921156D01*
X77700500Y-142921155D01*
X77700499Y-142921153D01*
X84999500Y-142921153D01*
X84999500Y-143078846D01*
X85030261Y-143233489D01*
X85030264Y-143233501D01*
X85090602Y-143379172D01*
X85090609Y-143379185D01*
X85178210Y-143510288D01*
X85178213Y-143510292D01*
X85289707Y-143621786D01*
X85289711Y-143621789D01*
X85420814Y-143709390D01*
X85420827Y-143709397D01*
X85558683Y-143766498D01*
X85566503Y-143769737D01*
X85721153Y-143800499D01*
X85721156Y-143800500D01*
X85721158Y-143800500D01*
X85878844Y-143800500D01*
X85878845Y-143800499D01*
X85889179Y-143798443D01*
X85914287Y-143793450D01*
X85914292Y-143793449D01*
X85999800Y-143776439D01*
X86033497Y-143769737D01*
X86151592Y-143720821D01*
X86179172Y-143709397D01*
X86179172Y-143709396D01*
X86179179Y-143709394D01*
X86310289Y-143621789D01*
X86421789Y-143510289D01*
X86509394Y-143379179D01*
X86569737Y-143233497D01*
X86600500Y-143078842D01*
X86600500Y-142921158D01*
X86600500Y-142921156D01*
X86600500Y-142921155D01*
X86584209Y-142839258D01*
X86584209Y-142839257D01*
X86580608Y-142821153D01*
X94099500Y-142821153D01*
X94099500Y-142978846D01*
X94130261Y-143133489D01*
X94130264Y-143133501D01*
X94190602Y-143279172D01*
X94190609Y-143279185D01*
X94278210Y-143410288D01*
X94278213Y-143410292D01*
X94389707Y-143521786D01*
X94389711Y-143521789D01*
X94520814Y-143609390D01*
X94520827Y-143609397D01*
X94666498Y-143669735D01*
X94666503Y-143669737D01*
X94821153Y-143700499D01*
X94821156Y-143700500D01*
X94821158Y-143700500D01*
X94978844Y-143700500D01*
X94978845Y-143700499D01*
X95133497Y-143669737D01*
X95251592Y-143620821D01*
X95279172Y-143609397D01*
X95279172Y-143609396D01*
X95279179Y-143609394D01*
X95410289Y-143521789D01*
X95521789Y-143410289D01*
X95609394Y-143279179D01*
X95669737Y-143133497D01*
X95700500Y-142978842D01*
X95700500Y-142821158D01*
X95700500Y-142821155D01*
X95700499Y-142821153D01*
X95681342Y-142724844D01*
X95669737Y-142666503D01*
X95636807Y-142587005D01*
X95629339Y-142517536D01*
X95648267Y-142470662D01*
X95709390Y-142379185D01*
X95709390Y-142379184D01*
X95709394Y-142379179D01*
X95769737Y-142233497D01*
X95800500Y-142078842D01*
X95800500Y-141921158D01*
X95800500Y-141921155D01*
X95800499Y-141921153D01*
X103199500Y-141921153D01*
X103199500Y-142078846D01*
X103230261Y-142233489D01*
X103230264Y-142233501D01*
X103290602Y-142379172D01*
X103290609Y-142379185D01*
X103325304Y-142431109D01*
X103346182Y-142497786D01*
X103327698Y-142565167D01*
X103325304Y-142568891D01*
X103290609Y-142620814D01*
X103290602Y-142620827D01*
X103230264Y-142766498D01*
X103230261Y-142766510D01*
X103199500Y-142921153D01*
X103199500Y-143078846D01*
X103230261Y-143233489D01*
X103230264Y-143233501D01*
X103290602Y-143379172D01*
X103290609Y-143379185D01*
X103378210Y-143510288D01*
X103378213Y-143510292D01*
X103489707Y-143621786D01*
X103489711Y-143621789D01*
X103620814Y-143709390D01*
X103620827Y-143709397D01*
X103758683Y-143766498D01*
X103766503Y-143769737D01*
X103921153Y-143800499D01*
X103921156Y-143800500D01*
X103921158Y-143800500D01*
X104078844Y-143800500D01*
X104078845Y-143800499D01*
X104089179Y-143798443D01*
X104114287Y-143793450D01*
X104114292Y-143793449D01*
X104199800Y-143776439D01*
X104233497Y-143769737D01*
X104351592Y-143720821D01*
X104379172Y-143709397D01*
X104379172Y-143709396D01*
X104379179Y-143709394D01*
X104510289Y-143621789D01*
X104621789Y-143510289D01*
X104709394Y-143379179D01*
X104769737Y-143233497D01*
X104800500Y-143078842D01*
X104800500Y-142921158D01*
X104800500Y-142921156D01*
X104800500Y-142921155D01*
X104800499Y-142921153D01*
X104794169Y-142889330D01*
X104769737Y-142766503D01*
X104758274Y-142738828D01*
X104709396Y-142620825D01*
X104709394Y-142620822D01*
X104709394Y-142620821D01*
X104674694Y-142568889D01*
X104653816Y-142502215D01*
X104672300Y-142434835D01*
X104674676Y-142431136D01*
X104709394Y-142379179D01*
X104769737Y-142233497D01*
X104800500Y-142078842D01*
X104800500Y-141921158D01*
X104800500Y-141921155D01*
X104800499Y-141921153D01*
X112199500Y-141921153D01*
X112199500Y-142078846D01*
X112230261Y-142233489D01*
X112230264Y-142233501D01*
X112290604Y-142379177D01*
X112290605Y-142379179D01*
X112291899Y-142381115D01*
X112292264Y-142382282D01*
X112293476Y-142384549D01*
X112293045Y-142384778D01*
X112312773Y-142447794D01*
X112294285Y-142515173D01*
X112291899Y-142518885D01*
X112290605Y-142520820D01*
X112290604Y-142520822D01*
X112230264Y-142666498D01*
X112230261Y-142666510D01*
X112199500Y-142821153D01*
X112199500Y-142978846D01*
X112230261Y-143133489D01*
X112230264Y-143133501D01*
X112290602Y-143279172D01*
X112290609Y-143279185D01*
X112378210Y-143410288D01*
X112378213Y-143410292D01*
X112489707Y-143521786D01*
X112489711Y-143521789D01*
X112620814Y-143609390D01*
X112620827Y-143609397D01*
X112766498Y-143669735D01*
X112766503Y-143669737D01*
X112921153Y-143700499D01*
X112921156Y-143700500D01*
X112921158Y-143700500D01*
X113078844Y-143700500D01*
X113078845Y-143700499D01*
X113233497Y-143669737D01*
X113351592Y-143620821D01*
X113379172Y-143609397D01*
X113379172Y-143609396D01*
X113379179Y-143609394D01*
X113510289Y-143521789D01*
X113621789Y-143410289D01*
X113709394Y-143279179D01*
X113769737Y-143133497D01*
X113800500Y-142978842D01*
X113800500Y-142821158D01*
X113800500Y-142821155D01*
X113800499Y-142821153D01*
X113781342Y-142724844D01*
X113769737Y-142666503D01*
X113750817Y-142620825D01*
X113709397Y-142520827D01*
X113709394Y-142520822D01*
X113709394Y-142520821D01*
X113708103Y-142518889D01*
X113707737Y-142517723D01*
X113706525Y-142515454D01*
X113706955Y-142515223D01*
X113687226Y-142452214D01*
X113705710Y-142384834D01*
X113708100Y-142381115D01*
X113709394Y-142379179D01*
X113769737Y-142233497D01*
X113800500Y-142078842D01*
X113800500Y-141921158D01*
X113800500Y-141921155D01*
X113800499Y-141921153D01*
X113769738Y-141766510D01*
X113769737Y-141766503D01*
X113733427Y-141678842D01*
X113709397Y-141620827D01*
X113709390Y-141620814D01*
X113621789Y-141489711D01*
X113621786Y-141489707D01*
X113510292Y-141378213D01*
X113510288Y-141378210D01*
X113379185Y-141290609D01*
X113379172Y-141290602D01*
X113233501Y-141230264D01*
X113233489Y-141230261D01*
X113078845Y-141199500D01*
X113078842Y-141199500D01*
X112921158Y-141199500D01*
X112921155Y-141199500D01*
X112766510Y-141230261D01*
X112766498Y-141230264D01*
X112620827Y-141290602D01*
X112620814Y-141290609D01*
X112489711Y-141378210D01*
X112489707Y-141378213D01*
X112378213Y-141489707D01*
X112378210Y-141489711D01*
X112290609Y-141620814D01*
X112290602Y-141620827D01*
X112230264Y-141766498D01*
X112230261Y-141766510D01*
X112199500Y-141921153D01*
X104800499Y-141921153D01*
X104769738Y-141766510D01*
X104769737Y-141766503D01*
X104733427Y-141678842D01*
X104709397Y-141620827D01*
X104709390Y-141620814D01*
X104621789Y-141489711D01*
X104621786Y-141489707D01*
X104510292Y-141378213D01*
X104510288Y-141378210D01*
X104379185Y-141290609D01*
X104379172Y-141290602D01*
X104233501Y-141230264D01*
X104233489Y-141230261D01*
X104078845Y-141199500D01*
X104078842Y-141199500D01*
X103921158Y-141199500D01*
X103921155Y-141199500D01*
X103766510Y-141230261D01*
X103766498Y-141230264D01*
X103620827Y-141290602D01*
X103620814Y-141290609D01*
X103489711Y-141378210D01*
X103489707Y-141378213D01*
X103378213Y-141489707D01*
X103378210Y-141489711D01*
X103290609Y-141620814D01*
X103290602Y-141620827D01*
X103230264Y-141766498D01*
X103230261Y-141766510D01*
X103199500Y-141921153D01*
X95800499Y-141921153D01*
X95769738Y-141766510D01*
X95769737Y-141766503D01*
X95733427Y-141678842D01*
X95709397Y-141620827D01*
X95709390Y-141620814D01*
X95621789Y-141489711D01*
X95621786Y-141489707D01*
X95510292Y-141378213D01*
X95510288Y-141378210D01*
X95379185Y-141290609D01*
X95379172Y-141290602D01*
X95233501Y-141230264D01*
X95233489Y-141230261D01*
X95078845Y-141199500D01*
X95078842Y-141199500D01*
X94921158Y-141199500D01*
X94921155Y-141199500D01*
X94766510Y-141230261D01*
X94766498Y-141230264D01*
X94620827Y-141290602D01*
X94620814Y-141290609D01*
X94489711Y-141378210D01*
X94489707Y-141378213D01*
X94378213Y-141489707D01*
X94378210Y-141489711D01*
X94290609Y-141620814D01*
X94290602Y-141620827D01*
X94230264Y-141766498D01*
X94230261Y-141766510D01*
X94199500Y-141921153D01*
X94199500Y-142078846D01*
X94230260Y-142233488D01*
X94230261Y-142233489D01*
X94230263Y-142233497D01*
X94263192Y-142312995D01*
X94270660Y-142382464D01*
X94251733Y-142429336D01*
X94190608Y-142520816D01*
X94190602Y-142520827D01*
X94130264Y-142666498D01*
X94130261Y-142666510D01*
X94099500Y-142821153D01*
X86580608Y-142821153D01*
X86569738Y-142766510D01*
X86569737Y-142766503D01*
X86558274Y-142738828D01*
X86511238Y-142625272D01*
X86503769Y-142555803D01*
X86522694Y-142508933D01*
X86609394Y-142379179D01*
X86669737Y-142233497D01*
X86700500Y-142078842D01*
X86700500Y-141921158D01*
X86700500Y-141921155D01*
X86700499Y-141921153D01*
X86669738Y-141766510D01*
X86669737Y-141766503D01*
X86633427Y-141678842D01*
X86609397Y-141620827D01*
X86609390Y-141620814D01*
X86521789Y-141489711D01*
X86521786Y-141489707D01*
X86410292Y-141378213D01*
X86410288Y-141378210D01*
X86279185Y-141290609D01*
X86279172Y-141290602D01*
X86133501Y-141230264D01*
X86133489Y-141230261D01*
X85978845Y-141199500D01*
X85978842Y-141199500D01*
X85821158Y-141199500D01*
X85821155Y-141199500D01*
X85666510Y-141230261D01*
X85666498Y-141230264D01*
X85520827Y-141290602D01*
X85520814Y-141290609D01*
X85389711Y-141378210D01*
X85389707Y-141378213D01*
X85278213Y-141489707D01*
X85278210Y-141489711D01*
X85190609Y-141620814D01*
X85190602Y-141620827D01*
X85130264Y-141766498D01*
X85130261Y-141766510D01*
X85099500Y-141921153D01*
X85099500Y-142078846D01*
X85130261Y-142233489D01*
X85130264Y-142233501D01*
X85188761Y-142374727D01*
X85196230Y-142444196D01*
X85177302Y-142491070D01*
X85090609Y-142620814D01*
X85090602Y-142620827D01*
X85030264Y-142766498D01*
X85030261Y-142766510D01*
X84999500Y-142921153D01*
X77700499Y-142921153D01*
X77694169Y-142889330D01*
X77669737Y-142766503D01*
X77658274Y-142738828D01*
X77609396Y-142620825D01*
X77609394Y-142620822D01*
X77609394Y-142620821D01*
X77574694Y-142568889D01*
X77553816Y-142502215D01*
X77572300Y-142434835D01*
X77574676Y-142431136D01*
X77609394Y-142379179D01*
X77669737Y-142233497D01*
X77700500Y-142078842D01*
X77700500Y-141921158D01*
X77700500Y-141921155D01*
X77700499Y-141921153D01*
X77669738Y-141766510D01*
X77669737Y-141766503D01*
X77633427Y-141678842D01*
X77609397Y-141620827D01*
X77609390Y-141620814D01*
X77521789Y-141489711D01*
X77521786Y-141489707D01*
X77410292Y-141378213D01*
X77410288Y-141378210D01*
X77279185Y-141290609D01*
X77279172Y-141290602D01*
X77133501Y-141230264D01*
X77133489Y-141230261D01*
X76978845Y-141199500D01*
X76978842Y-141199500D01*
X76821158Y-141199500D01*
X76821155Y-141199500D01*
X76666510Y-141230261D01*
X76666498Y-141230264D01*
X76520827Y-141290602D01*
X76520814Y-141290609D01*
X76389711Y-141378210D01*
X76389707Y-141378213D01*
X76278213Y-141489707D01*
X76278210Y-141489711D01*
X76190609Y-141620814D01*
X76190602Y-141620827D01*
X76130264Y-141766498D01*
X76130261Y-141766510D01*
X76099500Y-141921153D01*
X70100499Y-141921153D01*
X70069738Y-141766510D01*
X70069737Y-141766503D01*
X70033427Y-141678842D01*
X70009397Y-141620827D01*
X70009390Y-141620814D01*
X69921789Y-141489711D01*
X69921786Y-141489707D01*
X69810292Y-141378213D01*
X69810288Y-141378210D01*
X69679185Y-141290609D01*
X69679172Y-141290602D01*
X69533501Y-141230264D01*
X69533489Y-141230261D01*
X69378845Y-141199500D01*
X69378842Y-141199500D01*
X69221158Y-141199500D01*
X69221155Y-141199500D01*
X69066510Y-141230261D01*
X69066498Y-141230264D01*
X68920827Y-141290602D01*
X68920814Y-141290609D01*
X68789711Y-141378210D01*
X68789707Y-141378213D01*
X68678213Y-141489707D01*
X68678210Y-141489711D01*
X68590609Y-141620814D01*
X68590602Y-141620827D01*
X68530264Y-141766498D01*
X68530261Y-141766510D01*
X68499500Y-141921153D01*
X68499500Y-142078846D01*
X68510949Y-142136403D01*
X68504722Y-142205994D01*
X68461859Y-142261172D01*
X68395969Y-142284416D01*
X68341881Y-142275156D01*
X68271077Y-142245829D01*
X68233497Y-142230263D01*
X68233495Y-142230262D01*
X68233491Y-142230261D01*
X68100308Y-142203769D01*
X68038397Y-142171384D01*
X68003823Y-142110668D01*
X68000500Y-142082152D01*
X68000500Y-141921155D01*
X68000499Y-141921153D01*
X67969738Y-141766510D01*
X67969737Y-141766503D01*
X67933427Y-141678842D01*
X67909397Y-141620827D01*
X67909390Y-141620814D01*
X67821789Y-141489711D01*
X67821786Y-141489707D01*
X67710292Y-141378213D01*
X67710288Y-141378210D01*
X67579185Y-141290609D01*
X67579172Y-141290602D01*
X67433501Y-141230264D01*
X67433489Y-141230261D01*
X67278845Y-141199500D01*
X67278842Y-141199500D01*
X67121158Y-141199500D01*
X67121155Y-141199500D01*
X66966510Y-141230261D01*
X66966498Y-141230264D01*
X66820827Y-141290602D01*
X66820814Y-141290609D01*
X66689711Y-141378210D01*
X66689707Y-141378213D01*
X66578213Y-141489707D01*
X66578210Y-141489711D01*
X66490609Y-141620814D01*
X66490602Y-141620827D01*
X66430264Y-141766498D01*
X66430261Y-141766510D01*
X66399500Y-141921153D01*
X59700499Y-141921153D01*
X59669738Y-141766510D01*
X59669737Y-141766503D01*
X59633427Y-141678842D01*
X59609397Y-141620827D01*
X59609390Y-141620814D01*
X59521789Y-141489711D01*
X59521786Y-141489707D01*
X59410292Y-141378213D01*
X59410288Y-141378210D01*
X59279185Y-141290609D01*
X59279172Y-141290602D01*
X59133501Y-141230264D01*
X59133489Y-141230261D01*
X58978845Y-141199500D01*
X58978842Y-141199500D01*
X58821158Y-141199500D01*
X58821155Y-141199500D01*
X58666510Y-141230261D01*
X58666498Y-141230264D01*
X58520827Y-141290602D01*
X58520814Y-141290609D01*
X58389711Y-141378210D01*
X58389707Y-141378213D01*
X58278213Y-141489707D01*
X58278210Y-141489711D01*
X58190609Y-141620814D01*
X58190602Y-141620827D01*
X58130264Y-141766498D01*
X58130261Y-141766510D01*
X58099500Y-141921153D01*
X52800499Y-141921153D01*
X52769738Y-141766510D01*
X52769737Y-141766503D01*
X52733427Y-141678842D01*
X52709397Y-141620827D01*
X52709390Y-141620814D01*
X52621789Y-141489711D01*
X52621786Y-141489707D01*
X52510292Y-141378213D01*
X52510288Y-141378210D01*
X52379185Y-141290609D01*
X52379172Y-141290602D01*
X52233501Y-141230264D01*
X52233489Y-141230261D01*
X52078845Y-141199500D01*
X52078842Y-141199500D01*
X51921158Y-141199500D01*
X51921155Y-141199500D01*
X51766510Y-141230261D01*
X51766498Y-141230264D01*
X51620827Y-141290602D01*
X51620814Y-141290609D01*
X51489711Y-141378210D01*
X51489707Y-141378213D01*
X51378213Y-141489707D01*
X51378210Y-141489711D01*
X51290609Y-141620814D01*
X51290602Y-141620827D01*
X51230264Y-141766498D01*
X51230261Y-141766510D01*
X51199500Y-141921153D01*
X49733429Y-141921153D01*
X49755603Y-141867621D01*
X49755605Y-141867614D01*
X49769737Y-141833497D01*
X49800500Y-141678842D01*
X49800500Y-141521158D01*
X49800500Y-141521155D01*
X49800499Y-141521153D01*
X49772066Y-141378211D01*
X49769737Y-141366503D01*
X49738298Y-141290602D01*
X49709397Y-141220827D01*
X49709390Y-141220814D01*
X49621789Y-141089711D01*
X49621786Y-141089707D01*
X49510292Y-140978213D01*
X49510288Y-140978210D01*
X49379185Y-140890609D01*
X49379172Y-140890602D01*
X49233501Y-140830264D01*
X49233489Y-140830261D01*
X49078845Y-140799500D01*
X49078842Y-140799500D01*
X48921158Y-140799500D01*
X48921155Y-140799500D01*
X48766510Y-140830261D01*
X48766498Y-140830264D01*
X48620827Y-140890602D01*
X48620814Y-140890609D01*
X48489711Y-140978210D01*
X48489707Y-140978213D01*
X48378213Y-141089707D01*
X48378210Y-141089711D01*
X48327602Y-141165451D01*
X48273989Y-141210256D01*
X48204664Y-141218963D01*
X48141637Y-141188808D01*
X48104918Y-141129365D01*
X48100500Y-141096560D01*
X48100500Y-137821153D01*
X55099500Y-137821153D01*
X55099500Y-137978846D01*
X55130261Y-138133489D01*
X55130264Y-138133501D01*
X55190602Y-138279172D01*
X55190609Y-138279185D01*
X55278210Y-138410288D01*
X55278213Y-138410292D01*
X55389707Y-138521786D01*
X55389711Y-138521789D01*
X55520814Y-138609390D01*
X55520827Y-138609397D01*
X55666498Y-138669735D01*
X55666503Y-138669737D01*
X55821153Y-138700499D01*
X55821156Y-138700500D01*
X55821158Y-138700500D01*
X55978844Y-138700500D01*
X55978845Y-138700499D01*
X56133497Y-138669737D01*
X56279179Y-138609394D01*
X56410289Y-138521789D01*
X56521789Y-138410289D01*
X56609394Y-138279179D01*
X56669737Y-138133497D01*
X56700500Y-137978842D01*
X56700500Y-137821158D01*
X56700500Y-137821155D01*
X56700499Y-137821153D01*
X64099500Y-137821153D01*
X64099500Y-137978846D01*
X64130261Y-138133489D01*
X64130264Y-138133501D01*
X64190602Y-138279172D01*
X64190609Y-138279185D01*
X64278210Y-138410288D01*
X64278213Y-138410292D01*
X64389707Y-138521786D01*
X64389711Y-138521789D01*
X64520814Y-138609390D01*
X64520827Y-138609397D01*
X64666498Y-138669735D01*
X64666503Y-138669737D01*
X64821153Y-138700499D01*
X64821156Y-138700500D01*
X64821158Y-138700500D01*
X64978844Y-138700500D01*
X64978845Y-138700499D01*
X65133497Y-138669737D01*
X65279179Y-138609394D01*
X65410289Y-138521789D01*
X65521789Y-138410289D01*
X65609394Y-138279179D01*
X65669737Y-138133497D01*
X65700500Y-137978842D01*
X65700500Y-137821158D01*
X65700500Y-137821155D01*
X65700499Y-137821153D01*
X72799500Y-137821153D01*
X72799500Y-137978846D01*
X72830261Y-138133489D01*
X72830264Y-138133501D01*
X72890602Y-138279172D01*
X72890609Y-138279185D01*
X72978210Y-138410288D01*
X72978213Y-138410292D01*
X73089707Y-138521786D01*
X73089711Y-138521789D01*
X73220814Y-138609390D01*
X73220827Y-138609397D01*
X73366498Y-138669735D01*
X73366503Y-138669737D01*
X73521153Y-138700499D01*
X73521156Y-138700500D01*
X73521158Y-138700500D01*
X73678844Y-138700500D01*
X73678845Y-138700499D01*
X73833497Y-138669737D01*
X73979179Y-138609394D01*
X74110289Y-138521789D01*
X74221789Y-138410289D01*
X74309394Y-138279179D01*
X74369737Y-138133497D01*
X74400500Y-137978842D01*
X74400500Y-137821158D01*
X74400500Y-137821155D01*
X74400499Y-137821153D01*
X81899500Y-137821153D01*
X81899500Y-137978846D01*
X81930261Y-138133489D01*
X81930264Y-138133501D01*
X81990602Y-138279172D01*
X81990609Y-138279185D01*
X82078210Y-138410288D01*
X82078213Y-138410292D01*
X82189707Y-138521786D01*
X82189711Y-138521789D01*
X82320814Y-138609390D01*
X82320827Y-138609397D01*
X82466498Y-138669735D01*
X82466503Y-138669737D01*
X82621153Y-138700499D01*
X82621156Y-138700500D01*
X82621158Y-138700500D01*
X82778844Y-138700500D01*
X82778845Y-138700499D01*
X82933497Y-138669737D01*
X83079179Y-138609394D01*
X83210289Y-138521789D01*
X83321789Y-138410289D01*
X83409394Y-138279179D01*
X83469737Y-138133497D01*
X83500500Y-137978842D01*
X83500500Y-137821158D01*
X83500500Y-137821155D01*
X83500499Y-137821153D01*
X90899500Y-137821153D01*
X90899500Y-137978846D01*
X90930261Y-138133489D01*
X90930264Y-138133501D01*
X90990602Y-138279172D01*
X90990609Y-138279185D01*
X91078210Y-138410288D01*
X91078213Y-138410292D01*
X91189707Y-138521786D01*
X91189711Y-138521789D01*
X91320814Y-138609390D01*
X91320827Y-138609397D01*
X91466498Y-138669735D01*
X91466503Y-138669737D01*
X91621153Y-138700499D01*
X91621156Y-138700500D01*
X91621158Y-138700500D01*
X91778844Y-138700500D01*
X91778845Y-138700499D01*
X91933497Y-138669737D01*
X92079179Y-138609394D01*
X92210289Y-138521789D01*
X92321789Y-138410289D01*
X92409394Y-138279179D01*
X92469737Y-138133497D01*
X92500500Y-137978842D01*
X92500500Y-137821158D01*
X92500500Y-137821155D01*
X92500499Y-137821153D01*
X99899500Y-137821153D01*
X99899500Y-137978846D01*
X99930261Y-138133489D01*
X99930264Y-138133501D01*
X99990602Y-138279172D01*
X99990609Y-138279185D01*
X100078210Y-138410288D01*
X100078213Y-138410292D01*
X100189707Y-138521786D01*
X100189711Y-138521789D01*
X100320814Y-138609390D01*
X100320827Y-138609397D01*
X100466498Y-138669735D01*
X100466503Y-138669737D01*
X100621153Y-138700499D01*
X100621156Y-138700500D01*
X100621158Y-138700500D01*
X100778844Y-138700500D01*
X100778845Y-138700499D01*
X100933497Y-138669737D01*
X101079179Y-138609394D01*
X101210289Y-138521789D01*
X101321789Y-138410289D01*
X101409394Y-138279179D01*
X101469737Y-138133497D01*
X101500500Y-137978842D01*
X101500500Y-137821158D01*
X101500500Y-137821155D01*
X101500499Y-137821153D01*
X108899500Y-137821153D01*
X108899500Y-137978846D01*
X108930261Y-138133489D01*
X108930264Y-138133501D01*
X108990602Y-138279172D01*
X108990609Y-138279185D01*
X109078210Y-138410288D01*
X109078213Y-138410292D01*
X109189707Y-138521786D01*
X109189711Y-138521789D01*
X109320814Y-138609390D01*
X109320827Y-138609397D01*
X109466498Y-138669735D01*
X109466503Y-138669737D01*
X109621153Y-138700499D01*
X109621156Y-138700500D01*
X109621158Y-138700500D01*
X109778844Y-138700500D01*
X109778845Y-138700499D01*
X109933497Y-138669737D01*
X110079179Y-138609394D01*
X110210289Y-138521789D01*
X110321789Y-138410289D01*
X110409394Y-138279179D01*
X110469737Y-138133497D01*
X110500500Y-137978842D01*
X110500500Y-137821158D01*
X110500500Y-137821155D01*
X110500499Y-137821153D01*
X117699500Y-137821153D01*
X117699500Y-137978846D01*
X117730261Y-138133489D01*
X117730264Y-138133501D01*
X117790602Y-138279172D01*
X117790609Y-138279185D01*
X117878210Y-138410288D01*
X117878213Y-138410292D01*
X117989707Y-138521786D01*
X117989711Y-138521789D01*
X118120814Y-138609390D01*
X118120827Y-138609397D01*
X118266498Y-138669735D01*
X118266503Y-138669737D01*
X118421153Y-138700499D01*
X118421156Y-138700500D01*
X118421158Y-138700500D01*
X118578844Y-138700500D01*
X118578845Y-138700499D01*
X118733497Y-138669737D01*
X118879179Y-138609394D01*
X119010289Y-138521789D01*
X119121789Y-138410289D01*
X119209394Y-138279179D01*
X119269737Y-138133497D01*
X119300500Y-137978842D01*
X119300500Y-137821158D01*
X119300500Y-137821155D01*
X119300499Y-137821153D01*
X119269738Y-137666510D01*
X119269737Y-137666503D01*
X119269735Y-137666498D01*
X119209397Y-137520827D01*
X119209390Y-137520814D01*
X119121789Y-137389711D01*
X119121786Y-137389707D01*
X119010292Y-137278213D01*
X119010288Y-137278210D01*
X118879185Y-137190609D01*
X118879172Y-137190602D01*
X118733501Y-137130264D01*
X118733489Y-137130261D01*
X118578845Y-137099500D01*
X118578842Y-137099500D01*
X118421158Y-137099500D01*
X118421155Y-137099500D01*
X118266510Y-137130261D01*
X118266498Y-137130264D01*
X118120827Y-137190602D01*
X118120814Y-137190609D01*
X117989711Y-137278210D01*
X117989707Y-137278213D01*
X117878213Y-137389707D01*
X117878210Y-137389711D01*
X117790609Y-137520814D01*
X117790602Y-137520827D01*
X117730264Y-137666498D01*
X117730261Y-137666510D01*
X117699500Y-137821153D01*
X110500499Y-137821153D01*
X110469738Y-137666510D01*
X110469737Y-137666503D01*
X110469735Y-137666498D01*
X110409397Y-137520827D01*
X110409390Y-137520814D01*
X110321789Y-137389711D01*
X110321786Y-137389707D01*
X110210292Y-137278213D01*
X110210288Y-137278210D01*
X110079185Y-137190609D01*
X110079172Y-137190602D01*
X109933501Y-137130264D01*
X109933489Y-137130261D01*
X109778845Y-137099500D01*
X109778842Y-137099500D01*
X109621158Y-137099500D01*
X109621155Y-137099500D01*
X109466510Y-137130261D01*
X109466498Y-137130264D01*
X109320827Y-137190602D01*
X109320814Y-137190609D01*
X109189711Y-137278210D01*
X109189707Y-137278213D01*
X109078213Y-137389707D01*
X109078210Y-137389711D01*
X108990609Y-137520814D01*
X108990602Y-137520827D01*
X108930264Y-137666498D01*
X108930261Y-137666510D01*
X108899500Y-137821153D01*
X101500499Y-137821153D01*
X101469738Y-137666510D01*
X101469737Y-137666503D01*
X101469735Y-137666498D01*
X101409397Y-137520827D01*
X101409390Y-137520814D01*
X101321789Y-137389711D01*
X101321786Y-137389707D01*
X101210292Y-137278213D01*
X101210288Y-137278210D01*
X101079185Y-137190609D01*
X101079172Y-137190602D01*
X100933501Y-137130264D01*
X100933489Y-137130261D01*
X100778845Y-137099500D01*
X100778842Y-137099500D01*
X100621158Y-137099500D01*
X100621155Y-137099500D01*
X100466510Y-137130261D01*
X100466498Y-137130264D01*
X100320827Y-137190602D01*
X100320814Y-137190609D01*
X100189711Y-137278210D01*
X100189707Y-137278213D01*
X100078213Y-137389707D01*
X100078210Y-137389711D01*
X99990609Y-137520814D01*
X99990602Y-137520827D01*
X99930264Y-137666498D01*
X99930261Y-137666510D01*
X99899500Y-137821153D01*
X92500499Y-137821153D01*
X92469738Y-137666510D01*
X92469737Y-137666503D01*
X92469735Y-137666498D01*
X92409397Y-137520827D01*
X92409390Y-137520814D01*
X92321789Y-137389711D01*
X92321786Y-137389707D01*
X92210292Y-137278213D01*
X92210288Y-137278210D01*
X92079185Y-137190609D01*
X92079172Y-137190602D01*
X91933501Y-137130264D01*
X91933489Y-137130261D01*
X91778845Y-137099500D01*
X91778842Y-137099500D01*
X91621158Y-137099500D01*
X91621155Y-137099500D01*
X91466510Y-137130261D01*
X91466498Y-137130264D01*
X91320827Y-137190602D01*
X91320814Y-137190609D01*
X91189711Y-137278210D01*
X91189707Y-137278213D01*
X91078213Y-137389707D01*
X91078210Y-137389711D01*
X90990609Y-137520814D01*
X90990602Y-137520827D01*
X90930264Y-137666498D01*
X90930261Y-137666510D01*
X90899500Y-137821153D01*
X83500499Y-137821153D01*
X83469738Y-137666510D01*
X83469737Y-137666503D01*
X83469735Y-137666498D01*
X83409397Y-137520827D01*
X83409390Y-137520814D01*
X83321789Y-137389711D01*
X83321786Y-137389707D01*
X83210292Y-137278213D01*
X83210288Y-137278210D01*
X83079185Y-137190609D01*
X83079172Y-137190602D01*
X82933501Y-137130264D01*
X82933489Y-137130261D01*
X82778845Y-137099500D01*
X82778842Y-137099500D01*
X82621158Y-137099500D01*
X82621155Y-137099500D01*
X82466510Y-137130261D01*
X82466498Y-137130264D01*
X82320827Y-137190602D01*
X82320814Y-137190609D01*
X82189711Y-137278210D01*
X82189707Y-137278213D01*
X82078213Y-137389707D01*
X82078210Y-137389711D01*
X81990609Y-137520814D01*
X81990602Y-137520827D01*
X81930264Y-137666498D01*
X81930261Y-137666510D01*
X81899500Y-137821153D01*
X74400499Y-137821153D01*
X74369738Y-137666510D01*
X74369737Y-137666503D01*
X74369735Y-137666498D01*
X74309397Y-137520827D01*
X74309390Y-137520814D01*
X74221789Y-137389711D01*
X74221786Y-137389707D01*
X74110292Y-137278213D01*
X74110288Y-137278210D01*
X73979185Y-137190609D01*
X73979172Y-137190602D01*
X73833501Y-137130264D01*
X73833489Y-137130261D01*
X73678845Y-137099500D01*
X73678842Y-137099500D01*
X73521158Y-137099500D01*
X73521155Y-137099500D01*
X73366510Y-137130261D01*
X73366498Y-137130264D01*
X73220827Y-137190602D01*
X73220814Y-137190609D01*
X73089711Y-137278210D01*
X73089707Y-137278213D01*
X72978213Y-137389707D01*
X72978210Y-137389711D01*
X72890609Y-137520814D01*
X72890602Y-137520827D01*
X72830264Y-137666498D01*
X72830261Y-137666510D01*
X72799500Y-137821153D01*
X65700499Y-137821153D01*
X65669738Y-137666510D01*
X65669737Y-137666503D01*
X65669735Y-137666498D01*
X65609397Y-137520827D01*
X65609390Y-137520814D01*
X65521789Y-137389711D01*
X65521786Y-137389707D01*
X65410292Y-137278213D01*
X65410288Y-137278210D01*
X65279185Y-137190609D01*
X65279172Y-137190602D01*
X65133501Y-137130264D01*
X65133489Y-137130261D01*
X64978845Y-137099500D01*
X64978842Y-137099500D01*
X64821158Y-137099500D01*
X64821155Y-137099500D01*
X64666510Y-137130261D01*
X64666498Y-137130264D01*
X64520827Y-137190602D01*
X64520814Y-137190609D01*
X64389711Y-137278210D01*
X64389707Y-137278213D01*
X64278213Y-137389707D01*
X64278210Y-137389711D01*
X64190609Y-137520814D01*
X64190602Y-137520827D01*
X64130264Y-137666498D01*
X64130261Y-137666510D01*
X64099500Y-137821153D01*
X56700499Y-137821153D01*
X56669738Y-137666510D01*
X56669737Y-137666503D01*
X56669735Y-137666498D01*
X56609397Y-137520827D01*
X56609390Y-137520814D01*
X56521789Y-137389711D01*
X56521786Y-137389707D01*
X56410292Y-137278213D01*
X56410288Y-137278210D01*
X56279185Y-137190609D01*
X56279172Y-137190602D01*
X56133501Y-137130264D01*
X56133489Y-137130261D01*
X55978845Y-137099500D01*
X55978842Y-137099500D01*
X55821158Y-137099500D01*
X55821155Y-137099500D01*
X55666510Y-137130261D01*
X55666498Y-137130264D01*
X55520827Y-137190602D01*
X55520814Y-137190609D01*
X55389711Y-137278210D01*
X55389707Y-137278213D01*
X55278213Y-137389707D01*
X55278210Y-137389711D01*
X55190609Y-137520814D01*
X55190602Y-137520827D01*
X55130264Y-137666498D01*
X55130261Y-137666510D01*
X55099500Y-137821153D01*
X48100500Y-137821153D01*
X48100500Y-134746153D01*
X53262000Y-134746153D01*
X53262000Y-134903846D01*
X53292761Y-135058489D01*
X53292764Y-135058501D01*
X53353102Y-135204172D01*
X53353109Y-135204185D01*
X53440710Y-135335288D01*
X53440713Y-135335292D01*
X53552207Y-135446786D01*
X53552211Y-135446789D01*
X53683314Y-135534390D01*
X53683327Y-135534397D01*
X53828998Y-135594735D01*
X53829003Y-135594737D01*
X53983653Y-135625499D01*
X53983656Y-135625500D01*
X53983658Y-135625500D01*
X54141344Y-135625500D01*
X54141345Y-135625499D01*
X54295997Y-135594737D01*
X54441679Y-135534394D01*
X54572789Y-135446789D01*
X54684289Y-135335289D01*
X54771894Y-135204179D01*
X54832237Y-135058497D01*
X54863000Y-134903842D01*
X54863000Y-134746158D01*
X54863000Y-134746155D01*
X54862999Y-134746153D01*
X62262000Y-134746153D01*
X62262000Y-134903846D01*
X62292761Y-135058489D01*
X62292764Y-135058501D01*
X62353102Y-135204172D01*
X62353109Y-135204185D01*
X62440710Y-135335288D01*
X62440713Y-135335292D01*
X62552207Y-135446786D01*
X62552211Y-135446789D01*
X62683314Y-135534390D01*
X62683327Y-135534397D01*
X62828998Y-135594735D01*
X62829003Y-135594737D01*
X62983653Y-135625499D01*
X62983656Y-135625500D01*
X62983658Y-135625500D01*
X63141344Y-135625500D01*
X63141345Y-135625499D01*
X63295997Y-135594737D01*
X63441679Y-135534394D01*
X63572789Y-135446789D01*
X63684289Y-135335289D01*
X63771894Y-135204179D01*
X63832237Y-135058497D01*
X63863000Y-134903842D01*
X63863000Y-134746158D01*
X63863000Y-134746155D01*
X63862999Y-134746153D01*
X71262000Y-134746153D01*
X71262000Y-134903846D01*
X71292761Y-135058489D01*
X71292764Y-135058501D01*
X71353102Y-135204172D01*
X71353109Y-135204185D01*
X71440710Y-135335288D01*
X71440713Y-135335292D01*
X71552207Y-135446786D01*
X71552211Y-135446789D01*
X71683314Y-135534390D01*
X71683327Y-135534397D01*
X71828998Y-135594735D01*
X71829003Y-135594737D01*
X71983653Y-135625499D01*
X71983656Y-135625500D01*
X71983658Y-135625500D01*
X72141344Y-135625500D01*
X72141345Y-135625499D01*
X72295997Y-135594737D01*
X72441679Y-135534394D01*
X72572789Y-135446789D01*
X72684289Y-135335289D01*
X72771894Y-135204179D01*
X72832237Y-135058497D01*
X72863000Y-134903842D01*
X72863000Y-134746158D01*
X72863000Y-134746155D01*
X72862999Y-134746153D01*
X80262000Y-134746153D01*
X80262000Y-134903846D01*
X80292761Y-135058489D01*
X80292764Y-135058501D01*
X80353102Y-135204172D01*
X80353109Y-135204185D01*
X80440710Y-135335288D01*
X80440713Y-135335292D01*
X80552207Y-135446786D01*
X80552211Y-135446789D01*
X80683314Y-135534390D01*
X80683327Y-135534397D01*
X80828998Y-135594735D01*
X80829003Y-135594737D01*
X80983653Y-135625499D01*
X80983656Y-135625500D01*
X80983658Y-135625500D01*
X81141344Y-135625500D01*
X81141345Y-135625499D01*
X81295997Y-135594737D01*
X81441679Y-135534394D01*
X81572789Y-135446789D01*
X81684289Y-135335289D01*
X81771894Y-135204179D01*
X81832237Y-135058497D01*
X81863000Y-134903842D01*
X81863000Y-134746158D01*
X81863000Y-134746155D01*
X81862999Y-134746153D01*
X89262000Y-134746153D01*
X89262000Y-134903846D01*
X89292761Y-135058489D01*
X89292764Y-135058501D01*
X89353102Y-135204172D01*
X89353109Y-135204185D01*
X89440710Y-135335288D01*
X89440713Y-135335292D01*
X89552207Y-135446786D01*
X89552211Y-135446789D01*
X89683314Y-135534390D01*
X89683327Y-135534397D01*
X89828998Y-135594735D01*
X89829003Y-135594737D01*
X89983653Y-135625499D01*
X89983656Y-135625500D01*
X89983658Y-135625500D01*
X90141344Y-135625500D01*
X90141345Y-135625499D01*
X90295997Y-135594737D01*
X90441679Y-135534394D01*
X90572789Y-135446789D01*
X90684289Y-135335289D01*
X90771894Y-135204179D01*
X90832237Y-135058497D01*
X90863000Y-134903842D01*
X90863000Y-134746158D01*
X90863000Y-134746155D01*
X90862999Y-134746153D01*
X98262000Y-134746153D01*
X98262000Y-134903846D01*
X98292761Y-135058489D01*
X98292764Y-135058501D01*
X98353102Y-135204172D01*
X98353109Y-135204185D01*
X98440710Y-135335288D01*
X98440713Y-135335292D01*
X98552207Y-135446786D01*
X98552211Y-135446789D01*
X98683314Y-135534390D01*
X98683327Y-135534397D01*
X98828998Y-135594735D01*
X98829003Y-135594737D01*
X98983653Y-135625499D01*
X98983656Y-135625500D01*
X98983658Y-135625500D01*
X99141344Y-135625500D01*
X99141345Y-135625499D01*
X99295997Y-135594737D01*
X99441679Y-135534394D01*
X99572789Y-135446789D01*
X99684289Y-135335289D01*
X99771894Y-135204179D01*
X99832237Y-135058497D01*
X99863000Y-134903842D01*
X99863000Y-134746158D01*
X99863000Y-134746155D01*
X99862999Y-134746153D01*
X107262000Y-134746153D01*
X107262000Y-134903846D01*
X107292761Y-135058489D01*
X107292764Y-135058501D01*
X107353102Y-135204172D01*
X107353109Y-135204185D01*
X107440710Y-135335288D01*
X107440713Y-135335292D01*
X107552207Y-135446786D01*
X107552211Y-135446789D01*
X107683314Y-135534390D01*
X107683327Y-135534397D01*
X107828998Y-135594735D01*
X107829003Y-135594737D01*
X107983653Y-135625499D01*
X107983656Y-135625500D01*
X107983658Y-135625500D01*
X108141344Y-135625500D01*
X108141345Y-135625499D01*
X108295997Y-135594737D01*
X108441679Y-135534394D01*
X108572789Y-135446789D01*
X108684289Y-135335289D01*
X108771894Y-135204179D01*
X108832237Y-135058497D01*
X108863000Y-134903842D01*
X108863000Y-134746158D01*
X108863000Y-134746155D01*
X108862999Y-134746153D01*
X116262000Y-134746153D01*
X116262000Y-134903846D01*
X116292761Y-135058489D01*
X116292764Y-135058501D01*
X116353102Y-135204172D01*
X116353109Y-135204185D01*
X116440710Y-135335288D01*
X116440713Y-135335292D01*
X116552207Y-135446786D01*
X116552211Y-135446789D01*
X116683314Y-135534390D01*
X116683327Y-135534397D01*
X116828998Y-135594735D01*
X116829003Y-135594737D01*
X116983653Y-135625499D01*
X116983656Y-135625500D01*
X116983658Y-135625500D01*
X117141344Y-135625500D01*
X117141345Y-135625499D01*
X117295997Y-135594737D01*
X117441679Y-135534394D01*
X117572789Y-135446789D01*
X117684289Y-135335289D01*
X117771894Y-135204179D01*
X117832237Y-135058497D01*
X117863000Y-134903842D01*
X117863000Y-134746158D01*
X117863000Y-134746155D01*
X117862999Y-134746153D01*
X117832238Y-134591510D01*
X117832237Y-134591503D01*
X117832235Y-134591498D01*
X117771897Y-134445827D01*
X117771890Y-134445814D01*
X117684289Y-134314711D01*
X117684286Y-134314707D01*
X117572792Y-134203213D01*
X117572788Y-134203210D01*
X117441685Y-134115609D01*
X117441672Y-134115602D01*
X117296001Y-134055264D01*
X117295989Y-134055261D01*
X117141345Y-134024500D01*
X117141342Y-134024500D01*
X116983658Y-134024500D01*
X116983655Y-134024500D01*
X116829010Y-134055261D01*
X116828998Y-134055264D01*
X116683327Y-134115602D01*
X116683314Y-134115609D01*
X116552211Y-134203210D01*
X116552207Y-134203213D01*
X116440713Y-134314707D01*
X116440710Y-134314711D01*
X116353109Y-134445814D01*
X116353102Y-134445827D01*
X116292764Y-134591498D01*
X116292761Y-134591510D01*
X116262000Y-134746153D01*
X108862999Y-134746153D01*
X108832238Y-134591510D01*
X108832237Y-134591503D01*
X108832235Y-134591498D01*
X108771897Y-134445827D01*
X108771890Y-134445814D01*
X108684289Y-134314711D01*
X108684286Y-134314707D01*
X108572792Y-134203213D01*
X108572788Y-134203210D01*
X108441685Y-134115609D01*
X108441672Y-134115602D01*
X108296001Y-134055264D01*
X108295989Y-134055261D01*
X108141345Y-134024500D01*
X108141342Y-134024500D01*
X107983658Y-134024500D01*
X107983655Y-134024500D01*
X107829010Y-134055261D01*
X107828998Y-134055264D01*
X107683327Y-134115602D01*
X107683314Y-134115609D01*
X107552211Y-134203210D01*
X107552207Y-134203213D01*
X107440713Y-134314707D01*
X107440710Y-134314711D01*
X107353109Y-134445814D01*
X107353102Y-134445827D01*
X107292764Y-134591498D01*
X107292761Y-134591510D01*
X107262000Y-134746153D01*
X99862999Y-134746153D01*
X99832238Y-134591510D01*
X99832237Y-134591503D01*
X99832235Y-134591498D01*
X99771897Y-134445827D01*
X99771890Y-134445814D01*
X99684289Y-134314711D01*
X99684286Y-134314707D01*
X99572792Y-134203213D01*
X99572788Y-134203210D01*
X99441685Y-134115609D01*
X99441672Y-134115602D01*
X99296001Y-134055264D01*
X99295989Y-134055261D01*
X99141345Y-134024500D01*
X99141342Y-134024500D01*
X98983658Y-134024500D01*
X98983655Y-134024500D01*
X98829010Y-134055261D01*
X98828998Y-134055264D01*
X98683327Y-134115602D01*
X98683314Y-134115609D01*
X98552211Y-134203210D01*
X98552207Y-134203213D01*
X98440713Y-134314707D01*
X98440710Y-134314711D01*
X98353109Y-134445814D01*
X98353102Y-134445827D01*
X98292764Y-134591498D01*
X98292761Y-134591510D01*
X98262000Y-134746153D01*
X90862999Y-134746153D01*
X90832238Y-134591510D01*
X90832237Y-134591503D01*
X90832235Y-134591498D01*
X90771897Y-134445827D01*
X90771890Y-134445814D01*
X90684289Y-134314711D01*
X90684286Y-134314707D01*
X90572792Y-134203213D01*
X90572788Y-134203210D01*
X90441685Y-134115609D01*
X90441672Y-134115602D01*
X90296001Y-134055264D01*
X90295989Y-134055261D01*
X90141345Y-134024500D01*
X90141342Y-134024500D01*
X89983658Y-134024500D01*
X89983655Y-134024500D01*
X89829010Y-134055261D01*
X89828998Y-134055264D01*
X89683327Y-134115602D01*
X89683314Y-134115609D01*
X89552211Y-134203210D01*
X89552207Y-134203213D01*
X89440713Y-134314707D01*
X89440710Y-134314711D01*
X89353109Y-134445814D01*
X89353102Y-134445827D01*
X89292764Y-134591498D01*
X89292761Y-134591510D01*
X89262000Y-134746153D01*
X81862999Y-134746153D01*
X81832238Y-134591510D01*
X81832237Y-134591503D01*
X81832235Y-134591498D01*
X81771897Y-134445827D01*
X81771890Y-134445814D01*
X81684289Y-134314711D01*
X81684286Y-134314707D01*
X81572792Y-134203213D01*
X81572788Y-134203210D01*
X81441685Y-134115609D01*
X81441672Y-134115602D01*
X81296001Y-134055264D01*
X81295989Y-134055261D01*
X81141345Y-134024500D01*
X81141342Y-134024500D01*
X80983658Y-134024500D01*
X80983655Y-134024500D01*
X80829010Y-134055261D01*
X80828998Y-134055264D01*
X80683327Y-134115602D01*
X80683314Y-134115609D01*
X80552211Y-134203210D01*
X80552207Y-134203213D01*
X80440713Y-134314707D01*
X80440710Y-134314711D01*
X80353109Y-134445814D01*
X80353102Y-134445827D01*
X80292764Y-134591498D01*
X80292761Y-134591510D01*
X80262000Y-134746153D01*
X72862999Y-134746153D01*
X72832238Y-134591510D01*
X72832237Y-134591503D01*
X72832235Y-134591498D01*
X72771897Y-134445827D01*
X72771890Y-134445814D01*
X72684289Y-134314711D01*
X72684286Y-134314707D01*
X72572792Y-134203213D01*
X72572788Y-134203210D01*
X72441685Y-134115609D01*
X72441672Y-134115602D01*
X72296001Y-134055264D01*
X72295989Y-134055261D01*
X72141345Y-134024500D01*
X72141342Y-134024500D01*
X71983658Y-134024500D01*
X71983655Y-134024500D01*
X71829010Y-134055261D01*
X71828998Y-134055264D01*
X71683327Y-134115602D01*
X71683314Y-134115609D01*
X71552211Y-134203210D01*
X71552207Y-134203213D01*
X71440713Y-134314707D01*
X71440710Y-134314711D01*
X71353109Y-134445814D01*
X71353102Y-134445827D01*
X71292764Y-134591498D01*
X71292761Y-134591510D01*
X71262000Y-134746153D01*
X63862999Y-134746153D01*
X63832238Y-134591510D01*
X63832237Y-134591503D01*
X63832235Y-134591498D01*
X63771897Y-134445827D01*
X63771890Y-134445814D01*
X63684289Y-134314711D01*
X63684286Y-134314707D01*
X63572792Y-134203213D01*
X63572788Y-134203210D01*
X63441685Y-134115609D01*
X63441672Y-134115602D01*
X63296001Y-134055264D01*
X63295989Y-134055261D01*
X63141345Y-134024500D01*
X63141342Y-134024500D01*
X62983658Y-134024500D01*
X62983655Y-134024500D01*
X62829010Y-134055261D01*
X62828998Y-134055264D01*
X62683327Y-134115602D01*
X62683314Y-134115609D01*
X62552211Y-134203210D01*
X62552207Y-134203213D01*
X62440713Y-134314707D01*
X62440710Y-134314711D01*
X62353109Y-134445814D01*
X62353102Y-134445827D01*
X62292764Y-134591498D01*
X62292761Y-134591510D01*
X62262000Y-134746153D01*
X54862999Y-134746153D01*
X54832238Y-134591510D01*
X54832237Y-134591503D01*
X54832235Y-134591498D01*
X54771897Y-134445827D01*
X54771890Y-134445814D01*
X54684289Y-134314711D01*
X54684286Y-134314707D01*
X54572792Y-134203213D01*
X54572788Y-134203210D01*
X54441685Y-134115609D01*
X54441672Y-134115602D01*
X54296001Y-134055264D01*
X54295989Y-134055261D01*
X54141345Y-134024500D01*
X54141342Y-134024500D01*
X53983658Y-134024500D01*
X53983655Y-134024500D01*
X53829010Y-134055261D01*
X53828998Y-134055264D01*
X53683327Y-134115602D01*
X53683314Y-134115609D01*
X53552211Y-134203210D01*
X53552207Y-134203213D01*
X53440713Y-134314707D01*
X53440710Y-134314711D01*
X53353109Y-134445814D01*
X53353102Y-134445827D01*
X53292764Y-134591498D01*
X53292761Y-134591510D01*
X53262000Y-134746153D01*
X48100500Y-134746153D01*
X48100500Y-132921153D01*
X57899500Y-132921153D01*
X57899500Y-133078846D01*
X57930261Y-133233489D01*
X57930264Y-133233501D01*
X57990602Y-133379172D01*
X57990609Y-133379185D01*
X58078210Y-133510288D01*
X58078213Y-133510292D01*
X58189707Y-133621786D01*
X58189711Y-133621789D01*
X58320814Y-133709390D01*
X58320827Y-133709397D01*
X58466498Y-133769735D01*
X58466503Y-133769737D01*
X58621153Y-133800499D01*
X58621156Y-133800500D01*
X58621158Y-133800500D01*
X58778844Y-133800500D01*
X58778845Y-133800499D01*
X58933497Y-133769737D01*
X59079179Y-133709394D01*
X59210289Y-133621789D01*
X59321789Y-133510289D01*
X59409394Y-133379179D01*
X59469737Y-133233497D01*
X59500500Y-133078842D01*
X59500500Y-132921158D01*
X59500500Y-132921155D01*
X59500499Y-132921153D01*
X66799500Y-132921153D01*
X66799500Y-133078846D01*
X66830261Y-133233489D01*
X66830264Y-133233501D01*
X66890602Y-133379172D01*
X66890609Y-133379185D01*
X66978210Y-133510288D01*
X66978213Y-133510292D01*
X67089707Y-133621786D01*
X67089711Y-133621789D01*
X67220814Y-133709390D01*
X67220827Y-133709397D01*
X67366498Y-133769735D01*
X67366503Y-133769737D01*
X67521153Y-133800499D01*
X67521156Y-133800500D01*
X67521158Y-133800500D01*
X67678844Y-133800500D01*
X67678845Y-133800499D01*
X67833497Y-133769737D01*
X67979179Y-133709394D01*
X68110289Y-133621789D01*
X68221789Y-133510289D01*
X68309394Y-133379179D01*
X68369737Y-133233497D01*
X68400500Y-133078842D01*
X68400500Y-132921158D01*
X68400500Y-132921155D01*
X68400499Y-132921153D01*
X75799500Y-132921153D01*
X75799500Y-133078846D01*
X75830261Y-133233489D01*
X75830264Y-133233501D01*
X75890602Y-133379172D01*
X75890609Y-133379185D01*
X75978210Y-133510288D01*
X75978213Y-133510292D01*
X76089707Y-133621786D01*
X76089711Y-133621789D01*
X76220814Y-133709390D01*
X76220827Y-133709397D01*
X76366498Y-133769735D01*
X76366503Y-133769737D01*
X76521153Y-133800499D01*
X76521156Y-133800500D01*
X76521158Y-133800500D01*
X76678844Y-133800500D01*
X76678845Y-133800499D01*
X76833497Y-133769737D01*
X76979179Y-133709394D01*
X77110289Y-133621789D01*
X77221789Y-133510289D01*
X77309394Y-133379179D01*
X77369737Y-133233497D01*
X77400500Y-133078842D01*
X77400500Y-132921158D01*
X77400500Y-132921155D01*
X77400499Y-132921153D01*
X84899500Y-132921153D01*
X84899500Y-133078846D01*
X84930261Y-133233489D01*
X84930264Y-133233501D01*
X84990602Y-133379172D01*
X84990609Y-133379185D01*
X85078210Y-133510288D01*
X85078213Y-133510292D01*
X85189707Y-133621786D01*
X85189711Y-133621789D01*
X85320814Y-133709390D01*
X85320827Y-133709397D01*
X85466498Y-133769735D01*
X85466503Y-133769737D01*
X85621153Y-133800499D01*
X85621156Y-133800500D01*
X85621158Y-133800500D01*
X85778844Y-133800500D01*
X85778845Y-133800499D01*
X85933497Y-133769737D01*
X86079179Y-133709394D01*
X86210289Y-133621789D01*
X86321789Y-133510289D01*
X86409394Y-133379179D01*
X86469737Y-133233497D01*
X86500500Y-133078842D01*
X86500500Y-132921158D01*
X86500500Y-132921155D01*
X86500499Y-132921153D01*
X93799500Y-132921153D01*
X93799500Y-133078846D01*
X93830261Y-133233489D01*
X93830264Y-133233501D01*
X93890602Y-133379172D01*
X93890609Y-133379185D01*
X93978210Y-133510288D01*
X93978213Y-133510292D01*
X94089707Y-133621786D01*
X94089711Y-133621789D01*
X94220814Y-133709390D01*
X94220827Y-133709397D01*
X94366498Y-133769735D01*
X94366503Y-133769737D01*
X94521153Y-133800499D01*
X94521156Y-133800500D01*
X94521158Y-133800500D01*
X94678844Y-133800500D01*
X94678845Y-133800499D01*
X94833497Y-133769737D01*
X94979179Y-133709394D01*
X95110289Y-133621789D01*
X95221789Y-133510289D01*
X95309394Y-133379179D01*
X95369737Y-133233497D01*
X95400500Y-133078842D01*
X95400500Y-132921158D01*
X95400500Y-132921155D01*
X95400499Y-132921153D01*
X102799500Y-132921153D01*
X102799500Y-133078846D01*
X102830261Y-133233489D01*
X102830264Y-133233501D01*
X102890602Y-133379172D01*
X102890609Y-133379185D01*
X102978210Y-133510288D01*
X102978213Y-133510292D01*
X103089707Y-133621786D01*
X103089711Y-133621789D01*
X103220814Y-133709390D01*
X103220827Y-133709397D01*
X103366498Y-133769735D01*
X103366503Y-133769737D01*
X103521153Y-133800499D01*
X103521156Y-133800500D01*
X103521158Y-133800500D01*
X103678844Y-133800500D01*
X103678845Y-133800499D01*
X103833497Y-133769737D01*
X103979179Y-133709394D01*
X104110289Y-133621789D01*
X104221789Y-133510289D01*
X104309394Y-133379179D01*
X104369737Y-133233497D01*
X104400500Y-133078842D01*
X104400500Y-132921158D01*
X104400500Y-132921155D01*
X104400499Y-132921153D01*
X111799500Y-132921153D01*
X111799500Y-133078846D01*
X111830261Y-133233489D01*
X111830264Y-133233501D01*
X111890602Y-133379172D01*
X111890609Y-133379185D01*
X111978210Y-133510288D01*
X111978213Y-133510292D01*
X112089707Y-133621786D01*
X112089711Y-133621789D01*
X112220814Y-133709390D01*
X112220827Y-133709397D01*
X112366498Y-133769735D01*
X112366503Y-133769737D01*
X112521153Y-133800499D01*
X112521156Y-133800500D01*
X112521158Y-133800500D01*
X112678844Y-133800500D01*
X112678845Y-133800499D01*
X112833497Y-133769737D01*
X112979179Y-133709394D01*
X113110289Y-133621789D01*
X113221789Y-133510289D01*
X113309394Y-133379179D01*
X113369737Y-133233497D01*
X113400500Y-133078842D01*
X113400500Y-132921158D01*
X113400500Y-132921155D01*
X113400499Y-132921153D01*
X113369738Y-132766510D01*
X113369737Y-132766503D01*
X113369735Y-132766498D01*
X113309397Y-132620827D01*
X113309390Y-132620814D01*
X113221789Y-132489711D01*
X113221786Y-132489707D01*
X113110292Y-132378213D01*
X113110288Y-132378210D01*
X112979185Y-132290609D01*
X112979172Y-132290602D01*
X112833501Y-132230264D01*
X112833489Y-132230261D01*
X112678845Y-132199500D01*
X112678842Y-132199500D01*
X112521158Y-132199500D01*
X112521155Y-132199500D01*
X112366510Y-132230261D01*
X112366498Y-132230264D01*
X112220827Y-132290602D01*
X112220814Y-132290609D01*
X112089711Y-132378210D01*
X112089707Y-132378213D01*
X111978213Y-132489707D01*
X111978210Y-132489711D01*
X111890609Y-132620814D01*
X111890602Y-132620827D01*
X111830264Y-132766498D01*
X111830261Y-132766510D01*
X111799500Y-132921153D01*
X104400499Y-132921153D01*
X104369738Y-132766510D01*
X104369737Y-132766503D01*
X104369735Y-132766498D01*
X104309397Y-132620827D01*
X104309390Y-132620814D01*
X104221789Y-132489711D01*
X104221786Y-132489707D01*
X104110292Y-132378213D01*
X104110288Y-132378210D01*
X103979185Y-132290609D01*
X103979172Y-132290602D01*
X103833501Y-132230264D01*
X103833489Y-132230261D01*
X103678845Y-132199500D01*
X103678842Y-132199500D01*
X103521158Y-132199500D01*
X103521155Y-132199500D01*
X103366510Y-132230261D01*
X103366498Y-132230264D01*
X103220827Y-132290602D01*
X103220814Y-132290609D01*
X103089711Y-132378210D01*
X103089707Y-132378213D01*
X102978213Y-132489707D01*
X102978210Y-132489711D01*
X102890609Y-132620814D01*
X102890602Y-132620827D01*
X102830264Y-132766498D01*
X102830261Y-132766510D01*
X102799500Y-132921153D01*
X95400499Y-132921153D01*
X95369738Y-132766510D01*
X95369737Y-132766503D01*
X95369735Y-132766498D01*
X95309397Y-132620827D01*
X95309390Y-132620814D01*
X95221789Y-132489711D01*
X95221786Y-132489707D01*
X95110292Y-132378213D01*
X95110288Y-132378210D01*
X94979185Y-132290609D01*
X94979172Y-132290602D01*
X94833501Y-132230264D01*
X94833489Y-132230261D01*
X94678845Y-132199500D01*
X94678842Y-132199500D01*
X94521158Y-132199500D01*
X94521155Y-132199500D01*
X94366510Y-132230261D01*
X94366498Y-132230264D01*
X94220827Y-132290602D01*
X94220814Y-132290609D01*
X94089711Y-132378210D01*
X94089707Y-132378213D01*
X93978213Y-132489707D01*
X93978210Y-132489711D01*
X93890609Y-132620814D01*
X93890602Y-132620827D01*
X93830264Y-132766498D01*
X93830261Y-132766510D01*
X93799500Y-132921153D01*
X86500499Y-132921153D01*
X86469738Y-132766510D01*
X86469737Y-132766503D01*
X86469735Y-132766498D01*
X86409397Y-132620827D01*
X86409390Y-132620814D01*
X86321789Y-132489711D01*
X86321786Y-132489707D01*
X86210292Y-132378213D01*
X86210288Y-132378210D01*
X86079185Y-132290609D01*
X86079172Y-132290602D01*
X85933501Y-132230264D01*
X85933489Y-132230261D01*
X85778845Y-132199500D01*
X85778842Y-132199500D01*
X85621158Y-132199500D01*
X85621155Y-132199500D01*
X85466510Y-132230261D01*
X85466498Y-132230264D01*
X85320827Y-132290602D01*
X85320814Y-132290609D01*
X85189711Y-132378210D01*
X85189707Y-132378213D01*
X85078213Y-132489707D01*
X85078210Y-132489711D01*
X84990609Y-132620814D01*
X84990602Y-132620827D01*
X84930264Y-132766498D01*
X84930261Y-132766510D01*
X84899500Y-132921153D01*
X77400499Y-132921153D01*
X77369738Y-132766510D01*
X77369737Y-132766503D01*
X77369735Y-132766498D01*
X77309397Y-132620827D01*
X77309390Y-132620814D01*
X77221789Y-132489711D01*
X77221786Y-132489707D01*
X77110292Y-132378213D01*
X77110288Y-132378210D01*
X76979185Y-132290609D01*
X76979172Y-132290602D01*
X76833501Y-132230264D01*
X76833489Y-132230261D01*
X76678845Y-132199500D01*
X76678842Y-132199500D01*
X76521158Y-132199500D01*
X76521155Y-132199500D01*
X76366510Y-132230261D01*
X76366498Y-132230264D01*
X76220827Y-132290602D01*
X76220814Y-132290609D01*
X76089711Y-132378210D01*
X76089707Y-132378213D01*
X75978213Y-132489707D01*
X75978210Y-132489711D01*
X75890609Y-132620814D01*
X75890602Y-132620827D01*
X75830264Y-132766498D01*
X75830261Y-132766510D01*
X75799500Y-132921153D01*
X68400499Y-132921153D01*
X68369738Y-132766510D01*
X68369737Y-132766503D01*
X68369735Y-132766498D01*
X68309397Y-132620827D01*
X68309390Y-132620814D01*
X68221789Y-132489711D01*
X68221786Y-132489707D01*
X68110292Y-132378213D01*
X68110288Y-132378210D01*
X67979185Y-132290609D01*
X67979172Y-132290602D01*
X67833501Y-132230264D01*
X67833489Y-132230261D01*
X67678845Y-132199500D01*
X67678842Y-132199500D01*
X67521158Y-132199500D01*
X67521155Y-132199500D01*
X67366510Y-132230261D01*
X67366498Y-132230264D01*
X67220827Y-132290602D01*
X67220814Y-132290609D01*
X67089711Y-132378210D01*
X67089707Y-132378213D01*
X66978213Y-132489707D01*
X66978210Y-132489711D01*
X66890609Y-132620814D01*
X66890602Y-132620827D01*
X66830264Y-132766498D01*
X66830261Y-132766510D01*
X66799500Y-132921153D01*
X59500499Y-132921153D01*
X59469738Y-132766510D01*
X59469737Y-132766503D01*
X59469735Y-132766498D01*
X59409397Y-132620827D01*
X59409390Y-132620814D01*
X59321789Y-132489711D01*
X59321786Y-132489707D01*
X59210292Y-132378213D01*
X59210288Y-132378210D01*
X59079185Y-132290609D01*
X59079172Y-132290602D01*
X58933501Y-132230264D01*
X58933489Y-132230261D01*
X58778845Y-132199500D01*
X58778842Y-132199500D01*
X58621158Y-132199500D01*
X58621155Y-132199500D01*
X58466510Y-132230261D01*
X58466498Y-132230264D01*
X58320827Y-132290602D01*
X58320814Y-132290609D01*
X58189711Y-132378210D01*
X58189707Y-132378213D01*
X58078213Y-132489707D01*
X58078210Y-132489711D01*
X57990609Y-132620814D01*
X57990602Y-132620827D01*
X57930264Y-132766498D01*
X57930261Y-132766510D01*
X57899500Y-132921153D01*
X48100500Y-132921153D01*
X48100500Y-131631941D01*
X48120185Y-131564902D01*
X48172989Y-131519147D01*
X48242147Y-131509203D01*
X48305703Y-131538228D01*
X48312181Y-131544260D01*
X48389707Y-131621786D01*
X48389711Y-131621789D01*
X48520814Y-131709390D01*
X48520827Y-131709397D01*
X48666498Y-131769735D01*
X48666503Y-131769737D01*
X48821153Y-131800499D01*
X48821156Y-131800500D01*
X48821158Y-131800500D01*
X48978844Y-131800500D01*
X48978845Y-131800499D01*
X49133497Y-131769737D01*
X49279179Y-131709394D01*
X49410289Y-131621789D01*
X49521789Y-131510289D01*
X49609394Y-131379179D01*
X49611022Y-131375250D01*
X49669735Y-131233501D01*
X49669737Y-131233497D01*
X49700500Y-131078842D01*
X49700500Y-130921158D01*
X49700500Y-130921155D01*
X49700499Y-130921153D01*
X49669738Y-130766510D01*
X49669737Y-130766503D01*
X49635712Y-130684359D01*
X49609397Y-130620827D01*
X49609390Y-130620814D01*
X49588448Y-130589472D01*
X49546483Y-130526668D01*
X52193985Y-130526668D01*
X52193985Y-130684361D01*
X52224746Y-130839004D01*
X52224749Y-130839016D01*
X52285087Y-130984687D01*
X52285094Y-130984700D01*
X52372695Y-131115803D01*
X52372698Y-131115807D01*
X52484192Y-131227301D01*
X52484196Y-131227304D01*
X52615299Y-131314905D01*
X52615312Y-131314912D01*
X52760983Y-131375250D01*
X52760988Y-131375252D01*
X52915638Y-131406014D01*
X52915641Y-131406015D01*
X52915643Y-131406015D01*
X53073329Y-131406015D01*
X53073330Y-131406014D01*
X53227982Y-131375252D01*
X53373664Y-131314909D01*
X53504774Y-131227304D01*
X53616274Y-131115804D01*
X53703879Y-130984694D01*
X53764222Y-130839012D01*
X53794985Y-130684357D01*
X53794985Y-130526673D01*
X53794985Y-130526670D01*
X53794984Y-130526668D01*
X53765454Y-130378213D01*
X53764222Y-130372018D01*
X53730502Y-130290609D01*
X53703882Y-130226342D01*
X53703875Y-130226329D01*
X53616274Y-130095226D01*
X53616271Y-130095222D01*
X53504777Y-129983728D01*
X53504773Y-129983725D01*
X53373670Y-129896124D01*
X53373657Y-129896117D01*
X53227986Y-129835779D01*
X53227974Y-129835776D01*
X53073330Y-129805015D01*
X53073327Y-129805015D01*
X52915643Y-129805015D01*
X52915640Y-129805015D01*
X52760995Y-129835776D01*
X52760983Y-129835779D01*
X52615312Y-129896117D01*
X52615299Y-129896124D01*
X52484196Y-129983725D01*
X52484192Y-129983728D01*
X52372698Y-130095222D01*
X52372695Y-130095226D01*
X52285094Y-130226329D01*
X52285087Y-130226342D01*
X52224749Y-130372013D01*
X52224746Y-130372025D01*
X52193985Y-130526668D01*
X49546483Y-130526668D01*
X49521789Y-130489711D01*
X49521786Y-130489707D01*
X49410292Y-130378213D01*
X49410288Y-130378210D01*
X49279185Y-130290609D01*
X49279172Y-130290602D01*
X49133501Y-130230264D01*
X49133489Y-130230261D01*
X48978845Y-130199500D01*
X48978842Y-130199500D01*
X48821158Y-130199500D01*
X48821155Y-130199500D01*
X48666510Y-130230261D01*
X48666498Y-130230264D01*
X48520827Y-130290602D01*
X48520814Y-130290609D01*
X48389711Y-130378210D01*
X48389707Y-130378213D01*
X48312181Y-130455740D01*
X48250858Y-130489225D01*
X48181166Y-130484241D01*
X48125233Y-130442369D01*
X48100816Y-130376905D01*
X48100500Y-130368059D01*
X48100500Y-124624500D01*
X48120185Y-124557461D01*
X48172989Y-124511706D01*
X48224500Y-124500500D01*
X55286608Y-124500500D01*
X55353647Y-124520185D01*
G37*
%TD.AperFunction*%
%TD*%
M02*
