M48
; DRILL file {KiCad 9.0.7} date 2026-02-25T14:15:14+0100
; FORMAT={-:-/ absolute / inch / decimal}
; #@! TF.CreationDate,2026-02-25T14:15:14+01:00
; #@! TF.GenerationSoftware,Kicad,Pcbnew,9.0.7
; #@! TF.FileFunction,Plated,1,6,PTH
FMAT,2
INCH
; #@! TA.AperFunction,Plated,PTH,ViaDrill
T1C0.0118
; #@! TA.AperFunction,Plated,PTH,ViaDrill
T2C0.0197
; #@! TA.AperFunction,Plated,PTH,ComponentDrill
T3C0.0236
; #@! TA.AperFunction,Plated,PTH,ComponentDrill
T4C0.0374
; #@! TA.AperFunction,Plated,PTH,ComponentDrill
T5C0.0394
%
G90
G05
T1
X2.6732Y-1.4213
X2.6732Y-1.8543
X2.6732Y-2.2874
X2.6732Y-2.7205
X2.6732Y-3.1535
X2.6732Y-3.5866
X2.6732Y-4.0197
X2.6732Y-4.4528
X2.7362Y-1.3356
X2.7362Y-1.7687
X2.7362Y-2.2017
X2.7362Y-2.6348
X2.7362Y-3.0679
X2.7362Y-3.5009
X2.7362Y-3.934
X2.7362Y-4.3671
X2.7397Y-1.5354
X2.7397Y-1.9685
X2.7397Y-2.4015
X2.7397Y-2.8346
X2.7397Y-3.2677
X2.7397Y-3.7007
X2.7397Y-4.1338
X2.7397Y-4.5669
X2.7402Y-1.6339
X2.7402Y-2.0669
X2.7402Y-2.5
X2.7402Y-2.9331
X2.7402Y-3.3661
X2.7402Y-3.7992
X2.7402Y-4.2323
X2.7402Y-4.6654
X2.7756Y-1.4409
X2.7835Y-1.874
X2.7835Y-2.3071
X2.7835Y-2.7441
X2.7835Y-3.1772
X2.7835Y-3.6102
X2.7835Y-4.0394
X2.7835Y-4.4764
X2.9803Y-1.4331
X2.9803Y-1.4803
X2.9803Y-1.8661
X2.9803Y-1.9134
X2.9803Y-2.2992
X2.9803Y-2.3465
X2.9803Y-2.7323
X2.9803Y-2.7795
X2.9803Y-3.1654
X2.9803Y-3.2126
X2.9803Y-3.5984
X2.9803Y-3.6457
X2.9803Y-4.0315
X2.9803Y-4.0787
X2.9803Y-4.4646
X2.9803Y-4.5118
X3.0591Y-1.563
X3.0591Y-1.9961
X3.0591Y-2.4291
X3.0591Y-2.8622
X3.0591Y-3.2953
X3.0591Y-3.7283
X3.0591Y-4.1614
X3.0591Y-4.5945
X3.0748Y-1.3937
X3.0748Y-1.8268
X3.0748Y-2.2598
X3.0748Y-2.6929
X3.0748Y-3.126
X3.0748Y-3.5591
X3.0748Y-3.9921
X3.0748Y-4.4252
X3.1392Y-1.7033
X3.1392Y-2.1364
X3.1392Y-2.5695
X3.1392Y-3.0025
X3.1392Y-3.4356
X3.1392Y-3.8687
X3.1392Y-4.3017
X3.1392Y-4.7348
X3.1772Y-1.5591
X3.1772Y-1.9921
X3.1772Y-2.4252
X3.1772Y-2.8583
X3.1772Y-3.2913
X3.1772Y-3.7244
X3.1772Y-4.1575
X3.1772Y-4.5906
X3.3189Y-1.3701
X3.3228Y-1.5512
X3.3228Y-1.7923
X3.3228Y-1.9843
X3.3228Y-2.2254
X3.3228Y-2.4173
X3.3228Y-2.6614
X3.3228Y-2.8504
X3.3228Y-3.0945
X3.3228Y-3.2835
X3.3228Y-3.7165
X3.3228Y-3.9606
X3.3228Y-4.1496
X3.3228Y-4.3937
X3.3228Y-4.5827
X3.3268Y-3.5246
X3.3425Y-1.4488
X3.3425Y-1.8425
X3.3425Y-1.8819
X3.3425Y-2.315
X3.3425Y-2.748
X3.3425Y-3.1811
X3.3425Y-3.6142
X3.3425Y-4.0472
X3.3425Y-4.4803
X3.3465Y-1.4094
X3.3465Y-2.2756
X3.3465Y-2.7087
X3.3465Y-3.1417
X3.3465Y-3.5748
X3.3465Y-4.0079
X3.3465Y-4.4409
X3.3701Y-1.5945
X3.374Y-2.0354
X3.374Y-2.4646
X3.378Y-2.8976
X3.378Y-3.3307
X3.378Y-3.7638
X3.378Y-4.1969
X3.378Y-4.6299
X3.4213Y-1.6535
X3.4213Y-2.0866
X3.4213Y-2.5197
X3.4213Y-2.9528
X3.4213Y-3.3858
X3.4213Y-3.8189
X3.4213Y-4.252
X3.4213Y-4.685
X3.5236Y-1.5551
X3.5236Y-1.9882
X3.5236Y-2.4213
X3.5236Y-2.8543
X3.5236Y-3.2874
X3.5236Y-3.7205
X3.5236Y-4.1535
X3.5236Y-4.5866
X3.6063Y-1.5551
X3.6063Y-1.9882
X3.6063Y-2.4213
X3.6063Y-2.8543
X3.6063Y-3.2874
X3.6063Y-3.7205
X3.6063Y-4.1535
X3.6063Y-4.5866
X3.7441Y-1.5827
X3.7441Y-2.0157
X3.7441Y-2.4488
X3.7441Y-2.8819
X3.7441Y-3.315
X3.7441Y-3.748
X3.7441Y-4.1811
X3.7441Y-4.6142
X3.7795Y-1.4488
X3.7795Y-1.8819
X3.7795Y-2.315
X3.7795Y-2.748
X3.7795Y-3.1811
X3.7795Y-3.6142
X3.7795Y-4.0472
X3.7795Y-4.4803
X3.7815Y-2.0531
X3.7835Y-1.626
X3.7835Y-2.4803
X3.7835Y-2.9213
X3.7835Y-3.3504
X3.7835Y-3.7913
X3.7835Y-4.2205
X3.7835Y-4.6535
X3.7874Y-1.3307
X3.7874Y-2.2047
X3.7874Y-2.6339
X3.7874Y-3.937
X3.7874Y-4.3701
X3.7913Y-3.0669
X3.7913Y-3.5039
X3.7953Y-1.7992
X3.8031Y-1.5551
X3.8031Y-1.9882
X3.8031Y-2.4213
X3.8031Y-2.8543
X3.8031Y-3.2874
X3.8031Y-3.7205
X3.8031Y-4.1535
X3.8031Y-4.5866
X3.8583Y-1.6535
X3.8583Y-2.0866
X3.8583Y-2.5197
X3.8583Y-2.9528
X3.8583Y-3.3858
X3.8583Y-3.8189
X3.8583Y-4.252
X3.8583Y-4.685
X3.9685Y-1.4803
X3.9685Y-1.9134
X3.9685Y-2.3465
X3.9685Y-2.7795
X3.9685Y-3.2126
X3.9685Y-3.6457
X3.9685Y-4.0787
X3.9685Y-4.5118
X4.0394Y-4.5472
X4.0433Y-1.9961
X4.0433Y-2.4291
X4.0433Y-2.8622
X4.0433Y-3.2953
X4.0472Y-3.685
X4.0472Y-4.1142
X4.0945Y-1.9961
X4.1102Y-2.4488
X4.126Y-2.8622
X4.1417Y-3.2953
X4.1537Y-3.622
X4.1826Y-3.6096
X4.2165Y-3.5984
X4.2323Y-3.0315
X4.248Y-2.5787
X4.25Y-1.6358
X4.2795Y-1.3189
X4.2992Y-4.7244
X4.3504Y-1.4449
X4.3504Y-1.9173
X4.3504Y-2.3898
X4.3504Y-2.8622
X4.3504Y-3.3346
X4.3504Y-3.811
X4.3504Y-4.0079
X4.3504Y-4.122
X4.3583Y-4.6024
X4.3819Y-4.2126
X4.4094Y-1.6575
X4.4134Y-3.0591
X4.4173Y-2.6024
X4.4449Y-1.3189
X4.5079Y-4.6024
X4.5157Y-1.4449
X4.5157Y-1.9173
X4.5157Y-2.3898
X4.5157Y-2.8622
X4.5157Y-3.3386
X4.5157Y-3.8071
X4.5157Y-4.0079
X4.5236Y-4.126
X4.5472Y-4.2126
X4.5709Y-1.6772
X4.5787Y-3.0827
X4.5826Y-2.626
X4.6102Y-1.3189
X4.6575Y-4.6024
X4.6693Y-4.2047
X4.6811Y-1.4449
X4.6811Y-1.9173
X4.6811Y-2.3898
X4.6811Y-2.8622
X4.6811Y-3.3346
X4.6811Y-3.8071
X4.6811Y-4.0079
X4.7126Y-4.2126
X4.7244Y-1.6929
X4.7402Y-3.1063
X4.752Y-2.6496
X4.7756Y-1.3189
X4.8071Y-4.6024
X4.8346Y-4.2087
X4.8465Y-1.4449
X4.8465Y-1.9173
X4.8465Y-2.3898
X4.8465Y-2.8622
X4.8465Y-3.3346
X4.8465Y-3.8071
X4.8465Y-4.0079
X4.878Y-4.2126
X4.8976Y-1.7087
X4.9094Y-3.1299
X4.9291Y-2.6732
X4.9409Y-1.3189
X4.9567Y-4.6024
X5.0Y-4.2126
X5.0118Y-1.4449
X5.0118Y-1.9173
X5.0118Y-2.3898
X5.0118Y-2.8622
X5.0118Y-3.3346
X5.0118Y-3.8071
X5.0118Y-4.0079
X5.0433Y-4.2126
X5.0512Y-1.7244
X5.0709Y-3.1535
X5.0945Y-2.6969
X5.1063Y-1.3189
X5.1063Y-4.6024
X5.1654Y-4.2087
X5.1772Y-1.4449
X5.1772Y-1.9173
X5.1772Y-2.3898
X5.1772Y-2.8622
X5.1772Y-3.3346
X5.1772Y-3.8071
X5.1772Y-4.0079
X5.2087Y-4.2126
X5.2165Y-1.7441
X5.2362Y-3.1772
X5.2559Y-4.6024
X5.2638Y-2.7205
X5.2717Y-1.3189
X5.2835Y-2.2559
X5.3346Y-4.2126
X5.3425Y-1.4449
X5.3425Y-1.9173
X5.3425Y-2.3898
X5.3425Y-2.8622
X5.3425Y-3.3346
X5.3425Y-3.8071
X5.3425Y-4.0079
X5.374Y-4.2126
X5.3937Y-1.7717
X5.4055Y-4.6024
X5.4173Y-3.2008
X5.4213Y-2.7402
X5.437Y-1.3189
X5.4961Y-4.2126
X5.5079Y-1.4449
X5.5079Y-1.9173
X5.5079Y-2.8622
X5.5079Y-3.3346
X5.5079Y-3.8071
X5.5079Y-4.0079
X5.5118Y-4.5945
X5.5394Y-4.2126
X5.6693Y-1.6378
X5.6693Y-2.1142
X5.6693Y-2.5827
X5.6693Y-3.0551
X5.6693Y-3.5315
X5.6693Y-4.0039
X5.9213Y-2.311
X5.9291Y-2.4961
X5.9882Y-4.0079
X6.0897Y-1.4756
X6.0945Y-1.4291
X6.0945Y-1.7874
X6.0945Y-1.9764
X6.0945Y-2.1457
X6.0945Y-2.189
X6.0984Y-1.6299
X6.0984Y-3.6969
X6.122Y-3.0591
X6.1417Y-2.752
X6.2205Y-2.4803
X6.2205Y-3.8701
X6.2323Y-1.9449
X6.2559Y-1.6299
X6.2835Y-1.9173
X6.3425Y-2.3504
X6.436Y-2.3671
X6.6929Y-3.0157
X6.7047Y-3.6614
X6.7047Y-3.811
X6.7047Y-3.9606
X6.7047Y-4.1102
X6.7047Y-4.2598
X6.7047Y-4.4094
X6.7047Y-4.5591
X6.7047Y-4.7087
T2
X2.2756Y-1.5945
X2.2756Y-1.7402
X2.2756Y-1.8858
X2.2756Y-2.0315
X2.2756Y-2.1772
X2.2756Y-2.3228
X2.2756Y-2.4685
X2.2756Y-2.6142
X2.2756Y-3.5354
X2.2756Y-3.6811
X2.2756Y-3.8268
X2.2756Y-3.9724
X2.2756Y-4.1181
X2.2756Y-4.2638
X2.2756Y-4.4094
X2.2756Y-4.5551
X2.3071Y-1.6535
X2.3079Y-1.5087
X2.3079Y-1.8
X2.3079Y-1.9457
X2.3079Y-2.0913
X2.3079Y-2.237
X2.3079Y-2.3827
X2.3079Y-2.5283
X2.3079Y-3.4496
X2.3079Y-3.5953
X2.3079Y-3.7409
X2.3079Y-3.8866
X2.3079Y-4.0323
X2.3079Y-4.178
X2.3079Y-4.3236
X2.3079Y-4.4693
X4.9331Y-4.7913
X4.9385Y-2.5925
X4.9409Y-4.0079
X4.9424Y-1.6476
X4.9424Y-2.1201
X4.9424Y-3.065
X4.9424Y-3.5374
X4.9424Y-4.5217
X5.5866Y-3.8386
X5.5906Y-1.9449
X5.5906Y-2.8898
X5.5906Y-3.3622
X5.5925Y-1.4705
X5.5925Y-2.4154
X5.7441Y-1.4843
X5.7441Y-1.9567
X5.7441Y-2.4291
X5.7441Y-2.9016
X5.7441Y-3.374
X5.7441Y-3.8465
X6.4134Y-1.3307
X6.4213Y-1.4961
X6.4843Y-1.6575
X6.5417Y-3.7008
X6.5417Y-3.8504
X6.5417Y-4.0
X6.5417Y-4.4488
X6.5417Y-4.5984
X6.5417Y-4.748
X6.5457Y-2.9803
X6.5457Y-3.1299
X6.5457Y-3.2795
X6.5457Y-3.4291
X6.5457Y-4.1496
X6.5457Y-4.2992
X6.5465Y-2.8315
X6.5748Y-3.6142
X6.5748Y-3.7638
X6.5748Y-3.9134
X6.5748Y-4.3622
X6.5748Y-4.5118
X6.5748Y-4.6614
X6.5787Y-2.8937
X6.5787Y-3.0433
X6.5787Y-3.1929
X6.5787Y-3.3425
X6.5787Y-4.063
X6.5787Y-4.2126
X6.5795Y-2.7449
X6.6063Y-1.7047
X6.6181Y-1.3031
X6.6181Y-1.4291
X6.7165Y-1.4882
T3
X2.0906Y-1.8829
X2.0906Y-1.9321
X2.0906Y-1.9813
X2.0906Y-2.0305
X2.0906Y-2.0797
X2.0906Y-2.1289
X2.0906Y-2.1781
X2.0906Y-2.2274
X2.0906Y-3.8317
X2.0906Y-3.8809
X2.0906Y-3.9301
X2.0906Y-3.9793
X2.0906Y-4.0285
X2.0906Y-4.0778
X2.0906Y-4.127
X2.0906Y-4.1762
X6.8307Y-4.0285
X6.8307Y-4.0778
X6.8307Y-4.127
X6.8307Y-4.1762
X6.8307Y-4.2254
X6.8307Y-4.2746
X6.8307Y-4.3238
X6.8307Y-4.373
T4
X6.7992Y-1.5492
X6.7992Y-1.6476
X6.7992Y-1.7461
X6.7992Y-1.8445
X6.7992Y-1.9429
X6.7992Y-2.0413
X6.7992Y-2.1398
X6.7992Y-2.2382
X6.7992Y-2.3366
X6.7992Y-2.435
X6.7992Y-2.5335
X6.7992Y-2.6319
X6.7992Y-2.7303
X6.7992Y-2.8287
T5
X2.0591Y-4.4699
X2.0591Y-4.5699
X2.0709Y-2.5772
X2.0709Y-2.6772
X6.1116Y-4.6929
X6.2116Y-4.6929
M30
