M48
; DRILL file {KiCad 9.0.7} date 2026-02-19T00:15:57+0100
; FORMAT={-:-/ absolute / inch / decimal}
; #@! TF.CreationDate,2026-02-19T00:15:57+01:00
; #@! TF.GenerationSoftware,Kicad,Pcbnew,9.0.7
; #@! TF.FileFunction,Plated,1,6,PTH
FMAT,2
INCH
; #@! TA.AperFunction,Plated,PTH,ViaDrill
T1C0.0118
; #@! TA.AperFunction,Plated,PTH,ComponentDrill
T2C0.0236
; #@! TA.AperFunction,Plated,PTH,ComponentDrill
T3C0.0374
%
G90
G05
T1
X2.3228Y-2.4961
X2.3268Y-1.7638
X2.3307Y-3.6811
X2.3307Y-4.0787
X2.3346Y-2.8898
X2.3346Y-3.2953
X2.3386Y-1.3661
X2.3386Y-2.1063
X2.4528Y-1.8543
X2.4567Y-1.4724
X2.4567Y-2.248
X2.4567Y-2.6457
X2.4567Y-3.0197
X2.4567Y-3.4252
X2.4646Y-3.7244
X2.4685Y-4.122
X2.7323Y-1.2441
X2.7323Y-1.6378
X2.7323Y-2.0315
X2.7323Y-2.4252
X2.7323Y-2.8228
X2.7323Y-3.2047
X2.7323Y-3.6024
X2.7323Y-4.0
X2.7677Y-1.4961
X2.8425Y-1.4016
X2.8425Y-1.5039
X2.8425Y-1.7126
X2.8425Y-2.1102
X2.8425Y-2.5039
X2.8425Y-3.2913
X2.8425Y-4.0748
X2.8465Y-2.8976
X2.8465Y-3.6811
X2.8799Y-1.2402
X2.8858Y-1.3976
X3.0322Y-1.393
X3.1339Y-1.2913
X3.2598Y-1.3583
X3.387Y-1.4146
X3.4252Y-1.2953
X3.4291Y-1.4961
X3.4646Y-1.3543
X3.5748Y-1.2953
X3.5748Y-1.4961
X5.0276Y-1.4252
T2
X1.8858Y-1.5797
X1.8858Y-1.6289
X1.8858Y-1.6781
X1.8858Y-1.7274
X1.8858Y-1.7766
X1.8858Y-1.8258
X1.8858Y-1.875
X1.8858Y-1.9242
X1.8858Y-2.8159
X1.8858Y-2.8652
X1.8858Y-2.9144
X1.8858Y-2.9636
X1.8858Y-3.0128
X1.8858Y-3.062
X1.8858Y-3.1112
X1.8858Y-3.1604
X1.8858Y-4.0512
X1.8858Y-4.1004
X1.8858Y-4.1496
X1.8858Y-4.1988
X1.8858Y-4.248
X1.8858Y-4.2972
X1.8858Y-4.3465
X1.8858Y-4.3957
T3
X5.4724Y-1.2441
X5.4724Y-1.3425
X5.4724Y-1.4409
X5.4724Y-1.5394
X5.4724Y-1.6378
X5.4724Y-1.7362
X5.4724Y-1.8346
X5.4724Y-1.9331
X5.4724Y-2.0315
X5.4724Y-2.1299
X5.4724Y-2.2283
X5.4724Y-2.3268
X5.4724Y-2.4252
X5.4724Y-2.5236
M30
