%TF.GenerationSoftware,KiCad,Pcbnew,9.0.7*%
%TF.CreationDate,2026-02-19T00:15:57+01:00*%
%TF.ProjectId,ALU_V1.0,414c555f-5631-42e3-902e-6b696361645f,rev?*%
%TF.SameCoordinates,Original*%
%TF.FileFunction,Copper,L4,Inr*%
%TF.FilePolarity,Positive*%
%FSLAX46Y46*%
G04 Gerber Fmt 4.6, Leading zero omitted, Abs format (unit mm)*
G04 Created by KiCad (PCBNEW 9.0.7) date 2026-02-19 00:15:57*
%MOMM*%
%LPD*%
G01*
G04 APERTURE LIST*
G04 Aperture macros list*
%AMRoundRect*
0 Rectangle with rounded corners*
0 $1 Rounding radius*
0 $2 $3 $4 $5 $6 $7 $8 $9 X,Y pos of 4 corners*
0 Add a 4 corners polygon primitive as box body*
4,1,4,$2,$3,$4,$5,$6,$7,$8,$9,$2,$3,0*
0 Add four circle primitives for the rounded corners*
1,1,$1+$1,$2,$3*
1,1,$1+$1,$4,$5*
1,1,$1+$1,$6,$7*
1,1,$1+$1,$8,$9*
0 Add four rect primitives between the rounded corners*
20,1,$1+$1,$2,$3,$4,$5,0*
20,1,$1+$1,$4,$5,$6,$7,0*
20,1,$1+$1,$6,$7,$8,$9,0*
20,1,$1+$1,$8,$9,$2,$3,0*%
G04 Aperture macros list end*
%TA.AperFunction,ComponentPad*%
%ADD10RoundRect,0.250000X0.725000X-0.600000X0.725000X0.600000X-0.725000X0.600000X-0.725000X-0.600000X0*%
%TD*%
%TA.AperFunction,ComponentPad*%
%ADD11O,1.950000X1.700000*%
%TD*%
%TA.AperFunction,ComponentPad*%
%ADD12RoundRect,0.225000X0.475000X-0.225000X0.475000X0.225000X-0.475000X0.225000X-0.475000X-0.225000X0*%
%TD*%
%TA.AperFunction,ComponentPad*%
%ADD13O,1.400000X0.900000*%
%TD*%
%TA.AperFunction,ViaPad*%
%ADD14C,0.600000*%
%TD*%
G04 APERTURE END LIST*
D10*
%TO.N,Net-(J8-Pin_1)*%
%TO.C,J8*%
X139000000Y-64100000D03*
D11*
%TO.N,Net-(J8-Pin_2)*%
X139000000Y-61600000D03*
%TO.N,Net-(J8-Pin_3)*%
X139000000Y-59100000D03*
%TO.N,Net-(J8-Pin_4)*%
X139000000Y-56600000D03*
%TO.N,Net-(J3-Pin_1)*%
X139000000Y-54100000D03*
%TO.N,Net-(J8-Pin_6)*%
X139000000Y-51600000D03*
%TO.N,Net-(J8-Pin_7)*%
X139000000Y-49100000D03*
%TO.N,Net-(J8-Pin_8)*%
X139000000Y-46600000D03*
%TO.N,Net-(J8-Pin_9)*%
X139000000Y-44100000D03*
%TO.N,Net-(J8-Pin_10)*%
X139000000Y-41600000D03*
%TO.N,Net-(J8-Pin_11)*%
X139000000Y-39100000D03*
%TO.N,Net-(J8-Pin_12)*%
X139000000Y-36600000D03*
%TO.N,Earth*%
X139000000Y-34100000D03*
%TO.N,VCC*%
X139000000Y-31600000D03*
%TD*%
D12*
%TO.N,Net-(J3-Pin_1)*%
%TO.C,J3*%
X47900000Y-111650000D03*
D13*
%TO.N,Net-(J3-Pin_2)*%
X47900000Y-110400000D03*
%TO.N,Net-(J3-Pin_3)*%
X47900000Y-109150000D03*
%TO.N,Net-(J3-Pin_4)*%
X47900000Y-107900000D03*
%TO.N,Net-(J3-Pin_5)*%
X47900000Y-106650000D03*
%TO.N,Net-(J3-Pin_6)*%
X47900000Y-105400000D03*
%TO.N,Net-(J3-Pin_7)*%
X47900000Y-104150000D03*
%TO.N,Net-(J3-Pin_8)*%
X47900000Y-102900000D03*
%TD*%
D12*
%TO.N,Net-(J1-Pin_1)*%
%TO.C,J1*%
X47900000Y-48875000D03*
D13*
%TO.N,Net-(J1-Pin_2)*%
X47900000Y-47625000D03*
%TO.N,Net-(J1-Pin_3)*%
X47900000Y-46375000D03*
%TO.N,Net-(J1-Pin_4)*%
X47900000Y-45125000D03*
%TO.N,Net-(J1-Pin_5)*%
X47900000Y-43875000D03*
%TO.N,Net-(J1-Pin_6)*%
X47900000Y-42625000D03*
%TO.N,Net-(J1-Pin_7)*%
X47900000Y-41375000D03*
%TO.N,Net-(J1-Pin_8)*%
X47900000Y-40125000D03*
%TD*%
D12*
%TO.N,Net-(J2-Pin_1)*%
%TO.C,J2*%
X47900000Y-80275000D03*
D13*
%TO.N,Net-(J2-Pin_2)*%
X47900000Y-79025000D03*
%TO.N,Net-(J2-Pin_3)*%
X47900000Y-77775000D03*
%TO.N,Net-(J2-Pin_4)*%
X47900000Y-76525000D03*
%TO.N,Net-(J2-Pin_5)*%
X47900000Y-75275000D03*
%TO.N,Net-(J2-Pin_6)*%
X47900000Y-74025000D03*
%TO.N,Net-(J2-Pin_7)*%
X47900000Y-72775000D03*
%TO.N,Net-(J2-Pin_8)*%
X47900000Y-71525000D03*
%TD*%
D14*
%TO.N,Net-(J3-Pin_1)*%
X127700000Y-36200000D03*
%TO.N,Net-(J2-Pin_1)*%
X72200000Y-103500000D03*
X62700000Y-104700000D03*
%TO.N,Net-(J2-Pin_2)*%
X72300000Y-93500000D03*
X62600000Y-94600000D03*
%TO.N,Net-(J2-Pin_3)*%
X72200000Y-83600000D03*
X62400000Y-87000000D03*
%TO.N,Net-(J2-Pin_4)*%
X72300000Y-73600000D03*
X62400000Y-76700000D03*
%TO.N,Net-(J2-Pin_5)*%
X72200000Y-63600000D03*
X62400000Y-67200000D03*
%TO.N,Net-(J2-Pin_6)*%
X72200000Y-53600000D03*
X62400000Y-57100000D03*
%TO.N,Net-(J2-Pin_7)*%
X72200000Y-43500000D03*
X62300000Y-47100000D03*
%TO.N,Net-(J2-Pin_8)*%
X62400000Y-37400000D03*
%TO.N,Net-(J1-Pin_1)*%
X69400000Y-101600000D03*
X59200000Y-103600000D03*
%TO.N,Net-(J1-Pin_2)*%
X69400000Y-91500000D03*
X59200000Y-93500000D03*
%TO.N,Net-(J1-Pin_3)*%
X69400000Y-81400000D03*
X59300000Y-83700000D03*
%TO.N,Net-(J1-Pin_4)*%
X69400000Y-71700000D03*
X59300000Y-73400000D03*
%TO.N,Net-(J1-Pin_5)*%
X69400000Y-61600000D03*
X59000000Y-63400000D03*
%TO.N,Net-(J1-Pin_6)*%
X69400000Y-51600000D03*
X59400000Y-53500000D03*
%TO.N,Net-(J1-Pin_7)*%
X69400000Y-41600000D03*
X59100000Y-44800000D03*
%TO.N,Net-(J1-Pin_8)*%
X69400000Y-31600000D03*
X59400000Y-34700000D03*
%TO.N,Net-(Q28-D)*%
X87000000Y-32900000D03*
%TO.N,Net-(Q25-G)*%
X70300000Y-38000000D03*
%TO.N,Net-(Q179-G)*%
X90800000Y-32900000D03*
%TO.N,Net-(Q28-D)*%
X88000000Y-34400000D03*
%TO.N,Net-(Q25-G)*%
X73300000Y-35500000D03*
%TO.N,Net-(Q29-D)*%
X90800000Y-38000000D03*
%TO.N,Net-(Q25-G)*%
X87100000Y-38000000D03*
%TO.N,Net-(Q29-D)*%
X86029751Y-35929751D03*
%TO.N,Net-(Q177-G)*%
X72200000Y-38200000D03*
X72200000Y-35600000D03*
%TO.N,Net-(Q179-G)*%
X77018750Y-35381250D03*
%TO.N,Net-(J2-Pin_8)*%
X79600000Y-32800000D03*
X73150000Y-31500000D03*
%TO.N,Net-(Q179-G)*%
X82800000Y-34500000D03*
%TD*%
M02*
