%TF.GenerationSoftware,KiCad,Pcbnew,9.0.7*%
%TF.CreationDate,2026-02-19T00:15:57+01:00*%
%TF.ProjectId,ALU_V1.0,414c555f-5631-42e3-902e-6b696361645f,rev?*%
%TF.SameCoordinates,Original*%
%TF.FileFunction,Soldermask,Top*%
%TF.FilePolarity,Negative*%
%FSLAX46Y46*%
G04 Gerber Fmt 4.6, Leading zero omitted, Abs format (unit mm)*
G04 Created by KiCad (PCBNEW 9.0.7) date 2026-02-19 00:15:57*
%MOMM*%
%LPD*%
G01*
G04 APERTURE LIST*
G04 Aperture macros list*
%AMRoundRect*
0 Rectangle with rounded corners*
0 $1 Rounding radius*
0 $2 $3 $4 $5 $6 $7 $8 $9 X,Y pos of 4 corners*
0 Add a 4 corners polygon primitive as box body*
4,1,4,$2,$3,$4,$5,$6,$7,$8,$9,$2,$3,0*
0 Add four circle primitives for the rounded corners*
1,1,$1+$1,$2,$3*
1,1,$1+$1,$4,$5*
1,1,$1+$1,$6,$7*
1,1,$1+$1,$8,$9*
0 Add four rect primitives between the rounded corners*
20,1,$1+$1,$2,$3,$4,$5,0*
20,1,$1+$1,$4,$5,$6,$7,0*
20,1,$1+$1,$6,$7,$8,$9,0*
20,1,$1+$1,$8,$9,$2,$3,0*%
G04 Aperture macros list end*
%ADD10RoundRect,0.150000X-0.150000X0.587500X-0.150000X-0.587500X0.150000X-0.587500X0.150000X0.587500X0*%
%ADD11RoundRect,0.150000X0.150000X-0.587500X0.150000X0.587500X-0.150000X0.587500X-0.150000X-0.587500X0*%
%ADD12RoundRect,0.159000X0.159000X0.189000X-0.159000X0.189000X-0.159000X-0.189000X0.159000X-0.189000X0*%
%ADD13RoundRect,0.159000X-0.159000X-0.189000X0.159000X-0.189000X0.159000X0.189000X-0.159000X0.189000X0*%
%ADD14RoundRect,0.159000X-0.189000X0.159000X-0.189000X-0.159000X0.189000X-0.159000X0.189000X0.159000X0*%
%ADD15RoundRect,0.250000X0.725000X-0.600000X0.725000X0.600000X-0.725000X0.600000X-0.725000X-0.600000X0*%
%ADD16O,1.950000X1.700000*%
%ADD17RoundRect,0.219000X-0.219000X-0.294000X0.219000X-0.294000X0.219000X0.294000X-0.219000X0.294000X0*%
%ADD18RoundRect,0.150000X-0.587500X-0.150000X0.587500X-0.150000X0.587500X0.150000X-0.587500X0.150000X0*%
%ADD19RoundRect,0.239000X-0.239000X-0.274000X0.239000X-0.274000X0.239000X0.274000X-0.239000X0.274000X0*%
%ADD20RoundRect,0.225000X0.475000X-0.225000X0.475000X0.225000X-0.475000X0.225000X-0.475000X-0.225000X0*%
%ADD21O,1.400000X0.900000*%
%ADD22RoundRect,0.159000X0.189000X-0.159000X0.189000X0.159000X-0.189000X0.159000X-0.189000X-0.159000X0*%
G04 APERTURE END LIST*
D10*
%TO.C,Q261*%
X127050000Y-29762500D03*
X125150000Y-29762500D03*
X126100000Y-31637500D03*
%TD*%
%TO.C,Q258*%
X111850000Y-29762500D03*
X109950000Y-29762500D03*
X110900000Y-31637500D03*
%TD*%
%TO.C,Q257*%
X115650000Y-29762500D03*
X113750000Y-29762500D03*
X114700000Y-31637500D03*
%TD*%
%TO.C,Q259*%
X108050000Y-29762500D03*
X106150000Y-29762500D03*
X107100000Y-31637500D03*
%TD*%
%TO.C,Q256*%
X119450000Y-29762500D03*
X117550000Y-29762500D03*
X118500000Y-31637500D03*
%TD*%
%TO.C,Q255*%
X123250000Y-29762500D03*
X121350000Y-29762500D03*
X122300000Y-31637500D03*
%TD*%
D11*
%TO.C,Q99*%
X91650000Y-72837500D03*
X93550000Y-72837500D03*
X92600000Y-70962500D03*
%TD*%
%TO.C,Q112*%
X84250000Y-82837500D03*
X86150000Y-82837500D03*
X85200000Y-80962500D03*
%TD*%
D12*
%TO.C,R90*%
X79100000Y-94500000D03*
X78100000Y-94500000D03*
%TD*%
%TO.C,R101*%
X79100000Y-104500000D03*
X78100000Y-104500000D03*
%TD*%
D11*
%TO.C,Q19*%
X59650000Y-96037500D03*
X61550000Y-96037500D03*
X60600000Y-94162500D03*
%TD*%
%TO.C,Q132*%
X76850000Y-108037500D03*
X78750000Y-108037500D03*
X77800000Y-106162500D03*
%TD*%
%TO.C,Q29*%
X84250000Y-38037500D03*
X86150000Y-38037500D03*
X85200000Y-36162500D03*
%TD*%
%TO.C,Q62*%
X95350000Y-58037500D03*
X97250000Y-58037500D03*
X96300000Y-56162500D03*
%TD*%
D13*
%TO.C,R59*%
X86000000Y-64500000D03*
X87000000Y-64500000D03*
%TD*%
D11*
%TO.C,Q42*%
X76800000Y-48037500D03*
X78700000Y-48037500D03*
X77750000Y-46162500D03*
%TD*%
%TO.C,Q124*%
X73125000Y-92837500D03*
X75025000Y-92837500D03*
X74075000Y-90962500D03*
%TD*%
D12*
%TO.C,R78*%
X74300000Y-84500000D03*
X73300000Y-84500000D03*
%TD*%
D11*
%TO.C,Q56*%
X73150000Y-58037500D03*
X75050000Y-58037500D03*
X74100000Y-56162500D03*
%TD*%
%TO.C,Q136*%
X91650000Y-108037500D03*
X93550000Y-108037500D03*
X92600000Y-106162500D03*
%TD*%
D12*
%TO.C,R89*%
X74300000Y-94500000D03*
X73300000Y-94500000D03*
%TD*%
D13*
%TO.C,R51*%
X75400000Y-64500000D03*
X76400000Y-64500000D03*
%TD*%
%TO.C,R103*%
X86000000Y-104500000D03*
X87000000Y-104500000D03*
%TD*%
D14*
%TO.C,R10*%
X65000000Y-71400000D03*
X65000000Y-72400000D03*
%TD*%
D12*
%TO.C,R72*%
X70100000Y-84500000D03*
X69100000Y-84500000D03*
%TD*%
D11*
%TO.C,Q101*%
X73150000Y-88037500D03*
X75050000Y-88037500D03*
X74100000Y-86162500D03*
%TD*%
%TO.C,Q84*%
X91650000Y-62837500D03*
X93550000Y-62837500D03*
X92600000Y-60962500D03*
%TD*%
%TO.C,Q134*%
X84250000Y-108037500D03*
X86150000Y-108037500D03*
X85200000Y-106162500D03*
%TD*%
%TO.C,Q127*%
X84250000Y-92837500D03*
X86150000Y-92837500D03*
X85200000Y-90962500D03*
%TD*%
%TO.C,Q36*%
X80550000Y-32837500D03*
X82450000Y-32837500D03*
X81500000Y-30962500D03*
%TD*%
D10*
%TO.C,Q24*%
X63450000Y-100962500D03*
X61550000Y-100962500D03*
X62500000Y-102837500D03*
%TD*%
D12*
%TO.C,R79*%
X79100000Y-84500000D03*
X78100000Y-84500000D03*
%TD*%
%TO.C,R45*%
X74300000Y-54500000D03*
X73300000Y-54500000D03*
%TD*%
%TO.C,R98*%
X96000000Y-104500000D03*
X95000000Y-104500000D03*
%TD*%
%TO.C,R52*%
X84900000Y-64500000D03*
X83900000Y-64500000D03*
%TD*%
D11*
%TO.C,Q68*%
X87950000Y-52837500D03*
X89850000Y-52837500D03*
X88900000Y-50962500D03*
%TD*%
D14*
%TO.C,R16*%
X65000000Y-101400000D03*
X65000000Y-102400000D03*
%TD*%
D11*
%TO.C,Q93*%
X69450000Y-72837500D03*
X71350000Y-72837500D03*
X70400000Y-70962500D03*
%TD*%
D10*
%TO.C,Q9*%
X63450000Y-50962500D03*
X61550000Y-50962500D03*
X62500000Y-52837500D03*
%TD*%
D13*
%TO.C,R99*%
X71200000Y-104500000D03*
X72200000Y-104500000D03*
%TD*%
D11*
%TO.C,Q103*%
X80550000Y-88037500D03*
X82450000Y-88037500D03*
X81500000Y-86162500D03*
%TD*%
D13*
%TO.C,R92*%
X86000000Y-94500000D03*
X87000000Y-94500000D03*
%TD*%
D14*
%TO.C,R6*%
X65000000Y-51400000D03*
X65000000Y-52400000D03*
%TD*%
D12*
%TO.C,R65*%
X96000000Y-74500000D03*
X95000000Y-74500000D03*
%TD*%
D11*
%TO.C,Q130*%
X69450000Y-108037500D03*
X71350000Y-108037500D03*
X70400000Y-106162500D03*
%TD*%
D13*
%TO.C,R27*%
X91800000Y-34500000D03*
X92800000Y-34500000D03*
%TD*%
D11*
%TO.C,Q27*%
X76850000Y-38037500D03*
X78750000Y-38037500D03*
X77800000Y-36162500D03*
%TD*%
%TO.C,Q52*%
X84200000Y-42837500D03*
X86100000Y-42837500D03*
X85150000Y-40962500D03*
%TD*%
D13*
%TO.C,R37*%
X85950000Y-44500000D03*
X86950000Y-44500000D03*
%TD*%
D11*
%TO.C,Q72*%
X76850000Y-68037500D03*
X78750000Y-68037500D03*
X77800000Y-66162500D03*
%TD*%
D13*
%TO.C,R60*%
X91800000Y-64500000D03*
X92800000Y-64500000D03*
%TD*%
D12*
%TO.C,R24*%
X79100000Y-34500000D03*
X78100000Y-34500000D03*
%TD*%
D11*
%TO.C,Q131*%
X73150000Y-108037500D03*
X75050000Y-108037500D03*
X74100000Y-106162500D03*
%TD*%
D12*
%TO.C,R57*%
X79100000Y-64500000D03*
X78100000Y-64500000D03*
%TD*%
D13*
%TO.C,R44*%
X71200000Y-54500000D03*
X72200000Y-54500000D03*
%TD*%
%TO.C,R49*%
X91800000Y-54500000D03*
X92800000Y-54500000D03*
%TD*%
D11*
%TO.C,Q100*%
X69450000Y-88037500D03*
X71350000Y-88037500D03*
X70400000Y-86162500D03*
%TD*%
D13*
%TO.C,R58*%
X80200000Y-64500000D03*
X81200000Y-64500000D03*
%TD*%
D11*
%TO.C,Q55*%
X69450000Y-58037500D03*
X71350000Y-58037500D03*
X70400000Y-56162500D03*
%TD*%
D12*
%TO.C,R67*%
X74300000Y-74500000D03*
X73300000Y-74500000D03*
%TD*%
D14*
%TO.C,R2*%
X65000000Y-31400000D03*
X65000000Y-32400000D03*
%TD*%
D11*
%TO.C,Q113*%
X87950000Y-82837500D03*
X89850000Y-82837500D03*
X88900000Y-80962500D03*
%TD*%
%TO.C,Q111*%
X80550000Y-82837500D03*
X82450000Y-82837500D03*
X81500000Y-80962500D03*
%TD*%
%TO.C,Q43*%
X80500000Y-48037500D03*
X82400000Y-48037500D03*
X81450000Y-46162500D03*
%TD*%
D12*
%TO.C,R83*%
X70100000Y-94500000D03*
X69100000Y-94500000D03*
%TD*%
D11*
%TO.C,Q31*%
X91650000Y-38037500D03*
X93550000Y-38037500D03*
X92600000Y-36162500D03*
%TD*%
%TO.C,Q110*%
X76850000Y-82837500D03*
X78750000Y-82837500D03*
X77800000Y-80962500D03*
%TD*%
%TO.C,Q64*%
X73150000Y-52837500D03*
X75050000Y-52837500D03*
X74100000Y-50962500D03*
%TD*%
%TO.C,Q38*%
X87950000Y-32837500D03*
X89850000Y-32837500D03*
X88900000Y-30962500D03*
%TD*%
%TO.C,Q75*%
X87950000Y-68037500D03*
X89850000Y-68037500D03*
X88900000Y-66162500D03*
%TD*%
D12*
%TO.C,R63*%
X84900000Y-74500000D03*
X83900000Y-74500000D03*
%TD*%
D10*
%TO.C,Q3*%
X63450000Y-30962500D03*
X61550000Y-30962500D03*
X62500000Y-32837500D03*
%TD*%
%TO.C,Q12*%
X63450000Y-60962500D03*
X61550000Y-60962500D03*
X62500000Y-62837500D03*
%TD*%
D12*
%TO.C,R35*%
X79050000Y-44500000D03*
X78050000Y-44500000D03*
%TD*%
%TO.C,R87*%
X96000000Y-94500000D03*
X95000000Y-94500000D03*
%TD*%
D11*
%TO.C,Q87*%
X76850000Y-78037500D03*
X78750000Y-78037500D03*
X77800000Y-76162500D03*
%TD*%
%TO.C,Q49*%
X73100000Y-42837500D03*
X75000000Y-42837500D03*
X74050000Y-40962500D03*
%TD*%
D13*
%TO.C,R69*%
X80200000Y-74500000D03*
X81200000Y-74500000D03*
%TD*%
D12*
%TO.C,R46*%
X79100000Y-54500000D03*
X78100000Y-54500000D03*
%TD*%
D11*
%TO.C,Q121*%
X91650000Y-98037500D03*
X93550000Y-98037500D03*
X92600000Y-96162500D03*
%TD*%
%TO.C,Q65*%
X76850000Y-52837500D03*
X78750000Y-52837500D03*
X77800000Y-50962500D03*
%TD*%
D12*
%TO.C,R96*%
X84900000Y-104500000D03*
X83900000Y-104500000D03*
%TD*%
D14*
%TO.C,R3*%
X59950000Y-41400000D03*
X59950000Y-42400000D03*
%TD*%
D11*
%TO.C,Q37*%
X84250000Y-32837500D03*
X86150000Y-32837500D03*
X85200000Y-30962500D03*
%TD*%
%TO.C,Q139*%
X73150000Y-102837500D03*
X75050000Y-102837500D03*
X74100000Y-100962500D03*
%TD*%
%TO.C,Q82*%
X84250000Y-62837500D03*
X86150000Y-62837500D03*
X85200000Y-60962500D03*
%TD*%
D13*
%TO.C,R47*%
X80200000Y-54500000D03*
X81200000Y-54500000D03*
%TD*%
D11*
%TO.C,Q74*%
X84250000Y-68037500D03*
X86150000Y-68037500D03*
X85200000Y-66162500D03*
%TD*%
D12*
%TO.C,R53*%
X90700000Y-64500000D03*
X89700000Y-64500000D03*
%TD*%
%TO.C,R100*%
X74300000Y-104500000D03*
X73300000Y-104500000D03*
%TD*%
D11*
%TO.C,Q143*%
X87950000Y-102837500D03*
X89850000Y-102837500D03*
X88900000Y-100962500D03*
%TD*%
D14*
%TO.C,R5*%
X60000000Y-51400000D03*
X60000000Y-52400000D03*
%TD*%
D11*
%TO.C,Q90*%
X87950000Y-78037500D03*
X89850000Y-78037500D03*
X88900000Y-76162500D03*
%TD*%
%TO.C,Q5*%
X63300000Y-46037500D03*
X65200000Y-46037500D03*
X64250000Y-44162500D03*
%TD*%
%TO.C,Q11*%
X63350000Y-66037500D03*
X65250000Y-66037500D03*
X64300000Y-64162500D03*
%TD*%
%TO.C,Q123*%
X69450000Y-92837500D03*
X71350000Y-92837500D03*
X70400000Y-90962500D03*
%TD*%
D12*
%TO.C,R76*%
X96000000Y-84500000D03*
X95000000Y-84500000D03*
%TD*%
D11*
%TO.C,Q47*%
X95300000Y-48037500D03*
X97200000Y-48037500D03*
X96250000Y-46162500D03*
%TD*%
%TO.C,Q108*%
X69450000Y-82837500D03*
X71350000Y-82837500D03*
X70400000Y-80962500D03*
%TD*%
%TO.C,Q23*%
X63350000Y-106037500D03*
X65250000Y-106037500D03*
X64300000Y-104162500D03*
%TD*%
D14*
%TO.C,R15*%
X60000000Y-101400000D03*
X60000000Y-102400000D03*
%TD*%
D11*
%TO.C,Q40*%
X69400000Y-48037500D03*
X71300000Y-48037500D03*
X70350000Y-46162500D03*
%TD*%
%TO.C,Q96*%
X80550000Y-72837500D03*
X82450000Y-72837500D03*
X81500000Y-70962500D03*
%TD*%
%TO.C,Q144*%
X91650000Y-102837500D03*
X93550000Y-102837500D03*
X92600000Y-100962500D03*
%TD*%
%TO.C,Q44*%
X84200000Y-48037500D03*
X86100000Y-48037500D03*
X85150000Y-46162500D03*
%TD*%
D12*
%TO.C,R41*%
X84900000Y-54500000D03*
X83900000Y-54500000D03*
%TD*%
D13*
%TO.C,R55*%
X71200000Y-64500000D03*
X72200000Y-64500000D03*
%TD*%
D11*
%TO.C,Q91*%
X91650000Y-78037500D03*
X93550000Y-78037500D03*
X92600000Y-76162500D03*
%TD*%
%TO.C,Q135*%
X87950000Y-108037500D03*
X89850000Y-108037500D03*
X88900000Y-106162500D03*
%TD*%
D12*
%TO.C,R17*%
X70100000Y-34500000D03*
X69100000Y-34500000D03*
%TD*%
D11*
%TO.C,Q76*%
X91650000Y-68037500D03*
X93550000Y-68037500D03*
X92600000Y-66162500D03*
%TD*%
%TO.C,Q60*%
X87950000Y-58037500D03*
X89850000Y-58037500D03*
X88900000Y-56162500D03*
%TD*%
D10*
%TO.C,Q6*%
X63400000Y-40962500D03*
X61500000Y-40962500D03*
X62450000Y-42837500D03*
%TD*%
D12*
%TO.C,R64*%
X90700000Y-74500000D03*
X89700000Y-74500000D03*
%TD*%
%TO.C,R85*%
X84900000Y-94500000D03*
X83900000Y-94500000D03*
%TD*%
D11*
%TO.C,Q17*%
X63350000Y-86037500D03*
X65250000Y-86037500D03*
X64300000Y-84162500D03*
%TD*%
D13*
%TO.C,R84*%
X75400000Y-94500000D03*
X76400000Y-94500000D03*
%TD*%
D12*
%TO.C,R74*%
X84900000Y-84500000D03*
X83900000Y-84500000D03*
%TD*%
D11*
%TO.C,Q141*%
X80550000Y-102837500D03*
X82450000Y-102837500D03*
X81500000Y-100962500D03*
%TD*%
D12*
%TO.C,R43*%
X96000000Y-54500000D03*
X95000000Y-54500000D03*
%TD*%
D11*
%TO.C,Q140*%
X76850000Y-102837500D03*
X78750000Y-102837500D03*
X77800000Y-100962500D03*
%TD*%
D10*
%TO.C,Q21*%
X63450000Y-90962500D03*
X61550000Y-90962500D03*
X62500000Y-92837500D03*
%TD*%
D13*
%TO.C,R104*%
X91800000Y-104500000D03*
X92800000Y-104500000D03*
%TD*%
D11*
%TO.C,Q70*%
X69450000Y-68037500D03*
X71350000Y-68037500D03*
X70400000Y-66162500D03*
%TD*%
D14*
%TO.C,R7*%
X60000000Y-61400000D03*
X60000000Y-62400000D03*
%TD*%
D11*
%TO.C,Q114*%
X91650000Y-82837500D03*
X93550000Y-82837500D03*
X92600000Y-80962500D03*
%TD*%
%TO.C,Q50*%
X76800000Y-42837500D03*
X78700000Y-42837500D03*
X77750000Y-40962500D03*
%TD*%
%TO.C,Q58*%
X80550000Y-58037500D03*
X82450000Y-58037500D03*
X81500000Y-56162500D03*
%TD*%
%TO.C,Q57*%
X76850000Y-58037500D03*
X78750000Y-58037500D03*
X77800000Y-56162500D03*
%TD*%
%TO.C,Q59*%
X84250000Y-58037500D03*
X86150000Y-58037500D03*
X85200000Y-56162500D03*
%TD*%
D13*
%TO.C,R102*%
X80200000Y-104500000D03*
X81200000Y-104500000D03*
%TD*%
D11*
%TO.C,Q1*%
X59650000Y-36037500D03*
X61550000Y-36037500D03*
X60600000Y-34162500D03*
%TD*%
%TO.C,Q83*%
X87950000Y-62837500D03*
X89850000Y-62837500D03*
X88900000Y-60962500D03*
%TD*%
%TO.C,Q20*%
X63350000Y-96037500D03*
X65250000Y-96037500D03*
X64300000Y-94162500D03*
%TD*%
%TO.C,Q32*%
X95350000Y-38037500D03*
X97250000Y-38037500D03*
X96300000Y-36162500D03*
%TD*%
D13*
%TO.C,R81*%
X86000000Y-84500000D03*
X87000000Y-84500000D03*
%TD*%
D10*
%TO.C,Q15*%
X63450000Y-70962500D03*
X61550000Y-70962500D03*
X62500000Y-72837500D03*
%TD*%
D12*
%TO.C,R28*%
X70050000Y-44500000D03*
X69050000Y-44500000D03*
%TD*%
%TO.C,R94*%
X70100000Y-104500000D03*
X69100000Y-104500000D03*
%TD*%
D11*
%TO.C,Q25*%
X69450000Y-38037500D03*
X71350000Y-38037500D03*
X70400000Y-36162500D03*
%TD*%
%TO.C,Q45*%
X87900000Y-48037500D03*
X89800000Y-48037500D03*
X88850000Y-46162500D03*
%TD*%
%TO.C,Q13*%
X59650000Y-76037500D03*
X61550000Y-76037500D03*
X60600000Y-74162500D03*
%TD*%
D14*
%TO.C,R14*%
X65000000Y-91400000D03*
X65000000Y-92400000D03*
%TD*%
D11*
%TO.C,Q105*%
X87950000Y-88037500D03*
X89850000Y-88037500D03*
X88900000Y-86162500D03*
%TD*%
D14*
%TO.C,R13*%
X60000000Y-91400000D03*
X60000000Y-92400000D03*
%TD*%
D13*
%TO.C,R40*%
X75400000Y-54500000D03*
X76400000Y-54500000D03*
%TD*%
%TO.C,R71*%
X91800000Y-74500000D03*
X92800000Y-74500000D03*
%TD*%
D12*
%TO.C,R19*%
X84900000Y-34500000D03*
X83900000Y-34500000D03*
%TD*%
%TO.C,R39*%
X70100000Y-54500000D03*
X69100000Y-54500000D03*
%TD*%
D10*
%TO.C,Q18*%
X63450000Y-80962500D03*
X61550000Y-80962500D03*
X62500000Y-82837500D03*
%TD*%
D11*
%TO.C,Q51*%
X80500000Y-42837500D03*
X82400000Y-42837500D03*
X81450000Y-40962500D03*
%TD*%
D13*
%TO.C,R82*%
X91800000Y-84500000D03*
X92800000Y-84500000D03*
%TD*%
D12*
%TO.C,R50*%
X70100000Y-64500000D03*
X69100000Y-64500000D03*
%TD*%
D11*
%TO.C,Q109*%
X73150000Y-82837500D03*
X75050000Y-82837500D03*
X74100000Y-80962500D03*
%TD*%
%TO.C,Q137*%
X95350000Y-108037500D03*
X97250000Y-108037500D03*
X96300000Y-106162500D03*
%TD*%
%TO.C,Q85*%
X69450000Y-78037500D03*
X71350000Y-78037500D03*
X70400000Y-76162500D03*
%TD*%
D12*
%TO.C,R34*%
X74250000Y-44500000D03*
X73250000Y-44500000D03*
%TD*%
D14*
%TO.C,R4*%
X64950000Y-41400000D03*
X64950000Y-42400000D03*
%TD*%
D11*
%TO.C,Q14*%
X63350000Y-76037500D03*
X65250000Y-76037500D03*
X64300000Y-74162500D03*
%TD*%
%TO.C,Q33*%
X69450000Y-32837500D03*
X71350000Y-32837500D03*
X70400000Y-30962500D03*
%TD*%
D13*
%TO.C,R48*%
X86000000Y-54500000D03*
X87000000Y-54500000D03*
%TD*%
D12*
%TO.C,R75*%
X90700000Y-84500000D03*
X89700000Y-84500000D03*
%TD*%
D11*
%TO.C,Q73*%
X80550000Y-68037500D03*
X82450000Y-68037500D03*
X81500000Y-66162500D03*
%TD*%
D13*
%TO.C,R88*%
X71200000Y-94500000D03*
X72200000Y-94500000D03*
%TD*%
D12*
%TO.C,R30*%
X84850000Y-44500000D03*
X83850000Y-44500000D03*
%TD*%
D13*
%TO.C,R70*%
X86000000Y-74500000D03*
X87000000Y-74500000D03*
%TD*%
D11*
%TO.C,Q28*%
X80550000Y-38037500D03*
X82450000Y-38037500D03*
X81500000Y-36162500D03*
%TD*%
%TO.C,Q77*%
X95350000Y-68037500D03*
X97250000Y-68037500D03*
X96300000Y-66162500D03*
%TD*%
D13*
%TO.C,R66*%
X71200000Y-74500000D03*
X72200000Y-74500000D03*
%TD*%
D11*
%TO.C,Q79*%
X73150000Y-62837500D03*
X75050000Y-62837500D03*
X74100000Y-60962500D03*
%TD*%
D13*
%TO.C,R77*%
X71200000Y-84500000D03*
X72200000Y-84500000D03*
%TD*%
D11*
%TO.C,Q10*%
X59650000Y-66037500D03*
X61550000Y-66037500D03*
X60600000Y-64162500D03*
%TD*%
%TO.C,Q46*%
X91600000Y-48037500D03*
X93500000Y-48037500D03*
X92550000Y-46162500D03*
%TD*%
%TO.C,Q117*%
X76850000Y-98037500D03*
X78750000Y-98037500D03*
X77800000Y-96162500D03*
%TD*%
%TO.C,Q120*%
X87950000Y-98037500D03*
X89850000Y-98037500D03*
X88900000Y-96162500D03*
%TD*%
%TO.C,Q30*%
X87950000Y-38037500D03*
X89850000Y-38037500D03*
X88900000Y-36162500D03*
%TD*%
D13*
%TO.C,R36*%
X80150000Y-44500000D03*
X81150000Y-44500000D03*
%TD*%
D14*
%TO.C,R1*%
X60000000Y-31400000D03*
X60000000Y-32400000D03*
%TD*%
D12*
%TO.C,R32*%
X95950000Y-44500000D03*
X94950000Y-44500000D03*
%TD*%
D11*
%TO.C,Q71*%
X73150000Y-68037500D03*
X75050000Y-68037500D03*
X74100000Y-66162500D03*
%TD*%
D12*
%TO.C,R61*%
X70100000Y-74500000D03*
X69100000Y-74500000D03*
%TD*%
D11*
%TO.C,Q16*%
X59650000Y-86037500D03*
X61550000Y-86037500D03*
X60600000Y-84162500D03*
%TD*%
%TO.C,Q115*%
X69450000Y-98037500D03*
X71350000Y-98037500D03*
X70400000Y-96162500D03*
%TD*%
%TO.C,Q142*%
X84250000Y-102837500D03*
X86150000Y-102837500D03*
X85200000Y-100962500D03*
%TD*%
%TO.C,Q80*%
X76850000Y-62837500D03*
X78750000Y-62837500D03*
X77800000Y-60962500D03*
%TD*%
%TO.C,Q119*%
X84250000Y-98037500D03*
X86150000Y-98037500D03*
X85200000Y-96162500D03*
%TD*%
%TO.C,Q54*%
X91600000Y-42837500D03*
X93500000Y-42837500D03*
X92550000Y-40962500D03*
%TD*%
D13*
%TO.C,R93*%
X91800000Y-94500000D03*
X92800000Y-94500000D03*
%TD*%
%TO.C,R95*%
X75400000Y-104500000D03*
X76400000Y-104500000D03*
%TD*%
D14*
%TO.C,R8*%
X65000000Y-61400000D03*
X65000000Y-62400000D03*
%TD*%
D11*
%TO.C,Q78*%
X69450000Y-62837500D03*
X71350000Y-62837500D03*
X70400000Y-60962500D03*
%TD*%
%TO.C,Q92*%
X95350000Y-78037500D03*
X97250000Y-78037500D03*
X96300000Y-76162500D03*
%TD*%
D13*
%TO.C,R38*%
X91750000Y-44500000D03*
X92750000Y-44500000D03*
%TD*%
%TO.C,R26*%
X86000000Y-34500000D03*
X87000000Y-34500000D03*
%TD*%
D11*
%TO.C,Q63*%
X69450000Y-52837500D03*
X71350000Y-52837500D03*
X70400000Y-50962500D03*
%TD*%
%TO.C,Q67*%
X84250000Y-52837500D03*
X86150000Y-52837500D03*
X85200000Y-50962500D03*
%TD*%
%TO.C,Q106*%
X91650000Y-88037500D03*
X93550000Y-88037500D03*
X92600000Y-86162500D03*
%TD*%
%TO.C,Q89*%
X84250000Y-78037500D03*
X86150000Y-78037500D03*
X85200000Y-76162500D03*
%TD*%
%TO.C,Q126*%
X80550000Y-92837500D03*
X82450000Y-92837500D03*
X81500000Y-90962500D03*
%TD*%
%TO.C,Q22*%
X59650000Y-106037500D03*
X61550000Y-106037500D03*
X60600000Y-104162500D03*
%TD*%
D12*
%TO.C,R97*%
X90700000Y-104500000D03*
X89700000Y-104500000D03*
%TD*%
D11*
%TO.C,Q95*%
X76850000Y-72837500D03*
X78750000Y-72837500D03*
X77800000Y-70962500D03*
%TD*%
%TO.C,Q41*%
X73100000Y-48037500D03*
X75000000Y-48037500D03*
X74050000Y-46162500D03*
%TD*%
%TO.C,Q102*%
X76850000Y-88037500D03*
X78750000Y-88037500D03*
X77800000Y-86162500D03*
%TD*%
D12*
%TO.C,R31*%
X90650000Y-44500000D03*
X89650000Y-44500000D03*
%TD*%
D11*
%TO.C,Q34*%
X73150000Y-32837500D03*
X75050000Y-32837500D03*
X74100000Y-30962500D03*
%TD*%
%TO.C,Q69*%
X91650000Y-52837500D03*
X93550000Y-52837500D03*
X92600000Y-50962500D03*
%TD*%
D14*
%TO.C,R12*%
X65000000Y-81400000D03*
X65000000Y-82400000D03*
%TD*%
%TO.C,R9*%
X60000000Y-71400000D03*
X60000000Y-72400000D03*
%TD*%
D13*
%TO.C,R25*%
X80200000Y-34500000D03*
X81200000Y-34500000D03*
%TD*%
D14*
%TO.C,R11*%
X60000000Y-81400000D03*
X60000000Y-82400000D03*
%TD*%
D11*
%TO.C,Q53*%
X87900000Y-42837500D03*
X89800000Y-42837500D03*
X88850000Y-40962500D03*
%TD*%
%TO.C,Q128*%
X87950000Y-92837500D03*
X89850000Y-92837500D03*
X88900000Y-90962500D03*
%TD*%
%TO.C,Q98*%
X87950000Y-72837500D03*
X89850000Y-72837500D03*
X88900000Y-70962500D03*
%TD*%
%TO.C,Q122*%
X95350000Y-98037500D03*
X97250000Y-98037500D03*
X96300000Y-96162500D03*
%TD*%
D12*
%TO.C,R21*%
X96000000Y-34500000D03*
X95000000Y-34500000D03*
%TD*%
D11*
%TO.C,Q86*%
X73150000Y-78037500D03*
X75050000Y-78037500D03*
X74100000Y-76162500D03*
%TD*%
%TO.C,Q125*%
X76850000Y-92837500D03*
X78750000Y-92837500D03*
X77800000Y-90962500D03*
%TD*%
D13*
%TO.C,R80*%
X80200000Y-84500000D03*
X81200000Y-84500000D03*
%TD*%
%TO.C,R73*%
X75400000Y-84500000D03*
X76400000Y-84500000D03*
%TD*%
D11*
%TO.C,Q107*%
X95350000Y-88037500D03*
X97250000Y-88037500D03*
X96300000Y-86162500D03*
%TD*%
D12*
%TO.C,R20*%
X90700000Y-34500000D03*
X89700000Y-34500000D03*
%TD*%
D11*
%TO.C,Q94*%
X73150000Y-72837500D03*
X75050000Y-72837500D03*
X74100000Y-70962500D03*
%TD*%
%TO.C,Q48*%
X69400000Y-42837500D03*
X71300000Y-42837500D03*
X70350000Y-40962500D03*
%TD*%
D13*
%TO.C,R33*%
X71150000Y-44500000D03*
X72150000Y-44500000D03*
%TD*%
%TO.C,R22*%
X71200000Y-34500000D03*
X72200000Y-34500000D03*
%TD*%
D11*
%TO.C,Q118*%
X80550000Y-98037500D03*
X82450000Y-98037500D03*
X81500000Y-96162500D03*
%TD*%
%TO.C,Q4*%
X59600000Y-46037500D03*
X61500000Y-46037500D03*
X60550000Y-44162500D03*
%TD*%
D13*
%TO.C,R18*%
X75400000Y-34500000D03*
X76400000Y-34500000D03*
%TD*%
D11*
%TO.C,Q81*%
X80550000Y-62837500D03*
X82450000Y-62837500D03*
X81500000Y-60962500D03*
%TD*%
D12*
%TO.C,R23*%
X74300000Y-34500000D03*
X73300000Y-34500000D03*
%TD*%
D11*
%TO.C,Q8*%
X63350000Y-56037500D03*
X65250000Y-56037500D03*
X64300000Y-54162500D03*
%TD*%
D13*
%TO.C,R62*%
X75400000Y-74500000D03*
X76400000Y-74500000D03*
%TD*%
D11*
%TO.C,Q88*%
X80550000Y-78037500D03*
X82450000Y-78037500D03*
X81500000Y-76162500D03*
%TD*%
%TO.C,Q133*%
X80575000Y-108037500D03*
X82475000Y-108037500D03*
X81525000Y-106162500D03*
%TD*%
%TO.C,Q129*%
X91650000Y-92837500D03*
X93550000Y-92837500D03*
X92600000Y-90962500D03*
%TD*%
%TO.C,Q97*%
X84250000Y-72837500D03*
X86150000Y-72837500D03*
X85200000Y-70962500D03*
%TD*%
D12*
%TO.C,R68*%
X79100000Y-74500000D03*
X78100000Y-74500000D03*
%TD*%
D11*
%TO.C,Q66*%
X80550000Y-52837500D03*
X82450000Y-52837500D03*
X81500000Y-50962500D03*
%TD*%
%TO.C,Q35*%
X76850000Y-32837500D03*
X78750000Y-32837500D03*
X77800000Y-30962500D03*
%TD*%
D12*
%TO.C,R86*%
X90700000Y-94500000D03*
X89700000Y-94500000D03*
%TD*%
D11*
%TO.C,Q61*%
X91650000Y-58037500D03*
X93550000Y-58037500D03*
X92600000Y-56162500D03*
%TD*%
D13*
%TO.C,R91*%
X80200000Y-94500000D03*
X81200000Y-94500000D03*
%TD*%
D12*
%TO.C,R56*%
X74300000Y-64500000D03*
X73300000Y-64500000D03*
%TD*%
D11*
%TO.C,Q7*%
X59650000Y-56037500D03*
X61550000Y-56037500D03*
X60600000Y-54162500D03*
%TD*%
%TO.C,Q26*%
X73150000Y-38037500D03*
X75050000Y-38037500D03*
X74100000Y-36162500D03*
%TD*%
%TO.C,Q116*%
X73150000Y-98037500D03*
X75050000Y-98037500D03*
X74100000Y-96162500D03*
%TD*%
%TO.C,Q39*%
X91650000Y-32837500D03*
X93550000Y-32837500D03*
X92600000Y-30962500D03*
%TD*%
D12*
%TO.C,R54*%
X96000000Y-64500000D03*
X95000000Y-64500000D03*
%TD*%
D11*
%TO.C,Q104*%
X84250000Y-88037500D03*
X86150000Y-88037500D03*
X85200000Y-86162500D03*
%TD*%
%TO.C,Q138*%
X69450000Y-102837500D03*
X71350000Y-102837500D03*
X70400000Y-100962500D03*
%TD*%
D12*
%TO.C,R42*%
X90700000Y-54500000D03*
X89700000Y-54500000D03*
%TD*%
D13*
%TO.C,R29*%
X75350000Y-44500000D03*
X76350000Y-44500000D03*
%TD*%
D11*
%TO.C,Q2*%
X63350000Y-36037500D03*
X65250000Y-36037500D03*
X64300000Y-34162500D03*
%TD*%
D12*
%TO.C,R130*%
X122900000Y-42800000D03*
X123900000Y-42800000D03*
%TD*%
D10*
%TO.C,Q277*%
X125300000Y-42137500D03*
X124350000Y-40262500D03*
X126250000Y-40262500D03*
%TD*%
%TO.C,Q283*%
X121500000Y-54737500D03*
X120550000Y-52862500D03*
X122450000Y-52862500D03*
%TD*%
D13*
%TO.C,R129*%
X123900000Y-47000000D03*
X122900000Y-47000000D03*
%TD*%
D12*
%TO.C,R121*%
X123700000Y-33600000D03*
X124700000Y-33600000D03*
%TD*%
%TO.C,R122*%
X123700000Y-32400000D03*
X124700000Y-32400000D03*
%TD*%
%TO.C,R132*%
X122900000Y-51200000D03*
X123900000Y-51200000D03*
%TD*%
D10*
%TO.C,Q281*%
X125300000Y-46337500D03*
X124350000Y-44462500D03*
X126250000Y-44462500D03*
%TD*%
%TO.C,Q278*%
X121500000Y-42137500D03*
X120550000Y-40262500D03*
X122450000Y-40262500D03*
%TD*%
%TO.C,Q284*%
X121500000Y-50537500D03*
X120550000Y-48662500D03*
X122450000Y-48662500D03*
%TD*%
%TO.C,Q285*%
X121500000Y-46337500D03*
X120550000Y-44462500D03*
X122450000Y-44462500D03*
%TD*%
D13*
%TO.C,R131*%
X123900000Y-38600000D03*
X122900000Y-38600000D03*
%TD*%
D10*
%TO.C,Q282*%
X125300000Y-37937500D03*
X124350000Y-36062500D03*
X126250000Y-36062500D03*
%TD*%
%TO.C,Q286*%
X125300000Y-58937500D03*
X124350000Y-57062500D03*
X126250000Y-57062500D03*
%TD*%
%TO.C,Q279*%
X125300000Y-54737500D03*
X124350000Y-52862500D03*
X126250000Y-52862500D03*
%TD*%
%TO.C,Q280*%
X125300000Y-50537500D03*
X124350000Y-48662500D03*
X126250000Y-48662500D03*
%TD*%
D13*
%TO.C,R133*%
X124000000Y-55400000D03*
X123000000Y-55400000D03*
%TD*%
D15*
%TO.C,J8*%
X139000000Y-64100000D03*
D16*
X139000000Y-61600000D03*
X139000000Y-59100000D03*
X139000000Y-56600000D03*
X139000000Y-54100000D03*
X139000000Y-51600000D03*
X139000000Y-49100000D03*
X139000000Y-46600000D03*
X139000000Y-44100000D03*
X139000000Y-41600000D03*
X139000000Y-39100000D03*
X139000000Y-36600000D03*
X139000000Y-34100000D03*
X139000000Y-31600000D03*
%TD*%
D17*
%TO.C,R149*%
X54580000Y-30900000D03*
X56220000Y-30900000D03*
%TD*%
D18*
%TO.C,Q236*%
X134662500Y-114350000D03*
X134662500Y-116250000D03*
X136537500Y-115300000D03*
%TD*%
D19*
%TO.C,D3*%
X54710000Y-103000000D03*
X56290000Y-103000000D03*
%TD*%
D17*
%TO.C,R145*%
X54580000Y-76600000D03*
X56220000Y-76600000D03*
%TD*%
D20*
%TO.C,J3*%
X47900000Y-111650000D03*
D21*
X47900000Y-110400000D03*
X47900000Y-109150000D03*
X47900000Y-107900000D03*
X47900000Y-106650000D03*
X47900000Y-105400000D03*
X47900000Y-104150000D03*
X47900000Y-102900000D03*
%TD*%
D17*
%TO.C,R152*%
X54580000Y-41700000D03*
X56220000Y-41700000D03*
%TD*%
D18*
%TO.C,Q174*%
X134662500Y-122350000D03*
X134662500Y-124250000D03*
X136537500Y-123300000D03*
%TD*%
%TO.C,Q192*%
X122062500Y-98350000D03*
X122062500Y-100250000D03*
X123937500Y-99300000D03*
%TD*%
%TO.C,Q215*%
X122062500Y-86650000D03*
X122062500Y-88550000D03*
X123937500Y-87600000D03*
%TD*%
%TO.C,Q149*%
X130462500Y-78650000D03*
X130462500Y-80550000D03*
X132337500Y-79600000D03*
%TD*%
%TO.C,Q198*%
X130462500Y-106350000D03*
X130462500Y-108250000D03*
X132337500Y-107300000D03*
%TD*%
%TO.C,Q249*%
X84162500Y-114150000D03*
X84162500Y-116050000D03*
X86037500Y-115100000D03*
%TD*%
D19*
%TO.C,D14*%
X54710000Y-82300000D03*
X56290000Y-82300000D03*
%TD*%
D18*
%TO.C,Q312*%
X130062500Y-29750000D03*
X130062500Y-31650000D03*
X131937500Y-30700000D03*
%TD*%
%TO.C,Q162*%
X138862500Y-82350000D03*
X138862500Y-84250000D03*
X140737500Y-83300000D03*
%TD*%
D17*
%TO.C,R143*%
X54580000Y-69200000D03*
X56220000Y-69200000D03*
%TD*%
D18*
%TO.C,Q167*%
X122062500Y-118650000D03*
X122062500Y-120550000D03*
X123937500Y-119600000D03*
%TD*%
%TO.C,Q239*%
X63162500Y-114150000D03*
X63162500Y-116050000D03*
X65037500Y-115100000D03*
%TD*%
D19*
%TO.C,D11*%
X54710000Y-71200000D03*
X56290000Y-71200000D03*
%TD*%
D17*
%TO.C,R150*%
X54580000Y-34300000D03*
X56220000Y-34300000D03*
%TD*%
D18*
%TO.C,Q275*%
X50762500Y-104850000D03*
X50762500Y-106750000D03*
X52637500Y-105800000D03*
%TD*%
D12*
%TO.C,R125*%
X109000000Y-39700000D03*
X108000000Y-39700000D03*
%TD*%
D19*
%TO.C,D13*%
X54710000Y-78600000D03*
X56290000Y-78600000D03*
%TD*%
%TO.C,D34*%
X134010000Y-66700000D03*
X135590000Y-66700000D03*
%TD*%
D18*
%TO.C,Q175*%
X138862500Y-118650000D03*
X138862500Y-120550000D03*
X140737500Y-119600000D03*
%TD*%
D19*
%TO.C,D21*%
X54710000Y-47400000D03*
X56290000Y-47400000D03*
%TD*%
D18*
%TO.C,Q243*%
X71562500Y-114150000D03*
X71562500Y-116050000D03*
X73437500Y-115100000D03*
%TD*%
D12*
%TO.C,R116*%
X76100000Y-112700000D03*
X75100000Y-112700000D03*
%TD*%
D18*
%TO.C,Q311*%
X130062500Y-57450000D03*
X130062500Y-59350000D03*
X131937500Y-58400000D03*
%TD*%
D19*
%TO.C,D15*%
X54710000Y-86000000D03*
X56290000Y-86000000D03*
%TD*%
D18*
%TO.C,Q240*%
X63162500Y-117850000D03*
X63162500Y-119750000D03*
X65037500Y-118800000D03*
%TD*%
D19*
%TO.C,D22*%
X54710000Y-51100000D03*
X56290000Y-51100000D03*
%TD*%
%TO.C,D8*%
X54710000Y-121500000D03*
X56290000Y-121500000D03*
%TD*%
D18*
%TO.C,Q219*%
X130462500Y-86650000D03*
X130462500Y-88550000D03*
X132337500Y-87600000D03*
%TD*%
%TO.C,Q295*%
X50762500Y-65650000D03*
X50762500Y-67550000D03*
X52637500Y-66600000D03*
%TD*%
%TO.C,Q168*%
X122062500Y-122375000D03*
X122062500Y-124275000D03*
X123937500Y-123325000D03*
%TD*%
D19*
%TO.C,D25*%
X134010000Y-55600000D03*
X135590000Y-55600000D03*
%TD*%
D17*
%TO.C,R168*%
X139480000Y-72700000D03*
X141120000Y-72700000D03*
%TD*%
D18*
%TO.C,Q155*%
X109462500Y-82350000D03*
X109462500Y-84250000D03*
X111337500Y-83300000D03*
%TD*%
%TO.C,Q190*%
X122062500Y-106350000D03*
X122062500Y-108250000D03*
X123937500Y-107300000D03*
%TD*%
D20*
%TO.C,J1*%
X47900000Y-48875000D03*
D21*
X47900000Y-47625000D03*
X47900000Y-46375000D03*
X47900000Y-45125000D03*
X47900000Y-43875000D03*
X47900000Y-42625000D03*
X47900000Y-41375000D03*
X47900000Y-40125000D03*
%TD*%
D18*
%TO.C,Q245*%
X75762500Y-114150000D03*
X75762500Y-116050000D03*
X77637500Y-115100000D03*
%TD*%
D17*
%TO.C,R160*%
X133880000Y-33300000D03*
X135520000Y-33300000D03*
%TD*%
D18*
%TO.C,Q266*%
X108462500Y-34750000D03*
X108462500Y-36650000D03*
X110337500Y-35700000D03*
%TD*%
%TO.C,Q232*%
X126262500Y-114350000D03*
X126262500Y-116250000D03*
X128137500Y-115300000D03*
%TD*%
D17*
%TO.C,R161*%
X133880000Y-37000000D03*
X135520000Y-37000000D03*
%TD*%
D19*
%TO.C,D6*%
X54710000Y-114100000D03*
X56290000Y-114100000D03*
%TD*%
D18*
%TO.C,Q209*%
X109462500Y-86650000D03*
X109462500Y-88550000D03*
X111337500Y-87600000D03*
%TD*%
%TO.C,Q314*%
X130062500Y-37150000D03*
X130062500Y-39050000D03*
X131937500Y-38100000D03*
%TD*%
%TO.C,Q252*%
X88362500Y-117850000D03*
X88362500Y-119750000D03*
X90237500Y-118800000D03*
%TD*%
D17*
%TO.C,R162*%
X133880000Y-40700000D03*
X135520000Y-40700000D03*
%TD*%
D18*
%TO.C,Q234*%
X130462500Y-114350000D03*
X130462500Y-116250000D03*
X132337500Y-115300000D03*
%TD*%
%TO.C,Q241*%
X67362500Y-114150000D03*
X67362500Y-116050000D03*
X69237500Y-115100000D03*
%TD*%
D19*
%TO.C,D35*%
X134010000Y-70400000D03*
X135590000Y-70400000D03*
%TD*%
D18*
%TO.C,Q204*%
X134662500Y-98350000D03*
X134662500Y-100250000D03*
X136537500Y-99300000D03*
%TD*%
%TO.C,Q263*%
X113462500Y-38450000D03*
X113462500Y-40350000D03*
X115337500Y-39400000D03*
%TD*%
%TO.C,Q310*%
X130062500Y-53750000D03*
X130062500Y-55650000D03*
X131937500Y-54700000D03*
%TD*%
%TO.C,Q188*%
X117862500Y-98350000D03*
X117862500Y-100250000D03*
X119737500Y-99300000D03*
%TD*%
D12*
%TO.C,R123*%
X118300000Y-39700000D03*
X117300000Y-39700000D03*
%TD*%
D11*
%TO.C,Q288*%
X83550000Y-124237500D03*
X85450000Y-124237500D03*
X84500000Y-122362500D03*
%TD*%
D17*
%TO.C,R141*%
X54580000Y-62100000D03*
X56220000Y-62100000D03*
%TD*%
D19*
%TO.C,D1*%
X54710000Y-99300000D03*
X56290000Y-99300000D03*
%TD*%
%TO.C,D16*%
X54710000Y-89700000D03*
X56290000Y-89700000D03*
%TD*%
D18*
%TO.C,Q206*%
X138862500Y-106350000D03*
X138862500Y-108250000D03*
X140737500Y-107300000D03*
%TD*%
D13*
%TO.C,R114*%
X68800000Y-112700000D03*
X69800000Y-112700000D03*
%TD*%
D18*
%TO.C,Q199*%
X130462500Y-94650000D03*
X130462500Y-96550000D03*
X132337500Y-95600000D03*
%TD*%
%TO.C,Q214*%
X117862500Y-90350000D03*
X117862500Y-92250000D03*
X119737500Y-91300000D03*
%TD*%
%TO.C,Q223*%
X138862500Y-86650000D03*
X138862500Y-88550000D03*
X140737500Y-87600000D03*
%TD*%
D12*
%TO.C,R115*%
X71900000Y-112700000D03*
X70900000Y-112700000D03*
%TD*%
D18*
%TO.C,Q177*%
X109462500Y-102650000D03*
X109462500Y-104550000D03*
X111337500Y-103600000D03*
%TD*%
%TO.C,Q185*%
X117862500Y-102650000D03*
X117862500Y-104550000D03*
X119737500Y-103600000D03*
%TD*%
D22*
%TO.C,R127*%
X62700000Y-123800000D03*
X62700000Y-122800000D03*
%TD*%
D18*
%TO.C,Q218*%
X126262500Y-90350000D03*
X126262500Y-92250000D03*
X128137500Y-91300000D03*
%TD*%
D17*
%TO.C,R136*%
X54580000Y-104700000D03*
X56220000Y-104700000D03*
%TD*%
D13*
%TO.C,R109*%
X81400000Y-112700000D03*
X82400000Y-112700000D03*
%TD*%
D18*
%TO.C,Q308*%
X50762500Y-52950000D03*
X50762500Y-54850000D03*
X52637500Y-53900000D03*
%TD*%
%TO.C,Q313*%
X130062500Y-33450000D03*
X130062500Y-35350000D03*
X131937500Y-34400000D03*
%TD*%
%TO.C,Q182*%
X113662500Y-106350000D03*
X113662500Y-108250000D03*
X115537500Y-107300000D03*
%TD*%
%TO.C,Q216*%
X122062500Y-90350000D03*
X122062500Y-92250000D03*
X123937500Y-91300000D03*
%TD*%
D11*
%TO.C,Q268*%
X64550000Y-124237500D03*
X66450000Y-124237500D03*
X65500000Y-122362500D03*
%TD*%
D18*
%TO.C,Q300*%
X50762500Y-84150000D03*
X50762500Y-86050000D03*
X52637500Y-85100000D03*
%TD*%
%TO.C,Q233*%
X130462500Y-110650000D03*
X130462500Y-112550000D03*
X132337500Y-111600000D03*
%TD*%
D12*
%TO.C,R118*%
X84500000Y-112700000D03*
X83500000Y-112700000D03*
%TD*%
D17*
%TO.C,R166*%
X133880000Y-64700000D03*
X135520000Y-64700000D03*
%TD*%
D18*
%TO.C,Q296*%
X50762500Y-69350000D03*
X50762500Y-71250000D03*
X52637500Y-70300000D03*
%TD*%
D19*
%TO.C,D17*%
X54710000Y-32600000D03*
X56290000Y-32600000D03*
%TD*%
D17*
%TO.C,R156*%
X54580000Y-56500000D03*
X56220000Y-56500000D03*
%TD*%
D18*
%TO.C,Q247*%
X79962500Y-114150000D03*
X79962500Y-116050000D03*
X81837500Y-115100000D03*
%TD*%
%TO.C,Q264*%
X117762500Y-34750000D03*
X117762500Y-36650000D03*
X119637500Y-35700000D03*
%TD*%
D12*
%TO.C,R117*%
X80300000Y-112700000D03*
X79300000Y-112700000D03*
%TD*%
D19*
%TO.C,D36*%
X139710000Y-70700000D03*
X141290000Y-70700000D03*
%TD*%
D18*
%TO.C,Q205*%
X138862500Y-102650000D03*
X138862500Y-104550000D03*
X140737500Y-103600000D03*
%TD*%
D17*
%TO.C,R128*%
X54580000Y-93900000D03*
X56220000Y-93900000D03*
%TD*%
D18*
%TO.C,Q221*%
X134662500Y-86650000D03*
X134662500Y-88550000D03*
X136537500Y-87600000D03*
%TD*%
D19*
%TO.C,D27*%
X134010000Y-31600000D03*
X135590000Y-31600000D03*
%TD*%
D17*
%TO.C,R155*%
X54580000Y-52900000D03*
X56220000Y-52900000D03*
%TD*%
D18*
%TO.C,Q154*%
X109462500Y-78650000D03*
X109462500Y-80550000D03*
X111337500Y-79600000D03*
%TD*%
%TO.C,Q158*%
X122062500Y-82350000D03*
X122062500Y-84250000D03*
X123937500Y-83300000D03*
%TD*%
%TO.C,Q262*%
X113462500Y-34750000D03*
X113462500Y-36650000D03*
X115337500Y-35700000D03*
%TD*%
D17*
%TO.C,R158*%
X133880000Y-57300000D03*
X135520000Y-57300000D03*
%TD*%
%TO.C,R163*%
X133880000Y-44400000D03*
X135520000Y-44400000D03*
%TD*%
D10*
%TO.C,Q260*%
X104250000Y-29762500D03*
X102350000Y-29762500D03*
X103300000Y-31637500D03*
%TD*%
D19*
%TO.C,D28*%
X134010000Y-35300000D03*
X135590000Y-35300000D03*
%TD*%
D18*
%TO.C,Q170*%
X126262500Y-122350000D03*
X126262500Y-124250000D03*
X128137500Y-123300000D03*
%TD*%
%TO.C,Q217*%
X126262500Y-86650000D03*
X126262500Y-88550000D03*
X128137500Y-87600000D03*
%TD*%
%TO.C,Q304*%
X50762500Y-38150000D03*
X50762500Y-40050000D03*
X52637500Y-39100000D03*
%TD*%
%TO.C,Q213*%
X117862500Y-86650000D03*
X117862500Y-88550000D03*
X119737500Y-87600000D03*
%TD*%
D12*
%TO.C,R120*%
X92900000Y-112700000D03*
X91900000Y-112700000D03*
%TD*%
D18*
%TO.C,Q244*%
X71562500Y-117850000D03*
X71562500Y-119750000D03*
X73437500Y-118800000D03*
%TD*%
%TO.C,Q161*%
X134662500Y-82350000D03*
X134662500Y-84250000D03*
X136537500Y-83300000D03*
%TD*%
%TO.C,Q159*%
X126262500Y-82350000D03*
X126262500Y-84250000D03*
X128137500Y-83300000D03*
%TD*%
%TO.C,Q225*%
X113662500Y-110650000D03*
X113662500Y-112550000D03*
X115537500Y-111600000D03*
%TD*%
D17*
%TO.C,R159*%
X133880000Y-29900000D03*
X135520000Y-29900000D03*
%TD*%
D19*
%TO.C,D33*%
X134010000Y-63000000D03*
X135590000Y-63000000D03*
%TD*%
D18*
%TO.C,Q227*%
X117862500Y-110650000D03*
X117862500Y-112550000D03*
X119737500Y-111600000D03*
%TD*%
D12*
%TO.C,R124*%
X118300000Y-38300000D03*
X117300000Y-38300000D03*
%TD*%
D18*
%TO.C,Q231*%
X126262500Y-110650000D03*
X126262500Y-112550000D03*
X128137500Y-111600000D03*
%TD*%
%TO.C,Q147*%
X138862500Y-78650000D03*
X138862500Y-80550000D03*
X140737500Y-79600000D03*
%TD*%
%TO.C,Q299*%
X50762500Y-80450000D03*
X50762500Y-82350000D03*
X52637500Y-81400000D03*
%TD*%
%TO.C,Q145*%
X109462500Y-118650000D03*
X109462500Y-120550000D03*
X111337500Y-119600000D03*
%TD*%
D11*
%TO.C,Q287*%
X79750000Y-124237500D03*
X81650000Y-124237500D03*
X80700000Y-122362500D03*
%TD*%
D18*
%TO.C,Q200*%
X130462500Y-98350000D03*
X130462500Y-100250000D03*
X132337500Y-99300000D03*
%TD*%
%TO.C,Q226*%
X113662500Y-114350000D03*
X113662500Y-116250000D03*
X115537500Y-115300000D03*
%TD*%
%TO.C,Q184*%
X113662500Y-98350000D03*
X113662500Y-100250000D03*
X115537500Y-99300000D03*
%TD*%
D17*
%TO.C,R146*%
X54580000Y-80300000D03*
X56220000Y-80300000D03*
%TD*%
D18*
%TO.C,Q165*%
X117862500Y-118650000D03*
X117862500Y-120550000D03*
X119737500Y-119600000D03*
%TD*%
D17*
%TO.C,R137*%
X54580000Y-108400000D03*
X56220000Y-108400000D03*
%TD*%
D11*
%TO.C,Q271*%
X75950000Y-124237500D03*
X77850000Y-124237500D03*
X76900000Y-122362500D03*
%TD*%
D18*
%TO.C,Q317*%
X130062500Y-48250000D03*
X130062500Y-50150000D03*
X131937500Y-49200000D03*
%TD*%
%TO.C,Q166*%
X117862500Y-122350000D03*
X117862500Y-124250000D03*
X119737500Y-123300000D03*
%TD*%
D19*
%TO.C,D19*%
X54710000Y-40000000D03*
X56290000Y-40000000D03*
%TD*%
D17*
%TO.C,R142*%
X54580000Y-65500000D03*
X56220000Y-65500000D03*
%TD*%
D18*
%TO.C,Q164*%
X113662500Y-122350000D03*
X113662500Y-124250000D03*
X115537500Y-123300000D03*
%TD*%
D13*
%TO.C,R108*%
X77200000Y-112700000D03*
X78200000Y-112700000D03*
%TD*%
D19*
%TO.C,D24*%
X54710000Y-58500000D03*
X56290000Y-58500000D03*
%TD*%
D18*
%TO.C,Q238*%
X138862500Y-114350000D03*
X138862500Y-116250000D03*
X140737500Y-115300000D03*
%TD*%
%TO.C,Q229*%
X122062500Y-110650000D03*
X122062500Y-112550000D03*
X123937500Y-111600000D03*
%TD*%
%TO.C,Q208*%
X138862500Y-98350000D03*
X138862500Y-100250000D03*
X140737500Y-99300000D03*
%TD*%
%TO.C,Q194*%
X126262500Y-106350000D03*
X126262500Y-108250000D03*
X128137500Y-107300000D03*
%TD*%
D19*
%TO.C,D4*%
X54710000Y-106700000D03*
X56290000Y-106700000D03*
%TD*%
D18*
%TO.C,Q157*%
X117862500Y-82350000D03*
X117862500Y-84250000D03*
X119737500Y-83300000D03*
%TD*%
%TO.C,Q183*%
X113662500Y-94650000D03*
X113662500Y-96550000D03*
X115537500Y-95600000D03*
%TD*%
%TO.C,Q254*%
X92562500Y-117850000D03*
X92562500Y-119750000D03*
X94437500Y-118800000D03*
%TD*%
%TO.C,Q171*%
X130462500Y-118650000D03*
X130462500Y-120550000D03*
X132337500Y-119600000D03*
%TD*%
D17*
%TO.C,R157*%
X133880000Y-53900000D03*
X135520000Y-53900000D03*
%TD*%
D13*
%TO.C,R112*%
X94000000Y-112700000D03*
X95000000Y-112700000D03*
%TD*%
%TO.C,R107*%
X73000000Y-112700000D03*
X74000000Y-112700000D03*
%TD*%
%TO.C,R113*%
X64600000Y-112700000D03*
X65600000Y-112700000D03*
%TD*%
D18*
%TO.C,Q298*%
X50762500Y-76750000D03*
X50762500Y-78650000D03*
X52637500Y-77700000D03*
%TD*%
%TO.C,Q248*%
X79962500Y-117850000D03*
X79962500Y-119750000D03*
X81837500Y-118800000D03*
%TD*%
%TO.C,Q272*%
X50762500Y-93750000D03*
X50762500Y-95650000D03*
X52637500Y-94700000D03*
%TD*%
%TO.C,Q222*%
X134662500Y-90350000D03*
X134662500Y-92250000D03*
X136537500Y-91300000D03*
%TD*%
%TO.C,Q196*%
X126262500Y-98350000D03*
X126262500Y-100250000D03*
X128137500Y-99300000D03*
%TD*%
%TO.C,Q265*%
X104162500Y-38450000D03*
X104162500Y-40350000D03*
X106037500Y-39400000D03*
%TD*%
%TO.C,Q146*%
X109462500Y-122375000D03*
X109462500Y-124275000D03*
X111337500Y-123325000D03*
%TD*%
D17*
%TO.C,R134*%
X54580000Y-97300000D03*
X56220000Y-97300000D03*
%TD*%
D18*
%TO.C,Q302*%
X50762500Y-30750000D03*
X50762500Y-32650000D03*
X52637500Y-31700000D03*
%TD*%
%TO.C,Q307*%
X50762500Y-49250000D03*
X50762500Y-51150000D03*
X52637500Y-50200000D03*
%TD*%
D19*
%TO.C,D32*%
X134010000Y-50100000D03*
X135590000Y-50100000D03*
%TD*%
%TO.C,D10*%
X54710000Y-67500000D03*
X56290000Y-67500000D03*
%TD*%
D13*
%TO.C,R110*%
X85600000Y-112700000D03*
X86600000Y-112700000D03*
%TD*%
D18*
%TO.C,Q319*%
X129862500Y-64650000D03*
X129862500Y-66550000D03*
X131737500Y-65600000D03*
%TD*%
D19*
%TO.C,D31*%
X134010000Y-46400000D03*
X135590000Y-46400000D03*
%TD*%
D18*
%TO.C,Q151*%
X122062500Y-78650000D03*
X122062500Y-80550000D03*
X123937500Y-79600000D03*
%TD*%
%TO.C,Q211*%
X113662500Y-86650000D03*
X113662500Y-88550000D03*
X115537500Y-87600000D03*
%TD*%
%TO.C,Q189*%
X122062500Y-102650000D03*
X122062500Y-104550000D03*
X123937500Y-103600000D03*
%TD*%
D17*
%TO.C,R151*%
X54580000Y-38000000D03*
X56220000Y-38000000D03*
%TD*%
%TO.C,R135*%
X54580000Y-101000000D03*
X56220000Y-101000000D03*
%TD*%
D18*
%TO.C,Q201*%
X134662500Y-102650000D03*
X134662500Y-104550000D03*
X136537500Y-103600000D03*
%TD*%
%TO.C,Q207*%
X138862500Y-94650000D03*
X138862500Y-96550000D03*
X140737500Y-95600000D03*
%TD*%
D17*
%TO.C,R153*%
X54580000Y-45400000D03*
X56220000Y-45400000D03*
%TD*%
D18*
%TO.C,Q163*%
X113662500Y-118650000D03*
X113662500Y-120550000D03*
X115537500Y-119600000D03*
%TD*%
%TO.C,Q242*%
X67362500Y-117850000D03*
X67362500Y-119750000D03*
X69237500Y-118800000D03*
%TD*%
%TO.C,Q305*%
X50762500Y-41850000D03*
X50762500Y-43750000D03*
X52637500Y-42800000D03*
%TD*%
%TO.C,Q292*%
X50762500Y-115950000D03*
X50762500Y-117850000D03*
X52637500Y-116900000D03*
%TD*%
D11*
%TO.C,Q269*%
X68350000Y-124237500D03*
X70250000Y-124237500D03*
X69300000Y-122362500D03*
%TD*%
D18*
%TO.C,Q276*%
X50762500Y-108550000D03*
X50762500Y-110450000D03*
X52637500Y-109500000D03*
%TD*%
%TO.C,Q210*%
X109462500Y-90350000D03*
X109462500Y-92250000D03*
X111337500Y-91300000D03*
%TD*%
%TO.C,Q191*%
X122062500Y-94650000D03*
X122062500Y-96550000D03*
X123937500Y-95600000D03*
%TD*%
%TO.C,Q203*%
X134562500Y-94650000D03*
X134562500Y-96550000D03*
X136437500Y-95600000D03*
%TD*%
%TO.C,Q297*%
X50762500Y-73050000D03*
X50762500Y-74950000D03*
X52637500Y-74000000D03*
%TD*%
D12*
%TO.C,R126*%
X109000000Y-38300000D03*
X108000000Y-38300000D03*
%TD*%
D19*
%TO.C,D9*%
X54710000Y-63800000D03*
X56290000Y-63800000D03*
%TD*%
%TO.C,D5*%
X54710000Y-110400000D03*
X56290000Y-110400000D03*
%TD*%
D18*
%TO.C,Q152*%
X117862500Y-78650000D03*
X117862500Y-80550000D03*
X119737500Y-79600000D03*
%TD*%
%TO.C,Q180*%
X109462500Y-98350000D03*
X109462500Y-100250000D03*
X111337500Y-99300000D03*
%TD*%
D13*
%TO.C,R111*%
X89800000Y-112700000D03*
X90800000Y-112700000D03*
%TD*%
D18*
%TO.C,Q212*%
X113662500Y-90350000D03*
X113662500Y-92250000D03*
X115537500Y-91300000D03*
%TD*%
%TO.C,Q237*%
X138862500Y-110650000D03*
X138862500Y-112550000D03*
X140737500Y-111600000D03*
%TD*%
D17*
%TO.C,R147*%
X54580000Y-84000000D03*
X56220000Y-84000000D03*
%TD*%
D18*
%TO.C,Q274*%
X50762500Y-101150000D03*
X50762500Y-103050000D03*
X52637500Y-102100000D03*
%TD*%
D19*
%TO.C,D7*%
X54710000Y-117800000D03*
X56290000Y-117800000D03*
%TD*%
D18*
%TO.C,Q309*%
X50762500Y-56650000D03*
X50762500Y-58550000D03*
X52637500Y-57600000D03*
%TD*%
%TO.C,Q250*%
X84162500Y-117850000D03*
X84162500Y-119750000D03*
X86037500Y-118800000D03*
%TD*%
D19*
%TO.C,D18*%
X54710000Y-36300000D03*
X56290000Y-36300000D03*
%TD*%
D18*
%TO.C,Q235*%
X134662500Y-110650000D03*
X134662500Y-112550000D03*
X136537500Y-111600000D03*
%TD*%
%TO.C,Q267*%
X104162500Y-34750000D03*
X104162500Y-36650000D03*
X106037500Y-35700000D03*
%TD*%
D17*
%TO.C,R139*%
X54580000Y-115800000D03*
X56220000Y-115800000D03*
%TD*%
D18*
%TO.C,Q228*%
X117862500Y-114350000D03*
X117862500Y-116250000D03*
X119737500Y-115300000D03*
%TD*%
%TO.C,Q318*%
X130062500Y-60950000D03*
X130062500Y-62850000D03*
X131937500Y-61900000D03*
%TD*%
%TO.C,Q160*%
X130462500Y-82350000D03*
X130462500Y-84250000D03*
X132337500Y-83300000D03*
%TD*%
D12*
%TO.C,R105*%
X63500000Y-112700000D03*
X62500000Y-112700000D03*
%TD*%
D18*
%TO.C,Q230*%
X122062500Y-114350000D03*
X122062500Y-116250000D03*
X123937500Y-115300000D03*
%TD*%
%TO.C,Q294*%
X50762500Y-61950000D03*
X50762500Y-63850000D03*
X52637500Y-62900000D03*
%TD*%
%TO.C,Q153*%
X113662500Y-78650000D03*
X113662500Y-80550000D03*
X115537500Y-79600000D03*
%TD*%
D19*
%TO.C,D2*%
X54710000Y-95600000D03*
X56290000Y-95600000D03*
%TD*%
%TO.C,D20*%
X54710000Y-43700000D03*
X56290000Y-43700000D03*
%TD*%
D17*
%TO.C,R148*%
X54580000Y-87700000D03*
X56220000Y-87700000D03*
%TD*%
D18*
%TO.C,Q195*%
X126162500Y-94650000D03*
X126162500Y-96550000D03*
X128037500Y-95600000D03*
%TD*%
%TO.C,Q156*%
X113662500Y-82350000D03*
X113662500Y-84250000D03*
X115537500Y-83300000D03*
%TD*%
%TO.C,Q187*%
X117862500Y-94650000D03*
X117862500Y-96550000D03*
X119737500Y-95600000D03*
%TD*%
%TO.C,Q173*%
X134662500Y-118650000D03*
X134662500Y-120550000D03*
X136537500Y-119600000D03*
%TD*%
%TO.C,Q301*%
X50762500Y-87850000D03*
X50762500Y-89750000D03*
X52637500Y-88800000D03*
%TD*%
%TO.C,Q193*%
X126262500Y-102650000D03*
X126262500Y-104550000D03*
X128137500Y-103600000D03*
%TD*%
D19*
%TO.C,D23*%
X54710000Y-54800000D03*
X56290000Y-54800000D03*
%TD*%
D11*
%TO.C,Q289*%
X87350000Y-124237500D03*
X89250000Y-124237500D03*
X88300000Y-122362500D03*
%TD*%
D12*
%TO.C,R119*%
X88700000Y-112700000D03*
X87700000Y-112700000D03*
%TD*%
D17*
%TO.C,R144*%
X54580000Y-72900000D03*
X56220000Y-72900000D03*
%TD*%
D18*
%TO.C,Q148*%
X134662500Y-78650000D03*
X134662500Y-80550000D03*
X136537500Y-79600000D03*
%TD*%
D11*
%TO.C,Q270*%
X72150000Y-124237500D03*
X74050000Y-124237500D03*
X73100000Y-122362500D03*
%TD*%
D17*
%TO.C,R165*%
X133880000Y-61000000D03*
X135520000Y-61000000D03*
%TD*%
D18*
%TO.C,Q150*%
X126262500Y-78650000D03*
X126262500Y-80550000D03*
X128137500Y-79600000D03*
%TD*%
%TO.C,Q316*%
X130062500Y-44550000D03*
X130062500Y-46450000D03*
X131937500Y-45500000D03*
%TD*%
%TO.C,Q179*%
X109462500Y-94650000D03*
X109462500Y-96550000D03*
X111337500Y-95600000D03*
%TD*%
D12*
%TO.C,R106*%
X67700000Y-112700000D03*
X66700000Y-112700000D03*
%TD*%
D18*
%TO.C,Q169*%
X126262500Y-118650000D03*
X126262500Y-120550000D03*
X128137500Y-119600000D03*
%TD*%
%TO.C,Q320*%
X129862500Y-68350000D03*
X129862500Y-70250000D03*
X131737500Y-69300000D03*
%TD*%
%TO.C,Q181*%
X113662500Y-102650000D03*
X113662500Y-104550000D03*
X115537500Y-103600000D03*
%TD*%
%TO.C,Q224*%
X138862500Y-90350000D03*
X138862500Y-92250000D03*
X140737500Y-91300000D03*
%TD*%
D19*
%TO.C,D26*%
X134010000Y-59300000D03*
X135590000Y-59300000D03*
%TD*%
D17*
%TO.C,R138*%
X54580000Y-112100000D03*
X56220000Y-112100000D03*
%TD*%
D18*
%TO.C,Q172*%
X130462500Y-122350000D03*
X130462500Y-124250000D03*
X132337500Y-123300000D03*
%TD*%
D17*
%TO.C,R167*%
X133880000Y-68400000D03*
X135520000Y-68400000D03*
%TD*%
D11*
%TO.C,Q290*%
X91150000Y-124237500D03*
X93050000Y-124237500D03*
X92100000Y-122362500D03*
%TD*%
D18*
%TO.C,Q186*%
X117862500Y-106350000D03*
X117862500Y-108250000D03*
X119737500Y-107300000D03*
%TD*%
%TO.C,Q202*%
X134662500Y-106350000D03*
X134662500Y-108250000D03*
X136537500Y-107300000D03*
%TD*%
%TO.C,Q253*%
X92562500Y-114150000D03*
X92562500Y-116050000D03*
X94437500Y-115100000D03*
%TD*%
D17*
%TO.C,R154*%
X54580000Y-49100000D03*
X56220000Y-49100000D03*
%TD*%
D19*
%TO.C,D30*%
X134010000Y-42700000D03*
X135590000Y-42700000D03*
%TD*%
D18*
%TO.C,Q176*%
X138862500Y-122350000D03*
X138862500Y-124250000D03*
X140737500Y-123300000D03*
%TD*%
D17*
%TO.C,R164*%
X133880000Y-48100000D03*
X135520000Y-48100000D03*
%TD*%
%TO.C,R140*%
X54580000Y-119500000D03*
X56220000Y-119500000D03*
%TD*%
D18*
%TO.C,Q178*%
X109462500Y-106350000D03*
X109462500Y-108250000D03*
X111337500Y-107300000D03*
%TD*%
%TO.C,Q293*%
X50762500Y-119650000D03*
X50762500Y-121550000D03*
X52637500Y-120600000D03*
%TD*%
%TO.C,Q197*%
X130462500Y-102650000D03*
X130462500Y-104550000D03*
X132337500Y-103600000D03*
%TD*%
%TO.C,Q315*%
X130062500Y-40850000D03*
X130062500Y-42750000D03*
X131937500Y-41800000D03*
%TD*%
D20*
%TO.C,J2*%
X47900000Y-80275000D03*
D21*
X47900000Y-79025000D03*
X47900000Y-77775000D03*
X47900000Y-76525000D03*
X47900000Y-75275000D03*
X47900000Y-74025000D03*
X47900000Y-72775000D03*
X47900000Y-71525000D03*
%TD*%
D18*
%TO.C,Q251*%
X88362500Y-114150000D03*
X88362500Y-116050000D03*
X90237500Y-115100000D03*
%TD*%
D19*
%TO.C,D12*%
X54710000Y-74900000D03*
X56290000Y-74900000D03*
%TD*%
D18*
%TO.C,Q220*%
X130462500Y-90350000D03*
X130462500Y-92250000D03*
X132337500Y-91300000D03*
%TD*%
%TO.C,Q273*%
X50762500Y-97450000D03*
X50762500Y-99350000D03*
X52637500Y-98400000D03*
%TD*%
%TO.C,Q246*%
X75762500Y-117850000D03*
X75762500Y-119750000D03*
X77637500Y-118800000D03*
%TD*%
%TO.C,Q291*%
X50762500Y-112250000D03*
X50762500Y-114150000D03*
X52637500Y-113200000D03*
%TD*%
%TO.C,Q306*%
X50762500Y-45550000D03*
X50762500Y-47450000D03*
X52637500Y-46500000D03*
%TD*%
D19*
%TO.C,D29*%
X134010000Y-39000000D03*
X135590000Y-39000000D03*
%TD*%
D18*
%TO.C,Q303*%
X50762500Y-34450000D03*
X50762500Y-36350000D03*
X52637500Y-35400000D03*
%TD*%
M02*
