%TF.GenerationSoftware,KiCad,Pcbnew,9.0.7*%
%TF.CreationDate,2026-02-25T14:15:14+01:00*%
%TF.ProjectId,ALU_V1.0,414c555f-5631-42e3-902e-6b696361645f,rev?*%
%TF.SameCoordinates,Original*%
%TF.FileFunction,Soldermask,Bot*%
%TF.FilePolarity,Negative*%
%FSLAX46Y46*%
G04 Gerber Fmt 4.6, Leading zero omitted, Abs format (unit mm)*
G04 Created by KiCad (PCBNEW 9.0.7) date 2026-02-25 14:15:14*
%MOMM*%
%LPD*%
G01*
G04 APERTURE LIST*
G04 Aperture macros list*
%AMRoundRect*
0 Rectangle with rounded corners*
0 $1 Rounding radius*
0 $2 $3 $4 $5 $6 $7 $8 $9 X,Y pos of 4 corners*
0 Add a 4 corners polygon primitive as box body*
4,1,4,$2,$3,$4,$5,$6,$7,$8,$9,$2,$3,0*
0 Add four circle primitives for the rounded corners*
1,1,$1+$1,$2,$3*
1,1,$1+$1,$4,$5*
1,1,$1+$1,$6,$7*
1,1,$1+$1,$8,$9*
0 Add four rect primitives between the rounded corners*
20,1,$1+$1,$2,$3,$4,$5,0*
20,1,$1+$1,$4,$5,$6,$7,0*
20,1,$1+$1,$6,$7,$8,$9,0*
20,1,$1+$1,$8,$9,$2,$3,0*%
G04 Aperture macros list end*
%ADD10RoundRect,0.225000X0.475000X-0.225000X0.475000X0.225000X-0.475000X0.225000X-0.475000X-0.225000X0*%
%ADD11O,1.400000X0.900000*%
%ADD12RoundRect,0.250000X0.725000X-0.600000X0.725000X0.600000X-0.725000X0.600000X-0.725000X-0.600000X0*%
%ADD13O,1.950000X1.700000*%
%ADD14C,3.200000*%
%ADD15R,1.700000X1.700000*%
%ADD16C,1.700000*%
G04 APERTURE END LIST*
D10*
%TO.C,J2*%
X53100000Y-106075000D03*
D11*
X53100000Y-104825000D03*
X53100000Y-103575000D03*
X53100000Y-102325000D03*
X53100000Y-101075000D03*
X53100000Y-99825000D03*
X53100000Y-98575000D03*
X53100000Y-97325000D03*
%TD*%
D12*
%TO.C,J8*%
X172700000Y-71850000D03*
D13*
X172700000Y-69350000D03*
X172700000Y-66850000D03*
X172700000Y-64350000D03*
X172700000Y-61850000D03*
X172700000Y-59350000D03*
X172700000Y-56850000D03*
X172700000Y-54350000D03*
X172700000Y-51850000D03*
X172700000Y-49350000D03*
X172700000Y-46850000D03*
X172700000Y-44350000D03*
X172700000Y-41850000D03*
X172700000Y-39350000D03*
%TD*%
D14*
%TO.C,H4*%
X172500000Y-123400000D03*
%TD*%
D15*
%TO.C,J6*%
X52300000Y-116075000D03*
D16*
X52300000Y-113535000D03*
%TD*%
D15*
%TO.C,J5*%
X52600000Y-65460000D03*
D16*
X52600000Y-68000000D03*
%TD*%
D10*
%TO.C,J1*%
X53100000Y-56575000D03*
D11*
X53100000Y-55325000D03*
X53100000Y-54075000D03*
X53100000Y-52825000D03*
X53100000Y-51575000D03*
X53100000Y-50325000D03*
X53100000Y-49075000D03*
X53100000Y-47825000D03*
%TD*%
D15*
%TO.C,J4*%
X157775000Y-119200000D03*
D16*
X155235000Y-119200000D03*
%TD*%
D14*
%TO.C,H1*%
X52000000Y-30400000D03*
%TD*%
%TO.C,H2*%
X172500000Y-30400000D03*
%TD*%
%TO.C,H3*%
X52000000Y-123400000D03*
%TD*%
D10*
%TO.C,J3*%
X173500000Y-111075000D03*
D11*
X173500000Y-109825000D03*
X173500000Y-108575000D03*
X173500000Y-107325000D03*
X173500000Y-106075000D03*
X173500000Y-104825000D03*
X173500000Y-103575000D03*
X173500000Y-102325000D03*
%TD*%
M02*
