%TF.GenerationSoftware,KiCad,Pcbnew,9.0.7*%
%TF.CreationDate,2026-02-19T00:15:57+01:00*%
%TF.ProjectId,ALU_V1.0,414c555f-5631-42e3-902e-6b696361645f,rev?*%
%TF.SameCoordinates,Original*%
%TF.FileFunction,Copper,L1,Top*%
%TF.FilePolarity,Positive*%
%FSLAX46Y46*%
G04 Gerber Fmt 4.6, Leading zero omitted, Abs format (unit mm)*
G04 Created by KiCad (PCBNEW 9.0.7) date 2026-02-19 00:15:57*
%MOMM*%
%LPD*%
G01*
G04 APERTURE LIST*
G04 Aperture macros list*
%AMRoundRect*
0 Rectangle with rounded corners*
0 $1 Rounding radius*
0 $2 $3 $4 $5 $6 $7 $8 $9 X,Y pos of 4 corners*
0 Add a 4 corners polygon primitive as box body*
4,1,4,$2,$3,$4,$5,$6,$7,$8,$9,$2,$3,0*
0 Add four circle primitives for the rounded corners*
1,1,$1+$1,$2,$3*
1,1,$1+$1,$4,$5*
1,1,$1+$1,$6,$7*
1,1,$1+$1,$8,$9*
0 Add four rect primitives between the rounded corners*
20,1,$1+$1,$2,$3,$4,$5,0*
20,1,$1+$1,$4,$5,$6,$7,0*
20,1,$1+$1,$6,$7,$8,$9,0*
20,1,$1+$1,$8,$9,$2,$3,0*%
G04 Aperture macros list end*
%TA.AperFunction,SMDPad,CuDef*%
%ADD10RoundRect,0.150000X-0.150000X0.587500X-0.150000X-0.587500X0.150000X-0.587500X0.150000X0.587500X0*%
%TD*%
%TA.AperFunction,SMDPad,CuDef*%
%ADD11RoundRect,0.150000X0.150000X-0.587500X0.150000X0.587500X-0.150000X0.587500X-0.150000X-0.587500X0*%
%TD*%
%TA.AperFunction,SMDPad,CuDef*%
%ADD12RoundRect,0.140000X0.140000X0.170000X-0.140000X0.170000X-0.140000X-0.170000X0.140000X-0.170000X0*%
%TD*%
%TA.AperFunction,SMDPad,CuDef*%
%ADD13RoundRect,0.140000X-0.140000X-0.170000X0.140000X-0.170000X0.140000X0.170000X-0.140000X0.170000X0*%
%TD*%
%TA.AperFunction,SMDPad,CuDef*%
%ADD14RoundRect,0.140000X-0.170000X0.140000X-0.170000X-0.140000X0.170000X-0.140000X0.170000X0.140000X0*%
%TD*%
%TA.AperFunction,ComponentPad*%
%ADD15RoundRect,0.250000X0.725000X-0.600000X0.725000X0.600000X-0.725000X0.600000X-0.725000X-0.600000X0*%
%TD*%
%TA.AperFunction,ComponentPad*%
%ADD16O,1.950000X1.700000*%
%TD*%
%TA.AperFunction,SMDPad,CuDef*%
%ADD17RoundRect,0.200000X-0.200000X-0.275000X0.200000X-0.275000X0.200000X0.275000X-0.200000X0.275000X0*%
%TD*%
%TA.AperFunction,SMDPad,CuDef*%
%ADD18RoundRect,0.150000X-0.587500X-0.150000X0.587500X-0.150000X0.587500X0.150000X-0.587500X0.150000X0*%
%TD*%
%TA.AperFunction,SMDPad,CuDef*%
%ADD19RoundRect,0.220000X-0.220000X-0.255000X0.220000X-0.255000X0.220000X0.255000X-0.220000X0.255000X0*%
%TD*%
%TA.AperFunction,ComponentPad*%
%ADD20RoundRect,0.225000X0.475000X-0.225000X0.475000X0.225000X-0.475000X0.225000X-0.475000X-0.225000X0*%
%TD*%
%TA.AperFunction,ComponentPad*%
%ADD21O,1.400000X0.900000*%
%TD*%
%TA.AperFunction,SMDPad,CuDef*%
%ADD22RoundRect,0.140000X0.170000X-0.140000X0.170000X0.140000X-0.170000X0.140000X-0.170000X-0.140000X0*%
%TD*%
%TA.AperFunction,ViaPad*%
%ADD23C,0.600000*%
%TD*%
%TA.AperFunction,Conductor*%
%ADD24C,0.200000*%
%TD*%
%TA.AperFunction,Conductor*%
%ADD25C,0.600000*%
%TD*%
G04 APERTURE END LIST*
D10*
%TO.P,Q261,1,G*%
%TO.N,Net-(Q255-D)*%
X127050000Y-29762500D03*
%TO.P,Q261,2,S*%
%TO.N,GND*%
X125150000Y-29762500D03*
%TO.P,Q261,3,D*%
%TO.N,Net-(Q240-G)*%
X126100000Y-31637500D03*
%TD*%
%TO.P,Q258,1,G*%
%TO.N,Net-(J8-Pin_8)*%
X111850000Y-29762500D03*
%TO.P,Q258,2,S*%
%TO.N,GND*%
X109950000Y-29762500D03*
%TO.P,Q258,3,D*%
%TO.N,Net-(Q255-D)*%
X110900000Y-31637500D03*
%TD*%
%TO.P,Q257,1,G*%
%TO.N,Net-(J8-Pin_9)*%
X115650000Y-29762500D03*
%TO.P,Q257,2,S*%
%TO.N,GND*%
X113750000Y-29762500D03*
%TO.P,Q257,3,D*%
%TO.N,Net-(Q255-D)*%
X114700000Y-31637500D03*
%TD*%
%TO.P,Q259,1,G*%
%TO.N,Net-(J8-Pin_7)*%
X108050000Y-29762500D03*
%TO.P,Q259,2,S*%
%TO.N,GND*%
X106150000Y-29762500D03*
%TO.P,Q259,3,D*%
%TO.N,Net-(Q255-D)*%
X107100000Y-31637500D03*
%TD*%
%TO.P,Q256,1,G*%
%TO.N,Net-(J8-Pin_10)*%
X119450000Y-29762500D03*
%TO.P,Q256,2,S*%
%TO.N,GND*%
X117550000Y-29762500D03*
%TO.P,Q256,3,D*%
%TO.N,Net-(Q255-D)*%
X118500000Y-31637500D03*
%TD*%
%TO.P,Q255,1,G*%
%TO.N,Net-(J8-Pin_11)*%
X123250000Y-29762500D03*
%TO.P,Q255,2,S*%
%TO.N,GND*%
X121350000Y-29762500D03*
%TO.P,Q255,3,D*%
%TO.N,Net-(Q255-D)*%
X122300000Y-31637500D03*
%TD*%
D11*
%TO.P,Q99,1,G*%
%TO.N,Net-(Q195-G)*%
X91650000Y-72837500D03*
%TO.P,Q99,2,S*%
%TO.N,Net-(Q90-S)*%
X93550000Y-72837500D03*
%TO.P,Q99,3,D*%
%TO.N,Net-(Q92-G)*%
X92600000Y-70962500D03*
%TD*%
%TO.P,Q112,1,G*%
%TO.N,Net-(Q102-D)*%
X84250000Y-82837500D03*
%TO.P,Q112,2,S*%
%TO.N,Net-(Q103-D)*%
X86150000Y-82837500D03*
%TO.P,Q112,3,D*%
%TO.N,Net-(Q104-G)*%
X85200000Y-80962500D03*
%TD*%
D12*
%TO.P,R90,1*%
%TO.N,VCC*%
X79100000Y-94500000D03*
%TO.P,R90,2*%
%TO.N,Net-(Q125-D)*%
X78100000Y-94500000D03*
%TD*%
%TO.P,R101,1*%
%TO.N,VCC*%
X79100000Y-104500000D03*
%TO.P,R101,2*%
%TO.N,Net-(Q140-D)*%
X78100000Y-104500000D03*
%TD*%
D11*
%TO.P,Q19,1,G*%
%TO.N,Net-(J1-Pin_2)*%
X59650000Y-96037500D03*
%TO.P,Q19,2,S*%
%TO.N,GND*%
X61550000Y-96037500D03*
%TO.P,Q19,3,D*%
%TO.N,Net-(Q19-D)*%
X60600000Y-94162500D03*
%TD*%
%TO.P,Q132,1,G*%
%TO.N,Net-(Q132-G)*%
X76850000Y-108037500D03*
%TO.P,Q132,2,S*%
%TO.N,Net-(Q131-D)*%
X78750000Y-108037500D03*
%TO.P,Q132,3,D*%
%TO.N,Net-(Q132-D)*%
X77800000Y-106162500D03*
%TD*%
%TO.P,Q29,1,G*%
%TO.N,Net-(Q29-G)*%
X84250000Y-38037500D03*
%TO.P,Q29,2,S*%
%TO.N,Net-(Q28-D)*%
X86150000Y-38037500D03*
%TO.P,Q29,3,D*%
%TO.N,Net-(Q29-D)*%
X85200000Y-36162500D03*
%TD*%
%TO.P,Q62,1,G*%
%TO.N,Net-(Q62-G)*%
X95350000Y-58037500D03*
%TO.P,Q62,2,S*%
%TO.N,Net-(Q61-D)*%
X97250000Y-58037500D03*
%TO.P,Q62,3,D*%
%TO.N,Net-(Q211-G)*%
X96300000Y-56162500D03*
%TD*%
D13*
%TO.P,R59,1*%
%TO.N,VCC*%
X86000000Y-64500000D03*
%TO.P,R59,2*%
%TO.N,Net-(Q74-G)*%
X87000000Y-64500000D03*
%TD*%
D11*
%TO.P,Q42,1,G*%
%TO.N,Net-(Q42-G)*%
X76800000Y-48037500D03*
%TO.P,Q42,2,S*%
%TO.N,Net-(Q41-D)*%
X78700000Y-48037500D03*
%TO.P,Q42,3,D*%
%TO.N,Net-(Q183-G)*%
X77750000Y-46162500D03*
%TD*%
%TO.P,Q124,1,G*%
%TO.N,Net-(J2-Pin_2)*%
X73125000Y-92837500D03*
%TO.P,Q124,2,S*%
%TO.N,Net-(Q115-S)*%
X75025000Y-92837500D03*
%TO.P,Q124,3,D*%
%TO.N,Net-(Q115-G)*%
X74075000Y-90962500D03*
%TD*%
D12*
%TO.P,R78,1*%
%TO.N,VCC*%
X74300000Y-84500000D03*
%TO.P,R78,2*%
%TO.N,Net-(Q100-G)*%
X73300000Y-84500000D03*
%TD*%
D11*
%TO.P,Q56,1,G*%
%TO.N,Net-(Q55-D)*%
X73150000Y-58037500D03*
%TO.P,Q56,2,S*%
%TO.N,GND*%
X75050000Y-58037500D03*
%TO.P,Q56,3,D*%
%TO.N,Net-(Q56-D)*%
X74100000Y-56162500D03*
%TD*%
%TO.P,Q136,1,G*%
%TO.N,Net-(Q134-D)*%
X91650000Y-108037500D03*
%TO.P,Q136,2,S*%
%TO.N,GND*%
X93550000Y-108037500D03*
%TO.P,Q136,3,D*%
%TO.N,Net-(Q136-D)*%
X92600000Y-106162500D03*
%TD*%
D12*
%TO.P,R89,1*%
%TO.N,VCC*%
X74300000Y-94500000D03*
%TO.P,R89,2*%
%TO.N,Net-(Q115-G)*%
X73300000Y-94500000D03*
%TD*%
D13*
%TO.P,R51,1*%
%TO.N,VCC*%
X75400000Y-64500000D03*
%TO.P,R51,2*%
%TO.N,Net-(Q191-G)*%
X76400000Y-64500000D03*
%TD*%
%TO.P,R103,1*%
%TO.N,VCC*%
X86000000Y-104500000D03*
%TO.P,R103,2*%
%TO.N,Net-(Q134-G)*%
X87000000Y-104500000D03*
%TD*%
D14*
%TO.P,R10,1*%
%TO.N,VCC*%
X65000000Y-71400000D03*
%TO.P,R10,2*%
%TO.N,Net-(Q15-D)*%
X65000000Y-72400000D03*
%TD*%
D12*
%TO.P,R72,1*%
%TO.N,VCC*%
X70100000Y-84500000D03*
%TO.P,R72,2*%
%TO.N,Net-(Q100-D)*%
X69100000Y-84500000D03*
%TD*%
D11*
%TO.P,Q101,1,G*%
%TO.N,Net-(Q100-D)*%
X73150000Y-88037500D03*
%TO.P,Q101,2,S*%
%TO.N,GND*%
X75050000Y-88037500D03*
%TO.P,Q101,3,D*%
%TO.N,Net-(Q101-D)*%
X74100000Y-86162500D03*
%TD*%
%TO.P,Q84,1,G*%
%TO.N,Net-(Q191-G)*%
X91650000Y-62837500D03*
%TO.P,Q84,2,S*%
%TO.N,Net-(Q75-S)*%
X93550000Y-62837500D03*
%TO.P,Q84,3,D*%
%TO.N,Net-(Q77-G)*%
X92600000Y-60962500D03*
%TD*%
%TO.P,Q134,1,G*%
%TO.N,Net-(Q134-G)*%
X84250000Y-108037500D03*
%TO.P,Q134,2,S*%
%TO.N,Net-(Q133-D)*%
X86150000Y-108037500D03*
%TO.P,Q134,3,D*%
%TO.N,Net-(Q134-D)*%
X85200000Y-106162500D03*
%TD*%
%TO.P,Q127,1,G*%
%TO.N,Net-(Q117-D)*%
X84250000Y-92837500D03*
%TO.P,Q127,2,S*%
%TO.N,Net-(Q118-D)*%
X86150000Y-92837500D03*
%TO.P,Q127,3,D*%
%TO.N,Net-(Q119-G)*%
X85200000Y-90962500D03*
%TD*%
%TO.P,Q36,1,G*%
%TO.N,Net-(J2-Pin_8)*%
X80550000Y-32837500D03*
%TO.P,Q36,2,S*%
%TO.N,Net-(Q145-G)*%
X82450000Y-32837500D03*
%TO.P,Q36,3,D*%
%TO.N,Net-(Q27-G)*%
X81500000Y-30962500D03*
%TD*%
D10*
%TO.P,Q24,1,G*%
%TO.N,Net-(Q22-D)*%
X63450000Y-100962500D03*
%TO.P,Q24,2,S*%
%TO.N,GND*%
X61550000Y-100962500D03*
%TO.P,Q24,3,D*%
%TO.N,Net-(Q147-G)*%
X62500000Y-102837500D03*
%TD*%
D12*
%TO.P,R79,1*%
%TO.N,VCC*%
X79100000Y-84500000D03*
%TO.P,R79,2*%
%TO.N,Net-(Q110-D)*%
X78100000Y-84500000D03*
%TD*%
%TO.P,R45,1*%
%TO.N,VCC*%
X74300000Y-54500000D03*
%TO.P,R45,2*%
%TO.N,Net-(Q55-G)*%
X73300000Y-54500000D03*
%TD*%
%TO.P,R98,1*%
%TO.N,VCC*%
X96000000Y-104500000D03*
%TO.P,R98,2*%
%TO.N,Net-(Q137-D)*%
X95000000Y-104500000D03*
%TD*%
%TO.P,R52,1*%
%TO.N,VCC*%
X84900000Y-64500000D03*
%TO.P,R52,2*%
%TO.N,Net-(Q74-D)*%
X83900000Y-64500000D03*
%TD*%
D11*
%TO.P,Q68,1,G*%
%TO.N,Net-(Q59-G)*%
X87950000Y-52837500D03*
%TO.P,Q68,2,S*%
%TO.N,GND*%
X89850000Y-52837500D03*
%TO.P,Q68,3,D*%
%TO.N,Net-(Q60-S)*%
X88900000Y-50962500D03*
%TD*%
D14*
%TO.P,R16,1*%
%TO.N,VCC*%
X65000000Y-101400000D03*
%TO.P,R16,2*%
%TO.N,Net-(Q147-G)*%
X65000000Y-102400000D03*
%TD*%
D11*
%TO.P,Q93,1,G*%
%TO.N,Net-(J1-Pin_4)*%
X69450000Y-72837500D03*
%TO.P,Q93,2,S*%
%TO.N,GND*%
X71350000Y-72837500D03*
%TO.P,Q93,3,D*%
%TO.N,Net-(Q193-G)*%
X70400000Y-70962500D03*
%TD*%
D10*
%TO.P,Q9,1,G*%
%TO.N,Net-(Q7-D)*%
X63450000Y-50962500D03*
%TO.P,Q9,2,S*%
%TO.N,GND*%
X61550000Y-50962500D03*
%TO.P,Q9,3,D*%
%TO.N,Net-(Q152-G)*%
X62500000Y-52837500D03*
%TD*%
D13*
%TO.P,R99,1*%
%TO.N,VCC*%
X71200000Y-104500000D03*
%TO.P,R99,2*%
%TO.N,Net-(Q130-S)*%
X72200000Y-104500000D03*
%TD*%
D11*
%TO.P,Q103,1,G*%
%TO.N,Net-(Q103-G)*%
X80550000Y-88037500D03*
%TO.P,Q103,2,S*%
%TO.N,GND*%
X82450000Y-88037500D03*
%TO.P,Q103,3,D*%
%TO.N,Net-(Q103-D)*%
X81500000Y-86162500D03*
%TD*%
D13*
%TO.P,R92,1*%
%TO.N,VCC*%
X86000000Y-94500000D03*
%TO.P,R92,2*%
%TO.N,Net-(Q119-G)*%
X87000000Y-94500000D03*
%TD*%
D14*
%TO.P,R6,1*%
%TO.N,VCC*%
X65000000Y-51400000D03*
%TO.P,R6,2*%
%TO.N,Net-(Q152-G)*%
X65000000Y-52400000D03*
%TD*%
D12*
%TO.P,R65,1*%
%TO.N,VCC*%
X96000000Y-74500000D03*
%TO.P,R65,2*%
%TO.N,Net-(Q217-G)*%
X95000000Y-74500000D03*
%TD*%
D11*
%TO.P,Q130,1,G*%
%TO.N,Net-(Q130-G)*%
X69450000Y-108037500D03*
%TO.P,Q130,2,S*%
%TO.N,Net-(Q130-S)*%
X71350000Y-108037500D03*
%TO.P,Q130,3,D*%
%TO.N,Net-(Q130-D)*%
X70400000Y-106162500D03*
%TD*%
D13*
%TO.P,R27,1*%
%TO.N,VCC*%
X91800000Y-34500000D03*
%TO.P,R27,2*%
%TO.N,Net-(Q32-G)*%
X92800000Y-34500000D03*
%TD*%
D11*
%TO.P,Q27,1,G*%
%TO.N,Net-(Q27-G)*%
X76850000Y-38037500D03*
%TO.P,Q27,2,S*%
%TO.N,Net-(Q26-D)*%
X78750000Y-38037500D03*
%TO.P,Q27,3,D*%
%TO.N,Net-(Q179-G)*%
X77800000Y-36162500D03*
%TD*%
%TO.P,Q52,1,G*%
%TO.N,Net-(Q183-G)*%
X84200000Y-42837500D03*
%TO.P,Q52,2,S*%
%TO.N,Net-(Q43-D)*%
X86100000Y-42837500D03*
%TO.P,Q52,3,D*%
%TO.N,Net-(Q44-G)*%
X85150000Y-40962500D03*
%TD*%
D13*
%TO.P,R37,1*%
%TO.N,VCC*%
X85950000Y-44500000D03*
%TO.P,R37,2*%
%TO.N,Net-(Q44-G)*%
X86950000Y-44500000D03*
%TD*%
D11*
%TO.P,Q72,1,G*%
%TO.N,Net-(Q72-G)*%
X76850000Y-68037500D03*
%TO.P,Q72,2,S*%
%TO.N,Net-(Q71-D)*%
X78750000Y-68037500D03*
%TO.P,Q72,3,D*%
%TO.N,Net-(Q191-G)*%
X77800000Y-66162500D03*
%TD*%
D13*
%TO.P,R60,1*%
%TO.N,VCC*%
X91800000Y-64500000D03*
%TO.P,R60,2*%
%TO.N,Net-(Q77-G)*%
X92800000Y-64500000D03*
%TD*%
D12*
%TO.P,R24,1*%
%TO.N,VCC*%
X79100000Y-34500000D03*
%TO.P,R24,2*%
%TO.N,Net-(Q145-G)*%
X78100000Y-34500000D03*
%TD*%
D11*
%TO.P,Q131,1,G*%
%TO.N,Net-(Q130-D)*%
X73150000Y-108037500D03*
%TO.P,Q131,2,S*%
%TO.N,GND*%
X75050000Y-108037500D03*
%TO.P,Q131,3,D*%
%TO.N,Net-(Q131-D)*%
X74100000Y-106162500D03*
%TD*%
D12*
%TO.P,R57,1*%
%TO.N,VCC*%
X79100000Y-64500000D03*
%TO.P,R57,2*%
%TO.N,Net-(Q167-G)*%
X78100000Y-64500000D03*
%TD*%
D13*
%TO.P,R44,1*%
%TO.N,VCC*%
X71200000Y-54500000D03*
%TO.P,R44,2*%
%TO.N,Net-(Q185-G)*%
X72200000Y-54500000D03*
%TD*%
%TO.P,R49,1*%
%TO.N,VCC*%
X91800000Y-54500000D03*
%TO.P,R49,2*%
%TO.N,Net-(Q62-G)*%
X92800000Y-54500000D03*
%TD*%
D11*
%TO.P,Q100,1,G*%
%TO.N,Net-(Q100-G)*%
X69450000Y-88037500D03*
%TO.P,Q100,2,S*%
%TO.N,Net-(Q100-S)*%
X71350000Y-88037500D03*
%TO.P,Q100,3,D*%
%TO.N,Net-(Q100-D)*%
X70400000Y-86162500D03*
%TD*%
D13*
%TO.P,R58,1*%
%TO.N,VCC*%
X80200000Y-64500000D03*
%TO.P,R58,2*%
%TO.N,Net-(Q72-G)*%
X81200000Y-64500000D03*
%TD*%
D11*
%TO.P,Q55,1,G*%
%TO.N,Net-(Q55-G)*%
X69450000Y-58037500D03*
%TO.P,Q55,2,S*%
%TO.N,Net-(Q185-G)*%
X71350000Y-58037500D03*
%TO.P,Q55,3,D*%
%TO.N,Net-(Q55-D)*%
X70400000Y-56162500D03*
%TD*%
D12*
%TO.P,R67,1*%
%TO.N,VCC*%
X74300000Y-74500000D03*
%TO.P,R67,2*%
%TO.N,Net-(Q85-G)*%
X73300000Y-74500000D03*
%TD*%
D14*
%TO.P,R2,1*%
%TO.N,VCC*%
X65000000Y-31400000D03*
%TO.P,R2,2*%
%TO.N,Net-(Q154-G)*%
X65000000Y-32400000D03*
%TD*%
D11*
%TO.P,Q113,1,G*%
%TO.N,Net-(Q104-G)*%
X87950000Y-82837500D03*
%TO.P,Q113,2,S*%
%TO.N,GND*%
X89850000Y-82837500D03*
%TO.P,Q113,3,D*%
%TO.N,Net-(Q105-S)*%
X88900000Y-80962500D03*
%TD*%
%TO.P,Q111,1,G*%
%TO.N,Net-(J2-Pin_3)*%
X80550000Y-82837500D03*
%TO.P,Q111,2,S*%
%TO.N,Net-(Q110-D)*%
X82450000Y-82837500D03*
%TO.P,Q111,3,D*%
%TO.N,Net-(Q102-G)*%
X81500000Y-80962500D03*
%TD*%
%TO.P,Q43,1,G*%
%TO.N,Net-(Q30-D)*%
X80500000Y-48037500D03*
%TO.P,Q43,2,S*%
%TO.N,GND*%
X82400000Y-48037500D03*
%TO.P,Q43,3,D*%
%TO.N,Net-(Q43-D)*%
X81450000Y-46162500D03*
%TD*%
D12*
%TO.P,R83,1*%
%TO.N,VCC*%
X70100000Y-94500000D03*
%TO.P,R83,2*%
%TO.N,Net-(Q115-D)*%
X69100000Y-94500000D03*
%TD*%
D11*
%TO.P,Q31,1,G*%
%TO.N,Net-(Q29-D)*%
X91650000Y-38037500D03*
%TO.P,Q31,2,S*%
%TO.N,GND*%
X93550000Y-38037500D03*
%TO.P,Q31,3,D*%
%TO.N,Net-(Q31-D)*%
X92600000Y-36162500D03*
%TD*%
%TO.P,Q110,1,G*%
%TO.N,Net-(Q100-G)*%
X76850000Y-82837500D03*
%TO.P,Q110,2,S*%
%TO.N,GND*%
X78750000Y-82837500D03*
%TO.P,Q110,3,D*%
%TO.N,Net-(Q110-D)*%
X77800000Y-80962500D03*
%TD*%
%TO.P,Q64,1,G*%
%TO.N,Net-(J2-Pin_6)*%
X73150000Y-52837500D03*
%TO.P,Q64,2,S*%
%TO.N,Net-(Q185-G)*%
X75050000Y-52837500D03*
%TO.P,Q64,3,D*%
%TO.N,Net-(Q55-G)*%
X74100000Y-50962500D03*
%TD*%
%TO.P,Q38,1,G*%
%TO.N,Net-(Q29-G)*%
X87950000Y-32837500D03*
%TO.P,Q38,2,S*%
%TO.N,GND*%
X89850000Y-32837500D03*
%TO.P,Q38,3,D*%
%TO.N,Net-(Q30-S)*%
X88900000Y-30962500D03*
%TD*%
%TO.P,Q75,1,G*%
%TO.N,Net-(Q70-G)*%
X87950000Y-68037500D03*
%TO.P,Q75,2,S*%
%TO.N,Net-(Q75-S)*%
X89850000Y-68037500D03*
%TO.P,Q75,3,D*%
%TO.N,Net-(Q75-D)*%
X88900000Y-66162500D03*
%TD*%
D12*
%TO.P,R63,1*%
%TO.N,VCC*%
X84900000Y-74500000D03*
%TO.P,R63,2*%
%TO.N,Net-(Q89-D)*%
X83900000Y-74500000D03*
%TD*%
D10*
%TO.P,Q3,1,G*%
%TO.N,Net-(Q1-D)*%
X63450000Y-30962500D03*
%TO.P,Q3,2,S*%
%TO.N,GND*%
X61550000Y-30962500D03*
%TO.P,Q3,3,D*%
%TO.N,Net-(Q154-G)*%
X62500000Y-32837500D03*
%TD*%
%TO.P,Q12,1,G*%
%TO.N,Net-(Q10-D)*%
X63450000Y-60962500D03*
%TO.P,Q12,2,S*%
%TO.N,GND*%
X61550000Y-60962500D03*
%TO.P,Q12,3,D*%
%TO.N,Net-(Q12-D)*%
X62500000Y-62837500D03*
%TD*%
D12*
%TO.P,R35,1*%
%TO.N,VCC*%
X79050000Y-44500000D03*
%TO.P,R35,2*%
%TO.N,Net-(Q163-G)*%
X78050000Y-44500000D03*
%TD*%
%TO.P,R87,1*%
%TO.N,VCC*%
X96000000Y-94500000D03*
%TO.P,R87,2*%
%TO.N,Net-(Q122-D)*%
X95000000Y-94500000D03*
%TD*%
D11*
%TO.P,Q87,1,G*%
%TO.N,Net-(Q87-G)*%
X76850000Y-78037500D03*
%TO.P,Q87,2,S*%
%TO.N,Net-(Q86-D)*%
X78750000Y-78037500D03*
%TO.P,Q87,3,D*%
%TO.N,Net-(Q195-G)*%
X77800000Y-76162500D03*
%TD*%
%TO.P,Q49,1,G*%
%TO.N,Net-(J2-Pin_7)*%
X73100000Y-42837500D03*
%TO.P,Q49,2,S*%
%TO.N,Net-(Q181-G)*%
X75000000Y-42837500D03*
%TO.P,Q49,3,D*%
%TO.N,Net-(Q40-G)*%
X74050000Y-40962500D03*
%TD*%
D13*
%TO.P,R69,1*%
%TO.N,VCC*%
X80200000Y-74500000D03*
%TO.P,R69,2*%
%TO.N,Net-(Q87-G)*%
X81200000Y-74500000D03*
%TD*%
D12*
%TO.P,R46,1*%
%TO.N,VCC*%
X79100000Y-54500000D03*
%TO.P,R46,2*%
%TO.N,Net-(Q165-G)*%
X78100000Y-54500000D03*
%TD*%
D11*
%TO.P,Q121,1,G*%
%TO.N,Net-(Q119-D)*%
X91650000Y-98037500D03*
%TO.P,Q121,2,S*%
%TO.N,GND*%
X93550000Y-98037500D03*
%TO.P,Q121,3,D*%
%TO.N,Net-(Q121-D)*%
X92600000Y-96162500D03*
%TD*%
%TO.P,Q65,1,G*%
%TO.N,Net-(Q55-G)*%
X76850000Y-52837500D03*
%TO.P,Q65,2,S*%
%TO.N,GND*%
X78750000Y-52837500D03*
%TO.P,Q65,3,D*%
%TO.N,Net-(Q165-G)*%
X77800000Y-50962500D03*
%TD*%
D12*
%TO.P,R96,1*%
%TO.N,VCC*%
X84900000Y-104500000D03*
%TO.P,R96,2*%
%TO.N,Net-(Q134-D)*%
X83900000Y-104500000D03*
%TD*%
D14*
%TO.P,R3,1*%
%TO.N,VCC*%
X59950000Y-41400000D03*
%TO.P,R3,2*%
%TO.N,Net-(Q4-D)*%
X59950000Y-42400000D03*
%TD*%
D11*
%TO.P,Q37,1,G*%
%TO.N,Net-(Q179-G)*%
X84250000Y-32837500D03*
%TO.P,Q37,2,S*%
%TO.N,Net-(Q28-D)*%
X86150000Y-32837500D03*
%TO.P,Q37,3,D*%
%TO.N,Net-(Q29-G)*%
X85200000Y-30962500D03*
%TD*%
%TO.P,Q139,1,G*%
%TO.N,Net-(J2-Pin_1)*%
X73150000Y-102837500D03*
%TO.P,Q139,2,S*%
%TO.N,Net-(Q130-S)*%
X75050000Y-102837500D03*
%TO.P,Q139,3,D*%
%TO.N,Net-(Q130-G)*%
X74100000Y-100962500D03*
%TD*%
%TO.P,Q82,1,G*%
%TO.N,Net-(Q191-G)*%
X84250000Y-62837500D03*
%TO.P,Q82,2,S*%
%TO.N,Net-(Q73-D)*%
X86150000Y-62837500D03*
%TO.P,Q82,3,D*%
%TO.N,Net-(Q74-G)*%
X85200000Y-60962500D03*
%TD*%
D13*
%TO.P,R47,1*%
%TO.N,VCC*%
X80200000Y-54500000D03*
%TO.P,R47,2*%
%TO.N,Net-(Q57-G)*%
X81200000Y-54500000D03*
%TD*%
D11*
%TO.P,Q74,1,G*%
%TO.N,Net-(Q74-G)*%
X84250000Y-68037500D03*
%TO.P,Q74,2,S*%
%TO.N,Net-(Q73-D)*%
X86150000Y-68037500D03*
%TO.P,Q74,3,D*%
%TO.N,Net-(Q74-D)*%
X85200000Y-66162500D03*
%TD*%
D12*
%TO.P,R53,1*%
%TO.N,VCC*%
X90700000Y-64500000D03*
%TO.P,R53,2*%
%TO.N,Net-(Q75-D)*%
X89700000Y-64500000D03*
%TD*%
%TO.P,R100,1*%
%TO.N,VCC*%
X74300000Y-104500000D03*
%TO.P,R100,2*%
%TO.N,Net-(Q130-G)*%
X73300000Y-104500000D03*
%TD*%
D11*
%TO.P,Q143,1,G*%
%TO.N,Net-(Q134-G)*%
X87950000Y-102837500D03*
%TO.P,Q143,2,S*%
%TO.N,GND*%
X89850000Y-102837500D03*
%TO.P,Q143,3,D*%
%TO.N,Net-(Q135-S)*%
X88900000Y-100962500D03*
%TD*%
D14*
%TO.P,R5,1*%
%TO.N,VCC*%
X60000000Y-51400000D03*
%TO.P,R5,2*%
%TO.N,Net-(Q7-D)*%
X60000000Y-52400000D03*
%TD*%
D11*
%TO.P,Q90,1,G*%
%TO.N,Net-(Q85-G)*%
X87950000Y-78037500D03*
%TO.P,Q90,2,S*%
%TO.N,Net-(Q90-S)*%
X89850000Y-78037500D03*
%TO.P,Q90,3,D*%
%TO.N,Net-(Q103-G)*%
X88900000Y-76162500D03*
%TD*%
%TO.P,Q5,1,G*%
%TO.N,Net-(J2-Pin_7)*%
X63300000Y-46037500D03*
%TO.P,Q5,2,S*%
%TO.N,GND*%
X65200000Y-46037500D03*
%TO.P,Q5,3,D*%
%TO.N,Net-(Q4-D)*%
X64250000Y-44162500D03*
%TD*%
%TO.P,Q11,1,G*%
%TO.N,Net-(J2-Pin_5)*%
X63350000Y-66037500D03*
%TO.P,Q11,2,S*%
%TO.N,GND*%
X65250000Y-66037500D03*
%TO.P,Q11,3,D*%
%TO.N,Net-(Q10-D)*%
X64300000Y-64162500D03*
%TD*%
%TO.P,Q123,1,G*%
%TO.N,Net-(J1-Pin_2)*%
X69450000Y-92837500D03*
%TO.P,Q123,2,S*%
%TO.N,GND*%
X71350000Y-92837500D03*
%TO.P,Q123,3,D*%
%TO.N,Net-(Q115-S)*%
X70400000Y-90962500D03*
%TD*%
D12*
%TO.P,R76,1*%
%TO.N,VCC*%
X96000000Y-84500000D03*
%TO.P,R76,2*%
%TO.N,Net-(Q107-D)*%
X95000000Y-84500000D03*
%TD*%
D11*
%TO.P,Q47,1,G*%
%TO.N,Net-(Q47-G)*%
X95300000Y-48037500D03*
%TO.P,Q47,2,S*%
%TO.N,Net-(Q46-D)*%
X97200000Y-48037500D03*
%TO.P,Q47,3,D*%
%TO.N,Net-(Q211-G)*%
X96250000Y-46162500D03*
%TD*%
%TO.P,Q108,1,G*%
%TO.N,Net-(J1-Pin_3)*%
X69450000Y-82837500D03*
%TO.P,Q108,2,S*%
%TO.N,GND*%
X71350000Y-82837500D03*
%TO.P,Q108,3,D*%
%TO.N,Net-(Q100-S)*%
X70400000Y-80962500D03*
%TD*%
%TO.P,Q23,1,G*%
%TO.N,Net-(J2-Pin_1)*%
X63350000Y-106037500D03*
%TO.P,Q23,2,S*%
%TO.N,GND*%
X65250000Y-106037500D03*
%TO.P,Q23,3,D*%
%TO.N,Net-(Q22-D)*%
X64300000Y-104162500D03*
%TD*%
D14*
%TO.P,R15,1*%
%TO.N,VCC*%
X60000000Y-101400000D03*
%TO.P,R15,2*%
%TO.N,Net-(Q22-D)*%
X60000000Y-102400000D03*
%TD*%
D11*
%TO.P,Q40,1,G*%
%TO.N,Net-(Q40-G)*%
X69400000Y-48037500D03*
%TO.P,Q40,2,S*%
%TO.N,Net-(Q181-G)*%
X71300000Y-48037500D03*
%TO.P,Q40,3,D*%
%TO.N,Net-(Q40-D)*%
X70350000Y-46162500D03*
%TD*%
%TO.P,Q96,1,G*%
%TO.N,Net-(J2-Pin_4)*%
X80550000Y-72837500D03*
%TO.P,Q96,2,S*%
%TO.N,Net-(Q169-G)*%
X82450000Y-72837500D03*
%TO.P,Q96,3,D*%
%TO.N,Net-(Q87-G)*%
X81500000Y-70962500D03*
%TD*%
%TO.P,Q144,1,G*%
%TO.N,Net-(Q132-D)*%
X91650000Y-102837500D03*
%TO.P,Q144,2,S*%
%TO.N,Net-(Q135-S)*%
X93550000Y-102837500D03*
%TO.P,Q144,3,D*%
%TO.N,Net-(Q137-G)*%
X92600000Y-100962500D03*
%TD*%
%TO.P,Q44,1,G*%
%TO.N,Net-(Q44-G)*%
X84200000Y-48037500D03*
%TO.P,Q44,2,S*%
%TO.N,Net-(Q43-D)*%
X86100000Y-48037500D03*
%TO.P,Q44,3,D*%
%TO.N,Net-(Q44-D)*%
X85150000Y-46162500D03*
%TD*%
D12*
%TO.P,R41,1*%
%TO.N,VCC*%
X84900000Y-54500000D03*
%TO.P,R41,2*%
%TO.N,Net-(Q59-D)*%
X83900000Y-54500000D03*
%TD*%
D13*
%TO.P,R55,1*%
%TO.N,VCC*%
X71200000Y-64500000D03*
%TO.P,R55,2*%
%TO.N,Net-(Q189-G)*%
X72200000Y-64500000D03*
%TD*%
D11*
%TO.P,Q91,1,G*%
%TO.N,Net-(Q89-D)*%
X91650000Y-78037500D03*
%TO.P,Q91,2,S*%
%TO.N,GND*%
X93550000Y-78037500D03*
%TO.P,Q91,3,D*%
%TO.N,Net-(Q91-D)*%
X92600000Y-76162500D03*
%TD*%
%TO.P,Q135,1,G*%
%TO.N,Net-(Q130-G)*%
X87950000Y-108037500D03*
%TO.P,Q135,2,S*%
%TO.N,Net-(Q135-S)*%
X89850000Y-108037500D03*
%TO.P,Q135,3,D*%
%TO.N,Net-(Q135-D)*%
X88900000Y-106162500D03*
%TD*%
D12*
%TO.P,R17,1*%
%TO.N,VCC*%
X70100000Y-34500000D03*
%TO.P,R17,2*%
%TO.N,Net-(Q25-D)*%
X69100000Y-34500000D03*
%TD*%
D11*
%TO.P,Q76,1,G*%
%TO.N,Net-(Q74-D)*%
X91650000Y-68037500D03*
%TO.P,Q76,2,S*%
%TO.N,GND*%
X93550000Y-68037500D03*
%TO.P,Q76,3,D*%
%TO.N,Net-(Q76-D)*%
X92600000Y-66162500D03*
%TD*%
%TO.P,Q60,1,G*%
%TO.N,Net-(Q55-G)*%
X87950000Y-58037500D03*
%TO.P,Q60,2,S*%
%TO.N,Net-(Q60-S)*%
X89850000Y-58037500D03*
%TO.P,Q60,3,D*%
%TO.N,Net-(Q60-D)*%
X88900000Y-56162500D03*
%TD*%
D10*
%TO.P,Q6,1,G*%
%TO.N,Net-(Q4-D)*%
X63400000Y-40962500D03*
%TO.P,Q6,2,S*%
%TO.N,GND*%
X61500000Y-40962500D03*
%TO.P,Q6,3,D*%
%TO.N,Net-(Q153-G)*%
X62450000Y-42837500D03*
%TD*%
D12*
%TO.P,R64,1*%
%TO.N,VCC*%
X90700000Y-74500000D03*
%TO.P,R64,2*%
%TO.N,Net-(Q103-G)*%
X89700000Y-74500000D03*
%TD*%
%TO.P,R85,1*%
%TO.N,VCC*%
X84900000Y-94500000D03*
%TO.P,R85,2*%
%TO.N,Net-(Q119-D)*%
X83900000Y-94500000D03*
%TD*%
D11*
%TO.P,Q17,1,G*%
%TO.N,Net-(J2-Pin_3)*%
X63350000Y-86037500D03*
%TO.P,Q17,2,S*%
%TO.N,GND*%
X65250000Y-86037500D03*
%TO.P,Q17,3,D*%
%TO.N,Net-(Q16-D)*%
X64300000Y-84162500D03*
%TD*%
D13*
%TO.P,R84,1*%
%TO.N,VCC*%
X75400000Y-94500000D03*
%TO.P,R84,2*%
%TO.N,Net-(Q117-D)*%
X76400000Y-94500000D03*
%TD*%
D12*
%TO.P,R74,1*%
%TO.N,VCC*%
X84900000Y-84500000D03*
%TO.P,R74,2*%
%TO.N,Net-(Q104-D)*%
X83900000Y-84500000D03*
%TD*%
D11*
%TO.P,Q141,1,G*%
%TO.N,Net-(J2-Pin_1)*%
X80550000Y-102837500D03*
%TO.P,Q141,2,S*%
%TO.N,Net-(Q140-D)*%
X82450000Y-102837500D03*
%TO.P,Q141,3,D*%
%TO.N,Net-(Q132-G)*%
X81500000Y-100962500D03*
%TD*%
D12*
%TO.P,R43,1*%
%TO.N,VCC*%
X96000000Y-54500000D03*
%TO.P,R43,2*%
%TO.N,Net-(Q211-G)*%
X95000000Y-54500000D03*
%TD*%
D11*
%TO.P,Q140,1,G*%
%TO.N,Net-(Q130-G)*%
X76850000Y-102837500D03*
%TO.P,Q140,2,S*%
%TO.N,GND*%
X78750000Y-102837500D03*
%TO.P,Q140,3,D*%
%TO.N,Net-(Q140-D)*%
X77800000Y-100962500D03*
%TD*%
D10*
%TO.P,Q21,1,G*%
%TO.N,Net-(Q19-D)*%
X63450000Y-90962500D03*
%TO.P,Q21,2,S*%
%TO.N,GND*%
X61550000Y-90962500D03*
%TO.P,Q21,3,D*%
%TO.N,Net-(Q148-G)*%
X62500000Y-92837500D03*
%TD*%
D13*
%TO.P,R104,1*%
%TO.N,VCC*%
X91800000Y-104500000D03*
%TO.P,R104,2*%
%TO.N,Net-(Q137-G)*%
X92800000Y-104500000D03*
%TD*%
D11*
%TO.P,Q70,1,G*%
%TO.N,Net-(Q70-G)*%
X69450000Y-68037500D03*
%TO.P,Q70,2,S*%
%TO.N,Net-(Q189-G)*%
X71350000Y-68037500D03*
%TO.P,Q70,3,D*%
%TO.N,Net-(Q70-D)*%
X70400000Y-66162500D03*
%TD*%
D14*
%TO.P,R7,1*%
%TO.N,VCC*%
X60000000Y-61400000D03*
%TO.P,R7,2*%
%TO.N,Net-(Q10-D)*%
X60000000Y-62400000D03*
%TD*%
D11*
%TO.P,Q114,1,G*%
%TO.N,Net-(Q102-D)*%
X91650000Y-82837500D03*
%TO.P,Q114,2,S*%
%TO.N,Net-(Q105-S)*%
X93550000Y-82837500D03*
%TO.P,Q114,3,D*%
%TO.N,Net-(Q107-G)*%
X92600000Y-80962500D03*
%TD*%
%TO.P,Q50,1,G*%
%TO.N,Net-(Q40-G)*%
X76800000Y-42837500D03*
%TO.P,Q50,2,S*%
%TO.N,GND*%
X78700000Y-42837500D03*
%TO.P,Q50,3,D*%
%TO.N,Net-(Q163-G)*%
X77750000Y-40962500D03*
%TD*%
%TO.P,Q58,1,G*%
%TO.N,Net-(Q45-D)*%
X80550000Y-58037500D03*
%TO.P,Q58,2,S*%
%TO.N,GND*%
X82450000Y-58037500D03*
%TO.P,Q58,3,D*%
%TO.N,Net-(Q58-D)*%
X81500000Y-56162500D03*
%TD*%
%TO.P,Q57,1,G*%
%TO.N,Net-(Q57-G)*%
X76850000Y-58037500D03*
%TO.P,Q57,2,S*%
%TO.N,Net-(Q56-D)*%
X78750000Y-58037500D03*
%TO.P,Q57,3,D*%
%TO.N,Net-(Q187-G)*%
X77800000Y-56162500D03*
%TD*%
%TO.P,Q59,1,G*%
%TO.N,Net-(Q59-G)*%
X84250000Y-58037500D03*
%TO.P,Q59,2,S*%
%TO.N,Net-(Q58-D)*%
X86150000Y-58037500D03*
%TO.P,Q59,3,D*%
%TO.N,Net-(Q59-D)*%
X85200000Y-56162500D03*
%TD*%
D13*
%TO.P,R102,1*%
%TO.N,VCC*%
X80200000Y-104500000D03*
%TO.P,R102,2*%
%TO.N,Net-(Q132-G)*%
X81200000Y-104500000D03*
%TD*%
D11*
%TO.P,Q1,1,G*%
%TO.N,Net-(J1-Pin_8)*%
X59650000Y-36037500D03*
%TO.P,Q1,2,S*%
%TO.N,GND*%
X61550000Y-36037500D03*
%TO.P,Q1,3,D*%
%TO.N,Net-(Q1-D)*%
X60600000Y-34162500D03*
%TD*%
%TO.P,Q83,1,G*%
%TO.N,Net-(Q74-G)*%
X87950000Y-62837500D03*
%TO.P,Q83,2,S*%
%TO.N,GND*%
X89850000Y-62837500D03*
%TO.P,Q83,3,D*%
%TO.N,Net-(Q75-S)*%
X88900000Y-60962500D03*
%TD*%
%TO.P,Q20,1,G*%
%TO.N,Net-(J2-Pin_2)*%
X63350000Y-96037500D03*
%TO.P,Q20,2,S*%
%TO.N,GND*%
X65250000Y-96037500D03*
%TO.P,Q20,3,D*%
%TO.N,Net-(Q19-D)*%
X64300000Y-94162500D03*
%TD*%
%TO.P,Q32,1,G*%
%TO.N,Net-(Q32-G)*%
X95350000Y-38037500D03*
%TO.P,Q32,2,S*%
%TO.N,Net-(Q31-D)*%
X97250000Y-38037500D03*
%TO.P,Q32,3,D*%
%TO.N,Net-(Q209-G)*%
X96300000Y-36162500D03*
%TD*%
D13*
%TO.P,R81,1*%
%TO.N,VCC*%
X86000000Y-84500000D03*
%TO.P,R81,2*%
%TO.N,Net-(Q104-G)*%
X87000000Y-84500000D03*
%TD*%
D10*
%TO.P,Q15,1,G*%
%TO.N,Net-(Q13-D)*%
X63450000Y-70962500D03*
%TO.P,Q15,2,S*%
%TO.N,GND*%
X61550000Y-70962500D03*
%TO.P,Q15,3,D*%
%TO.N,Net-(Q15-D)*%
X62500000Y-72837500D03*
%TD*%
D12*
%TO.P,R28,1*%
%TO.N,VCC*%
X70050000Y-44500000D03*
%TO.P,R28,2*%
%TO.N,Net-(Q40-D)*%
X69050000Y-44500000D03*
%TD*%
%TO.P,R94,1*%
%TO.N,VCC*%
X70100000Y-104500000D03*
%TO.P,R94,2*%
%TO.N,Net-(Q130-D)*%
X69100000Y-104500000D03*
%TD*%
D11*
%TO.P,Q25,1,G*%
%TO.N,Net-(Q25-G)*%
X69450000Y-38037500D03*
%TO.P,Q25,2,S*%
%TO.N,Net-(Q177-G)*%
X71350000Y-38037500D03*
%TO.P,Q25,3,D*%
%TO.N,Net-(Q25-D)*%
X70400000Y-36162500D03*
%TD*%
%TO.P,Q45,1,G*%
%TO.N,Net-(Q40-G)*%
X87900000Y-48037500D03*
%TO.P,Q45,2,S*%
%TO.N,Net-(Q45-S)*%
X89800000Y-48037500D03*
%TO.P,Q45,3,D*%
%TO.N,Net-(Q45-D)*%
X88850000Y-46162500D03*
%TD*%
%TO.P,Q13,1,G*%
%TO.N,Net-(J1-Pin_4)*%
X59650000Y-76037500D03*
%TO.P,Q13,2,S*%
%TO.N,GND*%
X61550000Y-76037500D03*
%TO.P,Q13,3,D*%
%TO.N,Net-(Q13-D)*%
X60600000Y-74162500D03*
%TD*%
D14*
%TO.P,R14,1*%
%TO.N,VCC*%
X65000000Y-91400000D03*
%TO.P,R14,2*%
%TO.N,Net-(Q148-G)*%
X65000000Y-92400000D03*
%TD*%
D11*
%TO.P,Q105,1,G*%
%TO.N,Net-(Q100-G)*%
X87950000Y-88037500D03*
%TO.P,Q105,2,S*%
%TO.N,Net-(Q105-S)*%
X89850000Y-88037500D03*
%TO.P,Q105,3,D*%
%TO.N,Net-(Q105-D)*%
X88900000Y-86162500D03*
%TD*%
D14*
%TO.P,R13,1*%
%TO.N,VCC*%
X60000000Y-91400000D03*
%TO.P,R13,2*%
%TO.N,Net-(Q19-D)*%
X60000000Y-92400000D03*
%TD*%
D13*
%TO.P,R40,1*%
%TO.N,VCC*%
X75400000Y-54500000D03*
%TO.P,R40,2*%
%TO.N,Net-(Q187-G)*%
X76400000Y-54500000D03*
%TD*%
%TO.P,R71,1*%
%TO.N,VCC*%
X91800000Y-74500000D03*
%TO.P,R71,2*%
%TO.N,Net-(Q92-G)*%
X92800000Y-74500000D03*
%TD*%
D12*
%TO.P,R19,1*%
%TO.N,VCC*%
X84900000Y-34500000D03*
%TO.P,R19,2*%
%TO.N,Net-(Q29-D)*%
X83900000Y-34500000D03*
%TD*%
%TO.P,R39,1*%
%TO.N,VCC*%
X70100000Y-54500000D03*
%TO.P,R39,2*%
%TO.N,Net-(Q55-D)*%
X69100000Y-54500000D03*
%TD*%
D10*
%TO.P,Q18,1,G*%
%TO.N,Net-(Q16-D)*%
X63450000Y-80962500D03*
%TO.P,Q18,2,S*%
%TO.N,GND*%
X61550000Y-80962500D03*
%TO.P,Q18,3,D*%
%TO.N,Net-(Q149-G)*%
X62500000Y-82837500D03*
%TD*%
D11*
%TO.P,Q51,1,G*%
%TO.N,Net-(J2-Pin_7)*%
X80500000Y-42837500D03*
%TO.P,Q51,2,S*%
%TO.N,Net-(Q163-G)*%
X82400000Y-42837500D03*
%TO.P,Q51,3,D*%
%TO.N,Net-(Q42-G)*%
X81450000Y-40962500D03*
%TD*%
D13*
%TO.P,R82,1*%
%TO.N,VCC*%
X91800000Y-84500000D03*
%TO.P,R82,2*%
%TO.N,Net-(Q107-G)*%
X92800000Y-84500000D03*
%TD*%
D12*
%TO.P,R50,1*%
%TO.N,VCC*%
X70100000Y-64500000D03*
%TO.P,R50,2*%
%TO.N,Net-(Q70-D)*%
X69100000Y-64500000D03*
%TD*%
D11*
%TO.P,Q109,1,G*%
%TO.N,Net-(J2-Pin_3)*%
X73150000Y-82837500D03*
%TO.P,Q109,2,S*%
%TO.N,Net-(Q100-S)*%
X75050000Y-82837500D03*
%TO.P,Q109,3,D*%
%TO.N,Net-(Q100-G)*%
X74100000Y-80962500D03*
%TD*%
%TO.P,Q137,1,G*%
%TO.N,Net-(Q137-G)*%
X95350000Y-108037500D03*
%TO.P,Q137,2,S*%
%TO.N,Net-(Q136-D)*%
X97250000Y-108037500D03*
%TO.P,Q137,3,D*%
%TO.N,Net-(Q137-D)*%
X96300000Y-106162500D03*
%TD*%
%TO.P,Q85,1,G*%
%TO.N,Net-(Q85-G)*%
X69450000Y-78037500D03*
%TO.P,Q85,2,S*%
%TO.N,Net-(Q193-G)*%
X71350000Y-78037500D03*
%TO.P,Q85,3,D*%
%TO.N,Net-(Q85-D)*%
X70400000Y-76162500D03*
%TD*%
D12*
%TO.P,R34,1*%
%TO.N,VCC*%
X74250000Y-44500000D03*
%TO.P,R34,2*%
%TO.N,Net-(Q40-G)*%
X73250000Y-44500000D03*
%TD*%
D14*
%TO.P,R4,1*%
%TO.N,VCC*%
X64950000Y-41400000D03*
%TO.P,R4,2*%
%TO.N,Net-(Q153-G)*%
X64950000Y-42400000D03*
%TD*%
D11*
%TO.P,Q14,1,G*%
%TO.N,Net-(J2-Pin_4)*%
X63350000Y-76037500D03*
%TO.P,Q14,2,S*%
%TO.N,GND*%
X65250000Y-76037500D03*
%TO.P,Q14,3,D*%
%TO.N,Net-(Q13-D)*%
X64300000Y-74162500D03*
%TD*%
%TO.P,Q33,1,G*%
%TO.N,Net-(J1-Pin_8)*%
X69450000Y-32837500D03*
%TO.P,Q33,2,S*%
%TO.N,GND*%
X71350000Y-32837500D03*
%TO.P,Q33,3,D*%
%TO.N,Net-(Q177-G)*%
X70400000Y-30962500D03*
%TD*%
D13*
%TO.P,R48,1*%
%TO.N,VCC*%
X86000000Y-54500000D03*
%TO.P,R48,2*%
%TO.N,Net-(Q59-G)*%
X87000000Y-54500000D03*
%TD*%
D12*
%TO.P,R75,1*%
%TO.N,VCC*%
X90700000Y-84500000D03*
%TO.P,R75,2*%
%TO.N,Net-(Q105-D)*%
X89700000Y-84500000D03*
%TD*%
D11*
%TO.P,Q73,1,G*%
%TO.N,Net-(Q60-D)*%
X80550000Y-68037500D03*
%TO.P,Q73,2,S*%
%TO.N,GND*%
X82450000Y-68037500D03*
%TO.P,Q73,3,D*%
%TO.N,Net-(Q73-D)*%
X81500000Y-66162500D03*
%TD*%
D13*
%TO.P,R88,1*%
%TO.N,VCC*%
X71200000Y-94500000D03*
%TO.P,R88,2*%
%TO.N,Net-(Q115-S)*%
X72200000Y-94500000D03*
%TD*%
D12*
%TO.P,R30,1*%
%TO.N,VCC*%
X84850000Y-44500000D03*
%TO.P,R30,2*%
%TO.N,Net-(Q44-D)*%
X83850000Y-44500000D03*
%TD*%
D13*
%TO.P,R70,1*%
%TO.N,VCC*%
X86000000Y-74500000D03*
%TO.P,R70,2*%
%TO.N,Net-(Q89-G)*%
X87000000Y-74500000D03*
%TD*%
D11*
%TO.P,Q28,1,G*%
%TO.N,Net-(J8-Pin_12)*%
X80550000Y-38037500D03*
%TO.P,Q28,2,S*%
%TO.N,GND*%
X82450000Y-38037500D03*
%TO.P,Q28,3,D*%
%TO.N,Net-(Q28-D)*%
X81500000Y-36162500D03*
%TD*%
%TO.P,Q77,1,G*%
%TO.N,Net-(Q77-G)*%
X95350000Y-68037500D03*
%TO.P,Q77,2,S*%
%TO.N,Net-(Q76-D)*%
X97250000Y-68037500D03*
%TO.P,Q77,3,D*%
%TO.N,Net-(Q215-G)*%
X96300000Y-66162500D03*
%TD*%
D13*
%TO.P,R66,1*%
%TO.N,VCC*%
X71200000Y-74500000D03*
%TO.P,R66,2*%
%TO.N,Net-(Q193-G)*%
X72200000Y-74500000D03*
%TD*%
D11*
%TO.P,Q79,1,G*%
%TO.N,Net-(J2-Pin_5)*%
X73150000Y-62837500D03*
%TO.P,Q79,2,S*%
%TO.N,Net-(Q189-G)*%
X75050000Y-62837500D03*
%TO.P,Q79,3,D*%
%TO.N,Net-(Q70-G)*%
X74100000Y-60962500D03*
%TD*%
D13*
%TO.P,R77,1*%
%TO.N,VCC*%
X71200000Y-84500000D03*
%TO.P,R77,2*%
%TO.N,Net-(Q100-S)*%
X72200000Y-84500000D03*
%TD*%
D11*
%TO.P,Q10,1,G*%
%TO.N,Net-(J1-Pin_5)*%
X59650000Y-66037500D03*
%TO.P,Q10,2,S*%
%TO.N,GND*%
X61550000Y-66037500D03*
%TO.P,Q10,3,D*%
%TO.N,Net-(Q10-D)*%
X60600000Y-64162500D03*
%TD*%
%TO.P,Q46,1,G*%
%TO.N,Net-(Q44-D)*%
X91600000Y-48037500D03*
%TO.P,Q46,2,S*%
%TO.N,GND*%
X93500000Y-48037500D03*
%TO.P,Q46,3,D*%
%TO.N,Net-(Q46-D)*%
X92550000Y-46162500D03*
%TD*%
%TO.P,Q117,1,G*%
%TO.N,Net-(Q117-G)*%
X76850000Y-98037500D03*
%TO.P,Q117,2,S*%
%TO.N,Net-(Q116-D)*%
X78750000Y-98037500D03*
%TO.P,Q117,3,D*%
%TO.N,Net-(Q117-D)*%
X77800000Y-96162500D03*
%TD*%
%TO.P,Q120,1,G*%
%TO.N,Net-(Q115-G)*%
X87950000Y-98037500D03*
%TO.P,Q120,2,S*%
%TO.N,Net-(Q120-S)*%
X89850000Y-98037500D03*
%TO.P,Q120,3,D*%
%TO.N,Net-(Q120-D)*%
X88900000Y-96162500D03*
%TD*%
%TO.P,Q30,1,G*%
%TO.N,Net-(Q25-G)*%
X87950000Y-38037500D03*
%TO.P,Q30,2,S*%
%TO.N,Net-(Q30-S)*%
X89850000Y-38037500D03*
%TO.P,Q30,3,D*%
%TO.N,Net-(Q30-D)*%
X88900000Y-36162500D03*
%TD*%
D13*
%TO.P,R36,1*%
%TO.N,VCC*%
X80150000Y-44500000D03*
%TO.P,R36,2*%
%TO.N,Net-(Q42-G)*%
X81150000Y-44500000D03*
%TD*%
D14*
%TO.P,R1,1*%
%TO.N,VCC*%
X60000000Y-31400000D03*
%TO.P,R1,2*%
%TO.N,Net-(Q1-D)*%
X60000000Y-32400000D03*
%TD*%
D12*
%TO.P,R32,1*%
%TO.N,VCC*%
X95950000Y-44500000D03*
%TO.P,R32,2*%
%TO.N,Net-(Q211-G)*%
X94950000Y-44500000D03*
%TD*%
D11*
%TO.P,Q71,1,G*%
%TO.N,Net-(Q70-D)*%
X73150000Y-68037500D03*
%TO.P,Q71,2,S*%
%TO.N,GND*%
X75050000Y-68037500D03*
%TO.P,Q71,3,D*%
%TO.N,Net-(Q71-D)*%
X74100000Y-66162500D03*
%TD*%
D12*
%TO.P,R61,1*%
%TO.N,VCC*%
X70100000Y-74500000D03*
%TO.P,R61,2*%
%TO.N,Net-(Q85-D)*%
X69100000Y-74500000D03*
%TD*%
D11*
%TO.P,Q16,1,G*%
%TO.N,Net-(J1-Pin_3)*%
X59650000Y-86037500D03*
%TO.P,Q16,2,S*%
%TO.N,GND*%
X61550000Y-86037500D03*
%TO.P,Q16,3,D*%
%TO.N,Net-(Q16-D)*%
X60600000Y-84162500D03*
%TD*%
%TO.P,Q115,1,G*%
%TO.N,Net-(Q115-G)*%
X69450000Y-98037500D03*
%TO.P,Q115,2,S*%
%TO.N,Net-(Q115-S)*%
X71350000Y-98037500D03*
%TO.P,Q115,3,D*%
%TO.N,Net-(Q115-D)*%
X70400000Y-96162500D03*
%TD*%
%TO.P,Q142,1,G*%
%TO.N,Net-(Q132-D)*%
X84250000Y-102837500D03*
%TO.P,Q142,2,S*%
%TO.N,Net-(Q133-D)*%
X86150000Y-102837500D03*
%TO.P,Q142,3,D*%
%TO.N,Net-(Q134-G)*%
X85200000Y-100962500D03*
%TD*%
%TO.P,Q80,1,G*%
%TO.N,Net-(Q70-G)*%
X76850000Y-62837500D03*
%TO.P,Q80,2,S*%
%TO.N,GND*%
X78750000Y-62837500D03*
%TO.P,Q80,3,D*%
%TO.N,Net-(Q167-G)*%
X77800000Y-60962500D03*
%TD*%
%TO.P,Q119,1,G*%
%TO.N,Net-(Q119-G)*%
X84250000Y-98037500D03*
%TO.P,Q119,2,S*%
%TO.N,Net-(Q118-D)*%
X86150000Y-98037500D03*
%TO.P,Q119,3,D*%
%TO.N,Net-(Q119-D)*%
X85200000Y-96162500D03*
%TD*%
%TO.P,Q54,1,G*%
%TO.N,Net-(Q183-G)*%
X91600000Y-42837500D03*
%TO.P,Q54,2,S*%
%TO.N,Net-(Q45-S)*%
X93500000Y-42837500D03*
%TO.P,Q54,3,D*%
%TO.N,Net-(Q47-G)*%
X92550000Y-40962500D03*
%TD*%
D13*
%TO.P,R93,1*%
%TO.N,VCC*%
X91800000Y-94500000D03*
%TO.P,R93,2*%
%TO.N,Net-(Q122-G)*%
X92800000Y-94500000D03*
%TD*%
%TO.P,R95,1*%
%TO.N,VCC*%
X75400000Y-104500000D03*
%TO.P,R95,2*%
%TO.N,Net-(Q132-D)*%
X76400000Y-104500000D03*
%TD*%
D14*
%TO.P,R8,1*%
%TO.N,VCC*%
X65000000Y-61400000D03*
%TO.P,R8,2*%
%TO.N,Net-(Q12-D)*%
X65000000Y-62400000D03*
%TD*%
D11*
%TO.P,Q78,1,G*%
%TO.N,Net-(J1-Pin_5)*%
X69450000Y-62837500D03*
%TO.P,Q78,2,S*%
%TO.N,GND*%
X71350000Y-62837500D03*
%TO.P,Q78,3,D*%
%TO.N,Net-(Q189-G)*%
X70400000Y-60962500D03*
%TD*%
%TO.P,Q92,1,G*%
%TO.N,Net-(Q92-G)*%
X95350000Y-78037500D03*
%TO.P,Q92,2,S*%
%TO.N,Net-(Q91-D)*%
X97250000Y-78037500D03*
%TO.P,Q92,3,D*%
%TO.N,Net-(Q217-G)*%
X96300000Y-76162500D03*
%TD*%
D13*
%TO.P,R38,1*%
%TO.N,VCC*%
X91750000Y-44500000D03*
%TO.P,R38,2*%
%TO.N,Net-(Q47-G)*%
X92750000Y-44500000D03*
%TD*%
%TO.P,R26,1*%
%TO.N,VCC*%
X86000000Y-34500000D03*
%TO.P,R26,2*%
%TO.N,Net-(Q29-G)*%
X87000000Y-34500000D03*
%TD*%
D11*
%TO.P,Q63,1,G*%
%TO.N,Net-(J1-Pin_6)*%
X69450000Y-52837500D03*
%TO.P,Q63,2,S*%
%TO.N,GND*%
X71350000Y-52837500D03*
%TO.P,Q63,3,D*%
%TO.N,Net-(Q185-G)*%
X70400000Y-50962500D03*
%TD*%
%TO.P,Q67,1,G*%
%TO.N,Net-(Q187-G)*%
X84250000Y-52837500D03*
%TO.P,Q67,2,S*%
%TO.N,Net-(Q58-D)*%
X86150000Y-52837500D03*
%TO.P,Q67,3,D*%
%TO.N,Net-(Q59-G)*%
X85200000Y-50962500D03*
%TD*%
%TO.P,Q106,1,G*%
%TO.N,Net-(Q104-D)*%
X91650000Y-88037500D03*
%TO.P,Q106,2,S*%
%TO.N,GND*%
X93550000Y-88037500D03*
%TO.P,Q106,3,D*%
%TO.N,Net-(Q106-D)*%
X92600000Y-86162500D03*
%TD*%
%TO.P,Q89,1,G*%
%TO.N,Net-(Q89-G)*%
X84250000Y-78037500D03*
%TO.P,Q89,2,S*%
%TO.N,Net-(Q88-D)*%
X86150000Y-78037500D03*
%TO.P,Q89,3,D*%
%TO.N,Net-(Q89-D)*%
X85200000Y-76162500D03*
%TD*%
%TO.P,Q126,1,G*%
%TO.N,Net-(J2-Pin_2)*%
X80550000Y-92837500D03*
%TO.P,Q126,2,S*%
%TO.N,Net-(Q125-D)*%
X82450000Y-92837500D03*
%TO.P,Q126,3,D*%
%TO.N,Net-(Q117-G)*%
X81500000Y-90962500D03*
%TD*%
%TO.P,Q22,1,G*%
%TO.N,Net-(J1-Pin_1)*%
X59650000Y-106037500D03*
%TO.P,Q22,2,S*%
%TO.N,GND*%
X61550000Y-106037500D03*
%TO.P,Q22,3,D*%
%TO.N,Net-(Q22-D)*%
X60600000Y-104162500D03*
%TD*%
D12*
%TO.P,R97,1*%
%TO.N,VCC*%
X90700000Y-104500000D03*
%TO.P,R97,2*%
%TO.N,Net-(Q135-D)*%
X89700000Y-104500000D03*
%TD*%
D11*
%TO.P,Q95,1,G*%
%TO.N,Net-(Q85-G)*%
X76850000Y-72837500D03*
%TO.P,Q95,2,S*%
%TO.N,GND*%
X78750000Y-72837500D03*
%TO.P,Q95,3,D*%
%TO.N,Net-(Q169-G)*%
X77800000Y-70962500D03*
%TD*%
%TO.P,Q41,1,G*%
%TO.N,Net-(Q40-D)*%
X73100000Y-48037500D03*
%TO.P,Q41,2,S*%
%TO.N,GND*%
X75000000Y-48037500D03*
%TO.P,Q41,3,D*%
%TO.N,Net-(Q41-D)*%
X74050000Y-46162500D03*
%TD*%
%TO.P,Q102,1,G*%
%TO.N,Net-(Q102-G)*%
X76850000Y-88037500D03*
%TO.P,Q102,2,S*%
%TO.N,Net-(Q101-D)*%
X78750000Y-88037500D03*
%TO.P,Q102,3,D*%
%TO.N,Net-(Q102-D)*%
X77800000Y-86162500D03*
%TD*%
D12*
%TO.P,R31,1*%
%TO.N,VCC*%
X90650000Y-44500000D03*
%TO.P,R31,2*%
%TO.N,Net-(Q45-D)*%
X89650000Y-44500000D03*
%TD*%
D11*
%TO.P,Q34,1,G*%
%TO.N,Net-(J2-Pin_8)*%
X73150000Y-32837500D03*
%TO.P,Q34,2,S*%
%TO.N,Net-(Q177-G)*%
X75050000Y-32837500D03*
%TO.P,Q34,3,D*%
%TO.N,Net-(Q25-G)*%
X74100000Y-30962500D03*
%TD*%
%TO.P,Q69,1,G*%
%TO.N,Net-(Q187-G)*%
X91650000Y-52837500D03*
%TO.P,Q69,2,S*%
%TO.N,Net-(Q60-S)*%
X93550000Y-52837500D03*
%TO.P,Q69,3,D*%
%TO.N,Net-(Q62-G)*%
X92600000Y-50962500D03*
%TD*%
D14*
%TO.P,R12,1*%
%TO.N,VCC*%
X65000000Y-81400000D03*
%TO.P,R12,2*%
%TO.N,Net-(Q149-G)*%
X65000000Y-82400000D03*
%TD*%
%TO.P,R9,1*%
%TO.N,VCC*%
X60000000Y-71400000D03*
%TO.P,R9,2*%
%TO.N,Net-(Q13-D)*%
X60000000Y-72400000D03*
%TD*%
D13*
%TO.P,R25,1*%
%TO.N,VCC*%
X80200000Y-34500000D03*
%TO.P,R25,2*%
%TO.N,Net-(Q27-G)*%
X81200000Y-34500000D03*
%TD*%
D14*
%TO.P,R11,1*%
%TO.N,VCC*%
X60000000Y-81400000D03*
%TO.P,R11,2*%
%TO.N,Net-(Q16-D)*%
X60000000Y-82400000D03*
%TD*%
D11*
%TO.P,Q53,1,G*%
%TO.N,Net-(Q44-G)*%
X87900000Y-42837500D03*
%TO.P,Q53,2,S*%
%TO.N,GND*%
X89800000Y-42837500D03*
%TO.P,Q53,3,D*%
%TO.N,Net-(Q45-S)*%
X88850000Y-40962500D03*
%TD*%
%TO.P,Q128,1,G*%
%TO.N,Net-(Q119-G)*%
X87950000Y-92837500D03*
%TO.P,Q128,2,S*%
%TO.N,GND*%
X89850000Y-92837500D03*
%TO.P,Q128,3,D*%
%TO.N,Net-(Q120-S)*%
X88900000Y-90962500D03*
%TD*%
%TO.P,Q98,1,G*%
%TO.N,Net-(Q89-G)*%
X87950000Y-72837500D03*
%TO.P,Q98,2,S*%
%TO.N,GND*%
X89850000Y-72837500D03*
%TO.P,Q98,3,D*%
%TO.N,Net-(Q90-S)*%
X88900000Y-70962500D03*
%TD*%
%TO.P,Q122,1,G*%
%TO.N,Net-(Q122-G)*%
X95350000Y-98037500D03*
%TO.P,Q122,2,S*%
%TO.N,Net-(Q121-D)*%
X97250000Y-98037500D03*
%TO.P,Q122,3,D*%
%TO.N,Net-(Q122-D)*%
X96300000Y-96162500D03*
%TD*%
D12*
%TO.P,R21,1*%
%TO.N,VCC*%
X96000000Y-34500000D03*
%TO.P,R21,2*%
%TO.N,Net-(Q209-G)*%
X95000000Y-34500000D03*
%TD*%
D11*
%TO.P,Q86,1,G*%
%TO.N,Net-(Q85-D)*%
X73150000Y-78037500D03*
%TO.P,Q86,2,S*%
%TO.N,GND*%
X75050000Y-78037500D03*
%TO.P,Q86,3,D*%
%TO.N,Net-(Q86-D)*%
X74100000Y-76162500D03*
%TD*%
%TO.P,Q125,1,G*%
%TO.N,Net-(Q115-G)*%
X76850000Y-92837500D03*
%TO.P,Q125,2,S*%
%TO.N,GND*%
X78750000Y-92837500D03*
%TO.P,Q125,3,D*%
%TO.N,Net-(Q125-D)*%
X77800000Y-90962500D03*
%TD*%
D13*
%TO.P,R80,1*%
%TO.N,VCC*%
X80200000Y-84500000D03*
%TO.P,R80,2*%
%TO.N,Net-(Q102-G)*%
X81200000Y-84500000D03*
%TD*%
%TO.P,R73,1*%
%TO.N,VCC*%
X75400000Y-84500000D03*
%TO.P,R73,2*%
%TO.N,Net-(Q102-D)*%
X76400000Y-84500000D03*
%TD*%
D11*
%TO.P,Q107,1,G*%
%TO.N,Net-(Q107-G)*%
X95350000Y-88037500D03*
%TO.P,Q107,2,S*%
%TO.N,Net-(Q106-D)*%
X97250000Y-88037500D03*
%TO.P,Q107,3,D*%
%TO.N,Net-(Q107-D)*%
X96300000Y-86162500D03*
%TD*%
D12*
%TO.P,R20,1*%
%TO.N,VCC*%
X90700000Y-34500000D03*
%TO.P,R20,2*%
%TO.N,Net-(Q30-D)*%
X89700000Y-34500000D03*
%TD*%
D11*
%TO.P,Q94,1,G*%
%TO.N,Net-(J2-Pin_4)*%
X73150000Y-72837500D03*
%TO.P,Q94,2,S*%
%TO.N,Net-(Q193-G)*%
X75050000Y-72837500D03*
%TO.P,Q94,3,D*%
%TO.N,Net-(Q85-G)*%
X74100000Y-70962500D03*
%TD*%
%TO.P,Q48,1,G*%
%TO.N,Net-(J1-Pin_7)*%
X69400000Y-42837500D03*
%TO.P,Q48,2,S*%
%TO.N,GND*%
X71300000Y-42837500D03*
%TO.P,Q48,3,D*%
%TO.N,Net-(Q181-G)*%
X70350000Y-40962500D03*
%TD*%
D13*
%TO.P,R33,1*%
%TO.N,VCC*%
X71150000Y-44500000D03*
%TO.P,R33,2*%
%TO.N,Net-(Q181-G)*%
X72150000Y-44500000D03*
%TD*%
%TO.P,R22,1*%
%TO.N,VCC*%
X71200000Y-34500000D03*
%TO.P,R22,2*%
%TO.N,Net-(Q177-G)*%
X72200000Y-34500000D03*
%TD*%
D11*
%TO.P,Q118,1,G*%
%TO.N,Net-(Q105-D)*%
X80550000Y-98037500D03*
%TO.P,Q118,2,S*%
%TO.N,GND*%
X82450000Y-98037500D03*
%TO.P,Q118,3,D*%
%TO.N,Net-(Q118-D)*%
X81500000Y-96162500D03*
%TD*%
%TO.P,Q4,1,G*%
%TO.N,Net-(J1-Pin_7)*%
X59600000Y-46037500D03*
%TO.P,Q4,2,S*%
%TO.N,GND*%
X61500000Y-46037500D03*
%TO.P,Q4,3,D*%
%TO.N,Net-(Q4-D)*%
X60550000Y-44162500D03*
%TD*%
D13*
%TO.P,R18,1*%
%TO.N,VCC*%
X75400000Y-34500000D03*
%TO.P,R18,2*%
%TO.N,Net-(Q179-G)*%
X76400000Y-34500000D03*
%TD*%
D11*
%TO.P,Q81,1,G*%
%TO.N,Net-(J2-Pin_5)*%
X80550000Y-62837500D03*
%TO.P,Q81,2,S*%
%TO.N,Net-(Q167-G)*%
X82450000Y-62837500D03*
%TO.P,Q81,3,D*%
%TO.N,Net-(Q72-G)*%
X81500000Y-60962500D03*
%TD*%
D12*
%TO.P,R23,1*%
%TO.N,VCC*%
X74300000Y-34500000D03*
%TO.P,R23,2*%
%TO.N,Net-(Q25-G)*%
X73300000Y-34500000D03*
%TD*%
D11*
%TO.P,Q8,1,G*%
%TO.N,Net-(J2-Pin_6)*%
X63350000Y-56037500D03*
%TO.P,Q8,2,S*%
%TO.N,GND*%
X65250000Y-56037500D03*
%TO.P,Q8,3,D*%
%TO.N,Net-(Q7-D)*%
X64300000Y-54162500D03*
%TD*%
D13*
%TO.P,R62,1*%
%TO.N,VCC*%
X75400000Y-74500000D03*
%TO.P,R62,2*%
%TO.N,Net-(Q195-G)*%
X76400000Y-74500000D03*
%TD*%
D11*
%TO.P,Q88,1,G*%
%TO.N,Net-(Q75-D)*%
X80550000Y-78037500D03*
%TO.P,Q88,2,S*%
%TO.N,GND*%
X82450000Y-78037500D03*
%TO.P,Q88,3,D*%
%TO.N,Net-(Q88-D)*%
X81500000Y-76162500D03*
%TD*%
%TO.P,Q133,1,G*%
%TO.N,Net-(Q120-D)*%
X80575000Y-108037500D03*
%TO.P,Q133,2,S*%
%TO.N,GND*%
X82475000Y-108037500D03*
%TO.P,Q133,3,D*%
%TO.N,Net-(Q133-D)*%
X81525000Y-106162500D03*
%TD*%
%TO.P,Q129,1,G*%
%TO.N,Net-(Q117-D)*%
X91650000Y-92837500D03*
%TO.P,Q129,2,S*%
%TO.N,Net-(Q120-S)*%
X93550000Y-92837500D03*
%TO.P,Q129,3,D*%
%TO.N,Net-(Q122-G)*%
X92600000Y-90962500D03*
%TD*%
%TO.P,Q97,1,G*%
%TO.N,Net-(Q195-G)*%
X84250000Y-72837500D03*
%TO.P,Q97,2,S*%
%TO.N,Net-(Q88-D)*%
X86150000Y-72837500D03*
%TO.P,Q97,3,D*%
%TO.N,Net-(Q89-G)*%
X85200000Y-70962500D03*
%TD*%
D12*
%TO.P,R68,1*%
%TO.N,VCC*%
X79100000Y-74500000D03*
%TO.P,R68,2*%
%TO.N,Net-(Q169-G)*%
X78100000Y-74500000D03*
%TD*%
D11*
%TO.P,Q66,1,G*%
%TO.N,Net-(J2-Pin_6)*%
X80550000Y-52837500D03*
%TO.P,Q66,2,S*%
%TO.N,Net-(Q165-G)*%
X82450000Y-52837500D03*
%TO.P,Q66,3,D*%
%TO.N,Net-(Q57-G)*%
X81500000Y-50962500D03*
%TD*%
%TO.P,Q35,1,G*%
%TO.N,Net-(Q25-G)*%
X76850000Y-32837500D03*
%TO.P,Q35,2,S*%
%TO.N,GND*%
X78750000Y-32837500D03*
%TO.P,Q35,3,D*%
%TO.N,Net-(Q145-G)*%
X77800000Y-30962500D03*
%TD*%
D12*
%TO.P,R86,1*%
%TO.N,VCC*%
X90700000Y-94500000D03*
%TO.P,R86,2*%
%TO.N,Net-(Q120-D)*%
X89700000Y-94500000D03*
%TD*%
D11*
%TO.P,Q61,1,G*%
%TO.N,Net-(Q59-D)*%
X91650000Y-58037500D03*
%TO.P,Q61,2,S*%
%TO.N,GND*%
X93550000Y-58037500D03*
%TO.P,Q61,3,D*%
%TO.N,Net-(Q61-D)*%
X92600000Y-56162500D03*
%TD*%
D13*
%TO.P,R91,1*%
%TO.N,VCC*%
X80200000Y-94500000D03*
%TO.P,R91,2*%
%TO.N,Net-(Q117-G)*%
X81200000Y-94500000D03*
%TD*%
D12*
%TO.P,R56,1*%
%TO.N,VCC*%
X74300000Y-64500000D03*
%TO.P,R56,2*%
%TO.N,Net-(Q70-G)*%
X73300000Y-64500000D03*
%TD*%
D11*
%TO.P,Q7,1,G*%
%TO.N,Net-(J1-Pin_6)*%
X59650000Y-56037500D03*
%TO.P,Q7,2,S*%
%TO.N,GND*%
X61550000Y-56037500D03*
%TO.P,Q7,3,D*%
%TO.N,Net-(Q7-D)*%
X60600000Y-54162500D03*
%TD*%
%TO.P,Q26,1,G*%
%TO.N,Net-(Q25-D)*%
X73150000Y-38037500D03*
%TO.P,Q26,2,S*%
%TO.N,GND*%
X75050000Y-38037500D03*
%TO.P,Q26,3,D*%
%TO.N,Net-(Q26-D)*%
X74100000Y-36162500D03*
%TD*%
%TO.P,Q116,1,G*%
%TO.N,Net-(Q115-D)*%
X73150000Y-98037500D03*
%TO.P,Q116,2,S*%
%TO.N,GND*%
X75050000Y-98037500D03*
%TO.P,Q116,3,D*%
%TO.N,Net-(Q116-D)*%
X74100000Y-96162500D03*
%TD*%
%TO.P,Q39,1,G*%
%TO.N,Net-(Q179-G)*%
X91650000Y-32837500D03*
%TO.P,Q39,2,S*%
%TO.N,Net-(Q30-S)*%
X93550000Y-32837500D03*
%TO.P,Q39,3,D*%
%TO.N,Net-(Q32-G)*%
X92600000Y-30962500D03*
%TD*%
D12*
%TO.P,R54,1*%
%TO.N,VCC*%
X96000000Y-64500000D03*
%TO.P,R54,2*%
%TO.N,Net-(Q215-G)*%
X95000000Y-64500000D03*
%TD*%
D11*
%TO.P,Q104,1,G*%
%TO.N,Net-(Q104-G)*%
X84250000Y-88037500D03*
%TO.P,Q104,2,S*%
%TO.N,Net-(Q103-D)*%
X86150000Y-88037500D03*
%TO.P,Q104,3,D*%
%TO.N,Net-(Q104-D)*%
X85200000Y-86162500D03*
%TD*%
%TO.P,Q138,1,G*%
%TO.N,Net-(J1-Pin_1)*%
X69450000Y-102837500D03*
%TO.P,Q138,2,S*%
%TO.N,GND*%
X71350000Y-102837500D03*
%TO.P,Q138,3,D*%
%TO.N,Net-(Q130-S)*%
X70400000Y-100962500D03*
%TD*%
D12*
%TO.P,R42,1*%
%TO.N,VCC*%
X90700000Y-54500000D03*
%TO.P,R42,2*%
%TO.N,Net-(Q60-D)*%
X89700000Y-54500000D03*
%TD*%
D13*
%TO.P,R29,1*%
%TO.N,VCC*%
X75350000Y-44500000D03*
%TO.P,R29,2*%
%TO.N,Net-(Q183-G)*%
X76350000Y-44500000D03*
%TD*%
D11*
%TO.P,Q2,1,G*%
%TO.N,Net-(J2-Pin_8)*%
X63350000Y-36037500D03*
%TO.P,Q2,2,S*%
%TO.N,GND*%
X65250000Y-36037500D03*
%TO.P,Q2,3,D*%
%TO.N,Net-(Q1-D)*%
X64300000Y-34162500D03*
%TD*%
D12*
%TO.P,R130,2*%
%TO.N,Net-(Q278-D)*%
X122900000Y-42800000D03*
%TO.P,R130,1*%
%TO.N,VCC*%
X123900000Y-42800000D03*
%TD*%
D10*
%TO.P,Q277,3,D*%
%TO.N,Net-(Q277-D)*%
X125300000Y-42137500D03*
%TO.P,Q277,2,S*%
%TO.N,GND*%
X124350000Y-40262500D03*
%TO.P,Q277,1,G*%
%TO.N,Net-(J1-Pin_1)*%
X126250000Y-40262500D03*
%TD*%
%TO.P,Q283,3,D*%
%TO.N,Net-(Q279-D)*%
X121500000Y-54737500D03*
%TO.P,Q283,2,S*%
%TO.N,Net-(Q283-S)*%
X120550000Y-52862500D03*
%TO.P,Q283,1,G*%
%TO.N,Net-(Q282-D)*%
X122450000Y-52862500D03*
%TD*%
D13*
%TO.P,R129,2*%
%TO.N,Net-(Q277-D)*%
X123900000Y-47000000D03*
%TO.P,R129,1*%
%TO.N,VCC*%
X122900000Y-47000000D03*
%TD*%
D12*
%TO.P,R121,2*%
%TO.N,Net-(Q240-G)*%
X123700000Y-33600000D03*
%TO.P,R121,1*%
%TO.N,VCC*%
X124700000Y-33600000D03*
%TD*%
%TO.P,R122,2*%
%TO.N,Net-(Q255-D)*%
X123700000Y-32400000D03*
%TO.P,R122,1*%
%TO.N,VCC*%
X124700000Y-32400000D03*
%TD*%
%TO.P,R132,2*%
%TO.N,Net-(Q279-D)*%
X122900000Y-51200000D03*
%TO.P,R132,1*%
%TO.N,VCC*%
X123900000Y-51200000D03*
%TD*%
D10*
%TO.P,Q281,3,D*%
%TO.N,Net-(Q280-S)*%
X125300000Y-46337500D03*
%TO.P,Q281,2,S*%
%TO.N,GND*%
X124350000Y-44462500D03*
%TO.P,Q281,1,G*%
%TO.N,Net-(Q277-D)*%
X126250000Y-44462500D03*
%TD*%
%TO.P,Q278,3,D*%
%TO.N,Net-(Q278-D)*%
X121500000Y-42137500D03*
%TO.P,Q278,2,S*%
%TO.N,GND*%
X120550000Y-40262500D03*
%TO.P,Q278,1,G*%
%TO.N,Net-(J2-Pin_1)*%
X122450000Y-40262500D03*
%TD*%
%TO.P,Q284,3,D*%
%TO.N,Net-(Q283-S)*%
X121500000Y-50537500D03*
%TO.P,Q284,2,S*%
%TO.N,Net-(Q284-S)*%
X120550000Y-48662500D03*
%TO.P,Q284,1,G*%
%TO.N,Net-(J2-Pin_1)*%
X122450000Y-48662500D03*
%TD*%
%TO.P,Q285,3,D*%
%TO.N,Net-(Q284-S)*%
X121500000Y-46337500D03*
%TO.P,Q285,2,S*%
%TO.N,GND*%
X120550000Y-44462500D03*
%TO.P,Q285,1,G*%
%TO.N,Net-(J1-Pin_1)*%
X122450000Y-44462500D03*
%TD*%
D13*
%TO.P,R131,2*%
%TO.N,Net-(Q282-D)*%
X123900000Y-38600000D03*
%TO.P,R131,1*%
%TO.N,VCC*%
X122900000Y-38600000D03*
%TD*%
D10*
%TO.P,Q282,3,D*%
%TO.N,Net-(Q282-D)*%
X125300000Y-37937500D03*
%TO.P,Q282,2,S*%
%TO.N,GND*%
X124350000Y-36062500D03*
%TO.P,Q282,1,G*%
%TO.N,Net-(J3-Pin_1)*%
X126250000Y-36062500D03*
%TD*%
%TO.P,Q286,3,D*%
%TO.N,Net-(J8-Pin_2)*%
X125300000Y-58937500D03*
%TO.P,Q286,2,S*%
%TO.N,GND*%
X124350000Y-57062500D03*
%TO.P,Q286,1,G*%
%TO.N,Net-(Q279-D)*%
X126250000Y-57062500D03*
%TD*%
%TO.P,Q279,3,D*%
%TO.N,Net-(Q279-D)*%
X125300000Y-54737500D03*
%TO.P,Q279,2,S*%
%TO.N,Net-(Q279-S)*%
X124350000Y-52862500D03*
%TO.P,Q279,1,G*%
%TO.N,Net-(J3-Pin_1)*%
X126250000Y-52862500D03*
%TD*%
%TO.P,Q280,3,D*%
%TO.N,Net-(Q279-S)*%
X125300000Y-50537500D03*
%TO.P,Q280,2,S*%
%TO.N,Net-(Q280-S)*%
X124350000Y-48662500D03*
%TO.P,Q280,1,G*%
%TO.N,Net-(Q278-D)*%
X126250000Y-48662500D03*
%TD*%
D13*
%TO.P,R133,2*%
%TO.N,Net-(J8-Pin_2)*%
X124000000Y-55400000D03*
%TO.P,R133,1*%
%TO.N,VCC*%
X123000000Y-55400000D03*
%TD*%
D15*
%TO.P,J8,1,Pin_1*%
%TO.N,Net-(J8-Pin_1)*%
X139000000Y-64100000D03*
D16*
%TO.P,J8,2,Pin_2*%
%TO.N,Net-(J8-Pin_2)*%
X139000000Y-61600000D03*
%TO.P,J8,3,Pin_3*%
%TO.N,Net-(J8-Pin_3)*%
X139000000Y-59100000D03*
%TO.P,J8,4,Pin_4*%
%TO.N,Net-(J8-Pin_4)*%
X139000000Y-56600000D03*
%TO.P,J8,5,Pin_5*%
%TO.N,Net-(J3-Pin_1)*%
X139000000Y-54100000D03*
%TO.P,J8,6,Pin_6*%
%TO.N,Net-(J8-Pin_6)*%
X139000000Y-51600000D03*
%TO.P,J8,7,Pin_7*%
%TO.N,Net-(J8-Pin_7)*%
X139000000Y-49100000D03*
%TO.P,J8,8,Pin_8*%
%TO.N,Net-(J8-Pin_8)*%
X139000000Y-46600000D03*
%TO.P,J8,9,Pin_9*%
%TO.N,Net-(J8-Pin_9)*%
X139000000Y-44100000D03*
%TO.P,J8,10,Pin_10*%
%TO.N,Net-(J8-Pin_10)*%
X139000000Y-41600000D03*
%TO.P,J8,11,Pin_11*%
%TO.N,Net-(J8-Pin_11)*%
X139000000Y-39100000D03*
%TO.P,J8,12,Pin_12*%
%TO.N,Net-(J8-Pin_12)*%
X139000000Y-36600000D03*
%TO.P,J8,13,Pin_13*%
%TO.N,Earth*%
X139000000Y-34100000D03*
%TO.P,J8,14,Pin_14*%
%TO.N,VCC*%
X139000000Y-31600000D03*
%TD*%
D17*
%TO.P,R149,1*%
%TO.N,VCC*%
X54580000Y-30900000D03*
%TO.P,R149,2*%
%TO.N,Net-(D17-Pad2)*%
X56220000Y-30900000D03*
%TD*%
D18*
%TO.P,Q236,1,G*%
%TO.N,Net-(J8-Pin_9)*%
X134662500Y-114350000D03*
%TO.P,Q236,2,S*%
%TO.N,GND*%
X134662500Y-116250000D03*
%TO.P,Q236,3,D*%
%TO.N,Net-(Q235-S)*%
X136537500Y-115300000D03*
%TD*%
D19*
%TO.P,D3,1*%
%TO.N,Net-(Q274-D)*%
X54710000Y-103000000D03*
%TO.P,D3,2*%
%TO.N,Net-(D3-Pad2)*%
X56290000Y-103000000D03*
%TD*%
D17*
%TO.P,R145,1*%
%TO.N,VCC*%
X54580000Y-76600000D03*
%TO.P,R145,2*%
%TO.N,Net-(D13-Pad2)*%
X56220000Y-76600000D03*
%TD*%
D20*
%TO.P,J3,1,Pin_1*%
%TO.N,Net-(J3-Pin_1)*%
X47900000Y-111650000D03*
D21*
%TO.P,J3,2,Pin_2*%
%TO.N,Net-(J3-Pin_2)*%
X47900000Y-110400000D03*
%TO.P,J3,3,Pin_3*%
%TO.N,Net-(J3-Pin_3)*%
X47900000Y-109150000D03*
%TO.P,J3,4,Pin_4*%
%TO.N,Net-(J3-Pin_4)*%
X47900000Y-107900000D03*
%TO.P,J3,5,Pin_5*%
%TO.N,Net-(J3-Pin_5)*%
X47900000Y-106650000D03*
%TO.P,J3,6,Pin_6*%
%TO.N,Net-(J3-Pin_6)*%
X47900000Y-105400000D03*
%TO.P,J3,7,Pin_7*%
%TO.N,Net-(J3-Pin_7)*%
X47900000Y-104150000D03*
%TO.P,J3,8,Pin_8*%
%TO.N,Net-(J3-Pin_8)*%
X47900000Y-102900000D03*
%TD*%
D17*
%TO.P,R152,1*%
%TO.N,VCC*%
X54580000Y-41700000D03*
%TO.P,R152,2*%
%TO.N,Net-(D20-Pad2)*%
X56220000Y-41700000D03*
%TD*%
D18*
%TO.P,Q174,1,G*%
%TO.N,Net-(J8-Pin_10)*%
X134662500Y-122350000D03*
%TO.P,Q174,2,S*%
%TO.N,GND*%
X134662500Y-124250000D03*
%TO.P,Q174,3,D*%
%TO.N,Net-(Q173-S)*%
X136537500Y-123300000D03*
%TD*%
%TO.P,Q192,1,G*%
%TO.N,Net-(J8-Pin_7)*%
X122062500Y-98350000D03*
%TO.P,Q192,2,S*%
%TO.N,GND*%
X122062500Y-100250000D03*
%TO.P,Q192,3,D*%
%TO.N,Net-(Q191-S)*%
X123937500Y-99300000D03*
%TD*%
%TO.P,Q215,1,G*%
%TO.N,Net-(Q215-G)*%
X122062500Y-86650000D03*
%TO.P,Q215,2,S*%
%TO.N,Net-(Q215-S)*%
X122062500Y-88550000D03*
%TO.P,Q215,3,D*%
%TO.N,Net-(Q151-D)*%
X123937500Y-87600000D03*
%TD*%
%TO.P,Q149,1,G*%
%TO.N,Net-(Q149-G)*%
X130462500Y-78650000D03*
%TO.P,Q149,2,S*%
%TO.N,Net-(Q149-S)*%
X130462500Y-80550000D03*
%TO.P,Q149,3,D*%
%TO.N,Net-(Q149-D)*%
X132337500Y-79600000D03*
%TD*%
%TO.P,Q198,1,G*%
%TO.N,Net-(J8-Pin_8)*%
X130462500Y-106350000D03*
%TO.P,Q198,2,S*%
%TO.N,GND*%
X130462500Y-108250000D03*
%TO.P,Q198,3,D*%
%TO.N,Net-(Q197-S)*%
X132337500Y-107300000D03*
%TD*%
%TO.P,Q249,1,G*%
%TO.N,Net-(Q149-D)*%
X84162500Y-114150000D03*
%TO.P,Q249,2,S*%
%TO.N,Net-(Q249-S)*%
X84162500Y-116050000D03*
%TO.P,Q249,3,D*%
%TO.N,Net-(J3-Pin_3)*%
X86037500Y-115100000D03*
%TD*%
D19*
%TO.P,D14,1*%
%TO.N,Net-(Q299-D)*%
X54710000Y-82300000D03*
%TO.P,D14,2*%
%TO.N,Net-(D14-Pad2)*%
X56290000Y-82300000D03*
%TD*%
D18*
%TO.P,Q312,1,G*%
%TO.N,Net-(J8-Pin_11)*%
X130062500Y-29750000D03*
%TO.P,Q312,2,S*%
%TO.N,Earth*%
X130062500Y-31650000D03*
%TO.P,Q312,3,D*%
%TO.N,Net-(Q312-D)*%
X131937500Y-30700000D03*
%TD*%
%TO.P,Q162,1,G*%
%TO.N,Net-(J8-Pin_11)*%
X138862500Y-82350000D03*
%TO.P,Q162,2,S*%
%TO.N,GND*%
X138862500Y-84250000D03*
%TO.P,Q162,3,D*%
%TO.N,Net-(Q147-S)*%
X140737500Y-83300000D03*
%TD*%
D17*
%TO.P,R143,1*%
%TO.N,VCC*%
X54580000Y-69200000D03*
%TO.P,R143,2*%
%TO.N,Net-(D11-Pad2)*%
X56220000Y-69200000D03*
%TD*%
D18*
%TO.P,Q167,1,G*%
%TO.N,Net-(Q167-G)*%
X122062500Y-118650000D03*
%TO.P,Q167,2,S*%
%TO.N,Net-(Q167-S)*%
X122062500Y-120550000D03*
%TO.P,Q167,3,D*%
%TO.N,Net-(Q151-D)*%
X123937500Y-119600000D03*
%TD*%
%TO.P,Q239,1,G*%
%TO.N,Net-(Q145-D)*%
X63162500Y-114150000D03*
%TO.P,Q239,2,S*%
%TO.N,Net-(Q239-S)*%
X63162500Y-116050000D03*
%TO.P,Q239,3,D*%
%TO.N,Net-(J3-Pin_8)*%
X65037500Y-115100000D03*
%TD*%
D19*
%TO.P,D11,1*%
%TO.N,Net-(Q296-D)*%
X54710000Y-71200000D03*
%TO.P,D11,2*%
%TO.N,Net-(D11-Pad2)*%
X56290000Y-71200000D03*
%TD*%
D17*
%TO.P,R150,1*%
%TO.N,VCC*%
X54580000Y-34300000D03*
%TO.P,R150,2*%
%TO.N,Net-(D18-Pad2)*%
X56220000Y-34300000D03*
%TD*%
D18*
%TO.P,Q275,1,G*%
%TO.N,Net-(J3-Pin_5)*%
X50762500Y-104850000D03*
%TO.P,Q275,2,S*%
%TO.N,Earth*%
X50762500Y-106750000D03*
%TO.P,Q275,3,D*%
%TO.N,Net-(Q275-D)*%
X52637500Y-105800000D03*
%TD*%
D12*
%TO.P,R125,1*%
%TO.N,VCC*%
X109000000Y-39700000D03*
%TO.P,R125,2*%
%TO.N,Net-(J8-Pin_1)*%
X108000000Y-39700000D03*
%TD*%
D19*
%TO.P,D13,1*%
%TO.N,Net-(Q298-D)*%
X54710000Y-78600000D03*
%TO.P,D13,2*%
%TO.N,Net-(D13-Pad2)*%
X56290000Y-78600000D03*
%TD*%
%TO.P,D34,1*%
%TO.N,Net-(Q319-D)*%
X134010000Y-66700000D03*
%TO.P,D34,2*%
%TO.N,Net-(D34-Pad2)*%
X135590000Y-66700000D03*
%TD*%
D18*
%TO.P,Q175,1,G*%
%TO.N,Net-(Q140-D)*%
X138862500Y-118650000D03*
%TO.P,Q175,2,S*%
%TO.N,Net-(Q175-S)*%
X138862500Y-120550000D03*
%TO.P,Q175,3,D*%
%TO.N,Net-(Q147-D)*%
X140737500Y-119600000D03*
%TD*%
D19*
%TO.P,D21,1*%
%TO.N,Net-(Q306-D)*%
X54710000Y-47400000D03*
%TO.P,D21,2*%
%TO.N,Net-(D21-Pad2)*%
X56290000Y-47400000D03*
%TD*%
D18*
%TO.P,Q243,1,G*%
%TO.N,Net-(Q152-D)*%
X71562500Y-114150000D03*
%TO.P,Q243,2,S*%
%TO.N,Net-(Q243-S)*%
X71562500Y-116050000D03*
%TO.P,Q243,3,D*%
%TO.N,Net-(J3-Pin_6)*%
X73437500Y-115100000D03*
%TD*%
D12*
%TO.P,R116,1*%
%TO.N,VCC*%
X76100000Y-112700000D03*
%TO.P,R116,2*%
%TO.N,Net-(J3-Pin_5)*%
X75100000Y-112700000D03*
%TD*%
D18*
%TO.P,Q311,1,G*%
%TO.N,Net-(J8-Pin_4)*%
X130062500Y-57450000D03*
%TO.P,Q311,2,S*%
%TO.N,Earth*%
X130062500Y-59350000D03*
%TO.P,Q311,3,D*%
%TO.N,Net-(Q311-D)*%
X131937500Y-58400000D03*
%TD*%
D19*
%TO.P,D15,1*%
%TO.N,Net-(Q300-D)*%
X54710000Y-86000000D03*
%TO.P,D15,2*%
%TO.N,Net-(D15-Pad2)*%
X56290000Y-86000000D03*
%TD*%
D18*
%TO.P,Q240,1,G*%
%TO.N,Net-(Q240-G)*%
X63162500Y-117850000D03*
%TO.P,Q240,2,S*%
%TO.N,GND*%
X63162500Y-119750000D03*
%TO.P,Q240,3,D*%
%TO.N,Net-(Q239-S)*%
X65037500Y-118800000D03*
%TD*%
D19*
%TO.P,D22,1*%
%TO.N,Net-(Q307-D)*%
X54710000Y-51100000D03*
%TO.P,D22,2*%
%TO.N,Net-(D22-Pad2)*%
X56290000Y-51100000D03*
%TD*%
%TO.P,D8,1*%
%TO.N,Net-(Q293-D)*%
X54710000Y-121500000D03*
%TO.P,D8,2*%
%TO.N,Net-(D8-Pad2)*%
X56290000Y-121500000D03*
%TD*%
D18*
%TO.P,Q219,1,G*%
%TO.N,Net-(Q107-D)*%
X130462500Y-86650000D03*
%TO.P,Q219,2,S*%
%TO.N,Net-(Q219-S)*%
X130462500Y-88550000D03*
%TO.P,Q219,3,D*%
%TO.N,Net-(Q149-D)*%
X132337500Y-87600000D03*
%TD*%
%TO.P,Q295,1,G*%
%TO.N,Net-(J2-Pin_7)*%
X50762500Y-65650000D03*
%TO.P,Q295,2,S*%
%TO.N,Earth*%
X50762500Y-67550000D03*
%TO.P,Q295,3,D*%
%TO.N,Net-(Q295-D)*%
X52637500Y-66600000D03*
%TD*%
%TO.P,Q168,1,G*%
%TO.N,Net-(J8-Pin_10)*%
X122062500Y-122375000D03*
%TO.P,Q168,2,S*%
%TO.N,GND*%
X122062500Y-124275000D03*
%TO.P,Q168,3,D*%
%TO.N,Net-(Q167-S)*%
X123937500Y-123325000D03*
%TD*%
D19*
%TO.P,D25,1*%
%TO.N,Net-(Q310-D)*%
X134010000Y-55600000D03*
%TO.P,D25,2*%
%TO.N,Net-(D25-Pad2)*%
X135590000Y-55600000D03*
%TD*%
D17*
%TO.P,R168,1*%
%TO.N,VCC*%
X139480000Y-72700000D03*
%TO.P,R168,2*%
%TO.N,Net-(D36-Pad2)*%
X141120000Y-72700000D03*
%TD*%
D18*
%TO.P,Q155,1,G*%
%TO.N,Net-(J8-Pin_11)*%
X109462500Y-82350000D03*
%TO.P,Q155,2,S*%
%TO.N,GND*%
X109462500Y-84250000D03*
%TO.P,Q155,3,D*%
%TO.N,Net-(Q154-S)*%
X111337500Y-83300000D03*
%TD*%
%TO.P,Q190,1,G*%
%TO.N,Net-(J8-Pin_8)*%
X122062500Y-106350000D03*
%TO.P,Q190,2,S*%
%TO.N,GND*%
X122062500Y-108250000D03*
%TO.P,Q190,3,D*%
%TO.N,Net-(Q189-S)*%
X123937500Y-107300000D03*
%TD*%
D20*
%TO.P,J1,1,Pin_1*%
%TO.N,Net-(J1-Pin_1)*%
X47900000Y-48875000D03*
D21*
%TO.P,J1,2,Pin_2*%
%TO.N,Net-(J1-Pin_2)*%
X47900000Y-47625000D03*
%TO.P,J1,3,Pin_3*%
%TO.N,Net-(J1-Pin_3)*%
X47900000Y-46375000D03*
%TO.P,J1,4,Pin_4*%
%TO.N,Net-(J1-Pin_4)*%
X47900000Y-45125000D03*
%TO.P,J1,5,Pin_5*%
%TO.N,Net-(J1-Pin_5)*%
X47900000Y-43875000D03*
%TO.P,J1,6,Pin_6*%
%TO.N,Net-(J1-Pin_6)*%
X47900000Y-42625000D03*
%TO.P,J1,7,Pin_7*%
%TO.N,Net-(J1-Pin_7)*%
X47900000Y-41375000D03*
%TO.P,J1,8,Pin_8*%
%TO.N,Net-(J1-Pin_8)*%
X47900000Y-40125000D03*
%TD*%
D18*
%TO.P,Q245,1,G*%
%TO.N,Net-(Q151-D)*%
X75762500Y-114150000D03*
%TO.P,Q245,2,S*%
%TO.N,Net-(Q245-S)*%
X75762500Y-116050000D03*
%TO.P,Q245,3,D*%
%TO.N,Net-(J3-Pin_5)*%
X77637500Y-115100000D03*
%TD*%
D17*
%TO.P,R160,1*%
%TO.N,VCC*%
X133880000Y-33300000D03*
%TO.P,R160,2*%
%TO.N,Net-(D28-Pad2)*%
X135520000Y-33300000D03*
%TD*%
D18*
%TO.P,Q266,1,G*%
%TO.N,Net-(Q135-D)*%
X108462500Y-34750000D03*
%TO.P,Q266,2,S*%
%TO.N,Net-(Q266-S)*%
X108462500Y-36650000D03*
%TO.P,Q266,3,D*%
%TO.N,Net-(Q265-G)*%
X110337500Y-35700000D03*
%TD*%
%TO.P,Q232,1,G*%
%TO.N,Net-(J8-Pin_9)*%
X126262500Y-114350000D03*
%TO.P,Q232,2,S*%
%TO.N,GND*%
X126262500Y-116250000D03*
%TO.P,Q232,3,D*%
%TO.N,Net-(Q231-S)*%
X128137500Y-115300000D03*
%TD*%
D17*
%TO.P,R161,1*%
%TO.N,VCC*%
X133880000Y-37000000D03*
%TO.P,R161,2*%
%TO.N,Net-(D29-Pad2)*%
X135520000Y-37000000D03*
%TD*%
D19*
%TO.P,D6,1*%
%TO.N,Net-(Q291-D)*%
X54710000Y-114100000D03*
%TO.P,D6,2*%
%TO.N,Net-(D6-Pad2)*%
X56290000Y-114100000D03*
%TD*%
D18*
%TO.P,Q209,1,G*%
%TO.N,Net-(Q209-G)*%
X109462500Y-86650000D03*
%TO.P,Q209,2,S*%
%TO.N,Net-(Q209-S)*%
X109462500Y-88550000D03*
%TO.P,Q209,3,D*%
%TO.N,Net-(Q145-D)*%
X111337500Y-87600000D03*
%TD*%
%TO.P,Q314,1,G*%
%TO.N,Net-(J8-Pin_9)*%
X130062500Y-37150000D03*
%TO.P,Q314,2,S*%
%TO.N,Earth*%
X130062500Y-39050000D03*
%TO.P,Q314,3,D*%
%TO.N,Net-(Q314-D)*%
X131937500Y-38100000D03*
%TD*%
%TO.P,Q252,1,G*%
%TO.N,Net-(Q240-G)*%
X88362500Y-117850000D03*
%TO.P,Q252,2,S*%
%TO.N,GND*%
X88362500Y-119750000D03*
%TO.P,Q252,3,D*%
%TO.N,Net-(Q251-S)*%
X90237500Y-118800000D03*
%TD*%
D17*
%TO.P,R162,1*%
%TO.N,VCC*%
X133880000Y-40700000D03*
%TO.P,R162,2*%
%TO.N,Net-(D30-Pad2)*%
X135520000Y-40700000D03*
%TD*%
D18*
%TO.P,Q234,1,G*%
%TO.N,Net-(J8-Pin_9)*%
X130462500Y-114350000D03*
%TO.P,Q234,2,S*%
%TO.N,GND*%
X130462500Y-116250000D03*
%TO.P,Q234,3,D*%
%TO.N,Net-(Q233-S)*%
X132337500Y-115300000D03*
%TD*%
%TO.P,Q241,1,G*%
%TO.N,Net-(Q153-D)*%
X67362500Y-114150000D03*
%TO.P,Q241,2,S*%
%TO.N,Net-(Q241-S)*%
X67362500Y-116050000D03*
%TO.P,Q241,3,D*%
%TO.N,Net-(J3-Pin_7)*%
X69237500Y-115100000D03*
%TD*%
D19*
%TO.P,D35,1*%
%TO.N,Net-(Q320-D)*%
X134010000Y-70400000D03*
%TO.P,D35,2*%
%TO.N,Net-(D35-Pad2)*%
X135590000Y-70400000D03*
%TD*%
D18*
%TO.P,Q204,1,G*%
%TO.N,Net-(J8-Pin_7)*%
X134662500Y-98350000D03*
%TO.P,Q204,2,S*%
%TO.N,GND*%
X134662500Y-100250000D03*
%TO.P,Q204,3,D*%
%TO.N,Net-(Q203-S)*%
X136537500Y-99300000D03*
%TD*%
%TO.P,Q263,1,G*%
%TO.N,Net-(J8-Pin_9)*%
X113462500Y-38450000D03*
%TO.P,Q263,2,S*%
%TO.N,GND*%
X113462500Y-40350000D03*
%TO.P,Q263,3,D*%
%TO.N,Net-(Q262-S)*%
X115337500Y-39400000D03*
%TD*%
%TO.P,Q310,1,G*%
%TO.N,Net-(J3-Pin_1)*%
X130062500Y-53750000D03*
%TO.P,Q310,2,S*%
%TO.N,Earth*%
X130062500Y-55650000D03*
%TO.P,Q310,3,D*%
%TO.N,Net-(Q310-D)*%
X131937500Y-54700000D03*
%TD*%
%TO.P,Q188,1,G*%
%TO.N,Net-(J8-Pin_7)*%
X117862500Y-98350000D03*
%TO.P,Q188,2,S*%
%TO.N,GND*%
X117862500Y-100250000D03*
%TO.P,Q188,3,D*%
%TO.N,Net-(Q187-S)*%
X119737500Y-99300000D03*
%TD*%
D12*
%TO.P,R123,1*%
%TO.N,VCC*%
X118300000Y-39700000D03*
%TO.P,R123,2*%
%TO.N,Net-(Q262-D)*%
X117300000Y-39700000D03*
%TD*%
D11*
%TO.P,Q288,1,G*%
%TO.N,Net-(J3-Pin_3)*%
X83550000Y-124237500D03*
%TO.P,Q288,2,S*%
%TO.N,GND*%
X85450000Y-124237500D03*
%TO.P,Q288,3,D*%
%TO.N,Net-(J8-Pin_4)*%
X84500000Y-122362500D03*
%TD*%
D17*
%TO.P,R141,1*%
%TO.N,VCC*%
X54580000Y-62100000D03*
%TO.P,R141,2*%
%TO.N,Net-(D9-Pad2)*%
X56220000Y-62100000D03*
%TD*%
D19*
%TO.P,D1,1*%
%TO.N,Net-(Q273-D)*%
X54710000Y-99300000D03*
%TO.P,D1,2*%
%TO.N,Net-(D1-Pad2)*%
X56290000Y-99300000D03*
%TD*%
%TO.P,D16,1*%
%TO.N,Net-(Q301-D)*%
X54710000Y-89700000D03*
%TO.P,D16,2*%
%TO.N,Net-(D16-Pad2)*%
X56290000Y-89700000D03*
%TD*%
D18*
%TO.P,Q206,1,G*%
%TO.N,Net-(J8-Pin_8)*%
X138862500Y-106350000D03*
%TO.P,Q206,2,S*%
%TO.N,GND*%
X138862500Y-108250000D03*
%TO.P,Q206,3,D*%
%TO.N,Net-(Q205-S)*%
X140737500Y-107300000D03*
%TD*%
D13*
%TO.P,R114,1*%
%TO.N,VCC*%
X68800000Y-112700000D03*
%TO.P,R114,2*%
%TO.N,Net-(J3-Pin_7)*%
X69800000Y-112700000D03*
%TD*%
D18*
%TO.P,Q199,1,G*%
%TO.N,Net-(Q102-D)*%
X130462500Y-94650000D03*
%TO.P,Q199,2,S*%
%TO.N,Net-(Q199-S)*%
X130462500Y-96550000D03*
%TO.P,Q199,3,D*%
%TO.N,Net-(Q149-D)*%
X132337500Y-95600000D03*
%TD*%
%TO.P,Q214,1,G*%
%TO.N,Net-(J8-Pin_6)*%
X117862500Y-90350000D03*
%TO.P,Q214,2,S*%
%TO.N,GND*%
X117862500Y-92250000D03*
%TO.P,Q214,3,D*%
%TO.N,Net-(Q213-S)*%
X119737500Y-91300000D03*
%TD*%
%TO.P,Q223,1,G*%
%TO.N,Net-(Q137-D)*%
X138862500Y-86650000D03*
%TO.P,Q223,2,S*%
%TO.N,Net-(Q223-S)*%
X138862500Y-88550000D03*
%TO.P,Q223,3,D*%
%TO.N,Net-(Q147-D)*%
X140737500Y-87600000D03*
%TD*%
D12*
%TO.P,R115,1*%
%TO.N,VCC*%
X71900000Y-112700000D03*
%TO.P,R115,2*%
%TO.N,Net-(J3-Pin_6)*%
X70900000Y-112700000D03*
%TD*%
D18*
%TO.P,Q177,1,G*%
%TO.N,Net-(Q177-G)*%
X109462500Y-102650000D03*
%TO.P,Q177,2,S*%
%TO.N,Net-(Q177-S)*%
X109462500Y-104550000D03*
%TO.P,Q177,3,D*%
%TO.N,Net-(Q145-D)*%
X111337500Y-103600000D03*
%TD*%
%TO.P,Q185,1,G*%
%TO.N,Net-(Q185-G)*%
X117862500Y-102650000D03*
%TO.P,Q185,2,S*%
%TO.N,Net-(Q185-S)*%
X117862500Y-104550000D03*
%TO.P,Q185,3,D*%
%TO.N,Net-(Q152-D)*%
X119737500Y-103600000D03*
%TD*%
D22*
%TO.P,R127,1*%
%TO.N,VCC*%
X62700000Y-123800000D03*
%TO.P,R127,2*%
%TO.N,Net-(J8-Pin_4)*%
X62700000Y-122800000D03*
%TD*%
D18*
%TO.P,Q218,1,G*%
%TO.N,Net-(J8-Pin_6)*%
X126262500Y-90350000D03*
%TO.P,Q218,2,S*%
%TO.N,GND*%
X126262500Y-92250000D03*
%TO.P,Q218,3,D*%
%TO.N,Net-(Q217-S)*%
X128137500Y-91300000D03*
%TD*%
D17*
%TO.P,R136,1*%
%TO.N,VCC*%
X54580000Y-104700000D03*
%TO.P,R136,2*%
%TO.N,Net-(D4-Pad2)*%
X56220000Y-104700000D03*
%TD*%
D13*
%TO.P,R109,1*%
%TO.N,VCC*%
X81400000Y-112700000D03*
%TO.P,R109,2*%
%TO.N,Net-(Q150-D)*%
X82400000Y-112700000D03*
%TD*%
D18*
%TO.P,Q308,1,G*%
%TO.N,Net-(J1-Pin_2)*%
X50762500Y-52950000D03*
%TO.P,Q308,2,S*%
%TO.N,Earth*%
X50762500Y-54850000D03*
%TO.P,Q308,3,D*%
%TO.N,Net-(Q308-D)*%
X52637500Y-53900000D03*
%TD*%
%TO.P,Q313,1,G*%
%TO.N,Net-(J8-Pin_10)*%
X130062500Y-33450000D03*
%TO.P,Q313,2,S*%
%TO.N,Earth*%
X130062500Y-35350000D03*
%TO.P,Q313,3,D*%
%TO.N,Net-(Q313-D)*%
X131937500Y-34400000D03*
%TD*%
%TO.P,Q182,1,G*%
%TO.N,Net-(J8-Pin_8)*%
X113662500Y-106350000D03*
%TO.P,Q182,2,S*%
%TO.N,GND*%
X113662500Y-108250000D03*
%TO.P,Q182,3,D*%
%TO.N,Net-(Q181-S)*%
X115537500Y-107300000D03*
%TD*%
%TO.P,Q216,1,G*%
%TO.N,Net-(J8-Pin_6)*%
X122062500Y-90350000D03*
%TO.P,Q216,2,S*%
%TO.N,GND*%
X122062500Y-92250000D03*
%TO.P,Q216,3,D*%
%TO.N,Net-(Q215-S)*%
X123937500Y-91300000D03*
%TD*%
D11*
%TO.P,Q268,1,G*%
%TO.N,Net-(J3-Pin_8)*%
X64550000Y-124237500D03*
%TO.P,Q268,2,S*%
%TO.N,GND*%
X66450000Y-124237500D03*
%TO.P,Q268,3,D*%
%TO.N,Net-(J8-Pin_4)*%
X65500000Y-122362500D03*
%TD*%
D18*
%TO.P,Q300,1,G*%
%TO.N,Net-(J2-Pin_2)*%
X50762500Y-84150000D03*
%TO.P,Q300,2,S*%
%TO.N,Earth*%
X50762500Y-86050000D03*
%TO.P,Q300,3,D*%
%TO.N,Net-(Q300-D)*%
X52637500Y-85100000D03*
%TD*%
%TO.P,Q233,1,G*%
%TO.N,Net-(J1-Pin_3)*%
X130462500Y-110650000D03*
%TO.P,Q233,2,S*%
%TO.N,Net-(Q233-S)*%
X130462500Y-112550000D03*
%TO.P,Q233,3,D*%
%TO.N,Net-(Q150-D)*%
X132337500Y-111600000D03*
%TD*%
D12*
%TO.P,R118,1*%
%TO.N,VCC*%
X84500000Y-112700000D03*
%TO.P,R118,2*%
%TO.N,Net-(J3-Pin_3)*%
X83500000Y-112700000D03*
%TD*%
D17*
%TO.P,R166,1*%
%TO.N,VCC*%
X133880000Y-64700000D03*
%TO.P,R166,2*%
%TO.N,Net-(D34-Pad2)*%
X135520000Y-64700000D03*
%TD*%
D18*
%TO.P,Q296,1,G*%
%TO.N,Net-(J2-Pin_6)*%
X50762500Y-69350000D03*
%TO.P,Q296,2,S*%
%TO.N,Earth*%
X50762500Y-71250000D03*
%TO.P,Q296,3,D*%
%TO.N,Net-(Q296-D)*%
X52637500Y-70300000D03*
%TD*%
D19*
%TO.P,D17,1*%
%TO.N,Net-(Q302-D)*%
X54710000Y-32600000D03*
%TO.P,D17,2*%
%TO.N,Net-(D17-Pad2)*%
X56290000Y-32600000D03*
%TD*%
D17*
%TO.P,R156,1*%
%TO.N,VCC*%
X54580000Y-56500000D03*
%TO.P,R156,2*%
%TO.N,Net-(D24-Pad2)*%
X56220000Y-56500000D03*
%TD*%
D18*
%TO.P,Q247,1,G*%
%TO.N,Net-(Q150-D)*%
X79962500Y-114150000D03*
%TO.P,Q247,2,S*%
%TO.N,Net-(Q247-S)*%
X79962500Y-116050000D03*
%TO.P,Q247,3,D*%
%TO.N,Net-(J3-Pin_4)*%
X81837500Y-115100000D03*
%TD*%
%TO.P,Q264,1,G*%
%TO.N,Net-(Q262-D)*%
X117762500Y-34750000D03*
%TO.P,Q264,2,S*%
%TO.N,GND*%
X117762500Y-36650000D03*
%TO.P,Q264,3,D*%
%TO.N,Net-(J8-Pin_3)*%
X119637500Y-35700000D03*
%TD*%
D12*
%TO.P,R117,1*%
%TO.N,VCC*%
X80300000Y-112700000D03*
%TO.P,R117,2*%
%TO.N,Net-(J3-Pin_4)*%
X79300000Y-112700000D03*
%TD*%
D19*
%TO.P,D36,1*%
%TO.N,Earth*%
X139710000Y-70700000D03*
%TO.P,D36,2*%
%TO.N,Net-(D36-Pad2)*%
X141290000Y-70700000D03*
%TD*%
D18*
%TO.P,Q205,1,G*%
%TO.N,Net-(Q130-S)*%
X138862500Y-102650000D03*
%TO.P,Q205,2,S*%
%TO.N,Net-(Q205-S)*%
X138862500Y-104550000D03*
%TO.P,Q205,3,D*%
%TO.N,Net-(Q147-D)*%
X140737500Y-103600000D03*
%TD*%
D17*
%TO.P,R128,1*%
%TO.N,VCC*%
X54580000Y-93900000D03*
%TO.P,R128,2*%
%TO.N,Net-(D2-Pad2)*%
X56220000Y-93900000D03*
%TD*%
D18*
%TO.P,Q221,1,G*%
%TO.N,Net-(Q122-D)*%
X134662500Y-86650000D03*
%TO.P,Q221,2,S*%
%TO.N,Net-(Q221-S)*%
X134662500Y-88550000D03*
%TO.P,Q221,3,D*%
%TO.N,Net-(Q148-D)*%
X136537500Y-87600000D03*
%TD*%
D19*
%TO.P,D27,1*%
%TO.N,Net-(Q312-D)*%
X134010000Y-31600000D03*
%TO.P,D27,2*%
%TO.N,Net-(D27-Pad2)*%
X135590000Y-31600000D03*
%TD*%
D17*
%TO.P,R155,1*%
%TO.N,VCC*%
X54580000Y-52900000D03*
%TO.P,R155,2*%
%TO.N,Net-(D23-Pad2)*%
X56220000Y-52900000D03*
%TD*%
D18*
%TO.P,Q154,1,G*%
%TO.N,Net-(Q154-G)*%
X109462500Y-78650000D03*
%TO.P,Q154,2,S*%
%TO.N,Net-(Q154-S)*%
X109462500Y-80550000D03*
%TO.P,Q154,3,D*%
%TO.N,Net-(Q145-D)*%
X111337500Y-79600000D03*
%TD*%
%TO.P,Q158,1,G*%
%TO.N,Net-(J8-Pin_11)*%
X122062500Y-82350000D03*
%TO.P,Q158,2,S*%
%TO.N,GND*%
X122062500Y-84250000D03*
%TO.P,Q158,3,D*%
%TO.N,Net-(Q151-S)*%
X123937500Y-83300000D03*
%TD*%
%TO.P,Q262,1,G*%
%TO.N,Net-(J1-Pin_8)*%
X113462500Y-34750000D03*
%TO.P,Q262,2,S*%
%TO.N,Net-(Q262-S)*%
X113462500Y-36650000D03*
%TO.P,Q262,3,D*%
%TO.N,Net-(Q262-D)*%
X115337500Y-35700000D03*
%TD*%
D17*
%TO.P,R158,1*%
%TO.N,VCC*%
X133880000Y-57300000D03*
%TO.P,R158,2*%
%TO.N,Net-(D26-Pad2)*%
X135520000Y-57300000D03*
%TD*%
%TO.P,R163,1*%
%TO.N,VCC*%
X133880000Y-44400000D03*
%TO.P,R163,2*%
%TO.N,Net-(D31-Pad2)*%
X135520000Y-44400000D03*
%TD*%
D10*
%TO.P,Q260,1,G*%
%TO.N,Net-(J8-Pin_6)*%
X104250000Y-29762500D03*
%TO.P,Q260,2,S*%
%TO.N,GND*%
X102350000Y-29762500D03*
%TO.P,Q260,3,D*%
%TO.N,Net-(Q255-D)*%
X103300000Y-31637500D03*
%TD*%
D19*
%TO.P,D28,1*%
%TO.N,Net-(Q313-D)*%
X134010000Y-35300000D03*
%TO.P,D28,2*%
%TO.N,Net-(D28-Pad2)*%
X135590000Y-35300000D03*
%TD*%
D18*
%TO.P,Q170,1,G*%
%TO.N,Net-(J8-Pin_10)*%
X126262500Y-122350000D03*
%TO.P,Q170,2,S*%
%TO.N,GND*%
X126262500Y-124250000D03*
%TO.P,Q170,3,D*%
%TO.N,Net-(Q169-S)*%
X128137500Y-123300000D03*
%TD*%
%TO.P,Q217,1,G*%
%TO.N,Net-(Q217-G)*%
X126262500Y-86650000D03*
%TO.P,Q217,2,S*%
%TO.N,Net-(Q217-S)*%
X126262500Y-88550000D03*
%TO.P,Q217,3,D*%
%TO.N,Net-(Q150-D)*%
X128137500Y-87600000D03*
%TD*%
%TO.P,Q304,1,G*%
%TO.N,Net-(J1-Pin_6)*%
X50762500Y-38150000D03*
%TO.P,Q304,2,S*%
%TO.N,Earth*%
X50762500Y-40050000D03*
%TO.P,Q304,3,D*%
%TO.N,Net-(Q304-D)*%
X52637500Y-39100000D03*
%TD*%
%TO.P,Q213,1,G*%
%TO.N,Net-(Q211-G)*%
X117862500Y-86650000D03*
%TO.P,Q213,2,S*%
%TO.N,Net-(Q213-S)*%
X117862500Y-88550000D03*
%TO.P,Q213,3,D*%
%TO.N,Net-(Q152-D)*%
X119737500Y-87600000D03*
%TD*%
D12*
%TO.P,R120,1*%
%TO.N,VCC*%
X92900000Y-112700000D03*
%TO.P,R120,2*%
%TO.N,Net-(J3-Pin_1)*%
X91900000Y-112700000D03*
%TD*%
D18*
%TO.P,Q244,1,G*%
%TO.N,Net-(Q240-G)*%
X71562500Y-117850000D03*
%TO.P,Q244,2,S*%
%TO.N,GND*%
X71562500Y-119750000D03*
%TO.P,Q244,3,D*%
%TO.N,Net-(Q243-S)*%
X73437500Y-118800000D03*
%TD*%
%TO.P,Q161,1,G*%
%TO.N,Net-(J8-Pin_11)*%
X134662500Y-82350000D03*
%TO.P,Q161,2,S*%
%TO.N,GND*%
X134662500Y-84250000D03*
%TO.P,Q161,3,D*%
%TO.N,Net-(Q148-S)*%
X136537500Y-83300000D03*
%TD*%
%TO.P,Q159,1,G*%
%TO.N,Net-(J8-Pin_11)*%
X126262500Y-82350000D03*
%TO.P,Q159,2,S*%
%TO.N,GND*%
X126262500Y-84250000D03*
%TO.P,Q159,3,D*%
%TO.N,Net-(Q150-S)*%
X128137500Y-83300000D03*
%TD*%
%TO.P,Q225,1,G*%
%TO.N,Net-(J1-Pin_7)*%
X113662500Y-110650000D03*
%TO.P,Q225,2,S*%
%TO.N,Net-(Q225-S)*%
X113662500Y-112550000D03*
%TO.P,Q225,3,D*%
%TO.N,Net-(Q145-D)*%
X115537500Y-111600000D03*
%TD*%
D17*
%TO.P,R159,1*%
%TO.N,VCC*%
X133880000Y-29900000D03*
%TO.P,R159,2*%
%TO.N,Net-(D27-Pad2)*%
X135520000Y-29900000D03*
%TD*%
D19*
%TO.P,D33,1*%
%TO.N,Net-(Q318-D)*%
X134010000Y-63000000D03*
%TO.P,D33,2*%
%TO.N,Net-(D33-Pad2)*%
X135590000Y-63000000D03*
%TD*%
D18*
%TO.P,Q227,1,G*%
%TO.N,Net-(J1-Pin_6)*%
X117862500Y-110650000D03*
%TO.P,Q227,2,S*%
%TO.N,Net-(Q227-S)*%
X117862500Y-112550000D03*
%TO.P,Q227,3,D*%
%TO.N,Net-(Q153-D)*%
X119737500Y-111600000D03*
%TD*%
D12*
%TO.P,R124,1*%
%TO.N,VCC*%
X118300000Y-38300000D03*
%TO.P,R124,2*%
%TO.N,Net-(J8-Pin_3)*%
X117300000Y-38300000D03*
%TD*%
D18*
%TO.P,Q231,1,G*%
%TO.N,Net-(J1-Pin_4)*%
X126262500Y-110650000D03*
%TO.P,Q231,2,S*%
%TO.N,Net-(Q231-S)*%
X126262500Y-112550000D03*
%TO.P,Q231,3,D*%
%TO.N,Net-(Q151-D)*%
X128137500Y-111600000D03*
%TD*%
%TO.P,Q147,1,G*%
%TO.N,Net-(Q147-G)*%
X138862500Y-78650000D03*
%TO.P,Q147,2,S*%
%TO.N,Net-(Q147-S)*%
X138862500Y-80550000D03*
%TO.P,Q147,3,D*%
%TO.N,Net-(Q147-D)*%
X140737500Y-79600000D03*
%TD*%
%TO.P,Q299,1,G*%
%TO.N,Net-(J2-Pin_3)*%
X50762500Y-80450000D03*
%TO.P,Q299,2,S*%
%TO.N,Earth*%
X50762500Y-82350000D03*
%TO.P,Q299,3,D*%
%TO.N,Net-(Q299-D)*%
X52637500Y-81400000D03*
%TD*%
%TO.P,Q145,1,G*%
%TO.N,Net-(Q145-G)*%
X109462500Y-118650000D03*
%TO.P,Q145,2,S*%
%TO.N,Net-(Q145-S)*%
X109462500Y-120550000D03*
%TO.P,Q145,3,D*%
%TO.N,Net-(Q145-D)*%
X111337500Y-119600000D03*
%TD*%
D11*
%TO.P,Q287,1,G*%
%TO.N,Net-(J3-Pin_4)*%
X79750000Y-124237500D03*
%TO.P,Q287,2,S*%
%TO.N,GND*%
X81650000Y-124237500D03*
%TO.P,Q287,3,D*%
%TO.N,Net-(J8-Pin_4)*%
X80700000Y-122362500D03*
%TD*%
D18*
%TO.P,Q200,1,G*%
%TO.N,Net-(J8-Pin_7)*%
X130462500Y-98350000D03*
%TO.P,Q200,2,S*%
%TO.N,GND*%
X130462500Y-100250000D03*
%TO.P,Q200,3,D*%
%TO.N,Net-(Q199-S)*%
X132337500Y-99300000D03*
%TD*%
%TO.P,Q226,1,G*%
%TO.N,Net-(J8-Pin_9)*%
X113662500Y-114350000D03*
%TO.P,Q226,2,S*%
%TO.N,GND*%
X113662500Y-116250000D03*
%TO.P,Q226,3,D*%
%TO.N,Net-(Q225-S)*%
X115537500Y-115300000D03*
%TD*%
%TO.P,Q184,1,G*%
%TO.N,Net-(J8-Pin_7)*%
X113662500Y-98350000D03*
%TO.P,Q184,2,S*%
%TO.N,GND*%
X113662500Y-100250000D03*
%TO.P,Q184,3,D*%
%TO.N,Net-(Q183-S)*%
X115537500Y-99300000D03*
%TD*%
D17*
%TO.P,R146,1*%
%TO.N,VCC*%
X54580000Y-80300000D03*
%TO.P,R146,2*%
%TO.N,Net-(D14-Pad2)*%
X56220000Y-80300000D03*
%TD*%
D18*
%TO.P,Q165,1,G*%
%TO.N,Net-(Q165-G)*%
X117862500Y-118650000D03*
%TO.P,Q165,2,S*%
%TO.N,Net-(Q165-S)*%
X117862500Y-120550000D03*
%TO.P,Q165,3,D*%
%TO.N,Net-(Q152-D)*%
X119737500Y-119600000D03*
%TD*%
D17*
%TO.P,R137,1*%
%TO.N,VCC*%
X54580000Y-108400000D03*
%TO.P,R137,2*%
%TO.N,Net-(D5-Pad2)*%
X56220000Y-108400000D03*
%TD*%
D11*
%TO.P,Q271,1,G*%
%TO.N,Net-(J3-Pin_5)*%
X75950000Y-124237500D03*
%TO.P,Q271,2,S*%
%TO.N,GND*%
X77850000Y-124237500D03*
%TO.P,Q271,3,D*%
%TO.N,Net-(J8-Pin_4)*%
X76900000Y-122362500D03*
%TD*%
D18*
%TO.P,Q317,1,G*%
%TO.N,Net-(J8-Pin_6)*%
X130062500Y-48250000D03*
%TO.P,Q317,2,S*%
%TO.N,Earth*%
X130062500Y-50150000D03*
%TO.P,Q317,3,D*%
%TO.N,Net-(Q317-D)*%
X131937500Y-49200000D03*
%TD*%
%TO.P,Q166,1,G*%
%TO.N,Net-(J8-Pin_10)*%
X117862500Y-122350000D03*
%TO.P,Q166,2,S*%
%TO.N,GND*%
X117862500Y-124250000D03*
%TO.P,Q166,3,D*%
%TO.N,Net-(Q165-S)*%
X119737500Y-123300000D03*
%TD*%
D19*
%TO.P,D19,1*%
%TO.N,Net-(Q304-D)*%
X54710000Y-40000000D03*
%TO.P,D19,2*%
%TO.N,Net-(D19-Pad2)*%
X56290000Y-40000000D03*
%TD*%
D17*
%TO.P,R142,1*%
%TO.N,VCC*%
X54580000Y-65500000D03*
%TO.P,R142,2*%
%TO.N,Net-(D10-Pad2)*%
X56220000Y-65500000D03*
%TD*%
D18*
%TO.P,Q164,1,G*%
%TO.N,Net-(J8-Pin_10)*%
X113662500Y-122350000D03*
%TO.P,Q164,2,S*%
%TO.N,GND*%
X113662500Y-124250000D03*
%TO.P,Q164,3,D*%
%TO.N,Net-(Q163-S)*%
X115537500Y-123300000D03*
%TD*%
D13*
%TO.P,R108,1*%
%TO.N,VCC*%
X77200000Y-112700000D03*
%TO.P,R108,2*%
%TO.N,Net-(Q151-D)*%
X78200000Y-112700000D03*
%TD*%
D19*
%TO.P,D24,1*%
%TO.N,Net-(Q309-D)*%
X54710000Y-58500000D03*
%TO.P,D24,2*%
%TO.N,Net-(D24-Pad2)*%
X56290000Y-58500000D03*
%TD*%
D18*
%TO.P,Q238,1,G*%
%TO.N,Net-(J8-Pin_9)*%
X138862500Y-114350000D03*
%TO.P,Q238,2,S*%
%TO.N,GND*%
X138862500Y-116250000D03*
%TO.P,Q238,3,D*%
%TO.N,Net-(Q237-S)*%
X140737500Y-115300000D03*
%TD*%
%TO.P,Q229,1,G*%
%TO.N,Net-(J1-Pin_5)*%
X122062500Y-110650000D03*
%TO.P,Q229,2,S*%
%TO.N,Net-(Q229-S)*%
X122062500Y-112550000D03*
%TO.P,Q229,3,D*%
%TO.N,Net-(Q152-D)*%
X123937500Y-111600000D03*
%TD*%
%TO.P,Q208,1,G*%
%TO.N,Net-(J8-Pin_7)*%
X138862500Y-98350000D03*
%TO.P,Q208,2,S*%
%TO.N,GND*%
X138862500Y-100250000D03*
%TO.P,Q208,3,D*%
%TO.N,Net-(Q207-S)*%
X140737500Y-99300000D03*
%TD*%
%TO.P,Q194,1,G*%
%TO.N,Net-(J8-Pin_8)*%
X126262500Y-106350000D03*
%TO.P,Q194,2,S*%
%TO.N,GND*%
X126262500Y-108250000D03*
%TO.P,Q194,3,D*%
%TO.N,Net-(Q193-S)*%
X128137500Y-107300000D03*
%TD*%
D19*
%TO.P,D4,1*%
%TO.N,Net-(Q275-D)*%
X54710000Y-106700000D03*
%TO.P,D4,2*%
%TO.N,Net-(D4-Pad2)*%
X56290000Y-106700000D03*
%TD*%
D18*
%TO.P,Q157,1,G*%
%TO.N,Net-(J8-Pin_11)*%
X117862500Y-82350000D03*
%TO.P,Q157,2,S*%
%TO.N,GND*%
X117862500Y-84250000D03*
%TO.P,Q157,3,D*%
%TO.N,Net-(Q152-S)*%
X119737500Y-83300000D03*
%TD*%
%TO.P,Q183,1,G*%
%TO.N,Net-(Q183-G)*%
X113662500Y-94650000D03*
%TO.P,Q183,2,S*%
%TO.N,Net-(Q183-S)*%
X113662500Y-96550000D03*
%TO.P,Q183,3,D*%
%TO.N,Net-(Q153-D)*%
X115537500Y-95600000D03*
%TD*%
%TO.P,Q254,1,G*%
%TO.N,Net-(Q240-G)*%
X92562500Y-117850000D03*
%TO.P,Q254,2,S*%
%TO.N,GND*%
X92562500Y-119750000D03*
%TO.P,Q254,3,D*%
%TO.N,Net-(Q253-S)*%
X94437500Y-118800000D03*
%TD*%
%TO.P,Q171,1,G*%
%TO.N,Net-(Q110-D)*%
X130462500Y-118650000D03*
%TO.P,Q171,2,S*%
%TO.N,Net-(Q171-S)*%
X130462500Y-120550000D03*
%TO.P,Q171,3,D*%
%TO.N,Net-(Q149-D)*%
X132337500Y-119600000D03*
%TD*%
D17*
%TO.P,R157,1*%
%TO.N,VCC*%
X133880000Y-53900000D03*
%TO.P,R157,2*%
%TO.N,Net-(D25-Pad2)*%
X135520000Y-53900000D03*
%TD*%
D13*
%TO.P,R112,1*%
%TO.N,VCC*%
X94000000Y-112700000D03*
%TO.P,R112,2*%
%TO.N,Net-(Q147-D)*%
X95000000Y-112700000D03*
%TD*%
%TO.P,R107,1*%
%TO.N,VCC*%
X73000000Y-112700000D03*
%TO.P,R107,2*%
%TO.N,Net-(Q152-D)*%
X74000000Y-112700000D03*
%TD*%
%TO.P,R113,1*%
%TO.N,VCC*%
X64600000Y-112700000D03*
%TO.P,R113,2*%
%TO.N,Net-(J3-Pin_8)*%
X65600000Y-112700000D03*
%TD*%
D18*
%TO.P,Q298,1,G*%
%TO.N,Net-(J2-Pin_4)*%
X50762500Y-76750000D03*
%TO.P,Q298,2,S*%
%TO.N,Earth*%
X50762500Y-78650000D03*
%TO.P,Q298,3,D*%
%TO.N,Net-(Q298-D)*%
X52637500Y-77700000D03*
%TD*%
%TO.P,Q248,1,G*%
%TO.N,Net-(Q240-G)*%
X79962500Y-117850000D03*
%TO.P,Q248,2,S*%
%TO.N,GND*%
X79962500Y-119750000D03*
%TO.P,Q248,3,D*%
%TO.N,Net-(Q247-S)*%
X81837500Y-118800000D03*
%TD*%
%TO.P,Q272,1,G*%
%TO.N,Net-(J3-Pin_7)*%
X50762500Y-93750000D03*
%TO.P,Q272,2,S*%
%TO.N,Earth*%
X50762500Y-95650000D03*
%TO.P,Q272,3,D*%
%TO.N,Net-(Q272-D)*%
X52637500Y-94700000D03*
%TD*%
%TO.P,Q222,1,G*%
%TO.N,Net-(J8-Pin_6)*%
X134662500Y-90350000D03*
%TO.P,Q222,2,S*%
%TO.N,GND*%
X134662500Y-92250000D03*
%TO.P,Q222,3,D*%
%TO.N,Net-(Q221-S)*%
X136537500Y-91300000D03*
%TD*%
%TO.P,Q196,1,G*%
%TO.N,Net-(J8-Pin_7)*%
X126262500Y-98350000D03*
%TO.P,Q196,2,S*%
%TO.N,GND*%
X126262500Y-100250000D03*
%TO.P,Q196,3,D*%
%TO.N,Net-(Q195-S)*%
X128137500Y-99300000D03*
%TD*%
%TO.P,Q265,1,G*%
%TO.N,Net-(Q265-G)*%
X104162500Y-38450000D03*
%TO.P,Q265,2,S*%
%TO.N,GND*%
X104162500Y-40350000D03*
%TO.P,Q265,3,D*%
%TO.N,Net-(J8-Pin_1)*%
X106037500Y-39400000D03*
%TD*%
%TO.P,Q146,1,G*%
%TO.N,Net-(J8-Pin_10)*%
X109462500Y-122375000D03*
%TO.P,Q146,2,S*%
%TO.N,GND*%
X109462500Y-124275000D03*
%TO.P,Q146,3,D*%
%TO.N,Net-(Q145-S)*%
X111337500Y-123325000D03*
%TD*%
D17*
%TO.P,R134,1*%
%TO.N,VCC*%
X54580000Y-97300000D03*
%TO.P,R134,2*%
%TO.N,Net-(D1-Pad2)*%
X56220000Y-97300000D03*
%TD*%
D18*
%TO.P,Q302,1,G*%
%TO.N,Net-(J1-Pin_8)*%
X50762500Y-30750000D03*
%TO.P,Q302,2,S*%
%TO.N,Earth*%
X50762500Y-32650000D03*
%TO.P,Q302,3,D*%
%TO.N,Net-(Q302-D)*%
X52637500Y-31700000D03*
%TD*%
%TO.P,Q307,1,G*%
%TO.N,Net-(J1-Pin_3)*%
X50762500Y-49250000D03*
%TO.P,Q307,2,S*%
%TO.N,Earth*%
X50762500Y-51150000D03*
%TO.P,Q307,3,D*%
%TO.N,Net-(Q307-D)*%
X52637500Y-50200000D03*
%TD*%
D19*
%TO.P,D32,1*%
%TO.N,Net-(Q317-D)*%
X134010000Y-50100000D03*
%TO.P,D32,2*%
%TO.N,Net-(D32-Pad2)*%
X135590000Y-50100000D03*
%TD*%
%TO.P,D10,1*%
%TO.N,Net-(Q295-D)*%
X54710000Y-67500000D03*
%TO.P,D10,2*%
%TO.N,Net-(D10-Pad2)*%
X56290000Y-67500000D03*
%TD*%
D13*
%TO.P,R110,1*%
%TO.N,VCC*%
X85600000Y-112700000D03*
%TO.P,R110,2*%
%TO.N,Net-(Q149-D)*%
X86600000Y-112700000D03*
%TD*%
D18*
%TO.P,Q319,1,G*%
%TO.N,Net-(J8-Pin_2)*%
X129862500Y-64650000D03*
%TO.P,Q319,2,S*%
%TO.N,Earth*%
X129862500Y-66550000D03*
%TO.P,Q319,3,D*%
%TO.N,Net-(Q319-D)*%
X131737500Y-65600000D03*
%TD*%
D19*
%TO.P,D31,1*%
%TO.N,Net-(Q316-D)*%
X134010000Y-46400000D03*
%TO.P,D31,2*%
%TO.N,Net-(D31-Pad2)*%
X135590000Y-46400000D03*
%TD*%
D18*
%TO.P,Q151,1,G*%
%TO.N,Net-(Q12-D)*%
X122062500Y-78650000D03*
%TO.P,Q151,2,S*%
%TO.N,Net-(Q151-S)*%
X122062500Y-80550000D03*
%TO.P,Q151,3,D*%
%TO.N,Net-(Q151-D)*%
X123937500Y-79600000D03*
%TD*%
%TO.P,Q211,1,G*%
%TO.N,Net-(Q211-G)*%
X113662500Y-86650000D03*
%TO.P,Q211,2,S*%
%TO.N,Net-(Q211-S)*%
X113662500Y-88550000D03*
%TO.P,Q211,3,D*%
%TO.N,Net-(Q153-D)*%
X115537500Y-87600000D03*
%TD*%
%TO.P,Q189,1,G*%
%TO.N,Net-(Q189-G)*%
X122062500Y-102650000D03*
%TO.P,Q189,2,S*%
%TO.N,Net-(Q189-S)*%
X122062500Y-104550000D03*
%TO.P,Q189,3,D*%
%TO.N,Net-(Q151-D)*%
X123937500Y-103600000D03*
%TD*%
D17*
%TO.P,R151,1*%
%TO.N,VCC*%
X54580000Y-38000000D03*
%TO.P,R151,2*%
%TO.N,Net-(D19-Pad2)*%
X56220000Y-38000000D03*
%TD*%
%TO.P,R135,1*%
%TO.N,VCC*%
X54580000Y-101000000D03*
%TO.P,R135,2*%
%TO.N,Net-(D3-Pad2)*%
X56220000Y-101000000D03*
%TD*%
D18*
%TO.P,Q201,1,G*%
%TO.N,Net-(Q115-S)*%
X134662500Y-102650000D03*
%TO.P,Q201,2,S*%
%TO.N,Net-(Q201-S)*%
X134662500Y-104550000D03*
%TO.P,Q201,3,D*%
%TO.N,Net-(Q148-D)*%
X136537500Y-103600000D03*
%TD*%
%TO.P,Q207,1,G*%
%TO.N,Net-(Q132-D)*%
X138862500Y-94650000D03*
%TO.P,Q207,2,S*%
%TO.N,Net-(Q207-S)*%
X138862500Y-96550000D03*
%TO.P,Q207,3,D*%
%TO.N,Net-(Q147-D)*%
X140737500Y-95600000D03*
%TD*%
D17*
%TO.P,R153,1*%
%TO.N,VCC*%
X54580000Y-45400000D03*
%TO.P,R153,2*%
%TO.N,Net-(D21-Pad2)*%
X56220000Y-45400000D03*
%TD*%
D18*
%TO.P,Q163,1,G*%
%TO.N,Net-(Q163-G)*%
X113662500Y-118650000D03*
%TO.P,Q163,2,S*%
%TO.N,Net-(Q163-S)*%
X113662500Y-120550000D03*
%TO.P,Q163,3,D*%
%TO.N,Net-(Q153-D)*%
X115537500Y-119600000D03*
%TD*%
%TO.P,Q242,1,G*%
%TO.N,Net-(Q240-G)*%
X67362500Y-117850000D03*
%TO.P,Q242,2,S*%
%TO.N,GND*%
X67362500Y-119750000D03*
%TO.P,Q242,3,D*%
%TO.N,Net-(Q241-S)*%
X69237500Y-118800000D03*
%TD*%
%TO.P,Q305,1,G*%
%TO.N,Net-(J1-Pin_5)*%
X50762500Y-41850000D03*
%TO.P,Q305,2,S*%
%TO.N,Earth*%
X50762500Y-43750000D03*
%TO.P,Q305,3,D*%
%TO.N,Net-(Q305-D)*%
X52637500Y-42800000D03*
%TD*%
%TO.P,Q292,1,G*%
%TO.N,Net-(J3-Pin_2)*%
X50762500Y-115950000D03*
%TO.P,Q292,2,S*%
%TO.N,Earth*%
X50762500Y-117850000D03*
%TO.P,Q292,3,D*%
%TO.N,Net-(Q292-D)*%
X52637500Y-116900000D03*
%TD*%
D11*
%TO.P,Q269,1,G*%
%TO.N,Net-(J3-Pin_7)*%
X68350000Y-124237500D03*
%TO.P,Q269,2,S*%
%TO.N,GND*%
X70250000Y-124237500D03*
%TO.P,Q269,3,D*%
%TO.N,Net-(J8-Pin_4)*%
X69300000Y-122362500D03*
%TD*%
D18*
%TO.P,Q276,1,G*%
%TO.N,Net-(J3-Pin_4)*%
X50762500Y-108550000D03*
%TO.P,Q276,2,S*%
%TO.N,Earth*%
X50762500Y-110450000D03*
%TO.P,Q276,3,D*%
%TO.N,Net-(Q276-D)*%
X52637500Y-109500000D03*
%TD*%
%TO.P,Q210,1,G*%
%TO.N,Net-(J8-Pin_6)*%
X109462500Y-90350000D03*
%TO.P,Q210,2,S*%
%TO.N,GND*%
X109462500Y-92250000D03*
%TO.P,Q210,3,D*%
%TO.N,Net-(Q209-S)*%
X111337500Y-91300000D03*
%TD*%
%TO.P,Q191,1,G*%
%TO.N,Net-(Q191-G)*%
X122062500Y-94650000D03*
%TO.P,Q191,2,S*%
%TO.N,Net-(Q191-S)*%
X122062500Y-96550000D03*
%TO.P,Q191,3,D*%
%TO.N,Net-(Q151-D)*%
X123937500Y-95600000D03*
%TD*%
%TO.P,Q203,1,G*%
%TO.N,Net-(Q117-D)*%
X134562500Y-94650000D03*
%TO.P,Q203,2,S*%
%TO.N,Net-(Q203-S)*%
X134562500Y-96550000D03*
%TO.P,Q203,3,D*%
%TO.N,Net-(Q148-D)*%
X136437500Y-95600000D03*
%TD*%
%TO.P,Q297,1,G*%
%TO.N,Net-(J2-Pin_5)*%
X50762500Y-73050000D03*
%TO.P,Q297,2,S*%
%TO.N,Earth*%
X50762500Y-74950000D03*
%TO.P,Q297,3,D*%
%TO.N,Net-(Q297-D)*%
X52637500Y-74000000D03*
%TD*%
D12*
%TO.P,R126,1*%
%TO.N,VCC*%
X109000000Y-38300000D03*
%TO.P,R126,2*%
%TO.N,Net-(Q265-G)*%
X108000000Y-38300000D03*
%TD*%
D19*
%TO.P,D9,1*%
%TO.N,Net-(Q294-D)*%
X54710000Y-63800000D03*
%TO.P,D9,2*%
%TO.N,Net-(D9-Pad2)*%
X56290000Y-63800000D03*
%TD*%
%TO.P,D5,1*%
%TO.N,Net-(Q276-D)*%
X54710000Y-110400000D03*
%TO.P,D5,2*%
%TO.N,Net-(D5-Pad2)*%
X56290000Y-110400000D03*
%TD*%
D18*
%TO.P,Q152,1,G*%
%TO.N,Net-(Q152-G)*%
X117862500Y-78650000D03*
%TO.P,Q152,2,S*%
%TO.N,Net-(Q152-S)*%
X117862500Y-80550000D03*
%TO.P,Q152,3,D*%
%TO.N,Net-(Q152-D)*%
X119737500Y-79600000D03*
%TD*%
%TO.P,Q180,1,G*%
%TO.N,Net-(J8-Pin_7)*%
X109462500Y-98350000D03*
%TO.P,Q180,2,S*%
%TO.N,GND*%
X109462500Y-100250000D03*
%TO.P,Q180,3,D*%
%TO.N,Net-(Q179-S)*%
X111337500Y-99300000D03*
%TD*%
D13*
%TO.P,R111,1*%
%TO.N,VCC*%
X89800000Y-112700000D03*
%TO.P,R111,2*%
%TO.N,Net-(Q148-D)*%
X90800000Y-112700000D03*
%TD*%
D18*
%TO.P,Q212,1,G*%
%TO.N,Net-(J8-Pin_6)*%
X113662500Y-90350000D03*
%TO.P,Q212,2,S*%
%TO.N,GND*%
X113662500Y-92250000D03*
%TO.P,Q212,3,D*%
%TO.N,Net-(Q211-S)*%
X115537500Y-91300000D03*
%TD*%
%TO.P,Q237,1,G*%
%TO.N,Net-(J1-Pin_1)*%
X138862500Y-110650000D03*
%TO.P,Q237,2,S*%
%TO.N,Net-(Q237-S)*%
X138862500Y-112550000D03*
%TO.P,Q237,3,D*%
%TO.N,Net-(Q148-D)*%
X140737500Y-111600000D03*
%TD*%
D17*
%TO.P,R147,1*%
%TO.N,VCC*%
X54580000Y-84000000D03*
%TO.P,R147,2*%
%TO.N,Net-(D15-Pad2)*%
X56220000Y-84000000D03*
%TD*%
D18*
%TO.P,Q274,1,G*%
%TO.N,Net-(J3-Pin_6)*%
X50762500Y-101150000D03*
%TO.P,Q274,2,S*%
%TO.N,Earth*%
X50762500Y-103050000D03*
%TO.P,Q274,3,D*%
%TO.N,Net-(Q274-D)*%
X52637500Y-102100000D03*
%TD*%
D19*
%TO.P,D7,1*%
%TO.N,Net-(Q292-D)*%
X54710000Y-117800000D03*
%TO.P,D7,2*%
%TO.N,Net-(D7-Pad2)*%
X56290000Y-117800000D03*
%TD*%
D18*
%TO.P,Q309,1,G*%
%TO.N,Net-(J1-Pin_1)*%
X50762500Y-56650000D03*
%TO.P,Q309,2,S*%
%TO.N,Earth*%
X50762500Y-58550000D03*
%TO.P,Q309,3,D*%
%TO.N,Net-(Q309-D)*%
X52637500Y-57600000D03*
%TD*%
%TO.P,Q250,1,G*%
%TO.N,Net-(Q240-G)*%
X84162500Y-117850000D03*
%TO.P,Q250,2,S*%
%TO.N,GND*%
X84162500Y-119750000D03*
%TO.P,Q250,3,D*%
%TO.N,Net-(Q249-S)*%
X86037500Y-118800000D03*
%TD*%
D19*
%TO.P,D18,1*%
%TO.N,Net-(Q303-D)*%
X54710000Y-36300000D03*
%TO.P,D18,2*%
%TO.N,Net-(D18-Pad2)*%
X56290000Y-36300000D03*
%TD*%
D18*
%TO.P,Q235,1,G*%
%TO.N,Net-(J1-Pin_2)*%
X134662500Y-110650000D03*
%TO.P,Q235,2,S*%
%TO.N,Net-(Q235-S)*%
X134662500Y-112550000D03*
%TO.P,Q235,3,D*%
%TO.N,Net-(Q149-D)*%
X136537500Y-111600000D03*
%TD*%
%TO.P,Q267,1,G*%
%TO.N,Net-(J8-Pin_6)*%
X104162500Y-34750000D03*
%TO.P,Q267,2,S*%
%TO.N,GND*%
X104162500Y-36650000D03*
%TO.P,Q267,3,D*%
%TO.N,Net-(Q266-S)*%
X106037500Y-35700000D03*
%TD*%
D17*
%TO.P,R139,1*%
%TO.N,VCC*%
X54580000Y-115800000D03*
%TO.P,R139,2*%
%TO.N,Net-(D7-Pad2)*%
X56220000Y-115800000D03*
%TD*%
D18*
%TO.P,Q228,1,G*%
%TO.N,Net-(J8-Pin_9)*%
X117862500Y-114350000D03*
%TO.P,Q228,2,S*%
%TO.N,GND*%
X117862500Y-116250000D03*
%TO.P,Q228,3,D*%
%TO.N,Net-(Q227-S)*%
X119737500Y-115300000D03*
%TD*%
%TO.P,Q318,1,G*%
%TO.N,Net-(J8-Pin_3)*%
X130062500Y-60950000D03*
%TO.P,Q318,2,S*%
%TO.N,Earth*%
X130062500Y-62850000D03*
%TO.P,Q318,3,D*%
%TO.N,Net-(Q318-D)*%
X131937500Y-61900000D03*
%TD*%
%TO.P,Q160,1,G*%
%TO.N,Net-(J8-Pin_11)*%
X130462500Y-82350000D03*
%TO.P,Q160,2,S*%
%TO.N,GND*%
X130462500Y-84250000D03*
%TO.P,Q160,3,D*%
%TO.N,Net-(Q149-S)*%
X132337500Y-83300000D03*
%TD*%
D12*
%TO.P,R105,1*%
%TO.N,VCC*%
X63500000Y-112700000D03*
%TO.P,R105,2*%
%TO.N,Net-(Q145-D)*%
X62500000Y-112700000D03*
%TD*%
D18*
%TO.P,Q230,1,G*%
%TO.N,Net-(J8-Pin_9)*%
X122062500Y-114350000D03*
%TO.P,Q230,2,S*%
%TO.N,GND*%
X122062500Y-116250000D03*
%TO.P,Q230,3,D*%
%TO.N,Net-(Q229-S)*%
X123937500Y-115300000D03*
%TD*%
%TO.P,Q294,1,G*%
%TO.N,Net-(J2-Pin_8)*%
X50762500Y-61950000D03*
%TO.P,Q294,2,S*%
%TO.N,Earth*%
X50762500Y-63850000D03*
%TO.P,Q294,3,D*%
%TO.N,Net-(Q294-D)*%
X52637500Y-62900000D03*
%TD*%
%TO.P,Q153,1,G*%
%TO.N,Net-(Q153-G)*%
X113662500Y-78650000D03*
%TO.P,Q153,2,S*%
%TO.N,Net-(Q153-S)*%
X113662500Y-80550000D03*
%TO.P,Q153,3,D*%
%TO.N,Net-(Q153-D)*%
X115537500Y-79600000D03*
%TD*%
D19*
%TO.P,D2,1*%
%TO.N,Net-(Q272-D)*%
X54710000Y-95600000D03*
%TO.P,D2,2*%
%TO.N,Net-(D2-Pad2)*%
X56290000Y-95600000D03*
%TD*%
%TO.P,D20,1*%
%TO.N,Net-(Q305-D)*%
X54710000Y-43700000D03*
%TO.P,D20,2*%
%TO.N,Net-(D20-Pad2)*%
X56290000Y-43700000D03*
%TD*%
D17*
%TO.P,R148,1*%
%TO.N,VCC*%
X54580000Y-87700000D03*
%TO.P,R148,2*%
%TO.N,Net-(D16-Pad2)*%
X56220000Y-87700000D03*
%TD*%
D18*
%TO.P,Q195,1,G*%
%TO.N,Net-(Q195-G)*%
X126162500Y-94650000D03*
%TO.P,Q195,2,S*%
%TO.N,Net-(Q195-S)*%
X126162500Y-96550000D03*
%TO.P,Q195,3,D*%
%TO.N,Net-(Q150-D)*%
X128037500Y-95600000D03*
%TD*%
%TO.P,Q156,1,G*%
%TO.N,Net-(J8-Pin_11)*%
X113662500Y-82350000D03*
%TO.P,Q156,2,S*%
%TO.N,GND*%
X113662500Y-84250000D03*
%TO.P,Q156,3,D*%
%TO.N,Net-(Q153-S)*%
X115537500Y-83300000D03*
%TD*%
%TO.P,Q187,1,G*%
%TO.N,Net-(Q187-G)*%
X117862500Y-94650000D03*
%TO.P,Q187,2,S*%
%TO.N,Net-(Q187-S)*%
X117862500Y-96550000D03*
%TO.P,Q187,3,D*%
%TO.N,Net-(Q152-D)*%
X119737500Y-95600000D03*
%TD*%
%TO.P,Q173,1,G*%
%TO.N,Net-(Q125-D)*%
X134662500Y-118650000D03*
%TO.P,Q173,2,S*%
%TO.N,Net-(Q173-S)*%
X134662500Y-120550000D03*
%TO.P,Q173,3,D*%
%TO.N,Net-(Q148-D)*%
X136537500Y-119600000D03*
%TD*%
%TO.P,Q301,1,G*%
%TO.N,Net-(J2-Pin_1)*%
X50762500Y-87850000D03*
%TO.P,Q301,2,S*%
%TO.N,Earth*%
X50762500Y-89750000D03*
%TO.P,Q301,3,D*%
%TO.N,Net-(Q301-D)*%
X52637500Y-88800000D03*
%TD*%
%TO.P,Q193,1,G*%
%TO.N,Net-(Q193-G)*%
X126262500Y-102650000D03*
%TO.P,Q193,2,S*%
%TO.N,Net-(Q193-S)*%
X126262500Y-104550000D03*
%TO.P,Q193,3,D*%
%TO.N,Net-(Q150-D)*%
X128137500Y-103600000D03*
%TD*%
D19*
%TO.P,D23,1*%
%TO.N,Net-(Q308-D)*%
X54710000Y-54800000D03*
%TO.P,D23,2*%
%TO.N,Net-(D23-Pad2)*%
X56290000Y-54800000D03*
%TD*%
D11*
%TO.P,Q289,1,G*%
%TO.N,Net-(J3-Pin_2)*%
X87350000Y-124237500D03*
%TO.P,Q289,2,S*%
%TO.N,GND*%
X89250000Y-124237500D03*
%TO.P,Q289,3,D*%
%TO.N,Net-(J8-Pin_4)*%
X88300000Y-122362500D03*
%TD*%
D12*
%TO.P,R119,1*%
%TO.N,VCC*%
X88700000Y-112700000D03*
%TO.P,R119,2*%
%TO.N,Net-(J3-Pin_2)*%
X87700000Y-112700000D03*
%TD*%
D17*
%TO.P,R144,1*%
%TO.N,VCC*%
X54580000Y-72900000D03*
%TO.P,R144,2*%
%TO.N,Net-(D12-Pad2)*%
X56220000Y-72900000D03*
%TD*%
D18*
%TO.P,Q148,1,G*%
%TO.N,Net-(Q148-G)*%
X134662500Y-78650000D03*
%TO.P,Q148,2,S*%
%TO.N,Net-(Q148-S)*%
X134662500Y-80550000D03*
%TO.P,Q148,3,D*%
%TO.N,Net-(Q148-D)*%
X136537500Y-79600000D03*
%TD*%
D11*
%TO.P,Q270,1,G*%
%TO.N,Net-(J3-Pin_6)*%
X72150000Y-124237500D03*
%TO.P,Q270,2,S*%
%TO.N,GND*%
X74050000Y-124237500D03*
%TO.P,Q270,3,D*%
%TO.N,Net-(J8-Pin_4)*%
X73100000Y-122362500D03*
%TD*%
D17*
%TO.P,R165,1*%
%TO.N,VCC*%
X133880000Y-61000000D03*
%TO.P,R165,2*%
%TO.N,Net-(D33-Pad2)*%
X135520000Y-61000000D03*
%TD*%
D18*
%TO.P,Q150,1,G*%
%TO.N,Net-(Q15-D)*%
X126262500Y-78650000D03*
%TO.P,Q150,2,S*%
%TO.N,Net-(Q150-S)*%
X126262500Y-80550000D03*
%TO.P,Q150,3,D*%
%TO.N,Net-(Q150-D)*%
X128137500Y-79600000D03*
%TD*%
%TO.P,Q316,1,G*%
%TO.N,Net-(J8-Pin_7)*%
X130062500Y-44550000D03*
%TO.P,Q316,2,S*%
%TO.N,Earth*%
X130062500Y-46450000D03*
%TO.P,Q316,3,D*%
%TO.N,Net-(Q316-D)*%
X131937500Y-45500000D03*
%TD*%
%TO.P,Q179,1,G*%
%TO.N,Net-(Q179-G)*%
X109462500Y-94650000D03*
%TO.P,Q179,2,S*%
%TO.N,Net-(Q179-S)*%
X109462500Y-96550000D03*
%TO.P,Q179,3,D*%
%TO.N,Net-(Q145-D)*%
X111337500Y-95600000D03*
%TD*%
D12*
%TO.P,R106,1*%
%TO.N,VCC*%
X67700000Y-112700000D03*
%TO.P,R106,2*%
%TO.N,Net-(Q153-D)*%
X66700000Y-112700000D03*
%TD*%
D18*
%TO.P,Q169,1,G*%
%TO.N,Net-(Q169-G)*%
X126262500Y-118650000D03*
%TO.P,Q169,2,S*%
%TO.N,Net-(Q169-S)*%
X126262500Y-120550000D03*
%TO.P,Q169,3,D*%
%TO.N,Net-(Q150-D)*%
X128137500Y-119600000D03*
%TD*%
%TO.P,Q320,1,G*%
%TO.N,Net-(J8-Pin_1)*%
X129862500Y-68350000D03*
%TO.P,Q320,2,S*%
%TO.N,Earth*%
X129862500Y-70250000D03*
%TO.P,Q320,3,D*%
%TO.N,Net-(Q320-D)*%
X131737500Y-69300000D03*
%TD*%
%TO.P,Q181,1,G*%
%TO.N,Net-(Q181-G)*%
X113662500Y-102650000D03*
%TO.P,Q181,2,S*%
%TO.N,Net-(Q181-S)*%
X113662500Y-104550000D03*
%TO.P,Q181,3,D*%
%TO.N,Net-(Q153-D)*%
X115537500Y-103600000D03*
%TD*%
%TO.P,Q224,1,G*%
%TO.N,Net-(J8-Pin_6)*%
X138862500Y-90350000D03*
%TO.P,Q224,2,S*%
%TO.N,GND*%
X138862500Y-92250000D03*
%TO.P,Q224,3,D*%
%TO.N,Net-(Q223-S)*%
X140737500Y-91300000D03*
%TD*%
D19*
%TO.P,D26,1*%
%TO.N,Net-(Q311-D)*%
X134010000Y-59300000D03*
%TO.P,D26,2*%
%TO.N,Net-(D26-Pad2)*%
X135590000Y-59300000D03*
%TD*%
D17*
%TO.P,R138,1*%
%TO.N,VCC*%
X54580000Y-112100000D03*
%TO.P,R138,2*%
%TO.N,Net-(D6-Pad2)*%
X56220000Y-112100000D03*
%TD*%
D18*
%TO.P,Q172,1,G*%
%TO.N,Net-(J8-Pin_10)*%
X130462500Y-122350000D03*
%TO.P,Q172,2,S*%
%TO.N,GND*%
X130462500Y-124250000D03*
%TO.P,Q172,3,D*%
%TO.N,Net-(Q171-S)*%
X132337500Y-123300000D03*
%TD*%
D17*
%TO.P,R167,1*%
%TO.N,VCC*%
X133880000Y-68400000D03*
%TO.P,R167,2*%
%TO.N,Net-(D35-Pad2)*%
X135520000Y-68400000D03*
%TD*%
D11*
%TO.P,Q290,1,G*%
%TO.N,Net-(J3-Pin_1)*%
X91150000Y-124237500D03*
%TO.P,Q290,2,S*%
%TO.N,GND*%
X93050000Y-124237500D03*
%TO.P,Q290,3,D*%
%TO.N,Net-(J8-Pin_4)*%
X92100000Y-122362500D03*
%TD*%
D18*
%TO.P,Q186,1,G*%
%TO.N,Net-(J8-Pin_8)*%
X117862500Y-106350000D03*
%TO.P,Q186,2,S*%
%TO.N,GND*%
X117862500Y-108250000D03*
%TO.P,Q186,3,D*%
%TO.N,Net-(Q185-S)*%
X119737500Y-107300000D03*
%TD*%
%TO.P,Q202,1,G*%
%TO.N,Net-(J8-Pin_8)*%
X134662500Y-106350000D03*
%TO.P,Q202,2,S*%
%TO.N,GND*%
X134662500Y-108250000D03*
%TO.P,Q202,3,D*%
%TO.N,Net-(Q201-S)*%
X136537500Y-107300000D03*
%TD*%
%TO.P,Q253,1,G*%
%TO.N,Net-(Q147-D)*%
X92562500Y-114150000D03*
%TO.P,Q253,2,S*%
%TO.N,Net-(Q253-S)*%
X92562500Y-116050000D03*
%TO.P,Q253,3,D*%
%TO.N,Net-(J3-Pin_1)*%
X94437500Y-115100000D03*
%TD*%
D17*
%TO.P,R154,1*%
%TO.N,VCC*%
X54580000Y-49100000D03*
%TO.P,R154,2*%
%TO.N,Net-(D22-Pad2)*%
X56220000Y-49100000D03*
%TD*%
D19*
%TO.P,D30,1*%
%TO.N,Net-(Q315-D)*%
X134010000Y-42700000D03*
%TO.P,D30,2*%
%TO.N,Net-(D30-Pad2)*%
X135590000Y-42700000D03*
%TD*%
D18*
%TO.P,Q176,1,G*%
%TO.N,Net-(J8-Pin_10)*%
X138862500Y-122350000D03*
%TO.P,Q176,2,S*%
%TO.N,GND*%
X138862500Y-124250000D03*
%TO.P,Q176,3,D*%
%TO.N,Net-(Q175-S)*%
X140737500Y-123300000D03*
%TD*%
D17*
%TO.P,R164,1*%
%TO.N,VCC*%
X133880000Y-48100000D03*
%TO.P,R164,2*%
%TO.N,Net-(D32-Pad2)*%
X135520000Y-48100000D03*
%TD*%
%TO.P,R140,1*%
%TO.N,VCC*%
X54580000Y-119500000D03*
%TO.P,R140,2*%
%TO.N,Net-(D8-Pad2)*%
X56220000Y-119500000D03*
%TD*%
D18*
%TO.P,Q178,1,G*%
%TO.N,Net-(J8-Pin_8)*%
X109462500Y-106350000D03*
%TO.P,Q178,2,S*%
%TO.N,GND*%
X109462500Y-108250000D03*
%TO.P,Q178,3,D*%
%TO.N,Net-(Q177-S)*%
X111337500Y-107300000D03*
%TD*%
%TO.P,Q293,1,G*%
%TO.N,Net-(J3-Pin_1)*%
X50762500Y-119650000D03*
%TO.P,Q293,2,S*%
%TO.N,Earth*%
X50762500Y-121550000D03*
%TO.P,Q293,3,D*%
%TO.N,Net-(Q293-D)*%
X52637500Y-120600000D03*
%TD*%
%TO.P,Q197,1,G*%
%TO.N,Net-(Q100-S)*%
X130462500Y-102650000D03*
%TO.P,Q197,2,S*%
%TO.N,Net-(Q197-S)*%
X130462500Y-104550000D03*
%TO.P,Q197,3,D*%
%TO.N,Net-(Q149-D)*%
X132337500Y-103600000D03*
%TD*%
%TO.P,Q315,1,G*%
%TO.N,Net-(J8-Pin_8)*%
X130062500Y-40850000D03*
%TO.P,Q315,2,S*%
%TO.N,Earth*%
X130062500Y-42750000D03*
%TO.P,Q315,3,D*%
%TO.N,Net-(Q315-D)*%
X131937500Y-41800000D03*
%TD*%
D20*
%TO.P,J2,1,Pin_1*%
%TO.N,Net-(J2-Pin_1)*%
X47900000Y-80275000D03*
D21*
%TO.P,J2,2,Pin_2*%
%TO.N,Net-(J2-Pin_2)*%
X47900000Y-79025000D03*
%TO.P,J2,3,Pin_3*%
%TO.N,Net-(J2-Pin_3)*%
X47900000Y-77775000D03*
%TO.P,J2,4,Pin_4*%
%TO.N,Net-(J2-Pin_4)*%
X47900000Y-76525000D03*
%TO.P,J2,5,Pin_5*%
%TO.N,Net-(J2-Pin_5)*%
X47900000Y-75275000D03*
%TO.P,J2,6,Pin_6*%
%TO.N,Net-(J2-Pin_6)*%
X47900000Y-74025000D03*
%TO.P,J2,7,Pin_7*%
%TO.N,Net-(J2-Pin_7)*%
X47900000Y-72775000D03*
%TO.P,J2,8,Pin_8*%
%TO.N,Net-(J2-Pin_8)*%
X47900000Y-71525000D03*
%TD*%
D18*
%TO.P,Q251,1,G*%
%TO.N,Net-(Q148-D)*%
X88362500Y-114150000D03*
%TO.P,Q251,2,S*%
%TO.N,Net-(Q251-S)*%
X88362500Y-116050000D03*
%TO.P,Q251,3,D*%
%TO.N,Net-(J3-Pin_2)*%
X90237500Y-115100000D03*
%TD*%
D19*
%TO.P,D12,1*%
%TO.N,Net-(Q297-D)*%
X54710000Y-74900000D03*
%TO.P,D12,2*%
%TO.N,Net-(D12-Pad2)*%
X56290000Y-74900000D03*
%TD*%
D18*
%TO.P,Q220,1,G*%
%TO.N,Net-(J8-Pin_6)*%
X130462500Y-90350000D03*
%TO.P,Q220,2,S*%
%TO.N,GND*%
X130462500Y-92250000D03*
%TO.P,Q220,3,D*%
%TO.N,Net-(Q219-S)*%
X132337500Y-91300000D03*
%TD*%
%TO.P,Q273,1,G*%
%TO.N,Net-(J3-Pin_8)*%
X50762500Y-97450000D03*
%TO.P,Q273,2,S*%
%TO.N,Earth*%
X50762500Y-99350000D03*
%TO.P,Q273,3,D*%
%TO.N,Net-(Q273-D)*%
X52637500Y-98400000D03*
%TD*%
%TO.P,Q246,1,G*%
%TO.N,Net-(Q240-G)*%
X75762500Y-117850000D03*
%TO.P,Q246,2,S*%
%TO.N,GND*%
X75762500Y-119750000D03*
%TO.P,Q246,3,D*%
%TO.N,Net-(Q245-S)*%
X77637500Y-118800000D03*
%TD*%
%TO.P,Q291,1,G*%
%TO.N,Net-(J3-Pin_3)*%
X50762500Y-112250000D03*
%TO.P,Q291,2,S*%
%TO.N,Earth*%
X50762500Y-114150000D03*
%TO.P,Q291,3,D*%
%TO.N,Net-(Q291-D)*%
X52637500Y-113200000D03*
%TD*%
%TO.P,Q306,1,G*%
%TO.N,Net-(J1-Pin_4)*%
X50762500Y-45550000D03*
%TO.P,Q306,2,S*%
%TO.N,Earth*%
X50762500Y-47450000D03*
%TO.P,Q306,3,D*%
%TO.N,Net-(Q306-D)*%
X52637500Y-46500000D03*
%TD*%
D19*
%TO.P,D29,1*%
%TO.N,Net-(Q314-D)*%
X134010000Y-39000000D03*
%TO.P,D29,2*%
%TO.N,Net-(D29-Pad2)*%
X135590000Y-39000000D03*
%TD*%
D18*
%TO.P,Q303,1,G*%
%TO.N,Net-(J1-Pin_7)*%
X50762500Y-34450000D03*
%TO.P,Q303,2,S*%
%TO.N,Earth*%
X50762500Y-36350000D03*
%TO.P,Q303,3,D*%
%TO.N,Net-(Q303-D)*%
X52637500Y-35400000D03*
%TD*%
D23*
%TO.N,Net-(J3-Pin_1)*%
X127700000Y-36200000D03*
%TO.N,Net-(J2-Pin_1)*%
X72200000Y-103500000D03*
X62700000Y-104700000D03*
%TO.N,Net-(J2-Pin_2)*%
X72300000Y-93500000D03*
X62600000Y-94600000D03*
%TO.N,Net-(J2-Pin_3)*%
X72200000Y-83600000D03*
X62400000Y-87000000D03*
%TO.N,Net-(J2-Pin_4)*%
X72300000Y-73600000D03*
X62400000Y-76700000D03*
%TO.N,Net-(J2-Pin_5)*%
X72200000Y-63600000D03*
X62400000Y-67200000D03*
%TO.N,Net-(J2-Pin_6)*%
X72200000Y-53600000D03*
X62400000Y-57100000D03*
%TO.N,Net-(J2-Pin_7)*%
X72200000Y-43500000D03*
X62300000Y-47100000D03*
%TO.N,Net-(J2-Pin_8)*%
X62400000Y-37400000D03*
%TO.N,Net-(J1-Pin_1)*%
X69400000Y-101600000D03*
X59200000Y-103600000D03*
%TO.N,Net-(J1-Pin_2)*%
X69400000Y-91500000D03*
X59200000Y-93500000D03*
%TO.N,Net-(J1-Pin_3)*%
X69400000Y-81400000D03*
X59300000Y-83700000D03*
%TO.N,Net-(J1-Pin_4)*%
X69400000Y-71700000D03*
X59300000Y-73400000D03*
%TO.N,Net-(J1-Pin_5)*%
X69400000Y-61600000D03*
X59000000Y-63400000D03*
%TO.N,Net-(J1-Pin_6)*%
X69400000Y-51600000D03*
X59400000Y-53500000D03*
%TO.N,Net-(J1-Pin_7)*%
X69400000Y-41600000D03*
X59100000Y-44800000D03*
%TO.N,Net-(J1-Pin_8)*%
X69400000Y-31600000D03*
X59400000Y-34700000D03*
%TO.N,Net-(Q28-D)*%
X87000000Y-32900000D03*
%TO.N,Net-(Q25-G)*%
X70300000Y-38000000D03*
%TO.N,Net-(Q179-G)*%
X90800000Y-32900000D03*
%TO.N,Net-(Q28-D)*%
X88000000Y-34400000D03*
%TO.N,Net-(Q25-G)*%
X73300000Y-35500000D03*
%TO.N,Net-(Q29-D)*%
X90800000Y-38000000D03*
%TO.N,Net-(Q25-G)*%
X87100000Y-38000000D03*
%TO.N,Net-(Q29-D)*%
X86029751Y-35929751D03*
%TO.N,Net-(Q177-G)*%
X72200000Y-38200000D03*
X72200000Y-35600000D03*
%TO.N,Net-(Q179-G)*%
X77018750Y-35381250D03*
%TO.N,Net-(J2-Pin_8)*%
X79600000Y-32800000D03*
X73150000Y-31500000D03*
%TO.N,Net-(Q179-G)*%
X82800000Y-34500000D03*
%TD*%
D24*
%TO.N,Net-(J3-Pin_1)*%
X127700000Y-36200000D02*
X126387500Y-36200000D01*
X126387500Y-36200000D02*
X126250000Y-36062500D01*
%TO.N,Net-(Q149-G)*%
X68194000Y-29606000D02*
X72700000Y-29606000D01*
X67705000Y-30095000D02*
X68194000Y-29606000D01*
X67705000Y-32500000D02*
X67705000Y-30095000D01*
X67705000Y-79695000D02*
X67705000Y-32500000D01*
X65000000Y-82400000D02*
X67705000Y-79695000D01*
%TO.N,Net-(J1-Pin_1)*%
X69400000Y-102787500D02*
X69450000Y-102837500D01*
X69400000Y-101600000D02*
X69400000Y-102787500D01*
%TO.N,Net-(J1-Pin_2)*%
X69312500Y-92700000D02*
X69450000Y-92837500D01*
X69312500Y-91587500D02*
X69312500Y-92700000D01*
X69400000Y-91500000D02*
X69312500Y-91587500D01*
%TO.N,Net-(Q149-G)*%
X62937500Y-82400000D02*
X65000000Y-82400000D01*
X62500000Y-82837500D02*
X62937500Y-82400000D01*
%TO.N,Net-(Q15-D)*%
X79400000Y-29205000D02*
X79595000Y-29205000D01*
X67400000Y-29205000D02*
X79400000Y-29205000D01*
X67395000Y-29205000D02*
X67400000Y-29205000D01*
X67304000Y-31500000D02*
X67304000Y-29296000D01*
X67304000Y-70096000D02*
X67304000Y-31500000D01*
X65000000Y-72400000D02*
X67304000Y-70096000D01*
X67304000Y-29296000D02*
X67395000Y-29205000D01*
X62937500Y-72400000D02*
X65000000Y-72400000D01*
X62500000Y-72837500D02*
X62937500Y-72400000D01*
%TO.N,Net-(Q12-D)*%
X67097300Y-28804000D02*
X79600000Y-28804000D01*
X66903000Y-50800000D02*
X66903000Y-28998300D01*
X66903000Y-60497000D02*
X66903000Y-50800000D01*
X66903000Y-28998300D02*
X67050650Y-28850650D01*
X67050650Y-28850650D02*
X67097300Y-28804000D01*
X65000000Y-62400000D02*
X66903000Y-60497000D01*
%TO.N,Net-(J1-Pin_3)*%
X69450000Y-81450000D02*
X69450000Y-82837500D01*
X69400000Y-81400000D02*
X69450000Y-81450000D01*
%TO.N,Net-(J1-Pin_4)*%
X69450000Y-71750000D02*
X69450000Y-72837500D01*
X69400000Y-71700000D02*
X69450000Y-71750000D01*
%TO.N,Net-(J1-Pin_5)*%
X69450000Y-61650000D02*
X69450000Y-62837500D01*
X69400000Y-61600000D02*
X69450000Y-61650000D01*
%TO.N,Net-(J1-Pin_6)*%
X69450000Y-51650000D02*
X69450000Y-52837500D01*
X69400000Y-51600000D02*
X69450000Y-51650000D01*
%TO.N,Net-(Q12-D)*%
X62500000Y-62837500D02*
X62937500Y-62400000D01*
X62937500Y-62400000D02*
X65000000Y-62400000D01*
%TO.N,Net-(Q152-G)*%
X66917100Y-28417100D02*
X66931200Y-28403000D01*
X66502000Y-28832200D02*
X66917100Y-28417100D01*
X66502000Y-37700000D02*
X66502000Y-28832200D01*
X66931200Y-28403000D02*
X79600000Y-28403000D01*
X66502000Y-50898000D02*
X66502000Y-37700000D01*
X65000000Y-52400000D02*
X66502000Y-50898000D01*
%TO.N,Net-(Q153-G)*%
X66101000Y-28666100D02*
X66765100Y-28002000D01*
X66101000Y-41249000D02*
X66101000Y-28666100D01*
X66765100Y-28002000D02*
X79800000Y-28002000D01*
X64950000Y-42400000D02*
X66101000Y-41249000D01*
%TO.N,Net-(Q154-G)*%
X65700000Y-31700000D02*
X65700000Y-28500000D01*
X66599000Y-27601000D02*
X80100000Y-27601000D01*
X65000000Y-32400000D02*
X65700000Y-31700000D01*
X65700000Y-28500000D02*
X66599000Y-27601000D01*
X62937500Y-32400000D02*
X65000000Y-32400000D01*
X62500000Y-32837500D02*
X62937500Y-32400000D01*
%TO.N,Net-(Q153-G)*%
X62450000Y-42837500D02*
X62887500Y-42400000D01*
X62887500Y-42400000D02*
X64950000Y-42400000D01*
%TO.N,Net-(J1-Pin_8)*%
X69450000Y-31650000D02*
X69450000Y-32837500D01*
X69400000Y-31600000D02*
X69450000Y-31650000D01*
%TO.N,Net-(J1-Pin_7)*%
X69400000Y-41600000D02*
X69400000Y-42837500D01*
%TO.N,Net-(Q152-G)*%
X62937500Y-52400000D02*
X65000000Y-52400000D01*
X62500000Y-52837500D02*
X62937500Y-52400000D01*
%TO.N,Net-(J2-Pin_1)*%
X72487500Y-103500000D02*
X73150000Y-102837500D01*
X72200000Y-103500000D02*
X72487500Y-103500000D01*
X62700000Y-105387500D02*
X63350000Y-106037500D01*
X62700000Y-104700000D02*
X62700000Y-105387500D01*
%TO.N,Net-(J2-Pin_2)*%
X72462500Y-93500000D02*
X73125000Y-92837500D01*
X72300000Y-93500000D02*
X72462500Y-93500000D01*
X62600000Y-94600000D02*
X62600000Y-95287500D01*
X62600000Y-95287500D02*
X63350000Y-96037500D01*
%TO.N,Net-(J2-Pin_3)*%
X72387500Y-83600000D02*
X73150000Y-82837500D01*
X72200000Y-83600000D02*
X72387500Y-83600000D01*
X62400000Y-86987500D02*
X63350000Y-86037500D01*
X62400000Y-87000000D02*
X62400000Y-86987500D01*
%TO.N,Net-(J2-Pin_4)*%
X72387500Y-73600000D02*
X73150000Y-72837500D01*
X72300000Y-73600000D02*
X72387500Y-73600000D01*
X62687500Y-76700000D02*
X63350000Y-76037500D01*
X62400000Y-76700000D02*
X62687500Y-76700000D01*
%TO.N,Net-(J2-Pin_5)*%
X72387500Y-63600000D02*
X73150000Y-62837500D01*
X72200000Y-63600000D02*
X72387500Y-63600000D01*
X62400000Y-66987500D02*
X63350000Y-66037500D01*
X62400000Y-67200000D02*
X62400000Y-66987500D01*
%TO.N,Net-(J2-Pin_6)*%
X72387500Y-53600000D02*
X73150000Y-52837500D01*
X72200000Y-53600000D02*
X72387500Y-53600000D01*
X62400000Y-56987500D02*
X63350000Y-56037500D01*
X62400000Y-57100000D02*
X62400000Y-56987500D01*
%TO.N,Net-(J2-Pin_7)*%
X72437500Y-43500000D02*
X73100000Y-42837500D01*
X72200000Y-43500000D02*
X72437500Y-43500000D01*
X62300000Y-47037500D02*
X63300000Y-46037500D01*
X62300000Y-47100000D02*
X62300000Y-47037500D01*
%TO.N,Net-(J2-Pin_8)*%
X62400000Y-36987500D02*
X63350000Y-36037500D01*
X62400000Y-37400000D02*
X62400000Y-36987500D01*
%TO.N,Net-(J1-Pin_1)*%
X69387500Y-102900000D02*
X69450000Y-102837500D01*
X59200000Y-103600000D02*
X59200000Y-103700000D01*
X59650000Y-104150000D02*
X59650000Y-106037500D01*
X59200000Y-103700000D02*
X59650000Y-104150000D01*
%TO.N,Net-(J1-Pin_2)*%
X59200000Y-93500000D02*
X59650000Y-93950000D01*
X59650000Y-93950000D02*
X59650000Y-96037500D01*
%TO.N,Net-(J1-Pin_3)*%
X59650000Y-84050000D02*
X59650000Y-86037500D01*
X59300000Y-83700000D02*
X59650000Y-84050000D01*
%TO.N,Net-(J1-Pin_4)*%
X59650000Y-73750000D02*
X59650000Y-76037500D01*
X59300000Y-73400000D02*
X59650000Y-73750000D01*
%TO.N,Net-(J1-Pin_5)*%
X59000000Y-63400000D02*
X59000000Y-65387500D01*
X59000000Y-65387500D02*
X59650000Y-66037500D01*
%TO.N,Net-(J1-Pin_6)*%
X59650000Y-53750000D02*
X59400000Y-53500000D01*
X59650000Y-56037500D02*
X59650000Y-53750000D01*
%TO.N,Net-(J1-Pin_7)*%
X59100000Y-44800000D02*
X59362500Y-45062500D01*
X59362500Y-45062500D02*
X59362500Y-45800000D01*
X59362500Y-45800000D02*
X59600000Y-46037500D01*
%TO.N,Net-(J1-Pin_8)*%
X59400000Y-35787500D02*
X59650000Y-36037500D01*
X59400000Y-34700000D02*
X59400000Y-35787500D01*
%TO.N,Net-(Q177-G)*%
X75050000Y-32837500D02*
X75050000Y-30533032D01*
X73759032Y-29924000D02*
X72200000Y-31483032D01*
X74440968Y-29924000D02*
X73759032Y-29924000D01*
X72200000Y-31483032D02*
X72200000Y-32308032D01*
%TO.N,Net-(Q30-S)*%
X92940968Y-29924000D02*
X93550000Y-30533032D01*
%TO.N,Net-(Q28-D)*%
X81962500Y-36162500D02*
X83649000Y-37849000D01*
X81500000Y-36162500D02*
X81962500Y-36162500D01*
%TO.N,Net-(Q179-G)*%
X84250000Y-32837500D02*
X84250000Y-33050000D01*
X84250000Y-33050000D02*
X82800000Y-34500000D01*
%TO.N,Net-(Q28-D)*%
X85111500Y-39076000D02*
X86150000Y-38037500D01*
X83909032Y-39076000D02*
X85111500Y-39076000D01*
X87581000Y-34819000D02*
X88000000Y-34400000D01*
X86150000Y-38037500D02*
X87581000Y-36606500D01*
X83649000Y-37849000D02*
X83649000Y-38815968D01*
X83649000Y-38815968D02*
X83909032Y-39076000D01*
%TO.N,Net-(Q179-G)*%
X91650000Y-32837500D02*
X90862500Y-32837500D01*
%TO.N,Net-(Q28-D)*%
X87000000Y-32900000D02*
X86212500Y-32900000D01*
%TO.N,Net-(Q31-D)*%
X93054468Y-36162500D02*
X92600000Y-36162500D01*
%TO.N,Net-(Q179-G)*%
X90862500Y-32837500D02*
X90800000Y-32900000D01*
%TO.N,Net-(Q31-D)*%
X94151000Y-38217968D02*
X94151000Y-37259032D01*
X95009032Y-39076000D02*
X94151000Y-38217968D01*
X97250000Y-38037500D02*
X96211500Y-39076000D01*
%TO.N,Net-(Q28-D)*%
X86212500Y-32900000D02*
X86150000Y-32837500D01*
%TO.N,Net-(Q177-G)*%
X75050000Y-30533032D02*
X74440968Y-29924000D01*
%TO.N,Net-(Q31-D)*%
X94151000Y-37259032D02*
X93054468Y-36162500D01*
X96211500Y-39076000D02*
X95009032Y-39076000D01*
%TO.N,Net-(Q25-G)*%
X74276000Y-33876000D02*
X74100000Y-33700000D01*
X75811500Y-33876000D02*
X74276000Y-33876000D01*
X76850000Y-32837500D02*
X75811500Y-33876000D01*
%TO.N,Net-(Q27-G)*%
X83051000Y-33615968D02*
X83051000Y-32059032D01*
X82790968Y-33876000D02*
X83051000Y-33615968D01*
X82324000Y-33876000D02*
X82790968Y-33876000D01*
X81954468Y-30962500D02*
X81500000Y-30962500D01*
X81700000Y-34500000D02*
X82324000Y-33876000D01*
X81200000Y-34500000D02*
X81700000Y-34500000D01*
X83051000Y-32059032D02*
X81954468Y-30962500D01*
%TO.N,Net-(Q28-D)*%
X87581000Y-36606500D02*
X87581000Y-34819000D01*
%TO.N,Net-(Q32-G)*%
X95350000Y-37450000D02*
X95350000Y-38037500D01*
X92800000Y-34900000D02*
X95350000Y-37450000D01*
%TO.N,Net-(Q209-G)*%
X95000000Y-34862500D02*
X96300000Y-36162500D01*
%TO.N,Net-(Q30-S)*%
X89938500Y-29924000D02*
X92940968Y-29924000D01*
%TO.N,Net-(Q32-G)*%
X92800000Y-31162500D02*
X92600000Y-30962500D01*
X92800000Y-34500000D02*
X92800000Y-34900000D01*
%TO.N,Net-(Q29-D)*%
X91612500Y-38000000D02*
X91650000Y-38037500D01*
%TO.N,Net-(Q30-S)*%
X88900000Y-30962500D02*
X89938500Y-29924000D01*
%TO.N,Net-(Q209-G)*%
X95000000Y-34500000D02*
X95000000Y-34862500D01*
%TO.N,Net-(Q29-D)*%
X90800000Y-38000000D02*
X91612500Y-38000000D01*
%TO.N,Net-(Q32-G)*%
X92800000Y-34500000D02*
X92800000Y-31162500D01*
%TO.N,Net-(Q25-G)*%
X70262500Y-38037500D02*
X70300000Y-38000000D01*
X69450000Y-38037500D02*
X70262500Y-38037500D01*
%TO.N,Net-(Q29-D)*%
X85200000Y-36162500D02*
X85797002Y-36162500D01*
X85797002Y-36162500D02*
X86029751Y-35929751D01*
%TO.N,Net-(Q25-G)*%
X73300000Y-35500000D02*
X73300000Y-34500000D01*
X87137500Y-38037500D02*
X87100000Y-38000000D01*
%TO.N,Net-(Q29-D)*%
X83900000Y-34862500D02*
X83900000Y-34500000D01*
X85200000Y-36162500D02*
X83900000Y-34862500D01*
%TO.N,Net-(Q27-G)*%
X80589000Y-35111000D02*
X81200000Y-34500000D01*
X77370532Y-38037500D02*
X80297032Y-35111000D01*
%TO.N,Net-(Q30-S)*%
X88900000Y-34732900D02*
X88299000Y-35333900D01*
%TO.N,Net-(Q27-G)*%
X76850000Y-38037500D02*
X77370532Y-38037500D01*
X80297032Y-35111000D02*
X80589000Y-35111000D01*
%TO.N,Net-(Q30-S)*%
X89395532Y-38037500D02*
X89850000Y-38037500D01*
X88299000Y-36940968D02*
X89395532Y-38037500D01*
X88900000Y-30962500D02*
X88900000Y-34732900D01*
X88299000Y-35333900D02*
X88299000Y-36940968D01*
%TO.N,Net-(Q29-G)*%
X84770532Y-38037500D02*
X87000000Y-35808032D01*
%TO.N,Net-(Q26-D)*%
X74554468Y-36162500D02*
X74100000Y-36162500D01*
X77711500Y-39076000D02*
X76500000Y-39076000D01*
X78750000Y-38037500D02*
X77711500Y-39076000D01*
X76076000Y-37684032D02*
X74554468Y-36162500D01*
%TO.N,Net-(Q25-G)*%
X87950000Y-38037500D02*
X87137500Y-38037500D01*
%TO.N,Net-(Q29-G)*%
X85200000Y-30962500D02*
X86075000Y-30962500D01*
X86075000Y-30962500D02*
X87950000Y-32837500D01*
%TO.N,Net-(Q30-D)*%
X88900000Y-35300000D02*
X89700000Y-34500000D01*
X88900000Y-36162500D02*
X88900000Y-35300000D01*
%TO.N,Net-(Q29-G)*%
X87000000Y-33787500D02*
X87950000Y-32837500D01*
%TO.N,Net-(Q26-D)*%
X76500000Y-39076000D02*
X76076000Y-38652000D01*
%TO.N,Net-(Q29-G)*%
X87000000Y-35808032D02*
X87000000Y-34500000D01*
X87000000Y-34500000D02*
X87000000Y-33787500D01*
X84250000Y-38037500D02*
X84770532Y-38037500D01*
%TO.N,Net-(Q26-D)*%
X76076000Y-38652000D02*
X76076000Y-37684032D01*
%TO.N,Net-(Q179-G)*%
X76400000Y-34762500D02*
X76400000Y-34500000D01*
%TO.N,Net-(Q177-G)*%
X72200000Y-35600000D02*
X72200000Y-34500000D01*
%TO.N,Net-(Q25-D)*%
X70400000Y-36162500D02*
X71275000Y-36162500D01*
X69100000Y-34862500D02*
X69100000Y-34500000D01*
%TO.N,Net-(Q177-G)*%
X71512500Y-38200000D02*
X71350000Y-38037500D01*
%TO.N,Net-(J2-Pin_8)*%
X79637500Y-32837500D02*
X79600000Y-32800000D01*
%TO.N,Net-(Q145-G)*%
X81398500Y-33889000D02*
X82450000Y-32837500D01*
%TO.N,Net-(Q177-G)*%
X72200000Y-32308032D02*
X70854468Y-30962500D01*
%TO.N,Net-(Q145-G)*%
X78711000Y-33889000D02*
X81398500Y-33889000D01*
X78100000Y-34500000D02*
X78711000Y-33889000D01*
%TO.N,Net-(Q177-G)*%
X70854468Y-30962500D02*
X70400000Y-30962500D01*
X72200000Y-34500000D02*
X72200000Y-32308032D01*
%TO.N,Net-(Q25-D)*%
X70400000Y-36162500D02*
X69100000Y-34862500D01*
X71275000Y-36162500D02*
X73150000Y-38037500D01*
%TO.N,Net-(J2-Pin_8)*%
X73150000Y-32837500D02*
X73150000Y-31500000D01*
%TO.N,Net-(Q179-G)*%
X77018750Y-35381250D02*
X76400000Y-34762500D01*
%TO.N,Net-(Q177-G)*%
X72200000Y-38200000D02*
X71512500Y-38200000D01*
%TO.N,Net-(Q145-G)*%
X77800000Y-30962500D02*
X77800000Y-34200000D01*
%TO.N,Net-(Q179-G)*%
X77800000Y-36162500D02*
X77018750Y-35381250D01*
%TO.N,Net-(J2-Pin_8)*%
X80550000Y-32837500D02*
X79637500Y-32837500D01*
%TO.N,Net-(Q145-G)*%
X77800000Y-34200000D02*
X78100000Y-34500000D01*
%TO.N,Net-(J2-Pin_8)*%
X80400000Y-32687500D02*
X80550000Y-32837500D01*
%TO.N,Net-(Q25-G)*%
X73300000Y-34500000D02*
X74100000Y-33700000D01*
X74100000Y-33700000D02*
X74100000Y-30962500D01*
%TO.N,Net-(Q30-S)*%
X93550000Y-30533032D02*
X93550000Y-32837500D01*
%TO.N,Net-(J2-Pin_1)*%
X47900000Y-80275000D02*
X47900000Y-84987500D01*
X47900000Y-84987500D02*
X50762500Y-87850000D01*
%TO.N,Net-(J2-Pin_2)*%
X49724000Y-83111500D02*
X50762500Y-84150000D01*
X49724000Y-80599000D02*
X49724000Y-83111500D01*
X48150000Y-79025000D02*
X49724000Y-80599000D01*
X47900000Y-79025000D02*
X48150000Y-79025000D01*
%TO.N,Net-(J2-Pin_3)*%
X48087500Y-77775000D02*
X50762500Y-80450000D01*
X47900000Y-77775000D02*
X48087500Y-77775000D01*
%TO.N,Net-(J2-Pin_4)*%
X50537500Y-76525000D02*
X50762500Y-76750000D01*
X47900000Y-76525000D02*
X50537500Y-76525000D01*
%TO.N,Net-(J2-Pin_5)*%
X48537500Y-75275000D02*
X50762500Y-73050000D01*
X47900000Y-75275000D02*
X48537500Y-75275000D01*
%TO.N,Net-(J2-Pin_6)*%
X49724000Y-72451000D02*
X49724000Y-70388500D01*
X49724000Y-70388500D02*
X50762500Y-69350000D01*
X48150000Y-74025000D02*
X49724000Y-72451000D01*
X47900000Y-74025000D02*
X48150000Y-74025000D01*
%TO.N,Net-(J2-Pin_7)*%
X48900000Y-67512500D02*
X50762500Y-65650000D01*
X48150000Y-72775000D02*
X48900000Y-72025000D01*
X48900000Y-72025000D02*
X48900000Y-67512500D01*
X47900000Y-72775000D02*
X48150000Y-72775000D01*
%TO.N,Net-(J2-Pin_8)*%
X47900000Y-64812500D02*
X50762500Y-61950000D01*
X47900000Y-71525000D02*
X47900000Y-64812500D01*
%TO.N,Net-(D24-Pad2)*%
X56220000Y-58430000D02*
X56290000Y-58500000D01*
X56220000Y-56500000D02*
X56220000Y-58430000D01*
%TO.N,Net-(D23-Pad2)*%
X56220000Y-54730000D02*
X56290000Y-54800000D01*
X56220000Y-52900000D02*
X56220000Y-54730000D01*
%TO.N,Net-(D22-Pad2)*%
X56220000Y-51030000D02*
X56290000Y-51100000D01*
X56220000Y-49100000D02*
X56220000Y-51030000D01*
%TO.N,Net-(Q309-D)*%
X53537500Y-58500000D02*
X52637500Y-57600000D01*
X54710000Y-58500000D02*
X53537500Y-58500000D01*
%TO.N,Net-(Q308-D)*%
X53537500Y-54800000D02*
X52637500Y-53900000D01*
X54710000Y-54800000D02*
X53537500Y-54800000D01*
%TO.N,Net-(Q307-D)*%
X53537500Y-51100000D02*
X52637500Y-50200000D01*
X54710000Y-51100000D02*
X53537500Y-51100000D01*
D25*
%TO.N,Net-(Q302-D)*%
X53537500Y-32600000D02*
X52637500Y-31700000D01*
X54710000Y-32600000D02*
X53537500Y-32600000D01*
D24*
%TO.N,Net-(D17-Pad2)*%
X56220000Y-32530000D02*
X56290000Y-32600000D01*
D25*
X56220000Y-30900000D02*
X56220000Y-32530000D01*
D24*
%TO.N,Net-(J1-Pin_6)*%
X49724000Y-39188500D02*
X50762500Y-38150000D01*
X48150000Y-42625000D02*
X49724000Y-41051000D01*
X47900000Y-42625000D02*
X48150000Y-42625000D01*
X49724000Y-41051000D02*
X49724000Y-39188500D01*
%TO.N,Net-(J1-Pin_7)*%
X49000000Y-36212500D02*
X50762500Y-34450000D01*
X49000000Y-40337074D02*
X49000000Y-36212500D01*
X47962074Y-41375000D02*
X49000000Y-40337074D01*
X47900000Y-41375000D02*
X47962074Y-41375000D01*
%TO.N,Net-(J1-Pin_8)*%
X47900000Y-33612500D02*
X50762500Y-30750000D01*
X47900000Y-40125000D02*
X47900000Y-33612500D01*
%TO.N,Net-(J1-Pin_5)*%
X48737500Y-43875000D02*
X50762500Y-41850000D01*
X47900000Y-43875000D02*
X48737500Y-43875000D01*
%TO.N,Net-(J1-Pin_4)*%
X50337500Y-45125000D02*
X50762500Y-45550000D01*
X47900000Y-45125000D02*
X50337500Y-45125000D01*
%TO.N,Net-(J1-Pin_3)*%
X48187499Y-46375000D02*
X47900000Y-46375000D01*
X50762500Y-48950001D02*
X48187499Y-46375000D01*
X50762500Y-49250000D02*
X50762500Y-48950001D01*
%TO.N,Net-(J1-Pin_2)*%
X49724000Y-49199000D02*
X49724000Y-51911500D01*
X48150000Y-47625000D02*
X49724000Y-49199000D01*
X49724000Y-51911500D02*
X50762500Y-52950000D01*
X47900000Y-47625000D02*
X48150000Y-47625000D01*
%TO.N,Net-(J1-Pin_1)*%
X47900000Y-53787500D02*
X50762500Y-56650000D01*
X47900000Y-48875000D02*
X47900000Y-53787500D01*
%TD*%
M02*
