%TF.GenerationSoftware,KiCad,Pcbnew,9.0.7*%
%TF.CreationDate,2026-03-27T13:44:15+01:00*%
%TF.ProjectId,Controller_Unit_V1.0,436f6e74-726f-46c6-9c65-725f556e6974,rev?*%
%TF.SameCoordinates,Original*%
%TF.FileFunction,Copper,L6,Bot*%
%TF.FilePolarity,Positive*%
%FSLAX46Y46*%
G04 Gerber Fmt 4.6, Leading zero omitted, Abs format (unit mm)*
G04 Created by KiCad (PCBNEW 9.0.7) date 2026-03-27 13:44:15*
%MOMM*%
%LPD*%
G01*
G04 APERTURE LIST*
%TA.AperFunction,ComponentPad*%
%ADD10C,1.600000*%
%TD*%
%TA.AperFunction,ComponentPad*%
%ADD11R,1.700000X1.700000*%
%TD*%
%TA.AperFunction,ComponentPad*%
%ADD12C,1.700000*%
%TD*%
%TA.AperFunction,ViaPad*%
%ADD13C,0.600000*%
%TD*%
%TA.AperFunction,ViaPad*%
%ADD14C,1.000000*%
%TD*%
%TA.AperFunction,Conductor*%
%ADD15C,0.200000*%
%TD*%
%TA.AperFunction,Conductor*%
%ADD16C,0.400000*%
%TD*%
G04 APERTURE END LIST*
D10*
%TO.P,R22,1*%
%TO.N,VCC*%
X145100000Y-276000000D03*
%TO.P,R22,2*%
%TO.N,Net-(Q606-D)*%
X137480000Y-276000000D03*
%TD*%
D11*
%TO.P,J13,1,Pin_1*%
%TO.N,GND*%
X313300000Y-388180000D03*
D12*
%TO.P,J13,2,Pin_2*%
%TO.N,VCC*%
X315840000Y-388180000D03*
%TO.P,J13,3,Pin_3*%
%TO.N,Carry in*%
X313300000Y-385640000D03*
%TO.P,J13,4,Pin_4*%
%TO.N,OR*%
X315840000Y-385640000D03*
%TO.P,J13,5,Pin_5*%
%TO.N,ALU FLAG C*%
X313300000Y-383100000D03*
%TO.P,J13,6,Pin_6*%
%TO.N,AND*%
X315840000Y-383100000D03*
%TO.P,J13,7,Pin_7*%
%TO.N,ALU FLAG O*%
X313300000Y-380560000D03*
%TO.P,J13,8,Pin_8*%
%TO.N,RS*%
X315840000Y-380560000D03*
%TO.P,J13,9,Pin_9*%
%TO.N,ALU FLAG U*%
X313300000Y-378020000D03*
%TO.P,J13,10,Pin_10*%
%TO.N,NOT*%
X315840000Y-378020000D03*
%TO.P,J13,11,Pin_11*%
%TO.N,ALU FLAG Z*%
X313300000Y-375480000D03*
%TO.P,J13,12,Pin_12*%
%TO.N,XOR*%
X315840000Y-375480000D03*
%TO.P,J13,13,Pin_13*%
%TO.N,ALU FLAG N*%
X313300000Y-372940000D03*
%TO.P,J13,14,Pin_14*%
%TO.N,ADD*%
X315840000Y-372940000D03*
%TO.P,J13,15,Pin_15*%
%TO.N,GND*%
X313300000Y-370400000D03*
%TO.P,J13,16,Pin_16*%
%TO.N,VCC*%
X315840000Y-370400000D03*
%TD*%
D11*
%TO.P,J14,1,Pin_1*%
%TO.N,GND*%
X313340000Y-258880000D03*
D12*
%TO.P,J14,2,Pin_2*%
%TO.N,D ->ALU B*%
X315880000Y-258880000D03*
%TO.P,J14,3,Pin_3*%
%TO.N,rst*%
X313340000Y-256340000D03*
%TO.P,J14,4,Pin_4*%
%TO.N,C ->ALU B*%
X315880000Y-256340000D03*
%TO.P,J14,5,Pin_5*%
%TO.N,Rising Edge*%
X313340000Y-253800000D03*
%TO.P,J14,6,Pin_6*%
%TO.N,B ->ALU B*%
X315880000Y-253800000D03*
%TO.P,J14,7,Pin_7*%
%TO.N,ALU B = FF*%
X313340000Y-251260000D03*
%TO.P,J14,8,Pin_8*%
%TO.N,A ->ALU B*%
X315880000Y-251260000D03*
%TO.P,J14,9,Pin_9*%
%TO.N,READ D*%
X313340000Y-248720000D03*
%TO.P,J14,10,Pin_10*%
%TO.N,D ->ALU A*%
X315880000Y-248720000D03*
%TO.P,J14,11,Pin_11*%
%TO.N,READ C*%
X313340000Y-246180000D03*
%TO.P,J14,12,Pin_12*%
%TO.N,C ->ALU A*%
X315880000Y-246180000D03*
%TO.P,J14,13,Pin_13*%
%TO.N,READ B*%
X313340000Y-243640000D03*
%TO.P,J14,14,Pin_14*%
%TO.N,B ->ALU A*%
X315880000Y-243640000D03*
%TO.P,J14,15,Pin_15*%
%TO.N,READ A*%
X313340000Y-241100000D03*
%TO.P,J14,16,Pin_16*%
%TO.N,A ->ALU A*%
X315880000Y-241100000D03*
%TD*%
D11*
%TO.P,J7,1,Pin_1*%
%TO.N,Faling Edge*%
X130900000Y-278400000D03*
%TD*%
%TO.P,J6,1,Pin_1*%
%TO.N,VCC*%
X136080000Y-286900000D03*
D12*
%TO.P,J6,2,Pin_2*%
%TO.N,GND*%
X138620000Y-286900000D03*
%TO.P,J6,3,Pin_3*%
%TO.N,rst*%
X141160000Y-286900000D03*
%TO.P,J6,4,Pin_4*%
%TO.N,VCC*%
X143700000Y-286900000D03*
%TO.P,J6,5,Pin_5*%
%TO.N,Rising Edge*%
X146240000Y-286900000D03*
%TO.P,J6,6,Pin_6*%
%TO.N,TIME STEP IN 0*%
X148780000Y-286900000D03*
%TO.P,J6,7,Pin_7*%
%TO.N,TIME STEP IN 1*%
X151320000Y-286900000D03*
%TO.P,J6,8,Pin_8*%
%TO.N,TIME STEP IN 2*%
X153860000Y-286900000D03*
%TO.P,J6,9,Pin_9*%
%TO.N,FLAG STORE N*%
X156400000Y-286900000D03*
%TO.P,J6,10,Pin_10*%
%TO.N,FLAG STORE Z*%
X158940000Y-286900000D03*
%TO.P,J6,11,Pin_11*%
%TO.N,FLAG STORE U*%
X161480000Y-286900000D03*
%TO.P,J6,12,Pin_12*%
%TO.N,FLAG STORE O*%
X164020000Y-286900000D03*
%TO.P,J6,13,Pin_13*%
%TO.N,FLAG STORE C*%
X166560000Y-286900000D03*
%TO.P,J6,14,Pin_14*%
%TO.N,TIME STEP 0*%
X169100000Y-286900000D03*
%TO.P,J6,15,Pin_15*%
%TO.N,TIME STEP 1*%
X171640000Y-286900000D03*
%TO.P,J6,16,Pin_16*%
%TO.N,TIME STEP 2*%
X174180000Y-286900000D03*
%TO.P,J6,17,Pin_17*%
%TO.N,FLAG N*%
X176720000Y-286900000D03*
%TO.P,J6,18,Pin_18*%
%TO.N,FLAG Z*%
X179260000Y-286900000D03*
%TO.P,J6,19,Pin_19*%
%TO.N,FLAG U*%
X181800000Y-286900000D03*
%TO.P,J6,20,Pin_20*%
%TO.N,FLAG O*%
X184340000Y-286900000D03*
%TO.P,J6,21,Pin_21*%
%TO.N,FLAG C*%
X186880000Y-286900000D03*
%TD*%
D11*
%TO.P,J5,1,Pin_1*%
%TO.N,VCC*%
X213900000Y-215400000D03*
D12*
%TO.P,J5,2,Pin_2*%
%TO.N,GND*%
X216440000Y-215400000D03*
%TO.P,J5,3,Pin_3*%
%TO.N,rst*%
X218980000Y-215400000D03*
%TO.P,J5,4,Pin_4*%
%TO.N,TIME STEP 0*%
X221520000Y-215400000D03*
%TO.P,J5,5,Pin_5*%
%TO.N,Faling Edge*%
X224060000Y-215400000D03*
%TO.P,J5,6,Pin_6*%
%TO.N,Buss0*%
X226600000Y-215400000D03*
%TO.P,J5,7,Pin_7*%
%TO.N,Buss1*%
X229140000Y-215400000D03*
%TO.P,J5,8,Pin_8*%
%TO.N,Buss2*%
X231680000Y-215400000D03*
%TO.P,J5,9,Pin_9*%
%TO.N,Buss3*%
X234220000Y-215400000D03*
%TO.P,J5,10,Pin_10*%
%TO.N,Buss4*%
X236760000Y-215400000D03*
%TO.P,J5,11,Pin_11*%
%TO.N,Buss5*%
X239300000Y-215400000D03*
%TO.P,J5,12,Pin_12*%
%TO.N,Buss6*%
X241840000Y-215400000D03*
%TO.P,J5,13,Pin_13*%
%TO.N,Buss7*%
X244380000Y-215400000D03*
%TO.P,J5,14,Pin_14*%
%TO.N,TEMP ADR 8*%
X246920000Y-215400000D03*
%TO.P,J5,15,Pin_15*%
%TO.N,TEMP ADR 9*%
X249460000Y-215400000D03*
%TO.P,J5,16,Pin_16*%
%TO.N,TEMP ADR 10*%
X252000000Y-215400000D03*
%TO.P,J5,17,Pin_17*%
%TO.N,TEMP ADR 11*%
X254540000Y-215400000D03*
%TO.P,J5,18,Pin_18*%
%TO.N,TEMP ADR 12*%
X257080000Y-215400000D03*
%TO.P,J5,19,Pin_19*%
%TO.N,TEMP ADR 13*%
X259620000Y-215400000D03*
%TO.P,J5,20,Pin_20*%
%TO.N,TEMP ADR 14*%
X262160000Y-215400000D03*
%TO.P,J5,21,Pin_21*%
%TO.N,TEMP ADR 15*%
X264700000Y-215400000D03*
%TD*%
D11*
%TO.P,J11,1,Pin_1*%
%TO.N,ADR 7*%
X109340000Y-214800000D03*
D12*
%TO.P,J11,2,Pin_2*%
%TO.N,ADR 15*%
X106800000Y-214800000D03*
%TO.P,J11,3,Pin_3*%
%TO.N,ADR 6*%
X109340000Y-217340000D03*
%TO.P,J11,4,Pin_4*%
%TO.N,ADR 14*%
X106800000Y-217340000D03*
%TO.P,J11,5,Pin_5*%
%TO.N,ADR 5*%
X109340000Y-219880000D03*
%TO.P,J11,6,Pin_6*%
%TO.N,ADR 13*%
X106800000Y-219880000D03*
%TO.P,J11,7,Pin_7*%
%TO.N,ADR 4*%
X109340000Y-222420000D03*
%TO.P,J11,8,Pin_8*%
%TO.N,ADR 12*%
X106800000Y-222420000D03*
%TO.P,J11,9,Pin_9*%
%TO.N,ADR 3*%
X109340000Y-224960000D03*
%TO.P,J11,10,Pin_10*%
%TO.N,ADR 11*%
X106800000Y-224960000D03*
%TO.P,J11,11,Pin_11*%
%TO.N,ADR 2*%
X109340000Y-227500000D03*
%TO.P,J11,12,Pin_12*%
%TO.N,ADR 10*%
X106800000Y-227500000D03*
%TO.P,J11,13,Pin_13*%
%TO.N,ADR 1*%
X109340000Y-230040000D03*
%TO.P,J11,14,Pin_14*%
%TO.N,ADR 9*%
X106800000Y-230040000D03*
%TO.P,J11,15,Pin_15*%
%TO.N,ADR 0*%
X109340000Y-232580000D03*
%TO.P,J11,16,Pin_16*%
%TO.N,ADR 8*%
X106800000Y-232580000D03*
%TD*%
D10*
%TO.P,R20,1*%
%TO.N,VCC*%
X116790000Y-267000000D03*
%TO.P,R20,2*%
%TO.N,Net-(Q605-D)*%
X124410000Y-267000000D03*
%TD*%
%TO.P,R76,1*%
%TO.N,VCC*%
X116790000Y-276000000D03*
%TO.P,R76,2*%
%TO.N,Net-(Q607-D)*%
X124410000Y-276000000D03*
%TD*%
D11*
%TO.P,J4,1,Pin_1*%
%TO.N,VCC*%
X136100000Y-215400000D03*
D12*
%TO.P,J4,2,Pin_2*%
%TO.N,GND*%
X138640000Y-215400000D03*
%TO.P,J4,3,Pin_3*%
%TO.N,rst*%
X141180000Y-215400000D03*
%TO.P,J4,4,Pin_4*%
%TO.N,TIME STEP 1*%
X143720000Y-215400000D03*
%TO.P,J4,5,Pin_5*%
%TO.N,Faling Edge*%
X146260000Y-215400000D03*
%TO.P,J4,6,Pin_6*%
%TO.N,Buss0*%
X148800000Y-215400000D03*
%TO.P,J4,7,Pin_7*%
%TO.N,Buss1*%
X151340000Y-215400000D03*
%TO.P,J4,8,Pin_8*%
%TO.N,Buss2*%
X153880000Y-215400000D03*
%TO.P,J4,9,Pin_9*%
%TO.N,Buss3*%
X156420000Y-215400000D03*
%TO.P,J4,10,Pin_10*%
%TO.N,Buss4*%
X158960000Y-215400000D03*
%TO.P,J4,11,Pin_11*%
%TO.N,Buss5*%
X161500000Y-215400000D03*
%TO.P,J4,12,Pin_12*%
%TO.N,Buss6*%
X164040000Y-215400000D03*
%TO.P,J4,13,Pin_13*%
%TO.N,Buss7*%
X166580000Y-215400000D03*
%TO.P,J4,14,Pin_14*%
%TO.N,TEMP ADR 0*%
X169120000Y-215400000D03*
%TO.P,J4,15,Pin_15*%
%TO.N,TEMP ADR 1*%
X171660000Y-215400000D03*
%TO.P,J4,16,Pin_16*%
%TO.N,TEMP ADR 2*%
X174200000Y-215400000D03*
%TO.P,J4,17,Pin_17*%
%TO.N,TEMP ADR 3*%
X176740000Y-215400000D03*
%TO.P,J4,18,Pin_18*%
%TO.N,TEMP ADR 4*%
X179280000Y-215400000D03*
%TO.P,J4,19,Pin_19*%
%TO.N,TEMP ADR 5*%
X181820000Y-215400000D03*
%TO.P,J4,20,Pin_20*%
%TO.N,TEMP ADR 6*%
X184360000Y-215400000D03*
%TO.P,J4,21,Pin_21*%
%TO.N,TEMP ADR 7*%
X186900000Y-215400000D03*
%TD*%
D11*
%TO.P,J10,1,Pin_1*%
%TO.N,Buss0*%
X109340000Y-248900000D03*
D12*
%TO.P,J10,2,Pin_2*%
%TO.N,VCC*%
X106800000Y-248900000D03*
%TO.P,J10,3,Pin_3*%
%TO.N,Buss1*%
X109340000Y-251440000D03*
%TO.P,J10,4,Pin_4*%
%TO.N,GND*%
X106800000Y-251440000D03*
%TO.P,J10,5,Pin_5*%
%TO.N,Buss2*%
X109340000Y-253980000D03*
%TO.P,J10,6,Pin_6*%
%TO.N,CLOCK*%
X106800000Y-253980000D03*
%TO.P,J10,7,Pin_7*%
%TO.N,Buss3*%
X109340000Y-256520000D03*
%TO.P,J10,8,Pin_8*%
%TO.N,rst*%
X106800000Y-256520000D03*
%TO.P,J10,9,Pin_9*%
%TO.N,Buss4*%
X109340000Y-259060000D03*
%TO.P,J10,10,Pin_10*%
%TO.N,GND*%
X106800000Y-259060000D03*
%TO.P,J10,11,Pin_11*%
%TO.N,Buss5*%
X109340000Y-261600000D03*
%TO.P,J10,12,Pin_12*%
%TO.N,R{slash}W out*%
X106800000Y-261600000D03*
%TO.P,J10,13,Pin_13*%
%TO.N,Buss6*%
X109340000Y-264140000D03*
%TO.P,J10,14,Pin_14*%
%TO.N,GND*%
X106800000Y-264140000D03*
%TO.P,J10,15,Pin_15*%
%TO.N,Buss7*%
X109340000Y-266680000D03*
%TO.P,J10,16,Pin_16*%
%TO.N,VCC*%
X106800000Y-266680000D03*
%TD*%
D11*
%TO.P,J1,1,Pin_1*%
%TO.N,VCC*%
X110000000Y-391600000D03*
D12*
%TO.P,J1,2,Pin_2*%
%TO.N,GND*%
X110000000Y-389060000D03*
%TO.P,J1,3,Pin_3*%
%TO.N,rst*%
X110000000Y-386520000D03*
%TO.P,J1,4,Pin_4*%
%TO.N,Read New Instruction*%
X110000000Y-383980000D03*
%TO.P,J1,5,Pin_5*%
%TO.N,Faling Edge*%
X110000000Y-381440000D03*
%TO.P,J1,6,Pin_6*%
%TO.N,Buss0*%
X110000000Y-378900000D03*
%TO.P,J1,7,Pin_7*%
%TO.N,Buss1*%
X110000000Y-376360000D03*
%TO.P,J1,8,Pin_8*%
%TO.N,Buss2*%
X110000000Y-373820000D03*
%TO.P,J1,9,Pin_9*%
%TO.N,Buss3*%
X110000000Y-371280000D03*
%TO.P,J1,10,Pin_10*%
%TO.N,Buss4*%
X110000000Y-368740000D03*
%TO.P,J1,11,Pin_11*%
%TO.N,Buss5*%
X110000000Y-366200000D03*
%TO.P,J1,12,Pin_12*%
%TO.N,Buss6*%
X110000000Y-363660000D03*
%TO.P,J1,13,Pin_13*%
%TO.N,Buss7*%
X110000000Y-361120000D03*
%TO.P,J1,14,Pin_14*%
%TO.N,Net-(J1-Pin_14)*%
X110000000Y-358580000D03*
%TO.P,J1,15,Pin_15*%
%TO.N,Net-(J1-Pin_15)*%
X110000000Y-356040000D03*
%TO.P,J1,16,Pin_16*%
%TO.N,Net-(J1-Pin_16)*%
X110000000Y-353500000D03*
%TO.P,J1,17,Pin_17*%
%TO.N,Net-(J1-Pin_17)*%
X110000000Y-350960000D03*
%TO.P,J1,18,Pin_18*%
%TO.N,Net-(J1-Pin_18)*%
X110000000Y-348420000D03*
%TO.P,J1,19,Pin_19*%
%TO.N,Net-(J1-Pin_19)*%
X110000000Y-345880000D03*
%TO.P,J1,20,Pin_20*%
%TO.N,Net-(J1-Pin_20)*%
X110000000Y-343340000D03*
%TO.P,J1,21,Pin_21*%
%TO.N,Net-(J1-Pin_21)*%
X110000000Y-340800000D03*
%TD*%
D10*
%TO.P,R21,1*%
%TO.N,VCC*%
X145100000Y-267000000D03*
%TO.P,R21,2*%
%TO.N,Net-(Q604-D)*%
X137480000Y-267000000D03*
%TD*%
%TO.P,R389,1*%
%TO.N,Net-(Q607-G)*%
X124410000Y-273000000D03*
%TO.P,R389,2*%
%TO.N,GND*%
X116790000Y-273000000D03*
%TD*%
%TO.P,R77,1*%
%TO.N,VCC*%
X116780000Y-279000000D03*
%TO.P,R77,2*%
%TO.N,Rising Edge*%
X124400000Y-279000000D03*
%TD*%
D11*
%TO.P,J3,1,Pin_1*%
%TO.N,VCC*%
X213900000Y-253000000D03*
D12*
%TO.P,J3,2,Pin_2*%
%TO.N,GND*%
X216440000Y-253000000D03*
%TO.P,J3,3,Pin_3*%
%TO.N,rst*%
X218980000Y-253000000D03*
%TO.P,J3,4,Pin_4*%
%TO.N,VCC*%
X221520000Y-253000000D03*
%TO.P,J3,5,Pin_5*%
%TO.N,Rising Edge*%
X224060000Y-253000000D03*
%TO.P,J3,6,Pin_6*%
%TO.N,NEXT ADR 8*%
X226600000Y-253000000D03*
%TO.P,J3,7,Pin_7*%
%TO.N,NEXT ADR 9*%
X229140000Y-253000000D03*
%TO.P,J3,8,Pin_8*%
%TO.N,NEXT ADR 10*%
X231680000Y-253000000D03*
%TO.P,J3,9,Pin_9*%
%TO.N,NEXT ADR 11*%
X234220000Y-253000000D03*
%TO.P,J3,10,Pin_10*%
%TO.N,NEXT ADR 12*%
X236760000Y-253000000D03*
%TO.P,J3,11,Pin_11*%
%TO.N,NEXT ADR 13*%
X239300000Y-253000000D03*
%TO.P,J3,12,Pin_12*%
%TO.N,NEXT ADR 14*%
X241840000Y-253000000D03*
%TO.P,J3,13,Pin_13*%
%TO.N,NEXT ADR 15*%
X244380000Y-253000000D03*
%TO.P,J3,14,Pin_14*%
%TO.N,STORED ADR 8*%
X246920000Y-253000000D03*
%TO.P,J3,15,Pin_15*%
%TO.N,STORED ADR 9*%
X249460000Y-253000000D03*
%TO.P,J3,16,Pin_16*%
%TO.N,STORED ADR 10*%
X252000000Y-253000000D03*
%TO.P,J3,17,Pin_17*%
%TO.N,STORED ADR 11*%
X254540000Y-253000000D03*
%TO.P,J3,18,Pin_18*%
%TO.N,STORED ADR 12*%
X257080000Y-253000000D03*
%TO.P,J3,19,Pin_19*%
%TO.N,STORED ADR 13*%
X259620000Y-253000000D03*
%TO.P,J3,20,Pin_20*%
%TO.N,STORED ADR 14*%
X262160000Y-253000000D03*
%TO.P,J3,21,Pin_21*%
%TO.N,STORED ADR 15*%
X264700000Y-253000000D03*
%TD*%
D10*
%TO.P,R388,1*%
%TO.N,Net-(Q606-G)*%
X137480000Y-270000000D03*
%TO.P,R388,2*%
%TO.N,GND*%
X145100000Y-270000000D03*
%TD*%
%TO.P,R410,1*%
%TO.N,Net-(Q606-G)*%
X137480000Y-273000000D03*
%TO.P,R410,2*%
%TO.N,GND*%
X145100000Y-273000000D03*
%TD*%
D11*
%TO.P,J12,1,Pin_1*%
%TO.N,Main bus 7*%
X313300000Y-226880000D03*
D12*
%TO.P,J12,2,Pin_2*%
%TO.N,GND*%
X315840000Y-226880000D03*
%TO.P,J12,3,Pin_3*%
%TO.N,Main bus 6*%
X313300000Y-224340000D03*
%TO.P,J12,4,Pin_4*%
%TO.N,VCC*%
X315840000Y-224340000D03*
%TO.P,J12,5,Pin_5*%
%TO.N,Main bus 5*%
X313300000Y-221800000D03*
%TO.P,J12,6,Pin_6*%
%TO.N,GND*%
X315840000Y-221800000D03*
%TO.P,J12,7,Pin_7*%
%TO.N,Main bus 4*%
X313300000Y-219260000D03*
%TO.P,J12,8,Pin_8*%
%TO.N,VCC*%
X315840000Y-219260000D03*
%TO.P,J12,9,Pin_9*%
%TO.N,Main bus 3*%
X313300000Y-216720000D03*
%TO.P,J12,10,Pin_10*%
%TO.N,GND*%
X315840000Y-216720000D03*
%TO.P,J12,11,Pin_11*%
%TO.N,Main bus 2*%
X313300000Y-214180000D03*
%TO.P,J12,12,Pin_12*%
%TO.N,VCC*%
X315840000Y-214180000D03*
%TO.P,J12,13,Pin_13*%
%TO.N,Main bus 1*%
X313300000Y-211640000D03*
%TO.P,J12,14,Pin_14*%
%TO.N,GND*%
X315840000Y-211640000D03*
%TO.P,J12,15,Pin_15*%
%TO.N,Main bus 0*%
X313300000Y-209100000D03*
%TO.P,J12,16,Pin_16*%
%TO.N,VCC*%
X315840000Y-209100000D03*
%TD*%
D10*
%TO.P,C2,1*%
%TO.N,Net-(Q605-D)*%
X127000000Y-270400000D03*
%TO.P,C2,2*%
%TO.N,Net-(Q607-G)*%
X127000000Y-265400000D03*
%TD*%
D11*
%TO.P,J2,1,Pin_1*%
%TO.N,VCC*%
X136100000Y-253000000D03*
D12*
%TO.P,J2,2,Pin_2*%
%TO.N,GND*%
X138640000Y-253000000D03*
%TO.P,J2,3,Pin_3*%
%TO.N,rst*%
X141180000Y-253000000D03*
%TO.P,J2,4,Pin_4*%
%TO.N,VCC*%
X143720000Y-253000000D03*
%TO.P,J2,5,Pin_5*%
%TO.N,Rising Edge*%
X146260000Y-253000000D03*
%TO.P,J2,6,Pin_6*%
%TO.N,NEXT ADR 0*%
X148800000Y-253000000D03*
%TO.P,J2,7,Pin_7*%
%TO.N,NEXT ADR 1*%
X151340000Y-253000000D03*
%TO.P,J2,8,Pin_8*%
%TO.N,NEXT ADR 2*%
X153880000Y-253000000D03*
%TO.P,J2,9,Pin_9*%
%TO.N,NEXT ADR 3*%
X156420000Y-253000000D03*
%TO.P,J2,10,Pin_10*%
%TO.N,NEXT ADR 4*%
X158960000Y-253000000D03*
%TO.P,J2,11,Pin_11*%
%TO.N,NEXT ADR 5*%
X161500000Y-253000000D03*
%TO.P,J2,12,Pin_12*%
%TO.N,NEXT ADR 6*%
X164040000Y-253000000D03*
%TO.P,J2,13,Pin_13*%
%TO.N,NEXT ADR 7*%
X166580000Y-253000000D03*
%TO.P,J2,14,Pin_14*%
%TO.N,STORED ADR 0*%
X169120000Y-253000000D03*
%TO.P,J2,15,Pin_15*%
%TO.N,STORED ADR 1*%
X171660000Y-253000000D03*
%TO.P,J2,16,Pin_16*%
%TO.N,STORED ADR 2*%
X174200000Y-253000000D03*
%TO.P,J2,17,Pin_17*%
%TO.N,STORED ADR 3*%
X176740000Y-253000000D03*
%TO.P,J2,18,Pin_18*%
%TO.N,STORED ADR 4*%
X179280000Y-253000000D03*
%TO.P,J2,19,Pin_19*%
%TO.N,STORED ADR 5*%
X181820000Y-253000000D03*
%TO.P,J2,20,Pin_20*%
%TO.N,STORED ADR 6*%
X184360000Y-253000000D03*
%TO.P,J2,21,Pin_21*%
%TO.N,STORED ADR 7*%
X186900000Y-253000000D03*
%TD*%
D10*
%TO.P,R74,1*%
%TO.N,VCC*%
X145100000Y-279000000D03*
%TO.P,R74,2*%
%TO.N,Faling Edge*%
X137480000Y-279000000D03*
%TD*%
%TO.P,R411,1*%
%TO.N,Net-(Q607-G)*%
X124410000Y-270000000D03*
%TO.P,R411,2*%
%TO.N,GND*%
X116790000Y-270000000D03*
%TD*%
D11*
%TO.P,J8,1,Pin_1*%
%TO.N,Rising Edge*%
X130900000Y-273500000D03*
%TD*%
D10*
%TO.P,C1,1*%
%TO.N,Net-(Q604-D)*%
X134900000Y-265400000D03*
%TO.P,C1,2*%
%TO.N,Net-(Q606-G)*%
X134900000Y-270400000D03*
%TD*%
D11*
%TO.P,J9,1,Pin_1*%
%TO.N,Read New Instruction*%
X134062500Y-340075000D03*
%TD*%
D13*
%TO.N,!JMP*%
X120400000Y-321900000D03*
X144800000Y-355200000D03*
X207300000Y-284600000D03*
%TO.N,!BOP*%
X154700000Y-354500000D03*
X195700000Y-299100000D03*
X126200000Y-318300000D03*
%TO.N,!BON*%
X206400000Y-299200000D03*
X130100000Y-318400000D03*
X159600000Y-354500000D03*
%TO.N,!BOZ*%
X220200000Y-299600000D03*
X164700000Y-354400000D03*
X134100000Y-318300000D03*
%TO.N,!BNZ*%
X138100000Y-318400000D03*
X169500000Y-354400000D03*
X233600000Y-301200000D03*
X220200000Y-301100000D03*
X234400000Y-299801000D03*
%TO.N,!BOO*%
X174300000Y-354300000D03*
X142000000Y-318300000D03*
X222500000Y-302700000D03*
%TO.N,!BNO*%
X146000000Y-318400000D03*
X264300000Y-289300000D03*
X179700000Y-354400000D03*
%TO.N,!BOU*%
X184700000Y-354600000D03*
X253900000Y-284200000D03*
X150100000Y-318300000D03*
%TO.N,!BNU*%
X154100000Y-318500000D03*
X189800000Y-354500000D03*
X240500000Y-284100000D03*
%TO.N,!BOC*%
X194800000Y-354300000D03*
X233300000Y-289100000D03*
X158100000Y-318200000D03*
%TO.N,!BNC*%
X217300000Y-283800000D03*
X199900000Y-354500000D03*
X163400000Y-322600000D03*
%TO.N,!Clear*%
X279300000Y-308300000D03*
X203500000Y-355000000D03*
X206100000Y-322300000D03*
%TO.N,!Load*%
X119400000Y-327400000D03*
X137500000Y-348400000D03*
X121000000Y-347300000D03*
X137100000Y-334700000D03*
X204031786Y-348400000D03*
X208500000Y-355100000D03*
X208200000Y-322800000D03*
%TO.N,!Store*%
X213500000Y-355000000D03*
X201200000Y-329500000D03*
X206100000Y-327600000D03*
X271100000Y-312800000D03*
%TO.N,!INC*%
X205150000Y-337000000D03*
X286800000Y-316000000D03*
X218500000Y-354800000D03*
X280500000Y-297799000D03*
%TO.N,!DEC*%
X223500000Y-355100000D03*
X209150000Y-336900000D03*
%TO.N,!RS*%
X228500000Y-355100000D03*
X213150000Y-336900000D03*
%TO.N,!NOT*%
X216299000Y-336900000D03*
X233500000Y-354800000D03*
%TO.N,!AND*%
X266100000Y-309800000D03*
X219599000Y-337500000D03*
X274700000Y-309400000D03*
X238500000Y-355000000D03*
%TO.N,!OR*%
X277700000Y-312200000D03*
X266000000Y-312200000D03*
X243500000Y-355000000D03*
X223599000Y-337611500D03*
%TO.N,!XOR*%
X248500000Y-355000000D03*
X261200000Y-313700000D03*
X274800000Y-305400000D03*
X227599000Y-337500000D03*
%TO.N,!ADD*%
X253500000Y-355000000D03*
X277700000Y-298400000D03*
X259300000Y-314700000D03*
X231599000Y-337500000D03*
%TO.N,!ADC*%
X284400000Y-298800000D03*
X258500000Y-355000000D03*
X271500000Y-316300000D03*
X265000000Y-317300000D03*
X237745984Y-332045984D03*
%TO.N,!MOV*%
X241300000Y-332500000D03*
X272200000Y-313100000D03*
X263500000Y-355000000D03*
X246600000Y-326700000D03*
X267300000Y-316000000D03*
%TO.N,Net-(Q17-G)*%
X278000000Y-348700000D03*
X292000000Y-379500000D03*
X190900000Y-398200000D03*
X292000000Y-358500000D03*
X180900000Y-356300000D03*
X190900000Y-356300000D03*
X277600000Y-379500000D03*
X160900000Y-398200000D03*
X151000000Y-356300000D03*
X170800000Y-356300000D03*
X292000000Y-369200000D03*
X180900000Y-398200000D03*
X276700000Y-369200000D03*
X138200000Y-398200000D03*
X170800000Y-398200000D03*
X135100000Y-391100000D03*
X292000000Y-348700000D03*
X160900000Y-356200000D03*
X151000000Y-398200000D03*
X277900000Y-358500000D03*
%TO.N,Net-(Q15-G)*%
X291400000Y-374200000D03*
X291400000Y-352999000D03*
X186000000Y-360300000D03*
X165800000Y-360300000D03*
X185900000Y-397500000D03*
X142600000Y-364100000D03*
X280600000Y-374200000D03*
X135100000Y-386700000D03*
X280700000Y-353100000D03*
X138700000Y-397500000D03*
X142600000Y-397500000D03*
X165800000Y-397500000D03*
%TO.N,Net-(Q21-G)*%
X277800000Y-337400000D03*
X156000000Y-396800000D03*
X135000000Y-382300000D03*
X225800000Y-396800000D03*
X225800000Y-364300000D03*
X290800000Y-337400000D03*
X215800000Y-364300000D03*
X156000000Y-364300000D03*
X139200000Y-396800000D03*
X206100000Y-396800000D03*
X195700000Y-396800000D03*
X195800000Y-364400000D03*
X215700000Y-396800000D03*
X206100000Y-364300000D03*
%TO.N,Net-(Q25-G)*%
X230900000Y-368200000D03*
X135100000Y-378000000D03*
X175800000Y-368300000D03*
X175800000Y-396100000D03*
X230900000Y-396100000D03*
X210700000Y-368300000D03*
X139700000Y-396100000D03*
X210700000Y-396100000D03*
%TO.N,Net-(Q40-G)*%
X200900000Y-395400000D03*
X200900000Y-372200000D03*
X140200000Y-395400000D03*
X235800000Y-395400000D03*
X255800000Y-372200000D03*
X246000000Y-395400000D03*
X255800000Y-395400000D03*
X246000000Y-372300000D03*
X135100000Y-373500000D03*
X235800000Y-372300000D03*
%TO.N,Net-(Q53-G)*%
X135200000Y-369200000D03*
X250900000Y-376300000D03*
X220800000Y-394700000D03*
X220800000Y-376300000D03*
X250900000Y-394700000D03*
X140700000Y-394700000D03*
%TO.N,Net-(Q57-G)*%
X141200000Y-394000000D03*
X240700000Y-394000000D03*
X240800000Y-380300000D03*
X135100000Y-364800000D03*
%TO.N,Net-(Q603-D)*%
X260900000Y-384300000D03*
X135200000Y-360500000D03*
X141700000Y-393300000D03*
X261500000Y-393300000D03*
%TO.N,Net-(Q10-G)*%
X145706250Y-380806250D03*
X259800000Y-381900000D03*
X259800000Y-387600000D03*
X145700000Y-387600000D03*
%TO.N,Net-(Q11-G)*%
X240200000Y-388300000D03*
X259200000Y-378400000D03*
X240200000Y-377600000D03*
X259200000Y-388300000D03*
X145099000Y-377701000D03*
X145100000Y-388300000D03*
%TO.N,Net-(Q12-G)*%
X144500000Y-389000000D03*
X250300000Y-389000000D03*
X220200000Y-389000000D03*
X144500000Y-374400000D03*
X258600000Y-389000000D03*
X220200000Y-373400000D03*
X258600000Y-375000000D03*
X239600000Y-374200000D03*
X239600000Y-389000000D03*
X250300000Y-373500000D03*
%TO.N,Net-(Q13-G)*%
X200300000Y-369300000D03*
X143900000Y-370900000D03*
X200300000Y-389700000D03*
X143900000Y-389700000D03*
X219600000Y-389700000D03*
X219600000Y-369900000D03*
%TO.N,Net-(Q14-G)*%
X288400000Y-343400000D03*
X230300000Y-390400000D03*
X219000000Y-390400000D03*
X143300000Y-390400000D03*
X219000000Y-366600000D03*
X288400000Y-333100000D03*
X175200000Y-365400000D03*
X210100000Y-390400000D03*
X278300000Y-333100000D03*
X199700000Y-365900000D03*
X230300000Y-365300000D03*
X199700000Y-390400000D03*
X210100000Y-365600000D03*
X143300000Y-367500000D03*
X278200000Y-343400000D03*
X175200000Y-390400000D03*
%TO.N,Net-(Q18-G)*%
X155400000Y-391100000D03*
X155400000Y-361200000D03*
X279800000Y-391100000D03*
X281200000Y-363400000D03*
X174600000Y-362000000D03*
X174600000Y-391100000D03*
X289000000Y-364600000D03*
X195200000Y-361500000D03*
X279800000Y-384700000D03*
X195200000Y-391100000D03*
%TO.N,Net-(Q1-D)*%
X289600000Y-353700000D03*
X277850000Y-374750000D03*
X154800000Y-391800000D03*
X165200000Y-357500000D03*
X185400000Y-357200000D03*
X289600000Y-374800000D03*
X142000000Y-360800000D03*
X194600000Y-391800000D03*
X289600000Y-365200000D03*
X275800000Y-391800000D03*
X165200000Y-391800000D03*
X174000000Y-391800000D03*
X185400000Y-391800000D03*
X142000000Y-391800000D03*
X278000000Y-364000000D03*
X174000000Y-358600000D03*
X154800000Y-357800000D03*
X194600000Y-358000000D03*
X275800000Y-384700000D03*
X278100000Y-353700000D03*
D14*
%TO.N,Faling Edge*%
X121900000Y-246000000D03*
D13*
X116200000Y-288100000D03*
X119700000Y-288100000D03*
%TO.N,Read New Instruction*%
X123500000Y-346700000D03*
X120100000Y-350000000D03*
%TO.N,Buss3*%
X156400000Y-203800000D03*
X295795552Y-206303218D03*
X234200000Y-203800000D03*
X297950000Y-229962500D03*
D14*
%TO.N,GND*%
X200100000Y-267700000D03*
D13*
X122000000Y-302700000D03*
D14*
X131200000Y-363300000D03*
X153162500Y-326975000D03*
X254100000Y-332800000D03*
X273976000Y-223011500D03*
X123876000Y-241511500D03*
X260349000Y-263100000D03*
X271600000Y-368300000D03*
X271600000Y-331300000D03*
X196349000Y-263100000D03*
X232100000Y-267700000D03*
X236349000Y-263100000D03*
X254000000Y-327800000D03*
X196138500Y-222961500D03*
D13*
X148162500Y-323975000D03*
D14*
X293400000Y-228700000D03*
X172349000Y-263100000D03*
X148349000Y-263100000D03*
X131200000Y-376500000D03*
X248100000Y-267700000D03*
X212349000Y-263100000D03*
D13*
X124000000Y-235800000D03*
D14*
X159762500Y-339075000D03*
X164349000Y-263100000D03*
X271600000Y-383300000D03*
X293400000Y-219700000D03*
X306850000Y-242562500D03*
D13*
X122100000Y-307000000D03*
D14*
X217100000Y-334100000D03*
X123162500Y-327075000D03*
X224476000Y-223011500D03*
D13*
X224637500Y-296600000D03*
X122400000Y-298000000D03*
X217375000Y-286750000D03*
X168000000Y-275200000D03*
D14*
X271600000Y-326300000D03*
X121700000Y-358900000D03*
X121700000Y-363300000D03*
X129162500Y-337675000D03*
D13*
X176000000Y-275200000D03*
D14*
X254100000Y-337700000D03*
D13*
X253137500Y-296600000D03*
D14*
X260650000Y-385850000D03*
X293400000Y-237700000D03*
D13*
X249275000Y-286750000D03*
D14*
X146638500Y-222961500D03*
D13*
X215137500Y-296600000D03*
D14*
X121700000Y-385300000D03*
X228349000Y-263100000D03*
D13*
X232000000Y-275200000D03*
X255937500Y-275237500D03*
D14*
X121700000Y-372100000D03*
D13*
X150423718Y-314101000D03*
X136200000Y-331900000D03*
D14*
X182538500Y-222961500D03*
X244349000Y-263100000D03*
X293400000Y-246700000D03*
X146162500Y-337775000D03*
X164638500Y-222961500D03*
D13*
X240000000Y-275200000D03*
D14*
X271600000Y-347300000D03*
D13*
X152000000Y-275200000D03*
X184000000Y-275200000D03*
D14*
X121700000Y-367700000D03*
X132500000Y-275900000D03*
X271600000Y-373300000D03*
X271600000Y-378300000D03*
D13*
X150423718Y-309159032D03*
X201600000Y-229800000D03*
D14*
X293400000Y-224200000D03*
D13*
X248000000Y-275200000D03*
X141662500Y-337675000D03*
D14*
X252349000Y-263100000D03*
X256100000Y-267700000D03*
X128100000Y-263300000D03*
X240100000Y-267700000D03*
X208100000Y-267700000D03*
X180349000Y-263100000D03*
X176100000Y-267700000D03*
X131200000Y-358900000D03*
X242476000Y-223011500D03*
D13*
X200137500Y-296600000D03*
D14*
X271600000Y-362300000D03*
X131200000Y-372100000D03*
X306450000Y-237562500D03*
D13*
X224000000Y-275200000D03*
X122600000Y-311400000D03*
D14*
X267700000Y-300100000D03*
X204349000Y-263100000D03*
D13*
X260800000Y-287700000D03*
D14*
X188349000Y-263100000D03*
X210376000Y-223011500D03*
X131200000Y-385300000D03*
D13*
X271937500Y-275237500D03*
D14*
X121700000Y-389700000D03*
X271600000Y-357300000D03*
X121700000Y-380900000D03*
D13*
X263937500Y-275237500D03*
D14*
X152100000Y-267700000D03*
X293400000Y-233200000D03*
D13*
X230775000Y-286750000D03*
X150423718Y-304159032D03*
D14*
X216100000Y-267700000D03*
D13*
X144662500Y-327175000D03*
D14*
X264100000Y-267700000D03*
D13*
X208000000Y-275200000D03*
D14*
X254100000Y-342700000D03*
D13*
X238637500Y-296600000D03*
D14*
X271600000Y-311400000D03*
X281100000Y-234800000D03*
X192100000Y-267700000D03*
X306650000Y-214962500D03*
X130900000Y-276000000D03*
X224100000Y-267700000D03*
X184100000Y-267700000D03*
X156349000Y-263100000D03*
X271600000Y-352300000D03*
X132538500Y-222961500D03*
D13*
X146500000Y-386100000D03*
D14*
X131200000Y-380900000D03*
X293400000Y-242200000D03*
X260376000Y-223011500D03*
X131200000Y-367700000D03*
X276100000Y-320051000D03*
D13*
X137200000Y-293462500D03*
D14*
X139662500Y-346475000D03*
X168100000Y-267700000D03*
X203375000Y-288050000D03*
D13*
X119962500Y-319075000D03*
X160000000Y-275200000D03*
D14*
X272100000Y-267700000D03*
X281100000Y-225700000D03*
D13*
X216000000Y-275200000D03*
D14*
X121700000Y-376500000D03*
X220349000Y-263100000D03*
X271600000Y-336300000D03*
D13*
X137012500Y-338125000D03*
D14*
X268349000Y-263100000D03*
X131200000Y-389700000D03*
D13*
X200000000Y-275200000D03*
D14*
X286800000Y-361800000D03*
D13*
X240175000Y-286750000D03*
D14*
X293400000Y-215200000D03*
X202000000Y-327300000D03*
X286800000Y-340800000D03*
X160100000Y-267700000D03*
X129850000Y-266500000D03*
D13*
X150562500Y-337675000D03*
D14*
X120354112Y-341975000D03*
X286800000Y-382800000D03*
D13*
X192000000Y-275200000D03*
X152700000Y-296700000D03*
D14*
X271600000Y-341300000D03*
D13*
%TO.N,R{slash}W out*%
X139737500Y-343437500D03*
%TO.N,Buss2*%
X298350000Y-225362500D03*
X153800000Y-203200000D03*
X231700000Y-203200000D03*
X296254702Y-205645298D03*
%TO.N,rst*%
X141200000Y-248300000D03*
X213900000Y-207400000D03*
X115724265Y-231224265D03*
D14*
X305800000Y-252500000D03*
D13*
X102600000Y-258300000D03*
X105600000Y-284200000D03*
%TO.N,Buss0*%
X226600000Y-202000000D03*
X148700000Y-202000000D03*
X297000000Y-204200000D03*
X301050000Y-216262500D03*
%TO.N,Buss6*%
X297950000Y-243462500D03*
X241900000Y-205600000D03*
X294400000Y-208500000D03*
X164000000Y-205600000D03*
%TO.N,Buss7*%
X298250000Y-247962500D03*
X244500000Y-206200000D03*
X294100000Y-209300000D03*
X166500000Y-206200000D03*
%TO.N,Buss4*%
X158900000Y-204400000D03*
X236700000Y-204400000D03*
X295300000Y-207000000D03*
X298050000Y-234462500D03*
%TO.N,VCC*%
X145012718Y-301100000D03*
X162462500Y-331275000D03*
D14*
X121700000Y-366000000D03*
X273076000Y-245711500D03*
X278900000Y-238500000D03*
X173800000Y-273600000D03*
D13*
X145012718Y-305300000D03*
D14*
X201524207Y-350124207D03*
X266500000Y-379500000D03*
X208000000Y-278100000D03*
X266500000Y-337389000D03*
X145600000Y-246000000D03*
X224000000Y-278100000D03*
X221800000Y-273600000D03*
D13*
X120523718Y-303300000D03*
D14*
X248000000Y-278100000D03*
X121700000Y-383600000D03*
X308000000Y-220200000D03*
X209976000Y-245711500D03*
X202500000Y-234600000D03*
X176215686Y-350115686D03*
X125200000Y-235500000D03*
D13*
X155834718Y-311200000D03*
D14*
X189800000Y-273600000D03*
X269800000Y-273600000D03*
X163700000Y-246000000D03*
X192000000Y-278100000D03*
X143262500Y-333575000D03*
X256000000Y-278100000D03*
X213800000Y-273600000D03*
X130100000Y-261400000D03*
X181800000Y-273600000D03*
X121700000Y-392400000D03*
X121700000Y-379200000D03*
X197800000Y-273600000D03*
X132176000Y-246000000D03*
D13*
X214537500Y-295500000D03*
D14*
X266500000Y-348489000D03*
X121700000Y-361600000D03*
X184000000Y-278100000D03*
X241576000Y-245711500D03*
X121700000Y-374800000D03*
X131200000Y-383600000D03*
X246000000Y-350100000D03*
X161100000Y-350100000D03*
X266600000Y-369500000D03*
X273700000Y-308200000D03*
X176000000Y-278100000D03*
X131200000Y-361600000D03*
X284400000Y-311700000D03*
D13*
X253337500Y-293600000D03*
D14*
X229800000Y-273600000D03*
D13*
X145012718Y-311500000D03*
D14*
X272000000Y-278100000D03*
X308000000Y-229400000D03*
D13*
X144062500Y-330900000D03*
D14*
X196000000Y-350100000D03*
X160000000Y-278100000D03*
X168000000Y-278100000D03*
X253800000Y-273600000D03*
X308000000Y-238600000D03*
D13*
X120523718Y-307500000D03*
D14*
X159362500Y-326275000D03*
D13*
X155834718Y-301300000D03*
D14*
X127462500Y-337675000D03*
X181776000Y-246000000D03*
X131200000Y-366000000D03*
D13*
X155834718Y-306500000D03*
D14*
X131200000Y-379200000D03*
X131200000Y-392400000D03*
X207400000Y-286500000D03*
X165800000Y-273600000D03*
X200000000Y-278100000D03*
X131200000Y-388000000D03*
X278900000Y-220200000D03*
X223476000Y-245711500D03*
X216200000Y-350100000D03*
X205800000Y-273600000D03*
X232000000Y-278100000D03*
X150600000Y-350100000D03*
X161562500Y-339275000D03*
X121700000Y-388000000D03*
X237800000Y-273600000D03*
X285800000Y-302200000D03*
X131200000Y-374800000D03*
D13*
X120523718Y-312300000D03*
D14*
X245800000Y-273600000D03*
D13*
X193437500Y-294700000D03*
D14*
X261800000Y-273600000D03*
D13*
X136862500Y-339675000D03*
D14*
X226000000Y-350100000D03*
X143662500Y-339375000D03*
X157800000Y-273600000D03*
D13*
X229137500Y-293600000D03*
D14*
X185700000Y-350100000D03*
X160062500Y-333575000D03*
D13*
X248875000Y-289750000D03*
D14*
X195276000Y-245711500D03*
X278900000Y-229400000D03*
X240000000Y-278100000D03*
X266500000Y-326789000D03*
X266500000Y-358389000D03*
X131200000Y-370400000D03*
D13*
X143962500Y-341875000D03*
X226175000Y-289750000D03*
D14*
X264000000Y-278100000D03*
X259576000Y-245711500D03*
X152000000Y-278100000D03*
X121700000Y-370400000D03*
X235900000Y-350100000D03*
X149800000Y-273600000D03*
X124062500Y-330775000D03*
D13*
X120523718Y-298600000D03*
D14*
X216000000Y-278100000D03*
X250900000Y-350100000D03*
%TO.N,CLOCK*%
X122481500Y-255369000D03*
D13*
%TO.N,Buss5*%
X161400000Y-205000000D03*
X298150000Y-239062500D03*
X239300000Y-205000000D03*
X294800000Y-207700000D03*
%TO.N,Buss1*%
X298850000Y-220862500D03*
X296504807Y-204885396D03*
X151300000Y-202600000D03*
X229200000Y-202600000D03*
%TO.N,ADR 13*%
X189976000Y-241100000D03*
%TO.N,ADR 10*%
X176352000Y-241100000D03*
%TO.N,ADR 6*%
X156700000Y-239500000D03*
%TO.N,ADR 15*%
X198976000Y-241100000D03*
%TO.N,ADR 7*%
X161200000Y-239400000D03*
%TO.N,ADR 0*%
X129700000Y-239600000D03*
%TO.N,ADR 2*%
X138800000Y-239600000D03*
%TO.N,ADR 5*%
X152200000Y-239600000D03*
%TO.N,ADR 9*%
X171700000Y-241100000D03*
%TO.N,ADR 3*%
X143200000Y-239600000D03*
%TO.N,ADR 4*%
X147700000Y-239500000D03*
%TO.N,ADR 1*%
X134300000Y-239600000D03*
%TO.N,ADR 8*%
X167352000Y-241000000D03*
%TO.N,ADR 14*%
X194476000Y-241100000D03*
%TO.N,ADR 11*%
X180852000Y-241100000D03*
%TO.N,ADR 12*%
X185476000Y-241200000D03*
%TO.N,Main bus 0*%
X303950000Y-217162500D03*
%TO.N,Main bus 4*%
X303950000Y-234162500D03*
%TO.N,Main bus 1*%
X303950000Y-220362500D03*
%TO.N,Main bus 6*%
X303950000Y-243562500D03*
%TO.N,Main bus 3*%
X303950000Y-229862500D03*
%TO.N,Main bus 2*%
X303950000Y-225562500D03*
%TO.N,Main bus 5*%
X303950000Y-238962500D03*
%TO.N,Main bus 7*%
X303850000Y-248462500D03*
%TO.N,XOR*%
X279000000Y-304000000D03*
%TO.N,OR*%
X285900000Y-313000000D03*
X282700000Y-312000000D03*
%TO.N,ALU FLAG O*%
X135700000Y-308900000D03*
%TO.N,ALU FLAG N*%
X135800000Y-295100000D03*
%TO.N,ALU FLAG U*%
X135600000Y-304100000D03*
%TO.N,ALU FLAG C*%
X135600000Y-314700000D03*
%TO.N,ALU FLAG Z*%
X135700000Y-299500000D03*
%TO.N,RS*%
X272200000Y-308100000D03*
%TO.N,A ->ALU B*%
X274300000Y-341500000D03*
%TO.N,ALU B = FF*%
X272800000Y-303400000D03*
%TO.N,READ A*%
X274200000Y-383400000D03*
%TO.N,C ->ALU A*%
X274500000Y-352500000D03*
%TO.N,D ->ALU A*%
X274100000Y-347500000D03*
%TO.N,B ->ALU B*%
X274200000Y-336600000D03*
%TO.N,B ->ALU A*%
X274300000Y-357500000D03*
%TO.N,A ->ALU A*%
X274300000Y-362600000D03*
%TO.N,READ D*%
X274100000Y-368300000D03*
%TO.N,READ C*%
X274200000Y-373400000D03*
%TO.N,C ->ALU B*%
X274400000Y-331500000D03*
%TO.N,READ B*%
X274200000Y-378500000D03*
%TO.N,D ->ALU B*%
X274300000Y-326300000D03*
%TO.N,REG Read*%
X283000000Y-384300000D03*
X250200000Y-326037500D03*
%TO.N,REG -> ALU B*%
X283200000Y-342500000D03*
X248900000Y-336037500D03*
%TO.N,REG -> ALU A*%
X283200000Y-363600000D03*
X249000000Y-331037500D03*
%TO.N,READ FALG*%
X167200000Y-290200000D03*
X131223718Y-299124000D03*
X131223718Y-308124000D03*
X136200000Y-293424000D03*
X131223718Y-303624000D03*
X131223718Y-295000000D03*
X240300000Y-340100000D03*
X131223718Y-312477000D03*
%TO.N,Store Address ++*%
X218301000Y-227511500D03*
X263324000Y-227511500D03*
X120500000Y-225800000D03*
X213824000Y-227511500D03*
X267824000Y-227511500D03*
X119900000Y-228111500D03*
X227324000Y-227511500D03*
X231824000Y-227511500D03*
X258801000Y-227511500D03*
X127500000Y-345800000D03*
X222801000Y-227511500D03*
X272301000Y-227511500D03*
X254301000Y-227511500D03*
X245324000Y-227511500D03*
X240801000Y-227511500D03*
X249824000Y-227511500D03*
D14*
X205876000Y-227511500D03*
D13*
X276801000Y-227511500D03*
X236301000Y-227511500D03*
X209324000Y-227511500D03*
%TO.N,ADR++ 0*%
X155500000Y-272000000D03*
X209100000Y-231600000D03*
%TO.N,ADR++ 1*%
X213500000Y-231600000D03*
X163600000Y-272100000D03*
%TO.N,ADR++ 2*%
X218163235Y-231563235D03*
X171600000Y-272100000D03*
%TO.N,ADR++ 3*%
X222700000Y-231500000D03*
X179600000Y-272100000D03*
%TO.N,ADR++ 4*%
X227200000Y-231500000D03*
X187649000Y-272200000D03*
%TO.N,ADR++ 5*%
X231500000Y-231500000D03*
X195600000Y-272000000D03*
%TO.N,ADR++ 6*%
X203649000Y-272000000D03*
X236100000Y-231500000D03*
%TO.N,ADR++ 7*%
X211600000Y-272000000D03*
X240500000Y-231500000D03*
%TO.N,ADR++ 8*%
X219600000Y-271900000D03*
X244800000Y-231600000D03*
%TO.N,ADR++ 9*%
X249700000Y-231400000D03*
X227500000Y-272000000D03*
%TO.N,ADR++ 10*%
X254100000Y-231500000D03*
X235500000Y-272000000D03*
%TO.N,ADR++ 11*%
X243500000Y-272100000D03*
X258500000Y-231600000D03*
%TO.N,ADR++ 12*%
X251500000Y-272100000D03*
X263100000Y-231500000D03*
%TO.N,ADR++ 13*%
X259600000Y-272000000D03*
X267700000Y-231400000D03*
%TO.N,ADR++ 14*%
X266981250Y-272418750D03*
X272000000Y-231600000D03*
%TO.N,ADR++ 15*%
X276400000Y-231600000D03*
X275500000Y-272100000D03*
%TO.N,TEMP ADR 0*%
X209276000Y-237700000D03*
X131200000Y-240000000D03*
%TO.N,Net-(Q170-G)*%
X227276000Y-235811500D03*
X213776000Y-235811500D03*
X263276000Y-235811500D03*
X222776000Y-235811500D03*
X249776000Y-235811500D03*
X218276000Y-235811500D03*
D14*
X204876000Y-235811500D03*
D13*
X236276000Y-235811500D03*
X209276000Y-235811500D03*
X254276000Y-235811500D03*
X272276000Y-235811500D03*
X258776000Y-235811500D03*
X240776000Y-235811500D03*
X276801000Y-235811500D03*
X231776000Y-235811500D03*
X245276000Y-235811500D03*
X267776000Y-235811500D03*
%TO.N,TEMP ADR 1*%
X213776000Y-237700000D03*
X135700000Y-239900000D03*
%TO.N,STORED ADR 15*%
X198700000Y-231600000D03*
%TO.N,STORED ADR 14*%
X194100000Y-231600000D03*
%TO.N,STORED ADR 13*%
X189700000Y-231500000D03*
%TO.N,STORED ADR 12*%
X185200000Y-231500000D03*
%TO.N,STORED ADR 11*%
X180600000Y-231600000D03*
%TO.N,STORED ADR 10*%
X176100000Y-231600000D03*
%TO.N,STORED ADR 9*%
X171800000Y-231600000D03*
%TO.N,STORED ADR 8*%
X167000000Y-231600000D03*
%TO.N,STORED ADR 7*%
X162600000Y-231700000D03*
%TO.N,STORED ADR 6*%
X158000000Y-231600000D03*
%TO.N,STORED ADR 5*%
X153600000Y-231600000D03*
%TO.N,STORED ADR 4*%
X149100000Y-231600000D03*
%TO.N,STORED ADR 3*%
X144600000Y-231600000D03*
%TO.N,STORED ADR 2*%
X140100000Y-231600000D03*
%TO.N,STORED ADR 1*%
X135600000Y-231600000D03*
%TO.N,STORED ADR 0*%
X130900000Y-231600000D03*
%TO.N,Net-(Q204-G)*%
X271200000Y-266700000D03*
X265993750Y-274606250D03*
%TO.N,Net-(Q205-G)*%
X263200000Y-266700000D03*
X257993750Y-274606250D03*
%TO.N,Net-(Q206-G)*%
X255200000Y-266800000D03*
X249993750Y-274606250D03*
%TO.N,Net-(Q207-G)*%
X247200000Y-266700000D03*
X241993750Y-274606250D03*
%TO.N,Net-(Q208-G)*%
X239100000Y-266900000D03*
X233993750Y-274606250D03*
%TO.N,Net-(Q209-G)*%
X225993750Y-274606250D03*
X231100000Y-266600000D03*
%TO.N,Net-(Q210-G)*%
X217993750Y-274606250D03*
X223000000Y-266700000D03*
%TO.N,Net-(Q211-G)*%
X215100000Y-266600000D03*
X209993750Y-274606250D03*
%TO.N,Net-(Q212-G)*%
X206000000Y-264000000D03*
X202043750Y-274656250D03*
%TO.N,Net-(Q213-G)*%
X198000000Y-264000000D03*
X194000000Y-274700000D03*
%TO.N,Net-(Q214-G)*%
X185993750Y-274606250D03*
X191529016Y-263529016D03*
%TO.N,Net-(Q215-G)*%
X177993750Y-274606250D03*
X183329016Y-263729016D03*
%TO.N,Net-(Q216-G)*%
X169993750Y-274606250D03*
X175579016Y-263479016D03*
%TO.N,Net-(Q217-G)*%
X167906250Y-264106250D03*
X162100000Y-274700000D03*
%TO.N,Net-(Q218-G)*%
X159200000Y-266900000D03*
X154043750Y-274656250D03*
%TO.N,Read From stored Address*%
X189999000Y-227511500D03*
X144852000Y-227511500D03*
X152500000Y-347000000D03*
X153999000Y-227511500D03*
X140352000Y-227511500D03*
X167352000Y-227511500D03*
X198852000Y-227511500D03*
X151745984Y-263245984D03*
D14*
X128076000Y-227511500D03*
D13*
X194352000Y-227511500D03*
X158352000Y-227511500D03*
X149352000Y-227511500D03*
X180852000Y-227511500D03*
X162852000Y-227511500D03*
X135852000Y-227511500D03*
X176352000Y-227511500D03*
X171852000Y-227511500D03*
X185499000Y-227511500D03*
%TO.N,TEMP ADR 2*%
X140200000Y-240000000D03*
X218276000Y-237700000D03*
%TO.N,TEMP ADR 3*%
X222776000Y-237700000D03*
X144600000Y-240000000D03*
%TO.N,TEMP ADR 4*%
X227276000Y-237700000D03*
X149200000Y-240100000D03*
%TO.N,TEMP ADR 5*%
X231776000Y-237700000D03*
X153700000Y-240000000D03*
%TO.N,TEMP ADR 6*%
X236276000Y-237700000D03*
X158300000Y-240100000D03*
%TO.N,TEMP ADR 7*%
X162800000Y-240100000D03*
X240776000Y-237700000D03*
%TO.N,TEMP ADR 8*%
X245276000Y-237700000D03*
X167352000Y-240100000D03*
%TO.N,TEMP ADR 9*%
X171800000Y-240100000D03*
X249776000Y-237700000D03*
%TO.N,TEMP ADR 10*%
X176352000Y-240100000D03*
X254276000Y-237700000D03*
%TO.N,TEMP ADR 11*%
X258776000Y-237700000D03*
X180852000Y-240000000D03*
%TO.N,TEMP ADR 12*%
X263276000Y-237700000D03*
X185476000Y-240200000D03*
%TO.N,TEMP ADR 13*%
X189976000Y-240100000D03*
X267776000Y-237700000D03*
%TO.N,TEMP ADR 14*%
X194400000Y-240200000D03*
X272276000Y-237700000D03*
%TO.N,TEMP ADR 15*%
X273987028Y-236511500D03*
X198976000Y-240000000D03*
%TO.N,NEXT ADR 0*%
X209100000Y-240200000D03*
%TO.N,NEXT ADR 1*%
X213500000Y-240100000D03*
%TO.N,NEXT ADR 2*%
X218000000Y-240300000D03*
%TO.N,NEXT ADR 3*%
X222776000Y-240500000D03*
%TO.N,NEXT ADR 4*%
X227200000Y-240600000D03*
%TO.N,NEXT ADR 5*%
X231700000Y-240600000D03*
%TO.N,NEXT ADR 6*%
X236200000Y-240500000D03*
%TO.N,NEXT ADR 7*%
X240600000Y-240400000D03*
%TO.N,NEXT ADR 8*%
X245700000Y-244700000D03*
%TO.N,NEXT ADR 9*%
X250400000Y-244600000D03*
%TO.N,NEXT ADR 10*%
X254800000Y-244600000D03*
%TO.N,NEXT ADR 11*%
X259400000Y-244400000D03*
%TO.N,NEXT ADR 12*%
X263700000Y-244300000D03*
%TO.N,NEXT ADR 13*%
X268100000Y-244000000D03*
%TO.N,NEXT ADR 14*%
X272900000Y-244500000D03*
%TO.N,NEXT ADR 15*%
X277300000Y-244800000D03*
%TO.N,Net-(Q332-G)*%
X185352000Y-235711500D03*
X198852000Y-235711500D03*
X135852000Y-235711500D03*
X144852000Y-235711500D03*
X162852000Y-235711500D03*
X149376000Y-235711500D03*
X171852000Y-235711500D03*
X176352000Y-235711500D03*
X140352000Y-235711500D03*
X153852000Y-235711500D03*
X158352000Y-235711500D03*
X189852000Y-235711500D03*
X167352000Y-235711500D03*
X131276000Y-235711500D03*
D14*
X126976000Y-235711500D03*
D13*
X194352000Y-235711500D03*
X180852000Y-235711500D03*
%TO.N,TIME STEP 0*%
X166200000Y-289800000D03*
X114500000Y-287500000D03*
X216800000Y-208800000D03*
%TO.N,!TIME STEP 0*%
X153375000Y-301400000D03*
X151800000Y-342000000D03*
%TO.N,TIME STEP IN 1*%
X154000000Y-315900000D03*
%TO.N,TIME STEP 1*%
X149500000Y-300300000D03*
X134100000Y-329200000D03*
X148100000Y-331399000D03*
%TO.N,TIME STEP IN 2*%
X146700000Y-315600000D03*
X127200000Y-342400000D03*
%TO.N,FLAG N*%
X144123718Y-296800000D03*
%TO.N,Net-(Q418-G)*%
X140223718Y-312300000D03*
X140223718Y-303200000D03*
X140223718Y-294900000D03*
X140223718Y-307800000D03*
X140223718Y-298600000D03*
%TO.N,FLAG STORE N*%
X125400000Y-297600000D03*
%TO.N,FLAG Z*%
X143823718Y-297900000D03*
X233400000Y-298850000D03*
X189430000Y-297070000D03*
%TO.N,FLAG STORE Z*%
X125400000Y-302000000D03*
%TO.N,FLAG U*%
X144312718Y-302700000D03*
%TO.N,FLAG STORE U*%
X125600000Y-306500000D03*
%TO.N,FLAG O*%
X262200000Y-283500000D03*
X144123718Y-307200000D03*
%TO.N,FLAG STORE O*%
X125600000Y-311100000D03*
%TO.N,FLAG C*%
X144223718Y-311300000D03*
X241550000Y-303850000D03*
X222200000Y-284500000D03*
X272400000Y-318400000D03*
%TO.N,FLAG STORE C*%
X125600000Y-315700000D03*
%TO.N,Read Write ins*%
X123300000Y-337300000D03*
X144200000Y-324100000D03*
X123800000Y-325475000D03*
X143908058Y-322008058D03*
X124800000Y-348000000D03*
%TO.N,Commit jump*%
X122900000Y-343100000D03*
X203100000Y-291526000D03*
%TO.N,TIME STEP IN 0*%
X143300000Y-323500000D03*
%TO.N,TIME STEP 2*%
X155400000Y-339500000D03*
X156100000Y-331276000D03*
X170800000Y-297700000D03*
%TO.N,TIME STEP 0or1or2*%
X161300000Y-327800000D03*
X160100000Y-332500000D03*
%TO.N,TIME STEP 0or1*%
X134000000Y-332300000D03*
X137200000Y-327800000D03*
%TO.N,Main bus -> bus out*%
X297950000Y-236062500D03*
X297850000Y-227262500D03*
X298900000Y-255900000D03*
X297950000Y-231562500D03*
X257399000Y-300401000D03*
X297950000Y-213762500D03*
X297850000Y-245162500D03*
X297850000Y-240562500D03*
X297850000Y-218162500D03*
X202500000Y-300800000D03*
X297950000Y-222562500D03*
%TO.N,Net-(Q520-D)*%
X305900000Y-218000000D03*
X302500000Y-217900000D03*
%TO.N,Net-(Q523-D)*%
X305900000Y-222500000D03*
X302600000Y-222500000D03*
%TO.N,Net-(Q526-D)*%
X302600000Y-227000000D03*
X305900000Y-227000000D03*
%TO.N,Net-(Q529-D)*%
X305900000Y-231500000D03*
X302500000Y-231500000D03*
%TO.N,Net-(Q532-D)*%
X305900000Y-236000000D03*
X302500000Y-236000000D03*
%TO.N,Net-(Q535-D)*%
X302500000Y-240500000D03*
X305900000Y-240500000D03*
%TO.N,Net-(Q538-D)*%
X305900000Y-245000000D03*
X302600000Y-245000000D03*
%TO.N,bus out -> Main bus*%
X284450000Y-243862500D03*
X284350000Y-216862500D03*
X146012500Y-335225000D03*
X284350000Y-225862500D03*
X284450000Y-239262500D03*
X119200000Y-232000000D03*
X284350000Y-221262500D03*
X284450000Y-234762500D03*
X284450000Y-230462500D03*
X119300000Y-225800000D03*
X284850000Y-213762500D03*
%TO.N,Net-(Q544-D)*%
X289400000Y-218562500D03*
X280900000Y-218000000D03*
%TO.N,Net-(Q547-D)*%
X280900000Y-222500000D03*
X289400000Y-223062500D03*
%TO.N,Net-(Q550-D)*%
X280900000Y-227000000D03*
X289400000Y-227562500D03*
%TO.N,Net-(Q553-D)*%
X289400000Y-232062500D03*
X280900000Y-231500000D03*
%TO.N,Net-(Q556-D)*%
X289400000Y-236562500D03*
X280900000Y-236000000D03*
%TO.N,Net-(Q559-D)*%
X289400000Y-241062500D03*
X280900000Y-240500000D03*
%TO.N,Net-(Q562-D)*%
X289400000Y-245562500D03*
X280900000Y-245000000D03*
%TD*%
D15*
%TO.N,!JMP*%
X151167100Y-294700000D02*
X163284660Y-294700000D01*
X120400000Y-321900000D02*
X129222000Y-313078000D01*
X129222000Y-313078000D02*
X144906661Y-313078000D01*
X120400000Y-321900000D02*
X117798000Y-324502000D01*
X117798000Y-324502000D02*
X117798000Y-346298000D01*
X146600000Y-311384660D02*
X146600000Y-299267100D01*
X144906661Y-313078000D02*
X145692330Y-312292330D01*
X117798000Y-346298000D02*
X126700000Y-355200000D01*
X201900000Y-284600000D02*
X191800000Y-294700000D01*
X145692330Y-312292330D02*
X146600000Y-311384660D01*
X126700000Y-355200000D02*
X144800000Y-355200000D01*
X146600000Y-299267100D02*
X151167100Y-294700000D01*
X207300000Y-284600000D02*
X201900000Y-284600000D01*
X191800000Y-294700000D02*
X163284660Y-294700000D01*
%TO.N,!BOP*%
X145072761Y-313479000D02*
X147100000Y-311451760D01*
X186500000Y-295100000D02*
X190500000Y-299100000D01*
X131021000Y-313479000D02*
X145072761Y-313479000D01*
X151400000Y-295100000D02*
X186500000Y-295100000D01*
X118199000Y-326301000D02*
X126200000Y-318300000D01*
X147100000Y-311451760D02*
X147100000Y-299400000D01*
X118199000Y-345899000D02*
X118199000Y-326301000D01*
X126800000Y-354500000D02*
X118199000Y-345899000D01*
X147100000Y-299400000D02*
X151400000Y-295100000D01*
X154700000Y-354500000D02*
X126800000Y-354500000D01*
X126200000Y-318300000D02*
X131021000Y-313479000D01*
X190500000Y-299100000D02*
X195700000Y-299100000D01*
%TO.N,!BON*%
X128400000Y-320100000D02*
X130100000Y-318400000D01*
X158999000Y-353899000D02*
X132199000Y-353899000D01*
X128400000Y-336500000D02*
X128400000Y-320100000D01*
X128361500Y-336538500D02*
X128400000Y-336500000D01*
X159600000Y-354500000D02*
X158999000Y-353899000D01*
X128361500Y-350061500D02*
X128361500Y-336538500D01*
X132199000Y-353899000D02*
X128361500Y-350061500D01*
%TO.N,!BOZ*%
X138100000Y-322300000D02*
X134100000Y-318300000D01*
X138100000Y-350500000D02*
X138100000Y-322300000D01*
X163600000Y-353300000D02*
X140900000Y-353300000D01*
X164700000Y-354400000D02*
X163600000Y-353300000D01*
X140900000Y-353300000D02*
X138100000Y-350500000D01*
%TO.N,!BNZ*%
X140463500Y-320763500D02*
X138100000Y-318400000D01*
X167800000Y-352700000D02*
X143700000Y-352700000D01*
X143700000Y-352700000D02*
X140463500Y-349463500D01*
X169500000Y-354400000D02*
X167800000Y-352700000D01*
X140463500Y-349463500D02*
X140463500Y-320763500D01*
%TO.N,!BOO*%
X142300000Y-321650057D02*
X142000000Y-321350057D01*
X155454714Y-352300000D02*
X142300000Y-339145286D01*
X142000000Y-321350057D02*
X142000000Y-318300000D01*
X172300000Y-352300000D02*
X155454714Y-352300000D01*
X142300000Y-339145286D02*
X142300000Y-321650057D01*
X174300000Y-354300000D02*
X172300000Y-352300000D01*
%TO.N,!BNO*%
X156099000Y-351899000D02*
X147200000Y-343000000D01*
X147200000Y-343000000D02*
X147200000Y-322145286D01*
X177199000Y-351899000D02*
X156099000Y-351899000D01*
X179700000Y-354400000D02*
X177199000Y-351899000D01*
X147200000Y-322145286D02*
X146000000Y-320945286D01*
X146000000Y-320945286D02*
X146000000Y-318400000D01*
%TO.N,!BOU*%
X184700000Y-354600000D02*
X181500000Y-351400000D01*
X153963500Y-322163500D02*
X150100000Y-318300000D01*
X153963500Y-347300000D02*
X153963500Y-322163500D01*
X181500000Y-351400000D02*
X158063500Y-351400000D01*
X158063500Y-351400000D02*
X153963500Y-347300000D01*
%TO.N,!BNU*%
X159699000Y-350999000D02*
X158700000Y-350000000D01*
X186299000Y-350999000D02*
X176400000Y-350999000D01*
X176400000Y-350999000D02*
X159699000Y-350999000D01*
X154364500Y-318764500D02*
X154100000Y-318500000D01*
X154364500Y-345664500D02*
X154364500Y-318764500D01*
X189800000Y-354500000D02*
X186299000Y-350999000D01*
X158700000Y-350000000D02*
X154364500Y-345664500D01*
%TO.N,!BOC*%
X163199000Y-349299000D02*
X158200000Y-344300000D01*
X194800000Y-354300000D02*
X189799000Y-349299000D01*
X189799000Y-349299000D02*
X163199000Y-349299000D01*
X158200000Y-318300000D02*
X158100000Y-318200000D01*
X158200000Y-344300000D02*
X158200000Y-318300000D01*
%TO.N,!BNC*%
X185800000Y-348898000D02*
X165098000Y-348898000D01*
X163400000Y-347200000D02*
X163400000Y-322600000D01*
X196200000Y-354500000D02*
X190800000Y-349100000D01*
X165098000Y-348898000D02*
X163850000Y-347650000D01*
X163850000Y-347650000D02*
X163400000Y-347200000D01*
X199900000Y-354500000D02*
X196200000Y-354500000D01*
X190800000Y-349100000D02*
X190598000Y-348898000D01*
X190598000Y-348898000D02*
X185800000Y-348898000D01*
%TO.N,!Clear*%
X279300000Y-308300000D02*
X277001000Y-310599000D01*
X265150943Y-310599000D02*
X258549943Y-317200000D01*
X211200000Y-317200000D02*
X206100000Y-322300000D01*
X202801000Y-354301000D02*
X203500000Y-355000000D01*
X258549943Y-317200000D02*
X218100000Y-317200000D01*
X218100000Y-317200000D02*
X211200000Y-317200000D01*
X277001000Y-310599000D02*
X265150943Y-310599000D01*
X206100000Y-322300000D02*
X202801000Y-325599000D01*
X202801000Y-325599000D02*
X202801000Y-354301000D01*
%TO.N,!Load*%
X137100000Y-334700000D02*
X137613500Y-335213500D01*
X121155112Y-329155112D02*
X119400000Y-327400000D01*
X137613500Y-348286500D02*
X137500000Y-348400000D01*
X204031786Y-326968214D02*
X208200000Y-322800000D01*
X208500000Y-353767214D02*
X204031786Y-349299000D01*
X121155112Y-347144888D02*
X121155112Y-329155112D01*
X137613500Y-335213500D02*
X137613500Y-348286500D01*
X208500000Y-355100000D02*
X208500000Y-353767214D01*
X204031786Y-348400000D02*
X204031786Y-326968214D01*
X204031786Y-349299000D02*
X204031786Y-348400000D01*
X121000000Y-347300000D02*
X121155112Y-347144888D01*
%TO.N,!Store*%
X252163500Y-325436500D02*
X208263500Y-325436500D01*
X271100000Y-312800000D02*
X264800000Y-312800000D01*
X264800000Y-312800000D02*
X252163500Y-325436500D01*
X206100000Y-327600000D02*
X204549000Y-329151000D01*
X204549000Y-329151000D02*
X204549000Y-346049000D01*
X204549000Y-346049000D02*
X213500000Y-355000000D01*
X208263500Y-325436500D02*
X206100000Y-327600000D01*
%TO.N,!INC*%
X284324971Y-297875029D02*
X284248942Y-297799000D01*
X217467214Y-354800000D02*
X205150000Y-342482786D01*
X284324971Y-297875029D02*
X284248943Y-297799000D01*
X284248942Y-297799000D02*
X280500000Y-297799000D01*
X218500000Y-354800000D02*
X217467214Y-354800000D01*
X286800000Y-300350057D02*
X284324971Y-297875029D01*
X205150000Y-342482786D02*
X205150000Y-337000000D01*
X286800000Y-316000000D02*
X286800000Y-300350057D01*
%TO.N,!DEC*%
X223500000Y-355100000D02*
X209150000Y-340750000D01*
X209150000Y-340750000D02*
X209150000Y-336900000D01*
%TO.N,!RS*%
X227467214Y-355100000D02*
X213150000Y-340782786D01*
X228500000Y-355100000D02*
X227467214Y-355100000D01*
X213150000Y-340782786D02*
X213150000Y-336900000D01*
%TO.N,!NOT*%
X233500000Y-354800000D02*
X233500000Y-354101000D01*
X233500000Y-354101000D02*
X216299000Y-336900000D01*
%TO.N,!AND*%
X237099000Y-355000000D02*
X219599000Y-337500000D01*
X266100000Y-309800000D02*
X274300000Y-309800000D01*
X274300000Y-309800000D02*
X274700000Y-309400000D01*
X238500000Y-355000000D02*
X237099000Y-355000000D01*
%TO.N,!OR*%
X243500000Y-355000000D02*
X226111500Y-337611500D01*
X226111500Y-337611500D02*
X223599000Y-337611500D01*
X266000000Y-312200000D02*
X277700000Y-312200000D01*
%TO.N,!XOR*%
X245099000Y-355000000D02*
X227599000Y-337500000D01*
X261200000Y-313700000D02*
X269500000Y-305400000D01*
X269500000Y-305400000D02*
X274800000Y-305400000D01*
X248500000Y-355000000D02*
X245099000Y-355000000D01*
%TO.N,!ADD*%
X253500000Y-355000000D02*
X236000000Y-337500000D01*
X259350057Y-314700000D02*
X275650057Y-298400000D01*
X275650057Y-298400000D02*
X277700000Y-298400000D01*
X259300000Y-314700000D02*
X259350057Y-314700000D01*
X236000000Y-337500000D02*
X231599000Y-337500000D01*
%TO.N,!ADC*%
X270500000Y-317300000D02*
X271500000Y-316300000D01*
X284400000Y-306349943D02*
X284400000Y-298800000D01*
X271500000Y-316300000D02*
X274449943Y-316300000D01*
X258500000Y-355000000D02*
X257267214Y-355000000D01*
X265000000Y-317300000D02*
X270500000Y-317300000D01*
X274449943Y-316300000D02*
X284400000Y-306349943D01*
X257267214Y-355000000D02*
X237745984Y-335478770D01*
X237745984Y-335478770D02*
X237745984Y-332045984D01*
%TO.N,!MOV*%
X267300000Y-316000000D02*
X269300000Y-316000000D01*
X241300000Y-332000000D02*
X241300000Y-332500000D01*
X269300000Y-316000000D02*
X272200000Y-313100000D01*
X241300000Y-332800000D02*
X241300000Y-332500000D01*
X246600000Y-326700000D02*
X241300000Y-332000000D01*
X263500000Y-355000000D02*
X241300000Y-332800000D01*
%TO.N,Net-(Q17-G)*%
X277600000Y-379500000D02*
X292000000Y-379500000D01*
X276700000Y-369200000D02*
X292000000Y-369200000D01*
X170800000Y-356300000D02*
X170800000Y-398200000D01*
X160900000Y-356200000D02*
X160900000Y-398200000D01*
X278000000Y-348700000D02*
X292000000Y-348700000D01*
X180900000Y-356300000D02*
X180900000Y-398200000D01*
X190900000Y-356300000D02*
X190900000Y-398200000D01*
X292000000Y-358500000D02*
X277900000Y-358500000D01*
X151000000Y-356300000D02*
X151000000Y-398200000D01*
X135100000Y-395100000D02*
X138200000Y-398200000D01*
X135100000Y-391100000D02*
X135100000Y-395100000D01*
%TO.N,Net-(Q15-G)*%
X186000000Y-397400000D02*
X185900000Y-397500000D01*
X280801000Y-352999000D02*
X280700000Y-353100000D01*
X280600000Y-374200000D02*
X291400000Y-374200000D01*
X142600000Y-364300000D02*
X142600000Y-397500000D01*
X135700000Y-394500000D02*
X138700000Y-397500000D01*
X291400000Y-352999000D02*
X280801000Y-352999000D01*
X165800000Y-360300000D02*
X165800000Y-397500000D01*
X142400000Y-364100000D02*
X142600000Y-364300000D01*
X135700000Y-387300000D02*
X135700000Y-394500000D01*
X135100000Y-386700000D02*
X135700000Y-387300000D01*
X186000000Y-360300000D02*
X186000000Y-397400000D01*
%TO.N,Net-(Q21-G)*%
X225800000Y-364300000D02*
X225800000Y-396800000D01*
X277800000Y-337400000D02*
X290800000Y-337400000D01*
X206100000Y-364300000D02*
X206100000Y-396800000D01*
X136200000Y-383500000D02*
X135000000Y-382300000D01*
X215800000Y-396700000D02*
X215700000Y-396800000D01*
X195700000Y-396800000D02*
X195800000Y-396700000D01*
X136200000Y-393800000D02*
X136200000Y-383500000D01*
X215800000Y-364300000D02*
X215800000Y-396700000D01*
X156000000Y-364300000D02*
X156000000Y-396800000D01*
X195800000Y-396700000D02*
X195800000Y-364400000D01*
X139200000Y-396800000D02*
X136200000Y-393800000D01*
%TO.N,Net-(Q25-G)*%
X139700000Y-396100000D02*
X136600000Y-393000000D01*
X136600000Y-393000000D02*
X136600000Y-379500000D01*
X210700000Y-368300000D02*
X210700000Y-396100000D01*
X175800000Y-368300000D02*
X175800000Y-396100000D01*
X136600000Y-379500000D02*
X135100000Y-378000000D01*
X230900000Y-368200000D02*
X230900000Y-396100000D01*
%TO.N,Net-(Q40-G)*%
X137000000Y-392200000D02*
X137000000Y-375400000D01*
X255800000Y-372200000D02*
X255800000Y-395400000D01*
X140200000Y-395400000D02*
X137000000Y-392200000D01*
X235800000Y-372300000D02*
X235800000Y-395400000D01*
X135100000Y-373500000D02*
X137000000Y-375400000D01*
X200900000Y-372200000D02*
X200900000Y-395400000D01*
X246000000Y-372300000D02*
X246000000Y-395400000D01*
%TO.N,Net-(Q53-G)*%
X220800000Y-376300000D02*
X220800000Y-394700000D01*
X135200000Y-369200000D02*
X137400000Y-371400000D01*
X140700000Y-394700000D02*
X137400000Y-391400000D01*
X250900000Y-376300000D02*
X250900000Y-394700000D01*
X137400000Y-391400000D02*
X137400000Y-371400000D01*
%TO.N,Net-(Q57-G)*%
X141200000Y-394000000D02*
X137801000Y-390601000D01*
X240800000Y-393900000D02*
X240700000Y-394000000D01*
X137801000Y-390601000D02*
X137801000Y-367501000D01*
X137801000Y-367501000D02*
X135100000Y-364800000D01*
X240800000Y-380300000D02*
X240800000Y-393900000D01*
%TO.N,Net-(Q603-D)*%
X141700000Y-393300000D02*
X138202000Y-389802000D01*
X138202000Y-363502000D02*
X135200000Y-360500000D01*
X138202000Y-389802000D02*
X138202000Y-363502000D01*
X260900000Y-384300000D02*
X261500000Y-384900000D01*
X261500000Y-384900000D02*
X261500000Y-393300000D01*
%TO.N,Net-(Q10-G)*%
X145706250Y-380806250D02*
X145706250Y-387593750D01*
X259800000Y-381900000D02*
X259800000Y-387600000D01*
X145706250Y-387593750D02*
X145700000Y-387600000D01*
%TO.N,Net-(Q11-G)*%
X144899000Y-377701000D02*
X145100000Y-377902000D01*
X259200000Y-378400000D02*
X259200000Y-388300000D01*
X240200000Y-377600000D02*
X240200000Y-388300000D01*
X145100000Y-377902000D02*
X145100000Y-388300000D01*
%TO.N,Net-(Q12-G)*%
X258600000Y-389000000D02*
X258600000Y-375000000D01*
X239600000Y-374200000D02*
X239600000Y-389000000D01*
X144500000Y-374600000D02*
X144500000Y-377450057D01*
X144500000Y-377450057D02*
X144498000Y-377452057D01*
X144498000Y-377949943D02*
X144500000Y-377951943D01*
X220200000Y-373400000D02*
X220200000Y-389000000D01*
X144499000Y-388548943D02*
X144500000Y-388549943D01*
X144500000Y-388549943D02*
X144500000Y-389000000D01*
X144500000Y-377951943D02*
X144500000Y-388050057D01*
X144300000Y-374400000D02*
X144500000Y-374600000D01*
X144500000Y-388050057D02*
X144499000Y-388051057D01*
X250300000Y-373500000D02*
X250300000Y-389000000D01*
X144499000Y-388051057D02*
X144499000Y-388548943D01*
X144498000Y-377452057D02*
X144498000Y-377949943D01*
%TO.N,Net-(Q13-G)*%
X219600000Y-369900000D02*
X219600000Y-389700000D01*
X143900000Y-371100000D02*
X143900000Y-389700000D01*
X143700000Y-370900000D02*
X143900000Y-371100000D01*
X200300000Y-369300000D02*
X200300000Y-389700000D01*
%TO.N,Net-(Q14-G)*%
X230300000Y-365300000D02*
X230300000Y-390400000D01*
X278300000Y-333100000D02*
X288400000Y-333100000D01*
X175200000Y-365400000D02*
X175200000Y-390400000D01*
X143300000Y-367700000D02*
X143300000Y-390400000D01*
X199700000Y-365900000D02*
X199700000Y-390400000D01*
X143100000Y-367500000D02*
X143300000Y-367700000D01*
X210100000Y-365600000D02*
X210100000Y-390400000D01*
X288400000Y-343400000D02*
X278200000Y-343400000D01*
X219000000Y-366600000D02*
X219000000Y-390400000D01*
%TO.N,Net-(Q18-G)*%
X281200000Y-363400000D02*
X282400000Y-364600000D01*
X195200000Y-361500000D02*
X195200000Y-391100000D01*
X174600000Y-362000000D02*
X174600000Y-391100000D01*
X155400000Y-361200000D02*
X155400000Y-391100000D01*
X282400000Y-364600000D02*
X289000000Y-364600000D01*
X279800000Y-384700000D02*
X279800000Y-391100000D01*
%TO.N,Net-(Q1-D)*%
X289600000Y-374800000D02*
X278100000Y-374800000D01*
X142000000Y-361000000D02*
X142000000Y-391800000D01*
X278050000Y-374750000D02*
X277850000Y-374750000D01*
X154799000Y-357801000D02*
X154799000Y-391799000D01*
X279200000Y-365200000D02*
X289600000Y-365200000D01*
X278100000Y-374800000D02*
X278050000Y-374750000D01*
X185400000Y-357200000D02*
X185400000Y-391800000D01*
X278000000Y-364000000D02*
X279200000Y-365200000D01*
X154799000Y-391799000D02*
X154800000Y-391800000D01*
X141800000Y-360800000D02*
X142000000Y-361000000D01*
X275800000Y-384700000D02*
X275800000Y-391800000D01*
X289600000Y-353700000D02*
X278100000Y-353700000D01*
X165200000Y-357500000D02*
X165200000Y-391800000D01*
X194600000Y-358000000D02*
X194600000Y-391800000D01*
X154800000Y-357800000D02*
X154799000Y-357801000D01*
X174000000Y-358600000D02*
X174000000Y-391800000D01*
D16*
%TO.N,Faling Edge*%
X125799000Y-251999000D02*
X122750000Y-248950000D01*
X146260000Y-215400000D02*
X153560000Y-208100000D01*
X130900000Y-278400000D02*
X125799000Y-273299000D01*
X224060000Y-214960000D02*
X224060000Y-215400000D01*
X122750000Y-248950000D02*
X121800000Y-248000000D01*
X217200000Y-208100000D02*
X224060000Y-214960000D01*
X122750000Y-248950000D02*
X121900000Y-248100000D01*
X121900000Y-248100000D02*
X121900000Y-246000000D01*
X153560000Y-208100000D02*
X217200000Y-208100000D01*
X125799000Y-273299000D02*
X125799000Y-251999000D01*
D15*
%TO.N,Rising Edge*%
X130800000Y-272122950D02*
X130900000Y-272022950D01*
D16*
X146260000Y-255502000D02*
X147511000Y-254251000D01*
X192300000Y-253400000D02*
X195600000Y-256700000D01*
X130900000Y-273500000D02*
X130900000Y-272022950D01*
X146260000Y-256521529D02*
X146260000Y-255900000D01*
X212600000Y-251300000D02*
X222360000Y-251300000D01*
X202900000Y-256700000D02*
X206700000Y-252900000D01*
X222360000Y-251300000D02*
X224060000Y-253000000D01*
D15*
X130800000Y-273500000D02*
X130800000Y-272122950D01*
D16*
X130900000Y-271881529D02*
X146260000Y-256521529D01*
X146260000Y-255900000D02*
X146260000Y-253000000D01*
X130900000Y-272022950D02*
X130900000Y-271881529D01*
X211000000Y-252900000D02*
X212600000Y-251300000D01*
X188449000Y-254251000D02*
X189300000Y-253400000D01*
X195600000Y-256700000D02*
X202900000Y-256700000D01*
X147511000Y-254251000D02*
X188449000Y-254251000D01*
X146260000Y-253000000D02*
X147511000Y-254251000D01*
X206700000Y-252900000D02*
X211000000Y-252900000D01*
X146260000Y-255900000D02*
X146260000Y-255502000D01*
X189300000Y-253400000D02*
X192300000Y-253400000D01*
D15*
%TO.N,Read New Instruction*%
X112300000Y-357800000D02*
X112300000Y-381680000D01*
X120100000Y-350000000D02*
X112300000Y-357800000D01*
X110000000Y-383980000D02*
X112300000Y-381680000D01*
%TO.N,Buss3*%
X296054000Y-206554000D02*
X296054000Y-228066500D01*
X296054000Y-228066500D02*
X297950000Y-229962500D01*
X295803218Y-206303218D02*
X296054000Y-206554000D01*
X295795552Y-206303218D02*
X295803218Y-206303218D01*
%TO.N,Buss2*%
X296254702Y-205645298D02*
X296455000Y-205845596D01*
X296455000Y-223467500D02*
X298350000Y-225362500D01*
X296455000Y-205845596D02*
X296455000Y-223467500D01*
%TO.N,rst*%
X129951000Y-214249000D02*
X140029000Y-214249000D01*
X313280000Y-256340000D02*
X313340000Y-256340000D01*
X141200000Y-248300000D02*
X141180000Y-248320000D01*
X115724265Y-228475735D02*
X129951000Y-214249000D01*
X149180000Y-207400000D02*
X141180000Y-215400000D01*
X141180000Y-248320000D02*
X141180000Y-253000000D01*
X140029000Y-214249000D02*
X141180000Y-215400000D01*
X213900000Y-207400000D02*
X149180000Y-207400000D01*
X115724265Y-231224265D02*
X115724265Y-228475735D01*
%TO.N,Buss0*%
X297000000Y-204200000D02*
X300150000Y-207350000D01*
X300150000Y-207350000D02*
X300150000Y-215362500D01*
X300150000Y-215362500D02*
X301050000Y-216262500D01*
%TO.N,Buss6*%
X294851000Y-240363500D02*
X297950000Y-243462500D01*
X294400000Y-208500000D02*
X294851000Y-208951000D01*
X294851000Y-208951000D02*
X294851000Y-240363500D01*
%TO.N,Buss7*%
X294450000Y-209650000D02*
X294450000Y-244162500D01*
X294100000Y-209300000D02*
X294450000Y-209650000D01*
X294450000Y-244162500D02*
X298250000Y-247962500D01*
%TO.N,Buss4*%
X295653000Y-207353000D02*
X295653000Y-232065500D01*
X295300000Y-207000000D02*
X295653000Y-207353000D01*
X295653000Y-232065500D02*
X298050000Y-234462500D01*
D16*
%TO.N,CLOCK*%
X108051000Y-255231000D02*
X122343500Y-255231000D01*
X122343500Y-255231000D02*
X122481500Y-255369000D01*
X106800000Y-253980000D02*
X108051000Y-255231000D01*
D15*
%TO.N,Buss5*%
X295252000Y-208152000D02*
X294800000Y-207700000D01*
X295252000Y-236164500D02*
X295252000Y-208152000D01*
X298150000Y-239062500D02*
X295252000Y-236164500D01*
%TO.N,Buss1*%
X298850000Y-220162500D02*
X299450000Y-219562500D01*
X298850000Y-220862500D02*
X298850000Y-220162500D01*
X296504807Y-204885396D02*
X299450000Y-207830589D01*
X299450000Y-219562500D02*
X299450000Y-207830589D01*
%TO.N,ADR 13*%
X124800000Y-244317500D02*
X125282500Y-244317500D01*
X104000000Y-233676160D02*
X114641340Y-244317500D01*
X176298000Y-243203000D02*
X177400000Y-242101000D01*
X185226057Y-241800000D02*
X185227057Y-241801000D01*
X125283800Y-244317500D02*
X126398300Y-243203000D01*
X114641340Y-244317500D02*
X124600000Y-244317500D01*
X104000000Y-222680000D02*
X104000000Y-233676160D01*
X106800000Y-219880000D02*
X104000000Y-222680000D01*
X124600000Y-244317500D02*
X124800000Y-244317500D01*
X179734900Y-242102000D02*
X181267043Y-242102000D01*
X189276000Y-241800000D02*
X189976000Y-241100000D01*
X177400000Y-242101000D02*
X179733900Y-242101000D01*
X185725943Y-241800000D02*
X189276000Y-241800000D01*
X126398300Y-243203000D02*
X176298000Y-243203000D01*
X185227057Y-241801000D02*
X185724943Y-241801000D01*
X181569043Y-241800000D02*
X185226057Y-241800000D01*
X181267043Y-242102000D02*
X181569043Y-241800000D01*
X124600000Y-244317500D02*
X125283800Y-244317500D01*
X179733900Y-242101000D02*
X179734900Y-242102000D01*
X185724943Y-241801000D02*
X185725943Y-241800000D01*
%TO.N,ADR 10*%
X171700000Y-242000000D02*
X172600000Y-241100000D01*
X172600000Y-241100000D02*
X176352000Y-241100000D01*
X105248000Y-233222860D02*
X115139640Y-243114500D01*
X125900000Y-242000000D02*
X171700000Y-242000000D01*
X124785500Y-243114500D02*
X125900000Y-242000000D01*
X105248000Y-229052000D02*
X105248000Y-233222860D01*
X106800000Y-227500000D02*
X105248000Y-229052000D01*
X115139640Y-243114500D02*
X124785500Y-243114500D01*
%TO.N,ADR 6*%
X112600000Y-220600000D02*
X109340000Y-217340000D01*
X118894000Y-236994000D02*
X112600000Y-230700000D01*
X156700000Y-239500000D02*
X154194000Y-236994000D01*
X112600000Y-230700000D02*
X112600000Y-220600000D01*
X154194000Y-236994000D02*
X118894000Y-236994000D01*
%TO.N,ADR 15*%
X190899000Y-241701000D02*
X190000000Y-242600000D01*
X198976000Y-241100000D02*
X198375000Y-241701000D01*
X189609200Y-242601000D02*
X189608200Y-242602000D01*
X184893857Y-242602000D02*
X181901243Y-242602000D01*
X190000000Y-242600000D02*
X189917100Y-242600000D01*
X189917100Y-242600000D02*
X189916100Y-242601000D01*
X189608200Y-242602000D02*
X186058143Y-242602000D01*
X103198000Y-218402000D02*
X106800000Y-214800000D01*
X126814500Y-244005000D02*
X125700000Y-245119500D01*
X125700000Y-245119500D02*
X114309140Y-245119500D01*
X103198000Y-234008360D02*
X103198000Y-218402000D01*
X181901243Y-242602000D02*
X181599243Y-242904000D01*
X186058143Y-242602000D02*
X186057143Y-242603000D01*
X189916100Y-242601000D02*
X189609200Y-242601000D01*
X186057143Y-242603000D02*
X184894857Y-242603000D01*
X177731200Y-242904000D02*
X176630200Y-244005000D01*
X176630200Y-244005000D02*
X126814500Y-244005000D01*
X181599243Y-242904000D02*
X177731200Y-242904000D01*
X184894857Y-242603000D02*
X184893857Y-242602000D01*
X198375000Y-241701000D02*
X190899000Y-241701000D01*
X114309140Y-245119500D02*
X103198000Y-234008360D01*
%TO.N,ADR 7*%
X113000000Y-230200000D02*
X113000000Y-218460000D01*
X119393000Y-236593000D02*
X113000000Y-230200000D01*
X113000000Y-218460000D02*
X109340000Y-214800000D01*
X158393000Y-236593000D02*
X119393000Y-236593000D01*
X161200000Y-239400000D02*
X158393000Y-236593000D01*
%TO.N,ADR 0*%
X116360000Y-239600000D02*
X109340000Y-232580000D01*
X129700000Y-239600000D02*
X116360000Y-239600000D01*
%TO.N,ADR 2*%
X138800000Y-239600000D02*
X137798000Y-238598000D01*
X137798000Y-238598000D02*
X118198000Y-238598000D01*
X109340000Y-227740000D02*
X109340000Y-227500000D01*
X110750000Y-231150000D02*
X110750000Y-229150000D01*
X110750000Y-229150000D02*
X109340000Y-227740000D01*
X118198000Y-238598000D02*
X110750000Y-231150000D01*
%TO.N,ADR 5*%
X112161000Y-222701000D02*
X109340000Y-219880000D01*
X118729200Y-237395000D02*
X112161000Y-230826800D01*
X149995000Y-237395000D02*
X118729200Y-237395000D01*
X112161000Y-230826800D02*
X112161000Y-222701000D01*
X152200000Y-239600000D02*
X149995000Y-237395000D01*
%TO.N,ADR 9*%
X105649000Y-233056760D02*
X105649000Y-231191000D01*
X171200000Y-241600000D02*
X125700000Y-241600000D01*
X125700000Y-241600000D02*
X124586500Y-242713500D01*
X105649000Y-231191000D02*
X106800000Y-230040000D01*
X171700000Y-241100000D02*
X171200000Y-241600000D01*
X124586500Y-242713500D02*
X115305740Y-242713500D01*
X115305740Y-242713500D02*
X105649000Y-233056760D01*
%TO.N,ADR 3*%
X118397000Y-238197000D02*
X111290000Y-231090000D01*
X141797000Y-238197000D02*
X118397000Y-238197000D01*
X111290000Y-226910000D02*
X109340000Y-224960000D01*
X111290000Y-231090000D02*
X111290000Y-226910000D01*
X143200000Y-239600000D02*
X141797000Y-238197000D01*
%TO.N,ADR 4*%
X145996000Y-237796000D02*
X118563100Y-237796000D01*
X111760000Y-230992900D02*
X111760000Y-224840000D01*
X111760000Y-224840000D02*
X109340000Y-222420000D01*
X147700000Y-239500000D02*
X145996000Y-237796000D01*
X118563100Y-237796000D02*
X111760000Y-230992900D01*
%TO.N,ADR 1*%
X129400000Y-239000000D02*
X117600000Y-239000000D01*
X117600000Y-239000000D02*
X109340000Y-230740000D01*
X109340000Y-230740000D02*
X109340000Y-230040000D01*
X129401000Y-238999000D02*
X129400000Y-239000000D01*
X134300000Y-239600000D02*
X133699000Y-238999000D01*
X133699000Y-238999000D02*
X129401000Y-238999000D01*
%TO.N,ADR 8*%
X167352000Y-241000000D02*
X125612500Y-241000000D01*
X106800000Y-233640660D02*
X106800000Y-232580000D01*
X125612500Y-241000000D02*
X124300000Y-242312500D01*
X124300000Y-242312500D02*
X115471840Y-242312500D01*
X115471840Y-242312500D02*
X106800000Y-233640660D01*
%TO.N,ADR 14*%
X185892043Y-242201000D02*
X189442100Y-242201000D01*
X114475240Y-244718500D02*
X125449900Y-244718500D01*
X179568800Y-242503000D02*
X181433143Y-242503000D01*
X103599000Y-233842260D02*
X114475240Y-244718500D01*
X185060957Y-242202000D02*
X185891043Y-242202000D01*
X185891043Y-242202000D02*
X185892043Y-242201000D01*
X189750000Y-242200000D02*
X190850000Y-241100000D01*
X177566100Y-242502000D02*
X179567800Y-242502000D01*
X189442100Y-242201000D02*
X189443100Y-242200000D01*
X176464100Y-243604000D02*
X177566100Y-242502000D01*
X179567800Y-242502000D02*
X179568800Y-242503000D01*
X189443100Y-242200000D02*
X189750000Y-242200000D01*
X185059957Y-242201000D02*
X185060957Y-242202000D01*
X190850000Y-241100000D02*
X194476000Y-241100000D01*
X181433143Y-242503000D02*
X181735143Y-242201000D01*
X103599000Y-220541000D02*
X103599000Y-233842260D01*
X106800000Y-217340000D02*
X103599000Y-220541000D01*
X126564400Y-243604000D02*
X176464100Y-243604000D01*
X125449900Y-244718500D02*
X126564400Y-243604000D01*
X181735143Y-242201000D02*
X185059957Y-242201000D01*
%TO.N,ADR 11*%
X104847000Y-226913000D02*
X106800000Y-224960000D01*
X124951600Y-243515500D02*
X114973540Y-243515500D01*
X180852000Y-241100000D02*
X177201943Y-241100000D01*
X175900943Y-242401000D02*
X126066100Y-242401000D01*
X114973540Y-243515500D02*
X104847000Y-233388960D01*
X126066100Y-242401000D02*
X124951600Y-243515500D01*
X104847000Y-233388960D02*
X104847000Y-226913000D01*
X177201943Y-241100000D02*
X175900943Y-242401000D01*
%TO.N,ADR 12*%
X104446000Y-233555060D02*
X104446000Y-224774000D01*
X181601943Y-241200000D02*
X181100943Y-241701000D01*
X177169043Y-241700000D02*
X176067043Y-242802000D01*
X185476000Y-241200000D02*
X181601943Y-241200000D01*
X125117700Y-243916500D02*
X114807440Y-243916500D01*
X114807440Y-243916500D02*
X104446000Y-233555060D01*
X176067043Y-242802000D02*
X126232200Y-242802000D01*
X181100943Y-241701000D02*
X179901000Y-241701000D01*
X104446000Y-224774000D02*
X106800000Y-222420000D01*
X179901000Y-241701000D02*
X179900000Y-241700000D01*
X126232200Y-242802000D02*
X125117700Y-243916500D01*
X179900000Y-241700000D02*
X177169043Y-241700000D01*
%TO.N,OR*%
X283700000Y-313000000D02*
X282700000Y-312000000D01*
X285900000Y-313000000D02*
X283700000Y-313000000D01*
%TO.N,A ->ALU B*%
X277799000Y-338001000D02*
X291048943Y-338001000D01*
X274300000Y-341500000D02*
X277799000Y-338001000D01*
X318700000Y-254080000D02*
X315880000Y-251260000D01*
X318700000Y-310349943D02*
X318700000Y-254080000D01*
X291048943Y-338001000D02*
X318700000Y-310349943D01*
%TO.N,ALU B = FF*%
X308699000Y-255901000D02*
X313340000Y-251260000D01*
X272800000Y-303400000D02*
X273549943Y-303400000D01*
X308699000Y-268250943D02*
X308699000Y-255901000D01*
X273549943Y-303400000D02*
X308699000Y-268250943D01*
%TO.N,C ->ALU A*%
X291650943Y-352400000D02*
X293300000Y-352400000D01*
X319500000Y-326200000D02*
X319500000Y-249800000D01*
X291149057Y-352400000D02*
X291151057Y-352398000D01*
X319500000Y-249800000D02*
X315880000Y-246180000D01*
X293300000Y-352400000D02*
X319500000Y-326200000D01*
X274600000Y-352400000D02*
X291149057Y-352400000D01*
X291648943Y-352398000D02*
X291650943Y-352400000D01*
X291151057Y-352398000D02*
X291648943Y-352398000D01*
X274500000Y-352500000D02*
X274600000Y-352400000D01*
%TO.N,D ->ALU A*%
X315880000Y-248720000D02*
X319100000Y-251940000D01*
X319100000Y-313900000D02*
X285500000Y-347500000D01*
X319100000Y-251940000D02*
X319100000Y-313900000D01*
X285500000Y-347500000D02*
X274100000Y-347500000D01*
%TO.N,B ->ALU B*%
X318200000Y-304267100D02*
X318200000Y-256120000D01*
X318200000Y-256120000D02*
X315880000Y-253800000D01*
X274200000Y-336600000D02*
X285867100Y-336600000D01*
X285867100Y-336600000D02*
X318200000Y-304267100D01*
%TO.N,B ->ALU A*%
X291300000Y-357500000D02*
X274300000Y-357500000D01*
X315880000Y-243640000D02*
X319901000Y-247661000D01*
X319901000Y-247661000D02*
X319901000Y-328899000D01*
X319901000Y-328899000D02*
X291300000Y-357500000D01*
%TO.N,A ->ALU A*%
X277501000Y-365801000D02*
X289848943Y-365801000D01*
X320302000Y-335347944D02*
X320302000Y-245522000D01*
X289848943Y-365801000D02*
X320302000Y-335347944D01*
X274300000Y-362600000D02*
X277501000Y-365801000D01*
X320302000Y-245522000D02*
X315880000Y-241100000D01*
%TO.N,C ->ALU B*%
X317800000Y-304100000D02*
X317800000Y-258260000D01*
X290400000Y-331500000D02*
X317800000Y-304100000D01*
X274400000Y-331500000D02*
X290400000Y-331500000D01*
X317800000Y-258260000D02*
X315880000Y-256340000D01*
%TO.N,D ->ALU B*%
X315880000Y-258880000D02*
X315880000Y-303420000D01*
X293000000Y-326300000D02*
X315880000Y-303420000D01*
X274300000Y-326300000D02*
X293000000Y-326300000D01*
%TO.N,REG Read*%
X270799000Y-361299000D02*
X247898000Y-338398000D01*
X281467214Y-384300000D02*
X270799000Y-373631786D01*
X247898000Y-338398000D02*
X247898000Y-328339500D01*
X270799000Y-373631786D02*
X270799000Y-361299000D01*
X247898000Y-328339500D02*
X250200000Y-326037500D01*
X283000000Y-384300000D02*
X281467214Y-384300000D01*
%TO.N,REG -> ALU B*%
X283200000Y-342500000D02*
X255362500Y-342500000D01*
X255362500Y-342500000D02*
X248900000Y-336037500D01*
%TO.N,REG -> ALU A*%
X269301000Y-359101000D02*
X248299000Y-338099000D01*
X248299000Y-338099000D02*
X248299000Y-331738500D01*
X278701000Y-359101000D02*
X269301000Y-359101000D01*
X248299000Y-331738500D02*
X249000000Y-331037500D01*
X283200000Y-363600000D02*
X278701000Y-359101000D01*
%TO.N,READ FALG*%
X131223718Y-298400282D02*
X131223718Y-299124000D01*
X136200000Y-293424000D02*
X131223718Y-298400282D01*
X131223718Y-295000000D02*
X131223718Y-312477000D01*
D16*
%TO.N,Store Address ++*%
X205876000Y-227511500D02*
X276801000Y-227511500D01*
D15*
X119900000Y-228111500D02*
X120500000Y-227511500D01*
X120500000Y-227511500D02*
X120500000Y-225800000D01*
D16*
%TO.N,Net-(Q170-G)*%
X204876000Y-235811500D02*
X276801000Y-235811500D01*
D15*
%TO.N,Net-(Q204-G)*%
X271200000Y-269400000D02*
X271200000Y-266700000D01*
X265993750Y-274606250D02*
X271200000Y-269400000D01*
%TO.N,Net-(Q205-G)*%
X257993750Y-274606250D02*
X263200000Y-269400000D01*
X263200000Y-269400000D02*
X263200000Y-266700000D01*
%TO.N,Net-(Q206-G)*%
X249993750Y-272006250D02*
X255200000Y-266800000D01*
X249993750Y-274606250D02*
X249993750Y-272006250D01*
%TO.N,Net-(Q207-G)*%
X241993750Y-274606250D02*
X247200000Y-269400000D01*
X247200000Y-269400000D02*
X247200000Y-266700000D01*
%TO.N,Net-(Q208-G)*%
X233993750Y-274606250D02*
X239100000Y-269500000D01*
X239100000Y-269500000D02*
X239100000Y-266900000D01*
%TO.N,Net-(Q209-G)*%
X225993750Y-274606250D02*
X231100000Y-269500000D01*
X231100000Y-269500000D02*
X231100000Y-266600000D01*
%TO.N,Net-(Q210-G)*%
X223000000Y-269600000D02*
X223000000Y-266700000D01*
X217993750Y-274606250D02*
X223000000Y-269600000D01*
%TO.N,Net-(Q211-G)*%
X215100000Y-269500000D02*
X215100000Y-266600000D01*
X209993750Y-274606250D02*
X215100000Y-269500000D01*
%TO.N,Net-(Q212-G)*%
X202043750Y-274656250D02*
X202043750Y-267956250D01*
X202043750Y-267956250D02*
X206000000Y-264000000D01*
%TO.N,Net-(Q213-G)*%
X194000000Y-274700000D02*
X194000000Y-268000000D01*
X194000000Y-268000000D02*
X198000000Y-264000000D01*
%TO.N,Net-(Q214-G)*%
X185993750Y-274606250D02*
X185993750Y-269064282D01*
X185993750Y-269064282D02*
X191529016Y-263529016D01*
%TO.N,Net-(Q215-G)*%
X177993750Y-269064282D02*
X183329016Y-263729016D01*
X177993750Y-274606250D02*
X177993750Y-269064282D01*
%TO.N,Net-(Q216-G)*%
X169993750Y-274606250D02*
X169993750Y-269064282D01*
X169993750Y-269064282D02*
X175579016Y-263479016D01*
%TO.N,Net-(Q217-G)*%
X162100000Y-269912500D02*
X167906250Y-264106250D01*
X162100000Y-274700000D02*
X162100000Y-269912500D01*
%TO.N,Net-(Q218-G)*%
X154043750Y-272056250D02*
X154043750Y-274656250D01*
X159200000Y-266900000D02*
X154043750Y-272056250D01*
D16*
%TO.N,Read From stored Address*%
X128076000Y-227511500D02*
X198852000Y-227511500D01*
D15*
%TO.N,NEXT ADR 0*%
X198541100Y-242102000D02*
X191065100Y-242102000D01*
X184727757Y-243003000D02*
X182067343Y-243003000D01*
X190083200Y-243001000D02*
X190082200Y-243002000D01*
X191065100Y-242102000D02*
X190166100Y-243001000D01*
X177897300Y-243305000D02*
X176796300Y-244406000D01*
X189775300Y-243002000D02*
X189774300Y-243003000D01*
X186223243Y-243004000D02*
X184728757Y-243004000D01*
X198543100Y-242100000D02*
X198541100Y-242102000D01*
X176796300Y-244406000D02*
X157394000Y-244406000D01*
X184728757Y-243004000D02*
X184727757Y-243003000D01*
X202600000Y-240200000D02*
X200700000Y-242100000D01*
X200700000Y-242100000D02*
X198543100Y-242100000D01*
X181765343Y-243305000D02*
X177897300Y-243305000D01*
X190082200Y-243002000D02*
X189775300Y-243002000D01*
X186224243Y-243003000D02*
X186223243Y-243004000D01*
X182067343Y-243003000D02*
X181765343Y-243305000D01*
X189774300Y-243003000D02*
X186224243Y-243003000D01*
X157394000Y-244406000D02*
X148800000Y-253000000D01*
X190166100Y-243001000D02*
X190083200Y-243001000D01*
X209100000Y-240200000D02*
X202600000Y-240200000D01*
%TO.N,NEXT ADR 1*%
X200533900Y-242501000D02*
X200531900Y-242503000D01*
X190396000Y-243404000D02*
X182233443Y-243404000D01*
X182233443Y-243404000D02*
X181931443Y-243706000D01*
X200531900Y-242503000D02*
X191297000Y-242503000D01*
X202567100Y-240800000D02*
X200866100Y-242501000D01*
X213500000Y-240100000D02*
X212800000Y-240800000D01*
X200866100Y-242501000D02*
X200533900Y-242501000D01*
X191297000Y-242503000D02*
X190396000Y-243404000D01*
X212800000Y-240800000D02*
X202567100Y-240800000D01*
X176962400Y-244807000D02*
X159533000Y-244807000D01*
X159533000Y-244807000D02*
X151340000Y-253000000D01*
X181931443Y-243706000D02*
X178063400Y-243706000D01*
X178063400Y-243706000D02*
X176962400Y-244807000D01*
%TO.N,NEXT ADR 2*%
X217099000Y-241201000D02*
X218000000Y-240300000D01*
X153880000Y-253000000D02*
X160079000Y-246801000D01*
X182097543Y-244107000D02*
X182399543Y-243805000D01*
X177128500Y-245208000D02*
X178229500Y-244107000D01*
X160079000Y-246801000D02*
X164207000Y-246801000D01*
X182399543Y-243805000D02*
X190562100Y-243805000D01*
X191463100Y-242904000D02*
X200698000Y-242904000D01*
X200698000Y-242904000D02*
X200700000Y-242902000D01*
X201032200Y-242902000D02*
X202733200Y-241201000D01*
X202733200Y-241201000D02*
X217099000Y-241201000D01*
X178229500Y-244107000D02*
X182097543Y-244107000D01*
X164207000Y-246801000D02*
X165800000Y-245208000D01*
X200700000Y-242902000D02*
X201032200Y-242902000D01*
X190562100Y-243805000D02*
X191463100Y-242904000D01*
X165800000Y-245208000D02*
X177128500Y-245208000D01*
%TO.N,NEXT ADR 3*%
X182263643Y-244508000D02*
X182565643Y-244206000D01*
X156420000Y-253000000D02*
X159224000Y-250196000D01*
X201197000Y-243303000D02*
X202898000Y-241602000D01*
X200864100Y-243305000D02*
X200866100Y-243303000D01*
X165991000Y-245609000D02*
X177294600Y-245609000D01*
X182565643Y-244206000D02*
X190728200Y-244206000D01*
X190728200Y-244206000D02*
X191629200Y-243305000D01*
X178395600Y-244508000D02*
X182263643Y-244508000D01*
X159224000Y-250176000D02*
X162100000Y-247300000D01*
X202898000Y-241602000D02*
X221674000Y-241602000D01*
X162100000Y-247300000D02*
X164300000Y-247300000D01*
X159224000Y-250196000D02*
X159224000Y-250176000D01*
X191629200Y-243305000D02*
X200864100Y-243305000D01*
X177294600Y-245609000D02*
X178395600Y-244508000D01*
X221674000Y-241602000D02*
X222776000Y-240500000D01*
X200866100Y-243303000D02*
X201197000Y-243303000D01*
X164300000Y-247300000D02*
X165991000Y-245609000D01*
%TO.N,NEXT ADR 4*%
X201363100Y-243704000D02*
X201032200Y-243704000D01*
X164259000Y-247701000D02*
X158960000Y-253000000D01*
X225797000Y-242003000D02*
X203064100Y-242003000D01*
X182429743Y-244909000D02*
X178561700Y-244909000D01*
X191795300Y-243706000D02*
X190894300Y-244607000D01*
X201032200Y-243704000D02*
X201030200Y-243706000D01*
X178561700Y-244909000D02*
X177460700Y-246010000D01*
X201030200Y-243706000D02*
X191795300Y-243706000D01*
X203064100Y-242003000D02*
X201363100Y-243704000D01*
X227200000Y-240600000D02*
X225797000Y-242003000D01*
X182731743Y-244607000D02*
X182429743Y-244909000D01*
X190894300Y-244607000D02*
X182731743Y-244607000D01*
X166157100Y-246010000D02*
X164466100Y-247701000D01*
X177460700Y-246010000D02*
X166157100Y-246010000D01*
X164466100Y-247701000D02*
X164259000Y-247701000D01*
%TO.N,NEXT ADR 5*%
X182107786Y-246801000D02*
X167699000Y-246801000D01*
X201196300Y-244107000D02*
X191961400Y-244107000D01*
X201529200Y-244105000D02*
X201198300Y-244105000D01*
X229896000Y-242404000D02*
X203230200Y-242404000D01*
X182577000Y-246331786D02*
X182107786Y-246801000D01*
X191961400Y-244107000D02*
X191060400Y-245008000D01*
X167699000Y-246801000D02*
X161500000Y-253000000D01*
X183892000Y-245008000D02*
X182577000Y-246323000D01*
X231700000Y-240600000D02*
X229896000Y-242404000D01*
X203230200Y-242404000D02*
X201529200Y-244105000D01*
X191060400Y-245008000D02*
X183892000Y-245008000D01*
X182577000Y-246323000D02*
X182577000Y-246331786D01*
X201198300Y-244105000D02*
X201196300Y-244107000D01*
%TO.N,NEXT ADR 6*%
X203396300Y-242805000D02*
X201693300Y-244508000D01*
X233895000Y-242805000D02*
X203396300Y-242805000D01*
X236200000Y-240500000D02*
X233895000Y-242805000D01*
X191226500Y-245409000D02*
X184058100Y-245409000D01*
X182978000Y-246489100D02*
X182978000Y-246497886D01*
X184058100Y-245409000D02*
X182978000Y-246489100D01*
X201693300Y-244508000D02*
X192127500Y-244508000D01*
X182273886Y-247202000D02*
X169838000Y-247202000D01*
X192127500Y-244508000D02*
X191226500Y-245409000D01*
X169838000Y-247202000D02*
X164040000Y-253000000D01*
X182978000Y-246497886D02*
X182273886Y-247202000D01*
%TO.N,NEXT ADR 7*%
X184224200Y-245810000D02*
X183379000Y-246655200D01*
X201859400Y-244909000D02*
X192293600Y-244909000D01*
X191392600Y-245810000D02*
X184224200Y-245810000D01*
X203562400Y-243206000D02*
X201859400Y-244909000D01*
X182439986Y-247603000D02*
X171977000Y-247603000D01*
X237794000Y-243206000D02*
X203562400Y-243206000D01*
X171977000Y-247603000D02*
X166580000Y-253000000D01*
X192293600Y-244909000D02*
X191392600Y-245810000D01*
X183379000Y-246663986D02*
X182439986Y-247603000D01*
X240600000Y-240400000D02*
X237794000Y-243206000D01*
X183379000Y-246655200D02*
X183379000Y-246663986D01*
%TO.N,NEXT ADR 8*%
X229772900Y-251800000D02*
X230124900Y-251448000D01*
X230124900Y-251448000D02*
X231633900Y-251448000D01*
X231633900Y-251448000D02*
X232034900Y-251047000D01*
X237652700Y-250646000D02*
X238501700Y-249797000D01*
X245579600Y-244700000D02*
X245700000Y-244700000D01*
X227800000Y-251800000D02*
X229772900Y-251800000D01*
X232034900Y-251047000D02*
X232831000Y-251047000D01*
X233232000Y-250646000D02*
X237652700Y-250646000D01*
X238501700Y-249797000D02*
X240482600Y-249797000D01*
X240482600Y-249797000D02*
X245579600Y-244700000D01*
X232831000Y-251047000D02*
X233232000Y-250646000D01*
X226600000Y-253000000D02*
X227800000Y-251800000D01*
%TO.N,NEXT ADR 9*%
X245604000Y-249396000D02*
X250400000Y-244600000D01*
X232201000Y-251448000D02*
X232997100Y-251448000D01*
X229140000Y-253000000D02*
X230291000Y-251849000D01*
X237818800Y-251047000D02*
X238667800Y-250198000D01*
X232997100Y-251448000D02*
X233398100Y-251047000D01*
X231800000Y-251849000D02*
X232201000Y-251448000D01*
X233398100Y-251047000D02*
X237818800Y-251047000D01*
X243800000Y-249396000D02*
X245604000Y-249396000D01*
X240648700Y-250198000D02*
X241002700Y-249844000D01*
X238667800Y-250198000D02*
X240648700Y-250198000D01*
X241002700Y-249844000D02*
X243352000Y-249844000D01*
X230291000Y-251849000D02*
X231800000Y-251849000D01*
X243352000Y-249844000D02*
X243800000Y-249396000D01*
%TO.N,NEXT ADR 10*%
X241168800Y-250245000D02*
X243852000Y-250245000D01*
X234400000Y-251849000D02*
X234801000Y-251448000D01*
X243852000Y-250245000D02*
X244300000Y-249797000D01*
X234801000Y-251448000D02*
X237984900Y-251448000D01*
X237984900Y-251448000D02*
X238833900Y-250599000D01*
X238833900Y-250599000D02*
X240814800Y-250599000D01*
X231680000Y-253000000D02*
X232831000Y-251849000D01*
X232831000Y-251849000D02*
X234400000Y-251849000D01*
X244300000Y-249797000D02*
X249603000Y-249797000D01*
X249603000Y-249797000D02*
X254800000Y-244600000D01*
X240814800Y-250599000D02*
X241168800Y-250245000D01*
%TO.N,NEXT ADR 11*%
X244500000Y-250198000D02*
X253302000Y-250198000D01*
X240980900Y-251000000D02*
X241334900Y-250646000D01*
X241334900Y-250646000D02*
X244052000Y-250646000D01*
X234220000Y-253000000D02*
X235371000Y-251849000D01*
X259100000Y-244400000D02*
X259400000Y-244400000D01*
X239000000Y-251000000D02*
X240980900Y-251000000D01*
X253302000Y-250198000D02*
X259100000Y-244400000D01*
X244052000Y-250646000D02*
X244500000Y-250198000D01*
X238151000Y-251849000D02*
X239000000Y-251000000D01*
X235371000Y-251849000D02*
X238151000Y-251849000D01*
%TO.N,NEXT ADR 12*%
X237600000Y-253000000D02*
X239152000Y-251448000D01*
X257401000Y-250599000D02*
X263700000Y-244300000D01*
X244800000Y-250599000D02*
X257401000Y-250599000D01*
X239152000Y-251448000D02*
X241100000Y-251448000D01*
X236760000Y-253000000D02*
X237600000Y-253000000D01*
X241100000Y-251448000D02*
X241501000Y-251047000D01*
X241501000Y-251047000D02*
X244352000Y-251047000D01*
X244352000Y-251047000D02*
X244800000Y-250599000D01*
%TO.N,NEXT ADR 13*%
X261100000Y-251000000D02*
X268100000Y-244000000D01*
X240451000Y-251849000D02*
X241800000Y-251849000D01*
X241800000Y-251849000D02*
X242201000Y-251448000D01*
X245100000Y-251000000D02*
X261100000Y-251000000D01*
X242201000Y-251448000D02*
X244652000Y-251448000D01*
X239300000Y-253000000D02*
X240451000Y-251849000D01*
X244652000Y-251448000D02*
X245100000Y-251000000D01*
%TO.N,NEXT ADR 14*%
X241840000Y-253000000D02*
X242991000Y-251849000D01*
X268600000Y-244500000D02*
X272900000Y-244500000D01*
X245400000Y-251400000D02*
X261700000Y-251400000D01*
X242991000Y-251849000D02*
X244951000Y-251849000D01*
X261700000Y-251400000D02*
X268600000Y-244500000D01*
X244951000Y-251849000D02*
X245400000Y-251400000D01*
%TO.N,NEXT ADR 15*%
X275000000Y-247100000D02*
X266600000Y-247100000D01*
X266600000Y-247100000D02*
X261900000Y-251800000D01*
X261900000Y-251800000D02*
X245580000Y-251800000D01*
X245580000Y-251800000D02*
X244380000Y-253000000D01*
X277300000Y-244800000D02*
X275000000Y-247100000D01*
D16*
%TO.N,Net-(Q332-G)*%
X126976000Y-235711500D02*
X131176000Y-235711500D01*
D15*
X131176000Y-235711500D02*
X131276000Y-235711500D01*
D16*
X131176000Y-235711500D02*
X198852000Y-235711500D01*
D15*
%TO.N,TIME STEP 0*%
X166200000Y-289800000D02*
X169100000Y-286900000D01*
%TO.N,!TIME STEP 0*%
X149499000Y-339699000D02*
X149499000Y-311301000D01*
X151800000Y-342000000D02*
X149499000Y-339699000D01*
X153375000Y-307425000D02*
X153375000Y-301400000D01*
X152200000Y-308600000D02*
X153375000Y-307425000D01*
X149499000Y-311301000D02*
X152200000Y-308600000D01*
%TO.N,TIME STEP 1*%
X148763500Y-301036500D02*
X149500000Y-300300000D01*
X148100000Y-331399000D02*
X148763500Y-330735500D01*
X148763500Y-330735500D02*
X148763500Y-301036500D01*
%TO.N,FLAG N*%
X171221000Y-292399000D02*
X148524718Y-292399000D01*
X176720000Y-286900000D02*
X171221000Y-292399000D01*
X148524718Y-292399000D02*
X144123718Y-296800000D01*
%TO.N,Net-(Q418-G)*%
X140223718Y-303200000D02*
X140223718Y-307800000D01*
X140223718Y-294900000D02*
X140223718Y-298600000D01*
X140223718Y-298600000D02*
X140223718Y-303200000D01*
X140223718Y-307800000D02*
X140223718Y-312300000D01*
%TO.N,FLAG STORE N*%
X125400000Y-294500000D02*
X125599000Y-294301000D01*
X125599000Y-294199700D02*
X127001700Y-292797000D01*
X154800000Y-288500000D02*
X156400000Y-286900000D01*
X125599000Y-294301000D02*
X125599000Y-294199700D01*
X127001700Y-292797000D02*
X133501700Y-292797000D01*
X133501700Y-292797000D02*
X135602700Y-290696000D01*
X135602700Y-290696000D02*
X137369800Y-290696000D01*
X139565800Y-288500000D02*
X154800000Y-288500000D01*
X137369800Y-290696000D02*
X139565800Y-288500000D01*
X125400000Y-297600000D02*
X125400000Y-294500000D01*
%TO.N,FLAG Z*%
X232950000Y-298400000D02*
X233400000Y-298850000D01*
X189430000Y-297070000D02*
X194519943Y-297070000D01*
X149023718Y-292800000D02*
X143923718Y-297900000D01*
X194519943Y-297070000D02*
X195849943Y-298400000D01*
X195849943Y-298400000D02*
X232950000Y-298400000D01*
X173360000Y-292800000D02*
X149023718Y-292800000D01*
X143923718Y-297900000D02*
X143823718Y-297900000D01*
X179260000Y-286900000D02*
X173360000Y-292800000D01*
%TO.N,FLAG STORE Z*%
X127167800Y-293198000D02*
X133667800Y-293198000D01*
X126000000Y-301400000D02*
X126000000Y-294365800D01*
X125400000Y-302000000D02*
X126000000Y-301400000D01*
X139767800Y-288998000D02*
X156842000Y-288998000D01*
X137535900Y-291097000D02*
X139633900Y-288999000D01*
X133667800Y-293198000D02*
X135768800Y-291097000D01*
X126000000Y-294365800D02*
X127167800Y-293198000D01*
X139766800Y-288999000D02*
X139767800Y-288998000D01*
X135768800Y-291097000D02*
X137535900Y-291097000D01*
X156842000Y-288998000D02*
X158940000Y-286900000D01*
X139633900Y-288999000D02*
X139766800Y-288999000D01*
%TO.N,FLAG U*%
X144312718Y-298987282D02*
X144312718Y-302700000D01*
X150100000Y-293200000D02*
X144312718Y-298987282D01*
X181800000Y-286900000D02*
X175500000Y-293200000D01*
X175500000Y-293200000D02*
X150100000Y-293200000D01*
%TO.N,FLAG STORE U*%
X127333900Y-293599000D02*
X133833900Y-293599000D01*
X125600000Y-306500000D02*
X126401000Y-305699000D01*
X137702000Y-291498000D02*
X139800000Y-289400000D01*
X139800000Y-289400000D02*
X139932900Y-289400000D01*
X126401000Y-294531900D02*
X127333900Y-293599000D01*
X139932900Y-289400000D02*
X139933900Y-289399000D01*
X126401000Y-305699000D02*
X126401000Y-294531900D01*
X135934900Y-291498000D02*
X137702000Y-291498000D01*
X139933900Y-289399000D02*
X158981000Y-289399000D01*
X133833900Y-293599000D02*
X135934900Y-291498000D01*
X158981000Y-289399000D02*
X161480000Y-286900000D01*
%TO.N,FLAG O*%
X177640000Y-293600000D02*
X184340000Y-286900000D01*
X151100000Y-293600000D02*
X177640000Y-293600000D01*
X145700000Y-305623718D02*
X145700000Y-299000000D01*
X144123718Y-307200000D02*
X145700000Y-305623718D01*
X145700000Y-299000000D02*
X151100000Y-293600000D01*
%TO.N,FLAG STORE O*%
X126802000Y-294698000D02*
X127500000Y-294000000D01*
X138001000Y-291899000D02*
X140100000Y-289800000D01*
X127500000Y-294000000D02*
X134132900Y-294000000D01*
X125600000Y-311100000D02*
X126802000Y-309898000D01*
X134132900Y-294000000D02*
X136233900Y-291899000D01*
X136233900Y-291899000D02*
X138001000Y-291899000D01*
X126802000Y-309898000D02*
X126802000Y-294698000D01*
X140100000Y-289800000D02*
X161120000Y-289800000D01*
X161120000Y-289800000D02*
X164020000Y-286900000D01*
%TO.N,FLAG C*%
X151299000Y-294001000D02*
X179779000Y-294001000D01*
X144223718Y-311300000D02*
X146101000Y-309422718D01*
X146101000Y-299199000D02*
X151299000Y-294001000D01*
X146101000Y-309422718D02*
X146101000Y-299199000D01*
X179779000Y-294001000D02*
X186880000Y-286900000D01*
X186880000Y-286900000D02*
X186900000Y-286920000D01*
%TO.N,FLAG STORE C*%
X125600000Y-315700000D02*
X127203000Y-314097000D01*
X127203000Y-314097000D02*
X127203000Y-295697000D01*
X163260000Y-290200000D02*
X166560000Y-286900000D01*
X136400000Y-292300000D02*
X148056618Y-292300000D01*
X148358618Y-291998000D02*
X159489100Y-291998000D01*
X127203000Y-295697000D02*
X128500000Y-294400000D01*
X134300000Y-294400000D02*
X136400000Y-292300000D01*
X128500000Y-294400000D02*
X134300000Y-294400000D01*
X148056618Y-292300000D02*
X148358618Y-291998000D01*
X159489100Y-291998000D02*
X161287100Y-290200000D01*
X161287100Y-290200000D02*
X163260000Y-290200000D01*
%TO.N,Read Write ins*%
X143908058Y-322008058D02*
X144200000Y-322300000D01*
X123963500Y-329741214D02*
X123261500Y-330443214D01*
X123261500Y-337261500D02*
X123300000Y-337300000D01*
X123800000Y-325475000D02*
X123800000Y-325775000D01*
X144200000Y-322300000D02*
X144200000Y-324100000D01*
X123800000Y-325775000D02*
X123963500Y-325938500D01*
X124800000Y-348000000D02*
X124800000Y-338800000D01*
X123963500Y-325938500D02*
X123963500Y-329741214D01*
X124800000Y-338800000D02*
X123300000Y-337300000D01*
X123261500Y-330443214D02*
X123261500Y-337261500D01*
%TO.N,TIME STEP 2*%
X155400000Y-331900000D02*
X155400000Y-339500000D01*
X156100000Y-312500000D02*
X170200000Y-298400000D01*
X156100000Y-331276000D02*
X156024000Y-331276000D01*
X170200000Y-298400000D02*
X170800000Y-297800000D01*
X156024000Y-331276000D02*
X155400000Y-331900000D01*
X156100000Y-331276000D02*
X156100000Y-312500000D01*
X170800000Y-297800000D02*
X170800000Y-297700000D01*
%TO.N,TIME STEP 0or1or2*%
X160100000Y-332500000D02*
X161300000Y-331300000D01*
X161300000Y-331300000D02*
X161300000Y-327800000D01*
%TO.N,TIME STEP 0or1*%
X134000000Y-332300000D02*
X134100000Y-332200000D01*
X134100000Y-330900000D02*
X137200000Y-327800000D01*
X134100000Y-332200000D02*
X134100000Y-330900000D01*
%TO.N,Main bus -> bus out*%
X298951000Y-226161500D02*
X298951000Y-223563500D01*
X297950000Y-218062500D02*
X297950000Y-213762500D01*
X298551000Y-227963500D02*
X297850000Y-227262500D01*
X298751000Y-236863500D02*
X297950000Y-236062500D01*
X298651000Y-232263500D02*
X297950000Y-231562500D01*
X298900000Y-255900000D02*
X298851000Y-255851000D01*
X297950000Y-222562500D02*
X297950000Y-218262500D01*
X297950000Y-236062500D02*
X298651000Y-235361500D01*
X297850000Y-227262500D02*
X298951000Y-226161500D01*
X297950000Y-231562500D02*
X298551000Y-230961500D01*
X297950000Y-218262500D02*
X297850000Y-218162500D01*
X298551000Y-241263500D02*
X297850000Y-240562500D01*
X298751000Y-239661500D02*
X298751000Y-236863500D01*
X298551000Y-244461500D02*
X298551000Y-241263500D01*
X298851000Y-255851000D02*
X298851000Y-246163500D01*
X298651000Y-235361500D02*
X298651000Y-232263500D01*
X298851000Y-246163500D02*
X297850000Y-245162500D01*
X297850000Y-240562500D02*
X298751000Y-239661500D01*
X298551000Y-230961500D02*
X298551000Y-227963500D01*
X297850000Y-218162500D02*
X297950000Y-218062500D01*
X298951000Y-223563500D02*
X297950000Y-222562500D01*
X297850000Y-245162500D02*
X298551000Y-244461500D01*
%TO.N,Net-(Q520-D)*%
X305900000Y-218000000D02*
X302600000Y-218000000D01*
X302600000Y-218000000D02*
X302500000Y-217900000D01*
%TO.N,Net-(Q523-D)*%
X305900000Y-222500000D02*
X302600000Y-222500000D01*
%TO.N,Net-(Q526-D)*%
X305900000Y-227000000D02*
X302600000Y-227000000D01*
%TO.N,Net-(Q529-D)*%
X305900000Y-231500000D02*
X302500000Y-231500000D01*
%TO.N,Net-(Q532-D)*%
X305900000Y-236000000D02*
X302500000Y-236000000D01*
%TO.N,Net-(Q535-D)*%
X305900000Y-240500000D02*
X302500000Y-240500000D01*
%TO.N,Net-(Q538-D)*%
X305900000Y-245000000D02*
X302600000Y-245000000D01*
%TO.N,Net-(Q544-D)*%
X288837500Y-218000000D02*
X289400000Y-218562500D01*
X280900000Y-218000000D02*
X288837500Y-218000000D01*
%TO.N,Net-(Q547-D)*%
X288837500Y-222500000D02*
X289400000Y-223062500D01*
X280900000Y-222500000D02*
X288837500Y-222500000D01*
%TO.N,Net-(Q550-D)*%
X280900000Y-227000000D02*
X288837500Y-227000000D01*
X288837500Y-227000000D02*
X289400000Y-227562500D01*
%TO.N,Net-(Q553-D)*%
X288837500Y-231500000D02*
X289400000Y-232062500D01*
X280900000Y-231500000D02*
X288837500Y-231500000D01*
%TO.N,Net-(Q556-D)*%
X280900000Y-236000000D02*
X288837500Y-236000000D01*
X288837500Y-236000000D02*
X289400000Y-236562500D01*
%TO.N,Net-(Q559-D)*%
X280900000Y-240500000D02*
X288837500Y-240500000D01*
X288837500Y-240500000D02*
X289400000Y-241062500D01*
%TO.N,Net-(Q562-D)*%
X288837500Y-245000000D02*
X289400000Y-245562500D01*
X280900000Y-245000000D02*
X288837500Y-245000000D01*
%TD*%
M02*
