%TF.GenerationSoftware,KiCad,Pcbnew,9.0.7*%
%TF.CreationDate,2026-03-27T03:15:50+01:00*%
%TF.ProjectId,Controller_Unit_V1.0,436f6e74-726f-46c6-9c65-725f556e6974,rev?*%
%TF.SameCoordinates,Original*%
%TF.FileFunction,Soldermask,Top*%
%TF.FilePolarity,Negative*%
%FSLAX46Y46*%
G04 Gerber Fmt 4.6, Leading zero omitted, Abs format (unit mm)*
G04 Created by KiCad (PCBNEW 9.0.7) date 2026-03-27 03:15:50*
%MOMM*%
%LPD*%
G01*
G04 APERTURE LIST*
G04 Aperture macros list*
%AMRoundRect*
0 Rectangle with rounded corners*
0 $1 Rounding radius*
0 $2 $3 $4 $5 $6 $7 $8 $9 X,Y pos of 4 corners*
0 Add a 4 corners polygon primitive as box body*
4,1,4,$2,$3,$4,$5,$6,$7,$8,$9,$2,$3,0*
0 Add four circle primitives for the rounded corners*
1,1,$1+$1,$2,$3*
1,1,$1+$1,$4,$5*
1,1,$1+$1,$6,$7*
1,1,$1+$1,$8,$9*
0 Add four rect primitives between the rounded corners*
20,1,$1+$1,$2,$3,$4,$5,0*
20,1,$1+$1,$4,$5,$6,$7,0*
20,1,$1+$1,$6,$7,$8,$9,0*
20,1,$1+$1,$8,$9,$2,$3,0*%
G04 Aperture macros list end*
%ADD10C,1.700000*%
%ADD11R,1.700000X1.700000*%
%ADD12RoundRect,0.159000X0.189000X-0.159000X0.189000X0.159000X-0.189000X0.159000X-0.189000X-0.159000X0*%
%ADD13RoundRect,0.239000X0.274000X-0.239000X0.274000X0.239000X-0.274000X0.239000X-0.274000X-0.239000X0*%
%ADD14RoundRect,0.150000X-0.587500X-0.150000X0.587500X-0.150000X0.587500X0.150000X-0.587500X0.150000X0*%
%ADD15C,1.600000*%
%ADD16RoundRect,0.159000X-0.189000X0.159000X-0.189000X-0.159000X0.189000X-0.159000X0.189000X0.159000X0*%
%ADD17RoundRect,0.159000X0.159000X0.189000X-0.159000X0.189000X-0.159000X-0.189000X0.159000X-0.189000X0*%
%ADD18RoundRect,0.150000X0.587500X0.150000X-0.587500X0.150000X-0.587500X-0.150000X0.587500X-0.150000X0*%
%ADD19RoundRect,0.150000X-0.150000X0.587500X-0.150000X-0.587500X0.150000X-0.587500X0.150000X0.587500X0*%
%ADD20RoundRect,0.150000X0.150000X-0.587500X0.150000X0.587500X-0.150000X0.587500X-0.150000X-0.587500X0*%
%ADD21RoundRect,0.159000X-0.159000X-0.189000X0.159000X-0.189000X0.159000X0.189000X-0.159000X0.189000X0*%
%ADD22RoundRect,0.239000X-0.274000X0.239000X-0.274000X-0.239000X0.274000X-0.239000X0.274000X0.239000X0*%
%ADD23RoundRect,0.239000X0.239000X0.274000X-0.239000X0.274000X-0.239000X-0.274000X0.239000X-0.274000X0*%
%ADD24RoundRect,0.239000X-0.239000X-0.274000X0.239000X-0.274000X0.239000X0.274000X-0.239000X0.274000X0*%
G04 APERTURE END LIST*
D10*
%TO.C,J13*%
X315840000Y-370400000D03*
X313300000Y-370400000D03*
X315840000Y-372940000D03*
X313300000Y-372940000D03*
X315840000Y-375480000D03*
X313300000Y-375480000D03*
X315840000Y-378020000D03*
X313300000Y-378020000D03*
X315840000Y-380560000D03*
X313300000Y-380560000D03*
X315840000Y-383100000D03*
X313300000Y-383100000D03*
X315840000Y-385640000D03*
X313300000Y-385640000D03*
X315840000Y-388180000D03*
D11*
X313300000Y-388180000D03*
%TD*%
D10*
%TO.C,J14*%
X315880000Y-241100000D03*
X313340000Y-241100000D03*
X315880000Y-243640000D03*
X313340000Y-243640000D03*
X315880000Y-246180000D03*
X313340000Y-246180000D03*
X315880000Y-248720000D03*
X313340000Y-248720000D03*
X315880000Y-251260000D03*
X313340000Y-251260000D03*
X315880000Y-253800000D03*
X313340000Y-253800000D03*
X315880000Y-256340000D03*
X313340000Y-256340000D03*
X315880000Y-258880000D03*
D11*
X313340000Y-258880000D03*
%TD*%
D12*
%TO.C,R424*%
X129600000Y-259200000D03*
X129600000Y-260200000D03*
%TD*%
%TO.C,R425*%
X130600000Y-259200000D03*
X130600000Y-260200000D03*
%TD*%
D13*
%TO.C,D40*%
X132200000Y-259510000D03*
X132200000Y-261090000D03*
%TD*%
D14*
%TO.C,Q604*%
X131937500Y-263900000D03*
X130062500Y-264850000D03*
X130062500Y-262950000D03*
%TD*%
D15*
%TO.C,R411*%
X124410000Y-270000000D03*
X116790000Y-270000000D03*
%TD*%
%TO.C,R410*%
X137480000Y-273000000D03*
X145100000Y-273000000D03*
%TD*%
%TO.C,R389*%
X124410000Y-273000000D03*
X116790000Y-273000000D03*
%TD*%
%TO.C,R388*%
X137480000Y-270000000D03*
X145100000Y-270000000D03*
%TD*%
%TO.C,R77*%
X116780000Y-279000000D03*
X124400000Y-279000000D03*
%TD*%
%TO.C,R76*%
X116790000Y-276000000D03*
X124410000Y-276000000D03*
%TD*%
%TO.C,R74*%
X145100000Y-279000000D03*
X137480000Y-279000000D03*
%TD*%
%TO.C,R22*%
X145100000Y-276000000D03*
X137480000Y-276000000D03*
%TD*%
%TO.C,R21*%
X145100000Y-267000000D03*
X137480000Y-267000000D03*
%TD*%
%TO.C,R20*%
X116790000Y-267000000D03*
X124410000Y-267000000D03*
%TD*%
D14*
%TO.C,Q466*%
X257512500Y-285450000D03*
X255637500Y-286400000D03*
X255637500Y-284500000D03*
%TD*%
D16*
%TO.C,R298*%
X231475000Y-288050000D03*
X231475000Y-289050000D03*
%TD*%
D17*
%TO.C,R335*%
X204775000Y-285750000D03*
X205775000Y-285750000D03*
%TD*%
D14*
%TO.C,Q471*%
X230012500Y-285450000D03*
X228137500Y-286400000D03*
X228137500Y-284500000D03*
%TD*%
D12*
%TO.C,R299*%
X223075000Y-289750000D03*
X223075000Y-288750000D03*
%TD*%
D14*
%TO.C,Q492*%
X211512500Y-285450000D03*
X209637500Y-286400000D03*
X209637500Y-284500000D03*
%TD*%
D17*
%TO.C,R306*%
X204775000Y-286750000D03*
X205775000Y-286750000D03*
%TD*%
D14*
%TO.C,Q479*%
X225512500Y-285450000D03*
X223637500Y-286400000D03*
X223637500Y-284500000D03*
%TD*%
D18*
%TO.C,Q476*%
X229900000Y-297900000D03*
X231775000Y-296950000D03*
X231775000Y-298850000D03*
%TD*%
%TO.C,Q458*%
X220900000Y-297900000D03*
X222775000Y-296950000D03*
X222775000Y-298850000D03*
%TD*%
D12*
%TO.C,R297*%
X246075000Y-289750000D03*
X246075000Y-288750000D03*
%TD*%
D18*
%TO.C,Q454*%
X206900000Y-297900000D03*
X208775000Y-296950000D03*
X208775000Y-298850000D03*
%TD*%
%TO.C,Q457*%
X202775000Y-298850000D03*
X202775000Y-296950000D03*
X200900000Y-297900000D03*
%TD*%
D19*
%TO.C,Q490*%
X205775000Y-290487500D03*
X204825000Y-288612500D03*
X206725000Y-288612500D03*
%TD*%
D20*
%TO.C,Q484*%
X250337500Y-292762500D03*
X251287500Y-294637500D03*
X249387500Y-294637500D03*
%TD*%
D12*
%TO.C,R290*%
X215137500Y-293600000D03*
X215137500Y-294600000D03*
%TD*%
D17*
%TO.C,R336*%
X204775000Y-284750000D03*
X205775000Y-284750000D03*
%TD*%
D20*
%TO.C,Q482*%
X226337500Y-292862500D03*
X227287500Y-294737500D03*
X225387500Y-294737500D03*
%TD*%
D19*
%TO.C,Q465*%
X262100000Y-286937500D03*
X261150000Y-285062500D03*
X263050000Y-285062500D03*
%TD*%
D14*
%TO.C,Q467*%
X253012500Y-285450000D03*
X251137500Y-286400000D03*
X251137500Y-284500000D03*
%TD*%
%TO.C,Q478*%
X248512500Y-285450000D03*
X246637500Y-286400000D03*
X246637500Y-284500000D03*
%TD*%
D16*
%TO.C,R296*%
X254475000Y-289050000D03*
X254475000Y-288050000D03*
%TD*%
D18*
%TO.C,Q461*%
X239400000Y-297900000D03*
X241275000Y-296950000D03*
X241275000Y-298850000D03*
%TD*%
%TO.C,Q463*%
X249400000Y-297900000D03*
X251275000Y-296950000D03*
X251275000Y-298850000D03*
%TD*%
D12*
%TO.C,R294*%
X248037500Y-294300000D03*
X248037500Y-295300000D03*
%TD*%
D16*
%TO.C,R302*%
X255137500Y-293600000D03*
X255137500Y-294600000D03*
%TD*%
D12*
%TO.C,R304*%
X224075000Y-288750000D03*
X224075000Y-289750000D03*
%TD*%
D18*
%TO.C,Q460*%
X234900000Y-297900000D03*
X236775000Y-296950000D03*
X236775000Y-298850000D03*
%TD*%
D14*
%TO.C,Q469*%
X239512500Y-285450000D03*
X237637500Y-286400000D03*
X237637500Y-284500000D03*
%TD*%
D12*
%TO.C,R307*%
X214475000Y-288650000D03*
X214475000Y-289650000D03*
%TD*%
%TO.C,R292*%
X223837500Y-294300000D03*
X223837500Y-295300000D03*
%TD*%
%TO.C,R303*%
X247275000Y-288750000D03*
X247275000Y-289750000D03*
%TD*%
D14*
%TO.C,Q470*%
X234512500Y-285450000D03*
X232637500Y-286400000D03*
X232637500Y-284500000D03*
%TD*%
D18*
%TO.C,Q485*%
X257062500Y-290500000D03*
X258937500Y-289550000D03*
X258937500Y-291450000D03*
%TD*%
%TO.C,Q477*%
X253900000Y-297900000D03*
X255775000Y-296950000D03*
X255775000Y-298850000D03*
%TD*%
D19*
%TO.C,Q464*%
X262100000Y-291437500D03*
X261150000Y-289562500D03*
X263050000Y-289562500D03*
%TD*%
%TO.C,Q491*%
X210575000Y-290487500D03*
X209625000Y-288612500D03*
X211525000Y-288612500D03*
%TD*%
D18*
%TO.C,Q594*%
X215900000Y-297900000D03*
X217775000Y-296950000D03*
X217775000Y-298850000D03*
%TD*%
D14*
%TO.C,Q473*%
X216512500Y-285450000D03*
X214637500Y-286400000D03*
X214637500Y-284500000D03*
%TD*%
D18*
%TO.C,Q455*%
X211400000Y-297900000D03*
X213275000Y-296950000D03*
X213275000Y-298850000D03*
%TD*%
D13*
%TO.C,D41*%
X202775000Y-284860000D03*
X202775000Y-286440000D03*
%TD*%
D16*
%TO.C,R301*%
X230637500Y-294600000D03*
X230637500Y-293600000D03*
%TD*%
D18*
%TO.C,Q462*%
X244900000Y-297900000D03*
X246775000Y-296950000D03*
X246775000Y-298850000D03*
%TD*%
D14*
%TO.C,Q472*%
X221012500Y-285450000D03*
X219137500Y-286400000D03*
X219137500Y-284500000D03*
%TD*%
D16*
%TO.C,R291*%
X194637500Y-294800000D03*
X194637500Y-293800000D03*
%TD*%
D19*
%TO.C,Q489*%
X220075000Y-290487500D03*
X219125000Y-288612500D03*
X221025000Y-288612500D03*
%TD*%
%TO.C,Q488*%
X229075000Y-290487500D03*
X228125000Y-288612500D03*
X230025000Y-288612500D03*
%TD*%
D18*
%TO.C,Q459*%
X225400000Y-297900000D03*
X227275000Y-296950000D03*
X227275000Y-298850000D03*
%TD*%
D12*
%TO.C,R354*%
X216137500Y-293600000D03*
X216137500Y-294600000D03*
%TD*%
D14*
%TO.C,Q468*%
X244012500Y-285450000D03*
X242137500Y-286400000D03*
X242137500Y-284500000D03*
%TD*%
D18*
%TO.C,Q456*%
X196400000Y-297900000D03*
X198275000Y-296950000D03*
X198275000Y-298850000D03*
%TD*%
D16*
%TO.C,R295*%
X256137500Y-294600000D03*
X256137500Y-293600000D03*
%TD*%
D19*
%TO.C,Q487*%
X243075000Y-290487500D03*
X242125000Y-288612500D03*
X244025000Y-288612500D03*
%TD*%
D16*
%TO.C,R293*%
X231737500Y-294600000D03*
X231737500Y-293600000D03*
%TD*%
D20*
%TO.C,Q481*%
X212337500Y-292862500D03*
X213287500Y-294737500D03*
X211387500Y-294737500D03*
%TD*%
%TO.C,Q480*%
X197337500Y-292862500D03*
X198287500Y-294737500D03*
X196387500Y-294737500D03*
%TD*%
D19*
%TO.C,Q486*%
X252075000Y-290487500D03*
X251125000Y-288612500D03*
X253025000Y-288612500D03*
%TD*%
D20*
%TO.C,Q483*%
X235837500Y-292862500D03*
X236787500Y-294737500D03*
X234887500Y-294737500D03*
%TD*%
D18*
%TO.C,Q475*%
X191900000Y-297900000D03*
X193775000Y-296950000D03*
X193775000Y-298850000D03*
%TD*%
D20*
%TO.C,Q569*%
X201075000Y-288612500D03*
X202025000Y-290487500D03*
X200125000Y-290487500D03*
%TD*%
D16*
%TO.C,R305*%
X213375000Y-290450000D03*
X213375000Y-289450000D03*
%TD*%
D17*
%TO.C,R338*%
X280800000Y-306000000D03*
X279800000Y-306000000D03*
%TD*%
D14*
%TO.C,Q572*%
X268962500Y-304450000D03*
X268962500Y-306350000D03*
X270837500Y-305400000D03*
%TD*%
%TO.C,Q516*%
X280962500Y-308450000D03*
X280962500Y-310350000D03*
X282837500Y-309400000D03*
%TD*%
D12*
%TO.C,R459*%
X284600000Y-310400000D03*
X284600000Y-309400000D03*
%TD*%
%TO.C,R341*%
X285600000Y-310400000D03*
X285600000Y-309400000D03*
%TD*%
D16*
%TO.C,R340*%
X273600000Y-309400000D03*
X273600000Y-310400000D03*
%TD*%
D17*
%TO.C,R345*%
X283700000Y-315200000D03*
X282700000Y-315200000D03*
%TD*%
%TO.C,R460*%
X283700000Y-314200000D03*
X282700000Y-314200000D03*
%TD*%
D19*
%TO.C,Q567*%
X279250000Y-299862500D03*
X277350000Y-299862500D03*
X278300000Y-301737500D03*
%TD*%
D14*
%TO.C,Q583*%
X286962500Y-317450000D03*
X286962500Y-319350000D03*
X288837500Y-318400000D03*
%TD*%
D19*
%TO.C,Q568*%
X283250000Y-299862500D03*
X281350000Y-299862500D03*
X282300000Y-301737500D03*
%TD*%
D21*
%TO.C,R344*%
X284700000Y-314200000D03*
X285700000Y-314200000D03*
%TD*%
D17*
%TO.C,R454*%
X285100000Y-300800000D03*
X286100000Y-300800000D03*
%TD*%
D16*
%TO.C,R458*%
X272600000Y-309400000D03*
X272600000Y-310400000D03*
%TD*%
D14*
%TO.C,Q576*%
X275962500Y-308450000D03*
X275962500Y-310350000D03*
X277837500Y-309400000D03*
%TD*%
D17*
%TO.C,R334*%
X280800000Y-305000000D03*
X279800000Y-305000000D03*
%TD*%
D16*
%TO.C,R339*%
X286500000Y-303800000D03*
X286500000Y-304800000D03*
%TD*%
D21*
%TO.C,R343*%
X284700000Y-315200000D03*
X285700000Y-315200000D03*
%TD*%
D14*
%TO.C,Q578*%
X273962500Y-313450000D03*
X273962500Y-315350000D03*
X275837500Y-314400000D03*
%TD*%
D17*
%TO.C,R337*%
X273800000Y-305000000D03*
X272800000Y-305000000D03*
%TD*%
D14*
%TO.C,Q582*%
X269062500Y-317450000D03*
X269062500Y-319350000D03*
X270937500Y-318400000D03*
%TD*%
%TO.C,Q573*%
X275962500Y-304450000D03*
X275962500Y-306350000D03*
X277837500Y-305400000D03*
%TD*%
%TO.C,Q574*%
X282962500Y-304450000D03*
X282962500Y-306350000D03*
X284837500Y-305400000D03*
%TD*%
%TO.C,Q577*%
X268962500Y-313450000D03*
X268962500Y-315350000D03*
X270837500Y-314400000D03*
%TD*%
%TO.C,Q584*%
X282462500Y-317450000D03*
X282462500Y-319350000D03*
X284337500Y-318400000D03*
%TD*%
%TO.C,Q575*%
X268962500Y-308450000D03*
X268962500Y-310350000D03*
X270837500Y-309400000D03*
%TD*%
%TO.C,Q581*%
X277962500Y-317450000D03*
X277962500Y-319350000D03*
X279837500Y-318400000D03*
%TD*%
%TO.C,Q580*%
X273462500Y-317450000D03*
X273462500Y-319350000D03*
X275337500Y-318400000D03*
%TD*%
%TO.C,Q579*%
X278962500Y-313450000D03*
X278962500Y-315350000D03*
X280837500Y-314400000D03*
%TD*%
D17*
%TO.C,R455*%
X285100000Y-299750000D03*
X286100000Y-299750000D03*
%TD*%
D19*
%TO.C,Q566*%
X275250000Y-299862500D03*
X273350000Y-299862500D03*
X274300000Y-301737500D03*
%TD*%
D17*
%TO.C,R342*%
X283700000Y-313200000D03*
X282700000Y-313200000D03*
%TD*%
D19*
%TO.C,Q565*%
X271250000Y-299862500D03*
X269350000Y-299862500D03*
X270300000Y-301737500D03*
%TD*%
D16*
%TO.C,R457*%
X287500000Y-303800000D03*
X287500000Y-304800000D03*
%TD*%
D17*
%TO.C,R456*%
X273800000Y-306000000D03*
X272800000Y-306000000D03*
%TD*%
D10*
%TO.C,J6*%
X186880000Y-286900000D03*
X184340000Y-286900000D03*
X181800000Y-286900000D03*
X179260000Y-286900000D03*
X176720000Y-286900000D03*
X174180000Y-286900000D03*
X171640000Y-286900000D03*
X169100000Y-286900000D03*
X166560000Y-286900000D03*
X164020000Y-286900000D03*
X161480000Y-286900000D03*
X158940000Y-286900000D03*
X156400000Y-286900000D03*
X153860000Y-286900000D03*
X151320000Y-286900000D03*
X148780000Y-286900000D03*
X146240000Y-286900000D03*
X143700000Y-286900000D03*
X141160000Y-286900000D03*
X138620000Y-286900000D03*
D11*
X136080000Y-286900000D03*
%TD*%
D19*
%TO.C,Q411*%
X152623718Y-309937500D03*
X151673718Y-308062500D03*
X153573718Y-308062500D03*
%TD*%
D16*
%TO.C,R277*%
X145723718Y-314500000D03*
X145723718Y-313500000D03*
%TD*%
%TO.C,R276*%
X145723718Y-309500000D03*
X145723718Y-308500000D03*
%TD*%
%TO.C,R275*%
X145723718Y-304500000D03*
X145723718Y-303500000D03*
%TD*%
%TO.C,R273*%
X155123718Y-314500000D03*
X155123718Y-313500000D03*
%TD*%
%TO.C,R270*%
X155123718Y-299500000D03*
X155123718Y-298500000D03*
%TD*%
D19*
%TO.C,Q413*%
X148223718Y-299937500D03*
X147273718Y-298062500D03*
X149173718Y-298062500D03*
%TD*%
%TO.C,Q412*%
X152623718Y-314937500D03*
X151673718Y-313062500D03*
X153573718Y-313062500D03*
%TD*%
%TO.C,Q409*%
X152623718Y-299937500D03*
X151673718Y-298062500D03*
X153573718Y-298062500D03*
%TD*%
%TO.C,Q415*%
X148223718Y-309937500D03*
X147273718Y-308062500D03*
X149173718Y-308062500D03*
%TD*%
D16*
%TO.C,R272*%
X155123718Y-309500000D03*
X155123718Y-308500000D03*
%TD*%
D19*
%TO.C,Q416*%
X148223718Y-314937500D03*
X147273718Y-313062500D03*
X149173718Y-313062500D03*
%TD*%
%TO.C,Q414*%
X148223718Y-304937500D03*
X147273718Y-303062500D03*
X149173718Y-303062500D03*
%TD*%
D16*
%TO.C,R274*%
X145723718Y-299500000D03*
X145723718Y-298500000D03*
%TD*%
%TO.C,R271*%
X155123718Y-304500000D03*
X155123718Y-303500000D03*
%TD*%
D19*
%TO.C,Q410*%
X152623718Y-304937500D03*
X151673718Y-303062500D03*
X153573718Y-303062500D03*
%TD*%
%TO.C,Q428*%
X138223718Y-305937500D03*
X137273718Y-304062500D03*
X139173718Y-304062500D03*
%TD*%
%TO.C,Q427*%
X142223718Y-305937500D03*
X141273718Y-304062500D03*
X143173718Y-304062500D03*
%TD*%
%TO.C,Q417*%
X142223718Y-296937500D03*
X141273718Y-295062500D03*
X143173718Y-295062500D03*
%TD*%
%TO.C,Q418*%
X138223718Y-296937500D03*
X137273718Y-295062500D03*
X139173718Y-295062500D03*
%TD*%
%TO.C,Q422*%
X142223718Y-301437500D03*
X141273718Y-299562500D03*
X143173718Y-299562500D03*
%TD*%
%TO.C,Q423*%
X138223718Y-301437500D03*
X137273718Y-299562500D03*
X139173718Y-299562500D03*
%TD*%
%TO.C,Q432*%
X142223718Y-310437500D03*
X141273718Y-308562500D03*
X143173718Y-308562500D03*
%TD*%
D17*
%TO.C,R319*%
X307000000Y-218000000D03*
X308000000Y-218000000D03*
%TD*%
D19*
%TO.C,Q561*%
X282900000Y-242937500D03*
X281950000Y-241062500D03*
X283850000Y-241062500D03*
%TD*%
D20*
%TO.C,Q532*%
X303900000Y-236562500D03*
X304850000Y-238437500D03*
X302950000Y-238437500D03*
%TD*%
%TO.C,Q535*%
X303900000Y-241062500D03*
X304850000Y-242937500D03*
X302950000Y-242937500D03*
%TD*%
D19*
%TO.C,Q533*%
X299900000Y-238437500D03*
X298950000Y-236562500D03*
X300850000Y-236562500D03*
%TD*%
%TO.C,Q534*%
X295900000Y-238437500D03*
X294950000Y-236562500D03*
X296850000Y-236562500D03*
%TD*%
%TO.C,Q527*%
X300850000Y-227562500D03*
X298950000Y-227562500D03*
X299900000Y-229437500D03*
%TD*%
D17*
%TO.C,R321*%
X307000000Y-227000000D03*
X308000000Y-227000000D03*
%TD*%
D19*
%TO.C,Q528*%
X295900000Y-229437500D03*
X294950000Y-227562500D03*
X296850000Y-227562500D03*
%TD*%
D20*
%TO.C,Q526*%
X303900000Y-227562500D03*
X304850000Y-229437500D03*
X302950000Y-229437500D03*
%TD*%
D19*
%TO.C,Q525*%
X295900000Y-224937500D03*
X294950000Y-223062500D03*
X296850000Y-223062500D03*
%TD*%
D20*
%TO.C,Q523*%
X303900000Y-223062500D03*
X304850000Y-224937500D03*
X302950000Y-224937500D03*
%TD*%
D19*
%TO.C,Q524*%
X299900000Y-224937500D03*
X298950000Y-223062500D03*
X300850000Y-223062500D03*
%TD*%
D20*
%TO.C,Q519*%
X303900000Y-214062500D03*
X304850000Y-215937500D03*
X302950000Y-215937500D03*
%TD*%
D19*
%TO.C,Q517*%
X299900000Y-215937500D03*
X298950000Y-214062500D03*
X300850000Y-214062500D03*
%TD*%
D14*
%TO.C,Q585*%
X147700000Y-344475000D03*
X145825000Y-345425000D03*
X145825000Y-343525000D03*
%TD*%
D19*
%TO.C,Q610*%
X154462500Y-326412500D03*
X153512500Y-324537500D03*
X155412500Y-324537500D03*
%TD*%
D14*
%TO.C,Q511*%
X120325000Y-338525000D03*
X120325000Y-340425000D03*
X122200000Y-339475000D03*
%TD*%
D21*
%TO.C,R310*%
X125162500Y-328175000D03*
X126162500Y-328175000D03*
%TD*%
D14*
%TO.C,Q497*%
X120225000Y-328525000D03*
X120225000Y-330425000D03*
X122100000Y-329475000D03*
%TD*%
D21*
%TO.C,R433*%
X125162500Y-330175000D03*
X126162500Y-330175000D03*
%TD*%
%TO.C,R432*%
X125162500Y-329175000D03*
X126162500Y-329175000D03*
%TD*%
D14*
%TO.C,Q611*%
X125225000Y-324525000D03*
X125225000Y-326425000D03*
X127100000Y-325475000D03*
%TD*%
%TO.C,Q496*%
X120225000Y-324525000D03*
X120225000Y-326425000D03*
X122100000Y-325475000D03*
%TD*%
D22*
%TO.C,D45*%
X127962500Y-328485000D03*
X127962500Y-330065000D03*
%TD*%
D19*
%TO.C,Q452*%
X159012500Y-319737500D03*
X157112500Y-319737500D03*
X158062500Y-321612500D03*
%TD*%
D12*
%TO.C,R430*%
X158862500Y-324975000D03*
X158862500Y-323975000D03*
%TD*%
%TO.C,R431*%
X159862500Y-324975000D03*
X159862500Y-323975000D03*
%TD*%
D20*
%TO.C,Q502*%
X141312500Y-326412500D03*
X143212500Y-326412500D03*
X142262500Y-324537500D03*
%TD*%
D19*
%TO.C,Q451*%
X154062500Y-321612500D03*
X153112500Y-319737500D03*
X155012500Y-319737500D03*
%TD*%
D20*
%TO.C,Q504*%
X152062500Y-328537500D03*
X153012500Y-330412500D03*
X151112500Y-330412500D03*
%TD*%
D12*
%TO.C,R313*%
X162462500Y-328975000D03*
X162462500Y-329975000D03*
%TD*%
D14*
%TO.C,Q494*%
X122200000Y-344475000D03*
X120325000Y-345425000D03*
X120325000Y-343525000D03*
%TD*%
D19*
%TO.C,Q453*%
X162062500Y-321612500D03*
X161112500Y-319737500D03*
X163012500Y-319737500D03*
%TD*%
D20*
%TO.C,Q506*%
X160062500Y-328537500D03*
X161012500Y-330412500D03*
X159112500Y-330412500D03*
%TD*%
%TO.C,Q507*%
X132062500Y-328537500D03*
X133012500Y-330412500D03*
X131112500Y-330412500D03*
%TD*%
D14*
%TO.C,Q512*%
X126700000Y-335475000D03*
X124825000Y-336425000D03*
X124825000Y-334525000D03*
%TD*%
D19*
%TO.C,Q449*%
X146062500Y-321612500D03*
X145112500Y-319737500D03*
X147012500Y-319737500D03*
%TD*%
D13*
%TO.C,D44*%
X157262500Y-324285000D03*
X157262500Y-325865000D03*
%TD*%
D19*
%TO.C,Q443*%
X122062500Y-321612500D03*
X121112500Y-319737500D03*
X123012500Y-319737500D03*
%TD*%
D21*
%TO.C,R429*%
X129662500Y-340875000D03*
X128662500Y-340875000D03*
%TD*%
D20*
%TO.C,Q505*%
X156062500Y-328537500D03*
X157012500Y-330412500D03*
X155112500Y-330412500D03*
%TD*%
D17*
%TO.C,R448*%
X128662500Y-346075000D03*
X129662500Y-346075000D03*
%TD*%
D14*
%TO.C,Q495*%
X126700000Y-344475000D03*
X124825000Y-345425000D03*
X124825000Y-343525000D03*
%TD*%
D19*
%TO.C,Q448*%
X142062500Y-321612500D03*
X141112500Y-319737500D03*
X143012500Y-319737500D03*
%TD*%
%TO.C,Q445*%
X130062500Y-321612500D03*
X129112500Y-319737500D03*
X131012500Y-319737500D03*
%TD*%
%TO.C,Q446*%
X134062500Y-321612500D03*
X133112500Y-319737500D03*
X135012500Y-319737500D03*
%TD*%
D12*
%TO.C,R289*%
X161800000Y-324000000D03*
X161800000Y-325000000D03*
%TD*%
%TO.C,R427*%
X204776000Y-244711500D03*
X204776000Y-245711500D03*
%TD*%
%TO.C,R316*%
X143762500Y-328975000D03*
X143762500Y-329975000D03*
%TD*%
D19*
%TO.C,Q499*%
X134062500Y-326612500D03*
X133112500Y-324737500D03*
X135012500Y-324737500D03*
%TD*%
D14*
%TO.C,Q570*%
X204213500Y-238511500D03*
X202338500Y-239461500D03*
X202338500Y-237561500D03*
%TD*%
D22*
%TO.C,D42*%
X204176000Y-243101500D03*
X204176000Y-241521500D03*
%TD*%
D19*
%TO.C,Q500*%
X146162500Y-326412500D03*
X145212500Y-324537500D03*
X147112500Y-324537500D03*
%TD*%
D12*
%TO.C,R312*%
X160862500Y-323975000D03*
X160862500Y-324975000D03*
%TD*%
%TO.C,R311*%
X144762500Y-328975000D03*
X144762500Y-329975000D03*
%TD*%
D17*
%TO.C,R450*%
X128662500Y-344075000D03*
X129662500Y-344075000D03*
%TD*%
D22*
%TO.C,D43*%
X131162500Y-340565000D03*
X131162500Y-338985000D03*
%TD*%
D19*
%TO.C,Q444*%
X126062500Y-321612500D03*
X125112500Y-319737500D03*
X127012500Y-319737500D03*
%TD*%
D12*
%TO.C,R314*%
X145762500Y-328975000D03*
X145762500Y-329975000D03*
%TD*%
D14*
%TO.C,Q510*%
X122200000Y-335475000D03*
X120325000Y-336425000D03*
X120325000Y-334525000D03*
%TD*%
D20*
%TO.C,Q509*%
X140062500Y-328537500D03*
X141012500Y-330412500D03*
X139112500Y-330412500D03*
%TD*%
D17*
%TO.C,R309*%
X128662500Y-343075000D03*
X129662500Y-343075000D03*
%TD*%
D14*
%TO.C,Q571*%
X131200000Y-335475000D03*
X129325000Y-336425000D03*
X129325000Y-334525000D03*
%TD*%
D19*
%TO.C,Q450*%
X150062500Y-321612500D03*
X149112500Y-319737500D03*
X151012500Y-319737500D03*
%TD*%
%TO.C,Q447*%
X138062500Y-321612500D03*
X137112500Y-319737500D03*
X139012500Y-319737500D03*
%TD*%
%TO.C,Q501*%
X150162500Y-326412500D03*
X149212500Y-324537500D03*
X151112500Y-324537500D03*
%TD*%
D21*
%TO.C,R428*%
X129662500Y-339875000D03*
X128662500Y-339875000D03*
%TD*%
D14*
%TO.C,Q513*%
X126700000Y-339475000D03*
X124825000Y-340425000D03*
X124825000Y-338525000D03*
%TD*%
D12*
%TO.C,R426*%
X203776000Y-244711500D03*
X203776000Y-245711500D03*
%TD*%
D19*
%TO.C,Q498*%
X138062500Y-326612500D03*
X137112500Y-324737500D03*
X139012500Y-324737500D03*
%TD*%
D21*
%TO.C,R317*%
X129662500Y-338875000D03*
X128662500Y-338875000D03*
%TD*%
D17*
%TO.C,R449*%
X128662500Y-345075000D03*
X129662500Y-345075000D03*
%TD*%
D20*
%TO.C,Q503*%
X148062500Y-328537500D03*
X149012500Y-330412500D03*
X147112500Y-330412500D03*
%TD*%
%TO.C,Q508*%
X136062500Y-328537500D03*
X137012500Y-330412500D03*
X135112500Y-330412500D03*
%TD*%
D12*
%TO.C,R315*%
X142762500Y-328975000D03*
X142762500Y-329975000D03*
%TD*%
D11*
%TO.C,J9*%
X134062500Y-340075000D03*
%TD*%
%TO.C,J12*%
X313300000Y-226880000D03*
D10*
X315840000Y-226880000D03*
X313300000Y-224340000D03*
X315840000Y-224340000D03*
X313300000Y-221800000D03*
X315840000Y-221800000D03*
X313300000Y-219260000D03*
X315840000Y-219260000D03*
X313300000Y-216720000D03*
X315840000Y-216720000D03*
X313300000Y-214180000D03*
X315840000Y-214180000D03*
X313300000Y-211640000D03*
X315840000Y-211640000D03*
X313300000Y-209100000D03*
X315840000Y-209100000D03*
%TD*%
D12*
%TO.C,R237*%
X276176000Y-244711500D03*
X276176000Y-245711500D03*
%TD*%
%TO.C,R243*%
X139876000Y-244711500D03*
X139876000Y-245711500D03*
%TD*%
%TO.C,R228*%
X256376000Y-244711500D03*
X256376000Y-245711500D03*
%TD*%
D18*
%TO.C,Q385*%
X180413500Y-226461500D03*
X180413500Y-224561500D03*
X178538500Y-225511500D03*
%TD*%
D12*
%TO.C,R234*%
X269876000Y-244711500D03*
X269876000Y-245711500D03*
%TD*%
D18*
%TO.C,Q312*%
X276213500Y-234761500D03*
X276213500Y-232861500D03*
X274338500Y-233811500D03*
%TD*%
%TO.C,Q390*%
X184913500Y-226461500D03*
X184913500Y-224561500D03*
X183038500Y-225511500D03*
%TD*%
%TO.C,Q404*%
X198413500Y-230361500D03*
X198413500Y-228461500D03*
X196538500Y-229411500D03*
%TD*%
D12*
%TO.C,R268*%
X196576000Y-244711500D03*
X196576000Y-245711500D03*
%TD*%
D18*
%TO.C,Q164*%
X267213500Y-226461500D03*
X267213500Y-224561500D03*
X265338500Y-225511500D03*
%TD*%
D12*
%TO.C,R249*%
X153376000Y-244711500D03*
X153376000Y-245711500D03*
%TD*%
%TO.C,R143*%
X206876000Y-244711500D03*
X206876000Y-245711500D03*
%TD*%
D18*
%TO.C,Q372*%
X165038500Y-233811500D03*
X166913500Y-232861500D03*
X166913500Y-234761500D03*
%TD*%
%TO.C,Q307*%
X267213500Y-238661500D03*
X267213500Y-236761500D03*
X265338500Y-237711500D03*
%TD*%
%TO.C,Q297*%
X242838500Y-237711500D03*
X244713500Y-236761500D03*
X244713500Y-238661500D03*
%TD*%
%TO.C,Q304*%
X258213500Y-234761500D03*
X258213500Y-232861500D03*
X256338500Y-233811500D03*
%TD*%
%TO.C,Q289*%
X224838500Y-237711500D03*
X226713500Y-236761500D03*
X226713500Y-238661500D03*
%TD*%
D20*
%TO.C,Q317*%
X225776000Y-241074000D03*
X226726000Y-242949000D03*
X224826000Y-242949000D03*
%TD*%
D18*
%TO.C,Q148*%
X231213500Y-226461500D03*
X231213500Y-224561500D03*
X229338500Y-225511500D03*
%TD*%
%TO.C,Q402*%
X192038500Y-233811500D03*
X193913500Y-232861500D03*
X193913500Y-234761500D03*
%TD*%
%TO.C,Q407*%
X196538500Y-233811500D03*
X198413500Y-232861500D03*
X198413500Y-234761500D03*
%TD*%
%TO.C,Q394*%
X189413500Y-230361500D03*
X189413500Y-228461500D03*
X187538500Y-229411500D03*
%TD*%
D12*
%TO.C,R262*%
X183076000Y-244711500D03*
X183076000Y-245711500D03*
%TD*%
D18*
%TO.C,Q356*%
X151538500Y-237711500D03*
X153413500Y-236761500D03*
X153413500Y-238661500D03*
%TD*%
%TO.C,Q165*%
X271713500Y-230361500D03*
X271713500Y-228461500D03*
X269838500Y-229411500D03*
%TD*%
D20*
%TO.C,Q338*%
X134476000Y-241074000D03*
X135426000Y-242949000D03*
X133526000Y-242949000D03*
%TD*%
D18*
%TO.C,Q138*%
X206838500Y-229411500D03*
X208713500Y-228461500D03*
X208713500Y-230361500D03*
%TD*%
D12*
%TO.C,R154*%
X233876000Y-244711500D03*
X233876000Y-245711500D03*
%TD*%
%TO.C,R263*%
X184876000Y-244711500D03*
X184876000Y-245711500D03*
%TD*%
%TO.C,R267*%
X193876000Y-244711500D03*
X193876000Y-245711500D03*
%TD*%
D18*
%TO.C,Q159*%
X258213500Y-230361500D03*
X258213500Y-228461500D03*
X256338500Y-229411500D03*
%TD*%
D12*
%TO.C,R152*%
X229376000Y-244711500D03*
X229376000Y-245711500D03*
%TD*%
%TO.C,R250*%
X156076000Y-244711500D03*
X156076000Y-245711500D03*
%TD*%
D18*
%TO.C,Q142*%
X215838500Y-225511500D03*
X217713500Y-224561500D03*
X217713500Y-226461500D03*
%TD*%
%TO.C,Q168*%
X276213500Y-226461500D03*
X276213500Y-224561500D03*
X274338500Y-225511500D03*
%TD*%
D12*
%TO.C,R159*%
X244676000Y-244711500D03*
X244676000Y-245711500D03*
%TD*%
D21*
%TO.C,R347*%
X125676000Y-230311500D03*
X124676000Y-230311500D03*
%TD*%
D18*
%TO.C,Q171*%
X211338500Y-237711500D03*
X213213500Y-236761500D03*
X213213500Y-238661500D03*
%TD*%
%TO.C,Q285*%
X215838500Y-237711500D03*
X217713500Y-236761500D03*
X217713500Y-238661500D03*
%TD*%
D12*
%TO.C,R258*%
X174076000Y-244711500D03*
X174076000Y-245711500D03*
%TD*%
D18*
%TO.C,Q389*%
X184913500Y-230361500D03*
X184913500Y-228461500D03*
X183038500Y-229411500D03*
%TD*%
%TO.C,Q294*%
X233838500Y-233811500D03*
X235713500Y-232861500D03*
X235713500Y-234761500D03*
%TD*%
%TO.C,Q387*%
X178538500Y-233811500D03*
X180413500Y-232861500D03*
X180413500Y-234761500D03*
%TD*%
D12*
%TO.C,R144*%
X211376000Y-244711500D03*
X211376000Y-245711500D03*
%TD*%
D18*
%TO.C,Q335*%
X135413500Y-226461500D03*
X135413500Y-224561500D03*
X133538500Y-225511500D03*
%TD*%
%TO.C,Q396*%
X187538500Y-237711500D03*
X189413500Y-236761500D03*
X189413500Y-238661500D03*
%TD*%
D12*
%TO.C,R238*%
X129076000Y-244711500D03*
X129076000Y-245711500D03*
%TD*%
D18*
%TO.C,Q151*%
X240213500Y-230361500D03*
X240213500Y-228461500D03*
X238338500Y-229411500D03*
%TD*%
%TO.C,Q362*%
X156038500Y-233811500D03*
X157913500Y-232861500D03*
X157913500Y-234761500D03*
%TD*%
D20*
%TO.C,Q315*%
X216776000Y-241074000D03*
X217726000Y-242949000D03*
X215826000Y-242949000D03*
%TD*%
D18*
%TO.C,Q331*%
X129038500Y-237711500D03*
X130913500Y-236761500D03*
X130913500Y-238661500D03*
%TD*%
D21*
%TO.C,R451*%
X202476000Y-230311500D03*
X203476000Y-230311500D03*
%TD*%
D18*
%TO.C,Q346*%
X142538500Y-237711500D03*
X144413500Y-236761500D03*
X144413500Y-238661500D03*
%TD*%
%TO.C,Q391*%
X183038500Y-237711500D03*
X184913500Y-236761500D03*
X184913500Y-238661500D03*
%TD*%
%TO.C,Q298*%
X242838500Y-233811500D03*
X244713500Y-232861500D03*
X244713500Y-234761500D03*
%TD*%
D12*
%TO.C,R145*%
X213176000Y-244711500D03*
X213176000Y-245711500D03*
%TD*%
D18*
%TO.C,Q357*%
X151538500Y-233811500D03*
X153413500Y-232861500D03*
X153413500Y-234761500D03*
%TD*%
D20*
%TO.C,Q320*%
X239276000Y-241074000D03*
X240226000Y-242949000D03*
X238326000Y-242949000D03*
%TD*%
D12*
%TO.C,R146*%
X215876000Y-244711500D03*
X215876000Y-245711500D03*
%TD*%
D18*
%TO.C,Q354*%
X153413500Y-230361500D03*
X153413500Y-228461500D03*
X151538500Y-229411500D03*
%TD*%
D14*
%TO.C,Q514*%
X126113500Y-227811500D03*
X124238500Y-228761500D03*
X124238500Y-226861500D03*
%TD*%
D20*
%TO.C,Q314*%
X212276000Y-241074000D03*
X213226000Y-242949000D03*
X211326000Y-242949000D03*
%TD*%
D18*
%TO.C,Q157*%
X253713500Y-230361500D03*
X253713500Y-228461500D03*
X251838500Y-229411500D03*
%TD*%
%TO.C,Q375*%
X171413500Y-226461500D03*
X171413500Y-224561500D03*
X169538500Y-225511500D03*
%TD*%
%TO.C,Q290*%
X224838500Y-233811500D03*
X226713500Y-232861500D03*
X226713500Y-234761500D03*
%TD*%
%TO.C,Q287*%
X220338500Y-237711500D03*
X222213500Y-236761500D03*
X222213500Y-238661500D03*
%TD*%
%TO.C,Q344*%
X144413500Y-230361500D03*
X144413500Y-228461500D03*
X142538500Y-229411500D03*
%TD*%
%TO.C,Q286*%
X215838500Y-233811500D03*
X217713500Y-232861500D03*
X217713500Y-234761500D03*
%TD*%
%TO.C,Q300*%
X247338500Y-233811500D03*
X249213500Y-232861500D03*
X249213500Y-234761500D03*
%TD*%
%TO.C,Q400*%
X193913500Y-226461500D03*
X193913500Y-224561500D03*
X192038500Y-225511500D03*
%TD*%
%TO.C,Q308*%
X267213500Y-234761500D03*
X267213500Y-232861500D03*
X265338500Y-233811500D03*
%TD*%
D12*
%TO.C,R244*%
X142576000Y-244711500D03*
X142576000Y-245711500D03*
%TD*%
D18*
%TO.C,Q401*%
X192038500Y-237711500D03*
X193913500Y-236761500D03*
X193913500Y-238661500D03*
%TD*%
D12*
%TO.C,R148*%
X220376000Y-244711500D03*
X220376000Y-245711500D03*
%TD*%
D20*
%TO.C,Q383*%
X174976000Y-241074000D03*
X175926000Y-242949000D03*
X174026000Y-242949000D03*
%TD*%
D12*
%TO.C,R160*%
X247376000Y-244711500D03*
X247376000Y-245711500D03*
%TD*%
%TO.C,R149*%
X222176000Y-244711500D03*
X222176000Y-245711500D03*
%TD*%
D21*
%TO.C,R447*%
X125676000Y-233311500D03*
X124676000Y-233311500D03*
%TD*%
D18*
%TO.C,Q395*%
X189413500Y-226461500D03*
X189413500Y-224561500D03*
X187538500Y-225511500D03*
%TD*%
D21*
%TO.C,R452*%
X202476000Y-231311500D03*
X203476000Y-231311500D03*
%TD*%
D12*
%TO.C,R259*%
X175876000Y-244711500D03*
X175876000Y-245711500D03*
%TD*%
D18*
%TO.C,Q154*%
X244713500Y-226461500D03*
X244713500Y-224561500D03*
X242838500Y-225511500D03*
%TD*%
%TO.C,Q143*%
X222213500Y-230361500D03*
X222213500Y-228461500D03*
X220338500Y-229411500D03*
%TD*%
%TO.C,Q350*%
X148913500Y-226461500D03*
X148913500Y-224561500D03*
X147038500Y-225511500D03*
%TD*%
D12*
%TO.C,R151*%
X226676000Y-244711500D03*
X226676000Y-245711500D03*
%TD*%
D18*
%TO.C,Q309*%
X271713500Y-238661500D03*
X271713500Y-236761500D03*
X269838500Y-237711500D03*
%TD*%
%TO.C,Q406*%
X196538500Y-237711500D03*
X198413500Y-236761500D03*
X198413500Y-238661500D03*
%TD*%
D12*
%TO.C,R241*%
X135376000Y-244711500D03*
X135376000Y-245711500D03*
%TD*%
D20*
%TO.C,Q328*%
X275276000Y-241074000D03*
X276226000Y-242949000D03*
X274326000Y-242949000D03*
%TD*%
D18*
%TO.C,Q384*%
X180413500Y-230361500D03*
X180413500Y-228461500D03*
X178538500Y-229411500D03*
%TD*%
%TO.C,Q141*%
X215838500Y-229411500D03*
X217713500Y-228461500D03*
X217713500Y-230361500D03*
%TD*%
%TO.C,Q330*%
X130913500Y-226461500D03*
X130913500Y-224561500D03*
X129038500Y-225511500D03*
%TD*%
D21*
%TO.C,R453*%
X202476000Y-232311500D03*
X203476000Y-232311500D03*
%TD*%
D20*
%TO.C,Q368*%
X161476000Y-241074000D03*
X162426000Y-242949000D03*
X160526000Y-242949000D03*
%TD*%
D18*
%TO.C,Q392*%
X183038500Y-233811500D03*
X184913500Y-232861500D03*
X184913500Y-234761500D03*
%TD*%
%TO.C,Q293*%
X233838500Y-237711500D03*
X235713500Y-236761500D03*
X235713500Y-238661500D03*
%TD*%
%TO.C,Q340*%
X139913500Y-226461500D03*
X139913500Y-224561500D03*
X138038500Y-225511500D03*
%TD*%
%TO.C,Q345*%
X144413500Y-226461500D03*
X144413500Y-224561500D03*
X142538500Y-225511500D03*
%TD*%
%TO.C,Q167*%
X276213500Y-230361500D03*
X276213500Y-228461500D03*
X274338500Y-229411500D03*
%TD*%
D12*
%TO.C,R248*%
X151576000Y-244711500D03*
X151576000Y-245711500D03*
%TD*%
D18*
%TO.C,Q361*%
X156038500Y-237711500D03*
X157913500Y-236761500D03*
X157913500Y-238661500D03*
%TD*%
D12*
%TO.C,R260*%
X178576000Y-244711500D03*
X178576000Y-245711500D03*
%TD*%
%TO.C,R150*%
X224876000Y-244711500D03*
X224876000Y-245711500D03*
%TD*%
D18*
%TO.C,Q305*%
X262713500Y-238661500D03*
X262713500Y-236761500D03*
X260838500Y-237711500D03*
%TD*%
D20*
%TO.C,Q325*%
X261776000Y-241074000D03*
X262726000Y-242949000D03*
X260826000Y-242949000D03*
%TD*%
D18*
%TO.C,Q166*%
X271713500Y-226461500D03*
X271713500Y-224561500D03*
X269838500Y-225511500D03*
%TD*%
D20*
%TO.C,Q323*%
X252776000Y-241074000D03*
X253726000Y-242949000D03*
X251826000Y-242949000D03*
%TD*%
D18*
%TO.C,Q359*%
X157913500Y-230361500D03*
X157913500Y-228461500D03*
X156038500Y-229411500D03*
%TD*%
D12*
%TO.C,R227*%
X253676000Y-244711500D03*
X253676000Y-245711500D03*
%TD*%
D20*
%TO.C,Q373*%
X165976000Y-241074000D03*
X166926000Y-242949000D03*
X165026000Y-242949000D03*
%TD*%
D18*
%TO.C,Q329*%
X130913500Y-230361500D03*
X130913500Y-228461500D03*
X129038500Y-229411500D03*
%TD*%
D20*
%TO.C,Q326*%
X266276000Y-241074000D03*
X267226000Y-242949000D03*
X265326000Y-242949000D03*
%TD*%
D12*
%TO.C,R235*%
X271676000Y-244711500D03*
X271676000Y-245711500D03*
%TD*%
D18*
%TO.C,Q306*%
X262713500Y-234761500D03*
X262713500Y-232861500D03*
X260838500Y-233811500D03*
%TD*%
%TO.C,Q380*%
X175913500Y-226461500D03*
X175913500Y-224561500D03*
X174038500Y-225511500D03*
%TD*%
D20*
%TO.C,Q318*%
X230376000Y-241074000D03*
X231326000Y-242949000D03*
X229426000Y-242949000D03*
%TD*%
D18*
%TO.C,Q137*%
X206838500Y-225511500D03*
X208713500Y-224561500D03*
X208713500Y-226461500D03*
%TD*%
D12*
%TO.C,R239*%
X130876000Y-244711500D03*
X130876000Y-245711500D03*
%TD*%
D18*
%TO.C,Q374*%
X171413500Y-230361500D03*
X171413500Y-228461500D03*
X169538500Y-229411500D03*
%TD*%
D12*
%TO.C,R252*%
X160576000Y-244711500D03*
X160576000Y-245711500D03*
%TD*%
%TO.C,R226*%
X251876000Y-244711500D03*
X251876000Y-245711500D03*
%TD*%
D20*
%TO.C,Q403*%
X192976000Y-241074000D03*
X193926000Y-242949000D03*
X192026000Y-242949000D03*
%TD*%
%TO.C,Q363*%
X156976000Y-241074000D03*
X157926000Y-242949000D03*
X156026000Y-242949000D03*
%TD*%
D12*
%TO.C,R246*%
X147076000Y-244711500D03*
X147076000Y-245711500D03*
%TD*%
D20*
%TO.C,Q322*%
X248276000Y-241074000D03*
X249226000Y-242949000D03*
X247326000Y-242949000D03*
%TD*%
D18*
%TO.C,Q351*%
X147038500Y-237711500D03*
X148913500Y-236761500D03*
X148913500Y-238661500D03*
%TD*%
D20*
%TO.C,Q408*%
X197476000Y-241074000D03*
X198426000Y-242949000D03*
X196526000Y-242949000D03*
%TD*%
D12*
%TO.C,R229*%
X258176000Y-244711500D03*
X258176000Y-245711500D03*
%TD*%
D18*
%TO.C,Q379*%
X175913500Y-230361500D03*
X175913500Y-228461500D03*
X174038500Y-229411500D03*
%TD*%
%TO.C,Q155*%
X249213500Y-230361500D03*
X249213500Y-228461500D03*
X247338500Y-229411500D03*
%TD*%
%TO.C,Q149*%
X235713500Y-230361500D03*
X235713500Y-228461500D03*
X233838500Y-229411500D03*
%TD*%
D12*
%TO.C,R253*%
X162376000Y-244711500D03*
X162376000Y-245711500D03*
%TD*%
D20*
%TO.C,Q388*%
X179476000Y-241074000D03*
X180426000Y-242949000D03*
X178526000Y-242949000D03*
%TD*%
D18*
%TO.C,Q352*%
X147038500Y-233811500D03*
X148913500Y-232861500D03*
X148913500Y-234761500D03*
%TD*%
D20*
%TO.C,Q393*%
X183976000Y-241074000D03*
X184926000Y-242949000D03*
X183026000Y-242949000D03*
%TD*%
D18*
%TO.C,Q371*%
X165038500Y-237711500D03*
X166913500Y-236761500D03*
X166913500Y-238661500D03*
%TD*%
D12*
%TO.C,R266*%
X192076000Y-244711500D03*
X192076000Y-245711500D03*
%TD*%
D18*
%TO.C,Q334*%
X135413500Y-230361500D03*
X135413500Y-228461500D03*
X133538500Y-229411500D03*
%TD*%
%TO.C,Q366*%
X160538500Y-237711500D03*
X162413500Y-236761500D03*
X162413500Y-238661500D03*
%TD*%
%TO.C,Q360*%
X157913500Y-226461500D03*
X157913500Y-224561500D03*
X156038500Y-225511500D03*
%TD*%
%TO.C,Q303*%
X258213500Y-238661500D03*
X258213500Y-236761500D03*
X256338500Y-237711500D03*
%TD*%
%TO.C,Q147*%
X231213500Y-230361500D03*
X231213500Y-228461500D03*
X229338500Y-229411500D03*
%TD*%
D12*
%TO.C,R153*%
X231176000Y-244711500D03*
X231176000Y-245711500D03*
%TD*%
D20*
%TO.C,Q327*%
X270776000Y-241074000D03*
X271726000Y-242949000D03*
X269826000Y-242949000D03*
%TD*%
D18*
%TO.C,Q347*%
X142538500Y-233811500D03*
X144413500Y-232861500D03*
X144413500Y-234761500D03*
%TD*%
D12*
%TO.C,R247*%
X148876000Y-244711500D03*
X148876000Y-245711500D03*
%TD*%
D21*
%TO.C,R445*%
X125676000Y-231311500D03*
X124676000Y-231311500D03*
%TD*%
D12*
%TO.C,R156*%
X238376000Y-244711500D03*
X238376000Y-245711500D03*
%TD*%
D20*
%TO.C,Q324*%
X257276000Y-241074000D03*
X258226000Y-242949000D03*
X256326000Y-242949000D03*
%TD*%
D21*
%TO.C,R308*%
X203476000Y-233311500D03*
X202476000Y-233311500D03*
%TD*%
D12*
%TO.C,R256*%
X169576000Y-244711500D03*
X169576000Y-245711500D03*
%TD*%
D20*
%TO.C,Q319*%
X234776000Y-241074000D03*
X235726000Y-242949000D03*
X233826000Y-242949000D03*
%TD*%
D12*
%TO.C,R245*%
X144376000Y-244711500D03*
X144376000Y-245711500D03*
%TD*%
D18*
%TO.C,Q153*%
X244713500Y-230361500D03*
X244713500Y-228461500D03*
X242838500Y-229411500D03*
%TD*%
D20*
%TO.C,Q348*%
X143476000Y-241074000D03*
X144426000Y-242949000D03*
X142526000Y-242949000D03*
%TD*%
D18*
%TO.C,Q284*%
X211338500Y-233811500D03*
X213213500Y-232861500D03*
X213213500Y-234761500D03*
%TD*%
D12*
%TO.C,R236*%
X274376000Y-245711500D03*
X274376000Y-244711500D03*
%TD*%
D18*
%TO.C,Q370*%
X166913500Y-226461500D03*
X166913500Y-224561500D03*
X165038500Y-225511500D03*
%TD*%
%TO.C,Q405*%
X198413500Y-226461500D03*
X198413500Y-224561500D03*
X196538500Y-225511500D03*
%TD*%
%TO.C,Q342*%
X138038500Y-233811500D03*
X139913500Y-232861500D03*
X139913500Y-234761500D03*
%TD*%
%TO.C,Q169*%
X206838500Y-237711500D03*
X208713500Y-236761500D03*
X208713500Y-238661500D03*
%TD*%
%TO.C,Q145*%
X226713500Y-230361500D03*
X226713500Y-228461500D03*
X224838500Y-229411500D03*
%TD*%
%TO.C,Q296*%
X238338500Y-233811500D03*
X240213500Y-232861500D03*
X240213500Y-234761500D03*
%TD*%
%TO.C,Q140*%
X213213500Y-230361500D03*
X213213500Y-228461500D03*
X211338500Y-229411500D03*
%TD*%
%TO.C,Q365*%
X162413500Y-226461500D03*
X162413500Y-224561500D03*
X160538500Y-225511500D03*
%TD*%
D20*
%TO.C,Q333*%
X129976000Y-241074000D03*
X130926000Y-242949000D03*
X129026000Y-242949000D03*
%TD*%
D12*
%TO.C,R257*%
X171376000Y-244711500D03*
X171376000Y-245711500D03*
%TD*%
%TO.C,R261*%
X180376000Y-244711500D03*
X180376000Y-245711500D03*
%TD*%
D18*
%TO.C,Q156*%
X249213500Y-226461500D03*
X249213500Y-224561500D03*
X247338500Y-225511500D03*
%TD*%
D20*
%TO.C,Q343*%
X138976000Y-241074000D03*
X139926000Y-242949000D03*
X138026000Y-242949000D03*
%TD*%
D18*
%TO.C,Q341*%
X138038500Y-237711500D03*
X139913500Y-236761500D03*
X139913500Y-238661500D03*
%TD*%
%TO.C,Q160*%
X258213500Y-226461500D03*
X258213500Y-224561500D03*
X256338500Y-225511500D03*
%TD*%
%TO.C,Q310*%
X271713500Y-234761500D03*
X271713500Y-232861500D03*
X269838500Y-233811500D03*
%TD*%
D12*
%TO.C,R230*%
X260876000Y-244711500D03*
X260876000Y-245711500D03*
%TD*%
D18*
%TO.C,Q397*%
X187538500Y-233811500D03*
X189413500Y-232861500D03*
X189413500Y-234761500D03*
%TD*%
%TO.C,Q339*%
X139913500Y-230361500D03*
X139913500Y-228461500D03*
X138038500Y-229411500D03*
%TD*%
%TO.C,Q367*%
X160538500Y-233811500D03*
X162413500Y-232861500D03*
X162413500Y-234761500D03*
%TD*%
D20*
%TO.C,Q353*%
X147976000Y-241074000D03*
X148926000Y-242949000D03*
X147026000Y-242949000D03*
%TD*%
D18*
%TO.C,Q292*%
X229338500Y-233811500D03*
X231213500Y-232861500D03*
X231213500Y-234761500D03*
%TD*%
%TO.C,Q291*%
X229338500Y-237711500D03*
X231213500Y-236761500D03*
X231213500Y-238661500D03*
%TD*%
D12*
%TO.C,R232*%
X265376000Y-244711500D03*
X265376000Y-245711500D03*
%TD*%
D18*
%TO.C,Q295*%
X238338500Y-237711500D03*
X240213500Y-236761500D03*
X240213500Y-238661500D03*
%TD*%
%TO.C,Q162*%
X262713500Y-226461500D03*
X262713500Y-224561500D03*
X260838500Y-225511500D03*
%TD*%
D12*
%TO.C,R233*%
X267176000Y-244711500D03*
X267176000Y-245711500D03*
%TD*%
%TO.C,R240*%
X133576000Y-244711500D03*
X133576000Y-245711500D03*
%TD*%
D18*
%TO.C,Q386*%
X178538500Y-237711500D03*
X180413500Y-236761500D03*
X180413500Y-238661500D03*
%TD*%
D20*
%TO.C,Q321*%
X243776000Y-241074000D03*
X244726000Y-242949000D03*
X242826000Y-242949000D03*
%TD*%
D18*
%TO.C,Q355*%
X153413500Y-226461500D03*
X153413500Y-224561500D03*
X151538500Y-225511500D03*
%TD*%
D12*
%TO.C,R265*%
X189376000Y-244711500D03*
X189376000Y-245711500D03*
%TD*%
D18*
%TO.C,Q163*%
X267213500Y-230361500D03*
X267213500Y-228461500D03*
X265338500Y-229411500D03*
%TD*%
D21*
%TO.C,R446*%
X125676000Y-232311500D03*
X124676000Y-232311500D03*
%TD*%
D20*
%TO.C,Q313*%
X207776000Y-241074000D03*
X208726000Y-242949000D03*
X206826000Y-242949000D03*
%TD*%
D18*
%TO.C,Q311*%
X276213500Y-238661500D03*
X276213500Y-236761500D03*
X274338500Y-237711500D03*
%TD*%
%TO.C,Q349*%
X148913500Y-230361500D03*
X148913500Y-228461500D03*
X147038500Y-229411500D03*
%TD*%
%TO.C,Q381*%
X174038500Y-237711500D03*
X175913500Y-236761500D03*
X175913500Y-238661500D03*
%TD*%
D20*
%TO.C,Q378*%
X170476000Y-241074000D03*
X171426000Y-242949000D03*
X169526000Y-242949000D03*
%TD*%
D18*
%TO.C,Q382*%
X174038500Y-233811500D03*
X175913500Y-232861500D03*
X175913500Y-234761500D03*
%TD*%
D12*
%TO.C,R158*%
X242876000Y-244711500D03*
X242876000Y-245711500D03*
%TD*%
D18*
%TO.C,Q170*%
X206838500Y-233811500D03*
X208713500Y-232861500D03*
X208713500Y-234761500D03*
%TD*%
%TO.C,Q161*%
X262713500Y-230361500D03*
X262713500Y-228461500D03*
X260838500Y-229411500D03*
%TD*%
D20*
%TO.C,Q316*%
X221276000Y-241074000D03*
X222226000Y-242949000D03*
X220326000Y-242949000D03*
%TD*%
D18*
%TO.C,Q369*%
X166913500Y-230361500D03*
X166913500Y-228461500D03*
X165038500Y-229411500D03*
%TD*%
D20*
%TO.C,Q358*%
X152476000Y-241074000D03*
X153426000Y-242949000D03*
X151526000Y-242949000D03*
%TD*%
D18*
%TO.C,Q288*%
X220338500Y-233811500D03*
X222213500Y-232861500D03*
X222213500Y-234761500D03*
%TD*%
D12*
%TO.C,R155*%
X235676000Y-244711500D03*
X235676000Y-245711500D03*
%TD*%
%TO.C,R264*%
X187576000Y-244711500D03*
X187576000Y-245711500D03*
%TD*%
D18*
%TO.C,Q139*%
X213213500Y-226461500D03*
X213213500Y-224561500D03*
X211338500Y-225511500D03*
%TD*%
%TO.C,Q337*%
X133538500Y-233811500D03*
X135413500Y-232861500D03*
X135413500Y-234761500D03*
%TD*%
%TO.C,Q144*%
X222213500Y-226461500D03*
X222213500Y-224561500D03*
X220338500Y-225511500D03*
%TD*%
D12*
%TO.C,R142*%
X208676000Y-244711500D03*
X208676000Y-245711500D03*
%TD*%
%TO.C,R269*%
X198376000Y-244711500D03*
X198376000Y-245711500D03*
%TD*%
%TO.C,R147*%
X217676000Y-244711500D03*
X217676000Y-245711500D03*
%TD*%
D18*
%TO.C,Q152*%
X240213500Y-226461500D03*
X240213500Y-224561500D03*
X238338500Y-225511500D03*
%TD*%
%TO.C,Q158*%
X253713500Y-226461500D03*
X253713500Y-224561500D03*
X251838500Y-225511500D03*
%TD*%
D12*
%TO.C,R161*%
X249176000Y-244711500D03*
X249176000Y-245711500D03*
%TD*%
D18*
%TO.C,Q399*%
X193913500Y-230361500D03*
X193913500Y-228461500D03*
X192038500Y-229411500D03*
%TD*%
D12*
%TO.C,R231*%
X262676000Y-244711500D03*
X262676000Y-245711500D03*
%TD*%
D14*
%TO.C,Q493*%
X202038500Y-226861500D03*
X202038500Y-228761500D03*
X203913500Y-227811500D03*
%TD*%
D18*
%TO.C,Q364*%
X162413500Y-230361500D03*
X162413500Y-228461500D03*
X160538500Y-229411500D03*
%TD*%
D12*
%TO.C,R251*%
X157876000Y-244711500D03*
X157876000Y-245711500D03*
%TD*%
D18*
%TO.C,Q299*%
X247338500Y-237711500D03*
X249213500Y-236761500D03*
X249213500Y-238661500D03*
%TD*%
%TO.C,Q302*%
X253713500Y-234761500D03*
X253713500Y-232861500D03*
X251838500Y-233811500D03*
%TD*%
D12*
%TO.C,R242*%
X138076000Y-244711500D03*
X138076000Y-245711500D03*
%TD*%
D18*
%TO.C,Q377*%
X169538500Y-233811500D03*
X171413500Y-232861500D03*
X171413500Y-234761500D03*
%TD*%
D12*
%TO.C,R157*%
X240176000Y-244711500D03*
X240176000Y-245711500D03*
%TD*%
%TO.C,R254*%
X165076000Y-244711500D03*
X165076000Y-245711500D03*
%TD*%
D18*
%TO.C,Q336*%
X133538500Y-237711500D03*
X135413500Y-236761500D03*
X135413500Y-238661500D03*
%TD*%
%TO.C,Q332*%
X129038500Y-233811500D03*
X130913500Y-232861500D03*
X130913500Y-234761500D03*
%TD*%
%TO.C,Q376*%
X169538500Y-237711500D03*
X171413500Y-236761500D03*
X171413500Y-238661500D03*
%TD*%
D20*
%TO.C,Q398*%
X188476000Y-241074000D03*
X189426000Y-242949000D03*
X187526000Y-242949000D03*
%TD*%
D18*
%TO.C,Q146*%
X226713500Y-226461500D03*
X226713500Y-224561500D03*
X224838500Y-225511500D03*
%TD*%
%TO.C,Q150*%
X235713500Y-226461500D03*
X235713500Y-224561500D03*
X233838500Y-225511500D03*
%TD*%
%TO.C,Q301*%
X251838500Y-237711500D03*
X253713500Y-236761500D03*
X253713500Y-238661500D03*
%TD*%
D12*
%TO.C,R255*%
X166876000Y-244711500D03*
X166876000Y-245711500D03*
%TD*%
%TO.C,R110*%
X267600000Y-378500000D03*
X267600000Y-377500000D03*
%TD*%
D19*
%TO.C,Q174*%
X254950000Y-260562500D03*
X253050000Y-260562500D03*
X254000000Y-262437500D03*
%TD*%
%TO.C,Q431*%
X125173718Y-304062500D03*
X123273718Y-304062500D03*
X124223718Y-305937500D03*
%TD*%
D14*
%TO.C,Q40*%
X202162500Y-371350000D03*
X202162500Y-373250000D03*
X204037500Y-372300000D03*
%TD*%
D12*
%TO.C,R96*%
X243500000Y-352400000D03*
X243500000Y-351400000D03*
%TD*%
D16*
%TO.C,R555*%
X257600000Y-340600000D03*
X257600000Y-341600000D03*
%TD*%
D19*
%TO.C,Q259*%
X218950000Y-269562500D03*
X217050000Y-269562500D03*
X218000000Y-271437500D03*
%TD*%
D12*
%TO.C,R378*%
X119600000Y-374800000D03*
X119600000Y-373800000D03*
%TD*%
%TO.C,R97*%
X244500000Y-352400000D03*
X244500000Y-351400000D03*
%TD*%
D19*
%TO.C,*%
X229050000Y-269562500D03*
%TD*%
D21*
%TO.C,R185*%
X217900000Y-273600000D03*
X218900000Y-273600000D03*
%TD*%
D20*
%TO.C,Q520*%
X302950000Y-220437500D03*
X304850000Y-220437500D03*
X303900000Y-218562500D03*
%TD*%
D14*
%TO.C,Q56*%
X242162500Y-375350000D03*
X242162500Y-377250000D03*
X244037500Y-376300000D03*
%TD*%
D12*
%TO.C,R99*%
X249500000Y-352400000D03*
X249500000Y-351400000D03*
%TD*%
D19*
%TO.C,Q605*%
X130800000Y-270337500D03*
X129850000Y-268462500D03*
X131750000Y-268462500D03*
%TD*%
D21*
%TO.C,R333*%
X278900000Y-245000000D03*
X279900000Y-245000000D03*
%TD*%
D19*
%TO.C,*%
X173050000Y-269562500D03*
%TD*%
D17*
%TO.C,R318*%
X308000000Y-213500000D03*
X307000000Y-213500000D03*
%TD*%
D19*
%TO.C,Q557*%
X287850000Y-236562500D03*
X285950000Y-236562500D03*
X286900000Y-238437500D03*
%TD*%
D12*
%TO.C,R69*%
X189500000Y-352400000D03*
X189500000Y-351400000D03*
%TD*%
D19*
%TO.C,Q101*%
X209150000Y-329162500D03*
X207250000Y-329162500D03*
X208200000Y-331037500D03*
%TD*%
D12*
%TO.C,R356*%
X119600000Y-392400000D03*
X119600000Y-391400000D03*
%TD*%
D17*
%TO.C,R52*%
X257600000Y-339400000D03*
X256600000Y-339400000D03*
%TD*%
D19*
%TO.C,Q279*%
X186950000Y-275562500D03*
X185050000Y-275562500D03*
X186000000Y-277437500D03*
%TD*%
%TO.C,Q554*%
X287850000Y-232062500D03*
X285950000Y-232062500D03*
X286900000Y-233937500D03*
%TD*%
%TO.C,Q187*%
X150950000Y-260562500D03*
X149050000Y-260562500D03*
X150000000Y-262437500D03*
%TD*%
D22*
%TO.C,D30*%
X269000000Y-371610000D03*
X269000000Y-373190000D03*
%TD*%
D19*
%TO.C,Q173*%
X262950000Y-260562500D03*
X261050000Y-260562500D03*
X262000000Y-262437500D03*
%TD*%
D21*
%TO.C,R178*%
X273900000Y-273600000D03*
X274900000Y-273600000D03*
%TD*%
%TO.C,R286*%
X121523718Y-313900000D03*
X120523718Y-313900000D03*
%TD*%
D19*
%TO.C,Q239*%
X246950000Y-269562500D03*
X245050000Y-269562500D03*
X246000000Y-271437500D03*
%TD*%
%TO.C,Q549*%
X283850000Y-223062500D03*
X281950000Y-223062500D03*
X282900000Y-224937500D03*
%TD*%
D14*
%TO.C,Q61*%
X257162500Y-371350000D03*
X257162500Y-373250000D03*
X259037500Y-372300000D03*
%TD*%
D12*
%TO.C,R92*%
X233500000Y-352400000D03*
X233500000Y-351400000D03*
%TD*%
D19*
%TO.C,Q278*%
X194950000Y-275562500D03*
X193050000Y-275562500D03*
X194000000Y-277437500D03*
%TD*%
D12*
%TO.C,R486*%
X118600000Y-379200000D03*
X118600000Y-378200000D03*
%TD*%
D19*
%TO.C,Q421*%
X125173718Y-295062500D03*
X123273718Y-295062500D03*
X124223718Y-296937500D03*
%TD*%
D16*
%TO.C,R514*%
X191900000Y-279400000D03*
X191900000Y-280400000D03*
%TD*%
D12*
%TO.C,R59*%
X164500000Y-352400000D03*
X164500000Y-351400000D03*
%TD*%
D19*
%TO.C,Q555*%
X283850000Y-232062500D03*
X281950000Y-232062500D03*
X282900000Y-233937500D03*
%TD*%
D12*
%TO.C,R472*%
X128100000Y-370400000D03*
X128100000Y-369400000D03*
%TD*%
D14*
%TO.C,Q50*%
X222162500Y-363350000D03*
X222162500Y-365250000D03*
X224037500Y-364300000D03*
%TD*%
D19*
%TO.C,Q213*%
X198950000Y-265062500D03*
X197050000Y-265062500D03*
X198000000Y-266937500D03*
%TD*%
D16*
%TO.C,R518*%
X175900000Y-279400000D03*
X175900000Y-280400000D03*
%TD*%
D19*
%TO.C,Q207*%
X246950000Y-265062500D03*
X245050000Y-265062500D03*
X246000000Y-266937500D03*
%TD*%
%TO.C,Q227*%
X218950000Y-265062500D03*
X217050000Y-265062500D03*
X218000000Y-266937500D03*
%TD*%
D21*
%TO.C,R182*%
X241900000Y-273600000D03*
X242900000Y-273600000D03*
%TD*%
D12*
%TO.C,R169*%
X215400000Y-273600000D03*
X215400000Y-272600000D03*
%TD*%
%TO.C,R70*%
X193500000Y-352400000D03*
X193500000Y-351400000D03*
%TD*%
D20*
%TO.C,Q84*%
X275750000Y-356837500D03*
X277650000Y-356837500D03*
X276700000Y-354962500D03*
%TD*%
D12*
%TO.C,R435*%
X126326000Y-245611500D03*
X126326000Y-244611500D03*
%TD*%
D19*
%TO.C,Q115*%
X237150000Y-334162500D03*
X235250000Y-334162500D03*
X236200000Y-336037500D03*
%TD*%
D17*
%TO.C,R31*%
X244500000Y-353400000D03*
X243500000Y-353400000D03*
%TD*%
D19*
%TO.C,Q282*%
X162950000Y-275562500D03*
X161050000Y-275562500D03*
X162000000Y-277437500D03*
%TD*%
%TO.C,Q123*%
X273850000Y-349962500D03*
X271950000Y-349962500D03*
X272900000Y-351837500D03*
%TD*%
D12*
%TO.C,R162*%
X271400000Y-273600000D03*
X271400000Y-272600000D03*
%TD*%
D19*
%TO.C,Q434*%
X134173718Y-308562500D03*
X132273718Y-308562500D03*
X133223718Y-310437500D03*
%TD*%
%TO.C,Q264*%
X178950000Y-269562500D03*
X177050000Y-269562500D03*
X178000000Y-271437500D03*
%TD*%
%TO.C,Q441*%
X124223718Y-314937500D03*
X123273718Y-313062500D03*
X125173718Y-313062500D03*
%TD*%
D20*
%TO.C,Q86*%
X275750000Y-346837500D03*
X277650000Y-346837500D03*
X276700000Y-344962500D03*
%TD*%
D13*
%TO.C,D9*%
X187100000Y-353090000D03*
X187100000Y-351510000D03*
%TD*%
D14*
%TO.C,Q43*%
X202162500Y-363350000D03*
X202162500Y-365250000D03*
X204037500Y-364300000D03*
%TD*%
%TO.C,Q27*%
X197162500Y-363350000D03*
X197162500Y-365250000D03*
X199037500Y-364300000D03*
%TD*%
%TO.C,Q16*%
X147162500Y-355350000D03*
X147162500Y-357250000D03*
X149037500Y-356300000D03*
%TD*%
D16*
%TO.C,R215*%
X233900000Y-279400000D03*
X233900000Y-280400000D03*
%TD*%
D12*
%TO.C,R165*%
X247400000Y-273600000D03*
X247400000Y-272600000D03*
%TD*%
D14*
%TO.C,Q59*%
X252162500Y-375350000D03*
X252162500Y-377250000D03*
X254037500Y-376300000D03*
%TD*%
D12*
%TO.C,R197*%
X248600000Y-273600000D03*
X248600000Y-272600000D03*
%TD*%
D19*
%TO.C,Q106*%
X229150000Y-329162500D03*
X227250000Y-329162500D03*
X228200000Y-331037500D03*
%TD*%
%TO.C,Q126*%
X273850000Y-333962500D03*
X271950000Y-333962500D03*
X272900000Y-335837500D03*
%TD*%
%TO.C,*%
X181050000Y-269562500D03*
%TD*%
D16*
%TO.C,R109*%
X267600000Y-375400000D03*
X267600000Y-376400000D03*
%TD*%
D14*
%TO.C,Q515*%
X136825000Y-343525000D03*
X136825000Y-345425000D03*
X138700000Y-344475000D03*
%TD*%
D12*
%TO.C,R40*%
X270400000Y-341500000D03*
X270400000Y-340500000D03*
%TD*%
D23*
%TO.C,D48*%
X148952500Y-339375000D03*
X147372500Y-339375000D03*
%TD*%
D12*
%TO.C,R5*%
X120600000Y-374800000D03*
X120600000Y-373800000D03*
%TD*%
D14*
%TO.C,Q23*%
X167162500Y-355350000D03*
X167162500Y-357250000D03*
X169037500Y-356300000D03*
%TD*%
D19*
%TO.C,Q232*%
X178950000Y-265062500D03*
X177050000Y-265062500D03*
X178000000Y-266937500D03*
%TD*%
%TO.C,Q210*%
X222950000Y-265062500D03*
X221050000Y-265062500D03*
X222000000Y-266937500D03*
%TD*%
D12*
%TO.C,R475*%
X127100000Y-361600000D03*
X127100000Y-360600000D03*
%TD*%
%TO.C,R484*%
X118600000Y-374800000D03*
X118600000Y-373800000D03*
%TD*%
D19*
%TO.C,Q551*%
X287850000Y-227562500D03*
X285950000Y-227562500D03*
X286900000Y-229437500D03*
%TD*%
D16*
%TO.C,R225*%
X153900000Y-279400000D03*
X153900000Y-280400000D03*
%TD*%
D17*
%TO.C,R35*%
X264500000Y-353400000D03*
X263500000Y-353400000D03*
%TD*%
D19*
%TO.C,Q242*%
X222950000Y-269562500D03*
X221050000Y-269562500D03*
X222000000Y-271437500D03*
%TD*%
D17*
%TO.C,R346*%
X155262500Y-342975000D03*
X154262500Y-342975000D03*
%TD*%
D19*
%TO.C,Q128*%
X213150000Y-339162500D03*
X211250000Y-339162500D03*
X212200000Y-341037500D03*
%TD*%
%TO.C,Q177*%
X230950000Y-260562500D03*
X229050000Y-260562500D03*
X230000000Y-262437500D03*
%TD*%
D13*
%TO.C,D7*%
X177100000Y-353090000D03*
X177100000Y-351510000D03*
%TD*%
D16*
%TO.C,R128*%
X267600000Y-344400000D03*
X267600000Y-345400000D03*
%TD*%
D12*
%TO.C,R53*%
X149500000Y-352400000D03*
X149500000Y-351400000D03*
%TD*%
%TO.C,R103*%
X259500000Y-352400000D03*
X259500000Y-351400000D03*
%TD*%
D16*
%TO.C,R522*%
X159900000Y-279400000D03*
X159900000Y-280400000D03*
%TD*%
D19*
%TO.C,Q105*%
X225150000Y-329162500D03*
X223250000Y-329162500D03*
X224200000Y-331037500D03*
%TD*%
D14*
%TO.C,Q21*%
X157162500Y-363350000D03*
X157162500Y-365250000D03*
X159037500Y-364300000D03*
%TD*%
D17*
%TO.C,R443*%
X155262500Y-344975000D03*
X154262500Y-344975000D03*
%TD*%
%TO.C,R24*%
X209500000Y-353400000D03*
X208500000Y-353400000D03*
%TD*%
D21*
%TO.C,R326*%
X278900000Y-213500000D03*
X279900000Y-213500000D03*
%TD*%
D12*
%TO.C,R131*%
X267600000Y-341500000D03*
X267600000Y-340500000D03*
%TD*%
D17*
%TO.C,R126*%
X269700000Y-353600000D03*
X268700000Y-353600000D03*
%TD*%
D22*
%TO.C,D81*%
X255200000Y-329710000D03*
X255200000Y-331290000D03*
%TD*%
D19*
%TO.C,Q270*%
X258950000Y-275562500D03*
X257050000Y-275562500D03*
X258000000Y-277437500D03*
%TD*%
D12*
%TO.C,R42*%
X270400000Y-331500000D03*
X270400000Y-330500000D03*
%TD*%
%TO.C,R361*%
X119600000Y-366000000D03*
X119600000Y-365000000D03*
%TD*%
D19*
%TO.C,Q522*%
X296850000Y-218562500D03*
X294950000Y-218562500D03*
X295900000Y-220437500D03*
%TD*%
D12*
%TO.C,R172*%
X191400000Y-273600000D03*
X191400000Y-272600000D03*
%TD*%
%TO.C,R61*%
X169500000Y-352400000D03*
X169500000Y-351400000D03*
%TD*%
D19*
%TO.C,Q624*%
X198950000Y-275562500D03*
X197050000Y-275562500D03*
X198000000Y-277437500D03*
%TD*%
%TO.C,Q182*%
X190950000Y-260562500D03*
X189050000Y-260562500D03*
X190000000Y-262437500D03*
%TD*%
D23*
%TO.C,D63*%
X120190000Y-385700000D03*
X118610000Y-385700000D03*
%TD*%
D12*
%TO.C,R105*%
X264500000Y-352400000D03*
X264500000Y-351400000D03*
%TD*%
D22*
%TO.C,D31*%
X269000000Y-366610000D03*
X269000000Y-368190000D03*
%TD*%
D16*
%TO.C,R122*%
X267600000Y-354400000D03*
X267600000Y-355400000D03*
%TD*%
D19*
%TO.C,Q621*%
X222950000Y-275562500D03*
X221050000Y-275562500D03*
X222000000Y-277437500D03*
%TD*%
D12*
%TO.C,R84*%
X213500000Y-352400000D03*
X213500000Y-351400000D03*
%TD*%
D19*
%TO.C,Q209*%
X230950000Y-265062500D03*
X229050000Y-265062500D03*
X230000000Y-266937500D03*
%TD*%
D14*
%TO.C,Q49*%
X232162500Y-367350000D03*
X232162500Y-369250000D03*
X234037500Y-368300000D03*
%TD*%
D19*
%TO.C,Q124*%
X273850000Y-344962500D03*
X271950000Y-344962500D03*
X272900000Y-346837500D03*
%TD*%
%TO.C,Q237*%
X262950000Y-269562500D03*
X261050000Y-269562500D03*
X262000000Y-271437500D03*
%TD*%
D16*
%TO.C,R216*%
X225900000Y-279400000D03*
X225900000Y-280400000D03*
%TD*%
D12*
%TO.C,R477*%
X117600000Y-361600000D03*
X117600000Y-360600000D03*
%TD*%
D19*
%TO.C,Q433*%
X139173718Y-308562500D03*
X137273718Y-308562500D03*
X138223718Y-310437500D03*
%TD*%
%TO.C,*%
X221050000Y-269562500D03*
%TD*%
D16*
%TO.C,R501*%
X240900000Y-279400000D03*
X240900000Y-280400000D03*
%TD*%
D12*
%TO.C,R483*%
X117600000Y-374800000D03*
X117600000Y-373800000D03*
%TD*%
%TO.C,R163*%
X263400000Y-273600000D03*
X263400000Y-272600000D03*
%TD*%
D19*
%TO.C,*%
X237050000Y-269562500D03*
%TD*%
D16*
%TO.C,R512*%
X199900000Y-279400000D03*
X199900000Y-280400000D03*
%TD*%
D12*
%TO.C,R362*%
X119600000Y-361600000D03*
X119600000Y-360600000D03*
%TD*%
D21*
%TO.C,R180*%
X257900000Y-273600000D03*
X258900000Y-273600000D03*
%TD*%
D14*
%TO.C,Q588*%
X138825000Y-335525000D03*
X138825000Y-337425000D03*
X140700000Y-336475000D03*
%TD*%
D13*
%TO.C,D20*%
X227100000Y-353090000D03*
X227100000Y-351510000D03*
%TD*%
D12*
%TO.C,R72*%
X198500000Y-352400000D03*
X198500000Y-351400000D03*
%TD*%
%TO.C,R37*%
X270400000Y-378500000D03*
X270400000Y-377500000D03*
%TD*%
D21*
%TO.C,R436*%
X162762500Y-339975000D03*
X163762500Y-339975000D03*
%TD*%
D19*
%TO.C,Q623*%
X206950000Y-275562500D03*
X205050000Y-275562500D03*
X206000000Y-277437500D03*
%TD*%
D12*
%TO.C,R199*%
X232600000Y-273600000D03*
X232600000Y-272600000D03*
%TD*%
D16*
%TO.C,R222*%
X177900000Y-279400000D03*
X177900000Y-280400000D03*
%TD*%
D12*
%TO.C,R100*%
X253500000Y-352400000D03*
X253500000Y-351400000D03*
%TD*%
%TO.C,R478*%
X118600000Y-361600000D03*
X118600000Y-360600000D03*
%TD*%
%TO.C,R58*%
X163500000Y-352400000D03*
X163500000Y-351400000D03*
%TD*%
D14*
%TO.C,Q595*%
X132325000Y-343525000D03*
X132325000Y-345425000D03*
X134200000Y-344475000D03*
%TD*%
D12*
%TO.C,R201*%
X216600000Y-273600000D03*
X216600000Y-272600000D03*
%TD*%
D24*
%TO.C,D73*%
X205010000Y-279700000D03*
X206590000Y-279700000D03*
%TD*%
D19*
%TO.C,Q254*%
X258950000Y-269562500D03*
X257050000Y-269562500D03*
X258000000Y-271437500D03*
%TD*%
D12*
%TO.C,R466*%
X128100000Y-383600000D03*
X128100000Y-382600000D03*
%TD*%
D11*
%TO.C,J7*%
X130900000Y-278400000D03*
%TD*%
D19*
%TO.C,Q228*%
X210950000Y-265062500D03*
X209050000Y-265062500D03*
X210000000Y-266937500D03*
%TD*%
%TO.C,Q197*%
X202950000Y-260562500D03*
X201050000Y-260562500D03*
X202000000Y-262437500D03*
%TD*%
D16*
%TO.C,R509*%
X208900000Y-279400000D03*
X208900000Y-280400000D03*
%TD*%
D21*
%TO.C,R442*%
X144562500Y-333075000D03*
X145562500Y-333075000D03*
%TD*%
D14*
%TO.C,Q63*%
X262162500Y-379350000D03*
X262162500Y-381250000D03*
X264037500Y-380300000D03*
%TD*%
D17*
%TO.C,R444*%
X155262500Y-343975000D03*
X154262500Y-343975000D03*
%TD*%
D12*
%TO.C,R492*%
X118600000Y-392400000D03*
X118600000Y-391400000D03*
%TD*%
D19*
%TO.C,Q552*%
X283950000Y-227562500D03*
X282050000Y-227562500D03*
X283000000Y-229437500D03*
%TD*%
%TO.C,Q236*%
X270950000Y-269562500D03*
X269050000Y-269562500D03*
X270000000Y-271437500D03*
%TD*%
D12*
%TO.C,R479*%
X117600000Y-366000000D03*
X117600000Y-365000000D03*
%TD*%
D19*
%TO.C,Q190*%
X258950000Y-260562500D03*
X257050000Y-260562500D03*
X258000000Y-262437500D03*
%TD*%
D14*
%TO.C,Q54*%
X237162500Y-371350000D03*
X237162500Y-373250000D03*
X239037500Y-372300000D03*
%TD*%
D12*
%TO.C,R373*%
X129100000Y-370400000D03*
X129100000Y-369400000D03*
%TD*%
D19*
%TO.C,Q212*%
X206950000Y-265062500D03*
X205050000Y-265062500D03*
X206000000Y-266937500D03*
%TD*%
%TO.C,Q273*%
X234950000Y-275562500D03*
X233050000Y-275562500D03*
X234000000Y-277437500D03*
%TD*%
D16*
%TO.C,R503*%
X232900000Y-279400000D03*
X232900000Y-280400000D03*
%TD*%
D24*
%TO.C,D77*%
X173010000Y-279700000D03*
X174590000Y-279700000D03*
%TD*%
D14*
%TO.C,Q13*%
X147162500Y-367350000D03*
X147162500Y-369250000D03*
X149037500Y-368300000D03*
%TD*%
D12*
%TO.C,R469*%
X128100000Y-374800000D03*
X128100000Y-373800000D03*
%TD*%
D19*
%TO.C,Q439*%
X133223718Y-314937500D03*
X132273718Y-313062500D03*
X134173718Y-313062500D03*
%TD*%
D16*
%TO.C,R513*%
X192900000Y-279400000D03*
X192900000Y-280400000D03*
%TD*%
D12*
%TO.C,R488*%
X118600000Y-383600000D03*
X118600000Y-382600000D03*
%TD*%
%TO.C,R60*%
X168500000Y-352400000D03*
X168500000Y-351400000D03*
%TD*%
D24*
%TO.C,D80*%
X149010000Y-279700000D03*
X150590000Y-279700000D03*
%TD*%
D22*
%TO.C,D29*%
X269000000Y-376610000D03*
X269000000Y-378190000D03*
%TD*%
D17*
%TO.C,R14*%
X174500000Y-353400000D03*
X173500000Y-353400000D03*
%TD*%
D20*
%TO.C,Q562*%
X289950000Y-247437500D03*
X291850000Y-247437500D03*
X290900000Y-245562500D03*
%TD*%
D19*
%TO.C,Q234*%
X162950000Y-265062500D03*
X161050000Y-265062500D03*
X162000000Y-266937500D03*
%TD*%
D22*
%TO.C,D35*%
X269000000Y-345610000D03*
X269000000Y-347190000D03*
%TD*%
D19*
%TO.C,Q223*%
X250950000Y-265062500D03*
X249050000Y-265062500D03*
X250000000Y-266937500D03*
%TD*%
D17*
%TO.C,R34*%
X259500000Y-353400000D03*
X258500000Y-353400000D03*
%TD*%
D14*
%TO.C,Q34*%
X192162500Y-355350000D03*
X192162500Y-357250000D03*
X194037500Y-356300000D03*
%TD*%
D21*
%TO.C,R283*%
X120523718Y-305850000D03*
X121523718Y-305850000D03*
%TD*%
D16*
%TO.C,R517*%
X176900000Y-279400000D03*
X176900000Y-280400000D03*
%TD*%
%TO.C,R510*%
X207900000Y-279400000D03*
X207900000Y-280400000D03*
%TD*%
%TO.C,R556*%
X256600000Y-340600000D03*
X256600000Y-341600000D03*
%TD*%
D19*
%TO.C,Q133*%
X233150000Y-339162500D03*
X231250000Y-339162500D03*
X232200000Y-341037500D03*
%TD*%
D17*
%TO.C,R352*%
X158262500Y-334075000D03*
X157262500Y-334075000D03*
%TD*%
D22*
%TO.C,D82*%
X255200000Y-324710000D03*
X255200000Y-326290000D03*
%TD*%
D19*
%TO.C,Q617*%
X254950000Y-275562500D03*
X253050000Y-275562500D03*
X254000000Y-277437500D03*
%TD*%
D12*
%TO.C,R81*%
X204500000Y-352400000D03*
X204500000Y-351400000D03*
%TD*%
D19*
%TO.C,Q542*%
X287850000Y-214062500D03*
X285950000Y-214062500D03*
X286900000Y-215937500D03*
%TD*%
%TO.C,Q122*%
X273850000Y-354962500D03*
X271950000Y-354962500D03*
X272900000Y-356837500D03*
%TD*%
%TO.C,Q108*%
X237150000Y-329162500D03*
X235250000Y-329162500D03*
X236200000Y-331037500D03*
%TD*%
%TO.C,Q220*%
X274950000Y-265062500D03*
X273050000Y-265062500D03*
X274000000Y-266937500D03*
%TD*%
D20*
%TO.C,Q550*%
X289950000Y-229437500D03*
X291850000Y-229437500D03*
X290900000Y-227562500D03*
%TD*%
D22*
%TO.C,D34*%
X269000000Y-350610000D03*
X269000000Y-352190000D03*
%TD*%
D19*
%TO.C,Q88*%
X209150000Y-324162500D03*
X207250000Y-324162500D03*
X208200000Y-326037500D03*
%TD*%
D17*
%TO.C,R320*%
X308000000Y-222500000D03*
X307000000Y-222500000D03*
%TD*%
D19*
%TO.C,Q193*%
X234950000Y-260562500D03*
X233050000Y-260562500D03*
X234000000Y-262437500D03*
%TD*%
D12*
%TO.C,R80*%
X203500000Y-352400000D03*
X203500000Y-351400000D03*
%TD*%
D19*
%TO.C,Q93*%
X229150000Y-324162500D03*
X227250000Y-324162500D03*
X228200000Y-326037500D03*
%TD*%
D12*
%TO.C,R464*%
X127100000Y-388000000D03*
X127100000Y-387000000D03*
%TD*%
D17*
%TO.C,R33*%
X254500000Y-353400000D03*
X253500000Y-353400000D03*
%TD*%
D18*
%TO.C,Q2*%
X124137500Y-387650000D03*
X124137500Y-385750000D03*
X122262500Y-386700000D03*
%TD*%
D19*
%TO.C,Q625*%
X190950000Y-275562500D03*
X189050000Y-275562500D03*
X190000000Y-277437500D03*
%TD*%
D24*
%TO.C,D75*%
X189010000Y-279700000D03*
X190590000Y-279700000D03*
%TD*%
D19*
%TO.C,Q558*%
X283850000Y-236562500D03*
X281950000Y-236562500D03*
X282900000Y-238437500D03*
%TD*%
%TO.C,Q113*%
X229150000Y-334162500D03*
X227250000Y-334162500D03*
X228200000Y-336037500D03*
%TD*%
%TO.C,Q195*%
X218950000Y-260562500D03*
X217050000Y-260562500D03*
X218000000Y-262437500D03*
%TD*%
D12*
%TO.C,R379*%
X130100000Y-374800000D03*
X130100000Y-373800000D03*
%TD*%
%TO.C,R88*%
X224500000Y-352400000D03*
X224500000Y-351400000D03*
%TD*%
D14*
%TO.C,Q19*%
X157162500Y-355350000D03*
X157162500Y-357250000D03*
X159037500Y-356300000D03*
%TD*%
D19*
%TO.C,Q184*%
X174950000Y-260562500D03*
X173050000Y-260562500D03*
X174000000Y-262437500D03*
%TD*%
D12*
%TO.C,R107*%
X267600000Y-383500000D03*
X267600000Y-382500000D03*
%TD*%
D14*
%TO.C,Q64*%
X262162500Y-375350000D03*
X262162500Y-377250000D03*
X264037500Y-376300000D03*
%TD*%
D16*
%TO.C,R494*%
X264900000Y-279400000D03*
X264900000Y-280400000D03*
%TD*%
D19*
%TO.C,Q215*%
X182950000Y-265062500D03*
X181050000Y-265062500D03*
X182000000Y-266937500D03*
%TD*%
%TO.C,Q198*%
X194950000Y-260562500D03*
X193050000Y-260562500D03*
X194000000Y-262437500D03*
%TD*%
%TO.C,Q256*%
X242950000Y-269562500D03*
X241050000Y-269562500D03*
X242000000Y-271437500D03*
%TD*%
D14*
%TO.C,Q12*%
X147162500Y-371350000D03*
X147162500Y-373250000D03*
X149037500Y-372300000D03*
%TD*%
D19*
%TO.C,Q235*%
X154950000Y-265062500D03*
X153050000Y-265062500D03*
X154000000Y-266937500D03*
%TD*%
%TO.C,Q136*%
X273850000Y-323962500D03*
X271950000Y-323962500D03*
X272900000Y-325837500D03*
%TD*%
D14*
%TO.C,Q48*%
X222162500Y-367350000D03*
X222162500Y-369250000D03*
X224037500Y-368300000D03*
%TD*%
D19*
%TO.C,Q204*%
X270950000Y-265062500D03*
X269050000Y-265062500D03*
X270000000Y-266937500D03*
%TD*%
D12*
%TO.C,R490*%
X118600000Y-388000000D03*
X118600000Y-387000000D03*
%TD*%
D21*
%TO.C,R349*%
X144562500Y-334075000D03*
X145562500Y-334075000D03*
%TD*%
D16*
%TO.C,R210*%
X273900000Y-279400000D03*
X273900000Y-280400000D03*
%TD*%
D13*
%TO.C,D27*%
X262100000Y-353090000D03*
X262100000Y-351510000D03*
%TD*%
D19*
%TO.C,Q276*%
X210950000Y-275562500D03*
X209050000Y-275562500D03*
X210000000Y-277437500D03*
%TD*%
D17*
%TO.C,R111*%
X269700000Y-379600000D03*
X268700000Y-379600000D03*
%TD*%
%TO.C,R351*%
X158262500Y-333075000D03*
X157262500Y-333075000D03*
%TD*%
D12*
%TO.C,R168*%
X223400000Y-273600000D03*
X223400000Y-272600000D03*
%TD*%
D20*
%TO.C,Q78*%
X283750000Y-382800000D03*
X285650000Y-382800000D03*
X284700000Y-380925000D03*
%TD*%
D19*
%TO.C,Q615*%
X262950000Y-275562500D03*
X261050000Y-275562500D03*
X262000000Y-277437500D03*
%TD*%
%TO.C,Q261*%
X202950000Y-269562500D03*
X201050000Y-269562500D03*
X202000000Y-271437500D03*
%TD*%
%TO.C,Q200*%
X178950000Y-260562500D03*
X177050000Y-260562500D03*
X178000000Y-262437500D03*
%TD*%
D13*
%TO.C,D23*%
X242100000Y-353090000D03*
X242100000Y-351510000D03*
%TD*%
D14*
%TO.C,Q41*%
X202162500Y-367350000D03*
X202162500Y-369250000D03*
X204037500Y-368300000D03*
%TD*%
D17*
%TO.C,R322*%
X308000000Y-231500000D03*
X307000000Y-231500000D03*
%TD*%
D16*
%TO.C,R515*%
X184900000Y-279400000D03*
X184900000Y-280400000D03*
%TD*%
D19*
%TO.C,Q531*%
X296850000Y-232062500D03*
X294950000Y-232062500D03*
X295900000Y-233937500D03*
%TD*%
D17*
%TO.C,R32*%
X249500000Y-353400000D03*
X248500000Y-353400000D03*
%TD*%
D19*
%TO.C,Q219*%
X150950000Y-265062500D03*
X149050000Y-265062500D03*
X150000000Y-266937500D03*
%TD*%
D14*
%TO.C,Q614*%
X147825000Y-335525000D03*
X147825000Y-337425000D03*
X149700000Y-336475000D03*
%TD*%
D17*
%TO.C,R108*%
X269700000Y-384600000D03*
X268700000Y-384600000D03*
%TD*%
D16*
%TO.C,R220*%
X193900000Y-279400000D03*
X193900000Y-280400000D03*
%TD*%
D19*
%TO.C,Q536*%
X300850000Y-241062500D03*
X298950000Y-241062500D03*
X299900000Y-242937500D03*
%TD*%
D16*
%TO.C,R112*%
X267600000Y-370400000D03*
X267600000Y-371400000D03*
%TD*%
D12*
%TO.C,R476*%
X128100000Y-361600000D03*
X128100000Y-360600000D03*
%TD*%
D19*
%TO.C,Q530*%
X300850000Y-232062500D03*
X298950000Y-232062500D03*
X299900000Y-233937500D03*
%TD*%
%TO.C,Q266*%
X162950000Y-269562500D03*
X161050000Y-269562500D03*
X162000000Y-271437500D03*
%TD*%
D20*
%TO.C,Q541*%
X289950000Y-215937500D03*
X291850000Y-215937500D03*
X290900000Y-214062500D03*
%TD*%
D19*
%TO.C,Q99*%
X205150000Y-339162500D03*
X203250000Y-339162500D03*
X204200000Y-341037500D03*
%TD*%
%TO.C,Q241*%
X230950000Y-269562500D03*
X229050000Y-269562500D03*
X230000000Y-271437500D03*
%TD*%
%TO.C,Q274*%
X226950000Y-275562500D03*
X225050000Y-275562500D03*
X226000000Y-277437500D03*
%TD*%
%TO.C,Q179*%
X214950000Y-260562500D03*
X213050000Y-260562500D03*
X214000000Y-262437500D03*
%TD*%
D16*
%TO.C,R526*%
X256600000Y-330600000D03*
X256600000Y-331600000D03*
%TD*%
D20*
%TO.C,Q556*%
X289950000Y-238437500D03*
X291850000Y-238437500D03*
X290900000Y-236562500D03*
%TD*%
D21*
%TO.C,R183*%
X233900000Y-273600000D03*
X234900000Y-273600000D03*
%TD*%
D14*
%TO.C,Q24*%
X172162500Y-355350000D03*
X172162500Y-357250000D03*
X174037500Y-356300000D03*
%TD*%
%TO.C,Q9*%
X147162500Y-383350000D03*
X147162500Y-385250000D03*
X149037500Y-384300000D03*
%TD*%
D19*
%TO.C,Q188*%
X274950000Y-260562500D03*
X273050000Y-260562500D03*
X274000000Y-262437500D03*
%TD*%
%TO.C,Q181*%
X198950000Y-260562500D03*
X197050000Y-260562500D03*
X198000000Y-262437500D03*
%TD*%
%TO.C,Q107*%
X233150000Y-329162500D03*
X231250000Y-329162500D03*
X232200000Y-331037500D03*
%TD*%
D13*
%TO.C,D15*%
X202100000Y-353090000D03*
X202100000Y-351510000D03*
%TD*%
D21*
%TO.C,R181*%
X249900000Y-273600000D03*
X250900000Y-273600000D03*
%TD*%
D20*
%TO.C,Q77*%
X275750000Y-325837500D03*
X277650000Y-325837500D03*
X276700000Y-323962500D03*
%TD*%
D21*
%TO.C,R279*%
X120523718Y-296900000D03*
X121523718Y-296900000D03*
%TD*%
D19*
%TO.C,Q262*%
X194950000Y-269562500D03*
X193050000Y-269562500D03*
X194000000Y-271437500D03*
%TD*%
D16*
%TO.C,R133*%
X267600000Y-333400000D03*
X267600000Y-334400000D03*
%TD*%
D12*
%TO.C,R467*%
X127100000Y-379200000D03*
X127100000Y-378200000D03*
%TD*%
D19*
%TO.C,Q125*%
X273850000Y-338962500D03*
X271950000Y-338962500D03*
X272900000Y-340837500D03*
%TD*%
%TO.C,Q255*%
X250950000Y-269562500D03*
X249050000Y-269562500D03*
X250000000Y-271437500D03*
%TD*%
D20*
%TO.C,Q538*%
X302950000Y-247437500D03*
X304850000Y-247437500D03*
X303900000Y-245562500D03*
%TD*%
D21*
%TO.C,R189*%
X185900000Y-273600000D03*
X186900000Y-273600000D03*
%TD*%
D16*
%TO.C,R554*%
X257600000Y-335600000D03*
X257600000Y-336600000D03*
%TD*%
D18*
%TO.C,Q4*%
X124137500Y-378850000D03*
X124137500Y-376950000D03*
X122262500Y-377900000D03*
%TD*%
D17*
%TO.C,R28*%
X229500000Y-353400000D03*
X228500000Y-353400000D03*
%TD*%
D19*
%TO.C,Q240*%
X238950000Y-269562500D03*
X237050000Y-269562500D03*
X238000000Y-271437500D03*
%TD*%
D22*
%TO.C,D28*%
X269000000Y-381610000D03*
X269000000Y-383190000D03*
%TD*%
D13*
%TO.C,D2*%
X152100000Y-353090000D03*
X152100000Y-351510000D03*
%TD*%
D23*
%TO.C,D58*%
X120190000Y-363700000D03*
X118610000Y-363700000D03*
%TD*%
D17*
%TO.C,R18*%
X194500000Y-353400000D03*
X193500000Y-353400000D03*
%TD*%
D12*
%TO.C,R67*%
X184500000Y-352400000D03*
X184500000Y-351400000D03*
%TD*%
%TO.C,R137*%
X267600000Y-331500000D03*
X267600000Y-330500000D03*
%TD*%
D19*
%TO.C,Q265*%
X170950000Y-269562500D03*
X169050000Y-269562500D03*
X170000000Y-271437500D03*
%TD*%
D17*
%TO.C,R17*%
X189500000Y-353400000D03*
X188500000Y-353400000D03*
%TD*%
D19*
%TO.C,Q622*%
X214950000Y-275562500D03*
X213050000Y-275562500D03*
X214000000Y-277437500D03*
%TD*%
D12*
%TO.C,R175*%
X167400000Y-273600000D03*
X167400000Y-272600000D03*
%TD*%
D19*
%TO.C,Q176*%
X238950000Y-260562500D03*
X237050000Y-260562500D03*
X238000000Y-262437500D03*
%TD*%
%TO.C,Q257*%
X234950000Y-269562500D03*
X233050000Y-269562500D03*
X234000000Y-271437500D03*
%TD*%
D12*
%TO.C,R206*%
X176600000Y-273600000D03*
X176600000Y-272600000D03*
%TD*%
D17*
%TO.C,R123*%
X269700000Y-358600000D03*
X268700000Y-358600000D03*
%TD*%
D18*
%TO.C,Q598*%
X133637500Y-383250000D03*
X133637500Y-381350000D03*
X131762500Y-382300000D03*
%TD*%
D21*
%TO.C,R190*%
X177900000Y-273600000D03*
X178900000Y-273600000D03*
%TD*%
D13*
%TO.C,D3*%
X157100000Y-353090000D03*
X157100000Y-351510000D03*
%TD*%
D14*
%TO.C,Q25*%
X177162500Y-367350000D03*
X177162500Y-369250000D03*
X179037500Y-368300000D03*
%TD*%
D12*
%TO.C,R487*%
X117600000Y-383600000D03*
X117600000Y-382600000D03*
%TD*%
D11*
%TO.C,J5*%
X213900000Y-215400000D03*
D10*
X216440000Y-215400000D03*
X218980000Y-215400000D03*
X221520000Y-215400000D03*
X224060000Y-215400000D03*
X226600000Y-215400000D03*
X229140000Y-215400000D03*
X231680000Y-215400000D03*
X234220000Y-215400000D03*
X236760000Y-215400000D03*
X239300000Y-215400000D03*
X241840000Y-215400000D03*
X244380000Y-215400000D03*
X246920000Y-215400000D03*
X249460000Y-215400000D03*
X252000000Y-215400000D03*
X254540000Y-215400000D03*
X257080000Y-215400000D03*
X259620000Y-215400000D03*
X262160000Y-215400000D03*
X264700000Y-215400000D03*
%TD*%
D19*
%TO.C,Q97*%
X245150000Y-324162500D03*
X243250000Y-324162500D03*
X244200000Y-326037500D03*
%TD*%
D18*
%TO.C,Q1*%
X124137500Y-392050000D03*
X124137500Y-390150000D03*
X122262500Y-391100000D03*
%TD*%
D21*
%TO.C,R281*%
X120523718Y-301400000D03*
X121523718Y-301400000D03*
%TD*%
D14*
%TO.C,Q586*%
X141325000Y-343525000D03*
X141325000Y-345425000D03*
X143200000Y-344475000D03*
%TD*%
D16*
%TO.C,R504*%
X231900000Y-279400000D03*
X231900000Y-280400000D03*
%TD*%
D12*
%TO.C,R73*%
X199500000Y-352400000D03*
X199500000Y-351400000D03*
%TD*%
D23*
%TO.C,D47*%
X166952500Y-339375000D03*
X165372500Y-339375000D03*
%TD*%
D21*
%TO.C,R278*%
X120523718Y-295900000D03*
X121523718Y-295900000D03*
%TD*%
D12*
%TO.C,R64*%
X178500000Y-352400000D03*
X178500000Y-351400000D03*
%TD*%
%TO.C,R369*%
X129100000Y-379200000D03*
X129100000Y-378200000D03*
%TD*%
D22*
%TO.C,D95*%
X255200000Y-334710000D03*
X255200000Y-336290000D03*
%TD*%
%TO.C,D32*%
X269000000Y-360610000D03*
X269000000Y-362190000D03*
%TD*%
D17*
%TO.C,R11*%
X159500000Y-353400000D03*
X158500000Y-353400000D03*
%TD*%
D19*
%TO.C,Q442*%
X147273718Y-293762500D03*
X145373718Y-293762500D03*
X146323718Y-295637500D03*
%TD*%
D21*
%TO.C,R280*%
X120523718Y-300400000D03*
X121523718Y-300400000D03*
%TD*%
D24*
%TO.C,D79*%
X157010000Y-279700000D03*
X158590000Y-279700000D03*
%TD*%
D18*
%TO.C,Q599*%
X133637500Y-378850000D03*
X133637500Y-376950000D03*
X131762500Y-377900000D03*
%TD*%
D16*
%TO.C,R528*%
X256600000Y-325600000D03*
X256600000Y-326600000D03*
%TD*%
D19*
%TO.C,Q272*%
X242950000Y-275562500D03*
X241050000Y-275562500D03*
X242000000Y-277437500D03*
%TD*%
%TO.C,Q244*%
X206950000Y-269562500D03*
X205050000Y-269562500D03*
X206000000Y-271437500D03*
%TD*%
D21*
%TO.C,R285*%
X120523718Y-310400000D03*
X121523718Y-310400000D03*
%TD*%
D19*
%TO.C,Q90*%
X217150000Y-324162500D03*
X215250000Y-324162500D03*
X216200000Y-326037500D03*
%TD*%
D24*
%TO.C,D76*%
X181010000Y-279700000D03*
X182590000Y-279700000D03*
%TD*%
D19*
%TO.C,Q277*%
X202950000Y-275562500D03*
X201050000Y-275562500D03*
X202000000Y-277437500D03*
%TD*%
D16*
%TO.C,R523*%
X151900000Y-279400000D03*
X151900000Y-280400000D03*
%TD*%
D14*
%TO.C,Q591*%
X152325000Y-335525000D03*
X152325000Y-337425000D03*
X154200000Y-336475000D03*
%TD*%
D12*
%TO.C,R200*%
X224600000Y-273600000D03*
X224600000Y-272600000D03*
%TD*%
D17*
%TO.C,R49*%
X257600000Y-329400000D03*
X256600000Y-329400000D03*
%TD*%
D16*
%TO.C,R553*%
X256600000Y-335600000D03*
X256600000Y-336600000D03*
%TD*%
D20*
%TO.C,Q67*%
X279750000Y-372837500D03*
X281650000Y-372837500D03*
X280700000Y-370962500D03*
%TD*%
D11*
%TO.C,J11*%
X109340000Y-214800000D03*
D10*
X106800000Y-214800000D03*
X109340000Y-217340000D03*
X106800000Y-217340000D03*
X109340000Y-219880000D03*
X106800000Y-219880000D03*
X109340000Y-222420000D03*
X106800000Y-222420000D03*
X109340000Y-224960000D03*
X106800000Y-224960000D03*
X109340000Y-227500000D03*
X106800000Y-227500000D03*
X109340000Y-230040000D03*
X106800000Y-230040000D03*
X109340000Y-232580000D03*
X106800000Y-232580000D03*
%TD*%
D12*
%TO.C,R63*%
X174500000Y-352400000D03*
X174500000Y-351400000D03*
%TD*%
D16*
%TO.C,R497*%
X255900000Y-279400000D03*
X255900000Y-280400000D03*
%TD*%
D19*
%TO.C,Q560*%
X287850000Y-241062500D03*
X285950000Y-241062500D03*
X286900000Y-242937500D03*
%TD*%
D12*
%TO.C,R94*%
X238500000Y-352400000D03*
X238500000Y-351400000D03*
%TD*%
D13*
%TO.C,D4*%
X162100000Y-353090000D03*
X162100000Y-351510000D03*
%TD*%
D12*
%TO.C,R167*%
X231400000Y-273600000D03*
X231400000Y-272600000D03*
%TD*%
D21*
%TO.C,R327*%
X278900000Y-218000000D03*
X279900000Y-218000000D03*
%TD*%
D12*
%TO.C,R113*%
X267600000Y-373500000D03*
X267600000Y-372500000D03*
%TD*%
D20*
%TO.C,Q547*%
X289950000Y-224937500D03*
X291850000Y-224937500D03*
X290900000Y-223062500D03*
%TD*%
D12*
%TO.C,R470*%
X127100000Y-374800000D03*
X127100000Y-373800000D03*
%TD*%
D16*
%TO.C,R508*%
X216900000Y-279400000D03*
X216900000Y-280400000D03*
%TD*%
D23*
%TO.C,D60*%
X120190000Y-372500000D03*
X118610000Y-372500000D03*
%TD*%
D19*
%TO.C,Q267*%
X154950000Y-269562500D03*
X153050000Y-269562500D03*
X154000000Y-271437500D03*
%TD*%
D12*
%TO.C,R4*%
X120600000Y-379200000D03*
X120600000Y-378200000D03*
%TD*%
D19*
%TO.C,Q251*%
X150950000Y-269562500D03*
X149050000Y-269562500D03*
X150000000Y-271437500D03*
%TD*%
D17*
%TO.C,R129*%
X269700000Y-348600000D03*
X268700000Y-348600000D03*
%TD*%
D12*
%TO.C,R38*%
X270400000Y-373500000D03*
X270400000Y-372500000D03*
%TD*%
D19*
%TO.C,Q263*%
X186950000Y-269562500D03*
X185050000Y-269562500D03*
X186000000Y-271437500D03*
%TD*%
D21*
%TO.C,R184*%
X225900000Y-273600000D03*
X226900000Y-273600000D03*
%TD*%
D14*
%TO.C,Q11*%
X147162500Y-375350000D03*
X147162500Y-377250000D03*
X149037500Y-376300000D03*
%TD*%
D23*
%TO.C,D64*%
X120190000Y-390100000D03*
X118610000Y-390100000D03*
%TD*%
D12*
%TO.C,R207*%
X168600000Y-273600000D03*
X168600000Y-272600000D03*
%TD*%
%TO.C,R68*%
X188500000Y-352400000D03*
X188500000Y-351400000D03*
%TD*%
%TO.C,R195*%
X264600000Y-273600000D03*
X264600000Y-272600000D03*
%TD*%
%TO.C,R480*%
X118600000Y-366000000D03*
X118600000Y-365000000D03*
%TD*%
D20*
%TO.C,Q559*%
X289950000Y-242937500D03*
X291850000Y-242937500D03*
X290900000Y-241062500D03*
%TD*%
D14*
%TO.C,Q474*%
X150325000Y-343525000D03*
X150325000Y-345425000D03*
X152200000Y-344475000D03*
%TD*%
D12*
%TO.C,R370*%
X130100000Y-379200000D03*
X130100000Y-378200000D03*
%TD*%
D19*
%TO.C,Q436*%
X125173718Y-308562500D03*
X123273718Y-308562500D03*
X124223718Y-310437500D03*
%TD*%
D24*
%TO.C,D71*%
X221010000Y-279700000D03*
X222590000Y-279700000D03*
%TD*%
D20*
%TO.C,Q645*%
X251250000Y-336037500D03*
X253150000Y-336037500D03*
X252200000Y-334162500D03*
%TD*%
D16*
%TO.C,R496*%
X271900000Y-279400000D03*
X271900000Y-280400000D03*
%TD*%
D12*
%TO.C,R89*%
X223500000Y-352400000D03*
X223500000Y-351400000D03*
%TD*%
D19*
%TO.C,Q217*%
X166950000Y-265062500D03*
X165050000Y-265062500D03*
X166000000Y-266937500D03*
%TD*%
D13*
%TO.C,D5*%
X167100000Y-353090000D03*
X167100000Y-351510000D03*
%TD*%
D14*
%TO.C,Q589*%
X143325000Y-335525000D03*
X143325000Y-337425000D03*
X145200000Y-336475000D03*
%TD*%
D18*
%TO.C,Q600*%
X133637500Y-374450000D03*
X133637500Y-372550000D03*
X131762500Y-373500000D03*
%TD*%
D19*
%TO.C,*%
X205050000Y-269562500D03*
%TD*%
%TO.C,Q218*%
X158950000Y-265062500D03*
X157050000Y-265062500D03*
X158000000Y-266937500D03*
%TD*%
%TO.C,Q211*%
X214950000Y-265062500D03*
X213050000Y-265062500D03*
X214000000Y-266937500D03*
%TD*%
D12*
%TO.C,R176*%
X159400000Y-273600000D03*
X159400000Y-272600000D03*
%TD*%
D20*
%TO.C,Q632*%
X251250000Y-326037500D03*
X253150000Y-326037500D03*
X252200000Y-324162500D03*
%TD*%
D19*
%TO.C,Q231*%
X186950000Y-265062500D03*
X185050000Y-265062500D03*
X186000000Y-266937500D03*
%TD*%
D14*
%TO.C,Q65*%
X262162500Y-371350000D03*
X262162500Y-373250000D03*
X264037500Y-372300000D03*
%TD*%
D23*
%TO.C,D55*%
X129690000Y-363700000D03*
X128110000Y-363700000D03*
%TD*%
D14*
%TO.C,Q35*%
X197162500Y-355350000D03*
X197162500Y-357250000D03*
X199037500Y-356300000D03*
%TD*%
D20*
%TO.C,Q72*%
X279750000Y-340837500D03*
X281650000Y-340837500D03*
X280700000Y-338962500D03*
%TD*%
D19*
%TO.C,Q216*%
X174950000Y-265062500D03*
X173050000Y-265062500D03*
X174000000Y-266937500D03*
%TD*%
D12*
%TO.C,R196*%
X256600000Y-273600000D03*
X256600000Y-272600000D03*
%TD*%
D19*
%TO.C,Q95*%
X237150000Y-324162500D03*
X235250000Y-324162500D03*
X236200000Y-326037500D03*
%TD*%
D17*
%TO.C,R120*%
X269700000Y-363600000D03*
X268700000Y-363600000D03*
%TD*%
D19*
%TO.C,Q628*%
X166950000Y-275562500D03*
X165050000Y-275562500D03*
X166000000Y-277437500D03*
%TD*%
D21*
%TO.C,R284*%
X120523718Y-309400000D03*
X121523718Y-309400000D03*
%TD*%
D19*
%TO.C,Q134*%
X237150000Y-339162500D03*
X235250000Y-339162500D03*
X236200000Y-341037500D03*
%TD*%
D12*
%TO.C,R462*%
X128100000Y-392400000D03*
X128100000Y-391400000D03*
%TD*%
D14*
%TO.C,Q32*%
X182162500Y-355350000D03*
X182162500Y-357250000D03*
X184037500Y-356300000D03*
%TD*%
D20*
%TO.C,Q529*%
X302950000Y-233937500D03*
X304850000Y-233937500D03*
X303900000Y-232062500D03*
%TD*%
D14*
%TO.C,Q30*%
X197162500Y-359350000D03*
X197162500Y-361250000D03*
X199037500Y-360300000D03*
%TD*%
D19*
%TO.C,Q110*%
X209150000Y-339162500D03*
X207250000Y-339162500D03*
X208200000Y-341037500D03*
%TD*%
D18*
%TO.C,Q597*%
X133637500Y-387650000D03*
X133637500Y-385750000D03*
X131762500Y-386700000D03*
%TD*%
D14*
%TO.C,Q44*%
X207200000Y-363350000D03*
X207200000Y-365250000D03*
X209075000Y-364300000D03*
%TD*%
D17*
%TO.C,R138*%
X269700000Y-332600000D03*
X268700000Y-332600000D03*
%TD*%
D12*
%TO.C,R463*%
X128100000Y-388000000D03*
X128100000Y-387000000D03*
%TD*%
D11*
%TO.C,J4*%
X136100000Y-215400000D03*
D10*
X138640000Y-215400000D03*
X141180000Y-215400000D03*
X143720000Y-215400000D03*
X146260000Y-215400000D03*
X148800000Y-215400000D03*
X151340000Y-215400000D03*
X153880000Y-215400000D03*
X156420000Y-215400000D03*
X158960000Y-215400000D03*
X161500000Y-215400000D03*
X164040000Y-215400000D03*
X166580000Y-215400000D03*
X169120000Y-215400000D03*
X171660000Y-215400000D03*
X174200000Y-215400000D03*
X176740000Y-215400000D03*
X179280000Y-215400000D03*
X181820000Y-215400000D03*
X184360000Y-215400000D03*
X186900000Y-215400000D03*
%TD*%
D19*
%TO.C,Q250*%
X158950000Y-269562500D03*
X157050000Y-269562500D03*
X158000000Y-271437500D03*
%TD*%
D21*
%TO.C,R331*%
X278900000Y-236000000D03*
X279900000Y-236000000D03*
%TD*%
D12*
%TO.C,R115*%
X267600000Y-368500000D03*
X267600000Y-367500000D03*
%TD*%
D20*
%TO.C,Q74*%
X275750000Y-340837500D03*
X277650000Y-340837500D03*
X276700000Y-338962500D03*
%TD*%
D19*
%TO.C,Q119*%
X273850000Y-370962500D03*
X271950000Y-370962500D03*
X272900000Y-372837500D03*
%TD*%
D21*
%TO.C,R441*%
X161762500Y-333075000D03*
X162762500Y-333075000D03*
%TD*%
D16*
%TO.C,R511*%
X200900000Y-279400000D03*
X200900000Y-280400000D03*
%TD*%
D14*
%TO.C,Q18*%
X157162500Y-359350000D03*
X157162500Y-361250000D03*
X159037500Y-360300000D03*
%TD*%
D19*
%TO.C,Q189*%
X266950000Y-260562500D03*
X265050000Y-260562500D03*
X266000000Y-262437500D03*
%TD*%
D12*
%TO.C,R474*%
X128100000Y-366000000D03*
X128100000Y-365000000D03*
%TD*%
%TO.C,R1*%
X120600000Y-392400000D03*
X120600000Y-391400000D03*
%TD*%
D19*
%TO.C,Q247*%
X182950000Y-269562500D03*
X181050000Y-269562500D03*
X182000000Y-271437500D03*
%TD*%
D14*
%TO.C,Q15*%
X147162500Y-359350000D03*
X147162500Y-361250000D03*
X149037500Y-360300000D03*
%TD*%
D13*
%TO.C,D16*%
X207100000Y-353090000D03*
X207100000Y-351510000D03*
%TD*%
D22*
%TO.C,D96*%
X255200000Y-339710000D03*
X255200000Y-341290000D03*
%TD*%
D12*
%TO.C,R55*%
X154500000Y-352400000D03*
X154500000Y-351400000D03*
%TD*%
%TO.C,R127*%
X267600000Y-347500000D03*
X267600000Y-346500000D03*
%TD*%
D19*
%TO.C,Q619*%
X238950000Y-275562500D03*
X237050000Y-275562500D03*
X238000000Y-277437500D03*
%TD*%
D12*
%TO.C,R57*%
X159500000Y-352400000D03*
X159500000Y-351400000D03*
%TD*%
D21*
%TO.C,R332*%
X278900000Y-240500000D03*
X279900000Y-240500000D03*
%TD*%
D24*
%TO.C,D74*%
X197010000Y-279700000D03*
X198590000Y-279700000D03*
%TD*%
D14*
%TO.C,Q26*%
X177162500Y-363350000D03*
X177162500Y-365250000D03*
X179037500Y-364300000D03*
%TD*%
%TO.C,Q593*%
X161325000Y-335525000D03*
X161325000Y-337425000D03*
X163200000Y-336475000D03*
%TD*%
D12*
%TO.C,R364*%
X129100000Y-392400000D03*
X129100000Y-391400000D03*
%TD*%
D20*
%TO.C,Q80*%
X283750000Y-361837500D03*
X285650000Y-361837500D03*
X284700000Y-359962500D03*
%TD*%
D19*
%TO.C,Q178*%
X222950000Y-260562500D03*
X221050000Y-260562500D03*
X222000000Y-262437500D03*
%TD*%
D12*
%TO.C,R357*%
X119600000Y-388000000D03*
X119600000Y-387000000D03*
%TD*%
%TO.C,R8*%
X120600000Y-361600000D03*
X120600000Y-360600000D03*
%TD*%
D19*
%TO.C,Q224*%
X242950000Y-265062500D03*
X241050000Y-265062500D03*
X242000000Y-266937500D03*
%TD*%
D12*
%TO.C,R434*%
X125376000Y-245611500D03*
X125376000Y-244611500D03*
%TD*%
D19*
%TO.C,Q521*%
X300850000Y-218562500D03*
X298950000Y-218562500D03*
X299900000Y-220437500D03*
%TD*%
D16*
%TO.C,R516*%
X183900000Y-279400000D03*
X183900000Y-280400000D03*
%TD*%
D19*
%TO.C,Q275*%
X218950000Y-275562500D03*
X217050000Y-275562500D03*
X218000000Y-277437500D03*
%TD*%
%TO.C,*%
X253050000Y-269562500D03*
%TD*%
D12*
%TO.C,R102*%
X258500000Y-352400000D03*
X258500000Y-351400000D03*
%TD*%
D14*
%TO.C,Q29*%
X187162500Y-359350000D03*
X187162500Y-361250000D03*
X189037500Y-360300000D03*
%TD*%
D16*
%TO.C,R527*%
X257600000Y-325600000D03*
X257600000Y-326600000D03*
%TD*%
D12*
%TO.C,R164*%
X255400000Y-273600000D03*
X255400000Y-272600000D03*
%TD*%
D11*
%TO.C,J10*%
X109340000Y-248900000D03*
D10*
X106800000Y-248900000D03*
X109340000Y-251440000D03*
X106800000Y-251440000D03*
X109340000Y-253980000D03*
X106800000Y-253980000D03*
X109340000Y-256520000D03*
X106800000Y-256520000D03*
X109340000Y-259060000D03*
X106800000Y-259060000D03*
X109340000Y-261600000D03*
X106800000Y-261600000D03*
X109340000Y-264140000D03*
X106800000Y-264140000D03*
X109340000Y-266680000D03*
X106800000Y-266680000D03*
%TD*%
D13*
%TO.C,D25*%
X252100000Y-353090000D03*
X252100000Y-351510000D03*
%TD*%
D19*
%TO.C,Q206*%
X254950000Y-265062500D03*
X253050000Y-265062500D03*
X254000000Y-266937500D03*
%TD*%
D16*
%TO.C,R213*%
X249900000Y-279400000D03*
X249900000Y-280400000D03*
%TD*%
D12*
%TO.C,R209*%
X152600000Y-273600000D03*
X152600000Y-272600000D03*
%TD*%
D11*
%TO.C,J1*%
X110000000Y-391600000D03*
D10*
X110000000Y-389060000D03*
X110000000Y-386520000D03*
X110000000Y-383980000D03*
X110000000Y-381440000D03*
X110000000Y-378900000D03*
X110000000Y-376360000D03*
X110000000Y-373820000D03*
X110000000Y-371280000D03*
X110000000Y-368740000D03*
X110000000Y-366200000D03*
X110000000Y-363660000D03*
X110000000Y-361120000D03*
X110000000Y-358580000D03*
X110000000Y-356040000D03*
X110000000Y-353500000D03*
X110000000Y-350960000D03*
X110000000Y-348420000D03*
X110000000Y-345880000D03*
X110000000Y-343340000D03*
X110000000Y-340800000D03*
%TD*%
D19*
%TO.C,Q440*%
X129223718Y-314937500D03*
X128273718Y-313062500D03*
X130173718Y-313062500D03*
%TD*%
D12*
%TO.C,R368*%
X130100000Y-383600000D03*
X130100000Y-382600000D03*
%TD*%
D21*
%TO.C,R193*%
X153900000Y-273600000D03*
X154900000Y-273600000D03*
%TD*%
D24*
%TO.C,D68*%
X245010000Y-279700000D03*
X246590000Y-279700000D03*
%TD*%
D20*
%TO.C,Q646*%
X251250000Y-341037500D03*
X253150000Y-341037500D03*
X252200000Y-339162500D03*
%TD*%
D16*
%TO.C,R221*%
X185900000Y-279400000D03*
X185900000Y-280400000D03*
%TD*%
D12*
%TO.C,R82*%
X208500000Y-352400000D03*
X208500000Y-351400000D03*
%TD*%
D16*
%TO.C,R495*%
X272900000Y-279400000D03*
X272900000Y-280400000D03*
%TD*%
D19*
%TO.C,Q539*%
X300850000Y-245562500D03*
X298950000Y-245562500D03*
X299900000Y-247437500D03*
%TD*%
%TO.C,Q172*%
X270950000Y-260562500D03*
X269050000Y-260562500D03*
X270000000Y-262437500D03*
%TD*%
D16*
%TO.C,R106*%
X267600000Y-380400000D03*
X267600000Y-381400000D03*
%TD*%
%TO.C,R218*%
X209900000Y-279400000D03*
X209900000Y-280400000D03*
%TD*%
D17*
%TO.C,R300*%
X142662500Y-341975000D03*
X141662500Y-341975000D03*
%TD*%
D21*
%TO.C,R186*%
X209900000Y-273600000D03*
X210900000Y-273600000D03*
%TD*%
D23*
%TO.C,D53*%
X129690000Y-372500000D03*
X128110000Y-372500000D03*
%TD*%
D14*
%TO.C,Q20*%
X162162500Y-355350000D03*
X162162500Y-357250000D03*
X164037500Y-356300000D03*
%TD*%
D19*
%TO.C,Q626*%
X182950000Y-275562500D03*
X181050000Y-275562500D03*
X182000000Y-277437500D03*
%TD*%
D12*
%TO.C,R91*%
X228500000Y-352400000D03*
X228500000Y-351400000D03*
%TD*%
D19*
%TO.C,Q563*%
X287850000Y-245562500D03*
X285950000Y-245562500D03*
X286900000Y-247437500D03*
%TD*%
D12*
%TO.C,R3*%
X120600000Y-383600000D03*
X120600000Y-382600000D03*
%TD*%
%TO.C,R44*%
X270400000Y-362500000D03*
X270400000Y-361500000D03*
%TD*%
%TO.C,R372*%
X130100000Y-370400000D03*
X130100000Y-369400000D03*
%TD*%
D19*
%TO.C,Q229*%
X202950000Y-265062500D03*
X201050000Y-265062500D03*
X202000000Y-266937500D03*
%TD*%
%TO.C,Q268*%
X274950000Y-275562500D03*
X273050000Y-275562500D03*
X274000000Y-277437500D03*
%TD*%
D12*
%TO.C,R134*%
X267600000Y-336500000D03*
X267600000Y-335500000D03*
%TD*%
%TO.C,R360*%
X119600000Y-370400000D03*
X119600000Y-369400000D03*
%TD*%
%TO.C,R491*%
X117600000Y-392400000D03*
X117600000Y-391400000D03*
%TD*%
%TO.C,R66*%
X183500000Y-352400000D03*
X183500000Y-351400000D03*
%TD*%
%TO.C,R465*%
X127100000Y-383600000D03*
X127100000Y-382600000D03*
%TD*%
D16*
%TO.C,R214*%
X241900000Y-279400000D03*
X241900000Y-280400000D03*
%TD*%
D19*
%TO.C,Q424*%
X134173718Y-299562500D03*
X132273718Y-299562500D03*
X133223718Y-301437500D03*
%TD*%
D17*
%TO.C,R13*%
X169500000Y-353400000D03*
X168500000Y-353400000D03*
%TD*%
D12*
%TO.C,R166*%
X239400000Y-273600000D03*
X239400000Y-272600000D03*
%TD*%
%TO.C,R47*%
X270400000Y-347500000D03*
X270400000Y-346500000D03*
%TD*%
D19*
%TO.C,Q103*%
X217150000Y-329162500D03*
X215250000Y-329162500D03*
X216200000Y-331037500D03*
%TD*%
D12*
%TO.C,R365*%
X129100000Y-388000000D03*
X129100000Y-387000000D03*
%TD*%
D19*
%TO.C,Q112*%
X225150000Y-334162500D03*
X223250000Y-334162500D03*
X224200000Y-336037500D03*
%TD*%
D14*
%TO.C,Q58*%
X247162500Y-371350000D03*
X247162500Y-373250000D03*
X249037500Y-372300000D03*
%TD*%
D16*
%TO.C,R224*%
X161900000Y-279400000D03*
X161900000Y-280400000D03*
%TD*%
D12*
%TO.C,R51*%
X148500000Y-352400000D03*
X148500000Y-351400000D03*
%TD*%
D21*
%TO.C,R282*%
X120523718Y-304900000D03*
X121523718Y-304900000D03*
%TD*%
D20*
%TO.C,Q75*%
X275750000Y-335837500D03*
X277650000Y-335837500D03*
X276700000Y-333962500D03*
%TD*%
D14*
%TO.C,Q46*%
X217162500Y-363350000D03*
X217162500Y-365250000D03*
X219037500Y-364300000D03*
%TD*%
D19*
%TO.C,Q281*%
X170950000Y-275562500D03*
X169050000Y-275562500D03*
X170000000Y-277437500D03*
%TD*%
D14*
%TO.C,Q587*%
X138825000Y-339425000D03*
X138825000Y-341325000D03*
X140700000Y-340375000D03*
%TD*%
D12*
%TO.C,R482*%
X118600000Y-370400000D03*
X118600000Y-369400000D03*
%TD*%
D16*
%TO.C,R500*%
X247900000Y-279400000D03*
X247900000Y-280400000D03*
%TD*%
%TO.C,R136*%
X267600000Y-328400000D03*
X267600000Y-329400000D03*
%TD*%
D12*
%TO.C,R171*%
X199400000Y-273600000D03*
X199400000Y-272600000D03*
%TD*%
D14*
%TO.C,Q590*%
X134325000Y-335525000D03*
X134325000Y-337425000D03*
X136200000Y-336475000D03*
%TD*%
D19*
%TO.C,*%
X189050000Y-269562500D03*
%TD*%
D12*
%TO.C,R56*%
X158500000Y-352400000D03*
X158500000Y-351400000D03*
%TD*%
%TO.C,R170*%
X207400000Y-273600000D03*
X207400000Y-272600000D03*
%TD*%
D17*
%TO.C,R440*%
X155262500Y-345975000D03*
X154262500Y-345975000D03*
%TD*%
%TO.C,R50*%
X257600000Y-334400000D03*
X256600000Y-334400000D03*
%TD*%
D22*
%TO.C,D33*%
X269000000Y-355610000D03*
X269000000Y-357190000D03*
%TD*%
D16*
%TO.C,R139*%
X267600000Y-323400000D03*
X267600000Y-324400000D03*
%TD*%
D14*
%TO.C,Q52*%
X232162500Y-363350000D03*
X232162500Y-365250000D03*
X234037500Y-364300000D03*
%TD*%
D22*
%TO.C,D38*%
X269000000Y-329610000D03*
X269000000Y-331190000D03*
%TD*%
D17*
%TO.C,R48*%
X257600000Y-324400000D03*
X256600000Y-324400000D03*
%TD*%
D12*
%TO.C,R7*%
X120600000Y-366000000D03*
X120600000Y-365000000D03*
%TD*%
D24*
%TO.C,D65*%
X261010000Y-279700000D03*
X262590000Y-279700000D03*
%TD*%
D18*
%TO.C,Q8*%
X124137500Y-361250000D03*
X124137500Y-359350000D03*
X122262500Y-360300000D03*
%TD*%
D19*
%TO.C,Q609*%
X135350000Y-277562500D03*
X133450000Y-277562500D03*
X134400000Y-279437500D03*
%TD*%
D16*
%TO.C,R524*%
X152900000Y-279400000D03*
X152900000Y-280400000D03*
%TD*%
D19*
%TO.C,Q100*%
X205150000Y-329162500D03*
X203250000Y-329162500D03*
X204200000Y-331037500D03*
%TD*%
D16*
%TO.C,R519*%
X168900000Y-279400000D03*
X168900000Y-280400000D03*
%TD*%
D22*
%TO.C,D36*%
X269000000Y-339610000D03*
X269000000Y-341190000D03*
%TD*%
D21*
%TO.C,R438*%
X144862500Y-340075000D03*
X145862500Y-340075000D03*
%TD*%
D14*
%TO.C,Q33*%
X187162500Y-355350000D03*
X187162500Y-357250000D03*
X189037500Y-356300000D03*
%TD*%
D23*
%TO.C,D56*%
X129690000Y-359300000D03*
X128110000Y-359300000D03*
%TD*%
D14*
%TO.C,Q612*%
X124438500Y-237661500D03*
X124438500Y-239561500D03*
X126313500Y-238611500D03*
%TD*%
D12*
%TO.C,R473*%
X127100000Y-366000000D03*
X127100000Y-365000000D03*
%TD*%
D17*
%TO.C,R135*%
X269700000Y-337600000D03*
X268700000Y-337600000D03*
%TD*%
D20*
%TO.C,Q69*%
X275750000Y-377837500D03*
X277650000Y-377837500D03*
X276700000Y-375962500D03*
%TD*%
D19*
%TO.C,Q546*%
X283850000Y-218562500D03*
X281950000Y-218562500D03*
X282900000Y-220437500D03*
%TD*%
%TO.C,*%
X157050000Y-269562500D03*
%TD*%
D17*
%TO.C,R141*%
X269700000Y-327600000D03*
X268700000Y-327600000D03*
%TD*%
D19*
%TO.C,Q225*%
X234950000Y-265062500D03*
X233050000Y-265062500D03*
X234000000Y-266937500D03*
%TD*%
D12*
%TO.C,R174*%
X175400000Y-273600000D03*
X175400000Y-272600000D03*
%TD*%
D19*
%TO.C,Q87*%
X205150000Y-324162500D03*
X203250000Y-324162500D03*
X204200000Y-326037500D03*
%TD*%
D20*
%TO.C,Q68*%
X275750000Y-382837500D03*
X277650000Y-382837500D03*
X276700000Y-380962500D03*
%TD*%
D21*
%TO.C,R439*%
X144862500Y-339075000D03*
X145862500Y-339075000D03*
%TD*%
D14*
%TO.C,Q45*%
X212162500Y-363350000D03*
X212162500Y-365250000D03*
X214037500Y-364300000D03*
%TD*%
%TO.C,Q55*%
X242162500Y-371350000D03*
X242162500Y-373250000D03*
X244037500Y-372300000D03*
%TD*%
D20*
%TO.C,Q544*%
X289950000Y-220437500D03*
X291850000Y-220437500D03*
X290900000Y-218562500D03*
%TD*%
D17*
%TO.C,R132*%
X269700000Y-342600000D03*
X268700000Y-342600000D03*
%TD*%
D12*
%TO.C,R374*%
X129100000Y-366000000D03*
X129100000Y-365000000D03*
%TD*%
D19*
%TO.C,Q253*%
X266950000Y-269562500D03*
X265050000Y-269562500D03*
X266000000Y-271437500D03*
%TD*%
D13*
%TO.C,D10*%
X192100000Y-353090000D03*
X192100000Y-351510000D03*
%TD*%
D20*
%TO.C,Q553*%
X289950000Y-233937500D03*
X291850000Y-233937500D03*
X290900000Y-232062500D03*
%TD*%
D19*
%TO.C,Q226*%
X226950000Y-265062500D03*
X225050000Y-265062500D03*
X226000000Y-266937500D03*
%TD*%
D20*
%TO.C,Q85*%
X275750000Y-351837500D03*
X277650000Y-351837500D03*
X276700000Y-349962500D03*
%TD*%
D19*
%TO.C,*%
X213050000Y-269562500D03*
%TD*%
%TO.C,Q120*%
X273850000Y-365962500D03*
X271950000Y-365962500D03*
X272900000Y-367837500D03*
%TD*%
D17*
%TO.C,R25*%
X214500000Y-353400000D03*
X213500000Y-353400000D03*
%TD*%
%TO.C,R323*%
X308000000Y-236000000D03*
X307000000Y-236000000D03*
%TD*%
D12*
%TO.C,R121*%
X267600000Y-357500000D03*
X267600000Y-356500000D03*
%TD*%
D16*
%TO.C,R125*%
X267600000Y-349400000D03*
X267600000Y-350400000D03*
%TD*%
D19*
%TO.C,Q91*%
X221150000Y-324162500D03*
X219250000Y-324162500D03*
X220200000Y-326037500D03*
%TD*%
D23*
%TO.C,D59*%
X120190000Y-368100000D03*
X118610000Y-368100000D03*
%TD*%
D12*
%TO.C,R288*%
X144723718Y-298800000D03*
X144723718Y-297800000D03*
%TD*%
D19*
%TO.C,Q548*%
X287850000Y-223062500D03*
X285950000Y-223062500D03*
X286900000Y-224937500D03*
%TD*%
D22*
%TO.C,D39*%
X269000000Y-324610000D03*
X269000000Y-326190000D03*
%TD*%
D16*
%TO.C,R520*%
X167900000Y-279400000D03*
X167900000Y-280400000D03*
%TD*%
D14*
%TO.C,Q57*%
X242162500Y-379350000D03*
X242162500Y-381250000D03*
X244037500Y-380300000D03*
%TD*%
D20*
%TO.C,Q70*%
X275750000Y-372837500D03*
X277650000Y-372837500D03*
X276700000Y-370962500D03*
%TD*%
D14*
%TO.C,Q51*%
X227162500Y-363350000D03*
X227162500Y-365250000D03*
X229037500Y-364300000D03*
%TD*%
D12*
%TO.C,R140*%
X267600000Y-326500000D03*
X267600000Y-325500000D03*
%TD*%
D23*
%TO.C,D51*%
X129690000Y-381300000D03*
X128110000Y-381300000D03*
%TD*%
D19*
%TO.C,Q205*%
X262950000Y-265062500D03*
X261050000Y-265062500D03*
X262000000Y-266937500D03*
%TD*%
%TO.C,*%
X269050000Y-269562500D03*
%TD*%
%TO.C,*%
X261050000Y-269562500D03*
%TD*%
%TO.C,Q94*%
X233150000Y-324162500D03*
X231250000Y-324162500D03*
X232200000Y-326037500D03*
%TD*%
%TO.C,Q238*%
X254950000Y-269562500D03*
X253050000Y-269562500D03*
X254000000Y-271437500D03*
%TD*%
%TO.C,Q260*%
X210950000Y-269562500D03*
X209050000Y-269562500D03*
X210000000Y-271437500D03*
%TD*%
%TO.C,Q131*%
X225150000Y-339162500D03*
X223250000Y-339162500D03*
X224200000Y-341037500D03*
%TD*%
D12*
%TO.C,R86*%
X218500000Y-352400000D03*
X218500000Y-351400000D03*
%TD*%
%TO.C,R46*%
X270400000Y-352500000D03*
X270400000Y-351500000D03*
%TD*%
D20*
%TO.C,Q73*%
X279750000Y-330837500D03*
X281650000Y-330837500D03*
X280700000Y-328962500D03*
%TD*%
D24*
%TO.C,D66*%
X269010000Y-279700000D03*
X270590000Y-279700000D03*
%TD*%
D19*
%TO.C,Q543*%
X283850000Y-214062500D03*
X281950000Y-214062500D03*
X282900000Y-215937500D03*
%TD*%
D23*
%TO.C,D49*%
X129690000Y-390100000D03*
X128110000Y-390100000D03*
%TD*%
D19*
%TO.C,Q627*%
X174950000Y-275562500D03*
X173050000Y-275562500D03*
X174000000Y-277437500D03*
%TD*%
%TO.C,Q130*%
X221150000Y-339162500D03*
X219250000Y-339162500D03*
X220200000Y-341037500D03*
%TD*%
D13*
%TO.C,D18*%
X217100000Y-353090000D03*
X217100000Y-351510000D03*
%TD*%
D19*
%TO.C,Q185*%
X166950000Y-260562500D03*
X165050000Y-260562500D03*
X166000000Y-262437500D03*
%TD*%
D17*
%TO.C,R19*%
X199500000Y-353400000D03*
X198500000Y-353400000D03*
%TD*%
D14*
%TO.C,Q31*%
X177162500Y-355350000D03*
X177162500Y-357250000D03*
X179037500Y-356300000D03*
%TD*%
D19*
%TO.C,Q199*%
X186950000Y-260562500D03*
X185050000Y-260562500D03*
X186000000Y-262437500D03*
%TD*%
D16*
%TO.C,R499*%
X248900000Y-279400000D03*
X248900000Y-280400000D03*
%TD*%
D12*
%TO.C,R377*%
X130100000Y-361600000D03*
X130100000Y-360600000D03*
%TD*%
D19*
%TO.C,Q608*%
X128350000Y-277562500D03*
X126450000Y-277562500D03*
X127400000Y-279437500D03*
%TD*%
D22*
%TO.C,D46*%
X126276000Y-241421500D03*
X126276000Y-243001500D03*
%TD*%
D14*
%TO.C,Q10*%
X147162500Y-379350000D03*
X147162500Y-381250000D03*
X149037500Y-380300000D03*
%TD*%
D12*
%TO.C,R83*%
X209500000Y-352400000D03*
X209500000Y-351400000D03*
%TD*%
D19*
%TO.C,Q537*%
X296850000Y-241062500D03*
X294950000Y-241062500D03*
X295900000Y-242937500D03*
%TD*%
D20*
%TO.C,Q631*%
X251250000Y-331037500D03*
X253150000Y-331037500D03*
X252200000Y-329162500D03*
%TD*%
D21*
%TO.C,R329*%
X278900000Y-227000000D03*
X279900000Y-227000000D03*
%TD*%
%TO.C,R437*%
X162762500Y-338975000D03*
X163762500Y-338975000D03*
%TD*%
D16*
%TO.C,R116*%
X267600000Y-365400000D03*
X267600000Y-366400000D03*
%TD*%
D13*
%TO.C,D22*%
X237100000Y-353090000D03*
X237100000Y-351510000D03*
%TD*%
D12*
%TO.C,R371*%
X129100000Y-374800000D03*
X129100000Y-373800000D03*
%TD*%
D16*
%TO.C,R502*%
X239900000Y-279400000D03*
X239900000Y-280400000D03*
%TD*%
D19*
%TO.C,Q252*%
X274950000Y-269562500D03*
X273050000Y-269562500D03*
X274000000Y-271437500D03*
%TD*%
%TO.C,Q435*%
X130173718Y-308562500D03*
X128273718Y-308562500D03*
X129223718Y-310437500D03*
%TD*%
D18*
%TO.C,Q5*%
X124137500Y-374450000D03*
X124137500Y-372550000D03*
X122262500Y-373500000D03*
%TD*%
D19*
%TO.C,*%
X197050000Y-269562500D03*
%TD*%
%TO.C,Q180*%
X206950000Y-260562500D03*
X205050000Y-260562500D03*
X206000000Y-262437500D03*
%TD*%
D24*
%TO.C,D72*%
X213010000Y-279700000D03*
X214590000Y-279700000D03*
%TD*%
D14*
%TO.C,Q613*%
X165825000Y-335525000D03*
X165825000Y-337425000D03*
X167700000Y-336475000D03*
%TD*%
D12*
%TO.C,R359*%
X119600000Y-379200000D03*
X119600000Y-378200000D03*
%TD*%
D19*
%TO.C,Q607*%
X128350000Y-273462500D03*
X126450000Y-273462500D03*
X127400000Y-275337500D03*
%TD*%
%TO.C,Q116*%
X241150000Y-334162500D03*
X239250000Y-334162500D03*
X240200000Y-336037500D03*
%TD*%
D17*
%TO.C,R30*%
X239500000Y-353400000D03*
X238500000Y-353400000D03*
%TD*%
D13*
%TO.C,D11*%
X197100000Y-353090000D03*
X197100000Y-351510000D03*
%TD*%
D21*
%TO.C,R191*%
X169900000Y-273600000D03*
X170900000Y-273600000D03*
%TD*%
D19*
%TO.C,Q280*%
X178950000Y-275562500D03*
X177050000Y-275562500D03*
X178000000Y-277437500D03*
%TD*%
%TO.C,Q606*%
X135350000Y-273362500D03*
X133450000Y-273362500D03*
X134400000Y-275237500D03*
%TD*%
D17*
%TO.C,R26*%
X219500000Y-353400000D03*
X218500000Y-353400000D03*
%TD*%
D19*
%TO.C,Q109*%
X241150000Y-329162500D03*
X239250000Y-329162500D03*
X240200000Y-331037500D03*
%TD*%
%TO.C,Q127*%
X273850000Y-328962500D03*
X271950000Y-328962500D03*
X272900000Y-330837500D03*
%TD*%
D12*
%TO.C,R471*%
X127100000Y-370400000D03*
X127100000Y-369400000D03*
%TD*%
D19*
%TO.C,Q186*%
X158950000Y-260562500D03*
X157050000Y-260562500D03*
X158000000Y-262437500D03*
%TD*%
D14*
%TO.C,Q28*%
X177162500Y-359350000D03*
X177162500Y-361250000D03*
X179037500Y-360300000D03*
%TD*%
D16*
%TO.C,R507*%
X215900000Y-279400000D03*
X215900000Y-280400000D03*
%TD*%
D19*
%TO.C,Q201*%
X170950000Y-260562500D03*
X169050000Y-260562500D03*
X170000000Y-262437500D03*
%TD*%
D20*
%TO.C,Q79*%
X283750000Y-340837500D03*
X285650000Y-340837500D03*
X284700000Y-338962500D03*
%TD*%
D12*
%TO.C,R202*%
X208600000Y-273600000D03*
X208600000Y-272600000D03*
%TD*%
D16*
%TO.C,R498*%
X256900000Y-279400000D03*
X256900000Y-280400000D03*
%TD*%
D19*
%TO.C,Q248*%
X174950000Y-269562500D03*
X173050000Y-269562500D03*
X174000000Y-271437500D03*
%TD*%
D12*
%TO.C,R177*%
X151400000Y-273600000D03*
X151400000Y-272600000D03*
%TD*%
D17*
%TO.C,R27*%
X224500000Y-353400000D03*
X223500000Y-353400000D03*
%TD*%
D23*
%TO.C,D62*%
X120190000Y-381300000D03*
X118610000Y-381300000D03*
%TD*%
D12*
%TO.C,R45*%
X270400000Y-357500000D03*
X270400000Y-356500000D03*
%TD*%
%TO.C,R65*%
X179500000Y-352400000D03*
X179500000Y-351400000D03*
%TD*%
D19*
%TO.C,Q111*%
X221150000Y-334162500D03*
X219250000Y-334162500D03*
X220200000Y-336037500D03*
%TD*%
%TO.C,Q271*%
X250950000Y-275562500D03*
X249050000Y-275562500D03*
X250000000Y-277437500D03*
%TD*%
D16*
%TO.C,R505*%
X224900000Y-279400000D03*
X224900000Y-280400000D03*
%TD*%
D17*
%TO.C,R324*%
X308000000Y-240500000D03*
X307000000Y-240500000D03*
%TD*%
D19*
%TO.C,Q129*%
X217150000Y-339162500D03*
X215250000Y-339162500D03*
X216200000Y-341037500D03*
%TD*%
D20*
%TO.C,Q82*%
X279750000Y-351837500D03*
X281650000Y-351837500D03*
X280700000Y-349962500D03*
%TD*%
D19*
%TO.C,Q202*%
X162950000Y-260562500D03*
X161050000Y-260562500D03*
X162000000Y-262437500D03*
%TD*%
D12*
%TO.C,R62*%
X173500000Y-352400000D03*
X173500000Y-351400000D03*
%TD*%
D23*
%TO.C,D61*%
X120190000Y-376900000D03*
X118610000Y-376900000D03*
%TD*%
D19*
%TO.C,Q203*%
X154950000Y-260562500D03*
X153050000Y-260562500D03*
X154000000Y-262437500D03*
%TD*%
D16*
%TO.C,R506*%
X223900000Y-279400000D03*
X223900000Y-280400000D03*
%TD*%
D24*
%TO.C,D78*%
X165010000Y-279700000D03*
X166590000Y-279700000D03*
%TD*%
D17*
%TO.C,R15*%
X179500000Y-353400000D03*
X178500000Y-353400000D03*
%TD*%
D23*
%TO.C,D52*%
X129690000Y-376900000D03*
X128110000Y-376900000D03*
%TD*%
D19*
%TO.C,Q132*%
X229150000Y-339162500D03*
X227250000Y-339162500D03*
X228200000Y-341037500D03*
%TD*%
D11*
%TO.C,J3*%
X213900000Y-253000000D03*
D10*
X216440000Y-253000000D03*
X218980000Y-253000000D03*
X221520000Y-253000000D03*
X224060000Y-253000000D03*
X226600000Y-253000000D03*
X229140000Y-253000000D03*
X231680000Y-253000000D03*
X234220000Y-253000000D03*
X236760000Y-253000000D03*
X239300000Y-253000000D03*
X241840000Y-253000000D03*
X244380000Y-253000000D03*
X246920000Y-253000000D03*
X249460000Y-253000000D03*
X252000000Y-253000000D03*
X254540000Y-253000000D03*
X257080000Y-253000000D03*
X259620000Y-253000000D03*
X262160000Y-253000000D03*
X264700000Y-253000000D03*
%TD*%
D12*
%TO.C,R6*%
X120600000Y-370400000D03*
X120600000Y-369400000D03*
%TD*%
D17*
%TO.C,R29*%
X234500000Y-353400000D03*
X233500000Y-353400000D03*
%TD*%
D19*
%TO.C,Q192*%
X242950000Y-260562500D03*
X241050000Y-260562500D03*
X242000000Y-262437500D03*
%TD*%
%TO.C,Q117*%
X273850000Y-380962500D03*
X271950000Y-380962500D03*
X272900000Y-382837500D03*
%TD*%
D12*
%TO.C,R208*%
X160600000Y-273600000D03*
X160600000Y-272600000D03*
%TD*%
D16*
%TO.C,R217*%
X217900000Y-279400000D03*
X217900000Y-280400000D03*
%TD*%
D19*
%TO.C,Q196*%
X210950000Y-260562500D03*
X209050000Y-260562500D03*
X210000000Y-262437500D03*
%TD*%
%TO.C,Q104*%
X221150000Y-329162500D03*
X219250000Y-329162500D03*
X220200000Y-331037500D03*
%TD*%
D12*
%TO.C,R375*%
X130100000Y-366000000D03*
X130100000Y-365000000D03*
%TD*%
D16*
%TO.C,R223*%
X169900000Y-279400000D03*
X169900000Y-280400000D03*
%TD*%
D17*
%TO.C,R9*%
X149500000Y-353400000D03*
X148500000Y-353400000D03*
%TD*%
D12*
%TO.C,R2*%
X120600000Y-388000000D03*
X120600000Y-387000000D03*
%TD*%
%TO.C,R203*%
X200600000Y-273600000D03*
X200600000Y-272600000D03*
%TD*%
%TO.C,R376*%
X129100000Y-361600000D03*
X129100000Y-360600000D03*
%TD*%
D13*
%TO.C,D17*%
X212100000Y-353090000D03*
X212100000Y-351510000D03*
%TD*%
D21*
%TO.C,R192*%
X161900000Y-273600000D03*
X162900000Y-273600000D03*
%TD*%
D18*
%TO.C,Q7*%
X124137500Y-365650000D03*
X124137500Y-363750000D03*
X122262500Y-364700000D03*
%TD*%
D19*
%TO.C,Q425*%
X130173718Y-299562500D03*
X128273718Y-299562500D03*
X129223718Y-301437500D03*
%TD*%
D12*
%TO.C,R468*%
X128100000Y-379200000D03*
X128100000Y-378200000D03*
%TD*%
%TO.C,R481*%
X117600000Y-370400000D03*
X117600000Y-369400000D03*
%TD*%
%TO.C,R90*%
X229500000Y-352400000D03*
X229500000Y-351400000D03*
%TD*%
D20*
%TO.C,Q83*%
X275750000Y-361837500D03*
X277650000Y-361837500D03*
X276700000Y-359962500D03*
%TD*%
D19*
%TO.C,Q616*%
X270950000Y-275562500D03*
X269050000Y-275562500D03*
X270000000Y-277437500D03*
%TD*%
D23*
%TO.C,D54*%
X129690000Y-368100000D03*
X128110000Y-368100000D03*
%TD*%
D16*
%TO.C,R521*%
X160900000Y-279400000D03*
X160900000Y-280400000D03*
%TD*%
D19*
%TO.C,Q564*%
X283850000Y-245562500D03*
X281950000Y-245562500D03*
X282900000Y-247437500D03*
%TD*%
D13*
%TO.C,D8*%
X182100000Y-353090000D03*
X182100000Y-351510000D03*
%TD*%
D19*
%TO.C,Q540*%
X296850000Y-245562500D03*
X294950000Y-245562500D03*
X295900000Y-247437500D03*
%TD*%
D22*
%TO.C,D37*%
X269000000Y-334610000D03*
X269000000Y-336190000D03*
%TD*%
D12*
%TO.C,R205*%
X184600000Y-273600000D03*
X184600000Y-272600000D03*
%TD*%
D14*
%TO.C,Q42*%
X212162500Y-367350000D03*
X212162500Y-369250000D03*
X214037500Y-368300000D03*
%TD*%
D12*
%TO.C,R87*%
X219500000Y-352400000D03*
X219500000Y-351400000D03*
%TD*%
D19*
%TO.C,Q420*%
X130173718Y-295062500D03*
X128273718Y-295062500D03*
X129223718Y-296937500D03*
%TD*%
%TO.C,Q102*%
X213150000Y-329162500D03*
X211250000Y-329162500D03*
X212200000Y-331037500D03*
%TD*%
D13*
%TO.C,D1*%
X147100000Y-353090000D03*
X147100000Y-351510000D03*
%TD*%
D12*
%TO.C,R71*%
X194500000Y-352400000D03*
X194500000Y-351400000D03*
%TD*%
D19*
%TO.C,Q245*%
X198950000Y-269562500D03*
X197050000Y-269562500D03*
X198000000Y-271437500D03*
%TD*%
D12*
%TO.C,R485*%
X117600000Y-379200000D03*
X117600000Y-378200000D03*
%TD*%
%TO.C,R36*%
X270400000Y-383500000D03*
X270400000Y-382500000D03*
%TD*%
%TO.C,R461*%
X127100000Y-392400000D03*
X127100000Y-391400000D03*
%TD*%
%TO.C,R85*%
X214500000Y-352400000D03*
X214500000Y-351400000D03*
%TD*%
D19*
%TO.C,Q430*%
X130173718Y-304062500D03*
X128273718Y-304062500D03*
X129223718Y-305937500D03*
%TD*%
D20*
%TO.C,Q66*%
X279750000Y-382837500D03*
X281650000Y-382837500D03*
X280700000Y-380962500D03*
%TD*%
D12*
%TO.C,R367*%
X129100000Y-383600000D03*
X129100000Y-382600000D03*
%TD*%
%TO.C,R119*%
X267600000Y-362500000D03*
X267600000Y-361500000D03*
%TD*%
%TO.C,R104*%
X263500000Y-352400000D03*
X263500000Y-351400000D03*
%TD*%
D16*
%TO.C,R212*%
X257900000Y-279400000D03*
X257900000Y-280400000D03*
%TD*%
D17*
%TO.C,R12*%
X164500000Y-353400000D03*
X163500000Y-353400000D03*
%TD*%
D21*
%TO.C,R187*%
X201900000Y-273600000D03*
X202900000Y-273600000D03*
%TD*%
D19*
%TO.C,Q222*%
X258950000Y-265062500D03*
X257050000Y-265062500D03*
X258000000Y-266937500D03*
%TD*%
D24*
%TO.C,D69*%
X237010000Y-279700000D03*
X238590000Y-279700000D03*
%TD*%
D19*
%TO.C,Q118*%
X273850000Y-375962500D03*
X271950000Y-375962500D03*
X272900000Y-377837500D03*
%TD*%
D21*
%TO.C,R287*%
X121523718Y-314900000D03*
X120523718Y-314900000D03*
%TD*%
D19*
%TO.C,Q214*%
X190950000Y-265062500D03*
X189050000Y-265062500D03*
X190000000Y-266937500D03*
%TD*%
%TO.C,Q620*%
X230950000Y-275562500D03*
X229050000Y-275562500D03*
X230000000Y-277437500D03*
%TD*%
D16*
%TO.C,R355*%
X136862500Y-340875000D03*
X136862500Y-341875000D03*
%TD*%
D19*
%TO.C,Q191*%
X250950000Y-260562500D03*
X249050000Y-260562500D03*
X250000000Y-262437500D03*
%TD*%
D15*
%TO.C,C2*%
X127000000Y-270400000D03*
X127000000Y-265400000D03*
%TD*%
D17*
%TO.C,R16*%
X184500000Y-353400000D03*
X183500000Y-353400000D03*
%TD*%
D16*
%TO.C,R130*%
X267600000Y-338400000D03*
X267600000Y-339400000D03*
%TD*%
D21*
%TO.C,R179*%
X265900000Y-273600000D03*
X266900000Y-273600000D03*
%TD*%
D12*
%TO.C,R173*%
X183400000Y-273600000D03*
X183400000Y-272600000D03*
%TD*%
D19*
%TO.C,Q175*%
X246950000Y-260562500D03*
X245050000Y-260562500D03*
X246000000Y-262437500D03*
%TD*%
%TO.C,Q233*%
X170950000Y-265062500D03*
X169050000Y-265062500D03*
X170000000Y-266937500D03*
%TD*%
%TO.C,Q194*%
X226950000Y-260562500D03*
X225050000Y-260562500D03*
X226000000Y-262437500D03*
%TD*%
D12*
%TO.C,R98*%
X248500000Y-352400000D03*
X248500000Y-351400000D03*
%TD*%
D17*
%TO.C,R23*%
X204500000Y-353400000D03*
X203500000Y-353400000D03*
%TD*%
D19*
%TO.C,Q230*%
X194950000Y-265062500D03*
X193050000Y-265062500D03*
X194000000Y-266937500D03*
%TD*%
D11*
%TO.C,J2*%
X136100000Y-253000000D03*
D10*
X138640000Y-253000000D03*
X141180000Y-253000000D03*
X143720000Y-253000000D03*
X146260000Y-253000000D03*
X148800000Y-253000000D03*
X151340000Y-253000000D03*
X153880000Y-253000000D03*
X156420000Y-253000000D03*
X158960000Y-253000000D03*
X161500000Y-253000000D03*
X164040000Y-253000000D03*
X166580000Y-253000000D03*
X169120000Y-253000000D03*
X171660000Y-253000000D03*
X174200000Y-253000000D03*
X176740000Y-253000000D03*
X179280000Y-253000000D03*
X181820000Y-253000000D03*
X184360000Y-253000000D03*
X186900000Y-253000000D03*
%TD*%
D19*
%TO.C,Q629*%
X158950000Y-275562500D03*
X157050000Y-275562500D03*
X158000000Y-277437500D03*
%TD*%
D13*
%TO.C,D19*%
X222100000Y-353090000D03*
X222100000Y-351510000D03*
%TD*%
D17*
%TO.C,R114*%
X269700000Y-374600000D03*
X268700000Y-374600000D03*
%TD*%
D24*
%TO.C,D67*%
X253010000Y-279700000D03*
X254590000Y-279700000D03*
%TD*%
D18*
%TO.C,Q6*%
X124137500Y-370050000D03*
X124137500Y-368150000D03*
X122262500Y-369100000D03*
%TD*%
D14*
%TO.C,Q47*%
X222162500Y-371350000D03*
X222162500Y-373250000D03*
X224037500Y-372300000D03*
%TD*%
D17*
%TO.C,R10*%
X154500000Y-353400000D03*
X153500000Y-353400000D03*
%TD*%
D19*
%TO.C,Q92*%
X225150000Y-324162500D03*
X223250000Y-324162500D03*
X224200000Y-326037500D03*
%TD*%
%TO.C,Q246*%
X190950000Y-269562500D03*
X189050000Y-269562500D03*
X190000000Y-271437500D03*
%TD*%
D20*
%TO.C,Q81*%
X279750000Y-361837500D03*
X281650000Y-361837500D03*
X280700000Y-359962500D03*
%TD*%
D12*
%TO.C,R489*%
X117600000Y-388000000D03*
X117600000Y-387000000D03*
%TD*%
D19*
%TO.C,Q426*%
X125173718Y-299562500D03*
X123273718Y-299562500D03*
X124223718Y-301437500D03*
%TD*%
%TO.C,Q98*%
X249150000Y-324162500D03*
X247250000Y-324162500D03*
X248200000Y-326037500D03*
%TD*%
%TO.C,Q269*%
X266950000Y-275562500D03*
X265050000Y-275562500D03*
X266000000Y-277437500D03*
%TD*%
%TO.C,Q121*%
X273850000Y-359962500D03*
X271950000Y-359962500D03*
X272900000Y-361837500D03*
%TD*%
D16*
%TO.C,R493*%
X263900000Y-279400000D03*
X263900000Y-280400000D03*
%TD*%
D12*
%TO.C,R124*%
X267600000Y-352500000D03*
X267600000Y-351500000D03*
%TD*%
D19*
%TO.C,*%
X245050000Y-269562500D03*
%TD*%
D18*
%TO.C,Q602*%
X133637500Y-365650000D03*
X133637500Y-363750000D03*
X131762500Y-364700000D03*
%TD*%
D13*
%TO.C,D26*%
X257100000Y-353090000D03*
X257100000Y-351510000D03*
%TD*%
D19*
%TO.C,Q429*%
X134173718Y-304062500D03*
X132273718Y-304062500D03*
X133223718Y-305937500D03*
%TD*%
D12*
%TO.C,R95*%
X239500000Y-352400000D03*
X239500000Y-351400000D03*
%TD*%
%TO.C,R41*%
X270400000Y-336500000D03*
X270400000Y-335500000D03*
%TD*%
%TO.C,R366*%
X130100000Y-388000000D03*
X130100000Y-387000000D03*
%TD*%
D19*
%TO.C,Q545*%
X287850000Y-218562500D03*
X285950000Y-218562500D03*
X286900000Y-220437500D03*
%TD*%
D18*
%TO.C,Q596*%
X133637500Y-392050000D03*
X133637500Y-390150000D03*
X131762500Y-391100000D03*
%TD*%
D14*
%TO.C,Q22*%
X167162500Y-359350000D03*
X167162500Y-361250000D03*
X169037500Y-360300000D03*
%TD*%
D20*
%TO.C,Q71*%
X275750000Y-367837500D03*
X277650000Y-367837500D03*
X276700000Y-365962500D03*
%TD*%
D21*
%TO.C,R353*%
X161762500Y-334075000D03*
X162762500Y-334075000D03*
%TD*%
D18*
%TO.C,Q3*%
X124137500Y-383250000D03*
X124137500Y-381350000D03*
X122262500Y-382300000D03*
%TD*%
D24*
%TO.C,D70*%
X229010000Y-279700000D03*
X230590000Y-279700000D03*
%TD*%
D17*
%TO.C,R348*%
X141962500Y-334075000D03*
X140962500Y-334075000D03*
%TD*%
D13*
%TO.C,D6*%
X172100000Y-353090000D03*
X172100000Y-351510000D03*
%TD*%
D12*
%TO.C,R43*%
X270400000Y-326500000D03*
X270400000Y-325500000D03*
%TD*%
D19*
%TO.C,Q630*%
X150950000Y-275562500D03*
X149050000Y-275562500D03*
X150000000Y-277437500D03*
%TD*%
D14*
%TO.C,Q62*%
X262162500Y-383350000D03*
X262162500Y-385250000D03*
X264037500Y-384300000D03*
%TD*%
D19*
%TO.C,Q438*%
X138223718Y-314937500D03*
X137273718Y-313062500D03*
X139173718Y-313062500D03*
%TD*%
D12*
%TO.C,R358*%
X119600000Y-383600000D03*
X119600000Y-382600000D03*
%TD*%
D14*
%TO.C,Q53*%
X222162500Y-375350000D03*
X222162500Y-377250000D03*
X224037500Y-376300000D03*
%TD*%
D19*
%TO.C,Q419*%
X134173718Y-295062500D03*
X132273718Y-295062500D03*
X133223718Y-296937500D03*
%TD*%
D16*
%TO.C,R219*%
X201900000Y-279400000D03*
X201900000Y-280400000D03*
%TD*%
D19*
%TO.C,Q437*%
X142223718Y-314937500D03*
X141273718Y-313062500D03*
X143173718Y-313062500D03*
%TD*%
%TO.C,Q258*%
X226950000Y-269562500D03*
X225050000Y-269562500D03*
X226000000Y-271437500D03*
%TD*%
%TO.C,Q221*%
X266950000Y-265062500D03*
X265050000Y-265062500D03*
X266000000Y-266937500D03*
%TD*%
D17*
%TO.C,R350*%
X141962500Y-333075000D03*
X140962500Y-333075000D03*
%TD*%
D12*
%TO.C,R39*%
X270400000Y-368500000D03*
X270400000Y-367500000D03*
%TD*%
D19*
%TO.C,Q183*%
X182950000Y-260562500D03*
X181050000Y-260562500D03*
X182000000Y-262437500D03*
%TD*%
%TO.C,Q114*%
X233150000Y-334162500D03*
X231250000Y-334162500D03*
X232200000Y-336037500D03*
%TD*%
D13*
%TO.C,D21*%
X232100000Y-353090000D03*
X232100000Y-351510000D03*
%TD*%
D23*
%TO.C,D57*%
X120190000Y-359300000D03*
X118610000Y-359300000D03*
%TD*%
D16*
%TO.C,R211*%
X265900000Y-279400000D03*
X265900000Y-280400000D03*
%TD*%
D18*
%TO.C,Q603*%
X133637500Y-361250000D03*
X133637500Y-359350000D03*
X131762500Y-360300000D03*
%TD*%
D14*
%TO.C,Q60*%
X252162500Y-371350000D03*
X252162500Y-373250000D03*
X254037500Y-372300000D03*
%TD*%
D19*
%TO.C,Q208*%
X238950000Y-265062500D03*
X237050000Y-265062500D03*
X238000000Y-266937500D03*
%TD*%
D16*
%TO.C,R525*%
X257600000Y-330600000D03*
X257600000Y-331600000D03*
%TD*%
D20*
%TO.C,Q76*%
X275750000Y-330837500D03*
X277650000Y-330837500D03*
X276700000Y-328962500D03*
%TD*%
D19*
%TO.C,Q243*%
X214950000Y-269562500D03*
X213050000Y-269562500D03*
X214000000Y-271437500D03*
%TD*%
D12*
%TO.C,R198*%
X240600000Y-273600000D03*
X240600000Y-272600000D03*
%TD*%
%TO.C,R93*%
X234500000Y-352400000D03*
X234500000Y-351400000D03*
%TD*%
D18*
%TO.C,Q601*%
X133637500Y-370050000D03*
X133637500Y-368150000D03*
X131762500Y-369100000D03*
%TD*%
D21*
%TO.C,R188*%
X193900000Y-273600000D03*
X194900000Y-273600000D03*
%TD*%
%TO.C,R330*%
X278900000Y-231500000D03*
X279900000Y-231500000D03*
%TD*%
D17*
%TO.C,R117*%
X269700000Y-369600000D03*
X268700000Y-369600000D03*
%TD*%
D12*
%TO.C,R54*%
X153500000Y-352400000D03*
X153500000Y-351400000D03*
%TD*%
D14*
%TO.C,Q592*%
X156825000Y-335525000D03*
X156825000Y-337425000D03*
X158700000Y-336475000D03*
%TD*%
D17*
%TO.C,R325*%
X308000000Y-245000000D03*
X307000000Y-245000000D03*
%TD*%
D19*
%TO.C,Q249*%
X166950000Y-269562500D03*
X165050000Y-269562500D03*
X166000000Y-271437500D03*
%TD*%
D12*
%TO.C,R204*%
X192600000Y-273600000D03*
X192600000Y-272600000D03*
%TD*%
D19*
%TO.C,Q283*%
X154950000Y-275562500D03*
X153050000Y-275562500D03*
X154000000Y-277437500D03*
%TD*%
D12*
%TO.C,R194*%
X272600000Y-273600000D03*
X272600000Y-272600000D03*
%TD*%
D13*
%TO.C,D24*%
X247100000Y-353090000D03*
X247100000Y-351510000D03*
%TD*%
D14*
%TO.C,Q17*%
X152162500Y-355350000D03*
X152162500Y-357250000D03*
X154037500Y-356300000D03*
%TD*%
D11*
%TO.C,J8*%
X130900000Y-273500000D03*
%TD*%
D21*
%TO.C,R328*%
X278900000Y-222500000D03*
X279900000Y-222500000D03*
%TD*%
D19*
%TO.C,Q96*%
X241150000Y-324162500D03*
X239250000Y-324162500D03*
X240200000Y-326037500D03*
%TD*%
D14*
%TO.C,Q14*%
X147162500Y-363350000D03*
X147162500Y-365250000D03*
X149037500Y-364300000D03*
%TD*%
D19*
%TO.C,Q518*%
X296850000Y-214062500D03*
X294950000Y-214062500D03*
X295900000Y-215937500D03*
%TD*%
D16*
%TO.C,R118*%
X267600000Y-359400000D03*
X267600000Y-360400000D03*
%TD*%
D23*
%TO.C,D50*%
X129690000Y-385700000D03*
X128110000Y-385700000D03*
%TD*%
D19*
%TO.C,Q89*%
X213150000Y-324162500D03*
X211250000Y-324162500D03*
X212200000Y-326037500D03*
%TD*%
D15*
%TO.C,C1*%
X134900000Y-265400000D03*
X134900000Y-270400000D03*
%TD*%
D12*
%TO.C,R363*%
X130100000Y-392400000D03*
X130100000Y-391400000D03*
%TD*%
D19*
%TO.C,Q618*%
X246950000Y-275562500D03*
X245050000Y-275562500D03*
X246000000Y-277437500D03*
%TD*%
D12*
%TO.C,R101*%
X254500000Y-352400000D03*
X254500000Y-351400000D03*
%TD*%
D19*
%TO.C,*%
X165050000Y-269562500D03*
%TD*%
M02*
