M48
; DRILL file {KiCad 9.0.7} date 2026-03-27T13:44:15+0100
; FORMAT={-:-/ absolute / inch / decimal}
; #@! TF.CreationDate,2026-03-27T13:44:15+01:00
; #@! TF.GenerationSoftware,Kicad,Pcbnew,9.0.7
; #@! TF.FileFunction,NonPlated,1,6,NPTH
FMAT,2
INCH
; #@! TA.AperFunction,NonPlated,NPTH,ComponentDrill
T1C0.0866
; #@! TA.AperFunction,NonPlated,NPTH,ComponentDrill
T2C0.1260
%
G90
G05
T1
X4.2047Y-13.2677
X4.4567Y-13.2677
X4.4567Y-15.5669
X5.2087Y-8.3543
X5.2087Y-8.6063
X5.2087Y-9.8346
X5.2087Y-10.0866
X5.2087Y-11.1693
X5.2087Y-11.4213
X7.5039Y-8.3504
X7.5079Y-8.6063
X7.5079Y-9.8346
X7.5079Y-10.0866
X7.5079Y-11.1693
X7.5079Y-11.4213
X8.2717Y-8.3543
X8.2717Y-8.6063
X8.2717Y-9.8346
X8.2717Y-10.0866
X10.5709Y-8.3543
X10.5709Y-8.6063
X10.5709Y-9.8346
X10.5709Y-10.0866
T2
X4.0748Y-8.0118
X4.0748Y-15.6063
X4.3307Y-11.811
X7.874Y-9.9567
X7.9016Y-8.4764
X8.437Y-12.1693
X12.2047Y-11.4173
X12.6929Y-8.0118
X12.6929Y-15.6102
M30
