M48
; DRILL file {KiCad 9.0.7} date 2026-03-27T03:15:51+0100
; FORMAT={-:-/ absolute / inch / decimal}
; #@! TF.CreationDate,2026-03-27T03:15:51+01:00
; #@! TF.GenerationSoftware,Kicad,Pcbnew,9.0.7
; #@! TF.FileFunction,Plated,1,6,PTH
FMAT,2
INCH
; #@! TA.AperFunction,Plated,PTH,ViaDrill
T1C0.0118
; #@! TA.AperFunction,Plated,PTH,ViaDrill
T2C0.0197
; #@! TA.AperFunction,Plated,PTH,ComponentDrill
T3C0.0315
; #@! TA.AperFunction,Plated,PTH,ComponentDrill
T4C0.0394
%
G90
G05
T1
X4.0394Y-10.1693
X4.1575Y-11.189
X4.5079Y-11.3189
X4.5561Y-9.1033
X4.5748Y-11.3425
X4.6929Y-9.1339
X4.6969Y-8.8898
X4.7008Y-12.8898
X4.7126Y-11.3425
X4.7205Y-8.9808
X4.7229Y-12.562
X4.7283Y-13.7795
X4.7402Y-12.6732
X4.7441Y-8.8898
X4.745Y-11.7559
X4.745Y-11.9409
X4.745Y-12.1063
X4.745Y-12.2953
X4.7638Y-13.6732
X4.8031Y-11.9173
X4.8071Y-12.0866
X4.8189Y-11.7323
X4.8268Y-12.2598
X4.8386Y-13.5079
X4.8543Y-13.2795
X4.8622Y-13.6496
X4.874Y-12.814
X4.8819Y-9.2835
X4.9134Y-13.7008
X4.937Y-11.7165
X4.937Y-11.8898
X4.9449Y-12.0669
X4.9449Y-12.248
X4.9449Y-12.4291
X4.9685Y-12.5315
X5.0079Y-13.4803
X5.0197Y-13.6142
X5.1063Y-9.4331
X5.122Y-12.5354
X5.1535Y-9.1181
X5.1654Y-9.4488
X5.1663Y-11.6142
X5.1663Y-11.7765
X5.1663Y-11.9537
X5.1663Y-12.1309
X5.1663Y-12.3022
X5.1683Y-9.28
X5.2756Y-13.0827
X5.2795Y-12.5315
X5.2795Y-12.9606
X5.2874Y-9.4331
X5.315Y-15.0512
X5.3189Y-14.3622
X5.3189Y-14.7047
X5.3189Y-14.8819
X5.3189Y-15.2244
X5.3189Y-15.3976
X5.3228Y-14.1929
X5.3228Y-14.5354
X5.3386Y-9.1181
X5.3386Y-11.9724
X5.3386Y-12.3898
X5.3425Y-9.4449
X5.3425Y-11.7913
X5.3425Y-12.1614
X5.3465Y-11.6181
X5.3485Y-8.9571
X5.3485Y-9.28
X5.3622Y-11.5521
X5.3622Y-13.0669
X5.3883Y-13.373
X5.3942Y-13.312
X5.3976Y-13.1772
X5.4016Y-11.5536
X5.4016Y-12.9055
X5.4134Y-13.7165
X5.437Y-12.5354
X5.4409Y-15.6772
X5.4606Y-15.6496
X5.4646Y-9.4331
X5.4803Y-15.622
X5.5Y-15.5945
X5.5015Y-13.5212
X5.5157Y-9.1181
X5.5197Y-9.4488
X5.5197Y-15.5669
X5.5206Y-11.6102
X5.5206Y-11.7559
X5.5206Y-11.937
X5.5206Y-12.1181
X5.5206Y-12.2953
X5.5257Y-8.9571
X5.5257Y-9.28
X5.5394Y-15.5394
X5.5591Y-9.7756
X5.5591Y-15.5118
X5.5773Y-13.2943
X5.5787Y-15.4843
X5.5906Y-12.5315
X5.5906Y-14.2047
X5.5906Y-15.4252
X5.6142Y-14.3346
X5.6142Y-15.6496
X5.6378Y-9.4331
X5.6417Y-12.7362
X5.6417Y-14.4685
X5.6417Y-15.3701
X5.6624Y-11.7283
X5.6654Y-14.6024
X5.6654Y-15.3425
X5.6657Y-12.6775
X5.6678Y-13.4596
X5.6718Y-13.0276
X5.6742Y-11.685
X5.6742Y-12.0945
X5.6772Y-12.7598
X5.6781Y-12.2559
X5.6816Y-11.9173
X5.689Y-14.7402
X5.689Y-15.315
X5.6929Y-9.1181
X5.6929Y-9.4488
X5.6954Y-12.8809
X5.7008Y-13.9843
X5.7028Y-8.9571
X5.7028Y-9.28
X5.7092Y-11.8543
X5.7092Y-12.0197
X5.7092Y-12.2638
X5.7126Y-14.8701
X5.7126Y-15.2874
X5.7362Y-15.2598
X5.7365Y-14.9924
X5.748Y-12.5354
X5.7485Y-13.1978
X5.7677Y-15.2008
X5.7756Y-12.4252
X5.815Y-9.4291
X5.8307Y-13.0472
X5.8332Y-12.7549
X5.8543Y-7.9528
X5.8701Y-9.1181
X5.874Y-9.4528
X5.88Y-8.9571
X5.8809Y-9.28
X5.8858Y-11.8228
X5.9094Y-12.5315
X5.9222Y-11.9748
X5.9222Y-12.1716
X5.9222Y-12.3662
X5.9277Y-13.2943
X5.9449Y-14.0276
X5.9449Y-15.6772
X5.9567Y-7.9764
X5.9743Y-10.364
X5.9764Y-13.4646
X5.9843Y-10.8346
X5.9921Y-9.4331
X6.0039Y-13.6614
X6.0118Y-11.6811
X6.0384Y-11.8661
X6.0472Y-9.1181
X6.0512Y-9.4488
X6.0551Y-8.0
X6.0572Y-9.28
X6.063Y-8.9571
X6.063Y-12.437
X6.0647Y-10.8132
X6.0669Y-12.5394
X6.0906Y-13.9567
X6.0945Y-14.0866
X6.0945Y-15.4252
X6.1181Y-13.3661
X6.1181Y-14.2205
X6.1181Y-15.3976
X6.122Y-10.7087
X6.1352Y-11.8622
X6.1352Y-12.0669
X6.1352Y-12.252
X6.1417Y-14.3425
X6.1417Y-15.622
X6.1457Y-13.0424
X6.1575Y-8.0236
X6.1693Y-9.4291
X6.2205Y-9.1181
X6.2244Y-12.5276
X6.2323Y-9.4528
X6.2343Y-8.9571
X6.2343Y-9.28
X6.2559Y-8.0472
X6.2677Y-10.5079
X6.2835Y-13.9567
X6.2992Y-10.8346
X6.3031Y-13.0906
X6.3346Y-14.0236
X6.3346Y-15.6772
X6.3465Y-9.4252
X6.3504Y-12.9055
X6.3543Y-8.0709
X6.3819Y-10.815
X6.3962Y-13.0423
X6.4016Y-9.122
X6.4094Y-9.4528
X6.4115Y-8.9571
X6.4115Y-9.28
X6.4331Y-12.7008
X6.4409Y-10.7126
X6.4567Y-8.0945
X6.4843Y-13.9528
X6.5039Y-14.0748
X6.5039Y-15.4252
X6.5276Y-14.185
X6.5276Y-15.6496
X6.5433Y-11.4094
X6.5551Y-8.1181
X6.5748Y-9.1181
X6.5827Y-11.4252
X6.5887Y-8.9571
X6.5887Y-9.28
X6.5887Y-9.4528
X6.5887Y-9.4882
X6.6105Y-10.3979
X6.6142Y-10.8346
X6.6732Y-13.9528
X6.6927Y-10.8113
X6.7244Y-11.7205
X6.7244Y-14.0276
X6.7244Y-15.6772
X6.7559Y-10.7126
X6.7598Y-9.4921
X6.7638Y-9.1181
X6.7638Y-9.4528
X6.7658Y-8.9571
X6.7658Y-9.28
X6.8504Y-14.1181
X6.8504Y-15.4252
X6.8622Y-13.9488
X6.874Y-14.252
X6.874Y-15.3976
X6.8976Y-14.3858
X6.8976Y-15.3701
X6.9126Y-10.3732
X6.9213Y-14.5
X6.9213Y-15.5945
X6.9291Y-10.8346
X6.9331Y-9.1181
X6.943Y-8.9571
X6.943Y-9.28
X6.943Y-9.4528
X6.943Y-9.4921
X7.0076Y-10.8113
X7.0709Y-10.7126
X7.0748Y-13.9528
X7.1102Y-9.1181
X7.1202Y-8.9571
X7.1202Y-9.28
X7.1202Y-9.4488
X7.1202Y-9.4921
X7.122Y-14.0276
X7.122Y-15.6772
X7.2177Y-10.383
X7.2441Y-10.8346
X7.2717Y-13.9606
X7.2913Y-9.1142
X7.2973Y-9.28
X7.2992Y-14.063
X7.2992Y-15.4252
X7.3022Y-9.4567
X7.3022Y-9.4961
X7.3031Y-8.9571
X7.3189Y-15.6496
X7.3226Y-10.8113
X7.3228Y-14.185
X7.3878Y-10.7165
X7.4579Y-11.6957
X7.4685Y-9.1142
X7.4724Y-13.9567
X7.4745Y-9.28
X7.4794Y-9.4528
X7.4794Y-9.4921
X7.4803Y-8.9571
X7.5157Y-14.0276
X7.5157Y-15.6772
X7.5405Y-10.3752
X7.5591Y-10.8346
X7.6156Y-11.6024
X7.6378Y-10.815
X7.6417Y-9.1181
X7.6517Y-8.9571
X7.6517Y-9.28
X7.6535Y-9.4567
X7.6565Y-9.4921
X7.6614Y-14.0945
X7.6614Y-15.4252
X7.6693Y-13.9488
X7.685Y-14.2323
X7.685Y-15.3976
X7.7008Y-10.7087
X7.7047Y-11.7756
X7.7047Y-15.622
X7.7087Y-14.3465
X7.7953Y-10.3937
X7.8228Y-9.1181
X7.8288Y-8.9571
X7.8288Y-9.28
X7.8337Y-9.4488
X7.8337Y-9.4921
X7.8622Y-14.4055
X7.8622Y-15.3701
X7.8701Y-13.9567
X7.874Y-10.8346
X7.8794Y-11.6772
X7.8858Y-14.5394
X7.8858Y-15.3425
X7.9094Y-14.6535
X7.9094Y-15.5669
X7.9213Y-12.9724
X7.937Y-9.0472
X7.9545Y-10.8132
X7.9724Y-11.8425
X7.9961Y-11.4774
X8.0118Y-13.9764
X8.0177Y-10.7087
X8.0327Y-13.7165
X8.0768Y-13.2677
X8.1102Y-10.3937
X8.1142Y-12.689
X8.1142Y-12.8976
X8.1142Y-14.3425
X8.1142Y-15.622
X8.126Y-11.7795
X8.1614Y-11.2047
X8.189Y-10.8346
X8.1969Y-12.7087
X8.2087Y-13.9803
X8.2323Y-9.1181
X8.2323Y-9.4567
X8.2343Y-13.2638
X8.2392Y-9.2839
X8.2392Y-9.3583
X8.2411Y-8.9571
X8.2675Y-10.8113
X8.2717Y-14.3937
X8.2717Y-15.3701
X8.2953Y-14.5
X8.2953Y-15.5945
X8.3307Y-10.7087
X8.3917Y-13.2638
X8.4055Y-9.1181
X8.4055Y-9.4528
X8.4055Y-13.9764
X8.4164Y-9.2839
X8.4164Y-9.3583
X8.4183Y-8.9571
X8.4213Y-8.1654
X8.4464Y-11.6339
X8.4685Y-10.4961
X8.47Y-11.6772
X8.4921Y-15.622
X8.4961Y-14.3425
X8.5039Y-10.8346
X8.5157Y-13.2638
X8.5354Y-8.2205
X8.5551Y-11.1732
X8.5581Y-11.2894
X8.5824Y-10.8113
X8.5827Y-9.4606
X8.5891Y-9.1167
X8.5935Y-9.2839
X8.5935Y-9.3583
X8.5945Y-8.9571
X8.6024Y-13.9685
X8.622Y-14.4331
X8.622Y-15.3701
X8.6456Y-13.2874
X8.6457Y-10.7047
X8.6457Y-14.563
X8.6457Y-15.3425
X8.6693Y-11.7953
X8.6693Y-11.8543
X8.6693Y-14.7008
X8.6693Y-15.315
X8.6929Y-14.815
X8.6929Y-15.5394
X8.748Y-11.2008
X8.7598Y-11.9173
X8.7677Y-9.1142
X8.7707Y-9.2839
X8.7707Y-9.3583
X8.7707Y-9.4685
X8.7717Y-8.9571
X8.7795Y-10.5
X8.7992Y-13.9803
X8.8031Y-13.2918
X8.8189Y-10.8346
X8.844Y-11.6772
X8.8898Y-14.3425
X8.8898Y-15.622
X8.8974Y-10.8113
X8.9045Y-11.4075
X8.9213Y-7.9528
X8.9449Y-9.1142
X8.9449Y-9.4724
X8.9479Y-9.2839
X8.9479Y-9.3583
X8.9498Y-8.9571
X8.9567Y-10.7087
X8.9606Y-13.2874
X8.9961Y-13.9803
X9.0212Y-11.5591
X9.0236Y-7.9764
X9.0669Y-14.3819
X9.0669Y-15.3701
X9.0856Y-11.2894
X9.0906Y-14.4961
X9.0906Y-15.5945
X9.0984Y-10.4961
X9.1142Y-9.1142
X9.1181Y-13.2874
X9.122Y-8.0
X9.122Y-9.4724
X9.125Y-9.2839
X9.125Y-9.3583
X9.1269Y-8.9571
X9.1339Y-10.8346
X9.185Y-11.3819
X9.189Y-11.7657
X9.1929Y-13.9685
X9.1969Y-11.8583
X9.2124Y-10.8113
X9.2205Y-8.0236
X9.2283Y-11.8032
X9.2717Y-10.7087
X9.2835Y-14.6575
X9.2835Y-15.5669
X9.2953Y-9.1142
X9.2992Y-9.4685
X9.3022Y-9.2839
X9.3022Y-9.3583
X9.3032Y-8.9571
X9.3189Y-8.0472
X9.3601Y-13.0727
X9.3898Y-13.9764
X9.3952Y-11.6772
X9.4134Y-10.5079
X9.4213Y-8.0709
X9.4331Y-14.7323
X9.4331Y-15.315
X9.4488Y-10.8346
X9.4557Y-11.2894
X9.4567Y-14.8661
X9.4567Y-15.2874
X9.4606Y-13.3898
X9.4685Y-9.1142
X9.4685Y-11.185
X9.4724Y-9.4646
X9.4764Y-15.5118
X9.4794Y-9.2839
X9.4794Y-9.3583
X9.4803Y-14.9724
X9.4804Y-8.9571
X9.5Y-13.0906
X9.5098Y-11.9626
X9.5236Y-8.0945
X9.5273Y-10.8113
X9.5866Y-10.7126
X9.5866Y-13.9764
X9.626Y-8.1181
X9.6378Y-9.1181
X9.6565Y-9.2839
X9.6565Y-9.3583
X9.6584Y-8.9571
X9.6732Y-9.6339
X9.685Y-14.6575
X9.685Y-15.5669
X9.7087Y-12.8622
X9.7323Y-10.5
X9.7638Y-10.8346
X9.7835Y-13.9764
X9.7982Y-11.4075
X9.7992Y-13.2298
X9.8031Y-13.033
X9.814Y-11.2894
X9.8307Y-9.1102
X9.8337Y-9.2839
X9.8337Y-9.3583
X9.8356Y-8.9571
X9.8423Y-10.8113
X9.8504Y-12.8361
X9.8543Y-14.7047
X9.8543Y-15.315
X9.8583Y-9.6299
X9.878Y-14.815
X9.878Y-15.5394
X9.9016Y-10.7126
X9.966Y-11.6772
X9.9739Y-11.5591
X9.9803Y-13.9764
X9.9961Y-11.189
X10.0039Y-9.1142
X10.0109Y-9.2839
X10.0109Y-9.3583
X10.0119Y-8.9571
X10.0315Y-9.6299
X10.0472Y-10.5039
X10.0709Y-14.6535
X10.0709Y-15.5669
X10.0763Y-10.8361
X10.1338Y-11.8268
X10.1572Y-10.8113
X10.1772Y-9.1181
X10.1772Y-13.9764
X10.1811Y-14.7638
X10.1811Y-15.315
X10.188Y-9.2839
X10.188Y-9.3583
X10.189Y-8.9571
X10.2047Y-14.8976
X10.2047Y-15.2874
X10.2087Y-12.3898
X10.2126Y-9.622
X10.2205Y-10.7087
X10.2283Y-15.0354
X10.2283Y-15.2598
X10.2677Y-11.3268
X10.2717Y-15.1299
X10.2835Y-12.3504
X10.2953Y-15.4843
X10.3228Y-11.1614
X10.3583Y-9.1142
X10.3622Y-10.5
X10.3652Y-9.2839
X10.3652Y-9.3583
X10.3671Y-8.9571
X10.374Y-13.9764
X10.3819Y-9.6181
X10.3912Y-10.8361
X10.4055Y-11.3898
X10.4331Y-12.4921
X10.4722Y-10.8113
X10.4724Y-12.2913
X10.4764Y-12.1969
X10.5111Y-10.7251
X10.5236Y-12.4409
X10.5394Y-9.1102
X10.5424Y-9.2839
X10.5424Y-9.3583
X10.5443Y-8.9571
X10.5551Y-9.6063
X10.6732Y-12.315
X10.6772Y-10.5
X10.689Y-12.4528
X10.7062Y-10.8361
X10.7087Y-9.1181
X10.7165Y-12.1299
X10.7165Y-12.3268
X10.7195Y-9.2839
X10.7195Y-9.3583
X10.7205Y-8.9571
X10.7244Y-12.5354
X10.7402Y-11.9449
X10.7441Y-9.626
X10.7869Y-9.3115
X10.7913Y-13.6811
X10.7913Y-14.5
X10.7953Y-13.252
X10.7953Y-14.7008
X10.7953Y-14.9016
X10.7953Y-15.0945
X10.7992Y-12.8465
X10.7992Y-13.4449
X10.7992Y-14.0748
X10.7992Y-14.2756
X10.8031Y-13.0512
X10.8071Y-13.878
X10.815Y-12.1811
X10.8189Y-12.0236
X10.8465Y-10.7126
X10.8583Y-15.1457
X10.8583Y-15.4252
X10.8819Y-9.1181
X10.8937Y-14.5354
X10.8977Y-8.9571
X10.8977Y-9.2839
X10.9173Y-9.6378
X10.9291Y-14.9409
X10.9331Y-11.748
X10.9331Y-12.2913
X10.937Y-13.2835
X10.939Y-14.7539
X10.9409Y-14.1142
X10.9449Y-13.7283
X10.9449Y-14.3307
X10.9488Y-13.9252
X10.9528Y-13.5197
X10.9567Y-13.1142
X10.9843Y-11.9685
X10.9961Y-12.1378
X11.0157Y-15.1457
X11.0157Y-15.3976
X11.0433Y-11.7244
X11.0472Y-14.7323
X11.0512Y-13.9016
X11.0591Y-8.5827
X11.0591Y-8.7598
X11.0591Y-8.937
X11.0591Y-9.1142
X11.0591Y-9.2913
X11.0591Y-9.4685
X11.0591Y-9.6457
X11.0709Y-14.3071
X11.1299Y-12.2835
X11.1417Y-15.1299
X11.1496Y-13.4843
X11.1496Y-14.315
X11.1949Y-8.5379
X11.1949Y-8.7111
X11.1949Y-8.8922
X11.1969Y-11.7638
X11.1988Y-9.0733
X11.1988Y-9.2426
X11.1988Y-9.4198
X11.1988Y-9.6009
X11.2146Y-8.4158
X11.2559Y-12.3228
X11.2913Y-12.4409
X11.3543Y-13.1142
X11.3543Y-13.5197
X11.378Y-14.3543
X11.3937Y-8.6048
X11.3937Y-8.782
X11.3937Y-8.9592
X11.3937Y-9.1363
X11.3937Y-9.3135
X11.3937Y-9.4906
X11.3937Y-9.6678
X11.4016Y-13.9252
X11.4016Y-14.378
X11.4016Y-14.7559
X11.4488Y-13.2835
X11.4724Y-13.8976
X11.4724Y-14.7323
X11.4961Y-13.7283
X11.4961Y-14.1142
X11.4961Y-14.5354
X11.4961Y-14.9409
X11.5787Y-8.2402
X11.5906Y-8.2087
X11.6063Y-8.1772
X11.626Y-8.1496
X11.6455Y-8.1222
X11.6636Y-8.0963
X11.6734Y-8.0664
X11.6929Y-8.0394
X11.7264Y-8.5891
X11.7264Y-8.9473
X11.7264Y-9.471
X11.7264Y-9.6521
X11.7303Y-8.4158
X11.7303Y-8.7623
X11.7303Y-9.0536
X11.7303Y-9.1166
X11.7303Y-9.2938
X11.7303Y-9.5851
X11.7343Y-9.2308
X11.7382Y-9.4119
X11.7421Y-9.7623
X11.7461Y-8.8725
X11.7657Y-8.6954
X11.7677Y-10.0748
X11.8524Y-8.5143
X11.9094Y-8.5787
X11.9094Y-9.1142
X11.9094Y-9.2913
X11.9094Y-9.4685
X11.9134Y-8.7598
X11.9134Y-8.937
X11.9134Y-9.6457
X11.9626Y-9.782
X11.9665Y-8.5497
X11.9665Y-8.6757
X11.9665Y-8.8804
X11.9665Y-9.0497
X11.9665Y-9.219
X11.9665Y-9.408
X11.9665Y-9.5891
X12.0433Y-8.5827
X12.0433Y-8.7598
X12.0433Y-8.937
X12.0433Y-9.1142
X12.0433Y-9.2913
X12.0433Y-9.4685
X12.0433Y-9.6457
T2
X4.7384Y-13.4636
X4.7913Y-14.1299
X4.7913Y-14.2362
X4.7913Y-14.3031
X4.7913Y-14.4094
X4.7913Y-14.4764
X4.7913Y-14.5827
X4.7913Y-14.6496
X4.7913Y-14.7559
X4.7913Y-14.8228
X4.7913Y-14.9291
X4.7913Y-14.9961
X4.7913Y-15.1024
X4.7913Y-15.1693
X4.7913Y-15.2756
X4.7913Y-15.3425
X4.7913Y-15.4488
X4.7992Y-9.685
X4.8221Y-10.0539
X4.8489Y-12.877
X4.877Y-9.5083
X4.8844Y-13.0226
X4.9291Y-9.2717
X4.9991Y-9.28
X5.0182Y-13.2943
X5.0424Y-8.9571
X5.0433Y-10.3661
X5.0851Y-13.2943
X5.1122Y-10.4921
X5.122Y-10.2913
X5.1535Y-10.8661
X5.1654Y-14.1299
X5.1654Y-14.2362
X5.1654Y-14.3031
X5.1654Y-14.4094
X5.1654Y-14.4764
X5.1654Y-14.5827
X5.1654Y-14.6496
X5.1654Y-14.7559
X5.1654Y-14.8228
X5.1654Y-14.9291
X5.1654Y-14.9961
X5.1654Y-15.1024
X5.1654Y-15.1693
X5.1654Y-15.2756
X5.1654Y-15.3425
X5.1654Y-15.4488
X5.2038Y-9.685
X5.2165Y-10.8622
X5.2181Y-8.778
X5.4985Y-13.6407
X5.6403Y-13.1329
X5.656Y-13.3612
X5.7323Y-9.685
X5.7544Y-13.2982
X5.7732Y-8.778
X5.8405Y-10.3583
X5.8976Y-10.7717
X5.9291Y-13.7835
X5.9843Y-10.9488
X5.9882Y-10.5394
X6.03Y-12.873
X6.1555Y-10.3583
X6.2126Y-10.7717
X6.2741Y-12.8455
X6.2899Y-13.3494
X6.2992Y-10.9488
X6.3017Y-13.1329
X6.3031Y-10.5394
X6.3425Y-13.7835
X6.3607Y-13.3573
X6.4449Y-9.685
X6.4704Y-10.3583
X6.4818Y-8.778
X6.5276Y-10.7717
X6.6142Y-10.9488
X6.6181Y-10.5394
X6.7854Y-10.3583
X6.8425Y-10.7717
X6.9291Y-10.9488
X6.9331Y-10.5394
X6.9376Y-13.7841
X7.1004Y-10.3583
X7.1565Y-9.685
X7.1575Y-10.7717
X7.1866Y-8.778
X7.2441Y-10.9488
X7.248Y-10.5394
X7.311Y-13.7835
X7.4153Y-10.3583
X7.4724Y-10.7717
X7.5591Y-10.9488
X7.563Y-10.5394
X7.688Y-9.6737
X7.7165Y-13.7835
X7.722Y-8.778
X7.7303Y-10.3583
X7.7874Y-10.7717
X7.874Y-10.9488
X7.878Y-10.5394
X7.934Y-13.7844
X7.9528Y-12.8858
X7.9724Y-9.2362
X8.0069Y-11.3406
X8.0452Y-10.3583
X8.066Y-9.2839
X8.1024Y-10.7717
X8.1054Y-8.9571
X8.1654Y-11.2795
X8.189Y-10.9488
X8.1929Y-10.5394
X8.2668Y-9.6737
X8.2825Y-8.78
X8.3602Y-10.3583
X8.4173Y-10.7717
X8.5039Y-10.9488
X8.5079Y-10.5394
X8.5118Y-13.7835
X8.5472Y-13.1535
X8.6752Y-10.3583
X8.7323Y-10.7717
X8.7983Y-9.6737
X8.8189Y-10.9488
X8.8228Y-10.5394
X8.8376Y-8.78
X8.8976Y-13.7835
X8.9901Y-10.3583
X9.0472Y-10.7717
X9.1339Y-10.9488
X9.1378Y-10.5394
X9.2874Y-13.7835
X9.3051Y-10.3583
X9.3622Y-10.7717
X9.4488Y-10.9488
X9.4528Y-10.5394
X9.5109Y-9.6737
X9.5463Y-8.78
X9.62Y-10.3583
X9.6772Y-10.7717
X9.685Y-13.7835
X9.7638Y-10.9488
X9.7677Y-10.5394
X9.878Y-13.7835
X9.935Y-10.3583
X9.9921Y-10.7717
X10.0Y-12.9055
X10.0039Y-13.1024
X10.0039Y-13.2953
X10.0039Y-13.4921
X10.0787Y-10.9488
X10.0827Y-10.5394
X10.2195Y-9.6737
X10.25Y-10.3583
X10.251Y-8.78
X10.2618Y-15.1909
X10.3071Y-10.7717
X10.3937Y-10.9488
X10.3976Y-10.5394
X10.4921Y-12.8657
X10.4921Y-13.283
X10.4921Y-13.72
X10.4921Y-14.1098
X10.4921Y-14.9409
X10.4961Y-14.5472
X10.5394Y-11.815
X10.5649Y-10.3583
X10.622Y-10.7717
X10.6929Y-12.2598
X10.6929Y-12.8465
X10.6929Y-13.0433
X10.6929Y-13.2402
X10.6929Y-13.437
X10.6929Y-13.6732
X10.6929Y-13.8701
X10.6929Y-14.0669
X10.6929Y-14.2638
X10.6929Y-14.5
X10.6929Y-14.6969
X10.6929Y-14.8937
X10.6929Y-15.0906
X10.7087Y-10.9488
X10.7126Y-10.5394
X10.751Y-9.6737
X10.7756Y-12.1339
X10.7865Y-8.78
X10.8701Y-12.6004
X10.9803Y-8.6693
X10.9803Y-9.0315
X10.9803Y-9.3898
X11.0669Y-8.8858
X11.0669Y-9.2441
X11.1969Y-12.2717
X11.252Y-11.8976
X11.2913Y-13.4173
X11.2913Y-14.2441
X11.2913Y-15.0709
X11.5512Y-8.4724
X11.5512Y-8.6496
X11.5512Y-8.8268
X11.5512Y-9.0039
X11.5512Y-9.1811
X11.5512Y-9.3583
X11.5512Y-9.5354
X11.5512Y-9.7126
X12.0394Y-9.9409
X12.065Y-9.3529
X12.0728Y-8.4631
X12.0807Y-9.5497
X12.126Y-8.6693
X12.126Y-9.0315
X12.126Y-9.3937
T3
X4.5976Y-10.9843
X4.598Y-10.5118
X4.598Y-10.6299
X4.598Y-10.748
X4.598Y-10.8661
X4.8976Y-10.9843
X4.898Y-10.5118
X4.898Y-10.6299
X4.898Y-10.748
X4.898Y-10.8661
X5.0Y-10.4488
X5.0Y-10.6457
X5.311Y-10.4488
X5.311Y-10.6457
X5.4126Y-10.5118
X5.4126Y-10.6299
X5.4126Y-10.748
X5.4126Y-10.8661
X5.4126Y-10.9843
X5.7126Y-10.5118
X5.7126Y-10.6299
X5.7126Y-10.748
X5.7126Y-10.8661
X5.7126Y-10.9843
T4
X4.2047Y-8.4567
X4.2047Y-8.5567
X4.2047Y-8.6567
X4.2047Y-8.7567
X4.2047Y-8.8567
X4.2047Y-8.9567
X4.2047Y-9.0567
X4.2047Y-9.1567
X4.2047Y-9.7992
X4.2047Y-9.8992
X4.2047Y-9.9992
X4.2047Y-10.0992
X4.2047Y-10.1992
X4.2047Y-10.2992
X4.2047Y-10.3992
X4.2047Y-10.4992
X4.3047Y-8.4567
X4.3047Y-8.5567
X4.3047Y-8.6567
X4.3047Y-8.7567
X4.3047Y-8.8567
X4.3047Y-8.9567
X4.3047Y-9.0567
X4.3047Y-9.1567
X4.3047Y-9.7992
X4.3047Y-9.8992
X4.3047Y-9.9992
X4.3047Y-10.0992
X4.3047Y-10.1992
X4.3047Y-10.2992
X4.3047Y-10.3992
X4.3047Y-10.4992
X4.3307Y-13.4173
X4.3307Y-13.5173
X4.3307Y-13.6173
X4.3307Y-13.7173
X4.3307Y-13.8173
X4.3307Y-13.9173
X4.3307Y-14.0173
X4.3307Y-14.1173
X4.3307Y-14.2173
X4.3307Y-14.3173
X4.3307Y-14.4173
X4.3307Y-14.5173
X4.3307Y-14.6173
X4.3307Y-14.7173
X4.3307Y-14.8173
X4.3307Y-14.9173
X4.3307Y-15.0173
X4.3307Y-15.1173
X4.3307Y-15.2173
X4.3307Y-15.3173
X4.3307Y-15.4173
X5.1535Y-10.7677
X5.1535Y-10.9606
X5.2781Y-13.3888
X5.3575Y-11.2953
X5.3583Y-8.4803
X5.3583Y-9.9606
X5.4575Y-11.2953
X5.4583Y-8.4803
X5.4583Y-9.9606
X5.5575Y-11.2953
X5.5583Y-8.4803
X5.5583Y-9.9606
X5.6575Y-11.2953
X5.6583Y-8.4803
X5.6583Y-9.9606
X5.7575Y-11.2953
X5.7583Y-8.4803
X5.7583Y-9.9606
X5.8575Y-11.2953
X5.8583Y-8.4803
X5.8583Y-9.9606
X5.9575Y-11.2953
X5.9583Y-8.4803
X5.9583Y-9.9606
X6.0575Y-11.2953
X6.0583Y-8.4803
X6.0583Y-9.9606
X6.1575Y-11.2953
X6.1583Y-8.4803
X6.1583Y-9.9606
X6.2575Y-11.2953
X6.2583Y-8.4803
X6.2583Y-9.9606
X6.3575Y-11.2953
X6.3583Y-8.4803
X6.3583Y-9.9606
X6.4575Y-11.2953
X6.4583Y-8.4803
X6.4583Y-9.9606
X6.5575Y-11.2953
X6.5583Y-8.4803
X6.5583Y-9.9606
X6.6575Y-11.2953
X6.6583Y-8.4803
X6.6583Y-9.9606
X6.7575Y-11.2953
X6.7583Y-8.4803
X6.7583Y-9.9606
X6.8575Y-11.2953
X6.8583Y-8.4803
X6.8583Y-9.9606
X6.9575Y-11.2953
X6.9583Y-8.4803
X6.9583Y-9.9606
X7.0575Y-11.2953
X7.0583Y-8.4803
X7.0583Y-9.9606
X7.1575Y-11.2953
X7.1583Y-8.4803
X7.1583Y-9.9606
X7.2575Y-11.2953
X7.2583Y-8.4803
X7.2583Y-9.9606
X7.3575Y-11.2953
X7.3583Y-8.4803
X7.3583Y-9.9606
X8.4213Y-8.4803
X8.4213Y-9.9606
X8.5213Y-8.4803
X8.5213Y-9.9606
X8.6213Y-8.4803
X8.6213Y-9.9606
X8.7213Y-8.4803
X8.7213Y-9.9606
X8.8213Y-8.4803
X8.8213Y-9.9606
X8.9213Y-8.4803
X8.9213Y-9.9606
X9.0213Y-8.4803
X9.0213Y-9.9606
X9.1213Y-8.4803
X9.1213Y-9.9606
X9.2213Y-8.4803
X9.2213Y-9.9606
X9.3213Y-8.4803
X9.3213Y-9.9606
X9.4213Y-8.4803
X9.4213Y-9.9606
X9.5213Y-8.4803
X9.5213Y-9.9606
X9.6213Y-8.4803
X9.6213Y-9.9606
X9.7213Y-8.4803
X9.7213Y-9.9606
X9.8213Y-8.4803
X9.8213Y-9.9606
X9.9213Y-8.4803
X9.9213Y-9.9606
X10.0213Y-8.4803
X10.0213Y-9.9606
X10.1213Y-8.4803
X10.1213Y-9.9606
X10.2213Y-8.4803
X10.2213Y-9.9606
X10.3213Y-8.4803
X10.3213Y-9.9606
X10.4213Y-8.4803
X10.4213Y-9.9606
X12.3346Y-8.2323
X12.3346Y-8.3323
X12.3346Y-8.4323
X12.3346Y-8.5323
X12.3346Y-8.6323
X12.3346Y-8.7323
X12.3346Y-8.8323
X12.3346Y-8.9323
X12.3346Y-14.5827
X12.3346Y-14.6827
X12.3346Y-14.7827
X12.3346Y-14.8827
X12.3346Y-14.9827
X12.3346Y-15.0827
X12.3346Y-15.1827
X12.3346Y-15.2827
X12.3362Y-9.4921
X12.3362Y-9.5921
X12.3362Y-9.6921
X12.3362Y-9.7921
X12.3362Y-9.8921
X12.3362Y-9.9921
X12.3362Y-10.0921
X12.3362Y-10.1921
X12.4346Y-8.2323
X12.4346Y-8.3323
X12.4346Y-8.4323
X12.4346Y-8.5323
X12.4346Y-8.6323
X12.4346Y-8.7323
X12.4346Y-8.8323
X12.4346Y-8.9323
X12.4346Y-14.5827
X12.4346Y-14.6827
X12.4346Y-14.7827
X12.4346Y-14.8827
X12.4346Y-14.9827
X12.4346Y-15.0827
X12.4346Y-15.1827
X12.4346Y-15.2827
X12.4362Y-9.4921
X12.4362Y-9.5921
X12.4362Y-9.6921
X12.4362Y-9.7921
X12.4362Y-9.8921
X12.4362Y-9.9921
X12.4362Y-10.0921
X12.4362Y-10.1921
M30
