%TF.GenerationSoftware,KiCad,Pcbnew,9.0.7*%
%TF.CreationDate,2026-03-30T23:53:44+02:00*%
%TF.ProjectId,Level_shifter_FPGA_V1.0,4c657665-6c5f-4736-9869-667465725f46,rev?*%
%TF.SameCoordinates,Original*%
%TF.FileFunction,Copper,L6,Bot*%
%TF.FilePolarity,Positive*%
%FSLAX46Y46*%
G04 Gerber Fmt 4.6, Leading zero omitted, Abs format (unit mm)*
G04 Created by KiCad (PCBNEW 9.0.7) date 2026-03-30 23:53:44*
%MOMM*%
%LPD*%
G01*
G04 APERTURE LIST*
%TA.AperFunction,ComponentPad*%
%ADD10R,1.700000X1.700000*%
%TD*%
%TA.AperFunction,ComponentPad*%
%ADD11C,1.700000*%
%TD*%
%TA.AperFunction,ViaPad*%
%ADD12C,1.000000*%
%TD*%
%TA.AperFunction,ViaPad*%
%ADD13C,0.600000*%
%TD*%
%TA.AperFunction,Conductor*%
%ADD14C,1.000000*%
%TD*%
%TA.AperFunction,Conductor*%
%ADD15C,0.400000*%
%TD*%
%TA.AperFunction,Conductor*%
%ADD16C,0.200000*%
%TD*%
G04 APERTURE END LIST*
D10*
%TO.P,J5,1,Pin_1*%
%TO.N,VCC*%
X173450500Y-51550500D03*
D11*
%TO.P,J5,2,Pin_2*%
%TO.N,GND*%
X175990500Y-51550500D03*
%TD*%
D10*
%TO.P,J4,1,Pin_1*%
%TO.N,GND*%
X179400000Y-83540000D03*
D11*
%TO.P,J4,2,Pin_2*%
%TO.N,3.3V*%
X181940000Y-83540000D03*
%TO.P,J4,3,Pin_3*%
%TO.N,GND*%
X179400000Y-81000000D03*
%TO.P,J4,4,Pin_4*%
%TO.N,5V*%
X181940000Y-81000000D03*
%TO.P,J4,5,Pin_5*%
%TO.N,GND*%
X179400000Y-78460000D03*
%TO.P,J4,6,Pin_6*%
%TO.N,VCC*%
X181940000Y-78460000D03*
%TD*%
D10*
%TO.P,J3,1,Pin_1*%
%TO.N,Net-(J2-Pin_39)*%
X161400000Y-96060000D03*
D11*
%TO.P,J3,2,Pin_2*%
%TO.N,Net-(J2-Pin_40)*%
X161400000Y-98600000D03*
%TO.P,J3,3,Pin_3*%
%TO.N,Net-(J2-Pin_37)*%
X163940000Y-96060000D03*
%TO.P,J3,4,Pin_4*%
%TO.N,Net-(J2-Pin_38)*%
X163940000Y-98600000D03*
%TO.P,J3,5,Pin_5*%
%TO.N,Net-(J2-Pin_35)*%
X166480000Y-96060000D03*
%TO.P,J3,6,Pin_6*%
%TO.N,Net-(J2-Pin_36)*%
X166480000Y-98600000D03*
%TO.P,J3,7,Pin_7*%
%TO.N,Net-(J2-Pin_1)*%
X169020000Y-96060000D03*
%TO.P,J3,8,Pin_8*%
%TO.N,Net-(J2-Pin_34)*%
X169020000Y-98600000D03*
%TO.P,J3,9,Pin_9*%
%TO.N,GND*%
X171560000Y-96060000D03*
%TO.P,J3,10,Pin_10*%
%TO.N,Net-(J2-Pin_2)*%
X171560000Y-98600000D03*
%TD*%
D10*
%TO.P,J1,1,Pin_1*%
%TO.N,A7*%
X112400000Y-40060000D03*
D11*
%TO.P,J1,2,Pin_2*%
%TO.N,A15*%
X112400000Y-42600000D03*
%TO.P,J1,3,Pin_3*%
%TO.N,A6*%
X114940000Y-40060000D03*
%TO.P,J1,4,Pin_4*%
%TO.N,A14*%
X114940000Y-42600000D03*
%TO.P,J1,5,Pin_5*%
%TO.N,A5*%
X117480000Y-40060000D03*
%TO.P,J1,6,Pin_6*%
%TO.N,A13*%
X117480000Y-42600000D03*
%TO.P,J1,7,Pin_7*%
%TO.N,A4*%
X120020000Y-40060000D03*
%TO.P,J1,8,Pin_8*%
%TO.N,A12*%
X120020000Y-42600000D03*
%TO.P,J1,9,Pin_9*%
%TO.N,A3*%
X122560000Y-40060000D03*
%TO.P,J1,10,Pin_10*%
%TO.N,A11*%
X122560000Y-42600000D03*
%TO.P,J1,11,Pin_11*%
%TO.N,A2*%
X125100000Y-40060000D03*
%TO.P,J1,12,Pin_12*%
%TO.N,A10*%
X125100000Y-42600000D03*
%TO.P,J1,13,Pin_13*%
%TO.N,A1*%
X127640000Y-40060000D03*
%TO.P,J1,14,Pin_14*%
%TO.N,A9*%
X127640000Y-42600000D03*
%TO.P,J1,15,Pin_15*%
%TO.N,A0*%
X130180000Y-40060000D03*
%TO.P,J1,16,Pin_16*%
%TO.N,A8*%
X130180000Y-42600000D03*
%TD*%
D10*
%TO.P,J6,1,Pin_1*%
%TO.N,VCC*%
X102975000Y-42150000D03*
D11*
%TO.P,J6,2,Pin_2*%
%TO.N,GND*%
X102975000Y-39610000D03*
%TD*%
D10*
%TO.P,J8,1,Pin_1*%
%TO.N,Buss0*%
X146500000Y-40060000D03*
D11*
%TO.P,J8,2,Pin_2*%
%TO.N,VCC*%
X146500000Y-42600000D03*
%TO.P,J8,3,Pin_3*%
%TO.N,Buss1*%
X149040000Y-40060000D03*
%TO.P,J8,4,Pin_4*%
%TO.N,GND*%
X149040000Y-42600000D03*
%TO.P,J8,5,Pin_5*%
%TO.N,Buss2*%
X151580000Y-40060000D03*
%TO.P,J8,6,Pin_6*%
%TO.N,CLK*%
X151580000Y-42600000D03*
%TO.P,J8,7,Pin_7*%
%TO.N,Buss3*%
X154120000Y-40060000D03*
%TO.P,J8,8,Pin_8*%
%TO.N,RST*%
X154120000Y-42600000D03*
%TO.P,J8,9,Pin_9*%
%TO.N,Buss4*%
X156660000Y-40060000D03*
%TO.P,J8,10,Pin_10*%
%TO.N,GND*%
X156660000Y-42600000D03*
%TO.P,J8,11,Pin_11*%
%TO.N,Buss5*%
X159200000Y-40060000D03*
%TO.P,J8,12,Pin_12*%
%TO.N,R{slash}W*%
X159200000Y-42600000D03*
%TO.P,J8,13,Pin_13*%
%TO.N,Buss6*%
X161740000Y-40060000D03*
%TO.P,J8,14,Pin_14*%
%TO.N,GND*%
X161740000Y-42600000D03*
%TO.P,J8,15,Pin_15*%
%TO.N,Buss7*%
X164280000Y-40060000D03*
%TO.P,J8,16,Pin_16*%
%TO.N,VCC*%
X164280000Y-42600000D03*
%TD*%
D10*
%TO.P,J7,1,Pin_1*%
%TO.N,VCC*%
X170350000Y-73125000D03*
D11*
%TO.P,J7,2,Pin_2*%
%TO.N,GND*%
X167810000Y-73125000D03*
%TD*%
D10*
%TO.P,J2,1,Pin_1*%
%TO.N,Net-(J2-Pin_1)*%
X109400000Y-96060000D03*
D11*
%TO.P,J2,2,Pin_2*%
%TO.N,Net-(J2-Pin_2)*%
X109400000Y-98600000D03*
%TO.P,J2,3,Pin_3*%
%TO.N,Net-(J2-Pin_3)*%
X111940000Y-96060000D03*
%TO.P,J2,4,Pin_4*%
%TO.N,Net-(J2-Pin_4)*%
X111940000Y-98600000D03*
%TO.P,J2,5,Pin_5*%
%TO.N,Net-(J2-Pin_5)*%
X114480000Y-96060000D03*
%TO.P,J2,6,Pin_6*%
%TO.N,Net-(J2-Pin_6)*%
X114480000Y-98600000D03*
%TO.P,J2,7,Pin_7*%
%TO.N,Net-(J2-Pin_7)*%
X117020000Y-96060000D03*
%TO.P,J2,8,Pin_8*%
%TO.N,Net-(J2-Pin_8)*%
X117020000Y-98600000D03*
%TO.P,J2,9,Pin_9*%
%TO.N,Net-(J2-Pin_9)*%
X119560000Y-96060000D03*
%TO.P,J2,10,Pin_10*%
%TO.N,Net-(J2-Pin_10)*%
X119560000Y-98600000D03*
%TO.P,J2,11,Pin_11*%
%TO.N,3.3V*%
X122100000Y-96060000D03*
%TO.P,J2,12,Pin_12*%
%TO.N,GND*%
X122100000Y-98600000D03*
%TO.P,J2,13,Pin_13*%
%TO.N,ADR1*%
X124640000Y-96060000D03*
%TO.P,J2,14,Pin_14*%
%TO.N,ADR0*%
X124640000Y-98600000D03*
%TO.P,J2,15,Pin_15*%
%TO.N,ADR3*%
X127180000Y-96060000D03*
%TO.P,J2,16,Pin_16*%
%TO.N,ADR2*%
X127180000Y-98600000D03*
%TO.P,J2,17,Pin_17*%
%TO.N,ADR5*%
X129720000Y-96060000D03*
%TO.P,J2,18,Pin_18*%
%TO.N,ADR4*%
X129720000Y-98600000D03*
%TO.P,J2,19,Pin_19*%
%TO.N,ADR7*%
X132260000Y-96060000D03*
%TO.P,J2,20,Pin_20*%
%TO.N,ADR6*%
X132260000Y-98600000D03*
%TO.P,J2,21,Pin_21*%
%TO.N,ADR9*%
X134800000Y-96060000D03*
%TO.P,J2,22,Pin_22*%
%TO.N,ADR8*%
X134800000Y-98600000D03*
%TO.P,J2,23,Pin_23*%
%TO.N,ADR11*%
X137340000Y-96060000D03*
%TO.P,J2,24,Pin_24*%
%TO.N,ADR10*%
X137340000Y-98600000D03*
%TO.P,J2,25,Pin_25*%
%TO.N,ADR13*%
X139880000Y-96060000D03*
%TO.P,J2,26,Pin_26*%
%TO.N,ADR12*%
X139880000Y-98600000D03*
%TO.P,J2,27,Pin_27*%
%TO.N,ADR15*%
X142420000Y-96060000D03*
%TO.P,J2,28,Pin_28*%
%TO.N,ADR14*%
X142420000Y-98600000D03*
%TO.P,J2,29,Pin_29*%
%TO.N,5V*%
X144960000Y-96060000D03*
%TO.P,J2,30,Pin_30*%
%TO.N,GND*%
X144960000Y-98600000D03*
%TO.P,J2,31,Pin_31*%
%TO.N,RW L*%
X147500000Y-96060000D03*
%TO.P,J2,32,Pin_32*%
%TO.N,CLK L*%
X147500000Y-98600000D03*
%TO.P,J2,33,Pin_33*%
%TO.N,RST L*%
X150040000Y-96060000D03*
%TO.P,J2,34,Pin_34*%
%TO.N,Net-(J2-Pin_34)*%
X150040000Y-98600000D03*
%TO.P,J2,35,Pin_35*%
%TO.N,Net-(J2-Pin_35)*%
X152580000Y-96060000D03*
%TO.P,J2,36,Pin_36*%
%TO.N,Net-(J2-Pin_36)*%
X152580000Y-98600000D03*
%TO.P,J2,37,Pin_37*%
%TO.N,Net-(J2-Pin_37)*%
X155120000Y-96060000D03*
%TO.P,J2,38,Pin_38*%
%TO.N,Net-(J2-Pin_38)*%
X155120000Y-98600000D03*
%TO.P,J2,39,Pin_39*%
%TO.N,Net-(J2-Pin_39)*%
X157660000Y-96060000D03*
%TO.P,J2,40,Pin_40*%
%TO.N,Net-(J2-Pin_40)*%
X157660000Y-98600000D03*
%TD*%
D12*
%TO.N,GND*%
X157700000Y-109700000D03*
X169100000Y-109800000D03*
X180400000Y-40500000D03*
%TO.N,D0*%
X111840000Y-109960000D03*
%TO.N,D2*%
X114490000Y-110010000D03*
%TO.N,D4*%
X116940000Y-109960000D03*
%TO.N,D6*%
X119590000Y-110010000D03*
%TO.N,D1*%
X112000000Y-84800000D03*
%TO.N,D7*%
X119600000Y-84800000D03*
%TO.N,D5*%
X117000000Y-84780000D03*
%TO.N,D3*%
X114500000Y-84800000D03*
%TO.N,GND*%
X153900000Y-51500000D03*
%TO.N,CLK*%
X151500000Y-53100000D03*
%TO.N,5V*%
X155300000Y-93200000D03*
X162800000Y-93200000D03*
X158700000Y-93200000D03*
X144000000Y-102600000D03*
%TO.N,GND*%
X148300000Y-58200000D03*
D13*
X109337500Y-55312500D03*
X129037500Y-76312500D03*
X101937500Y-76312500D03*
D12*
X161350000Y-82000000D03*
D13*
X133537500Y-76312500D03*
D12*
X153400450Y-48462500D03*
D13*
X118337500Y-55312500D03*
X115537500Y-76312500D03*
X131937500Y-55312500D03*
X105600000Y-45900000D03*
D12*
X152500000Y-57799000D03*
X173350000Y-82000000D03*
X145350000Y-82000000D03*
X121637500Y-65812500D03*
X160060000Y-50500000D03*
X169350000Y-82000000D03*
X153350000Y-82000000D03*
D13*
X136437500Y-55312500D03*
D12*
X157350000Y-82000000D03*
X130537500Y-65812500D03*
X135037500Y-65812500D03*
X160700000Y-57900000D03*
X112537500Y-65812500D03*
X149350000Y-82000000D03*
X126037500Y-65812500D03*
X144000000Y-58300000D03*
X165311000Y-50500000D03*
D13*
X111037500Y-76312500D03*
D12*
X117037500Y-65812500D03*
D13*
X113937500Y-55312500D03*
X124537500Y-76312500D03*
D12*
X104400000Y-89800000D03*
X108037500Y-65812500D03*
X168600000Y-57800000D03*
X172600000Y-57799000D03*
X165350000Y-82000000D03*
X163600000Y-67800000D03*
X156600000Y-57900000D03*
D13*
X120037500Y-76312500D03*
X122937500Y-55312500D03*
D12*
X103537500Y-65812500D03*
D13*
X104937500Y-55312500D03*
X127337500Y-55312500D03*
X106537500Y-76312500D03*
D12*
X104100000Y-105350000D03*
%TO.N,VCC*%
X102100000Y-105450000D03*
D13*
X162800000Y-49600000D03*
D12*
X119237500Y-79711000D03*
X105637500Y-79711000D03*
X105837500Y-51789000D03*
X132837500Y-79711000D03*
X119237500Y-51789000D03*
X132937500Y-51789000D03*
X180400000Y-48300000D03*
X101800000Y-90000000D03*
%TO.N,RW L*%
X163710000Y-54400000D03*
%TO.N,CLK L*%
X158810000Y-49600000D03*
%TO.N,5V*%
X161700000Y-109700000D03*
%TO.N,3.3V*%
X149500000Y-109700000D03*
%TO.N,RST L*%
X158710000Y-46900000D03*
D13*
%TO.N,A14*%
X147300000Y-76500000D03*
%TO.N,A10*%
X155300000Y-76500000D03*
%TO.N,A4*%
X167300000Y-76600000D03*
%TO.N,A12*%
X151300000Y-76500000D03*
%TO.N,A2*%
X171300000Y-76500000D03*
%TO.N,A13*%
X171300000Y-57600000D03*
%TO.N,A6*%
X163300000Y-76600000D03*
%TO.N,A15*%
X175300000Y-57600000D03*
%TO.N,A9*%
X163300000Y-57600000D03*
%TO.N,A11*%
X167300000Y-57600000D03*
%TO.N,A5*%
X155300000Y-57600000D03*
%TO.N,A8*%
X159300000Y-76500000D03*
%TO.N,A1*%
X148300000Y-62200000D03*
%TO.N,A7*%
X159300000Y-57600000D03*
%TO.N,A3*%
X151300000Y-57600000D03*
%TO.N,A0*%
X175300000Y-76500000D03*
%TO.N,Buss3*%
X118600000Y-60500000D03*
X105758479Y-39895933D03*
%TO.N,R{slash}W*%
X110977000Y-61300000D03*
X115477000Y-61300000D03*
X133500000Y-61300000D03*
X128977000Y-61300000D03*
X124600000Y-61300000D03*
X119977000Y-61300000D03*
X102000000Y-61300000D03*
X106600000Y-61300000D03*
%TO.N,Buss7*%
X136400000Y-60600000D03*
X105800000Y-36300000D03*
%TO.N,Buss0*%
X105100000Y-60600000D03*
%TO.N,Buss2*%
X105763516Y-40739425D03*
X114100000Y-60500000D03*
%TO.N,Buss6*%
X132200000Y-60400000D03*
X105800000Y-37200000D03*
D12*
%TO.N,RST*%
X162999000Y-51100000D03*
D13*
%TO.N,Buss1*%
X105775735Y-41575735D03*
X109600000Y-60500000D03*
%TO.N,Buss5*%
X127700000Y-60500000D03*
X105800000Y-38100000D03*
%TO.N,Buss4*%
X123200000Y-60500000D03*
X105761051Y-39044832D03*
%TO.N,D0*%
X106000000Y-70000000D03*
%TO.N,D1*%
X110377000Y-70000000D03*
%TO.N,D2*%
X114877000Y-70000000D03*
%TO.N,D3*%
X119377000Y-70000000D03*
%TO.N,D4*%
X124000000Y-70000000D03*
%TO.N,D5*%
X128377000Y-70000000D03*
%TO.N,D6*%
X132900000Y-70000000D03*
%TO.N,D7*%
X137377000Y-70000000D03*
%TO.N,Net-(Q17-G)*%
X106400000Y-74300000D03*
X124500000Y-74300000D03*
X133600000Y-74300000D03*
X111000000Y-74300000D03*
X120000000Y-74300000D03*
X115500000Y-74300000D03*
X102000000Y-74300000D03*
X129000000Y-74300000D03*
%TD*%
D14*
%TO.N,5V*%
X158700000Y-93200000D02*
X147820000Y-93200000D01*
X147820000Y-93200000D02*
X144960000Y-96060000D01*
D15*
X144960000Y-96260000D02*
X144960000Y-96060000D01*
X146211000Y-97511000D02*
X144960000Y-96260000D01*
X146211000Y-100389000D02*
X146211000Y-97511000D01*
X144000000Y-102600000D02*
X146211000Y-100389000D01*
X143700000Y-97320000D02*
X144960000Y-96060000D01*
X143700000Y-102300000D02*
X143700000Y-97320000D01*
X144000000Y-102600000D02*
X143700000Y-102300000D01*
D16*
%TO.N,A14*%
X114940000Y-47940000D02*
X114940000Y-42600000D01*
X137100000Y-54600000D02*
X132600000Y-50100000D01*
X147300000Y-76500000D02*
X137100000Y-66300000D01*
X137100000Y-66300000D02*
X137100000Y-54600000D01*
X117100000Y-50100000D02*
X114940000Y-47940000D01*
X132600000Y-50100000D02*
X117100000Y-50100000D01*
%TO.N,A10*%
X137902000Y-65967800D02*
X137902000Y-54267800D01*
X125100000Y-47532900D02*
X125100000Y-42600000D01*
X137902000Y-54267800D02*
X132932200Y-49298000D01*
X155300000Y-76500000D02*
X153599000Y-74799000D01*
X153599000Y-74799000D02*
X146733200Y-74799000D01*
X132932200Y-49298000D02*
X126865100Y-49298000D01*
X146733200Y-74799000D02*
X137902000Y-65967800D01*
X126865100Y-49298000D02*
X125100000Y-47532900D01*
%TO.N,A4*%
X134002000Y-40369100D02*
X134002000Y-48099400D01*
X167300000Y-76600000D02*
X166699000Y-77201000D01*
X166699000Y-77201000D02*
X163051057Y-77201000D01*
X132031900Y-38399000D02*
X121681000Y-38399000D01*
X159045058Y-73195000D02*
X147397600Y-73195000D01*
X139506000Y-53603400D02*
X134002000Y-48099400D01*
X147397600Y-73195000D02*
X139506000Y-65303400D01*
X139506000Y-65303400D02*
X139506000Y-53603400D01*
X163051057Y-77201000D02*
X159045058Y-73195000D01*
X134002000Y-40369100D02*
X132031900Y-38399000D01*
X121681000Y-38399000D02*
X120020000Y-40060000D01*
%TO.N,A12*%
X137501000Y-66133900D02*
X137501000Y-54433900D01*
X151300000Y-76500000D02*
X150000000Y-75200000D01*
X132766100Y-49699000D02*
X122099000Y-49699000D01*
X122099000Y-49699000D02*
X120020000Y-47620000D01*
X120020000Y-47620000D02*
X120020000Y-42600000D01*
X146567100Y-75200000D02*
X137501000Y-66133900D01*
X150000000Y-75200000D02*
X146567100Y-75200000D01*
X137501000Y-54433900D02*
X132766100Y-49699000D01*
%TO.N,A2*%
X126360000Y-38800000D02*
X125100000Y-40060000D01*
X171300000Y-76500000D02*
X170198000Y-77602000D01*
X158878958Y-73596000D02*
X147231500Y-73596000D01*
X139105000Y-65469500D02*
X139105000Y-53769500D01*
X162884957Y-77602000D02*
X158878958Y-73596000D01*
X133601000Y-40535200D02*
X131865800Y-38800000D01*
X131865800Y-38800000D02*
X126360000Y-38800000D01*
X147231500Y-73596000D02*
X139105000Y-65469500D01*
X170198000Y-77602000D02*
X162884957Y-77602000D01*
X139105000Y-53769500D02*
X133601000Y-48265500D01*
X133601000Y-48265500D02*
X133601000Y-40535200D01*
%TO.N,A6*%
X139907000Y-65137300D02*
X139907000Y-53437300D01*
X163300000Y-76600000D02*
X159494000Y-72794000D01*
X147563700Y-72794000D02*
X139907000Y-65137300D01*
X159494000Y-72794000D02*
X147563700Y-72794000D01*
X116900000Y-38100000D02*
X114940000Y-40060000D01*
X139907000Y-53437300D02*
X134403000Y-47933300D01*
X132198000Y-37998000D02*
X121514900Y-37998000D01*
X121412900Y-38100000D02*
X116900000Y-38100000D01*
X134403000Y-47933300D02*
X134403000Y-40203000D01*
X121514900Y-37998000D02*
X121412900Y-38100000D01*
X134403000Y-40203000D02*
X132198000Y-37998000D01*
%TO.N,A8*%
X131397000Y-48897000D02*
X130180000Y-47680000D01*
X146899300Y-74398000D02*
X138303000Y-65801700D01*
X130180000Y-47680000D02*
X130180000Y-42600000D01*
X159300000Y-76500000D02*
X157198000Y-74398000D01*
X138303000Y-54101700D02*
X133098300Y-48897000D01*
X138303000Y-65801700D02*
X138303000Y-54101700D01*
X157198000Y-74398000D02*
X146899300Y-74398000D01*
X133098300Y-48897000D02*
X131397000Y-48897000D01*
%TO.N,A0*%
X173797000Y-78003000D02*
X162718857Y-78003000D01*
X133200000Y-43080000D02*
X130180000Y-40060000D01*
X138704000Y-65635600D02*
X138704000Y-53935600D01*
X133200000Y-43080000D02*
X133200000Y-48431600D01*
X138704000Y-53935600D02*
X133200000Y-48431600D01*
X162718857Y-78003000D02*
X158712858Y-73997000D01*
X158712858Y-73997000D02*
X147065400Y-73997000D01*
X175300000Y-76500000D02*
X173797000Y-78003000D01*
X147065400Y-73997000D02*
X138704000Y-65635600D01*
%TO.N,Buss3*%
X118600000Y-60500000D02*
X118200000Y-60500000D01*
X118200000Y-60500000D02*
X107600000Y-49900000D01*
X107600000Y-41725966D02*
X105769967Y-39895933D01*
X105769967Y-39895933D02*
X105758479Y-39895933D01*
X107600000Y-49900000D02*
X107600000Y-41725966D01*
%TO.N,R{slash}W*%
X133500000Y-61300000D02*
X106600000Y-61300000D01*
X106600000Y-61300000D02*
X102000000Y-61300000D01*
%TO.N,Buss7*%
X136375057Y-60600000D02*
X126275056Y-50500000D01*
X110468400Y-50500000D02*
X109204000Y-49235600D01*
X126275056Y-50500000D02*
X110468400Y-50500000D01*
X109204000Y-49235600D02*
X109204000Y-39704000D01*
X136400000Y-60600000D02*
X136375057Y-60600000D01*
X109204000Y-39704000D02*
X105800000Y-36300000D01*
%TO.N,Buss2*%
X109938500Y-54338500D02*
X109938500Y-56338500D01*
X109938500Y-56338500D02*
X114100000Y-60500000D01*
X107200000Y-51600000D02*
X109938500Y-54338500D01*
X105839425Y-40739425D02*
X107200000Y-42100000D01*
X105763516Y-40739425D02*
X105839425Y-40739425D01*
X107200000Y-51600000D02*
X107200000Y-42100000D01*
%TO.N,Buss6*%
X119481286Y-50900000D02*
X110301300Y-50900000D01*
X128981286Y-60400000D02*
X119481286Y-50900000D01*
X108803000Y-49401700D02*
X108803000Y-40203000D01*
X132200000Y-60400000D02*
X128981286Y-60400000D01*
X110301300Y-50900000D02*
X108803000Y-49401700D01*
X108803000Y-40203000D02*
X105800000Y-37200000D01*
%TO.N,Buss1*%
X106800000Y-57700000D02*
X109600000Y-60500000D01*
X106800000Y-42600000D02*
X106800000Y-57700000D01*
X105775735Y-41575735D02*
X106800000Y-42600000D01*
%TO.N,Buss5*%
X105800000Y-38100000D02*
X108402000Y-40702000D01*
X117611529Y-51411529D02*
X126700000Y-60500000D01*
X110245729Y-51411529D02*
X117611529Y-51411529D01*
X108402000Y-40702000D02*
X108402000Y-49567800D01*
X108402000Y-49567800D02*
X110245729Y-51411529D01*
X126700000Y-60500000D02*
X127700000Y-60500000D01*
%TO.N,Buss4*%
X123200000Y-59325057D02*
X115687471Y-51812529D01*
X123200000Y-60500000D02*
X123200000Y-59325057D01*
X108001000Y-49733900D02*
X108001000Y-41284781D01*
X110079629Y-51812529D02*
X108001000Y-49733900D01*
X108001000Y-41284781D02*
X105761051Y-39044832D01*
X115687471Y-51812529D02*
X110079629Y-51812529D01*
D15*
%TO.N,Net-(J2-Pin_2)*%
X111700000Y-104100000D02*
X109400000Y-101800000D01*
X109400000Y-101800000D02*
X109400000Y-98600000D01*
X166060000Y-104100000D02*
X111700000Y-104100000D01*
X171560000Y-98600000D02*
X166060000Y-104100000D01*
%TO.N,Net-(J2-Pin_1)*%
X169020000Y-96060000D02*
X163660000Y-90700000D01*
X109400000Y-92800000D02*
X109400000Y-96060000D01*
X163660000Y-90700000D02*
X111500000Y-90700000D01*
X111500000Y-90700000D02*
X109400000Y-92800000D01*
D16*
%TO.N,Net-(Q17-G)*%
X124500000Y-74300000D02*
X120000000Y-74300000D01*
X129000000Y-74300000D02*
X124500000Y-74300000D01*
X133600000Y-74300000D02*
X129000000Y-74300000D01*
X111000000Y-74300000D02*
X106400000Y-74300000D01*
X106400000Y-74300000D02*
X102000000Y-74300000D01*
X115500000Y-74300000D02*
X111000000Y-74300000D01*
X120000000Y-74300000D02*
X115500000Y-74300000D01*
%TD*%
M02*
