M48
; DRILL file {KiCad 9.0.7} date 2026-03-28T17:24:32+0100
; FORMAT={-:-/ absolute / inch / decimal}
; #@! TF.CreationDate,2026-03-28T17:24:32+01:00
; #@! TF.GenerationSoftware,Kicad,Pcbnew,9.0.7
; #@! TF.FileFunction,Plated,1,6,PTH
FMAT,2
INCH
; #@! TA.AperFunction,Plated,PTH,ViaDrill
T1C0.0118
; #@! TA.AperFunction,Plated,PTH,ViaDrill
T2C0.0197
; #@! TA.AperFunction,Plated,PTH,ComponentDrill
T3C0.0276
; #@! TA.AperFunction,Plated,PTH,ComponentDrill
T4C0.0354
; #@! TA.AperFunction,Plated,PTH,ComponentDrill
T5C0.0394
%
G90
G05
T1
X2.1181Y-4.9882
X2.1181Y-5.1457
X2.122Y-4.3583
X2.122Y-4.5157
X2.122Y-4.6732
X2.122Y-4.8307
X2.122Y-5.3031
X2.122Y-5.4606
X2.1294Y-2.5723
X2.1294Y-2.7534
X2.1294Y-2.9306
X2.1294Y-3.1078
X2.1294Y-3.2849
X2.1294Y-3.4621
X2.1294Y-3.6393
X2.1294Y-3.8164
X2.2087Y-2.5748
X2.2087Y-2.748
X2.2087Y-2.9291
X2.2087Y-3.1063
X2.2087Y-3.2835
X2.2087Y-3.4606
X2.2087Y-3.6378
X2.2087Y-3.8189
X2.378Y-2.7323
X2.378Y-2.9046
X2.378Y-3.0818
X2.378Y-3.2589
X2.378Y-3.4409
X2.378Y-3.6133
X2.378Y-3.7913
X2.378Y-3.9676
X2.685Y-4.3976
X2.7205Y-2.5748
X2.7205Y-2.7559
X2.7205Y-2.9282
X2.7205Y-3.1054
X2.7205Y-3.2826
X2.7205Y-3.4646
X2.7205Y-3.6369
X2.7205Y-3.815
X2.748Y-2.6969
X2.748Y-3.9291
X2.752Y-2.874
X2.752Y-3.0512
X2.752Y-3.2283
X2.752Y-3.4094
X2.752Y-3.5866
X2.7559Y-3.7638
X2.8661Y-4.5157
X2.8661Y-4.6732
X2.8661Y-4.8307
X2.8661Y-4.9882
X2.8661Y-5.1457
X2.8661Y-5.3031
X2.8661Y-5.4606
X2.9562Y-2.6905
X2.9562Y-2.8637
X2.9562Y-3.0448
X2.9562Y-3.218
X2.9562Y-3.3991
X2.9562Y-3.5723
X2.9562Y-3.7534
X2.9562Y-3.9306
X3.1811Y-4.9685
X3.3268Y-2.7165
X3.497Y-2.7235
X3.5299Y-2.723
X3.5632Y-2.7228
X3.5967Y-2.7229
X3.6339Y-2.7244
X3.6693Y-2.7244
X3.7047Y-2.7244
T2
X0.9823Y-2.5787
X0.9862Y-2.6575
X1.1169Y-5.7008
X1.6594Y-2.5787
X1.6634Y-2.6614
X1.9055Y-4.2815
X1.9055Y-4.439
X1.9055Y-4.5965
X1.9055Y-4.7539
X1.9055Y-4.9114
X1.9055Y-5.0689
X1.9055Y-5.2264
X1.9055Y-5.3839
X1.9956Y-2.718
X1.9956Y-3.2534
X1.9956Y-3.7889
X2.4646Y-5.0
X2.5428Y-2.6353
X2.5428Y-2.8125
X2.5428Y-2.9897
X2.5428Y-3.1668
X2.5428Y-3.3479
X2.5428Y-3.5212
X2.5428Y-3.6983
X2.5428Y-3.8755
X2.8386Y-4.2283
X2.8425Y-4.3976
X2.8543Y-4.7244
X2.8543Y-4.8858
X2.8583Y-5.1969
X2.8583Y-4.563
X2.8583Y-5.3543
X2.9921Y-5.0043
X3.0949Y-2.7259
X3.0949Y-3.2534
X3.0949Y-3.7928
X3.122Y-4.9763
X3.1457Y-4.8606
X3.1457Y-5.0674
X3.1811Y-4.8114
X3.2259Y-4.5984
X3.2874Y-4.8075
T3
X0.8024Y-2.9646
X0.8024Y-3.0669
X0.8024Y-3.1654
X0.8024Y-3.2677
X1.1024Y-2.9646
X1.1024Y-3.0669
X1.1024Y-3.1654
X1.1024Y-3.2677
X1.4961Y-2.9646
X1.4961Y-3.0669
X1.4961Y-3.1654
X1.4961Y-3.2677
X1.7961Y-2.9646
X1.7961Y-3.0669
X1.7961Y-3.1654
X1.7961Y-3.2677
X3.0669Y-4.2874
X3.0669Y-4.5874
X3.1535Y-4.2874
X3.1535Y-4.5874
T4
X1.2728Y-5.6654
X1.3728Y-5.6654
T5
X1.252Y-2.8661
X1.252Y-2.9661
X1.252Y-3.0661
X1.252Y-3.1661
X1.252Y-3.2661
X1.252Y-3.3661
X1.252Y-3.4661
X1.252Y-3.5661
X1.252Y-3.6661
X1.252Y-3.7661
X1.252Y-3.8661
X1.252Y-3.9661
X1.252Y-4.0661
X1.252Y-4.1661
X1.252Y-4.2661
X1.252Y-4.3661
X1.252Y-4.4661
X1.252Y-4.5661
X1.252Y-4.6661
X1.252Y-4.7661
X1.252Y-4.9134
X1.252Y-5.0134
X1.252Y-5.1134
X1.252Y-5.2134
X1.252Y-5.3134
X1.352Y-2.8661
X1.352Y-2.9661
X1.352Y-3.0661
X1.352Y-3.1661
X1.352Y-3.2661
X1.352Y-3.3661
X1.352Y-3.4661
X1.352Y-3.5661
X1.352Y-3.6661
X1.352Y-3.7661
X1.352Y-3.8661
X1.352Y-3.9661
X1.352Y-4.0661
X1.352Y-4.1661
X1.352Y-4.2661
X1.352Y-4.3661
X1.352Y-4.4661
X1.352Y-4.5661
X1.352Y-4.6661
X1.352Y-4.7661
X1.352Y-4.9134
X1.352Y-5.0134
X1.352Y-5.1134
X1.352Y-5.2134
X1.352Y-5.3134
X1.8449Y-5.622
X1.8449Y-5.722
X1.9449Y-5.622
X1.9449Y-5.722
X2.0449Y-5.622
X2.0449Y-5.722
X3.1043Y-5.3878
X3.1043Y-5.4878
X3.2854Y-5.3878
X3.2854Y-5.4878
X3.4567Y-2.9843
X3.4567Y-3.0843
X3.4567Y-3.1843
X3.4567Y-3.2843
X3.4567Y-3.3843
X3.4567Y-3.4843
X3.4567Y-3.5843
X3.4567Y-3.6843
X3.4567Y-4.3268
X3.4567Y-4.4268
X3.4567Y-4.5268
X3.4567Y-4.6268
X3.4567Y-4.7268
X3.4567Y-4.8268
X3.4567Y-4.9268
X3.4567Y-5.0268
X3.4665Y-5.3878
X3.4665Y-5.4878
X3.5567Y-2.9843
X3.5567Y-3.0843
X3.5567Y-3.1843
X3.5567Y-3.2843
X3.5567Y-3.3843
X3.5567Y-3.4843
X3.5567Y-3.5843
X3.5567Y-3.6843
X3.5567Y-4.3268
X3.5567Y-4.4268
X3.5567Y-4.5268
X3.5567Y-4.6268
X3.5567Y-4.7268
X3.5567Y-4.8268
X3.5567Y-4.9268
X3.5567Y-5.0268
M30
