M48
; DRILL file {KiCad 9.0.7} date 2026-03-30T23:53:44+0200
; FORMAT={-:-/ absolute / inch / decimal}
; #@! TF.CreationDate,2026-03-30T23:53:44+02:00
; #@! TF.GenerationSoftware,Kicad,Pcbnew,9.0.7
; #@! TF.FileFunction,Plated,1,6,PTH
FMAT,2
INCH
; #@! TA.AperFunction,Plated,PTH,ViaDrill
T1C0.0118
; #@! TA.AperFunction,Plated,PTH,ViaDrill
T2C0.0197
; #@! TA.AperFunction,Plated,PTH,ComponentDrill
T3C0.0394
%
G90
G05
T1
X4.0133Y-3.0044
X4.0157Y-2.4134
X4.0157Y-2.9252
X4.1314Y-2.1777
X4.1378Y-2.3858
X4.1575Y-1.8071
X4.1637Y-1.5707
X4.1638Y-1.5372
X4.1639Y-1.6039
X4.1644Y-1.6368
X4.1654Y-1.4291
X4.1654Y-1.4646
X4.1654Y-1.5
X4.1732Y-2.7559
X4.189Y-2.9252
X4.1944Y-3.0044
X4.1969Y-2.4134
X4.3046Y-2.1777
X4.315Y-2.3819
X4.3456Y-2.7559
X4.3692Y-2.4134
X4.3701Y-2.9252
X4.3716Y-3.0044
X4.4857Y-2.1777
X4.4921Y-2.3819
X4.5227Y-2.7559
X4.5463Y-2.4134
X4.5472Y-2.9252
X4.5487Y-3.0044
X4.659Y-2.1777
X4.6693Y-2.3819
X4.6999Y-2.7559
X4.7235Y-2.4134
X4.7244Y-2.9252
X4.7259Y-3.0044
X4.8401Y-2.1777
X4.8504Y-2.3819
X4.8819Y-2.7559
X4.9016Y-2.9252
X4.9031Y-3.0044
X4.9055Y-2.4134
X5.0133Y-2.1777
X5.0276Y-2.3819
X5.0542Y-2.7559
X5.0778Y-2.4134
X5.0787Y-2.9252
X5.0802Y-3.0044
X5.1944Y-2.1777
X5.2047Y-2.378
X5.2323Y-2.7559
X5.2559Y-2.4134
X5.2574Y-3.0044
X5.2598Y-2.9252
X5.3701Y-2.3858
X5.3716Y-2.1777
X5.4085Y-2.7559
X5.7992Y-3.0118
X5.8386Y-2.4488
X5.9567Y-2.2677
X5.9567Y-3.0118
X6.1142Y-2.2677
X6.1142Y-3.0118
X6.2717Y-2.2677
X6.2717Y-3.0118
X6.4094Y-1.9528
X6.4291Y-2.2677
X6.4291Y-3.0157
X6.5866Y-2.2677
X6.5866Y-3.0157
X6.7441Y-2.2677
X6.7441Y-3.0118
X6.9016Y-2.2677
X6.9016Y-3.0118
T2
X4.0079Y-3.5433
X4.0197Y-4.1516
X4.0763Y-2.591
X4.0984Y-4.1476
X4.1102Y-3.5354
X4.159Y-3.1382
X4.1668Y-2.0389
X4.2534Y-2.591
X4.4031Y-4.3291
X4.4094Y-3.3386
X4.4306Y-2.591
X4.5075Y-4.3311
X4.5079Y-3.3386
X4.6039Y-4.3291
X4.6063Y-3.3378
X4.6078Y-2.591
X4.6944Y-2.0389
X4.6944Y-3.1382
X4.7083Y-4.3311
X4.7087Y-3.3386
X4.7889Y-2.591
X4.9621Y-2.591
X5.1393Y-2.591
X5.2298Y-3.1382
X5.2338Y-2.0389
X5.3164Y-2.591
X5.6693Y-2.2953
X5.6693Y-4.0394
X5.7224Y-3.2283
X5.8386Y-2.2913
X5.8799Y-3.2283
X5.8858Y-4.3189
X5.9646Y-2.0906
X6.0039Y-2.2756
X6.0374Y-3.2283
X6.0394Y-1.908
X6.0591Y-2.0276
X6.1142Y-3.6693
X6.1654Y-2.2795
X6.1949Y-3.2283
X6.2087Y-4.3189
X6.248Y-3.6693
X6.2484Y-1.8465
X6.2524Y-1.9528
X6.3016Y-1.9882
X6.3268Y-2.2795
X6.3524Y-3.2283
X6.3661Y-4.3189
X6.4094Y-3.6693
X6.4173Y-2.0118
X6.4409Y-2.6693
X6.4453Y-2.1417
X6.5083Y-1.9882
X6.5098Y-3.2283
X6.6378Y-2.2756
X6.6575Y-4.3228
X6.6673Y-3.2283
X6.7953Y-2.2756
X6.8248Y-3.2283
X7.1024Y-1.5945
X7.1024Y-1.9016
T3
X4.0541Y-1.5594
X4.0541Y-1.6594
X4.3071Y-3.7819
X4.3071Y-3.8819
X4.4071Y-3.7819
X4.4071Y-3.8819
X4.4252Y-1.5772
X4.4252Y-1.6772
X4.5071Y-3.7819
X4.5071Y-3.8819
X4.5252Y-1.5772
X4.5252Y-1.6772
X4.6071Y-3.7819
X4.6071Y-3.8819
X4.6252Y-1.5772
X4.6252Y-1.6772
X4.7071Y-3.7819
X4.7071Y-3.8819
X4.7252Y-1.5772
X4.7252Y-1.6772
X4.8071Y-3.7819
X4.8071Y-3.8819
X4.8252Y-1.5772
X4.8252Y-1.6772
X4.9071Y-3.7819
X4.9071Y-3.8819
X4.9252Y-1.5772
X4.9252Y-1.6772
X5.0071Y-3.7819
X5.0071Y-3.8819
X5.0252Y-1.5772
X5.0252Y-1.6772
X5.1071Y-3.7819
X5.1071Y-3.8819
X5.1252Y-1.5772
X5.1252Y-1.6772
X5.2071Y-3.7819
X5.2071Y-3.8819
X5.3071Y-3.7819
X5.3071Y-3.8819
X5.4071Y-3.7819
X5.4071Y-3.8819
X5.5071Y-3.7819
X5.5071Y-3.8819
X5.6071Y-3.7819
X5.6071Y-3.8819
X5.7071Y-3.7819
X5.7071Y-3.8819
X5.7677Y-1.5772
X5.7677Y-1.6772
X5.8071Y-3.7819
X5.8071Y-3.8819
X5.8677Y-1.5772
X5.8677Y-1.6772
X5.9071Y-3.7819
X5.9071Y-3.8819
X5.9677Y-1.5772
X5.9677Y-1.6772
X6.0071Y-3.7819
X6.0071Y-3.8819
X6.0677Y-1.5772
X6.0677Y-1.6772
X6.1071Y-3.7819
X6.1071Y-3.8819
X6.1677Y-1.5772
X6.1677Y-1.6772
X6.2071Y-3.7819
X6.2071Y-3.8819
X6.2677Y-1.5772
X6.2677Y-1.6772
X6.3543Y-3.7819
X6.3543Y-3.8819
X6.3677Y-1.5772
X6.3677Y-1.6772
X6.4543Y-3.7819
X6.4543Y-3.8819
X6.4677Y-1.5772
X6.4677Y-1.6772
X6.5543Y-3.7819
X6.5543Y-3.8819
X6.6067Y-2.8789
X6.6543Y-3.7819
X6.6543Y-3.8819
X6.7067Y-2.8789
X6.7543Y-3.7819
X6.7543Y-3.8819
X6.8288Y-2.0295
X6.9288Y-2.0295
X7.063Y-3.089
X7.063Y-3.189
X7.063Y-3.289
X7.163Y-3.089
X7.163Y-3.189
X7.163Y-3.289
M30
