%TF.GenerationSoftware,KiCad,Pcbnew,9.0.7*%
%TF.CreationDate,2026-03-28T17:24:32+01:00*%
%TF.ProjectId,Level_shifter_FPGA_V1.0,4c657665-6c5f-4736-9869-667465725f46,rev?*%
%TF.SameCoordinates,Original*%
%TF.FileFunction,Legend,Top*%
%TF.FilePolarity,Positive*%
%FSLAX46Y46*%
G04 Gerber Fmt 4.6, Leading zero omitted, Abs format (unit mm)*
G04 Created by KiCad (PCBNEW 9.0.7) date 2026-03-28 17:24:32*
%MOMM*%
%LPD*%
G01*
G04 APERTURE LIST*
G04 Aperture macros list*
%AMRoundRect*
0 Rectangle with rounded corners*
0 $1 Rounding radius*
0 $2 $3 $4 $5 $6 $7 $8 $9 X,Y pos of 4 corners*
0 Add a 4 corners polygon primitive as box body*
4,1,4,$2,$3,$4,$5,$6,$7,$8,$9,$2,$3,0*
0 Add four circle primitives for the rounded corners*
1,1,$1+$1,$2,$3*
1,1,$1+$1,$4,$5*
1,1,$1+$1,$6,$7*
1,1,$1+$1,$8,$9*
0 Add four rect primitives between the rounded corners*
20,1,$1+$1,$2,$3,$4,$5,0*
20,1,$1+$1,$4,$5,$6,$7,0*
20,1,$1+$1,$6,$7,$8,$9,0*
20,1,$1+$1,$8,$9,$2,$3,0*%
G04 Aperture macros list end*
%ADD10C,0.100000*%
%ADD11C,0.187500*%
%ADD12C,0.200000*%
%ADD13C,0.300000*%
%ADD14C,0.400000*%
%ADD15C,0.150000*%
%ADD16C,0.120000*%
%ADD17C,3.200000*%
%ADD18R,1.700000X1.700000*%
%ADD19C,1.700000*%
%ADD20RoundRect,0.150000X0.150000X-0.587500X0.150000X0.587500X-0.150000X0.587500X-0.150000X-0.587500X0*%
%ADD21RoundRect,0.159000X0.189000X-0.159000X0.189000X0.159000X-0.189000X0.159000X-0.189000X-0.159000X0*%
%ADD22C,1.400000*%
%ADD23RoundRect,0.159000X0.159000X0.189000X-0.159000X0.189000X-0.159000X-0.189000X0.159000X-0.189000X0*%
%ADD24RoundRect,0.159000X-0.159000X-0.189000X0.159000X-0.189000X0.159000X0.189000X-0.159000X0.189000X0*%
%ADD25RoundRect,0.159000X-0.189000X0.159000X-0.189000X-0.159000X0.189000X-0.159000X0.189000X0.159000X0*%
%ADD26RoundRect,0.150000X0.587500X0.150000X-0.587500X0.150000X-0.587500X-0.150000X0.587500X-0.150000X0*%
%ADD27RoundRect,0.150000X-0.150000X0.587500X-0.150000X-0.587500X0.150000X-0.587500X0.150000X0.587500X0*%
%ADD28R,1.800000X1.800000*%
%ADD29C,1.800000*%
%ADD30RoundRect,0.269000X-0.494000X0.269000X-0.494000X-0.269000X0.494000X-0.269000X0.494000X0.269000X0*%
G04 APERTURE END LIST*
D10*
X86600000Y-114900000D02*
X83300000Y-114900000D01*
X86500000Y-117600000D02*
X83100000Y-117600000D01*
X87200000Y-122600000D02*
X83500000Y-122600000D01*
X81752455Y-115124800D02*
X81657217Y-115172419D01*
X81657217Y-115172419D02*
X81466741Y-115172419D01*
X81466741Y-115172419D02*
X81371503Y-115124800D01*
X81371503Y-115124800D02*
X81323884Y-115077180D01*
X81323884Y-115077180D02*
X81276265Y-114981942D01*
X81276265Y-114981942D02*
X81276265Y-114696228D01*
X81276265Y-114696228D02*
X81323884Y-114600990D01*
X81323884Y-114600990D02*
X81371503Y-114553371D01*
X81371503Y-114553371D02*
X81466741Y-114505752D01*
X81466741Y-114505752D02*
X81657217Y-114505752D01*
X81657217Y-114505752D02*
X81752455Y-114553371D01*
X82323884Y-115172419D02*
X82228646Y-115124800D01*
X82228646Y-115124800D02*
X82181027Y-115029561D01*
X82181027Y-115029561D02*
X82181027Y-114172419D01*
X82704837Y-115172419D02*
X82704837Y-114172419D01*
X82800075Y-114791466D02*
X83085789Y-115172419D01*
X83085789Y-114505752D02*
X82704837Y-114886704D01*
X81203884Y-118012419D02*
X81203884Y-117345752D01*
X81203884Y-117536228D02*
X81251503Y-117440990D01*
X81251503Y-117440990D02*
X81299122Y-117393371D01*
X81299122Y-117393371D02*
X81394360Y-117345752D01*
X81394360Y-117345752D02*
X81489598Y-117345752D01*
X81775313Y-117964800D02*
X81870551Y-118012419D01*
X81870551Y-118012419D02*
X82061027Y-118012419D01*
X82061027Y-118012419D02*
X82156265Y-117964800D01*
X82156265Y-117964800D02*
X82203884Y-117869561D01*
X82203884Y-117869561D02*
X82203884Y-117821942D01*
X82203884Y-117821942D02*
X82156265Y-117726704D01*
X82156265Y-117726704D02*
X82061027Y-117679085D01*
X82061027Y-117679085D02*
X81918170Y-117679085D01*
X81918170Y-117679085D02*
X81822932Y-117631466D01*
X81822932Y-117631466D02*
X81775313Y-117536228D01*
X81775313Y-117536228D02*
X81775313Y-117488609D01*
X81775313Y-117488609D02*
X81822932Y-117393371D01*
X81822932Y-117393371D02*
X81918170Y-117345752D01*
X81918170Y-117345752D02*
X82061027Y-117345752D01*
X82061027Y-117345752D02*
X82156265Y-117393371D01*
X82489599Y-117345752D02*
X82870551Y-117345752D01*
X82632456Y-117012419D02*
X82632456Y-117869561D01*
X82632456Y-117869561D02*
X82680075Y-117964800D01*
X82680075Y-117964800D02*
X82775313Y-118012419D01*
X82775313Y-118012419D02*
X82870551Y-118012419D01*
X81875312Y-122672419D02*
X81541979Y-122196228D01*
X81303884Y-122672419D02*
X81303884Y-121672419D01*
X81303884Y-121672419D02*
X81684836Y-121672419D01*
X81684836Y-121672419D02*
X81780074Y-121720038D01*
X81780074Y-121720038D02*
X81827693Y-121767657D01*
X81827693Y-121767657D02*
X81875312Y-121862895D01*
X81875312Y-121862895D02*
X81875312Y-122005752D01*
X81875312Y-122005752D02*
X81827693Y-122100990D01*
X81827693Y-122100990D02*
X81780074Y-122148609D01*
X81780074Y-122148609D02*
X81684836Y-122196228D01*
X81684836Y-122196228D02*
X81303884Y-122196228D01*
X82208646Y-121672419D02*
X82446741Y-122672419D01*
X82446741Y-122672419D02*
X82637217Y-121958133D01*
X82637217Y-121958133D02*
X82827693Y-122672419D01*
X82827693Y-122672419D02*
X83065789Y-121672419D01*
D11*
X81296440Y-94295692D02*
X81248821Y-94390930D01*
X81248821Y-94390930D02*
X81201202Y-94438549D01*
X81201202Y-94438549D02*
X81105964Y-94486168D01*
X81105964Y-94486168D02*
X81058345Y-94486168D01*
X81058345Y-94486168D02*
X80963107Y-94438549D01*
X80963107Y-94438549D02*
X80915488Y-94390930D01*
X80915488Y-94390930D02*
X80867869Y-94295692D01*
X80867869Y-94295692D02*
X80867869Y-94105216D01*
X80867869Y-94105216D02*
X80915488Y-94009978D01*
X80915488Y-94009978D02*
X80963107Y-93962359D01*
X80963107Y-93962359D02*
X81058345Y-93914740D01*
X81058345Y-93914740D02*
X81105964Y-93914740D01*
X81105964Y-93914740D02*
X81201202Y-93962359D01*
X81201202Y-93962359D02*
X81248821Y-94009978D01*
X81248821Y-94009978D02*
X81296440Y-94105216D01*
X81296440Y-94105216D02*
X81296440Y-94295692D01*
X81296440Y-94295692D02*
X81344059Y-94390930D01*
X81344059Y-94390930D02*
X81391678Y-94438549D01*
X81391678Y-94438549D02*
X81486916Y-94486168D01*
X81486916Y-94486168D02*
X81677392Y-94486168D01*
X81677392Y-94486168D02*
X81772630Y-94438549D01*
X81772630Y-94438549D02*
X81820250Y-94390930D01*
X81820250Y-94390930D02*
X81867869Y-94295692D01*
X81867869Y-94295692D02*
X81867869Y-94105216D01*
X81867869Y-94105216D02*
X81820250Y-94009978D01*
X81820250Y-94009978D02*
X81772630Y-93962359D01*
X81772630Y-93962359D02*
X81677392Y-93914740D01*
X81677392Y-93914740D02*
X81486916Y-93914740D01*
X81486916Y-93914740D02*
X81391678Y-93962359D01*
X81391678Y-93962359D02*
X81344059Y-94009978D01*
X81344059Y-94009978D02*
X81296440Y-94105216D01*
X81867869Y-91914739D02*
X81867869Y-91724263D01*
X81867869Y-91724263D02*
X81820250Y-91629025D01*
X81820250Y-91629025D02*
X81772630Y-91581406D01*
X81772630Y-91581406D02*
X81629773Y-91486168D01*
X81629773Y-91486168D02*
X81439297Y-91438549D01*
X81439297Y-91438549D02*
X81058345Y-91438549D01*
X81058345Y-91438549D02*
X80963107Y-91486168D01*
X80963107Y-91486168D02*
X80915488Y-91533787D01*
X80915488Y-91533787D02*
X80867869Y-91629025D01*
X80867869Y-91629025D02*
X80867869Y-91819501D01*
X80867869Y-91819501D02*
X80915488Y-91914739D01*
X80915488Y-91914739D02*
X80963107Y-91962358D01*
X80963107Y-91962358D02*
X81058345Y-92009977D01*
X81058345Y-92009977D02*
X81296440Y-92009977D01*
X81296440Y-92009977D02*
X81391678Y-91962358D01*
X81391678Y-91962358D02*
X81439297Y-91914739D01*
X81439297Y-91914739D02*
X81486916Y-91819501D01*
X81486916Y-91819501D02*
X81486916Y-91629025D01*
X81486916Y-91629025D02*
X81439297Y-91533787D01*
X81439297Y-91533787D02*
X81391678Y-91486168D01*
X81391678Y-91486168D02*
X81296440Y-91438549D01*
X81867869Y-88962358D02*
X81867869Y-89533786D01*
X81867869Y-89248072D02*
X80867869Y-89248072D01*
X80867869Y-89248072D02*
X81010726Y-89343310D01*
X81010726Y-89343310D02*
X81105964Y-89438548D01*
X81105964Y-89438548D02*
X81153583Y-89533786D01*
X80867869Y-88343310D02*
X80867869Y-88248072D01*
X80867869Y-88248072D02*
X80915488Y-88152834D01*
X80915488Y-88152834D02*
X80963107Y-88105215D01*
X80963107Y-88105215D02*
X81058345Y-88057596D01*
X81058345Y-88057596D02*
X81248821Y-88009977D01*
X81248821Y-88009977D02*
X81486916Y-88009977D01*
X81486916Y-88009977D02*
X81677392Y-88057596D01*
X81677392Y-88057596D02*
X81772630Y-88105215D01*
X81772630Y-88105215D02*
X81820250Y-88152834D01*
X81820250Y-88152834D02*
X81867869Y-88248072D01*
X81867869Y-88248072D02*
X81867869Y-88343310D01*
X81867869Y-88343310D02*
X81820250Y-88438548D01*
X81820250Y-88438548D02*
X81772630Y-88486167D01*
X81772630Y-88486167D02*
X81677392Y-88533786D01*
X81677392Y-88533786D02*
X81486916Y-88581405D01*
X81486916Y-88581405D02*
X81248821Y-88581405D01*
X81248821Y-88581405D02*
X81058345Y-88533786D01*
X81058345Y-88533786D02*
X80963107Y-88486167D01*
X80963107Y-88486167D02*
X80915488Y-88438548D01*
X80915488Y-88438548D02*
X80867869Y-88343310D01*
X81867869Y-86295691D02*
X81867869Y-86867119D01*
X81867869Y-86581405D02*
X80867869Y-86581405D01*
X80867869Y-86581405D02*
X81010726Y-86676643D01*
X81010726Y-86676643D02*
X81105964Y-86771881D01*
X81105964Y-86771881D02*
X81153583Y-86867119D01*
X81867869Y-85343310D02*
X81867869Y-85914738D01*
X81867869Y-85629024D02*
X80867869Y-85629024D01*
X80867869Y-85629024D02*
X81010726Y-85724262D01*
X81010726Y-85724262D02*
X81105964Y-85819500D01*
X81105964Y-85819500D02*
X81153583Y-85914738D01*
X81867869Y-83629024D02*
X81867869Y-84200452D01*
X81867869Y-83914738D02*
X80867869Y-83914738D01*
X80867869Y-83914738D02*
X81010726Y-84009976D01*
X81010726Y-84009976D02*
X81105964Y-84105214D01*
X81105964Y-84105214D02*
X81153583Y-84200452D01*
X80963107Y-83248071D02*
X80915488Y-83200452D01*
X80915488Y-83200452D02*
X80867869Y-83105214D01*
X80867869Y-83105214D02*
X80867869Y-82867119D01*
X80867869Y-82867119D02*
X80915488Y-82771881D01*
X80915488Y-82771881D02*
X80963107Y-82724262D01*
X80963107Y-82724262D02*
X81058345Y-82676643D01*
X81058345Y-82676643D02*
X81153583Y-82676643D01*
X81153583Y-82676643D02*
X81296440Y-82724262D01*
X81296440Y-82724262D02*
X81867869Y-83295690D01*
X81867869Y-83295690D02*
X81867869Y-82676643D01*
X81867869Y-80962357D02*
X81867869Y-81533785D01*
X81867869Y-81248071D02*
X80867869Y-81248071D01*
X80867869Y-81248071D02*
X81010726Y-81343309D01*
X81010726Y-81343309D02*
X81105964Y-81438547D01*
X81105964Y-81438547D02*
X81153583Y-81533785D01*
X80867869Y-80629023D02*
X80867869Y-80009976D01*
X80867869Y-80009976D02*
X81248821Y-80343309D01*
X81248821Y-80343309D02*
X81248821Y-80200452D01*
X81248821Y-80200452D02*
X81296440Y-80105214D01*
X81296440Y-80105214D02*
X81344059Y-80057595D01*
X81344059Y-80057595D02*
X81439297Y-80009976D01*
X81439297Y-80009976D02*
X81677392Y-80009976D01*
X81677392Y-80009976D02*
X81772630Y-80057595D01*
X81772630Y-80057595D02*
X81820250Y-80105214D01*
X81820250Y-80105214D02*
X81867869Y-80200452D01*
X81867869Y-80200452D02*
X81867869Y-80486166D01*
X81867869Y-80486166D02*
X81820250Y-80581404D01*
X81820250Y-80581404D02*
X81772630Y-80629023D01*
X81867869Y-78295690D02*
X81867869Y-78867118D01*
X81867869Y-78581404D02*
X80867869Y-78581404D01*
X80867869Y-78581404D02*
X81010726Y-78676642D01*
X81010726Y-78676642D02*
X81105964Y-78771880D01*
X81105964Y-78771880D02*
X81153583Y-78867118D01*
X81201202Y-77438547D02*
X81867869Y-77438547D01*
X80820250Y-77676642D02*
X81534535Y-77914737D01*
X81534535Y-77914737D02*
X81534535Y-77295690D01*
X81867869Y-75629023D02*
X81867869Y-76200451D01*
X81867869Y-75914737D02*
X80867869Y-75914737D01*
X80867869Y-75914737D02*
X81010726Y-76009975D01*
X81010726Y-76009975D02*
X81105964Y-76105213D01*
X81105964Y-76105213D02*
X81153583Y-76200451D01*
X80867869Y-74724261D02*
X80867869Y-75200451D01*
X80867869Y-75200451D02*
X81344059Y-75248070D01*
X81344059Y-75248070D02*
X81296440Y-75200451D01*
X81296440Y-75200451D02*
X81248821Y-75105213D01*
X81248821Y-75105213D02*
X81248821Y-74867118D01*
X81248821Y-74867118D02*
X81296440Y-74771880D01*
X81296440Y-74771880D02*
X81344059Y-74724261D01*
X81344059Y-74724261D02*
X81439297Y-74676642D01*
X81439297Y-74676642D02*
X81677392Y-74676642D01*
X81677392Y-74676642D02*
X81772630Y-74724261D01*
X81772630Y-74724261D02*
X81820250Y-74771880D01*
X81820250Y-74771880D02*
X81867869Y-74867118D01*
X81867869Y-74867118D02*
X81867869Y-75105213D01*
X81867869Y-75105213D02*
X81820250Y-75200451D01*
X81820250Y-75200451D02*
X81772630Y-75248070D01*
D12*
X97067219Y-93239850D02*
X97067219Y-93144612D01*
X97067219Y-93144612D02*
X97114838Y-93049374D01*
X97114838Y-93049374D02*
X97162457Y-93001755D01*
X97162457Y-93001755D02*
X97257695Y-92954136D01*
X97257695Y-92954136D02*
X97448171Y-92906517D01*
X97448171Y-92906517D02*
X97686266Y-92906517D01*
X97686266Y-92906517D02*
X97876742Y-92954136D01*
X97876742Y-92954136D02*
X97971980Y-93001755D01*
X97971980Y-93001755D02*
X98019600Y-93049374D01*
X98019600Y-93049374D02*
X98067219Y-93144612D01*
X98067219Y-93144612D02*
X98067219Y-93239850D01*
X98067219Y-93239850D02*
X98019600Y-93335088D01*
X98019600Y-93335088D02*
X97971980Y-93382707D01*
X97971980Y-93382707D02*
X97876742Y-93430326D01*
X97876742Y-93430326D02*
X97686266Y-93477945D01*
X97686266Y-93477945D02*
X97448171Y-93477945D01*
X97448171Y-93477945D02*
X97257695Y-93430326D01*
X97257695Y-93430326D02*
X97162457Y-93382707D01*
X97162457Y-93382707D02*
X97114838Y-93335088D01*
X97114838Y-93335088D02*
X97067219Y-93239850D01*
X98067219Y-90430326D02*
X98067219Y-91001754D01*
X98067219Y-90716040D02*
X97067219Y-90716040D01*
X97067219Y-90716040D02*
X97210076Y-90811278D01*
X97210076Y-90811278D02*
X97305314Y-90906516D01*
X97305314Y-90906516D02*
X97352933Y-91001754D01*
X97162457Y-88525563D02*
X97114838Y-88477944D01*
X97114838Y-88477944D02*
X97067219Y-88382706D01*
X97067219Y-88382706D02*
X97067219Y-88144611D01*
X97067219Y-88144611D02*
X97114838Y-88049373D01*
X97114838Y-88049373D02*
X97162457Y-88001754D01*
X97162457Y-88001754D02*
X97257695Y-87954135D01*
X97257695Y-87954135D02*
X97352933Y-87954135D01*
X97352933Y-87954135D02*
X97495790Y-88001754D01*
X97495790Y-88001754D02*
X98067219Y-88573182D01*
X98067219Y-88573182D02*
X98067219Y-87954135D01*
X97067219Y-86096991D02*
X97067219Y-85477944D01*
X97067219Y-85477944D02*
X97448171Y-85811277D01*
X97448171Y-85811277D02*
X97448171Y-85668420D01*
X97448171Y-85668420D02*
X97495790Y-85573182D01*
X97495790Y-85573182D02*
X97543409Y-85525563D01*
X97543409Y-85525563D02*
X97638647Y-85477944D01*
X97638647Y-85477944D02*
X97876742Y-85477944D01*
X97876742Y-85477944D02*
X97971980Y-85525563D01*
X97971980Y-85525563D02*
X98019600Y-85573182D01*
X98019600Y-85573182D02*
X98067219Y-85668420D01*
X98067219Y-85668420D02*
X98067219Y-85954134D01*
X98067219Y-85954134D02*
X98019600Y-86049372D01*
X98019600Y-86049372D02*
X97971980Y-86096991D01*
X97400552Y-83096991D02*
X98067219Y-83096991D01*
X97019600Y-83335086D02*
X97733885Y-83573181D01*
X97733885Y-83573181D02*
X97733885Y-82954134D01*
X97067219Y-80573181D02*
X97067219Y-81049371D01*
X97067219Y-81049371D02*
X97543409Y-81096990D01*
X97543409Y-81096990D02*
X97495790Y-81049371D01*
X97495790Y-81049371D02*
X97448171Y-80954133D01*
X97448171Y-80954133D02*
X97448171Y-80716038D01*
X97448171Y-80716038D02*
X97495790Y-80620800D01*
X97495790Y-80620800D02*
X97543409Y-80573181D01*
X97543409Y-80573181D02*
X97638647Y-80525562D01*
X97638647Y-80525562D02*
X97876742Y-80525562D01*
X97876742Y-80525562D02*
X97971980Y-80573181D01*
X97971980Y-80573181D02*
X98019600Y-80620800D01*
X98019600Y-80620800D02*
X98067219Y-80716038D01*
X98067219Y-80716038D02*
X98067219Y-80954133D01*
X98067219Y-80954133D02*
X98019600Y-81049371D01*
X98019600Y-81049371D02*
X97971980Y-81096990D01*
X97067219Y-78144609D02*
X97067219Y-78335085D01*
X97067219Y-78335085D02*
X97114838Y-78430323D01*
X97114838Y-78430323D02*
X97162457Y-78477942D01*
X97162457Y-78477942D02*
X97305314Y-78573180D01*
X97305314Y-78573180D02*
X97495790Y-78620799D01*
X97495790Y-78620799D02*
X97876742Y-78620799D01*
X97876742Y-78620799D02*
X97971980Y-78573180D01*
X97971980Y-78573180D02*
X98019600Y-78525561D01*
X98019600Y-78525561D02*
X98067219Y-78430323D01*
X98067219Y-78430323D02*
X98067219Y-78239847D01*
X98067219Y-78239847D02*
X98019600Y-78144609D01*
X98019600Y-78144609D02*
X97971980Y-78096990D01*
X97971980Y-78096990D02*
X97876742Y-78049371D01*
X97876742Y-78049371D02*
X97638647Y-78049371D01*
X97638647Y-78049371D02*
X97543409Y-78096990D01*
X97543409Y-78096990D02*
X97495790Y-78144609D01*
X97495790Y-78144609D02*
X97448171Y-78239847D01*
X97448171Y-78239847D02*
X97448171Y-78430323D01*
X97448171Y-78430323D02*
X97495790Y-78525561D01*
X97495790Y-78525561D02*
X97543409Y-78573180D01*
X97543409Y-78573180D02*
X97638647Y-78620799D01*
X97067219Y-76192227D02*
X97067219Y-75525561D01*
X97067219Y-75525561D02*
X98067219Y-75954132D01*
D13*
X96788590Y-127459774D02*
X96788590Y-127316917D01*
X96788590Y-127316917D02*
X96864780Y-127174060D01*
X96864780Y-127174060D02*
X96940971Y-127102632D01*
X96940971Y-127102632D02*
X97093352Y-127031203D01*
X97093352Y-127031203D02*
X97398114Y-126959774D01*
X97398114Y-126959774D02*
X97779066Y-126959774D01*
X97779066Y-126959774D02*
X98083828Y-127031203D01*
X98083828Y-127031203D02*
X98236209Y-127102632D01*
X98236209Y-127102632D02*
X98312400Y-127174060D01*
X98312400Y-127174060D02*
X98388590Y-127316917D01*
X98388590Y-127316917D02*
X98388590Y-127459774D01*
X98388590Y-127459774D02*
X98312400Y-127602632D01*
X98312400Y-127602632D02*
X98236209Y-127674060D01*
X98236209Y-127674060D02*
X98083828Y-127745489D01*
X98083828Y-127745489D02*
X97779066Y-127816917D01*
X97779066Y-127816917D02*
X97398114Y-127816917D01*
X97398114Y-127816917D02*
X97093352Y-127745489D01*
X97093352Y-127745489D02*
X96940971Y-127674060D01*
X96940971Y-127674060D02*
X96864780Y-127602632D01*
X96864780Y-127602632D02*
X96788590Y-127459774D01*
X98388590Y-124388346D02*
X98388590Y-125245489D01*
X98388590Y-124816918D02*
X96788590Y-124816918D01*
X96788590Y-124816918D02*
X97017161Y-124959775D01*
X97017161Y-124959775D02*
X97169542Y-125102632D01*
X97169542Y-125102632D02*
X97245733Y-125245489D01*
X96940971Y-122674061D02*
X96864780Y-122602633D01*
X96864780Y-122602633D02*
X96788590Y-122459776D01*
X96788590Y-122459776D02*
X96788590Y-122102633D01*
X96788590Y-122102633D02*
X96864780Y-121959776D01*
X96864780Y-121959776D02*
X96940971Y-121888347D01*
X96940971Y-121888347D02*
X97093352Y-121816918D01*
X97093352Y-121816918D02*
X97245733Y-121816918D01*
X97245733Y-121816918D02*
X97474304Y-121888347D01*
X97474304Y-121888347D02*
X98388590Y-122745490D01*
X98388590Y-122745490D02*
X98388590Y-121816918D01*
X96788590Y-120174062D02*
X96788590Y-119245490D01*
X96788590Y-119245490D02*
X97398114Y-119745490D01*
X97398114Y-119745490D02*
X97398114Y-119531205D01*
X97398114Y-119531205D02*
X97474304Y-119388348D01*
X97474304Y-119388348D02*
X97550495Y-119316919D01*
X97550495Y-119316919D02*
X97702876Y-119245490D01*
X97702876Y-119245490D02*
X98083828Y-119245490D01*
X98083828Y-119245490D02*
X98236209Y-119316919D01*
X98236209Y-119316919D02*
X98312400Y-119388348D01*
X98312400Y-119388348D02*
X98388590Y-119531205D01*
X98388590Y-119531205D02*
X98388590Y-119959776D01*
X98388590Y-119959776D02*
X98312400Y-120102633D01*
X98312400Y-120102633D02*
X98236209Y-120174062D01*
X97321923Y-116816920D02*
X98388590Y-116816920D01*
X96712400Y-117174062D02*
X97855257Y-117531205D01*
X97855257Y-117531205D02*
X97855257Y-116602634D01*
X96788590Y-114174063D02*
X96788590Y-114888349D01*
X96788590Y-114888349D02*
X97550495Y-114959777D01*
X97550495Y-114959777D02*
X97474304Y-114888349D01*
X97474304Y-114888349D02*
X97398114Y-114745492D01*
X97398114Y-114745492D02*
X97398114Y-114388349D01*
X97398114Y-114388349D02*
X97474304Y-114245492D01*
X97474304Y-114245492D02*
X97550495Y-114174063D01*
X97550495Y-114174063D02*
X97702876Y-114102634D01*
X97702876Y-114102634D02*
X98083828Y-114102634D01*
X98083828Y-114102634D02*
X98236209Y-114174063D01*
X98236209Y-114174063D02*
X98312400Y-114245492D01*
X98312400Y-114245492D02*
X98388590Y-114388349D01*
X98388590Y-114388349D02*
X98388590Y-114745492D01*
X98388590Y-114745492D02*
X98312400Y-114888349D01*
X98312400Y-114888349D02*
X98236209Y-114959777D01*
X96788590Y-111674064D02*
X96788590Y-111959778D01*
X96788590Y-111959778D02*
X96864780Y-112102635D01*
X96864780Y-112102635D02*
X96940971Y-112174064D01*
X96940971Y-112174064D02*
X97169542Y-112316921D01*
X97169542Y-112316921D02*
X97474304Y-112388349D01*
X97474304Y-112388349D02*
X98083828Y-112388349D01*
X98083828Y-112388349D02*
X98236209Y-112316921D01*
X98236209Y-112316921D02*
X98312400Y-112245492D01*
X98312400Y-112245492D02*
X98388590Y-112102635D01*
X98388590Y-112102635D02*
X98388590Y-111816921D01*
X98388590Y-111816921D02*
X98312400Y-111674064D01*
X98312400Y-111674064D02*
X98236209Y-111602635D01*
X98236209Y-111602635D02*
X98083828Y-111531206D01*
X98083828Y-111531206D02*
X97702876Y-111531206D01*
X97702876Y-111531206D02*
X97550495Y-111602635D01*
X97550495Y-111602635D02*
X97474304Y-111674064D01*
X97474304Y-111674064D02*
X97398114Y-111816921D01*
X97398114Y-111816921D02*
X97398114Y-112102635D01*
X97398114Y-112102635D02*
X97474304Y-112245492D01*
X97474304Y-112245492D02*
X97550495Y-112316921D01*
X97550495Y-112316921D02*
X97702876Y-112388349D01*
X96788590Y-109888350D02*
X96788590Y-108888350D01*
X96788590Y-108888350D02*
X98388590Y-109531207D01*
D14*
X85439347Y-134834438D02*
X85439347Y-132834438D01*
X85439347Y-132834438D02*
X85915537Y-132834438D01*
X85915537Y-132834438D02*
X86201252Y-132929676D01*
X86201252Y-132929676D02*
X86391728Y-133120152D01*
X86391728Y-133120152D02*
X86486966Y-133310628D01*
X86486966Y-133310628D02*
X86582204Y-133691580D01*
X86582204Y-133691580D02*
X86582204Y-133977295D01*
X86582204Y-133977295D02*
X86486966Y-134358247D01*
X86486966Y-134358247D02*
X86391728Y-134548723D01*
X86391728Y-134548723D02*
X86201252Y-134739200D01*
X86201252Y-134739200D02*
X85915537Y-134834438D01*
X85915537Y-134834438D02*
X85439347Y-134834438D01*
X89629824Y-133786819D02*
X89915538Y-133882057D01*
X89915538Y-133882057D02*
X90010776Y-133977295D01*
X90010776Y-133977295D02*
X90106014Y-134167771D01*
X90106014Y-134167771D02*
X90106014Y-134453485D01*
X90106014Y-134453485D02*
X90010776Y-134643961D01*
X90010776Y-134643961D02*
X89915538Y-134739200D01*
X89915538Y-134739200D02*
X89725062Y-134834438D01*
X89725062Y-134834438D02*
X88963157Y-134834438D01*
X88963157Y-134834438D02*
X88963157Y-132834438D01*
X88963157Y-132834438D02*
X89629824Y-132834438D01*
X89629824Y-132834438D02*
X89820300Y-132929676D01*
X89820300Y-132929676D02*
X89915538Y-133024914D01*
X89915538Y-133024914D02*
X90010776Y-133215390D01*
X90010776Y-133215390D02*
X90010776Y-133405866D01*
X90010776Y-133405866D02*
X89915538Y-133596342D01*
X89915538Y-133596342D02*
X89820300Y-133691580D01*
X89820300Y-133691580D02*
X89629824Y-133786819D01*
X89629824Y-133786819D02*
X88963157Y-133786819D01*
X90963157Y-132834438D02*
X90963157Y-134453485D01*
X90963157Y-134453485D02*
X91058395Y-134643961D01*
X91058395Y-134643961D02*
X91153633Y-134739200D01*
X91153633Y-134739200D02*
X91344109Y-134834438D01*
X91344109Y-134834438D02*
X91725062Y-134834438D01*
X91725062Y-134834438D02*
X91915538Y-134739200D01*
X91915538Y-134739200D02*
X92010776Y-134643961D01*
X92010776Y-134643961D02*
X92106014Y-134453485D01*
X92106014Y-134453485D02*
X92106014Y-132834438D01*
X92963157Y-134739200D02*
X93248871Y-134834438D01*
X93248871Y-134834438D02*
X93725062Y-134834438D01*
X93725062Y-134834438D02*
X93915538Y-134739200D01*
X93915538Y-134739200D02*
X94010776Y-134643961D01*
X94010776Y-134643961D02*
X94106014Y-134453485D01*
X94106014Y-134453485D02*
X94106014Y-134263009D01*
X94106014Y-134263009D02*
X94010776Y-134072533D01*
X94010776Y-134072533D02*
X93915538Y-133977295D01*
X93915538Y-133977295D02*
X93725062Y-133882057D01*
X93725062Y-133882057D02*
X93344109Y-133786819D01*
X93344109Y-133786819D02*
X93153633Y-133691580D01*
X93153633Y-133691580D02*
X93058395Y-133596342D01*
X93058395Y-133596342D02*
X92963157Y-133405866D01*
X92963157Y-133405866D02*
X92963157Y-133215390D01*
X92963157Y-133215390D02*
X93058395Y-133024914D01*
X93058395Y-133024914D02*
X93153633Y-132929676D01*
X93153633Y-132929676D02*
X93344109Y-132834438D01*
X93344109Y-132834438D02*
X93820300Y-132834438D01*
X93820300Y-132834438D02*
X94106014Y-132929676D01*
X82644109Y-99563009D02*
X83596490Y-99563009D01*
X82453633Y-100134438D02*
X83120299Y-98134438D01*
X83120299Y-98134438D02*
X83786966Y-100134438D01*
X84453633Y-100134438D02*
X84453633Y-98134438D01*
X84453633Y-98134438D02*
X84929823Y-98134438D01*
X84929823Y-98134438D02*
X85215538Y-98229676D01*
X85215538Y-98229676D02*
X85406014Y-98420152D01*
X85406014Y-98420152D02*
X85501252Y-98610628D01*
X85501252Y-98610628D02*
X85596490Y-98991580D01*
X85596490Y-98991580D02*
X85596490Y-99277295D01*
X85596490Y-99277295D02*
X85501252Y-99658247D01*
X85501252Y-99658247D02*
X85406014Y-99848723D01*
X85406014Y-99848723D02*
X85215538Y-100039200D01*
X85215538Y-100039200D02*
X84929823Y-100134438D01*
X84929823Y-100134438D02*
X84453633Y-100134438D01*
X86453633Y-100134438D02*
X86453633Y-98134438D01*
X86453633Y-98134438D02*
X86929823Y-98134438D01*
X86929823Y-98134438D02*
X87215538Y-98229676D01*
X87215538Y-98229676D02*
X87406014Y-98420152D01*
X87406014Y-98420152D02*
X87501252Y-98610628D01*
X87501252Y-98610628D02*
X87596490Y-98991580D01*
X87596490Y-98991580D02*
X87596490Y-99277295D01*
X87596490Y-99277295D02*
X87501252Y-99658247D01*
X87501252Y-99658247D02*
X87406014Y-99848723D01*
X87406014Y-99848723D02*
X87215538Y-100039200D01*
X87215538Y-100039200D02*
X86929823Y-100134438D01*
X86929823Y-100134438D02*
X86453633Y-100134438D01*
X89596490Y-100134438D02*
X88929823Y-99182057D01*
X88453633Y-100134438D02*
X88453633Y-98134438D01*
X88453633Y-98134438D02*
X89215538Y-98134438D01*
X89215538Y-98134438D02*
X89406014Y-98229676D01*
X89406014Y-98229676D02*
X89501252Y-98324914D01*
X89501252Y-98324914D02*
X89596490Y-98515390D01*
X89596490Y-98515390D02*
X89596490Y-98801104D01*
X89596490Y-98801104D02*
X89501252Y-98991580D01*
X89501252Y-98991580D02*
X89406014Y-99086819D01*
X89406014Y-99086819D02*
X89215538Y-99182057D01*
X89215538Y-99182057D02*
X88453633Y-99182057D01*
X90453633Y-99086819D02*
X91120300Y-99086819D01*
X91406014Y-100134438D02*
X90453633Y-100134438D01*
X90453633Y-100134438D02*
X90453633Y-98134438D01*
X90453633Y-98134438D02*
X91406014Y-98134438D01*
X92167919Y-100039200D02*
X92453633Y-100134438D01*
X92453633Y-100134438D02*
X92929824Y-100134438D01*
X92929824Y-100134438D02*
X93120300Y-100039200D01*
X93120300Y-100039200D02*
X93215538Y-99943961D01*
X93215538Y-99943961D02*
X93310776Y-99753485D01*
X93310776Y-99753485D02*
X93310776Y-99563009D01*
X93310776Y-99563009D02*
X93215538Y-99372533D01*
X93215538Y-99372533D02*
X93120300Y-99277295D01*
X93120300Y-99277295D02*
X92929824Y-99182057D01*
X92929824Y-99182057D02*
X92548871Y-99086819D01*
X92548871Y-99086819D02*
X92358395Y-98991580D01*
X92358395Y-98991580D02*
X92263157Y-98896342D01*
X92263157Y-98896342D02*
X92167919Y-98705866D01*
X92167919Y-98705866D02*
X92167919Y-98515390D01*
X92167919Y-98515390D02*
X92263157Y-98324914D01*
X92263157Y-98324914D02*
X92358395Y-98229676D01*
X92358395Y-98229676D02*
X92548871Y-98134438D01*
X92548871Y-98134438D02*
X93025062Y-98134438D01*
X93025062Y-98134438D02*
X93310776Y-98229676D01*
X94072681Y-100039200D02*
X94358395Y-100134438D01*
X94358395Y-100134438D02*
X94834586Y-100134438D01*
X94834586Y-100134438D02*
X95025062Y-100039200D01*
X95025062Y-100039200D02*
X95120300Y-99943961D01*
X95120300Y-99943961D02*
X95215538Y-99753485D01*
X95215538Y-99753485D02*
X95215538Y-99563009D01*
X95215538Y-99563009D02*
X95120300Y-99372533D01*
X95120300Y-99372533D02*
X95025062Y-99277295D01*
X95025062Y-99277295D02*
X94834586Y-99182057D01*
X94834586Y-99182057D02*
X94453633Y-99086819D01*
X94453633Y-99086819D02*
X94263157Y-98991580D01*
X94263157Y-98991580D02*
X94167919Y-98896342D01*
X94167919Y-98896342D02*
X94072681Y-98705866D01*
X94072681Y-98705866D02*
X94072681Y-98515390D01*
X94072681Y-98515390D02*
X94167919Y-98324914D01*
X94167919Y-98324914D02*
X94263157Y-98229676D01*
X94263157Y-98229676D02*
X94453633Y-98134438D01*
X94453633Y-98134438D02*
X94929824Y-98134438D01*
X94929824Y-98134438D02*
X95215538Y-98229676D01*
D15*
X88736666Y-106584819D02*
X88736666Y-107299104D01*
X88736666Y-107299104D02*
X88689047Y-107441961D01*
X88689047Y-107441961D02*
X88593809Y-107537200D01*
X88593809Y-107537200D02*
X88450952Y-107584819D01*
X88450952Y-107584819D02*
X88355714Y-107584819D01*
X89355714Y-107013390D02*
X89260476Y-106965771D01*
X89260476Y-106965771D02*
X89212857Y-106918152D01*
X89212857Y-106918152D02*
X89165238Y-106822914D01*
X89165238Y-106822914D02*
X89165238Y-106775295D01*
X89165238Y-106775295D02*
X89212857Y-106680057D01*
X89212857Y-106680057D02*
X89260476Y-106632438D01*
X89260476Y-106632438D02*
X89355714Y-106584819D01*
X89355714Y-106584819D02*
X89546190Y-106584819D01*
X89546190Y-106584819D02*
X89641428Y-106632438D01*
X89641428Y-106632438D02*
X89689047Y-106680057D01*
X89689047Y-106680057D02*
X89736666Y-106775295D01*
X89736666Y-106775295D02*
X89736666Y-106822914D01*
X89736666Y-106822914D02*
X89689047Y-106918152D01*
X89689047Y-106918152D02*
X89641428Y-106965771D01*
X89641428Y-106965771D02*
X89546190Y-107013390D01*
X89546190Y-107013390D02*
X89355714Y-107013390D01*
X89355714Y-107013390D02*
X89260476Y-107061009D01*
X89260476Y-107061009D02*
X89212857Y-107108628D01*
X89212857Y-107108628D02*
X89165238Y-107203866D01*
X89165238Y-107203866D02*
X89165238Y-107394342D01*
X89165238Y-107394342D02*
X89212857Y-107489580D01*
X89212857Y-107489580D02*
X89260476Y-107537200D01*
X89260476Y-107537200D02*
X89355714Y-107584819D01*
X89355714Y-107584819D02*
X89546190Y-107584819D01*
X89546190Y-107584819D02*
X89641428Y-107537200D01*
X89641428Y-107537200D02*
X89689047Y-107489580D01*
X89689047Y-107489580D02*
X89736666Y-107394342D01*
X89736666Y-107394342D02*
X89736666Y-107203866D01*
X89736666Y-107203866D02*
X89689047Y-107108628D01*
X89689047Y-107108628D02*
X89641428Y-107061009D01*
X89641428Y-107061009D02*
X89546190Y-107013390D01*
X88736666Y-72484819D02*
X88736666Y-73199104D01*
X88736666Y-73199104D02*
X88689047Y-73341961D01*
X88689047Y-73341961D02*
X88593809Y-73437200D01*
X88593809Y-73437200D02*
X88450952Y-73484819D01*
X88450952Y-73484819D02*
X88355714Y-73484819D01*
X89736666Y-73484819D02*
X89165238Y-73484819D01*
X89450952Y-73484819D02*
X89450952Y-72484819D01*
X89450952Y-72484819D02*
X89355714Y-72627676D01*
X89355714Y-72627676D02*
X89260476Y-72722914D01*
X89260476Y-72722914D02*
X89165238Y-72770533D01*
D16*
%TO.C,J3*%
X30470000Y-123470000D02*
X30470000Y-136290000D01*
X30470000Y-123470000D02*
X33070000Y-123470000D01*
X30470000Y-136290000D02*
X35670000Y-136290000D01*
X33070000Y-123470000D02*
X33070000Y-126070000D01*
X33070000Y-126070000D02*
X35670000Y-126070000D01*
X34340000Y-123470000D02*
X35670000Y-123470000D01*
X35670000Y-123470000D02*
X35670000Y-124800000D01*
X35670000Y-126070000D02*
X35670000Y-136290000D01*
%TO.C,Q44*%
X75050000Y-95440000D02*
X74720000Y-95200000D01*
X75050000Y-94960000D01*
X75050000Y-95440000D01*
G36*
X75050000Y-95440000D02*
G01*
X74720000Y-95200000D01*
X75050000Y-94960000D01*
X75050000Y-95440000D01*
G37*
X76660000Y-93140000D02*
X76660000Y-94660000D01*
X75660000Y-93140000D02*
X76660000Y-93140000D01*
X73540000Y-93140000D02*
X74540000Y-93140000D01*
X76660000Y-94660000D02*
X76610000Y-94660000D01*
X75490000Y-94660000D02*
X74710000Y-94660000D01*
X73590000Y-94660000D02*
X73540000Y-94660000D01*
X73540000Y-94660000D02*
X73540000Y-93140000D01*
%TO.C,R5*%
X39890000Y-74380000D02*
X43730000Y-74380000D01*
X43730000Y-76220000D01*
X39890000Y-76220000D01*
X39890000Y-74380000D01*
X44680000Y-75300000D02*
X43730000Y-75300000D01*
X38940000Y-75300000D02*
X39890000Y-75300000D01*
%TO.C,R8*%
X39890000Y-82080000D02*
X43730000Y-82080000D01*
X43730000Y-83920000D01*
X39890000Y-83920000D01*
X39890000Y-82080000D01*
X44680000Y-83000000D02*
X43730000Y-83000000D01*
X38940000Y-83000000D02*
X39890000Y-83000000D01*
%TO.C,R7*%
X39890000Y-79480000D02*
X43730000Y-79480000D01*
X43730000Y-81320000D01*
X39890000Y-81320000D01*
X39890000Y-79480000D01*
X44680000Y-80400000D02*
X43730000Y-80400000D01*
X38940000Y-80400000D02*
X39890000Y-80400000D01*
%TO.C,J8*%
X86470000Y-108570000D02*
X86470000Y-129010000D01*
X86470000Y-108570000D02*
X89070000Y-108570000D01*
X86470000Y-129010000D02*
X91670000Y-129010000D01*
X89070000Y-108570000D02*
X89070000Y-111170000D01*
X89070000Y-111170000D02*
X91670000Y-111170000D01*
X90340000Y-108570000D02*
X91670000Y-108570000D01*
X91670000Y-108570000D02*
X91670000Y-109900000D01*
X91670000Y-111170000D02*
X91670000Y-129010000D01*
%TO.C,J1*%
X86470000Y-74470000D02*
X86470000Y-94910000D01*
X86470000Y-74470000D02*
X89070000Y-74470000D01*
X86470000Y-94910000D02*
X91670000Y-94910000D01*
X89070000Y-74470000D02*
X89070000Y-77070000D01*
X89070000Y-77070000D02*
X91670000Y-77070000D01*
X90340000Y-74470000D02*
X91670000Y-74470000D01*
X91670000Y-74470000D02*
X91670000Y-75800000D01*
X91670000Y-77070000D02*
X91670000Y-94910000D01*
%TO.C,R24*%
X77900000Y-115580000D02*
X77900000Y-114630000D01*
X77900000Y-109840000D02*
X77900000Y-110790000D01*
X76980000Y-114630000D02*
X78820000Y-114630000D01*
X78820000Y-110790000D01*
X76980000Y-110790000D01*
X76980000Y-114630000D01*
%TO.C,R22*%
X80100000Y-115580000D02*
X80100000Y-114630000D01*
X80100000Y-109840000D02*
X80100000Y-110790000D01*
X79180000Y-114630000D02*
X81020000Y-114630000D01*
X81020000Y-110790000D01*
X79180000Y-110790000D01*
X79180000Y-114630000D01*
%TO.C,R4*%
X21320000Y-83000000D02*
X22270000Y-83000000D01*
X27060000Y-83000000D02*
X26110000Y-83000000D01*
X22270000Y-82080000D02*
X26110000Y-82080000D01*
X26110000Y-83920000D01*
X22270000Y-83920000D01*
X22270000Y-82080000D01*
%TO.C,R3*%
X21320000Y-80400000D02*
X22270000Y-80400000D01*
X27060000Y-80400000D02*
X26110000Y-80400000D01*
X22270000Y-79480000D02*
X26110000Y-79480000D01*
X26110000Y-81320000D01*
X22270000Y-81320000D01*
X22270000Y-79480000D01*
%TO.C,R2*%
X21320000Y-77900000D02*
X22270000Y-77900000D01*
X27060000Y-77900000D02*
X26110000Y-77900000D01*
X22270000Y-76980000D02*
X26110000Y-76980000D01*
X26110000Y-78820000D01*
X22270000Y-78820000D01*
X22270000Y-76980000D01*
%TO.C,R1*%
X21320000Y-75300000D02*
X22270000Y-75300000D01*
X27060000Y-75300000D02*
X26110000Y-75300000D01*
X22270000Y-74380000D02*
X26110000Y-74380000D01*
X26110000Y-76220000D01*
X22270000Y-76220000D01*
X22270000Y-74380000D01*
%TO.C,Q87*%
X65660000Y-139260000D02*
X64140000Y-139260000D01*
X65660000Y-139210000D02*
X65660000Y-139260000D01*
X65660000Y-137310000D02*
X65660000Y-138090000D01*
X65660000Y-136140000D02*
X65660000Y-136190000D01*
X64140000Y-139260000D02*
X64140000Y-138260000D01*
X64140000Y-137140000D02*
X64140000Y-136140000D01*
X64140000Y-136140000D02*
X65660000Y-136140000D01*
X66200000Y-138080000D02*
X65960000Y-137750000D01*
X66440000Y-137750000D01*
X66200000Y-138080000D01*
G36*
X66200000Y-138080000D02*
G01*
X65960000Y-137750000D01*
X66440000Y-137750000D01*
X66200000Y-138080000D01*
G37*
%TO.C,Q86*%
X70460000Y-139260000D02*
X68940000Y-139260000D01*
X70460000Y-139210000D02*
X70460000Y-139260000D01*
X70460000Y-137310000D02*
X70460000Y-138090000D01*
X70460000Y-136140000D02*
X70460000Y-136190000D01*
X68940000Y-139260000D02*
X68940000Y-138260000D01*
X68940000Y-137140000D02*
X68940000Y-136140000D01*
X68940000Y-136140000D02*
X70460000Y-136140000D01*
X71000000Y-138080000D02*
X70760000Y-137750000D01*
X71240000Y-137750000D01*
X71000000Y-138080000D01*
G36*
X71000000Y-138080000D02*
G01*
X70760000Y-137750000D01*
X71240000Y-137750000D01*
X71000000Y-138080000D01*
G37*
%TO.C,Q85*%
X46660000Y-111260000D02*
X45140000Y-111260000D01*
X46660000Y-111210000D02*
X46660000Y-111260000D01*
X46660000Y-109310000D02*
X46660000Y-110090000D01*
X46660000Y-108140000D02*
X46660000Y-108190000D01*
X45140000Y-111260000D02*
X45140000Y-110260000D01*
X45140000Y-109140000D02*
X45140000Y-108140000D01*
X45140000Y-108140000D02*
X46660000Y-108140000D01*
X47200000Y-110080000D02*
X46960000Y-109750000D01*
X47440000Y-109750000D01*
X47200000Y-110080000D01*
G36*
X47200000Y-110080000D02*
G01*
X46960000Y-109750000D01*
X47440000Y-109750000D01*
X47200000Y-110080000D01*
G37*
%TO.C,Q84*%
X51460000Y-111260000D02*
X49940000Y-111260000D01*
X51460000Y-111210000D02*
X51460000Y-111260000D01*
X51460000Y-109310000D02*
X51460000Y-110090000D01*
X51460000Y-108140000D02*
X51460000Y-108190000D01*
X49940000Y-111260000D02*
X49940000Y-110260000D01*
X49940000Y-109140000D02*
X49940000Y-108140000D01*
X49940000Y-108140000D02*
X51460000Y-108140000D01*
X52000000Y-110080000D02*
X51760000Y-109750000D01*
X52240000Y-109750000D01*
X52000000Y-110080000D01*
G36*
X52000000Y-110080000D02*
G01*
X51760000Y-109750000D01*
X52240000Y-109750000D01*
X52000000Y-110080000D01*
G37*
%TO.C,Q83*%
X65660000Y-135260000D02*
X64140000Y-135260000D01*
X65660000Y-135210000D02*
X65660000Y-135260000D01*
X65660000Y-133310000D02*
X65660000Y-134090000D01*
X65660000Y-132140000D02*
X65660000Y-132190000D01*
X64140000Y-135260000D02*
X64140000Y-134260000D01*
X64140000Y-133140000D02*
X64140000Y-132140000D01*
X64140000Y-132140000D02*
X65660000Y-132140000D01*
X66200000Y-134080000D02*
X65960000Y-133750000D01*
X66440000Y-133750000D01*
X66200000Y-134080000D01*
G36*
X66200000Y-134080000D02*
G01*
X65960000Y-133750000D01*
X66440000Y-133750000D01*
X66200000Y-134080000D01*
G37*
%TO.C,Q82*%
X70460000Y-135260000D02*
X68940000Y-135260000D01*
X70460000Y-135210000D02*
X70460000Y-135260000D01*
X70460000Y-133310000D02*
X70460000Y-134090000D01*
X70460000Y-132140000D02*
X70460000Y-132190000D01*
X68940000Y-135260000D02*
X68940000Y-134260000D01*
X68940000Y-133140000D02*
X68940000Y-132140000D01*
X68940000Y-132140000D02*
X70460000Y-132140000D01*
X71000000Y-134080000D02*
X70760000Y-133750000D01*
X71240000Y-133750000D01*
X71000000Y-134080000D01*
G36*
X71000000Y-134080000D02*
G01*
X70760000Y-133750000D01*
X71240000Y-133750000D01*
X71000000Y-134080000D01*
G37*
%TO.C,Q81*%
X46660000Y-115260000D02*
X45140000Y-115260000D01*
X46660000Y-115210000D02*
X46660000Y-115260000D01*
X46660000Y-113310000D02*
X46660000Y-114090000D01*
X46660000Y-112140000D02*
X46660000Y-112190000D01*
X45140000Y-115260000D02*
X45140000Y-114260000D01*
X45140000Y-113140000D02*
X45140000Y-112140000D01*
X45140000Y-112140000D02*
X46660000Y-112140000D01*
X47200000Y-114080000D02*
X46960000Y-113750000D01*
X47440000Y-113750000D01*
X47200000Y-114080000D01*
G36*
X47200000Y-114080000D02*
G01*
X46960000Y-113750000D01*
X47440000Y-113750000D01*
X47200000Y-114080000D01*
G37*
%TO.C,Q80*%
X51460000Y-115260000D02*
X49940000Y-115260000D01*
X51460000Y-115210000D02*
X51460000Y-115260000D01*
X51460000Y-113310000D02*
X51460000Y-114090000D01*
X51460000Y-112140000D02*
X51460000Y-112190000D01*
X49940000Y-115260000D02*
X49940000Y-114260000D01*
X49940000Y-113140000D02*
X49940000Y-112140000D01*
X49940000Y-112140000D02*
X51460000Y-112140000D01*
X52000000Y-114080000D02*
X51760000Y-113750000D01*
X52240000Y-113750000D01*
X52000000Y-114080000D01*
G36*
X52000000Y-114080000D02*
G01*
X51760000Y-113750000D01*
X52240000Y-113750000D01*
X52000000Y-114080000D01*
G37*
%TO.C,Q79*%
X65660000Y-131260000D02*
X64140000Y-131260000D01*
X65660000Y-131210000D02*
X65660000Y-131260000D01*
X65660000Y-129310000D02*
X65660000Y-130090000D01*
X65660000Y-128140000D02*
X65660000Y-128190000D01*
X64140000Y-131260000D02*
X64140000Y-130260000D01*
X64140000Y-129140000D02*
X64140000Y-128140000D01*
X64140000Y-128140000D02*
X65660000Y-128140000D01*
X66200000Y-130080000D02*
X65960000Y-129750000D01*
X66440000Y-129750000D01*
X66200000Y-130080000D01*
G36*
X66200000Y-130080000D02*
G01*
X65960000Y-129750000D01*
X66440000Y-129750000D01*
X66200000Y-130080000D01*
G37*
%TO.C,Q78*%
X70460000Y-131260000D02*
X68940000Y-131260000D01*
X70460000Y-131210000D02*
X70460000Y-131260000D01*
X70460000Y-129310000D02*
X70460000Y-130090000D01*
X70460000Y-128140000D02*
X70460000Y-128190000D01*
X68940000Y-131260000D02*
X68940000Y-130260000D01*
X68940000Y-129140000D02*
X68940000Y-128140000D01*
X68940000Y-128140000D02*
X70460000Y-128140000D01*
X71000000Y-130080000D02*
X70760000Y-129750000D01*
X71240000Y-129750000D01*
X71000000Y-130080000D01*
G36*
X71000000Y-130080000D02*
G01*
X70760000Y-129750000D01*
X71240000Y-129750000D01*
X71000000Y-130080000D01*
G37*
%TO.C,Q77*%
X46660000Y-119260000D02*
X45140000Y-119260000D01*
X46660000Y-119210000D02*
X46660000Y-119260000D01*
X46660000Y-117310000D02*
X46660000Y-118090000D01*
X46660000Y-116140000D02*
X46660000Y-116190000D01*
X45140000Y-119260000D02*
X45140000Y-118260000D01*
X45140000Y-117140000D02*
X45140000Y-116140000D01*
X45140000Y-116140000D02*
X46660000Y-116140000D01*
X47200000Y-118080000D02*
X46960000Y-117750000D01*
X47440000Y-117750000D01*
X47200000Y-118080000D01*
G36*
X47200000Y-118080000D02*
G01*
X46960000Y-117750000D01*
X47440000Y-117750000D01*
X47200000Y-118080000D01*
G37*
%TO.C,Q76*%
X51460000Y-119260000D02*
X49940000Y-119260000D01*
X51460000Y-119210000D02*
X51460000Y-119260000D01*
X51460000Y-117310000D02*
X51460000Y-118090000D01*
X51460000Y-116140000D02*
X51460000Y-116190000D01*
X49940000Y-119260000D02*
X49940000Y-118260000D01*
X49940000Y-117140000D02*
X49940000Y-116140000D01*
X49940000Y-116140000D02*
X51460000Y-116140000D01*
X52000000Y-118080000D02*
X51760000Y-117750000D01*
X52240000Y-117750000D01*
X52000000Y-118080000D01*
G36*
X52000000Y-118080000D02*
G01*
X51760000Y-117750000D01*
X52240000Y-117750000D01*
X52000000Y-118080000D01*
G37*
%TO.C,Q75*%
X65660000Y-127260000D02*
X64140000Y-127260000D01*
X65660000Y-127210000D02*
X65660000Y-127260000D01*
X65660000Y-125310000D02*
X65660000Y-126090000D01*
X65660000Y-124140000D02*
X65660000Y-124190000D01*
X64140000Y-127260000D02*
X64140000Y-126260000D01*
X64140000Y-125140000D02*
X64140000Y-124140000D01*
X64140000Y-124140000D02*
X65660000Y-124140000D01*
X66200000Y-126080000D02*
X65960000Y-125750000D01*
X66440000Y-125750000D01*
X66200000Y-126080000D01*
G36*
X66200000Y-126080000D02*
G01*
X65960000Y-125750000D01*
X66440000Y-125750000D01*
X66200000Y-126080000D01*
G37*
%TO.C,Q74*%
X70460000Y-127260000D02*
X68940000Y-127260000D01*
X70460000Y-127210000D02*
X70460000Y-127260000D01*
X70460000Y-125310000D02*
X70460000Y-126090000D01*
X70460000Y-124140000D02*
X70460000Y-124190000D01*
X68940000Y-127260000D02*
X68940000Y-126260000D01*
X68940000Y-125140000D02*
X68940000Y-124140000D01*
X68940000Y-124140000D02*
X70460000Y-124140000D01*
X71000000Y-126080000D02*
X70760000Y-125750000D01*
X71240000Y-125750000D01*
X71000000Y-126080000D01*
G36*
X71000000Y-126080000D02*
G01*
X70760000Y-125750000D01*
X71240000Y-125750000D01*
X71000000Y-126080000D01*
G37*
%TO.C,Q73*%
X46660000Y-123260000D02*
X45140000Y-123260000D01*
X46660000Y-123210000D02*
X46660000Y-123260000D01*
X46660000Y-121310000D02*
X46660000Y-122090000D01*
X46660000Y-120140000D02*
X46660000Y-120190000D01*
X45140000Y-123260000D02*
X45140000Y-122260000D01*
X45140000Y-121140000D02*
X45140000Y-120140000D01*
X45140000Y-120140000D02*
X46660000Y-120140000D01*
X47200000Y-122080000D02*
X46960000Y-121750000D01*
X47440000Y-121750000D01*
X47200000Y-122080000D01*
G36*
X47200000Y-122080000D02*
G01*
X46960000Y-121750000D01*
X47440000Y-121750000D01*
X47200000Y-122080000D01*
G37*
%TO.C,Q72*%
X51460000Y-123260000D02*
X49940000Y-123260000D01*
X51460000Y-123210000D02*
X51460000Y-123260000D01*
X51460000Y-121310000D02*
X51460000Y-122090000D01*
X51460000Y-120140000D02*
X51460000Y-120190000D01*
X49940000Y-123260000D02*
X49940000Y-122260000D01*
X49940000Y-121140000D02*
X49940000Y-120140000D01*
X49940000Y-120140000D02*
X51460000Y-120140000D01*
X52000000Y-122080000D02*
X51760000Y-121750000D01*
X52240000Y-121750000D01*
X52000000Y-122080000D01*
G36*
X52000000Y-122080000D02*
G01*
X51760000Y-121750000D01*
X52240000Y-121750000D01*
X52000000Y-122080000D01*
G37*
%TO.C,Q71*%
X65660000Y-123260000D02*
X64140000Y-123260000D01*
X65660000Y-123210000D02*
X65660000Y-123260000D01*
X65660000Y-121310000D02*
X65660000Y-122090000D01*
X65660000Y-120140000D02*
X65660000Y-120190000D01*
X64140000Y-123260000D02*
X64140000Y-122260000D01*
X64140000Y-121140000D02*
X64140000Y-120140000D01*
X64140000Y-120140000D02*
X65660000Y-120140000D01*
X66200000Y-122080000D02*
X65960000Y-121750000D01*
X66440000Y-121750000D01*
X66200000Y-122080000D01*
G36*
X66200000Y-122080000D02*
G01*
X65960000Y-121750000D01*
X66440000Y-121750000D01*
X66200000Y-122080000D01*
G37*
%TO.C,Q70*%
X70460000Y-123260000D02*
X68940000Y-123260000D01*
X70460000Y-123210000D02*
X70460000Y-123260000D01*
X70460000Y-121310000D02*
X70460000Y-122090000D01*
X70460000Y-120140000D02*
X70460000Y-120190000D01*
X68940000Y-123260000D02*
X68940000Y-122260000D01*
X68940000Y-121140000D02*
X68940000Y-120140000D01*
X68940000Y-120140000D02*
X70460000Y-120140000D01*
X71000000Y-122080000D02*
X70760000Y-121750000D01*
X71240000Y-121750000D01*
X71000000Y-122080000D01*
G36*
X71000000Y-122080000D02*
G01*
X70760000Y-121750000D01*
X71240000Y-121750000D01*
X71000000Y-122080000D01*
G37*
%TO.C,Q69*%
X46660000Y-127260000D02*
X45140000Y-127260000D01*
X46660000Y-127210000D02*
X46660000Y-127260000D01*
X46660000Y-125310000D02*
X46660000Y-126090000D01*
X46660000Y-124140000D02*
X46660000Y-124190000D01*
X45140000Y-127260000D02*
X45140000Y-126260000D01*
X45140000Y-125140000D02*
X45140000Y-124140000D01*
X45140000Y-124140000D02*
X46660000Y-124140000D01*
X47200000Y-126080000D02*
X46960000Y-125750000D01*
X47440000Y-125750000D01*
X47200000Y-126080000D01*
G36*
X47200000Y-126080000D02*
G01*
X46960000Y-125750000D01*
X47440000Y-125750000D01*
X47200000Y-126080000D01*
G37*
%TO.C,Q68*%
X51460000Y-127260000D02*
X49940000Y-127260000D01*
X51460000Y-127210000D02*
X51460000Y-127260000D01*
X51460000Y-125310000D02*
X51460000Y-126090000D01*
X51460000Y-124140000D02*
X51460000Y-124190000D01*
X49940000Y-127260000D02*
X49940000Y-126260000D01*
X49940000Y-125140000D02*
X49940000Y-124140000D01*
X49940000Y-124140000D02*
X51460000Y-124140000D01*
X52000000Y-126080000D02*
X51760000Y-125750000D01*
X52240000Y-125750000D01*
X52000000Y-126080000D01*
G36*
X52000000Y-126080000D02*
G01*
X51760000Y-125750000D01*
X52240000Y-125750000D01*
X52000000Y-126080000D01*
G37*
%TO.C,Q67*%
X65660000Y-119260000D02*
X64140000Y-119260000D01*
X65660000Y-119210000D02*
X65660000Y-119260000D01*
X65660000Y-117310000D02*
X65660000Y-118090000D01*
X65660000Y-116140000D02*
X65660000Y-116190000D01*
X64140000Y-119260000D02*
X64140000Y-118260000D01*
X64140000Y-117140000D02*
X64140000Y-116140000D01*
X64140000Y-116140000D02*
X65660000Y-116140000D01*
X66200000Y-118080000D02*
X65960000Y-117750000D01*
X66440000Y-117750000D01*
X66200000Y-118080000D01*
G36*
X66200000Y-118080000D02*
G01*
X65960000Y-117750000D01*
X66440000Y-117750000D01*
X66200000Y-118080000D01*
G37*
%TO.C,Q66*%
X70460000Y-119260000D02*
X68940000Y-119260000D01*
X70460000Y-119210000D02*
X70460000Y-119260000D01*
X70460000Y-117310000D02*
X70460000Y-118090000D01*
X70460000Y-116140000D02*
X70460000Y-116190000D01*
X68940000Y-119260000D02*
X68940000Y-118260000D01*
X68940000Y-117140000D02*
X68940000Y-116140000D01*
X68940000Y-116140000D02*
X70460000Y-116140000D01*
X71000000Y-118080000D02*
X70760000Y-117750000D01*
X71240000Y-117750000D01*
X71000000Y-118080000D01*
G36*
X71000000Y-118080000D02*
G01*
X70760000Y-117750000D01*
X71240000Y-117750000D01*
X71000000Y-118080000D01*
G37*
%TO.C,Q65*%
X46660000Y-131260000D02*
X45140000Y-131260000D01*
X46660000Y-131210000D02*
X46660000Y-131260000D01*
X46660000Y-129310000D02*
X46660000Y-130090000D01*
X46660000Y-128140000D02*
X46660000Y-128190000D01*
X45140000Y-131260000D02*
X45140000Y-130260000D01*
X45140000Y-129140000D02*
X45140000Y-128140000D01*
X45140000Y-128140000D02*
X46660000Y-128140000D01*
X47200000Y-130080000D02*
X46960000Y-129750000D01*
X47440000Y-129750000D01*
X47200000Y-130080000D01*
G36*
X47200000Y-130080000D02*
G01*
X46960000Y-129750000D01*
X47440000Y-129750000D01*
X47200000Y-130080000D01*
G37*
%TO.C,Q64*%
X51460000Y-131260000D02*
X49940000Y-131260000D01*
X51460000Y-131210000D02*
X51460000Y-131260000D01*
X51460000Y-129310000D02*
X51460000Y-130090000D01*
X51460000Y-128140000D02*
X51460000Y-128190000D01*
X49940000Y-131260000D02*
X49940000Y-130260000D01*
X49940000Y-129140000D02*
X49940000Y-128140000D01*
X49940000Y-128140000D02*
X51460000Y-128140000D01*
X52000000Y-130080000D02*
X51760000Y-129750000D01*
X52240000Y-129750000D01*
X52000000Y-130080000D01*
G36*
X52000000Y-130080000D02*
G01*
X51760000Y-129750000D01*
X52240000Y-129750000D01*
X52000000Y-130080000D01*
G37*
%TO.C,Q63*%
X65660000Y-115260000D02*
X64140000Y-115260000D01*
X65660000Y-115210000D02*
X65660000Y-115260000D01*
X65660000Y-113310000D02*
X65660000Y-114090000D01*
X65660000Y-112140000D02*
X65660000Y-112190000D01*
X64140000Y-115260000D02*
X64140000Y-114260000D01*
X64140000Y-113140000D02*
X64140000Y-112140000D01*
X64140000Y-112140000D02*
X65660000Y-112140000D01*
X66200000Y-114080000D02*
X65960000Y-113750000D01*
X66440000Y-113750000D01*
X66200000Y-114080000D01*
G36*
X66200000Y-114080000D02*
G01*
X65960000Y-113750000D01*
X66440000Y-113750000D01*
X66200000Y-114080000D01*
G37*
%TO.C,Q62*%
X70460000Y-115260000D02*
X68940000Y-115260000D01*
X70460000Y-115210000D02*
X70460000Y-115260000D01*
X70460000Y-113310000D02*
X70460000Y-114090000D01*
X70460000Y-112140000D02*
X70460000Y-112190000D01*
X68940000Y-115260000D02*
X68940000Y-114260000D01*
X68940000Y-113140000D02*
X68940000Y-112140000D01*
X68940000Y-112140000D02*
X70460000Y-112140000D01*
X71000000Y-114080000D02*
X70760000Y-113750000D01*
X71240000Y-113750000D01*
X71000000Y-114080000D01*
G36*
X71000000Y-114080000D02*
G01*
X70760000Y-113750000D01*
X71240000Y-113750000D01*
X71000000Y-114080000D01*
G37*
%TO.C,Q61*%
X46660000Y-135260000D02*
X45140000Y-135260000D01*
X46660000Y-135210000D02*
X46660000Y-135260000D01*
X46660000Y-133310000D02*
X46660000Y-134090000D01*
X46660000Y-132140000D02*
X46660000Y-132190000D01*
X45140000Y-135260000D02*
X45140000Y-134260000D01*
X45140000Y-133140000D02*
X45140000Y-132140000D01*
X45140000Y-132140000D02*
X46660000Y-132140000D01*
X47200000Y-134080000D02*
X46960000Y-133750000D01*
X47440000Y-133750000D01*
X47200000Y-134080000D01*
G36*
X47200000Y-134080000D02*
G01*
X46960000Y-133750000D01*
X47440000Y-133750000D01*
X47200000Y-134080000D01*
G37*
%TO.C,Q60*%
X51460000Y-135260000D02*
X49940000Y-135260000D01*
X51460000Y-135210000D02*
X51460000Y-135260000D01*
X51460000Y-133310000D02*
X51460000Y-134090000D01*
X51460000Y-132140000D02*
X51460000Y-132190000D01*
X49940000Y-135260000D02*
X49940000Y-134260000D01*
X49940000Y-133140000D02*
X49940000Y-132140000D01*
X49940000Y-132140000D02*
X51460000Y-132140000D01*
X52000000Y-134080000D02*
X51760000Y-133750000D01*
X52240000Y-133750000D01*
X52000000Y-134080000D01*
G36*
X52000000Y-134080000D02*
G01*
X51760000Y-133750000D01*
X52240000Y-133750000D01*
X52000000Y-134080000D01*
G37*
%TO.C,Q59*%
X65660000Y-111260000D02*
X64140000Y-111260000D01*
X65660000Y-111210000D02*
X65660000Y-111260000D01*
X65660000Y-109310000D02*
X65660000Y-110090000D01*
X65660000Y-108140000D02*
X65660000Y-108190000D01*
X64140000Y-111260000D02*
X64140000Y-110260000D01*
X64140000Y-109140000D02*
X64140000Y-108140000D01*
X64140000Y-108140000D02*
X65660000Y-108140000D01*
X66200000Y-110080000D02*
X65960000Y-109750000D01*
X66440000Y-109750000D01*
X66200000Y-110080000D01*
G36*
X66200000Y-110080000D02*
G01*
X65960000Y-109750000D01*
X66440000Y-109750000D01*
X66200000Y-110080000D01*
G37*
%TO.C,Q58*%
X70460000Y-111260000D02*
X68940000Y-111260000D01*
X70460000Y-111210000D02*
X70460000Y-111260000D01*
X70460000Y-109310000D02*
X70460000Y-110090000D01*
X70460000Y-108140000D02*
X70460000Y-108190000D01*
X68940000Y-111260000D02*
X68940000Y-110260000D01*
X68940000Y-109140000D02*
X68940000Y-108140000D01*
X68940000Y-108140000D02*
X70460000Y-108140000D01*
X71000000Y-110080000D02*
X70760000Y-109750000D01*
X71240000Y-109750000D01*
X71000000Y-110080000D01*
G36*
X71000000Y-110080000D02*
G01*
X70760000Y-109750000D01*
X71240000Y-109750000D01*
X71000000Y-110080000D01*
G37*
%TO.C,Q57*%
X46660000Y-139260000D02*
X45140000Y-139260000D01*
X46660000Y-139210000D02*
X46660000Y-139260000D01*
X46660000Y-137310000D02*
X46660000Y-138090000D01*
X46660000Y-136140000D02*
X46660000Y-136190000D01*
X45140000Y-139260000D02*
X45140000Y-138260000D01*
X45140000Y-137140000D02*
X45140000Y-136140000D01*
X45140000Y-136140000D02*
X46660000Y-136140000D01*
X47200000Y-138080000D02*
X46960000Y-137750000D01*
X47440000Y-137750000D01*
X47200000Y-138080000D01*
G36*
X47200000Y-138080000D02*
G01*
X46960000Y-137750000D01*
X47440000Y-137750000D01*
X47200000Y-138080000D01*
G37*
%TO.C,Q56*%
X51460000Y-139260000D02*
X49940000Y-139260000D01*
X51460000Y-139210000D02*
X51460000Y-139260000D01*
X51460000Y-137310000D02*
X51460000Y-138090000D01*
X51460000Y-136140000D02*
X51460000Y-136190000D01*
X49940000Y-139260000D02*
X49940000Y-138260000D01*
X49940000Y-137140000D02*
X49940000Y-136140000D01*
X49940000Y-136140000D02*
X51460000Y-136140000D01*
X52000000Y-138080000D02*
X51760000Y-137750000D01*
X52240000Y-137750000D01*
X52000000Y-138080000D01*
G36*
X52000000Y-138080000D02*
G01*
X51760000Y-137750000D01*
X52240000Y-137750000D01*
X52000000Y-138080000D01*
G37*
%TO.C,Q55*%
X55660000Y-97640000D02*
X55660000Y-99160000D01*
X55610000Y-97640000D02*
X55660000Y-97640000D01*
X53710000Y-97640000D02*
X54490000Y-97640000D01*
X52540000Y-97640000D02*
X52590000Y-97640000D01*
X55660000Y-99160000D02*
X54660000Y-99160000D01*
X53540000Y-99160000D02*
X52540000Y-99160000D01*
X52540000Y-99160000D02*
X52540000Y-97640000D01*
X54480000Y-97100000D02*
X54150000Y-97340000D01*
X54150000Y-96860000D01*
X54480000Y-97100000D01*
G36*
X54480000Y-97100000D02*
G01*
X54150000Y-97340000D01*
X54150000Y-96860000D01*
X54480000Y-97100000D01*
G37*
%TO.C,Q54*%
X59660000Y-97640000D02*
X59660000Y-99160000D01*
X59610000Y-97640000D02*
X59660000Y-97640000D01*
X57710000Y-97640000D02*
X58490000Y-97640000D01*
X56540000Y-97640000D02*
X56590000Y-97640000D01*
X59660000Y-99160000D02*
X58660000Y-99160000D01*
X57540000Y-99160000D02*
X56540000Y-99160000D01*
X56540000Y-99160000D02*
X56540000Y-97640000D01*
X58480000Y-97100000D02*
X58150000Y-97340000D01*
X58150000Y-96860000D01*
X58480000Y-97100000D01*
G36*
X58480000Y-97100000D02*
G01*
X58150000Y-97340000D01*
X58150000Y-96860000D01*
X58480000Y-97100000D01*
G37*
%TO.C,Q53*%
X68660000Y-97640000D02*
X68660000Y-99160000D01*
X68610000Y-97640000D02*
X68660000Y-97640000D01*
X66710000Y-97640000D02*
X67490000Y-97640000D01*
X65540000Y-97640000D02*
X65590000Y-97640000D01*
X68660000Y-99160000D02*
X67660000Y-99160000D01*
X66540000Y-99160000D02*
X65540000Y-99160000D01*
X65540000Y-99160000D02*
X65540000Y-97640000D01*
X67480000Y-97100000D02*
X67150000Y-97340000D01*
X67150000Y-96860000D01*
X67480000Y-97100000D01*
G36*
X67480000Y-97100000D02*
G01*
X67150000Y-97340000D01*
X67150000Y-96860000D01*
X67480000Y-97100000D01*
G37*
%TO.C,Q52*%
X72660000Y-97640000D02*
X72660000Y-99160000D01*
X72610000Y-97640000D02*
X72660000Y-97640000D01*
X70710000Y-97640000D02*
X71490000Y-97640000D01*
X69540000Y-97640000D02*
X69590000Y-97640000D01*
X72660000Y-99160000D02*
X71660000Y-99160000D01*
X70540000Y-99160000D02*
X69540000Y-99160000D01*
X69540000Y-99160000D02*
X69540000Y-97640000D01*
X71480000Y-97100000D02*
X71150000Y-97340000D01*
X71150000Y-96860000D01*
X71480000Y-97100000D01*
G36*
X71480000Y-97100000D02*
G01*
X71150000Y-97340000D01*
X71150000Y-96860000D01*
X71480000Y-97100000D01*
G37*
%TO.C,Q51*%
X60540000Y-99160000D02*
X60540000Y-97640000D01*
X60590000Y-99160000D02*
X60540000Y-99160000D01*
X62490000Y-99160000D02*
X61710000Y-99160000D01*
X63660000Y-99160000D02*
X63610000Y-99160000D01*
X60540000Y-97640000D02*
X61540000Y-97640000D01*
X62660000Y-97640000D02*
X63660000Y-97640000D01*
X63660000Y-97640000D02*
X63660000Y-99160000D01*
X62050000Y-99940000D02*
X61720000Y-99700000D01*
X62050000Y-99460000D01*
X62050000Y-99940000D01*
G36*
X62050000Y-99940000D02*
G01*
X61720000Y-99700000D01*
X62050000Y-99460000D01*
X62050000Y-99940000D01*
G37*
%TO.C,Q50*%
X73540000Y-99160000D02*
X73540000Y-97640000D01*
X73590000Y-99160000D02*
X73540000Y-99160000D01*
X75490000Y-99160000D02*
X74710000Y-99160000D01*
X76660000Y-99160000D02*
X76610000Y-99160000D01*
X73540000Y-97640000D02*
X74540000Y-97640000D01*
X75660000Y-97640000D02*
X76660000Y-97640000D01*
X76660000Y-97640000D02*
X76660000Y-99160000D01*
X75050000Y-99940000D02*
X74720000Y-99700000D01*
X75050000Y-99460000D01*
X75050000Y-99940000D01*
G36*
X75050000Y-99940000D02*
G01*
X74720000Y-99700000D01*
X75050000Y-99460000D01*
X75050000Y-99940000D01*
G37*
%TO.C,Q49*%
X55660000Y-93140000D02*
X55660000Y-94660000D01*
X55610000Y-93140000D02*
X55660000Y-93140000D01*
X53710000Y-93140000D02*
X54490000Y-93140000D01*
X52540000Y-93140000D02*
X52590000Y-93140000D01*
X55660000Y-94660000D02*
X54660000Y-94660000D01*
X53540000Y-94660000D02*
X52540000Y-94660000D01*
X52540000Y-94660000D02*
X52540000Y-93140000D01*
X54480000Y-92600000D02*
X54150000Y-92840000D01*
X54150000Y-92360000D01*
X54480000Y-92600000D01*
G36*
X54480000Y-92600000D02*
G01*
X54150000Y-92840000D01*
X54150000Y-92360000D01*
X54480000Y-92600000D01*
G37*
%TO.C,Q48*%
X59660000Y-93140000D02*
X59660000Y-94660000D01*
X59610000Y-93140000D02*
X59660000Y-93140000D01*
X57710000Y-93140000D02*
X58490000Y-93140000D01*
X56540000Y-93140000D02*
X56590000Y-93140000D01*
X59660000Y-94660000D02*
X58660000Y-94660000D01*
X57540000Y-94660000D02*
X56540000Y-94660000D01*
X56540000Y-94660000D02*
X56540000Y-93140000D01*
X58480000Y-92600000D02*
X58150000Y-92840000D01*
X58150000Y-92360000D01*
X58480000Y-92600000D01*
G36*
X58480000Y-92600000D02*
G01*
X58150000Y-92840000D01*
X58150000Y-92360000D01*
X58480000Y-92600000D01*
G37*
%TO.C,Q47*%
X68660000Y-93140000D02*
X68660000Y-94660000D01*
X68610000Y-93140000D02*
X68660000Y-93140000D01*
X66710000Y-93140000D02*
X67490000Y-93140000D01*
X65540000Y-93140000D02*
X65590000Y-93140000D01*
X68660000Y-94660000D02*
X67660000Y-94660000D01*
X66540000Y-94660000D02*
X65540000Y-94660000D01*
X65540000Y-94660000D02*
X65540000Y-93140000D01*
X67480000Y-92600000D02*
X67150000Y-92840000D01*
X67150000Y-92360000D01*
X67480000Y-92600000D01*
G36*
X67480000Y-92600000D02*
G01*
X67150000Y-92840000D01*
X67150000Y-92360000D01*
X67480000Y-92600000D01*
G37*
%TO.C,Q46*%
X72660000Y-93140000D02*
X72660000Y-94660000D01*
X72610000Y-93140000D02*
X72660000Y-93140000D01*
X70710000Y-93140000D02*
X71490000Y-93140000D01*
X69540000Y-93140000D02*
X69590000Y-93140000D01*
X72660000Y-94660000D02*
X71660000Y-94660000D01*
X70540000Y-94660000D02*
X69540000Y-94660000D01*
X69540000Y-94660000D02*
X69540000Y-93140000D01*
X71480000Y-92600000D02*
X71150000Y-92840000D01*
X71150000Y-92360000D01*
X71480000Y-92600000D01*
G36*
X71480000Y-92600000D02*
G01*
X71150000Y-92840000D01*
X71150000Y-92360000D01*
X71480000Y-92600000D01*
G37*
%TO.C,Q45*%
X60540000Y-94660000D02*
X60540000Y-93140000D01*
X60590000Y-94660000D02*
X60540000Y-94660000D01*
X62490000Y-94660000D02*
X61710000Y-94660000D01*
X63660000Y-94660000D02*
X63610000Y-94660000D01*
X60540000Y-93140000D02*
X61540000Y-93140000D01*
X62660000Y-93140000D02*
X63660000Y-93140000D01*
X63660000Y-93140000D02*
X63660000Y-94660000D01*
X62050000Y-95440000D02*
X61720000Y-95200000D01*
X62050000Y-94960000D01*
X62050000Y-95440000D01*
G36*
X62050000Y-95440000D02*
G01*
X61720000Y-95200000D01*
X62050000Y-94960000D01*
X62050000Y-95440000D01*
G37*
%TO.C,Q43*%
X55660000Y-88640000D02*
X55660000Y-90160000D01*
X55610000Y-88640000D02*
X55660000Y-88640000D01*
X53710000Y-88640000D02*
X54490000Y-88640000D01*
X52540000Y-88640000D02*
X52590000Y-88640000D01*
X55660000Y-90160000D02*
X54660000Y-90160000D01*
X53540000Y-90160000D02*
X52540000Y-90160000D01*
X52540000Y-90160000D02*
X52540000Y-88640000D01*
X54480000Y-88100000D02*
X54150000Y-88340000D01*
X54150000Y-87860000D01*
X54480000Y-88100000D01*
G36*
X54480000Y-88100000D02*
G01*
X54150000Y-88340000D01*
X54150000Y-87860000D01*
X54480000Y-88100000D01*
G37*
%TO.C,Q42*%
X59660000Y-88640000D02*
X59660000Y-90160000D01*
X59610000Y-88640000D02*
X59660000Y-88640000D01*
X57710000Y-88640000D02*
X58490000Y-88640000D01*
X56540000Y-88640000D02*
X56590000Y-88640000D01*
X59660000Y-90160000D02*
X58660000Y-90160000D01*
X57540000Y-90160000D02*
X56540000Y-90160000D01*
X56540000Y-90160000D02*
X56540000Y-88640000D01*
X58480000Y-88100000D02*
X58150000Y-88340000D01*
X58150000Y-87860000D01*
X58480000Y-88100000D01*
G36*
X58480000Y-88100000D02*
G01*
X58150000Y-88340000D01*
X58150000Y-87860000D01*
X58480000Y-88100000D01*
G37*
%TO.C,Q41*%
X68660000Y-88640000D02*
X68660000Y-90160000D01*
X68610000Y-88640000D02*
X68660000Y-88640000D01*
X66710000Y-88640000D02*
X67490000Y-88640000D01*
X65540000Y-88640000D02*
X65590000Y-88640000D01*
X68660000Y-90160000D02*
X67660000Y-90160000D01*
X66540000Y-90160000D02*
X65540000Y-90160000D01*
X65540000Y-90160000D02*
X65540000Y-88640000D01*
X67480000Y-88100000D02*
X67150000Y-88340000D01*
X67150000Y-87860000D01*
X67480000Y-88100000D01*
G36*
X67480000Y-88100000D02*
G01*
X67150000Y-88340000D01*
X67150000Y-87860000D01*
X67480000Y-88100000D01*
G37*
%TO.C,Q40*%
X72660000Y-88640000D02*
X72660000Y-90160000D01*
X72610000Y-88640000D02*
X72660000Y-88640000D01*
X70710000Y-88640000D02*
X71490000Y-88640000D01*
X69540000Y-88640000D02*
X69590000Y-88640000D01*
X72660000Y-90160000D02*
X71660000Y-90160000D01*
X70540000Y-90160000D02*
X69540000Y-90160000D01*
X69540000Y-90160000D02*
X69540000Y-88640000D01*
X71480000Y-88100000D02*
X71150000Y-88340000D01*
X71150000Y-87860000D01*
X71480000Y-88100000D01*
G36*
X71480000Y-88100000D02*
G01*
X71150000Y-88340000D01*
X71150000Y-87860000D01*
X71480000Y-88100000D01*
G37*
%TO.C,Q39*%
X60540000Y-90160000D02*
X60540000Y-88640000D01*
X60590000Y-90160000D02*
X60540000Y-90160000D01*
X62490000Y-90160000D02*
X61710000Y-90160000D01*
X63660000Y-90160000D02*
X63610000Y-90160000D01*
X60540000Y-88640000D02*
X61540000Y-88640000D01*
X62660000Y-88640000D02*
X63660000Y-88640000D01*
X63660000Y-88640000D02*
X63660000Y-90160000D01*
X62050000Y-90940000D02*
X61720000Y-90700000D01*
X62050000Y-90460000D01*
X62050000Y-90940000D01*
G36*
X62050000Y-90940000D02*
G01*
X61720000Y-90700000D01*
X62050000Y-90460000D01*
X62050000Y-90940000D01*
G37*
%TO.C,Q38*%
X73540000Y-90060000D02*
X73540000Y-88540000D01*
X73590000Y-90060000D02*
X73540000Y-90060000D01*
X75490000Y-90060000D02*
X74710000Y-90060000D01*
X76660000Y-90060000D02*
X76610000Y-90060000D01*
X73540000Y-88540000D02*
X74540000Y-88540000D01*
X75660000Y-88540000D02*
X76660000Y-88540000D01*
X76660000Y-88540000D02*
X76660000Y-90060000D01*
X75050000Y-90840000D02*
X74720000Y-90600000D01*
X75050000Y-90360000D01*
X75050000Y-90840000D01*
G36*
X75050000Y-90840000D02*
G01*
X74720000Y-90600000D01*
X75050000Y-90360000D01*
X75050000Y-90840000D01*
G37*
%TO.C,Q37*%
X55660000Y-84140000D02*
X55660000Y-85660000D01*
X55610000Y-84140000D02*
X55660000Y-84140000D01*
X53710000Y-84140000D02*
X54490000Y-84140000D01*
X52540000Y-84140000D02*
X52590000Y-84140000D01*
X55660000Y-85660000D02*
X54660000Y-85660000D01*
X53540000Y-85660000D02*
X52540000Y-85660000D01*
X52540000Y-85660000D02*
X52540000Y-84140000D01*
X54480000Y-83600000D02*
X54150000Y-83840000D01*
X54150000Y-83360000D01*
X54480000Y-83600000D01*
G36*
X54480000Y-83600000D02*
G01*
X54150000Y-83840000D01*
X54150000Y-83360000D01*
X54480000Y-83600000D01*
G37*
%TO.C,Q36*%
X59660000Y-84140000D02*
X59660000Y-85660000D01*
X59610000Y-84140000D02*
X59660000Y-84140000D01*
X57710000Y-84140000D02*
X58490000Y-84140000D01*
X56540000Y-84140000D02*
X56590000Y-84140000D01*
X59660000Y-85660000D02*
X58660000Y-85660000D01*
X57540000Y-85660000D02*
X56540000Y-85660000D01*
X56540000Y-85660000D02*
X56540000Y-84140000D01*
X58480000Y-83600000D02*
X58150000Y-83840000D01*
X58150000Y-83360000D01*
X58480000Y-83600000D01*
G36*
X58480000Y-83600000D02*
G01*
X58150000Y-83840000D01*
X58150000Y-83360000D01*
X58480000Y-83600000D01*
G37*
%TO.C,Q35*%
X68660000Y-84140000D02*
X68660000Y-85660000D01*
X68610000Y-84140000D02*
X68660000Y-84140000D01*
X66710000Y-84140000D02*
X67490000Y-84140000D01*
X65540000Y-84140000D02*
X65590000Y-84140000D01*
X68660000Y-85660000D02*
X67660000Y-85660000D01*
X66540000Y-85660000D02*
X65540000Y-85660000D01*
X65540000Y-85660000D02*
X65540000Y-84140000D01*
X67480000Y-83600000D02*
X67150000Y-83840000D01*
X67150000Y-83360000D01*
X67480000Y-83600000D01*
G36*
X67480000Y-83600000D02*
G01*
X67150000Y-83840000D01*
X67150000Y-83360000D01*
X67480000Y-83600000D01*
G37*
%TO.C,Q34*%
X72660000Y-84140000D02*
X72660000Y-85660000D01*
X72610000Y-84140000D02*
X72660000Y-84140000D01*
X70710000Y-84140000D02*
X71490000Y-84140000D01*
X69540000Y-84140000D02*
X69590000Y-84140000D01*
X72660000Y-85660000D02*
X71660000Y-85660000D01*
X70540000Y-85660000D02*
X69540000Y-85660000D01*
X69540000Y-85660000D02*
X69540000Y-84140000D01*
X71480000Y-83600000D02*
X71150000Y-83840000D01*
X71150000Y-83360000D01*
X71480000Y-83600000D01*
G36*
X71480000Y-83600000D02*
G01*
X71150000Y-83840000D01*
X71150000Y-83360000D01*
X71480000Y-83600000D01*
G37*
%TO.C,Q33*%
X60540000Y-85760000D02*
X60540000Y-84240000D01*
X60590000Y-85760000D02*
X60540000Y-85760000D01*
X62490000Y-85760000D02*
X61710000Y-85760000D01*
X63660000Y-85760000D02*
X63610000Y-85760000D01*
X60540000Y-84240000D02*
X61540000Y-84240000D01*
X62660000Y-84240000D02*
X63660000Y-84240000D01*
X63660000Y-84240000D02*
X63660000Y-85760000D01*
X62050000Y-86540000D02*
X61720000Y-86300000D01*
X62050000Y-86060000D01*
X62050000Y-86540000D01*
G36*
X62050000Y-86540000D02*
G01*
X61720000Y-86300000D01*
X62050000Y-86060000D01*
X62050000Y-86540000D01*
G37*
%TO.C,Q32*%
X73540000Y-85660000D02*
X73540000Y-84140000D01*
X73590000Y-85660000D02*
X73540000Y-85660000D01*
X75490000Y-85660000D02*
X74710000Y-85660000D01*
X76660000Y-85660000D02*
X76610000Y-85660000D01*
X73540000Y-84140000D02*
X74540000Y-84140000D01*
X75660000Y-84140000D02*
X76660000Y-84140000D01*
X76660000Y-84140000D02*
X76660000Y-85660000D01*
X75050000Y-86440000D02*
X74720000Y-86200000D01*
X75050000Y-85960000D01*
X75050000Y-86440000D01*
G36*
X75050000Y-86440000D02*
G01*
X74720000Y-86200000D01*
X75050000Y-85960000D01*
X75050000Y-86440000D01*
G37*
%TO.C,Q31*%
X55660000Y-79640000D02*
X55660000Y-81160000D01*
X55610000Y-79640000D02*
X55660000Y-79640000D01*
X53710000Y-79640000D02*
X54490000Y-79640000D01*
X52540000Y-79640000D02*
X52590000Y-79640000D01*
X55660000Y-81160000D02*
X54660000Y-81160000D01*
X53540000Y-81160000D02*
X52540000Y-81160000D01*
X52540000Y-81160000D02*
X52540000Y-79640000D01*
X54480000Y-79100000D02*
X54150000Y-79340000D01*
X54150000Y-78860000D01*
X54480000Y-79100000D01*
G36*
X54480000Y-79100000D02*
G01*
X54150000Y-79340000D01*
X54150000Y-78860000D01*
X54480000Y-79100000D01*
G37*
%TO.C,Q30*%
X59660000Y-79640000D02*
X59660000Y-81160000D01*
X59610000Y-79640000D02*
X59660000Y-79640000D01*
X57710000Y-79640000D02*
X58490000Y-79640000D01*
X56540000Y-79640000D02*
X56590000Y-79640000D01*
X59660000Y-81160000D02*
X58660000Y-81160000D01*
X57540000Y-81160000D02*
X56540000Y-81160000D01*
X56540000Y-81160000D02*
X56540000Y-79640000D01*
X58480000Y-79100000D02*
X58150000Y-79340000D01*
X58150000Y-78860000D01*
X58480000Y-79100000D01*
G36*
X58480000Y-79100000D02*
G01*
X58150000Y-79340000D01*
X58150000Y-78860000D01*
X58480000Y-79100000D01*
G37*
%TO.C,Q29*%
X68660000Y-79640000D02*
X68660000Y-81160000D01*
X68610000Y-79640000D02*
X68660000Y-79640000D01*
X66710000Y-79640000D02*
X67490000Y-79640000D01*
X65540000Y-79640000D02*
X65590000Y-79640000D01*
X68660000Y-81160000D02*
X67660000Y-81160000D01*
X66540000Y-81160000D02*
X65540000Y-81160000D01*
X65540000Y-81160000D02*
X65540000Y-79640000D01*
X67480000Y-79100000D02*
X67150000Y-79340000D01*
X67150000Y-78860000D01*
X67480000Y-79100000D01*
G36*
X67480000Y-79100000D02*
G01*
X67150000Y-79340000D01*
X67150000Y-78860000D01*
X67480000Y-79100000D01*
G37*
%TO.C,Q28*%
X72660000Y-79640000D02*
X72660000Y-81160000D01*
X72610000Y-79640000D02*
X72660000Y-79640000D01*
X70710000Y-79640000D02*
X71490000Y-79640000D01*
X69540000Y-79640000D02*
X69590000Y-79640000D01*
X72660000Y-81160000D02*
X71660000Y-81160000D01*
X70540000Y-81160000D02*
X69540000Y-81160000D01*
X69540000Y-81160000D02*
X69540000Y-79640000D01*
X71480000Y-79100000D02*
X71150000Y-79340000D01*
X71150000Y-78860000D01*
X71480000Y-79100000D01*
G36*
X71480000Y-79100000D02*
G01*
X71150000Y-79340000D01*
X71150000Y-78860000D01*
X71480000Y-79100000D01*
G37*
%TO.C,Q27*%
X60540000Y-81160000D02*
X60540000Y-79640000D01*
X60590000Y-81160000D02*
X60540000Y-81160000D01*
X62490000Y-81160000D02*
X61710000Y-81160000D01*
X63660000Y-81160000D02*
X63610000Y-81160000D01*
X60540000Y-79640000D02*
X61540000Y-79640000D01*
X62660000Y-79640000D02*
X63660000Y-79640000D01*
X63660000Y-79640000D02*
X63660000Y-81160000D01*
X62050000Y-81940000D02*
X61720000Y-81700000D01*
X62050000Y-81460000D01*
X62050000Y-81940000D01*
G36*
X62050000Y-81940000D02*
G01*
X61720000Y-81700000D01*
X62050000Y-81460000D01*
X62050000Y-81940000D01*
G37*
%TO.C,Q26*%
X73540000Y-81060000D02*
X73540000Y-79540000D01*
X73590000Y-81060000D02*
X73540000Y-81060000D01*
X75490000Y-81060000D02*
X74710000Y-81060000D01*
X76660000Y-81060000D02*
X76610000Y-81060000D01*
X73540000Y-79540000D02*
X74540000Y-79540000D01*
X75660000Y-79540000D02*
X76660000Y-79540000D01*
X76660000Y-79540000D02*
X76660000Y-81060000D01*
X75050000Y-81840000D02*
X74720000Y-81600000D01*
X75050000Y-81360000D01*
X75050000Y-81840000D01*
G36*
X75050000Y-81840000D02*
G01*
X74720000Y-81600000D01*
X75050000Y-81360000D01*
X75050000Y-81840000D01*
G37*
%TO.C,Q25*%
X77660000Y-121260000D02*
X76140000Y-121260000D01*
X77660000Y-121210000D02*
X77660000Y-121260000D01*
X77660000Y-119310000D02*
X77660000Y-120090000D01*
X77660000Y-118140000D02*
X77660000Y-118190000D01*
X76140000Y-121260000D02*
X76140000Y-120260000D01*
X76140000Y-119140000D02*
X76140000Y-118140000D01*
X76140000Y-118140000D02*
X77660000Y-118140000D01*
X78200000Y-120080000D02*
X77960000Y-119750000D01*
X78440000Y-119750000D01*
X78200000Y-120080000D01*
G36*
X78200000Y-120080000D02*
G01*
X77960000Y-119750000D01*
X78440000Y-119750000D01*
X78200000Y-120080000D01*
G37*
%TO.C,Q24*%
X55660000Y-75140000D02*
X55660000Y-76660000D01*
X55610000Y-75140000D02*
X55660000Y-75140000D01*
X53710000Y-75140000D02*
X54490000Y-75140000D01*
X52540000Y-75140000D02*
X52590000Y-75140000D01*
X55660000Y-76660000D02*
X54660000Y-76660000D01*
X53540000Y-76660000D02*
X52540000Y-76660000D01*
X52540000Y-76660000D02*
X52540000Y-75140000D01*
X54480000Y-74600000D02*
X54150000Y-74840000D01*
X54150000Y-74360000D01*
X54480000Y-74600000D01*
G36*
X54480000Y-74600000D02*
G01*
X54150000Y-74840000D01*
X54150000Y-74360000D01*
X54480000Y-74600000D01*
G37*
%TO.C,Q23*%
X59660000Y-75140000D02*
X59660000Y-76660000D01*
X59610000Y-75140000D02*
X59660000Y-75140000D01*
X57710000Y-75140000D02*
X58490000Y-75140000D01*
X56540000Y-75140000D02*
X56590000Y-75140000D01*
X59660000Y-76660000D02*
X58660000Y-76660000D01*
X57540000Y-76660000D02*
X56540000Y-76660000D01*
X56540000Y-76660000D02*
X56540000Y-75140000D01*
X58480000Y-74600000D02*
X58150000Y-74840000D01*
X58150000Y-74360000D01*
X58480000Y-74600000D01*
G36*
X58480000Y-74600000D02*
G01*
X58150000Y-74840000D01*
X58150000Y-74360000D01*
X58480000Y-74600000D01*
G37*
%TO.C,Q22*%
X68660000Y-75140000D02*
X68660000Y-76660000D01*
X68610000Y-75140000D02*
X68660000Y-75140000D01*
X66710000Y-75140000D02*
X67490000Y-75140000D01*
X65540000Y-75140000D02*
X65590000Y-75140000D01*
X68660000Y-76660000D02*
X67660000Y-76660000D01*
X66540000Y-76660000D02*
X65540000Y-76660000D01*
X65540000Y-76660000D02*
X65540000Y-75140000D01*
X67480000Y-74600000D02*
X67150000Y-74840000D01*
X67150000Y-74360000D01*
X67480000Y-74600000D01*
G36*
X67480000Y-74600000D02*
G01*
X67150000Y-74840000D01*
X67150000Y-74360000D01*
X67480000Y-74600000D01*
G37*
%TO.C,Q21*%
X72660000Y-75140000D02*
X72660000Y-76660000D01*
X72610000Y-75140000D02*
X72660000Y-75140000D01*
X70710000Y-75140000D02*
X71490000Y-75140000D01*
X69540000Y-75140000D02*
X69590000Y-75140000D01*
X72660000Y-76660000D02*
X71660000Y-76660000D01*
X70540000Y-76660000D02*
X69540000Y-76660000D01*
X69540000Y-76660000D02*
X69540000Y-75140000D01*
X71480000Y-74600000D02*
X71150000Y-74840000D01*
X71150000Y-74360000D01*
X71480000Y-74600000D01*
G36*
X71480000Y-74600000D02*
G01*
X71150000Y-74840000D01*
X71150000Y-74360000D01*
X71480000Y-74600000D01*
G37*
%TO.C,Q20*%
X81760000Y-121260000D02*
X80240000Y-121260000D01*
X81760000Y-121210000D02*
X81760000Y-121260000D01*
X81760000Y-119310000D02*
X81760000Y-120090000D01*
X81760000Y-118140000D02*
X81760000Y-118190000D01*
X80240000Y-121260000D02*
X80240000Y-120260000D01*
X80240000Y-119140000D02*
X80240000Y-118140000D01*
X80240000Y-118140000D02*
X81760000Y-118140000D01*
X82300000Y-120080000D02*
X82060000Y-119750000D01*
X82540000Y-119750000D01*
X82300000Y-120080000D01*
G36*
X82300000Y-120080000D02*
G01*
X82060000Y-119750000D01*
X82540000Y-119750000D01*
X82300000Y-120080000D01*
G37*
%TO.C,Q19*%
X60540000Y-76660000D02*
X60540000Y-75140000D01*
X60590000Y-76660000D02*
X60540000Y-76660000D01*
X62490000Y-76660000D02*
X61710000Y-76660000D01*
X63660000Y-76660000D02*
X63610000Y-76660000D01*
X60540000Y-75140000D02*
X61540000Y-75140000D01*
X62660000Y-75140000D02*
X63660000Y-75140000D01*
X63660000Y-75140000D02*
X63660000Y-76660000D01*
X62050000Y-77440000D02*
X61720000Y-77200000D01*
X62050000Y-76960000D01*
X62050000Y-77440000D01*
G36*
X62050000Y-77440000D02*
G01*
X61720000Y-77200000D01*
X62050000Y-76960000D01*
X62050000Y-77440000D01*
G37*
%TO.C,Q18*%
X73540000Y-76660000D02*
X73540000Y-75140000D01*
X73590000Y-76660000D02*
X73540000Y-76660000D01*
X75490000Y-76660000D02*
X74710000Y-76660000D01*
X76660000Y-76660000D02*
X76610000Y-76660000D01*
X73540000Y-75140000D02*
X74540000Y-75140000D01*
X75660000Y-75140000D02*
X76660000Y-75140000D01*
X76660000Y-75140000D02*
X76660000Y-76660000D01*
X75050000Y-77440000D02*
X74720000Y-77200000D01*
X75050000Y-76960000D01*
X75050000Y-77440000D01*
G36*
X75050000Y-77440000D02*
G01*
X74720000Y-77200000D01*
X75050000Y-76960000D01*
X75050000Y-77440000D01*
G37*
%TO.C,Q17*%
X55660000Y-70640000D02*
X55660000Y-72160000D01*
X55610000Y-70640000D02*
X55660000Y-70640000D01*
X53710000Y-70640000D02*
X54490000Y-70640000D01*
X52540000Y-70640000D02*
X52590000Y-70640000D01*
X55660000Y-72160000D02*
X54660000Y-72160000D01*
X53540000Y-72160000D02*
X52540000Y-72160000D01*
X52540000Y-72160000D02*
X52540000Y-70640000D01*
X54480000Y-70100000D02*
X54150000Y-70340000D01*
X54150000Y-69860000D01*
X54480000Y-70100000D01*
G36*
X54480000Y-70100000D02*
G01*
X54150000Y-70340000D01*
X54150000Y-69860000D01*
X54480000Y-70100000D01*
G37*
%TO.C,Q16*%
X59660000Y-70640000D02*
X59660000Y-72160000D01*
X59610000Y-70640000D02*
X59660000Y-70640000D01*
X57710000Y-70640000D02*
X58490000Y-70640000D01*
X56540000Y-70640000D02*
X56590000Y-70640000D01*
X59660000Y-72160000D02*
X58660000Y-72160000D01*
X57540000Y-72160000D02*
X56540000Y-72160000D01*
X56540000Y-72160000D02*
X56540000Y-70640000D01*
X58480000Y-70100000D02*
X58150000Y-70340000D01*
X58150000Y-69860000D01*
X58480000Y-70100000D01*
G36*
X58480000Y-70100000D02*
G01*
X58150000Y-70340000D01*
X58150000Y-69860000D01*
X58480000Y-70100000D01*
G37*
%TO.C,Q15*%
X68660000Y-70640000D02*
X68660000Y-72160000D01*
X68610000Y-70640000D02*
X68660000Y-70640000D01*
X66710000Y-70640000D02*
X67490000Y-70640000D01*
X65540000Y-70640000D02*
X65590000Y-70640000D01*
X68660000Y-72160000D02*
X67660000Y-72160000D01*
X66540000Y-72160000D02*
X65540000Y-72160000D01*
X65540000Y-72160000D02*
X65540000Y-70640000D01*
X67480000Y-70100000D02*
X67150000Y-70340000D01*
X67150000Y-69860000D01*
X67480000Y-70100000D01*
G36*
X67480000Y-70100000D02*
G01*
X67150000Y-70340000D01*
X67150000Y-69860000D01*
X67480000Y-70100000D01*
G37*
%TO.C,Q14*%
X72660000Y-70640000D02*
X72660000Y-72160000D01*
X72610000Y-70640000D02*
X72660000Y-70640000D01*
X70710000Y-70640000D02*
X71490000Y-70640000D01*
X69540000Y-70640000D02*
X69590000Y-70640000D01*
X72660000Y-72160000D02*
X71660000Y-72160000D01*
X70540000Y-72160000D02*
X69540000Y-72160000D01*
X69540000Y-72160000D02*
X69540000Y-70640000D01*
X71480000Y-70100000D02*
X71150000Y-70340000D01*
X71150000Y-69860000D01*
X71480000Y-70100000D01*
G36*
X71480000Y-70100000D02*
G01*
X71150000Y-70340000D01*
X71150000Y-69860000D01*
X71480000Y-70100000D01*
G37*
%TO.C,Q13*%
X78060000Y-125970000D02*
X76540000Y-125970000D01*
X78060000Y-125920000D02*
X78060000Y-125970000D01*
X78060000Y-124020000D02*
X78060000Y-124800000D01*
X78060000Y-122850000D02*
X78060000Y-122900000D01*
X76540000Y-125970000D02*
X76540000Y-124970000D01*
X76540000Y-123850000D02*
X76540000Y-122850000D01*
X76540000Y-122850000D02*
X78060000Y-122850000D01*
X78600000Y-124790000D02*
X78360000Y-124460000D01*
X78840000Y-124460000D01*
X78600000Y-124790000D01*
G36*
X78600000Y-124790000D02*
G01*
X78360000Y-124460000D01*
X78840000Y-124460000D01*
X78600000Y-124790000D01*
G37*
%TO.C,Q12*%
X60540000Y-72160000D02*
X60540000Y-70640000D01*
X60590000Y-72160000D02*
X60540000Y-72160000D01*
X62490000Y-72160000D02*
X61710000Y-72160000D01*
X63660000Y-72160000D02*
X63610000Y-72160000D01*
X60540000Y-70640000D02*
X61540000Y-70640000D01*
X62660000Y-70640000D02*
X63660000Y-70640000D01*
X63660000Y-70640000D02*
X63660000Y-72160000D01*
X62050000Y-72940000D02*
X61720000Y-72700000D01*
X62050000Y-72460000D01*
X62050000Y-72940000D01*
G36*
X62050000Y-72940000D02*
G01*
X61720000Y-72700000D01*
X62050000Y-72460000D01*
X62050000Y-72940000D01*
G37*
%TO.C,Q11*%
X73540000Y-72060000D02*
X73540000Y-70540000D01*
X73590000Y-72060000D02*
X73540000Y-72060000D01*
X75490000Y-72060000D02*
X74710000Y-72060000D01*
X76660000Y-72060000D02*
X76610000Y-72060000D01*
X73540000Y-70540000D02*
X74540000Y-70540000D01*
X75660000Y-70540000D02*
X76660000Y-70540000D01*
X76660000Y-70540000D02*
X76660000Y-72060000D01*
X75050000Y-72840000D02*
X74720000Y-72600000D01*
X75050000Y-72360000D01*
X75050000Y-72840000D01*
G36*
X75050000Y-72840000D02*
G01*
X74720000Y-72600000D01*
X75050000Y-72360000D01*
X75050000Y-72840000D01*
G37*
%TO.C,Q10*%
X83060000Y-125970000D02*
X81540000Y-125970000D01*
X83060000Y-125920000D02*
X83060000Y-125970000D01*
X83060000Y-124020000D02*
X83060000Y-124800000D01*
X83060000Y-122850000D02*
X83060000Y-122900000D01*
X81540000Y-125970000D02*
X81540000Y-124970000D01*
X81540000Y-123850000D02*
X81540000Y-122850000D01*
X81540000Y-122850000D02*
X83060000Y-122850000D01*
X83600000Y-124790000D02*
X83360000Y-124460000D01*
X83840000Y-124460000D01*
X83600000Y-124790000D01*
G36*
X83600000Y-124790000D02*
G01*
X83360000Y-124460000D01*
X83840000Y-124460000D01*
X83600000Y-124790000D01*
G37*
%TO.C,Q9*%
X55660000Y-66140000D02*
X55660000Y-67660000D01*
X55610000Y-66140000D02*
X55660000Y-66140000D01*
X53710000Y-66140000D02*
X54490000Y-66140000D01*
X52540000Y-66140000D02*
X52590000Y-66140000D01*
X55660000Y-67660000D02*
X54660000Y-67660000D01*
X53540000Y-67660000D02*
X52540000Y-67660000D01*
X52540000Y-67660000D02*
X52540000Y-66140000D01*
X54480000Y-65600000D02*
X54150000Y-65840000D01*
X54150000Y-65360000D01*
X54480000Y-65600000D01*
G36*
X54480000Y-65600000D02*
G01*
X54150000Y-65840000D01*
X54150000Y-65360000D01*
X54480000Y-65600000D01*
G37*
%TO.C,Q8*%
X59660000Y-66140000D02*
X59660000Y-67660000D01*
X59610000Y-66140000D02*
X59660000Y-66140000D01*
X57710000Y-66140000D02*
X58490000Y-66140000D01*
X56540000Y-66140000D02*
X56590000Y-66140000D01*
X59660000Y-67660000D02*
X58660000Y-67660000D01*
X57540000Y-67660000D02*
X56540000Y-67660000D01*
X56540000Y-67660000D02*
X56540000Y-66140000D01*
X58480000Y-65600000D02*
X58150000Y-65840000D01*
X58150000Y-65360000D01*
X58480000Y-65600000D01*
G36*
X58480000Y-65600000D02*
G01*
X58150000Y-65840000D01*
X58150000Y-65360000D01*
X58480000Y-65600000D01*
G37*
%TO.C,Q7*%
X68660000Y-66140000D02*
X68660000Y-67660000D01*
X68610000Y-66140000D02*
X68660000Y-66140000D01*
X66710000Y-66140000D02*
X67490000Y-66140000D01*
X65540000Y-66140000D02*
X65590000Y-66140000D01*
X68660000Y-67660000D02*
X67660000Y-67660000D01*
X66540000Y-67660000D02*
X65540000Y-67660000D01*
X65540000Y-67660000D02*
X65540000Y-66140000D01*
X67480000Y-65600000D02*
X67150000Y-65840000D01*
X67150000Y-65360000D01*
X67480000Y-65600000D01*
G36*
X67480000Y-65600000D02*
G01*
X67150000Y-65840000D01*
X67150000Y-65360000D01*
X67480000Y-65600000D01*
G37*
%TO.C,Q6*%
X72660000Y-66140000D02*
X72660000Y-67660000D01*
X72610000Y-66140000D02*
X72660000Y-66140000D01*
X70710000Y-66140000D02*
X71490000Y-66140000D01*
X69540000Y-66140000D02*
X69590000Y-66140000D01*
X72660000Y-67660000D02*
X71660000Y-67660000D01*
X70540000Y-67660000D02*
X69540000Y-67660000D01*
X69540000Y-67660000D02*
X69540000Y-66140000D01*
X71480000Y-65600000D02*
X71150000Y-65840000D01*
X71150000Y-65360000D01*
X71480000Y-65600000D01*
G36*
X71480000Y-65600000D02*
G01*
X71150000Y-65840000D01*
X71150000Y-65360000D01*
X71480000Y-65600000D01*
G37*
%TO.C,Q5*%
X60540000Y-67660000D02*
X60540000Y-66140000D01*
X60590000Y-67660000D02*
X60540000Y-67660000D01*
X62490000Y-67660000D02*
X61710000Y-67660000D01*
X63660000Y-67660000D02*
X63610000Y-67660000D01*
X60540000Y-66140000D02*
X61540000Y-66140000D01*
X62660000Y-66140000D02*
X63660000Y-66140000D01*
X63660000Y-66140000D02*
X63660000Y-67660000D01*
X62050000Y-68440000D02*
X61720000Y-68200000D01*
X62050000Y-67960000D01*
X62050000Y-68440000D01*
G36*
X62050000Y-68440000D02*
G01*
X61720000Y-68200000D01*
X62050000Y-67960000D01*
X62050000Y-68440000D01*
G37*
%TO.C,Q4*%
X73540000Y-67660000D02*
X73540000Y-66140000D01*
X73590000Y-67660000D02*
X73540000Y-67660000D01*
X75490000Y-67660000D02*
X74710000Y-67660000D01*
X76660000Y-67660000D02*
X76610000Y-67660000D01*
X73540000Y-66140000D02*
X74540000Y-66140000D01*
X75660000Y-66140000D02*
X76660000Y-66140000D01*
X76660000Y-66140000D02*
X76660000Y-67660000D01*
X75050000Y-68440000D02*
X74720000Y-68200000D01*
X75050000Y-67960000D01*
X75050000Y-68440000D01*
G36*
X75050000Y-68440000D02*
G01*
X74720000Y-68200000D01*
X75050000Y-67960000D01*
X75050000Y-68440000D01*
G37*
%TO.C,Q3*%
X78060000Y-131170000D02*
X76540000Y-131170000D01*
X78060000Y-131120000D02*
X78060000Y-131170000D01*
X78060000Y-129220000D02*
X78060000Y-130000000D01*
X78060000Y-128050000D02*
X78060000Y-128100000D01*
X76540000Y-131170000D02*
X76540000Y-130170000D01*
X76540000Y-129050000D02*
X76540000Y-128050000D01*
X76540000Y-128050000D02*
X78060000Y-128050000D01*
X78600000Y-129990000D02*
X78360000Y-129660000D01*
X78840000Y-129660000D01*
X78600000Y-129990000D01*
G36*
X78600000Y-129990000D02*
G01*
X78360000Y-129660000D01*
X78840000Y-129660000D01*
X78600000Y-129990000D01*
G37*
%TO.C,Q2*%
X80740000Y-68060000D02*
X80740000Y-66540000D01*
X80790000Y-68060000D02*
X80740000Y-68060000D01*
X82690000Y-68060000D02*
X81910000Y-68060000D01*
X83860000Y-68060000D02*
X83810000Y-68060000D01*
X80740000Y-66540000D02*
X81740000Y-66540000D01*
X82860000Y-66540000D02*
X83860000Y-66540000D01*
X83860000Y-66540000D02*
X83860000Y-68060000D01*
X82250000Y-68840000D02*
X81920000Y-68600000D01*
X82250000Y-68360000D01*
X82250000Y-68840000D01*
G36*
X82250000Y-68840000D02*
G01*
X81920000Y-68600000D01*
X82250000Y-68360000D01*
X82250000Y-68840000D01*
G37*
%TO.C,Q1*%
X83060000Y-131170000D02*
X81540000Y-131170000D01*
X83060000Y-131120000D02*
X83060000Y-131170000D01*
X83060000Y-129220000D02*
X83060000Y-130000000D01*
X83060000Y-128050000D02*
X83060000Y-128100000D01*
X81540000Y-131170000D02*
X81540000Y-130170000D01*
X81540000Y-129050000D02*
X81540000Y-128050000D01*
X81540000Y-128050000D02*
X83060000Y-128050000D01*
X83600000Y-129990000D02*
X83360000Y-129660000D01*
X83840000Y-129660000D01*
X83600000Y-129990000D01*
G36*
X83600000Y-129990000D02*
G01*
X83360000Y-129660000D01*
X83840000Y-129660000D01*
X83600000Y-129990000D01*
G37*
%TO.C,J7*%
X86719500Y-138120500D02*
X86719500Y-140720500D01*
X86719500Y-138120500D02*
X89379500Y-138120500D01*
X86719500Y-140720500D02*
X89379500Y-140720500D01*
X88049500Y-135520500D02*
X89379500Y-135520500D01*
X89379500Y-135520500D02*
X89379500Y-136850500D01*
X89379500Y-138120500D02*
X89379500Y-140720500D01*
%TO.C,J6*%
X82119500Y-138120500D02*
X82119500Y-140720500D01*
X82119500Y-138120500D02*
X84779500Y-138120500D01*
X82119500Y-140720500D02*
X84779500Y-140720500D01*
X83449500Y-135520500D02*
X84779500Y-135520500D01*
X84779500Y-135520500D02*
X84779500Y-136850500D01*
X84779500Y-138120500D02*
X84779500Y-140720500D01*
%TO.C,J5*%
X77519500Y-138120500D02*
X77519500Y-140720500D01*
X77519500Y-138120500D02*
X80179500Y-138120500D01*
X77519500Y-140720500D02*
X80179500Y-140720500D01*
X78849500Y-135520500D02*
X80179500Y-135520500D01*
X80179500Y-135520500D02*
X80179500Y-136850500D01*
X80179500Y-138120500D02*
X80179500Y-140720500D01*
%TO.C,J4*%
X45530000Y-146670000D02*
X53270000Y-146670000D01*
X45530000Y-146670000D02*
X45530000Y-144070000D01*
X53270000Y-146670000D02*
X53270000Y-141470000D01*
X45530000Y-144070000D02*
X48130000Y-144070000D01*
X48130000Y-144070000D02*
X48130000Y-141470000D01*
X45530000Y-142800000D02*
X45530000Y-141470000D01*
X45530000Y-141470000D02*
X46860000Y-141470000D01*
X48130000Y-141470000D02*
X53270000Y-141470000D01*
%TO.C,J2*%
X30470000Y-71470000D02*
X30470000Y-122390000D01*
X30470000Y-71470000D02*
X33070000Y-71470000D01*
X30470000Y-122390000D02*
X35670000Y-122390000D01*
X33070000Y-71470000D02*
X33070000Y-74070000D01*
X33070000Y-74070000D02*
X35670000Y-74070000D01*
X34340000Y-71470000D02*
X35670000Y-71470000D01*
X35670000Y-71470000D02*
X35670000Y-72800000D01*
X35670000Y-74070000D02*
X35670000Y-122390000D01*
%TO.C,D1*%
X35160000Y-145136000D02*
X35160000Y-144980000D01*
X35160000Y-142820000D02*
X35160000Y-142664000D01*
X35160000Y-145135516D02*
G75*
G02*
X31928563Y-144980000I-1560000J1235516D01*
G01*
X34640961Y-144980000D02*
G75*
G02*
X32559039Y-144980000I-1040961J1080000D01*
G01*
X32559039Y-142820000D02*
G75*
G02*
X34640961Y-142820000I1040961J-1080000D01*
G01*
X31928563Y-142820000D02*
G75*
G02*
X35160000Y-142664484I1671437J-1080000D01*
G01*
%TO.C,R6*%
X39890000Y-76980000D02*
X43730000Y-76980000D01*
X43730000Y-78820000D01*
X39890000Y-78820000D01*
X39890000Y-76980000D01*
X44680000Y-77900000D02*
X43730000Y-77900000D01*
X38940000Y-77900000D02*
X39890000Y-77900000D01*
%TD*%
%LPC*%
D17*
%TO.C,H25*%
X18900000Y-66900000D03*
%TD*%
%TO.C,H25*%
X18900000Y-144900000D03*
%TD*%
%TO.C,H25*%
X96900000Y-144900000D03*
%TD*%
%TO.C,H25*%
X96900000Y-66900000D03*
%TD*%
D18*
%TO.C,J3*%
X34340000Y-124800000D03*
D19*
X31800000Y-124800000D03*
X34340000Y-127340000D03*
X31800000Y-127340000D03*
X34340000Y-129880000D03*
X31800000Y-129880000D03*
X34340000Y-132420000D03*
X31800000Y-132420000D03*
X34340000Y-134960000D03*
X31800000Y-134960000D03*
%TD*%
D20*
%TO.C,Q44*%
X75100000Y-92962500D03*
X76050000Y-94837500D03*
X74150000Y-94837500D03*
%TD*%
D21*
%TO.C,R35*%
X77800000Y-93400000D03*
X77800000Y-94400000D03*
%TD*%
D22*
%TO.C,R5*%
X45620000Y-75300000D03*
X38000000Y-75300000D03*
%TD*%
%TO.C,R8*%
X45620000Y-83000000D03*
X38000000Y-83000000D03*
%TD*%
%TO.C,R7*%
X45620000Y-80400000D03*
X38000000Y-80400000D03*
%TD*%
D21*
%TO.C,R12*%
X77800000Y-66400000D03*
X77800000Y-67400000D03*
%TD*%
D18*
%TO.C,J8*%
X90340000Y-109900000D03*
D19*
X87800000Y-109900000D03*
X90340000Y-112440000D03*
X87800000Y-112440000D03*
X90340000Y-114980000D03*
X87800000Y-114980000D03*
X90340000Y-117520000D03*
X87800000Y-117520000D03*
X90340000Y-120060000D03*
X87800000Y-120060000D03*
X90340000Y-122600000D03*
X87800000Y-122600000D03*
X90340000Y-125140000D03*
X87800000Y-125140000D03*
X90340000Y-127680000D03*
X87800000Y-127680000D03*
%TD*%
D18*
%TO.C,J1*%
X90340000Y-75800000D03*
D19*
X87800000Y-75800000D03*
X90340000Y-78340000D03*
X87800000Y-78340000D03*
X90340000Y-80880000D03*
X87800000Y-80880000D03*
X90340000Y-83420000D03*
X87800000Y-83420000D03*
X90340000Y-85960000D03*
X87800000Y-85960000D03*
X90340000Y-88500000D03*
X87800000Y-88500000D03*
X90340000Y-91040000D03*
X87800000Y-91040000D03*
X90340000Y-93580000D03*
X87800000Y-93580000D03*
%TD*%
D23*
%TO.C,R72*%
X39400000Y-105800000D03*
X38400000Y-105800000D03*
%TD*%
%TO.C,R71*%
X73400000Y-137500000D03*
X72400000Y-137500000D03*
%TD*%
D24*
%TO.C,R70*%
X26600000Y-105800000D03*
X27600000Y-105800000D03*
%TD*%
D23*
%TO.C,R69*%
X54400000Y-109500000D03*
X53400000Y-109500000D03*
%TD*%
%TO.C,R68*%
X39400000Y-103300000D03*
X38400000Y-103300000D03*
%TD*%
%TO.C,R67*%
X73400000Y-133500000D03*
X72400000Y-133500000D03*
%TD*%
D24*
%TO.C,R66*%
X26600000Y-103300000D03*
X27600000Y-103300000D03*
%TD*%
D23*
%TO.C,R65*%
X54400000Y-113500000D03*
X53400000Y-113500000D03*
%TD*%
%TO.C,R64*%
X39400000Y-100700000D03*
X38400000Y-100700000D03*
%TD*%
%TO.C,R63*%
X73400000Y-129500000D03*
X72400000Y-129500000D03*
%TD*%
D24*
%TO.C,R62*%
X26600000Y-100700000D03*
X27600000Y-100700000D03*
%TD*%
D23*
%TO.C,R61*%
X54400000Y-117500000D03*
X53400000Y-117500000D03*
%TD*%
%TO.C,R60*%
X39400000Y-98200000D03*
X38400000Y-98200000D03*
%TD*%
%TO.C,R59*%
X73400000Y-125500000D03*
X72400000Y-125500000D03*
%TD*%
D24*
%TO.C,R58*%
X26600000Y-98200000D03*
X27600000Y-98200000D03*
%TD*%
D23*
%TO.C,R57*%
X54400000Y-121500000D03*
X53400000Y-121500000D03*
%TD*%
%TO.C,R56*%
X39400000Y-95700000D03*
X38400000Y-95700000D03*
%TD*%
%TO.C,R55*%
X73400000Y-121500000D03*
X72400000Y-121500000D03*
%TD*%
D24*
%TO.C,R54*%
X26600000Y-95700000D03*
X27600000Y-95700000D03*
%TD*%
D23*
%TO.C,R53*%
X39400000Y-93100000D03*
X38400000Y-93100000D03*
%TD*%
%TO.C,R52*%
X54400000Y-125500000D03*
X53400000Y-125500000D03*
%TD*%
%TO.C,R51*%
X73400000Y-117500000D03*
X72400000Y-117500000D03*
%TD*%
D24*
%TO.C,R50*%
X26600000Y-93100000D03*
X27600000Y-93100000D03*
%TD*%
D23*
%TO.C,R49*%
X54400000Y-129500000D03*
X53400000Y-129500000D03*
%TD*%
%TO.C,R48*%
X39400000Y-90600000D03*
X38400000Y-90600000D03*
%TD*%
%TO.C,R47*%
X73400000Y-113500000D03*
X72400000Y-113500000D03*
%TD*%
D24*
%TO.C,R46*%
X26600000Y-90600000D03*
X27600000Y-90600000D03*
%TD*%
D23*
%TO.C,R45*%
X54400000Y-133500000D03*
X53400000Y-133500000D03*
%TD*%
%TO.C,R44*%
X39400000Y-88000000D03*
X38400000Y-88000000D03*
%TD*%
%TO.C,R43*%
X73400000Y-109500000D03*
X72400000Y-109500000D03*
%TD*%
D24*
%TO.C,R42*%
X26600000Y-88000000D03*
X27600000Y-88000000D03*
%TD*%
D23*
%TO.C,R41*%
X54400000Y-137700000D03*
X53400000Y-137700000D03*
%TD*%
%TO.C,R40*%
X48500000Y-83600000D03*
X47500000Y-83600000D03*
%TD*%
D25*
%TO.C,R39*%
X51400000Y-97900000D03*
X51400000Y-98900000D03*
%TD*%
D21*
%TO.C,R38*%
X77800000Y-98900000D03*
X77800000Y-97900000D03*
%TD*%
D24*
%TO.C,R37*%
X17500000Y-83600000D03*
X18500000Y-83600000D03*
%TD*%
D25*
%TO.C,R36*%
X51400000Y-93400000D03*
X51400000Y-94400000D03*
%TD*%
D23*
%TO.C,R34*%
X48500000Y-81000000D03*
X47500000Y-81000000D03*
%TD*%
D25*
%TO.C,R33*%
X51400000Y-88900000D03*
X51400000Y-89900000D03*
%TD*%
D21*
%TO.C,R32*%
X77800000Y-89800000D03*
X77800000Y-88800000D03*
%TD*%
D24*
%TO.C,R31*%
X17500000Y-81000000D03*
X18500000Y-81000000D03*
%TD*%
D25*
%TO.C,R30*%
X51400000Y-84400000D03*
X51400000Y-85400000D03*
%TD*%
D21*
%TO.C,R29*%
X77800000Y-85400000D03*
X77800000Y-84400000D03*
%TD*%
D23*
%TO.C,R28*%
X48500000Y-78500000D03*
X47500000Y-78500000D03*
%TD*%
D21*
%TO.C,R27*%
X30500000Y-144900000D03*
X30500000Y-143900000D03*
%TD*%
D25*
%TO.C,R26*%
X51400000Y-79900000D03*
X51400000Y-80900000D03*
%TD*%
D21*
%TO.C,R25*%
X77800000Y-80800000D03*
X77800000Y-79800000D03*
%TD*%
D22*
%TO.C,R24*%
X77900000Y-116520000D03*
X77900000Y-108900000D03*
%TD*%
D24*
%TO.C,R23*%
X17500000Y-78500000D03*
X18500000Y-78500000D03*
%TD*%
D22*
%TO.C,R22*%
X80100000Y-116520000D03*
X80100000Y-108900000D03*
%TD*%
D25*
%TO.C,R21*%
X51400000Y-75400000D03*
X51400000Y-76400000D03*
%TD*%
D21*
%TO.C,R20*%
X77800000Y-76400000D03*
X77800000Y-75400000D03*
%TD*%
D23*
%TO.C,R19*%
X48500000Y-75900000D03*
X47500000Y-75900000D03*
%TD*%
%TO.C,R18*%
X81200000Y-127100000D03*
X80200000Y-127100000D03*
%TD*%
D25*
%TO.C,R17*%
X51400000Y-70900000D03*
X51400000Y-71900000D03*
%TD*%
D21*
%TO.C,R16*%
X77900000Y-71800000D03*
X77900000Y-70800000D03*
%TD*%
D24*
%TO.C,R15*%
X83000000Y-127100000D03*
X84000000Y-127100000D03*
%TD*%
%TO.C,R14*%
X17500000Y-75900000D03*
X18500000Y-75900000D03*
%TD*%
D25*
%TO.C,R13*%
X51400000Y-66400000D03*
X51400000Y-67400000D03*
%TD*%
D23*
%TO.C,R11*%
X39400000Y-110900000D03*
X38400000Y-110900000D03*
%TD*%
D25*
%TO.C,R10*%
X84800000Y-66800000D03*
X84800000Y-67800000D03*
%TD*%
D23*
%TO.C,R9*%
X78400000Y-127110000D03*
X77400000Y-127110000D03*
%TD*%
D22*
%TO.C,R4*%
X20380000Y-83000000D03*
X28000000Y-83000000D03*
%TD*%
%TO.C,R3*%
X20380000Y-80400000D03*
X28000000Y-80400000D03*
%TD*%
%TO.C,R2*%
X20380000Y-77900000D03*
X28000000Y-77900000D03*
%TD*%
%TO.C,R1*%
X20380000Y-75300000D03*
X28000000Y-75300000D03*
%TD*%
D26*
%TO.C,Q87*%
X65837500Y-138650000D03*
X65837500Y-136750000D03*
X63962500Y-137700000D03*
%TD*%
%TO.C,Q86*%
X70637500Y-138650000D03*
X70637500Y-136750000D03*
X68762500Y-137700000D03*
%TD*%
%TO.C,Q85*%
X46837500Y-110650000D03*
X46837500Y-108750000D03*
X44962500Y-109700000D03*
%TD*%
%TO.C,Q84*%
X51637500Y-110650000D03*
X51637500Y-108750000D03*
X49762500Y-109700000D03*
%TD*%
%TO.C,Q83*%
X65837500Y-134650000D03*
X65837500Y-132750000D03*
X63962500Y-133700000D03*
%TD*%
%TO.C,Q82*%
X70637500Y-134650000D03*
X70637500Y-132750000D03*
X68762500Y-133700000D03*
%TD*%
%TO.C,Q81*%
X46837500Y-114650000D03*
X46837500Y-112750000D03*
X44962500Y-113700000D03*
%TD*%
%TO.C,Q80*%
X51637500Y-114650000D03*
X51637500Y-112750000D03*
X49762500Y-113700000D03*
%TD*%
%TO.C,Q79*%
X65837500Y-130650000D03*
X65837500Y-128750000D03*
X63962500Y-129700000D03*
%TD*%
%TO.C,Q78*%
X70637500Y-130650000D03*
X70637500Y-128750000D03*
X68762500Y-129700000D03*
%TD*%
%TO.C,Q77*%
X46837500Y-118650000D03*
X46837500Y-116750000D03*
X44962500Y-117700000D03*
%TD*%
%TO.C,Q76*%
X51637500Y-118650000D03*
X51637500Y-116750000D03*
X49762500Y-117700000D03*
%TD*%
%TO.C,Q75*%
X65837500Y-126650000D03*
X65837500Y-124750000D03*
X63962500Y-125700000D03*
%TD*%
%TO.C,Q74*%
X70637500Y-126650000D03*
X70637500Y-124750000D03*
X68762500Y-125700000D03*
%TD*%
%TO.C,Q73*%
X46837500Y-122650000D03*
X46837500Y-120750000D03*
X44962500Y-121700000D03*
%TD*%
%TO.C,Q72*%
X51637500Y-122650000D03*
X51637500Y-120750000D03*
X49762500Y-121700000D03*
%TD*%
%TO.C,Q71*%
X65837500Y-122650000D03*
X65837500Y-120750000D03*
X63962500Y-121700000D03*
%TD*%
%TO.C,Q70*%
X70637500Y-122650000D03*
X70637500Y-120750000D03*
X68762500Y-121700000D03*
%TD*%
%TO.C,Q69*%
X46837500Y-126650000D03*
X46837500Y-124750000D03*
X44962500Y-125700000D03*
%TD*%
%TO.C,Q68*%
X51637500Y-126650000D03*
X51637500Y-124750000D03*
X49762500Y-125700000D03*
%TD*%
%TO.C,Q67*%
X65837500Y-118650000D03*
X65837500Y-116750000D03*
X63962500Y-117700000D03*
%TD*%
%TO.C,Q66*%
X70637500Y-118650000D03*
X70637500Y-116750000D03*
X68762500Y-117700000D03*
%TD*%
%TO.C,Q65*%
X46837500Y-130650000D03*
X46837500Y-128750000D03*
X44962500Y-129700000D03*
%TD*%
%TO.C,Q64*%
X51637500Y-130650000D03*
X51637500Y-128750000D03*
X49762500Y-129700000D03*
%TD*%
%TO.C,Q63*%
X65837500Y-114650000D03*
X65837500Y-112750000D03*
X63962500Y-113700000D03*
%TD*%
%TO.C,Q62*%
X70637500Y-114650000D03*
X70637500Y-112750000D03*
X68762500Y-113700000D03*
%TD*%
%TO.C,Q61*%
X46837500Y-134650000D03*
X46837500Y-132750000D03*
X44962500Y-133700000D03*
%TD*%
%TO.C,Q60*%
X51637500Y-134650000D03*
X51637500Y-132750000D03*
X49762500Y-133700000D03*
%TD*%
%TO.C,Q59*%
X65837500Y-110650000D03*
X65837500Y-108750000D03*
X63962500Y-109700000D03*
%TD*%
%TO.C,Q58*%
X70637500Y-110650000D03*
X70637500Y-108750000D03*
X68762500Y-109700000D03*
%TD*%
%TO.C,Q57*%
X46837500Y-138650000D03*
X46837500Y-136750000D03*
X44962500Y-137700000D03*
%TD*%
%TO.C,Q56*%
X51637500Y-138650000D03*
X51637500Y-136750000D03*
X49762500Y-137700000D03*
%TD*%
D27*
%TO.C,Q55*%
X55050000Y-97462500D03*
X53150000Y-97462500D03*
X54100000Y-99337500D03*
%TD*%
%TO.C,Q54*%
X59050000Y-97462500D03*
X57150000Y-97462500D03*
X58100000Y-99337500D03*
%TD*%
%TO.C,Q53*%
X68050000Y-97462500D03*
X66150000Y-97462500D03*
X67100000Y-99337500D03*
%TD*%
%TO.C,Q52*%
X72050000Y-97462500D03*
X70150000Y-97462500D03*
X71100000Y-99337500D03*
%TD*%
D20*
%TO.C,Q51*%
X61150000Y-99337500D03*
X63050000Y-99337500D03*
X62100000Y-97462500D03*
%TD*%
%TO.C,Q50*%
X74150000Y-99337500D03*
X76050000Y-99337500D03*
X75100000Y-97462500D03*
%TD*%
D27*
%TO.C,Q49*%
X55050000Y-92962500D03*
X53150000Y-92962500D03*
X54100000Y-94837500D03*
%TD*%
%TO.C,Q48*%
X59050000Y-92962500D03*
X57150000Y-92962500D03*
X58100000Y-94837500D03*
%TD*%
%TO.C,Q47*%
X68050000Y-92962500D03*
X66150000Y-92962500D03*
X67100000Y-94837500D03*
%TD*%
%TO.C,Q46*%
X72050000Y-92962500D03*
X70150000Y-92962500D03*
X71100000Y-94837500D03*
%TD*%
D20*
%TO.C,Q45*%
X61150000Y-94837500D03*
X63050000Y-94837500D03*
X62100000Y-92962500D03*
%TD*%
D27*
%TO.C,Q43*%
X55050000Y-88462500D03*
X53150000Y-88462500D03*
X54100000Y-90337500D03*
%TD*%
%TO.C,Q42*%
X59050000Y-88462500D03*
X57150000Y-88462500D03*
X58100000Y-90337500D03*
%TD*%
%TO.C,Q41*%
X68050000Y-88462500D03*
X66150000Y-88462500D03*
X67100000Y-90337500D03*
%TD*%
%TO.C,Q40*%
X72050000Y-88462500D03*
X70150000Y-88462500D03*
X71100000Y-90337500D03*
%TD*%
D20*
%TO.C,Q39*%
X61150000Y-90337500D03*
X63050000Y-90337500D03*
X62100000Y-88462500D03*
%TD*%
%TO.C,Q38*%
X74150000Y-90237500D03*
X76050000Y-90237500D03*
X75100000Y-88362500D03*
%TD*%
D27*
%TO.C,Q37*%
X55050000Y-83962500D03*
X53150000Y-83962500D03*
X54100000Y-85837500D03*
%TD*%
%TO.C,Q36*%
X59050000Y-83962500D03*
X57150000Y-83962500D03*
X58100000Y-85837500D03*
%TD*%
%TO.C,Q35*%
X68050000Y-83962500D03*
X66150000Y-83962500D03*
X67100000Y-85837500D03*
%TD*%
%TO.C,Q34*%
X72050000Y-83962500D03*
X70150000Y-83962500D03*
X71100000Y-85837500D03*
%TD*%
D20*
%TO.C,Q33*%
X61150000Y-85937500D03*
X63050000Y-85937500D03*
X62100000Y-84062500D03*
%TD*%
%TO.C,Q32*%
X74150000Y-85837500D03*
X76050000Y-85837500D03*
X75100000Y-83962500D03*
%TD*%
D27*
%TO.C,Q31*%
X55050000Y-79462500D03*
X53150000Y-79462500D03*
X54100000Y-81337500D03*
%TD*%
%TO.C,Q30*%
X59050000Y-79462500D03*
X57150000Y-79462500D03*
X58100000Y-81337500D03*
%TD*%
%TO.C,Q29*%
X68050000Y-79462500D03*
X66150000Y-79462500D03*
X67100000Y-81337500D03*
%TD*%
%TO.C,Q28*%
X72050000Y-79462500D03*
X70150000Y-79462500D03*
X71100000Y-81337500D03*
%TD*%
D20*
%TO.C,Q27*%
X61150000Y-81337500D03*
X63050000Y-81337500D03*
X62100000Y-79462500D03*
%TD*%
%TO.C,Q26*%
X74150000Y-81237500D03*
X76050000Y-81237500D03*
X75100000Y-79362500D03*
%TD*%
D26*
%TO.C,Q25*%
X77837500Y-120650000D03*
X77837500Y-118750000D03*
X75962500Y-119700000D03*
%TD*%
D27*
%TO.C,Q24*%
X55050000Y-74962500D03*
X53150000Y-74962500D03*
X54100000Y-76837500D03*
%TD*%
%TO.C,Q23*%
X59050000Y-74962500D03*
X57150000Y-74962500D03*
X58100000Y-76837500D03*
%TD*%
%TO.C,Q22*%
X68050000Y-74962500D03*
X66150000Y-74962500D03*
X67100000Y-76837500D03*
%TD*%
%TO.C,Q21*%
X72050000Y-74962500D03*
X70150000Y-74962500D03*
X71100000Y-76837500D03*
%TD*%
D26*
%TO.C,Q20*%
X81937500Y-120650000D03*
X81937500Y-118750000D03*
X80062500Y-119700000D03*
%TD*%
D20*
%TO.C,Q19*%
X61150000Y-76837500D03*
X63050000Y-76837500D03*
X62100000Y-74962500D03*
%TD*%
%TO.C,Q18*%
X74150000Y-76837500D03*
X76050000Y-76837500D03*
X75100000Y-74962500D03*
%TD*%
D27*
%TO.C,Q17*%
X55050000Y-70462500D03*
X53150000Y-70462500D03*
X54100000Y-72337500D03*
%TD*%
%TO.C,Q16*%
X59050000Y-70462500D03*
X57150000Y-70462500D03*
X58100000Y-72337500D03*
%TD*%
%TO.C,Q15*%
X68050000Y-70462500D03*
X66150000Y-70462500D03*
X67100000Y-72337500D03*
%TD*%
%TO.C,Q14*%
X72050000Y-70462500D03*
X70150000Y-70462500D03*
X71100000Y-72337500D03*
%TD*%
D26*
%TO.C,Q13*%
X78237500Y-125360000D03*
X78237500Y-123460000D03*
X76362500Y-124410000D03*
%TD*%
D20*
%TO.C,Q12*%
X61150000Y-72337500D03*
X63050000Y-72337500D03*
X62100000Y-70462500D03*
%TD*%
%TO.C,Q11*%
X74150000Y-72237500D03*
X76050000Y-72237500D03*
X75100000Y-70362500D03*
%TD*%
D26*
%TO.C,Q10*%
X83237500Y-125360000D03*
X83237500Y-123460000D03*
X81362500Y-124410000D03*
%TD*%
D27*
%TO.C,Q9*%
X55050000Y-65962500D03*
X53150000Y-65962500D03*
X54100000Y-67837500D03*
%TD*%
%TO.C,Q8*%
X59050000Y-65962500D03*
X57150000Y-65962500D03*
X58100000Y-67837500D03*
%TD*%
%TO.C,Q7*%
X68050000Y-65962500D03*
X66150000Y-65962500D03*
X67100000Y-67837500D03*
%TD*%
%TO.C,Q6*%
X72050000Y-65962500D03*
X70150000Y-65962500D03*
X71100000Y-67837500D03*
%TD*%
D20*
%TO.C,Q5*%
X61150000Y-67837500D03*
X63050000Y-67837500D03*
X62100000Y-65962500D03*
%TD*%
%TO.C,Q4*%
X74150000Y-67837500D03*
X76050000Y-67837500D03*
X75100000Y-65962500D03*
%TD*%
D26*
%TO.C,Q3*%
X78237500Y-130560000D03*
X78237500Y-128660000D03*
X76362500Y-129610000D03*
%TD*%
D20*
%TO.C,Q2*%
X81350000Y-68237500D03*
X83250000Y-68237500D03*
X82300000Y-66362500D03*
%TD*%
D26*
%TO.C,Q1*%
X83237500Y-130560000D03*
X83237500Y-128660000D03*
X81362500Y-129610000D03*
%TD*%
D18*
%TO.C,J7*%
X88049500Y-136850500D03*
D19*
X88049500Y-139390500D03*
%TD*%
D18*
%TO.C,J6*%
X83449500Y-136850500D03*
D19*
X83449500Y-139390500D03*
%TD*%
D18*
%TO.C,J5*%
X78849500Y-136850500D03*
D19*
X78849500Y-139390500D03*
%TD*%
D18*
%TO.C,J4*%
X46860000Y-142800000D03*
D19*
X46860000Y-145340000D03*
X49400000Y-142800000D03*
X49400000Y-145340000D03*
X51940000Y-142800000D03*
X51940000Y-145340000D03*
%TD*%
D18*
%TO.C,J2*%
X34340000Y-72800000D03*
D19*
X31800000Y-72800000D03*
X34340000Y-75340000D03*
X31800000Y-75340000D03*
X34340000Y-77880000D03*
X31800000Y-77880000D03*
X34340000Y-80420000D03*
X31800000Y-80420000D03*
X34340000Y-82960000D03*
X31800000Y-82960000D03*
X34340000Y-85500000D03*
X31800000Y-85500000D03*
X34340000Y-88040000D03*
X31800000Y-88040000D03*
X34340000Y-90580000D03*
X31800000Y-90580000D03*
X34340000Y-93120000D03*
X31800000Y-93120000D03*
X34340000Y-95660000D03*
X31800000Y-95660000D03*
X34340000Y-98200000D03*
X31800000Y-98200000D03*
X34340000Y-100740000D03*
X31800000Y-100740000D03*
X34340000Y-103280000D03*
X31800000Y-103280000D03*
X34340000Y-105820000D03*
X31800000Y-105820000D03*
X34340000Y-108360000D03*
X31800000Y-108360000D03*
X34340000Y-110900000D03*
X31800000Y-110900000D03*
X34340000Y-113440000D03*
X31800000Y-113440000D03*
X34340000Y-115980000D03*
X31800000Y-115980000D03*
X34340000Y-118520000D03*
X31800000Y-118520000D03*
X34340000Y-121060000D03*
X31800000Y-121060000D03*
%TD*%
D28*
%TO.C,D1*%
X34870000Y-143900000D03*
D29*
X32330000Y-143900000D03*
%TD*%
D30*
%TO.C,C8*%
X60950000Y-141750000D03*
X60950000Y-143650000D03*
%TD*%
%TO.C,C7*%
X64000000Y-141750000D03*
X64000000Y-143650000D03*
%TD*%
%TO.C,C6*%
X67050000Y-141750000D03*
X67050000Y-143650000D03*
%TD*%
%TO.C,C5*%
X70100000Y-141750000D03*
X70100000Y-143650000D03*
%TD*%
%TO.C,C4*%
X29150000Y-65550000D03*
X29150000Y-67450000D03*
%TD*%
%TO.C,C3*%
X32200000Y-65550000D03*
X32200000Y-67450000D03*
%TD*%
%TO.C,C2*%
X35250000Y-65550000D03*
X35250000Y-67450000D03*
%TD*%
%TO.C,C1*%
X38300000Y-65550000D03*
X38300000Y-67450000D03*
%TD*%
D22*
%TO.C,R6*%
X45620000Y-77900000D03*
X38000000Y-77900000D03*
%TD*%
%LPD*%
M02*
