%TF.GenerationSoftware,KiCad,Pcbnew,9.0.7*%
%TF.CreationDate,2026-03-28T17:24:32+01:00*%
%TF.ProjectId,Level_shifter_FPGA_V1.0,4c657665-6c5f-4736-9869-667465725f46,rev?*%
%TF.SameCoordinates,Original*%
%TF.FileFunction,Soldermask,Top*%
%TF.FilePolarity,Negative*%
%FSLAX46Y46*%
G04 Gerber Fmt 4.6, Leading zero omitted, Abs format (unit mm)*
G04 Created by KiCad (PCBNEW 9.0.7) date 2026-03-28 17:24:32*
%MOMM*%
%LPD*%
G01*
G04 APERTURE LIST*
G04 Aperture macros list*
%AMRoundRect*
0 Rectangle with rounded corners*
0 $1 Rounding radius*
0 $2 $3 $4 $5 $6 $7 $8 $9 X,Y pos of 4 corners*
0 Add a 4 corners polygon primitive as box body*
4,1,4,$2,$3,$4,$5,$6,$7,$8,$9,$2,$3,0*
0 Add four circle primitives for the rounded corners*
1,1,$1+$1,$2,$3*
1,1,$1+$1,$4,$5*
1,1,$1+$1,$6,$7*
1,1,$1+$1,$8,$9*
0 Add four rect primitives between the rounded corners*
20,1,$1+$1,$2,$3,$4,$5,0*
20,1,$1+$1,$4,$5,$6,$7,0*
20,1,$1+$1,$6,$7,$8,$9,0*
20,1,$1+$1,$8,$9,$2,$3,0*%
G04 Aperture macros list end*
%ADD10R,1.700000X1.700000*%
%ADD11C,1.700000*%
%ADD12RoundRect,0.150000X0.150000X-0.587500X0.150000X0.587500X-0.150000X0.587500X-0.150000X-0.587500X0*%
%ADD13RoundRect,0.159000X0.189000X-0.159000X0.189000X0.159000X-0.189000X0.159000X-0.189000X-0.159000X0*%
%ADD14C,1.400000*%
%ADD15RoundRect,0.159000X0.159000X0.189000X-0.159000X0.189000X-0.159000X-0.189000X0.159000X-0.189000X0*%
%ADD16RoundRect,0.159000X-0.159000X-0.189000X0.159000X-0.189000X0.159000X0.189000X-0.159000X0.189000X0*%
%ADD17RoundRect,0.159000X-0.189000X0.159000X-0.189000X-0.159000X0.189000X-0.159000X0.189000X0.159000X0*%
%ADD18RoundRect,0.150000X0.587500X0.150000X-0.587500X0.150000X-0.587500X-0.150000X0.587500X-0.150000X0*%
%ADD19RoundRect,0.150000X-0.150000X0.587500X-0.150000X-0.587500X0.150000X-0.587500X0.150000X0.587500X0*%
%ADD20R,1.800000X1.800000*%
%ADD21C,1.800000*%
%ADD22RoundRect,0.269000X-0.494000X0.269000X-0.494000X-0.269000X0.494000X-0.269000X0.494000X0.269000X0*%
G04 APERTURE END LIST*
D10*
%TO.C,J3*%
X34340000Y-124800000D03*
D11*
X31800000Y-124800000D03*
X34340000Y-127340000D03*
X31800000Y-127340000D03*
X34340000Y-129880000D03*
X31800000Y-129880000D03*
X34340000Y-132420000D03*
X31800000Y-132420000D03*
X34340000Y-134960000D03*
X31800000Y-134960000D03*
%TD*%
D12*
%TO.C,Q44*%
X75100000Y-92962500D03*
X76050000Y-94837500D03*
X74150000Y-94837500D03*
%TD*%
D13*
%TO.C,R35*%
X77800000Y-93400000D03*
X77800000Y-94400000D03*
%TD*%
D14*
%TO.C,R5*%
X45620000Y-75300000D03*
X38000000Y-75300000D03*
%TD*%
%TO.C,R8*%
X45620000Y-83000000D03*
X38000000Y-83000000D03*
%TD*%
%TO.C,R7*%
X45620000Y-80400000D03*
X38000000Y-80400000D03*
%TD*%
D13*
%TO.C,R12*%
X77800000Y-66400000D03*
X77800000Y-67400000D03*
%TD*%
D10*
%TO.C,J8*%
X90340000Y-109900000D03*
D11*
X87800000Y-109900000D03*
X90340000Y-112440000D03*
X87800000Y-112440000D03*
X90340000Y-114980000D03*
X87800000Y-114980000D03*
X90340000Y-117520000D03*
X87800000Y-117520000D03*
X90340000Y-120060000D03*
X87800000Y-120060000D03*
X90340000Y-122600000D03*
X87800000Y-122600000D03*
X90340000Y-125140000D03*
X87800000Y-125140000D03*
X90340000Y-127680000D03*
X87800000Y-127680000D03*
%TD*%
D10*
%TO.C,J1*%
X90340000Y-75800000D03*
D11*
X87800000Y-75800000D03*
X90340000Y-78340000D03*
X87800000Y-78340000D03*
X90340000Y-80880000D03*
X87800000Y-80880000D03*
X90340000Y-83420000D03*
X87800000Y-83420000D03*
X90340000Y-85960000D03*
X87800000Y-85960000D03*
X90340000Y-88500000D03*
X87800000Y-88500000D03*
X90340000Y-91040000D03*
X87800000Y-91040000D03*
X90340000Y-93580000D03*
X87800000Y-93580000D03*
%TD*%
D15*
%TO.C,R72*%
X39400000Y-105800000D03*
X38400000Y-105800000D03*
%TD*%
%TO.C,R71*%
X73400000Y-137500000D03*
X72400000Y-137500000D03*
%TD*%
D16*
%TO.C,R70*%
X26600000Y-105800000D03*
X27600000Y-105800000D03*
%TD*%
D15*
%TO.C,R69*%
X54400000Y-109500000D03*
X53400000Y-109500000D03*
%TD*%
%TO.C,R68*%
X39400000Y-103300000D03*
X38400000Y-103300000D03*
%TD*%
%TO.C,R67*%
X73400000Y-133500000D03*
X72400000Y-133500000D03*
%TD*%
D16*
%TO.C,R66*%
X26600000Y-103300000D03*
X27600000Y-103300000D03*
%TD*%
D15*
%TO.C,R65*%
X54400000Y-113500000D03*
X53400000Y-113500000D03*
%TD*%
%TO.C,R64*%
X39400000Y-100700000D03*
X38400000Y-100700000D03*
%TD*%
%TO.C,R63*%
X73400000Y-129500000D03*
X72400000Y-129500000D03*
%TD*%
D16*
%TO.C,R62*%
X26600000Y-100700000D03*
X27600000Y-100700000D03*
%TD*%
D15*
%TO.C,R61*%
X54400000Y-117500000D03*
X53400000Y-117500000D03*
%TD*%
%TO.C,R60*%
X39400000Y-98200000D03*
X38400000Y-98200000D03*
%TD*%
%TO.C,R59*%
X73400000Y-125500000D03*
X72400000Y-125500000D03*
%TD*%
D16*
%TO.C,R58*%
X26600000Y-98200000D03*
X27600000Y-98200000D03*
%TD*%
D15*
%TO.C,R57*%
X54400000Y-121500000D03*
X53400000Y-121500000D03*
%TD*%
%TO.C,R56*%
X39400000Y-95700000D03*
X38400000Y-95700000D03*
%TD*%
%TO.C,R55*%
X73400000Y-121500000D03*
X72400000Y-121500000D03*
%TD*%
D16*
%TO.C,R54*%
X26600000Y-95700000D03*
X27600000Y-95700000D03*
%TD*%
D15*
%TO.C,R53*%
X39400000Y-93100000D03*
X38400000Y-93100000D03*
%TD*%
%TO.C,R52*%
X54400000Y-125500000D03*
X53400000Y-125500000D03*
%TD*%
%TO.C,R51*%
X73400000Y-117500000D03*
X72400000Y-117500000D03*
%TD*%
D16*
%TO.C,R50*%
X26600000Y-93100000D03*
X27600000Y-93100000D03*
%TD*%
D15*
%TO.C,R49*%
X54400000Y-129500000D03*
X53400000Y-129500000D03*
%TD*%
%TO.C,R48*%
X39400000Y-90600000D03*
X38400000Y-90600000D03*
%TD*%
%TO.C,R47*%
X73400000Y-113500000D03*
X72400000Y-113500000D03*
%TD*%
D16*
%TO.C,R46*%
X26600000Y-90600000D03*
X27600000Y-90600000D03*
%TD*%
D15*
%TO.C,R45*%
X54400000Y-133500000D03*
X53400000Y-133500000D03*
%TD*%
%TO.C,R44*%
X39400000Y-88000000D03*
X38400000Y-88000000D03*
%TD*%
%TO.C,R43*%
X73400000Y-109500000D03*
X72400000Y-109500000D03*
%TD*%
D16*
%TO.C,R42*%
X26600000Y-88000000D03*
X27600000Y-88000000D03*
%TD*%
D15*
%TO.C,R41*%
X54400000Y-137700000D03*
X53400000Y-137700000D03*
%TD*%
%TO.C,R40*%
X48500000Y-83600000D03*
X47500000Y-83600000D03*
%TD*%
D17*
%TO.C,R39*%
X51400000Y-97900000D03*
X51400000Y-98900000D03*
%TD*%
D13*
%TO.C,R38*%
X77800000Y-98900000D03*
X77800000Y-97900000D03*
%TD*%
D16*
%TO.C,R37*%
X17500000Y-83600000D03*
X18500000Y-83600000D03*
%TD*%
D17*
%TO.C,R36*%
X51400000Y-93400000D03*
X51400000Y-94400000D03*
%TD*%
D15*
%TO.C,R34*%
X48500000Y-81000000D03*
X47500000Y-81000000D03*
%TD*%
D17*
%TO.C,R33*%
X51400000Y-88900000D03*
X51400000Y-89900000D03*
%TD*%
D13*
%TO.C,R32*%
X77800000Y-89800000D03*
X77800000Y-88800000D03*
%TD*%
D16*
%TO.C,R31*%
X17500000Y-81000000D03*
X18500000Y-81000000D03*
%TD*%
D17*
%TO.C,R30*%
X51400000Y-84400000D03*
X51400000Y-85400000D03*
%TD*%
D13*
%TO.C,R29*%
X77800000Y-85400000D03*
X77800000Y-84400000D03*
%TD*%
D15*
%TO.C,R28*%
X48500000Y-78500000D03*
X47500000Y-78500000D03*
%TD*%
D13*
%TO.C,R27*%
X30500000Y-144900000D03*
X30500000Y-143900000D03*
%TD*%
D17*
%TO.C,R26*%
X51400000Y-79900000D03*
X51400000Y-80900000D03*
%TD*%
D13*
%TO.C,R25*%
X77800000Y-80800000D03*
X77800000Y-79800000D03*
%TD*%
D14*
%TO.C,R24*%
X77900000Y-116520000D03*
X77900000Y-108900000D03*
%TD*%
D16*
%TO.C,R23*%
X17500000Y-78500000D03*
X18500000Y-78500000D03*
%TD*%
D14*
%TO.C,R22*%
X80100000Y-116520000D03*
X80100000Y-108900000D03*
%TD*%
D17*
%TO.C,R21*%
X51400000Y-75400000D03*
X51400000Y-76400000D03*
%TD*%
D13*
%TO.C,R20*%
X77800000Y-76400000D03*
X77800000Y-75400000D03*
%TD*%
D15*
%TO.C,R19*%
X48500000Y-75900000D03*
X47500000Y-75900000D03*
%TD*%
%TO.C,R18*%
X81200000Y-127100000D03*
X80200000Y-127100000D03*
%TD*%
D17*
%TO.C,R17*%
X51400000Y-70900000D03*
X51400000Y-71900000D03*
%TD*%
D13*
%TO.C,R16*%
X77900000Y-71800000D03*
X77900000Y-70800000D03*
%TD*%
D16*
%TO.C,R15*%
X83000000Y-127100000D03*
X84000000Y-127100000D03*
%TD*%
%TO.C,R14*%
X17500000Y-75900000D03*
X18500000Y-75900000D03*
%TD*%
D17*
%TO.C,R13*%
X51400000Y-66400000D03*
X51400000Y-67400000D03*
%TD*%
D15*
%TO.C,R11*%
X39400000Y-110900000D03*
X38400000Y-110900000D03*
%TD*%
D17*
%TO.C,R10*%
X84800000Y-66800000D03*
X84800000Y-67800000D03*
%TD*%
D15*
%TO.C,R9*%
X78400000Y-127110000D03*
X77400000Y-127110000D03*
%TD*%
D14*
%TO.C,R4*%
X20380000Y-83000000D03*
X28000000Y-83000000D03*
%TD*%
%TO.C,R3*%
X20380000Y-80400000D03*
X28000000Y-80400000D03*
%TD*%
%TO.C,R2*%
X20380000Y-77900000D03*
X28000000Y-77900000D03*
%TD*%
%TO.C,R1*%
X20380000Y-75300000D03*
X28000000Y-75300000D03*
%TD*%
D18*
%TO.C,Q87*%
X65837500Y-138650000D03*
X65837500Y-136750000D03*
X63962500Y-137700000D03*
%TD*%
%TO.C,Q86*%
X70637500Y-138650000D03*
X70637500Y-136750000D03*
X68762500Y-137700000D03*
%TD*%
%TO.C,Q85*%
X46837500Y-110650000D03*
X46837500Y-108750000D03*
X44962500Y-109700000D03*
%TD*%
%TO.C,Q84*%
X51637500Y-110650000D03*
X51637500Y-108750000D03*
X49762500Y-109700000D03*
%TD*%
%TO.C,Q83*%
X65837500Y-134650000D03*
X65837500Y-132750000D03*
X63962500Y-133700000D03*
%TD*%
%TO.C,Q82*%
X70637500Y-134650000D03*
X70637500Y-132750000D03*
X68762500Y-133700000D03*
%TD*%
%TO.C,Q81*%
X46837500Y-114650000D03*
X46837500Y-112750000D03*
X44962500Y-113700000D03*
%TD*%
%TO.C,Q80*%
X51637500Y-114650000D03*
X51637500Y-112750000D03*
X49762500Y-113700000D03*
%TD*%
%TO.C,Q79*%
X65837500Y-130650000D03*
X65837500Y-128750000D03*
X63962500Y-129700000D03*
%TD*%
%TO.C,Q78*%
X70637500Y-130650000D03*
X70637500Y-128750000D03*
X68762500Y-129700000D03*
%TD*%
%TO.C,Q77*%
X46837500Y-118650000D03*
X46837500Y-116750000D03*
X44962500Y-117700000D03*
%TD*%
%TO.C,Q76*%
X51637500Y-118650000D03*
X51637500Y-116750000D03*
X49762500Y-117700000D03*
%TD*%
%TO.C,Q75*%
X65837500Y-126650000D03*
X65837500Y-124750000D03*
X63962500Y-125700000D03*
%TD*%
%TO.C,Q74*%
X70637500Y-126650000D03*
X70637500Y-124750000D03*
X68762500Y-125700000D03*
%TD*%
%TO.C,Q73*%
X46837500Y-122650000D03*
X46837500Y-120750000D03*
X44962500Y-121700000D03*
%TD*%
%TO.C,Q72*%
X51637500Y-122650000D03*
X51637500Y-120750000D03*
X49762500Y-121700000D03*
%TD*%
%TO.C,Q71*%
X65837500Y-122650000D03*
X65837500Y-120750000D03*
X63962500Y-121700000D03*
%TD*%
%TO.C,Q70*%
X70637500Y-122650000D03*
X70637500Y-120750000D03*
X68762500Y-121700000D03*
%TD*%
%TO.C,Q69*%
X46837500Y-126650000D03*
X46837500Y-124750000D03*
X44962500Y-125700000D03*
%TD*%
%TO.C,Q68*%
X51637500Y-126650000D03*
X51637500Y-124750000D03*
X49762500Y-125700000D03*
%TD*%
%TO.C,Q67*%
X65837500Y-118650000D03*
X65837500Y-116750000D03*
X63962500Y-117700000D03*
%TD*%
%TO.C,Q66*%
X70637500Y-118650000D03*
X70637500Y-116750000D03*
X68762500Y-117700000D03*
%TD*%
%TO.C,Q65*%
X46837500Y-130650000D03*
X46837500Y-128750000D03*
X44962500Y-129700000D03*
%TD*%
%TO.C,Q64*%
X51637500Y-130650000D03*
X51637500Y-128750000D03*
X49762500Y-129700000D03*
%TD*%
%TO.C,Q63*%
X65837500Y-114650000D03*
X65837500Y-112750000D03*
X63962500Y-113700000D03*
%TD*%
%TO.C,Q62*%
X70637500Y-114650000D03*
X70637500Y-112750000D03*
X68762500Y-113700000D03*
%TD*%
%TO.C,Q61*%
X46837500Y-134650000D03*
X46837500Y-132750000D03*
X44962500Y-133700000D03*
%TD*%
%TO.C,Q60*%
X51637500Y-134650000D03*
X51637500Y-132750000D03*
X49762500Y-133700000D03*
%TD*%
%TO.C,Q59*%
X65837500Y-110650000D03*
X65837500Y-108750000D03*
X63962500Y-109700000D03*
%TD*%
%TO.C,Q58*%
X70637500Y-110650000D03*
X70637500Y-108750000D03*
X68762500Y-109700000D03*
%TD*%
%TO.C,Q57*%
X46837500Y-138650000D03*
X46837500Y-136750000D03*
X44962500Y-137700000D03*
%TD*%
%TO.C,Q56*%
X51637500Y-138650000D03*
X51637500Y-136750000D03*
X49762500Y-137700000D03*
%TD*%
D19*
%TO.C,Q55*%
X55050000Y-97462500D03*
X53150000Y-97462500D03*
X54100000Y-99337500D03*
%TD*%
%TO.C,Q54*%
X59050000Y-97462500D03*
X57150000Y-97462500D03*
X58100000Y-99337500D03*
%TD*%
%TO.C,Q53*%
X68050000Y-97462500D03*
X66150000Y-97462500D03*
X67100000Y-99337500D03*
%TD*%
%TO.C,Q52*%
X72050000Y-97462500D03*
X70150000Y-97462500D03*
X71100000Y-99337500D03*
%TD*%
D12*
%TO.C,Q51*%
X61150000Y-99337500D03*
X63050000Y-99337500D03*
X62100000Y-97462500D03*
%TD*%
%TO.C,Q50*%
X74150000Y-99337500D03*
X76050000Y-99337500D03*
X75100000Y-97462500D03*
%TD*%
D19*
%TO.C,Q49*%
X55050000Y-92962500D03*
X53150000Y-92962500D03*
X54100000Y-94837500D03*
%TD*%
%TO.C,Q48*%
X59050000Y-92962500D03*
X57150000Y-92962500D03*
X58100000Y-94837500D03*
%TD*%
%TO.C,Q47*%
X68050000Y-92962500D03*
X66150000Y-92962500D03*
X67100000Y-94837500D03*
%TD*%
%TO.C,Q46*%
X72050000Y-92962500D03*
X70150000Y-92962500D03*
X71100000Y-94837500D03*
%TD*%
D12*
%TO.C,Q45*%
X61150000Y-94837500D03*
X63050000Y-94837500D03*
X62100000Y-92962500D03*
%TD*%
D19*
%TO.C,Q43*%
X55050000Y-88462500D03*
X53150000Y-88462500D03*
X54100000Y-90337500D03*
%TD*%
%TO.C,Q42*%
X59050000Y-88462500D03*
X57150000Y-88462500D03*
X58100000Y-90337500D03*
%TD*%
%TO.C,Q41*%
X68050000Y-88462500D03*
X66150000Y-88462500D03*
X67100000Y-90337500D03*
%TD*%
%TO.C,Q40*%
X72050000Y-88462500D03*
X70150000Y-88462500D03*
X71100000Y-90337500D03*
%TD*%
D12*
%TO.C,Q39*%
X61150000Y-90337500D03*
X63050000Y-90337500D03*
X62100000Y-88462500D03*
%TD*%
%TO.C,Q38*%
X74150000Y-90237500D03*
X76050000Y-90237500D03*
X75100000Y-88362500D03*
%TD*%
D19*
%TO.C,Q37*%
X55050000Y-83962500D03*
X53150000Y-83962500D03*
X54100000Y-85837500D03*
%TD*%
%TO.C,Q36*%
X59050000Y-83962500D03*
X57150000Y-83962500D03*
X58100000Y-85837500D03*
%TD*%
%TO.C,Q35*%
X68050000Y-83962500D03*
X66150000Y-83962500D03*
X67100000Y-85837500D03*
%TD*%
%TO.C,Q34*%
X72050000Y-83962500D03*
X70150000Y-83962500D03*
X71100000Y-85837500D03*
%TD*%
D12*
%TO.C,Q33*%
X61150000Y-85937500D03*
X63050000Y-85937500D03*
X62100000Y-84062500D03*
%TD*%
%TO.C,Q32*%
X74150000Y-85837500D03*
X76050000Y-85837500D03*
X75100000Y-83962500D03*
%TD*%
D19*
%TO.C,Q31*%
X55050000Y-79462500D03*
X53150000Y-79462500D03*
X54100000Y-81337500D03*
%TD*%
%TO.C,Q30*%
X59050000Y-79462500D03*
X57150000Y-79462500D03*
X58100000Y-81337500D03*
%TD*%
%TO.C,Q29*%
X68050000Y-79462500D03*
X66150000Y-79462500D03*
X67100000Y-81337500D03*
%TD*%
%TO.C,Q28*%
X72050000Y-79462500D03*
X70150000Y-79462500D03*
X71100000Y-81337500D03*
%TD*%
D12*
%TO.C,Q27*%
X61150000Y-81337500D03*
X63050000Y-81337500D03*
X62100000Y-79462500D03*
%TD*%
%TO.C,Q26*%
X74150000Y-81237500D03*
X76050000Y-81237500D03*
X75100000Y-79362500D03*
%TD*%
D18*
%TO.C,Q25*%
X77837500Y-120650000D03*
X77837500Y-118750000D03*
X75962500Y-119700000D03*
%TD*%
D19*
%TO.C,Q24*%
X55050000Y-74962500D03*
X53150000Y-74962500D03*
X54100000Y-76837500D03*
%TD*%
%TO.C,Q23*%
X59050000Y-74962500D03*
X57150000Y-74962500D03*
X58100000Y-76837500D03*
%TD*%
%TO.C,Q22*%
X68050000Y-74962500D03*
X66150000Y-74962500D03*
X67100000Y-76837500D03*
%TD*%
%TO.C,Q21*%
X72050000Y-74962500D03*
X70150000Y-74962500D03*
X71100000Y-76837500D03*
%TD*%
D18*
%TO.C,Q20*%
X81937500Y-120650000D03*
X81937500Y-118750000D03*
X80062500Y-119700000D03*
%TD*%
D12*
%TO.C,Q19*%
X61150000Y-76837500D03*
X63050000Y-76837500D03*
X62100000Y-74962500D03*
%TD*%
%TO.C,Q18*%
X74150000Y-76837500D03*
X76050000Y-76837500D03*
X75100000Y-74962500D03*
%TD*%
D19*
%TO.C,Q17*%
X55050000Y-70462500D03*
X53150000Y-70462500D03*
X54100000Y-72337500D03*
%TD*%
%TO.C,Q16*%
X59050000Y-70462500D03*
X57150000Y-70462500D03*
X58100000Y-72337500D03*
%TD*%
%TO.C,Q15*%
X68050000Y-70462500D03*
X66150000Y-70462500D03*
X67100000Y-72337500D03*
%TD*%
%TO.C,Q14*%
X72050000Y-70462500D03*
X70150000Y-70462500D03*
X71100000Y-72337500D03*
%TD*%
D18*
%TO.C,Q13*%
X78237500Y-125360000D03*
X78237500Y-123460000D03*
X76362500Y-124410000D03*
%TD*%
D12*
%TO.C,Q12*%
X61150000Y-72337500D03*
X63050000Y-72337500D03*
X62100000Y-70462500D03*
%TD*%
%TO.C,Q11*%
X74150000Y-72237500D03*
X76050000Y-72237500D03*
X75100000Y-70362500D03*
%TD*%
D18*
%TO.C,Q10*%
X83237500Y-125360000D03*
X83237500Y-123460000D03*
X81362500Y-124410000D03*
%TD*%
D19*
%TO.C,Q9*%
X55050000Y-65962500D03*
X53150000Y-65962500D03*
X54100000Y-67837500D03*
%TD*%
%TO.C,Q8*%
X59050000Y-65962500D03*
X57150000Y-65962500D03*
X58100000Y-67837500D03*
%TD*%
%TO.C,Q7*%
X68050000Y-65962500D03*
X66150000Y-65962500D03*
X67100000Y-67837500D03*
%TD*%
%TO.C,Q6*%
X72050000Y-65962500D03*
X70150000Y-65962500D03*
X71100000Y-67837500D03*
%TD*%
D12*
%TO.C,Q5*%
X61150000Y-67837500D03*
X63050000Y-67837500D03*
X62100000Y-65962500D03*
%TD*%
%TO.C,Q4*%
X74150000Y-67837500D03*
X76050000Y-67837500D03*
X75100000Y-65962500D03*
%TD*%
D18*
%TO.C,Q3*%
X78237500Y-130560000D03*
X78237500Y-128660000D03*
X76362500Y-129610000D03*
%TD*%
D12*
%TO.C,Q2*%
X81350000Y-68237500D03*
X83250000Y-68237500D03*
X82300000Y-66362500D03*
%TD*%
D18*
%TO.C,Q1*%
X83237500Y-130560000D03*
X83237500Y-128660000D03*
X81362500Y-129610000D03*
%TD*%
D10*
%TO.C,J7*%
X88049500Y-136850500D03*
D11*
X88049500Y-139390500D03*
%TD*%
D10*
%TO.C,J6*%
X83449500Y-136850500D03*
D11*
X83449500Y-139390500D03*
%TD*%
D10*
%TO.C,J5*%
X78849500Y-136850500D03*
D11*
X78849500Y-139390500D03*
%TD*%
D10*
%TO.C,J4*%
X46860000Y-142800000D03*
D11*
X46860000Y-145340000D03*
X49400000Y-142800000D03*
X49400000Y-145340000D03*
X51940000Y-142800000D03*
X51940000Y-145340000D03*
%TD*%
D10*
%TO.C,J2*%
X34340000Y-72800000D03*
D11*
X31800000Y-72800000D03*
X34340000Y-75340000D03*
X31800000Y-75340000D03*
X34340000Y-77880000D03*
X31800000Y-77880000D03*
X34340000Y-80420000D03*
X31800000Y-80420000D03*
X34340000Y-82960000D03*
X31800000Y-82960000D03*
X34340000Y-85500000D03*
X31800000Y-85500000D03*
X34340000Y-88040000D03*
X31800000Y-88040000D03*
X34340000Y-90580000D03*
X31800000Y-90580000D03*
X34340000Y-93120000D03*
X31800000Y-93120000D03*
X34340000Y-95660000D03*
X31800000Y-95660000D03*
X34340000Y-98200000D03*
X31800000Y-98200000D03*
X34340000Y-100740000D03*
X31800000Y-100740000D03*
X34340000Y-103280000D03*
X31800000Y-103280000D03*
X34340000Y-105820000D03*
X31800000Y-105820000D03*
X34340000Y-108360000D03*
X31800000Y-108360000D03*
X34340000Y-110900000D03*
X31800000Y-110900000D03*
X34340000Y-113440000D03*
X31800000Y-113440000D03*
X34340000Y-115980000D03*
X31800000Y-115980000D03*
X34340000Y-118520000D03*
X31800000Y-118520000D03*
X34340000Y-121060000D03*
X31800000Y-121060000D03*
%TD*%
D20*
%TO.C,D1*%
X34870000Y-143900000D03*
D21*
X32330000Y-143900000D03*
%TD*%
D22*
%TO.C,C8*%
X60950000Y-141750000D03*
X60950000Y-143650000D03*
%TD*%
%TO.C,C7*%
X64000000Y-141750000D03*
X64000000Y-143650000D03*
%TD*%
%TO.C,C6*%
X67050000Y-141750000D03*
X67050000Y-143650000D03*
%TD*%
%TO.C,C5*%
X70100000Y-141750000D03*
X70100000Y-143650000D03*
%TD*%
%TO.C,C4*%
X29150000Y-65550000D03*
X29150000Y-67450000D03*
%TD*%
%TO.C,C3*%
X32200000Y-65550000D03*
X32200000Y-67450000D03*
%TD*%
%TO.C,C2*%
X35250000Y-65550000D03*
X35250000Y-67450000D03*
%TD*%
%TO.C,C1*%
X38300000Y-65550000D03*
X38300000Y-67450000D03*
%TD*%
D14*
%TO.C,R6*%
X45620000Y-77900000D03*
X38000000Y-77900000D03*
%TD*%
M02*
