%TF.GenerationSoftware,KiCad,Pcbnew,9.0.7*%
%TF.CreationDate,2026-03-28T17:24:32+01:00*%
%TF.ProjectId,Level_shifter_FPGA_V1.0,4c657665-6c5f-4736-9869-667465725f46,rev?*%
%TF.SameCoordinates,Original*%
%TF.FileFunction,Legend,Bot*%
%TF.FilePolarity,Positive*%
%FSLAX46Y46*%
G04 Gerber Fmt 4.6, Leading zero omitted, Abs format (unit mm)*
G04 Created by KiCad (PCBNEW 9.0.7) date 2026-03-28 17:24:32*
%MOMM*%
%LPD*%
G01*
G04 APERTURE LIST*
%ADD10C,3.200000*%
%ADD11R,1.700000X1.700000*%
%ADD12C,1.700000*%
%ADD13C,1.400000*%
%ADD14R,1.800000X1.800000*%
%ADD15C,1.800000*%
G04 APERTURE END LIST*
%LPC*%
D10*
%TO.C,H25*%
X18900000Y-66900000D03*
%TD*%
%TO.C,H25*%
X18900000Y-144900000D03*
%TD*%
%TO.C,H25*%
X96900000Y-144900000D03*
%TD*%
%TO.C,H25*%
X96900000Y-66900000D03*
%TD*%
D11*
%TO.C,J3*%
X34340000Y-124800000D03*
D12*
X31800000Y-124800000D03*
X34340000Y-127340000D03*
X31800000Y-127340000D03*
X34340000Y-129880000D03*
X31800000Y-129880000D03*
X34340000Y-132420000D03*
X31800000Y-132420000D03*
X34340000Y-134960000D03*
X31800000Y-134960000D03*
%TD*%
D13*
%TO.C,R5*%
X45620000Y-75300000D03*
X38000000Y-75300000D03*
%TD*%
%TO.C,R8*%
X45620000Y-83000000D03*
X38000000Y-83000000D03*
%TD*%
%TO.C,R7*%
X45620000Y-80400000D03*
X38000000Y-80400000D03*
%TD*%
D11*
%TO.C,J8*%
X90340000Y-109900000D03*
D12*
X87800000Y-109900000D03*
X90340000Y-112440000D03*
X87800000Y-112440000D03*
X90340000Y-114980000D03*
X87800000Y-114980000D03*
X90340000Y-117520000D03*
X87800000Y-117520000D03*
X90340000Y-120060000D03*
X87800000Y-120060000D03*
X90340000Y-122600000D03*
X87800000Y-122600000D03*
X90340000Y-125140000D03*
X87800000Y-125140000D03*
X90340000Y-127680000D03*
X87800000Y-127680000D03*
%TD*%
D11*
%TO.C,J1*%
X90340000Y-75800000D03*
D12*
X87800000Y-75800000D03*
X90340000Y-78340000D03*
X87800000Y-78340000D03*
X90340000Y-80880000D03*
X87800000Y-80880000D03*
X90340000Y-83420000D03*
X87800000Y-83420000D03*
X90340000Y-85960000D03*
X87800000Y-85960000D03*
X90340000Y-88500000D03*
X87800000Y-88500000D03*
X90340000Y-91040000D03*
X87800000Y-91040000D03*
X90340000Y-93580000D03*
X87800000Y-93580000D03*
%TD*%
D13*
%TO.C,R24*%
X77900000Y-116520000D03*
X77900000Y-108900000D03*
%TD*%
%TO.C,R22*%
X80100000Y-116520000D03*
X80100000Y-108900000D03*
%TD*%
%TO.C,R4*%
X20380000Y-83000000D03*
X28000000Y-83000000D03*
%TD*%
%TO.C,R3*%
X20380000Y-80400000D03*
X28000000Y-80400000D03*
%TD*%
%TO.C,R2*%
X20380000Y-77900000D03*
X28000000Y-77900000D03*
%TD*%
%TO.C,R1*%
X20380000Y-75300000D03*
X28000000Y-75300000D03*
%TD*%
D11*
%TO.C,J7*%
X88049500Y-136850500D03*
D12*
X88049500Y-139390500D03*
%TD*%
D11*
%TO.C,J6*%
X83449500Y-136850500D03*
D12*
X83449500Y-139390500D03*
%TD*%
D11*
%TO.C,J5*%
X78849500Y-136850500D03*
D12*
X78849500Y-139390500D03*
%TD*%
D11*
%TO.C,J4*%
X46860000Y-142800000D03*
D12*
X46860000Y-145340000D03*
X49400000Y-142800000D03*
X49400000Y-145340000D03*
X51940000Y-142800000D03*
X51940000Y-145340000D03*
%TD*%
D11*
%TO.C,J2*%
X34340000Y-72800000D03*
D12*
X31800000Y-72800000D03*
X34340000Y-75340000D03*
X31800000Y-75340000D03*
X34340000Y-77880000D03*
X31800000Y-77880000D03*
X34340000Y-80420000D03*
X31800000Y-80420000D03*
X34340000Y-82960000D03*
X31800000Y-82960000D03*
X34340000Y-85500000D03*
X31800000Y-85500000D03*
X34340000Y-88040000D03*
X31800000Y-88040000D03*
X34340000Y-90580000D03*
X31800000Y-90580000D03*
X34340000Y-93120000D03*
X31800000Y-93120000D03*
X34340000Y-95660000D03*
X31800000Y-95660000D03*
X34340000Y-98200000D03*
X31800000Y-98200000D03*
X34340000Y-100740000D03*
X31800000Y-100740000D03*
X34340000Y-103280000D03*
X31800000Y-103280000D03*
X34340000Y-105820000D03*
X31800000Y-105820000D03*
X34340000Y-108360000D03*
X31800000Y-108360000D03*
X34340000Y-110900000D03*
X31800000Y-110900000D03*
X34340000Y-113440000D03*
X31800000Y-113440000D03*
X34340000Y-115980000D03*
X31800000Y-115980000D03*
X34340000Y-118520000D03*
X31800000Y-118520000D03*
X34340000Y-121060000D03*
X31800000Y-121060000D03*
%TD*%
D14*
%TO.C,D1*%
X34870000Y-143900000D03*
D15*
X32330000Y-143900000D03*
%TD*%
D13*
%TO.C,R6*%
X45620000Y-77900000D03*
X38000000Y-77900000D03*
%TD*%
%LPD*%
M02*
