%TF.GenerationSoftware,KiCad,Pcbnew,9.0.7*%
%TF.CreationDate,2026-03-28T17:24:32+01:00*%
%TF.ProjectId,Level_shifter_FPGA_V1.0,4c657665-6c5f-4736-9869-667465725f46,rev?*%
%TF.SameCoordinates,Original*%
%TF.FileFunction,Copper,L1,Top*%
%TF.FilePolarity,Positive*%
%FSLAX46Y46*%
G04 Gerber Fmt 4.6, Leading zero omitted, Abs format (unit mm)*
G04 Created by KiCad (PCBNEW 9.0.7) date 2026-03-28 17:24:32*
%MOMM*%
%LPD*%
G01*
G04 APERTURE LIST*
G04 Aperture macros list*
%AMRoundRect*
0 Rectangle with rounded corners*
0 $1 Rounding radius*
0 $2 $3 $4 $5 $6 $7 $8 $9 X,Y pos of 4 corners*
0 Add a 4 corners polygon primitive as box body*
4,1,4,$2,$3,$4,$5,$6,$7,$8,$9,$2,$3,0*
0 Add four circle primitives for the rounded corners*
1,1,$1+$1,$2,$3*
1,1,$1+$1,$4,$5*
1,1,$1+$1,$6,$7*
1,1,$1+$1,$8,$9*
0 Add four rect primitives between the rounded corners*
20,1,$1+$1,$2,$3,$4,$5,0*
20,1,$1+$1,$4,$5,$6,$7,0*
20,1,$1+$1,$6,$7,$8,$9,0*
20,1,$1+$1,$8,$9,$2,$3,0*%
G04 Aperture macros list end*
%TA.AperFunction,ComponentPad*%
%ADD10R,1.700000X1.700000*%
%TD*%
%TA.AperFunction,ComponentPad*%
%ADD11C,1.700000*%
%TD*%
%TA.AperFunction,SMDPad,CuDef*%
%ADD12RoundRect,0.150000X0.150000X-0.587500X0.150000X0.587500X-0.150000X0.587500X-0.150000X-0.587500X0*%
%TD*%
%TA.AperFunction,SMDPad,CuDef*%
%ADD13RoundRect,0.140000X0.170000X-0.140000X0.170000X0.140000X-0.170000X0.140000X-0.170000X-0.140000X0*%
%TD*%
%TA.AperFunction,ComponentPad*%
%ADD14C,1.400000*%
%TD*%
%TA.AperFunction,SMDPad,CuDef*%
%ADD15RoundRect,0.140000X0.140000X0.170000X-0.140000X0.170000X-0.140000X-0.170000X0.140000X-0.170000X0*%
%TD*%
%TA.AperFunction,SMDPad,CuDef*%
%ADD16RoundRect,0.140000X-0.140000X-0.170000X0.140000X-0.170000X0.140000X0.170000X-0.140000X0.170000X0*%
%TD*%
%TA.AperFunction,SMDPad,CuDef*%
%ADD17RoundRect,0.140000X-0.170000X0.140000X-0.170000X-0.140000X0.170000X-0.140000X0.170000X0.140000X0*%
%TD*%
%TA.AperFunction,SMDPad,CuDef*%
%ADD18RoundRect,0.150000X0.587500X0.150000X-0.587500X0.150000X-0.587500X-0.150000X0.587500X-0.150000X0*%
%TD*%
%TA.AperFunction,SMDPad,CuDef*%
%ADD19RoundRect,0.150000X-0.150000X0.587500X-0.150000X-0.587500X0.150000X-0.587500X0.150000X0.587500X0*%
%TD*%
%TA.AperFunction,ComponentPad*%
%ADD20R,1.800000X1.800000*%
%TD*%
%TA.AperFunction,ComponentPad*%
%ADD21C,1.800000*%
%TD*%
%TA.AperFunction,SMDPad,CuDef*%
%ADD22RoundRect,0.250000X-0.475000X0.250000X-0.475000X-0.250000X0.475000X-0.250000X0.475000X0.250000X0*%
%TD*%
%TA.AperFunction,ViaPad*%
%ADD23C,0.600000*%
%TD*%
%TA.AperFunction,ViaPad*%
%ADD24C,1.000000*%
%TD*%
%TA.AperFunction,Conductor*%
%ADD25C,0.400000*%
%TD*%
%TA.AperFunction,Conductor*%
%ADD26C,1.000000*%
%TD*%
%TA.AperFunction,Conductor*%
%ADD27C,0.300000*%
%TD*%
%TA.AperFunction,Conductor*%
%ADD28C,0.200000*%
%TD*%
G04 APERTURE END LIST*
D10*
%TO.P,J3,1,Pin_1*%
%TO.N,Net-(J2-Pin_39)*%
X34340000Y-124800000D03*
D11*
%TO.P,J3,2,Pin_2*%
%TO.N,Net-(J2-Pin_40)*%
X31800000Y-124800000D03*
%TO.P,J3,3,Pin_3*%
%TO.N,Net-(J2-Pin_37)*%
X34340000Y-127340000D03*
%TO.P,J3,4,Pin_4*%
%TO.N,Net-(J2-Pin_38)*%
X31800000Y-127340000D03*
%TO.P,J3,5,Pin_5*%
%TO.N,Net-(J2-Pin_35)*%
X34340000Y-129880000D03*
%TO.P,J3,6,Pin_6*%
%TO.N,Net-(J2-Pin_36)*%
X31800000Y-129880000D03*
%TO.P,J3,7,Pin_7*%
%TO.N,Net-(J2-Pin_1)*%
X34340000Y-132420000D03*
%TO.P,J3,8,Pin_8*%
%TO.N,Net-(J2-Pin_34)*%
X31800000Y-132420000D03*
%TO.P,J3,9,Pin_9*%
%TO.N,GND*%
X34340000Y-134960000D03*
%TO.P,J3,10,Pin_10*%
%TO.N,Net-(J2-Pin_2)*%
X31800000Y-134960000D03*
%TD*%
D12*
%TO.P,Q44,3,D*%
%TO.N,Net-(Q44-D)*%
X75100000Y-92962500D03*
%TO.P,Q44,2,S*%
%TO.N,GND*%
X76050000Y-94837500D03*
%TO.P,Q44,1,G*%
%TO.N,D6*%
X74150000Y-94837500D03*
%TD*%
D13*
%TO.P,R35,2*%
%TO.N,Net-(Q44-D)*%
X77800000Y-93400000D03*
%TO.P,R35,1*%
%TO.N,VCC*%
X77800000Y-94400000D03*
%TD*%
D14*
%TO.P,R5,2*%
%TO.N,D1*%
X45620000Y-75300000D03*
%TO.P,R5,1*%
%TO.N,Net-(J2-Pin_3)*%
X38000000Y-75300000D03*
%TD*%
%TO.P,R8,2*%
%TO.N,D7*%
X45620000Y-83000000D03*
%TO.P,R8,1*%
%TO.N,Net-(J2-Pin_9)*%
X38000000Y-83000000D03*
%TD*%
%TO.P,R7,2*%
%TO.N,D5*%
X45620000Y-80400000D03*
%TO.P,R7,1*%
%TO.N,Net-(J2-Pin_7)*%
X38000000Y-80400000D03*
%TD*%
D13*
%TO.P,R12,2*%
%TO.N,Net-(Q4-D)*%
X77800000Y-66400000D03*
%TO.P,R12,1*%
%TO.N,VCC*%
X77800000Y-67400000D03*
%TD*%
D10*
%TO.P,J8,1,Pin_1*%
%TO.N,Buss0*%
X90340000Y-109900000D03*
D11*
%TO.P,J8,2,Pin_2*%
%TO.N,VCC*%
X87800000Y-109900000D03*
%TO.P,J8,3,Pin_3*%
%TO.N,Buss1*%
X90340000Y-112440000D03*
%TO.P,J8,4,Pin_4*%
%TO.N,GND*%
X87800000Y-112440000D03*
%TO.P,J8,5,Pin_5*%
%TO.N,Buss2*%
X90340000Y-114980000D03*
%TO.P,J8,6,Pin_6*%
%TO.N,CLK*%
X87800000Y-114980000D03*
%TO.P,J8,7,Pin_7*%
%TO.N,Buss3*%
X90340000Y-117520000D03*
%TO.P,J8,8,Pin_8*%
%TO.N,RST*%
X87800000Y-117520000D03*
%TO.P,J8,9,Pin_9*%
%TO.N,Buss4*%
X90340000Y-120060000D03*
%TO.P,J8,10,Pin_10*%
%TO.N,GND*%
X87800000Y-120060000D03*
%TO.P,J8,11,Pin_11*%
%TO.N,Buss5*%
X90340000Y-122600000D03*
%TO.P,J8,12,Pin_12*%
%TO.N,R{slash}W*%
X87800000Y-122600000D03*
%TO.P,J8,13,Pin_13*%
%TO.N,Buss6*%
X90340000Y-125140000D03*
%TO.P,J8,14,Pin_14*%
%TO.N,GND*%
X87800000Y-125140000D03*
%TO.P,J8,15,Pin_15*%
%TO.N,Buss7*%
X90340000Y-127680000D03*
%TO.P,J8,16,Pin_16*%
%TO.N,VCC*%
X87800000Y-127680000D03*
%TD*%
D10*
%TO.P,J1,1,Pin_1*%
%TO.N,A7*%
X90340000Y-75800000D03*
D11*
%TO.P,J1,2,Pin_2*%
%TO.N,A15*%
X87800000Y-75800000D03*
%TO.P,J1,3,Pin_3*%
%TO.N,A6*%
X90340000Y-78340000D03*
%TO.P,J1,4,Pin_4*%
%TO.N,A14*%
X87800000Y-78340000D03*
%TO.P,J1,5,Pin_5*%
%TO.N,A5*%
X90340000Y-80880000D03*
%TO.P,J1,6,Pin_6*%
%TO.N,A13*%
X87800000Y-80880000D03*
%TO.P,J1,7,Pin_7*%
%TO.N,A4*%
X90340000Y-83420000D03*
%TO.P,J1,8,Pin_8*%
%TO.N,A12*%
X87800000Y-83420000D03*
%TO.P,J1,9,Pin_9*%
%TO.N,A3*%
X90340000Y-85960000D03*
%TO.P,J1,10,Pin_10*%
%TO.N,A11*%
X87800000Y-85960000D03*
%TO.P,J1,11,Pin_11*%
%TO.N,A2*%
X90340000Y-88500000D03*
%TO.P,J1,12,Pin_12*%
%TO.N,A10*%
X87800000Y-88500000D03*
%TO.P,J1,13,Pin_13*%
%TO.N,A1*%
X90340000Y-91040000D03*
%TO.P,J1,14,Pin_14*%
%TO.N,A9*%
X87800000Y-91040000D03*
%TO.P,J1,15,Pin_15*%
%TO.N,A0*%
X90340000Y-93580000D03*
%TO.P,J1,16,Pin_16*%
%TO.N,A8*%
X87800000Y-93580000D03*
%TD*%
D15*
%TO.P,R72,1*%
%TO.N,3.3V*%
X39400000Y-105800000D03*
%TO.P,R72,2*%
%TO.N,ADR15*%
X38400000Y-105800000D03*
%TD*%
%TO.P,R71,1*%
%TO.N,VCC*%
X73400000Y-137500000D03*
%TO.P,R71,2*%
%TO.N,Net-(Q86-D)*%
X72400000Y-137500000D03*
%TD*%
D16*
%TO.P,R70,1*%
%TO.N,3.3V*%
X26600000Y-105800000D03*
%TO.P,R70,2*%
%TO.N,ADR14*%
X27600000Y-105800000D03*
%TD*%
D15*
%TO.P,R69,1*%
%TO.N,VCC*%
X54400000Y-109500000D03*
%TO.P,R69,2*%
%TO.N,Net-(Q84-D)*%
X53400000Y-109500000D03*
%TD*%
%TO.P,R68,1*%
%TO.N,3.3V*%
X39400000Y-103300000D03*
%TO.P,R68,2*%
%TO.N,ADR13*%
X38400000Y-103300000D03*
%TD*%
%TO.P,R67,1*%
%TO.N,VCC*%
X73400000Y-133500000D03*
%TO.P,R67,2*%
%TO.N,Net-(Q82-D)*%
X72400000Y-133500000D03*
%TD*%
D16*
%TO.P,R66,1*%
%TO.N,3.3V*%
X26600000Y-103300000D03*
%TO.P,R66,2*%
%TO.N,ADR12*%
X27600000Y-103300000D03*
%TD*%
D15*
%TO.P,R65,1*%
%TO.N,VCC*%
X54400000Y-113500000D03*
%TO.P,R65,2*%
%TO.N,Net-(Q80-D)*%
X53400000Y-113500000D03*
%TD*%
%TO.P,R64,1*%
%TO.N,3.3V*%
X39400000Y-100700000D03*
%TO.P,R64,2*%
%TO.N,ADR11*%
X38400000Y-100700000D03*
%TD*%
%TO.P,R63,1*%
%TO.N,VCC*%
X73400000Y-129500000D03*
%TO.P,R63,2*%
%TO.N,Net-(Q78-D)*%
X72400000Y-129500000D03*
%TD*%
D16*
%TO.P,R62,1*%
%TO.N,3.3V*%
X26600000Y-100700000D03*
%TO.P,R62,2*%
%TO.N,ADR10*%
X27600000Y-100700000D03*
%TD*%
D15*
%TO.P,R61,1*%
%TO.N,VCC*%
X54400000Y-117500000D03*
%TO.P,R61,2*%
%TO.N,Net-(Q76-D)*%
X53400000Y-117500000D03*
%TD*%
%TO.P,R60,1*%
%TO.N,3.3V*%
X39400000Y-98200000D03*
%TO.P,R60,2*%
%TO.N,ADR9*%
X38400000Y-98200000D03*
%TD*%
%TO.P,R59,1*%
%TO.N,VCC*%
X73400000Y-125500000D03*
%TO.P,R59,2*%
%TO.N,Net-(Q74-D)*%
X72400000Y-125500000D03*
%TD*%
D16*
%TO.P,R58,1*%
%TO.N,3.3V*%
X26600000Y-98200000D03*
%TO.P,R58,2*%
%TO.N,ADR8*%
X27600000Y-98200000D03*
%TD*%
D15*
%TO.P,R57,1*%
%TO.N,VCC*%
X54400000Y-121500000D03*
%TO.P,R57,2*%
%TO.N,Net-(Q72-D)*%
X53400000Y-121500000D03*
%TD*%
%TO.P,R56,1*%
%TO.N,3.3V*%
X39400000Y-95700000D03*
%TO.P,R56,2*%
%TO.N,ADR7*%
X38400000Y-95700000D03*
%TD*%
%TO.P,R55,1*%
%TO.N,VCC*%
X73400000Y-121500000D03*
%TO.P,R55,2*%
%TO.N,Net-(Q70-D)*%
X72400000Y-121500000D03*
%TD*%
D16*
%TO.P,R54,1*%
%TO.N,3.3V*%
X26600000Y-95700000D03*
%TO.P,R54,2*%
%TO.N,ADR6*%
X27600000Y-95700000D03*
%TD*%
D15*
%TO.P,R53,1*%
%TO.N,3.3V*%
X39400000Y-93100000D03*
%TO.P,R53,2*%
%TO.N,ADR5*%
X38400000Y-93100000D03*
%TD*%
%TO.P,R52,1*%
%TO.N,VCC*%
X54400000Y-125500000D03*
%TO.P,R52,2*%
%TO.N,Net-(Q68-D)*%
X53400000Y-125500000D03*
%TD*%
%TO.P,R51,1*%
%TO.N,VCC*%
X73400000Y-117500000D03*
%TO.P,R51,2*%
%TO.N,Net-(Q66-D)*%
X72400000Y-117500000D03*
%TD*%
D16*
%TO.P,R50,1*%
%TO.N,3.3V*%
X26600000Y-93100000D03*
%TO.P,R50,2*%
%TO.N,ADR4*%
X27600000Y-93100000D03*
%TD*%
D15*
%TO.P,R49,1*%
%TO.N,VCC*%
X54400000Y-129500000D03*
%TO.P,R49,2*%
%TO.N,Net-(Q64-D)*%
X53400000Y-129500000D03*
%TD*%
%TO.P,R48,1*%
%TO.N,3.3V*%
X39400000Y-90600000D03*
%TO.P,R48,2*%
%TO.N,ADR3*%
X38400000Y-90600000D03*
%TD*%
%TO.P,R47,1*%
%TO.N,VCC*%
X73400000Y-113500000D03*
%TO.P,R47,2*%
%TO.N,Net-(Q62-D)*%
X72400000Y-113500000D03*
%TD*%
D16*
%TO.P,R46,1*%
%TO.N,3.3V*%
X26600000Y-90600000D03*
%TO.P,R46,2*%
%TO.N,ADR2*%
X27600000Y-90600000D03*
%TD*%
D15*
%TO.P,R45,1*%
%TO.N,VCC*%
X54400000Y-133500000D03*
%TO.P,R45,2*%
%TO.N,Net-(Q60-D)*%
X53400000Y-133500000D03*
%TD*%
%TO.P,R44,1*%
%TO.N,3.3V*%
X39400000Y-88000000D03*
%TO.P,R44,2*%
%TO.N,ADR1*%
X38400000Y-88000000D03*
%TD*%
%TO.P,R43,1*%
%TO.N,VCC*%
X73400000Y-109500000D03*
%TO.P,R43,2*%
%TO.N,Net-(Q58-D)*%
X72400000Y-109500000D03*
%TD*%
D16*
%TO.P,R42,1*%
%TO.N,3.3V*%
X26600000Y-88000000D03*
%TO.P,R42,2*%
%TO.N,ADR0*%
X27600000Y-88000000D03*
%TD*%
D15*
%TO.P,R41,1*%
%TO.N,VCC*%
X54400000Y-137700000D03*
%TO.P,R41,2*%
%TO.N,Net-(Q56-D)*%
X53400000Y-137700000D03*
%TD*%
%TO.P,R40,1*%
%TO.N,3.3V*%
X48500000Y-83600000D03*
%TO.P,R40,2*%
%TO.N,D7*%
X47500000Y-83600000D03*
%TD*%
D17*
%TO.P,R39,1*%
%TO.N,VCC*%
X51400000Y-97900000D03*
%TO.P,R39,2*%
%TO.N,Net-(Q51-D)*%
X51400000Y-98900000D03*
%TD*%
D13*
%TO.P,R38,1*%
%TO.N,VCC*%
X77800000Y-98900000D03*
%TO.P,R38,2*%
%TO.N,Net-(Q50-D)*%
X77800000Y-97900000D03*
%TD*%
D16*
%TO.P,R37,1*%
%TO.N,3.3V*%
X17500000Y-83600000D03*
%TO.P,R37,2*%
%TO.N,D6*%
X18500000Y-83600000D03*
%TD*%
D17*
%TO.P,R36,1*%
%TO.N,VCC*%
X51400000Y-93400000D03*
%TO.P,R36,2*%
%TO.N,Net-(Q45-D)*%
X51400000Y-94400000D03*
%TD*%
D15*
%TO.P,R34,1*%
%TO.N,3.3V*%
X48500000Y-81000000D03*
%TO.P,R34,2*%
%TO.N,D5*%
X47500000Y-81000000D03*
%TD*%
D17*
%TO.P,R33,1*%
%TO.N,VCC*%
X51400000Y-88900000D03*
%TO.P,R33,2*%
%TO.N,Net-(Q39-D)*%
X51400000Y-89900000D03*
%TD*%
D13*
%TO.P,R32,1*%
%TO.N,VCC*%
X77800000Y-89800000D03*
%TO.P,R32,2*%
%TO.N,Net-(Q38-D)*%
X77800000Y-88800000D03*
%TD*%
D16*
%TO.P,R31,1*%
%TO.N,3.3V*%
X17500000Y-81000000D03*
%TO.P,R31,2*%
%TO.N,D4*%
X18500000Y-81000000D03*
%TD*%
D17*
%TO.P,R30,1*%
%TO.N,VCC*%
X51400000Y-84400000D03*
%TO.P,R30,2*%
%TO.N,Net-(Q33-D)*%
X51400000Y-85400000D03*
%TD*%
D13*
%TO.P,R29,1*%
%TO.N,VCC*%
X77800000Y-85400000D03*
%TO.P,R29,2*%
%TO.N,Net-(Q32-D)*%
X77800000Y-84400000D03*
%TD*%
D15*
%TO.P,R28,1*%
%TO.N,3.3V*%
X48500000Y-78500000D03*
%TO.P,R28,2*%
%TO.N,D3*%
X47500000Y-78500000D03*
%TD*%
D13*
%TO.P,R27,1*%
%TO.N,VCC*%
X30500000Y-144900000D03*
%TO.P,R27,2*%
%TO.N,Net-(D1-A)*%
X30500000Y-143900000D03*
%TD*%
D17*
%TO.P,R26,1*%
%TO.N,VCC*%
X51400000Y-79900000D03*
%TO.P,R26,2*%
%TO.N,Net-(Q27-D)*%
X51400000Y-80900000D03*
%TD*%
D13*
%TO.P,R25,1*%
%TO.N,VCC*%
X77800000Y-80800000D03*
%TO.P,R25,2*%
%TO.N,Net-(Q26-D)*%
X77800000Y-79800000D03*
%TD*%
D14*
%TO.P,R24,1*%
%TO.N,CLK*%
X77900000Y-116520000D03*
%TO.P,R24,2*%
%TO.N,VCC*%
X77900000Y-108900000D03*
%TD*%
D16*
%TO.P,R23,1*%
%TO.N,3.3V*%
X17500000Y-78500000D03*
%TO.P,R23,2*%
%TO.N,D2*%
X18500000Y-78500000D03*
%TD*%
D14*
%TO.P,R22,1*%
%TO.N,Net-(Q20-D)*%
X80100000Y-116520000D03*
%TO.P,R22,2*%
%TO.N,VCC*%
X80100000Y-108900000D03*
%TD*%
D17*
%TO.P,R21,1*%
%TO.N,VCC*%
X51400000Y-75400000D03*
%TO.P,R21,2*%
%TO.N,Net-(Q19-D)*%
X51400000Y-76400000D03*
%TD*%
D13*
%TO.P,R20,1*%
%TO.N,VCC*%
X77800000Y-76400000D03*
%TO.P,R20,2*%
%TO.N,Net-(Q18-D)*%
X77800000Y-75400000D03*
%TD*%
D15*
%TO.P,R19,1*%
%TO.N,3.3V*%
X48500000Y-75900000D03*
%TO.P,R19,2*%
%TO.N,D1*%
X47500000Y-75900000D03*
%TD*%
%TO.P,R18,1*%
%TO.N,VCC*%
X81200000Y-127100000D03*
%TO.P,R18,2*%
%TO.N,RST*%
X80200000Y-127100000D03*
%TD*%
D17*
%TO.P,R17,1*%
%TO.N,VCC*%
X51400000Y-70900000D03*
%TO.P,R17,2*%
%TO.N,Net-(Q12-D)*%
X51400000Y-71900000D03*
%TD*%
D13*
%TO.P,R16,1*%
%TO.N,VCC*%
X77900000Y-71800000D03*
%TO.P,R16,2*%
%TO.N,Net-(Q11-D)*%
X77900000Y-70800000D03*
%TD*%
D16*
%TO.P,R15,1*%
%TO.N,VCC*%
X83000000Y-127100000D03*
%TO.P,R15,2*%
%TO.N,Net-(Q10-D)*%
X84000000Y-127100000D03*
%TD*%
%TO.P,R14,1*%
%TO.N,3.3V*%
X17500000Y-75900000D03*
%TO.P,R14,2*%
%TO.N,D0*%
X18500000Y-75900000D03*
%TD*%
D17*
%TO.P,R13,1*%
%TO.N,VCC*%
X51400000Y-66400000D03*
%TO.P,R13,2*%
%TO.N,Net-(Q5-D)*%
X51400000Y-67400000D03*
%TD*%
D15*
%TO.P,R11,1*%
%TO.N,3.3V*%
X39400000Y-110900000D03*
%TO.P,R11,2*%
%TO.N,RW L*%
X38400000Y-110900000D03*
%TD*%
D17*
%TO.P,R10,1*%
%TO.N,VCC*%
X84800000Y-66800000D03*
%TO.P,R10,2*%
%TO.N,Net-(Q17-G)*%
X84800000Y-67800000D03*
%TD*%
D15*
%TO.P,R9,1*%
%TO.N,VCC*%
X78400000Y-127110000D03*
%TO.P,R9,2*%
%TO.N,Net-(Q1-D)*%
X77400000Y-127110000D03*
%TD*%
D14*
%TO.P,R4,1*%
%TO.N,D6*%
X20380000Y-83000000D03*
%TO.P,R4,2*%
%TO.N,Net-(J2-Pin_10)*%
X28000000Y-83000000D03*
%TD*%
%TO.P,R3,1*%
%TO.N,D4*%
X20380000Y-80400000D03*
%TO.P,R3,2*%
%TO.N,Net-(J2-Pin_8)*%
X28000000Y-80400000D03*
%TD*%
%TO.P,R2,1*%
%TO.N,D2*%
X20380000Y-77900000D03*
%TO.P,R2,2*%
%TO.N,Net-(J2-Pin_6)*%
X28000000Y-77900000D03*
%TD*%
%TO.P,R1,1*%
%TO.N,D0*%
X20380000Y-75300000D03*
%TO.P,R1,2*%
%TO.N,Net-(J2-Pin_4)*%
X28000000Y-75300000D03*
%TD*%
D18*
%TO.P,Q87,1,G*%
%TO.N,Net-(Q86-D)*%
X65837500Y-138650000D03*
%TO.P,Q87,2,S*%
%TO.N,GND*%
X65837500Y-136750000D03*
%TO.P,Q87,3,D*%
%TO.N,ADR15*%
X63962500Y-137700000D03*
%TD*%
%TO.P,Q86,1,G*%
%TO.N,A15*%
X70637500Y-138650000D03*
%TO.P,Q86,2,S*%
%TO.N,GND*%
X70637500Y-136750000D03*
%TO.P,Q86,3,D*%
%TO.N,Net-(Q86-D)*%
X68762500Y-137700000D03*
%TD*%
%TO.P,Q85,1,G*%
%TO.N,Net-(Q84-D)*%
X46837500Y-110650000D03*
%TO.P,Q85,2,S*%
%TO.N,GND*%
X46837500Y-108750000D03*
%TO.P,Q85,3,D*%
%TO.N,ADR14*%
X44962500Y-109700000D03*
%TD*%
%TO.P,Q84,1,G*%
%TO.N,A14*%
X51637500Y-110650000D03*
%TO.P,Q84,2,S*%
%TO.N,GND*%
X51637500Y-108750000D03*
%TO.P,Q84,3,D*%
%TO.N,Net-(Q84-D)*%
X49762500Y-109700000D03*
%TD*%
%TO.P,Q83,1,G*%
%TO.N,Net-(Q82-D)*%
X65837500Y-134650000D03*
%TO.P,Q83,2,S*%
%TO.N,GND*%
X65837500Y-132750000D03*
%TO.P,Q83,3,D*%
%TO.N,ADR13*%
X63962500Y-133700000D03*
%TD*%
%TO.P,Q82,1,G*%
%TO.N,A13*%
X70637500Y-134650000D03*
%TO.P,Q82,2,S*%
%TO.N,GND*%
X70637500Y-132750000D03*
%TO.P,Q82,3,D*%
%TO.N,Net-(Q82-D)*%
X68762500Y-133700000D03*
%TD*%
%TO.P,Q81,1,G*%
%TO.N,Net-(Q80-D)*%
X46837500Y-114650000D03*
%TO.P,Q81,2,S*%
%TO.N,GND*%
X46837500Y-112750000D03*
%TO.P,Q81,3,D*%
%TO.N,ADR12*%
X44962500Y-113700000D03*
%TD*%
%TO.P,Q80,1,G*%
%TO.N,A12*%
X51637500Y-114650000D03*
%TO.P,Q80,2,S*%
%TO.N,GND*%
X51637500Y-112750000D03*
%TO.P,Q80,3,D*%
%TO.N,Net-(Q80-D)*%
X49762500Y-113700000D03*
%TD*%
%TO.P,Q79,1,G*%
%TO.N,Net-(Q78-D)*%
X65837500Y-130650000D03*
%TO.P,Q79,2,S*%
%TO.N,GND*%
X65837500Y-128750000D03*
%TO.P,Q79,3,D*%
%TO.N,ADR11*%
X63962500Y-129700000D03*
%TD*%
%TO.P,Q78,1,G*%
%TO.N,A11*%
X70637500Y-130650000D03*
%TO.P,Q78,2,S*%
%TO.N,GND*%
X70637500Y-128750000D03*
%TO.P,Q78,3,D*%
%TO.N,Net-(Q78-D)*%
X68762500Y-129700000D03*
%TD*%
%TO.P,Q77,1,G*%
%TO.N,Net-(Q76-D)*%
X46837500Y-118650000D03*
%TO.P,Q77,2,S*%
%TO.N,GND*%
X46837500Y-116750000D03*
%TO.P,Q77,3,D*%
%TO.N,ADR10*%
X44962500Y-117700000D03*
%TD*%
%TO.P,Q76,1,G*%
%TO.N,A10*%
X51637500Y-118650000D03*
%TO.P,Q76,2,S*%
%TO.N,GND*%
X51637500Y-116750000D03*
%TO.P,Q76,3,D*%
%TO.N,Net-(Q76-D)*%
X49762500Y-117700000D03*
%TD*%
%TO.P,Q75,1,G*%
%TO.N,Net-(Q74-D)*%
X65837500Y-126650000D03*
%TO.P,Q75,2,S*%
%TO.N,GND*%
X65837500Y-124750000D03*
%TO.P,Q75,3,D*%
%TO.N,ADR9*%
X63962500Y-125700000D03*
%TD*%
%TO.P,Q74,1,G*%
%TO.N,A9*%
X70637500Y-126650000D03*
%TO.P,Q74,2,S*%
%TO.N,GND*%
X70637500Y-124750000D03*
%TO.P,Q74,3,D*%
%TO.N,Net-(Q74-D)*%
X68762500Y-125700000D03*
%TD*%
%TO.P,Q73,1,G*%
%TO.N,Net-(Q72-D)*%
X46837500Y-122650000D03*
%TO.P,Q73,2,S*%
%TO.N,GND*%
X46837500Y-120750000D03*
%TO.P,Q73,3,D*%
%TO.N,ADR8*%
X44962500Y-121700000D03*
%TD*%
%TO.P,Q72,1,G*%
%TO.N,A8*%
X51637500Y-122650000D03*
%TO.P,Q72,2,S*%
%TO.N,GND*%
X51637500Y-120750000D03*
%TO.P,Q72,3,D*%
%TO.N,Net-(Q72-D)*%
X49762500Y-121700000D03*
%TD*%
%TO.P,Q71,1,G*%
%TO.N,Net-(Q70-D)*%
X65837500Y-122650000D03*
%TO.P,Q71,2,S*%
%TO.N,GND*%
X65837500Y-120750000D03*
%TO.P,Q71,3,D*%
%TO.N,ADR7*%
X63962500Y-121700000D03*
%TD*%
%TO.P,Q70,1,G*%
%TO.N,A7*%
X70637500Y-122650000D03*
%TO.P,Q70,2,S*%
%TO.N,GND*%
X70637500Y-120750000D03*
%TO.P,Q70,3,D*%
%TO.N,Net-(Q70-D)*%
X68762500Y-121700000D03*
%TD*%
%TO.P,Q69,1,G*%
%TO.N,Net-(Q68-D)*%
X46837500Y-126650000D03*
%TO.P,Q69,2,S*%
%TO.N,GND*%
X46837500Y-124750000D03*
%TO.P,Q69,3,D*%
%TO.N,ADR6*%
X44962500Y-125700000D03*
%TD*%
%TO.P,Q68,1,G*%
%TO.N,A6*%
X51637500Y-126650000D03*
%TO.P,Q68,2,S*%
%TO.N,GND*%
X51637500Y-124750000D03*
%TO.P,Q68,3,D*%
%TO.N,Net-(Q68-D)*%
X49762500Y-125700000D03*
%TD*%
%TO.P,Q67,1,G*%
%TO.N,Net-(Q66-D)*%
X65837500Y-118650000D03*
%TO.P,Q67,2,S*%
%TO.N,GND*%
X65837500Y-116750000D03*
%TO.P,Q67,3,D*%
%TO.N,ADR5*%
X63962500Y-117700000D03*
%TD*%
%TO.P,Q66,1,G*%
%TO.N,A5*%
X70637500Y-118650000D03*
%TO.P,Q66,2,S*%
%TO.N,GND*%
X70637500Y-116750000D03*
%TO.P,Q66,3,D*%
%TO.N,Net-(Q66-D)*%
X68762500Y-117700000D03*
%TD*%
%TO.P,Q65,1,G*%
%TO.N,Net-(Q64-D)*%
X46837500Y-130650000D03*
%TO.P,Q65,2,S*%
%TO.N,GND*%
X46837500Y-128750000D03*
%TO.P,Q65,3,D*%
%TO.N,ADR4*%
X44962500Y-129700000D03*
%TD*%
%TO.P,Q64,1,G*%
%TO.N,A4*%
X51637500Y-130650000D03*
%TO.P,Q64,2,S*%
%TO.N,GND*%
X51637500Y-128750000D03*
%TO.P,Q64,3,D*%
%TO.N,Net-(Q64-D)*%
X49762500Y-129700000D03*
%TD*%
%TO.P,Q63,1,G*%
%TO.N,Net-(Q62-D)*%
X65837500Y-114650000D03*
%TO.P,Q63,2,S*%
%TO.N,GND*%
X65837500Y-112750000D03*
%TO.P,Q63,3,D*%
%TO.N,ADR3*%
X63962500Y-113700000D03*
%TD*%
%TO.P,Q62,1,G*%
%TO.N,A3*%
X70637500Y-114650000D03*
%TO.P,Q62,2,S*%
%TO.N,GND*%
X70637500Y-112750000D03*
%TO.P,Q62,3,D*%
%TO.N,Net-(Q62-D)*%
X68762500Y-113700000D03*
%TD*%
%TO.P,Q61,1,G*%
%TO.N,Net-(Q60-D)*%
X46837500Y-134650000D03*
%TO.P,Q61,2,S*%
%TO.N,GND*%
X46837500Y-132750000D03*
%TO.P,Q61,3,D*%
%TO.N,ADR2*%
X44962500Y-133700000D03*
%TD*%
%TO.P,Q60,1,G*%
%TO.N,A2*%
X51637500Y-134650000D03*
%TO.P,Q60,2,S*%
%TO.N,GND*%
X51637500Y-132750000D03*
%TO.P,Q60,3,D*%
%TO.N,Net-(Q60-D)*%
X49762500Y-133700000D03*
%TD*%
%TO.P,Q59,1,G*%
%TO.N,Net-(Q58-D)*%
X65837500Y-110650000D03*
%TO.P,Q59,2,S*%
%TO.N,GND*%
X65837500Y-108750000D03*
%TO.P,Q59,3,D*%
%TO.N,ADR1*%
X63962500Y-109700000D03*
%TD*%
%TO.P,Q58,1,G*%
%TO.N,A1*%
X70637500Y-110650000D03*
%TO.P,Q58,2,S*%
%TO.N,GND*%
X70637500Y-108750000D03*
%TO.P,Q58,3,D*%
%TO.N,Net-(Q58-D)*%
X68762500Y-109700000D03*
%TD*%
%TO.P,Q57,1,G*%
%TO.N,Net-(Q56-D)*%
X46837500Y-138650000D03*
%TO.P,Q57,2,S*%
%TO.N,GND*%
X46837500Y-136750000D03*
%TO.P,Q57,3,D*%
%TO.N,ADR0*%
X44962500Y-137700000D03*
%TD*%
%TO.P,Q56,1,G*%
%TO.N,A0*%
X51637500Y-138650000D03*
%TO.P,Q56,2,S*%
%TO.N,GND*%
X51637500Y-136750000D03*
%TO.P,Q56,3,D*%
%TO.N,Net-(Q56-D)*%
X49762500Y-137700000D03*
%TD*%
D19*
%TO.P,Q55,1,G*%
%TO.N,Net-(Q17-G)*%
X55050000Y-97462500D03*
%TO.P,Q55,2,S*%
%TO.N,GND*%
X53150000Y-97462500D03*
%TO.P,Q55,3,D*%
%TO.N,Net-(Q54-S)*%
X54100000Y-99337500D03*
%TD*%
%TO.P,Q54,1,G*%
%TO.N,Net-(Q51-D)*%
X59050000Y-97462500D03*
%TO.P,Q54,2,S*%
%TO.N,Net-(Q54-S)*%
X57150000Y-97462500D03*
%TO.P,Q54,3,D*%
%TO.N,D7*%
X58100000Y-99337500D03*
%TD*%
%TO.P,Q53,1,G*%
%TO.N,R{slash}W*%
X68050000Y-97462500D03*
%TO.P,Q53,2,S*%
%TO.N,GND*%
X66150000Y-97462500D03*
%TO.P,Q53,3,D*%
%TO.N,Net-(Q52-S)*%
X67100000Y-99337500D03*
%TD*%
%TO.P,Q52,1,G*%
%TO.N,Net-(Q50-D)*%
X72050000Y-97462500D03*
%TO.P,Q52,2,S*%
%TO.N,Net-(Q52-S)*%
X70150000Y-97462500D03*
%TO.P,Q52,3,D*%
%TO.N,Buss7*%
X71100000Y-99337500D03*
%TD*%
D12*
%TO.P,Q51,1,G*%
%TO.N,Buss7*%
X61150000Y-99337500D03*
%TO.P,Q51,2,S*%
%TO.N,GND*%
X63050000Y-99337500D03*
%TO.P,Q51,3,D*%
%TO.N,Net-(Q51-D)*%
X62100000Y-97462500D03*
%TD*%
%TO.P,Q50,1,G*%
%TO.N,D7*%
X74150000Y-99337500D03*
%TO.P,Q50,2,S*%
%TO.N,GND*%
X76050000Y-99337500D03*
%TO.P,Q50,3,D*%
%TO.N,Net-(Q50-D)*%
X75100000Y-97462500D03*
%TD*%
D19*
%TO.P,Q49,1,G*%
%TO.N,Net-(Q17-G)*%
X55050000Y-92962500D03*
%TO.P,Q49,2,S*%
%TO.N,GND*%
X53150000Y-92962500D03*
%TO.P,Q49,3,D*%
%TO.N,Net-(Q48-S)*%
X54100000Y-94837500D03*
%TD*%
%TO.P,Q48,1,G*%
%TO.N,Net-(Q45-D)*%
X59050000Y-92962500D03*
%TO.P,Q48,2,S*%
%TO.N,Net-(Q48-S)*%
X57150000Y-92962500D03*
%TO.P,Q48,3,D*%
%TO.N,D6*%
X58100000Y-94837500D03*
%TD*%
%TO.P,Q47,1,G*%
%TO.N,R{slash}W*%
X68050000Y-92962500D03*
%TO.P,Q47,2,S*%
%TO.N,GND*%
X66150000Y-92962500D03*
%TO.P,Q47,3,D*%
%TO.N,Net-(Q46-S)*%
X67100000Y-94837500D03*
%TD*%
%TO.P,Q46,1,G*%
%TO.N,Net-(Q44-D)*%
X72050000Y-92962500D03*
%TO.P,Q46,2,S*%
%TO.N,Net-(Q46-S)*%
X70150000Y-92962500D03*
%TO.P,Q46,3,D*%
%TO.N,Buss6*%
X71100000Y-94837500D03*
%TD*%
D12*
%TO.P,Q45,1,G*%
%TO.N,Buss6*%
X61150000Y-94837500D03*
%TO.P,Q45,2,S*%
%TO.N,GND*%
X63050000Y-94837500D03*
%TO.P,Q45,3,D*%
%TO.N,Net-(Q45-D)*%
X62100000Y-92962500D03*
%TD*%
D19*
%TO.P,Q43,1,G*%
%TO.N,Net-(Q17-G)*%
X55050000Y-88462500D03*
%TO.P,Q43,2,S*%
%TO.N,GND*%
X53150000Y-88462500D03*
%TO.P,Q43,3,D*%
%TO.N,Net-(Q42-S)*%
X54100000Y-90337500D03*
%TD*%
%TO.P,Q42,1,G*%
%TO.N,Net-(Q39-D)*%
X59050000Y-88462500D03*
%TO.P,Q42,2,S*%
%TO.N,Net-(Q42-S)*%
X57150000Y-88462500D03*
%TO.P,Q42,3,D*%
%TO.N,D5*%
X58100000Y-90337500D03*
%TD*%
%TO.P,Q41,1,G*%
%TO.N,R{slash}W*%
X68050000Y-88462500D03*
%TO.P,Q41,2,S*%
%TO.N,GND*%
X66150000Y-88462500D03*
%TO.P,Q41,3,D*%
%TO.N,Net-(Q40-S)*%
X67100000Y-90337500D03*
%TD*%
%TO.P,Q40,1,G*%
%TO.N,Net-(Q38-D)*%
X72050000Y-88462500D03*
%TO.P,Q40,2,S*%
%TO.N,Net-(Q40-S)*%
X70150000Y-88462500D03*
%TO.P,Q40,3,D*%
%TO.N,Buss5*%
X71100000Y-90337500D03*
%TD*%
D12*
%TO.P,Q39,1,G*%
%TO.N,Buss5*%
X61150000Y-90337500D03*
%TO.P,Q39,2,S*%
%TO.N,GND*%
X63050000Y-90337500D03*
%TO.P,Q39,3,D*%
%TO.N,Net-(Q39-D)*%
X62100000Y-88462500D03*
%TD*%
%TO.P,Q38,1,G*%
%TO.N,D5*%
X74150000Y-90237500D03*
%TO.P,Q38,2,S*%
%TO.N,GND*%
X76050000Y-90237500D03*
%TO.P,Q38,3,D*%
%TO.N,Net-(Q38-D)*%
X75100000Y-88362500D03*
%TD*%
D19*
%TO.P,Q37,1,G*%
%TO.N,Net-(Q17-G)*%
X55050000Y-83962500D03*
%TO.P,Q37,2,S*%
%TO.N,GND*%
X53150000Y-83962500D03*
%TO.P,Q37,3,D*%
%TO.N,Net-(Q36-S)*%
X54100000Y-85837500D03*
%TD*%
%TO.P,Q36,1,G*%
%TO.N,Net-(Q33-D)*%
X59050000Y-83962500D03*
%TO.P,Q36,2,S*%
%TO.N,Net-(Q36-S)*%
X57150000Y-83962500D03*
%TO.P,Q36,3,D*%
%TO.N,D4*%
X58100000Y-85837500D03*
%TD*%
%TO.P,Q35,1,G*%
%TO.N,R{slash}W*%
X68050000Y-83962500D03*
%TO.P,Q35,2,S*%
%TO.N,GND*%
X66150000Y-83962500D03*
%TO.P,Q35,3,D*%
%TO.N,Net-(Q34-S)*%
X67100000Y-85837500D03*
%TD*%
%TO.P,Q34,1,G*%
%TO.N,Net-(Q32-D)*%
X72050000Y-83962500D03*
%TO.P,Q34,2,S*%
%TO.N,Net-(Q34-S)*%
X70150000Y-83962500D03*
%TO.P,Q34,3,D*%
%TO.N,Buss4*%
X71100000Y-85837500D03*
%TD*%
D12*
%TO.P,Q33,1,G*%
%TO.N,Buss4*%
X61150000Y-85937500D03*
%TO.P,Q33,2,S*%
%TO.N,GND*%
X63050000Y-85937500D03*
%TO.P,Q33,3,D*%
%TO.N,Net-(Q33-D)*%
X62100000Y-84062500D03*
%TD*%
%TO.P,Q32,1,G*%
%TO.N,D4*%
X74150000Y-85837500D03*
%TO.P,Q32,2,S*%
%TO.N,GND*%
X76050000Y-85837500D03*
%TO.P,Q32,3,D*%
%TO.N,Net-(Q32-D)*%
X75100000Y-83962500D03*
%TD*%
D19*
%TO.P,Q31,1,G*%
%TO.N,Net-(Q17-G)*%
X55050000Y-79462500D03*
%TO.P,Q31,2,S*%
%TO.N,GND*%
X53150000Y-79462500D03*
%TO.P,Q31,3,D*%
%TO.N,Net-(Q30-S)*%
X54100000Y-81337500D03*
%TD*%
%TO.P,Q30,1,G*%
%TO.N,Net-(Q27-D)*%
X59050000Y-79462500D03*
%TO.P,Q30,2,S*%
%TO.N,Net-(Q30-S)*%
X57150000Y-79462500D03*
%TO.P,Q30,3,D*%
%TO.N,D3*%
X58100000Y-81337500D03*
%TD*%
%TO.P,Q29,1,G*%
%TO.N,R{slash}W*%
X68050000Y-79462500D03*
%TO.P,Q29,2,S*%
%TO.N,GND*%
X66150000Y-79462500D03*
%TO.P,Q29,3,D*%
%TO.N,Net-(Q28-S)*%
X67100000Y-81337500D03*
%TD*%
%TO.P,Q28,1,G*%
%TO.N,Net-(Q26-D)*%
X72050000Y-79462500D03*
%TO.P,Q28,2,S*%
%TO.N,Net-(Q28-S)*%
X70150000Y-79462500D03*
%TO.P,Q28,3,D*%
%TO.N,Buss3*%
X71100000Y-81337500D03*
%TD*%
D12*
%TO.P,Q27,1,G*%
%TO.N,Buss3*%
X61150000Y-81337500D03*
%TO.P,Q27,2,S*%
%TO.N,GND*%
X63050000Y-81337500D03*
%TO.P,Q27,3,D*%
%TO.N,Net-(Q27-D)*%
X62100000Y-79462500D03*
%TD*%
%TO.P,Q26,1,G*%
%TO.N,D3*%
X74150000Y-81237500D03*
%TO.P,Q26,2,S*%
%TO.N,GND*%
X76050000Y-81237500D03*
%TO.P,Q26,3,D*%
%TO.N,Net-(Q26-D)*%
X75100000Y-79362500D03*
%TD*%
D18*
%TO.P,Q25,1,G*%
%TO.N,Net-(Q20-D)*%
X77837500Y-120650000D03*
%TO.P,Q25,2,S*%
%TO.N,GND*%
X77837500Y-118750000D03*
%TO.P,Q25,3,D*%
%TO.N,CLK*%
X75962500Y-119700000D03*
%TD*%
D19*
%TO.P,Q24,1,G*%
%TO.N,Net-(Q17-G)*%
X55050000Y-74962500D03*
%TO.P,Q24,2,S*%
%TO.N,GND*%
X53150000Y-74962500D03*
%TO.P,Q24,3,D*%
%TO.N,Net-(Q23-S)*%
X54100000Y-76837500D03*
%TD*%
%TO.P,Q23,1,G*%
%TO.N,Net-(Q19-D)*%
X59050000Y-74962500D03*
%TO.P,Q23,2,S*%
%TO.N,Net-(Q23-S)*%
X57150000Y-74962500D03*
%TO.P,Q23,3,D*%
%TO.N,D2*%
X58100000Y-76837500D03*
%TD*%
%TO.P,Q22,1,G*%
%TO.N,R{slash}W*%
X68050000Y-74962500D03*
%TO.P,Q22,2,S*%
%TO.N,GND*%
X66150000Y-74962500D03*
%TO.P,Q22,3,D*%
%TO.N,Net-(Q21-S)*%
X67100000Y-76837500D03*
%TD*%
%TO.P,Q21,1,G*%
%TO.N,Net-(Q18-D)*%
X72050000Y-74962500D03*
%TO.P,Q21,2,S*%
%TO.N,Net-(Q21-S)*%
X70150000Y-74962500D03*
%TO.P,Q21,3,D*%
%TO.N,Buss2*%
X71100000Y-76837500D03*
%TD*%
D18*
%TO.P,Q20,1,G*%
%TO.N,CLK L*%
X81937500Y-120650000D03*
%TO.P,Q20,2,S*%
%TO.N,GND*%
X81937500Y-118750000D03*
%TO.P,Q20,3,D*%
%TO.N,Net-(Q20-D)*%
X80062500Y-119700000D03*
%TD*%
D12*
%TO.P,Q19,1,G*%
%TO.N,Buss2*%
X61150000Y-76837500D03*
%TO.P,Q19,2,S*%
%TO.N,GND*%
X63050000Y-76837500D03*
%TO.P,Q19,3,D*%
%TO.N,Net-(Q19-D)*%
X62100000Y-74962500D03*
%TD*%
%TO.P,Q18,1,G*%
%TO.N,D2*%
X74150000Y-76837500D03*
%TO.P,Q18,2,S*%
%TO.N,GND*%
X76050000Y-76837500D03*
%TO.P,Q18,3,D*%
%TO.N,Net-(Q18-D)*%
X75100000Y-74962500D03*
%TD*%
D19*
%TO.P,Q17,1,G*%
%TO.N,Net-(Q17-G)*%
X55050000Y-70462500D03*
%TO.P,Q17,2,S*%
%TO.N,GND*%
X53150000Y-70462500D03*
%TO.P,Q17,3,D*%
%TO.N,Net-(Q16-S)*%
X54100000Y-72337500D03*
%TD*%
%TO.P,Q16,1,G*%
%TO.N,Net-(Q12-D)*%
X59050000Y-70462500D03*
%TO.P,Q16,2,S*%
%TO.N,Net-(Q16-S)*%
X57150000Y-70462500D03*
%TO.P,Q16,3,D*%
%TO.N,D1*%
X58100000Y-72337500D03*
%TD*%
%TO.P,Q15,1,G*%
%TO.N,R{slash}W*%
X68050000Y-70462500D03*
%TO.P,Q15,2,S*%
%TO.N,GND*%
X66150000Y-70462500D03*
%TO.P,Q15,3,D*%
%TO.N,Net-(Q14-S)*%
X67100000Y-72337500D03*
%TD*%
%TO.P,Q14,1,G*%
%TO.N,Net-(Q11-D)*%
X72050000Y-70462500D03*
%TO.P,Q14,2,S*%
%TO.N,Net-(Q14-S)*%
X70150000Y-70462500D03*
%TO.P,Q14,3,D*%
%TO.N,Buss1*%
X71100000Y-72337500D03*
%TD*%
D18*
%TO.P,Q13,1,G*%
%TO.N,Net-(Q10-D)*%
X78237500Y-125360000D03*
%TO.P,Q13,2,S*%
%TO.N,GND*%
X78237500Y-123460000D03*
%TO.P,Q13,3,D*%
%TO.N,RST*%
X76362500Y-124410000D03*
%TD*%
D12*
%TO.P,Q12,1,G*%
%TO.N,Buss1*%
X61150000Y-72337500D03*
%TO.P,Q12,2,S*%
%TO.N,GND*%
X63050000Y-72337500D03*
%TO.P,Q12,3,D*%
%TO.N,Net-(Q12-D)*%
X62100000Y-70462500D03*
%TD*%
%TO.P,Q11,1,G*%
%TO.N,D1*%
X74150000Y-72237500D03*
%TO.P,Q11,2,S*%
%TO.N,GND*%
X76050000Y-72237500D03*
%TO.P,Q11,3,D*%
%TO.N,Net-(Q11-D)*%
X75100000Y-70362500D03*
%TD*%
D18*
%TO.P,Q10,1,G*%
%TO.N,RST L*%
X83237500Y-125360000D03*
%TO.P,Q10,2,S*%
%TO.N,GND*%
X83237500Y-123460000D03*
%TO.P,Q10,3,D*%
%TO.N,Net-(Q10-D)*%
X81362500Y-124410000D03*
%TD*%
D19*
%TO.P,Q9,1,G*%
%TO.N,Net-(Q17-G)*%
X55050000Y-65962500D03*
%TO.P,Q9,2,S*%
%TO.N,GND*%
X53150000Y-65962500D03*
%TO.P,Q9,3,D*%
%TO.N,Net-(Q8-S)*%
X54100000Y-67837500D03*
%TD*%
%TO.P,Q8,1,G*%
%TO.N,Net-(Q5-D)*%
X59050000Y-65962500D03*
%TO.P,Q8,2,S*%
%TO.N,Net-(Q8-S)*%
X57150000Y-65962500D03*
%TO.P,Q8,3,D*%
%TO.N,D0*%
X58100000Y-67837500D03*
%TD*%
%TO.P,Q7,1,G*%
%TO.N,R{slash}W*%
X68050000Y-65962500D03*
%TO.P,Q7,2,S*%
%TO.N,GND*%
X66150000Y-65962500D03*
%TO.P,Q7,3,D*%
%TO.N,Net-(Q6-S)*%
X67100000Y-67837500D03*
%TD*%
%TO.P,Q6,1,G*%
%TO.N,Net-(Q4-D)*%
X72050000Y-65962500D03*
%TO.P,Q6,2,S*%
%TO.N,Net-(Q6-S)*%
X70150000Y-65962500D03*
%TO.P,Q6,3,D*%
%TO.N,Buss0*%
X71100000Y-67837500D03*
%TD*%
D12*
%TO.P,Q5,1,G*%
%TO.N,Buss0*%
X61150000Y-67837500D03*
%TO.P,Q5,2,S*%
%TO.N,GND*%
X63050000Y-67837500D03*
%TO.P,Q5,3,D*%
%TO.N,Net-(Q5-D)*%
X62100000Y-65962500D03*
%TD*%
%TO.P,Q4,1,G*%
%TO.N,D0*%
X74150000Y-67837500D03*
%TO.P,Q4,2,S*%
%TO.N,GND*%
X76050000Y-67837500D03*
%TO.P,Q4,3,D*%
%TO.N,Net-(Q4-D)*%
X75100000Y-65962500D03*
%TD*%
D18*
%TO.P,Q3,1,G*%
%TO.N,Net-(Q1-D)*%
X78237500Y-130560000D03*
%TO.P,Q3,2,S*%
%TO.N,GND*%
X78237500Y-128660000D03*
%TO.P,Q3,3,D*%
%TO.N,RW L*%
X76362500Y-129610000D03*
%TD*%
D12*
%TO.P,Q2,1,G*%
%TO.N,R{slash}W*%
X81350000Y-68237500D03*
%TO.P,Q2,2,S*%
%TO.N,GND*%
X83250000Y-68237500D03*
%TO.P,Q2,3,D*%
%TO.N,Net-(Q17-G)*%
X82300000Y-66362500D03*
%TD*%
D18*
%TO.P,Q1,1,G*%
%TO.N,R{slash}W*%
X83237500Y-130560000D03*
%TO.P,Q1,2,S*%
%TO.N,GND*%
X83237500Y-128660000D03*
%TO.P,Q1,3,D*%
%TO.N,Net-(Q1-D)*%
X81362500Y-129610000D03*
%TD*%
D10*
%TO.P,J7,1,Pin_1*%
%TO.N,VCC*%
X88049500Y-136850500D03*
D11*
%TO.P,J7,2,Pin_2*%
%TO.N,GND*%
X88049500Y-139390500D03*
%TD*%
D10*
%TO.P,J6,1,Pin_1*%
%TO.N,VCC*%
X83449500Y-136850500D03*
D11*
%TO.P,J6,2,Pin_2*%
%TO.N,GND*%
X83449500Y-139390500D03*
%TD*%
D10*
%TO.P,J5,1,Pin_1*%
%TO.N,VCC*%
X78849500Y-136850500D03*
D11*
%TO.P,J5,2,Pin_2*%
%TO.N,GND*%
X78849500Y-139390500D03*
%TD*%
D10*
%TO.P,J4,1,Pin_1*%
%TO.N,GND*%
X46860000Y-142800000D03*
D11*
%TO.P,J4,2,Pin_2*%
%TO.N,3.3V*%
X46860000Y-145340000D03*
%TO.P,J4,3,Pin_3*%
%TO.N,GND*%
X49400000Y-142800000D03*
%TO.P,J4,4,Pin_4*%
%TO.N,5V*%
X49400000Y-145340000D03*
%TO.P,J4,5,Pin_5*%
%TO.N,GND*%
X51940000Y-142800000D03*
%TO.P,J4,6,Pin_6*%
%TO.N,VCC*%
X51940000Y-145340000D03*
%TD*%
D10*
%TO.P,J2,1,Pin_1*%
%TO.N,Net-(J2-Pin_1)*%
X34340000Y-72800000D03*
D11*
%TO.P,J2,2,Pin_2*%
%TO.N,Net-(J2-Pin_2)*%
X31800000Y-72800000D03*
%TO.P,J2,3,Pin_3*%
%TO.N,Net-(J2-Pin_3)*%
X34340000Y-75340000D03*
%TO.P,J2,4,Pin_4*%
%TO.N,Net-(J2-Pin_4)*%
X31800000Y-75340000D03*
%TO.P,J2,5,Pin_5*%
%TO.N,Net-(J2-Pin_5)*%
X34340000Y-77880000D03*
%TO.P,J2,6,Pin_6*%
%TO.N,Net-(J2-Pin_6)*%
X31800000Y-77880000D03*
%TO.P,J2,7,Pin_7*%
%TO.N,Net-(J2-Pin_7)*%
X34340000Y-80420000D03*
%TO.P,J2,8,Pin_8*%
%TO.N,Net-(J2-Pin_8)*%
X31800000Y-80420000D03*
%TO.P,J2,9,Pin_9*%
%TO.N,Net-(J2-Pin_9)*%
X34340000Y-82960000D03*
%TO.P,J2,10,Pin_10*%
%TO.N,Net-(J2-Pin_10)*%
X31800000Y-82960000D03*
%TO.P,J2,11,Pin_11*%
%TO.N,GND*%
X34340000Y-85500000D03*
%TO.P,J2,12,Pin_12*%
%TO.N,5V*%
X31800000Y-85500000D03*
%TO.P,J2,13,Pin_13*%
%TO.N,ADR1*%
X34340000Y-88040000D03*
%TO.P,J2,14,Pin_14*%
%TO.N,ADR0*%
X31800000Y-88040000D03*
%TO.P,J2,15,Pin_15*%
%TO.N,ADR3*%
X34340000Y-90580000D03*
%TO.P,J2,16,Pin_16*%
%TO.N,ADR2*%
X31800000Y-90580000D03*
%TO.P,J2,17,Pin_17*%
%TO.N,ADR5*%
X34340000Y-93120000D03*
%TO.P,J2,18,Pin_18*%
%TO.N,ADR4*%
X31800000Y-93120000D03*
%TO.P,J2,19,Pin_19*%
%TO.N,ADR7*%
X34340000Y-95660000D03*
%TO.P,J2,20,Pin_20*%
%TO.N,ADR6*%
X31800000Y-95660000D03*
%TO.P,J2,21,Pin_21*%
%TO.N,ADR9*%
X34340000Y-98200000D03*
%TO.P,J2,22,Pin_22*%
%TO.N,ADR8*%
X31800000Y-98200000D03*
%TO.P,J2,23,Pin_23*%
%TO.N,ADR11*%
X34340000Y-100740000D03*
%TO.P,J2,24,Pin_24*%
%TO.N,ADR10*%
X31800000Y-100740000D03*
%TO.P,J2,25,Pin_25*%
%TO.N,ADR13*%
X34340000Y-103280000D03*
%TO.P,J2,26,Pin_26*%
%TO.N,ADR12*%
X31800000Y-103280000D03*
%TO.P,J2,27,Pin_27*%
%TO.N,ADR15*%
X34340000Y-105820000D03*
%TO.P,J2,28,Pin_28*%
%TO.N,ADR14*%
X31800000Y-105820000D03*
%TO.P,J2,29,Pin_29*%
%TO.N,GND*%
X34340000Y-108360000D03*
%TO.P,J2,30,Pin_30*%
%TO.N,3.3V*%
X31800000Y-108360000D03*
%TO.P,J2,31,Pin_31*%
%TO.N,RW L*%
X34340000Y-110900000D03*
%TO.P,J2,32,Pin_32*%
%TO.N,CLK L*%
X31800000Y-110900000D03*
%TO.P,J2,33,Pin_33*%
%TO.N,RST L*%
X34340000Y-113440000D03*
%TO.P,J2,34,Pin_34*%
%TO.N,Net-(J2-Pin_34)*%
X31800000Y-113440000D03*
%TO.P,J2,35,Pin_35*%
%TO.N,Net-(J2-Pin_35)*%
X34340000Y-115980000D03*
%TO.P,J2,36,Pin_36*%
%TO.N,Net-(J2-Pin_36)*%
X31800000Y-115980000D03*
%TO.P,J2,37,Pin_37*%
%TO.N,Net-(J2-Pin_37)*%
X34340000Y-118520000D03*
%TO.P,J2,38,Pin_38*%
%TO.N,Net-(J2-Pin_38)*%
X31800000Y-118520000D03*
%TO.P,J2,39,Pin_39*%
%TO.N,Net-(J2-Pin_39)*%
X34340000Y-121060000D03*
%TO.P,J2,40,Pin_40*%
%TO.N,Net-(J2-Pin_40)*%
X31800000Y-121060000D03*
%TD*%
D20*
%TO.P,D1,1,K*%
%TO.N,GND*%
X34870000Y-143900000D03*
D21*
%TO.P,D1,2,A*%
%TO.N,Net-(D1-A)*%
X32330000Y-143900000D03*
%TD*%
D22*
%TO.P,C8,1*%
%TO.N,VCC*%
X60950000Y-141750000D03*
%TO.P,C8,2*%
%TO.N,GND*%
X60950000Y-143650000D03*
%TD*%
%TO.P,C7,1*%
%TO.N,VCC*%
X64000000Y-141750000D03*
%TO.P,C7,2*%
%TO.N,GND*%
X64000000Y-143650000D03*
%TD*%
%TO.P,C6,1*%
%TO.N,VCC*%
X67050000Y-141750000D03*
%TO.P,C6,2*%
%TO.N,GND*%
X67050000Y-143650000D03*
%TD*%
%TO.P,C5,1*%
%TO.N,VCC*%
X70100000Y-141750000D03*
%TO.P,C5,2*%
%TO.N,GND*%
X70100000Y-143650000D03*
%TD*%
%TO.P,C4,1*%
%TO.N,VCC*%
X29150000Y-65550000D03*
%TO.P,C4,2*%
%TO.N,GND*%
X29150000Y-67450000D03*
%TD*%
%TO.P,C3,1*%
%TO.N,VCC*%
X32200000Y-65550000D03*
%TO.P,C3,2*%
%TO.N,GND*%
X32200000Y-67450000D03*
%TD*%
%TO.P,C2,1*%
%TO.N,VCC*%
X35250000Y-65550000D03*
%TO.P,C2,2*%
%TO.N,GND*%
X35250000Y-67450000D03*
%TD*%
%TO.P,C1,1*%
%TO.N,VCC*%
X38300000Y-65550000D03*
%TO.P,C1,2*%
%TO.N,GND*%
X38300000Y-67450000D03*
%TD*%
D14*
%TO.P,R6,2*%
%TO.N,D3*%
X45620000Y-77900000D03*
%TO.P,R6,1*%
%TO.N,Net-(J2-Pin_5)*%
X38000000Y-77900000D03*
%TD*%
D23*
%TO.N,VCC*%
X80800000Y-126200000D03*
D24*
%TO.N,GND*%
X72600000Y-132000000D03*
X72601000Y-136000000D03*
X62600000Y-127000000D03*
X72500000Y-124100000D03*
X72500000Y-120000000D03*
X72601000Y-115900000D03*
X72100000Y-107400000D03*
X72200000Y-111700000D03*
X42250000Y-67600000D03*
%TO.N,VCC*%
X42150000Y-65500000D03*
%TO.N,GND*%
X25050000Y-67500000D03*
%TO.N,VCC*%
X24950000Y-65500000D03*
X28370000Y-144800000D03*
%TO.N,RST*%
X79300000Y-126399000D03*
%TO.N,GND*%
X81937500Y-116800450D03*
X79900000Y-123460000D03*
X79900000Y-128711000D03*
%TO.N,RST L*%
X83500000Y-122110000D03*
%TO.N,CLK L*%
X80800000Y-122210000D03*
%TO.N,RW L*%
X76000000Y-127110000D03*
D23*
%TO.N,A7*%
X72800000Y-122700000D03*
%TO.N,A5*%
X72800000Y-118700000D03*
%TO.N,A3*%
X72800000Y-114700000D03*
%TO.N,A1*%
X68200000Y-111700000D03*
%TO.N,A9*%
X72800000Y-126700000D03*
%TO.N,A11*%
X72800000Y-130700000D03*
%TO.N,A13*%
X72800000Y-134700000D03*
%TO.N,A15*%
X72800000Y-138700000D03*
%TO.N,D7*%
X60400000Y-100777000D03*
%TO.N,D6*%
X60400000Y-96300000D03*
%TO.N,D5*%
X60400000Y-91777000D03*
%TO.N,D4*%
X60400000Y-87400000D03*
%TO.N,D3*%
X60400000Y-82777000D03*
%TO.N,D2*%
X60400000Y-78277000D03*
%TO.N,D1*%
X60400000Y-73777000D03*
%TO.N,D0*%
X60400000Y-69400000D03*
D24*
%TO.N,GND*%
X48400000Y-108750000D03*
X48400000Y-112750000D03*
X48400000Y-116750000D03*
X48400000Y-120750000D03*
X48400000Y-124750000D03*
X48400000Y-128750000D03*
X48400000Y-132750000D03*
X48400000Y-136750000D03*
D23*
%TO.N,A0*%
X53900000Y-138700000D03*
%TO.N,A2*%
X53900000Y-134700000D03*
%TO.N,A4*%
X53800000Y-130700000D03*
%TO.N,A8*%
X53900000Y-122700000D03*
%TO.N,A10*%
X53900000Y-118700000D03*
%TO.N,A12*%
X53900000Y-114700000D03*
%TO.N,A6*%
X53800000Y-126700000D03*
%TO.N,A14*%
X53900000Y-110700000D03*
%TO.N,Buss7*%
X69800000Y-99800000D03*
%TO.N,Buss6*%
X70000000Y-95600000D03*
%TO.N,Buss5*%
X69900000Y-91100000D03*
%TO.N,Buss4*%
X69900000Y-86600000D03*
%TO.N,Buss3*%
X69900000Y-82000000D03*
%TO.N,Buss2*%
X69900000Y-77500000D03*
%TO.N,Buss7*%
X94100000Y-69200000D03*
%TO.N,Buss6*%
X93200000Y-69200000D03*
%TO.N,Buss5*%
X92300000Y-69200000D03*
%TO.N,Buss4*%
X91355168Y-69161051D03*
%TO.N,Buss3*%
X90504067Y-69158479D03*
%TO.N,Buss2*%
X89660575Y-69163516D03*
%TO.N,Buss1*%
X69900000Y-73000000D03*
X88824265Y-69175735D03*
%TO.N,Buss0*%
X69800000Y-68500000D03*
%TO.N,GND*%
X84500000Y-69000000D03*
X75087500Y-68337500D03*
X75087500Y-72737500D03*
X75087500Y-77337500D03*
X75087500Y-81737500D03*
X75087500Y-86337500D03*
X75087500Y-90737500D03*
X75087500Y-95337500D03*
X75087500Y-99837500D03*
X54087500Y-96937500D03*
X54087500Y-92437500D03*
X54087500Y-87937500D03*
X54087500Y-83437500D03*
X54087500Y-78937500D03*
X54087500Y-74437500D03*
X54087500Y-69937500D03*
X54087500Y-65337500D03*
D24*
%TO.N,VCC*%
X50689000Y-82637500D03*
X78611000Y-82637500D03*
X78611000Y-96337500D03*
X50689000Y-96237500D03*
X78611000Y-69237500D03*
X50689000Y-69037500D03*
%TO.N,GND*%
X64587500Y-85037500D03*
X64587500Y-98437500D03*
X64587500Y-93937500D03*
X64587500Y-89437500D03*
X64587500Y-80437500D03*
X64587500Y-75937500D03*
X64587500Y-71437500D03*
X64587500Y-66937500D03*
D23*
%TO.N,Net-(Q17-G)*%
X56100000Y-92400000D03*
X56100000Y-87900000D03*
X56100000Y-83400000D03*
X56100000Y-78900000D03*
X56100000Y-74400000D03*
X56100000Y-69800000D03*
X56100000Y-65400000D03*
X56100000Y-97000000D03*
%TO.N,R{slash}W*%
X69100000Y-92377000D03*
X69100000Y-88000000D03*
X69100000Y-83377000D03*
X69100000Y-78877000D03*
X69100000Y-74377000D03*
X69100000Y-70000000D03*
X69100000Y-65400000D03*
X69100000Y-96900000D03*
%TD*%
D25*
%TO.N,VCC*%
X81200000Y-126600000D02*
X80800000Y-126200000D01*
X81200000Y-127100000D02*
X81200000Y-126600000D01*
D26*
X56050000Y-142750000D02*
X56050000Y-139350000D01*
X56050000Y-139350000D02*
X54400000Y-137700000D01*
X56050000Y-142750000D02*
X57050000Y-141750000D01*
X53460000Y-145340000D02*
X56050000Y-142750000D01*
X57050000Y-141750000D02*
X60950000Y-141750000D01*
X51940000Y-145340000D02*
X53460000Y-145340000D01*
D25*
%TO.N,GND*%
X81937500Y-118750000D02*
X81937500Y-116800450D01*
D26*
%TO.N,VCC*%
X86800000Y-108900000D02*
X87800000Y-109900000D01*
X79200000Y-108900000D02*
X80100000Y-108900000D01*
X79200000Y-108900000D02*
X86800000Y-108900000D01*
X76350000Y-110450000D02*
X77900000Y-108900000D01*
X77900000Y-108900000D02*
X79200000Y-108900000D01*
X73801000Y-112999000D02*
X76350000Y-110450000D01*
X73801000Y-138600000D02*
X73801000Y-112999000D01*
X73801000Y-138600000D02*
X73801000Y-137901000D01*
X73801000Y-137901000D02*
X73400000Y-137500000D01*
X71500000Y-141750000D02*
X73801000Y-139449000D01*
X71500000Y-141750000D02*
X73950000Y-141750000D01*
X73801000Y-139449000D02*
X73801000Y-138600000D01*
X73950000Y-141750000D02*
X78849500Y-136850500D01*
X70100000Y-141750000D02*
X71500000Y-141750000D01*
X60950000Y-141750000D02*
X70100000Y-141750000D01*
D25*
%TO.N,GND*%
X50689000Y-144051000D02*
X51940000Y-142800000D01*
X50689000Y-145858182D02*
X50689000Y-144051000D01*
X58009000Y-146591000D02*
X51421818Y-146591000D01*
X51421818Y-146591000D02*
X50689000Y-145858182D01*
X60950000Y-143650000D02*
X58009000Y-146591000D01*
X74590000Y-143650000D02*
X78849500Y-139390500D01*
X70100000Y-143650000D02*
X74590000Y-143650000D01*
X71850000Y-132750000D02*
X72600000Y-132000000D01*
X70637500Y-132750000D02*
X71850000Y-132750000D01*
X71851000Y-136750000D02*
X72601000Y-136000000D01*
X70637500Y-136750000D02*
X71851000Y-136750000D01*
X64350000Y-128750000D02*
X62600000Y-127000000D01*
X65837500Y-128750000D02*
X64350000Y-128750000D01*
X71850000Y-124750000D02*
X72500000Y-124100000D01*
X70637500Y-124750000D02*
X71850000Y-124750000D01*
X71750000Y-120750000D02*
X72500000Y-120000000D01*
X70637500Y-120750000D02*
X71750000Y-120750000D01*
X71751000Y-116750000D02*
X72601000Y-115900000D01*
X70637500Y-116750000D02*
X71751000Y-116750000D01*
X70750000Y-108750000D02*
X72100000Y-107400000D01*
X70637500Y-108750000D02*
X70750000Y-108750000D01*
X71150000Y-112750000D02*
X72200000Y-111700000D01*
X70637500Y-112750000D02*
X71150000Y-112750000D01*
X70187500Y-116300000D02*
X70637500Y-116750000D01*
X66287500Y-116300000D02*
X70187500Y-116300000D01*
X65837500Y-116750000D02*
X66287500Y-116300000D01*
%TO.N,ADR1*%
X62949942Y-109700000D02*
X63962500Y-109700000D01*
X55948942Y-102699000D02*
X62949942Y-109700000D01*
X52789001Y-102699000D02*
X55948942Y-102699000D01*
X38400000Y-88309999D02*
X52789001Y-102699000D01*
X38400000Y-88000000D02*
X38400000Y-88309999D01*
%TO.N,Net-(Q17-G)*%
X57299000Y-64201000D02*
X56100000Y-65400000D01*
X80237500Y-64300000D02*
X78999941Y-64300000D01*
X78999941Y-64300000D02*
X78900941Y-64201000D01*
X82300000Y-66362500D02*
X80237500Y-64300000D01*
X78900941Y-64201000D02*
X57299000Y-64201000D01*
%TO.N,VCC*%
X79710000Y-69701000D02*
X78611000Y-70800000D01*
X79900000Y-69701000D02*
X79710000Y-69701000D01*
X78611000Y-70800000D02*
X78611000Y-69737500D01*
X79900000Y-69701000D02*
X79074500Y-69701000D01*
X84790364Y-69701000D02*
X79900000Y-69701000D01*
X85511000Y-67432030D02*
X85511000Y-68980364D01*
X85511000Y-68980364D02*
X84790364Y-69701000D01*
X84878970Y-66800000D02*
X85511000Y-67432030D01*
X84800000Y-66800000D02*
X84878970Y-66800000D01*
X79074500Y-69701000D02*
X78611000Y-69237500D01*
X78611000Y-68211000D02*
X77800000Y-67400000D01*
X78611000Y-69737500D02*
X78611000Y-68211000D01*
%TO.N,R{slash}W*%
X69676000Y-64824000D02*
X69100000Y-65400000D01*
X78673999Y-64824000D02*
X69676000Y-64824000D01*
X81350000Y-67500001D02*
X78673999Y-64824000D01*
X81350000Y-68237500D02*
X81350000Y-67500001D01*
%TO.N,Net-(Q17-G)*%
X83052501Y-66362500D02*
X82300000Y-66362500D01*
X84490001Y-67800000D02*
X83052501Y-66362500D01*
X84800000Y-67800000D02*
X84490001Y-67800000D01*
%TO.N,GND*%
X42100000Y-67450000D02*
X42250000Y-67600000D01*
X38300000Y-67450000D02*
X42100000Y-67450000D01*
%TO.N,VCC*%
X42100000Y-65550000D02*
X42150000Y-65500000D01*
X38300000Y-65550000D02*
X42100000Y-65550000D01*
%TO.N,GND*%
X25100000Y-67450000D02*
X25050000Y-67500000D01*
X29150000Y-67450000D02*
X25100000Y-67450000D01*
%TO.N,VCC*%
X25000000Y-65550000D02*
X24950000Y-65500000D01*
X29150000Y-65550000D02*
X25000000Y-65550000D01*
X74049500Y-136850500D02*
X73400000Y-137500000D01*
X78849500Y-136850500D02*
X74049500Y-136850500D01*
X75400000Y-133500000D02*
X73400000Y-133500000D01*
X78849500Y-136850500D02*
X78750500Y-136850500D01*
X78750500Y-136850500D02*
X75400000Y-133500000D01*
X28470000Y-144900000D02*
X28370000Y-144800000D01*
X30500000Y-144900000D02*
X28470000Y-144900000D01*
%TO.N,Net-(D1-A)*%
X30500000Y-143900000D02*
X32330000Y-143900000D01*
%TO.N,GND*%
X60950000Y-143650000D02*
X70100000Y-143650000D01*
X38300000Y-67450000D02*
X29150000Y-67450000D01*
%TO.N,VCC*%
X38300000Y-65550000D02*
X29150000Y-65550000D01*
X78849500Y-136850500D02*
X88049500Y-136850500D01*
X79150500Y-136549500D02*
X78849500Y-136850500D01*
X73400000Y-137500000D02*
X73501000Y-137601000D01*
X80100000Y-108900000D02*
X86800000Y-108900000D01*
X77199000Y-109601000D02*
X77900000Y-108900000D01*
X73501000Y-109601000D02*
X77199000Y-109601000D01*
X73400000Y-109500000D02*
X73501000Y-109601000D01*
X73501000Y-137399000D02*
X73400000Y-137500000D01*
X73501000Y-109601000D02*
X73501000Y-137399000D01*
%TO.N,R{slash}W*%
X84681000Y-129116500D02*
X83237500Y-130560000D01*
X87800000Y-122600000D02*
X84681000Y-125719000D01*
X84681000Y-125719000D02*
X84681000Y-129116500D01*
%TO.N,RST*%
X79300000Y-126399000D02*
X77755612Y-126399000D01*
%TO.N,RST L*%
X84376000Y-122986000D02*
X83500000Y-122110000D01*
X84376000Y-124221500D02*
X84376000Y-122986000D01*
X83237500Y-125360000D02*
X84376000Y-124221500D01*
%TO.N,GND*%
X80556050Y-115419000D02*
X79491000Y-115419000D01*
X79491000Y-115419000D02*
X79000000Y-115910000D01*
X81937500Y-116800450D02*
X80556050Y-115419000D01*
D27*
X79000000Y-117210000D02*
X79000000Y-115910000D01*
X79000000Y-117587500D02*
X79000000Y-117210000D01*
D25*
X77837500Y-118750000D02*
X79000000Y-117587500D01*
X81300000Y-123460000D02*
X78237500Y-123460000D01*
X83237500Y-123460000D02*
X81300000Y-123460000D01*
%TO.N,Net-(Q10-D)*%
X81983306Y-125626694D02*
X81362500Y-125005888D01*
X81983306Y-125626694D02*
X81716612Y-125360000D01*
X81716612Y-125360000D02*
X80412500Y-125360000D01*
X82417612Y-126061000D02*
X81983306Y-125626694D01*
X84000000Y-126790001D02*
X83270999Y-126061000D01*
X83270999Y-126061000D02*
X82417612Y-126061000D01*
X81362500Y-125005888D02*
X81362500Y-124410000D01*
X84000000Y-127100000D02*
X84000000Y-126790001D01*
X80412500Y-125360000D02*
X81362500Y-124410000D01*
X78237500Y-125360000D02*
X80412500Y-125360000D01*
%TO.N,RST*%
X76362500Y-125005888D02*
X76362500Y-124410000D01*
X77755612Y-126399000D02*
X76362500Y-125005888D01*
X79499000Y-126399000D02*
X79300000Y-126399000D01*
X80200000Y-127100000D02*
X79499000Y-126399000D01*
%TO.N,GND*%
X79951000Y-128660000D02*
X79900000Y-128711000D01*
X83237500Y-128660000D02*
X79951000Y-128660000D01*
X83237500Y-128660000D02*
X78237500Y-128660000D01*
%TO.N,VCC*%
X81509999Y-127100000D02*
X81200000Y-127409999D01*
X83000000Y-127100000D02*
X81509999Y-127100000D01*
X80798999Y-127811000D02*
X81200000Y-127409999D01*
X79101000Y-127811000D02*
X80798999Y-127811000D01*
X78400000Y-127110000D02*
X79101000Y-127811000D01*
X81200000Y-127409999D02*
X81200000Y-127100000D01*
%TO.N,RW L*%
X76362500Y-127472500D02*
X76362500Y-129610000D01*
X76000000Y-127110000D02*
X76362500Y-127472500D01*
%TO.N,CLK L*%
X80800000Y-121787500D02*
X81937500Y-120650000D01*
X80800000Y-122210000D02*
X80800000Y-121787500D01*
%TO.N,Net-(J2-Pin_34)*%
X29347000Y-115893000D02*
X31800000Y-113440000D01*
X29347000Y-129967000D02*
X29347000Y-115893000D01*
X31800000Y-132420000D02*
X29347000Y-129967000D01*
%TO.N,Net-(J2-Pin_35)*%
X36192000Y-117832000D02*
X34340000Y-115980000D01*
X36192000Y-128028000D02*
X36192000Y-117832000D01*
X34340000Y-129880000D02*
X36192000Y-128028000D01*
%TO.N,Net-(J2-Pin_36)*%
X29948000Y-117832000D02*
X31800000Y-115980000D01*
X29948000Y-128028000D02*
X29948000Y-117832000D01*
X31800000Y-129880000D02*
X29948000Y-128028000D01*
%TO.N,Net-(J2-Pin_38)*%
X30549000Y-119771000D02*
X31800000Y-118520000D01*
X30549000Y-126089000D02*
X30549000Y-119771000D01*
X31800000Y-127340000D02*
X30549000Y-126089000D01*
%TO.N,Net-(J2-Pin_37)*%
X35591000Y-119771000D02*
X34340000Y-118520000D01*
X34340000Y-127340000D02*
X35591000Y-126089000D01*
X35591000Y-126089000D02*
X35591000Y-119771000D01*
%TO.N,Net-(J2-Pin_39)*%
X34340000Y-124800000D02*
X34340000Y-121060000D01*
%TO.N,Net-(J2-Pin_40)*%
X31800000Y-124800000D02*
X31800000Y-121060000D01*
%TO.N,RW L*%
X38400000Y-110900000D02*
X34340000Y-110900000D01*
%TO.N,3.3V*%
X39400000Y-110590001D02*
X39400000Y-110900000D01*
X35918999Y-107109000D02*
X39400000Y-110590001D01*
X33051000Y-107109000D02*
X35918999Y-107109000D01*
X32730000Y-107430000D02*
X33051000Y-107109000D01*
X26600000Y-98121030D02*
X26600000Y-98200000D01*
X32318182Y-96949000D02*
X27772030Y-96949000D01*
X33051000Y-98300000D02*
X33051000Y-97681818D01*
X27772030Y-96949000D02*
X26600000Y-98121030D01*
X33051000Y-98300000D02*
X33051000Y-97719818D01*
X33051000Y-97681818D02*
X32318182Y-96949000D01*
X26600000Y-95621030D02*
X26600000Y-95700000D01*
X27812030Y-94409000D02*
X26600000Y-95621030D01*
X33051000Y-95141818D02*
X32318182Y-94409000D01*
X33051000Y-95800000D02*
X33051000Y-95141818D01*
X33051000Y-95800000D02*
X33051000Y-95179818D01*
X32318182Y-94409000D02*
X27812030Y-94409000D01*
X27752030Y-91869000D02*
X26600000Y-93021030D01*
X32318182Y-91869000D02*
X27752030Y-91869000D01*
X33051000Y-93100000D02*
X33051000Y-92601818D01*
X33051000Y-92601818D02*
X32318182Y-91869000D01*
X33051000Y-93100000D02*
X33051000Y-92639818D01*
X26600000Y-93021030D02*
X26600000Y-93100000D01*
X26600000Y-90521030D02*
X26600000Y-90600000D01*
X27792030Y-89329000D02*
X26600000Y-90521030D01*
X33051000Y-90800000D02*
X33051000Y-90061818D01*
X33051000Y-90061818D02*
X32318182Y-89329000D01*
X32318182Y-89329000D02*
X27792030Y-89329000D01*
X27732030Y-86789000D02*
X26600000Y-87921030D01*
X26600000Y-87921030D02*
X26600000Y-88000000D01*
X31300000Y-86789000D02*
X27732030Y-86789000D01*
X31300000Y-86789000D02*
X20379001Y-86789000D01*
X39400000Y-87921030D02*
X39400000Y-88000000D01*
X35300000Y-86789000D02*
X38267970Y-86789000D01*
X38267970Y-86789000D02*
X39400000Y-87921030D01*
X35300000Y-86789000D02*
X45620999Y-86789000D01*
X39400000Y-90290001D02*
X39400000Y-90600000D01*
X38438999Y-89329000D02*
X39400000Y-90290001D01*
X33051000Y-90800000D02*
X33051000Y-90099818D01*
X33051000Y-90800000D02*
X33051000Y-88400000D01*
X33051000Y-90099818D02*
X33821818Y-89329000D01*
X33821818Y-89329000D02*
X38438999Y-89329000D01*
X38478999Y-91869000D02*
X39400000Y-92790001D01*
X33051000Y-92639818D02*
X33821818Y-91869000D01*
X33051000Y-93600000D02*
X33051000Y-93100000D01*
X33051000Y-93600000D02*
X33051000Y-90800000D01*
X33821818Y-91869000D02*
X38478999Y-91869000D01*
X39400000Y-92790001D02*
X39400000Y-93100000D01*
X39400000Y-95621030D02*
X39400000Y-95700000D01*
X38187970Y-94409000D02*
X39400000Y-95621030D01*
X33051000Y-95179818D02*
X33821818Y-94409000D01*
X33051000Y-97500000D02*
X33051000Y-95800000D01*
X33821818Y-94409000D02*
X38187970Y-94409000D01*
X33051000Y-97500000D02*
X33051000Y-93600000D01*
X39400000Y-98121030D02*
X39400000Y-98200000D01*
X38227970Y-96949000D02*
X39400000Y-98121030D01*
X33051000Y-97719818D02*
X33821818Y-96949000D01*
X33051000Y-99400000D02*
X33051000Y-98300000D01*
X33821818Y-96949000D02*
X38227970Y-96949000D01*
X33051000Y-99400000D02*
X33051000Y-97500000D01*
X33821818Y-99489000D02*
X38267970Y-99489000D01*
X38267970Y-99489000D02*
X39400000Y-100621030D01*
X33051000Y-100259818D02*
X33821818Y-99489000D01*
X33051000Y-101200000D02*
X33051000Y-99400000D01*
X33051000Y-101200000D02*
X33051000Y-100259818D01*
X39400000Y-100621030D02*
X39400000Y-100700000D01*
X26600000Y-100621030D02*
X26600000Y-100700000D01*
X27732030Y-99489000D02*
X26600000Y-100621030D01*
X33051000Y-100221818D02*
X32318182Y-99489000D01*
X33051000Y-101500000D02*
X33051000Y-100221818D01*
X33051000Y-101500000D02*
X33051000Y-101200000D01*
X32318182Y-99489000D02*
X27732030Y-99489000D01*
X26600000Y-102990001D02*
X26600000Y-103300000D01*
X32318182Y-102029000D02*
X27561001Y-102029000D01*
X27561001Y-102029000D02*
X26600000Y-102990001D01*
X33051000Y-102799818D02*
X33051000Y-102761818D01*
X33051000Y-102761818D02*
X32318182Y-102029000D01*
X33821818Y-102029000D02*
X33051000Y-102799818D01*
X39400000Y-102990001D02*
X38438999Y-102029000D01*
X39400000Y-103300000D02*
X39400000Y-102990001D01*
X33051000Y-102799818D02*
X33051000Y-101500000D01*
X38438999Y-102029000D02*
X33821818Y-102029000D01*
X38478999Y-104569000D02*
X39400000Y-105490001D01*
X33821818Y-104569000D02*
X38478999Y-104569000D01*
X33051000Y-105339818D02*
X33821818Y-104569000D01*
X39400000Y-105490001D02*
X39400000Y-105800000D01*
X33051000Y-105600000D02*
X33051000Y-105400000D01*
X33051000Y-105600000D02*
X33051000Y-105339818D01*
X27752030Y-104569000D02*
X26600000Y-105721030D01*
X33051000Y-105301818D02*
X32318182Y-104569000D01*
X33051000Y-105400000D02*
X33051000Y-105301818D01*
X32318182Y-104569000D02*
X27752030Y-104569000D01*
X33051000Y-105400000D02*
X33051000Y-102799818D01*
X26600000Y-105721030D02*
X26600000Y-105800000D01*
D28*
%TO.N,Net-(Q1-D)*%
X77200000Y-127310000D02*
X77400000Y-127110000D01*
X77200000Y-129001968D02*
X77200000Y-127310000D01*
X78237500Y-130039468D02*
X77200000Y-129001968D01*
X78237500Y-130560000D02*
X78237500Y-130039468D01*
X79187500Y-129610000D02*
X78237500Y-130560000D01*
X81362500Y-129610000D02*
X79187500Y-129610000D01*
%TO.N,A7*%
X70637500Y-122650000D02*
X72750000Y-122650000D01*
X72750000Y-122650000D02*
X72800000Y-122700000D01*
%TO.N,A5*%
X72750000Y-118650000D02*
X70637500Y-118650000D01*
X72800000Y-118700000D02*
X72750000Y-118650000D01*
%TO.N,A3*%
X72750000Y-114650000D02*
X70637500Y-114650000D01*
X72800000Y-114700000D02*
X72750000Y-114650000D01*
%TO.N,A1*%
X68200000Y-111700000D02*
X69250000Y-110650000D01*
X69250000Y-110650000D02*
X70637500Y-110650000D01*
%TO.N,A9*%
X72750000Y-126650000D02*
X70637500Y-126650000D01*
X72800000Y-126700000D02*
X72750000Y-126650000D01*
%TO.N,A11*%
X72750000Y-130650000D02*
X70637500Y-130650000D01*
X72800000Y-130700000D02*
X72750000Y-130650000D01*
%TO.N,A13*%
X72800000Y-134700000D02*
X72750000Y-134650000D01*
X72750000Y-134650000D02*
X70637500Y-134650000D01*
%TO.N,A15*%
X72800000Y-138700000D02*
X72750000Y-138650000D01*
X72750000Y-138650000D02*
X70637500Y-138650000D01*
D25*
%TO.N,CLK*%
X87540000Y-114980000D02*
X87800000Y-114980000D01*
D28*
%TO.N,D7*%
X60400000Y-100777000D02*
X72710500Y-100777000D01*
%TO.N,D6*%
X60400000Y-96300000D02*
X72687500Y-96300000D01*
%TO.N,D5*%
X60400000Y-91777000D02*
X72610500Y-91777000D01*
X59539500Y-91777000D02*
X60400000Y-91777000D01*
%TO.N,D4*%
X60400000Y-87400000D02*
X72587500Y-87400000D01*
%TO.N,D3*%
X60400000Y-82777000D02*
X72610500Y-82777000D01*
%TO.N,D2*%
X60400000Y-78277000D02*
X72710500Y-78277000D01*
%TO.N,D1*%
X60400000Y-73777000D02*
X72610500Y-73777000D01*
%TO.N,D0*%
X60800000Y-69400000D02*
X72587500Y-69400000D01*
D25*
%TO.N,CLK*%
X75962500Y-118457500D02*
X77900000Y-116520000D01*
X75962500Y-119700000D02*
X75962500Y-118457500D01*
%TO.N,Net-(Q20-D)*%
X80062500Y-116557500D02*
X80100000Y-116520000D01*
X80062500Y-119700000D02*
X80062500Y-116557500D01*
X79112500Y-120650000D02*
X80062500Y-119700000D01*
X77837500Y-120650000D02*
X79112500Y-120650000D01*
%TO.N,GND*%
X65837500Y-136750000D02*
X70637500Y-136750000D01*
X65837500Y-132750000D02*
X70637500Y-132750000D01*
X65837500Y-128750000D02*
X70637500Y-128750000D01*
X65837500Y-124750000D02*
X70637500Y-124750000D01*
X65837500Y-120750000D02*
X70637500Y-120750000D01*
X65837500Y-112750000D02*
X70637500Y-112750000D01*
X65837500Y-108750000D02*
X70637500Y-108750000D01*
%TO.N,Net-(Q58-D)*%
X72200000Y-109700000D02*
X72400000Y-109500000D01*
X68762500Y-109700000D02*
X72200000Y-109700000D01*
X67812500Y-110650000D02*
X68762500Y-109700000D01*
X65837500Y-110650000D02*
X67812500Y-110650000D01*
%TO.N,Net-(Q62-D)*%
X72200000Y-113700000D02*
X72400000Y-113500000D01*
X68762500Y-113700000D02*
X72200000Y-113700000D01*
X67812500Y-114650000D02*
X68762500Y-113700000D01*
X65837500Y-114650000D02*
X67812500Y-114650000D01*
%TO.N,Net-(Q66-D)*%
X72200000Y-117700000D02*
X72400000Y-117500000D01*
X68762500Y-117700000D02*
X72200000Y-117700000D01*
X67812500Y-118650000D02*
X68762500Y-117700000D01*
X65837500Y-118650000D02*
X67812500Y-118650000D01*
%TO.N,Net-(Q70-D)*%
X72200000Y-121700000D02*
X72400000Y-121500000D01*
X68762500Y-121700000D02*
X72200000Y-121700000D01*
X65837500Y-122650000D02*
X67812500Y-122650000D01*
X67812500Y-122650000D02*
X68762500Y-121700000D01*
%TO.N,Net-(Q74-D)*%
X72200000Y-125700000D02*
X72400000Y-125500000D01*
X68762500Y-125700000D02*
X72200000Y-125700000D01*
X67812500Y-126650000D02*
X68762500Y-125700000D01*
X65837500Y-126650000D02*
X67812500Y-126650000D01*
%TO.N,Net-(Q78-D)*%
X72200000Y-129700000D02*
X72400000Y-129500000D01*
X68762500Y-129700000D02*
X72200000Y-129700000D01*
X67812500Y-130650000D02*
X68762500Y-129700000D01*
X65837500Y-130650000D02*
X67812500Y-130650000D01*
%TO.N,Net-(Q82-D)*%
X68762500Y-133700000D02*
X72200000Y-133700000D01*
X72200000Y-133700000D02*
X72400000Y-133500000D01*
X65837500Y-134650000D02*
X67812500Y-134650000D01*
X67812500Y-134650000D02*
X68762500Y-133700000D01*
%TO.N,Net-(Q86-D)*%
X72200000Y-137700000D02*
X72400000Y-137500000D01*
X68762500Y-137700000D02*
X72200000Y-137700000D01*
X67812500Y-138650000D02*
X68762500Y-137700000D01*
X65837500Y-138650000D02*
X67812500Y-138650000D01*
%TO.N,ADR2*%
X27600000Y-91000000D02*
X27600000Y-90600000D01*
X22894000Y-95706000D02*
X27600000Y-91000000D01*
X22894000Y-135593298D02*
X22894000Y-95706000D01*
X38395000Y-140705000D02*
X28005702Y-140705000D01*
X44962500Y-134137500D02*
X38395000Y-140705000D01*
X44962500Y-133700000D02*
X44962500Y-134137500D01*
X28005702Y-140705000D02*
X22894000Y-135593298D01*
%TO.N,ADR4*%
X43000000Y-135199418D02*
X43000000Y-131662500D01*
X38095418Y-140104000D02*
X43000000Y-135199418D01*
X28254642Y-140104000D02*
X38095418Y-140104000D01*
X43000000Y-131662500D02*
X44962500Y-129700000D01*
X23495000Y-97514999D02*
X23495000Y-135344356D01*
X23495000Y-135344356D02*
X28254642Y-140104000D01*
X27600000Y-93409999D02*
X23495000Y-97514999D01*
X27600000Y-93100000D02*
X27600000Y-93409999D01*
%TO.N,ADR6*%
X42400000Y-134949478D02*
X42400000Y-128262500D01*
X37846478Y-139503000D02*
X42400000Y-134949478D01*
X28503584Y-139503000D02*
X37846478Y-139503000D01*
X24096000Y-135095416D02*
X28503584Y-139503000D01*
X27600000Y-96121030D02*
X24096000Y-99625030D01*
X27600000Y-95700000D02*
X27600000Y-96121030D01*
%TO.N,ADR8*%
X24697000Y-101524030D02*
X27600000Y-98621030D01*
X28752524Y-138902000D02*
X24697000Y-134846476D01*
X37597536Y-138902000D02*
X28752524Y-138902000D01*
X41798000Y-134701536D02*
X37597536Y-138902000D01*
X41798000Y-124864500D02*
X41798000Y-134701536D01*
%TO.N,ADR10*%
X27600000Y-101100000D02*
X27600000Y-100700000D01*
X25298000Y-103402000D02*
X27600000Y-101100000D01*
%TO.N,ADR8*%
X24697000Y-134846476D02*
X24697000Y-101524030D01*
%TO.N,ADR10*%
X25298000Y-134597532D02*
X25298000Y-103402000D01*
X29001468Y-138301000D02*
X25298000Y-134597532D01*
X37348594Y-138301000D02*
X29001468Y-138301000D01*
%TO.N,ADR6*%
X24096000Y-99625030D02*
X24096000Y-135095416D01*
%TO.N,ADR10*%
X41197000Y-134452594D02*
X37348594Y-138301000D01*
X41197000Y-121465500D02*
X41197000Y-134452594D01*
X44962500Y-117700000D02*
X41197000Y-121465500D01*
%TO.N,ADR12*%
X27600000Y-103721030D02*
X27600000Y-103300000D01*
X25899000Y-105422030D02*
X27600000Y-103721030D01*
X25899000Y-134348590D02*
X25899000Y-105422030D01*
X29250410Y-137700000D02*
X25899000Y-134348590D01*
X40596000Y-134203650D02*
X37099650Y-137700000D01*
X40596000Y-118066500D02*
X40596000Y-134203650D01*
%TO.N,ADR8*%
X44962500Y-121700000D02*
X41798000Y-124864500D01*
%TO.N,ADR12*%
X44962500Y-113700000D02*
X40596000Y-118066500D01*
%TO.N,ADR6*%
X42400000Y-128262500D02*
X44962500Y-125700000D01*
%TO.N,ADR14*%
X27600000Y-106000000D02*
X27600000Y-105800000D01*
X26500000Y-107100000D02*
X27600000Y-106000000D01*
X26500000Y-134099650D02*
X26500000Y-107100000D01*
X39995000Y-133954710D02*
X36850710Y-137099000D01*
X36850710Y-137099000D02*
X29499350Y-137099000D01*
%TO.N,ADR12*%
X37099650Y-137700000D02*
X29250410Y-137700000D01*
%TO.N,ADR8*%
X27600000Y-98621030D02*
X27600000Y-98200000D01*
%TO.N,ADR14*%
X44962500Y-109700000D02*
X39995000Y-114667500D01*
X39995000Y-114667500D02*
X39995000Y-133954710D01*
X29499350Y-137099000D02*
X26500000Y-134099650D01*
%TO.N,ADR0*%
X27600000Y-88521030D02*
X27600000Y-88000000D01*
X27706700Y-141306000D02*
X22293000Y-135892300D01*
X41356500Y-141306000D02*
X27706700Y-141306000D01*
X44962500Y-137700000D02*
X41356500Y-141306000D01*
X22293000Y-93828030D02*
X27600000Y-88521030D01*
X22293000Y-135892300D02*
X22293000Y-93828030D01*
%TO.N,GND*%
X48400000Y-108750000D02*
X46837500Y-108750000D01*
X48400000Y-112750000D02*
X51637500Y-112750000D01*
X48400000Y-116750000D02*
X51637500Y-116750000D01*
X48400000Y-120750000D02*
X51637500Y-120750000D01*
X48400000Y-124750000D02*
X51637500Y-124750000D01*
X48400000Y-128750000D02*
X51637500Y-128750000D01*
X48400000Y-132750000D02*
X51637500Y-132750000D01*
X48400000Y-136750000D02*
X51637500Y-136750000D01*
X46837500Y-136750000D02*
X48400000Y-136750000D01*
X46837500Y-132750000D02*
X48400000Y-132750000D01*
X46837500Y-128750000D02*
X48400000Y-128750000D01*
X46837500Y-124750000D02*
X48400000Y-124750000D01*
X46837500Y-120750000D02*
X48400000Y-120750000D01*
X46837500Y-116750000D02*
X48400000Y-116750000D01*
X46837500Y-112750000D02*
X48400000Y-112750000D01*
X51637500Y-108750000D02*
X48400000Y-108750000D01*
D28*
%TO.N,A14*%
X53900000Y-110700000D02*
X51687500Y-110700000D01*
X51687500Y-110700000D02*
X51637500Y-110650000D01*
D25*
%TO.N,VCC*%
X54601000Y-109701000D02*
X54400000Y-109500000D01*
X54601000Y-137499000D02*
X54601000Y-109701000D01*
X54400000Y-137700000D02*
X54601000Y-137499000D01*
%TO.N,Net-(Q56-D)*%
X49762500Y-137700000D02*
X53400000Y-137700000D01*
X46837500Y-138650000D02*
X48812500Y-138650000D01*
X48812500Y-138650000D02*
X49762500Y-137700000D01*
%TO.N,Net-(Q60-D)*%
X53200000Y-133700000D02*
X53400000Y-133500000D01*
X49762500Y-133700000D02*
X53200000Y-133700000D01*
X48812500Y-134650000D02*
X49762500Y-133700000D01*
X46837500Y-134650000D02*
X48812500Y-134650000D01*
%TO.N,Net-(Q64-D)*%
X49762500Y-129700000D02*
X53200000Y-129700000D01*
X53200000Y-129700000D02*
X53400000Y-129500000D01*
X48812500Y-130650000D02*
X49762500Y-129700000D01*
X46837500Y-130650000D02*
X48812500Y-130650000D01*
%TO.N,Net-(Q68-D)*%
X49762500Y-125700000D02*
X53200000Y-125700000D01*
X53200000Y-125700000D02*
X53400000Y-125500000D01*
X48812500Y-126650000D02*
X49762500Y-125700000D01*
X46837500Y-126650000D02*
X48812500Y-126650000D01*
%TO.N,Net-(Q72-D)*%
X53200000Y-121700000D02*
X53400000Y-121500000D01*
X49762500Y-121700000D02*
X53200000Y-121700000D01*
X46837500Y-122650000D02*
X48812500Y-122650000D01*
X48812500Y-122650000D02*
X49762500Y-121700000D01*
%TO.N,Net-(Q76-D)*%
X53200000Y-117700000D02*
X53400000Y-117500000D01*
X49762500Y-117700000D02*
X53200000Y-117700000D01*
X48812500Y-118650000D02*
X49762500Y-117700000D01*
X46837500Y-118650000D02*
X48812500Y-118650000D01*
%TO.N,Net-(Q80-D)*%
X49762500Y-113700000D02*
X53200000Y-113700000D01*
X53200000Y-113700000D02*
X53400000Y-113500000D01*
X48812500Y-114650000D02*
X49762500Y-113700000D01*
X46837500Y-114650000D02*
X48812500Y-114650000D01*
%TO.N,Net-(Q84-D)*%
X53200000Y-109700000D02*
X53400000Y-109500000D01*
X49762500Y-109700000D02*
X53200000Y-109700000D01*
X48812500Y-110650000D02*
X49762500Y-109700000D01*
X46837500Y-110650000D02*
X48812500Y-110650000D01*
D28*
%TO.N,A0*%
X53850000Y-138650000D02*
X51637500Y-138650000D01*
X53900000Y-138700000D02*
X53850000Y-138650000D01*
%TO.N,A2*%
X53850000Y-134650000D02*
X51637500Y-134650000D01*
X53900000Y-134700000D02*
X53850000Y-134650000D01*
%TO.N,A4*%
X53750000Y-130650000D02*
X51637500Y-130650000D01*
X53800000Y-130700000D02*
X53750000Y-130650000D01*
%TO.N,A8*%
X53900000Y-122700000D02*
X53500000Y-122700000D01*
X53500000Y-122700000D02*
X53450000Y-122650000D01*
X53450000Y-122650000D02*
X51637500Y-122650000D01*
%TO.N,A10*%
X53450000Y-118650000D02*
X51637500Y-118650000D01*
X53500000Y-118700000D02*
X53450000Y-118650000D01*
X53900000Y-118700000D02*
X53500000Y-118700000D01*
%TO.N,A12*%
X53850000Y-114650000D02*
X51637500Y-114650000D01*
X53900000Y-114700000D02*
X53850000Y-114650000D01*
%TO.N,A6*%
X53800000Y-126700000D02*
X53400000Y-126700000D01*
X53400000Y-126700000D02*
X53350000Y-126650000D01*
X53350000Y-126650000D02*
X51637500Y-126650000D01*
%TO.N,Buss7*%
X62188500Y-100376000D02*
X61150000Y-99337500D01*
X69224000Y-100376000D02*
X62188500Y-100376000D01*
X70262500Y-99337500D02*
X69224000Y-100376000D01*
X71100000Y-99337500D02*
X70262500Y-99337500D01*
%TO.N,Buss6*%
X70762500Y-94837500D02*
X71100000Y-94837500D01*
X69724000Y-95876000D02*
X70762500Y-94837500D01*
X62188500Y-95876000D02*
X69724000Y-95876000D01*
X61150000Y-94837500D02*
X62188500Y-95876000D01*
%TO.N,Buss5*%
X70662500Y-90337500D02*
X69900000Y-91100000D01*
X71100000Y-90337500D02*
X70662500Y-90337500D01*
X62188500Y-91376000D02*
X61150000Y-90337500D01*
X69624000Y-91376000D02*
X62188500Y-91376000D01*
X69900000Y-91100000D02*
X69624000Y-91376000D01*
%TO.N,Buss4*%
X70662500Y-85837500D02*
X71100000Y-85837500D01*
X62188500Y-86976000D02*
X69524000Y-86976000D01*
X61150000Y-85937500D02*
X62188500Y-86976000D01*
X69524000Y-86976000D02*
X70662500Y-85837500D01*
%TO.N,Buss3*%
X70562500Y-81337500D02*
X69900000Y-82000000D01*
X71100000Y-81337500D02*
X70562500Y-81337500D01*
X69524000Y-82376000D02*
X69900000Y-82000000D01*
X62188500Y-82376000D02*
X69524000Y-82376000D01*
X61150000Y-81337500D02*
X62188500Y-82376000D01*
%TO.N,Buss2*%
X70562500Y-76837500D02*
X71100000Y-76837500D01*
X69524000Y-77876000D02*
X70562500Y-76837500D01*
X62188500Y-77876000D02*
X69524000Y-77876000D01*
X61150000Y-76837500D02*
X62188500Y-77876000D01*
%TO.N,Buss1*%
X70562500Y-72337500D02*
X71100000Y-72337500D01*
X69524000Y-73376000D02*
X70562500Y-72337500D01*
X62188500Y-73376000D02*
X69524000Y-73376000D01*
X61150000Y-72337500D02*
X62188500Y-73376000D01*
%TO.N,Buss0*%
X69424000Y-68876000D02*
X70462500Y-67837500D01*
X62188500Y-68876000D02*
X69424000Y-68876000D01*
X70462500Y-67837500D02*
X71100000Y-67837500D01*
X61150000Y-67837500D02*
X62188500Y-68876000D01*
D25*
%TO.N,ADR15*%
X38400000Y-106109999D02*
X38400000Y-105800000D01*
X39290001Y-107000000D02*
X38400000Y-106109999D01*
X54200232Y-107000000D02*
X39290001Y-107000000D01*
X59596000Y-112395768D02*
X54200232Y-107000000D01*
X59597000Y-123884326D02*
X59597000Y-120734268D01*
X59596000Y-120733268D02*
X59596000Y-112395768D01*
X59598000Y-123885326D02*
X59597000Y-123884326D01*
X59597000Y-120734268D02*
X59596000Y-120733268D01*
X63962500Y-137700000D02*
X59598000Y-133335500D01*
X59598000Y-133335500D02*
X59598000Y-123885326D01*
%TO.N,ADR13*%
X41399000Y-106399000D02*
X38400000Y-103400000D01*
X54449174Y-106399000D02*
X41399000Y-106399000D01*
X60198000Y-120485326D02*
X60197000Y-120484326D01*
X60197000Y-120484326D02*
X60197000Y-112146826D01*
X60198000Y-123635384D02*
X60198000Y-120485326D01*
X60199000Y-123636384D02*
X60198000Y-123635384D01*
X38400000Y-103400000D02*
X38400000Y-103300000D01*
X60197000Y-112146826D02*
X54449174Y-106399000D01*
X60199000Y-129936500D02*
X60199000Y-123636384D01*
X63962500Y-133700000D02*
X60199000Y-129936500D01*
%TO.N,ADR11*%
X38400000Y-101000000D02*
X38400000Y-100700000D01*
X43198000Y-105798000D02*
X38400000Y-101000000D01*
X60798000Y-111897884D02*
X54698116Y-105798000D01*
X60798000Y-120235384D02*
X60798000Y-111897884D01*
X60799000Y-120236384D02*
X60798000Y-120235384D01*
X60799000Y-123386442D02*
X60799000Y-120236384D01*
X60800000Y-126537500D02*
X60800000Y-123387442D01*
X60800000Y-123387442D02*
X60799000Y-123386442D01*
X54698116Y-105798000D02*
X43198000Y-105798000D01*
X63962500Y-129700000D02*
X60800000Y-126537500D01*
%TO.N,ADR9*%
X38400000Y-98509999D02*
X38400000Y-98200000D01*
X54947058Y-105197000D02*
X45087001Y-105197000D01*
X61399000Y-111648942D02*
X54947058Y-105197000D01*
X61399000Y-119986442D02*
X61399000Y-111648942D01*
X61400000Y-119987442D02*
X61399000Y-119986442D01*
X45087001Y-105197000D02*
X38400000Y-98509999D01*
X61400000Y-123137500D02*
X61400000Y-119987442D01*
X63962500Y-125700000D02*
X61400000Y-123137500D01*
%TO.N,ADR7*%
X46986001Y-104596000D02*
X38400000Y-96009999D01*
X55196000Y-104596000D02*
X46986001Y-104596000D01*
X62000000Y-111400000D02*
X55196000Y-104596000D01*
X62000000Y-119737500D02*
X62000000Y-111400000D01*
X63962500Y-121700000D02*
X62000000Y-119737500D01*
X38400000Y-96009999D02*
X38400000Y-95700000D01*
%TO.N,ADR5*%
X55495000Y-103995000D02*
X48773970Y-103995000D01*
X48773970Y-103995000D02*
X38400000Y-93621030D01*
X62600000Y-116337500D02*
X62600000Y-111100000D01*
X62600000Y-111100000D02*
X55495000Y-103995000D01*
X63962500Y-117700000D02*
X62600000Y-116337500D01*
X38400000Y-93621030D02*
X38400000Y-93100000D01*
%TO.N,ADR3*%
X38100000Y-90609999D02*
X38100000Y-90600000D01*
X50790001Y-103300000D02*
X38100000Y-90609999D01*
X55700000Y-103300000D02*
X50790001Y-103300000D01*
X63962500Y-111562500D02*
X55700000Y-103300000D01*
X63962500Y-113700000D02*
X63962500Y-111562500D01*
%TO.N,D1*%
X46220000Y-75900000D02*
X45620000Y-75300000D01*
X47500000Y-75900000D02*
X46220000Y-75900000D01*
%TO.N,D3*%
X46220000Y-78500000D02*
X45620000Y-77900000D01*
X47500000Y-78500000D02*
X46220000Y-78500000D01*
%TO.N,D5*%
X46220000Y-81000000D02*
X45620000Y-80400000D01*
X47500000Y-81000000D02*
X46220000Y-81000000D01*
%TO.N,D7*%
X47500000Y-83600000D02*
X46220000Y-83600000D01*
X46220000Y-83600000D02*
X45620000Y-83000000D01*
%TO.N,D6*%
X19780000Y-83600000D02*
X20380000Y-83000000D01*
X18500000Y-83600000D02*
X19780000Y-83600000D01*
%TO.N,D4*%
X19780000Y-81000000D02*
X20380000Y-80400000D01*
X18500000Y-81000000D02*
X19780000Y-81000000D01*
%TO.N,D2*%
X18500000Y-78500000D02*
X19780000Y-78500000D01*
X19780000Y-78500000D02*
X20380000Y-77900000D01*
%TO.N,D0*%
X19780000Y-75900000D02*
X20380000Y-75300000D01*
X18500000Y-75900000D02*
X19780000Y-75900000D01*
%TO.N,3.3V*%
X48500000Y-83600000D02*
X48500000Y-75900000D01*
X17500000Y-83600000D02*
X17500000Y-75900000D01*
X32318182Y-86789000D02*
X31300000Y-86789000D01*
X33051000Y-88400000D02*
X33051000Y-87559818D01*
X33051000Y-87521818D02*
X32318182Y-86789000D01*
X33051000Y-88400000D02*
X33051000Y-87521818D01*
X20379001Y-86789000D02*
X17500000Y-83909999D01*
X17500000Y-83909999D02*
X17500000Y-83600000D01*
X33821818Y-86789000D02*
X35300000Y-86789000D01*
X33051000Y-87559818D02*
X33821818Y-86789000D01*
X45620999Y-86789000D02*
X48500000Y-83909999D01*
X31800000Y-108360000D02*
X32730000Y-107430000D01*
X33051000Y-107109000D02*
X33051000Y-105600000D01*
X48500000Y-83909999D02*
X48500000Y-83600000D01*
%TO.N,ADR3*%
X38100000Y-90600000D02*
X34360000Y-90600000D01*
%TO.N,ADR10*%
X31760000Y-100700000D02*
X31800000Y-100740000D01*
X27600000Y-100700000D02*
X31760000Y-100700000D01*
%TO.N,ADR12*%
X31780000Y-103300000D02*
X31800000Y-103280000D01*
X27600000Y-103300000D02*
X31780000Y-103300000D01*
%TO.N,ADR14*%
X31780000Y-105800000D02*
X31800000Y-105820000D01*
X27600000Y-105800000D02*
X31780000Y-105800000D01*
%TO.N,ADR15*%
X34360000Y-105800000D02*
X34340000Y-105820000D01*
X38400000Y-105800000D02*
X34360000Y-105800000D01*
%TO.N,ADR13*%
X34360000Y-103300000D02*
X34340000Y-103280000D01*
X38400000Y-103300000D02*
X34360000Y-103300000D01*
%TO.N,ADR11*%
X34380000Y-100700000D02*
X34340000Y-100740000D01*
X38400000Y-100700000D02*
X34380000Y-100700000D01*
%TO.N,ADR9*%
X38400000Y-98200000D02*
X34340000Y-98200000D01*
%TO.N,ADR8*%
X27600000Y-98200000D02*
X31800000Y-98200000D01*
%TO.N,ADR6*%
X27640000Y-95660000D02*
X27600000Y-95700000D01*
X31800000Y-95660000D02*
X27640000Y-95660000D01*
%TO.N,ADR7*%
X34380000Y-95700000D02*
X34340000Y-95660000D01*
X38400000Y-95700000D02*
X34380000Y-95700000D01*
%TO.N,ADR5*%
X34360000Y-93100000D02*
X34340000Y-93120000D01*
X38400000Y-93100000D02*
X34360000Y-93100000D01*
%TO.N,ADR4*%
X27620000Y-93120000D02*
X27600000Y-93100000D01*
X31800000Y-93120000D02*
X27620000Y-93120000D01*
%TO.N,ADR2*%
X27620000Y-90580000D02*
X27600000Y-90600000D01*
X31800000Y-90580000D02*
X27620000Y-90580000D01*
%TO.N,ADR3*%
X38400000Y-90600000D02*
X38100000Y-90600000D01*
X34360000Y-90600000D02*
X34340000Y-90580000D01*
%TO.N,ADR1*%
X38360000Y-88040000D02*
X38400000Y-88000000D01*
X34340000Y-88040000D02*
X38360000Y-88040000D01*
%TO.N,ADR0*%
X27640000Y-88040000D02*
X27600000Y-88000000D01*
X31800000Y-88040000D02*
X27640000Y-88040000D01*
%TO.N,Net-(J2-Pin_3)*%
X37960000Y-75340000D02*
X38000000Y-75300000D01*
X34340000Y-75340000D02*
X37960000Y-75340000D01*
%TO.N,Net-(J2-Pin_5)*%
X37980000Y-77880000D02*
X38000000Y-77900000D01*
X34340000Y-77880000D02*
X37980000Y-77880000D01*
%TO.N,Net-(J2-Pin_7)*%
X37980000Y-80420000D02*
X38000000Y-80400000D01*
X34340000Y-80420000D02*
X37980000Y-80420000D01*
%TO.N,Net-(J2-Pin_9)*%
X37960000Y-82960000D02*
X38000000Y-83000000D01*
X34340000Y-82960000D02*
X37960000Y-82960000D01*
%TO.N,Net-(J2-Pin_10)*%
X31760000Y-83000000D02*
X31800000Y-82960000D01*
X28000000Y-83000000D02*
X31760000Y-83000000D01*
%TO.N,Net-(J2-Pin_8)*%
X31780000Y-80400000D02*
X31800000Y-80420000D01*
X28000000Y-80400000D02*
X31780000Y-80400000D01*
%TO.N,Net-(J2-Pin_6)*%
X31780000Y-77900000D02*
X31800000Y-77880000D01*
X28000000Y-77900000D02*
X31780000Y-77900000D01*
%TO.N,Net-(J2-Pin_4)*%
X31760000Y-75300000D02*
X31800000Y-75340000D01*
X28000000Y-75300000D02*
X31760000Y-75300000D01*
D28*
%TO.N,GND*%
X83737500Y-68237500D02*
X84500000Y-69000000D01*
X83250000Y-68237500D02*
X83737500Y-68237500D01*
X75587500Y-67837500D02*
X75087500Y-68337500D01*
X76050000Y-67837500D02*
X75587500Y-67837500D01*
X75587500Y-72237500D02*
X75087500Y-72737500D01*
X76050000Y-72237500D02*
X75587500Y-72237500D01*
X75587500Y-76837500D02*
X75087500Y-77337500D01*
X76050000Y-76837500D02*
X75587500Y-76837500D01*
X75587500Y-81237500D02*
X75087500Y-81737500D01*
X76050000Y-81237500D02*
X75587500Y-81237500D01*
X75587500Y-85837500D02*
X75087500Y-86337500D01*
X76050000Y-85837500D02*
X75587500Y-85837500D01*
X75587500Y-90237500D02*
X75087500Y-90737500D01*
X76050000Y-90237500D02*
X75587500Y-90237500D01*
X75587500Y-94837500D02*
X75087500Y-95337500D01*
X76050000Y-94837500D02*
X75587500Y-94837500D01*
X75587500Y-99337500D02*
X75087500Y-99837500D01*
X76050000Y-99337500D02*
X75587500Y-99337500D01*
X53562500Y-97462500D02*
X54087500Y-96937500D01*
X53150000Y-97462500D02*
X53562500Y-97462500D01*
X53562500Y-92962500D02*
X54087500Y-92437500D01*
X53150000Y-92962500D02*
X53562500Y-92962500D01*
X53562500Y-88462500D02*
X54087500Y-87937500D01*
X53150000Y-88462500D02*
X53562500Y-88462500D01*
X53562500Y-83962500D02*
X54087500Y-83437500D01*
X53150000Y-83962500D02*
X53562500Y-83962500D01*
X53562500Y-79462500D02*
X54087500Y-78937500D01*
X53150000Y-79462500D02*
X53562500Y-79462500D01*
X53562500Y-74962500D02*
X54087500Y-74437500D01*
X53150000Y-74962500D02*
X53562500Y-74962500D01*
X53562500Y-70462500D02*
X54087500Y-69937500D01*
X53150000Y-70462500D02*
X53562500Y-70462500D01*
X53462500Y-65962500D02*
X54087500Y-65337500D01*
X53150000Y-65962500D02*
X53462500Y-65962500D01*
D25*
%TO.N,VCC*%
X50689000Y-83137500D02*
X50689000Y-84337500D01*
X78611000Y-83037500D02*
X78611000Y-85437500D01*
X78611000Y-96637500D02*
X78611000Y-98167970D01*
X50689000Y-96237500D02*
X50689000Y-97189000D01*
X50689000Y-68737500D02*
X50689000Y-70837500D01*
X50751500Y-70900000D02*
X50689000Y-70837500D01*
X51400000Y-70900000D02*
X50751500Y-70900000D01*
X50689000Y-70837500D02*
X50689000Y-75337500D01*
X50751500Y-75400000D02*
X50689000Y-75337500D01*
X51400000Y-75400000D02*
X50751500Y-75400000D01*
X50689000Y-75337500D02*
X50689000Y-79937500D01*
X50726500Y-79900000D02*
X50689000Y-79937500D01*
X51400000Y-79900000D02*
X50726500Y-79900000D01*
X50689000Y-79937500D02*
X50689000Y-83137500D01*
X50689000Y-84337500D02*
X50689000Y-88837500D01*
X51400000Y-84400000D02*
X50751500Y-84400000D01*
X50751500Y-84400000D02*
X50689000Y-84337500D01*
X50751500Y-88900000D02*
X50689000Y-88837500D01*
X50689000Y-88837500D02*
X50689000Y-93337500D01*
X51400000Y-88900000D02*
X50751500Y-88900000D01*
X50689000Y-93337500D02*
X50689000Y-96237500D01*
X51400000Y-93400000D02*
X50751500Y-93400000D01*
X50751500Y-93400000D02*
X50689000Y-93337500D01*
X50689000Y-97189000D02*
X51400000Y-97900000D01*
X51321030Y-66400000D02*
X50689000Y-67032030D01*
X50689000Y-67032030D02*
X50689000Y-68737500D01*
X51400000Y-66400000D02*
X51321030Y-66400000D01*
X77837500Y-67437500D02*
X77800000Y-67400000D01*
X77900000Y-71800000D02*
X78573500Y-71800000D01*
X78573500Y-71800000D02*
X78611000Y-71837500D01*
X78611000Y-71837500D02*
X78611000Y-76437500D01*
X78573500Y-76400000D02*
X78611000Y-76437500D01*
X77800000Y-76400000D02*
X78573500Y-76400000D01*
X78611000Y-76437500D02*
X78611000Y-80837500D01*
X78573500Y-80800000D02*
X78611000Y-80837500D01*
X77800000Y-80800000D02*
X78573500Y-80800000D01*
X78611000Y-80837500D02*
X78611000Y-83037500D01*
X78573500Y-85400000D02*
X78611000Y-85437500D01*
X77800000Y-85400000D02*
X78573500Y-85400000D01*
X78611000Y-85437500D02*
X78611000Y-89737500D01*
X78548500Y-89800000D02*
X78611000Y-89737500D01*
X77800000Y-89800000D02*
X78548500Y-89800000D01*
X78611000Y-89737500D02*
X78611000Y-94437500D01*
X77800000Y-94400000D02*
X78573500Y-94400000D01*
X78611000Y-69737500D02*
X78611000Y-71837500D01*
X78573500Y-94400000D02*
X78611000Y-94437500D01*
X77878970Y-98900000D02*
X77800000Y-98900000D01*
X78611000Y-98167970D02*
X77878970Y-98900000D01*
X78611000Y-94437500D02*
X78611000Y-96637500D01*
X78611000Y-71167970D02*
X78611000Y-70800000D01*
X77900000Y-71800000D02*
X77978970Y-71800000D01*
%TO.N,GND*%
X63050000Y-85937500D02*
X63687500Y-85937500D01*
X63687500Y-85937500D02*
X64587500Y-85037500D01*
X65562500Y-84062500D02*
X64587500Y-85037500D01*
X66150000Y-84062500D02*
X65562500Y-84062500D01*
X63050000Y-99337500D02*
X63687500Y-99337500D01*
X63687500Y-99337500D02*
X64587500Y-98437500D01*
X65562500Y-97462500D02*
X64587500Y-98437500D01*
X66150000Y-97462500D02*
X65562500Y-97462500D01*
X63050000Y-94837500D02*
X63687500Y-94837500D01*
X63687500Y-94837500D02*
X64587500Y-93937500D01*
X65562500Y-92962500D02*
X64587500Y-93937500D01*
X66150000Y-92962500D02*
X65562500Y-92962500D01*
X63050000Y-90337500D02*
X63687500Y-90337500D01*
X63687500Y-90337500D02*
X64587500Y-89437500D01*
X65562500Y-88462500D02*
X64587500Y-89437500D01*
X66150000Y-88462500D02*
X65562500Y-88462500D01*
X63050000Y-81337500D02*
X63687500Y-81337500D01*
X63687500Y-81337500D02*
X64587500Y-80437500D01*
X65562500Y-79462500D02*
X64587500Y-80437500D01*
X66150000Y-79462500D02*
X65562500Y-79462500D01*
X63050000Y-76837500D02*
X63687500Y-76837500D01*
X63687500Y-76837500D02*
X64587500Y-75937500D01*
X65562500Y-74962500D02*
X64587500Y-75937500D01*
X66150000Y-74962500D02*
X65562500Y-74962500D01*
X63050000Y-72337500D02*
X63687500Y-72337500D01*
X63687500Y-72337500D02*
X64587500Y-71437500D01*
X65562500Y-70462500D02*
X64587500Y-71437500D01*
X66150000Y-70462500D02*
X65562500Y-70462500D01*
X65562500Y-65962500D02*
X64587500Y-66937500D01*
X66150000Y-65962500D02*
X65562500Y-65962500D01*
X63687500Y-67837500D02*
X64587500Y-66937500D01*
X63050000Y-67837500D02*
X63687500Y-67837500D01*
D28*
%TO.N,Net-(Q17-G)*%
X55537500Y-92962500D02*
X56100000Y-92400000D01*
X55050000Y-92962500D02*
X55537500Y-92962500D01*
X55537500Y-88462500D02*
X56100000Y-87900000D01*
X55050000Y-88462500D02*
X55537500Y-88462500D01*
X55050000Y-83962500D02*
X55537500Y-83962500D01*
X55537500Y-83962500D02*
X56100000Y-83400000D01*
X55050000Y-79462500D02*
X55537500Y-79462500D01*
X55537500Y-79462500D02*
X56100000Y-78900000D01*
X55537500Y-74962500D02*
X56100000Y-74400000D01*
X55050000Y-74962500D02*
X55537500Y-74962500D01*
X55437500Y-70462500D02*
X56100000Y-69800000D01*
X55050000Y-70462500D02*
X55437500Y-70462500D01*
X55612500Y-65400000D02*
X55050000Y-65962500D01*
X56100000Y-65400000D02*
X55612500Y-65400000D01*
X55637500Y-97462500D02*
X56100000Y-97000000D01*
X55050000Y-97462500D02*
X55637500Y-97462500D01*
%TO.N,R{slash}W*%
X68514500Y-92962500D02*
X69100000Y-92377000D01*
X68050000Y-92962500D02*
X68514500Y-92962500D01*
X68637500Y-88462500D02*
X69100000Y-88000000D01*
X68050000Y-88462500D02*
X68637500Y-88462500D01*
X68514500Y-83962500D02*
X69100000Y-83377000D01*
X68050000Y-83962500D02*
X68514500Y-83962500D01*
X68514500Y-79462500D02*
X69100000Y-78877000D01*
X68050000Y-79462500D02*
X68514500Y-79462500D01*
X68514500Y-74962500D02*
X69100000Y-74377000D01*
X68050000Y-74962500D02*
X68514500Y-74962500D01*
X68050000Y-70462500D02*
X68637500Y-70462500D01*
X68637500Y-70462500D02*
X69100000Y-70000000D01*
X68612500Y-65400000D02*
X68050000Y-65962500D01*
X69100000Y-65400000D02*
X68612500Y-65400000D01*
X68537500Y-97462500D02*
X69100000Y-96900000D01*
X68050000Y-97462500D02*
X68537500Y-97462500D01*
%TO.N,D6*%
X59562500Y-96300000D02*
X60400000Y-96300000D01*
X72687500Y-96300000D02*
X74150000Y-94837500D01*
X58100000Y-94837500D02*
X59562500Y-96300000D01*
%TO.N,Net-(Q51-D)*%
X58595532Y-97462500D02*
X59050000Y-97462500D01*
X55682032Y-100376000D02*
X58595532Y-97462500D01*
X52876000Y-100376000D02*
X55682032Y-100376000D01*
X51400000Y-98900000D02*
X52876000Y-100376000D01*
X59050000Y-97462500D02*
X62100000Y-97462500D01*
%TO.N,Net-(Q54-S)*%
X55275000Y-99337500D02*
X57150000Y-97462500D01*
X54100000Y-99337500D02*
X55275000Y-99337500D01*
%TO.N,D7*%
X59539500Y-100777000D02*
X60400000Y-100777000D01*
X58100000Y-99337500D02*
X59539500Y-100777000D01*
X72710500Y-100777000D02*
X74150000Y-99337500D01*
%TO.N,Net-(Q52-S)*%
X68275000Y-99337500D02*
X70150000Y-97462500D01*
X67100000Y-99337500D02*
X68275000Y-99337500D01*
%TO.N,Net-(Q50-D)*%
X72050000Y-97462500D02*
X75100000Y-97462500D01*
X75100000Y-97462500D02*
X75537500Y-97900000D01*
X75537500Y-97900000D02*
X77800000Y-97900000D01*
%TO.N,Net-(Q44-D)*%
X75537500Y-93400000D02*
X77800000Y-93400000D01*
X75100000Y-92962500D02*
X75537500Y-93400000D01*
X72050000Y-92962500D02*
X75100000Y-92962500D01*
%TO.N,Net-(Q46-S)*%
X67100000Y-94837500D02*
X68275000Y-94837500D01*
X68275000Y-94837500D02*
X70150000Y-92962500D01*
%TO.N,Net-(Q45-D)*%
X59050000Y-92962500D02*
X62100000Y-92962500D01*
X52876000Y-95876000D02*
X55682032Y-95876000D01*
X51400000Y-94400000D02*
X52876000Y-95876000D01*
X55682032Y-95876000D02*
X58595532Y-92962500D01*
X58595532Y-92962500D02*
X59050000Y-92962500D01*
%TO.N,Net-(Q48-S)*%
X55275000Y-94837500D02*
X57150000Y-92962500D01*
X54100000Y-94837500D02*
X55275000Y-94837500D01*
%TO.N,Net-(Q39-D)*%
X59050000Y-88462500D02*
X62100000Y-88462500D01*
X58595532Y-88462500D02*
X59050000Y-88462500D01*
X52876000Y-91376000D02*
X55682032Y-91376000D01*
X55682032Y-91376000D02*
X58595532Y-88462500D01*
X51400000Y-89900000D02*
X52876000Y-91376000D01*
%TO.N,Net-(Q42-S)*%
X55275000Y-90337500D02*
X57150000Y-88462500D01*
X54100000Y-90337500D02*
X55275000Y-90337500D01*
%TO.N,D5*%
X72610500Y-91777000D02*
X74150000Y-90237500D01*
X58100000Y-90337500D02*
X59539500Y-91777000D01*
%TO.N,Net-(Q38-D)*%
X75537500Y-88800000D02*
X77800000Y-88800000D01*
X75100000Y-88362500D02*
X75537500Y-88800000D01*
X75000000Y-88462500D02*
X75100000Y-88362500D01*
X72050000Y-88462500D02*
X75000000Y-88462500D01*
%TO.N,Net-(Q40-S)*%
X68275000Y-90337500D02*
X70150000Y-88462500D01*
X67100000Y-90337500D02*
X68275000Y-90337500D01*
%TO.N,Net-(Q32-D)*%
X75537500Y-84400000D02*
X77800000Y-84400000D01*
X75100000Y-83962500D02*
X75537500Y-84400000D01*
X72050000Y-83962500D02*
X75100000Y-83962500D01*
%TO.N,Net-(Q34-S)*%
X68275000Y-85837500D02*
X70150000Y-83962500D01*
X67100000Y-85837500D02*
X68275000Y-85837500D01*
%TO.N,Net-(Q26-D)*%
X75600000Y-79800000D02*
X77800000Y-79800000D01*
X75162500Y-79362500D02*
X75600000Y-79800000D01*
X75100000Y-79362500D02*
X75162500Y-79362500D01*
X75000000Y-79462500D02*
X75100000Y-79362500D01*
X72050000Y-79462500D02*
X75000000Y-79462500D01*
%TO.N,Net-(Q28-S)*%
X68275000Y-81337500D02*
X70150000Y-79462500D01*
X67100000Y-81337500D02*
X68275000Y-81337500D01*
%TO.N,D4*%
X72587500Y-87400000D02*
X74150000Y-85837500D01*
X59662500Y-87400000D02*
X60400000Y-87400000D01*
X58100000Y-85837500D02*
X59662500Y-87400000D01*
%TO.N,D3*%
X72610500Y-82777000D02*
X74150000Y-81237500D01*
X58100000Y-81337500D02*
X59539500Y-82777000D01*
X59539500Y-82777000D02*
X60400000Y-82777000D01*
%TO.N,Net-(Q27-D)*%
X59050000Y-79462500D02*
X62100000Y-79462500D01*
%TO.N,Net-(Q33-D)*%
X62000000Y-83962500D02*
X62100000Y-84062500D01*
X59050000Y-83962500D02*
X62000000Y-83962500D01*
X55682032Y-86876000D02*
X58595532Y-83962500D01*
X52876000Y-86876000D02*
X55682032Y-86876000D01*
X58595532Y-83962500D02*
X59050000Y-83962500D01*
X51400000Y-85400000D02*
X52876000Y-86876000D01*
%TO.N,Net-(Q36-S)*%
X55275000Y-85837500D02*
X57150000Y-83962500D01*
X54100000Y-85837500D02*
X55275000Y-85837500D01*
%TO.N,Net-(Q27-D)*%
X58595532Y-79462500D02*
X59050000Y-79462500D01*
X55682032Y-82376000D02*
X58595532Y-79462500D01*
X52876000Y-82376000D02*
X55682032Y-82376000D01*
X51400000Y-80900000D02*
X52876000Y-82376000D01*
%TO.N,Net-(Q30-S)*%
X55275000Y-81337500D02*
X57150000Y-79462500D01*
X54100000Y-81337500D02*
X55275000Y-81337500D01*
%TO.N,Net-(Q18-D)*%
X75700000Y-75400000D02*
X77800000Y-75400000D01*
X75100000Y-74962500D02*
X75262500Y-74962500D01*
X75262500Y-74962500D02*
X75700000Y-75400000D01*
X72050000Y-74962500D02*
X75100000Y-74962500D01*
%TO.N,Net-(Q21-S)*%
X68275000Y-76837500D02*
X70150000Y-74962500D01*
X67100000Y-76837500D02*
X68275000Y-76837500D01*
%TO.N,Net-(Q19-D)*%
X62100000Y-74962500D02*
X59050000Y-74962500D01*
%TO.N,D2*%
X72710500Y-78277000D02*
X74150000Y-76837500D01*
X59539500Y-78277000D02*
X60400000Y-78277000D01*
X58100000Y-76837500D02*
X59539500Y-78277000D01*
%TO.N,Net-(Q23-S)*%
X55275000Y-76837500D02*
X57150000Y-74962500D01*
X54100000Y-76837500D02*
X55275000Y-76837500D01*
%TO.N,Net-(Q19-D)*%
X58595532Y-74962500D02*
X59050000Y-74962500D01*
X52876000Y-77876000D02*
X55682032Y-77876000D01*
X51400000Y-76400000D02*
X52876000Y-77876000D01*
X55682032Y-77876000D02*
X58595532Y-74962500D01*
%TO.N,Net-(Q11-D)*%
X75537500Y-70800000D02*
X77900000Y-70800000D01*
X75100000Y-70362500D02*
X75537500Y-70800000D01*
X75000000Y-70462500D02*
X75100000Y-70362500D01*
X72050000Y-70462500D02*
X75000000Y-70462500D01*
%TO.N,Net-(Q14-S)*%
X68275000Y-72337500D02*
X70150000Y-70462500D01*
X67100000Y-72337500D02*
X68275000Y-72337500D01*
%TO.N,Net-(Q12-D)*%
X59050000Y-70462500D02*
X62100000Y-70462500D01*
%TO.N,D1*%
X72610500Y-73777000D02*
X74150000Y-72237500D01*
X58100000Y-72337500D02*
X59539500Y-73777000D01*
X59539500Y-73777000D02*
X60400000Y-73777000D01*
%TO.N,Net-(Q12-D)*%
X58595532Y-70462500D02*
X59050000Y-70462500D01*
X55682032Y-73376000D02*
X58595532Y-70462500D01*
X52876000Y-73376000D02*
X55682032Y-73376000D01*
X51400000Y-71900000D02*
X52876000Y-73376000D01*
%TO.N,Net-(Q16-S)*%
X55275000Y-72337500D02*
X57150000Y-70462500D01*
X54100000Y-72337500D02*
X55275000Y-72337500D01*
%TO.N,Net-(Q4-D)*%
X75537500Y-66400000D02*
X77800000Y-66400000D01*
X75100000Y-65962500D02*
X75537500Y-66400000D01*
X72050000Y-65962500D02*
X75100000Y-65962500D01*
%TO.N,Net-(Q6-S)*%
X68275000Y-67837500D02*
X70150000Y-65962500D01*
X67100000Y-67837500D02*
X68275000Y-67837500D01*
%TO.N,D0*%
X72587500Y-69400000D02*
X74150000Y-67837500D01*
X59662500Y-69400000D02*
X60800000Y-69400000D01*
X58100000Y-67837500D02*
X59662500Y-69400000D01*
%TO.N,Net-(Q5-D)*%
X59050000Y-65962500D02*
X62100000Y-65962500D01*
X58529468Y-65962500D02*
X59050000Y-65962500D01*
X55615968Y-68876000D02*
X58529468Y-65962500D01*
X51400000Y-67400000D02*
X52876000Y-68876000D01*
X52876000Y-68876000D02*
X55615968Y-68876000D01*
%TO.N,Net-(Q8-S)*%
X55275000Y-67837500D02*
X57150000Y-65962500D01*
X54100000Y-67837500D02*
X55275000Y-67837500D01*
%TD*%
M02*
