%TF.GenerationSoftware,KiCad,Pcbnew,9.0.7*%
%TF.CreationDate,2026-03-30T23:53:43+02:00*%
%TF.ProjectId,Level_shifter_FPGA_V1.0,4c657665-6c5f-4736-9869-667465725f46,rev?*%
%TF.SameCoordinates,Original*%
%TF.FileFunction,Legend,Top*%
%TF.FilePolarity,Positive*%
%FSLAX46Y46*%
G04 Gerber Fmt 4.6, Leading zero omitted, Abs format (unit mm)*
G04 Created by KiCad (PCBNEW 9.0.7) date 2026-03-30 23:53:43*
%MOMM*%
%LPD*%
G01*
G04 APERTURE LIST*
G04 Aperture macros list*
%AMRoundRect*
0 Rectangle with rounded corners*
0 $1 Rounding radius*
0 $2 $3 $4 $5 $6 $7 $8 $9 X,Y pos of 4 corners*
0 Add a 4 corners polygon primitive as box body*
4,1,4,$2,$3,$4,$5,$6,$7,$8,$9,$2,$3,0*
0 Add four circle primitives for the rounded corners*
1,1,$1+$1,$2,$3*
1,1,$1+$1,$4,$5*
1,1,$1+$1,$6,$7*
1,1,$1+$1,$8,$9*
0 Add four rect primitives between the rounded corners*
20,1,$1+$1,$2,$3,$4,$5,0*
20,1,$1+$1,$4,$5,$6,$7,0*
20,1,$1+$1,$6,$7,$8,$9,0*
20,1,$1+$1,$8,$9,$2,$3,0*%
G04 Aperture macros list end*
%ADD10C,0.100000*%
%ADD11C,0.300000*%
%ADD12C,0.190000*%
%ADD13C,0.250000*%
%ADD14C,0.400000*%
%ADD15C,0.200000*%
%ADD16C,0.150000*%
%ADD17C,0.000000*%
%ADD18C,0.120000*%
%ADD19RoundRect,0.239000X0.239000X0.274000X-0.239000X0.274000X-0.239000X-0.274000X0.239000X-0.274000X0*%
%ADD20RoundRect,0.239000X-0.274000X0.239000X-0.274000X-0.239000X0.274000X-0.239000X0.274000X0.239000X0*%
%ADD21RoundRect,0.265778X-0.332222X-0.647222X0.332222X-0.647222X0.332222X0.647222X-0.332222X0.647222X0*%
%ADD22RoundRect,0.265778X0.647222X-0.332222X0.647222X0.332222X-0.647222X0.332222X-0.647222X-0.332222X0*%
%ADD23RoundRect,0.150000X-0.150000X0.587500X-0.150000X-0.587500X0.150000X-0.587500X0.150000X0.587500X0*%
%ADD24RoundRect,0.159000X-0.189000X0.159000X-0.189000X-0.159000X0.189000X-0.159000X0.189000X0.159000X0*%
%ADD25RoundRect,0.159000X0.189000X-0.159000X0.189000X0.159000X-0.189000X0.159000X-0.189000X-0.159000X0*%
%ADD26C,3.200000*%
%ADD27RoundRect,0.150000X-0.587500X-0.150000X0.587500X-0.150000X0.587500X0.150000X-0.587500X0.150000X0*%
%ADD28RoundRect,0.159000X0.159000X0.189000X-0.159000X0.189000X-0.159000X-0.189000X0.159000X-0.189000X0*%
%ADD29RoundRect,0.150000X0.587500X0.150000X-0.587500X0.150000X-0.587500X-0.150000X0.587500X-0.150000X0*%
%ADD30RoundRect,0.159000X-0.159000X-0.189000X0.159000X-0.189000X0.159000X0.189000X-0.159000X0.189000X0*%
%ADD31RoundRect,0.269000X-0.269000X-0.494000X0.269000X-0.494000X0.269000X0.494000X-0.269000X0.494000X0*%
%ADD32R,1.700000X1.700000*%
%ADD33C,1.700000*%
G04 APERTURE END LIST*
D10*
X174703884Y-44072419D02*
X174703884Y-43072419D01*
X174703884Y-43072419D02*
X175084836Y-43072419D01*
X175084836Y-43072419D02*
X175180074Y-43120038D01*
X175180074Y-43120038D02*
X175227693Y-43167657D01*
X175227693Y-43167657D02*
X175275312Y-43262895D01*
X175275312Y-43262895D02*
X175275312Y-43405752D01*
X175275312Y-43405752D02*
X175227693Y-43500990D01*
X175227693Y-43500990D02*
X175180074Y-43548609D01*
X175180074Y-43548609D02*
X175084836Y-43596228D01*
X175084836Y-43596228D02*
X174703884Y-43596228D01*
X175894360Y-43072419D02*
X176084836Y-43072419D01*
X176084836Y-43072419D02*
X176180074Y-43120038D01*
X176180074Y-43120038D02*
X176275312Y-43215276D01*
X176275312Y-43215276D02*
X176322931Y-43405752D01*
X176322931Y-43405752D02*
X176322931Y-43739085D01*
X176322931Y-43739085D02*
X176275312Y-43929561D01*
X176275312Y-43929561D02*
X176180074Y-44024800D01*
X176180074Y-44024800D02*
X176084836Y-44072419D01*
X176084836Y-44072419D02*
X175894360Y-44072419D01*
X175894360Y-44072419D02*
X175799122Y-44024800D01*
X175799122Y-44024800D02*
X175703884Y-43929561D01*
X175703884Y-43929561D02*
X175656265Y-43739085D01*
X175656265Y-43739085D02*
X175656265Y-43405752D01*
X175656265Y-43405752D02*
X175703884Y-43215276D01*
X175703884Y-43215276D02*
X175799122Y-43120038D01*
X175799122Y-43120038D02*
X175894360Y-43072419D01*
X176656265Y-43072419D02*
X176894360Y-44072419D01*
X176894360Y-44072419D02*
X177084836Y-43358133D01*
X177084836Y-43358133D02*
X177275312Y-44072419D01*
X177275312Y-44072419D02*
X177513408Y-43072419D01*
X177894360Y-43548609D02*
X178227693Y-43548609D01*
X178370550Y-44072419D02*
X177894360Y-44072419D01*
X177894360Y-44072419D02*
X177894360Y-43072419D01*
X177894360Y-43072419D02*
X178370550Y-43072419D01*
X179370550Y-44072419D02*
X179037217Y-43596228D01*
X178799122Y-44072419D02*
X178799122Y-43072419D01*
X178799122Y-43072419D02*
X179180074Y-43072419D01*
X179180074Y-43072419D02*
X179275312Y-43120038D01*
X179275312Y-43120038D02*
X179322931Y-43167657D01*
X179322931Y-43167657D02*
X179370550Y-43262895D01*
X179370550Y-43262895D02*
X179370550Y-43405752D01*
X179370550Y-43405752D02*
X179322931Y-43500990D01*
X179322931Y-43500990D02*
X179275312Y-43548609D01*
X179275312Y-43548609D02*
X179180074Y-43596228D01*
X179180074Y-43596228D02*
X178799122Y-43596228D01*
X175400000Y-90700000D02*
X183900000Y-90700000D01*
X175400000Y-88400000D02*
X183900000Y-88400000D01*
X178600000Y-86200000D02*
X178600000Y-92900000D01*
X117775312Y-107672419D02*
X117441979Y-107196228D01*
X117203884Y-107672419D02*
X117203884Y-106672419D01*
X117203884Y-106672419D02*
X117584836Y-106672419D01*
X117584836Y-106672419D02*
X117680074Y-106720038D01*
X117680074Y-106720038D02*
X117727693Y-106767657D01*
X117727693Y-106767657D02*
X117775312Y-106862895D01*
X117775312Y-106862895D02*
X117775312Y-107005752D01*
X117775312Y-107005752D02*
X117727693Y-107100990D01*
X117727693Y-107100990D02*
X117680074Y-107148609D01*
X117680074Y-107148609D02*
X117584836Y-107196228D01*
X117584836Y-107196228D02*
X117203884Y-107196228D01*
X120275312Y-107672419D02*
X119941979Y-107196228D01*
X119703884Y-107672419D02*
X119703884Y-106672419D01*
X119703884Y-106672419D02*
X120084836Y-106672419D01*
X120084836Y-106672419D02*
X120180074Y-106720038D01*
X120180074Y-106720038D02*
X120227693Y-106767657D01*
X120227693Y-106767657D02*
X120275312Y-106862895D01*
X120275312Y-106862895D02*
X120275312Y-107005752D01*
X120275312Y-107005752D02*
X120227693Y-107100990D01*
X120227693Y-107100990D02*
X120180074Y-107148609D01*
X120180074Y-107148609D02*
X120084836Y-107196228D01*
X120084836Y-107196228D02*
X119703884Y-107196228D01*
X112775312Y-107672419D02*
X112441979Y-107196228D01*
X112203884Y-107672419D02*
X112203884Y-106672419D01*
X112203884Y-106672419D02*
X112584836Y-106672419D01*
X112584836Y-106672419D02*
X112680074Y-106720038D01*
X112680074Y-106720038D02*
X112727693Y-106767657D01*
X112727693Y-106767657D02*
X112775312Y-106862895D01*
X112775312Y-106862895D02*
X112775312Y-107005752D01*
X112775312Y-107005752D02*
X112727693Y-107100990D01*
X112727693Y-107100990D02*
X112680074Y-107148609D01*
X112680074Y-107148609D02*
X112584836Y-107196228D01*
X112584836Y-107196228D02*
X112203884Y-107196228D01*
X115275312Y-107672419D02*
X114941979Y-107196228D01*
X114703884Y-107672419D02*
X114703884Y-106672419D01*
X114703884Y-106672419D02*
X115084836Y-106672419D01*
X115084836Y-106672419D02*
X115180074Y-106720038D01*
X115180074Y-106720038D02*
X115227693Y-106767657D01*
X115227693Y-106767657D02*
X115275312Y-106862895D01*
X115275312Y-106862895D02*
X115275312Y-107005752D01*
X115275312Y-107005752D02*
X115227693Y-107100990D01*
X115227693Y-107100990D02*
X115180074Y-107148609D01*
X115180074Y-107148609D02*
X115084836Y-107196228D01*
X115084836Y-107196228D02*
X114703884Y-107196228D01*
X112875312Y-88172419D02*
X112541979Y-87696228D01*
X112303884Y-88172419D02*
X112303884Y-87172419D01*
X112303884Y-87172419D02*
X112684836Y-87172419D01*
X112684836Y-87172419D02*
X112780074Y-87220038D01*
X112780074Y-87220038D02*
X112827693Y-87267657D01*
X112827693Y-87267657D02*
X112875312Y-87362895D01*
X112875312Y-87362895D02*
X112875312Y-87505752D01*
X112875312Y-87505752D02*
X112827693Y-87600990D01*
X112827693Y-87600990D02*
X112780074Y-87648609D01*
X112780074Y-87648609D02*
X112684836Y-87696228D01*
X112684836Y-87696228D02*
X112303884Y-87696228D01*
X115375312Y-88172419D02*
X115041979Y-87696228D01*
X114803884Y-88172419D02*
X114803884Y-87172419D01*
X114803884Y-87172419D02*
X115184836Y-87172419D01*
X115184836Y-87172419D02*
X115280074Y-87220038D01*
X115280074Y-87220038D02*
X115327693Y-87267657D01*
X115327693Y-87267657D02*
X115375312Y-87362895D01*
X115375312Y-87362895D02*
X115375312Y-87505752D01*
X115375312Y-87505752D02*
X115327693Y-87600990D01*
X115327693Y-87600990D02*
X115280074Y-87648609D01*
X115280074Y-87648609D02*
X115184836Y-87696228D01*
X115184836Y-87696228D02*
X114803884Y-87696228D01*
X117875312Y-88172419D02*
X117541979Y-87696228D01*
X117303884Y-88172419D02*
X117303884Y-87172419D01*
X117303884Y-87172419D02*
X117684836Y-87172419D01*
X117684836Y-87172419D02*
X117780074Y-87220038D01*
X117780074Y-87220038D02*
X117827693Y-87267657D01*
X117827693Y-87267657D02*
X117875312Y-87362895D01*
X117875312Y-87362895D02*
X117875312Y-87505752D01*
X117875312Y-87505752D02*
X117827693Y-87600990D01*
X117827693Y-87600990D02*
X117780074Y-87648609D01*
X117780074Y-87648609D02*
X117684836Y-87696228D01*
X117684836Y-87696228D02*
X117303884Y-87696228D01*
X120375312Y-88172419D02*
X120041979Y-87696228D01*
X119803884Y-88172419D02*
X119803884Y-87172419D01*
X119803884Y-87172419D02*
X120184836Y-87172419D01*
X120184836Y-87172419D02*
X120280074Y-87220038D01*
X120280074Y-87220038D02*
X120327693Y-87267657D01*
X120327693Y-87267657D02*
X120375312Y-87362895D01*
X120375312Y-87362895D02*
X120375312Y-87505752D01*
X120375312Y-87505752D02*
X120327693Y-87600990D01*
X120327693Y-87600990D02*
X120280074Y-87648609D01*
X120280074Y-87648609D02*
X120184836Y-87696228D01*
X120184836Y-87696228D02*
X119803884Y-87696228D01*
X150975312Y-54772419D02*
X150641979Y-54296228D01*
X150403884Y-54772419D02*
X150403884Y-53772419D01*
X150403884Y-53772419D02*
X150784836Y-53772419D01*
X150784836Y-53772419D02*
X150880074Y-53820038D01*
X150880074Y-53820038D02*
X150927693Y-53867657D01*
X150927693Y-53867657D02*
X150975312Y-53962895D01*
X150975312Y-53962895D02*
X150975312Y-54105752D01*
X150975312Y-54105752D02*
X150927693Y-54200990D01*
X150927693Y-54200990D02*
X150880074Y-54248609D01*
X150880074Y-54248609D02*
X150784836Y-54296228D01*
X150784836Y-54296228D02*
X150403884Y-54296228D01*
X150875312Y-51772419D02*
X150541979Y-51296228D01*
X150303884Y-51772419D02*
X150303884Y-50772419D01*
X150303884Y-50772419D02*
X150684836Y-50772419D01*
X150684836Y-50772419D02*
X150780074Y-50820038D01*
X150780074Y-50820038D02*
X150827693Y-50867657D01*
X150827693Y-50867657D02*
X150875312Y-50962895D01*
X150875312Y-50962895D02*
X150875312Y-51105752D01*
X150875312Y-51105752D02*
X150827693Y-51200990D01*
X150827693Y-51200990D02*
X150780074Y-51248609D01*
X150780074Y-51248609D02*
X150684836Y-51296228D01*
X150684836Y-51296228D02*
X150303884Y-51296228D01*
D11*
X175854510Y-87299568D02*
X176997368Y-87299568D01*
X179783082Y-86370996D02*
X180283082Y-87870996D01*
X180283082Y-87870996D02*
X180783082Y-86370996D01*
X182140224Y-87728139D02*
X182068796Y-87799568D01*
X182068796Y-87799568D02*
X181854510Y-87870996D01*
X181854510Y-87870996D02*
X181711653Y-87870996D01*
X181711653Y-87870996D02*
X181497367Y-87799568D01*
X181497367Y-87799568D02*
X181354510Y-87656710D01*
X181354510Y-87656710D02*
X181283081Y-87513853D01*
X181283081Y-87513853D02*
X181211653Y-87228139D01*
X181211653Y-87228139D02*
X181211653Y-87013853D01*
X181211653Y-87013853D02*
X181283081Y-86728139D01*
X181283081Y-86728139D02*
X181354510Y-86585282D01*
X181354510Y-86585282D02*
X181497367Y-86442425D01*
X181497367Y-86442425D02*
X181711653Y-86370996D01*
X181711653Y-86370996D02*
X181854510Y-86370996D01*
X181854510Y-86370996D02*
X182068796Y-86442425D01*
X182068796Y-86442425D02*
X182140224Y-86513853D01*
X183640224Y-87728139D02*
X183568796Y-87799568D01*
X183568796Y-87799568D02*
X183354510Y-87870996D01*
X183354510Y-87870996D02*
X183211653Y-87870996D01*
X183211653Y-87870996D02*
X182997367Y-87799568D01*
X182997367Y-87799568D02*
X182854510Y-87656710D01*
X182854510Y-87656710D02*
X182783081Y-87513853D01*
X182783081Y-87513853D02*
X182711653Y-87228139D01*
X182711653Y-87228139D02*
X182711653Y-87013853D01*
X182711653Y-87013853D02*
X182783081Y-86728139D01*
X182783081Y-86728139D02*
X182854510Y-86585282D01*
X182854510Y-86585282D02*
X182997367Y-86442425D01*
X182997367Y-86442425D02*
X183211653Y-86370996D01*
X183211653Y-86370996D02*
X183354510Y-86370996D01*
X183354510Y-86370996D02*
X183568796Y-86442425D01*
X183568796Y-86442425D02*
X183640224Y-86513853D01*
X175854510Y-89714484D02*
X176997368Y-89714484D01*
X180711653Y-88785912D02*
X179997367Y-88785912D01*
X179997367Y-88785912D02*
X179925939Y-89500198D01*
X179925939Y-89500198D02*
X179997367Y-89428769D01*
X179997367Y-89428769D02*
X180140225Y-89357341D01*
X180140225Y-89357341D02*
X180497367Y-89357341D01*
X180497367Y-89357341D02*
X180640225Y-89428769D01*
X180640225Y-89428769D02*
X180711653Y-89500198D01*
X180711653Y-89500198D02*
X180783082Y-89643055D01*
X180783082Y-89643055D02*
X180783082Y-90000198D01*
X180783082Y-90000198D02*
X180711653Y-90143055D01*
X180711653Y-90143055D02*
X180640225Y-90214484D01*
X180640225Y-90214484D02*
X180497367Y-90285912D01*
X180497367Y-90285912D02*
X180140225Y-90285912D01*
X180140225Y-90285912D02*
X179997367Y-90214484D01*
X179997367Y-90214484D02*
X179925939Y-90143055D01*
X181211653Y-88785912D02*
X181711653Y-90285912D01*
X181711653Y-90285912D02*
X182211653Y-88785912D01*
X175854510Y-92129400D02*
X176997368Y-92129400D01*
X179854510Y-91200828D02*
X180783082Y-91200828D01*
X180783082Y-91200828D02*
X180283082Y-91772257D01*
X180283082Y-91772257D02*
X180497367Y-91772257D01*
X180497367Y-91772257D02*
X180640225Y-91843685D01*
X180640225Y-91843685D02*
X180711653Y-91915114D01*
X180711653Y-91915114D02*
X180783082Y-92057971D01*
X180783082Y-92057971D02*
X180783082Y-92415114D01*
X180783082Y-92415114D02*
X180711653Y-92557971D01*
X180711653Y-92557971D02*
X180640225Y-92629400D01*
X180640225Y-92629400D02*
X180497367Y-92700828D01*
X180497367Y-92700828D02*
X180068796Y-92700828D01*
X180068796Y-92700828D02*
X179925939Y-92629400D01*
X179925939Y-92629400D02*
X179854510Y-92557971D01*
X181211653Y-91200828D02*
X181711653Y-92700828D01*
X181711653Y-92700828D02*
X182211653Y-91200828D01*
X182568795Y-91200828D02*
X183497367Y-91200828D01*
X183497367Y-91200828D02*
X182997367Y-91772257D01*
X182997367Y-91772257D02*
X183211652Y-91772257D01*
X183211652Y-91772257D02*
X183354510Y-91843685D01*
X183354510Y-91843685D02*
X183425938Y-91915114D01*
X183425938Y-91915114D02*
X183497367Y-92057971D01*
X183497367Y-92057971D02*
X183497367Y-92415114D01*
X183497367Y-92415114D02*
X183425938Y-92557971D01*
X183425938Y-92557971D02*
X183354510Y-92629400D01*
X183354510Y-92629400D02*
X183211652Y-92700828D01*
X183211652Y-92700828D02*
X182783081Y-92700828D01*
X182783081Y-92700828D02*
X182640224Y-92629400D01*
X182640224Y-92629400D02*
X182568795Y-92557971D01*
D12*
X146166428Y-33867739D02*
X146264523Y-33867739D01*
X146264523Y-33867739D02*
X146362619Y-33915358D01*
X146362619Y-33915358D02*
X146411666Y-33962977D01*
X146411666Y-33962977D02*
X146460714Y-34058215D01*
X146460714Y-34058215D02*
X146509761Y-34248691D01*
X146509761Y-34248691D02*
X146509761Y-34486786D01*
X146509761Y-34486786D02*
X146460714Y-34677262D01*
X146460714Y-34677262D02*
X146411666Y-34772500D01*
X146411666Y-34772500D02*
X146362619Y-34820120D01*
X146362619Y-34820120D02*
X146264523Y-34867739D01*
X146264523Y-34867739D02*
X146166428Y-34867739D01*
X146166428Y-34867739D02*
X146068333Y-34820120D01*
X146068333Y-34820120D02*
X146019285Y-34772500D01*
X146019285Y-34772500D02*
X145970238Y-34677262D01*
X145970238Y-34677262D02*
X145921190Y-34486786D01*
X145921190Y-34486786D02*
X145921190Y-34248691D01*
X145921190Y-34248691D02*
X145970238Y-34058215D01*
X145970238Y-34058215D02*
X146019285Y-33962977D01*
X146019285Y-33962977D02*
X146068333Y-33915358D01*
X146068333Y-33915358D02*
X146166428Y-33867739D01*
X149060237Y-34867739D02*
X148471666Y-34867739D01*
X148765952Y-34867739D02*
X148765952Y-33867739D01*
X148765952Y-33867739D02*
X148667856Y-34010596D01*
X148667856Y-34010596D02*
X148569761Y-34105834D01*
X148569761Y-34105834D02*
X148471666Y-34153453D01*
X151022142Y-33962977D02*
X151071190Y-33915358D01*
X151071190Y-33915358D02*
X151169285Y-33867739D01*
X151169285Y-33867739D02*
X151414523Y-33867739D01*
X151414523Y-33867739D02*
X151512618Y-33915358D01*
X151512618Y-33915358D02*
X151561666Y-33962977D01*
X151561666Y-33962977D02*
X151610713Y-34058215D01*
X151610713Y-34058215D02*
X151610713Y-34153453D01*
X151610713Y-34153453D02*
X151561666Y-34296310D01*
X151561666Y-34296310D02*
X150973094Y-34867739D01*
X150973094Y-34867739D02*
X151610713Y-34867739D01*
X153523570Y-33867739D02*
X154161189Y-33867739D01*
X154161189Y-33867739D02*
X153817856Y-34248691D01*
X153817856Y-34248691D02*
X153964999Y-34248691D01*
X153964999Y-34248691D02*
X154063094Y-34296310D01*
X154063094Y-34296310D02*
X154112142Y-34343929D01*
X154112142Y-34343929D02*
X154161189Y-34439167D01*
X154161189Y-34439167D02*
X154161189Y-34677262D01*
X154161189Y-34677262D02*
X154112142Y-34772500D01*
X154112142Y-34772500D02*
X154063094Y-34820120D01*
X154063094Y-34820120D02*
X153964999Y-34867739D01*
X153964999Y-34867739D02*
X153670713Y-34867739D01*
X153670713Y-34867739D02*
X153572618Y-34820120D01*
X153572618Y-34820120D02*
X153523570Y-34772500D01*
X156613570Y-34201072D02*
X156613570Y-34867739D01*
X156368332Y-33820120D02*
X156123094Y-34534405D01*
X156123094Y-34534405D02*
X156760713Y-34534405D01*
X159213094Y-33867739D02*
X158722618Y-33867739D01*
X158722618Y-33867739D02*
X158673570Y-34343929D01*
X158673570Y-34343929D02*
X158722618Y-34296310D01*
X158722618Y-34296310D02*
X158820713Y-34248691D01*
X158820713Y-34248691D02*
X159065951Y-34248691D01*
X159065951Y-34248691D02*
X159164046Y-34296310D01*
X159164046Y-34296310D02*
X159213094Y-34343929D01*
X159213094Y-34343929D02*
X159262141Y-34439167D01*
X159262141Y-34439167D02*
X159262141Y-34677262D01*
X159262141Y-34677262D02*
X159213094Y-34772500D01*
X159213094Y-34772500D02*
X159164046Y-34820120D01*
X159164046Y-34820120D02*
X159065951Y-34867739D01*
X159065951Y-34867739D02*
X158820713Y-34867739D01*
X158820713Y-34867739D02*
X158722618Y-34820120D01*
X158722618Y-34820120D02*
X158673570Y-34772500D01*
X161714522Y-33867739D02*
X161518332Y-33867739D01*
X161518332Y-33867739D02*
X161420236Y-33915358D01*
X161420236Y-33915358D02*
X161371189Y-33962977D01*
X161371189Y-33962977D02*
X161273094Y-34105834D01*
X161273094Y-34105834D02*
X161224046Y-34296310D01*
X161224046Y-34296310D02*
X161224046Y-34677262D01*
X161224046Y-34677262D02*
X161273094Y-34772500D01*
X161273094Y-34772500D02*
X161322141Y-34820120D01*
X161322141Y-34820120D02*
X161420236Y-34867739D01*
X161420236Y-34867739D02*
X161616427Y-34867739D01*
X161616427Y-34867739D02*
X161714522Y-34820120D01*
X161714522Y-34820120D02*
X161763570Y-34772500D01*
X161763570Y-34772500D02*
X161812617Y-34677262D01*
X161812617Y-34677262D02*
X161812617Y-34439167D01*
X161812617Y-34439167D02*
X161763570Y-34343929D01*
X161763570Y-34343929D02*
X161714522Y-34296310D01*
X161714522Y-34296310D02*
X161616427Y-34248691D01*
X161616427Y-34248691D02*
X161420236Y-34248691D01*
X161420236Y-34248691D02*
X161322141Y-34296310D01*
X161322141Y-34296310D02*
X161273094Y-34343929D01*
X161273094Y-34343929D02*
X161224046Y-34439167D01*
X163725474Y-33867739D02*
X164412141Y-33867739D01*
X164412141Y-33867739D02*
X163970712Y-34867739D01*
X111772142Y-33867739D02*
X112458809Y-33867739D01*
X112458809Y-33867739D02*
X112017380Y-34867739D01*
X114862142Y-33867739D02*
X114665952Y-33867739D01*
X114665952Y-33867739D02*
X114567856Y-33915358D01*
X114567856Y-33915358D02*
X114518809Y-33962977D01*
X114518809Y-33962977D02*
X114420714Y-34105834D01*
X114420714Y-34105834D02*
X114371666Y-34296310D01*
X114371666Y-34296310D02*
X114371666Y-34677262D01*
X114371666Y-34677262D02*
X114420714Y-34772500D01*
X114420714Y-34772500D02*
X114469761Y-34820120D01*
X114469761Y-34820120D02*
X114567856Y-34867739D01*
X114567856Y-34867739D02*
X114764047Y-34867739D01*
X114764047Y-34867739D02*
X114862142Y-34820120D01*
X114862142Y-34820120D02*
X114911190Y-34772500D01*
X114911190Y-34772500D02*
X114960237Y-34677262D01*
X114960237Y-34677262D02*
X114960237Y-34439167D01*
X114960237Y-34439167D02*
X114911190Y-34343929D01*
X114911190Y-34343929D02*
X114862142Y-34296310D01*
X114862142Y-34296310D02*
X114764047Y-34248691D01*
X114764047Y-34248691D02*
X114567856Y-34248691D01*
X114567856Y-34248691D02*
X114469761Y-34296310D01*
X114469761Y-34296310D02*
X114420714Y-34343929D01*
X114420714Y-34343929D02*
X114371666Y-34439167D01*
X117461666Y-33867739D02*
X116971190Y-33867739D01*
X116971190Y-33867739D02*
X116922142Y-34343929D01*
X116922142Y-34343929D02*
X116971190Y-34296310D01*
X116971190Y-34296310D02*
X117069285Y-34248691D01*
X117069285Y-34248691D02*
X117314523Y-34248691D01*
X117314523Y-34248691D02*
X117412618Y-34296310D01*
X117412618Y-34296310D02*
X117461666Y-34343929D01*
X117461666Y-34343929D02*
X117510713Y-34439167D01*
X117510713Y-34439167D02*
X117510713Y-34677262D01*
X117510713Y-34677262D02*
X117461666Y-34772500D01*
X117461666Y-34772500D02*
X117412618Y-34820120D01*
X117412618Y-34820120D02*
X117314523Y-34867739D01*
X117314523Y-34867739D02*
X117069285Y-34867739D01*
X117069285Y-34867739D02*
X116971190Y-34820120D01*
X116971190Y-34820120D02*
X116922142Y-34772500D01*
X119963094Y-34201072D02*
X119963094Y-34867739D01*
X119717856Y-33820120D02*
X119472618Y-34534405D01*
X119472618Y-34534405D02*
X120110237Y-34534405D01*
X121974046Y-33867739D02*
X122611665Y-33867739D01*
X122611665Y-33867739D02*
X122268332Y-34248691D01*
X122268332Y-34248691D02*
X122415475Y-34248691D01*
X122415475Y-34248691D02*
X122513570Y-34296310D01*
X122513570Y-34296310D02*
X122562618Y-34343929D01*
X122562618Y-34343929D02*
X122611665Y-34439167D01*
X122611665Y-34439167D02*
X122611665Y-34677262D01*
X122611665Y-34677262D02*
X122562618Y-34772500D01*
X122562618Y-34772500D02*
X122513570Y-34820120D01*
X122513570Y-34820120D02*
X122415475Y-34867739D01*
X122415475Y-34867739D02*
X122121189Y-34867739D01*
X122121189Y-34867739D02*
X122023094Y-34820120D01*
X122023094Y-34820120D02*
X121974046Y-34772500D01*
X124573570Y-33962977D02*
X124622618Y-33915358D01*
X124622618Y-33915358D02*
X124720713Y-33867739D01*
X124720713Y-33867739D02*
X124965951Y-33867739D01*
X124965951Y-33867739D02*
X125064046Y-33915358D01*
X125064046Y-33915358D02*
X125113094Y-33962977D01*
X125113094Y-33962977D02*
X125162141Y-34058215D01*
X125162141Y-34058215D02*
X125162141Y-34153453D01*
X125162141Y-34153453D02*
X125113094Y-34296310D01*
X125113094Y-34296310D02*
X124524522Y-34867739D01*
X124524522Y-34867739D02*
X125162141Y-34867739D01*
X127712617Y-34867739D02*
X127124046Y-34867739D01*
X127418332Y-34867739D02*
X127418332Y-33867739D01*
X127418332Y-33867739D02*
X127320236Y-34010596D01*
X127320236Y-34010596D02*
X127222141Y-34105834D01*
X127222141Y-34105834D02*
X127124046Y-34153453D01*
X129919760Y-33867739D02*
X130017855Y-33867739D01*
X130017855Y-33867739D02*
X130115951Y-33915358D01*
X130115951Y-33915358D02*
X130164998Y-33962977D01*
X130164998Y-33962977D02*
X130214046Y-34058215D01*
X130214046Y-34058215D02*
X130263093Y-34248691D01*
X130263093Y-34248691D02*
X130263093Y-34486786D01*
X130263093Y-34486786D02*
X130214046Y-34677262D01*
X130214046Y-34677262D02*
X130164998Y-34772500D01*
X130164998Y-34772500D02*
X130115951Y-34820120D01*
X130115951Y-34820120D02*
X130017855Y-34867739D01*
X130017855Y-34867739D02*
X129919760Y-34867739D01*
X129919760Y-34867739D02*
X129821665Y-34820120D01*
X129821665Y-34820120D02*
X129772617Y-34772500D01*
X129772617Y-34772500D02*
X129723570Y-34677262D01*
X129723570Y-34677262D02*
X129674522Y-34486786D01*
X129674522Y-34486786D02*
X129674522Y-34248691D01*
X129674522Y-34248691D02*
X129723570Y-34058215D01*
X129723570Y-34058215D02*
X129772617Y-33962977D01*
X129772617Y-33962977D02*
X129821665Y-33915358D01*
X129821665Y-33915358D02*
X129919760Y-33867739D01*
X112248809Y-47967739D02*
X111705952Y-47967739D01*
X111977380Y-47967739D02*
X111977380Y-46967739D01*
X111977380Y-46967739D02*
X111886904Y-47110596D01*
X111886904Y-47110596D02*
X111796428Y-47205834D01*
X111796428Y-47205834D02*
X111705952Y-47253453D01*
X113108333Y-46967739D02*
X112655952Y-46967739D01*
X112655952Y-46967739D02*
X112610714Y-47443929D01*
X112610714Y-47443929D02*
X112655952Y-47396310D01*
X112655952Y-47396310D02*
X112746428Y-47348691D01*
X112746428Y-47348691D02*
X112972619Y-47348691D01*
X112972619Y-47348691D02*
X113063095Y-47396310D01*
X113063095Y-47396310D02*
X113108333Y-47443929D01*
X113108333Y-47443929D02*
X113153571Y-47539167D01*
X113153571Y-47539167D02*
X113153571Y-47777262D01*
X113153571Y-47777262D02*
X113108333Y-47872500D01*
X113108333Y-47872500D02*
X113063095Y-47920120D01*
X113063095Y-47920120D02*
X112972619Y-47967739D01*
X112972619Y-47967739D02*
X112746428Y-47967739D01*
X112746428Y-47967739D02*
X112655952Y-47920120D01*
X112655952Y-47920120D02*
X112610714Y-47872500D01*
X114782143Y-47967739D02*
X114239286Y-47967739D01*
X114510714Y-47967739D02*
X114510714Y-46967739D01*
X114510714Y-46967739D02*
X114420238Y-47110596D01*
X114420238Y-47110596D02*
X114329762Y-47205834D01*
X114329762Y-47205834D02*
X114239286Y-47253453D01*
X115596429Y-47301072D02*
X115596429Y-47967739D01*
X115370238Y-46920120D02*
X115144048Y-47634405D01*
X115144048Y-47634405D02*
X115732143Y-47634405D01*
X117315477Y-47967739D02*
X116772620Y-47967739D01*
X117044048Y-47967739D02*
X117044048Y-46967739D01*
X117044048Y-46967739D02*
X116953572Y-47110596D01*
X116953572Y-47110596D02*
X116863096Y-47205834D01*
X116863096Y-47205834D02*
X116772620Y-47253453D01*
X117632144Y-46967739D02*
X118220239Y-46967739D01*
X118220239Y-46967739D02*
X117903572Y-47348691D01*
X117903572Y-47348691D02*
X118039287Y-47348691D01*
X118039287Y-47348691D02*
X118129763Y-47396310D01*
X118129763Y-47396310D02*
X118175001Y-47443929D01*
X118175001Y-47443929D02*
X118220239Y-47539167D01*
X118220239Y-47539167D02*
X118220239Y-47777262D01*
X118220239Y-47777262D02*
X118175001Y-47872500D01*
X118175001Y-47872500D02*
X118129763Y-47920120D01*
X118129763Y-47920120D02*
X118039287Y-47967739D01*
X118039287Y-47967739D02*
X117767858Y-47967739D01*
X117767858Y-47967739D02*
X117677382Y-47920120D01*
X117677382Y-47920120D02*
X117632144Y-47872500D01*
X119848811Y-47967739D02*
X119305954Y-47967739D01*
X119577382Y-47967739D02*
X119577382Y-46967739D01*
X119577382Y-46967739D02*
X119486906Y-47110596D01*
X119486906Y-47110596D02*
X119396430Y-47205834D01*
X119396430Y-47205834D02*
X119305954Y-47253453D01*
X120210716Y-47062977D02*
X120255954Y-47015358D01*
X120255954Y-47015358D02*
X120346430Y-46967739D01*
X120346430Y-46967739D02*
X120572621Y-46967739D01*
X120572621Y-46967739D02*
X120663097Y-47015358D01*
X120663097Y-47015358D02*
X120708335Y-47062977D01*
X120708335Y-47062977D02*
X120753573Y-47158215D01*
X120753573Y-47158215D02*
X120753573Y-47253453D01*
X120753573Y-47253453D02*
X120708335Y-47396310D01*
X120708335Y-47396310D02*
X120165478Y-47967739D01*
X120165478Y-47967739D02*
X120753573Y-47967739D01*
X122382145Y-47967739D02*
X121839288Y-47967739D01*
X122110716Y-47967739D02*
X122110716Y-46967739D01*
X122110716Y-46967739D02*
X122020240Y-47110596D01*
X122020240Y-47110596D02*
X121929764Y-47205834D01*
X121929764Y-47205834D02*
X121839288Y-47253453D01*
X123286907Y-47967739D02*
X122744050Y-47967739D01*
X123015478Y-47967739D02*
X123015478Y-46967739D01*
X123015478Y-46967739D02*
X122925002Y-47110596D01*
X122925002Y-47110596D02*
X122834526Y-47205834D01*
X122834526Y-47205834D02*
X122744050Y-47253453D01*
X124915479Y-47967739D02*
X124372622Y-47967739D01*
X124644050Y-47967739D02*
X124644050Y-46967739D01*
X124644050Y-46967739D02*
X124553574Y-47110596D01*
X124553574Y-47110596D02*
X124463098Y-47205834D01*
X124463098Y-47205834D02*
X124372622Y-47253453D01*
X125503574Y-46967739D02*
X125594051Y-46967739D01*
X125594051Y-46967739D02*
X125684527Y-47015358D01*
X125684527Y-47015358D02*
X125729765Y-47062977D01*
X125729765Y-47062977D02*
X125775003Y-47158215D01*
X125775003Y-47158215D02*
X125820241Y-47348691D01*
X125820241Y-47348691D02*
X125820241Y-47586786D01*
X125820241Y-47586786D02*
X125775003Y-47777262D01*
X125775003Y-47777262D02*
X125729765Y-47872500D01*
X125729765Y-47872500D02*
X125684527Y-47920120D01*
X125684527Y-47920120D02*
X125594051Y-47967739D01*
X125594051Y-47967739D02*
X125503574Y-47967739D01*
X125503574Y-47967739D02*
X125413098Y-47920120D01*
X125413098Y-47920120D02*
X125367860Y-47872500D01*
X125367860Y-47872500D02*
X125322622Y-47777262D01*
X125322622Y-47777262D02*
X125277384Y-47586786D01*
X125277384Y-47586786D02*
X125277384Y-47348691D01*
X125277384Y-47348691D02*
X125322622Y-47158215D01*
X125322622Y-47158215D02*
X125367860Y-47062977D01*
X125367860Y-47062977D02*
X125413098Y-47015358D01*
X125413098Y-47015358D02*
X125503574Y-46967739D01*
X127720242Y-47967739D02*
X127901194Y-47967739D01*
X127901194Y-47967739D02*
X127991671Y-47920120D01*
X127991671Y-47920120D02*
X128036909Y-47872500D01*
X128036909Y-47872500D02*
X128127385Y-47729643D01*
X128127385Y-47729643D02*
X128172623Y-47539167D01*
X128172623Y-47539167D02*
X128172623Y-47158215D01*
X128172623Y-47158215D02*
X128127385Y-47062977D01*
X128127385Y-47062977D02*
X128082147Y-47015358D01*
X128082147Y-47015358D02*
X127991671Y-46967739D01*
X127991671Y-46967739D02*
X127810718Y-46967739D01*
X127810718Y-46967739D02*
X127720242Y-47015358D01*
X127720242Y-47015358D02*
X127675004Y-47062977D01*
X127675004Y-47062977D02*
X127629766Y-47158215D01*
X127629766Y-47158215D02*
X127629766Y-47396310D01*
X127629766Y-47396310D02*
X127675004Y-47491548D01*
X127675004Y-47491548D02*
X127720242Y-47539167D01*
X127720242Y-47539167D02*
X127810718Y-47586786D01*
X127810718Y-47586786D02*
X127991671Y-47586786D01*
X127991671Y-47586786D02*
X128082147Y-47539167D01*
X128082147Y-47539167D02*
X128127385Y-47491548D01*
X128127385Y-47491548D02*
X128172623Y-47396310D01*
X130163100Y-47396310D02*
X130072624Y-47348691D01*
X130072624Y-47348691D02*
X130027386Y-47301072D01*
X130027386Y-47301072D02*
X129982148Y-47205834D01*
X129982148Y-47205834D02*
X129982148Y-47158215D01*
X129982148Y-47158215D02*
X130027386Y-47062977D01*
X130027386Y-47062977D02*
X130072624Y-47015358D01*
X130072624Y-47015358D02*
X130163100Y-46967739D01*
X130163100Y-46967739D02*
X130344053Y-46967739D01*
X130344053Y-46967739D02*
X130434529Y-47015358D01*
X130434529Y-47015358D02*
X130479767Y-47062977D01*
X130479767Y-47062977D02*
X130525005Y-47158215D01*
X130525005Y-47158215D02*
X130525005Y-47205834D01*
X130525005Y-47205834D02*
X130479767Y-47301072D01*
X130479767Y-47301072D02*
X130434529Y-47348691D01*
X130434529Y-47348691D02*
X130344053Y-47396310D01*
X130344053Y-47396310D02*
X130163100Y-47396310D01*
X130163100Y-47396310D02*
X130072624Y-47443929D01*
X130072624Y-47443929D02*
X130027386Y-47491548D01*
X130027386Y-47491548D02*
X129982148Y-47586786D01*
X129982148Y-47586786D02*
X129982148Y-47777262D01*
X129982148Y-47777262D02*
X130027386Y-47872500D01*
X130027386Y-47872500D02*
X130072624Y-47920120D01*
X130072624Y-47920120D02*
X130163100Y-47967739D01*
X130163100Y-47967739D02*
X130344053Y-47967739D01*
X130344053Y-47967739D02*
X130434529Y-47920120D01*
X130434529Y-47920120D02*
X130479767Y-47872500D01*
X130479767Y-47872500D02*
X130525005Y-47777262D01*
X130525005Y-47777262D02*
X130525005Y-47586786D01*
X130525005Y-47586786D02*
X130479767Y-47491548D01*
X130479767Y-47491548D02*
X130434529Y-47443929D01*
X130434529Y-47443929D02*
X130344053Y-47396310D01*
D13*
X161505901Y-92864619D02*
X161603996Y-92864619D01*
X161603996Y-92864619D02*
X161702092Y-92912238D01*
X161702092Y-92912238D02*
X161751139Y-92959857D01*
X161751139Y-92959857D02*
X161800187Y-93055095D01*
X161800187Y-93055095D02*
X161849234Y-93245571D01*
X161849234Y-93245571D02*
X161849234Y-93483666D01*
X161849234Y-93483666D02*
X161800187Y-93674142D01*
X161800187Y-93674142D02*
X161751139Y-93769380D01*
X161751139Y-93769380D02*
X161702092Y-93817000D01*
X161702092Y-93817000D02*
X161603996Y-93864619D01*
X161603996Y-93864619D02*
X161505901Y-93864619D01*
X161505901Y-93864619D02*
X161407806Y-93817000D01*
X161407806Y-93817000D02*
X161358758Y-93769380D01*
X161358758Y-93769380D02*
X161309711Y-93674142D01*
X161309711Y-93674142D02*
X161260663Y-93483666D01*
X161260663Y-93483666D02*
X161260663Y-93245571D01*
X161260663Y-93245571D02*
X161309711Y-93055095D01*
X161309711Y-93055095D02*
X161358758Y-92959857D01*
X161358758Y-92959857D02*
X161407806Y-92912238D01*
X161407806Y-92912238D02*
X161505901Y-92864619D01*
X163811139Y-92959857D02*
X163860187Y-92912238D01*
X163860187Y-92912238D02*
X163958282Y-92864619D01*
X163958282Y-92864619D02*
X164203520Y-92864619D01*
X164203520Y-92864619D02*
X164301615Y-92912238D01*
X164301615Y-92912238D02*
X164350663Y-92959857D01*
X164350663Y-92959857D02*
X164399710Y-93055095D01*
X164399710Y-93055095D02*
X164399710Y-93150333D01*
X164399710Y-93150333D02*
X164350663Y-93293190D01*
X164350663Y-93293190D02*
X163762091Y-93864619D01*
X163762091Y-93864619D02*
X164399710Y-93864619D01*
X166852091Y-93197952D02*
X166852091Y-93864619D01*
X166606853Y-92817000D02*
X166361615Y-93531285D01*
X166361615Y-93531285D02*
X166999234Y-93531285D01*
X168078281Y-92864619D02*
X168715900Y-92864619D01*
X168715900Y-92864619D02*
X168372567Y-93245571D01*
X168372567Y-93245571D02*
X168519710Y-93245571D01*
X168519710Y-93245571D02*
X168617805Y-93293190D01*
X168617805Y-93293190D02*
X168666853Y-93340809D01*
X168666853Y-93340809D02*
X168715900Y-93436047D01*
X168715900Y-93436047D02*
X168715900Y-93674142D01*
X168715900Y-93674142D02*
X168666853Y-93769380D01*
X168666853Y-93769380D02*
X168617805Y-93817000D01*
X168617805Y-93817000D02*
X168519710Y-93864619D01*
X168519710Y-93864619D02*
X168225424Y-93864619D01*
X168225424Y-93864619D02*
X168127329Y-93817000D01*
X168127329Y-93817000D02*
X168078281Y-93769380D01*
X169598757Y-93197952D02*
X169598757Y-93864619D01*
X169353519Y-92817000D02*
X169108281Y-93531285D01*
X169108281Y-93531285D02*
X169745900Y-93531285D01*
X171462566Y-92912238D02*
X171364471Y-92864619D01*
X171364471Y-92864619D02*
X171217328Y-92864619D01*
X171217328Y-92864619D02*
X171070185Y-92912238D01*
X171070185Y-92912238D02*
X170972090Y-93007476D01*
X170972090Y-93007476D02*
X170923043Y-93102714D01*
X170923043Y-93102714D02*
X170873995Y-93293190D01*
X170873995Y-93293190D02*
X170873995Y-93436047D01*
X170873995Y-93436047D02*
X170923043Y-93626523D01*
X170923043Y-93626523D02*
X170972090Y-93721761D01*
X170972090Y-93721761D02*
X171070185Y-93817000D01*
X171070185Y-93817000D02*
X171217328Y-93864619D01*
X171217328Y-93864619D02*
X171315424Y-93864619D01*
X171315424Y-93864619D02*
X171462566Y-93817000D01*
X171462566Y-93817000D02*
X171511614Y-93769380D01*
X171511614Y-93769380D02*
X171511614Y-93436047D01*
X171511614Y-93436047D02*
X171315424Y-93436047D01*
X171953043Y-93864619D02*
X171953043Y-92864619D01*
X171953043Y-92864619D02*
X172541614Y-93864619D01*
X172541614Y-93864619D02*
X172541614Y-92864619D01*
X173032091Y-93864619D02*
X173032091Y-92864619D01*
X173032091Y-92864619D02*
X173277329Y-92864619D01*
X173277329Y-92864619D02*
X173424472Y-92912238D01*
X173424472Y-92912238D02*
X173522567Y-93007476D01*
X173522567Y-93007476D02*
X173571614Y-93102714D01*
X173571614Y-93102714D02*
X173620662Y-93293190D01*
X173620662Y-93293190D02*
X173620662Y-93436047D01*
X173620662Y-93436047D02*
X173571614Y-93626523D01*
X173571614Y-93626523D02*
X173522567Y-93721761D01*
X173522567Y-93721761D02*
X173424472Y-93817000D01*
X173424472Y-93817000D02*
X173277329Y-93864619D01*
X173277329Y-93864619D02*
X173032091Y-93864619D01*
X161849234Y-101564619D02*
X161260663Y-101564619D01*
X161554949Y-101564619D02*
X161554949Y-100564619D01*
X161554949Y-100564619D02*
X161456853Y-100707476D01*
X161456853Y-100707476D02*
X161358758Y-100802714D01*
X161358758Y-100802714D02*
X161260663Y-100850333D01*
X163762091Y-100564619D02*
X164399710Y-100564619D01*
X164399710Y-100564619D02*
X164056377Y-100945571D01*
X164056377Y-100945571D02*
X164203520Y-100945571D01*
X164203520Y-100945571D02*
X164301615Y-100993190D01*
X164301615Y-100993190D02*
X164350663Y-101040809D01*
X164350663Y-101040809D02*
X164399710Y-101136047D01*
X164399710Y-101136047D02*
X164399710Y-101374142D01*
X164399710Y-101374142D02*
X164350663Y-101469380D01*
X164350663Y-101469380D02*
X164301615Y-101517000D01*
X164301615Y-101517000D02*
X164203520Y-101564619D01*
X164203520Y-101564619D02*
X163909234Y-101564619D01*
X163909234Y-101564619D02*
X163811139Y-101517000D01*
X163811139Y-101517000D02*
X163762091Y-101469380D01*
X166901139Y-100564619D02*
X166410663Y-100564619D01*
X166410663Y-100564619D02*
X166361615Y-101040809D01*
X166361615Y-101040809D02*
X166410663Y-100993190D01*
X166410663Y-100993190D02*
X166508758Y-100945571D01*
X166508758Y-100945571D02*
X166753996Y-100945571D01*
X166753996Y-100945571D02*
X166852091Y-100993190D01*
X166852091Y-100993190D02*
X166901139Y-101040809D01*
X166901139Y-101040809D02*
X166950186Y-101136047D01*
X166950186Y-101136047D02*
X166950186Y-101374142D01*
X166950186Y-101374142D02*
X166901139Y-101469380D01*
X166901139Y-101469380D02*
X166852091Y-101517000D01*
X166852091Y-101517000D02*
X166753996Y-101564619D01*
X166753996Y-101564619D02*
X166508758Y-101564619D01*
X166508758Y-101564619D02*
X166410663Y-101517000D01*
X166410663Y-101517000D02*
X166361615Y-101469380D01*
X168863043Y-100564619D02*
X169549710Y-100564619D01*
X169549710Y-100564619D02*
X169108281Y-101564619D01*
X170628757Y-100564619D02*
X171266376Y-100564619D01*
X171266376Y-100564619D02*
X170923043Y-100945571D01*
X170923043Y-100945571D02*
X171070186Y-100945571D01*
X171070186Y-100945571D02*
X171168281Y-100993190D01*
X171168281Y-100993190D02*
X171217329Y-101040809D01*
X171217329Y-101040809D02*
X171266376Y-101136047D01*
X171266376Y-101136047D02*
X171266376Y-101374142D01*
X171266376Y-101374142D02*
X171217329Y-101469380D01*
X171217329Y-101469380D02*
X171168281Y-101517000D01*
X171168281Y-101517000D02*
X171070186Y-101564619D01*
X171070186Y-101564619D02*
X170775900Y-101564619D01*
X170775900Y-101564619D02*
X170677805Y-101517000D01*
X170677805Y-101517000D02*
X170628757Y-101469380D01*
X172198281Y-100564619D02*
X171707805Y-100564619D01*
X171707805Y-100564619D02*
X171658757Y-101040809D01*
X171658757Y-101040809D02*
X171707805Y-100993190D01*
X171707805Y-100993190D02*
X171805900Y-100945571D01*
X171805900Y-100945571D02*
X172051138Y-100945571D01*
X172051138Y-100945571D02*
X172149233Y-100993190D01*
X172149233Y-100993190D02*
X172198281Y-101040809D01*
X172198281Y-101040809D02*
X172247328Y-101136047D01*
X172247328Y-101136047D02*
X172247328Y-101374142D01*
X172247328Y-101374142D02*
X172198281Y-101469380D01*
X172198281Y-101469380D02*
X172149233Y-101517000D01*
X172149233Y-101517000D02*
X172051138Y-101564619D01*
X172051138Y-101564619D02*
X171805900Y-101564619D01*
X171805900Y-101564619D02*
X171707805Y-101517000D01*
X171707805Y-101517000D02*
X171658757Y-101469380D01*
X111905901Y-100264619D02*
X112003996Y-100264619D01*
X112003996Y-100264619D02*
X112102092Y-100312238D01*
X112102092Y-100312238D02*
X112151139Y-100359857D01*
X112151139Y-100359857D02*
X112200187Y-100455095D01*
X112200187Y-100455095D02*
X112249234Y-100645571D01*
X112249234Y-100645571D02*
X112249234Y-100883666D01*
X112249234Y-100883666D02*
X112200187Y-101074142D01*
X112200187Y-101074142D02*
X112151139Y-101169380D01*
X112151139Y-101169380D02*
X112102092Y-101217000D01*
X112102092Y-101217000D02*
X112003996Y-101264619D01*
X112003996Y-101264619D02*
X111905901Y-101264619D01*
X111905901Y-101264619D02*
X111807806Y-101217000D01*
X111807806Y-101217000D02*
X111758758Y-101169380D01*
X111758758Y-101169380D02*
X111709711Y-101074142D01*
X111709711Y-101074142D02*
X111660663Y-100883666D01*
X111660663Y-100883666D02*
X111660663Y-100645571D01*
X111660663Y-100645571D02*
X111709711Y-100455095D01*
X111709711Y-100455095D02*
X111758758Y-100359857D01*
X111758758Y-100359857D02*
X111807806Y-100312238D01*
X111807806Y-100312238D02*
X111905901Y-100264619D01*
X114211139Y-100359857D02*
X114260187Y-100312238D01*
X114260187Y-100312238D02*
X114358282Y-100264619D01*
X114358282Y-100264619D02*
X114603520Y-100264619D01*
X114603520Y-100264619D02*
X114701615Y-100312238D01*
X114701615Y-100312238D02*
X114750663Y-100359857D01*
X114750663Y-100359857D02*
X114799710Y-100455095D01*
X114799710Y-100455095D02*
X114799710Y-100550333D01*
X114799710Y-100550333D02*
X114750663Y-100693190D01*
X114750663Y-100693190D02*
X114162091Y-101264619D01*
X114162091Y-101264619D02*
X114799710Y-101264619D01*
X117252091Y-100597952D02*
X117252091Y-101264619D01*
X117006853Y-100217000D02*
X116761615Y-100931285D01*
X116761615Y-100931285D02*
X117399234Y-100931285D01*
X119802567Y-100264619D02*
X119606377Y-100264619D01*
X119606377Y-100264619D02*
X119508281Y-100312238D01*
X119508281Y-100312238D02*
X119459234Y-100359857D01*
X119459234Y-100359857D02*
X119361139Y-100502714D01*
X119361139Y-100502714D02*
X119312091Y-100693190D01*
X119312091Y-100693190D02*
X119312091Y-101074142D01*
X119312091Y-101074142D02*
X119361139Y-101169380D01*
X119361139Y-101169380D02*
X119410186Y-101217000D01*
X119410186Y-101217000D02*
X119508281Y-101264619D01*
X119508281Y-101264619D02*
X119704472Y-101264619D01*
X119704472Y-101264619D02*
X119802567Y-101217000D01*
X119802567Y-101217000D02*
X119851615Y-101169380D01*
X119851615Y-101169380D02*
X119900662Y-101074142D01*
X119900662Y-101074142D02*
X119900662Y-100836047D01*
X119900662Y-100836047D02*
X119851615Y-100740809D01*
X119851615Y-100740809D02*
X119802567Y-100693190D01*
X119802567Y-100693190D02*
X119704472Y-100645571D01*
X119704472Y-100645571D02*
X119508281Y-100645571D01*
X119508281Y-100645571D02*
X119410186Y-100693190D01*
X119410186Y-100693190D02*
X119361139Y-100740809D01*
X119361139Y-100740809D02*
X119312091Y-100836047D01*
X112249234Y-94464619D02*
X111660663Y-94464619D01*
X111954949Y-94464619D02*
X111954949Y-93464619D01*
X111954949Y-93464619D02*
X111856853Y-93607476D01*
X111856853Y-93607476D02*
X111758758Y-93702714D01*
X111758758Y-93702714D02*
X111660663Y-93750333D01*
X114162091Y-93464619D02*
X114799710Y-93464619D01*
X114799710Y-93464619D02*
X114456377Y-93845571D01*
X114456377Y-93845571D02*
X114603520Y-93845571D01*
X114603520Y-93845571D02*
X114701615Y-93893190D01*
X114701615Y-93893190D02*
X114750663Y-93940809D01*
X114750663Y-93940809D02*
X114799710Y-94036047D01*
X114799710Y-94036047D02*
X114799710Y-94274142D01*
X114799710Y-94274142D02*
X114750663Y-94369380D01*
X114750663Y-94369380D02*
X114701615Y-94417000D01*
X114701615Y-94417000D02*
X114603520Y-94464619D01*
X114603520Y-94464619D02*
X114309234Y-94464619D01*
X114309234Y-94464619D02*
X114211139Y-94417000D01*
X114211139Y-94417000D02*
X114162091Y-94369380D01*
X117301139Y-93464619D02*
X116810663Y-93464619D01*
X116810663Y-93464619D02*
X116761615Y-93940809D01*
X116761615Y-93940809D02*
X116810663Y-93893190D01*
X116810663Y-93893190D02*
X116908758Y-93845571D01*
X116908758Y-93845571D02*
X117153996Y-93845571D01*
X117153996Y-93845571D02*
X117252091Y-93893190D01*
X117252091Y-93893190D02*
X117301139Y-93940809D01*
X117301139Y-93940809D02*
X117350186Y-94036047D01*
X117350186Y-94036047D02*
X117350186Y-94274142D01*
X117350186Y-94274142D02*
X117301139Y-94369380D01*
X117301139Y-94369380D02*
X117252091Y-94417000D01*
X117252091Y-94417000D02*
X117153996Y-94464619D01*
X117153996Y-94464619D02*
X116908758Y-94464619D01*
X116908758Y-94464619D02*
X116810663Y-94417000D01*
X116810663Y-94417000D02*
X116761615Y-94369380D01*
X119263043Y-93464619D02*
X119949710Y-93464619D01*
X119949710Y-93464619D02*
X119508281Y-94464619D01*
X124949234Y-93964619D02*
X124360663Y-93964619D01*
X124654949Y-93964619D02*
X124654949Y-92964619D01*
X124654949Y-92964619D02*
X124556853Y-93107476D01*
X124556853Y-93107476D02*
X124458758Y-93202714D01*
X124458758Y-93202714D02*
X124360663Y-93250333D01*
X126862091Y-92964619D02*
X127499710Y-92964619D01*
X127499710Y-92964619D02*
X127156377Y-93345571D01*
X127156377Y-93345571D02*
X127303520Y-93345571D01*
X127303520Y-93345571D02*
X127401615Y-93393190D01*
X127401615Y-93393190D02*
X127450663Y-93440809D01*
X127450663Y-93440809D02*
X127499710Y-93536047D01*
X127499710Y-93536047D02*
X127499710Y-93774142D01*
X127499710Y-93774142D02*
X127450663Y-93869380D01*
X127450663Y-93869380D02*
X127401615Y-93917000D01*
X127401615Y-93917000D02*
X127303520Y-93964619D01*
X127303520Y-93964619D02*
X127009234Y-93964619D01*
X127009234Y-93964619D02*
X126911139Y-93917000D01*
X126911139Y-93917000D02*
X126862091Y-93869380D01*
X130001139Y-92964619D02*
X129510663Y-92964619D01*
X129510663Y-92964619D02*
X129461615Y-93440809D01*
X129461615Y-93440809D02*
X129510663Y-93393190D01*
X129510663Y-93393190D02*
X129608758Y-93345571D01*
X129608758Y-93345571D02*
X129853996Y-93345571D01*
X129853996Y-93345571D02*
X129952091Y-93393190D01*
X129952091Y-93393190D02*
X130001139Y-93440809D01*
X130001139Y-93440809D02*
X130050186Y-93536047D01*
X130050186Y-93536047D02*
X130050186Y-93774142D01*
X130050186Y-93774142D02*
X130001139Y-93869380D01*
X130001139Y-93869380D02*
X129952091Y-93917000D01*
X129952091Y-93917000D02*
X129853996Y-93964619D01*
X129853996Y-93964619D02*
X129608758Y-93964619D01*
X129608758Y-93964619D02*
X129510663Y-93917000D01*
X129510663Y-93917000D02*
X129461615Y-93869380D01*
X131963043Y-92964619D02*
X132649710Y-92964619D01*
X132649710Y-92964619D02*
X132208281Y-93964619D01*
X134660662Y-93964619D02*
X134856853Y-93964619D01*
X134856853Y-93964619D02*
X134954948Y-93917000D01*
X134954948Y-93917000D02*
X135003996Y-93869380D01*
X135003996Y-93869380D02*
X135102091Y-93726523D01*
X135102091Y-93726523D02*
X135151138Y-93536047D01*
X135151138Y-93536047D02*
X135151138Y-93155095D01*
X135151138Y-93155095D02*
X135102091Y-93059857D01*
X135102091Y-93059857D02*
X135053043Y-93012238D01*
X135053043Y-93012238D02*
X134954948Y-92964619D01*
X134954948Y-92964619D02*
X134758757Y-92964619D01*
X134758757Y-92964619D02*
X134660662Y-93012238D01*
X134660662Y-93012238D02*
X134611615Y-93059857D01*
X134611615Y-93059857D02*
X134562567Y-93155095D01*
X134562567Y-93155095D02*
X134562567Y-93393190D01*
X134562567Y-93393190D02*
X134611615Y-93488428D01*
X134611615Y-93488428D02*
X134660662Y-93536047D01*
X134660662Y-93536047D02*
X134758757Y-93583666D01*
X134758757Y-93583666D02*
X134954948Y-93583666D01*
X134954948Y-93583666D02*
X135053043Y-93536047D01*
X135053043Y-93536047D02*
X135102091Y-93488428D01*
X135102091Y-93488428D02*
X135151138Y-93393190D01*
X136916852Y-93964619D02*
X136328281Y-93964619D01*
X136622567Y-93964619D02*
X136622567Y-92964619D01*
X136622567Y-92964619D02*
X136524471Y-93107476D01*
X136524471Y-93107476D02*
X136426376Y-93202714D01*
X136426376Y-93202714D02*
X136328281Y-93250333D01*
X137897804Y-93964619D02*
X137309233Y-93964619D01*
X137603519Y-93964619D02*
X137603519Y-92964619D01*
X137603519Y-92964619D02*
X137505423Y-93107476D01*
X137505423Y-93107476D02*
X137407328Y-93202714D01*
X137407328Y-93202714D02*
X137309233Y-93250333D01*
X139663518Y-93964619D02*
X139074947Y-93964619D01*
X139369233Y-93964619D02*
X139369233Y-92964619D01*
X139369233Y-92964619D02*
X139271137Y-93107476D01*
X139271137Y-93107476D02*
X139173042Y-93202714D01*
X139173042Y-93202714D02*
X139074947Y-93250333D01*
X140006851Y-92964619D02*
X140644470Y-92964619D01*
X140644470Y-92964619D02*
X140301137Y-93345571D01*
X140301137Y-93345571D02*
X140448280Y-93345571D01*
X140448280Y-93345571D02*
X140546375Y-93393190D01*
X140546375Y-93393190D02*
X140595423Y-93440809D01*
X140595423Y-93440809D02*
X140644470Y-93536047D01*
X140644470Y-93536047D02*
X140644470Y-93774142D01*
X140644470Y-93774142D02*
X140595423Y-93869380D01*
X140595423Y-93869380D02*
X140546375Y-93917000D01*
X140546375Y-93917000D02*
X140448280Y-93964619D01*
X140448280Y-93964619D02*
X140153994Y-93964619D01*
X140153994Y-93964619D02*
X140055899Y-93917000D01*
X140055899Y-93917000D02*
X140006851Y-93869380D01*
X142410184Y-93964619D02*
X141821613Y-93964619D01*
X142115899Y-93964619D02*
X142115899Y-92964619D01*
X142115899Y-92964619D02*
X142017803Y-93107476D01*
X142017803Y-93107476D02*
X141919708Y-93202714D01*
X141919708Y-93202714D02*
X141821613Y-93250333D01*
X143342089Y-92964619D02*
X142851613Y-92964619D01*
X142851613Y-92964619D02*
X142802565Y-93440809D01*
X142802565Y-93440809D02*
X142851613Y-93393190D01*
X142851613Y-93393190D02*
X142949708Y-93345571D01*
X142949708Y-93345571D02*
X143194946Y-93345571D01*
X143194946Y-93345571D02*
X143293041Y-93393190D01*
X143293041Y-93393190D02*
X143342089Y-93440809D01*
X143342089Y-93440809D02*
X143391136Y-93536047D01*
X143391136Y-93536047D02*
X143391136Y-93774142D01*
X143391136Y-93774142D02*
X143342089Y-93869380D01*
X143342089Y-93869380D02*
X143293041Y-93917000D01*
X143293041Y-93917000D02*
X143194946Y-93964619D01*
X143194946Y-93964619D02*
X142949708Y-93964619D01*
X142949708Y-93964619D02*
X142851613Y-93917000D01*
X142851613Y-93917000D02*
X142802565Y-93869380D01*
X124405901Y-100664619D02*
X124503996Y-100664619D01*
X124503996Y-100664619D02*
X124602092Y-100712238D01*
X124602092Y-100712238D02*
X124651139Y-100759857D01*
X124651139Y-100759857D02*
X124700187Y-100855095D01*
X124700187Y-100855095D02*
X124749234Y-101045571D01*
X124749234Y-101045571D02*
X124749234Y-101283666D01*
X124749234Y-101283666D02*
X124700187Y-101474142D01*
X124700187Y-101474142D02*
X124651139Y-101569380D01*
X124651139Y-101569380D02*
X124602092Y-101617000D01*
X124602092Y-101617000D02*
X124503996Y-101664619D01*
X124503996Y-101664619D02*
X124405901Y-101664619D01*
X124405901Y-101664619D02*
X124307806Y-101617000D01*
X124307806Y-101617000D02*
X124258758Y-101569380D01*
X124258758Y-101569380D02*
X124209711Y-101474142D01*
X124209711Y-101474142D02*
X124160663Y-101283666D01*
X124160663Y-101283666D02*
X124160663Y-101045571D01*
X124160663Y-101045571D02*
X124209711Y-100855095D01*
X124209711Y-100855095D02*
X124258758Y-100759857D01*
X124258758Y-100759857D02*
X124307806Y-100712238D01*
X124307806Y-100712238D02*
X124405901Y-100664619D01*
X126711139Y-100759857D02*
X126760187Y-100712238D01*
X126760187Y-100712238D02*
X126858282Y-100664619D01*
X126858282Y-100664619D02*
X127103520Y-100664619D01*
X127103520Y-100664619D02*
X127201615Y-100712238D01*
X127201615Y-100712238D02*
X127250663Y-100759857D01*
X127250663Y-100759857D02*
X127299710Y-100855095D01*
X127299710Y-100855095D02*
X127299710Y-100950333D01*
X127299710Y-100950333D02*
X127250663Y-101093190D01*
X127250663Y-101093190D02*
X126662091Y-101664619D01*
X126662091Y-101664619D02*
X127299710Y-101664619D01*
X129752091Y-100997952D02*
X129752091Y-101664619D01*
X129506853Y-100617000D02*
X129261615Y-101331285D01*
X129261615Y-101331285D02*
X129899234Y-101331285D01*
X132302567Y-100664619D02*
X132106377Y-100664619D01*
X132106377Y-100664619D02*
X132008281Y-100712238D01*
X132008281Y-100712238D02*
X131959234Y-100759857D01*
X131959234Y-100759857D02*
X131861139Y-100902714D01*
X131861139Y-100902714D02*
X131812091Y-101093190D01*
X131812091Y-101093190D02*
X131812091Y-101474142D01*
X131812091Y-101474142D02*
X131861139Y-101569380D01*
X131861139Y-101569380D02*
X131910186Y-101617000D01*
X131910186Y-101617000D02*
X132008281Y-101664619D01*
X132008281Y-101664619D02*
X132204472Y-101664619D01*
X132204472Y-101664619D02*
X132302567Y-101617000D01*
X132302567Y-101617000D02*
X132351615Y-101569380D01*
X132351615Y-101569380D02*
X132400662Y-101474142D01*
X132400662Y-101474142D02*
X132400662Y-101236047D01*
X132400662Y-101236047D02*
X132351615Y-101140809D01*
X132351615Y-101140809D02*
X132302567Y-101093190D01*
X132302567Y-101093190D02*
X132204472Y-101045571D01*
X132204472Y-101045571D02*
X132008281Y-101045571D01*
X132008281Y-101045571D02*
X131910186Y-101093190D01*
X131910186Y-101093190D02*
X131861139Y-101140809D01*
X131861139Y-101140809D02*
X131812091Y-101236047D01*
X134558757Y-101093190D02*
X134460662Y-101045571D01*
X134460662Y-101045571D02*
X134411615Y-100997952D01*
X134411615Y-100997952D02*
X134362567Y-100902714D01*
X134362567Y-100902714D02*
X134362567Y-100855095D01*
X134362567Y-100855095D02*
X134411615Y-100759857D01*
X134411615Y-100759857D02*
X134460662Y-100712238D01*
X134460662Y-100712238D02*
X134558757Y-100664619D01*
X134558757Y-100664619D02*
X134754948Y-100664619D01*
X134754948Y-100664619D02*
X134853043Y-100712238D01*
X134853043Y-100712238D02*
X134902091Y-100759857D01*
X134902091Y-100759857D02*
X134951138Y-100855095D01*
X134951138Y-100855095D02*
X134951138Y-100902714D01*
X134951138Y-100902714D02*
X134902091Y-100997952D01*
X134902091Y-100997952D02*
X134853043Y-101045571D01*
X134853043Y-101045571D02*
X134754948Y-101093190D01*
X134754948Y-101093190D02*
X134558757Y-101093190D01*
X134558757Y-101093190D02*
X134460662Y-101140809D01*
X134460662Y-101140809D02*
X134411615Y-101188428D01*
X134411615Y-101188428D02*
X134362567Y-101283666D01*
X134362567Y-101283666D02*
X134362567Y-101474142D01*
X134362567Y-101474142D02*
X134411615Y-101569380D01*
X134411615Y-101569380D02*
X134460662Y-101617000D01*
X134460662Y-101617000D02*
X134558757Y-101664619D01*
X134558757Y-101664619D02*
X134754948Y-101664619D01*
X134754948Y-101664619D02*
X134853043Y-101617000D01*
X134853043Y-101617000D02*
X134902091Y-101569380D01*
X134902091Y-101569380D02*
X134951138Y-101474142D01*
X134951138Y-101474142D02*
X134951138Y-101283666D01*
X134951138Y-101283666D02*
X134902091Y-101188428D01*
X134902091Y-101188428D02*
X134853043Y-101140809D01*
X134853043Y-101140809D02*
X134754948Y-101093190D01*
X136716852Y-101664619D02*
X136128281Y-101664619D01*
X136422567Y-101664619D02*
X136422567Y-100664619D01*
X136422567Y-100664619D02*
X136324471Y-100807476D01*
X136324471Y-100807476D02*
X136226376Y-100902714D01*
X136226376Y-100902714D02*
X136128281Y-100950333D01*
X137354471Y-100664619D02*
X137452566Y-100664619D01*
X137452566Y-100664619D02*
X137550662Y-100712238D01*
X137550662Y-100712238D02*
X137599709Y-100759857D01*
X137599709Y-100759857D02*
X137648757Y-100855095D01*
X137648757Y-100855095D02*
X137697804Y-101045571D01*
X137697804Y-101045571D02*
X137697804Y-101283666D01*
X137697804Y-101283666D02*
X137648757Y-101474142D01*
X137648757Y-101474142D02*
X137599709Y-101569380D01*
X137599709Y-101569380D02*
X137550662Y-101617000D01*
X137550662Y-101617000D02*
X137452566Y-101664619D01*
X137452566Y-101664619D02*
X137354471Y-101664619D01*
X137354471Y-101664619D02*
X137256376Y-101617000D01*
X137256376Y-101617000D02*
X137207328Y-101569380D01*
X137207328Y-101569380D02*
X137158281Y-101474142D01*
X137158281Y-101474142D02*
X137109233Y-101283666D01*
X137109233Y-101283666D02*
X137109233Y-101045571D01*
X137109233Y-101045571D02*
X137158281Y-100855095D01*
X137158281Y-100855095D02*
X137207328Y-100759857D01*
X137207328Y-100759857D02*
X137256376Y-100712238D01*
X137256376Y-100712238D02*
X137354471Y-100664619D01*
X139463518Y-101664619D02*
X138874947Y-101664619D01*
X139169233Y-101664619D02*
X139169233Y-100664619D01*
X139169233Y-100664619D02*
X139071137Y-100807476D01*
X139071137Y-100807476D02*
X138973042Y-100902714D01*
X138973042Y-100902714D02*
X138874947Y-100950333D01*
X139855899Y-100759857D02*
X139904947Y-100712238D01*
X139904947Y-100712238D02*
X140003042Y-100664619D01*
X140003042Y-100664619D02*
X140248280Y-100664619D01*
X140248280Y-100664619D02*
X140346375Y-100712238D01*
X140346375Y-100712238D02*
X140395423Y-100759857D01*
X140395423Y-100759857D02*
X140444470Y-100855095D01*
X140444470Y-100855095D02*
X140444470Y-100950333D01*
X140444470Y-100950333D02*
X140395423Y-101093190D01*
X140395423Y-101093190D02*
X139806851Y-101664619D01*
X139806851Y-101664619D02*
X140444470Y-101664619D01*
X142210184Y-101664619D02*
X141621613Y-101664619D01*
X141915899Y-101664619D02*
X141915899Y-100664619D01*
X141915899Y-100664619D02*
X141817803Y-100807476D01*
X141817803Y-100807476D02*
X141719708Y-100902714D01*
X141719708Y-100902714D02*
X141621613Y-100950333D01*
X143093041Y-100997952D02*
X143093041Y-101664619D01*
X142847803Y-100617000D02*
X142602565Y-101331285D01*
X142602565Y-101331285D02*
X143240184Y-101331285D01*
D10*
X148800000Y-89700000D02*
X148800000Y-104600000D01*
X159200000Y-44200000D02*
X159200000Y-47340000D01*
X143600000Y-104700000D02*
X143600000Y-89700000D01*
X121000000Y-90510000D02*
X121000000Y-104200000D01*
X123400000Y-104200000D02*
X123400000Y-90500000D01*
X151500000Y-44300000D02*
X151500000Y-45800000D01*
X154200000Y-44300000D02*
X154200000Y-45800000D01*
X147122819Y-101575312D02*
X147075200Y-101527693D01*
X147075200Y-101527693D02*
X147027580Y-101384836D01*
X147027580Y-101384836D02*
X147027580Y-101289598D01*
X147027580Y-101289598D02*
X147075200Y-101146741D01*
X147075200Y-101146741D02*
X147170438Y-101051503D01*
X147170438Y-101051503D02*
X147265676Y-101003884D01*
X147265676Y-101003884D02*
X147456152Y-100956265D01*
X147456152Y-100956265D02*
X147599009Y-100956265D01*
X147599009Y-100956265D02*
X147789485Y-101003884D01*
X147789485Y-101003884D02*
X147884723Y-101051503D01*
X147884723Y-101051503D02*
X147979961Y-101146741D01*
X147979961Y-101146741D02*
X148027580Y-101289598D01*
X148027580Y-101289598D02*
X148027580Y-101384836D01*
X148027580Y-101384836D02*
X147979961Y-101527693D01*
X147979961Y-101527693D02*
X147932342Y-101575312D01*
X147027580Y-102480074D02*
X147027580Y-102003884D01*
X147027580Y-102003884D02*
X148027580Y-102003884D01*
X147027580Y-102813408D02*
X148027580Y-102813408D01*
X147027580Y-103384836D02*
X147599009Y-102956265D01*
X148027580Y-103384836D02*
X147456152Y-102813408D01*
D14*
X153800000Y-102729676D02*
X153609524Y-102634438D01*
X153609524Y-102634438D02*
X153323810Y-102634438D01*
X153323810Y-102634438D02*
X153038095Y-102729676D01*
X153038095Y-102729676D02*
X152847619Y-102920152D01*
X152847619Y-102920152D02*
X152752381Y-103110628D01*
X152752381Y-103110628D02*
X152657143Y-103491580D01*
X152657143Y-103491580D02*
X152657143Y-103777295D01*
X152657143Y-103777295D02*
X152752381Y-104158247D01*
X152752381Y-104158247D02*
X152847619Y-104348723D01*
X152847619Y-104348723D02*
X153038095Y-104539200D01*
X153038095Y-104539200D02*
X153323810Y-104634438D01*
X153323810Y-104634438D02*
X153514286Y-104634438D01*
X153514286Y-104634438D02*
X153800000Y-104539200D01*
X153800000Y-104539200D02*
X153895238Y-104443961D01*
X153895238Y-104443961D02*
X153895238Y-103777295D01*
X153895238Y-103777295D02*
X153514286Y-103777295D01*
X154752381Y-104634438D02*
X154752381Y-102634438D01*
X154752381Y-102634438D02*
X155514286Y-102634438D01*
X155514286Y-102634438D02*
X155704762Y-102729676D01*
X155704762Y-102729676D02*
X155800000Y-102824914D01*
X155800000Y-102824914D02*
X155895238Y-103015390D01*
X155895238Y-103015390D02*
X155895238Y-103301104D01*
X155895238Y-103301104D02*
X155800000Y-103491580D01*
X155800000Y-103491580D02*
X155704762Y-103586819D01*
X155704762Y-103586819D02*
X155514286Y-103682057D01*
X155514286Y-103682057D02*
X154752381Y-103682057D01*
X156752381Y-104634438D02*
X156752381Y-102634438D01*
X158085714Y-102634438D02*
X158466667Y-102634438D01*
X158466667Y-102634438D02*
X158657143Y-102729676D01*
X158657143Y-102729676D02*
X158847619Y-102920152D01*
X158847619Y-102920152D02*
X158942857Y-103301104D01*
X158942857Y-103301104D02*
X158942857Y-103967771D01*
X158942857Y-103967771D02*
X158847619Y-104348723D01*
X158847619Y-104348723D02*
X158657143Y-104539200D01*
X158657143Y-104539200D02*
X158466667Y-104634438D01*
X158466667Y-104634438D02*
X158085714Y-104634438D01*
X158085714Y-104634438D02*
X157895238Y-104539200D01*
X157895238Y-104539200D02*
X157704762Y-104348723D01*
X157704762Y-104348723D02*
X157609524Y-103967771D01*
X157609524Y-103967771D02*
X157609524Y-103301104D01*
X157609524Y-103301104D02*
X157704762Y-102920152D01*
X157704762Y-102920152D02*
X157895238Y-102729676D01*
X157895238Y-102729676D02*
X158085714Y-102634438D01*
D15*
X172888720Y-48334600D02*
X174031578Y-48334600D01*
X173460149Y-48906028D02*
X173460149Y-47763171D01*
X175888720Y-48334600D02*
X177031578Y-48334600D01*
D10*
X145479961Y-101327693D02*
X145527580Y-101232455D01*
X145527580Y-101232455D02*
X145527580Y-101089598D01*
X145527580Y-101089598D02*
X145479961Y-100946741D01*
X145479961Y-100946741D02*
X145384723Y-100851503D01*
X145384723Y-100851503D02*
X145289485Y-100803884D01*
X145289485Y-100803884D02*
X145099009Y-100756265D01*
X145099009Y-100756265D02*
X144956152Y-100756265D01*
X144956152Y-100756265D02*
X144765676Y-100803884D01*
X144765676Y-100803884D02*
X144670438Y-100851503D01*
X144670438Y-100851503D02*
X144575200Y-100946741D01*
X144575200Y-100946741D02*
X144527580Y-101089598D01*
X144527580Y-101089598D02*
X144527580Y-101184836D01*
X144527580Y-101184836D02*
X144575200Y-101327693D01*
X144575200Y-101327693D02*
X144622819Y-101375312D01*
X144622819Y-101375312D02*
X144956152Y-101375312D01*
X144956152Y-101375312D02*
X144956152Y-101184836D01*
X144527580Y-101803884D02*
X145527580Y-101803884D01*
X145527580Y-101803884D02*
X144527580Y-102375312D01*
X144527580Y-102375312D02*
X145527580Y-102375312D01*
X144527580Y-102851503D02*
X145527580Y-102851503D01*
X145527580Y-102851503D02*
X145527580Y-103089598D01*
X145527580Y-103089598D02*
X145479961Y-103232455D01*
X145479961Y-103232455D02*
X145384723Y-103327693D01*
X145384723Y-103327693D02*
X145289485Y-103375312D01*
X145289485Y-103375312D02*
X145099009Y-103422931D01*
X145099009Y-103422931D02*
X144956152Y-103422931D01*
X144956152Y-103422931D02*
X144765676Y-103375312D01*
X144765676Y-103375312D02*
X144670438Y-103327693D01*
X144670438Y-103327693D02*
X144575200Y-103232455D01*
X144575200Y-103232455D02*
X144527580Y-103089598D01*
X144527580Y-103089598D02*
X144527580Y-102851503D01*
D15*
X166645863Y-111567219D02*
X166169673Y-111567219D01*
X166169673Y-111567219D02*
X166122054Y-112043409D01*
X166122054Y-112043409D02*
X166169673Y-111995790D01*
X166169673Y-111995790D02*
X166264911Y-111948171D01*
X166264911Y-111948171D02*
X166503006Y-111948171D01*
X166503006Y-111948171D02*
X166598244Y-111995790D01*
X166598244Y-111995790D02*
X166645863Y-112043409D01*
X166645863Y-112043409D02*
X166693482Y-112138647D01*
X166693482Y-112138647D02*
X166693482Y-112376742D01*
X166693482Y-112376742D02*
X166645863Y-112471980D01*
X166645863Y-112471980D02*
X166598244Y-112519600D01*
X166598244Y-112519600D02*
X166503006Y-112567219D01*
X166503006Y-112567219D02*
X166264911Y-112567219D01*
X166264911Y-112567219D02*
X166169673Y-112519600D01*
X166169673Y-112519600D02*
X166122054Y-112471980D01*
X166979197Y-111567219D02*
X167312530Y-112567219D01*
X167312530Y-112567219D02*
X167645863Y-111567219D01*
D10*
X146727580Y-93075312D02*
X147203771Y-92741979D01*
X146727580Y-92503884D02*
X147727580Y-92503884D01*
X147727580Y-92503884D02*
X147727580Y-92884836D01*
X147727580Y-92884836D02*
X147679961Y-92980074D01*
X147679961Y-92980074D02*
X147632342Y-93027693D01*
X147632342Y-93027693D02*
X147537104Y-93075312D01*
X147537104Y-93075312D02*
X147394247Y-93075312D01*
X147394247Y-93075312D02*
X147299009Y-93027693D01*
X147299009Y-93027693D02*
X147251390Y-92980074D01*
X147251390Y-92980074D02*
X147203771Y-92884836D01*
X147203771Y-92884836D02*
X147203771Y-92503884D01*
X147727580Y-93408646D02*
X146727580Y-93646741D01*
X146727580Y-93646741D02*
X147441866Y-93837217D01*
X147441866Y-93837217D02*
X146727580Y-94027693D01*
X146727580Y-94027693D02*
X147727580Y-94265789D01*
D14*
X141339347Y-48234438D02*
X141339347Y-46234438D01*
X141339347Y-46234438D02*
X141815537Y-46234438D01*
X141815537Y-46234438D02*
X142101252Y-46329676D01*
X142101252Y-46329676D02*
X142291728Y-46520152D01*
X142291728Y-46520152D02*
X142386966Y-46710628D01*
X142386966Y-46710628D02*
X142482204Y-47091580D01*
X142482204Y-47091580D02*
X142482204Y-47377295D01*
X142482204Y-47377295D02*
X142386966Y-47758247D01*
X142386966Y-47758247D02*
X142291728Y-47948723D01*
X142291728Y-47948723D02*
X142101252Y-48139200D01*
X142101252Y-48139200D02*
X141815537Y-48234438D01*
X141815537Y-48234438D02*
X141339347Y-48234438D01*
X145529824Y-47186819D02*
X145815538Y-47282057D01*
X145815538Y-47282057D02*
X145910776Y-47377295D01*
X145910776Y-47377295D02*
X146006014Y-47567771D01*
X146006014Y-47567771D02*
X146006014Y-47853485D01*
X146006014Y-47853485D02*
X145910776Y-48043961D01*
X145910776Y-48043961D02*
X145815538Y-48139200D01*
X145815538Y-48139200D02*
X145625062Y-48234438D01*
X145625062Y-48234438D02*
X144863157Y-48234438D01*
X144863157Y-48234438D02*
X144863157Y-46234438D01*
X144863157Y-46234438D02*
X145529824Y-46234438D01*
X145529824Y-46234438D02*
X145720300Y-46329676D01*
X145720300Y-46329676D02*
X145815538Y-46424914D01*
X145815538Y-46424914D02*
X145910776Y-46615390D01*
X145910776Y-46615390D02*
X145910776Y-46805866D01*
X145910776Y-46805866D02*
X145815538Y-46996342D01*
X145815538Y-46996342D02*
X145720300Y-47091580D01*
X145720300Y-47091580D02*
X145529824Y-47186819D01*
X145529824Y-47186819D02*
X144863157Y-47186819D01*
X146863157Y-46234438D02*
X146863157Y-47853485D01*
X146863157Y-47853485D02*
X146958395Y-48043961D01*
X146958395Y-48043961D02*
X147053633Y-48139200D01*
X147053633Y-48139200D02*
X147244109Y-48234438D01*
X147244109Y-48234438D02*
X147625062Y-48234438D01*
X147625062Y-48234438D02*
X147815538Y-48139200D01*
X147815538Y-48139200D02*
X147910776Y-48043961D01*
X147910776Y-48043961D02*
X148006014Y-47853485D01*
X148006014Y-47853485D02*
X148006014Y-46234438D01*
X148863157Y-48139200D02*
X149148871Y-48234438D01*
X149148871Y-48234438D02*
X149625062Y-48234438D01*
X149625062Y-48234438D02*
X149815538Y-48139200D01*
X149815538Y-48139200D02*
X149910776Y-48043961D01*
X149910776Y-48043961D02*
X150006014Y-47853485D01*
X150006014Y-47853485D02*
X150006014Y-47663009D01*
X150006014Y-47663009D02*
X149910776Y-47472533D01*
X149910776Y-47472533D02*
X149815538Y-47377295D01*
X149815538Y-47377295D02*
X149625062Y-47282057D01*
X149625062Y-47282057D02*
X149244109Y-47186819D01*
X149244109Y-47186819D02*
X149053633Y-47091580D01*
X149053633Y-47091580D02*
X148958395Y-46996342D01*
X148958395Y-46996342D02*
X148863157Y-46805866D01*
X148863157Y-46805866D02*
X148863157Y-46615390D01*
X148863157Y-46615390D02*
X148958395Y-46424914D01*
X148958395Y-46424914D02*
X149053633Y-46329676D01*
X149053633Y-46329676D02*
X149244109Y-46234438D01*
X149244109Y-46234438D02*
X149720300Y-46234438D01*
X149720300Y-46234438D02*
X150006014Y-46329676D01*
D15*
X170911279Y-70365400D02*
X169768422Y-70365400D01*
X170339850Y-69793971D02*
X170339850Y-70936828D01*
X167911279Y-70365400D02*
X166768422Y-70365400D01*
D14*
X131944109Y-86363009D02*
X132896490Y-86363009D01*
X131753633Y-86934438D02*
X132420299Y-84934438D01*
X132420299Y-84934438D02*
X133086966Y-86934438D01*
X133753633Y-86934438D02*
X133753633Y-84934438D01*
X133753633Y-84934438D02*
X134229823Y-84934438D01*
X134229823Y-84934438D02*
X134515538Y-85029676D01*
X134515538Y-85029676D02*
X134706014Y-85220152D01*
X134706014Y-85220152D02*
X134801252Y-85410628D01*
X134801252Y-85410628D02*
X134896490Y-85791580D01*
X134896490Y-85791580D02*
X134896490Y-86077295D01*
X134896490Y-86077295D02*
X134801252Y-86458247D01*
X134801252Y-86458247D02*
X134706014Y-86648723D01*
X134706014Y-86648723D02*
X134515538Y-86839200D01*
X134515538Y-86839200D02*
X134229823Y-86934438D01*
X134229823Y-86934438D02*
X133753633Y-86934438D01*
X136896490Y-86934438D02*
X136229823Y-85982057D01*
X135753633Y-86934438D02*
X135753633Y-84934438D01*
X135753633Y-84934438D02*
X136515538Y-84934438D01*
X136515538Y-84934438D02*
X136706014Y-85029676D01*
X136706014Y-85029676D02*
X136801252Y-85124914D01*
X136801252Y-85124914D02*
X136896490Y-85315390D01*
X136896490Y-85315390D02*
X136896490Y-85601104D01*
X136896490Y-85601104D02*
X136801252Y-85791580D01*
X136801252Y-85791580D02*
X136706014Y-85886819D01*
X136706014Y-85886819D02*
X136515538Y-85982057D01*
X136515538Y-85982057D02*
X135753633Y-85982057D01*
X116044109Y-50563009D02*
X116996490Y-50563009D01*
X115853633Y-51134438D02*
X116520299Y-49134438D01*
X116520299Y-49134438D02*
X117186966Y-51134438D01*
X117853633Y-51134438D02*
X117853633Y-49134438D01*
X117853633Y-49134438D02*
X118329823Y-49134438D01*
X118329823Y-49134438D02*
X118615538Y-49229676D01*
X118615538Y-49229676D02*
X118806014Y-49420152D01*
X118806014Y-49420152D02*
X118901252Y-49610628D01*
X118901252Y-49610628D02*
X118996490Y-49991580D01*
X118996490Y-49991580D02*
X118996490Y-50277295D01*
X118996490Y-50277295D02*
X118901252Y-50658247D01*
X118901252Y-50658247D02*
X118806014Y-50848723D01*
X118806014Y-50848723D02*
X118615538Y-51039200D01*
X118615538Y-51039200D02*
X118329823Y-51134438D01*
X118329823Y-51134438D02*
X117853633Y-51134438D01*
X119853633Y-51134438D02*
X119853633Y-49134438D01*
X119853633Y-49134438D02*
X120329823Y-49134438D01*
X120329823Y-49134438D02*
X120615538Y-49229676D01*
X120615538Y-49229676D02*
X120806014Y-49420152D01*
X120806014Y-49420152D02*
X120901252Y-49610628D01*
X120901252Y-49610628D02*
X120996490Y-49991580D01*
X120996490Y-49991580D02*
X120996490Y-50277295D01*
X120996490Y-50277295D02*
X120901252Y-50658247D01*
X120901252Y-50658247D02*
X120806014Y-50848723D01*
X120806014Y-50848723D02*
X120615538Y-51039200D01*
X120615538Y-51039200D02*
X120329823Y-51134438D01*
X120329823Y-51134438D02*
X119853633Y-51134438D01*
X122996490Y-51134438D02*
X122329823Y-50182057D01*
X121853633Y-51134438D02*
X121853633Y-49134438D01*
X121853633Y-49134438D02*
X122615538Y-49134438D01*
X122615538Y-49134438D02*
X122806014Y-49229676D01*
X122806014Y-49229676D02*
X122901252Y-49324914D01*
X122901252Y-49324914D02*
X122996490Y-49515390D01*
X122996490Y-49515390D02*
X122996490Y-49801104D01*
X122996490Y-49801104D02*
X122901252Y-49991580D01*
X122901252Y-49991580D02*
X122806014Y-50086819D01*
X122806014Y-50086819D02*
X122615538Y-50182057D01*
X122615538Y-50182057D02*
X121853633Y-50182057D01*
X123853633Y-50086819D02*
X124520300Y-50086819D01*
X124806014Y-51134438D02*
X123853633Y-51134438D01*
X123853633Y-51134438D02*
X123853633Y-49134438D01*
X123853633Y-49134438D02*
X124806014Y-49134438D01*
X125567919Y-51039200D02*
X125853633Y-51134438D01*
X125853633Y-51134438D02*
X126329824Y-51134438D01*
X126329824Y-51134438D02*
X126520300Y-51039200D01*
X126520300Y-51039200D02*
X126615538Y-50943961D01*
X126615538Y-50943961D02*
X126710776Y-50753485D01*
X126710776Y-50753485D02*
X126710776Y-50563009D01*
X126710776Y-50563009D02*
X126615538Y-50372533D01*
X126615538Y-50372533D02*
X126520300Y-50277295D01*
X126520300Y-50277295D02*
X126329824Y-50182057D01*
X126329824Y-50182057D02*
X125948871Y-50086819D01*
X125948871Y-50086819D02*
X125758395Y-49991580D01*
X125758395Y-49991580D02*
X125663157Y-49896342D01*
X125663157Y-49896342D02*
X125567919Y-49705866D01*
X125567919Y-49705866D02*
X125567919Y-49515390D01*
X125567919Y-49515390D02*
X125663157Y-49324914D01*
X125663157Y-49324914D02*
X125758395Y-49229676D01*
X125758395Y-49229676D02*
X125948871Y-49134438D01*
X125948871Y-49134438D02*
X126425062Y-49134438D01*
X126425062Y-49134438D02*
X126710776Y-49229676D01*
X127472681Y-51039200D02*
X127758395Y-51134438D01*
X127758395Y-51134438D02*
X128234586Y-51134438D01*
X128234586Y-51134438D02*
X128425062Y-51039200D01*
X128425062Y-51039200D02*
X128520300Y-50943961D01*
X128520300Y-50943961D02*
X128615538Y-50753485D01*
X128615538Y-50753485D02*
X128615538Y-50563009D01*
X128615538Y-50563009D02*
X128520300Y-50372533D01*
X128520300Y-50372533D02*
X128425062Y-50277295D01*
X128425062Y-50277295D02*
X128234586Y-50182057D01*
X128234586Y-50182057D02*
X127853633Y-50086819D01*
X127853633Y-50086819D02*
X127663157Y-49991580D01*
X127663157Y-49991580D02*
X127567919Y-49896342D01*
X127567919Y-49896342D02*
X127472681Y-49705866D01*
X127472681Y-49705866D02*
X127472681Y-49515390D01*
X127472681Y-49515390D02*
X127567919Y-49324914D01*
X127567919Y-49324914D02*
X127663157Y-49229676D01*
X127663157Y-49229676D02*
X127853633Y-49134438D01*
X127853633Y-49134438D02*
X128329824Y-49134438D01*
X128329824Y-49134438D02*
X128615538Y-49229676D01*
D10*
X158327580Y-48075312D02*
X158803771Y-47741979D01*
X158327580Y-47503884D02*
X159327580Y-47503884D01*
X159327580Y-47503884D02*
X159327580Y-47884836D01*
X159327580Y-47884836D02*
X159279961Y-47980074D01*
X159279961Y-47980074D02*
X159232342Y-48027693D01*
X159232342Y-48027693D02*
X159137104Y-48075312D01*
X159137104Y-48075312D02*
X158994247Y-48075312D01*
X158994247Y-48075312D02*
X158899009Y-48027693D01*
X158899009Y-48027693D02*
X158851390Y-47980074D01*
X158851390Y-47980074D02*
X158803771Y-47884836D01*
X158803771Y-47884836D02*
X158803771Y-47503884D01*
X159327580Y-48408646D02*
X158327580Y-48646741D01*
X158327580Y-48646741D02*
X159041866Y-48837217D01*
X159041866Y-48837217D02*
X158327580Y-49027693D01*
X158327580Y-49027693D02*
X159327580Y-49265789D01*
X122208533Y-90303884D02*
X122208533Y-91065789D01*
X121827580Y-90684836D02*
X122589485Y-90684836D01*
X122827580Y-91446741D02*
X122827580Y-92065788D01*
X122827580Y-92065788D02*
X122446628Y-91732455D01*
X122446628Y-91732455D02*
X122446628Y-91875312D01*
X122446628Y-91875312D02*
X122399009Y-91970550D01*
X122399009Y-91970550D02*
X122351390Y-92018169D01*
X122351390Y-92018169D02*
X122256152Y-92065788D01*
X122256152Y-92065788D02*
X122018057Y-92065788D01*
X122018057Y-92065788D02*
X121922819Y-92018169D01*
X121922819Y-92018169D02*
X121875200Y-91970550D01*
X121875200Y-91970550D02*
X121827580Y-91875312D01*
X121827580Y-91875312D02*
X121827580Y-91589598D01*
X121827580Y-91589598D02*
X121875200Y-91494360D01*
X121875200Y-91494360D02*
X121922819Y-91446741D01*
X122827580Y-92351503D02*
X121827580Y-92684836D01*
X121827580Y-92684836D02*
X122827580Y-93018169D01*
X122827580Y-93256265D02*
X122827580Y-93875312D01*
X122827580Y-93875312D02*
X122446628Y-93541979D01*
X122446628Y-93541979D02*
X122446628Y-93684836D01*
X122446628Y-93684836D02*
X122399009Y-93780074D01*
X122399009Y-93780074D02*
X122351390Y-93827693D01*
X122351390Y-93827693D02*
X122256152Y-93875312D01*
X122256152Y-93875312D02*
X122018057Y-93875312D01*
X122018057Y-93875312D02*
X121922819Y-93827693D01*
X121922819Y-93827693D02*
X121875200Y-93780074D01*
X121875200Y-93780074D02*
X121827580Y-93684836D01*
X121827580Y-93684836D02*
X121827580Y-93399122D01*
X121827580Y-93399122D02*
X121875200Y-93303884D01*
X121875200Y-93303884D02*
X121922819Y-93256265D01*
D15*
X105234600Y-42611279D02*
X105234600Y-41468422D01*
X105806028Y-42039850D02*
X104663171Y-42039850D01*
X105234600Y-39611279D02*
X105234600Y-38468422D01*
D10*
X122479961Y-101627693D02*
X122527580Y-101532455D01*
X122527580Y-101532455D02*
X122527580Y-101389598D01*
X122527580Y-101389598D02*
X122479961Y-101246741D01*
X122479961Y-101246741D02*
X122384723Y-101151503D01*
X122384723Y-101151503D02*
X122289485Y-101103884D01*
X122289485Y-101103884D02*
X122099009Y-101056265D01*
X122099009Y-101056265D02*
X121956152Y-101056265D01*
X121956152Y-101056265D02*
X121765676Y-101103884D01*
X121765676Y-101103884D02*
X121670438Y-101151503D01*
X121670438Y-101151503D02*
X121575200Y-101246741D01*
X121575200Y-101246741D02*
X121527580Y-101389598D01*
X121527580Y-101389598D02*
X121527580Y-101484836D01*
X121527580Y-101484836D02*
X121575200Y-101627693D01*
X121575200Y-101627693D02*
X121622819Y-101675312D01*
X121622819Y-101675312D02*
X121956152Y-101675312D01*
X121956152Y-101675312D02*
X121956152Y-101484836D01*
X121527580Y-102103884D02*
X122527580Y-102103884D01*
X122527580Y-102103884D02*
X121527580Y-102675312D01*
X121527580Y-102675312D02*
X122527580Y-102675312D01*
X121527580Y-103151503D02*
X122527580Y-103151503D01*
X122527580Y-103151503D02*
X122527580Y-103389598D01*
X122527580Y-103389598D02*
X122479961Y-103532455D01*
X122479961Y-103532455D02*
X122384723Y-103627693D01*
X122384723Y-103627693D02*
X122289485Y-103675312D01*
X122289485Y-103675312D02*
X122099009Y-103722931D01*
X122099009Y-103722931D02*
X121956152Y-103722931D01*
X121956152Y-103722931D02*
X121765676Y-103675312D01*
X121765676Y-103675312D02*
X121670438Y-103627693D01*
X121670438Y-103627693D02*
X121575200Y-103532455D01*
X121575200Y-103532455D02*
X121527580Y-103389598D01*
X121527580Y-103389598D02*
X121527580Y-103151503D01*
X153403884Y-46872419D02*
X153403884Y-46205752D01*
X153403884Y-46396228D02*
X153451503Y-46300990D01*
X153451503Y-46300990D02*
X153499122Y-46253371D01*
X153499122Y-46253371D02*
X153594360Y-46205752D01*
X153594360Y-46205752D02*
X153689598Y-46205752D01*
X153975313Y-46824800D02*
X154070551Y-46872419D01*
X154070551Y-46872419D02*
X154261027Y-46872419D01*
X154261027Y-46872419D02*
X154356265Y-46824800D01*
X154356265Y-46824800D02*
X154403884Y-46729561D01*
X154403884Y-46729561D02*
X154403884Y-46681942D01*
X154403884Y-46681942D02*
X154356265Y-46586704D01*
X154356265Y-46586704D02*
X154261027Y-46539085D01*
X154261027Y-46539085D02*
X154118170Y-46539085D01*
X154118170Y-46539085D02*
X154022932Y-46491466D01*
X154022932Y-46491466D02*
X153975313Y-46396228D01*
X153975313Y-46396228D02*
X153975313Y-46348609D01*
X153975313Y-46348609D02*
X154022932Y-46253371D01*
X154022932Y-46253371D02*
X154118170Y-46205752D01*
X154118170Y-46205752D02*
X154261027Y-46205752D01*
X154261027Y-46205752D02*
X154356265Y-46253371D01*
X154689599Y-46205752D02*
X155070551Y-46205752D01*
X154832456Y-45872419D02*
X154832456Y-46729561D01*
X154832456Y-46729561D02*
X154880075Y-46824800D01*
X154880075Y-46824800D02*
X154975313Y-46872419D01*
X154975313Y-46872419D02*
X155070551Y-46872419D01*
X144908533Y-91303884D02*
X144908533Y-92065789D01*
X144527580Y-91684836D02*
X145289485Y-91684836D01*
X145527580Y-93018169D02*
X145527580Y-92541979D01*
X145527580Y-92541979D02*
X145051390Y-92494360D01*
X145051390Y-92494360D02*
X145099009Y-92541979D01*
X145099009Y-92541979D02*
X145146628Y-92637217D01*
X145146628Y-92637217D02*
X145146628Y-92875312D01*
X145146628Y-92875312D02*
X145099009Y-92970550D01*
X145099009Y-92970550D02*
X145051390Y-93018169D01*
X145051390Y-93018169D02*
X144956152Y-93065788D01*
X144956152Y-93065788D02*
X144718057Y-93065788D01*
X144718057Y-93065788D02*
X144622819Y-93018169D01*
X144622819Y-93018169D02*
X144575200Y-92970550D01*
X144575200Y-92970550D02*
X144527580Y-92875312D01*
X144527580Y-92875312D02*
X144527580Y-92637217D01*
X144527580Y-92637217D02*
X144575200Y-92541979D01*
X144575200Y-92541979D02*
X144622819Y-92494360D01*
X145527580Y-93351503D02*
X144527580Y-93684836D01*
X144527580Y-93684836D02*
X145527580Y-94018169D01*
D15*
X154074435Y-111567219D02*
X154693482Y-111567219D01*
X154693482Y-111567219D02*
X154360149Y-111948171D01*
X154360149Y-111948171D02*
X154503006Y-111948171D01*
X154503006Y-111948171D02*
X154598244Y-111995790D01*
X154598244Y-111995790D02*
X154645863Y-112043409D01*
X154645863Y-112043409D02*
X154693482Y-112138647D01*
X154693482Y-112138647D02*
X154693482Y-112376742D01*
X154693482Y-112376742D02*
X154645863Y-112471980D01*
X154645863Y-112471980D02*
X154598244Y-112519600D01*
X154598244Y-112519600D02*
X154503006Y-112567219D01*
X154503006Y-112567219D02*
X154217292Y-112567219D01*
X154217292Y-112567219D02*
X154122054Y-112519600D01*
X154122054Y-112519600D02*
X154074435Y-112471980D01*
X154979197Y-111567219D02*
X155312530Y-112567219D01*
X155312530Y-112567219D02*
X155645863Y-111567219D01*
X155883959Y-111567219D02*
X156503006Y-111567219D01*
X156503006Y-111567219D02*
X156169673Y-111948171D01*
X156169673Y-111948171D02*
X156312530Y-111948171D01*
X156312530Y-111948171D02*
X156407768Y-111995790D01*
X156407768Y-111995790D02*
X156455387Y-112043409D01*
X156455387Y-112043409D02*
X156503006Y-112138647D01*
X156503006Y-112138647D02*
X156503006Y-112376742D01*
X156503006Y-112376742D02*
X156455387Y-112471980D01*
X156455387Y-112471980D02*
X156407768Y-112519600D01*
X156407768Y-112519600D02*
X156312530Y-112567219D01*
X156312530Y-112567219D02*
X156026816Y-112567219D01*
X156026816Y-112567219D02*
X155931578Y-112519600D01*
X155931578Y-112519600D02*
X155883959Y-112471980D01*
D14*
X103539347Y-88434438D02*
X103539347Y-86434438D01*
X103539347Y-86434438D02*
X104015537Y-86434438D01*
X104015537Y-86434438D02*
X104301252Y-86529676D01*
X104301252Y-86529676D02*
X104491728Y-86720152D01*
X104491728Y-86720152D02*
X104586966Y-86910628D01*
X104586966Y-86910628D02*
X104682204Y-87291580D01*
X104682204Y-87291580D02*
X104682204Y-87577295D01*
X104682204Y-87577295D02*
X104586966Y-87958247D01*
X104586966Y-87958247D02*
X104491728Y-88148723D01*
X104491728Y-88148723D02*
X104301252Y-88339200D01*
X104301252Y-88339200D02*
X104015537Y-88434438D01*
X104015537Y-88434438D02*
X103539347Y-88434438D01*
X105444109Y-87863009D02*
X106396490Y-87863009D01*
X105253633Y-88434438D02*
X105920299Y-86434438D01*
X105920299Y-86434438D02*
X106586966Y-88434438D01*
X106967919Y-86434438D02*
X108110776Y-86434438D01*
X107539347Y-88434438D02*
X107539347Y-86434438D01*
X108682205Y-87863009D02*
X109634586Y-87863009D01*
X108491729Y-88434438D02*
X109158395Y-86434438D01*
X109158395Y-86434438D02*
X109825062Y-88434438D01*
D10*
X149127580Y-92375312D02*
X149603771Y-92041979D01*
X149127580Y-91803884D02*
X150127580Y-91803884D01*
X150127580Y-91803884D02*
X150127580Y-92184836D01*
X150127580Y-92184836D02*
X150079961Y-92280074D01*
X150079961Y-92280074D02*
X150032342Y-92327693D01*
X150032342Y-92327693D02*
X149937104Y-92375312D01*
X149937104Y-92375312D02*
X149794247Y-92375312D01*
X149794247Y-92375312D02*
X149699009Y-92327693D01*
X149699009Y-92327693D02*
X149651390Y-92280074D01*
X149651390Y-92280074D02*
X149603771Y-92184836D01*
X149603771Y-92184836D02*
X149603771Y-91803884D01*
X149175200Y-92756265D02*
X149127580Y-92899122D01*
X149127580Y-92899122D02*
X149127580Y-93137217D01*
X149127580Y-93137217D02*
X149175200Y-93232455D01*
X149175200Y-93232455D02*
X149222819Y-93280074D01*
X149222819Y-93280074D02*
X149318057Y-93327693D01*
X149318057Y-93327693D02*
X149413295Y-93327693D01*
X149413295Y-93327693D02*
X149508533Y-93280074D01*
X149508533Y-93280074D02*
X149556152Y-93232455D01*
X149556152Y-93232455D02*
X149603771Y-93137217D01*
X149603771Y-93137217D02*
X149651390Y-92946741D01*
X149651390Y-92946741D02*
X149699009Y-92851503D01*
X149699009Y-92851503D02*
X149746628Y-92803884D01*
X149746628Y-92803884D02*
X149841866Y-92756265D01*
X149841866Y-92756265D02*
X149937104Y-92756265D01*
X149937104Y-92756265D02*
X150032342Y-92803884D01*
X150032342Y-92803884D02*
X150079961Y-92851503D01*
X150079961Y-92851503D02*
X150127580Y-92946741D01*
X150127580Y-92946741D02*
X150127580Y-93184836D01*
X150127580Y-93184836D02*
X150079961Y-93327693D01*
X150127580Y-93613408D02*
X150127580Y-94184836D01*
X149127580Y-93899122D02*
X150127580Y-93899122D01*
X151032455Y-47324800D02*
X150937217Y-47372419D01*
X150937217Y-47372419D02*
X150746741Y-47372419D01*
X150746741Y-47372419D02*
X150651503Y-47324800D01*
X150651503Y-47324800D02*
X150603884Y-47277180D01*
X150603884Y-47277180D02*
X150556265Y-47181942D01*
X150556265Y-47181942D02*
X150556265Y-46896228D01*
X150556265Y-46896228D02*
X150603884Y-46800990D01*
X150603884Y-46800990D02*
X150651503Y-46753371D01*
X150651503Y-46753371D02*
X150746741Y-46705752D01*
X150746741Y-46705752D02*
X150937217Y-46705752D01*
X150937217Y-46705752D02*
X151032455Y-46753371D01*
X151603884Y-47372419D02*
X151508646Y-47324800D01*
X151508646Y-47324800D02*
X151461027Y-47229561D01*
X151461027Y-47229561D02*
X151461027Y-46372419D01*
X151984837Y-47372419D02*
X151984837Y-46372419D01*
X152080075Y-46991466D02*
X152365789Y-47372419D01*
X152365789Y-46705752D02*
X151984837Y-47086704D01*
D14*
X131044109Y-112539200D02*
X131329823Y-112634438D01*
X131329823Y-112634438D02*
X131806014Y-112634438D01*
X131806014Y-112634438D02*
X131996490Y-112539200D01*
X131996490Y-112539200D02*
X132091728Y-112443961D01*
X132091728Y-112443961D02*
X132186966Y-112253485D01*
X132186966Y-112253485D02*
X132186966Y-112063009D01*
X132186966Y-112063009D02*
X132091728Y-111872533D01*
X132091728Y-111872533D02*
X131996490Y-111777295D01*
X131996490Y-111777295D02*
X131806014Y-111682057D01*
X131806014Y-111682057D02*
X131425061Y-111586819D01*
X131425061Y-111586819D02*
X131234585Y-111491580D01*
X131234585Y-111491580D02*
X131139347Y-111396342D01*
X131139347Y-111396342D02*
X131044109Y-111205866D01*
X131044109Y-111205866D02*
X131044109Y-111015390D01*
X131044109Y-111015390D02*
X131139347Y-110824914D01*
X131139347Y-110824914D02*
X131234585Y-110729676D01*
X131234585Y-110729676D02*
X131425061Y-110634438D01*
X131425061Y-110634438D02*
X131901252Y-110634438D01*
X131901252Y-110634438D02*
X132186966Y-110729676D01*
X133615538Y-110634438D02*
X133615538Y-112063009D01*
X133615538Y-112063009D02*
X133520299Y-112348723D01*
X133520299Y-112348723D02*
X133329823Y-112539200D01*
X133329823Y-112539200D02*
X133044109Y-112634438D01*
X133044109Y-112634438D02*
X132853633Y-112634438D01*
D10*
X146200000Y-104700000D02*
X146200000Y-89700000D01*
D16*
X109084819Y-41663333D02*
X109799104Y-41663333D01*
X109799104Y-41663333D02*
X109941961Y-41710952D01*
X109941961Y-41710952D02*
X110037200Y-41806190D01*
X110037200Y-41806190D02*
X110084819Y-41949047D01*
X110084819Y-41949047D02*
X110084819Y-42044285D01*
X110084819Y-40663333D02*
X110084819Y-41234761D01*
X110084819Y-40949047D02*
X109084819Y-40949047D01*
X109084819Y-40949047D02*
X109227676Y-41044285D01*
X109227676Y-41044285D02*
X109322914Y-41139523D01*
X109322914Y-41139523D02*
X109370533Y-41234761D01*
X143184819Y-41663333D02*
X143899104Y-41663333D01*
X143899104Y-41663333D02*
X144041961Y-41710952D01*
X144041961Y-41710952D02*
X144137200Y-41806190D01*
X144137200Y-41806190D02*
X144184819Y-41949047D01*
X144184819Y-41949047D02*
X144184819Y-42044285D01*
X143613390Y-41044285D02*
X143565771Y-41139523D01*
X143565771Y-41139523D02*
X143518152Y-41187142D01*
X143518152Y-41187142D02*
X143422914Y-41234761D01*
X143422914Y-41234761D02*
X143375295Y-41234761D01*
X143375295Y-41234761D02*
X143280057Y-41187142D01*
X143280057Y-41187142D02*
X143232438Y-41139523D01*
X143232438Y-41139523D02*
X143184819Y-41044285D01*
X143184819Y-41044285D02*
X143184819Y-40853809D01*
X143184819Y-40853809D02*
X143232438Y-40758571D01*
X143232438Y-40758571D02*
X143280057Y-40710952D01*
X143280057Y-40710952D02*
X143375295Y-40663333D01*
X143375295Y-40663333D02*
X143422914Y-40663333D01*
X143422914Y-40663333D02*
X143518152Y-40710952D01*
X143518152Y-40710952D02*
X143565771Y-40758571D01*
X143565771Y-40758571D02*
X143613390Y-40853809D01*
X143613390Y-40853809D02*
X143613390Y-41044285D01*
X143613390Y-41044285D02*
X143661009Y-41139523D01*
X143661009Y-41139523D02*
X143708628Y-41187142D01*
X143708628Y-41187142D02*
X143803866Y-41234761D01*
X143803866Y-41234761D02*
X143994342Y-41234761D01*
X143994342Y-41234761D02*
X144089580Y-41187142D01*
X144089580Y-41187142D02*
X144137200Y-41139523D01*
X144137200Y-41139523D02*
X144184819Y-41044285D01*
X144184819Y-41044285D02*
X144184819Y-40853809D01*
X144184819Y-40853809D02*
X144137200Y-40758571D01*
X144137200Y-40758571D02*
X144089580Y-40710952D01*
X144089580Y-40710952D02*
X143994342Y-40663333D01*
X143994342Y-40663333D02*
X143803866Y-40663333D01*
X143803866Y-40663333D02*
X143708628Y-40710952D01*
X143708628Y-40710952D02*
X143661009Y-40758571D01*
X143661009Y-40758571D02*
X143613390Y-40853809D01*
D17*
%TO.C,G\u002A\u002A\u002A*%
G36*
X180905307Y-100373536D02*
G01*
X181498258Y-100380347D01*
X182005589Y-100390934D01*
X182405344Y-100404670D01*
X182675568Y-100420931D01*
X182794305Y-100439089D01*
X182797769Y-100443799D01*
X182742420Y-100547340D01*
X182606184Y-100789153D01*
X182397115Y-101155388D01*
X182123273Y-101632194D01*
X181792711Y-102205719D01*
X181413488Y-102862113D01*
X180993659Y-103587526D01*
X180541282Y-104368105D01*
X180064411Y-105190000D01*
X179571105Y-106039360D01*
X179069419Y-106902335D01*
X178567410Y-107765072D01*
X178073133Y-108613723D01*
X177594647Y-109434435D01*
X177140007Y-110213357D01*
X176717269Y-110936639D01*
X176334491Y-111590430D01*
X175999728Y-112160879D01*
X175721036Y-112634135D01*
X175506474Y-112996347D01*
X175364096Y-113233664D01*
X175301959Y-113332235D01*
X175299999Y-113334206D01*
X175245430Y-113259673D01*
X175113945Y-113049762D01*
X174917429Y-112724368D01*
X174667770Y-112303386D01*
X174376851Y-111806712D01*
X174056558Y-111254240D01*
X174032377Y-111212312D01*
X173709768Y-110650782D01*
X173416928Y-110137301D01*
X173165733Y-109692995D01*
X172968058Y-109338993D01*
X172835779Y-109096421D01*
X172780771Y-108986406D01*
X172780264Y-108984772D01*
X172818362Y-108889481D01*
X172938513Y-108654069D01*
X173132684Y-108292945D01*
X173392844Y-107820522D01*
X173710960Y-107251210D01*
X174079000Y-106599419D01*
X174488932Y-105879560D01*
X174932723Y-105106045D01*
X175210428Y-104624737D01*
X177669801Y-100371126D01*
X180248691Y-100371126D01*
X180905307Y-100373536D01*
G37*
G36*
X169710211Y-100371956D02*
G01*
X170828168Y-102306330D01*
X171136675Y-102842837D01*
X171414838Y-103331747D01*
X171650149Y-103750653D01*
X171830101Y-104077149D01*
X171942184Y-104288827D01*
X171974395Y-104359593D01*
X171943292Y-104480217D01*
X171839837Y-104712897D01*
X171685295Y-105017268D01*
X171500929Y-105352965D01*
X171308005Y-105679623D01*
X171149590Y-105925279D01*
X171109275Y-105939559D01*
X171040741Y-105889375D01*
X170935862Y-105762196D01*
X170786514Y-105545489D01*
X170584571Y-105226722D01*
X170321907Y-104793364D01*
X169990398Y-104232882D01*
X169581917Y-103532745D01*
X169441901Y-103291444D01*
X169070178Y-102649662D01*
X168727118Y-102056320D01*
X168423012Y-101529299D01*
X168168154Y-101086479D01*
X167972833Y-100745740D01*
X167847341Y-100524962D01*
X167802230Y-100442749D01*
X167873020Y-100413892D01*
X168087765Y-100390676D01*
X168411570Y-100375745D01*
X168741314Y-100371541D01*
X169710211Y-100371956D01*
G37*
D16*
%TO.C,D3*%
X168090000Y-110430000D02*
X168090000Y-108970000D01*
X168090000Y-108970000D02*
X165800000Y-108970000D01*
X165800000Y-110430000D02*
X168090000Y-110430000D01*
%TO.C,D2*%
X156590000Y-110430000D02*
X156590000Y-108970000D01*
X156590000Y-108970000D02*
X154300000Y-108970000D01*
X154300000Y-110430000D02*
X156590000Y-110430000D01*
%TO.C,D1*%
X181130000Y-41910000D02*
X179670000Y-41910000D01*
X179670000Y-41910000D02*
X179670000Y-44200000D01*
X181130000Y-44200000D02*
X181130000Y-41910000D01*
D18*
%TO.C,Q76*%
X152740000Y-80460000D02*
X152740000Y-78940000D01*
X153740000Y-80460000D02*
X152740000Y-80460000D01*
X155860000Y-80460000D02*
X154860000Y-80460000D01*
X152740000Y-78940000D02*
X152790000Y-78940000D01*
X153910000Y-78940000D02*
X154690000Y-78940000D01*
X155810000Y-78940000D02*
X155860000Y-78940000D01*
X155860000Y-78940000D02*
X155860000Y-80460000D01*
X154680000Y-78400000D02*
X154350000Y-78640000D01*
X154350000Y-78160000D01*
X154680000Y-78400000D01*
G36*
X154680000Y-78400000D02*
G01*
X154350000Y-78640000D01*
X154350000Y-78160000D01*
X154680000Y-78400000D01*
G37*
%TO.C,Q55*%
X134240000Y-77860000D02*
X134240000Y-77810000D01*
X135760000Y-77860000D02*
X134240000Y-77860000D01*
X135760000Y-76860000D02*
X135760000Y-77860000D01*
X134240000Y-76690000D02*
X134240000Y-75910000D01*
X134240000Y-74790000D02*
X134240000Y-74740000D01*
X134240000Y-74740000D02*
X135760000Y-74740000D01*
X135760000Y-74740000D02*
X135760000Y-75740000D01*
X133940000Y-76250000D02*
X133460000Y-76250000D01*
X133700000Y-75920000D01*
X133940000Y-76250000D01*
G36*
X133940000Y-76250000D02*
G01*
X133460000Y-76250000D01*
X133700000Y-75920000D01*
X133940000Y-76250000D01*
G37*
%TO.C,Q13*%
X159450000Y-53860000D02*
X159450000Y-52340000D01*
X160450000Y-53860000D02*
X159450000Y-53860000D01*
X162570000Y-53860000D02*
X161570000Y-53860000D01*
X159450000Y-52340000D02*
X159500000Y-52340000D01*
X160620000Y-52340000D02*
X161400000Y-52340000D01*
X162520000Y-52340000D02*
X162570000Y-52340000D01*
X162570000Y-52340000D02*
X162570000Y-53860000D01*
X161390000Y-51800000D02*
X161060000Y-52040000D01*
X161060000Y-51560000D01*
X161390000Y-51800000D01*
G36*
X161390000Y-51800000D02*
G01*
X161060000Y-52040000D01*
X161060000Y-51560000D01*
X161390000Y-51800000D01*
G37*
%TO.C,Q82*%
X168740000Y-61460000D02*
X168740000Y-59940000D01*
X169740000Y-61460000D02*
X168740000Y-61460000D01*
X171860000Y-61460000D02*
X170860000Y-61460000D01*
X168740000Y-59940000D02*
X168790000Y-59940000D01*
X169910000Y-59940000D02*
X170690000Y-59940000D01*
X171810000Y-59940000D02*
X171860000Y-59940000D01*
X171860000Y-59940000D02*
X171860000Y-61460000D01*
X170680000Y-59400000D02*
X170350000Y-59640000D01*
X170350000Y-59160000D01*
X170680000Y-59400000D01*
G36*
X170680000Y-59400000D02*
G01*
X170350000Y-59640000D01*
X170350000Y-59160000D01*
X170680000Y-59400000D01*
G37*
%TO.C,Q51*%
X134240000Y-69860000D02*
X134240000Y-68860000D01*
X135760000Y-69860000D02*
X134240000Y-69860000D01*
X135760000Y-69810000D02*
X135760000Y-69860000D01*
X135760000Y-67910000D02*
X135760000Y-68690000D01*
X134240000Y-67740000D02*
X134240000Y-66740000D01*
X134240000Y-66740000D02*
X135760000Y-66740000D01*
X135760000Y-66740000D02*
X135760000Y-66790000D01*
X136300000Y-68680000D02*
X136060000Y-68350000D01*
X136540000Y-68350000D01*
X136300000Y-68680000D01*
G36*
X136300000Y-68680000D02*
G01*
X136060000Y-68350000D01*
X136540000Y-68350000D01*
X136300000Y-68680000D01*
G37*
%TO.C,Q69*%
X160740000Y-85260000D02*
X160740000Y-83740000D01*
X161740000Y-85260000D02*
X160740000Y-85260000D01*
X163860000Y-85260000D02*
X162860000Y-85260000D01*
X160740000Y-83740000D02*
X160790000Y-83740000D01*
X161910000Y-83740000D02*
X162690000Y-83740000D01*
X163810000Y-83740000D02*
X163860000Y-83740000D01*
X163860000Y-83740000D02*
X163860000Y-85260000D01*
X162680000Y-83200000D02*
X162350000Y-83440000D01*
X162350000Y-82960000D01*
X162680000Y-83200000D01*
G36*
X162680000Y-83200000D02*
G01*
X162350000Y-83440000D01*
X162350000Y-82960000D01*
X162680000Y-83200000D01*
G37*
%TO.C,Q18*%
X111740000Y-56860000D02*
X111740000Y-55860000D01*
X113260000Y-56860000D02*
X111740000Y-56860000D01*
X113260000Y-56810000D02*
X113260000Y-56860000D01*
X113260000Y-54910000D02*
X113260000Y-55690000D01*
X111740000Y-54740000D02*
X111740000Y-53740000D01*
X111740000Y-53740000D02*
X113260000Y-53740000D01*
X113260000Y-53740000D02*
X113260000Y-53790000D01*
X113800000Y-55680000D02*
X113560000Y-55350000D01*
X114040000Y-55350000D01*
X113800000Y-55680000D01*
G36*
X113800000Y-55680000D02*
G01*
X113560000Y-55350000D01*
X114040000Y-55350000D01*
X113800000Y-55680000D01*
G37*
%TO.C,Q86*%
X172740000Y-61460000D02*
X172740000Y-59940000D01*
X173740000Y-61460000D02*
X172740000Y-61460000D01*
X175860000Y-61460000D02*
X174860000Y-61460000D01*
X172740000Y-59940000D02*
X172790000Y-59940000D01*
X173910000Y-59940000D02*
X174690000Y-59940000D01*
X175810000Y-59940000D02*
X175860000Y-59940000D01*
X175860000Y-59940000D02*
X175860000Y-61460000D01*
X174680000Y-59400000D02*
X174350000Y-59640000D01*
X174350000Y-59160000D01*
X174680000Y-59400000D01*
G36*
X174680000Y-59400000D02*
G01*
X174350000Y-59640000D01*
X174350000Y-59160000D01*
X174680000Y-59400000D01*
G37*
%TO.C,Q80*%
X148740000Y-80460000D02*
X148740000Y-78940000D01*
X149740000Y-80460000D02*
X148740000Y-80460000D01*
X151860000Y-80460000D02*
X150860000Y-80460000D01*
X148740000Y-78940000D02*
X148790000Y-78940000D01*
X149910000Y-78940000D02*
X150690000Y-78940000D01*
X151810000Y-78940000D02*
X151860000Y-78940000D01*
X151860000Y-78940000D02*
X151860000Y-80460000D01*
X150680000Y-78400000D02*
X150350000Y-78640000D01*
X150350000Y-78160000D01*
X150680000Y-78400000D01*
G36*
X150680000Y-78400000D02*
G01*
X150350000Y-78640000D01*
X150350000Y-78160000D01*
X150680000Y-78400000D01*
G37*
%TO.C,Q53*%
X134240000Y-64860000D02*
X134240000Y-64810000D01*
X135760000Y-64860000D02*
X134240000Y-64860000D01*
X135760000Y-63860000D02*
X135760000Y-64860000D01*
X134240000Y-63690000D02*
X134240000Y-62910000D01*
X134240000Y-61790000D02*
X134240000Y-61740000D01*
X134240000Y-61740000D02*
X135760000Y-61740000D01*
X135760000Y-61740000D02*
X135760000Y-62740000D01*
X133940000Y-63250000D02*
X133460000Y-63250000D01*
X133700000Y-62920000D01*
X133940000Y-63250000D01*
G36*
X133940000Y-63250000D02*
G01*
X133460000Y-63250000D01*
X133700000Y-62920000D01*
X133940000Y-63250000D01*
G37*
%TO.C,Q59*%
X144740000Y-66260000D02*
X144740000Y-64740000D01*
X145740000Y-66260000D02*
X144740000Y-66260000D01*
X147860000Y-66260000D02*
X146860000Y-66260000D01*
X144740000Y-64740000D02*
X144790000Y-64740000D01*
X145910000Y-64740000D02*
X146690000Y-64740000D01*
X147810000Y-64740000D02*
X147860000Y-64740000D01*
X147860000Y-64740000D02*
X147860000Y-66260000D01*
X146680000Y-64200000D02*
X146350000Y-64440000D01*
X146350000Y-63960000D01*
X146680000Y-64200000D01*
G36*
X146680000Y-64200000D02*
G01*
X146350000Y-64440000D01*
X146350000Y-63960000D01*
X146680000Y-64200000D01*
G37*
%TO.C,Q12*%
X107240000Y-69860000D02*
X107240000Y-68860000D01*
X108760000Y-69860000D02*
X107240000Y-69860000D01*
X108760000Y-69810000D02*
X108760000Y-69860000D01*
X108760000Y-67910000D02*
X108760000Y-68690000D01*
X107240000Y-67740000D02*
X107240000Y-66740000D01*
X107240000Y-66740000D02*
X108760000Y-66740000D01*
X108760000Y-66740000D02*
X108760000Y-66790000D01*
X109300000Y-68680000D02*
X109060000Y-68350000D01*
X109540000Y-68350000D01*
X109300000Y-68680000D01*
G36*
X109300000Y-68680000D02*
G01*
X109060000Y-68350000D01*
X109540000Y-68350000D01*
X109300000Y-68680000D01*
G37*
%TO.C,Q68*%
X160740000Y-80460000D02*
X160740000Y-78940000D01*
X161740000Y-80460000D02*
X160740000Y-80460000D01*
X163860000Y-80460000D02*
X162860000Y-80460000D01*
X160740000Y-78940000D02*
X160790000Y-78940000D01*
X161910000Y-78940000D02*
X162690000Y-78940000D01*
X163810000Y-78940000D02*
X163860000Y-78940000D01*
X163860000Y-78940000D02*
X163860000Y-80460000D01*
X162680000Y-78400000D02*
X162350000Y-78640000D01*
X162350000Y-78160000D01*
X162680000Y-78400000D01*
G36*
X162680000Y-78400000D02*
G01*
X162350000Y-78640000D01*
X162350000Y-78160000D01*
X162680000Y-78400000D01*
G37*
%TO.C,Q6*%
X102740000Y-60860000D02*
X102740000Y-60810000D01*
X104260000Y-60860000D02*
X102740000Y-60860000D01*
X104260000Y-59860000D02*
X104260000Y-60860000D01*
X102740000Y-59690000D02*
X102740000Y-58910000D01*
X102740000Y-57790000D02*
X102740000Y-57740000D01*
X102740000Y-57740000D02*
X104260000Y-57740000D01*
X104260000Y-57740000D02*
X104260000Y-58740000D01*
X102440000Y-59250000D02*
X101960000Y-59250000D01*
X102200000Y-58920000D01*
X102440000Y-59250000D01*
G36*
X102440000Y-59250000D02*
G01*
X101960000Y-59250000D01*
X102200000Y-58920000D01*
X102440000Y-59250000D01*
G37*
%TO.C,Q14*%
X107240000Y-60860000D02*
X107240000Y-60810000D01*
X108760000Y-60860000D02*
X107240000Y-60860000D01*
X108760000Y-59860000D02*
X108760000Y-60860000D01*
X107240000Y-59690000D02*
X107240000Y-58910000D01*
X107240000Y-57790000D02*
X107240000Y-57740000D01*
X107240000Y-57740000D02*
X108760000Y-57740000D01*
X108760000Y-57740000D02*
X108760000Y-58740000D01*
X106940000Y-59250000D02*
X106460000Y-59250000D01*
X106700000Y-58920000D01*
X106940000Y-59250000D01*
G36*
X106940000Y-59250000D02*
G01*
X106460000Y-59250000D01*
X106700000Y-58920000D01*
X106940000Y-59250000D01*
G37*
%TO.C,Q60*%
X168740000Y-80460000D02*
X168740000Y-78940000D01*
X169740000Y-80460000D02*
X168740000Y-80460000D01*
X171860000Y-80460000D02*
X170860000Y-80460000D01*
X168740000Y-78940000D02*
X168790000Y-78940000D01*
X169910000Y-78940000D02*
X170690000Y-78940000D01*
X171810000Y-78940000D02*
X171860000Y-78940000D01*
X171860000Y-78940000D02*
X171860000Y-80460000D01*
X170680000Y-78400000D02*
X170350000Y-78640000D01*
X170350000Y-78160000D01*
X170680000Y-78400000D01*
G36*
X170680000Y-78400000D02*
G01*
X170350000Y-78640000D01*
X170350000Y-78160000D01*
X170680000Y-78400000D01*
G37*
%TO.C,Q29*%
X116240000Y-64860000D02*
X116240000Y-64810000D01*
X117760000Y-64860000D02*
X116240000Y-64860000D01*
X117760000Y-63860000D02*
X117760000Y-64860000D01*
X116240000Y-63690000D02*
X116240000Y-62910000D01*
X116240000Y-61790000D02*
X116240000Y-61740000D01*
X116240000Y-61740000D02*
X117760000Y-61740000D01*
X117760000Y-61740000D02*
X117760000Y-62740000D01*
X115940000Y-63250000D02*
X115460000Y-63250000D01*
X115700000Y-62920000D01*
X115940000Y-63250000D01*
G36*
X115940000Y-63250000D02*
G01*
X115460000Y-63250000D01*
X115700000Y-62920000D01*
X115940000Y-63250000D01*
G37*
%TO.C,Q8*%
X102740000Y-73860000D02*
X102740000Y-73810000D01*
X104260000Y-73860000D02*
X102740000Y-73860000D01*
X104260000Y-72860000D02*
X104260000Y-73860000D01*
X102740000Y-72690000D02*
X102740000Y-71910000D01*
X102740000Y-70790000D02*
X102740000Y-70740000D01*
X102740000Y-70740000D02*
X104260000Y-70740000D01*
X104260000Y-70740000D02*
X104260000Y-71740000D01*
X102440000Y-72250000D02*
X101960000Y-72250000D01*
X102200000Y-71920000D01*
X102440000Y-72250000D01*
G36*
X102440000Y-72250000D02*
G01*
X101960000Y-72250000D01*
X102200000Y-71920000D01*
X102440000Y-72250000D01*
G37*
%TO.C,Q56*%
X172740000Y-80460000D02*
X172740000Y-78940000D01*
X173740000Y-80460000D02*
X172740000Y-80460000D01*
X175860000Y-80460000D02*
X174860000Y-80460000D01*
X172740000Y-78940000D02*
X172790000Y-78940000D01*
X173910000Y-78940000D02*
X174690000Y-78940000D01*
X175810000Y-78940000D02*
X175860000Y-78940000D01*
X175860000Y-78940000D02*
X175860000Y-80460000D01*
X174680000Y-78400000D02*
X174350000Y-78640000D01*
X174350000Y-78160000D01*
X174680000Y-78400000D01*
G36*
X174680000Y-78400000D02*
G01*
X174350000Y-78640000D01*
X174350000Y-78160000D01*
X174680000Y-78400000D01*
G37*
%TO.C,Q65*%
X164740000Y-85260000D02*
X164740000Y-83740000D01*
X165740000Y-85260000D02*
X164740000Y-85260000D01*
X167860000Y-85260000D02*
X166860000Y-85260000D01*
X164740000Y-83740000D02*
X164790000Y-83740000D01*
X165910000Y-83740000D02*
X166690000Y-83740000D01*
X167810000Y-83740000D02*
X167860000Y-83740000D01*
X167860000Y-83740000D02*
X167860000Y-85260000D01*
X166680000Y-83200000D02*
X166350000Y-83440000D01*
X166350000Y-82960000D01*
X166680000Y-83200000D01*
G36*
X166680000Y-83200000D02*
G01*
X166350000Y-83440000D01*
X166350000Y-82960000D01*
X166680000Y-83200000D01*
G37*
%TO.C,Q67*%
X152740000Y-66260000D02*
X152740000Y-64740000D01*
X153740000Y-66260000D02*
X152740000Y-66260000D01*
X155860000Y-66260000D02*
X154860000Y-66260000D01*
X152740000Y-64740000D02*
X152790000Y-64740000D01*
X153910000Y-64740000D02*
X154690000Y-64740000D01*
X155810000Y-64740000D02*
X155860000Y-64740000D01*
X155860000Y-64740000D02*
X155860000Y-66260000D01*
X154680000Y-64200000D02*
X154350000Y-64440000D01*
X154350000Y-63960000D01*
X154680000Y-64200000D01*
G36*
X154680000Y-64200000D02*
G01*
X154350000Y-64440000D01*
X154350000Y-63960000D01*
X154680000Y-64200000D01*
G37*
%TO.C,Q70*%
X156740000Y-61460000D02*
X156740000Y-59940000D01*
X157740000Y-61460000D02*
X156740000Y-61460000D01*
X159860000Y-61460000D02*
X158860000Y-61460000D01*
X156740000Y-59940000D02*
X156790000Y-59940000D01*
X157910000Y-59940000D02*
X158690000Y-59940000D01*
X159810000Y-59940000D02*
X159860000Y-59940000D01*
X159860000Y-59940000D02*
X159860000Y-61460000D01*
X158680000Y-59400000D02*
X158350000Y-59640000D01*
X158350000Y-59160000D01*
X158680000Y-59400000D01*
G36*
X158680000Y-59400000D02*
G01*
X158350000Y-59640000D01*
X158350000Y-59160000D01*
X158680000Y-59400000D01*
G37*
%TO.C,Q75*%
X160740000Y-66260000D02*
X160740000Y-64740000D01*
X161740000Y-66260000D02*
X160740000Y-66260000D01*
X163860000Y-66260000D02*
X162860000Y-66260000D01*
X160740000Y-64740000D02*
X160790000Y-64740000D01*
X161910000Y-64740000D02*
X162690000Y-64740000D01*
X163810000Y-64740000D02*
X163860000Y-64740000D01*
X163860000Y-64740000D02*
X163860000Y-66260000D01*
X162680000Y-64200000D02*
X162350000Y-64440000D01*
X162350000Y-63960000D01*
X162680000Y-64200000D01*
G36*
X162680000Y-64200000D02*
G01*
X162350000Y-64440000D01*
X162350000Y-63960000D01*
X162680000Y-64200000D01*
G37*
%TO.C,Q78*%
X164740000Y-61460000D02*
X164740000Y-59940000D01*
X165740000Y-61460000D02*
X164740000Y-61460000D01*
X167860000Y-61460000D02*
X166860000Y-61460000D01*
X164740000Y-59940000D02*
X164790000Y-59940000D01*
X165910000Y-59940000D02*
X166690000Y-59940000D01*
X167810000Y-59940000D02*
X167860000Y-59940000D01*
X167860000Y-59940000D02*
X167860000Y-61460000D01*
X166680000Y-59400000D02*
X166350000Y-59640000D01*
X166350000Y-59160000D01*
X166680000Y-59400000D01*
G36*
X166680000Y-59400000D02*
G01*
X166350000Y-59640000D01*
X166350000Y-59160000D01*
X166680000Y-59400000D01*
G37*
%TO.C,Q45*%
X129740000Y-69860000D02*
X129740000Y-68860000D01*
X131260000Y-69860000D02*
X129740000Y-69860000D01*
X131260000Y-69810000D02*
X131260000Y-69860000D01*
X131260000Y-67910000D02*
X131260000Y-68690000D01*
X129740000Y-67740000D02*
X129740000Y-66740000D01*
X129740000Y-66740000D02*
X131260000Y-66740000D01*
X131260000Y-66740000D02*
X131260000Y-66790000D01*
X131800000Y-68680000D02*
X131560000Y-68350000D01*
X132040000Y-68350000D01*
X131800000Y-68680000D01*
G36*
X131800000Y-68680000D02*
G01*
X131560000Y-68350000D01*
X132040000Y-68350000D01*
X131800000Y-68680000D01*
G37*
%TO.C,Q57*%
X172740000Y-85260000D02*
X172740000Y-83740000D01*
X173740000Y-85260000D02*
X172740000Y-85260000D01*
X175860000Y-85260000D02*
X174860000Y-85260000D01*
X172740000Y-83740000D02*
X172790000Y-83740000D01*
X173910000Y-83740000D02*
X174690000Y-83740000D01*
X175810000Y-83740000D02*
X175860000Y-83740000D01*
X175860000Y-83740000D02*
X175860000Y-85260000D01*
X174680000Y-83200000D02*
X174350000Y-83440000D01*
X174350000Y-82960000D01*
X174680000Y-83200000D01*
G36*
X174680000Y-83200000D02*
G01*
X174350000Y-83440000D01*
X174350000Y-82960000D01*
X174680000Y-83200000D01*
G37*
%TO.C,Q50*%
X134240000Y-56860000D02*
X134240000Y-55860000D01*
X135760000Y-56860000D02*
X134240000Y-56860000D01*
X135760000Y-56810000D02*
X135760000Y-56860000D01*
X135760000Y-54910000D02*
X135760000Y-55690000D01*
X134240000Y-54740000D02*
X134240000Y-53740000D01*
X134240000Y-53740000D02*
X135760000Y-53740000D01*
X135760000Y-53740000D02*
X135760000Y-53790000D01*
X136300000Y-55680000D02*
X136060000Y-55350000D01*
X136540000Y-55350000D01*
X136300000Y-55680000D01*
G36*
X136300000Y-55680000D02*
G01*
X136060000Y-55350000D01*
X136540000Y-55350000D01*
X136300000Y-55680000D01*
G37*
%TO.C,Q21*%
X111740000Y-60860000D02*
X111740000Y-60810000D01*
X113260000Y-60860000D02*
X111740000Y-60860000D01*
X113260000Y-59860000D02*
X113260000Y-60860000D01*
X111740000Y-59690000D02*
X111740000Y-58910000D01*
X111740000Y-57790000D02*
X111740000Y-57740000D01*
X111740000Y-57740000D02*
X113260000Y-57740000D01*
X113260000Y-57740000D02*
X113260000Y-58740000D01*
X111440000Y-59250000D02*
X110960000Y-59250000D01*
X111200000Y-58920000D01*
X111440000Y-59250000D01*
G36*
X111440000Y-59250000D02*
G01*
X110960000Y-59250000D01*
X111200000Y-58920000D01*
X111440000Y-59250000D01*
G37*
%TO.C,Q47*%
X129740000Y-64860000D02*
X129740000Y-64810000D01*
X131260000Y-64860000D02*
X129740000Y-64860000D01*
X131260000Y-63860000D02*
X131260000Y-64860000D01*
X129740000Y-63690000D02*
X129740000Y-62910000D01*
X129740000Y-61790000D02*
X129740000Y-61740000D01*
X129740000Y-61740000D02*
X131260000Y-61740000D01*
X131260000Y-61740000D02*
X131260000Y-62740000D01*
X129440000Y-63250000D02*
X128960000Y-63250000D01*
X129200000Y-62920000D01*
X129440000Y-63250000D01*
G36*
X129440000Y-63250000D02*
G01*
X128960000Y-63250000D01*
X129200000Y-62920000D01*
X129440000Y-63250000D01*
G37*
%TO.C,Q25*%
X154740000Y-54260000D02*
X154740000Y-52740000D01*
X155740000Y-54260000D02*
X154740000Y-54260000D01*
X157860000Y-54260000D02*
X156860000Y-54260000D01*
X154740000Y-52740000D02*
X154790000Y-52740000D01*
X155910000Y-52740000D02*
X156690000Y-52740000D01*
X157810000Y-52740000D02*
X157860000Y-52740000D01*
X157860000Y-52740000D02*
X157860000Y-54260000D01*
X156680000Y-52200000D02*
X156350000Y-52440000D01*
X156350000Y-51960000D01*
X156680000Y-52200000D01*
G36*
X156680000Y-52200000D02*
G01*
X156350000Y-52440000D01*
X156350000Y-51960000D01*
X156680000Y-52200000D01*
G37*
%TO.C,Q81*%
X148740000Y-85260000D02*
X148740000Y-83740000D01*
X149740000Y-85260000D02*
X148740000Y-85260000D01*
X151860000Y-85260000D02*
X150860000Y-85260000D01*
X148740000Y-83740000D02*
X148790000Y-83740000D01*
X149910000Y-83740000D02*
X150690000Y-83740000D01*
X151810000Y-83740000D02*
X151860000Y-83740000D01*
X151860000Y-83740000D02*
X151860000Y-85260000D01*
X150680000Y-83200000D02*
X150350000Y-83440000D01*
X150350000Y-82960000D01*
X150680000Y-83200000D01*
G36*
X150680000Y-83200000D02*
G01*
X150350000Y-83440000D01*
X150350000Y-82960000D01*
X150680000Y-83200000D01*
G37*
%TO.C,Q22*%
X111740000Y-64860000D02*
X111740000Y-64810000D01*
X113260000Y-64860000D02*
X111740000Y-64860000D01*
X113260000Y-63860000D02*
X113260000Y-64860000D01*
X111740000Y-63690000D02*
X111740000Y-62910000D01*
X111740000Y-61790000D02*
X111740000Y-61740000D01*
X111740000Y-61740000D02*
X113260000Y-61740000D01*
X113260000Y-61740000D02*
X113260000Y-62740000D01*
X111440000Y-63250000D02*
X110960000Y-63250000D01*
X111200000Y-62920000D01*
X111440000Y-63250000D01*
G36*
X111440000Y-63250000D02*
G01*
X110960000Y-63250000D01*
X111200000Y-62920000D01*
X111440000Y-63250000D01*
G37*
%TO.C,Q32*%
X120740000Y-56860000D02*
X120740000Y-55860000D01*
X122260000Y-56860000D02*
X120740000Y-56860000D01*
X122260000Y-56810000D02*
X122260000Y-56860000D01*
X122260000Y-54910000D02*
X122260000Y-55690000D01*
X120740000Y-54740000D02*
X120740000Y-53740000D01*
X120740000Y-53740000D02*
X122260000Y-53740000D01*
X122260000Y-53740000D02*
X122260000Y-53790000D01*
X122800000Y-55680000D02*
X122560000Y-55350000D01*
X123040000Y-55350000D01*
X122800000Y-55680000D01*
G36*
X122800000Y-55680000D02*
G01*
X122560000Y-55350000D01*
X123040000Y-55350000D01*
X122800000Y-55680000D01*
G37*
%TO.C,J5*%
X174720500Y-52880500D02*
X177320500Y-52880500D01*
X174720500Y-52880500D02*
X174720500Y-50220500D01*
X177320500Y-52880500D02*
X177320500Y-50220500D01*
X172120500Y-51550500D02*
X172120500Y-50220500D01*
X172120500Y-50220500D02*
X173450500Y-50220500D01*
X174720500Y-50220500D02*
X177320500Y-50220500D01*
%TO.C,Q33*%
X120840000Y-69860000D02*
X120840000Y-68860000D01*
X122360000Y-69860000D02*
X120840000Y-69860000D01*
X122360000Y-69810000D02*
X122360000Y-69860000D01*
X122360000Y-67910000D02*
X122360000Y-68690000D01*
X120840000Y-67740000D02*
X120840000Y-66740000D01*
X120840000Y-66740000D02*
X122360000Y-66740000D01*
X122360000Y-66740000D02*
X122360000Y-66790000D01*
X122900000Y-68680000D02*
X122660000Y-68350000D01*
X123140000Y-68350000D01*
X122900000Y-68680000D01*
G36*
X122900000Y-68680000D02*
G01*
X122660000Y-68350000D01*
X123140000Y-68350000D01*
X122900000Y-68680000D01*
G37*
%TO.C,Q72*%
X156740000Y-80460000D02*
X156740000Y-78940000D01*
X157740000Y-80460000D02*
X156740000Y-80460000D01*
X159860000Y-80460000D02*
X158860000Y-80460000D01*
X156740000Y-78940000D02*
X156790000Y-78940000D01*
X157910000Y-78940000D02*
X158690000Y-78940000D01*
X159810000Y-78940000D02*
X159860000Y-78940000D01*
X159860000Y-78940000D02*
X159860000Y-80460000D01*
X158680000Y-78400000D02*
X158350000Y-78640000D01*
X158350000Y-78160000D01*
X158680000Y-78400000D01*
G36*
X158680000Y-78400000D02*
G01*
X158350000Y-78640000D01*
X158350000Y-78160000D01*
X158680000Y-78400000D01*
G37*
%TO.C,Q58*%
X144740000Y-61460000D02*
X144740000Y-59940000D01*
X145740000Y-61460000D02*
X144740000Y-61460000D01*
X147860000Y-61460000D02*
X146860000Y-61460000D01*
X144740000Y-59940000D02*
X144790000Y-59940000D01*
X145910000Y-59940000D02*
X146690000Y-59940000D01*
X147810000Y-59940000D02*
X147860000Y-59940000D01*
X147860000Y-59940000D02*
X147860000Y-61460000D01*
X146680000Y-59400000D02*
X146350000Y-59640000D01*
X146350000Y-59160000D01*
X146680000Y-59400000D01*
G36*
X146680000Y-59400000D02*
G01*
X146350000Y-59640000D01*
X146350000Y-59160000D01*
X146680000Y-59400000D01*
G37*
%TO.C,Q54*%
X134240000Y-73860000D02*
X134240000Y-73810000D01*
X135760000Y-73860000D02*
X134240000Y-73860000D01*
X135760000Y-72860000D02*
X135760000Y-73860000D01*
X134240000Y-72690000D02*
X134240000Y-71910000D01*
X134240000Y-70790000D02*
X134240000Y-70740000D01*
X134240000Y-70740000D02*
X135760000Y-70740000D01*
X135760000Y-70740000D02*
X135760000Y-71740000D01*
X133940000Y-72250000D02*
X133460000Y-72250000D01*
X133700000Y-71920000D01*
X133940000Y-72250000D01*
G36*
X133940000Y-72250000D02*
G01*
X133460000Y-72250000D01*
X133700000Y-71920000D01*
X133940000Y-72250000D01*
G37*
%TO.C,Q83*%
X168740000Y-66260000D02*
X168740000Y-64740000D01*
X169740000Y-66260000D02*
X168740000Y-66260000D01*
X171860000Y-66260000D02*
X170860000Y-66260000D01*
X168740000Y-64740000D02*
X168790000Y-64740000D01*
X169910000Y-64740000D02*
X170690000Y-64740000D01*
X171810000Y-64740000D02*
X171860000Y-64740000D01*
X171860000Y-64740000D02*
X171860000Y-66260000D01*
X170680000Y-64200000D02*
X170350000Y-64440000D01*
X170350000Y-63960000D01*
X170680000Y-64200000D01*
G36*
X170680000Y-64200000D02*
G01*
X170350000Y-64440000D01*
X170350000Y-63960000D01*
X170680000Y-64200000D01*
G37*
%TO.C,Q16*%
X107240000Y-73860000D02*
X107240000Y-73810000D01*
X108760000Y-73860000D02*
X107240000Y-73860000D01*
X108760000Y-72860000D02*
X108760000Y-73860000D01*
X107240000Y-72690000D02*
X107240000Y-71910000D01*
X107240000Y-70790000D02*
X107240000Y-70740000D01*
X107240000Y-70740000D02*
X108760000Y-70740000D01*
X108760000Y-70740000D02*
X108760000Y-71740000D01*
X106940000Y-72250000D02*
X106460000Y-72250000D01*
X106700000Y-71920000D01*
X106940000Y-72250000D01*
G36*
X106940000Y-72250000D02*
G01*
X106460000Y-72250000D01*
X106700000Y-71920000D01*
X106940000Y-72250000D01*
G37*
%TO.C,Q71*%
X156740000Y-66260000D02*
X156740000Y-64740000D01*
X157740000Y-66260000D02*
X156740000Y-66260000D01*
X159860000Y-66260000D02*
X158860000Y-66260000D01*
X156740000Y-64740000D02*
X156790000Y-64740000D01*
X157910000Y-64740000D02*
X158690000Y-64740000D01*
X159810000Y-64740000D02*
X159860000Y-64740000D01*
X159860000Y-64740000D02*
X159860000Y-66260000D01*
X158680000Y-64200000D02*
X158350000Y-64440000D01*
X158350000Y-63960000D01*
X158680000Y-64200000D01*
G36*
X158680000Y-64200000D02*
G01*
X158350000Y-64440000D01*
X158350000Y-63960000D01*
X158680000Y-64200000D01*
G37*
%TO.C,Q52*%
X134240000Y-60860000D02*
X134240000Y-60810000D01*
X135760000Y-60860000D02*
X134240000Y-60860000D01*
X135760000Y-59860000D02*
X135760000Y-60860000D01*
X134240000Y-59690000D02*
X134240000Y-58910000D01*
X134240000Y-57790000D02*
X134240000Y-57740000D01*
X134240000Y-57740000D02*
X135760000Y-57740000D01*
X135760000Y-57740000D02*
X135760000Y-58740000D01*
X133940000Y-59250000D02*
X133460000Y-59250000D01*
X133700000Y-58920000D01*
X133940000Y-59250000D01*
G36*
X133940000Y-59250000D02*
G01*
X133460000Y-59250000D01*
X133700000Y-58920000D01*
X133940000Y-59250000D01*
G37*
%TO.C,J4*%
X178070000Y-84870000D02*
X178070000Y-83540000D01*
X179400000Y-84870000D02*
X178070000Y-84870000D01*
X180670000Y-84870000D02*
X180670000Y-82270000D01*
X183270000Y-84870000D02*
X180670000Y-84870000D01*
X183270000Y-84870000D02*
X183270000Y-77130000D01*
X178070000Y-82270000D02*
X178070000Y-77130000D01*
X180670000Y-82270000D02*
X178070000Y-82270000D01*
X183270000Y-77130000D02*
X178070000Y-77130000D01*
%TO.C,Q43*%
X125240000Y-77860000D02*
X125240000Y-77810000D01*
X126760000Y-77860000D02*
X125240000Y-77860000D01*
X126760000Y-76860000D02*
X126760000Y-77860000D01*
X125240000Y-76690000D02*
X125240000Y-75910000D01*
X125240000Y-74790000D02*
X125240000Y-74740000D01*
X125240000Y-74740000D02*
X126760000Y-74740000D01*
X126760000Y-74740000D02*
X126760000Y-75740000D01*
X124940000Y-76250000D02*
X124460000Y-76250000D01*
X124700000Y-75920000D01*
X124940000Y-76250000D01*
G36*
X124940000Y-76250000D02*
G01*
X124460000Y-76250000D01*
X124700000Y-75920000D01*
X124940000Y-76250000D01*
G37*
%TO.C,Q15*%
X107240000Y-64860000D02*
X107240000Y-64810000D01*
X108760000Y-64860000D02*
X107240000Y-64860000D01*
X108760000Y-63860000D02*
X108760000Y-64860000D01*
X107240000Y-63690000D02*
X107240000Y-62910000D01*
X107240000Y-61790000D02*
X107240000Y-61740000D01*
X107240000Y-61740000D02*
X108760000Y-61740000D01*
X108760000Y-61740000D02*
X108760000Y-62740000D01*
X106940000Y-63250000D02*
X106460000Y-63250000D01*
X106700000Y-62920000D01*
X106940000Y-63250000D01*
G36*
X106940000Y-63250000D02*
G01*
X106460000Y-63250000D01*
X106700000Y-62920000D01*
X106940000Y-63250000D01*
G37*
%TO.C,Q66*%
X152740000Y-61460000D02*
X152740000Y-59940000D01*
X153740000Y-61460000D02*
X152740000Y-61460000D01*
X155860000Y-61460000D02*
X154860000Y-61460000D01*
X152740000Y-59940000D02*
X152790000Y-59940000D01*
X153910000Y-59940000D02*
X154690000Y-59940000D01*
X155810000Y-59940000D02*
X155860000Y-59940000D01*
X155860000Y-59940000D02*
X155860000Y-61460000D01*
X154680000Y-59400000D02*
X154350000Y-59640000D01*
X154350000Y-59160000D01*
X154680000Y-59400000D01*
G36*
X154680000Y-59400000D02*
G01*
X154350000Y-59640000D01*
X154350000Y-59160000D01*
X154680000Y-59400000D01*
G37*
%TO.C,Q74*%
X160740000Y-61460000D02*
X160740000Y-59940000D01*
X161740000Y-61460000D02*
X160740000Y-61460000D01*
X163860000Y-61460000D02*
X162860000Y-61460000D01*
X160740000Y-59940000D02*
X160790000Y-59940000D01*
X161910000Y-59940000D02*
X162690000Y-59940000D01*
X163810000Y-59940000D02*
X163860000Y-59940000D01*
X163860000Y-59940000D02*
X163860000Y-61460000D01*
X162680000Y-59400000D02*
X162350000Y-59640000D01*
X162350000Y-59160000D01*
X162680000Y-59400000D01*
G36*
X162680000Y-59400000D02*
G01*
X162350000Y-59640000D01*
X162350000Y-59160000D01*
X162680000Y-59400000D01*
G37*
%TO.C,Q62*%
X148740000Y-61460000D02*
X148740000Y-59940000D01*
X149740000Y-61460000D02*
X148740000Y-61460000D01*
X151860000Y-61460000D02*
X150860000Y-61460000D01*
X148740000Y-59940000D02*
X148790000Y-59940000D01*
X149910000Y-59940000D02*
X150690000Y-59940000D01*
X151810000Y-59940000D02*
X151860000Y-59940000D01*
X151860000Y-59940000D02*
X151860000Y-61460000D01*
X150680000Y-59400000D02*
X150350000Y-59640000D01*
X150350000Y-59160000D01*
X150680000Y-59400000D01*
G36*
X150680000Y-59400000D02*
G01*
X150350000Y-59640000D01*
X150350000Y-59160000D01*
X150680000Y-59400000D01*
G37*
%TO.C,Q35*%
X120740000Y-64860000D02*
X120740000Y-64810000D01*
X122260000Y-64860000D02*
X120740000Y-64860000D01*
X122260000Y-63860000D02*
X122260000Y-64860000D01*
X120740000Y-63690000D02*
X120740000Y-62910000D01*
X120740000Y-61790000D02*
X120740000Y-61740000D01*
X120740000Y-61740000D02*
X122260000Y-61740000D01*
X122260000Y-61740000D02*
X122260000Y-62740000D01*
X120440000Y-63250000D02*
X119960000Y-63250000D01*
X120200000Y-62920000D01*
X120440000Y-63250000D01*
G36*
X120440000Y-63250000D02*
G01*
X119960000Y-63250000D01*
X120200000Y-62920000D01*
X120440000Y-63250000D01*
G37*
%TO.C,Q31*%
X116240000Y-77860000D02*
X116240000Y-77810000D01*
X117760000Y-77860000D02*
X116240000Y-77860000D01*
X117760000Y-76860000D02*
X117760000Y-77860000D01*
X116240000Y-76690000D02*
X116240000Y-75910000D01*
X116240000Y-74790000D02*
X116240000Y-74740000D01*
X116240000Y-74740000D02*
X117760000Y-74740000D01*
X117760000Y-74740000D02*
X117760000Y-75740000D01*
X115940000Y-76250000D02*
X115460000Y-76250000D01*
X115700000Y-75920000D01*
X115940000Y-76250000D01*
G36*
X115940000Y-76250000D02*
G01*
X115460000Y-76250000D01*
X115700000Y-75920000D01*
X115940000Y-76250000D01*
G37*
%TO.C,Q27*%
X116240000Y-69860000D02*
X116240000Y-68860000D01*
X117760000Y-69860000D02*
X116240000Y-69860000D01*
X117760000Y-69810000D02*
X117760000Y-69860000D01*
X117760000Y-67910000D02*
X117760000Y-68690000D01*
X116240000Y-67740000D02*
X116240000Y-66740000D01*
X116240000Y-66740000D02*
X117760000Y-66740000D01*
X117760000Y-66740000D02*
X117760000Y-66790000D01*
X118300000Y-68680000D02*
X118060000Y-68350000D01*
X118540000Y-68350000D01*
X118300000Y-68680000D01*
G36*
X118300000Y-68680000D02*
G01*
X118060000Y-68350000D01*
X118540000Y-68350000D01*
X118300000Y-68680000D01*
G37*
%TO.C,Q7*%
X102740000Y-64860000D02*
X102740000Y-64810000D01*
X104260000Y-64860000D02*
X102740000Y-64860000D01*
X104260000Y-63860000D02*
X104260000Y-64860000D01*
X102740000Y-63690000D02*
X102740000Y-62910000D01*
X102740000Y-61790000D02*
X102740000Y-61740000D01*
X102740000Y-61740000D02*
X104260000Y-61740000D01*
X104260000Y-61740000D02*
X104260000Y-62740000D01*
X102440000Y-63250000D02*
X101960000Y-63250000D01*
X102200000Y-62920000D01*
X102440000Y-63250000D01*
G36*
X102440000Y-63250000D02*
G01*
X101960000Y-63250000D01*
X102200000Y-62920000D01*
X102440000Y-63250000D01*
G37*
%TO.C,Q20*%
X154740000Y-50160000D02*
X154740000Y-48640000D01*
X155740000Y-50160000D02*
X154740000Y-50160000D01*
X157860000Y-50160000D02*
X156860000Y-50160000D01*
X154740000Y-48640000D02*
X154790000Y-48640000D01*
X155910000Y-48640000D02*
X156690000Y-48640000D01*
X157810000Y-48640000D02*
X157860000Y-48640000D01*
X157860000Y-48640000D02*
X157860000Y-50160000D01*
X156680000Y-48100000D02*
X156350000Y-48340000D01*
X156350000Y-47860000D01*
X156680000Y-48100000D01*
G36*
X156680000Y-48100000D02*
G01*
X156350000Y-48340000D01*
X156350000Y-47860000D01*
X156680000Y-48100000D01*
G37*
%TO.C,Q9*%
X102740000Y-77860000D02*
X102740000Y-77810000D01*
X104260000Y-77860000D02*
X102740000Y-77860000D01*
X104260000Y-76860000D02*
X104260000Y-77860000D01*
X102740000Y-76690000D02*
X102740000Y-75910000D01*
X102740000Y-74790000D02*
X102740000Y-74740000D01*
X102740000Y-74740000D02*
X104260000Y-74740000D01*
X104260000Y-74740000D02*
X104260000Y-75740000D01*
X102440000Y-76250000D02*
X101960000Y-76250000D01*
X102200000Y-75920000D01*
X102440000Y-76250000D01*
G36*
X102440000Y-76250000D02*
G01*
X101960000Y-76250000D01*
X102200000Y-75920000D01*
X102440000Y-76250000D01*
G37*
%TO.C,Q26*%
X116140000Y-56860000D02*
X116140000Y-55860000D01*
X117660000Y-56860000D02*
X116140000Y-56860000D01*
X117660000Y-56810000D02*
X117660000Y-56860000D01*
X117660000Y-54910000D02*
X117660000Y-55690000D01*
X116140000Y-54740000D02*
X116140000Y-53740000D01*
X116140000Y-53740000D02*
X117660000Y-53740000D01*
X117660000Y-53740000D02*
X117660000Y-53790000D01*
X118200000Y-55680000D02*
X117960000Y-55350000D01*
X118440000Y-55350000D01*
X118200000Y-55680000D01*
G36*
X118200000Y-55680000D02*
G01*
X117960000Y-55350000D01*
X118440000Y-55350000D01*
X118200000Y-55680000D01*
G37*
%TO.C,Q30*%
X116240000Y-73860000D02*
X116240000Y-73810000D01*
X117760000Y-73860000D02*
X116240000Y-73860000D01*
X117760000Y-72860000D02*
X117760000Y-73860000D01*
X116240000Y-72690000D02*
X116240000Y-71910000D01*
X116240000Y-70790000D02*
X116240000Y-70740000D01*
X116240000Y-70740000D02*
X117760000Y-70740000D01*
X117760000Y-70740000D02*
X117760000Y-71740000D01*
X115940000Y-72250000D02*
X115460000Y-72250000D01*
X115700000Y-71920000D01*
X115940000Y-72250000D01*
G36*
X115940000Y-72250000D02*
G01*
X115460000Y-72250000D01*
X115700000Y-71920000D01*
X115940000Y-72250000D01*
G37*
%TO.C,Q44*%
X129740000Y-56860000D02*
X129740000Y-55860000D01*
X131260000Y-56860000D02*
X129740000Y-56860000D01*
X131260000Y-56810000D02*
X131260000Y-56860000D01*
X131260000Y-54910000D02*
X131260000Y-55690000D01*
X129740000Y-54740000D02*
X129740000Y-53740000D01*
X129740000Y-53740000D02*
X131260000Y-53740000D01*
X131260000Y-53740000D02*
X131260000Y-53790000D01*
X131800000Y-55680000D02*
X131560000Y-55350000D01*
X132040000Y-55350000D01*
X131800000Y-55680000D01*
G36*
X131800000Y-55680000D02*
G01*
X131560000Y-55350000D01*
X132040000Y-55350000D01*
X131800000Y-55680000D01*
G37*
%TO.C,Q39*%
X125240000Y-69860000D02*
X125240000Y-68860000D01*
X126760000Y-69860000D02*
X125240000Y-69860000D01*
X126760000Y-69810000D02*
X126760000Y-69860000D01*
X126760000Y-67910000D02*
X126760000Y-68690000D01*
X125240000Y-67740000D02*
X125240000Y-66740000D01*
X125240000Y-66740000D02*
X126760000Y-66740000D01*
X126760000Y-66740000D02*
X126760000Y-66790000D01*
X127300000Y-68680000D02*
X127060000Y-68350000D01*
X127540000Y-68350000D01*
X127300000Y-68680000D01*
G36*
X127300000Y-68680000D02*
G01*
X127060000Y-68350000D01*
X127540000Y-68350000D01*
X127300000Y-68680000D01*
G37*
%TO.C,Q48*%
X129740000Y-73860000D02*
X129740000Y-73810000D01*
X131260000Y-73860000D02*
X129740000Y-73860000D01*
X131260000Y-72860000D02*
X131260000Y-73860000D01*
X129740000Y-72690000D02*
X129740000Y-71910000D01*
X129740000Y-70790000D02*
X129740000Y-70740000D01*
X129740000Y-70740000D02*
X131260000Y-70740000D01*
X131260000Y-70740000D02*
X131260000Y-71740000D01*
X129440000Y-72250000D02*
X128960000Y-72250000D01*
X129200000Y-71920000D01*
X129440000Y-72250000D01*
G36*
X129440000Y-72250000D02*
G01*
X128960000Y-72250000D01*
X129200000Y-71920000D01*
X129440000Y-72250000D01*
G37*
%TO.C,Q77*%
X152740000Y-85260000D02*
X152740000Y-83740000D01*
X153740000Y-85260000D02*
X152740000Y-85260000D01*
X155860000Y-85260000D02*
X154860000Y-85260000D01*
X152740000Y-83740000D02*
X152790000Y-83740000D01*
X153910000Y-83740000D02*
X154690000Y-83740000D01*
X155810000Y-83740000D02*
X155860000Y-83740000D01*
X155860000Y-83740000D02*
X155860000Y-85260000D01*
X154680000Y-83200000D02*
X154350000Y-83440000D01*
X154350000Y-82960000D01*
X154680000Y-83200000D01*
G36*
X154680000Y-83200000D02*
G01*
X154350000Y-83440000D01*
X154350000Y-82960000D01*
X154680000Y-83200000D01*
G37*
%TO.C,Q19*%
X111740000Y-69860000D02*
X111740000Y-68860000D01*
X113260000Y-69860000D02*
X111740000Y-69860000D01*
X113260000Y-69810000D02*
X113260000Y-69860000D01*
X113260000Y-67910000D02*
X113260000Y-68690000D01*
X111740000Y-67740000D02*
X111740000Y-66740000D01*
X111740000Y-66740000D02*
X113260000Y-66740000D01*
X113260000Y-66740000D02*
X113260000Y-66790000D01*
X113800000Y-68680000D02*
X113560000Y-68350000D01*
X114040000Y-68350000D01*
X113800000Y-68680000D01*
G36*
X113800000Y-68680000D02*
G01*
X113560000Y-68350000D01*
X114040000Y-68350000D01*
X113800000Y-68680000D01*
G37*
%TO.C,Q23*%
X111740000Y-73860000D02*
X111740000Y-73810000D01*
X113260000Y-73860000D02*
X111740000Y-73860000D01*
X113260000Y-72860000D02*
X113260000Y-73860000D01*
X111740000Y-72690000D02*
X111740000Y-71910000D01*
X111740000Y-70790000D02*
X111740000Y-70740000D01*
X111740000Y-70740000D02*
X113260000Y-70740000D01*
X113260000Y-70740000D02*
X113260000Y-71740000D01*
X111440000Y-72250000D02*
X110960000Y-72250000D01*
X111200000Y-71920000D01*
X111440000Y-72250000D01*
G36*
X111440000Y-72250000D02*
G01*
X110960000Y-72250000D01*
X111200000Y-71920000D01*
X111440000Y-72250000D01*
G37*
%TO.C,Q42*%
X125240000Y-73860000D02*
X125240000Y-73810000D01*
X126760000Y-73860000D02*
X125240000Y-73860000D01*
X126760000Y-72860000D02*
X126760000Y-73860000D01*
X125240000Y-72690000D02*
X125240000Y-71910000D01*
X125240000Y-70790000D02*
X125240000Y-70740000D01*
X125240000Y-70740000D02*
X126760000Y-70740000D01*
X126760000Y-70740000D02*
X126760000Y-71740000D01*
X124940000Y-72250000D02*
X124460000Y-72250000D01*
X124700000Y-71920000D01*
X124940000Y-72250000D01*
G36*
X124940000Y-72250000D02*
G01*
X124460000Y-72250000D01*
X124700000Y-71920000D01*
X124940000Y-72250000D01*
G37*
%TO.C,Q41*%
X125240000Y-64860000D02*
X125240000Y-64810000D01*
X126760000Y-64860000D02*
X125240000Y-64860000D01*
X126760000Y-63860000D02*
X126760000Y-64860000D01*
X125240000Y-63690000D02*
X125240000Y-62910000D01*
X125240000Y-61790000D02*
X125240000Y-61740000D01*
X125240000Y-61740000D02*
X126760000Y-61740000D01*
X126760000Y-61740000D02*
X126760000Y-62740000D01*
X124940000Y-63250000D02*
X124460000Y-63250000D01*
X124700000Y-62920000D01*
X124940000Y-63250000D01*
G36*
X124940000Y-63250000D02*
G01*
X124460000Y-63250000D01*
X124700000Y-62920000D01*
X124940000Y-63250000D01*
G37*
%TO.C,Q46*%
X129740000Y-60860000D02*
X129740000Y-60810000D01*
X131260000Y-60860000D02*
X129740000Y-60860000D01*
X131260000Y-59860000D02*
X131260000Y-60860000D01*
X129740000Y-59690000D02*
X129740000Y-58910000D01*
X129740000Y-57790000D02*
X129740000Y-57740000D01*
X129740000Y-57740000D02*
X131260000Y-57740000D01*
X131260000Y-57740000D02*
X131260000Y-58740000D01*
X129440000Y-59250000D02*
X128960000Y-59250000D01*
X129200000Y-58920000D01*
X129440000Y-59250000D01*
G36*
X129440000Y-59250000D02*
G01*
X128960000Y-59250000D01*
X129200000Y-58920000D01*
X129440000Y-59250000D01*
G37*
%TO.C,Q73*%
X156740000Y-85260000D02*
X156740000Y-83740000D01*
X157740000Y-85260000D02*
X156740000Y-85260000D01*
X159860000Y-85260000D02*
X158860000Y-85260000D01*
X156740000Y-83740000D02*
X156790000Y-83740000D01*
X157910000Y-83740000D02*
X158690000Y-83740000D01*
X159810000Y-83740000D02*
X159860000Y-83740000D01*
X159860000Y-83740000D02*
X159860000Y-85260000D01*
X158680000Y-83200000D02*
X158350000Y-83440000D01*
X158350000Y-82960000D01*
X158680000Y-83200000D01*
G36*
X158680000Y-83200000D02*
G01*
X158350000Y-83440000D01*
X158350000Y-82960000D01*
X158680000Y-83200000D01*
G37*
%TO.C,J3*%
X160070000Y-99930000D02*
X172890000Y-99930000D01*
X160070000Y-99930000D02*
X160070000Y-97330000D01*
X172890000Y-99930000D02*
X172890000Y-94730000D01*
X160070000Y-97330000D02*
X162670000Y-97330000D01*
X162670000Y-97330000D02*
X162670000Y-94730000D01*
X160070000Y-96060000D02*
X160070000Y-94730000D01*
X160070000Y-94730000D02*
X161400000Y-94730000D01*
X162670000Y-94730000D02*
X172890000Y-94730000D01*
%TO.C,J1*%
X111070000Y-43930000D02*
X131510000Y-43930000D01*
X111070000Y-43930000D02*
X111070000Y-41330000D01*
X131510000Y-43930000D02*
X131510000Y-38730000D01*
X111070000Y-41330000D02*
X113670000Y-41330000D01*
X113670000Y-41330000D02*
X113670000Y-38730000D01*
X111070000Y-40060000D02*
X111070000Y-38730000D01*
X111070000Y-38730000D02*
X112400000Y-38730000D01*
X113670000Y-38730000D02*
X131510000Y-38730000D01*
%TO.C,Q2*%
X103140000Y-49660000D02*
X103140000Y-48660000D01*
X104660000Y-49660000D02*
X103140000Y-49660000D01*
X104660000Y-49610000D02*
X104660000Y-49660000D01*
X104660000Y-47710000D02*
X104660000Y-48490000D01*
X103140000Y-47540000D02*
X103140000Y-46540000D01*
X103140000Y-46540000D02*
X104660000Y-46540000D01*
X104660000Y-46540000D02*
X104660000Y-46590000D01*
X105200000Y-48480000D02*
X104960000Y-48150000D01*
X105440000Y-48150000D01*
X105200000Y-48480000D01*
G36*
X105200000Y-48480000D02*
G01*
X104960000Y-48150000D01*
X105440000Y-48150000D01*
X105200000Y-48480000D01*
G37*
%TO.C,J6*%
X101645000Y-43480000D02*
X101645000Y-42150000D01*
X102975000Y-43480000D02*
X101645000Y-43480000D01*
X101645000Y-40880000D02*
X101645000Y-38280000D01*
X104305000Y-40880000D02*
X101645000Y-40880000D01*
X104305000Y-40880000D02*
X104305000Y-38280000D01*
X104305000Y-38280000D02*
X101645000Y-38280000D01*
%TO.C,Q79*%
X164740000Y-66260000D02*
X164740000Y-64740000D01*
X165740000Y-66260000D02*
X164740000Y-66260000D01*
X167860000Y-66260000D02*
X166860000Y-66260000D01*
X164740000Y-64740000D02*
X164790000Y-64740000D01*
X165910000Y-64740000D02*
X166690000Y-64740000D01*
X167810000Y-64740000D02*
X167860000Y-64740000D01*
X167860000Y-64740000D02*
X167860000Y-66260000D01*
X166680000Y-64200000D02*
X166350000Y-64440000D01*
X166350000Y-63960000D01*
X166680000Y-64200000D01*
G36*
X166680000Y-64200000D02*
G01*
X166350000Y-64440000D01*
X166350000Y-63960000D01*
X166680000Y-64200000D01*
G37*
%TO.C,Q63*%
X148740000Y-66260000D02*
X148740000Y-64740000D01*
X149740000Y-66260000D02*
X148740000Y-66260000D01*
X151860000Y-66260000D02*
X150860000Y-66260000D01*
X148740000Y-64740000D02*
X148790000Y-64740000D01*
X149910000Y-64740000D02*
X150690000Y-64740000D01*
X151810000Y-64740000D02*
X151860000Y-64740000D01*
X151860000Y-64740000D02*
X151860000Y-66260000D01*
X150680000Y-64200000D02*
X150350000Y-64440000D01*
X150350000Y-63960000D01*
X150680000Y-64200000D01*
G36*
X150680000Y-64200000D02*
G01*
X150350000Y-64440000D01*
X150350000Y-63960000D01*
X150680000Y-64200000D01*
G37*
%TO.C,Q38*%
X125140000Y-56860000D02*
X125140000Y-55860000D01*
X126660000Y-56860000D02*
X125140000Y-56860000D01*
X126660000Y-56810000D02*
X126660000Y-56860000D01*
X126660000Y-54910000D02*
X126660000Y-55690000D01*
X125140000Y-54740000D02*
X125140000Y-53740000D01*
X125140000Y-53740000D02*
X126660000Y-53740000D01*
X126660000Y-53740000D02*
X126660000Y-53790000D01*
X127200000Y-55680000D02*
X126960000Y-55350000D01*
X127440000Y-55350000D01*
X127200000Y-55680000D01*
G36*
X127200000Y-55680000D02*
G01*
X126960000Y-55350000D01*
X127440000Y-55350000D01*
X127200000Y-55680000D01*
G37*
%TO.C,Q5*%
X102740000Y-69860000D02*
X102740000Y-68860000D01*
X104260000Y-69860000D02*
X102740000Y-69860000D01*
X104260000Y-69810000D02*
X104260000Y-69860000D01*
X104260000Y-67910000D02*
X104260000Y-68690000D01*
X102740000Y-67740000D02*
X102740000Y-66740000D01*
X102740000Y-66740000D02*
X104260000Y-66740000D01*
X104260000Y-66740000D02*
X104260000Y-66790000D01*
X104800000Y-68680000D02*
X104560000Y-68350000D01*
X105040000Y-68350000D01*
X104800000Y-68680000D01*
G36*
X104800000Y-68680000D02*
G01*
X104560000Y-68350000D01*
X105040000Y-68350000D01*
X104800000Y-68680000D01*
G37*
%TO.C,Q40*%
X125240000Y-60860000D02*
X125240000Y-60810000D01*
X126760000Y-60860000D02*
X125240000Y-60860000D01*
X126760000Y-59860000D02*
X126760000Y-60860000D01*
X125240000Y-59690000D02*
X125240000Y-58910000D01*
X125240000Y-57790000D02*
X125240000Y-57740000D01*
X125240000Y-57740000D02*
X126760000Y-57740000D01*
X126760000Y-57740000D02*
X126760000Y-58740000D01*
X124940000Y-59250000D02*
X124460000Y-59250000D01*
X124700000Y-58920000D01*
X124940000Y-59250000D01*
G36*
X124940000Y-59250000D02*
G01*
X124460000Y-59250000D01*
X124700000Y-58920000D01*
X124940000Y-59250000D01*
G37*
%TO.C,Q64*%
X164740000Y-80460000D02*
X164740000Y-78940000D01*
X165740000Y-80460000D02*
X164740000Y-80460000D01*
X167860000Y-80460000D02*
X166860000Y-80460000D01*
X164740000Y-78940000D02*
X164790000Y-78940000D01*
X165910000Y-78940000D02*
X166690000Y-78940000D01*
X167810000Y-78940000D02*
X167860000Y-78940000D01*
X167860000Y-78940000D02*
X167860000Y-80460000D01*
X166680000Y-78400000D02*
X166350000Y-78640000D01*
X166350000Y-78160000D01*
X166680000Y-78400000D01*
G36*
X166680000Y-78400000D02*
G01*
X166350000Y-78640000D01*
X166350000Y-78160000D01*
X166680000Y-78400000D01*
G37*
%TO.C,J8*%
X145170000Y-43930000D02*
X165610000Y-43930000D01*
X145170000Y-43930000D02*
X145170000Y-41330000D01*
X165610000Y-43930000D02*
X165610000Y-38730000D01*
X145170000Y-41330000D02*
X147770000Y-41330000D01*
X147770000Y-41330000D02*
X147770000Y-38730000D01*
X145170000Y-40060000D02*
X145170000Y-38730000D01*
X145170000Y-38730000D02*
X146500000Y-38730000D01*
X147770000Y-38730000D02*
X165610000Y-38730000D01*
%TO.C,Q10*%
X159450000Y-48860000D02*
X159450000Y-47340000D01*
X160450000Y-48860000D02*
X159450000Y-48860000D01*
X162570000Y-48860000D02*
X161570000Y-48860000D01*
X159450000Y-47340000D02*
X159500000Y-47340000D01*
X160620000Y-47340000D02*
X161400000Y-47340000D01*
X162520000Y-47340000D02*
X162570000Y-47340000D01*
X162570000Y-47340000D02*
X162570000Y-48860000D01*
X161390000Y-46800000D02*
X161060000Y-47040000D01*
X161060000Y-46560000D01*
X161390000Y-46800000D01*
G36*
X161390000Y-46800000D02*
G01*
X161060000Y-47040000D01*
X161060000Y-46560000D01*
X161390000Y-46800000D01*
G37*
%TO.C,Q11*%
X107140000Y-56860000D02*
X107140000Y-55860000D01*
X108660000Y-56860000D02*
X107140000Y-56860000D01*
X108660000Y-56810000D02*
X108660000Y-56860000D01*
X108660000Y-54910000D02*
X108660000Y-55690000D01*
X107140000Y-54740000D02*
X107140000Y-53740000D01*
X107140000Y-53740000D02*
X108660000Y-53740000D01*
X108660000Y-53740000D02*
X108660000Y-53790000D01*
X109200000Y-55680000D02*
X108960000Y-55350000D01*
X109440000Y-55350000D01*
X109200000Y-55680000D01*
G36*
X109200000Y-55680000D02*
G01*
X108960000Y-55350000D01*
X109440000Y-55350000D01*
X109200000Y-55680000D01*
G37*
%TO.C,Q24*%
X111740000Y-77860000D02*
X111740000Y-77810000D01*
X113260000Y-77860000D02*
X111740000Y-77860000D01*
X113260000Y-76860000D02*
X113260000Y-77860000D01*
X111740000Y-76690000D02*
X111740000Y-75910000D01*
X111740000Y-74790000D02*
X111740000Y-74740000D01*
X111740000Y-74740000D02*
X113260000Y-74740000D01*
X113260000Y-74740000D02*
X113260000Y-75740000D01*
X111440000Y-76250000D02*
X110960000Y-76250000D01*
X111200000Y-75920000D01*
X111440000Y-76250000D01*
G36*
X111440000Y-76250000D02*
G01*
X110960000Y-76250000D01*
X111200000Y-75920000D01*
X111440000Y-76250000D01*
G37*
%TO.C,Q49*%
X129740000Y-77860000D02*
X129740000Y-77810000D01*
X131260000Y-77860000D02*
X129740000Y-77860000D01*
X131260000Y-76860000D02*
X131260000Y-77860000D01*
X129740000Y-76690000D02*
X129740000Y-75910000D01*
X129740000Y-74790000D02*
X129740000Y-74740000D01*
X129740000Y-74740000D02*
X131260000Y-74740000D01*
X131260000Y-74740000D02*
X131260000Y-75740000D01*
X129440000Y-76250000D02*
X128960000Y-76250000D01*
X129200000Y-75920000D01*
X129440000Y-76250000D01*
G36*
X129440000Y-76250000D02*
G01*
X128960000Y-76250000D01*
X129200000Y-75920000D01*
X129440000Y-76250000D01*
G37*
%TO.C,Q84*%
X144740000Y-80460000D02*
X144740000Y-78940000D01*
X145740000Y-80460000D02*
X144740000Y-80460000D01*
X147860000Y-80460000D02*
X146860000Y-80460000D01*
X144740000Y-78940000D02*
X144790000Y-78940000D01*
X145910000Y-78940000D02*
X146690000Y-78940000D01*
X147810000Y-78940000D02*
X147860000Y-78940000D01*
X147860000Y-78940000D02*
X147860000Y-80460000D01*
X146680000Y-78400000D02*
X146350000Y-78640000D01*
X146350000Y-78160000D01*
X146680000Y-78400000D01*
G36*
X146680000Y-78400000D02*
G01*
X146350000Y-78640000D01*
X146350000Y-78160000D01*
X146680000Y-78400000D01*
G37*
%TO.C,J7*%
X169080000Y-74455000D02*
X166480000Y-74455000D01*
X171680000Y-74455000D02*
X170350000Y-74455000D01*
X171680000Y-73125000D02*
X171680000Y-74455000D01*
X166480000Y-71795000D02*
X166480000Y-74455000D01*
X169080000Y-71795000D02*
X169080000Y-74455000D01*
X169080000Y-71795000D02*
X166480000Y-71795000D01*
%TO.C,Q34*%
X120740000Y-60860000D02*
X120740000Y-60810000D01*
X122260000Y-60860000D02*
X120740000Y-60860000D01*
X122260000Y-59860000D02*
X122260000Y-60860000D01*
X120740000Y-59690000D02*
X120740000Y-58910000D01*
X120740000Y-57790000D02*
X120740000Y-57740000D01*
X120740000Y-57740000D02*
X122260000Y-57740000D01*
X122260000Y-57740000D02*
X122260000Y-58740000D01*
X120440000Y-59250000D02*
X119960000Y-59250000D01*
X120200000Y-58920000D01*
X120440000Y-59250000D01*
G36*
X120440000Y-59250000D02*
G01*
X119960000Y-59250000D01*
X120200000Y-58920000D01*
X120440000Y-59250000D01*
G37*
%TO.C,Q36*%
X120740000Y-73860000D02*
X120740000Y-73810000D01*
X122260000Y-73860000D02*
X120740000Y-73860000D01*
X122260000Y-72860000D02*
X122260000Y-73860000D01*
X120740000Y-72690000D02*
X120740000Y-71910000D01*
X120740000Y-70790000D02*
X120740000Y-70740000D01*
X120740000Y-70740000D02*
X122260000Y-70740000D01*
X122260000Y-70740000D02*
X122260000Y-71740000D01*
X120440000Y-72250000D02*
X119960000Y-72250000D01*
X120200000Y-71920000D01*
X120440000Y-72250000D01*
G36*
X120440000Y-72250000D02*
G01*
X119960000Y-72250000D01*
X120200000Y-71920000D01*
X120440000Y-72250000D01*
G37*
%TO.C,Q1*%
X164650000Y-48860000D02*
X164650000Y-47340000D01*
X165650000Y-48860000D02*
X164650000Y-48860000D01*
X167770000Y-48860000D02*
X166770000Y-48860000D01*
X164650000Y-47340000D02*
X164700000Y-47340000D01*
X165820000Y-47340000D02*
X166600000Y-47340000D01*
X167720000Y-47340000D02*
X167770000Y-47340000D01*
X167770000Y-47340000D02*
X167770000Y-48860000D01*
X166590000Y-46800000D02*
X166260000Y-47040000D01*
X166260000Y-46560000D01*
X166590000Y-46800000D01*
G36*
X166590000Y-46800000D02*
G01*
X166260000Y-47040000D01*
X166260000Y-46560000D01*
X166590000Y-46800000D01*
G37*
%TO.C,Q28*%
X116240000Y-60860000D02*
X116240000Y-60810000D01*
X117760000Y-60860000D02*
X116240000Y-60860000D01*
X117760000Y-59860000D02*
X117760000Y-60860000D01*
X116240000Y-59690000D02*
X116240000Y-58910000D01*
X116240000Y-57790000D02*
X116240000Y-57740000D01*
X116240000Y-57740000D02*
X117760000Y-57740000D01*
X117760000Y-57740000D02*
X117760000Y-58740000D01*
X115940000Y-59250000D02*
X115460000Y-59250000D01*
X115700000Y-58920000D01*
X115940000Y-59250000D01*
G36*
X115940000Y-59250000D02*
G01*
X115460000Y-59250000D01*
X115700000Y-58920000D01*
X115940000Y-59250000D01*
G37*
%TO.C,Q87*%
X172740000Y-66260000D02*
X172740000Y-64740000D01*
X173740000Y-66260000D02*
X172740000Y-66260000D01*
X175860000Y-66260000D02*
X174860000Y-66260000D01*
X172740000Y-64740000D02*
X172790000Y-64740000D01*
X173910000Y-64740000D02*
X174690000Y-64740000D01*
X175810000Y-64740000D02*
X175860000Y-64740000D01*
X175860000Y-64740000D02*
X175860000Y-66260000D01*
X174680000Y-64200000D02*
X174350000Y-64440000D01*
X174350000Y-63960000D01*
X174680000Y-64200000D01*
G36*
X174680000Y-64200000D02*
G01*
X174350000Y-64440000D01*
X174350000Y-63960000D01*
X174680000Y-64200000D01*
G37*
%TO.C,Q4*%
X102740000Y-56860000D02*
X102740000Y-55860000D01*
X104260000Y-56860000D02*
X102740000Y-56860000D01*
X104260000Y-56810000D02*
X104260000Y-56860000D01*
X104260000Y-54910000D02*
X104260000Y-55690000D01*
X102740000Y-54740000D02*
X102740000Y-53740000D01*
X102740000Y-53740000D02*
X104260000Y-53740000D01*
X104260000Y-53740000D02*
X104260000Y-53790000D01*
X104800000Y-55680000D02*
X104560000Y-55350000D01*
X105040000Y-55350000D01*
X104800000Y-55680000D01*
G36*
X104800000Y-55680000D02*
G01*
X104560000Y-55350000D01*
X105040000Y-55350000D01*
X104800000Y-55680000D01*
G37*
%TO.C,Q85*%
X144740000Y-85260000D02*
X144740000Y-83740000D01*
X145740000Y-85260000D02*
X144740000Y-85260000D01*
X147860000Y-85260000D02*
X146860000Y-85260000D01*
X144740000Y-83740000D02*
X144790000Y-83740000D01*
X145910000Y-83740000D02*
X146690000Y-83740000D01*
X147810000Y-83740000D02*
X147860000Y-83740000D01*
X147860000Y-83740000D02*
X147860000Y-85260000D01*
X146680000Y-83200000D02*
X146350000Y-83440000D01*
X146350000Y-82960000D01*
X146680000Y-83200000D01*
G36*
X146680000Y-83200000D02*
G01*
X146350000Y-83440000D01*
X146350000Y-82960000D01*
X146680000Y-83200000D01*
G37*
%TO.C,Q3*%
X164650000Y-53860000D02*
X164650000Y-52340000D01*
X165650000Y-53860000D02*
X164650000Y-53860000D01*
X167770000Y-53860000D02*
X166770000Y-53860000D01*
X164650000Y-52340000D02*
X164700000Y-52340000D01*
X165820000Y-52340000D02*
X166600000Y-52340000D01*
X167720000Y-52340000D02*
X167770000Y-52340000D01*
X167770000Y-52340000D02*
X167770000Y-53860000D01*
X166590000Y-51800000D02*
X166260000Y-52040000D01*
X166260000Y-51560000D01*
X166590000Y-51800000D01*
G36*
X166590000Y-51800000D02*
G01*
X166260000Y-52040000D01*
X166260000Y-51560000D01*
X166590000Y-51800000D01*
G37*
%TO.C,Q37*%
X120740000Y-77860000D02*
X120740000Y-77810000D01*
X122260000Y-77860000D02*
X120740000Y-77860000D01*
X122260000Y-76860000D02*
X122260000Y-77860000D01*
X120740000Y-76690000D02*
X120740000Y-75910000D01*
X120740000Y-74790000D02*
X120740000Y-74740000D01*
X120740000Y-74740000D02*
X122260000Y-74740000D01*
X122260000Y-74740000D02*
X122260000Y-75740000D01*
X120440000Y-76250000D02*
X119960000Y-76250000D01*
X120200000Y-75920000D01*
X120440000Y-76250000D01*
G36*
X120440000Y-76250000D02*
G01*
X119960000Y-76250000D01*
X120200000Y-75920000D01*
X120440000Y-76250000D01*
G37*
%TO.C,Q61*%
X168740000Y-85260000D02*
X168740000Y-83740000D01*
X169740000Y-85260000D02*
X168740000Y-85260000D01*
X171860000Y-85260000D02*
X170860000Y-85260000D01*
X168740000Y-83740000D02*
X168790000Y-83740000D01*
X169910000Y-83740000D02*
X170690000Y-83740000D01*
X171810000Y-83740000D02*
X171860000Y-83740000D01*
X171860000Y-83740000D02*
X171860000Y-85260000D01*
X170680000Y-83200000D02*
X170350000Y-83440000D01*
X170350000Y-82960000D01*
X170680000Y-83200000D01*
G36*
X170680000Y-83200000D02*
G01*
X170350000Y-83440000D01*
X170350000Y-82960000D01*
X170680000Y-83200000D01*
G37*
%TO.C,Q17*%
X107240000Y-77860000D02*
X107240000Y-77810000D01*
X108760000Y-77860000D02*
X107240000Y-77860000D01*
X108760000Y-76860000D02*
X108760000Y-77860000D01*
X107240000Y-76690000D02*
X107240000Y-75910000D01*
X107240000Y-74790000D02*
X107240000Y-74740000D01*
X107240000Y-74740000D02*
X108760000Y-74740000D01*
X108760000Y-74740000D02*
X108760000Y-75740000D01*
X106940000Y-76250000D02*
X106460000Y-76250000D01*
X106700000Y-75920000D01*
X106940000Y-76250000D01*
G36*
X106940000Y-76250000D02*
G01*
X106460000Y-76250000D01*
X106700000Y-75920000D01*
X106940000Y-76250000D01*
G37*
%TO.C,J2*%
X108070000Y-99930000D02*
X158990000Y-99930000D01*
X108070000Y-99930000D02*
X108070000Y-97330000D01*
X158990000Y-99930000D02*
X158990000Y-94730000D01*
X108070000Y-97330000D02*
X110670000Y-97330000D01*
X110670000Y-97330000D02*
X110670000Y-94730000D01*
X108070000Y-96060000D02*
X108070000Y-94730000D01*
X108070000Y-94730000D02*
X109400000Y-94730000D01*
X110670000Y-94730000D02*
X158990000Y-94730000D01*
%TD*%
%LPC*%
D19*
%TO.C,D3*%
X167390000Y-109700000D03*
X165810000Y-109700000D03*
%TD*%
%TO.C,D2*%
X155890000Y-109700000D03*
X154310000Y-109700000D03*
%TD*%
D20*
%TO.C,D1*%
X180400000Y-42610000D03*
X180400000Y-44190000D03*
%TD*%
D21*
%TO.C,R24*%
X146040000Y-53200000D03*
X148960000Y-53200000D03*
%TD*%
%TO.C,R22*%
X146040000Y-50300000D03*
X148960000Y-50300000D03*
%TD*%
D22*
%TO.C,R8*%
X119600000Y-92060000D03*
X119600000Y-89140000D03*
%TD*%
%TO.C,R7*%
X119600000Y-105560000D03*
X119600000Y-102640000D03*
%TD*%
%TO.C,R6*%
X117000000Y-92060000D03*
X117000000Y-89140000D03*
%TD*%
%TO.C,R5*%
X117100000Y-105560000D03*
X117100000Y-102640000D03*
%TD*%
%TO.C,R4*%
X114500000Y-92060000D03*
X114500000Y-89140000D03*
%TD*%
%TO.C,R3*%
X114500000Y-105560000D03*
X114500000Y-102640000D03*
%TD*%
%TO.C,R2*%
X112000000Y-92060000D03*
X112000000Y-89140000D03*
%TD*%
%TO.C,R1*%
X111900000Y-105560000D03*
X111900000Y-102640000D03*
%TD*%
D23*
%TO.C,Q76*%
X155250000Y-78762500D03*
X153350000Y-78762500D03*
X154300000Y-80637500D03*
%TD*%
D24*
%TO.C,R28*%
X115100000Y-81900000D03*
X115100000Y-82900000D03*
%TD*%
D25*
%TO.C,R58*%
X134800000Y-103800000D03*
X134800000Y-102800000D03*
%TD*%
D26*
%TO.C,H25*%
X181500000Y-111500000D03*
%TD*%
D27*
%TO.C,Q55*%
X134062500Y-75350000D03*
X134062500Y-77250000D03*
X135937500Y-76300000D03*
%TD*%
D23*
%TO.C,Q13*%
X161960000Y-52162500D03*
X160060000Y-52162500D03*
X161010000Y-54037500D03*
%TD*%
D24*
%TO.C,R64*%
X137300000Y-91000000D03*
X137300000Y-92000000D03*
%TD*%
D28*
%TO.C,R12*%
X104000000Y-52600000D03*
X103000000Y-52600000D03*
%TD*%
D23*
%TO.C,Q82*%
X171250000Y-59762500D03*
X169350000Y-59762500D03*
X170300000Y-61637500D03*
%TD*%
D26*
%TO.C,H25*%
X181500000Y-33500000D03*
%TD*%
D29*
%TO.C,Q51*%
X135937500Y-69250000D03*
X135937500Y-67350000D03*
X134062500Y-68300000D03*
%TD*%
D24*
%TO.C,R63*%
X166100000Y-57000000D03*
X166100000Y-58000000D03*
%TD*%
D30*
%TO.C,R36*%
X130000000Y-79000000D03*
X131000000Y-79000000D03*
%TD*%
D23*
%TO.C,Q69*%
X163250000Y-83562500D03*
X161350000Y-83562500D03*
X162300000Y-85437500D03*
%TD*%
D28*
%TO.C,R32*%
X126400000Y-52600000D03*
X125400000Y-52600000D03*
%TD*%
D31*
%TO.C,C6*%
X178350000Y-63350000D03*
X180250000Y-63350000D03*
%TD*%
D29*
%TO.C,Q18*%
X113437500Y-56250000D03*
X113437500Y-54350000D03*
X111562500Y-55300000D03*
%TD*%
D30*
%TO.C,R74*%
X163000000Y-109700000D03*
X164000000Y-109700000D03*
%TD*%
D25*
%TO.C,R70*%
X142400000Y-103800000D03*
X142400000Y-102800000D03*
%TD*%
D24*
%TO.C,R55*%
X158100000Y-57000000D03*
X158100000Y-58000000D03*
%TD*%
D23*
%TO.C,Q86*%
X175250000Y-59762500D03*
X173350000Y-59762500D03*
X174300000Y-61637500D03*
%TD*%
D26*
%TO.C,H25*%
X103500000Y-33500000D03*
%TD*%
D23*
%TO.C,Q80*%
X151250000Y-78762500D03*
X149350000Y-78762500D03*
X150300000Y-80637500D03*
%TD*%
D24*
%TO.C,R56*%
X132300000Y-91000000D03*
X132300000Y-92000000D03*
%TD*%
%TO.C,R61*%
X154100000Y-76000000D03*
X154100000Y-77000000D03*
%TD*%
D27*
%TO.C,Q53*%
X134062500Y-62350000D03*
X134062500Y-64250000D03*
X135937500Y-63300000D03*
%TD*%
D23*
%TO.C,Q59*%
X147250000Y-64562500D03*
X145350000Y-64562500D03*
X146300000Y-66437500D03*
%TD*%
D26*
%TO.C,H25*%
X103500000Y-111500000D03*
%TD*%
D24*
%TO.C,R65*%
X150100000Y-76000000D03*
X150100000Y-77000000D03*
%TD*%
D29*
%TO.C,Q12*%
X108937500Y-69250000D03*
X108937500Y-67350000D03*
X107062500Y-68300000D03*
%TD*%
D24*
%TO.C,R47*%
X150100000Y-57000000D03*
X150100000Y-58000000D03*
%TD*%
D28*
%TO.C,R16*%
X108400000Y-52500000D03*
X107400000Y-52500000D03*
%TD*%
D24*
%TO.C,R43*%
X146100000Y-57000000D03*
X146100000Y-58000000D03*
%TD*%
D31*
%TO.C,C8*%
X178350000Y-69450000D03*
X180250000Y-69450000D03*
%TD*%
D23*
%TO.C,Q68*%
X163250000Y-78762500D03*
X161350000Y-78762500D03*
X162300000Y-80637500D03*
%TD*%
D27*
%TO.C,Q6*%
X102562500Y-58350000D03*
X102562500Y-60250000D03*
X104437500Y-59300000D03*
%TD*%
%TO.C,Q14*%
X107062500Y-58350000D03*
X107062500Y-60250000D03*
X108937500Y-59300000D03*
%TD*%
D25*
%TO.C,R27*%
X180400000Y-46900000D03*
X180400000Y-45900000D03*
%TD*%
D23*
%TO.C,Q60*%
X171250000Y-78762500D03*
X169350000Y-78762500D03*
X170300000Y-80637500D03*
%TD*%
D27*
%TO.C,Q29*%
X116062500Y-62350000D03*
X116062500Y-64250000D03*
X117937500Y-63300000D03*
%TD*%
D24*
%TO.C,R51*%
X154100000Y-57000000D03*
X154100000Y-58000000D03*
%TD*%
D27*
%TO.C,Q8*%
X102562500Y-71350000D03*
X102562500Y-73250000D03*
X104437500Y-72300000D03*
%TD*%
D23*
%TO.C,Q56*%
X175250000Y-78762500D03*
X173350000Y-78762500D03*
X174300000Y-80637500D03*
%TD*%
D24*
%TO.C,R71*%
X174100000Y-57000000D03*
X174100000Y-58000000D03*
%TD*%
%TO.C,R41*%
X174300000Y-76000000D03*
X174300000Y-77000000D03*
%TD*%
D30*
%TO.C,R21*%
X112000000Y-79000000D03*
X113000000Y-79000000D03*
%TD*%
D23*
%TO.C,Q65*%
X167250000Y-83562500D03*
X165350000Y-83562500D03*
X166300000Y-85437500D03*
%TD*%
D24*
%TO.C,R69*%
X146100000Y-76000000D03*
X146100000Y-77000000D03*
%TD*%
D23*
%TO.C,Q67*%
X155250000Y-64562500D03*
X153350000Y-64562500D03*
X154300000Y-66437500D03*
%TD*%
D24*
%TO.C,R34*%
X117600000Y-81900000D03*
X117600000Y-82900000D03*
%TD*%
D23*
%TO.C,Q70*%
X159250000Y-59762500D03*
X157350000Y-59762500D03*
X158300000Y-61637500D03*
%TD*%
%TO.C,Q75*%
X163250000Y-64562500D03*
X161350000Y-64562500D03*
X162300000Y-66437500D03*
%TD*%
%TO.C,Q78*%
X167250000Y-59762500D03*
X165350000Y-59762500D03*
X166300000Y-61637500D03*
%TD*%
D29*
%TO.C,Q45*%
X131437500Y-69250000D03*
X131437500Y-67350000D03*
X129562500Y-68300000D03*
%TD*%
D23*
%TO.C,Q57*%
X175250000Y-83562500D03*
X173350000Y-83562500D03*
X174300000Y-85437500D03*
%TD*%
D29*
%TO.C,Q50*%
X135937500Y-56250000D03*
X135937500Y-54350000D03*
X134062500Y-55300000D03*
%TD*%
D24*
%TO.C,R44*%
X124600000Y-91000000D03*
X124600000Y-92000000D03*
%TD*%
D30*
%TO.C,R26*%
X116500000Y-79000000D03*
X117500000Y-79000000D03*
%TD*%
D27*
%TO.C,Q21*%
X111562500Y-58350000D03*
X111562500Y-60250000D03*
X113437500Y-59300000D03*
%TD*%
%TO.C,Q47*%
X129562500Y-62350000D03*
X129562500Y-64250000D03*
X131437500Y-63300000D03*
%TD*%
D25*
%TO.C,R31*%
X117600000Y-112900000D03*
X117600000Y-111900000D03*
%TD*%
D23*
%TO.C,Q25*%
X157250000Y-52562500D03*
X155350000Y-52562500D03*
X156300000Y-54437500D03*
%TD*%
%TO.C,Q81*%
X151250000Y-83562500D03*
X149350000Y-83562500D03*
X150300000Y-85437500D03*
%TD*%
D27*
%TO.C,Q22*%
X111562500Y-62350000D03*
X111562500Y-64250000D03*
X113437500Y-63300000D03*
%TD*%
D25*
%TO.C,R23*%
X115100000Y-112900000D03*
X115100000Y-111900000D03*
%TD*%
D29*
%TO.C,Q32*%
X122437500Y-56250000D03*
X122437500Y-54350000D03*
X120562500Y-55300000D03*
%TD*%
D32*
%TO.C,J5*%
X173450500Y-51550500D03*
D33*
X175990500Y-51550500D03*
%TD*%
D31*
%TO.C,C5*%
X178350000Y-60300000D03*
X180250000Y-60300000D03*
%TD*%
D30*
%TO.C,R30*%
X121000000Y-79000000D03*
X122000000Y-79000000D03*
%TD*%
D25*
%TO.C,R62*%
X137300000Y-103800000D03*
X137300000Y-102800000D03*
%TD*%
D29*
%TO.C,Q33*%
X122537500Y-69250000D03*
X122537500Y-67350000D03*
X120662500Y-68300000D03*
%TD*%
D23*
%TO.C,Q72*%
X159250000Y-78762500D03*
X157350000Y-78762500D03*
X158300000Y-80637500D03*
%TD*%
%TO.C,Q58*%
X147250000Y-59762500D03*
X145350000Y-59762500D03*
X146300000Y-61637500D03*
%TD*%
D27*
%TO.C,Q54*%
X134062500Y-71350000D03*
X134062500Y-73250000D03*
X135937500Y-72300000D03*
%TD*%
D31*
%TO.C,C2*%
X102150000Y-95150000D03*
X104050000Y-95150000D03*
%TD*%
D24*
%TO.C,R52*%
X162100000Y-76000000D03*
X162100000Y-77000000D03*
%TD*%
D31*
%TO.C,C7*%
X178350000Y-66400000D03*
X180250000Y-66400000D03*
%TD*%
D23*
%TO.C,Q83*%
X171250000Y-64562500D03*
X169350000Y-64562500D03*
X170300000Y-66437500D03*
%TD*%
D27*
%TO.C,Q16*%
X107062500Y-71350000D03*
X107062500Y-73250000D03*
X108937500Y-72300000D03*
%TD*%
D23*
%TO.C,Q71*%
X159250000Y-64562500D03*
X157350000Y-64562500D03*
X158300000Y-66437500D03*
%TD*%
D27*
%TO.C,Q52*%
X134062500Y-58350000D03*
X134062500Y-60250000D03*
X135937500Y-59300000D03*
%TD*%
D32*
%TO.C,J4*%
X179400000Y-83540000D03*
D33*
X181940000Y-83540000D03*
X179400000Y-81000000D03*
X181940000Y-81000000D03*
X179400000Y-78460000D03*
X181940000Y-78460000D03*
%TD*%
D27*
%TO.C,Q43*%
X125062500Y-75350000D03*
X125062500Y-77250000D03*
X126937500Y-76300000D03*
%TD*%
%TO.C,Q15*%
X107062500Y-62350000D03*
X107062500Y-64250000D03*
X108937500Y-63300000D03*
%TD*%
D28*
%TO.C,R20*%
X113000000Y-52600000D03*
X112000000Y-52600000D03*
%TD*%
D24*
%TO.C,R11*%
X147500000Y-90400000D03*
X147500000Y-91400000D03*
%TD*%
D23*
%TO.C,Q66*%
X155250000Y-59762500D03*
X153350000Y-59762500D03*
X154300000Y-61637500D03*
%TD*%
D30*
%TO.C,R10*%
X103400000Y-45600000D03*
X104400000Y-45600000D03*
%TD*%
%TO.C,R73*%
X151400000Y-109700000D03*
X152400000Y-109700000D03*
%TD*%
D23*
%TO.C,Q74*%
X163250000Y-59762500D03*
X161350000Y-59762500D03*
X162300000Y-61637500D03*
%TD*%
%TO.C,Q62*%
X151250000Y-59762500D03*
X149350000Y-59762500D03*
X150300000Y-61637500D03*
%TD*%
D27*
%TO.C,Q35*%
X120562500Y-62350000D03*
X120562500Y-64250000D03*
X122437500Y-63300000D03*
%TD*%
%TO.C,Q31*%
X116062500Y-75350000D03*
X116062500Y-77250000D03*
X117937500Y-76300000D03*
%TD*%
D29*
%TO.C,Q27*%
X117937500Y-69250000D03*
X117937500Y-67350000D03*
X116062500Y-68300000D03*
%TD*%
D27*
%TO.C,Q7*%
X102562500Y-62350000D03*
X102562500Y-64250000D03*
X104437500Y-63300000D03*
%TD*%
D23*
%TO.C,Q20*%
X157250000Y-48462500D03*
X155350000Y-48462500D03*
X156300000Y-50337500D03*
%TD*%
D28*
%TO.C,R35*%
X131000000Y-52600000D03*
X130000000Y-52600000D03*
%TD*%
D27*
%TO.C,Q9*%
X102562500Y-75350000D03*
X102562500Y-77250000D03*
X104437500Y-76300000D03*
%TD*%
D29*
%TO.C,Q26*%
X117837500Y-56250000D03*
X117837500Y-54350000D03*
X115962500Y-55300000D03*
%TD*%
D27*
%TO.C,Q30*%
X116062500Y-71350000D03*
X116062500Y-73250000D03*
X117937500Y-72300000D03*
%TD*%
D29*
%TO.C,Q44*%
X131437500Y-56250000D03*
X131437500Y-54350000D03*
X129562500Y-55300000D03*
%TD*%
%TO.C,Q39*%
X126937500Y-69250000D03*
X126937500Y-67350000D03*
X125062500Y-68300000D03*
%TD*%
D27*
%TO.C,Q48*%
X129562500Y-71350000D03*
X129562500Y-73250000D03*
X131437500Y-72300000D03*
%TD*%
D23*
%TO.C,Q77*%
X155250000Y-83562500D03*
X153350000Y-83562500D03*
X154300000Y-85437500D03*
%TD*%
D29*
%TO.C,Q19*%
X113437500Y-69250000D03*
X113437500Y-67350000D03*
X111562500Y-68300000D03*
%TD*%
D27*
%TO.C,Q23*%
X111562500Y-71350000D03*
X111562500Y-73250000D03*
X113437500Y-72300000D03*
%TD*%
D28*
%TO.C,R25*%
X117400000Y-52600000D03*
X116400000Y-52600000D03*
%TD*%
D27*
%TO.C,Q42*%
X125062500Y-71350000D03*
X125062500Y-73250000D03*
X126937500Y-72300000D03*
%TD*%
D31*
%TO.C,C4*%
X102150000Y-101250000D03*
X104050000Y-101250000D03*
%TD*%
D27*
%TO.C,Q41*%
X125062500Y-62350000D03*
X125062500Y-64250000D03*
X126937500Y-63300000D03*
%TD*%
%TO.C,Q46*%
X129562500Y-58350000D03*
X129562500Y-60250000D03*
X131437500Y-59300000D03*
%TD*%
D24*
%TO.C,R60*%
X134800000Y-91000000D03*
X134800000Y-92000000D03*
%TD*%
D23*
%TO.C,Q73*%
X159250000Y-83562500D03*
X157350000Y-83562500D03*
X158300000Y-85437500D03*
%TD*%
D32*
%TO.C,J3*%
X161400000Y-96060000D03*
D33*
X161400000Y-98600000D03*
X163940000Y-96060000D03*
X163940000Y-98600000D03*
X166480000Y-96060000D03*
X166480000Y-98600000D03*
X169020000Y-96060000D03*
X169020000Y-98600000D03*
X171560000Y-96060000D03*
X171560000Y-98600000D03*
%TD*%
D25*
%TO.C,R37*%
X120200000Y-112900000D03*
X120200000Y-111900000D03*
%TD*%
D32*
%TO.C,J1*%
X112400000Y-40060000D03*
D33*
X112400000Y-42600000D03*
X114940000Y-40060000D03*
X114940000Y-42600000D03*
X117480000Y-40060000D03*
X117480000Y-42600000D03*
X120020000Y-40060000D03*
X120020000Y-42600000D03*
X122560000Y-40060000D03*
X122560000Y-42600000D03*
X125100000Y-40060000D03*
X125100000Y-42600000D03*
X127640000Y-40060000D03*
X127640000Y-42600000D03*
X130180000Y-40060000D03*
X130180000Y-42600000D03*
%TD*%
D29*
%TO.C,Q2*%
X104837500Y-49050000D03*
X104837500Y-47150000D03*
X102962500Y-48100000D03*
%TD*%
D32*
%TO.C,J6*%
X102975000Y-42150000D03*
D33*
X102975000Y-39610000D03*
%TD*%
D24*
%TO.C,R45*%
X170100000Y-76000000D03*
X170100000Y-77000000D03*
%TD*%
D23*
%TO.C,Q79*%
X167250000Y-64562500D03*
X165350000Y-64562500D03*
X166300000Y-66437500D03*
%TD*%
%TO.C,Q63*%
X151250000Y-64562500D03*
X149350000Y-64562500D03*
X150300000Y-66437500D03*
%TD*%
D29*
%TO.C,Q38*%
X126837500Y-56250000D03*
X126837500Y-54350000D03*
X124962500Y-55300000D03*
%TD*%
D24*
%TO.C,R59*%
X162100000Y-57000000D03*
X162100000Y-58000000D03*
%TD*%
%TO.C,R49*%
X166100000Y-76000000D03*
X166100000Y-77000000D03*
%TD*%
%TO.C,R57*%
X158100000Y-76000000D03*
X158100000Y-77000000D03*
%TD*%
D25*
%TO.C,R46*%
X127200000Y-103800000D03*
X127200000Y-102800000D03*
%TD*%
D24*
%TO.C,R18*%
X163700000Y-49200000D03*
X163700000Y-50200000D03*
%TD*%
D29*
%TO.C,Q5*%
X104437500Y-69250000D03*
X104437500Y-67350000D03*
X102562500Y-68300000D03*
%TD*%
D27*
%TO.C,Q40*%
X125062500Y-58350000D03*
X125062500Y-60250000D03*
X126937500Y-59300000D03*
%TD*%
D24*
%TO.C,R19*%
X112500000Y-81900000D03*
X112500000Y-82900000D03*
%TD*%
D23*
%TO.C,Q64*%
X167250000Y-78762500D03*
X165350000Y-78762500D03*
X166300000Y-80637500D03*
%TD*%
D24*
%TO.C,R68*%
X139900000Y-91000000D03*
X139900000Y-92000000D03*
%TD*%
D32*
%TO.C,J8*%
X146500000Y-40060000D03*
D33*
X146500000Y-42600000D03*
X149040000Y-40060000D03*
X149040000Y-42600000D03*
X151580000Y-40060000D03*
X151580000Y-42600000D03*
X154120000Y-40060000D03*
X154120000Y-42600000D03*
X156660000Y-40060000D03*
X156660000Y-42600000D03*
X159200000Y-40060000D03*
X159200000Y-42600000D03*
X161740000Y-40060000D03*
X161740000Y-42600000D03*
X164280000Y-40060000D03*
X164280000Y-42600000D03*
%TD*%
D23*
%TO.C,Q10*%
X161960000Y-47162500D03*
X160060000Y-47162500D03*
X161010000Y-49037500D03*
%TD*%
D29*
%TO.C,Q11*%
X108837500Y-56250000D03*
X108837500Y-54350000D03*
X106962500Y-55300000D03*
%TD*%
D27*
%TO.C,Q24*%
X111562500Y-75350000D03*
X111562500Y-77250000D03*
X113437500Y-76300000D03*
%TD*%
%TO.C,Q49*%
X129562500Y-75350000D03*
X129562500Y-77250000D03*
X131437500Y-76300000D03*
%TD*%
D24*
%TO.C,R9*%
X163710000Y-52000000D03*
X163710000Y-53000000D03*
%TD*%
D31*
%TO.C,C3*%
X102150000Y-98200000D03*
X104050000Y-98200000D03*
%TD*%
D23*
%TO.C,Q84*%
X147250000Y-78762500D03*
X145350000Y-78762500D03*
X146300000Y-80637500D03*
%TD*%
D32*
%TO.C,J7*%
X170350000Y-73125000D03*
D33*
X167810000Y-73125000D03*
%TD*%
D27*
%TO.C,Q34*%
X120562500Y-58350000D03*
X120562500Y-60250000D03*
X122437500Y-59300000D03*
%TD*%
D25*
%TO.C,R54*%
X132300000Y-103800000D03*
X132300000Y-102800000D03*
%TD*%
D24*
%TO.C,R67*%
X170100000Y-57000000D03*
X170100000Y-58000000D03*
%TD*%
D30*
%TO.C,R17*%
X107500000Y-79000000D03*
X108500000Y-79000000D03*
%TD*%
D24*
%TO.C,R40*%
X120200000Y-81900000D03*
X120200000Y-82900000D03*
%TD*%
D25*
%TO.C,R15*%
X163700000Y-47400000D03*
X163700000Y-46400000D03*
%TD*%
D27*
%TO.C,Q36*%
X120562500Y-71350000D03*
X120562500Y-73250000D03*
X122437500Y-72300000D03*
%TD*%
D23*
%TO.C,Q1*%
X167160000Y-47162500D03*
X165260000Y-47162500D03*
X166210000Y-49037500D03*
%TD*%
D28*
%TO.C,R38*%
X135500000Y-52600000D03*
X134500000Y-52600000D03*
%TD*%
%TO.C,R29*%
X122000000Y-52600000D03*
X121000000Y-52600000D03*
%TD*%
D25*
%TO.C,R14*%
X112500000Y-112900000D03*
X112500000Y-111900000D03*
%TD*%
D30*
%TO.C,R13*%
X103000000Y-79000000D03*
X104000000Y-79000000D03*
%TD*%
D24*
%TO.C,R48*%
X127200000Y-91000000D03*
X127200000Y-92000000D03*
%TD*%
%TO.C,R72*%
X142400000Y-91000000D03*
X142400000Y-92000000D03*
%TD*%
D25*
%TO.C,R42*%
X124600000Y-103800000D03*
X124600000Y-102800000D03*
%TD*%
D30*
%TO.C,R33*%
X125500000Y-79000000D03*
X126500000Y-79000000D03*
%TD*%
D27*
%TO.C,Q28*%
X116062500Y-58350000D03*
X116062500Y-60250000D03*
X117937500Y-59300000D03*
%TD*%
D25*
%TO.C,R50*%
X129700000Y-103800000D03*
X129700000Y-102800000D03*
%TD*%
D23*
%TO.C,Q87*%
X175250000Y-64562500D03*
X173350000Y-64562500D03*
X174300000Y-66437500D03*
%TD*%
D29*
%TO.C,Q4*%
X104437500Y-56250000D03*
X104437500Y-54350000D03*
X102562500Y-55300000D03*
%TD*%
D23*
%TO.C,Q85*%
X147250000Y-83562500D03*
X145350000Y-83562500D03*
X146300000Y-85437500D03*
%TD*%
D25*
%TO.C,R66*%
X139900000Y-103800000D03*
X139900000Y-102800000D03*
%TD*%
D23*
%TO.C,Q3*%
X167160000Y-52162500D03*
X165260000Y-52162500D03*
X166210000Y-54037500D03*
%TD*%
D27*
%TO.C,Q37*%
X120562500Y-75350000D03*
X120562500Y-77250000D03*
X122437500Y-76300000D03*
%TD*%
D23*
%TO.C,Q61*%
X171250000Y-83562500D03*
X169350000Y-83562500D03*
X170300000Y-85437500D03*
%TD*%
D24*
%TO.C,R53*%
X129700000Y-91000000D03*
X129700000Y-92000000D03*
%TD*%
D31*
%TO.C,C1*%
X102150000Y-92100000D03*
X104050000Y-92100000D03*
%TD*%
D30*
%TO.C,R39*%
X134500000Y-79000000D03*
X135500000Y-79000000D03*
%TD*%
D27*
%TO.C,Q17*%
X107062500Y-75350000D03*
X107062500Y-77250000D03*
X108937500Y-76300000D03*
%TD*%
D32*
%TO.C,J2*%
X109400000Y-96060000D03*
D33*
X109400000Y-98600000D03*
X111940000Y-96060000D03*
X111940000Y-98600000D03*
X114480000Y-96060000D03*
X114480000Y-98600000D03*
X117020000Y-96060000D03*
X117020000Y-98600000D03*
X119560000Y-96060000D03*
X119560000Y-98600000D03*
X122100000Y-96060000D03*
X122100000Y-98600000D03*
X124640000Y-96060000D03*
X124640000Y-98600000D03*
X127180000Y-96060000D03*
X127180000Y-98600000D03*
X129720000Y-96060000D03*
X129720000Y-98600000D03*
X132260000Y-96060000D03*
X132260000Y-98600000D03*
X134800000Y-96060000D03*
X134800000Y-98600000D03*
X137340000Y-96060000D03*
X137340000Y-98600000D03*
X139880000Y-96060000D03*
X139880000Y-98600000D03*
X142420000Y-96060000D03*
X142420000Y-98600000D03*
X144960000Y-96060000D03*
X144960000Y-98600000D03*
X147500000Y-96060000D03*
X147500000Y-98600000D03*
X150040000Y-96060000D03*
X150040000Y-98600000D03*
X152580000Y-96060000D03*
X152580000Y-98600000D03*
X155120000Y-96060000D03*
X155120000Y-98600000D03*
X157660000Y-96060000D03*
X157660000Y-98600000D03*
%TD*%
%LPD*%
M02*
