%TF.GenerationSoftware,KiCad,Pcbnew,9.0.7*%
%TF.CreationDate,2026-03-30T23:53:43+02:00*%
%TF.ProjectId,Level_shifter_FPGA_V1.0,4c657665-6c5f-4736-9869-667465725f46,rev?*%
%TF.SameCoordinates,Original*%
%TF.FileFunction,Copper,L1,Top*%
%TF.FilePolarity,Positive*%
%FSLAX46Y46*%
G04 Gerber Fmt 4.6, Leading zero omitted, Abs format (unit mm)*
G04 Created by KiCad (PCBNEW 9.0.7) date 2026-03-30 23:53:43*
%MOMM*%
%LPD*%
G01*
G04 APERTURE LIST*
G04 Aperture macros list*
%AMRoundRect*
0 Rectangle with rounded corners*
0 $1 Rounding radius*
0 $2 $3 $4 $5 $6 $7 $8 $9 X,Y pos of 4 corners*
0 Add a 4 corners polygon primitive as box body*
4,1,4,$2,$3,$4,$5,$6,$7,$8,$9,$2,$3,0*
0 Add four circle primitives for the rounded corners*
1,1,$1+$1,$2,$3*
1,1,$1+$1,$4,$5*
1,1,$1+$1,$6,$7*
1,1,$1+$1,$8,$9*
0 Add four rect primitives between the rounded corners*
20,1,$1+$1,$2,$3,$4,$5,0*
20,1,$1+$1,$4,$5,$6,$7,0*
20,1,$1+$1,$6,$7,$8,$9,0*
20,1,$1+$1,$8,$9,$2,$3,0*%
G04 Aperture macros list end*
%TA.AperFunction,SMDPad,CuDef*%
%ADD10RoundRect,0.220000X0.220000X0.255000X-0.220000X0.255000X-0.220000X-0.255000X0.220000X-0.255000X0*%
%TD*%
%TA.AperFunction,SMDPad,CuDef*%
%ADD11RoundRect,0.220000X-0.255000X0.220000X-0.255000X-0.220000X0.255000X-0.220000X0.255000X0.220000X0*%
%TD*%
%TA.AperFunction,SMDPad,CuDef*%
%ADD12RoundRect,0.248889X-0.311111X-0.626111X0.311111X-0.626111X0.311111X0.626111X-0.311111X0.626111X0*%
%TD*%
%TA.AperFunction,SMDPad,CuDef*%
%ADD13RoundRect,0.248889X0.626111X-0.311111X0.626111X0.311111X-0.626111X0.311111X-0.626111X-0.311111X0*%
%TD*%
%TA.AperFunction,SMDPad,CuDef*%
%ADD14RoundRect,0.150000X-0.150000X0.587500X-0.150000X-0.587500X0.150000X-0.587500X0.150000X0.587500X0*%
%TD*%
%TA.AperFunction,SMDPad,CuDef*%
%ADD15RoundRect,0.140000X-0.170000X0.140000X-0.170000X-0.140000X0.170000X-0.140000X0.170000X0.140000X0*%
%TD*%
%TA.AperFunction,SMDPad,CuDef*%
%ADD16RoundRect,0.140000X0.170000X-0.140000X0.170000X0.140000X-0.170000X0.140000X-0.170000X-0.140000X0*%
%TD*%
%TA.AperFunction,SMDPad,CuDef*%
%ADD17RoundRect,0.150000X-0.587500X-0.150000X0.587500X-0.150000X0.587500X0.150000X-0.587500X0.150000X0*%
%TD*%
%TA.AperFunction,SMDPad,CuDef*%
%ADD18RoundRect,0.140000X0.140000X0.170000X-0.140000X0.170000X-0.140000X-0.170000X0.140000X-0.170000X0*%
%TD*%
%TA.AperFunction,SMDPad,CuDef*%
%ADD19RoundRect,0.150000X0.587500X0.150000X-0.587500X0.150000X-0.587500X-0.150000X0.587500X-0.150000X0*%
%TD*%
%TA.AperFunction,SMDPad,CuDef*%
%ADD20RoundRect,0.140000X-0.140000X-0.170000X0.140000X-0.170000X0.140000X0.170000X-0.140000X0.170000X0*%
%TD*%
%TA.AperFunction,SMDPad,CuDef*%
%ADD21RoundRect,0.250000X-0.250000X-0.475000X0.250000X-0.475000X0.250000X0.475000X-0.250000X0.475000X0*%
%TD*%
%TA.AperFunction,ComponentPad*%
%ADD22R,1.700000X1.700000*%
%TD*%
%TA.AperFunction,ComponentPad*%
%ADD23C,1.700000*%
%TD*%
%TA.AperFunction,ViaPad*%
%ADD24C,1.000000*%
%TD*%
%TA.AperFunction,ViaPad*%
%ADD25C,0.600000*%
%TD*%
%TA.AperFunction,Conductor*%
%ADD26C,0.400000*%
%TD*%
%TA.AperFunction,Conductor*%
%ADD27C,0.200000*%
%TD*%
%TA.AperFunction,Conductor*%
%ADD28C,1.000000*%
%TD*%
G04 APERTURE END LIST*
D10*
%TO.P,D3,1*%
%TO.N,GND*%
X167390000Y-109700000D03*
%TO.P,D3,2*%
%TO.N,Net-(D3-Pad2)*%
X165810000Y-109700000D03*
%TD*%
%TO.P,D2,1*%
%TO.N,GND*%
X155890000Y-109700000D03*
%TO.P,D2,2*%
%TO.N,Net-(D2-Pad2)*%
X154310000Y-109700000D03*
%TD*%
D11*
%TO.P,D1,1*%
%TO.N,GND*%
X180400000Y-42610000D03*
%TO.P,D1,2*%
%TO.N,Net-(D1-Pad2)*%
X180400000Y-44190000D03*
%TD*%
D12*
%TO.P,R24,1*%
%TO.N,VCC*%
X146040000Y-53200000D03*
%TO.P,R24,2*%
%TO.N,CLK*%
X148960000Y-53200000D03*
%TD*%
%TO.P,R22,1*%
%TO.N,VCC*%
X146040000Y-50300000D03*
%TO.P,R22,2*%
%TO.N,Net-(Q20-D)*%
X148960000Y-50300000D03*
%TD*%
D13*
%TO.P,R8,1*%
%TO.N,Net-(J2-Pin_9)*%
X119600000Y-92060000D03*
%TO.P,R8,2*%
%TO.N,D7*%
X119600000Y-89140000D03*
%TD*%
%TO.P,R7,1*%
%TO.N,D6*%
X119600000Y-105560000D03*
%TO.P,R7,2*%
%TO.N,Net-(J2-Pin_10)*%
X119600000Y-102640000D03*
%TD*%
%TO.P,R6,1*%
%TO.N,Net-(J2-Pin_7)*%
X117000000Y-92060000D03*
%TO.P,R6,2*%
%TO.N,D5*%
X117000000Y-89140000D03*
%TD*%
%TO.P,R5,1*%
%TO.N,D4*%
X117100000Y-105560000D03*
%TO.P,R5,2*%
%TO.N,Net-(J2-Pin_8)*%
X117100000Y-102640000D03*
%TD*%
%TO.P,R4,1*%
%TO.N,Net-(J2-Pin_5)*%
X114500000Y-92060000D03*
%TO.P,R4,2*%
%TO.N,D3*%
X114500000Y-89140000D03*
%TD*%
%TO.P,R3,1*%
%TO.N,D2*%
X114500000Y-105560000D03*
%TO.P,R3,2*%
%TO.N,Net-(J2-Pin_6)*%
X114500000Y-102640000D03*
%TD*%
%TO.P,R2,1*%
%TO.N,Net-(J2-Pin_3)*%
X112000000Y-92060000D03*
%TO.P,R2,2*%
%TO.N,D1*%
X112000000Y-89140000D03*
%TD*%
%TO.P,R1,1*%
%TO.N,D0*%
X111900000Y-105560000D03*
%TO.P,R1,2*%
%TO.N,Net-(J2-Pin_4)*%
X111900000Y-102640000D03*
%TD*%
D14*
%TO.P,Q76,1,G*%
%TO.N,A10*%
X155250000Y-78762500D03*
%TO.P,Q76,2,S*%
%TO.N,GND*%
X153350000Y-78762500D03*
%TO.P,Q76,3,D*%
%TO.N,Net-(Q76-D)*%
X154300000Y-80637500D03*
%TD*%
D15*
%TO.P,R28,1*%
%TO.N,3.3V*%
X115100000Y-81900000D03*
%TO.P,R28,2*%
%TO.N,D3*%
X115100000Y-82900000D03*
%TD*%
D16*
%TO.P,R58,1*%
%TO.N,3.3V*%
X134800000Y-103800000D03*
%TO.P,R58,2*%
%TO.N,ADR8*%
X134800000Y-102800000D03*
%TD*%
D17*
%TO.P,Q55,1,G*%
%TO.N,Net-(Q17-G)*%
X134062500Y-75350000D03*
%TO.P,Q55,2,S*%
%TO.N,GND*%
X134062500Y-77250000D03*
%TO.P,Q55,3,D*%
%TO.N,Net-(Q54-S)*%
X135937500Y-76300000D03*
%TD*%
D14*
%TO.P,Q13,1,G*%
%TO.N,Net-(Q10-D)*%
X161960000Y-52162500D03*
%TO.P,Q13,2,S*%
%TO.N,GND*%
X160060000Y-52162500D03*
%TO.P,Q13,3,D*%
%TO.N,RST*%
X161010000Y-54037500D03*
%TD*%
D15*
%TO.P,R64,1*%
%TO.N,3.3V*%
X137300000Y-91000000D03*
%TO.P,R64,2*%
%TO.N,ADR11*%
X137300000Y-92000000D03*
%TD*%
D18*
%TO.P,R12,1*%
%TO.N,VCC*%
X104000000Y-52600000D03*
%TO.P,R12,2*%
%TO.N,Net-(Q4-D)*%
X103000000Y-52600000D03*
%TD*%
D14*
%TO.P,Q82,1,G*%
%TO.N,A13*%
X171250000Y-59762500D03*
%TO.P,Q82,2,S*%
%TO.N,GND*%
X169350000Y-59762500D03*
%TO.P,Q82,3,D*%
%TO.N,Net-(Q82-D)*%
X170300000Y-61637500D03*
%TD*%
D19*
%TO.P,Q51,1,G*%
%TO.N,Buss7*%
X135937500Y-69250000D03*
%TO.P,Q51,2,S*%
%TO.N,GND*%
X135937500Y-67350000D03*
%TO.P,Q51,3,D*%
%TO.N,Net-(Q51-D)*%
X134062500Y-68300000D03*
%TD*%
D15*
%TO.P,R63,1*%
%TO.N,VCC*%
X166100000Y-57000000D03*
%TO.P,R63,2*%
%TO.N,Net-(Q78-D)*%
X166100000Y-58000000D03*
%TD*%
D20*
%TO.P,R36,1*%
%TO.N,VCC*%
X130000000Y-79000000D03*
%TO.P,R36,2*%
%TO.N,Net-(Q45-D)*%
X131000000Y-79000000D03*
%TD*%
D14*
%TO.P,Q69,1,G*%
%TO.N,Net-(Q68-D)*%
X163250000Y-83562500D03*
%TO.P,Q69,2,S*%
%TO.N,GND*%
X161350000Y-83562500D03*
%TO.P,Q69,3,D*%
%TO.N,ADR6*%
X162300000Y-85437500D03*
%TD*%
D18*
%TO.P,R32,1*%
%TO.N,VCC*%
X126400000Y-52600000D03*
%TO.P,R32,2*%
%TO.N,Net-(Q38-D)*%
X125400000Y-52600000D03*
%TD*%
D21*
%TO.P,C6,1*%
%TO.N,VCC*%
X178350000Y-63350000D03*
%TO.P,C6,2*%
%TO.N,GND*%
X180250000Y-63350000D03*
%TD*%
D19*
%TO.P,Q18,1,G*%
%TO.N,D2*%
X113437500Y-56250000D03*
%TO.P,Q18,2,S*%
%TO.N,GND*%
X113437500Y-54350000D03*
%TO.P,Q18,3,D*%
%TO.N,Net-(Q18-D)*%
X111562500Y-55300000D03*
%TD*%
D20*
%TO.P,R74,1*%
%TO.N,5V*%
X163000000Y-109700000D03*
%TO.P,R74,2*%
%TO.N,Net-(D3-Pad2)*%
X164000000Y-109700000D03*
%TD*%
D16*
%TO.P,R70,1*%
%TO.N,3.3V*%
X142400000Y-103800000D03*
%TO.P,R70,2*%
%TO.N,ADR14*%
X142400000Y-102800000D03*
%TD*%
D15*
%TO.P,R55,1*%
%TO.N,VCC*%
X158100000Y-57000000D03*
%TO.P,R55,2*%
%TO.N,Net-(Q70-D)*%
X158100000Y-58000000D03*
%TD*%
D14*
%TO.P,Q86,1,G*%
%TO.N,A15*%
X175250000Y-59762500D03*
%TO.P,Q86,2,S*%
%TO.N,GND*%
X173350000Y-59762500D03*
%TO.P,Q86,3,D*%
%TO.N,Net-(Q86-D)*%
X174300000Y-61637500D03*
%TD*%
%TO.P,Q80,1,G*%
%TO.N,A12*%
X151250000Y-78762500D03*
%TO.P,Q80,2,S*%
%TO.N,GND*%
X149350000Y-78762500D03*
%TO.P,Q80,3,D*%
%TO.N,Net-(Q80-D)*%
X150300000Y-80637500D03*
%TD*%
D15*
%TO.P,R56,1*%
%TO.N,3.3V*%
X132300000Y-91000000D03*
%TO.P,R56,2*%
%TO.N,ADR7*%
X132300000Y-92000000D03*
%TD*%
%TO.P,R61,1*%
%TO.N,VCC*%
X154100000Y-76000000D03*
%TO.P,R61,2*%
%TO.N,Net-(Q76-D)*%
X154100000Y-77000000D03*
%TD*%
D17*
%TO.P,Q53,1,G*%
%TO.N,R{slash}W*%
X134062500Y-62350000D03*
%TO.P,Q53,2,S*%
%TO.N,GND*%
X134062500Y-64250000D03*
%TO.P,Q53,3,D*%
%TO.N,Net-(Q52-S)*%
X135937500Y-63300000D03*
%TD*%
D14*
%TO.P,Q59,1,G*%
%TO.N,Net-(Q58-D)*%
X147250000Y-64562500D03*
%TO.P,Q59,2,S*%
%TO.N,GND*%
X145350000Y-64562500D03*
%TO.P,Q59,3,D*%
%TO.N,ADR1*%
X146300000Y-66437500D03*
%TD*%
D15*
%TO.P,R65,1*%
%TO.N,VCC*%
X150100000Y-76000000D03*
%TO.P,R65,2*%
%TO.N,Net-(Q80-D)*%
X150100000Y-77000000D03*
%TD*%
D19*
%TO.P,Q12,1,G*%
%TO.N,Buss1*%
X108937500Y-69250000D03*
%TO.P,Q12,2,S*%
%TO.N,GND*%
X108937500Y-67350000D03*
%TO.P,Q12,3,D*%
%TO.N,Net-(Q12-D)*%
X107062500Y-68300000D03*
%TD*%
D15*
%TO.P,R47,1*%
%TO.N,VCC*%
X150100000Y-57000000D03*
%TO.P,R47,2*%
%TO.N,Net-(Q62-D)*%
X150100000Y-58000000D03*
%TD*%
D18*
%TO.P,R16,1*%
%TO.N,VCC*%
X108400000Y-52500000D03*
%TO.P,R16,2*%
%TO.N,Net-(Q11-D)*%
X107400000Y-52500000D03*
%TD*%
D15*
%TO.P,R43,1*%
%TO.N,VCC*%
X146100000Y-57000000D03*
%TO.P,R43,2*%
%TO.N,Net-(Q58-D)*%
X146100000Y-58000000D03*
%TD*%
D21*
%TO.P,C8,1*%
%TO.N,VCC*%
X178350000Y-69450000D03*
%TO.P,C8,2*%
%TO.N,GND*%
X180250000Y-69450000D03*
%TD*%
D14*
%TO.P,Q68,1,G*%
%TO.N,A6*%
X163250000Y-78762500D03*
%TO.P,Q68,2,S*%
%TO.N,GND*%
X161350000Y-78762500D03*
%TO.P,Q68,3,D*%
%TO.N,Net-(Q68-D)*%
X162300000Y-80637500D03*
%TD*%
D17*
%TO.P,Q6,1,G*%
%TO.N,Net-(Q4-D)*%
X102562500Y-58350000D03*
%TO.P,Q6,2,S*%
%TO.N,Net-(Q6-S)*%
X102562500Y-60250000D03*
%TO.P,Q6,3,D*%
%TO.N,Buss0*%
X104437500Y-59300000D03*
%TD*%
%TO.P,Q14,1,G*%
%TO.N,Net-(Q11-D)*%
X107062500Y-58350000D03*
%TO.P,Q14,2,S*%
%TO.N,Net-(Q14-S)*%
X107062500Y-60250000D03*
%TO.P,Q14,3,D*%
%TO.N,Buss1*%
X108937500Y-59300000D03*
%TD*%
D16*
%TO.P,R27,1*%
%TO.N,VCC*%
X180400000Y-46900000D03*
%TO.P,R27,2*%
%TO.N,Net-(D1-Pad2)*%
X180400000Y-45900000D03*
%TD*%
D14*
%TO.P,Q60,1,G*%
%TO.N,A2*%
X171250000Y-78762500D03*
%TO.P,Q60,2,S*%
%TO.N,GND*%
X169350000Y-78762500D03*
%TO.P,Q60,3,D*%
%TO.N,Net-(Q60-D)*%
X170300000Y-80637500D03*
%TD*%
D17*
%TO.P,Q29,1,G*%
%TO.N,R{slash}W*%
X116062500Y-62350000D03*
%TO.P,Q29,2,S*%
%TO.N,GND*%
X116062500Y-64250000D03*
%TO.P,Q29,3,D*%
%TO.N,Net-(Q28-S)*%
X117937500Y-63300000D03*
%TD*%
D15*
%TO.P,R51,1*%
%TO.N,VCC*%
X154100000Y-57000000D03*
%TO.P,R51,2*%
%TO.N,Net-(Q66-D)*%
X154100000Y-58000000D03*
%TD*%
D17*
%TO.P,Q8,1,G*%
%TO.N,Net-(Q5-D)*%
X102562500Y-71350000D03*
%TO.P,Q8,2,S*%
%TO.N,Net-(Q8-S)*%
X102562500Y-73250000D03*
%TO.P,Q8,3,D*%
%TO.N,D0*%
X104437500Y-72300000D03*
%TD*%
D14*
%TO.P,Q56,1,G*%
%TO.N,A0*%
X175250000Y-78762500D03*
%TO.P,Q56,2,S*%
%TO.N,GND*%
X173350000Y-78762500D03*
%TO.P,Q56,3,D*%
%TO.N,Net-(Q56-D)*%
X174300000Y-80637500D03*
%TD*%
D15*
%TO.P,R71,1*%
%TO.N,VCC*%
X174100000Y-57000000D03*
%TO.P,R71,2*%
%TO.N,Net-(Q86-D)*%
X174100000Y-58000000D03*
%TD*%
%TO.P,R41,1*%
%TO.N,VCC*%
X174300000Y-76000000D03*
%TO.P,R41,2*%
%TO.N,Net-(Q56-D)*%
X174300000Y-77000000D03*
%TD*%
D20*
%TO.P,R21,1*%
%TO.N,VCC*%
X112000000Y-79000000D03*
%TO.P,R21,2*%
%TO.N,Net-(Q19-D)*%
X113000000Y-79000000D03*
%TD*%
D14*
%TO.P,Q65,1,G*%
%TO.N,Net-(Q64-D)*%
X167250000Y-83562500D03*
%TO.P,Q65,2,S*%
%TO.N,GND*%
X165350000Y-83562500D03*
%TO.P,Q65,3,D*%
%TO.N,ADR4*%
X166300000Y-85437500D03*
%TD*%
D15*
%TO.P,R69,1*%
%TO.N,VCC*%
X146100000Y-76000000D03*
%TO.P,R69,2*%
%TO.N,Net-(Q84-D)*%
X146100000Y-77000000D03*
%TD*%
D14*
%TO.P,Q67,1,G*%
%TO.N,Net-(Q66-D)*%
X155250000Y-64562500D03*
%TO.P,Q67,2,S*%
%TO.N,GND*%
X153350000Y-64562500D03*
%TO.P,Q67,3,D*%
%TO.N,ADR5*%
X154300000Y-66437500D03*
%TD*%
D15*
%TO.P,R34,1*%
%TO.N,3.3V*%
X117600000Y-81900000D03*
%TO.P,R34,2*%
%TO.N,D5*%
X117600000Y-82900000D03*
%TD*%
D14*
%TO.P,Q70,1,G*%
%TO.N,A7*%
X159250000Y-59762500D03*
%TO.P,Q70,2,S*%
%TO.N,GND*%
X157350000Y-59762500D03*
%TO.P,Q70,3,D*%
%TO.N,Net-(Q70-D)*%
X158300000Y-61637500D03*
%TD*%
%TO.P,Q75,1,G*%
%TO.N,Net-(Q74-D)*%
X163250000Y-64562500D03*
%TO.P,Q75,2,S*%
%TO.N,GND*%
X161350000Y-64562500D03*
%TO.P,Q75,3,D*%
%TO.N,ADR9*%
X162300000Y-66437500D03*
%TD*%
%TO.P,Q78,1,G*%
%TO.N,A11*%
X167250000Y-59762500D03*
%TO.P,Q78,2,S*%
%TO.N,GND*%
X165350000Y-59762500D03*
%TO.P,Q78,3,D*%
%TO.N,Net-(Q78-D)*%
X166300000Y-61637500D03*
%TD*%
D19*
%TO.P,Q45,1,G*%
%TO.N,Buss6*%
X131437500Y-69250000D03*
%TO.P,Q45,2,S*%
%TO.N,GND*%
X131437500Y-67350000D03*
%TO.P,Q45,3,D*%
%TO.N,Net-(Q45-D)*%
X129562500Y-68300000D03*
%TD*%
D14*
%TO.P,Q57,1,G*%
%TO.N,Net-(Q56-D)*%
X175250000Y-83562500D03*
%TO.P,Q57,2,S*%
%TO.N,GND*%
X173350000Y-83562500D03*
%TO.P,Q57,3,D*%
%TO.N,ADR0*%
X174300000Y-85437500D03*
%TD*%
D19*
%TO.P,Q50,1,G*%
%TO.N,D7*%
X135937500Y-56250000D03*
%TO.P,Q50,2,S*%
%TO.N,GND*%
X135937500Y-54350000D03*
%TO.P,Q50,3,D*%
%TO.N,Net-(Q50-D)*%
X134062500Y-55300000D03*
%TD*%
D15*
%TO.P,R44,1*%
%TO.N,3.3V*%
X124600000Y-91000000D03*
%TO.P,R44,2*%
%TO.N,ADR1*%
X124600000Y-92000000D03*
%TD*%
D20*
%TO.P,R26,1*%
%TO.N,VCC*%
X116500000Y-79000000D03*
%TO.P,R26,2*%
%TO.N,Net-(Q27-D)*%
X117500000Y-79000000D03*
%TD*%
D17*
%TO.P,Q21,1,G*%
%TO.N,Net-(Q18-D)*%
X111562500Y-58350000D03*
%TO.P,Q21,2,S*%
%TO.N,Net-(Q21-S)*%
X111562500Y-60250000D03*
%TO.P,Q21,3,D*%
%TO.N,Buss2*%
X113437500Y-59300000D03*
%TD*%
%TO.P,Q47,1,G*%
%TO.N,R{slash}W*%
X129562500Y-62350000D03*
%TO.P,Q47,2,S*%
%TO.N,GND*%
X129562500Y-64250000D03*
%TO.P,Q47,3,D*%
%TO.N,Net-(Q46-S)*%
X131437500Y-63300000D03*
%TD*%
D16*
%TO.P,R31,1*%
%TO.N,3.3V*%
X117600000Y-112900000D03*
%TO.P,R31,2*%
%TO.N,D4*%
X117600000Y-111900000D03*
%TD*%
D14*
%TO.P,Q25,1,G*%
%TO.N,Net-(Q20-D)*%
X157250000Y-52562500D03*
%TO.P,Q25,2,S*%
%TO.N,GND*%
X155350000Y-52562500D03*
%TO.P,Q25,3,D*%
%TO.N,CLK*%
X156300000Y-54437500D03*
%TD*%
%TO.P,Q81,1,G*%
%TO.N,Net-(Q80-D)*%
X151250000Y-83562500D03*
%TO.P,Q81,2,S*%
%TO.N,GND*%
X149350000Y-83562500D03*
%TO.P,Q81,3,D*%
%TO.N,ADR12*%
X150300000Y-85437500D03*
%TD*%
D17*
%TO.P,Q22,1,G*%
%TO.N,R{slash}W*%
X111562500Y-62350000D03*
%TO.P,Q22,2,S*%
%TO.N,GND*%
X111562500Y-64250000D03*
%TO.P,Q22,3,D*%
%TO.N,Net-(Q21-S)*%
X113437500Y-63300000D03*
%TD*%
D16*
%TO.P,R23,1*%
%TO.N,3.3V*%
X115100000Y-112900000D03*
%TO.P,R23,2*%
%TO.N,D2*%
X115100000Y-111900000D03*
%TD*%
D19*
%TO.P,Q32,1,G*%
%TO.N,D4*%
X122437500Y-56250000D03*
%TO.P,Q32,2,S*%
%TO.N,GND*%
X122437500Y-54350000D03*
%TO.P,Q32,3,D*%
%TO.N,Net-(Q32-D)*%
X120562500Y-55300000D03*
%TD*%
D22*
%TO.P,J5,1,Pin_1*%
%TO.N,VCC*%
X173450500Y-51550500D03*
D23*
%TO.P,J5,2,Pin_2*%
%TO.N,GND*%
X175990500Y-51550500D03*
%TD*%
D21*
%TO.P,C5,1*%
%TO.N,VCC*%
X178350000Y-60300000D03*
%TO.P,C5,2*%
%TO.N,GND*%
X180250000Y-60300000D03*
%TD*%
D20*
%TO.P,R30,1*%
%TO.N,VCC*%
X121000000Y-79000000D03*
%TO.P,R30,2*%
%TO.N,Net-(Q33-D)*%
X122000000Y-79000000D03*
%TD*%
D16*
%TO.P,R62,1*%
%TO.N,3.3V*%
X137300000Y-103800000D03*
%TO.P,R62,2*%
%TO.N,ADR10*%
X137300000Y-102800000D03*
%TD*%
D19*
%TO.P,Q33,1,G*%
%TO.N,Buss4*%
X122537500Y-69250000D03*
%TO.P,Q33,2,S*%
%TO.N,GND*%
X122537500Y-67350000D03*
%TO.P,Q33,3,D*%
%TO.N,Net-(Q33-D)*%
X120662500Y-68300000D03*
%TD*%
D14*
%TO.P,Q72,1,G*%
%TO.N,A8*%
X159250000Y-78762500D03*
%TO.P,Q72,2,S*%
%TO.N,GND*%
X157350000Y-78762500D03*
%TO.P,Q72,3,D*%
%TO.N,Net-(Q72-D)*%
X158300000Y-80637500D03*
%TD*%
%TO.P,Q58,1,G*%
%TO.N,A1*%
X147250000Y-59762500D03*
%TO.P,Q58,2,S*%
%TO.N,GND*%
X145350000Y-59762500D03*
%TO.P,Q58,3,D*%
%TO.N,Net-(Q58-D)*%
X146300000Y-61637500D03*
%TD*%
D17*
%TO.P,Q54,1,G*%
%TO.N,Net-(Q51-D)*%
X134062500Y-71350000D03*
%TO.P,Q54,2,S*%
%TO.N,Net-(Q54-S)*%
X134062500Y-73250000D03*
%TO.P,Q54,3,D*%
%TO.N,D7*%
X135937500Y-72300000D03*
%TD*%
D21*
%TO.P,C2,1*%
%TO.N,VCC*%
X102150000Y-95150000D03*
%TO.P,C2,2*%
%TO.N,GND*%
X104050000Y-95150000D03*
%TD*%
D15*
%TO.P,R52,1*%
%TO.N,VCC*%
X162100000Y-76000000D03*
%TO.P,R52,2*%
%TO.N,Net-(Q68-D)*%
X162100000Y-77000000D03*
%TD*%
D21*
%TO.P,C7,1*%
%TO.N,VCC*%
X178350000Y-66400000D03*
%TO.P,C7,2*%
%TO.N,GND*%
X180250000Y-66400000D03*
%TD*%
D14*
%TO.P,Q83,1,G*%
%TO.N,Net-(Q82-D)*%
X171250000Y-64562500D03*
%TO.P,Q83,2,S*%
%TO.N,GND*%
X169350000Y-64562500D03*
%TO.P,Q83,3,D*%
%TO.N,ADR13*%
X170300000Y-66437500D03*
%TD*%
D17*
%TO.P,Q16,1,G*%
%TO.N,Net-(Q12-D)*%
X107062500Y-71350000D03*
%TO.P,Q16,2,S*%
%TO.N,Net-(Q16-S)*%
X107062500Y-73250000D03*
%TO.P,Q16,3,D*%
%TO.N,D1*%
X108937500Y-72300000D03*
%TD*%
D14*
%TO.P,Q71,1,G*%
%TO.N,Net-(Q70-D)*%
X159250000Y-64562500D03*
%TO.P,Q71,2,S*%
%TO.N,GND*%
X157350000Y-64562500D03*
%TO.P,Q71,3,D*%
%TO.N,ADR7*%
X158300000Y-66437500D03*
%TD*%
D17*
%TO.P,Q52,1,G*%
%TO.N,Net-(Q50-D)*%
X134062500Y-58350000D03*
%TO.P,Q52,2,S*%
%TO.N,Net-(Q52-S)*%
X134062500Y-60250000D03*
%TO.P,Q52,3,D*%
%TO.N,Buss7*%
X135937500Y-59300000D03*
%TD*%
D22*
%TO.P,J4,1,Pin_1*%
%TO.N,GND*%
X179400000Y-83540000D03*
D23*
%TO.P,J4,2,Pin_2*%
%TO.N,3.3V*%
X181940000Y-83540000D03*
%TO.P,J4,3,Pin_3*%
%TO.N,GND*%
X179400000Y-81000000D03*
%TO.P,J4,4,Pin_4*%
%TO.N,5V*%
X181940000Y-81000000D03*
%TO.P,J4,5,Pin_5*%
%TO.N,GND*%
X179400000Y-78460000D03*
%TO.P,J4,6,Pin_6*%
%TO.N,VCC*%
X181940000Y-78460000D03*
%TD*%
D17*
%TO.P,Q43,1,G*%
%TO.N,Net-(Q17-G)*%
X125062500Y-75350000D03*
%TO.P,Q43,2,S*%
%TO.N,GND*%
X125062500Y-77250000D03*
%TO.P,Q43,3,D*%
%TO.N,Net-(Q42-S)*%
X126937500Y-76300000D03*
%TD*%
%TO.P,Q15,1,G*%
%TO.N,R{slash}W*%
X107062500Y-62350000D03*
%TO.P,Q15,2,S*%
%TO.N,GND*%
X107062500Y-64250000D03*
%TO.P,Q15,3,D*%
%TO.N,Net-(Q14-S)*%
X108937500Y-63300000D03*
%TD*%
D18*
%TO.P,R20,1*%
%TO.N,VCC*%
X113000000Y-52600000D03*
%TO.P,R20,2*%
%TO.N,Net-(Q18-D)*%
X112000000Y-52600000D03*
%TD*%
D15*
%TO.P,R11,1*%
%TO.N,3.3V*%
X147500000Y-90400000D03*
%TO.P,R11,2*%
%TO.N,RW L*%
X147500000Y-91400000D03*
%TD*%
D14*
%TO.P,Q66,1,G*%
%TO.N,A5*%
X155250000Y-59762500D03*
%TO.P,Q66,2,S*%
%TO.N,GND*%
X153350000Y-59762500D03*
%TO.P,Q66,3,D*%
%TO.N,Net-(Q66-D)*%
X154300000Y-61637500D03*
%TD*%
D20*
%TO.P,R10,1*%
%TO.N,VCC*%
X103400000Y-45600000D03*
%TO.P,R10,2*%
%TO.N,Net-(Q17-G)*%
X104400000Y-45600000D03*
%TD*%
%TO.P,R73,1*%
%TO.N,3.3V*%
X151400000Y-109700000D03*
%TO.P,R73,2*%
%TO.N,Net-(D2-Pad2)*%
X152400000Y-109700000D03*
%TD*%
D14*
%TO.P,Q74,1,G*%
%TO.N,A9*%
X163250000Y-59762500D03*
%TO.P,Q74,2,S*%
%TO.N,GND*%
X161350000Y-59762500D03*
%TO.P,Q74,3,D*%
%TO.N,Net-(Q74-D)*%
X162300000Y-61637500D03*
%TD*%
%TO.P,Q62,1,G*%
%TO.N,A3*%
X151250000Y-59762500D03*
%TO.P,Q62,2,S*%
%TO.N,GND*%
X149350000Y-59762500D03*
%TO.P,Q62,3,D*%
%TO.N,Net-(Q62-D)*%
X150300000Y-61637500D03*
%TD*%
D17*
%TO.P,Q35,1,G*%
%TO.N,R{slash}W*%
X120562500Y-62350000D03*
%TO.P,Q35,2,S*%
%TO.N,GND*%
X120562500Y-64250000D03*
%TO.P,Q35,3,D*%
%TO.N,Net-(Q34-S)*%
X122437500Y-63300000D03*
%TD*%
%TO.P,Q31,1,G*%
%TO.N,Net-(Q17-G)*%
X116062500Y-75350000D03*
%TO.P,Q31,2,S*%
%TO.N,GND*%
X116062500Y-77250000D03*
%TO.P,Q31,3,D*%
%TO.N,Net-(Q30-S)*%
X117937500Y-76300000D03*
%TD*%
D19*
%TO.P,Q27,1,G*%
%TO.N,Buss3*%
X117937500Y-69250000D03*
%TO.P,Q27,2,S*%
%TO.N,GND*%
X117937500Y-67350000D03*
%TO.P,Q27,3,D*%
%TO.N,Net-(Q27-D)*%
X116062500Y-68300000D03*
%TD*%
D17*
%TO.P,Q7,1,G*%
%TO.N,R{slash}W*%
X102562500Y-62350000D03*
%TO.P,Q7,2,S*%
%TO.N,GND*%
X102562500Y-64250000D03*
%TO.P,Q7,3,D*%
%TO.N,Net-(Q6-S)*%
X104437500Y-63300000D03*
%TD*%
D14*
%TO.P,Q20,1,G*%
%TO.N,CLK L*%
X157250000Y-48462500D03*
%TO.P,Q20,2,S*%
%TO.N,GND*%
X155350000Y-48462500D03*
%TO.P,Q20,3,D*%
%TO.N,Net-(Q20-D)*%
X156300000Y-50337500D03*
%TD*%
D18*
%TO.P,R35,1*%
%TO.N,VCC*%
X131000000Y-52600000D03*
%TO.P,R35,2*%
%TO.N,Net-(Q44-D)*%
X130000000Y-52600000D03*
%TD*%
D17*
%TO.P,Q9,1,G*%
%TO.N,Net-(Q17-G)*%
X102562500Y-75350000D03*
%TO.P,Q9,2,S*%
%TO.N,GND*%
X102562500Y-77250000D03*
%TO.P,Q9,3,D*%
%TO.N,Net-(Q8-S)*%
X104437500Y-76300000D03*
%TD*%
D19*
%TO.P,Q26,1,G*%
%TO.N,D3*%
X117837500Y-56250000D03*
%TO.P,Q26,2,S*%
%TO.N,GND*%
X117837500Y-54350000D03*
%TO.P,Q26,3,D*%
%TO.N,Net-(Q26-D)*%
X115962500Y-55300000D03*
%TD*%
D17*
%TO.P,Q30,1,G*%
%TO.N,Net-(Q27-D)*%
X116062500Y-71350000D03*
%TO.P,Q30,2,S*%
%TO.N,Net-(Q30-S)*%
X116062500Y-73250000D03*
%TO.P,Q30,3,D*%
%TO.N,D3*%
X117937500Y-72300000D03*
%TD*%
D19*
%TO.P,Q44,1,G*%
%TO.N,D6*%
X131437500Y-56250000D03*
%TO.P,Q44,2,S*%
%TO.N,GND*%
X131437500Y-54350000D03*
%TO.P,Q44,3,D*%
%TO.N,Net-(Q44-D)*%
X129562500Y-55300000D03*
%TD*%
%TO.P,Q39,1,G*%
%TO.N,Buss5*%
X126937500Y-69250000D03*
%TO.P,Q39,2,S*%
%TO.N,GND*%
X126937500Y-67350000D03*
%TO.P,Q39,3,D*%
%TO.N,Net-(Q39-D)*%
X125062500Y-68300000D03*
%TD*%
D17*
%TO.P,Q48,1,G*%
%TO.N,Net-(Q45-D)*%
X129562500Y-71350000D03*
%TO.P,Q48,2,S*%
%TO.N,Net-(Q48-S)*%
X129562500Y-73250000D03*
%TO.P,Q48,3,D*%
%TO.N,D6*%
X131437500Y-72300000D03*
%TD*%
D14*
%TO.P,Q77,1,G*%
%TO.N,Net-(Q76-D)*%
X155250000Y-83562500D03*
%TO.P,Q77,2,S*%
%TO.N,GND*%
X153350000Y-83562500D03*
%TO.P,Q77,3,D*%
%TO.N,ADR10*%
X154300000Y-85437500D03*
%TD*%
D19*
%TO.P,Q19,1,G*%
%TO.N,Buss2*%
X113437500Y-69250000D03*
%TO.P,Q19,2,S*%
%TO.N,GND*%
X113437500Y-67350000D03*
%TO.P,Q19,3,D*%
%TO.N,Net-(Q19-D)*%
X111562500Y-68300000D03*
%TD*%
D17*
%TO.P,Q23,1,G*%
%TO.N,Net-(Q19-D)*%
X111562500Y-71350000D03*
%TO.P,Q23,2,S*%
%TO.N,Net-(Q23-S)*%
X111562500Y-73250000D03*
%TO.P,Q23,3,D*%
%TO.N,D2*%
X113437500Y-72300000D03*
%TD*%
D18*
%TO.P,R25,1*%
%TO.N,VCC*%
X117400000Y-52600000D03*
%TO.P,R25,2*%
%TO.N,Net-(Q26-D)*%
X116400000Y-52600000D03*
%TD*%
D17*
%TO.P,Q42,1,G*%
%TO.N,Net-(Q39-D)*%
X125062500Y-71350000D03*
%TO.P,Q42,2,S*%
%TO.N,Net-(Q42-S)*%
X125062500Y-73250000D03*
%TO.P,Q42,3,D*%
%TO.N,D5*%
X126937500Y-72300000D03*
%TD*%
D21*
%TO.P,C4,1*%
%TO.N,VCC*%
X102150000Y-101250000D03*
%TO.P,C4,2*%
%TO.N,GND*%
X104050000Y-101250000D03*
%TD*%
D17*
%TO.P,Q41,1,G*%
%TO.N,R{slash}W*%
X125062500Y-62350000D03*
%TO.P,Q41,2,S*%
%TO.N,GND*%
X125062500Y-64250000D03*
%TO.P,Q41,3,D*%
%TO.N,Net-(Q40-S)*%
X126937500Y-63300000D03*
%TD*%
%TO.P,Q46,1,G*%
%TO.N,Net-(Q44-D)*%
X129562500Y-58350000D03*
%TO.P,Q46,2,S*%
%TO.N,Net-(Q46-S)*%
X129562500Y-60250000D03*
%TO.P,Q46,3,D*%
%TO.N,Buss6*%
X131437500Y-59300000D03*
%TD*%
D15*
%TO.P,R60,1*%
%TO.N,3.3V*%
X134800000Y-91000000D03*
%TO.P,R60,2*%
%TO.N,ADR9*%
X134800000Y-92000000D03*
%TD*%
D14*
%TO.P,Q73,1,G*%
%TO.N,Net-(Q72-D)*%
X159250000Y-83562500D03*
%TO.P,Q73,2,S*%
%TO.N,GND*%
X157350000Y-83562500D03*
%TO.P,Q73,3,D*%
%TO.N,ADR8*%
X158300000Y-85437500D03*
%TD*%
D22*
%TO.P,J3,1,Pin_1*%
%TO.N,Net-(J2-Pin_39)*%
X161400000Y-96060000D03*
D23*
%TO.P,J3,2,Pin_2*%
%TO.N,Net-(J2-Pin_40)*%
X161400000Y-98600000D03*
%TO.P,J3,3,Pin_3*%
%TO.N,Net-(J2-Pin_37)*%
X163940000Y-96060000D03*
%TO.P,J3,4,Pin_4*%
%TO.N,Net-(J2-Pin_38)*%
X163940000Y-98600000D03*
%TO.P,J3,5,Pin_5*%
%TO.N,Net-(J2-Pin_35)*%
X166480000Y-96060000D03*
%TO.P,J3,6,Pin_6*%
%TO.N,Net-(J2-Pin_36)*%
X166480000Y-98600000D03*
%TO.P,J3,7,Pin_7*%
%TO.N,Net-(J2-Pin_1)*%
X169020000Y-96060000D03*
%TO.P,J3,8,Pin_8*%
%TO.N,Net-(J2-Pin_34)*%
X169020000Y-98600000D03*
%TO.P,J3,9,Pin_9*%
%TO.N,GND*%
X171560000Y-96060000D03*
%TO.P,J3,10,Pin_10*%
%TO.N,Net-(J2-Pin_2)*%
X171560000Y-98600000D03*
%TD*%
D16*
%TO.P,R37,1*%
%TO.N,3.3V*%
X120200000Y-112900000D03*
%TO.P,R37,2*%
%TO.N,D6*%
X120200000Y-111900000D03*
%TD*%
D22*
%TO.P,J1,1,Pin_1*%
%TO.N,A7*%
X112400000Y-40060000D03*
D23*
%TO.P,J1,2,Pin_2*%
%TO.N,A15*%
X112400000Y-42600000D03*
%TO.P,J1,3,Pin_3*%
%TO.N,A6*%
X114940000Y-40060000D03*
%TO.P,J1,4,Pin_4*%
%TO.N,A14*%
X114940000Y-42600000D03*
%TO.P,J1,5,Pin_5*%
%TO.N,A5*%
X117480000Y-40060000D03*
%TO.P,J1,6,Pin_6*%
%TO.N,A13*%
X117480000Y-42600000D03*
%TO.P,J1,7,Pin_7*%
%TO.N,A4*%
X120020000Y-40060000D03*
%TO.P,J1,8,Pin_8*%
%TO.N,A12*%
X120020000Y-42600000D03*
%TO.P,J1,9,Pin_9*%
%TO.N,A3*%
X122560000Y-40060000D03*
%TO.P,J1,10,Pin_10*%
%TO.N,A11*%
X122560000Y-42600000D03*
%TO.P,J1,11,Pin_11*%
%TO.N,A2*%
X125100000Y-40060000D03*
%TO.P,J1,12,Pin_12*%
%TO.N,A10*%
X125100000Y-42600000D03*
%TO.P,J1,13,Pin_13*%
%TO.N,A1*%
X127640000Y-40060000D03*
%TO.P,J1,14,Pin_14*%
%TO.N,A9*%
X127640000Y-42600000D03*
%TO.P,J1,15,Pin_15*%
%TO.N,A0*%
X130180000Y-40060000D03*
%TO.P,J1,16,Pin_16*%
%TO.N,A8*%
X130180000Y-42600000D03*
%TD*%
D19*
%TO.P,Q2,1,G*%
%TO.N,R{slash}W*%
X104837500Y-49050000D03*
%TO.P,Q2,2,S*%
%TO.N,GND*%
X104837500Y-47150000D03*
%TO.P,Q2,3,D*%
%TO.N,Net-(Q17-G)*%
X102962500Y-48100000D03*
%TD*%
D22*
%TO.P,J6,1,Pin_1*%
%TO.N,VCC*%
X102975000Y-42150000D03*
D23*
%TO.P,J6,2,Pin_2*%
%TO.N,GND*%
X102975000Y-39610000D03*
%TD*%
D15*
%TO.P,R45,1*%
%TO.N,VCC*%
X170100000Y-76000000D03*
%TO.P,R45,2*%
%TO.N,Net-(Q60-D)*%
X170100000Y-77000000D03*
%TD*%
D14*
%TO.P,Q79,1,G*%
%TO.N,Net-(Q78-D)*%
X167250000Y-64562500D03*
%TO.P,Q79,2,S*%
%TO.N,GND*%
X165350000Y-64562500D03*
%TO.P,Q79,3,D*%
%TO.N,ADR11*%
X166300000Y-66437500D03*
%TD*%
%TO.P,Q63,1,G*%
%TO.N,Net-(Q62-D)*%
X151250000Y-64562500D03*
%TO.P,Q63,2,S*%
%TO.N,GND*%
X149350000Y-64562500D03*
%TO.P,Q63,3,D*%
%TO.N,ADR3*%
X150300000Y-66437500D03*
%TD*%
D19*
%TO.P,Q38,1,G*%
%TO.N,D5*%
X126837500Y-56250000D03*
%TO.P,Q38,2,S*%
%TO.N,GND*%
X126837500Y-54350000D03*
%TO.P,Q38,3,D*%
%TO.N,Net-(Q38-D)*%
X124962500Y-55300000D03*
%TD*%
D15*
%TO.P,R59,1*%
%TO.N,VCC*%
X162100000Y-57000000D03*
%TO.P,R59,2*%
%TO.N,Net-(Q74-D)*%
X162100000Y-58000000D03*
%TD*%
%TO.P,R49,1*%
%TO.N,VCC*%
X166100000Y-76000000D03*
%TO.P,R49,2*%
%TO.N,Net-(Q64-D)*%
X166100000Y-77000000D03*
%TD*%
%TO.P,R57,1*%
%TO.N,VCC*%
X158100000Y-76000000D03*
%TO.P,R57,2*%
%TO.N,Net-(Q72-D)*%
X158100000Y-77000000D03*
%TD*%
D16*
%TO.P,R46,1*%
%TO.N,3.3V*%
X127200000Y-103800000D03*
%TO.P,R46,2*%
%TO.N,ADR2*%
X127200000Y-102800000D03*
%TD*%
D15*
%TO.P,R18,1*%
%TO.N,VCC*%
X163700000Y-49200000D03*
%TO.P,R18,2*%
%TO.N,RST*%
X163700000Y-50200000D03*
%TD*%
D19*
%TO.P,Q5,1,G*%
%TO.N,Buss0*%
X104437500Y-69250000D03*
%TO.P,Q5,2,S*%
%TO.N,GND*%
X104437500Y-67350000D03*
%TO.P,Q5,3,D*%
%TO.N,Net-(Q5-D)*%
X102562500Y-68300000D03*
%TD*%
D17*
%TO.P,Q40,1,G*%
%TO.N,Net-(Q38-D)*%
X125062500Y-58350000D03*
%TO.P,Q40,2,S*%
%TO.N,Net-(Q40-S)*%
X125062500Y-60250000D03*
%TO.P,Q40,3,D*%
%TO.N,Buss5*%
X126937500Y-59300000D03*
%TD*%
D15*
%TO.P,R19,1*%
%TO.N,3.3V*%
X112500000Y-81900000D03*
%TO.P,R19,2*%
%TO.N,D1*%
X112500000Y-82900000D03*
%TD*%
D14*
%TO.P,Q64,1,G*%
%TO.N,A4*%
X167250000Y-78762500D03*
%TO.P,Q64,2,S*%
%TO.N,GND*%
X165350000Y-78762500D03*
%TO.P,Q64,3,D*%
%TO.N,Net-(Q64-D)*%
X166300000Y-80637500D03*
%TD*%
D15*
%TO.P,R68,1*%
%TO.N,3.3V*%
X139900000Y-91000000D03*
%TO.P,R68,2*%
%TO.N,ADR13*%
X139900000Y-92000000D03*
%TD*%
D22*
%TO.P,J8,1,Pin_1*%
%TO.N,Buss0*%
X146500000Y-40060000D03*
D23*
%TO.P,J8,2,Pin_2*%
%TO.N,VCC*%
X146500000Y-42600000D03*
%TO.P,J8,3,Pin_3*%
%TO.N,Buss1*%
X149040000Y-40060000D03*
%TO.P,J8,4,Pin_4*%
%TO.N,GND*%
X149040000Y-42600000D03*
%TO.P,J8,5,Pin_5*%
%TO.N,Buss2*%
X151580000Y-40060000D03*
%TO.P,J8,6,Pin_6*%
%TO.N,CLK*%
X151580000Y-42600000D03*
%TO.P,J8,7,Pin_7*%
%TO.N,Buss3*%
X154120000Y-40060000D03*
%TO.P,J8,8,Pin_8*%
%TO.N,RST*%
X154120000Y-42600000D03*
%TO.P,J8,9,Pin_9*%
%TO.N,Buss4*%
X156660000Y-40060000D03*
%TO.P,J8,10,Pin_10*%
%TO.N,GND*%
X156660000Y-42600000D03*
%TO.P,J8,11,Pin_11*%
%TO.N,Buss5*%
X159200000Y-40060000D03*
%TO.P,J8,12,Pin_12*%
%TO.N,R{slash}W*%
X159200000Y-42600000D03*
%TO.P,J8,13,Pin_13*%
%TO.N,Buss6*%
X161740000Y-40060000D03*
%TO.P,J8,14,Pin_14*%
%TO.N,GND*%
X161740000Y-42600000D03*
%TO.P,J8,15,Pin_15*%
%TO.N,Buss7*%
X164280000Y-40060000D03*
%TO.P,J8,16,Pin_16*%
%TO.N,VCC*%
X164280000Y-42600000D03*
%TD*%
D14*
%TO.P,Q10,1,G*%
%TO.N,RST L*%
X161960000Y-47162500D03*
%TO.P,Q10,2,S*%
%TO.N,GND*%
X160060000Y-47162500D03*
%TO.P,Q10,3,D*%
%TO.N,Net-(Q10-D)*%
X161010000Y-49037500D03*
%TD*%
D19*
%TO.P,Q11,1,G*%
%TO.N,D1*%
X108837500Y-56250000D03*
%TO.P,Q11,2,S*%
%TO.N,GND*%
X108837500Y-54350000D03*
%TO.P,Q11,3,D*%
%TO.N,Net-(Q11-D)*%
X106962500Y-55300000D03*
%TD*%
D17*
%TO.P,Q24,1,G*%
%TO.N,Net-(Q17-G)*%
X111562500Y-75350000D03*
%TO.P,Q24,2,S*%
%TO.N,GND*%
X111562500Y-77250000D03*
%TO.P,Q24,3,D*%
%TO.N,Net-(Q23-S)*%
X113437500Y-76300000D03*
%TD*%
%TO.P,Q49,1,G*%
%TO.N,Net-(Q17-G)*%
X129562500Y-75350000D03*
%TO.P,Q49,2,S*%
%TO.N,GND*%
X129562500Y-77250000D03*
%TO.P,Q49,3,D*%
%TO.N,Net-(Q48-S)*%
X131437500Y-76300000D03*
%TD*%
D15*
%TO.P,R9,1*%
%TO.N,VCC*%
X163710000Y-52000000D03*
%TO.P,R9,2*%
%TO.N,Net-(Q1-D)*%
X163710000Y-53000000D03*
%TD*%
D21*
%TO.P,C3,1*%
%TO.N,VCC*%
X102150000Y-98200000D03*
%TO.P,C3,2*%
%TO.N,GND*%
X104050000Y-98200000D03*
%TD*%
D14*
%TO.P,Q84,1,G*%
%TO.N,A14*%
X147250000Y-78762500D03*
%TO.P,Q84,2,S*%
%TO.N,GND*%
X145350000Y-78762500D03*
%TO.P,Q84,3,D*%
%TO.N,Net-(Q84-D)*%
X146300000Y-80637500D03*
%TD*%
D22*
%TO.P,J7,1,Pin_1*%
%TO.N,VCC*%
X170350000Y-73125000D03*
D23*
%TO.P,J7,2,Pin_2*%
%TO.N,GND*%
X167810000Y-73125000D03*
%TD*%
D17*
%TO.P,Q34,1,G*%
%TO.N,Net-(Q32-D)*%
X120562500Y-58350000D03*
%TO.P,Q34,2,S*%
%TO.N,Net-(Q34-S)*%
X120562500Y-60250000D03*
%TO.P,Q34,3,D*%
%TO.N,Buss4*%
X122437500Y-59300000D03*
%TD*%
D16*
%TO.P,R54,1*%
%TO.N,3.3V*%
X132300000Y-103800000D03*
%TO.P,R54,2*%
%TO.N,ADR6*%
X132300000Y-102800000D03*
%TD*%
D15*
%TO.P,R67,1*%
%TO.N,VCC*%
X170100000Y-57000000D03*
%TO.P,R67,2*%
%TO.N,Net-(Q82-D)*%
X170100000Y-58000000D03*
%TD*%
D20*
%TO.P,R17,1*%
%TO.N,VCC*%
X107500000Y-79000000D03*
%TO.P,R17,2*%
%TO.N,Net-(Q12-D)*%
X108500000Y-79000000D03*
%TD*%
D15*
%TO.P,R40,1*%
%TO.N,3.3V*%
X120200000Y-81900000D03*
%TO.P,R40,2*%
%TO.N,D7*%
X120200000Y-82900000D03*
%TD*%
D16*
%TO.P,R15,1*%
%TO.N,VCC*%
X163700000Y-47400000D03*
%TO.P,R15,2*%
%TO.N,Net-(Q10-D)*%
X163700000Y-46400000D03*
%TD*%
D17*
%TO.P,Q36,1,G*%
%TO.N,Net-(Q33-D)*%
X120562500Y-71350000D03*
%TO.P,Q36,2,S*%
%TO.N,Net-(Q36-S)*%
X120562500Y-73250000D03*
%TO.P,Q36,3,D*%
%TO.N,D4*%
X122437500Y-72300000D03*
%TD*%
D14*
%TO.P,Q1,1,G*%
%TO.N,R{slash}W*%
X167160000Y-47162500D03*
%TO.P,Q1,2,S*%
%TO.N,GND*%
X165260000Y-47162500D03*
%TO.P,Q1,3,D*%
%TO.N,Net-(Q1-D)*%
X166210000Y-49037500D03*
%TD*%
D18*
%TO.P,R38,1*%
%TO.N,VCC*%
X135500000Y-52600000D03*
%TO.P,R38,2*%
%TO.N,Net-(Q50-D)*%
X134500000Y-52600000D03*
%TD*%
%TO.P,R29,1*%
%TO.N,VCC*%
X122000000Y-52600000D03*
%TO.P,R29,2*%
%TO.N,Net-(Q32-D)*%
X121000000Y-52600000D03*
%TD*%
D16*
%TO.P,R14,1*%
%TO.N,3.3V*%
X112500000Y-112900000D03*
%TO.P,R14,2*%
%TO.N,D0*%
X112500000Y-111900000D03*
%TD*%
D20*
%TO.P,R13,1*%
%TO.N,VCC*%
X103000000Y-79000000D03*
%TO.P,R13,2*%
%TO.N,Net-(Q5-D)*%
X104000000Y-79000000D03*
%TD*%
D15*
%TO.P,R48,1*%
%TO.N,3.3V*%
X127200000Y-91000000D03*
%TO.P,R48,2*%
%TO.N,ADR3*%
X127200000Y-92000000D03*
%TD*%
%TO.P,R72,1*%
%TO.N,3.3V*%
X142400000Y-91000000D03*
%TO.P,R72,2*%
%TO.N,ADR15*%
X142400000Y-92000000D03*
%TD*%
D16*
%TO.P,R42,1*%
%TO.N,3.3V*%
X124600000Y-103800000D03*
%TO.P,R42,2*%
%TO.N,ADR0*%
X124600000Y-102800000D03*
%TD*%
D20*
%TO.P,R33,1*%
%TO.N,VCC*%
X125500000Y-79000000D03*
%TO.P,R33,2*%
%TO.N,Net-(Q39-D)*%
X126500000Y-79000000D03*
%TD*%
D17*
%TO.P,Q28,1,G*%
%TO.N,Net-(Q26-D)*%
X116062500Y-58350000D03*
%TO.P,Q28,2,S*%
%TO.N,Net-(Q28-S)*%
X116062500Y-60250000D03*
%TO.P,Q28,3,D*%
%TO.N,Buss3*%
X117937500Y-59300000D03*
%TD*%
D16*
%TO.P,R50,1*%
%TO.N,3.3V*%
X129700000Y-103800000D03*
%TO.P,R50,2*%
%TO.N,ADR4*%
X129700000Y-102800000D03*
%TD*%
D14*
%TO.P,Q87,1,G*%
%TO.N,Net-(Q86-D)*%
X175250000Y-64562500D03*
%TO.P,Q87,2,S*%
%TO.N,GND*%
X173350000Y-64562500D03*
%TO.P,Q87,3,D*%
%TO.N,ADR15*%
X174300000Y-66437500D03*
%TD*%
D19*
%TO.P,Q4,1,G*%
%TO.N,D0*%
X104437500Y-56250000D03*
%TO.P,Q4,2,S*%
%TO.N,GND*%
X104437500Y-54350000D03*
%TO.P,Q4,3,D*%
%TO.N,Net-(Q4-D)*%
X102562500Y-55300000D03*
%TD*%
D14*
%TO.P,Q85,1,G*%
%TO.N,Net-(Q84-D)*%
X147250000Y-83562500D03*
%TO.P,Q85,2,S*%
%TO.N,GND*%
X145350000Y-83562500D03*
%TO.P,Q85,3,D*%
%TO.N,ADR14*%
X146300000Y-85437500D03*
%TD*%
D16*
%TO.P,R66,1*%
%TO.N,3.3V*%
X139900000Y-103800000D03*
%TO.P,R66,2*%
%TO.N,ADR12*%
X139900000Y-102800000D03*
%TD*%
D14*
%TO.P,Q3,1,G*%
%TO.N,Net-(Q1-D)*%
X167160000Y-52162500D03*
%TO.P,Q3,2,S*%
%TO.N,GND*%
X165260000Y-52162500D03*
%TO.P,Q3,3,D*%
%TO.N,RW L*%
X166210000Y-54037500D03*
%TD*%
D17*
%TO.P,Q37,1,G*%
%TO.N,Net-(Q17-G)*%
X120562500Y-75350000D03*
%TO.P,Q37,2,S*%
%TO.N,GND*%
X120562500Y-77250000D03*
%TO.P,Q37,3,D*%
%TO.N,Net-(Q36-S)*%
X122437500Y-76300000D03*
%TD*%
D14*
%TO.P,Q61,1,G*%
%TO.N,Net-(Q60-D)*%
X171250000Y-83562500D03*
%TO.P,Q61,2,S*%
%TO.N,GND*%
X169350000Y-83562500D03*
%TO.P,Q61,3,D*%
%TO.N,ADR2*%
X170300000Y-85437500D03*
%TD*%
D15*
%TO.P,R53,1*%
%TO.N,3.3V*%
X129700000Y-91000000D03*
%TO.P,R53,2*%
%TO.N,ADR5*%
X129700000Y-92000000D03*
%TD*%
D21*
%TO.P,C1,1*%
%TO.N,VCC*%
X102150000Y-92100000D03*
%TO.P,C1,2*%
%TO.N,GND*%
X104050000Y-92100000D03*
%TD*%
D20*
%TO.P,R39,1*%
%TO.N,VCC*%
X134500000Y-79000000D03*
%TO.P,R39,2*%
%TO.N,Net-(Q51-D)*%
X135500000Y-79000000D03*
%TD*%
D17*
%TO.P,Q17,1,G*%
%TO.N,Net-(Q17-G)*%
X107062500Y-75350000D03*
%TO.P,Q17,2,S*%
%TO.N,GND*%
X107062500Y-77250000D03*
%TO.P,Q17,3,D*%
%TO.N,Net-(Q16-S)*%
X108937500Y-76300000D03*
%TD*%
D22*
%TO.P,J2,1,Pin_1*%
%TO.N,Net-(J2-Pin_1)*%
X109400000Y-96060000D03*
D23*
%TO.P,J2,2,Pin_2*%
%TO.N,Net-(J2-Pin_2)*%
X109400000Y-98600000D03*
%TO.P,J2,3,Pin_3*%
%TO.N,Net-(J2-Pin_3)*%
X111940000Y-96060000D03*
%TO.P,J2,4,Pin_4*%
%TO.N,Net-(J2-Pin_4)*%
X111940000Y-98600000D03*
%TO.P,J2,5,Pin_5*%
%TO.N,Net-(J2-Pin_5)*%
X114480000Y-96060000D03*
%TO.P,J2,6,Pin_6*%
%TO.N,Net-(J2-Pin_6)*%
X114480000Y-98600000D03*
%TO.P,J2,7,Pin_7*%
%TO.N,Net-(J2-Pin_7)*%
X117020000Y-96060000D03*
%TO.P,J2,8,Pin_8*%
%TO.N,Net-(J2-Pin_8)*%
X117020000Y-98600000D03*
%TO.P,J2,9,Pin_9*%
%TO.N,Net-(J2-Pin_9)*%
X119560000Y-96060000D03*
%TO.P,J2,10,Pin_10*%
%TO.N,Net-(J2-Pin_10)*%
X119560000Y-98600000D03*
%TO.P,J2,11,Pin_11*%
%TO.N,3.3V*%
X122100000Y-96060000D03*
%TO.P,J2,12,Pin_12*%
%TO.N,GND*%
X122100000Y-98600000D03*
%TO.P,J2,13,Pin_13*%
%TO.N,ADR1*%
X124640000Y-96060000D03*
%TO.P,J2,14,Pin_14*%
%TO.N,ADR0*%
X124640000Y-98600000D03*
%TO.P,J2,15,Pin_15*%
%TO.N,ADR3*%
X127180000Y-96060000D03*
%TO.P,J2,16,Pin_16*%
%TO.N,ADR2*%
X127180000Y-98600000D03*
%TO.P,J2,17,Pin_17*%
%TO.N,ADR5*%
X129720000Y-96060000D03*
%TO.P,J2,18,Pin_18*%
%TO.N,ADR4*%
X129720000Y-98600000D03*
%TO.P,J2,19,Pin_19*%
%TO.N,ADR7*%
X132260000Y-96060000D03*
%TO.P,J2,20,Pin_20*%
%TO.N,ADR6*%
X132260000Y-98600000D03*
%TO.P,J2,21,Pin_21*%
%TO.N,ADR9*%
X134800000Y-96060000D03*
%TO.P,J2,22,Pin_22*%
%TO.N,ADR8*%
X134800000Y-98600000D03*
%TO.P,J2,23,Pin_23*%
%TO.N,ADR11*%
X137340000Y-96060000D03*
%TO.P,J2,24,Pin_24*%
%TO.N,ADR10*%
X137340000Y-98600000D03*
%TO.P,J2,25,Pin_25*%
%TO.N,ADR13*%
X139880000Y-96060000D03*
%TO.P,J2,26,Pin_26*%
%TO.N,ADR12*%
X139880000Y-98600000D03*
%TO.P,J2,27,Pin_27*%
%TO.N,ADR15*%
X142420000Y-96060000D03*
%TO.P,J2,28,Pin_28*%
%TO.N,ADR14*%
X142420000Y-98600000D03*
%TO.P,J2,29,Pin_29*%
%TO.N,5V*%
X144960000Y-96060000D03*
%TO.P,J2,30,Pin_30*%
%TO.N,GND*%
X144960000Y-98600000D03*
%TO.P,J2,31,Pin_31*%
%TO.N,RW L*%
X147500000Y-96060000D03*
%TO.P,J2,32,Pin_32*%
%TO.N,CLK L*%
X147500000Y-98600000D03*
%TO.P,J2,33,Pin_33*%
%TO.N,RST L*%
X150040000Y-96060000D03*
%TO.P,J2,34,Pin_34*%
%TO.N,Net-(J2-Pin_34)*%
X150040000Y-98600000D03*
%TO.P,J2,35,Pin_35*%
%TO.N,Net-(J2-Pin_35)*%
X152580000Y-96060000D03*
%TO.P,J2,36,Pin_36*%
%TO.N,Net-(J2-Pin_36)*%
X152580000Y-98600000D03*
%TO.P,J2,37,Pin_37*%
%TO.N,Net-(J2-Pin_37)*%
X155120000Y-96060000D03*
%TO.P,J2,38,Pin_38*%
%TO.N,Net-(J2-Pin_38)*%
X155120000Y-98600000D03*
%TO.P,J2,39,Pin_39*%
%TO.N,Net-(J2-Pin_39)*%
X157660000Y-96060000D03*
%TO.P,J2,40,Pin_40*%
%TO.N,Net-(J2-Pin_40)*%
X157660000Y-98600000D03*
%TD*%
D24*
%TO.N,GND*%
X157700000Y-109700000D03*
X169100000Y-109800000D03*
X180400000Y-40500000D03*
%TO.N,D0*%
X111840000Y-109960000D03*
%TO.N,D2*%
X114490000Y-110010000D03*
%TO.N,D4*%
X116940000Y-109960000D03*
%TO.N,D6*%
X119590000Y-110010000D03*
%TO.N,D1*%
X112000000Y-84800000D03*
%TO.N,D7*%
X119600000Y-84800000D03*
%TO.N,D5*%
X117000000Y-84780000D03*
%TO.N,D3*%
X114500000Y-84800000D03*
%TO.N,GND*%
X153900000Y-51500000D03*
%TO.N,CLK*%
X151500000Y-53100000D03*
%TO.N,5V*%
X155300000Y-93200000D03*
X162800000Y-93200000D03*
X158700000Y-93200000D03*
X144000000Y-102600000D03*
%TO.N,GND*%
X148300000Y-58200000D03*
D25*
X109337500Y-55312500D03*
X129037500Y-76312500D03*
X101937500Y-76312500D03*
D24*
X161350000Y-82000000D03*
D25*
X133537500Y-76312500D03*
D24*
X153400450Y-48462500D03*
D25*
X118337500Y-55312500D03*
X115537500Y-76312500D03*
X131937500Y-55312500D03*
X105600000Y-45900000D03*
D24*
X152500000Y-57799000D03*
X173350000Y-82000000D03*
X145350000Y-82000000D03*
X121637500Y-65812500D03*
X160060000Y-50500000D03*
X169350000Y-82000000D03*
X153350000Y-82000000D03*
D25*
X136437500Y-55312500D03*
D24*
X157350000Y-82000000D03*
X130537500Y-65812500D03*
X135037500Y-65812500D03*
X160700000Y-57900000D03*
X112537500Y-65812500D03*
X149350000Y-82000000D03*
X126037500Y-65812500D03*
X144000000Y-58300000D03*
X165311000Y-50500000D03*
D25*
X111037500Y-76312500D03*
D24*
X117037500Y-65812500D03*
D25*
X113937500Y-55312500D03*
X124537500Y-76312500D03*
D24*
X104400000Y-89800000D03*
X108037500Y-65812500D03*
X168600000Y-57800000D03*
X172600000Y-57799000D03*
X165350000Y-82000000D03*
X163600000Y-67800000D03*
X156600000Y-57900000D03*
D25*
X120037500Y-76312500D03*
X122937500Y-55312500D03*
D24*
X103537500Y-65812500D03*
D25*
X104937500Y-55312500D03*
X127337500Y-55312500D03*
X106537500Y-76312500D03*
D24*
X104100000Y-105350000D03*
%TO.N,VCC*%
X102100000Y-105450000D03*
D25*
X162800000Y-49600000D03*
D24*
X119237500Y-79711000D03*
X105637500Y-79711000D03*
X105837500Y-51789000D03*
X132837500Y-79711000D03*
X119237500Y-51789000D03*
X132937500Y-51789000D03*
X180400000Y-48300000D03*
X101800000Y-90000000D03*
%TO.N,RW L*%
X163710000Y-54400000D03*
%TO.N,CLK L*%
X158810000Y-49600000D03*
%TO.N,5V*%
X161700000Y-109700000D03*
%TO.N,3.3V*%
X149500000Y-109700000D03*
%TO.N,RST L*%
X158710000Y-46900000D03*
D25*
%TO.N,A14*%
X147300000Y-76500000D03*
%TO.N,A10*%
X155300000Y-76500000D03*
%TO.N,A4*%
X167300000Y-76600000D03*
%TO.N,A12*%
X151300000Y-76500000D03*
%TO.N,A2*%
X171300000Y-76500000D03*
%TO.N,A13*%
X171300000Y-57600000D03*
%TO.N,A6*%
X163300000Y-76600000D03*
%TO.N,A15*%
X175300000Y-57600000D03*
%TO.N,A9*%
X163300000Y-57600000D03*
%TO.N,A11*%
X167300000Y-57600000D03*
%TO.N,A5*%
X155300000Y-57600000D03*
%TO.N,A8*%
X159300000Y-76500000D03*
%TO.N,A1*%
X148300000Y-62200000D03*
%TO.N,A7*%
X159300000Y-57600000D03*
%TO.N,A3*%
X151300000Y-57600000D03*
%TO.N,A0*%
X175300000Y-76500000D03*
%TO.N,Buss3*%
X118600000Y-60500000D03*
X105758479Y-39895933D03*
%TO.N,R{slash}W*%
X110977000Y-61300000D03*
X115477000Y-61300000D03*
X133500000Y-61300000D03*
X128977000Y-61300000D03*
X124600000Y-61300000D03*
X119977000Y-61300000D03*
X102000000Y-61300000D03*
X106600000Y-61300000D03*
%TO.N,Buss7*%
X136400000Y-60600000D03*
X105800000Y-36300000D03*
%TO.N,Buss0*%
X105100000Y-60600000D03*
%TO.N,Buss2*%
X105763516Y-40739425D03*
X114100000Y-60500000D03*
%TO.N,Buss6*%
X132200000Y-60400000D03*
X105800000Y-37200000D03*
D24*
%TO.N,RST*%
X162999000Y-51100000D03*
D25*
%TO.N,Buss1*%
X105775735Y-41575735D03*
X109600000Y-60500000D03*
%TO.N,Buss5*%
X127700000Y-60500000D03*
X105800000Y-38100000D03*
%TO.N,Buss4*%
X123200000Y-60500000D03*
X105761051Y-39044832D03*
%TO.N,D0*%
X106000000Y-70000000D03*
%TO.N,D1*%
X110377000Y-70000000D03*
%TO.N,D2*%
X114877000Y-70000000D03*
%TO.N,D3*%
X119377000Y-70000000D03*
%TO.N,D4*%
X124000000Y-70000000D03*
%TO.N,D5*%
X128377000Y-70000000D03*
%TO.N,D6*%
X132900000Y-70000000D03*
%TO.N,D7*%
X137377000Y-70000000D03*
%TO.N,Net-(Q17-G)*%
X106400000Y-74300000D03*
X124500000Y-74300000D03*
X133600000Y-74300000D03*
X111000000Y-74300000D03*
X120000000Y-74300000D03*
X115500000Y-74300000D03*
X102000000Y-74300000D03*
X129000000Y-74300000D03*
%TD*%
D26*
%TO.N,GND*%
X155890000Y-109700000D02*
X157700000Y-109700000D01*
X169000000Y-109700000D02*
X169100000Y-109800000D01*
X167390000Y-109700000D02*
X169000000Y-109700000D01*
X180400000Y-42610000D02*
X180400000Y-40500000D01*
%TO.N,VCC*%
X102150000Y-90350000D02*
X102150000Y-92100000D01*
X101800000Y-90000000D02*
X102150000Y-90350000D01*
%TO.N,GND*%
X104400000Y-89800000D02*
X104050000Y-90150000D01*
X104050000Y-90150000D02*
X104050000Y-92100000D01*
%TO.N,D6*%
X119600000Y-110000000D02*
X119590000Y-110010000D01*
X119600000Y-105560000D02*
X119600000Y-110000000D01*
%TO.N,D4*%
X117100000Y-105560000D02*
X117100000Y-109800000D01*
X117100000Y-109800000D02*
X116940000Y-109960000D01*
%TO.N,D2*%
X114500000Y-110000000D02*
X114490000Y-110010000D01*
X114500000Y-105560000D02*
X114500000Y-110000000D01*
%TO.N,D0*%
X111900000Y-109900000D02*
X111840000Y-109960000D01*
X111900000Y-105560000D02*
X111900000Y-109900000D01*
%TO.N,D1*%
X112000000Y-84800000D02*
X112000000Y-84880000D01*
%TO.N,D7*%
X119600000Y-84800000D02*
X119600000Y-89140000D01*
%TO.N,D3*%
X114500000Y-84800000D02*
X114500000Y-89140000D01*
%TO.N,D1*%
X112000000Y-84680000D02*
X112000000Y-84800000D01*
X112500000Y-84180000D02*
X112000000Y-84680000D01*
X112500000Y-82900000D02*
X112500000Y-84180000D01*
%TO.N,D7*%
X119600000Y-84780000D02*
X119600000Y-84800000D01*
%TO.N,D5*%
X117000000Y-84780000D02*
X117000000Y-89140000D01*
%TO.N,D3*%
X114500000Y-84780000D02*
X114500000Y-84800000D01*
%TO.N,D1*%
X112000000Y-84880000D02*
X112000000Y-89140000D01*
%TO.N,CLK*%
X155057500Y-54437500D02*
X156300000Y-54437500D01*
X153820000Y-53200000D02*
X155057500Y-54437500D01*
X151600000Y-53200000D02*
X153820000Y-53200000D01*
X151500000Y-53100000D02*
X151600000Y-53200000D01*
X151400000Y-53200000D02*
X148960000Y-53200000D01*
X151500000Y-53100000D02*
X151400000Y-53200000D01*
%TO.N,Net-(Q20-D)*%
X149020000Y-50300000D02*
X156262500Y-50300000D01*
X148982500Y-50337500D02*
X149020000Y-50300000D01*
X156262500Y-50300000D02*
X156300000Y-50337500D01*
%TO.N,GND*%
X154962500Y-52562500D02*
X153900000Y-51500000D01*
X155350000Y-52562500D02*
X154962500Y-52562500D01*
%TO.N,Net-(J2-Pin_3)*%
X111940000Y-92120000D02*
X112000000Y-92060000D01*
X111940000Y-96060000D02*
X111940000Y-92120000D01*
%TO.N,Net-(J2-Pin_5)*%
X114480000Y-96060000D02*
X114480000Y-92080000D01*
X114480000Y-92080000D02*
X114500000Y-92060000D01*
%TO.N,3.3V*%
X122100000Y-96060000D02*
X123389000Y-97349000D01*
X123389000Y-97349000D02*
X123389000Y-96578182D01*
X122729000Y-96060000D02*
X123389000Y-95400000D01*
X122100000Y-96060000D02*
X122729000Y-96060000D01*
X123389000Y-95400000D02*
X123389000Y-95100000D01*
X122870818Y-96060000D02*
X123389000Y-96578182D01*
X122100000Y-96060000D02*
X122870818Y-96060000D01*
X143709000Y-93191000D02*
X146500000Y-90400000D01*
X143709000Y-96540182D02*
X143709000Y-93191000D01*
X142900182Y-97349000D02*
X143709000Y-96540182D01*
X142200000Y-97349000D02*
X142900182Y-97349000D01*
X146500000Y-90400000D02*
X147500000Y-90400000D01*
%TO.N,RW L*%
X147500000Y-91400000D02*
X147500000Y-96060000D01*
D27*
%TO.N,GND*%
X108837500Y-54812500D02*
X109337500Y-55312500D01*
D26*
X120662500Y-64250000D02*
X120662500Y-64837500D01*
X145350000Y-78762500D02*
X145350000Y-82000000D01*
X122537500Y-67350000D02*
X122537500Y-66712500D01*
X160060000Y-49100000D02*
X160060000Y-52162500D01*
X113437500Y-67350000D02*
X113437500Y-66712500D01*
X161350000Y-83562500D02*
X161350000Y-82000000D01*
X134062500Y-64250000D02*
X134062500Y-64837500D01*
X157350000Y-59762500D02*
X157350000Y-58650000D01*
D27*
X113437500Y-54350000D02*
X113437500Y-54812500D01*
D26*
X169350000Y-58550000D02*
X168600000Y-57800000D01*
D27*
X135937500Y-54350000D02*
X135937500Y-54812500D01*
D26*
X173350000Y-64562500D02*
X173350000Y-59762500D01*
X180250000Y-69450000D02*
X183191000Y-72391000D01*
D27*
X120562500Y-76837500D02*
X120037500Y-76312500D01*
D26*
X173350000Y-83562500D02*
X173350000Y-82000000D01*
X152900000Y-64112500D02*
X152900000Y-60212500D01*
D27*
X126837500Y-54812500D02*
X127337500Y-55312500D01*
D26*
X149350000Y-64562500D02*
X149350000Y-59762500D01*
X107062500Y-64250000D02*
X107062500Y-64837500D01*
X169350000Y-59762500D02*
X169350000Y-58550000D01*
X173350000Y-82000000D02*
X173350000Y-78762500D01*
X182458182Y-79711000D02*
X180651000Y-79711000D01*
X169350000Y-82000000D02*
X169350000Y-78762500D01*
D27*
X111562500Y-76837500D02*
X111037500Y-76312500D01*
D26*
X145350000Y-64562500D02*
X145350000Y-59762500D01*
X117937500Y-66712500D02*
X117037500Y-65812500D01*
D27*
X117837500Y-54350000D02*
X117837500Y-54812500D01*
D26*
X153350000Y-82000000D02*
X153350000Y-78762500D01*
X145350000Y-59650000D02*
X144000000Y-58300000D01*
D27*
X125062500Y-77250000D02*
X125062500Y-76837500D01*
D26*
X161350000Y-64562500D02*
X161350000Y-59762500D01*
X135937500Y-66712500D02*
X135037500Y-65812500D01*
X131437500Y-67350000D02*
X131437500Y-66712500D01*
D27*
X104437500Y-54350000D02*
X104437500Y-54812500D01*
D26*
X152900000Y-60212500D02*
X153350000Y-59762500D01*
X157350000Y-58650000D02*
X156600000Y-57900000D01*
X108937500Y-67350000D02*
X108937500Y-66712500D01*
X157350000Y-83562500D02*
X157350000Y-82000000D01*
X155350000Y-48462500D02*
X153400450Y-48462500D01*
X149350000Y-83562500D02*
X149350000Y-82000000D01*
X102562500Y-64250000D02*
X102562500Y-64837500D01*
X129562500Y-64837500D02*
X130537500Y-65812500D01*
D27*
X131437500Y-54350000D02*
X131437500Y-54812500D01*
X116062500Y-76837500D02*
X115537500Y-76312500D01*
D26*
X116062500Y-64837500D02*
X117037500Y-65812500D01*
X145350000Y-82000000D02*
X145350000Y-83562500D01*
X180250000Y-69450000D02*
X180250000Y-60300000D01*
X161350000Y-82000000D02*
X161350000Y-78762500D01*
X180250000Y-55810000D02*
X175990500Y-51550500D01*
D27*
X122437500Y-54812500D02*
X122937500Y-55312500D01*
D26*
X157350000Y-82000000D02*
X157350000Y-78762500D01*
X129562500Y-64250000D02*
X129562500Y-64837500D01*
D27*
X135937500Y-54812500D02*
X136437500Y-55312500D01*
D26*
X169350000Y-64562500D02*
X169350000Y-59762500D01*
D27*
X126837500Y-54350000D02*
X126837500Y-54812500D01*
D26*
X104050000Y-101250000D02*
X104050000Y-105300000D01*
X153350000Y-64562500D02*
X152900000Y-64112500D01*
D27*
X125062500Y-76837500D02*
X124537500Y-76312500D01*
D26*
X125062500Y-64250000D02*
X125062500Y-64837500D01*
X165260000Y-47162500D02*
X165260000Y-50449000D01*
X165350000Y-64562500D02*
X165350000Y-59762500D01*
X165350000Y-64562500D02*
X165350000Y-66050000D01*
X160060000Y-47162500D02*
X160060000Y-49100000D01*
X149350000Y-59250000D02*
X148300000Y-58200000D01*
X102562500Y-64837500D02*
X103537500Y-65812500D01*
D27*
X104837500Y-46662500D02*
X105600000Y-45900000D01*
D26*
X120662500Y-64837500D02*
X121637500Y-65812500D01*
X122537500Y-66712500D02*
X121637500Y-65812500D01*
X104437500Y-66712500D02*
X103537500Y-65812500D01*
D27*
X102562500Y-77250000D02*
X102562500Y-76937500D01*
D26*
X165260000Y-50449000D02*
X165311000Y-50500000D01*
X111562500Y-64250000D02*
X111562500Y-64837500D01*
D27*
X134062500Y-76837500D02*
X133537500Y-76312500D01*
D26*
X173350000Y-58549000D02*
X172600000Y-57799000D01*
X113437500Y-66712500D02*
X112537500Y-65812500D01*
D27*
X107062500Y-76837500D02*
X106537500Y-76312500D01*
D26*
X149350000Y-59762500D02*
X149350000Y-59250000D01*
D27*
X129562500Y-77250000D02*
X129562500Y-76837500D01*
D26*
X153350000Y-58649000D02*
X152500000Y-57799000D01*
X161350000Y-59762500D02*
X161350000Y-58550000D01*
X104050000Y-105300000D02*
X104100000Y-105350000D01*
X117937500Y-67350000D02*
X117937500Y-66712500D01*
D27*
X108837500Y-54350000D02*
X108837500Y-54812500D01*
X104437500Y-54812500D02*
X104937500Y-55312500D01*
D26*
X157350000Y-64562500D02*
X157350000Y-59762500D01*
X165350000Y-82000000D02*
X165350000Y-78762500D01*
D27*
X102562500Y-76937500D02*
X101937500Y-76312500D01*
D26*
X108937500Y-66712500D02*
X108037500Y-65812500D01*
X173350000Y-59762500D02*
X173350000Y-58549000D01*
D27*
X131437500Y-54812500D02*
X131937500Y-55312500D01*
D26*
X126937500Y-66712500D02*
X126037500Y-65812500D01*
X153350000Y-59762500D02*
X153350000Y-58649000D01*
X104050000Y-92100000D02*
X104050000Y-101250000D01*
D27*
X122437500Y-54350000D02*
X122437500Y-54812500D01*
X120562500Y-77250000D02*
X120562500Y-76837500D01*
D26*
X125062500Y-64837500D02*
X126037500Y-65812500D01*
X180651000Y-79711000D02*
X179400000Y-78460000D01*
X134062500Y-64837500D02*
X135037500Y-65812500D01*
D27*
X107062500Y-77250000D02*
X107062500Y-76837500D01*
D26*
X183191000Y-72391000D02*
X183191000Y-78978182D01*
X161350000Y-58550000D02*
X160700000Y-57900000D01*
D27*
X117837500Y-54812500D02*
X118337500Y-55312500D01*
X134062500Y-77250000D02*
X134062500Y-76837500D01*
D26*
X169350000Y-83562500D02*
X169350000Y-82000000D01*
X104437500Y-67350000D02*
X104437500Y-66712500D01*
D27*
X113437500Y-54812500D02*
X113937500Y-55312500D01*
D26*
X153350000Y-83562500D02*
X153350000Y-82000000D01*
X135937500Y-67350000D02*
X135937500Y-66712500D01*
X180250000Y-60300000D02*
X180250000Y-55810000D01*
X165260000Y-47162500D02*
X165260000Y-52162500D01*
X116062500Y-64250000D02*
X116062500Y-64837500D01*
X126937500Y-67350000D02*
X126937500Y-66712500D01*
X107062500Y-64837500D02*
X108037500Y-65812500D01*
D27*
X111562500Y-77250000D02*
X111562500Y-76837500D01*
D26*
X111562500Y-64837500D02*
X112537500Y-65812500D01*
X183191000Y-78978182D02*
X182458182Y-79711000D01*
X149350000Y-82000000D02*
X149350000Y-78762500D01*
X165350000Y-83562500D02*
X165350000Y-82000000D01*
X131437500Y-66712500D02*
X130537500Y-65812500D01*
X145350000Y-59762500D02*
X145350000Y-59650000D01*
D27*
X104837500Y-47150000D02*
X104837500Y-46662500D01*
X116062500Y-77250000D02*
X116062500Y-76837500D01*
X129562500Y-76837500D02*
X129037500Y-76312500D01*
D26*
X165350000Y-66050000D02*
X163600000Y-67800000D01*
D28*
%TO.N,VCC*%
X145500000Y-52500000D02*
X145500000Y-51200000D01*
D26*
X133789000Y-79711000D02*
X134500000Y-79000000D01*
X116500000Y-79000000D02*
X116500000Y-79673500D01*
X107500000Y-79000000D02*
X107500000Y-79648500D01*
D28*
X175200000Y-56599000D02*
X149599000Y-56599000D01*
X179350000Y-74350000D02*
X175950000Y-74350000D01*
D26*
X126400000Y-51851500D02*
X126337500Y-51789000D01*
D28*
X178350000Y-69450000D02*
X178350000Y-60300000D01*
D26*
X125500000Y-79000000D02*
X125500000Y-79648500D01*
X103000000Y-79000000D02*
X103000000Y-79078970D01*
X173450500Y-51550500D02*
X173450500Y-51649500D01*
X135500000Y-52521030D02*
X135500000Y-52600000D01*
X117400000Y-51826500D02*
X117437500Y-51789000D01*
X145500000Y-50300000D02*
X145500000Y-43600000D01*
X122000000Y-52600000D02*
X122000000Y-51826500D01*
X103400000Y-45600000D02*
X103400000Y-45521030D01*
X106301000Y-50500000D02*
X106301000Y-51325500D01*
D28*
X178350000Y-73350000D02*
X178350000Y-69450000D01*
D26*
X108400000Y-52500000D02*
X108400000Y-52421030D01*
D28*
X175200000Y-56599000D02*
X174501000Y-56599000D01*
X179350000Y-74350000D02*
X178350000Y-73350000D01*
X178350000Y-56450000D02*
X173450500Y-51550500D01*
D26*
X121000000Y-79648500D02*
X120937500Y-79711000D01*
X106301000Y-50500000D02*
X106301000Y-50690000D01*
D28*
X178350000Y-58900000D02*
X178350000Y-56450000D01*
D26*
X119637500Y-51789000D02*
X122037500Y-51789000D01*
X122037500Y-51789000D02*
X126337500Y-51789000D01*
X173149500Y-51249500D02*
X173450500Y-51550500D01*
X104032030Y-44889000D02*
X105580364Y-44889000D01*
X174099000Y-75799000D02*
X146301000Y-75799000D01*
X125437500Y-79711000D02*
X129937500Y-79711000D01*
X102150000Y-92100000D02*
X102150000Y-101250000D01*
X106301000Y-45609636D02*
X106301000Y-50500000D01*
D28*
X149599000Y-56599000D02*
X147050000Y-54050000D01*
D26*
X164411000Y-49601001D02*
X164009999Y-49200000D01*
X146201000Y-56899000D02*
X173999000Y-56899000D01*
X106301000Y-50690000D02*
X107400000Y-51789000D01*
X163710000Y-52000000D02*
X164411000Y-51299000D01*
D28*
X145500000Y-51200000D02*
X145500000Y-50300000D01*
D26*
X104811000Y-51789000D02*
X104000000Y-52600000D01*
X121000000Y-79000000D02*
X121000000Y-79648500D01*
D28*
X147050000Y-54050000D02*
X145500000Y-52500000D01*
D26*
X119737500Y-79711000D02*
X120937500Y-79711000D01*
X180400000Y-48300000D02*
X180400000Y-46900000D01*
X170100000Y-55000000D02*
X170100000Y-57000000D01*
X103000000Y-79078970D02*
X103632030Y-79711000D01*
X163700000Y-49200000D02*
X163200000Y-49200000D01*
X120937500Y-79711000D02*
X125437500Y-79711000D01*
X133237500Y-51789000D02*
X134767970Y-51789000D01*
D28*
X175950000Y-74350000D02*
X174300000Y-76000000D01*
X178350000Y-60300000D02*
X178350000Y-58900000D01*
D26*
X106337500Y-51789000D02*
X104811000Y-51789000D01*
X106337500Y-51789000D02*
X108437500Y-51789000D01*
X163700000Y-48890001D02*
X164009999Y-49200000D01*
X173450500Y-51550500D02*
X173450500Y-56350500D01*
X116537500Y-79711000D02*
X119737500Y-79711000D01*
X146201000Y-53201000D02*
X145500000Y-52500000D01*
X125500000Y-79648500D02*
X125437500Y-79711000D01*
X164411000Y-51299000D02*
X164411000Y-49601001D01*
D28*
X174501000Y-56599000D02*
X174100000Y-57000000D01*
D26*
X134767970Y-51789000D02*
X135500000Y-52521030D01*
X102150000Y-105400000D02*
X102100000Y-105450000D01*
X146100000Y-57000000D02*
X146201000Y-56899000D01*
X108437500Y-51789000D02*
X113037500Y-51789000D01*
X107437500Y-79711000D02*
X111937500Y-79711000D01*
X116500000Y-79673500D02*
X116537500Y-79711000D01*
X129937500Y-79711000D02*
X132837500Y-79711000D01*
X131037500Y-51789000D02*
X133237500Y-51789000D01*
D28*
X145500000Y-51200000D02*
X145500000Y-43600000D01*
D26*
X102150000Y-101250000D02*
X102150000Y-105400000D01*
X173999000Y-56899000D02*
X174100000Y-57000000D01*
X173450500Y-56350500D02*
X174100000Y-57000000D01*
X130000000Y-79648500D02*
X129937500Y-79711000D01*
X146201000Y-56899000D02*
X146201000Y-53201000D01*
D28*
X181940000Y-76940000D02*
X179350000Y-74350000D01*
D26*
X130000000Y-79000000D02*
X130000000Y-79648500D01*
X113000000Y-51826500D02*
X113037500Y-51789000D01*
X163700000Y-47400000D02*
X163700000Y-48890001D01*
X105337500Y-79711000D02*
X107437500Y-79711000D01*
X146301000Y-75799000D02*
X146100000Y-76000000D01*
X104037500Y-52562500D02*
X104000000Y-52600000D01*
X107400000Y-51789000D02*
X106337500Y-51789000D01*
X132837500Y-79711000D02*
X133789000Y-79711000D01*
X107767970Y-51789000D02*
X107400000Y-51789000D01*
X108400000Y-51826500D02*
X108437500Y-51789000D01*
X112000000Y-79000000D02*
X112000000Y-79648500D01*
D28*
X176049000Y-56599000D02*
X175200000Y-56599000D01*
D26*
X113000000Y-52600000D02*
X113000000Y-51826500D01*
X122000000Y-51826500D02*
X122037500Y-51789000D01*
X126337500Y-51789000D02*
X131037500Y-51789000D01*
X164009999Y-49200000D02*
X163700000Y-49200000D01*
D28*
X145500000Y-43600000D02*
X146500000Y-42600000D01*
D26*
X174100000Y-57000000D02*
X174201000Y-56899000D01*
X108400000Y-52500000D02*
X108400000Y-51826500D01*
X113037500Y-51789000D02*
X117437500Y-51789000D01*
X111937500Y-79711000D02*
X116537500Y-79711000D01*
D28*
X178350000Y-58900000D02*
X176049000Y-56599000D01*
D26*
X106301000Y-51325500D02*
X105837500Y-51789000D01*
X126400000Y-52600000D02*
X126400000Y-51851500D01*
X103400000Y-45521030D02*
X104032030Y-44889000D01*
X117437500Y-51789000D02*
X119637500Y-51789000D01*
X163200000Y-49200000D02*
X162800000Y-49600000D01*
X117400000Y-52600000D02*
X117400000Y-51826500D01*
X131000000Y-52600000D02*
X131000000Y-51826500D01*
D28*
X181940000Y-78460000D02*
X181940000Y-76940000D01*
D26*
X103632030Y-79711000D02*
X105337500Y-79711000D01*
X174300000Y-76000000D02*
X174099000Y-75799000D01*
X112000000Y-79648500D02*
X111937500Y-79711000D01*
X105580364Y-44889000D02*
X106301000Y-45609636D01*
X107500000Y-79648500D02*
X107437500Y-79711000D01*
X131000000Y-51826500D02*
X131037500Y-51789000D01*
X173450500Y-51649500D02*
X170100000Y-55000000D01*
%TO.N,Net-(D1-Pad2)*%
X180400000Y-45900000D02*
X180400000Y-44170000D01*
%TO.N,ADR11*%
X159986442Y-69601000D02*
X156836384Y-69601000D01*
X137300000Y-92000000D02*
X137300000Y-96020000D01*
X142398000Y-75701884D02*
X142398000Y-87202000D01*
X156835384Y-69602000D02*
X148497884Y-69602000D01*
X163137500Y-69600000D02*
X159987442Y-69600000D01*
X159987442Y-69600000D02*
X159986442Y-69601000D01*
X137300000Y-96020000D02*
X137340000Y-96060000D01*
X166300000Y-66437500D02*
X163137500Y-69600000D01*
X142398000Y-87202000D02*
X137600000Y-92000000D01*
X156836384Y-69601000D02*
X156835384Y-69602000D01*
X137600000Y-92000000D02*
X137300000Y-92000000D01*
X148497884Y-69602000D02*
X142398000Y-75701884D01*
%TO.N,ADR14*%
X143700000Y-103900000D02*
X142600000Y-102800000D01*
X142400000Y-102800000D02*
X142400000Y-98620000D01*
X170554710Y-90405000D02*
X173699000Y-93549290D01*
X146300000Y-85437500D02*
X151267500Y-90405000D01*
X170699650Y-103900000D02*
X143700000Y-103900000D01*
X173699000Y-100900650D02*
X170699650Y-103900000D01*
X142400000Y-98620000D02*
X142420000Y-98600000D01*
X151267500Y-90405000D02*
X170554710Y-90405000D01*
X142600000Y-102800000D02*
X142400000Y-102800000D01*
X173699000Y-93549290D02*
X173699000Y-100900650D01*
%TO.N,ADR0*%
X130428030Y-108107000D02*
X125121030Y-102800000D01*
X125121030Y-102800000D02*
X124600000Y-102800000D01*
X124640000Y-98600000D02*
X124640000Y-102760000D01*
X174300000Y-85437500D02*
X177906000Y-89043500D01*
X124640000Y-102760000D02*
X124600000Y-102800000D01*
X172492300Y-108107000D02*
X130428030Y-108107000D01*
X177906000Y-102693300D02*
X172492300Y-108107000D01*
X177906000Y-89043500D02*
X177906000Y-102693300D01*
%TO.N,RW L*%
X164072500Y-54037500D02*
X166210000Y-54037500D01*
X163710000Y-54400000D02*
X164072500Y-54037500D01*
%TO.N,ADR13*%
X148746826Y-70203000D02*
X142999000Y-75950826D01*
X142999000Y-89001000D02*
X140000000Y-92000000D01*
X139900000Y-96040000D02*
X139880000Y-96060000D01*
X157084326Y-70203000D02*
X148746826Y-70203000D01*
X160235384Y-70202000D02*
X157085326Y-70202000D01*
X170300000Y-66437500D02*
X166536500Y-70201000D01*
X142999000Y-75950826D02*
X142999000Y-89001000D01*
X139900000Y-92000000D02*
X139900000Y-96040000D01*
X160236384Y-70201000D02*
X160235384Y-70202000D01*
X166536500Y-70201000D02*
X160236384Y-70201000D01*
X140000000Y-92000000D02*
X139900000Y-92000000D01*
X157085326Y-70202000D02*
X157084326Y-70203000D01*
%TO.N,ADR15*%
X143600000Y-91109999D02*
X142709999Y-92000000D01*
X157334268Y-70803000D02*
X157333268Y-70804000D01*
X157333268Y-70804000D02*
X148995768Y-70804000D01*
X142400000Y-92000000D02*
X142400000Y-96040000D01*
X142400000Y-96040000D02*
X142420000Y-96060000D01*
X142709999Y-92000000D02*
X142400000Y-92000000D01*
X160484326Y-70803000D02*
X157334268Y-70803000D01*
X169935500Y-70802000D02*
X160485326Y-70802000D01*
X174300000Y-66437500D02*
X169935500Y-70802000D01*
X143600000Y-76199768D02*
X143600000Y-91109999D01*
X160485326Y-70802000D02*
X160484326Y-70803000D01*
X148995768Y-70804000D02*
X143600000Y-76199768D01*
%TO.N,ADR8*%
X175502000Y-101647476D02*
X171446476Y-105703000D01*
X135221030Y-102800000D02*
X134800000Y-102800000D01*
X171301536Y-88602000D02*
X175502000Y-92802464D01*
X138124030Y-105703000D02*
X135221030Y-102800000D01*
X171446476Y-105703000D02*
X138124030Y-105703000D01*
X134800000Y-102800000D02*
X134800000Y-98600000D01*
X161464500Y-88602000D02*
X171301536Y-88602000D01*
X175502000Y-92802464D02*
X175502000Y-101647476D01*
X158300000Y-85437500D02*
X161464500Y-88602000D01*
%TO.N,ADR2*%
X132306000Y-107506000D02*
X127600000Y-102800000D01*
X170737500Y-85437500D02*
X177305000Y-92005000D01*
X127180000Y-102780000D02*
X127200000Y-102800000D01*
X177305000Y-102394298D02*
X172193298Y-107506000D01*
X127600000Y-102800000D02*
X127200000Y-102800000D01*
X127180000Y-98600000D02*
X127180000Y-102780000D01*
X170300000Y-85437500D02*
X170737500Y-85437500D01*
X177305000Y-92005000D02*
X177305000Y-102394298D01*
X172193298Y-107506000D02*
X132306000Y-107506000D01*
%TO.N,ADR1*%
X146300000Y-67450058D02*
X146300000Y-66437500D01*
X124600000Y-92000000D02*
X124909999Y-92000000D01*
X124640000Y-96060000D02*
X124640000Y-92040000D01*
X124640000Y-92040000D02*
X124600000Y-92000000D01*
X139299000Y-74451058D02*
X146300000Y-67450058D01*
X124909999Y-92000000D02*
X139299000Y-77610999D01*
X139299000Y-77610999D02*
X139299000Y-74451058D01*
%TO.N,CLK L*%
X158810000Y-49600000D02*
X158387500Y-49600000D01*
X158387500Y-49600000D02*
X157250000Y-48462500D01*
%TO.N,5V*%
X161700000Y-109700000D02*
X163000000Y-109700000D01*
%TO.N,ADR4*%
X129720000Y-98600000D02*
X129720000Y-102780000D01*
X130009999Y-102800000D02*
X134114999Y-106905000D01*
X134114999Y-106905000D02*
X171944356Y-106905000D01*
X129700000Y-102800000D02*
X130009999Y-102800000D01*
X171799418Y-87400000D02*
X168262500Y-87400000D01*
X129720000Y-102780000D02*
X129700000Y-102800000D01*
X171944356Y-106905000D02*
X176704000Y-102145358D01*
X168262500Y-87400000D02*
X166300000Y-85437500D01*
X176704000Y-102145358D02*
X176704000Y-92304582D01*
X176704000Y-92304582D02*
X171799418Y-87400000D01*
%TO.N,3.3V*%
X140300000Y-97349000D02*
X140398182Y-97349000D01*
X137800000Y-97349000D02*
X137500000Y-97349000D01*
X127736182Y-97349000D02*
X128469000Y-98081818D01*
X141901818Y-97349000D02*
X141169000Y-98081818D01*
X138629000Y-96578182D02*
X139399818Y-97349000D01*
X134100000Y-97349000D02*
X130200000Y-97349000D01*
X126661818Y-97349000D02*
X125929000Y-98081818D01*
X126661818Y-97311000D02*
X127736182Y-97311000D01*
X124159818Y-97349000D02*
X125158182Y-97349000D01*
X126699818Y-97349000D02*
X127736182Y-97349000D01*
X132778182Y-97349000D02*
X133549000Y-96578182D01*
X125929000Y-98081818D02*
X125929000Y-102607970D01*
X129201818Y-97349000D02*
X128469000Y-98081818D01*
X126890001Y-91000000D02*
X127200000Y-91000000D01*
X140300000Y-97349000D02*
X139600000Y-97349000D01*
X136859818Y-97349000D02*
X136089000Y-96578182D01*
X136821818Y-97349000D02*
X136089000Y-98081818D01*
X132400000Y-97349000D02*
X132816182Y-97349000D01*
X123389000Y-99100000D02*
X123389000Y-102667970D01*
X125196182Y-97349000D02*
X125929000Y-98081818D01*
X131741818Y-97349000D02*
X131009000Y-98081818D01*
X137221030Y-91000000D02*
X137300000Y-91000000D01*
X134721030Y-103800000D02*
X134800000Y-103800000D01*
X127400000Y-97349000D02*
X126661818Y-97349000D01*
X139399818Y-97349000D02*
X139361818Y-97349000D01*
X120509999Y-112900000D02*
X120200000Y-112900000D01*
X128469000Y-102647970D02*
X129621030Y-103800000D01*
X139361818Y-97349000D02*
X138629000Y-98081818D01*
X127400000Y-97349000D02*
X125000000Y-97349000D01*
X123389000Y-95100000D02*
X123389000Y-92132030D01*
X123389000Y-102667970D02*
X124521030Y-103800000D01*
X133549000Y-92172030D02*
X134721030Y-91000000D01*
X137500000Y-97349000D02*
X137858182Y-97349000D01*
X132400000Y-97349000D02*
X131741818Y-97349000D01*
X132400000Y-97349000D02*
X132778182Y-97349000D01*
X124900000Y-97349000D02*
X124159818Y-97349000D01*
X125929000Y-91961001D02*
X126890001Y-91000000D01*
X129239818Y-97349000D02*
X128469000Y-96578182D01*
X134319818Y-97349000D02*
X133549000Y-96578182D01*
X130200000Y-97349000D02*
X127400000Y-97349000D01*
X124900000Y-97349000D02*
X125196182Y-97349000D01*
X137500000Y-97349000D02*
X136000000Y-97349000D01*
X136000000Y-97349000D02*
X134900000Y-97349000D01*
X127736182Y-97311000D02*
X128469000Y-96578182D01*
X130238182Y-97349000D02*
X131009000Y-96578182D01*
X129239818Y-97349000D02*
X130238182Y-97349000D01*
X138100000Y-97349000D02*
X136821818Y-97349000D01*
X135356182Y-97311000D02*
X136089000Y-96578182D01*
X142321030Y-103800000D02*
X142400000Y-103800000D01*
X132816182Y-97349000D02*
X133549000Y-98081818D01*
X136089000Y-98081818D02*
X136089000Y-102667970D01*
X136089000Y-92132030D02*
X137221030Y-91000000D01*
X129700000Y-97349000D02*
X130276182Y-97349000D01*
X132400000Y-97349000D02*
X131779818Y-97349000D01*
X136000000Y-97349000D02*
X134100000Y-97349000D01*
X135356182Y-97349000D02*
X135356182Y-97311000D01*
X134100000Y-97349000D02*
X132400000Y-97349000D01*
X136089000Y-96578182D02*
X136089000Y-92132030D01*
X128469000Y-91921001D02*
X129390001Y-91000000D01*
X141169000Y-96578182D02*
X141169000Y-91921001D01*
X139600000Y-97349000D02*
X140436182Y-97349000D01*
X140398182Y-97349000D02*
X141169000Y-96578182D01*
X125000000Y-97349000D02*
X124121818Y-97349000D01*
X132221030Y-103800000D02*
X132300000Y-103800000D01*
X127121030Y-103800000D02*
X127200000Y-103800000D01*
X139590001Y-91000000D02*
X138629000Y-91961001D01*
X126525409Y-97174591D02*
X125929000Y-96578182D01*
X127400000Y-97349000D02*
X126699818Y-97349000D01*
X129700000Y-97349000D02*
X129201818Y-97349000D01*
X133549000Y-98081818D02*
X133549000Y-102627970D01*
X139600000Y-97349000D02*
X139399818Y-97349000D01*
X140436182Y-97349000D02*
X141169000Y-98081818D01*
X123389000Y-95100000D02*
X123389000Y-84779001D01*
X125000000Y-97349000D02*
X124900000Y-97349000D01*
X125158182Y-97349000D02*
X125929000Y-96578182D01*
X134319818Y-97349000D02*
X135356182Y-97349000D01*
X138629000Y-98081818D02*
X138629000Y-102838999D01*
X124521030Y-103800000D02*
X124600000Y-103800000D01*
X133549000Y-96578182D02*
X133549000Y-92172030D01*
X131779818Y-97349000D02*
X131009000Y-96578182D01*
X120509999Y-81900000D02*
X120200000Y-81900000D01*
X126525409Y-97174591D02*
X126661818Y-97311000D01*
X131009000Y-92212030D02*
X132221030Y-91000000D01*
X142090001Y-91000000D02*
X142400000Y-91000000D01*
X123389000Y-92132030D02*
X124521030Y-91000000D01*
X138100000Y-97349000D02*
X137800000Y-97349000D01*
X133549000Y-102627970D02*
X134721030Y-103800000D01*
X130200000Y-97349000D02*
X129700000Y-97349000D01*
X141169000Y-91921001D02*
X142090001Y-91000000D01*
X142000000Y-97349000D02*
X141901818Y-97349000D01*
X123389000Y-84779001D02*
X120509999Y-81900000D01*
X137896182Y-97349000D02*
X138629000Y-98081818D01*
X124159818Y-97349000D02*
X123389000Y-96578182D01*
X120200000Y-81900000D02*
X112500000Y-81900000D01*
X139399818Y-97349000D02*
X138100000Y-97349000D01*
X128469000Y-96578182D02*
X128469000Y-91921001D01*
X137500000Y-97349000D02*
X137896182Y-97349000D01*
X130276182Y-97349000D02*
X131009000Y-98081818D01*
X125929000Y-102607970D02*
X127121030Y-103800000D01*
X126699818Y-97349000D02*
X126525409Y-97174591D01*
X135356182Y-97349000D02*
X136089000Y-98081818D01*
X134281818Y-97349000D02*
X133549000Y-98081818D01*
X124121818Y-97349000D02*
X123389000Y-98081818D01*
X141169000Y-98081818D02*
X141169000Y-102647970D01*
X138629000Y-91961001D02*
X138629000Y-96578182D01*
X128469000Y-98081818D02*
X128469000Y-102647970D01*
X137800000Y-97349000D02*
X136859818Y-97349000D01*
X131009000Y-98081818D02*
X131009000Y-102587970D01*
X137858182Y-97349000D02*
X138629000Y-96578182D01*
X125929000Y-96578182D02*
X125929000Y-91961001D01*
X131009000Y-102587970D02*
X132221030Y-103800000D01*
X120200000Y-112900000D02*
X112500000Y-112900000D01*
X142200000Y-97349000D02*
X142000000Y-97349000D01*
X134900000Y-97349000D02*
X134281818Y-97349000D01*
X124521030Y-91000000D02*
X124600000Y-91000000D01*
X123389000Y-96578182D02*
X123389000Y-95400000D01*
%TO.N,GND*%
X144400000Y-98600000D02*
X144960000Y-98600000D01*
%TO.N,3.3V*%
X123389000Y-110020999D02*
X120509999Y-112900000D01*
X141169000Y-102647970D02*
X142321030Y-103800000D01*
X134721030Y-91000000D02*
X134800000Y-91000000D01*
X129621030Y-103800000D02*
X129700000Y-103800000D01*
X142000000Y-97349000D02*
X140300000Y-97349000D01*
X141939818Y-97349000D02*
X141169000Y-96578182D01*
X132221030Y-91000000D02*
X132300000Y-91000000D01*
X142200000Y-97349000D02*
X141939818Y-97349000D01*
X123389000Y-98081818D02*
X123389000Y-99100000D01*
X123389000Y-99100000D02*
X123389000Y-110020999D01*
X131009000Y-96578182D02*
X131009000Y-92212030D01*
X129700000Y-97349000D02*
X129239818Y-97349000D01*
X137221030Y-103800000D02*
X137300000Y-103800000D01*
X129390001Y-91000000D02*
X129700000Y-91000000D01*
X139590001Y-103800000D02*
X139900000Y-103800000D01*
X138629000Y-102838999D02*
X139590001Y-103800000D01*
X123389000Y-98081818D02*
X123389000Y-97349000D01*
X139900000Y-91000000D02*
X139590001Y-91000000D01*
X151400000Y-109700000D02*
X149500000Y-109700000D01*
X136089000Y-102667970D02*
X137221030Y-103800000D01*
X134900000Y-97349000D02*
X134319818Y-97349000D01*
%TO.N,ADR9*%
X141797000Y-75452942D02*
X141797000Y-85312999D01*
X162300000Y-66437500D02*
X159737500Y-69000000D01*
X134800000Y-92000000D02*
X134800000Y-96060000D01*
X135109999Y-92000000D02*
X134800000Y-92000000D01*
X141797000Y-85312999D02*
X135109999Y-92000000D01*
X148248942Y-69001000D02*
X141797000Y-75452942D01*
X156587442Y-69000000D02*
X156586442Y-69001000D01*
X159737500Y-69000000D02*
X156587442Y-69000000D01*
X156586442Y-69001000D02*
X148248942Y-69001000D01*
%TO.N,ADR10*%
X137300000Y-98640000D02*
X137340000Y-98600000D01*
X171197532Y-105102000D02*
X140002000Y-105102000D01*
X174901000Y-101398532D02*
X171197532Y-105102000D01*
X171052594Y-89203000D02*
X174901000Y-93051406D01*
X137300000Y-102800000D02*
X137300000Y-98640000D01*
X158065500Y-89203000D02*
X171052594Y-89203000D01*
X140002000Y-105102000D02*
X137700000Y-102800000D01*
X174901000Y-93051406D02*
X174901000Y-101398532D01*
X154300000Y-85437500D02*
X158065500Y-89203000D01*
X137700000Y-102800000D02*
X137300000Y-102800000D01*
%TO.N,ADR7*%
X158300000Y-66437500D02*
X156337500Y-68400000D01*
X132609999Y-92000000D02*
X132300000Y-92000000D01*
X141196000Y-75204000D02*
X141196000Y-83413999D01*
X141196000Y-83413999D02*
X132609999Y-92000000D01*
X132300000Y-96020000D02*
X132260000Y-96060000D01*
X156337500Y-68400000D02*
X148000000Y-68400000D01*
X132300000Y-92000000D02*
X132300000Y-96020000D01*
X148000000Y-68400000D02*
X141196000Y-75204000D01*
%TO.N,ADR3*%
X127209999Y-92300000D02*
X127200000Y-92300000D01*
X150300000Y-66437500D02*
X148162500Y-66437500D01*
X127200000Y-92300000D02*
X127200000Y-96040000D01*
X139900000Y-74700000D02*
X139900000Y-79609999D01*
X127200000Y-92000000D02*
X127200000Y-92300000D01*
X148162500Y-66437500D02*
X139900000Y-74700000D01*
X139900000Y-79609999D02*
X127209999Y-92300000D01*
X127200000Y-96040000D02*
X127180000Y-96060000D01*
%TO.N,ADR12*%
X174300000Y-101149590D02*
X170948590Y-104501000D01*
X140321030Y-102800000D02*
X139900000Y-102800000D01*
X142022030Y-104501000D02*
X140321030Y-102800000D01*
X170948590Y-104501000D02*
X142022030Y-104501000D01*
X170803650Y-89804000D02*
X174300000Y-93300350D01*
X174300000Y-93300350D02*
X174300000Y-101149590D01*
X154666500Y-89804000D02*
X170803650Y-89804000D01*
X150300000Y-85437500D02*
X154666500Y-89804000D01*
X139900000Y-102800000D02*
X139900000Y-98620000D01*
X139900000Y-98620000D02*
X139880000Y-98600000D01*
%TO.N,ADR6*%
X136225030Y-106304000D02*
X171695416Y-106304000D01*
X132260000Y-98600000D02*
X132260000Y-102760000D01*
X171695416Y-106304000D02*
X176103000Y-101896416D01*
X132721030Y-102800000D02*
X136225030Y-106304000D01*
X132260000Y-102760000D02*
X132300000Y-102800000D01*
X164862500Y-88000000D02*
X162300000Y-85437500D01*
X176103000Y-101896416D02*
X176103000Y-92553522D01*
X176103000Y-92553522D02*
X171549478Y-88000000D01*
X171549478Y-88000000D02*
X164862500Y-88000000D01*
X132300000Y-102800000D02*
X132721030Y-102800000D01*
%TO.N,RST L*%
X161960000Y-47162500D02*
X160821500Y-46024000D01*
X160821500Y-46024000D02*
X159586000Y-46024000D01*
X159586000Y-46024000D02*
X158710000Y-46900000D01*
%TO.N,ADR5*%
X140595000Y-74905000D02*
X140595000Y-81626030D01*
X129700000Y-92000000D02*
X129700000Y-96040000D01*
X154300000Y-66437500D02*
X152937500Y-67800000D01*
X130221030Y-92000000D02*
X129700000Y-92000000D01*
X147700000Y-67800000D02*
X140595000Y-74905000D01*
X140595000Y-81626030D02*
X130221030Y-92000000D01*
X152937500Y-67800000D02*
X147700000Y-67800000D01*
X129700000Y-96040000D02*
X129720000Y-96060000D01*
D27*
%TO.N,A14*%
X147300000Y-76500000D02*
X147300000Y-78712500D01*
X147300000Y-78712500D02*
X147250000Y-78762500D01*
%TO.N,A10*%
X155300000Y-76900000D02*
X155250000Y-76950000D01*
X155300000Y-76500000D02*
X155300000Y-76900000D01*
X155250000Y-76950000D02*
X155250000Y-78762500D01*
%TO.N,A4*%
X167250000Y-76650000D02*
X167250000Y-78762500D01*
X167300000Y-76600000D02*
X167250000Y-76650000D01*
%TO.N,A12*%
X151300000Y-76500000D02*
X151250000Y-76550000D01*
X151250000Y-76550000D02*
X151250000Y-78762500D01*
%TO.N,A2*%
X171300000Y-76500000D02*
X171250000Y-76550000D01*
X171250000Y-76550000D02*
X171250000Y-78762500D01*
%TO.N,A13*%
X171250000Y-57650000D02*
X171250000Y-59762500D01*
X171300000Y-57600000D02*
X171250000Y-57650000D01*
%TO.N,A6*%
X163300000Y-76600000D02*
X163300000Y-77000000D01*
X163250000Y-77050000D02*
X163250000Y-78762500D01*
X163300000Y-77000000D02*
X163250000Y-77050000D01*
%TO.N,A15*%
X175300000Y-57600000D02*
X175250000Y-57650000D01*
X175250000Y-57650000D02*
X175250000Y-59762500D01*
%TO.N,A9*%
X163250000Y-57650000D02*
X163250000Y-59762500D01*
X163300000Y-57600000D02*
X163250000Y-57650000D01*
%TO.N,A11*%
X167300000Y-57600000D02*
X167250000Y-57650000D01*
X167250000Y-57650000D02*
X167250000Y-59762500D01*
%TO.N,A5*%
X155300000Y-57600000D02*
X155250000Y-57650000D01*
X155250000Y-57650000D02*
X155250000Y-59762500D01*
%TO.N,A8*%
X159300000Y-76900000D02*
X159250000Y-76950000D01*
X159300000Y-76500000D02*
X159300000Y-76900000D01*
X159250000Y-76950000D02*
X159250000Y-78762500D01*
%TO.N,A1*%
X148300000Y-62200000D02*
X147250000Y-61150000D01*
X147250000Y-61150000D02*
X147250000Y-59762500D01*
%TO.N,A7*%
X159250000Y-59762500D02*
X159250000Y-57650000D01*
X159250000Y-57650000D02*
X159300000Y-57600000D01*
%TO.N,A3*%
X151300000Y-57600000D02*
X151250000Y-57650000D01*
X151250000Y-57650000D02*
X151250000Y-59762500D01*
%TO.N,A0*%
X175250000Y-76550000D02*
X175250000Y-78762500D01*
X175300000Y-76500000D02*
X175250000Y-76550000D01*
%TO.N,Buss3*%
X117937500Y-59837500D02*
X118600000Y-60500000D01*
X118976000Y-68211500D02*
X118976000Y-60876000D01*
X118976000Y-60876000D02*
X118600000Y-60500000D01*
X117937500Y-69250000D02*
X118976000Y-68211500D01*
X117937500Y-59300000D02*
X117937500Y-59837500D01*
%TO.N,R{slash}W*%
X107062500Y-62350000D02*
X107062500Y-61762500D01*
D26*
X159200000Y-42600000D02*
X162319000Y-45719000D01*
D27*
X102000000Y-61300000D02*
X102000000Y-61787500D01*
X120562500Y-61885500D02*
X119977000Y-61300000D01*
X120562500Y-62350000D02*
X120562500Y-61885500D01*
X125062500Y-62350000D02*
X125062500Y-61762500D01*
D26*
X104100001Y-49050000D02*
X101424000Y-51726001D01*
D27*
X134062500Y-62350000D02*
X134062500Y-61862500D01*
D26*
X104837500Y-49050000D02*
X104100001Y-49050000D01*
X165716500Y-45719000D02*
X167160000Y-47162500D01*
D27*
X116062500Y-61885500D02*
X115477000Y-61300000D01*
X111562500Y-62350000D02*
X111562500Y-61885500D01*
D26*
X101424000Y-51726001D02*
X101424000Y-60724000D01*
D27*
X116062500Y-62350000D02*
X116062500Y-61885500D01*
X102000000Y-61787500D02*
X102562500Y-62350000D01*
X107062500Y-61762500D02*
X106600000Y-61300000D01*
X129562500Y-61885500D02*
X128977000Y-61300000D01*
D26*
X101424000Y-60724000D02*
X102000000Y-61300000D01*
D27*
X111562500Y-61885500D02*
X110977000Y-61300000D01*
X129562500Y-62350000D02*
X129562500Y-61885500D01*
X125062500Y-61762500D02*
X124600000Y-61300000D01*
D26*
X162319000Y-45719000D02*
X165716500Y-45719000D01*
D27*
X134062500Y-61862500D02*
X133500000Y-61300000D01*
D26*
%TO.N,CLK*%
X151580000Y-42860000D02*
X151580000Y-42600000D01*
D27*
%TO.N,Buss7*%
X136976000Y-68211500D02*
X135937500Y-69250000D01*
X135937500Y-59300000D02*
X135937500Y-60137500D01*
X135937500Y-60137500D02*
X136976000Y-61176000D01*
X136976000Y-61176000D02*
X136976000Y-68211500D01*
%TO.N,Buss0*%
X104437500Y-69250000D02*
X105476000Y-68211500D01*
X105476000Y-68211500D02*
X105476000Y-60976000D01*
X104437500Y-59937500D02*
X104437500Y-59300000D01*
X105476000Y-60976000D02*
X104437500Y-59937500D01*
%TO.N,Buss2*%
X114476000Y-68211500D02*
X114476000Y-60876000D01*
X113437500Y-69250000D02*
X114476000Y-68211500D01*
X113437500Y-59837500D02*
X113437500Y-59300000D01*
X114476000Y-60876000D02*
X113437500Y-59837500D01*
%TO.N,Buss6*%
X131437500Y-59637500D02*
X131437500Y-59300000D01*
X132476000Y-60676000D02*
X131437500Y-59637500D01*
X132476000Y-68211500D02*
X132476000Y-60676000D01*
X131437500Y-69250000D02*
X132476000Y-68211500D01*
D26*
%TO.N,RST*%
X163700000Y-50200000D02*
X162999000Y-50901000D01*
X161605888Y-54037500D02*
X161010000Y-54037500D01*
X162999000Y-50901000D02*
X162999000Y-51100000D01*
X162999000Y-52644388D02*
X161605888Y-54037500D01*
X162999000Y-51100000D02*
X162999000Y-52644388D01*
D27*
%TO.N,Buss1*%
X108937500Y-59837500D02*
X108937500Y-59300000D01*
X109976000Y-68211500D02*
X109976000Y-60876000D01*
X108937500Y-69250000D02*
X109976000Y-68211500D01*
X109976000Y-60876000D02*
X108937500Y-59837500D01*
%TO.N,Buss5*%
X127976000Y-60776000D02*
X127976000Y-68211500D01*
X127976000Y-68211500D02*
X126937500Y-69250000D01*
X126937500Y-59737500D02*
X127700000Y-60500000D01*
X127700000Y-60500000D02*
X127976000Y-60776000D01*
X126937500Y-59300000D02*
X126937500Y-59737500D01*
%TO.N,Buss4*%
X123576000Y-60876000D02*
X122437500Y-59737500D01*
X122537500Y-69250000D02*
X123576000Y-68211500D01*
X122437500Y-59737500D02*
X122437500Y-59300000D01*
X123576000Y-68211500D02*
X123576000Y-60876000D01*
%TO.N,D0*%
X106000000Y-57812500D02*
X104437500Y-56250000D01*
D26*
X112500000Y-110620000D02*
X111900000Y-110020000D01*
D27*
X106000000Y-69600000D02*
X106000000Y-57812500D01*
X104437500Y-72300000D02*
X106000000Y-70737500D01*
X106000000Y-70737500D02*
X106000000Y-69600000D01*
D26*
X112500000Y-111900000D02*
X112500000Y-110620000D01*
D27*
%TO.N,D1*%
X110377000Y-70000000D02*
X110377000Y-57789500D01*
X110377000Y-57789500D02*
X108837500Y-56250000D01*
X108937500Y-72300000D02*
X110377000Y-70860500D01*
X110377000Y-70860500D02*
X110377000Y-70000000D01*
%TO.N,Net-(Q16-S)*%
X108937500Y-75125000D02*
X107062500Y-73250000D01*
X108937500Y-76300000D02*
X108937500Y-75125000D01*
D26*
%TO.N,D2*%
X115100000Y-110620000D02*
X114500000Y-110020000D01*
D27*
X114877000Y-70860500D02*
X114877000Y-70000000D01*
D26*
X115100000Y-111900000D02*
X115100000Y-110620000D01*
D27*
X114877000Y-70000000D02*
X114877000Y-57689500D01*
X114877000Y-57689500D02*
X113437500Y-56250000D01*
X113437500Y-72300000D02*
X114877000Y-70860500D01*
D26*
%TO.N,D3*%
X115100000Y-84180000D02*
X114500000Y-84780000D01*
D27*
X119377000Y-70000000D02*
X119377000Y-57789500D01*
D26*
X115100000Y-82900000D02*
X115100000Y-84180000D01*
D27*
X119377000Y-57789500D02*
X117837500Y-56250000D01*
X117937500Y-72300000D02*
X119377000Y-70860500D01*
X119377000Y-70860500D02*
X119377000Y-70000000D01*
%TO.N,Net-(Q28-S)*%
X117937500Y-62125000D02*
X116062500Y-60250000D01*
X117937500Y-63300000D02*
X117937500Y-62125000D01*
D26*
%TO.N,D4*%
X117600000Y-111900000D02*
X117600000Y-110620000D01*
X117600000Y-110620000D02*
X117000000Y-110020000D01*
D27*
X124000000Y-70000000D02*
X124000000Y-57812500D01*
X124000000Y-70737500D02*
X124000000Y-70000000D01*
X124000000Y-57812500D02*
X122437500Y-56250000D01*
X122437500Y-72300000D02*
X124000000Y-70737500D01*
%TO.N,Net-(Q34-S)*%
X122437500Y-63300000D02*
X122437500Y-62125000D01*
X122437500Y-62125000D02*
X120562500Y-60250000D01*
%TO.N,D5*%
X128377000Y-70000000D02*
X128377000Y-57789500D01*
X128377000Y-70860500D02*
X128377000Y-70000000D01*
D26*
X117600000Y-84180000D02*
X117000000Y-84780000D01*
X117600000Y-82900000D02*
X117600000Y-84180000D01*
D27*
X126937500Y-72300000D02*
X128377000Y-70860500D01*
X128377000Y-57789500D02*
X126837500Y-56250000D01*
%TO.N,Net-(Q40-S)*%
X126937500Y-62125000D02*
X125062500Y-60250000D01*
X126937500Y-63300000D02*
X126937500Y-62125000D01*
%TO.N,D6*%
X131437500Y-72300000D02*
X132900000Y-70837500D01*
X132900000Y-57712500D02*
X131437500Y-56250000D01*
X132900000Y-70000000D02*
X132900000Y-57712500D01*
D26*
X120200000Y-111900000D02*
X120200000Y-110620000D01*
X120200000Y-110620000D02*
X119600000Y-110020000D01*
D27*
X132900000Y-70837500D02*
X132900000Y-70000000D01*
%TO.N,Net-(Q46-S)*%
X131437500Y-63300000D02*
X131437500Y-62125000D01*
X131437500Y-62125000D02*
X129562500Y-60250000D01*
%TO.N,D7*%
X137377000Y-57689500D02*
X135937500Y-56250000D01*
X137377000Y-70860500D02*
X137377000Y-70000000D01*
D26*
X120200000Y-84180000D02*
X119600000Y-84780000D01*
X120200000Y-82900000D02*
X120200000Y-84180000D01*
D27*
X137377000Y-70000000D02*
X137377000Y-57689500D01*
X135937500Y-72300000D02*
X137377000Y-70860500D01*
D26*
%TO.N,Net-(Q56-D)*%
X174300000Y-80637500D02*
X174300000Y-77000000D01*
X175250000Y-81587500D02*
X174300000Y-80637500D01*
X175250000Y-83562500D02*
X175250000Y-81587500D01*
%TO.N,Net-(Q58-D)*%
X147250000Y-64562500D02*
X147250000Y-62587500D01*
X146300000Y-58200000D02*
X146100000Y-58000000D01*
X146300000Y-61637500D02*
X146300000Y-58200000D01*
X147250000Y-62587500D02*
X146300000Y-61637500D01*
%TO.N,Net-(Q60-D)*%
X170300000Y-80637500D02*
X170300000Y-77200000D01*
X171250000Y-83562500D02*
X171250000Y-81587500D01*
X170300000Y-77200000D02*
X170100000Y-77000000D01*
X171250000Y-81587500D02*
X170300000Y-80637500D01*
%TO.N,Net-(Q62-D)*%
X150300000Y-61637500D02*
X150300000Y-58200000D01*
X150300000Y-58200000D02*
X150100000Y-58000000D01*
X151250000Y-64562500D02*
X151250000Y-62587500D01*
X151250000Y-62587500D02*
X150300000Y-61637500D01*
%TO.N,Net-(Q64-D)*%
X166300000Y-77200000D02*
X166100000Y-77000000D01*
X166300000Y-80637500D02*
X166300000Y-77200000D01*
X167250000Y-81587500D02*
X166300000Y-80637500D01*
X167250000Y-83562500D02*
X167250000Y-81587500D01*
%TO.N,Net-(Q66-D)*%
X155250000Y-62587500D02*
X154300000Y-61637500D01*
X154300000Y-61637500D02*
X154300000Y-58200000D01*
X154300000Y-58200000D02*
X154100000Y-58000000D01*
X155250000Y-64562500D02*
X155250000Y-62587500D01*
%TO.N,Net-(Q68-D)*%
X163250000Y-81587500D02*
X162300000Y-80637500D01*
X162300000Y-80637500D02*
X162300000Y-77200000D01*
X163250000Y-83562500D02*
X163250000Y-81587500D01*
X162300000Y-77200000D02*
X162100000Y-77000000D01*
%TO.N,Net-(Q70-D)*%
X158300000Y-58200000D02*
X158100000Y-58000000D01*
X159250000Y-62587500D02*
X158300000Y-61637500D01*
X158300000Y-61637500D02*
X158300000Y-58200000D01*
X159250000Y-64562500D02*
X159250000Y-62587500D01*
%TO.N,Net-(Q72-D)*%
X158300000Y-80637500D02*
X158300000Y-77200000D01*
X158300000Y-77200000D02*
X158100000Y-77000000D01*
X159250000Y-83562500D02*
X159250000Y-81587500D01*
X159250000Y-81587500D02*
X158300000Y-80637500D01*
%TO.N,Net-(Q74-D)*%
X162300000Y-58200000D02*
X162100000Y-58000000D01*
X163250000Y-62587500D02*
X162300000Y-61637500D01*
X162300000Y-61637500D02*
X162300000Y-58200000D01*
X163250000Y-64562500D02*
X163250000Y-62587500D01*
%TO.N,Net-(Q76-D)*%
X154300000Y-77200000D02*
X154100000Y-77000000D01*
X155250000Y-83562500D02*
X155250000Y-81587500D01*
X155250000Y-81587500D02*
X154300000Y-80637500D01*
X154300000Y-80637500D02*
X154300000Y-77200000D01*
%TO.N,Net-(Q78-D)*%
X167250000Y-64562500D02*
X167250000Y-62587500D01*
X166300000Y-61637500D02*
X166300000Y-58200000D01*
X166300000Y-58200000D02*
X166100000Y-58000000D01*
X167250000Y-62587500D02*
X166300000Y-61637500D01*
%TO.N,Net-(Q80-D)*%
X150300000Y-80637500D02*
X150300000Y-77200000D01*
X151250000Y-81587500D02*
X150300000Y-80637500D01*
X151250000Y-83562500D02*
X151250000Y-81587500D01*
X150300000Y-77200000D02*
X150100000Y-77000000D01*
%TO.N,Net-(Q82-D)*%
X170300000Y-61637500D02*
X170300000Y-58200000D01*
X171250000Y-64562500D02*
X171250000Y-62587500D01*
X170300000Y-58200000D02*
X170100000Y-58000000D01*
X171250000Y-62587500D02*
X170300000Y-61637500D01*
%TO.N,Net-(Q84-D)*%
X147250000Y-83562500D02*
X147250000Y-81587500D01*
X147250000Y-81587500D02*
X146300000Y-80637500D01*
X146300000Y-77200000D02*
X146100000Y-77000000D01*
X146300000Y-80637500D02*
X146300000Y-77200000D01*
%TO.N,Net-(Q86-D)*%
X174300000Y-61637500D02*
X174300000Y-58200000D01*
X175250000Y-62587500D02*
X174300000Y-61637500D01*
X174300000Y-58200000D02*
X174100000Y-58000000D01*
X175250000Y-64562500D02*
X175250000Y-62587500D01*
D27*
%TO.N,Net-(Q1-D)*%
X166210000Y-51212500D02*
X167160000Y-52162500D01*
X163910000Y-53200000D02*
X163710000Y-53000000D01*
X165601968Y-53200000D02*
X163910000Y-53200000D01*
X166639468Y-52162500D02*
X165601968Y-53200000D01*
X167160000Y-52162500D02*
X166639468Y-52162500D01*
X166210000Y-49037500D02*
X166210000Y-51212500D01*
%TO.N,Net-(Q6-S)*%
X104437500Y-62125000D02*
X102562500Y-60250000D01*
X104437500Y-63300000D02*
X104437500Y-62125000D01*
D26*
%TO.N,Net-(Q20-D)*%
X157250000Y-52562500D02*
X157250000Y-51287500D01*
X157250000Y-51287500D02*
X156300000Y-50337500D01*
D27*
%TO.N,Net-(Q26-D)*%
X116400000Y-54800000D02*
X116400000Y-52600000D01*
X116062500Y-58350000D02*
X116062500Y-55400000D01*
X115962500Y-55237500D02*
X116400000Y-54800000D01*
X115962500Y-55300000D02*
X115962500Y-55237500D01*
X116062500Y-55400000D02*
X115962500Y-55300000D01*
%TO.N,Net-(Q27-D)*%
X118976000Y-77524000D02*
X118976000Y-74717968D01*
X118976000Y-74717968D02*
X116062500Y-71804468D01*
X116062500Y-71350000D02*
X116062500Y-68300000D01*
X116062500Y-71804468D02*
X116062500Y-71350000D01*
X117500000Y-79000000D02*
X118976000Y-77524000D01*
%TO.N,Net-(Q30-S)*%
X117937500Y-76300000D02*
X117937500Y-75125000D01*
X117937500Y-75125000D02*
X116062500Y-73250000D01*
%TO.N,Net-(Q32-D)*%
X120562500Y-55300000D02*
X121000000Y-54862500D01*
X121000000Y-54862500D02*
X121000000Y-52600000D01*
X120562500Y-58350000D02*
X120562500Y-55300000D01*
%TO.N,Net-(Q33-D)*%
X122000000Y-79000000D02*
X123476000Y-77524000D01*
X120562500Y-68400000D02*
X120662500Y-68300000D01*
X120562500Y-71804468D02*
X120562500Y-71350000D01*
X123476000Y-77524000D02*
X123476000Y-74717968D01*
X120562500Y-71350000D02*
X120562500Y-68400000D01*
X123476000Y-74717968D02*
X120562500Y-71804468D01*
%TO.N,Net-(Q36-S)*%
X122437500Y-75125000D02*
X120562500Y-73250000D01*
X122437500Y-76300000D02*
X122437500Y-75125000D01*
%TO.N,Net-(Q38-D)*%
X124962500Y-55300000D02*
X125400000Y-54862500D01*
X125062500Y-58350000D02*
X125062500Y-55400000D01*
X125062500Y-55400000D02*
X124962500Y-55300000D01*
X125400000Y-54862500D02*
X125400000Y-52600000D01*
%TO.N,Net-(Q39-D)*%
X127976000Y-74717968D02*
X125062500Y-71804468D01*
X126500000Y-79000000D02*
X127976000Y-77524000D01*
X125062500Y-71350000D02*
X125062500Y-68300000D01*
X125062500Y-71804468D02*
X125062500Y-71350000D01*
X127976000Y-77524000D02*
X127976000Y-74717968D01*
%TO.N,Net-(Q42-S)*%
X126937500Y-75125000D02*
X125062500Y-73250000D01*
X126937500Y-76300000D02*
X126937500Y-75125000D01*
%TO.N,Net-(Q44-D)*%
X129562500Y-55300000D02*
X130000000Y-54862500D01*
X130000000Y-54862500D02*
X130000000Y-52600000D01*
X129562500Y-58350000D02*
X129562500Y-55300000D01*
%TO.N,Net-(Q45-D)*%
X129562500Y-71350000D02*
X129562500Y-68300000D01*
X131000000Y-79000000D02*
X132476000Y-77524000D01*
X132476000Y-74717968D02*
X129562500Y-71804468D01*
X129562500Y-71804468D02*
X129562500Y-71350000D01*
X132476000Y-77524000D02*
X132476000Y-74717968D01*
%TO.N,Net-(Q48-S)*%
X131437500Y-75125000D02*
X129562500Y-73250000D01*
X131437500Y-76300000D02*
X131437500Y-75125000D01*
%TO.N,Net-(Q50-D)*%
X134062500Y-55300000D02*
X134500000Y-54862500D01*
X134062500Y-58350000D02*
X134062500Y-55300000D01*
X134500000Y-54862500D02*
X134500000Y-52600000D01*
D26*
%TO.N,Net-(J2-Pin_38)*%
X156371000Y-99851000D02*
X155120000Y-98600000D01*
X163940000Y-98600000D02*
X162689000Y-99851000D01*
X162689000Y-99851000D02*
X156371000Y-99851000D01*
%TO.N,Net-(J2-Pin_10)*%
X119600000Y-102400000D02*
X119600000Y-98640000D01*
X119600000Y-98640000D02*
X119560000Y-98600000D01*
%TO.N,Net-(J2-Pin_4)*%
X111900000Y-102400000D02*
X111900000Y-98640000D01*
X111900000Y-98640000D02*
X111940000Y-98600000D01*
%TO.N,Net-(J2-Pin_40)*%
X161400000Y-98600000D02*
X157660000Y-98600000D01*
%TO.N,Net-(J2-Pin_7)*%
X117020000Y-96060000D02*
X117020000Y-92420000D01*
%TO.N,Net-(J2-Pin_9)*%
X119560000Y-96060000D02*
X119560000Y-92440000D01*
%TO.N,Net-(J2-Pin_39)*%
X161400000Y-96060000D02*
X157660000Y-96060000D01*
%TO.N,Net-(J2-Pin_8)*%
X117000000Y-102400000D02*
X117000000Y-98620000D01*
X117000000Y-98620000D02*
X117020000Y-98600000D01*
%TO.N,Net-(J2-Pin_6)*%
X114500000Y-102400000D02*
X114500000Y-98620000D01*
X114500000Y-98620000D02*
X114480000Y-98600000D01*
%TO.N,Net-(J2-Pin_37)*%
X162689000Y-94809000D02*
X156371000Y-94809000D01*
X156371000Y-94809000D02*
X155120000Y-96060000D01*
X163940000Y-96060000D02*
X162689000Y-94809000D01*
%TO.N,Net-(J2-Pin_36)*%
X166480000Y-98600000D02*
X164628000Y-100452000D01*
X164628000Y-100452000D02*
X154432000Y-100452000D01*
X154432000Y-100452000D02*
X152580000Y-98600000D01*
%TO.N,Net-(J2-Pin_35)*%
X164628000Y-94208000D02*
X154432000Y-94208000D01*
X154432000Y-94208000D02*
X152580000Y-96060000D01*
X166480000Y-96060000D02*
X164628000Y-94208000D01*
%TO.N,Net-(Q17-G)*%
X102962500Y-47347499D02*
X102962500Y-48100000D01*
D27*
X102000000Y-74300000D02*
X102000000Y-74787500D01*
X134062500Y-74762500D02*
X133600000Y-74300000D01*
X129562500Y-74862500D02*
X129000000Y-74300000D01*
X107062500Y-75350000D02*
X107062500Y-74962500D01*
X120562500Y-74862500D02*
X120000000Y-74300000D01*
X134062500Y-75350000D02*
X134062500Y-74762500D01*
X125062500Y-74862500D02*
X124500000Y-74300000D01*
D26*
X100801000Y-73101000D02*
X102000000Y-74300000D01*
X104400000Y-45909999D02*
X102962500Y-47347499D01*
X100801000Y-51499059D02*
X100801000Y-73101000D01*
X100800000Y-50262500D02*
X100800000Y-51498059D01*
D27*
X111562500Y-75350000D02*
X111562500Y-74862500D01*
X116062500Y-74862500D02*
X115500000Y-74300000D01*
X129562500Y-75350000D02*
X129562500Y-74862500D01*
D26*
X104400000Y-45600000D02*
X104400000Y-45909999D01*
D27*
X120562500Y-75350000D02*
X120562500Y-74862500D01*
X111562500Y-74862500D02*
X111000000Y-74300000D01*
D26*
X100800000Y-51498059D02*
X100801000Y-51499059D01*
D27*
X116062500Y-75350000D02*
X116062500Y-74862500D01*
D26*
X102962500Y-48100000D02*
X100800000Y-50262500D01*
D27*
X107062500Y-74962500D02*
X106400000Y-74300000D01*
X102000000Y-74787500D02*
X102562500Y-75350000D01*
X125062500Y-75350000D02*
X125062500Y-74862500D01*
%TO.N,Net-(Q4-D)*%
X103000000Y-54862500D02*
X103000000Y-52600000D01*
X102562500Y-58350000D02*
X102562500Y-55300000D01*
X102562500Y-55300000D02*
X103000000Y-54862500D01*
%TO.N,Net-(Q5-D)*%
X102562500Y-71350000D02*
X102562500Y-68300000D01*
X102562500Y-71870532D02*
X102562500Y-71350000D01*
X104000000Y-79000000D02*
X105476000Y-77524000D01*
X105476000Y-77524000D02*
X105476000Y-74784032D01*
X105476000Y-74784032D02*
X102562500Y-71870532D01*
%TO.N,Net-(Q8-S)*%
X104437500Y-76300000D02*
X104437500Y-75125000D01*
X104437500Y-75125000D02*
X102562500Y-73250000D01*
D26*
%TO.N,Net-(Q10-D)*%
X163390001Y-46400000D02*
X162661000Y-47129001D01*
X161960000Y-52162500D02*
X161960000Y-49987500D01*
X162226694Y-48416694D02*
X161605888Y-49037500D01*
X161960000Y-48683388D02*
X161960000Y-49987500D01*
X162661000Y-47982388D02*
X162226694Y-48416694D01*
X161605888Y-49037500D02*
X161010000Y-49037500D01*
X162226694Y-48416694D02*
X161960000Y-48683388D01*
X161960000Y-49987500D02*
X161010000Y-49037500D01*
X162661000Y-47129001D02*
X162661000Y-47982388D01*
X163700000Y-46400000D02*
X163390001Y-46400000D01*
D27*
%TO.N,Net-(Q11-D)*%
X106962500Y-55300000D02*
X107400000Y-54862500D01*
X107400000Y-54862500D02*
X107400000Y-52500000D01*
X107062500Y-55400000D02*
X106962500Y-55300000D01*
X107062500Y-58350000D02*
X107062500Y-55400000D01*
%TO.N,Net-(Q12-D)*%
X107062500Y-71350000D02*
X107062500Y-68300000D01*
X109976000Y-77524000D02*
X109976000Y-74717968D01*
X109976000Y-74717968D02*
X107062500Y-71804468D01*
X108500000Y-79000000D02*
X109976000Y-77524000D01*
X107062500Y-71804468D02*
X107062500Y-71350000D01*
%TO.N,Net-(Q14-S)*%
X108937500Y-62125000D02*
X107062500Y-60250000D01*
X108937500Y-63300000D02*
X108937500Y-62125000D01*
%TO.N,Net-(Q18-D)*%
X112000000Y-54700000D02*
X112000000Y-52600000D01*
X111562500Y-55137500D02*
X112000000Y-54700000D01*
X111562500Y-58350000D02*
X111562500Y-55300000D01*
X111562500Y-55300000D02*
X111562500Y-55137500D01*
%TO.N,Net-(Q19-D)*%
X111562500Y-71804468D02*
X111562500Y-71350000D01*
X111562500Y-68300000D02*
X111562500Y-71350000D01*
X113000000Y-79000000D02*
X114476000Y-77524000D01*
X114476000Y-77524000D02*
X114476000Y-74717968D01*
X114476000Y-74717968D02*
X111562500Y-71804468D01*
%TO.N,Net-(Q21-S)*%
X113437500Y-63300000D02*
X113437500Y-62125000D01*
X113437500Y-62125000D02*
X111562500Y-60250000D01*
%TO.N,Net-(Q23-S)*%
X113437500Y-75125000D02*
X111562500Y-73250000D01*
X113437500Y-76300000D02*
X113437500Y-75125000D01*
%TO.N,Net-(Q51-D)*%
X135500000Y-79000000D02*
X136976000Y-77524000D01*
X136976000Y-74717968D02*
X134062500Y-71804468D01*
X134062500Y-71350000D02*
X134062500Y-68300000D01*
X134062500Y-71804468D02*
X134062500Y-71350000D01*
X136976000Y-77524000D02*
X136976000Y-74717968D01*
%TO.N,Net-(Q52-S)*%
X135937500Y-62125000D02*
X134062500Y-60250000D01*
X135937500Y-63300000D02*
X135937500Y-62125000D01*
%TO.N,Net-(Q54-S)*%
X135937500Y-75125000D02*
X134062500Y-73250000D01*
X135937500Y-76300000D02*
X135937500Y-75125000D01*
D26*
%TO.N,Net-(J2-Pin_34)*%
X152493000Y-101053000D02*
X150040000Y-98600000D01*
X166567000Y-101053000D02*
X152493000Y-101053000D01*
X169020000Y-98600000D02*
X166567000Y-101053000D01*
%TO.N,Net-(D2-Pad2)*%
X152400000Y-109700000D02*
X154330000Y-109700000D01*
%TO.N,Net-(D3-Pad2)*%
X164100000Y-109700000D02*
X165930000Y-109700000D01*
X164000000Y-109600000D02*
X164100000Y-109700000D01*
%TD*%
M02*
