%TF.GenerationSoftware,KiCad,Pcbnew,9.0.7*%
%TF.CreationDate,2026-03-28T17:24:32+01:00*%
%TF.ProjectId,Level_shifter_FPGA_V1.0,4c657665-6c5f-4736-9869-667465725f46,rev?*%
%TF.SameCoordinates,Original*%
%TF.FileFunction,Copper,L2,Inr*%
%TF.FilePolarity,Positive*%
%FSLAX46Y46*%
G04 Gerber Fmt 4.6, Leading zero omitted, Abs format (unit mm)*
G04 Created by KiCad (PCBNEW 9.0.7) date 2026-03-28 17:24:32*
%MOMM*%
%LPD*%
G01*
G04 APERTURE LIST*
%TA.AperFunction,ComponentPad*%
%ADD10R,1.700000X1.700000*%
%TD*%
%TA.AperFunction,ComponentPad*%
%ADD11C,1.700000*%
%TD*%
%TA.AperFunction,ComponentPad*%
%ADD12C,1.400000*%
%TD*%
%TA.AperFunction,ComponentPad*%
%ADD13R,1.800000X1.800000*%
%TD*%
%TA.AperFunction,ComponentPad*%
%ADD14C,1.800000*%
%TD*%
%TA.AperFunction,ViaPad*%
%ADD15C,0.600000*%
%TD*%
%TA.AperFunction,ViaPad*%
%ADD16C,1.000000*%
%TD*%
%TA.AperFunction,Conductor*%
%ADD17C,0.200000*%
%TD*%
%TA.AperFunction,Conductor*%
%ADD18C,1.000000*%
%TD*%
%TA.AperFunction,Conductor*%
%ADD19C,0.400000*%
%TD*%
G04 APERTURE END LIST*
D10*
%TO.N,Net-(J2-Pin_39)*%
%TO.C,J3*%
X34340000Y-124800000D03*
D11*
%TO.N,Net-(J2-Pin_40)*%
X31800000Y-124800000D03*
%TO.N,Net-(J2-Pin_37)*%
X34340000Y-127340000D03*
%TO.N,Net-(J2-Pin_38)*%
X31800000Y-127340000D03*
%TO.N,Net-(J2-Pin_35)*%
X34340000Y-129880000D03*
%TO.N,Net-(J2-Pin_36)*%
X31800000Y-129880000D03*
%TO.N,Net-(J2-Pin_1)*%
X34340000Y-132420000D03*
%TO.N,Net-(J2-Pin_34)*%
X31800000Y-132420000D03*
%TO.N,GND*%
X34340000Y-134960000D03*
%TO.N,Net-(J2-Pin_2)*%
X31800000Y-134960000D03*
%TD*%
D12*
%TO.N,D1*%
%TO.C,R5*%
X45620000Y-75300000D03*
%TO.N,Net-(J2-Pin_3)*%
X38000000Y-75300000D03*
%TD*%
%TO.N,D7*%
%TO.C,R8*%
X45620000Y-83000000D03*
%TO.N,Net-(J2-Pin_9)*%
X38000000Y-83000000D03*
%TD*%
%TO.N,D5*%
%TO.C,R7*%
X45620000Y-80400000D03*
%TO.N,Net-(J2-Pin_7)*%
X38000000Y-80400000D03*
%TD*%
D10*
%TO.N,Buss0*%
%TO.C,J8*%
X90340000Y-109900000D03*
D11*
%TO.N,VCC*%
X87800000Y-109900000D03*
%TO.N,Buss1*%
X90340000Y-112440000D03*
%TO.N,GND*%
X87800000Y-112440000D03*
%TO.N,Buss2*%
X90340000Y-114980000D03*
%TO.N,CLK*%
X87800000Y-114980000D03*
%TO.N,Buss3*%
X90340000Y-117520000D03*
%TO.N,RST*%
X87800000Y-117520000D03*
%TO.N,Buss4*%
X90340000Y-120060000D03*
%TO.N,GND*%
X87800000Y-120060000D03*
%TO.N,Buss5*%
X90340000Y-122600000D03*
%TO.N,R{slash}W*%
X87800000Y-122600000D03*
%TO.N,Buss6*%
X90340000Y-125140000D03*
%TO.N,GND*%
X87800000Y-125140000D03*
%TO.N,Buss7*%
X90340000Y-127680000D03*
%TO.N,VCC*%
X87800000Y-127680000D03*
%TD*%
D10*
%TO.N,A7*%
%TO.C,J1*%
X90340000Y-75800000D03*
D11*
%TO.N,A15*%
X87800000Y-75800000D03*
%TO.N,A6*%
X90340000Y-78340000D03*
%TO.N,A14*%
X87800000Y-78340000D03*
%TO.N,A5*%
X90340000Y-80880000D03*
%TO.N,A13*%
X87800000Y-80880000D03*
%TO.N,A4*%
X90340000Y-83420000D03*
%TO.N,A12*%
X87800000Y-83420000D03*
%TO.N,A3*%
X90340000Y-85960000D03*
%TO.N,A11*%
X87800000Y-85960000D03*
%TO.N,A2*%
X90340000Y-88500000D03*
%TO.N,A10*%
X87800000Y-88500000D03*
%TO.N,A1*%
X90340000Y-91040000D03*
%TO.N,A9*%
X87800000Y-91040000D03*
%TO.N,A0*%
X90340000Y-93580000D03*
%TO.N,A8*%
X87800000Y-93580000D03*
%TD*%
D12*
%TO.N,CLK*%
%TO.C,R24*%
X77900000Y-116520000D03*
%TO.N,VCC*%
X77900000Y-108900000D03*
%TD*%
%TO.N,Net-(Q20-D)*%
%TO.C,R22*%
X80100000Y-116520000D03*
%TO.N,VCC*%
X80100000Y-108900000D03*
%TD*%
%TO.N,D6*%
%TO.C,R4*%
X20380000Y-83000000D03*
%TO.N,Net-(J2-Pin_10)*%
X28000000Y-83000000D03*
%TD*%
%TO.N,D4*%
%TO.C,R3*%
X20380000Y-80400000D03*
%TO.N,Net-(J2-Pin_8)*%
X28000000Y-80400000D03*
%TD*%
%TO.N,D2*%
%TO.C,R2*%
X20380000Y-77900000D03*
%TO.N,Net-(J2-Pin_6)*%
X28000000Y-77900000D03*
%TD*%
%TO.N,D0*%
%TO.C,R1*%
X20380000Y-75300000D03*
%TO.N,Net-(J2-Pin_4)*%
X28000000Y-75300000D03*
%TD*%
D10*
%TO.N,VCC*%
%TO.C,J7*%
X88049500Y-136850500D03*
D11*
%TO.N,GND*%
X88049500Y-139390500D03*
%TD*%
D10*
%TO.N,VCC*%
%TO.C,J6*%
X83449500Y-136850500D03*
D11*
%TO.N,GND*%
X83449500Y-139390500D03*
%TD*%
D10*
%TO.N,VCC*%
%TO.C,J5*%
X78849500Y-136850500D03*
D11*
%TO.N,GND*%
X78849500Y-139390500D03*
%TD*%
D10*
%TO.N,GND*%
%TO.C,J4*%
X46860000Y-142800000D03*
D11*
%TO.N,3.3V*%
X46860000Y-145340000D03*
%TO.N,GND*%
X49400000Y-142800000D03*
%TO.N,5V*%
X49400000Y-145340000D03*
%TO.N,GND*%
X51940000Y-142800000D03*
%TO.N,VCC*%
X51940000Y-145340000D03*
%TD*%
D10*
%TO.N,Net-(J2-Pin_1)*%
%TO.C,J2*%
X34340000Y-72800000D03*
D11*
%TO.N,Net-(J2-Pin_2)*%
X31800000Y-72800000D03*
%TO.N,Net-(J2-Pin_3)*%
X34340000Y-75340000D03*
%TO.N,Net-(J2-Pin_4)*%
X31800000Y-75340000D03*
%TO.N,Net-(J2-Pin_5)*%
X34340000Y-77880000D03*
%TO.N,Net-(J2-Pin_6)*%
X31800000Y-77880000D03*
%TO.N,Net-(J2-Pin_7)*%
X34340000Y-80420000D03*
%TO.N,Net-(J2-Pin_8)*%
X31800000Y-80420000D03*
%TO.N,Net-(J2-Pin_9)*%
X34340000Y-82960000D03*
%TO.N,Net-(J2-Pin_10)*%
X31800000Y-82960000D03*
%TO.N,GND*%
X34340000Y-85500000D03*
%TO.N,5V*%
X31800000Y-85500000D03*
%TO.N,ADR1*%
X34340000Y-88040000D03*
%TO.N,ADR0*%
X31800000Y-88040000D03*
%TO.N,ADR3*%
X34340000Y-90580000D03*
%TO.N,ADR2*%
X31800000Y-90580000D03*
%TO.N,ADR5*%
X34340000Y-93120000D03*
%TO.N,ADR4*%
X31800000Y-93120000D03*
%TO.N,ADR7*%
X34340000Y-95660000D03*
%TO.N,ADR6*%
X31800000Y-95660000D03*
%TO.N,ADR9*%
X34340000Y-98200000D03*
%TO.N,ADR8*%
X31800000Y-98200000D03*
%TO.N,ADR11*%
X34340000Y-100740000D03*
%TO.N,ADR10*%
X31800000Y-100740000D03*
%TO.N,ADR13*%
X34340000Y-103280000D03*
%TO.N,ADR12*%
X31800000Y-103280000D03*
%TO.N,ADR15*%
X34340000Y-105820000D03*
%TO.N,ADR14*%
X31800000Y-105820000D03*
%TO.N,GND*%
X34340000Y-108360000D03*
%TO.N,3.3V*%
X31800000Y-108360000D03*
%TO.N,RW L*%
X34340000Y-110900000D03*
%TO.N,CLK L*%
X31800000Y-110900000D03*
%TO.N,RST L*%
X34340000Y-113440000D03*
%TO.N,Net-(J2-Pin_34)*%
X31800000Y-113440000D03*
%TO.N,Net-(J2-Pin_35)*%
X34340000Y-115980000D03*
%TO.N,Net-(J2-Pin_36)*%
X31800000Y-115980000D03*
%TO.N,Net-(J2-Pin_37)*%
X34340000Y-118520000D03*
%TO.N,Net-(J2-Pin_38)*%
X31800000Y-118520000D03*
%TO.N,Net-(J2-Pin_39)*%
X34340000Y-121060000D03*
%TO.N,Net-(J2-Pin_40)*%
X31800000Y-121060000D03*
%TD*%
D13*
%TO.N,GND*%
%TO.C,D1*%
X34870000Y-143900000D03*
D14*
%TO.N,Net-(D1-A)*%
X32330000Y-143900000D03*
%TD*%
D12*
%TO.N,D3*%
%TO.C,R6*%
X45620000Y-77900000D03*
%TO.N,Net-(J2-Pin_5)*%
X38000000Y-77900000D03*
%TD*%
D15*
%TO.N,VCC*%
X80800000Y-126200000D03*
D16*
%TO.N,GND*%
X72600000Y-132000000D03*
X72601000Y-136000000D03*
X62600000Y-127000000D03*
X72500000Y-124100000D03*
X72500000Y-120000000D03*
X72601000Y-115900000D03*
X72100000Y-107400000D03*
X72200000Y-111700000D03*
X42250000Y-67600000D03*
%TO.N,VCC*%
X42150000Y-65500000D03*
%TO.N,GND*%
X25050000Y-67500000D03*
%TO.N,VCC*%
X24950000Y-65500000D03*
X28370000Y-144800000D03*
%TO.N,RST*%
X79300000Y-126399000D03*
%TO.N,GND*%
X81937500Y-116800450D03*
X79900000Y-123460000D03*
X79900000Y-128711000D03*
%TO.N,RST L*%
X83500000Y-122110000D03*
%TO.N,CLK L*%
X80800000Y-122210000D03*
%TO.N,RW L*%
X76000000Y-127110000D03*
D15*
%TO.N,A7*%
X72800000Y-122700000D03*
%TO.N,A5*%
X72800000Y-118700000D03*
%TO.N,A3*%
X72800000Y-114700000D03*
%TO.N,A1*%
X68200000Y-111700000D03*
%TO.N,A9*%
X72800000Y-126700000D03*
%TO.N,A11*%
X72800000Y-130700000D03*
%TO.N,A13*%
X72800000Y-134700000D03*
%TO.N,A15*%
X72800000Y-138700000D03*
%TO.N,D7*%
X60400000Y-100777000D03*
%TO.N,D6*%
X60400000Y-96300000D03*
%TO.N,D5*%
X60400000Y-91777000D03*
%TO.N,D4*%
X60400000Y-87400000D03*
%TO.N,D3*%
X60400000Y-82777000D03*
%TO.N,D2*%
X60400000Y-78277000D03*
%TO.N,D1*%
X60400000Y-73777000D03*
%TO.N,D0*%
X60400000Y-69400000D03*
D16*
%TO.N,GND*%
X48400000Y-108750000D03*
X48400000Y-112750000D03*
X48400000Y-116750000D03*
X48400000Y-120750000D03*
X48400000Y-124750000D03*
X48400000Y-128750000D03*
X48400000Y-132750000D03*
X48400000Y-136750000D03*
D15*
%TO.N,A0*%
X53900000Y-138700000D03*
%TO.N,A2*%
X53900000Y-134700000D03*
%TO.N,A4*%
X53800000Y-130700000D03*
%TO.N,A8*%
X53900000Y-122700000D03*
%TO.N,A10*%
X53900000Y-118700000D03*
%TO.N,A12*%
X53900000Y-114700000D03*
%TO.N,A6*%
X53800000Y-126700000D03*
%TO.N,A14*%
X53900000Y-110700000D03*
%TO.N,Buss7*%
X69800000Y-99800000D03*
%TO.N,Buss6*%
X70000000Y-95600000D03*
%TO.N,Buss5*%
X69900000Y-91100000D03*
%TO.N,Buss4*%
X69900000Y-86600000D03*
%TO.N,Buss3*%
X69900000Y-82000000D03*
%TO.N,Buss2*%
X69900000Y-77500000D03*
%TO.N,Buss7*%
X94100000Y-69200000D03*
%TO.N,Buss6*%
X93200000Y-69200000D03*
%TO.N,Buss5*%
X92300000Y-69200000D03*
%TO.N,Buss4*%
X91355168Y-69161051D03*
%TO.N,Buss3*%
X90504067Y-69158479D03*
%TO.N,Buss2*%
X89660575Y-69163516D03*
%TO.N,Buss1*%
X69900000Y-73000000D03*
X88824265Y-69175735D03*
%TO.N,Buss0*%
X69800000Y-68500000D03*
%TO.N,GND*%
X84500000Y-69000000D03*
X75087500Y-68337500D03*
X75087500Y-72737500D03*
X75087500Y-77337500D03*
X75087500Y-81737500D03*
X75087500Y-86337500D03*
X75087500Y-90737500D03*
X75087500Y-95337500D03*
X75087500Y-99837500D03*
X54087500Y-96937500D03*
X54087500Y-92437500D03*
X54087500Y-87937500D03*
X54087500Y-83437500D03*
X54087500Y-78937500D03*
X54087500Y-74437500D03*
X54087500Y-69937500D03*
X54087500Y-65337500D03*
D16*
%TO.N,VCC*%
X50689000Y-82637500D03*
X78611000Y-82637500D03*
X78611000Y-96337500D03*
X50689000Y-96237500D03*
X78611000Y-69237500D03*
X50689000Y-69037500D03*
%TO.N,GND*%
X64587500Y-85037500D03*
X64587500Y-98437500D03*
X64587500Y-93937500D03*
X64587500Y-89437500D03*
X64587500Y-80437500D03*
X64587500Y-75937500D03*
X64587500Y-71437500D03*
X64587500Y-66937500D03*
D15*
%TO.N,Net-(Q17-G)*%
X56100000Y-92400000D03*
X56100000Y-87900000D03*
X56100000Y-83400000D03*
X56100000Y-78900000D03*
X56100000Y-74400000D03*
X56100000Y-69800000D03*
X56100000Y-65400000D03*
X56100000Y-97000000D03*
%TO.N,R{slash}W*%
X69100000Y-92377000D03*
X69100000Y-88000000D03*
X69100000Y-83377000D03*
X69100000Y-78877000D03*
X69100000Y-74377000D03*
X69100000Y-70000000D03*
X69100000Y-65400000D03*
X69100000Y-96900000D03*
%TD*%
D17*
%TO.N,Buss0*%
X70238500Y-68938500D02*
X69800000Y-68500000D01*
X75336443Y-68938500D02*
X70238500Y-68938500D01*
X87000000Y-68200000D02*
X76074942Y-68200000D01*
X76074942Y-68200000D02*
X75336443Y-68938500D01*
X92700000Y-73900000D02*
X87000000Y-68200000D01*
X92700000Y-107540000D02*
X92700000Y-73900000D01*
X90340000Y-109900000D02*
X92700000Y-107540000D01*
D18*
%TO.N,3.3V*%
X32700000Y-138400000D02*
X38500000Y-138400000D01*
X29000000Y-111160000D02*
X29000000Y-134700000D01*
X29000000Y-134700000D02*
X32700000Y-138400000D01*
X45440000Y-145340000D02*
X46860000Y-145340000D01*
X31800000Y-108360000D02*
X29000000Y-111160000D01*
X38500000Y-138400000D02*
X45440000Y-145340000D01*
D17*
%TO.N,A3*%
X91491000Y-87111000D02*
X90340000Y-85960000D01*
X73000000Y-105001298D02*
X81501298Y-96500000D01*
X91491000Y-94056760D02*
X91491000Y-87111000D01*
X73000000Y-114500000D02*
X73000000Y-105001298D01*
X72800000Y-114700000D02*
X73000000Y-114500000D01*
X81501298Y-96500000D02*
X89047760Y-96500000D01*
X89047760Y-96500000D02*
X91491000Y-94056760D01*
%TO.N,D0*%
X59200000Y-70600000D02*
X25080000Y-70600000D01*
X25080000Y-70600000D02*
X20380000Y-75300000D01*
X60400000Y-69400000D02*
X59200000Y-70600000D01*
%TO.N,A15*%
X81900000Y-75800000D02*
X87800000Y-75800000D01*
%TO.N,A13*%
X82420000Y-80880000D02*
X87800000Y-80880000D01*
%TO.N,A11*%
X82740000Y-85960000D02*
X87800000Y-85960000D01*
%TO.N,A1*%
X82711000Y-89889000D02*
X89189000Y-89889000D01*
%TO.N,A9*%
X82727100Y-91040000D02*
X87800000Y-91040000D01*
%TO.N,A5*%
X89213860Y-96901000D02*
X81667400Y-96901000D01*
%TO.N,A7*%
X81833500Y-97302000D02*
X89379960Y-97302000D01*
D19*
%TO.N,RST*%
X80801000Y-124898000D02*
X79300000Y-126399000D01*
X80801000Y-123483207D02*
X80801000Y-124898000D01*
X86764207Y-117520000D02*
X80801000Y-123483207D01*
X87800000Y-117520000D02*
X86764207Y-117520000D01*
%TO.N,CLK*%
X79440000Y-114980000D02*
X77900000Y-116520000D01*
X87800000Y-114980000D02*
X79440000Y-114980000D01*
D17*
%TO.N,Buss1*%
X93101000Y-109679000D02*
X90340000Y-112440000D01*
X93101000Y-73452470D02*
X93101000Y-109679000D01*
X88824265Y-69175735D02*
X93101000Y-73452470D01*
%TO.N,Buss2*%
X93502000Y-111818000D02*
X90340000Y-114980000D01*
X93502000Y-73004941D02*
X93502000Y-111818000D01*
%TO.N,Buss3*%
X93903000Y-113957000D02*
X90340000Y-117520000D01*
X93903000Y-72557412D02*
X93903000Y-113957000D01*
X90504067Y-69158479D02*
X93903000Y-72557412D01*
%TO.N,Buss4*%
X94304000Y-72109883D02*
X94304000Y-116096000D01*
X91355168Y-69161051D02*
X94304000Y-72109883D01*
%TO.N,Buss5*%
X94705000Y-118235000D02*
X90340000Y-122600000D01*
X94705000Y-71662352D02*
X94705000Y-118235000D01*
%TO.N,Buss2*%
X89660575Y-69163516D02*
X93502000Y-73004941D01*
%TO.N,Buss5*%
X92300000Y-69257352D02*
X94705000Y-71662352D01*
X92300000Y-69200000D02*
X92300000Y-69257352D01*
%TO.N,Buss7*%
X95507000Y-122513000D02*
X90340000Y-127680000D01*
%TO.N,Buss6*%
X93200000Y-69200000D02*
X93200000Y-69308822D01*
%TO.N,Buss7*%
X95507000Y-70767293D02*
X95507000Y-122513000D01*
%TO.N,Buss6*%
X95106000Y-120374000D02*
X90340000Y-125140000D01*
%TO.N,Buss7*%
X94100000Y-69360293D02*
X95507000Y-70767293D01*
%TO.N,Buss6*%
X93200000Y-69308822D02*
X95106000Y-71214822D01*
%TO.N,Buss4*%
X94304000Y-116096000D02*
X90340000Y-120060000D01*
%TO.N,Buss7*%
X94100000Y-69200000D02*
X94100000Y-69360293D01*
%TO.N,Buss6*%
X95106000Y-71214822D02*
X95106000Y-120374000D01*
%TO.N,A7*%
X92300000Y-77760000D02*
X90340000Y-75800000D01*
X89379960Y-97302000D02*
X92300000Y-94381960D01*
X73802000Y-105333500D02*
X81833500Y-97302000D01*
X72800000Y-122700000D02*
X73802000Y-121698000D01*
X73802000Y-121698000D02*
X73802000Y-105333500D01*
X92300000Y-94381960D02*
X92300000Y-77760000D01*
%TO.N,A5*%
X89213860Y-96901000D02*
X91892000Y-94222860D01*
X73401000Y-118099000D02*
X73401000Y-105167400D01*
X72800000Y-118700000D02*
X73401000Y-118099000D01*
X73401000Y-105167400D02*
X81667400Y-96901000D01*
%TO.N,A11*%
X80800000Y-87900000D02*
X82740000Y-85960000D01*
X80800000Y-95500000D02*
X80800000Y-87900000D01*
X66802000Y-109498000D02*
X80800000Y-95500000D01*
%TO.N,A1*%
X81201000Y-95666100D02*
X68200000Y-108667100D01*
X81201000Y-91399000D02*
X81201000Y-95666100D01*
X82711000Y-89889000D02*
X81201000Y-91399000D01*
%TO.N,A9*%
X81602000Y-92165100D02*
X82727100Y-91040000D01*
X81602000Y-95832200D02*
X81602000Y-92165100D01*
X70497100Y-106937100D02*
X81602000Y-95832200D01*
X67203000Y-113546942D02*
X70497100Y-110252842D01*
X67203000Y-121103000D02*
X67203000Y-113546942D01*
X72800000Y-126700000D02*
X67203000Y-121103000D01*
%TO.N,A1*%
X90340000Y-91040000D02*
X89189000Y-89889000D01*
%TO.N,A9*%
X70497100Y-110252842D02*
X70497100Y-106937100D01*
%TO.N,A11*%
X72800000Y-130700000D02*
X66802000Y-124702000D01*
X66802000Y-124702000D02*
X66802000Y-109498000D01*
%TO.N,A1*%
X68200000Y-108667100D02*
X68200000Y-111700000D01*
%TO.N,A13*%
X80351000Y-82949000D02*
X82420000Y-80880000D01*
X66401000Y-106279000D02*
X80351000Y-92329000D01*
X66401000Y-128301000D02*
X66401000Y-106279000D01*
X80351000Y-92329000D02*
X80351000Y-82949000D01*
X72800000Y-134700000D02*
X66401000Y-128301000D01*
%TO.N,A15*%
X79950000Y-77750000D02*
X81900000Y-75800000D01*
X79950000Y-87650000D02*
X79950000Y-77750000D01*
X66000000Y-101600000D02*
X79950000Y-87650000D01*
X66000000Y-131900000D02*
X66000000Y-101600000D01*
X72800000Y-138700000D02*
X66000000Y-131900000D01*
%TO.N,A5*%
X91892000Y-82432000D02*
X91892000Y-94222860D01*
X90340000Y-80880000D02*
X91892000Y-82432000D01*
%TO.N,D6*%
X21571000Y-81809000D02*
X20380000Y-83000000D01*
X59150057Y-96300000D02*
X50125028Y-87274972D01*
X50125028Y-87274972D02*
X50125028Y-85725028D01*
X50125028Y-85725028D02*
X46209000Y-81809000D01*
X60400000Y-96300000D02*
X59150057Y-96300000D01*
X46209000Y-81809000D02*
X21571000Y-81809000D01*
%TO.N,D4*%
X45904628Y-79269000D02*
X21511000Y-79269000D01*
X50074128Y-83438500D02*
X45904628Y-79269000D01*
X21511000Y-79269000D02*
X20380000Y-80400000D01*
X52488443Y-83438500D02*
X50074128Y-83438500D01*
X60400000Y-87400000D02*
X56449943Y-87400000D01*
X56449943Y-87400000D02*
X52488443Y-83438500D01*
%TO.N,D2*%
X21551000Y-76729000D02*
X20380000Y-77900000D01*
X58852000Y-76729000D02*
X21551000Y-76729000D01*
X60400000Y-78277000D02*
X58852000Y-76729000D01*
%TO.N,D1*%
X47143000Y-73777000D02*
X45620000Y-75300000D01*
X60400000Y-73777000D02*
X47143000Y-73777000D01*
%TO.N,D3*%
X47084286Y-77900000D02*
X45620000Y-77900000D01*
X51961286Y-82777000D02*
X47084286Y-77900000D01*
X60400000Y-82777000D02*
X51961286Y-82777000D01*
%TO.N,D5*%
X56997000Y-91777000D02*
X45620000Y-80400000D01*
X60400000Y-91777000D02*
X56997000Y-91777000D01*
%TO.N,D7*%
X45620000Y-90035714D02*
X45620000Y-83000000D01*
X56361286Y-100777000D02*
X45620000Y-90035714D01*
X60400000Y-100777000D02*
X56361286Y-100777000D01*
%TD*%
M02*
