%TF.GenerationSoftware,KiCad,Pcbnew,9.0.7*%
%TF.CreationDate,2026-03-28T17:24:32+01:00*%
%TF.ProjectId,Level_shifter_FPGA_V1.0,4c657665-6c5f-4736-9869-667465725f46,rev?*%
%TF.SameCoordinates,Original*%
%TF.FileFunction,Copper,L6,Bot*%
%TF.FilePolarity,Positive*%
%FSLAX46Y46*%
G04 Gerber Fmt 4.6, Leading zero omitted, Abs format (unit mm)*
G04 Created by KiCad (PCBNEW 9.0.7) date 2026-03-28 17:24:32*
%MOMM*%
%LPD*%
G01*
G04 APERTURE LIST*
%TA.AperFunction,ComponentPad*%
%ADD10R,1.700000X1.700000*%
%TD*%
%TA.AperFunction,ComponentPad*%
%ADD11C,1.700000*%
%TD*%
%TA.AperFunction,ComponentPad*%
%ADD12C,1.400000*%
%TD*%
%TA.AperFunction,ComponentPad*%
%ADD13R,1.800000X1.800000*%
%TD*%
%TA.AperFunction,ComponentPad*%
%ADD14C,1.800000*%
%TD*%
%TA.AperFunction,ViaPad*%
%ADD15C,0.600000*%
%TD*%
%TA.AperFunction,ViaPad*%
%ADD16C,1.000000*%
%TD*%
%TA.AperFunction,Conductor*%
%ADD17C,0.200000*%
%TD*%
%TA.AperFunction,Conductor*%
%ADD18C,0.400000*%
%TD*%
G04 APERTURE END LIST*
D10*
%TO.P,J3,1,Pin_1*%
%TO.N,Net-(J2-Pin_39)*%
X34340000Y-124800000D03*
D11*
%TO.P,J3,2,Pin_2*%
%TO.N,Net-(J2-Pin_40)*%
X31800000Y-124800000D03*
%TO.P,J3,3,Pin_3*%
%TO.N,Net-(J2-Pin_37)*%
X34340000Y-127340000D03*
%TO.P,J3,4,Pin_4*%
%TO.N,Net-(J2-Pin_38)*%
X31800000Y-127340000D03*
%TO.P,J3,5,Pin_5*%
%TO.N,Net-(J2-Pin_35)*%
X34340000Y-129880000D03*
%TO.P,J3,6,Pin_6*%
%TO.N,Net-(J2-Pin_36)*%
X31800000Y-129880000D03*
%TO.P,J3,7,Pin_7*%
%TO.N,Net-(J2-Pin_1)*%
X34340000Y-132420000D03*
%TO.P,J3,8,Pin_8*%
%TO.N,Net-(J2-Pin_34)*%
X31800000Y-132420000D03*
%TO.P,J3,9,Pin_9*%
%TO.N,GND*%
X34340000Y-134960000D03*
%TO.P,J3,10,Pin_10*%
%TO.N,Net-(J2-Pin_2)*%
X31800000Y-134960000D03*
%TD*%
D12*
%TO.P,R5,2*%
%TO.N,D1*%
X45620000Y-75300000D03*
%TO.P,R5,1*%
%TO.N,Net-(J2-Pin_3)*%
X38000000Y-75300000D03*
%TD*%
%TO.P,R8,2*%
%TO.N,D7*%
X45620000Y-83000000D03*
%TO.P,R8,1*%
%TO.N,Net-(J2-Pin_9)*%
X38000000Y-83000000D03*
%TD*%
%TO.P,R7,2*%
%TO.N,D5*%
X45620000Y-80400000D03*
%TO.P,R7,1*%
%TO.N,Net-(J2-Pin_7)*%
X38000000Y-80400000D03*
%TD*%
D10*
%TO.P,J8,1,Pin_1*%
%TO.N,Buss0*%
X90340000Y-109900000D03*
D11*
%TO.P,J8,2,Pin_2*%
%TO.N,VCC*%
X87800000Y-109900000D03*
%TO.P,J8,3,Pin_3*%
%TO.N,Buss1*%
X90340000Y-112440000D03*
%TO.P,J8,4,Pin_4*%
%TO.N,GND*%
X87800000Y-112440000D03*
%TO.P,J8,5,Pin_5*%
%TO.N,Buss2*%
X90340000Y-114980000D03*
%TO.P,J8,6,Pin_6*%
%TO.N,CLK*%
X87800000Y-114980000D03*
%TO.P,J8,7,Pin_7*%
%TO.N,Buss3*%
X90340000Y-117520000D03*
%TO.P,J8,8,Pin_8*%
%TO.N,RST*%
X87800000Y-117520000D03*
%TO.P,J8,9,Pin_9*%
%TO.N,Buss4*%
X90340000Y-120060000D03*
%TO.P,J8,10,Pin_10*%
%TO.N,GND*%
X87800000Y-120060000D03*
%TO.P,J8,11,Pin_11*%
%TO.N,Buss5*%
X90340000Y-122600000D03*
%TO.P,J8,12,Pin_12*%
%TO.N,R{slash}W*%
X87800000Y-122600000D03*
%TO.P,J8,13,Pin_13*%
%TO.N,Buss6*%
X90340000Y-125140000D03*
%TO.P,J8,14,Pin_14*%
%TO.N,GND*%
X87800000Y-125140000D03*
%TO.P,J8,15,Pin_15*%
%TO.N,Buss7*%
X90340000Y-127680000D03*
%TO.P,J8,16,Pin_16*%
%TO.N,VCC*%
X87800000Y-127680000D03*
%TD*%
D10*
%TO.P,J1,1,Pin_1*%
%TO.N,A7*%
X90340000Y-75800000D03*
D11*
%TO.P,J1,2,Pin_2*%
%TO.N,A15*%
X87800000Y-75800000D03*
%TO.P,J1,3,Pin_3*%
%TO.N,A6*%
X90340000Y-78340000D03*
%TO.P,J1,4,Pin_4*%
%TO.N,A14*%
X87800000Y-78340000D03*
%TO.P,J1,5,Pin_5*%
%TO.N,A5*%
X90340000Y-80880000D03*
%TO.P,J1,6,Pin_6*%
%TO.N,A13*%
X87800000Y-80880000D03*
%TO.P,J1,7,Pin_7*%
%TO.N,A4*%
X90340000Y-83420000D03*
%TO.P,J1,8,Pin_8*%
%TO.N,A12*%
X87800000Y-83420000D03*
%TO.P,J1,9,Pin_9*%
%TO.N,A3*%
X90340000Y-85960000D03*
%TO.P,J1,10,Pin_10*%
%TO.N,A11*%
X87800000Y-85960000D03*
%TO.P,J1,11,Pin_11*%
%TO.N,A2*%
X90340000Y-88500000D03*
%TO.P,J1,12,Pin_12*%
%TO.N,A10*%
X87800000Y-88500000D03*
%TO.P,J1,13,Pin_13*%
%TO.N,A1*%
X90340000Y-91040000D03*
%TO.P,J1,14,Pin_14*%
%TO.N,A9*%
X87800000Y-91040000D03*
%TO.P,J1,15,Pin_15*%
%TO.N,A0*%
X90340000Y-93580000D03*
%TO.P,J1,16,Pin_16*%
%TO.N,A8*%
X87800000Y-93580000D03*
%TD*%
D12*
%TO.P,R24,1*%
%TO.N,CLK*%
X77900000Y-116520000D03*
%TO.P,R24,2*%
%TO.N,VCC*%
X77900000Y-108900000D03*
%TD*%
%TO.P,R22,1*%
%TO.N,Net-(Q20-D)*%
X80100000Y-116520000D03*
%TO.P,R22,2*%
%TO.N,VCC*%
X80100000Y-108900000D03*
%TD*%
%TO.P,R4,1*%
%TO.N,D6*%
X20380000Y-83000000D03*
%TO.P,R4,2*%
%TO.N,Net-(J2-Pin_10)*%
X28000000Y-83000000D03*
%TD*%
%TO.P,R3,1*%
%TO.N,D4*%
X20380000Y-80400000D03*
%TO.P,R3,2*%
%TO.N,Net-(J2-Pin_8)*%
X28000000Y-80400000D03*
%TD*%
%TO.P,R2,1*%
%TO.N,D2*%
X20380000Y-77900000D03*
%TO.P,R2,2*%
%TO.N,Net-(J2-Pin_6)*%
X28000000Y-77900000D03*
%TD*%
%TO.P,R1,1*%
%TO.N,D0*%
X20380000Y-75300000D03*
%TO.P,R1,2*%
%TO.N,Net-(J2-Pin_4)*%
X28000000Y-75300000D03*
%TD*%
D10*
%TO.P,J7,1,Pin_1*%
%TO.N,VCC*%
X88049500Y-136850500D03*
D11*
%TO.P,J7,2,Pin_2*%
%TO.N,GND*%
X88049500Y-139390500D03*
%TD*%
D10*
%TO.P,J6,1,Pin_1*%
%TO.N,VCC*%
X83449500Y-136850500D03*
D11*
%TO.P,J6,2,Pin_2*%
%TO.N,GND*%
X83449500Y-139390500D03*
%TD*%
D10*
%TO.P,J5,1,Pin_1*%
%TO.N,VCC*%
X78849500Y-136850500D03*
D11*
%TO.P,J5,2,Pin_2*%
%TO.N,GND*%
X78849500Y-139390500D03*
%TD*%
D10*
%TO.P,J4,1,Pin_1*%
%TO.N,GND*%
X46860000Y-142800000D03*
D11*
%TO.P,J4,2,Pin_2*%
%TO.N,3.3V*%
X46860000Y-145340000D03*
%TO.P,J4,3,Pin_3*%
%TO.N,GND*%
X49400000Y-142800000D03*
%TO.P,J4,4,Pin_4*%
%TO.N,5V*%
X49400000Y-145340000D03*
%TO.P,J4,5,Pin_5*%
%TO.N,GND*%
X51940000Y-142800000D03*
%TO.P,J4,6,Pin_6*%
%TO.N,VCC*%
X51940000Y-145340000D03*
%TD*%
D10*
%TO.P,J2,1,Pin_1*%
%TO.N,Net-(J2-Pin_1)*%
X34340000Y-72800000D03*
D11*
%TO.P,J2,2,Pin_2*%
%TO.N,Net-(J2-Pin_2)*%
X31800000Y-72800000D03*
%TO.P,J2,3,Pin_3*%
%TO.N,Net-(J2-Pin_3)*%
X34340000Y-75340000D03*
%TO.P,J2,4,Pin_4*%
%TO.N,Net-(J2-Pin_4)*%
X31800000Y-75340000D03*
%TO.P,J2,5,Pin_5*%
%TO.N,Net-(J2-Pin_5)*%
X34340000Y-77880000D03*
%TO.P,J2,6,Pin_6*%
%TO.N,Net-(J2-Pin_6)*%
X31800000Y-77880000D03*
%TO.P,J2,7,Pin_7*%
%TO.N,Net-(J2-Pin_7)*%
X34340000Y-80420000D03*
%TO.P,J2,8,Pin_8*%
%TO.N,Net-(J2-Pin_8)*%
X31800000Y-80420000D03*
%TO.P,J2,9,Pin_9*%
%TO.N,Net-(J2-Pin_9)*%
X34340000Y-82960000D03*
%TO.P,J2,10,Pin_10*%
%TO.N,Net-(J2-Pin_10)*%
X31800000Y-82960000D03*
%TO.P,J2,11,Pin_11*%
%TO.N,GND*%
X34340000Y-85500000D03*
%TO.P,J2,12,Pin_12*%
%TO.N,5V*%
X31800000Y-85500000D03*
%TO.P,J2,13,Pin_13*%
%TO.N,ADR1*%
X34340000Y-88040000D03*
%TO.P,J2,14,Pin_14*%
%TO.N,ADR0*%
X31800000Y-88040000D03*
%TO.P,J2,15,Pin_15*%
%TO.N,ADR3*%
X34340000Y-90580000D03*
%TO.P,J2,16,Pin_16*%
%TO.N,ADR2*%
X31800000Y-90580000D03*
%TO.P,J2,17,Pin_17*%
%TO.N,ADR5*%
X34340000Y-93120000D03*
%TO.P,J2,18,Pin_18*%
%TO.N,ADR4*%
X31800000Y-93120000D03*
%TO.P,J2,19,Pin_19*%
%TO.N,ADR7*%
X34340000Y-95660000D03*
%TO.P,J2,20,Pin_20*%
%TO.N,ADR6*%
X31800000Y-95660000D03*
%TO.P,J2,21,Pin_21*%
%TO.N,ADR9*%
X34340000Y-98200000D03*
%TO.P,J2,22,Pin_22*%
%TO.N,ADR8*%
X31800000Y-98200000D03*
%TO.P,J2,23,Pin_23*%
%TO.N,ADR11*%
X34340000Y-100740000D03*
%TO.P,J2,24,Pin_24*%
%TO.N,ADR10*%
X31800000Y-100740000D03*
%TO.P,J2,25,Pin_25*%
%TO.N,ADR13*%
X34340000Y-103280000D03*
%TO.P,J2,26,Pin_26*%
%TO.N,ADR12*%
X31800000Y-103280000D03*
%TO.P,J2,27,Pin_27*%
%TO.N,ADR15*%
X34340000Y-105820000D03*
%TO.P,J2,28,Pin_28*%
%TO.N,ADR14*%
X31800000Y-105820000D03*
%TO.P,J2,29,Pin_29*%
%TO.N,GND*%
X34340000Y-108360000D03*
%TO.P,J2,30,Pin_30*%
%TO.N,3.3V*%
X31800000Y-108360000D03*
%TO.P,J2,31,Pin_31*%
%TO.N,RW L*%
X34340000Y-110900000D03*
%TO.P,J2,32,Pin_32*%
%TO.N,CLK L*%
X31800000Y-110900000D03*
%TO.P,J2,33,Pin_33*%
%TO.N,RST L*%
X34340000Y-113440000D03*
%TO.P,J2,34,Pin_34*%
%TO.N,Net-(J2-Pin_34)*%
X31800000Y-113440000D03*
%TO.P,J2,35,Pin_35*%
%TO.N,Net-(J2-Pin_35)*%
X34340000Y-115980000D03*
%TO.P,J2,36,Pin_36*%
%TO.N,Net-(J2-Pin_36)*%
X31800000Y-115980000D03*
%TO.P,J2,37,Pin_37*%
%TO.N,Net-(J2-Pin_37)*%
X34340000Y-118520000D03*
%TO.P,J2,38,Pin_38*%
%TO.N,Net-(J2-Pin_38)*%
X31800000Y-118520000D03*
%TO.P,J2,39,Pin_39*%
%TO.N,Net-(J2-Pin_39)*%
X34340000Y-121060000D03*
%TO.P,J2,40,Pin_40*%
%TO.N,Net-(J2-Pin_40)*%
X31800000Y-121060000D03*
%TD*%
D13*
%TO.P,D1,1,K*%
%TO.N,GND*%
X34870000Y-143900000D03*
D14*
%TO.P,D1,2,A*%
%TO.N,Net-(D1-A)*%
X32330000Y-143900000D03*
%TD*%
D12*
%TO.P,R6,2*%
%TO.N,D3*%
X45620000Y-77900000D03*
%TO.P,R6,1*%
%TO.N,Net-(J2-Pin_5)*%
X38000000Y-77900000D03*
%TD*%
D15*
%TO.N,VCC*%
X80800000Y-126200000D03*
D16*
%TO.N,GND*%
X72600000Y-132000000D03*
X72601000Y-136000000D03*
X62600000Y-127000000D03*
X72500000Y-124100000D03*
X72500000Y-120000000D03*
X72601000Y-115900000D03*
X72100000Y-107400000D03*
X72200000Y-111700000D03*
X42250000Y-67600000D03*
%TO.N,VCC*%
X42150000Y-65500000D03*
%TO.N,GND*%
X25050000Y-67500000D03*
%TO.N,VCC*%
X24950000Y-65500000D03*
X28370000Y-144800000D03*
%TO.N,RST*%
X79300000Y-126399000D03*
%TO.N,GND*%
X81937500Y-116800450D03*
X79900000Y-123460000D03*
X79900000Y-128711000D03*
%TO.N,RST L*%
X83500000Y-122110000D03*
%TO.N,CLK L*%
X80800000Y-122210000D03*
%TO.N,RW L*%
X76000000Y-127110000D03*
D15*
%TO.N,A7*%
X72800000Y-122700000D03*
%TO.N,A5*%
X72800000Y-118700000D03*
%TO.N,A3*%
X72800000Y-114700000D03*
%TO.N,A1*%
X68200000Y-111700000D03*
%TO.N,A9*%
X72800000Y-126700000D03*
%TO.N,A11*%
X72800000Y-130700000D03*
%TO.N,A13*%
X72800000Y-134700000D03*
%TO.N,A15*%
X72800000Y-138700000D03*
%TO.N,D7*%
X60400000Y-100777000D03*
%TO.N,D6*%
X60400000Y-96300000D03*
%TO.N,D5*%
X60400000Y-91777000D03*
%TO.N,D4*%
X60400000Y-87400000D03*
%TO.N,D3*%
X60400000Y-82777000D03*
%TO.N,D2*%
X60400000Y-78277000D03*
%TO.N,D1*%
X60400000Y-73777000D03*
%TO.N,D0*%
X60400000Y-69400000D03*
D16*
%TO.N,GND*%
X48400000Y-108750000D03*
X48400000Y-112750000D03*
X48400000Y-116750000D03*
X48400000Y-120750000D03*
X48400000Y-124750000D03*
X48400000Y-128750000D03*
X48400000Y-132750000D03*
X48400000Y-136750000D03*
D15*
%TO.N,A0*%
X53900000Y-138700000D03*
%TO.N,A2*%
X53900000Y-134700000D03*
%TO.N,A4*%
X53800000Y-130700000D03*
%TO.N,A8*%
X53900000Y-122700000D03*
%TO.N,A10*%
X53900000Y-118700000D03*
%TO.N,A12*%
X53900000Y-114700000D03*
%TO.N,A6*%
X53800000Y-126700000D03*
%TO.N,A14*%
X53900000Y-110700000D03*
%TO.N,Buss7*%
X69800000Y-99800000D03*
%TO.N,Buss6*%
X70000000Y-95600000D03*
%TO.N,Buss5*%
X69900000Y-91100000D03*
%TO.N,Buss4*%
X69900000Y-86600000D03*
%TO.N,Buss3*%
X69900000Y-82000000D03*
%TO.N,Buss2*%
X69900000Y-77500000D03*
%TO.N,Buss7*%
X94100000Y-69200000D03*
%TO.N,Buss6*%
X93200000Y-69200000D03*
%TO.N,Buss5*%
X92300000Y-69200000D03*
%TO.N,Buss4*%
X91355168Y-69161051D03*
%TO.N,Buss3*%
X90504067Y-69158479D03*
%TO.N,Buss2*%
X89660575Y-69163516D03*
%TO.N,Buss1*%
X69900000Y-73000000D03*
X88824265Y-69175735D03*
%TO.N,Buss0*%
X69800000Y-68500000D03*
%TO.N,GND*%
X84500000Y-69000000D03*
X75087500Y-68337500D03*
X75087500Y-72737500D03*
X75087500Y-77337500D03*
X75087500Y-81737500D03*
X75087500Y-86337500D03*
X75087500Y-90737500D03*
X75087500Y-95337500D03*
X75087500Y-99837500D03*
X54087500Y-96937500D03*
X54087500Y-92437500D03*
X54087500Y-87937500D03*
X54087500Y-83437500D03*
X54087500Y-78937500D03*
X54087500Y-74437500D03*
X54087500Y-69937500D03*
X54087500Y-65337500D03*
D16*
%TO.N,VCC*%
X50689000Y-82637500D03*
X78611000Y-82637500D03*
X78611000Y-96337500D03*
X50689000Y-96237500D03*
X78611000Y-69237500D03*
X50689000Y-69037500D03*
%TO.N,GND*%
X64587500Y-85037500D03*
X64587500Y-98437500D03*
X64587500Y-93937500D03*
X64587500Y-89437500D03*
X64587500Y-80437500D03*
X64587500Y-75937500D03*
X64587500Y-71437500D03*
X64587500Y-66937500D03*
D15*
%TO.N,Net-(Q17-G)*%
X56100000Y-92400000D03*
X56100000Y-87900000D03*
X56100000Y-83400000D03*
X56100000Y-78900000D03*
X56100000Y-74400000D03*
X56100000Y-69800000D03*
X56100000Y-65400000D03*
X56100000Y-97000000D03*
%TO.N,R{slash}W*%
X69100000Y-92377000D03*
X69100000Y-88000000D03*
X69100000Y-83377000D03*
X69100000Y-78877000D03*
X69100000Y-74377000D03*
X69100000Y-70000000D03*
X69100000Y-65400000D03*
X69100000Y-96900000D03*
%TD*%
D17*
%TO.N,Buss1*%
X87800000Y-70200000D02*
X72700000Y-70200000D01*
%TO.N,Buss2*%
X78800000Y-70600000D02*
X88300000Y-70600000D01*
%TO.N,Buss7*%
X81164400Y-72604000D02*
X90696000Y-72604000D01*
%TO.N,Buss6*%
X80998300Y-72203000D02*
X90197000Y-72203000D01*
%TO.N,Buss5*%
X80832200Y-71802000D02*
X78988471Y-73645729D01*
X78988471Y-73645729D02*
X78988471Y-81011529D01*
X78988471Y-81011529D02*
X69900000Y-90100000D01*
X89698000Y-71802000D02*
X80832200Y-71802000D01*
X92300000Y-69200000D02*
X89698000Y-71802000D01*
X69900000Y-90100000D02*
X69900000Y-91100000D01*
%TO.N,Buss4*%
X80666100Y-71401000D02*
X89115219Y-71401000D01*
%TO.N,Buss3*%
X88674034Y-71000000D02*
X90504067Y-69169967D01*
X80500000Y-71000000D02*
X88674034Y-71000000D01*
X69900000Y-81600000D02*
X80500000Y-71000000D01*
X69900000Y-82000000D02*
X69900000Y-81600000D01*
X90504067Y-69169967D02*
X90504067Y-69158479D01*
%TO.N,A14*%
X82460000Y-78340000D02*
X87800000Y-78340000D01*
%TO.N,A12*%
X82780000Y-83420000D02*
X87800000Y-83420000D01*
%TO.N,A10*%
X82867100Y-88500000D02*
X87800000Y-88500000D01*
%TO.N,A8*%
X82720000Y-93580000D02*
X87800000Y-93580000D01*
%TO.N,A0*%
X87320000Y-96600000D02*
X81968400Y-96600000D01*
%TO.N,A2*%
X82134500Y-97001000D02*
X89864800Y-97001000D01*
%TO.N,A4*%
X90030900Y-97402000D02*
X82300600Y-97402000D01*
%TO.N,A6*%
X82466700Y-97803000D02*
X90197000Y-97803000D01*
%TO.N,A4*%
X92001000Y-85081000D02*
X90340000Y-83420000D01*
X92001000Y-95431900D02*
X92001000Y-85081000D01*
X90030900Y-97402000D02*
X92001000Y-95431900D01*
%TO.N,A6*%
X92300000Y-80300000D02*
X90340000Y-78340000D01*
X92300000Y-84812900D02*
X92300000Y-80300000D01*
X92402000Y-84914900D02*
X92300000Y-84812900D01*
X92402000Y-95598000D02*
X92402000Y-84914900D01*
X90197000Y-97803000D02*
X92402000Y-95598000D01*
%TO.N,A2*%
X91600000Y-95265800D02*
X91600000Y-89760000D01*
X89864800Y-97001000D02*
X91600000Y-95265800D01*
X91600000Y-89760000D02*
X90340000Y-88500000D01*
%TO.N,A0*%
X87320000Y-96600000D02*
X90340000Y-93580000D01*
X64764400Y-102104000D02*
X76464400Y-102104000D01*
X56403000Y-122112858D02*
X56403000Y-110465400D01*
X56403000Y-110465400D02*
X64764400Y-102104000D01*
X52397000Y-137197000D02*
X52397000Y-126118857D01*
X52397000Y-126118857D02*
X56403000Y-122112858D01*
X76464400Y-102104000D02*
X81968400Y-96600000D01*
X53900000Y-138700000D02*
X52397000Y-137197000D01*
%TO.N,A12*%
X80701000Y-85499000D02*
X82780000Y-83420000D01*
X75966100Y-100901000D02*
X80701000Y-96166100D01*
X55200000Y-109967100D02*
X64266100Y-100901000D01*
%TO.N,A10*%
X81102000Y-90265100D02*
X82867100Y-88500000D01*
%TO.N,A12*%
X64266100Y-100901000D02*
X75966100Y-100901000D01*
%TO.N,A10*%
X76132200Y-101302000D02*
X81102000Y-96332200D01*
X55601000Y-110133200D02*
X64432200Y-101302000D01*
X55601000Y-116999000D02*
X55601000Y-110133200D01*
%TO.N,A8*%
X81503000Y-94797000D02*
X82720000Y-93580000D01*
X64598300Y-101703000D02*
X76298300Y-101703000D01*
X56002000Y-120598000D02*
X56002000Y-110299300D01*
X53900000Y-122700000D02*
X56002000Y-120598000D01*
%TO.N,A10*%
X81102000Y-96332200D02*
X81102000Y-90265100D01*
X53900000Y-118700000D02*
X55601000Y-116999000D01*
X64432200Y-101302000D02*
X76132200Y-101302000D01*
%TO.N,A2*%
X64930500Y-102505000D02*
X76630500Y-102505000D01*
X56804000Y-110631500D02*
X64930500Y-102505000D01*
%TO.N,A12*%
X55200000Y-113400000D02*
X55200000Y-109967100D01*
%TO.N,A2*%
X52798000Y-126284957D02*
X56804000Y-122278958D01*
%TO.N,A8*%
X81503000Y-96498300D02*
X81503000Y-94797000D01*
%TO.N,A2*%
X52798000Y-133598000D02*
X52798000Y-126284957D01*
X53900000Y-134700000D02*
X52798000Y-133598000D01*
%TO.N,A4*%
X76796600Y-102906000D02*
X82300600Y-97402000D01*
X65096600Y-102906000D02*
X76796600Y-102906000D01*
X57205000Y-110797600D02*
X65096600Y-102906000D01*
%TO.N,A2*%
X76630500Y-102505000D02*
X82134500Y-97001000D01*
%TO.N,A12*%
X80701000Y-96166100D02*
X80701000Y-85499000D01*
%TO.N,A4*%
X53199000Y-126451057D02*
X57205000Y-122445058D01*
X57205000Y-122445058D02*
X57205000Y-110797600D01*
X53199000Y-130099000D02*
X53199000Y-126451057D01*
%TO.N,A6*%
X65262700Y-103307000D02*
X76962700Y-103307000D01*
%TO.N,A2*%
X56804000Y-122278958D02*
X56804000Y-110631500D01*
%TO.N,A6*%
X57606000Y-122894000D02*
X57606000Y-110963700D01*
%TO.N,A12*%
X53900000Y-114700000D02*
X55200000Y-113400000D01*
%TO.N,A6*%
X53800000Y-126700000D02*
X57606000Y-122894000D01*
%TO.N,A8*%
X76298300Y-101703000D02*
X81503000Y-96498300D01*
%TO.N,A6*%
X57606000Y-110963700D02*
X65262700Y-103307000D01*
%TO.N,A4*%
X53800000Y-130700000D02*
X53199000Y-130099000D01*
%TO.N,A6*%
X76962700Y-103307000D02*
X82466700Y-97803000D01*
%TO.N,A8*%
X56002000Y-110299300D02*
X64598300Y-101703000D01*
%TO.N,A14*%
X80300000Y-80500000D02*
X82460000Y-78340000D01*
X75800000Y-100500000D02*
X80300000Y-96000000D01*
X80300000Y-96000000D02*
X80300000Y-80500000D01*
X64100000Y-100500000D02*
X75800000Y-100500000D01*
X53900000Y-110700000D02*
X64100000Y-100500000D01*
D18*
%TO.N,Net-(J2-Pin_1)*%
X39700000Y-74900000D02*
X37600000Y-72800000D01*
X39700000Y-127060000D02*
X39700000Y-74900000D01*
X34340000Y-132420000D02*
X39700000Y-127060000D01*
X37600000Y-72800000D02*
X34340000Y-72800000D01*
%TO.N,Net-(J2-Pin_2)*%
X28600000Y-72800000D02*
X31800000Y-72800000D01*
X26300000Y-75100000D02*
X28600000Y-72800000D01*
X26300000Y-129460000D02*
X26300000Y-75100000D01*
X31800000Y-134960000D02*
X26300000Y-129460000D01*
D17*
%TO.N,Buss7*%
X90696000Y-72604000D02*
X94100000Y-69200000D01*
X79900000Y-73868400D02*
X81164400Y-72604000D01*
X79900000Y-89675056D02*
X79900000Y-73868400D01*
X69800000Y-99775057D02*
X79900000Y-89675056D01*
X69800000Y-99800000D02*
X69800000Y-99775057D01*
%TO.N,Buss6*%
X90197000Y-72203000D02*
X93200000Y-69200000D01*
X79500000Y-82881286D02*
X79500000Y-73701300D01*
X70000000Y-92381286D02*
X79500000Y-82881286D01*
X70000000Y-95600000D02*
X70000000Y-92381286D01*
X79500000Y-73701300D02*
X80998300Y-72203000D01*
%TO.N,Buss4*%
X78587471Y-73479629D02*
X80666100Y-71401000D01*
X89115219Y-71401000D02*
X91355168Y-69161051D01*
X78587471Y-79087471D02*
X78587471Y-73479629D01*
X71074943Y-86600000D02*
X78587471Y-79087471D01*
X69900000Y-86600000D02*
X71074943Y-86600000D01*
%TO.N,Buss1*%
X72700000Y-70200000D02*
X69900000Y-73000000D01*
X88824265Y-69175735D02*
X87800000Y-70200000D01*
%TO.N,Net-(Q17-G)*%
X56100000Y-92400000D02*
X56100000Y-87900000D01*
X56100000Y-87900000D02*
X56100000Y-83400000D01*
X56100000Y-83400000D02*
X56100000Y-78900000D01*
X56100000Y-78900000D02*
X56100000Y-74400000D01*
X56100000Y-74400000D02*
X56100000Y-69800000D01*
X56100000Y-97000000D02*
X56100000Y-92400000D01*
X56100000Y-69800000D02*
X56100000Y-65400000D01*
%TO.N,R{slash}W*%
X69100000Y-70000000D02*
X69100000Y-65400000D01*
X69100000Y-96900000D02*
X69100000Y-70000000D01*
%TO.N,Buss2*%
X74061500Y-73338500D02*
X69900000Y-77500000D01*
X78800000Y-70600000D02*
X76061500Y-73338500D01*
X89660575Y-69239425D02*
X88300000Y-70600000D01*
X89660575Y-69163516D02*
X89660575Y-69239425D01*
X76061500Y-73338500D02*
X74061500Y-73338500D01*
%TD*%
M02*
